<?xml version="1.0" encoding="UTF-8" standalone="no"?>
<!DOCTYPE svg PUBLIC "-//W3C//DTD SVG 1.1//EN"
 "http://www.w3.org/Graphics/SVG/1.1/DTD/svg11.dtd">
<!-- Generated by graphviz version 8.1.0 (20230707.0739)
 -->
<!-- Title: D:/Firmware/MCU16ASMPS_TestEnvironment/_deployment/dspic33ch&#45;power&#45;totem&#45;pole&#45;demonstration&#45;application&#45;single&#45;phase/dspic33ch_totem_pole_single_phase_primary_IL.X/mcc_generated_files/can/can1.h Pages: 1 -->
<svg width="238pt" height="268pt"
 viewBox="0.00 0.00 237.90 268.00" xmlns="http://www.w3.org/2000/svg" xmlns:xlink="http://www.w3.org/1999/xlink">
<g id="graph0" class="graph" transform="scale(1 1) rotate(0) translate(4 264)">
<title>D:/Firmware/MCU16ASMPS_TestEnvironment/_deployment/dspic33ch&#45;power&#45;totem&#45;pole&#45;demonstration&#45;application&#45;single&#45;phase/dspic33ch_totem_pole_single_phase_primary_IL.X/mcc_generated_files/can/can1.h</title>
<!-- Node1 -->
<g id="Node000001" class="node">
<title>Node1</title>
<g id="a_Node000001"><a xlink:title="This is the generated driver header file for the CAN1 driver using CCL.">
<polygon fill="#999999" stroke="#666666" points="219.62,-260 43.12,-260 43.12,-168 219.62,-168 219.62,-260"/>
<text text-anchor="start" x="51.12" y="-246.5" font-family="Helvetica,sans-Serif" font-size="10.00">D:/Firmware/MCU16ASMPS</text>
<text text-anchor="start" x="51.12" y="-234.5" font-family="Helvetica,sans-Serif" font-size="10.00">_TestEnvironment/_deployment</text>
<text text-anchor="start" x="51.12" y="-222.5" font-family="Helvetica,sans-Serif" font-size="10.00">/dspic33ch&#45;power&#45;totem&#45;pole</text>
<text text-anchor="start" x="51.12" y="-210.5" font-family="Helvetica,sans-Serif" font-size="10.00">&#45;demonstration&#45;application&#45;single</text>
<text text-anchor="start" x="51.12" y="-198.5" font-family="Helvetica,sans-Serif" font-size="10.00">&#45;phase/dspic33ch_totem_pole_single</text>
<text text-anchor="start" x="51.12" y="-186.5" font-family="Helvetica,sans-Serif" font-size="10.00">_phase_primary_IL.X/mcc_generated</text>
<text text-anchor="middle" x="131.38" y="-174.5" font-family="Helvetica,sans-Serif" font-size="10.00">_files/can/can1.h</text>
</a>
</g>
</g>
<!-- Node2 -->
<g id="Node000002" class="node">
<title>Node2</title>
<g id="a_Node000002"><a xlink:title=" ">
<polygon fill="#e0e0e0" stroke="#999999" points="34.75,-132 0,-132 0,-112 34.75,-112 34.75,-132"/>
<text text-anchor="middle" x="17.38" y="-118.5" font-family="Helvetica,sans-Serif" font-size="10.00">xc.h</text>
</a>
</g>
</g>
<!-- Node1&#45;&gt;Node2 -->
<g id="edge1_Node000001_Node000002" class="edge">
<title>Node1&#45;&gt;Node2</title>
<g id="a_edge1_Node000001_Node000002"><a xlink:title=" ">
<path fill="none" stroke="#63b8ff" d="M74.04,-167.74C60.97,-157.41 47.91,-147.11 37.64,-139"/>
<polygon fill="#63b8ff" stroke="#63b8ff" points="40.08,-135.68 30.06,-132.23 35.74,-141.17 40.08,-135.68"/>
</a>
</g>
</g>
<!-- Node3 -->
<g id="Node000003" class="node">
<title>Node3</title>
<g id="a_Node000003"><a xlink:title=" ">
<polygon fill="#e0e0e0" stroke="#999999" points="212.25,-76 156.5,-76 156.5,-56 212.25,-56 212.25,-76"/>
<text text-anchor="middle" x="184.38" y="-62.5" font-family="Helvetica,sans-Serif" font-size="10.00">stdbool.h</text>
</a>
</g>
</g>
<!-- Node1&#45;&gt;Node3 -->
<g id="edge2_Node000001_Node000003" class="edge">
<title>Node1&#45;&gt;Node3</title>
<g id="a_edge2_Node000001_Node000003"><a xlink:title=" ">
<path fill="none" stroke="#63b8ff" d="M164.76,-167.84C171.44,-156.65 177.57,-144.32 181.38,-132 185.92,-117.29 186.47,-99.82 186,-86.7"/>
<polygon fill="#63b8ff" stroke="#63b8ff" points="189.46,-86.85 185.36,-77.07 182.47,-87.27 189.46,-86.85"/>
</a>
</g>
</g>
<!-- Node4 -->
<g id="Node000004" class="node">
<title>Node4</title>
<g id="a_Node000004"><a xlink:title=" ">
<polygon fill="#e0e0e0" stroke="#999999" points="152.5,-20 104.25,-20 104.25,0 152.5,0 152.5,-20"/>
<text text-anchor="middle" x="128.38" y="-6.5" font-family="Helvetica,sans-Serif" font-size="10.00">stdint.h</text>
</a>
</g>
</g>
<!-- Node1&#45;&gt;Node4 -->
<g id="edge3_Node000001_Node000004" class="edge">
<title>Node1&#45;&gt;Node4</title>
<g id="a_edge3_Node000001_Node000004"><a xlink:title=" ">
<path fill="none" stroke="#63b8ff" d="M185.13,-167.78C216.05,-136.11 244.57,-93 221.38,-56 208.64,-35.68 183.84,-24.31 163.05,-18.09"/>
<polygon fill="#63b8ff" stroke="#63b8ff" points="164.2,-14.5 153.63,-15.28 162.38,-21.26 164.2,-14.5"/>
</a>
</g>
</g>
<!-- Node5 -->
<g id="Node000005" class="node">
<title>Node5</title>
<g id="a_Node000005"><a xlink:href="a00092.html" target="_top" xlink:title="This is the generated driver types header file for the CAN driver using CCL.">
<polygon fill="white" stroke="#666666" points="100,-76 30.75,-76 30.75,-56 100,-56 100,-76"/>
<text text-anchor="middle" x="65.38" y="-62.5" font-family="Helvetica,sans-Serif" font-size="10.00">can_types.h</text>
</a>
</g>
</g>
<!-- Node1&#45;&gt;Node5 -->
<g id="edge4_Node000001_Node000005" class="edge">
<title>Node1&#45;&gt;Node5</title>
<g id="a_edge4_Node000001_Node000005"><a xlink:title=" ">
<path fill="none" stroke="#63b8ff" d="M99.96,-167.65C93.12,-156.36 86.43,-144.04 81.38,-132 75.25,-117.39 71.11,-99.92 68.58,-86.77"/>
<polygon fill="#63b8ff" stroke="#63b8ff" points="71.88,-86.35 66.7,-77.11 64.99,-87.57 71.88,-86.35"/>
</a>
</g>
</g>
<!-- Node6 -->
<g id="Node000006" class="node">
<title>Node6</title>
<g id="a_Node000006"><a xlink:href="a00089_source.html" target="_top" xlink:title=" ">
<polygon fill="white" stroke="#666666" points="172.38,-132 90.38,-132 90.38,-112 172.38,-112 172.38,-132"/>
<text text-anchor="middle" x="131.38" y="-118.5" font-family="Helvetica,sans-Serif" font-size="10.00">can_interface.h</text>
</a>
</g>
</g>
<!-- Node1&#45;&gt;Node6 -->
<g id="edge6_Node000001_Node000006" class="edge">
<title>Node1&#45;&gt;Node6</title>
<g id="a_edge6_Node000001_Node000006"><a xlink:title=" ">
<path fill="none" stroke="#63b8ff" d="M131.38,-167.74C131.38,-159.1 131.38,-150.48 131.38,-143.14"/>
<polygon fill="#63b8ff" stroke="#63b8ff" points="134.88,-143.23 131.38,-133.23 127.88,-143.23 134.88,-143.23"/>
</a>
</g>
</g>
<!-- Node5&#45;&gt;Node4 -->
<g id="edge5_Node000005_Node000004" class="edge">
<title>Node5&#45;&gt;Node4</title>
<g id="a_edge5_Node000005_Node000004"><a xlink:title=" ">
<path fill="none" stroke="#63b8ff" d="M76.35,-55.59C85.47,-47.77 98.67,-36.46 109.48,-27.19"/>
<polygon fill="#63b8ff" stroke="#63b8ff" points="111.21,-29.46 116.53,-20.3 106.66,-24.15 111.21,-29.46"/>
</a>
</g>
</g>
<!-- Node6&#45;&gt;Node3 -->
<g id="edge7_Node000006_Node000003" class="edge">
<title>Node6&#45;&gt;Node3</title>
<g id="a_edge7_Node000006_Node000003"><a xlink:title=" ">
<path fill="none" stroke="#63b8ff" d="M140.61,-111.59C148.05,-104.01 158.73,-93.13 167.67,-84.02"/>
<polygon fill="#63b8ff" stroke="#63b8ff" points="169.74,-86.89 174.25,-77.3 164.75,-81.98 169.74,-86.89"/>
</a>
</g>
</g>
<!-- Node6&#45;&gt;Node4 -->
<g id="edge8_Node000006_Node000004" class="edge">
<title>Node6&#45;&gt;Node4</title>
<g id="a_edge8_Node000006_Node000004"><a xlink:title=" ">
<path fill="none" stroke="#63b8ff" d="M131.12,-111.62C130.64,-93.92 129.58,-55.24 128.93,-31.32"/>
<polygon fill="#63b8ff" stroke="#63b8ff" points="132.4,-31.26 128.63,-21.35 125.4,-31.45 132.4,-31.26"/>
</a>
</g>
</g>
<!-- Node6&#45;&gt;Node5 -->
<g id="edge9_Node000006_Node000005" class="edge">
<title>Node6&#45;&gt;Node5</title>
<g id="a_edge9_Node000006_Node000005"><a xlink:title=" ">
<path fill="none" stroke="#63b8ff" d="M119.88,-111.59C110.32,-103.77 96.5,-92.46 85.17,-83.19"/>
<polygon fill="#63b8ff" stroke="#63b8ff" points="87.7,-79.92 77.74,-76.3 83.26,-85.34 87.7,-79.92"/>
</a>
</g>
</g>
</g>
</svg>
