<?xml version="1.0" encoding="UTF-8" standalone="no"?>
<!DOCTYPE svg PUBLIC "-//W3C//DTD SVG 1.1//EN"
 "http://www.w3.org/Graphics/SVG/1.1/DTD/svg11.dtd">
<!-- Generated by graphviz version 2.44.1 (20200629.0846)
 -->
<!-- Title: C:/Users/M70027/Documents/Projects/tp&#45;deployment/dspic33ch&#45;power&#45;totem&#45;pole&#45;demonstration&#45;application&#45;single&#45;phase_v2/dspic33ch_totem_pole_single_phase_primary_IL.X/mcc_generated_files/can/src/can1.c Pages: 1 -->
<svg width="338pt" height="335pt"
 viewBox="0.00 0.00 338.13 335.00" xmlns="http://www.w3.org/2000/svg" xmlns:xlink="http://www.w3.org/1999/xlink">
<g id="graph0" class="graph" transform="scale(1 1) rotate(0) translate(4 331)">
<title>C:/Users/M70027/Documents/Projects/tp&#45;deployment/dspic33ch&#45;power&#45;totem&#45;pole&#45;demonstration&#45;application&#45;single&#45;phase_v2/dspic33ch_totem_pole_single_phase_primary_IL.X/mcc_generated_files/can/src/can1.c</title>
<!-- Node1 -->
<g id="Node000001" class="node">
<title>Node1</title>
<g id="a_Node000001"><a xlink:title="This is the generated driver source file for CAN1 driver using CCL.">
<polygon fill="#999999" stroke="#666666" points="207.5,-327 31.5,-327 31.5,-242 207.5,-242 207.5,-327"/>
<text text-anchor="start" x="39.5" y="-315" font-family="Helvetica,sans-Serif" font-size="10.00">C:/Users/M70027/Documents</text>
<text text-anchor="start" x="39.5" y="-304" font-family="Helvetica,sans-Serif" font-size="10.00">/Projects/tp&#45;deployment</text>
<text text-anchor="start" x="39.5" y="-293" font-family="Helvetica,sans-Serif" font-size="10.00">/dspic33ch&#45;power&#45;totem&#45;pole</text>
<text text-anchor="start" x="39.5" y="-282" font-family="Helvetica,sans-Serif" font-size="10.00">&#45;demonstration&#45;application</text>
<text text-anchor="start" x="39.5" y="-271" font-family="Helvetica,sans-Serif" font-size="10.00">&#45;single&#45;phase_v2/dspic33ch_totem</text>
<text text-anchor="start" x="39.5" y="-260" font-family="Helvetica,sans-Serif" font-size="10.00">_pole_single_phase_primary_IL.X</text>
<text text-anchor="middle" x="119.5" y="-249" font-family="Helvetica,sans-Serif" font-size="10.00">/mcc_generated_files/can/src/can1.c</text>
</a>
</g>
</g>
<!-- Node2 -->
<g id="Node000002" class="node">
<title>Node2</title>
<g id="a_Node000002"><a xlink:title=" ">
<polygon fill="#e0e0e0" stroke="#999999" points="49,-195 0,-195 0,-176 49,-176 49,-195"/>
<text text-anchor="middle" x="24.5" y="-183" font-family="Helvetica,sans-Serif" font-size="10.00">string.h</text>
</a>
</g>
</g>
<!-- Node1&#45;&gt;Node2 -->
<g id="edge1_Node000001_Node000002" class="edge">
<title>Node1&#45;&gt;Node2</title>
<g id="a_edge1_Node000001_Node000002"><a xlink:title=" ">
<path fill="none" stroke="#63b8ff" d="M78.66,-241.8C65.03,-227.89 50.66,-213.21 40.15,-202.48"/>
<polygon fill="#63b8ff" stroke="#63b8ff" points="42.44,-199.81 32.94,-195.12 37.44,-204.71 42.44,-199.81"/>
</a>
</g>
</g>
<!-- Node3 -->
<g id="Node000003" class="node">
<title>Node3</title>
<g id="a_Node000003"><a xlink:href="a00092.html" target="_top" xlink:title="This is the generated driver types header file for the CAN driver using CCL.">
<polygon fill="white" stroke="#666666" points="181,-74 102,-74 102,-55 181,-55 181,-74"/>
<text text-anchor="middle" x="141.5" y="-62" font-family="Helvetica,sans-Serif" font-size="10.00">../can_types.h</text>
</a>
</g>
</g>
<!-- Node1&#45;&gt;Node3 -->
<g id="edge2_Node000001_Node000003" class="edge">
<title>Node1&#45;&gt;Node3</title>
<g id="a_edge2_Node000001_Node000003"><a xlink:title=" ">
<path fill="none" stroke="#63b8ff" d="M119.12,-241.81C119.47,-206.46 121.53,-154.55 129.5,-110 131.05,-101.34 133.48,-91.9 135.76,-83.96"/>
<polygon fill="#63b8ff" stroke="#63b8ff" points="139.14,-84.85 138.65,-74.26 132.44,-82.84 139.14,-84.85"/>
</a>
</g>
</g>
<!-- Node5 -->
<g id="Node000005" class="node">
<title>Node5</title>
<g id="a_Node000005"><a xlink:href="a00083.html" target="_top" xlink:title="This is the generated driver header file for the CAN1 driver using CCL.">
<polygon fill="white" stroke="#666666" points="189,-195 134,-195 134,-176 189,-176 189,-195"/>
<text text-anchor="middle" x="161.5" y="-183" font-family="Helvetica,sans-Serif" font-size="10.00">../can1.h</text>
</a>
</g>
</g>
<!-- Node1&#45;&gt;Node5 -->
<g id="edge4_Node000001_Node000005" class="edge">
<title>Node1&#45;&gt;Node5</title>
<g id="a_edge4_Node000001_Node000005"><a xlink:title=" ">
<path fill="none" stroke="#63b8ff" d="M137.56,-241.8C143.23,-228.71 149.19,-214.94 153.74,-204.41"/>
<polygon fill="#63b8ff" stroke="#63b8ff" points="157.01,-205.69 157.77,-195.12 150.58,-202.9 157.01,-205.69"/>
</a>
</g>
</g>
<!-- Node9 -->
<g id="Node000009" class="node">
<title>Node9</title>
<g id="a_Node000009"><a xlink:title=" ">
<polygon fill="#e0e0e0" stroke="#999999" points="325.5,-206 207.5,-206 207.5,-165 325.5,-165 325.5,-206"/>
<text text-anchor="start" x="215.5" y="-194" font-family="Helvetica,sans-Serif" font-size="10.00">../../sources_common</text>
<text text-anchor="start" x="215.5" y="-183" font-family="Helvetica,sans-Serif" font-size="10.00">/Totempole_Application</text>
<text text-anchor="middle" x="266.5" y="-172" font-family="Helvetica,sans-Serif" font-size="10.00">_Setup.h</text>
</a>
</g>
</g>
<!-- Node1&#45;&gt;Node9 -->
<g id="edge13_Node000001_Node000009" class="edge">
<title>Node1&#45;&gt;Node9</title>
<g id="a_edge13_Node000001_Node000009"><a xlink:title=" ">
<path fill="none" stroke="#63b8ff" d="M182.69,-241.8C198.29,-231.51 214.52,-220.8 228.49,-211.58"/>
<polygon fill="#63b8ff" stroke="#63b8ff" points="230.46,-214.48 236.87,-206.05 226.6,-208.64 230.46,-214.48"/>
</a>
</g>
</g>
<!-- Node4 -->
<g id="Node000004" class="node">
<title>Node4</title>
<g id="a_Node000004"><a xlink:title=" ">
<polygon fill="#e0e0e0" stroke="#999999" points="259,-19 210,-19 210,0 259,0 259,-19"/>
<text text-anchor="middle" x="234.5" y="-7" font-family="Helvetica,sans-Serif" font-size="10.00">stdint.h</text>
</a>
</g>
</g>
<!-- Node3&#45;&gt;Node4 -->
<g id="edge3_Node000003_Node000004" class="edge">
<title>Node3&#45;&gt;Node4</title>
<g id="a_edge3_Node000003_Node000004"><a xlink:title=" ">
<path fill="none" stroke="#63b8ff" d="M156.44,-54.98C171,-46.69 193.37,-33.94 210.43,-24.22"/>
<polygon fill="#63b8ff" stroke="#63b8ff" points="212.33,-27.16 219.29,-19.17 208.86,-21.08 212.33,-27.16"/>
</a>
</g>
</g>
<!-- Node5&#45;&gt;Node3 -->
<g id="edge8_Node000005_Node000003" class="edge">
<title>Node5&#45;&gt;Node3</title>
<g id="a_edge8_Node000005_Node000003"><a xlink:title=" ">
<path fill="none" stroke="#63b8ff" d="M155.79,-175.93C149.15,-165.4 138.59,-146.75 134.5,-129 131.07,-114.12 133.36,-96.88 136.2,-84.12"/>
<polygon fill="#63b8ff" stroke="#63b8ff" points="139.64,-84.79 138.71,-74.23 132.86,-83.06 139.64,-84.79"/>
</a>
</g>
</g>
<!-- Node5&#45;&gt;Node4 -->
<g id="edge7_Node000005_Node000004" class="edge">
<title>Node5&#45;&gt;Node4</title>
<g id="a_edge7_Node000005_Node000004"><a xlink:title=" ">
<path fill="none" stroke="#63b8ff" d="M176.35,-175.96C183,-172.32 191.02,-168.19 198.5,-165 245.04,-145.14 269.96,-164 306.5,-129 325.4,-110.9 322.75,-99.73 327.5,-74 329.03,-65.7 332,-62.14 327.5,-55 314.71,-34.7 289.81,-23.46 268.99,-17.35"/>
<polygon fill="#63b8ff" stroke="#63b8ff" points="269.73,-13.93 259.17,-14.75 267.94,-20.69 269.73,-13.93"/>
</a>
</g>
</g>
<!-- Node6 -->
<g id="Node000006" class="node">
<title>Node6</title>
<g id="a_Node000006"><a xlink:title=" ">
<polygon fill="#e0e0e0" stroke="#999999" points="179,-129 144,-129 144,-110 179,-110 179,-129"/>
<text text-anchor="middle" x="161.5" y="-117" font-family="Helvetica,sans-Serif" font-size="10.00">xc.h</text>
</a>
</g>
</g>
<!-- Node5&#45;&gt;Node6 -->
<g id="edge5_Node000005_Node000006" class="edge">
<title>Node5&#45;&gt;Node6</title>
<g id="a_edge5_Node000005_Node000006"><a xlink:title=" ">
<path fill="none" stroke="#63b8ff" d="M161.5,-175.87C161.5,-166.66 161.5,-151.79 161.5,-139.77"/>
<polygon fill="#63b8ff" stroke="#63b8ff" points="165,-139.41 161.5,-129.41 158,-139.41 165,-139.41"/>
</a>
</g>
</g>
<!-- Node7 -->
<g id="Node000007" class="node">
<title>Node7</title>
<g id="a_Node000007"><a xlink:title=" ">
<polygon fill="#e0e0e0" stroke="#999999" points="318.5,-74 262.5,-74 262.5,-55 318.5,-55 318.5,-74"/>
<text text-anchor="middle" x="290.5" y="-62" font-family="Helvetica,sans-Serif" font-size="10.00">stdbool.h</text>
</a>
</g>
</g>
<!-- Node5&#45;&gt;Node7 -->
<g id="edge6_Node000005_Node000007" class="edge">
<title>Node5&#45;&gt;Node7</title>
<g id="a_edge6_Node000005_Node000007"><a xlink:title=" ">
<path fill="none" stroke="#63b8ff" d="M176.8,-175.98C183.4,-172.42 191.25,-168.35 198.5,-165 237.61,-146.93 263.79,-164.29 288.5,-129 297.5,-116.15 297.12,-97.99 295,-84.38"/>
<polygon fill="#63b8ff" stroke="#63b8ff" points="298.36,-83.35 292.98,-74.23 291.5,-84.72 298.36,-83.35"/>
</a>
</g>
</g>
<!-- Node8 -->
<g id="Node000008" class="node">
<title>Node8</title>
<g id="a_Node000008"><a xlink:href="a00089_source.html" target="_top" xlink:title=" ">
<polygon fill="white" stroke="#666666" points="280,-129 197,-129 197,-110 280,-110 280,-129"/>
<text text-anchor="middle" x="238.5" y="-117" font-family="Helvetica,sans-Serif" font-size="10.00">can_interface.h</text>
</a>
</g>
</g>
<!-- Node5&#45;&gt;Node8 -->
<g id="edge9_Node000005_Node000008" class="edge">
<title>Node5&#45;&gt;Node8</title>
<g id="a_edge9_Node000005_Node000008"><a xlink:title=" ">
<path fill="none" stroke="#63b8ff" d="M171.88,-175.87C184.22,-165.62 205.01,-148.34 220.09,-135.81"/>
<polygon fill="#63b8ff" stroke="#63b8ff" points="222.33,-138.49 227.79,-129.41 217.86,-133.11 222.33,-138.49"/>
</a>
</g>
</g>
<!-- Node8&#45;&gt;Node3 -->
<g id="edge12_Node000008_Node000003" class="edge">
<title>Node8&#45;&gt;Node3</title>
<g id="a_edge12_Node000008_Node000003"><a xlink:title=" ">
<path fill="none" stroke="#63b8ff" d="M222.92,-109.98C207.73,-101.69 184.4,-88.94 166.6,-79.22"/>
<polygon fill="#63b8ff" stroke="#63b8ff" points="167.82,-75.89 157.37,-74.17 164.47,-82.04 167.82,-75.89"/>
</a>
</g>
</g>
<!-- Node8&#45;&gt;Node4 -->
<g id="edge11_Node000008_Node000004" class="edge">
<title>Node8&#45;&gt;Node4</title>
<g id="a_edge11_Node000008_Node000004"><a xlink:title=" ">
<path fill="none" stroke="#63b8ff" d="M238.17,-109.66C237.52,-92.17 236.07,-52.8 235.2,-29.27"/>
<polygon fill="#63b8ff" stroke="#63b8ff" points="238.69,-29.02 234.82,-19.16 231.69,-29.28 238.69,-29.02"/>
</a>
</g>
</g>
<!-- Node8&#45;&gt;Node7 -->
<g id="edge10_Node000008_Node000007" class="edge">
<title>Node8&#45;&gt;Node7</title>
<g id="a_edge10_Node000008_Node000007"><a xlink:title=" ">
<path fill="none" stroke="#63b8ff" d="M247.09,-109.75C254.66,-102.03 265.88,-90.6 275.01,-81.28"/>
<polygon fill="#63b8ff" stroke="#63b8ff" points="277.57,-83.68 282.07,-74.09 272.57,-78.78 277.57,-83.68"/>
</a>
</g>
</g>
</g>
</svg>
