<?xml version="1.0" encoding="UTF-8" standalone="no"?>
<!DOCTYPE svg PUBLIC "-//W3C//DTD SVG 1.1//EN"
 "http://www.w3.org/Graphics/SVG/1.1/DTD/svg11.dtd">
<!-- Generated by graphviz version 8.1.0 (20230707.0739)
 -->
<!-- Title: D:/Firmware/MCU16ASMPS_TestEnvironment/_deployment/dspic33ch&#45;power&#45;totem&#45;pole&#45;demonstration&#45;application&#45;single&#45;phase/dspic33ch_totem_pole_single_phase_primary_IL.X/mcc_generated_files/can/src/can1.c Pages: 1 -->
<svg width="334pt" height="348pt"
 viewBox="0.00 0.00 333.87 348.00" xmlns="http://www.w3.org/2000/svg" xmlns:xlink="http://www.w3.org/1999/xlink">
<g id="graph0" class="graph" transform="scale(1 1) rotate(0) translate(4 344)">
<title>D:/Firmware/MCU16ASMPS_TestEnvironment/_deployment/dspic33ch&#45;power&#45;totem&#45;pole&#45;demonstration&#45;application&#45;single&#45;phase/dspic33ch_totem_pole_single_phase_primary_IL.X/mcc_generated_files/can/src/can1.c</title>
<!-- Node1 -->
<g id="Node000001" class="node">
<title>Node1</title>
<g id="a_Node000001"><a xlink:title="This is the generated driver source file for CAN1 driver using CCL.">
<polygon fill="#999999" stroke="#666666" points="205.38,-340 28.88,-340 28.88,-248 205.38,-248 205.38,-340"/>
<text text-anchor="start" x="36.88" y="-326.5" font-family="Helvetica,sans-Serif" font-size="10.00">D:/Firmware/MCU16ASMPS</text>
<text text-anchor="start" x="36.88" y="-314.5" font-family="Helvetica,sans-Serif" font-size="10.00">_TestEnvironment/_deployment</text>
<text text-anchor="start" x="36.88" y="-302.5" font-family="Helvetica,sans-Serif" font-size="10.00">/dspic33ch&#45;power&#45;totem&#45;pole</text>
<text text-anchor="start" x="36.88" y="-290.5" font-family="Helvetica,sans-Serif" font-size="10.00">&#45;demonstration&#45;application&#45;single</text>
<text text-anchor="start" x="36.88" y="-278.5" font-family="Helvetica,sans-Serif" font-size="10.00">&#45;phase/dspic33ch_totem_pole_single</text>
<text text-anchor="start" x="36.88" y="-266.5" font-family="Helvetica,sans-Serif" font-size="10.00">_phase_primary_IL.X/mcc_generated</text>
<text text-anchor="middle" x="117.12" y="-254.5" font-family="Helvetica,sans-Serif" font-size="10.00">_files/can/src/can1.c</text>
</a>
</g>
</g>
<!-- Node2 -->
<g id="Node000002" class="node">
<title>Node2</title>
<g id="a_Node000002"><a xlink:title=" ">
<polygon fill="#e0e0e0" stroke="#999999" points="48.25,-200 0,-200 0,-180 48.25,-180 48.25,-200"/>
<text text-anchor="middle" x="24.12" y="-186.5" font-family="Helvetica,sans-Serif" font-size="10.00">string.h</text>
</a>
</g>
</g>
<!-- Node1&#45;&gt;Node2 -->
<g id="edge1_Node000001_Node000002" class="edge">
<title>Node1&#45;&gt;Node2</title>
<g id="a_edge1_Node000001_Node000002"><a xlink:title=" ">
<path fill="none" stroke="#63b8ff" d="M75.79,-247.67C62.93,-233.56 49.53,-218.87 39.61,-207.98"/>
<polygon fill="#63b8ff" stroke="#63b8ff" points="42.79,-206.18 33.47,-201.15 37.62,-210.89 42.79,-206.18"/>
</a>
</g>
</g>
<!-- Node3 -->
<g id="Node000003" class="node">
<title>Node3</title>
<g id="a_Node000003"><a xlink:href="a00092.html" target="_top" xlink:title="This is the generated driver types header file for the CAN driver using CCL.">
<polygon fill="white" stroke="#666666" points="178.25,-76 100,-76 100,-56 178.25,-56 178.25,-76"/>
<text text-anchor="middle" x="139.12" y="-62.5" font-family="Helvetica,sans-Serif" font-size="10.00">../can_types.h</text>
</a>
</g>
</g>
<!-- Node1&#45;&gt;Node3 -->
<g id="edge2_Node000001_Node000003" class="edge">
<title>Node1&#45;&gt;Node3</title>
<g id="a_edge2_Node000001_Node000003"><a xlink:title=" ">
<path fill="none" stroke="#63b8ff" d="M117.28,-247.71C118.03,-210.92 120.53,-157.81 128.12,-112 129.51,-103.68 131.6,-94.62 133.6,-86.82"/>
<polygon fill="#63b8ff" stroke="#63b8ff" points="137.23,-87.79 136.44,-77.22 130.47,-85.98 137.23,-87.79"/>
</a>
</g>
</g>
<!-- Node5 -->
<g id="Node000005" class="node">
<title>Node5</title>
<g id="a_Node000005"><a xlink:href="a00083.html" target="_top" xlink:title="This is the generated driver header file for the CAN1 driver using CCL.">
<polygon fill="white" stroke="#666666" points="186.25,-200 132,-200 132,-180 186.25,-180 186.25,-200"/>
<text text-anchor="middle" x="159.12" y="-186.5" font-family="Helvetica,sans-Serif" font-size="10.00">../can1.h</text>
</a>
</g>
</g>
<!-- Node1&#45;&gt;Node5 -->
<g id="edge4_Node000001_Node000005" class="edge">
<title>Node1&#45;&gt;Node5</title>
<g id="a_edge4_Node000001_Node000005"><a xlink:title=" ">
<path fill="none" stroke="#63b8ff" d="M135.79,-247.67C141.2,-234.54 146.81,-220.9 151.18,-210.3"/>
<polygon fill="#63b8ff" stroke="#63b8ff" points="154.79,-211.73 155.36,-201.15 148.31,-209.06 154.79,-211.73"/>
</a>
</g>
</g>
<!-- Node9 -->
<g id="Node000009" class="node">
<title>Node9</title>
<g id="a_Node000009"><a xlink:title=" ">
<polygon fill="#e0e0e0" stroke="#999999" points="321.75,-212 204.5,-212 204.5,-168 321.75,-168 321.75,-212"/>
<text text-anchor="start" x="212.5" y="-198.5" font-family="Helvetica,sans-Serif" font-size="10.00">../../sources_common</text>
<text text-anchor="start" x="212.5" y="-186.5" font-family="Helvetica,sans-Serif" font-size="10.00">/Totempole_Application</text>
<text text-anchor="middle" x="263.12" y="-174.5" font-family="Helvetica,sans-Serif" font-size="10.00">_Setup.h</text>
</a>
</g>
</g>
<!-- Node1&#45;&gt;Node9 -->
<g id="edge13_Node000001_Node000009" class="edge">
<title>Node1&#45;&gt;Node9</title>
<g id="a_edge13_Node000001_Node000009"><a xlink:title=" ">
<path fill="none" stroke="#63b8ff" d="M182.01,-247.67C196.11,-237.82 210.61,-227.69 223.39,-218.76"/>
<polygon fill="#63b8ff" stroke="#63b8ff" points="225.16,-221.09 231.35,-212.5 221.15,-215.36 225.16,-221.09"/>
</a>
</g>
</g>
<!-- Node4 -->
<g id="Node000004" class="node">
<title>Node4</title>
<g id="a_Node000004"><a xlink:title=" ">
<polygon fill="#e0e0e0" stroke="#999999" points="254.25,-20 206,-20 206,0 254.25,0 254.25,-20"/>
<text text-anchor="middle" x="230.12" y="-6.5" font-family="Helvetica,sans-Serif" font-size="10.00">stdint.h</text>
</a>
</g>
</g>
<!-- Node3&#45;&gt;Node4 -->
<g id="edge3_Node000003_Node000004" class="edge">
<title>Node3&#45;&gt;Node4</title>
<g id="a_edge3_Node000003_Node000004"><a xlink:title=" ">
<path fill="none" stroke="#63b8ff" d="M154.98,-55.59C168.72,-47.44 188.87,-35.48 204.84,-26"/>
<polygon fill="#63b8ff" stroke="#63b8ff" points="206.34,-28.59 213.15,-20.48 202.76,-22.57 206.34,-28.59"/>
</a>
</g>
</g>
<!-- Node5&#45;&gt;Node3 -->
<g id="edge8_Node000005_Node000003" class="edge">
<title>Node5&#45;&gt;Node3</title>
<g id="a_edge8_Node000005_Node000003"><a xlink:title=" ">
<path fill="none" stroke="#63b8ff" d="M153.4,-179.75C146.99,-168.82 137.01,-149.86 133.12,-132 129.88,-117.08 131.72,-99.86 134.18,-86.89"/>
<polygon fill="#63b8ff" stroke="#63b8ff" points="137.76,-87.88 136.49,-77.37 130.93,-86.38 137.76,-87.88"/>
</a>
</g>
</g>
<!-- Node5&#45;&gt;Node4 -->
<g id="edge7_Node000005_Node000004" class="edge">
<title>Node5&#45;&gt;Node4</title>
<g id="a_edge7_Node000005_Node000004"><a xlink:title=" ">
<path fill="none" stroke="#63b8ff" d="M173.82,-179.5C180.21,-175.62 187.87,-171.28 195.12,-168 241.22,-147.14 266.97,-167.39 303.12,-132 322.01,-113.51 318.61,-102.04 323.12,-76 324.64,-67.24 327.85,-63.53 323.12,-56 310.39,-35.68 285.59,-24.31 264.8,-18.09"/>
<polygon fill="#63b8ff" stroke="#63b8ff" points="265.95,-14.5 255.38,-15.28 264.13,-21.26 265.95,-14.5"/>
</a>
</g>
</g>
<!-- Node6 -->
<g id="Node000006" class="node">
<title>Node6</title>
<g id="a_Node000006"><a xlink:title=" ">
<polygon fill="#e0e0e0" stroke="#999999" points="176.5,-132 141.75,-132 141.75,-112 176.5,-112 176.5,-132"/>
<text text-anchor="middle" x="159.12" y="-118.5" font-family="Helvetica,sans-Serif" font-size="10.00">xc.h</text>
</a>
</g>
</g>
<!-- Node5&#45;&gt;Node6 -->
<g id="edge5_Node000005_Node000006" class="edge">
<title>Node5&#45;&gt;Node6</title>
<g id="a_edge5_Node000005_Node000006"><a xlink:title=" ">
<path fill="none" stroke="#63b8ff" d="M159.12,-179.54C159.12,-170.13 159.12,-155.39 159.12,-143.32"/>
<polygon fill="#63b8ff" stroke="#63b8ff" points="162.63,-143.44 159.12,-133.44 155.63,-143.44 162.63,-143.44"/>
</a>
</g>
</g>
<!-- Node7 -->
<g id="Node000007" class="node">
<title>Node7</title>
<g id="a_Node000007"><a xlink:title=" ">
<polygon fill="#e0e0e0" stroke="#999999" points="314,-76 258.25,-76 258.25,-56 314,-56 314,-76"/>
<text text-anchor="middle" x="286.12" y="-62.5" font-family="Helvetica,sans-Serif" font-size="10.00">stdbool.h</text>
</a>
</g>
</g>
<!-- Node5&#45;&gt;Node7 -->
<g id="edge6_Node000005_Node000007" class="edge">
<title>Node5&#45;&gt;Node7</title>
<g id="a_edge6_Node000005_Node000007"><a xlink:title=" ">
<path fill="none" stroke="#63b8ff" d="M173.92,-179.71C180.32,-175.86 187.97,-171.49 195.12,-168 233.84,-149.09 260.7,-167.49 285.12,-132 294.12,-118.93 293.54,-100.6 291.18,-86.74"/>
<polygon fill="#63b8ff" stroke="#63b8ff" points="294.48,-86.41 288.96,-77.36 287.63,-87.87 294.48,-86.41"/>
</a>
</g>
</g>
<!-- Node8 -->
<g id="Node000008" class="node">
<title>Node8</title>
<g id="a_Node000008"><a xlink:href="a00089_source.html" target="_top" xlink:title=" ">
<polygon fill="white" stroke="#666666" points="276.12,-132 194.12,-132 194.12,-112 276.12,-112 276.12,-132"/>
<text text-anchor="middle" x="235.12" y="-118.5" font-family="Helvetica,sans-Serif" font-size="10.00">can_interface.h</text>
</a>
</g>
</g>
<!-- Node5&#45;&gt;Node8 -->
<g id="edge9_Node000005_Node000008" class="edge">
<title>Node5&#45;&gt;Node8</title>
<g id="a_edge9_Node000005_Node000008"><a xlink:title=" ">
<path fill="none" stroke="#63b8ff" d="M170.01,-179.54C181.98,-169.15 201.42,-152.27 215.96,-139.65"/>
<polygon fill="#63b8ff" stroke="#63b8ff" points="218,-141.64 223.26,-132.44 213.41,-136.35 218,-141.64"/>
</a>
</g>
</g>
<!-- Node8&#45;&gt;Node3 -->
<g id="edge12_Node000008_Node000003" class="edge">
<title>Node8&#45;&gt;Node3</title>
<g id="a_edge12_Node000008_Node000003"><a xlink:title=" ">
<path fill="none" stroke="#63b8ff" d="M218.4,-111.59C203.76,-103.36 182.25,-91.26 165.32,-81.74"/>
<polygon fill="#63b8ff" stroke="#63b8ff" points="167.41,-78.33 156.98,-76.48 163.98,-84.43 167.41,-78.33"/>
</a>
</g>
</g>
<!-- Node8&#45;&gt;Node4 -->
<g id="edge11_Node000008_Node000004" class="edge">
<title>Node8&#45;&gt;Node4</title>
<g id="a_edge11_Node000008_Node000004"><a xlink:title=" ">
<path fill="none" stroke="#63b8ff" d="M234.7,-111.62C233.89,-93.92 232.14,-55.24 231.05,-31.32"/>
<polygon fill="#63b8ff" stroke="#63b8ff" points="234.5,-31.19 230.55,-21.35 227.51,-31.5 234.5,-31.19"/>
</a>
</g>
</g>
<!-- Node8&#45;&gt;Node7 -->
<g id="edge10_Node000008_Node000007" class="edge">
<title>Node8&#45;&gt;Node7</title>
<g id="a_edge10_Node000008_Node000007"><a xlink:title=" ">
<path fill="none" stroke="#63b8ff" d="M244.01,-111.59C251.18,-104.01 261.44,-93.13 270.05,-84.02"/>
<polygon fill="#63b8ff" stroke="#63b8ff" points="272.02,-86.97 276.34,-77.3 266.93,-82.17 272.02,-86.97"/>
</a>
</g>
</g>
</g>
</svg>
