<?xml version="1.0" encoding="UTF-8" standalone="no"?>
<!DOCTYPE svg PUBLIC "-//W3C//DTD SVG 1.1//EN"
 "http://www.w3.org/Graphics/SVG/1.1/DTD/svg11.dtd">
<!-- Generated by graphviz version 2.44.1 (20200629.0846)
 -->
<!-- Title: C:/Users/M70027/Documents/Projects/tp&#45;deployment/dspic33ch&#45;power&#45;totem&#45;pole&#45;demonstration&#45;application&#45;single&#45;phase_v2/dspic33ch_totem_pole_single_phase_primary_IL.X/mcc_generated_files/secondary_core/sec_core1.h Pages: 1 -->
<svg width="330pt" height="214pt"
 viewBox="0.00 0.00 329.50 214.00" xmlns="http://www.w3.org/2000/svg" xmlns:xlink="http://www.w3.org/1999/xlink">

<svg id="main" version="1.1" xmlns="http://www.w3.org/2000/svg" xmlns:xlink="http://www.w3.org/1999/xlink" xml:space="preserve">

<style type="text/css"><![CDATA[
.node, .edge {opacity: 0.7;}
.node.selected, .edge.selected {opacity: 1;}
.edge:hover path { stroke: red; }
.edge:hover polygon { stroke: red; fill: red; }
]]></style>
<script type="application/ecmascript" xlink:href="svg.min.js"/>
<svg id="graph" class="graph">
<g id="graph0" class="graph" transform="scale(1 1) rotate(0) translate(4 210)">
<title>C:/Users/M70027/Documents/Projects/tp&#45;deployment/dspic33ch&#45;power&#45;totem&#45;pole&#45;demonstration&#45;application&#45;single&#45;phase_v2/dspic33ch_totem_pole_single_phase_primary_IL.X/mcc_generated_files/secondary_core/sec_core1.h</title>
<!-- Node1 -->
<g id="Node000001" class="node">
<title>Node1</title>
<g id="a_Node000001"><a xlink:title="This is the generated driver header file for the SEC_CORE1 driver.">
<polygon fill="#999999" stroke="#666666" points="192,-206 11,-206 11,-110 192,-110 192,-206"/>
<text text-anchor="start" x="19" y="-194" font-family="Helvetica,sans-Serif" font-size="10.00">C:/Users/M70027/Documents</text>
<text text-anchor="start" x="19" y="-183" font-family="Helvetica,sans-Serif" font-size="10.00">/Projects/tp&#45;deployment</text>
<text text-anchor="start" x="19" y="-172" font-family="Helvetica,sans-Serif" font-size="10.00">/dspic33ch&#45;power&#45;totem&#45;pole</text>
<text text-anchor="start" x="19" y="-161" font-family="Helvetica,sans-Serif" font-size="10.00">&#45;demonstration&#45;application</text>
<text text-anchor="start" x="19" y="-150" font-family="Helvetica,sans-Serif" font-size="10.00">&#45;single&#45;phase_v2/dspic33ch_totem</text>
<text text-anchor="start" x="19" y="-139" font-family="Helvetica,sans-Serif" font-size="10.00">_pole_single_phase_primary_IL.X</text>
<text text-anchor="start" x="19" y="-128" font-family="Helvetica,sans-Serif" font-size="10.00">/mcc_generated_files/secondary_core</text>
<text text-anchor="middle" x="101.5" y="-117" font-family="Helvetica,sans-Serif" font-size="10.00">/sec_core1.h</text>
</a>
</g>
</g>
<!-- Node2 -->
<g id="Node000002" class="node">
<title>Node2</title>
<g id="a_Node000002"><a xlink:title=" ">
<polygon fill="#e0e0e0" stroke="#999999" points="35,-74 0,-74 0,-55 35,-55 35,-74"/>
<text text-anchor="middle" x="17.5" y="-62" font-family="Helvetica,sans-Serif" font-size="10.00">xc.h</text>
</a>
</g>
</g>
<!-- Node1&#45;&gt;Node2 -->
<g id="edge1_Node000001_Node000002" class="edge">
<title>Node1&#45;&gt;Node2</title>
<g id="a_edge1_Node000001_Node000002"><a xlink:title=" ">
<path fill="none" stroke="#63b8ff" d="M58.27,-109.91C48.96,-99.77 39.73,-89.72 32.42,-81.75"/>
<polygon fill="#63b8ff" stroke="#63b8ff" points="34.9,-79.28 25.56,-74.28 29.75,-84.01 34.9,-79.28"/>
</a>
</g>
</g>
<!-- Node3 -->
<g id="Node000003" class="node">
<title>Node3</title>
<g id="a_Node000003"><a xlink:title=" ">
<polygon fill="#e0e0e0" stroke="#999999" points="65,-19 16,-19 16,0 65,0 65,-19"/>
<text text-anchor="middle" x="40.5" y="-7" font-family="Helvetica,sans-Serif" font-size="10.00">stdint.h</text>
</a>
</g>
</g>
<!-- Node1&#45;&gt;Node3 -->
<g id="edge2_Node000001_Node000003" class="edge">
<title>Node1&#45;&gt;Node3</title>
<g id="a_edge2_Node000001_Node000003"><a xlink:title=" ">
<path fill="none" stroke="#63b8ff" d="M81.86,-109.84C70.35,-82.19 56.46,-48.83 48.06,-28.66"/>
<polygon fill="#63b8ff" stroke="#63b8ff" points="51.19,-27.06 44.11,-19.18 44.73,-29.75 51.19,-27.06"/>
</a>
</g>
</g>
<!-- Node4 -->
<g id="Node000004" class="node">
<title>Node4</title>
<g id="a_Node000004"><a xlink:title=" ">
<polygon fill="#e0e0e0" stroke="#999999" points="139.5,-19 83.5,-19 83.5,0 139.5,0 139.5,-19"/>
<text text-anchor="middle" x="111.5" y="-7" font-family="Helvetica,sans-Serif" font-size="10.00">stdbool.h</text>
</a>
</g>
</g>
<!-- Node1&#45;&gt;Node4 -->
<g id="edge3_Node000001_Node000004" class="edge">
<title>Node1&#45;&gt;Node4</title>
<g id="a_edge3_Node000001_Node000004"><a xlink:title=" ">
<path fill="none" stroke="#63b8ff" d="M104.72,-109.84C106.59,-82.44 108.84,-49.44 110.22,-29.22"/>
<polygon fill="#63b8ff" stroke="#63b8ff" points="113.72,-29.39 110.91,-19.18 106.73,-28.91 113.72,-29.39"/>
</a>
</g>
</g>
<!-- Node5 -->
<g id="Node000005" class="node">
<title>Node5</title>
<g id="a_Node000005"><a xlink:href="a00128.html" target="_top" xlink:title="This is the generated driver types header file for the SEC_CORE driver.">
<polygon fill="white" stroke="#666666" points="321.5,-19 227.5,-19 227.5,0 321.5,0 321.5,-19"/>
<text text-anchor="middle" x="274.5" y="-7" font-family="Helvetica,sans-Serif" font-size="10.00">sec_core_types.h</text>
</a>
</g>
</g>
<!-- Node1&#45;&gt;Node5 -->
<g id="edge4_Node000001_Node000005" class="edge">
<title>Node1&#45;&gt;Node5</title>
<g id="a_edge4_Node000001_Node000005"><a xlink:title=" ">
<path fill="none" stroke="#63b8ff" d="M192.36,-116.8C211.98,-105.09 231.36,-90.81 246.5,-74 258.08,-61.14 265.48,-42.73 269.74,-29.04"/>
<polygon fill="#63b8ff" stroke="#63b8ff" points="273.15,-29.84 272.51,-19.27 266.42,-27.93 273.15,-29.84"/>
</a>
</g>
</g>
<!-- Node6 -->
<g id="Node000006" class="node">
<title>Node6</title>
<g id="a_Node000006"><a xlink:href="a00125_source.html" target="_top" xlink:title=" ">
<polygon fill="white" stroke="#666666" points="237,-74 130,-74 130,-55 237,-55 237,-74"/>
<text text-anchor="middle" x="183.5" y="-62" font-family="Helvetica,sans-Serif" font-size="10.00">sec_core_interface.h</text>
</a>
</g>
</g>
<!-- Node1&#45;&gt;Node6 -->
<g id="edge5_Node000001_Node000006" class="edge">
<title>Node1&#45;&gt;Node6</title>
<g id="a_edge5_Node000001_Node000006"><a xlink:title=" ">
<path fill="none" stroke="#63b8ff" d="M143.7,-109.91C152.79,-99.77 161.8,-89.72 168.94,-81.75"/>
<polygon fill="#63b8ff" stroke="#63b8ff" points="171.56,-84.06 175.63,-74.28 166.35,-79.39 171.56,-84.06"/>
</a>
</g>
</g>
<!-- Node6&#45;&gt;Node3 -->
<g id="edge7_Node000006_Node000003" class="edge">
<title>Node6&#45;&gt;Node3</title>
<g id="a_edge7_Node000006_Node000003"><a xlink:title=" ">
<path fill="none" stroke="#63b8ff" d="M160.52,-54.98C137,-46.27 100.21,-32.63 73.56,-22.75"/>
<polygon fill="#63b8ff" stroke="#63b8ff" points="74.49,-19.36 63.89,-19.17 72.05,-25.93 74.49,-19.36"/>
</a>
</g>
</g>
<!-- Node6&#45;&gt;Node4 -->
<g id="edge8_Node000006_Node000004" class="edge">
<title>Node6&#45;&gt;Node4</title>
<g id="a_edge8_Node000006_Node000004"><a xlink:title=" ">
<path fill="none" stroke="#63b8ff" d="M171.93,-54.98C161.08,-47 144.62,-34.88 131.62,-25.31"/>
<polygon fill="#63b8ff" stroke="#63b8ff" points="133.41,-22.28 123.28,-19.17 129.26,-27.92 133.41,-22.28"/>
</a>
</g>
</g>
<!-- Node6&#45;&gt;Node5 -->
<g id="edge9_Node000006_Node000005" class="edge">
<title>Node6&#45;&gt;Node5</title>
<g id="a_edge9_Node000006_Node000005"><a xlink:title=" ">
<path fill="none" stroke="#63b8ff" d="M198.12,-54.98C212.36,-46.69 234.25,-33.94 250.95,-24.22"/>
<polygon fill="#63b8ff" stroke="#63b8ff" points="252.73,-27.23 259.61,-19.17 249.21,-21.18 252.73,-27.23"/>
</a>
</g>
</g>
<!-- Node7 -->
<g id="Node000007" class="node">
<title>Node7</title>
<g id="a_Node000007"><a xlink:title=" ">
<polygon fill="#e0e0e0" stroke="#999999" points="209,-19 158,-19 158,0 209,0 209,-19"/>
<text text-anchor="middle" x="183.5" y="-7" font-family="Helvetica,sans-Serif" font-size="10.00">stddef.h</text>
</a>
</g>
</g>
<!-- Node6&#45;&gt;Node7 -->
<g id="edge6_Node000006_Node000007" class="edge">
<title>Node6&#45;&gt;Node7</title>
<g id="a_edge6_Node000006_Node000007"><a xlink:title=" ">
<path fill="none" stroke="#63b8ff" d="M183.5,-54.75C183.5,-47.8 183.5,-37.85 183.5,-29.13"/>
<polygon fill="#63b8ff" stroke="#63b8ff" points="187,-29.09 183.5,-19.09 180,-29.09 187,-29.09"/>
</a>
</g>
</g>
</g>
</svg>
</svg>

<style type='text/css'>
<![CDATA[
[data-mouse-over-selected='false'] { opacity: 0.7; }
[data-mouse-over-selected='true']  { opacity: 1.0; }
]]>
</style>
<script type="application/ecmascript"><![CDATA[
document.addEventListener('DOMContentLoaded', (event) => {
  highlightEdges();
  highlightAdjacentNodes();
});
]]></script>
</svg>
