<?xml version="1.0" encoding="UTF-8" standalone="no"?>
<!DOCTYPE svg PUBLIC "-//W3C//DTD SVG 1.1//EN"
 "http://www.w3.org/Graphics/SVG/1.1/DTD/svg11.dtd">
<!-- Generated by graphviz version 2.44.1 (20200629.0846)
 -->
<!-- Title: C:/Users/M70027/Documents/Projects/tp&#45;deployment/dspic33ch&#45;power&#45;totem&#45;pole&#45;demonstration&#45;application&#45;single&#45;phase_v2/dspic33ch_totem_pole_single_phase_primary_IL.X/mcc_generated_files/dma/src/dma.c Pages: 1 -->
<svg width="321pt" height="258pt"
 viewBox="0.00 0.00 320.50 258.00" xmlns="http://www.w3.org/2000/svg" xmlns:xlink="http://www.w3.org/1999/xlink">
<g id="graph0" class="graph" transform="scale(1 1) rotate(0) translate(4 254)">
<title>C:/Users/M70027/Documents/Projects/tp&#45;deployment/dspic33ch&#45;power&#45;totem&#45;pole&#45;demonstration&#45;application&#45;single&#45;phase_v2/dspic33ch_totem_pole_single_phase_primary_IL.X/mcc_generated_files/dma/src/dma.c</title>
<!-- Node1 -->
<g id="Node000001" class="node">
<title>Node1</title>
<g id="a_Node000001"><a xlink:title="This is the generated driver source file for DMA driver.">
<polygon fill="#999999" stroke="#666666" points="248,-250 71,-250 71,-165 248,-165 248,-250"/>
<text text-anchor="start" x="79" y="-238" font-family="Helvetica,sans-Serif" font-size="10.00">C:/Users/M70027/Documents</text>
<text text-anchor="start" x="79" y="-227" font-family="Helvetica,sans-Serif" font-size="10.00">/Projects/tp&#45;deployment</text>
<text text-anchor="start" x="79" y="-216" font-family="Helvetica,sans-Serif" font-size="10.00">/dspic33ch&#45;power&#45;totem&#45;pole</text>
<text text-anchor="start" x="79" y="-205" font-family="Helvetica,sans-Serif" font-size="10.00">&#45;demonstration&#45;application</text>
<text text-anchor="start" x="79" y="-194" font-family="Helvetica,sans-Serif" font-size="10.00">&#45;single&#45;phase_v2/dspic33ch_totem</text>
<text text-anchor="start" x="79" y="-183" font-family="Helvetica,sans-Serif" font-size="10.00">_pole_single_phase_primary_IL.X</text>
<text text-anchor="middle" x="159.5" y="-172" font-family="Helvetica,sans-Serif" font-size="10.00">/mcc_generated_files/dma/src/dma.c</text>
</a>
</g>
</g>
<!-- Node2 -->
<g id="Node000002" class="node">
<title>Node2</title>
<g id="a_Node000002"><a xlink:title=" ">
<polygon fill="#e0e0e0" stroke="#999999" points="115,-129 64,-129 64,-110 115,-110 115,-129"/>
<text text-anchor="middle" x="89.5" y="-117" font-family="Helvetica,sans-Serif" font-size="10.00">stddef.h</text>
</a>
</g>
</g>
<!-- Node1&#45;&gt;Node2 -->
<g id="edge1_Node000001_Node000002" class="edge">
<title>Node1&#45;&gt;Node2</title>
<g id="a_edge1_Node000001_Node000002"><a xlink:title=" ">
<path fill="none" stroke="#63b8ff" d="M125.53,-164.76C117.44,-154.83 109.28,-144.81 102.78,-136.82"/>
<polygon fill="#63b8ff" stroke="#63b8ff" points="105.48,-134.59 96.46,-129.05 100.05,-139.01 105.48,-134.59"/>
</a>
</g>
</g>
<!-- Node3 -->
<g id="Node000003" class="node">
<title>Node3</title>
<g id="a_Node000003"><a xlink:href="a00107.html" target="_top" xlink:title="This is the generated driver header file for the DMA driver.">
<polygon fill="white" stroke="#666666" points="186,-129 133,-129 133,-110 186,-110 186,-129"/>
<text text-anchor="middle" x="159.5" y="-117" font-family="Helvetica,sans-Serif" font-size="10.00">../dma.h</text>
</a>
</g>
</g>
<!-- Node1&#45;&gt;Node3 -->
<g id="edge2_Node000001_Node000003" class="edge">
<title>Node1&#45;&gt;Node3</title>
<g id="a_edge2_Node000001_Node000003"><a xlink:title=" ">
<path fill="none" stroke="#63b8ff" d="M159.5,-164.76C159.5,-155.78 159.5,-146.73 159.5,-139.17"/>
<polygon fill="#63b8ff" stroke="#63b8ff" points="163,-139.05 159.5,-129.05 156,-139.05 163,-139.05"/>
</a>
</g>
</g>
<!-- Node9 -->
<g id="Node000009" class="node">
<title>Node9</title>
<g id="a_Node000009"><a xlink:href="a00236.html" target="_top" xlink:title="This is the driver header file for DMA driver.">
<polygon fill="white" stroke="#666666" points="312.5,-129 204.5,-129 204.5,-110 312.5,-110 312.5,-129"/>
<text text-anchor="middle" x="258.5" y="-117" font-family="Helvetica,sans-Serif" font-size="10.00">driver/dma/drv_dma.h</text>
</a>
</g>
</g>
<!-- Node1&#45;&gt;Node9 -->
<g id="edge11_Node000001_Node000009" class="edge">
<title>Node1&#45;&gt;Node9</title>
<g id="a_edge11_Node000001_Node000009"><a xlink:title=" ">
<path fill="none" stroke="#63b8ff" d="M207.55,-164.76C219.47,-154.41 231.5,-143.95 240.88,-135.81"/>
<polygon fill="#63b8ff" stroke="#63b8ff" points="243.41,-138.25 248.66,-129.05 238.82,-132.96 243.41,-138.25"/>
</a>
</g>
</g>
<!-- Node4 -->
<g id="Node000004" class="node">
<title>Node4</title>
<g id="a_Node000004"><a xlink:title=" ">
<polygon fill="#e0e0e0" stroke="#999999" points="261,-74 226,-74 226,-55 261,-55 261,-74"/>
<text text-anchor="middle" x="243.5" y="-62" font-family="Helvetica,sans-Serif" font-size="10.00">xc.h</text>
</a>
</g>
</g>
<!-- Node3&#45;&gt;Node4 -->
<g id="edge3_Node000003_Node000004" class="edge">
<title>Node3&#45;&gt;Node4</title>
<g id="a_edge3_Node000003_Node000004"><a xlink:title=" ">
<path fill="none" stroke="#63b8ff" d="M173,-109.98C185.9,-101.84 205.6,-89.41 220.9,-79.76"/>
<polygon fill="#63b8ff" stroke="#63b8ff" points="223.17,-82.47 229.76,-74.17 219.43,-76.55 223.17,-82.47"/>
</a>
</g>
</g>
<!-- Node5 -->
<g id="Node000005" class="node">
<title>Node5</title>
<g id="a_Node000005"><a xlink:title=" ">
<polygon fill="#e0e0e0" stroke="#999999" points="136.5,-19 80.5,-19 80.5,0 136.5,0 136.5,-19"/>
<text text-anchor="middle" x="108.5" y="-7" font-family="Helvetica,sans-Serif" font-size="10.00">stdbool.h</text>
</a>
</g>
</g>
<!-- Node3&#45;&gt;Node5 -->
<g id="edge4_Node000003_Node000005" class="edge">
<title>Node3&#45;&gt;Node5</title>
<g id="a_edge4_Node000003_Node000005"><a xlink:title=" ">
<path fill="none" stroke="#63b8ff" d="M157.89,-109.95C155.32,-97.43 149.64,-73.59 140.5,-55 135.63,-45.09 128.6,-35.02 122.37,-26.98"/>
<polygon fill="#63b8ff" stroke="#63b8ff" points="125.06,-24.74 116.06,-19.14 119.6,-29.12 125.06,-24.74"/>
</a>
</g>
</g>
<!-- Node6 -->
<g id="Node000006" class="node">
<title>Node6</title>
<g id="a_Node000006"><a xlink:title=" ">
<polygon fill="#e0e0e0" stroke="#999999" points="49,-19 0,-19 0,0 49,0 49,-19"/>
<text text-anchor="middle" x="24.5" y="-7" font-family="Helvetica,sans-Serif" font-size="10.00">stdint.h</text>
</a>
</g>
</g>
<!-- Node3&#45;&gt;Node6 -->
<g id="edge5_Node000003_Node000006" class="edge">
<title>Node3&#45;&gt;Node6</title>
<g id="a_edge5_Node000003_Node000006"><a xlink:title=" ">
<path fill="none" stroke="#63b8ff" d="M132.83,-112.15C100.63,-103.93 49.2,-88.91 36.5,-74 26.05,-61.72 23.55,-43.21 23.37,-29.34"/>
<polygon fill="#63b8ff" stroke="#63b8ff" points="26.88,-29.1 23.64,-19.01 19.88,-28.92 26.88,-29.1"/>
</a>
</g>
</g>
<!-- Node7 -->
<g id="Node000007" class="node">
<title>Node7</title>
<g id="a_Node000007"><a xlink:href="a00113.html" target="_top" xlink:title="This is the generated driver types header file for the DMA driver.">
<polygon fill="white" stroke="#666666" points="234,-19 161,-19 161,0 234,0 234,-19"/>
<text text-anchor="middle" x="197.5" y="-7" font-family="Helvetica,sans-Serif" font-size="10.00">dma_types.h</text>
</a>
</g>
</g>
<!-- Node3&#45;&gt;Node7 -->
<g id="edge6_Node000003_Node000007" class="edge">
<title>Node3&#45;&gt;Node7</title>
<g id="a_edge6_Node000003_Node000007"><a xlink:title=" ">
<path fill="none" stroke="#63b8ff" d="M162.61,-109.66C168.82,-92.01 182.87,-52.09 191.12,-28.64"/>
<polygon fill="#63b8ff" stroke="#63b8ff" points="194.44,-29.75 194.45,-19.16 187.83,-27.43 194.44,-29.75"/>
</a>
</g>
</g>
<!-- Node8 -->
<g id="Node000008" class="node">
<title>Node8</title>
<g id="a_Node000008"><a xlink:href="a00110_source.html" target="_top" xlink:title=" ">
<polygon fill="white" stroke="#666666" points="131.5,-74 45.5,-74 45.5,-55 131.5,-55 131.5,-74"/>
<text text-anchor="middle" x="88.5" y="-62" font-family="Helvetica,sans-Serif" font-size="10.00">dma_interface.h</text>
</a>
</g>
</g>
<!-- Node3&#45;&gt;Node8 -->
<g id="edge7_Node000003_Node000008" class="edge">
<title>Node3&#45;&gt;Node8</title>
<g id="a_edge7_Node000003_Node000008"><a xlink:title=" ">
<path fill="none" stroke="#63b8ff" d="M148.09,-109.98C137.39,-102 121.16,-89.88 108.34,-80.31"/>
<polygon fill="#63b8ff" stroke="#63b8ff" points="110.22,-77.35 100.11,-74.17 106.03,-82.96 110.22,-77.35"/>
</a>
</g>
</g>
<!-- Node8&#45;&gt;Node5 -->
<g id="edge9_Node000008_Node000005" class="edge">
<title>Node8&#45;&gt;Node5</title>
<g id="a_edge9_Node000008_Node000005"><a xlink:title=" ">
<path fill="none" stroke="#63b8ff" d="M91.8,-54.75C94.48,-47.65 98.35,-37.4 101.69,-28.56"/>
<polygon fill="#63b8ff" stroke="#63b8ff" points="105,-29.68 105.26,-19.09 98.45,-27.21 105,-29.68"/>
</a>
</g>
</g>
<!-- Node8&#45;&gt;Node6 -->
<g id="edge8_Node000008_Node000006" class="edge">
<title>Node8&#45;&gt;Node6</title>
<g id="a_edge8_Node000008_Node000006"><a xlink:title=" ">
<path fill="none" stroke="#63b8ff" d="M78.22,-54.98C68.66,-47.07 54.22,-35.11 42.72,-25.58"/>
<polygon fill="#63b8ff" stroke="#63b8ff" points="44.9,-22.85 34.97,-19.17 40.44,-28.24 44.9,-22.85"/>
</a>
</g>
</g>
<!-- Node8&#45;&gt;Node7 -->
<g id="edge10_Node000008_Node000007" class="edge">
<title>Node8&#45;&gt;Node7</title>
<g id="a_edge10_Node000008_Node000007"><a xlink:title=" ">
<path fill="none" stroke="#63b8ff" d="M106.01,-54.98C123.47,-46.5 150.51,-33.35 170.67,-23.54"/>
<polygon fill="#63b8ff" stroke="#63b8ff" points="172.21,-26.69 179.67,-19.17 169.14,-20.4 172.21,-26.69"/>
</a>
</g>
</g>
<!-- Node9&#45;&gt;Node4 -->
<g id="edge12_Node000009_Node000004" class="edge">
<title>Node9&#45;&gt;Node4</title>
<g id="a_edge12_Node000009_Node000004"><a xlink:title=" ">
<path fill="none" stroke="#63b8ff" d="M256.02,-109.75C254.04,-102.72 251.18,-92.62 248.69,-83.84"/>
<polygon fill="#63b8ff" stroke="#63b8ff" points="252.02,-82.76 245.93,-74.09 245.29,-84.66 252.02,-82.76"/>
</a>
</g>
</g>
<!-- Node9&#45;&gt;Node7 -->
<g id="edge13_Node000009_Node000007" class="edge">
<title>Node9&#45;&gt;Node7</title>
<g id="a_edge13_Node000009_Node000007"><a xlink:title=" ">
<path fill="none" stroke="#63b8ff" d="M263.66,-109.69C270.44,-96.85 280.39,-72.61 270.5,-55 262.39,-40.56 247.49,-30.26 233.25,-23.22"/>
<polygon fill="#63b8ff" stroke="#63b8ff" points="234.62,-20 224.07,-19.06 231.73,-26.38 234.62,-20"/>
</a>
</g>
</g>
</g>
</svg>
