<?xml version="1.0" encoding="UTF-8" standalone="no"?>
<!DOCTYPE svg PUBLIC "-//W3C//DTD SVG 1.1//EN"
 "http://www.w3.org/Graphics/SVG/1.1/DTD/svg11.dtd">
<!-- Generated by graphviz version 8.1.0 (20230707.0739)
 -->
<!-- Title: D:/Firmware/MCU16ASMPS_TestEnvironment/_deployment/dspic33ch&#45;power&#45;totem&#45;pole&#45;demonstration&#45;application&#45;single&#45;phase/dspic33ch_totem_pole_single_phase_primary_IL.X/mcc_generated_files/dma/dma_types.h Pages: 1 -->
<svg width="1160pt" height="484pt"
 viewBox="0.00 0.00 1159.50 484.00" xmlns="http://www.w3.org/2000/svg" xmlns:xlink="http://www.w3.org/1999/xlink">
<g id="graph0" class="graph" transform="scale(1 1) rotate(0) translate(4 480)">
<title>D:/Firmware/MCU16ASMPS_TestEnvironment/_deployment/dspic33ch&#45;power&#45;totem&#45;pole&#45;demonstration&#45;application&#45;single&#45;phase/dspic33ch_totem_pole_single_phase_primary_IL.X/mcc_generated_files/dma/dma_types.h</title>
<!-- Node1 -->
<g id="Node000001" class="node">
<title>Node1</title>
<g id="a_Node000001"><a xlink:title="This is the generated driver types header file for the DMA driver.">
<polygon fill="#999999" stroke="#666666" points="761.5,-476 585,-476 585,-384 761.5,-384 761.5,-476"/>
<text text-anchor="start" x="593" y="-462.5" font-family="Helvetica,sans-Serif" font-size="10.00">D:/Firmware/MCU16ASMPS</text>
<text text-anchor="start" x="593" y="-450.5" font-family="Helvetica,sans-Serif" font-size="10.00">_TestEnvironment/_deployment</text>
<text text-anchor="start" x="593" y="-438.5" font-family="Helvetica,sans-Serif" font-size="10.00">/dspic33ch&#45;power&#45;totem&#45;pole</text>
<text text-anchor="start" x="593" y="-426.5" font-family="Helvetica,sans-Serif" font-size="10.00">&#45;demonstration&#45;application&#45;single</text>
<text text-anchor="start" x="593" y="-414.5" font-family="Helvetica,sans-Serif" font-size="10.00">&#45;phase/dspic33ch_totem_pole_single</text>
<text text-anchor="start" x="593" y="-402.5" font-family="Helvetica,sans-Serif" font-size="10.00">_phase_primary_IL.X/mcc_generated</text>
<text text-anchor="middle" x="673.25" y="-390.5" font-family="Helvetica,sans-Serif" font-size="10.00">_files/dma/dma_types.h</text>
</a>
</g>
</g>
<!-- Node2 -->
<g id="Node000002" class="node">
<title>Node2</title>
<g id="a_Node000002"><a xlink:href="a00107.html" target="_top" xlink:title="This is the generated driver header file for the DMA driver.">
<polygon fill="white" stroke="#666666" points="761.5,-220 585,-220 585,-128 761.5,-128 761.5,-220"/>
<text text-anchor="start" x="593" y="-206.5" font-family="Helvetica,sans-Serif" font-size="10.00">D:/Firmware/MCU16ASMPS</text>
<text text-anchor="start" x="593" y="-194.5" font-family="Helvetica,sans-Serif" font-size="10.00">_TestEnvironment/_deployment</text>
<text text-anchor="start" x="593" y="-182.5" font-family="Helvetica,sans-Serif" font-size="10.00">/dspic33ch&#45;power&#45;totem&#45;pole</text>
<text text-anchor="start" x="593" y="-170.5" font-family="Helvetica,sans-Serif" font-size="10.00">&#45;demonstration&#45;application&#45;single</text>
<text text-anchor="start" x="593" y="-158.5" font-family="Helvetica,sans-Serif" font-size="10.00">&#45;phase/dspic33ch_totem_pole_single</text>
<text text-anchor="start" x="593" y="-146.5" font-family="Helvetica,sans-Serif" font-size="10.00">_phase_primary_IL.X/mcc_generated</text>
<text text-anchor="middle" x="673.25" y="-134.5" font-family="Helvetica,sans-Serif" font-size="10.00">_files/dma/dma.h</text>
</a>
</g>
</g>
<!-- Node1&#45;&gt;Node2 -->
<g id="edge1_Node000001_Node000002" class="edge">
<title>Node1&#45;&gt;Node2</title>
<g id="a_edge1_Node000001_Node000002"><a xlink:title=" ">
<path fill="none" stroke="#63b8ff" d="M642.62,-373.61C639.17,-365.24 636.2,-356.55 634.25,-348 625.15,-308.14 625.15,-295.86 634.25,-256 636.99,-243.98 641.76,-231.66 647.03,-220.38"/>
<polygon fill="#63b8ff" stroke="#63b8ff" points="639.8,-374.88 647.03,-382.62 646.2,-372.06 639.8,-374.88"/>
</a>
</g>
</g>
<!-- Node6 -->
<g id="Node000006" class="node">
<title>Node6</title>
<g id="a_Node000006"><a xlink:href="a00233.html" target="_top" xlink:title="This is the driver source file for DMA driver.">
<polygon fill="white" stroke="#666666" points="1151.5,-92 975,-92 975,0 1151.5,0 1151.5,-92"/>
<text text-anchor="start" x="983" y="-78.5" font-family="Helvetica,sans-Serif" font-size="10.00">D:/Firmware/MCU16ASMPS</text>
<text text-anchor="start" x="983" y="-66.5" font-family="Helvetica,sans-Serif" font-size="10.00">_TestEnvironment/_deployment</text>
<text text-anchor="start" x="983" y="-54.5" font-family="Helvetica,sans-Serif" font-size="10.00">/dspic33ch&#45;power&#45;totem&#45;pole</text>
<text text-anchor="start" x="983" y="-42.5" font-family="Helvetica,sans-Serif" font-size="10.00">&#45;demonstration&#45;application&#45;single</text>
<text text-anchor="start" x="983" y="-30.5" font-family="Helvetica,sans-Serif" font-size="10.00">&#45;phase/dspic33ch_totem_pole_single</text>
<text text-anchor="start" x="983" y="-18.5" font-family="Helvetica,sans-Serif" font-size="10.00">_phase_primary_IL.X/sources/driver</text>
<text text-anchor="middle" x="1063.25" y="-6.5" font-family="Helvetica,sans-Serif" font-size="10.00">/dma/drv_dma.c</text>
</a>
</g>
</g>
<!-- Node1&#45;&gt;Node6 -->
<g id="edge9_Node000001_Node000006" class="edge">
<title>Node1&#45;&gt;Node6</title>
<g id="a_edge9_Node000001_Node000006"><a xlink:title=" ">
<path fill="none" stroke="#63b8ff" d="M771.49,-385.78C791.28,-374.89 811.21,-362.2 828.25,-348 919.03,-272.35 997.33,-156.12 1036.51,-92.49"/>
<polygon fill="#63b8ff" stroke="#63b8ff" points="769.95,-383.16 762.79,-390.97 773.26,-389.33 769.95,-383.16"/>
</a>
</g>
</g>
<!-- Node8 -->
<g id="Node000008" class="node">
<title>Node8</title>
<g id="a_Node000008"><a xlink:href="a00110_source.html" target="_top" xlink:title=" ">
<polygon fill="white" stroke="#666666" points="819.5,-348 643,-348 643,-256 819.5,-256 819.5,-348"/>
<text text-anchor="start" x="651" y="-334.5" font-family="Helvetica,sans-Serif" font-size="10.00">D:/Firmware/MCU16ASMPS</text>
<text text-anchor="start" x="651" y="-322.5" font-family="Helvetica,sans-Serif" font-size="10.00">_TestEnvironment/_deployment</text>
<text text-anchor="start" x="651" y="-310.5" font-family="Helvetica,sans-Serif" font-size="10.00">/dspic33ch&#45;power&#45;totem&#45;pole</text>
<text text-anchor="start" x="651" y="-298.5" font-family="Helvetica,sans-Serif" font-size="10.00">&#45;demonstration&#45;application&#45;single</text>
<text text-anchor="start" x="651" y="-286.5" font-family="Helvetica,sans-Serif" font-size="10.00">&#45;phase/dspic33ch_totem_pole_single</text>
<text text-anchor="start" x="651" y="-274.5" font-family="Helvetica,sans-Serif" font-size="10.00">_phase_primary_IL.X/mcc_generated</text>
<text text-anchor="middle" x="731.25" y="-262.5" font-family="Helvetica,sans-Serif" font-size="10.00">_files/dma/dma_interface.h</text>
</a>
</g>
</g>
<!-- Node1&#45;&gt;Node8 -->
<g id="edge7_Node000001_Node000008" class="edge">
<title>Node1&#45;&gt;Node8</title>
<g id="a_edge7_Node000001_Node000008"><a xlink:title=" ">
<path fill="none" stroke="#63b8ff" d="M698.7,-373.72C702.59,-365.27 706.56,-356.63 710.34,-348.42"/>
<polygon fill="#63b8ff" stroke="#63b8ff" points="695.19,-371.96 694.19,-382.51 701.55,-374.89 695.19,-371.96"/>
</a>
</g>
</g>
<!-- Node9 -->
<g id="Node000009" class="node">
<title>Node9</title>
<g id="a_Node000009"><a xlink:href="a00236.html" target="_top" xlink:title="This is the driver header file for DMA driver.">
<polygon fill="white" stroke="#666666" points="469.5,-220 293,-220 293,-128 469.5,-128 469.5,-220"/>
<text text-anchor="start" x="301" y="-206.5" font-family="Helvetica,sans-Serif" font-size="10.00">D:/Firmware/MCU16ASMPS</text>
<text text-anchor="start" x="301" y="-194.5" font-family="Helvetica,sans-Serif" font-size="10.00">_TestEnvironment/_deployment</text>
<text text-anchor="start" x="301" y="-182.5" font-family="Helvetica,sans-Serif" font-size="10.00">/dspic33ch&#45;power&#45;totem&#45;pole</text>
<text text-anchor="start" x="301" y="-170.5" font-family="Helvetica,sans-Serif" font-size="10.00">&#45;demonstration&#45;application&#45;single</text>
<text text-anchor="start" x="301" y="-158.5" font-family="Helvetica,sans-Serif" font-size="10.00">&#45;phase/dspic33ch_totem_pole_single</text>
<text text-anchor="start" x="301" y="-146.5" font-family="Helvetica,sans-Serif" font-size="10.00">_phase_primary_IL.X/sources/driver</text>
<text text-anchor="middle" x="381.25" y="-134.5" font-family="Helvetica,sans-Serif" font-size="10.00">/dma/drv_dma.h</text>
</a>
</g>
</g>
<!-- Node1&#45;&gt;Node9 -->
<g id="edge10_Node000001_Node000009" class="edge">
<title>Node1&#45;&gt;Node9</title>
<g id="a_edge10_Node000001_Node000009"><a xlink:title=" ">
<path fill="none" stroke="#63b8ff" d="M612.76,-376.38C559.85,-330.36 483.8,-264.21 433.49,-220.44"/>
<polygon fill="#63b8ff" stroke="#63b8ff" points="610.2,-379.67 620.05,-383.59 614.8,-374.39 610.2,-379.67"/>
</a>
</g>
</g>
<!-- Node3 -->
<g id="Node000003" class="node">
<title>Node3</title>
<g id="a_Node000003"><a xlink:href="a00721_source.html" target="_top" xlink:title=" ">
<polygon fill="white" stroke="#666666" points="371.5,-86 195,-86 195,-6 371.5,-6 371.5,-86"/>
<text text-anchor="start" x="203" y="-72.5" font-family="Helvetica,sans-Serif" font-size="10.00">D:/Firmware/MCU16ASMPS</text>
<text text-anchor="start" x="203" y="-60.5" font-family="Helvetica,sans-Serif" font-size="10.00">_TestEnvironment/_deployment</text>
<text text-anchor="start" x="203" y="-48.5" font-family="Helvetica,sans-Serif" font-size="10.00">/dspic33ch&#45;power&#45;totem&#45;pole</text>
<text text-anchor="start" x="203" y="-36.5" font-family="Helvetica,sans-Serif" font-size="10.00">&#45;demonstration&#45;application&#45;single</text>
<text text-anchor="start" x="203" y="-24.5" font-family="Helvetica,sans-Serif" font-size="10.00">&#45;phase/dspic33ch_totem_pole_single</text>
<text text-anchor="middle" x="283.25" y="-12.5" font-family="Helvetica,sans-Serif" font-size="10.00">_phase_primary_IL.X/main.c</text>
</a>
</g>
</g>
<!-- Node2&#45;&gt;Node3 -->
<g id="edge2_Node000002_Node000003" class="edge">
<title>Node2&#45;&gt;Node3</title>
<g id="a_edge2_Node000002_Node000003"><a xlink:title=" ">
<path fill="none" stroke="#63b8ff" d="M574.09,-149.69C516.99,-135.23 444.28,-115.04 381.25,-92 376.5,-90.26 371.67,-88.39 366.81,-86.44"/>
<polygon fill="#63b8ff" stroke="#63b8ff" points="573.02,-153.28 583.57,-152.33 574.72,-146.49 573.02,-153.28"/>
</a>
</g>
</g>
<!-- Node4 -->
<g id="Node000004" class="node">
<title>Node4</title>
<g id="a_Node000004"><a xlink:href="a00116.html" target="_top" xlink:title="This is the generated driver source file for DMA driver.">
<polygon fill="white" stroke="#666666" points="566.5,-92 390,-92 390,0 566.5,0 566.5,-92"/>
<text text-anchor="start" x="398" y="-78.5" font-family="Helvetica,sans-Serif" font-size="10.00">D:/Firmware/MCU16ASMPS</text>
<text text-anchor="start" x="398" y="-66.5" font-family="Helvetica,sans-Serif" font-size="10.00">_TestEnvironment/_deployment</text>
<text text-anchor="start" x="398" y="-54.5" font-family="Helvetica,sans-Serif" font-size="10.00">/dspic33ch&#45;power&#45;totem&#45;pole</text>
<text text-anchor="start" x="398" y="-42.5" font-family="Helvetica,sans-Serif" font-size="10.00">&#45;demonstration&#45;application&#45;single</text>
<text text-anchor="start" x="398" y="-30.5" font-family="Helvetica,sans-Serif" font-size="10.00">&#45;phase/dspic33ch_totem_pole_single</text>
<text text-anchor="start" x="398" y="-18.5" font-family="Helvetica,sans-Serif" font-size="10.00">_phase_primary_IL.X/mcc_generated</text>
<text text-anchor="middle" x="478.25" y="-6.5" font-family="Helvetica,sans-Serif" font-size="10.00">_files/dma/src/dma.c</text>
</a>
</g>
</g>
<!-- Node2&#45;&gt;Node4 -->
<g id="edge3_Node000002_Node000004" class="edge">
<title>Node2&#45;&gt;Node4</title>
<g id="a_edge3_Node000002_Node000004"><a xlink:title=" ">
<path fill="none" stroke="#63b8ff" d="M593.64,-121.56C578.7,-111.9 563.18,-101.88 548.55,-92.42"/>
<polygon fill="#63b8ff" stroke="#63b8ff" points="591.55,-125.02 601.85,-127.51 595.35,-119.14 591.55,-125.02"/>
</a>
</g>
</g>
<!-- Node5 -->
<g id="Node000005" class="node">
<title>Node5</title>
<g id="a_Node000005"><a xlink:href="a00835.html" target="_top" xlink:title="This is the generated driver header file for the System driver.">
<polygon fill="white" stroke="#666666" points="761.5,-92 585,-92 585,0 761.5,0 761.5,-92"/>
<text text-anchor="start" x="593" y="-78.5" font-family="Helvetica,sans-Serif" font-size="10.00">D:/Firmware/MCU16ASMPS</text>
<text text-anchor="start" x="593" y="-66.5" font-family="Helvetica,sans-Serif" font-size="10.00">_TestEnvironment/_deployment</text>
<text text-anchor="start" x="593" y="-54.5" font-family="Helvetica,sans-Serif" font-size="10.00">/dspic33ch&#45;power&#45;totem&#45;pole</text>
<text text-anchor="start" x="593" y="-42.5" font-family="Helvetica,sans-Serif" font-size="10.00">&#45;demonstration&#45;application&#45;single</text>
<text text-anchor="start" x="593" y="-30.5" font-family="Helvetica,sans-Serif" font-size="10.00">&#45;phase/dspic33ch_totem_pole_single</text>
<text text-anchor="start" x="593" y="-18.5" font-family="Helvetica,sans-Serif" font-size="10.00">_phase_primary_IL.X/mcc_generated</text>
<text text-anchor="middle" x="673.25" y="-6.5" font-family="Helvetica,sans-Serif" font-size="10.00">_files/system/src/system.c</text>
</a>
</g>
</g>
<!-- Node2&#45;&gt;Node5 -->
<g id="edge4_Node000002_Node000005" class="edge">
<title>Node2&#45;&gt;Node5</title>
<g id="a_edge4_Node000002_Node000005"><a xlink:title=" ">
<path fill="none" stroke="#63b8ff" d="M673.25,-116.61C673.25,-108.52 673.25,-100.27 673.25,-92.42"/>
<polygon fill="#63b8ff" stroke="#63b8ff" points="669.75,-116.51 673.25,-126.51 676.75,-116.51 669.75,-116.51"/>
</a>
</g>
</g>
<!-- Node2&#45;&gt;Node6 -->
<g id="edge5_Node000002_Node000006" class="edge">
<title>Node2&#45;&gt;Node6</title>
<g id="a_edge5_Node000002_Node000006"><a xlink:title=" ">
<path fill="none" stroke="#63b8ff" d="M772.41,-149.69C829.51,-135.23 902.22,-115.04 965.25,-92 968.33,-90.87 971.44,-89.69 974.57,-88.47"/>
<polygon fill="#63b8ff" stroke="#63b8ff" points="771.78,-146.49 762.93,-152.33 773.48,-153.28 771.78,-146.49"/>
</a>
</g>
</g>
<!-- Node7 -->
<g id="Node000007" class="node">
<title>Node7</title>
<g id="a_Node000007"><a xlink:href="a00251.html" target="_top" xlink:title="This is the driver header file for spi builds upon mcc.">
<polygon fill="white" stroke="#666666" points="956.5,-92 780,-92 780,0 956.5,0 956.5,-92"/>
<text text-anchor="start" x="788" y="-78.5" font-family="Helvetica,sans-Serif" font-size="10.00">D:/Firmware/MCU16ASMPS</text>
<text text-anchor="start" x="788" y="-66.5" font-family="Helvetica,sans-Serif" font-size="10.00">_TestEnvironment/_deployment</text>
<text text-anchor="start" x="788" y="-54.5" font-family="Helvetica,sans-Serif" font-size="10.00">/dspic33ch&#45;power&#45;totem&#45;pole</text>
<text text-anchor="start" x="788" y="-42.5" font-family="Helvetica,sans-Serif" font-size="10.00">&#45;demonstration&#45;application&#45;single</text>
<text text-anchor="start" x="788" y="-30.5" font-family="Helvetica,sans-Serif" font-size="10.00">&#45;phase/dspic33ch_totem_pole_single</text>
<text text-anchor="start" x="788" y="-18.5" font-family="Helvetica,sans-Serif" font-size="10.00">_phase_primary_IL.X/sources/driver</text>
<text text-anchor="middle" x="868.25" y="-6.5" font-family="Helvetica,sans-Serif" font-size="10.00">/spi/drv_spi.c</text>
</a>
</g>
</g>
<!-- Node2&#45;&gt;Node7 -->
<g id="edge6_Node000002_Node000007" class="edge">
<title>Node2&#45;&gt;Node7</title>
<g id="a_edge6_Node000002_Node000007"><a xlink:title=" ">
<path fill="none" stroke="#63b8ff" d="M752.86,-121.56C767.8,-111.9 783.32,-101.88 797.95,-92.42"/>
<polygon fill="#63b8ff" stroke="#63b8ff" points="751.15,-119.14 744.65,-127.51 754.95,-125.02 751.15,-119.14"/>
</a>
</g>
</g>
<!-- Node8&#45;&gt;Node2 -->
<g id="edge8_Node000008_Node000002" class="edge">
<title>Node8&#45;&gt;Node2</title>
<g id="a_edge8_Node000008_Node000002"><a xlink:title=" ">
<path fill="none" stroke="#63b8ff" d="M705.8,-245.72C701.91,-237.27 697.94,-228.63 694.16,-220.42"/>
<polygon fill="#63b8ff" stroke="#63b8ff" points="702.95,-246.89 710.31,-254.51 709.31,-243.96 702.95,-246.89"/>
</a>
</g>
</g>
<!-- Node9&#45;&gt;Node3 -->
<g id="edge11_Node000009_Node000003" class="edge">
<title>Node9&#45;&gt;Node3</title>
<g id="a_edge11_Node000009_Node000003"><a xlink:title=" ">
<path fill="none" stroke="#63b8ff" d="M339.36,-119.14C330.75,-108.07 321.84,-96.61 313.72,-86.18"/>
<polygon fill="#63b8ff" stroke="#63b8ff" points="336.97,-120.77 345.87,-126.51 342.49,-116.47 336.97,-120.77"/>
</a>
</g>
</g>
<!-- Node9&#45;&gt;Node4 -->
<g id="edge12_Node000009_Node000004" class="edge">
<title>Node9&#45;&gt;Node4</title>
<g id="a_edge12_Node000009_Node000004"><a xlink:title=" ">
<path fill="none" stroke="#63b8ff" d="M422.96,-118.82C429.74,-110.02 436.69,-100.98 443.28,-92.42"/>
<polygon fill="#63b8ff" stroke="#63b8ff" points="419.6,-116.45 416.27,-126.51 425.14,-120.72 419.6,-116.45"/>
</a>
</g>
</g>
<!-- Node10 -->
<g id="Node000010" class="node">
<title>Node10</title>
<g id="a_Node000010"><a xlink:href="a00227.html" target="_top" xlink:title="This is the driver source file for CAN driver.">
<polygon fill="white" stroke="#666666" points="176.5,-92 0,-92 0,0 176.5,0 176.5,-92"/>
<text text-anchor="start" x="8" y="-78.5" font-family="Helvetica,sans-Serif" font-size="10.00">D:/Firmware/MCU16ASMPS</text>
<text text-anchor="start" x="8" y="-66.5" font-family="Helvetica,sans-Serif" font-size="10.00">_TestEnvironment/_deployment</text>
<text text-anchor="start" x="8" y="-54.5" font-family="Helvetica,sans-Serif" font-size="10.00">/dspic33ch&#45;power&#45;totem&#45;pole</text>
<text text-anchor="start" x="8" y="-42.5" font-family="Helvetica,sans-Serif" font-size="10.00">&#45;demonstration&#45;application&#45;single</text>
<text text-anchor="start" x="8" y="-30.5" font-family="Helvetica,sans-Serif" font-size="10.00">&#45;phase/dspic33ch_totem_pole_single</text>
<text text-anchor="start" x="8" y="-18.5" font-family="Helvetica,sans-Serif" font-size="10.00">_phase_primary_IL.X/sources/driver</text>
<text text-anchor="middle" x="88.25" y="-6.5" font-family="Helvetica,sans-Serif" font-size="10.00">/can/drv_can.c</text>
</a>
</g>
</g>
<!-- Node9&#45;&gt;Node10 -->
<g id="edge13_Node000009_Node000010" class="edge">
<title>Node9&#45;&gt;Node10</title>
<g id="a_edge13_Node000009_Node000010"><a xlink:title=" ">
<path fill="none" stroke="#63b8ff" d="M282.69,-132.89C251.72,-120.06 217.47,-105.65 186.25,-92 183.16,-90.65 180.02,-89.27 176.86,-87.86"/>
<polygon fill="#63b8ff" stroke="#63b8ff" points="281.04,-136.41 291.62,-136.99 283.72,-129.94 281.04,-136.41"/>
</a>
</g>
</g>
</g>
</svg>
