<?xml version="1.0" encoding="UTF-8" standalone="no"?>
<!DOCTYPE svg PUBLIC "-//W3C//DTD SVG 1.1//EN"
 "http://www.w3.org/Graphics/SVG/1.1/DTD/svg11.dtd">
<!-- Generated by graphviz version 2.44.1 (20200629.0846)
 -->
<!-- Title: C:/Users/M70027/Documents/Projects/tp&#45;deployment/dspic33ch&#45;power&#45;totem&#45;pole&#45;demonstration&#45;application&#45;single&#45;phase_v2/dspic33ch_totem_pole_single_phase_primary_IL.X/mcc_generated_files/dma/dma.h Pages: 1 -->
<svg width="284pt" height="203pt"
 viewBox="0.00 0.00 284.00 203.00" xmlns="http://www.w3.org/2000/svg" xmlns:xlink="http://www.w3.org/1999/xlink">
<g id="graph0" class="graph" transform="scale(1 1) rotate(0) translate(4 199)">
<title>C:/Users/M70027/Documents/Projects/tp&#45;deployment/dspic33ch&#45;power&#45;totem&#45;pole&#45;demonstration&#45;application&#45;single&#45;phase_v2/dspic33ch_totem_pole_single_phase_primary_IL.X/mcc_generated_files/dma/dma.h</title>
<!-- Node1 -->
<g id="Node000001" class="node">
<title>Node1</title>
<g id="a_Node000001"><a xlink:title="This is the generated driver header file for the DMA driver.">
<polygon fill="#999999" stroke="#666666" points="184.5,-195 18.5,-195 18.5,-110 184.5,-110 184.5,-195"/>
<text text-anchor="start" x="26.5" y="-183" font-family="Helvetica,sans-Serif" font-size="10.00">C:/Users/M70027/Documents</text>
<text text-anchor="start" x="26.5" y="-172" font-family="Helvetica,sans-Serif" font-size="10.00">/Projects/tp&#45;deployment</text>
<text text-anchor="start" x="26.5" y="-161" font-family="Helvetica,sans-Serif" font-size="10.00">/dspic33ch&#45;power&#45;totem&#45;pole</text>
<text text-anchor="start" x="26.5" y="-150" font-family="Helvetica,sans-Serif" font-size="10.00">&#45;demonstration&#45;application</text>
<text text-anchor="start" x="26.5" y="-139" font-family="Helvetica,sans-Serif" font-size="10.00">&#45;single&#45;phase_v2/dspic33ch_totem</text>
<text text-anchor="start" x="26.5" y="-128" font-family="Helvetica,sans-Serif" font-size="10.00">_pole_single_phase_primary_IL.X</text>
<text text-anchor="middle" x="101.5" y="-117" font-family="Helvetica,sans-Serif" font-size="10.00">/mcc_generated_files/dma/dma.h</text>
</a>
</g>
</g>
<!-- Node2 -->
<g id="Node000002" class="node">
<title>Node2</title>
<g id="a_Node000002"><a xlink:title=" ">
<polygon fill="#e0e0e0" stroke="#999999" points="35,-74 0,-74 0,-55 35,-55 35,-74"/>
<text text-anchor="middle" x="17.5" y="-62" font-family="Helvetica,sans-Serif" font-size="10.00">xc.h</text>
</a>
</g>
</g>
<!-- Node1&#45;&gt;Node2 -->
<g id="edge1_Node000001_Node000002" class="edge">
<title>Node1&#45;&gt;Node2</title>
<g id="a_edge1_Node000001_Node000002"><a xlink:title=" ">
<path fill="none" stroke="#63b8ff" d="M60.73,-109.76C50.82,-99.62 40.83,-89.38 32.94,-81.31"/>
<polygon fill="#63b8ff" stroke="#63b8ff" points="35.34,-78.76 25.85,-74.05 30.33,-83.65 35.34,-78.76"/>
</a>
</g>
</g>
<!-- Node3 -->
<g id="Node000003" class="node">
<title>Node3</title>
<g id="a_Node000003"><a xlink:title=" ">
<polygon fill="#e0e0e0" stroke="#999999" points="106.5,-19 50.5,-19 50.5,0 106.5,0 106.5,-19"/>
<text text-anchor="middle" x="78.5" y="-7" font-family="Helvetica,sans-Serif" font-size="10.00">stdbool.h</text>
</a>
</g>
</g>
<!-- Node1&#45;&gt;Node3 -->
<g id="edge2_Node000001_Node000003" class="edge">
<title>Node1&#45;&gt;Node3</title>
<g id="a_edge2_Node000001_Node000003"><a xlink:title=" ">
<path fill="none" stroke="#63b8ff" d="M93.65,-109.72C91.56,-98.16 89.37,-85.61 87.5,-74 85.09,-59.02 82.69,-41.99 80.98,-29.34"/>
<polygon fill="#63b8ff" stroke="#63b8ff" points="84.41,-28.59 79.62,-19.14 77.47,-29.52 84.41,-28.59"/>
</a>
</g>
</g>
<!-- Node4 -->
<g id="Node000004" class="node">
<title>Node4</title>
<g id="a_Node000004"><a xlink:title=" ">
<polygon fill="#e0e0e0" stroke="#999999" points="181,-19 132,-19 132,0 181,0 181,-19"/>
<text text-anchor="middle" x="156.5" y="-7" font-family="Helvetica,sans-Serif" font-size="10.00">stdint.h</text>
</a>
</g>
</g>
<!-- Node1&#45;&gt;Node4 -->
<g id="edge3_Node000001_Node000004" class="edge">
<title>Node1&#45;&gt;Node4</title>
<g id="a_edge3_Node000001_Node000004"><a xlink:title=" ">
<path fill="none" stroke="#63b8ff" d="M105.23,-109.74C107.92,-92.22 112.55,-72.02 120.5,-55 125.37,-44.58 133.2,-34.48 140.32,-26.55"/>
<polygon fill="#63b8ff" stroke="#63b8ff" points="142.99,-28.81 147.32,-19.14 137.9,-24 142.99,-28.81"/>
</a>
</g>
</g>
<!-- Node5 -->
<g id="Node000005" class="node">
<title>Node5</title>
<g id="a_Node000005"><a xlink:href="a00113.html" target="_top" xlink:title="This is the generated driver types header file for the DMA driver.">
<polygon fill="white" stroke="#666666" points="276,-19 203,-19 203,0 276,0 276,-19"/>
<text text-anchor="middle" x="239.5" y="-7" font-family="Helvetica,sans-Serif" font-size="10.00">dma_types.h</text>
</a>
</g>
</g>
<!-- Node1&#45;&gt;Node5 -->
<g id="edge4_Node000001_Node000005" class="edge">
<title>Node1&#45;&gt;Node5</title>
<g id="a_edge4_Node000001_Node000005"><a xlink:title=" ">
<path fill="none" stroke="#63b8ff" d="M184.73,-111.64C199.79,-101.21 214.01,-88.68 224.5,-74 233.86,-60.89 237.45,-42.76 238.79,-29.22"/>
<polygon fill="#63b8ff" stroke="#63b8ff" points="242.29,-29.36 239.47,-19.14 235.31,-28.89 242.29,-29.36"/>
</a>
</g>
</g>
<!-- Node6 -->
<g id="Node000006" class="node">
<title>Node6</title>
<g id="a_Node000006"><a xlink:href="a00110_source.html" target="_top" xlink:title=" ">
<polygon fill="white" stroke="#666666" points="215.5,-74 129.5,-74 129.5,-55 215.5,-55 215.5,-74"/>
<text text-anchor="middle" x="172.5" y="-62" font-family="Helvetica,sans-Serif" font-size="10.00">dma_interface.h</text>
</a>
</g>
</g>
<!-- Node1&#45;&gt;Node6 -->
<g id="edge5_Node000001_Node000006" class="edge">
<title>Node1&#45;&gt;Node6</title>
<g id="a_edge5_Node000001_Node000006"><a xlink:title=" ">
<path fill="none" stroke="#63b8ff" d="M135.96,-109.76C144.16,-99.83 152.43,-89.81 159.03,-81.82"/>
<polygon fill="#63b8ff" stroke="#63b8ff" points="161.78,-83.99 165.44,-74.05 156.38,-79.53 161.78,-83.99"/>
</a>
</g>
</g>
<!-- Node6&#45;&gt;Node3 -->
<g id="edge7_Node000006_Node000003" class="edge">
<title>Node6&#45;&gt;Node3</title>
<g id="a_edge7_Node000006_Node000003"><a xlink:title=" ">
<path fill="none" stroke="#63b8ff" d="M157.4,-54.98C142.68,-46.69 120.08,-33.94 102.83,-24.22"/>
<polygon fill="#63b8ff" stroke="#63b8ff" points="104.31,-21.03 93.88,-19.17 100.87,-27.13 104.31,-21.03"/>
</a>
</g>
</g>
<!-- Node6&#45;&gt;Node4 -->
<g id="edge6_Node000006_Node000004" class="edge">
<title>Node6&#45;&gt;Node4</title>
<g id="a_edge6_Node000006_Node000004"><a xlink:title=" ">
<path fill="none" stroke="#63b8ff" d="M169.86,-54.75C167.74,-47.72 164.69,-37.62 162.04,-28.84"/>
<polygon fill="#63b8ff" stroke="#63b8ff" points="165.33,-27.65 159.09,-19.09 158.63,-29.67 165.33,-27.65"/>
</a>
</g>
</g>
<!-- Node6&#45;&gt;Node5 -->
<g id="edge8_Node000006_Node000005" class="edge">
<title>Node6&#45;&gt;Node5</title>
<g id="a_edge8_Node000006_Node000005"><a xlink:title=" ">
<path fill="none" stroke="#63b8ff" d="M183.26,-54.98C193.27,-47.07 208.39,-35.11 220.43,-25.58"/>
<polygon fill="#63b8ff" stroke="#63b8ff" points="222.87,-28.12 228.54,-19.17 218.53,-22.63 222.87,-28.12"/>
</a>
</g>
</g>
</g>
</svg>
