<?xml version="1.0" encoding="UTF-8" standalone="no"?>
<!DOCTYPE svg PUBLIC "-//W3C//DTD SVG 1.1//EN"
 "http://www.w3.org/Graphics/SVG/1.1/DTD/svg11.dtd">
<!-- Generated by graphviz version 8.1.0 (20230707.0739)
 -->
<!-- Title: D:/Firmware/MCU16ASMPS_TestEnvironment/_deployment/dspic33ch&#45;power&#45;totem&#45;pole&#45;demonstration&#45;application&#45;single&#45;phase/dspic33ch_totem_pole_single_phase_primary_IL.X/mcc_generated_files/dma/dma.h Pages: 1 -->
<svg width="283pt" height="212pt"
 viewBox="0.00 0.00 282.50 212.00" xmlns="http://www.w3.org/2000/svg" xmlns:xlink="http://www.w3.org/1999/xlink">

<svg id="main" version="1.1" xmlns="http://www.w3.org/2000/svg" xmlns:xlink="http://www.w3.org/1999/xlink" xml:space="preserve" onload="init(evt)">
<style type="text/css"><![CDATA[
.node, .edge {opacity: 0.7;}
.node.selected, .edge.selected {opacity: 1;}
.edge:hover path { stroke: red; }
.edge:hover polygon { stroke: red; fill: red; }
]]></style>
<script type="application/ecmascript" xlink:href="svg.min.js"/>
<svg id="graph" class="graph">
<g id="graph0" class="graph" transform="scale(1 1) rotate(0) translate(4 208)">
<title>D:/Firmware/MCU16ASMPS_TestEnvironment/_deployment/dspic33ch&#45;power&#45;totem&#45;pole&#45;demonstration&#45;application&#45;single&#45;phase/dspic33ch_totem_pole_single_phase_primary_IL.X/mcc_generated_files/dma/dma.h</title>
<!-- Node1 -->
<g id="Node000001" class="node">
<title>Node1</title>
<g id="a_Node000001"><a xlink:title="This is the generated driver header file for the DMA driver.">
<polygon fill="#999999" stroke="#666666" points="188.62,-204 12.12,-204 12.12,-112 188.62,-112 188.62,-204"/>
<text text-anchor="start" x="20.12" y="-190.5" font-family="Helvetica,sans-Serif" font-size="10.00">D:/Firmware/MCU16ASMPS</text>
<text text-anchor="start" x="20.12" y="-178.5" font-family="Helvetica,sans-Serif" font-size="10.00">_TestEnvironment/_deployment</text>
<text text-anchor="start" x="20.12" y="-166.5" font-family="Helvetica,sans-Serif" font-size="10.00">/dspic33ch&#45;power&#45;totem&#45;pole</text>
<text text-anchor="start" x="20.12" y="-154.5" font-family="Helvetica,sans-Serif" font-size="10.00">&#45;demonstration&#45;application&#45;single</text>
<text text-anchor="start" x="20.12" y="-142.5" font-family="Helvetica,sans-Serif" font-size="10.00">&#45;phase/dspic33ch_totem_pole_single</text>
<text text-anchor="start" x="20.12" y="-130.5" font-family="Helvetica,sans-Serif" font-size="10.00">_phase_primary_IL.X/mcc_generated</text>
<text text-anchor="middle" x="100.38" y="-118.5" font-family="Helvetica,sans-Serif" font-size="10.00">_files/dma/dma.h</text>
</a>
</g>
</g>
<!-- Node2 -->
<g id="Node000002" class="node">
<title>Node2</title>
<g id="a_Node000002"><a xlink:title=" ">
<polygon fill="#e0e0e0" stroke="#999999" points="34.75,-76 0,-76 0,-56 34.75,-56 34.75,-76"/>
<text text-anchor="middle" x="17.38" y="-62.5" font-family="Helvetica,sans-Serif" font-size="10.00">xc.h</text>
</a>
</g>
</g>
<!-- Node1&#45;&gt;Node2 -->
<g id="edge1_Node000001_Node000002" class="edge">
<title>Node1&#45;&gt;Node2</title>
<g id="a_edge1_Node000001_Node000002"><a xlink:title=" ">
<path fill="none" stroke="#63b8ff" d="M58.63,-111.74C49.6,-101.94 40.58,-92.16 33.29,-84.26"/>
<polygon fill="#63b8ff" stroke="#63b8ff" points="36.24,-82.2 26.88,-77.23 31.09,-86.95 36.24,-82.2"/>
</a>
</g>
</g>
<!-- Node3 -->
<g id="Node000003" class="node">
<title>Node3</title>
<g id="a_Node000003"><a xlink:title=" ">
<polygon fill="#e0e0e0" stroke="#999999" points="106.25,-20 50.5,-20 50.5,0 106.25,0 106.25,-20"/>
<text text-anchor="middle" x="78.38" y="-6.5" font-family="Helvetica,sans-Serif" font-size="10.00">stdbool.h</text>
</a>
</g>
</g>
<!-- Node1&#45;&gt;Node3 -->
<g id="edge2_Node000001_Node000003" class="edge">
<title>Node1&#45;&gt;Node3</title>
<g id="a_edge2_Node000001_Node000003"><a xlink:title=" ">
<path fill="none" stroke="#63b8ff" d="M92.14,-111.65C90.14,-100.05 88.09,-87.58 86.38,-76 84.16,-61 82.08,-43.99 80.6,-31.13"/>
<polygon fill="#63b8ff" stroke="#63b8ff" points="83.97,-30.82 79.37,-21.28 77.02,-31.61 83.97,-30.82"/>
</a>
</g>
</g>
<!-- Node4 -->
<g id="Node000004" class="node">
<title>Node4</title>
<g id="a_Node000004"><a xlink:title=" ">
<polygon fill="#e0e0e0" stroke="#999999" points="180.5,-20 132.25,-20 132.25,0 180.5,0 180.5,-20"/>
<text text-anchor="middle" x="156.38" y="-6.5" font-family="Helvetica,sans-Serif" font-size="10.00">stdint.h</text>
</a>
</g>
</g>
<!-- Node1&#45;&gt;Node4 -->
<g id="edge3_Node000001_Node000004" class="edge">
<title>Node1&#45;&gt;Node4</title>
<g id="a_edge3_Node000001_Node000004"><a xlink:title=" ">
<path fill="none" stroke="#63b8ff" d="M104.02,-111.51C106.69,-93.59 111.33,-73.22 119.38,-56 124.1,-45.88 131.64,-36.12 138.68,-28.29"/>
<polygon fill="#63b8ff" stroke="#63b8ff" points="140.87,-31 145.24,-21.35 135.81,-26.18 140.87,-31"/>
</a>
</g>
</g>
<!-- Node5 -->
<g id="Node000005" class="node">
<title>Node5</title>
<g id="a_Node000005"><a xlink:href="a00113.html" target="_top" xlink:title="This is the generated driver types header file for the DMA driver.">
<polygon fill="white" stroke="#666666" points="274.5,-20 202.25,-20 202.25,0 274.5,0 274.5,-20"/>
<text text-anchor="middle" x="238.38" y="-6.5" font-family="Helvetica,sans-Serif" font-size="10.00">dma_types.h</text>
</a>
</g>
</g>
<!-- Node1&#45;&gt;Node5 -->
<g id="edge4_Node000001_Node000005" class="edge">
<title>Node1&#45;&gt;Node5</title>
<g id="a_edge4_Node000001_Node000005"><a xlink:title=" ">
<path fill="none" stroke="#63b8ff" d="M188.08,-111.56C201.48,-101.4 213.96,-89.54 223.38,-76 232.58,-62.76 236.21,-44.7 237.61,-30.97"/>
<polygon fill="#63b8ff" stroke="#63b8ff" points="241.15,-31.48 238.34,-21.26 234.16,-31 241.15,-31.48"/>
</a>
</g>
</g>
<!-- Node6 -->
<g id="Node000006" class="node">
<title>Node6</title>
<g id="a_Node000006"><a xlink:href="a00110_source.html" target="_top" xlink:title=" ">
<polygon fill="white" stroke="#666666" points="213.88,-76 128.88,-76 128.88,-56 213.88,-56 213.88,-76"/>
<text text-anchor="middle" x="171.38" y="-62.5" font-family="Helvetica,sans-Serif" font-size="10.00">dma_interface.h</text>
</a>
</g>
</g>
<!-- Node1&#45;&gt;Node6 -->
<g id="edge5_Node000001_Node000006" class="edge">
<title>Node1&#45;&gt;Node6</title>
<g id="a_edge5_Node000001_Node000006"><a xlink:title=" ">
<path fill="none" stroke="#63b8ff" d="M136.08,-111.74C143.64,-102.15 151.19,-92.58 157.36,-84.77"/>
<polygon fill="#63b8ff" stroke="#63b8ff" points="160.65,-87.24 164.1,-77.23 155.16,-82.91 160.65,-87.24"/>
</a>
</g>
</g>
<!-- Node6&#45;&gt;Node3 -->
<g id="edge7_Node000006_Node000003" class="edge">
<title>Node6&#45;&gt;Node3</title>
<g id="a_edge7_Node000006_Node000003"><a xlink:title=" ">
<path fill="none" stroke="#63b8ff" d="M155.18,-55.59C140.99,-47.36 120.15,-35.26 103.76,-25.74"/>
<polygon fill="#63b8ff" stroke="#63b8ff" points="106.11,-22.47 95.7,-20.48 102.59,-28.53 106.11,-22.47"/>
</a>
</g>
</g>
<!-- Node6&#45;&gt;Node4 -->
<g id="edge6_Node000006_Node000004" class="edge">
<title>Node6&#45;&gt;Node4</title>
<g id="a_edge6_Node000006_Node000004"><a xlink:title=" ">
<path fill="none" stroke="#63b8ff" d="M168.76,-55.59C166.87,-48.78 164.24,-39.32 161.89,-30.86"/>
<polygon fill="#63b8ff" stroke="#63b8ff" points="165.01,-30 158.96,-21.3 158.26,-31.87 165.01,-30"/>
</a>
</g>
</g>
<!-- Node6&#45;&gt;Node5 -->
<g id="edge8_Node000006_Node000005" class="edge">
<title>Node6&#45;&gt;Node5</title>
<g id="a_edge8_Node000006_Node000005"><a xlink:title=" ">
<path fill="none" stroke="#63b8ff" d="M183.05,-55.59C192.75,-47.77 206.78,-36.46 218.28,-27.19"/>
<polygon fill="#63b8ff" stroke="#63b8ff" points="220.25,-29.3 225.84,-20.3 215.86,-23.85 220.25,-29.3"/>
</a>
</g>
</g>
</g>
</svg>
</svg>

<style type='text/css'>
<![CDATA[
[data-mouse-over-selected='false'] { opacity: 0.7; }
[data-mouse-over-selected='true']  { opacity: 1.0; }
]]>
</style>
<script type="application/ecmascript"><![CDATA[
document.addEventListener('DOMContentLoaded', (event) => {
  highlightEdges();
  highlightAdjacentNodes();
});
]]></script>
</svg>
