<?xml version="1.0" encoding="UTF-8" standalone="no"?>
<!DOCTYPE svg PUBLIC "-//W3C//DTD SVG 1.1//EN"
 "http://www.w3.org/Graphics/SVG/1.1/DTD/svg11.dtd">
<!-- Generated by graphviz version 8.1.0 (20230707.0739)
 -->
<!-- Title: D:/Firmware/MCU16ASMPS_TestEnvironment/_deployment/dspic33ch&#45;power&#45;totem&#45;pole&#45;demonstration&#45;application&#45;single&#45;phase/dspic33ch_totem_pole_single_phase_primary_IL.X/mcc_generated_files/spi_client/src/spi1.c Pages: 1 -->
<svg width="228pt" height="268pt"
 viewBox="0.00 0.00 228.38 268.00" xmlns="http://www.w3.org/2000/svg" xmlns:xlink="http://www.w3.org/1999/xlink">

<svg id="main" version="1.1" xmlns="http://www.w3.org/2000/svg" xmlns:xlink="http://www.w3.org/1999/xlink" xml:space="preserve" onload="init(evt)">
<style type="text/css"><![CDATA[
.node, .edge {opacity: 0.7;}
.node.selected, .edge.selected {opacity: 1;}
.edge:hover path { stroke: red; }
.edge:hover polygon { stroke: red; fill: red; }
]]></style>
<script type="application/ecmascript" xlink:href="svg.min.js"/>
<svg id="graph" class="graph">
<g id="graph0" class="graph" transform="scale(1 1) rotate(0) translate(4 264)">
<title>D:/Firmware/MCU16ASMPS_TestEnvironment/_deployment/dspic33ch&#45;power&#45;totem&#45;pole&#45;demonstration&#45;application&#45;single&#45;phase/dspic33ch_totem_pole_single_phase_primary_IL.X/mcc_generated_files/spi_client/src/spi1.c</title>
<!-- Node1 -->
<g id="Node000001" class="node">
<title>Node1</title>
<g id="a_Node000001"><a xlink:title="This is the generated driver source file for SPI1 driver.">
<polygon fill="#999999" stroke="#666666" points="186.38,-260 9.88,-260 9.88,-168 186.38,-168 186.38,-260"/>
<text text-anchor="start" x="17.88" y="-246.5" font-family="Helvetica,sans-Serif" font-size="10.00">D:/Firmware/MCU16ASMPS</text>
<text text-anchor="start" x="17.88" y="-234.5" font-family="Helvetica,sans-Serif" font-size="10.00">_TestEnvironment/_deployment</text>
<text text-anchor="start" x="17.88" y="-222.5" font-family="Helvetica,sans-Serif" font-size="10.00">/dspic33ch&#45;power&#45;totem&#45;pole</text>
<text text-anchor="start" x="17.88" y="-210.5" font-family="Helvetica,sans-Serif" font-size="10.00">&#45;demonstration&#45;application&#45;single</text>
<text text-anchor="start" x="17.88" y="-198.5" font-family="Helvetica,sans-Serif" font-size="10.00">&#45;phase/dspic33ch_totem_pole_single</text>
<text text-anchor="start" x="17.88" y="-186.5" font-family="Helvetica,sans-Serif" font-size="10.00">_phase_primary_IL.X/mcc_generated</text>
<text text-anchor="middle" x="98.12" y="-174.5" font-family="Helvetica,sans-Serif" font-size="10.00">_files/spi_client/src/spi1.c</text>
</a>
</g>
</g>
<!-- Node2 -->
<g id="Node000002" class="node">
<title>Node2</title>
<g id="a_Node000002"><a xlink:title=" ">
<polygon fill="#e0e0e0" stroke="#999999" points="85.5,-132 50.75,-132 50.75,-112 85.5,-112 85.5,-132"/>
<text text-anchor="middle" x="68.12" y="-118.5" font-family="Helvetica,sans-Serif" font-size="10.00">xc.h</text>
</a>
</g>
</g>
<!-- Node1&#45;&gt;Node2 -->
<g id="edge1_Node000001_Node000002" class="edge">
<title>Node1&#45;&gt;Node2</title>
<g id="a_edge1_Node000001_Node000002"><a xlink:title=" ">
<path fill="none" stroke="#63b8ff" d="M83.04,-167.74C80.09,-158.89 77.14,-150.05 74.66,-142.6"/>
<polygon fill="#63b8ff" stroke="#63b8ff" points="77.68,-141.61 71.2,-133.23 71.04,-143.82 77.68,-141.61"/>
</a>
</g>
</g>
<!-- Node3 -->
<g id="Node000003" class="node">
<title>Node3</title>
<g id="a_Node000003"><a xlink:href="a00134.html" target="_top" xlink:title="This is the generated driver header file for the SPI1 driver.">
<polygon fill="white" stroke="#666666" points="154.75,-132 103.5,-132 103.5,-112 154.75,-112 154.75,-132"/>
<text text-anchor="middle" x="129.12" y="-118.5" font-family="Helvetica,sans-Serif" font-size="10.00">../spi1.h</text>
</a>
</g>
</g>
<!-- Node1&#45;&gt;Node3 -->
<g id="edge2_Node000001_Node000003" class="edge">
<title>Node1&#45;&gt;Node3</title>
<g id="a_edge2_Node000001_Node000003"><a xlink:title=" ">
<path fill="none" stroke="#63b8ff" d="M113.72,-167.74C116.76,-158.89 119.81,-150.05 122.37,-142.6"/>
<polygon fill="#63b8ff" stroke="#63b8ff" points="126,-143.82 125.95,-133.23 119.38,-141.54 126,-143.82"/>
</a>
</g>
</g>
<!-- Node4 -->
<g id="Node000004" class="node">
<title>Node4</title>
<g id="a_Node000004"><a xlink:title=" ">
<polygon fill="#e0e0e0" stroke="#999999" points="48.25,-20 0,-20 0,0 48.25,0 48.25,-20"/>
<text text-anchor="middle" x="24.12" y="-6.5" font-family="Helvetica,sans-Serif" font-size="10.00">stdint.h</text>
</a>
</g>
</g>
<!-- Node3&#45;&gt;Node4 -->
<g id="edge3_Node000003_Node000004" class="edge">
<title>Node3&#45;&gt;Node4</title>
<g id="a_edge3_Node000003_Node000004"><a xlink:title=" ">
<path fill="none" stroke="#63b8ff" d="M103.46,-113.42C75.73,-104.65 34.25,-89.66 25.12,-76 16.4,-62.93 16.87,-44.86 19.11,-31.08"/>
<polygon fill="#63b8ff" stroke="#63b8ff" points="22.74,-31.82 21.35,-21.32 15.89,-30.39 22.74,-31.82"/>
</a>
</g>
</g>
<!-- Node5 -->
<g id="Node000005" class="node">
<title>Node5</title>
<g id="a_Node000005"><a xlink:title=" ">
<polygon fill="#e0e0e0" stroke="#999999" points="128,-20 72.25,-20 72.25,0 128,0 128,-20"/>
<text text-anchor="middle" x="100.12" y="-6.5" font-family="Helvetica,sans-Serif" font-size="10.00">stdbool.h</text>
</a>
</g>
</g>
<!-- Node3&#45;&gt;Node5 -->
<g id="edge4_Node000003_Node000005" class="edge">
<title>Node3&#45;&gt;Node5</title>
<g id="a_edge4_Node000003_Node000005"><a xlink:title=" ">
<path fill="none" stroke="#63b8ff" d="M136.75,-111.52C146.12,-98.67 159.75,-75.11 151.12,-56 145.77,-44.13 135.57,-34.14 125.69,-26.61"/>
<polygon fill="#63b8ff" stroke="#63b8ff" points="128.05,-23.29 117.85,-20.4 124.02,-29.02 128.05,-23.29"/>
</a>
</g>
</g>
<!-- Node6 -->
<g id="Node000006" class="node">
<title>Node6</title>
<g id="a_Node000006"><a xlink:title=" ">
<polygon fill="#e0e0e0" stroke="#999999" points="220.38,-20 169.88,-20 169.88,0 220.38,0 220.38,-20"/>
<text text-anchor="middle" x="195.12" y="-6.5" font-family="Helvetica,sans-Serif" font-size="10.00">stddef.h</text>
</a>
</g>
</g>
<!-- Node3&#45;&gt;Node6 -->
<g id="edge5_Node000003_Node000006" class="edge">
<title>Node3&#45;&gt;Node6</title>
<g id="a_edge5_Node000003_Node000006"><a xlink:title=" ">
<path fill="none" stroke="#63b8ff" d="M138.16,-111.57C146.21,-102.84 157.93,-89.25 166.12,-76 175.16,-61.39 182.94,-43.47 188.16,-30.15"/>
<polygon fill="#63b8ff" stroke="#63b8ff" points="191.65,-31.81 191.91,-21.22 185.1,-29.33 191.65,-31.81"/>
</a>
</g>
</g>
<!-- Node7 -->
<g id="Node000007" class="node">
<title>Node7</title>
<g id="a_Node000007"><a xlink:href="a00137_source.html" target="_top" xlink:title=" ">
<polygon fill="white" stroke="#666666" points="141.88,-76 34.38,-76 34.38,-56 141.88,-56 141.88,-76"/>
<text text-anchor="middle" x="88.12" y="-62.5" font-family="Helvetica,sans-Serif" font-size="10.00">spi_client_interface.h</text>
</a>
</g>
</g>
<!-- Node3&#45;&gt;Node7 -->
<g id="edge6_Node000003_Node000007" class="edge">
<title>Node3&#45;&gt;Node7</title>
<g id="a_edge6_Node000003_Node000007"><a xlink:title=" ">
<path fill="none" stroke="#63b8ff" d="M121.98,-111.59C116.4,-104.24 108.47,-93.8 101.69,-84.87"/>
<polygon fill="#63b8ff" stroke="#63b8ff" points="104.02,-83.15 95.18,-77.3 98.44,-87.38 104.02,-83.15"/>
</a>
</g>
</g>
<!-- Node7&#45;&gt;Node4 -->
<g id="edge7_Node000007_Node000004" class="edge">
<title>Node7&#45;&gt;Node4</title>
<g id="a_edge7_Node000007_Node000004"><a xlink:title=" ">
<path fill="none" stroke="#63b8ff" d="M76.98,-55.59C67.71,-47.77 54.31,-36.46 43.32,-27.19"/>
<polygon fill="#63b8ff" stroke="#63b8ff" points="46.05,-24.07 36.15,-20.3 41.53,-29.42 46.05,-24.07"/>
</a>
</g>
</g>
<!-- Node7&#45;&gt;Node5 -->
<g id="edge8_Node000007_Node000005" class="edge">
<title>Node7&#45;&gt;Node5</title>
<g id="a_edge8_Node000007_Node000005"><a xlink:title=" ">
<path fill="none" stroke="#63b8ff" d="M90.22,-55.59C91.73,-48.78 93.83,-39.32 95.71,-30.86"/>
<polygon fill="#63b8ff" stroke="#63b8ff" points="99.31,-31.82 98.06,-21.3 92.47,-30.3 99.31,-31.82"/>
</a>
</g>
</g>
<!-- Node7&#45;&gt;Node6 -->
<g id="edge9_Node000007_Node000006" class="edge">
<title>Node7&#45;&gt;Node6</title>
<g id="a_edge9_Node000007_Node000006"><a xlink:title=" ">
<path fill="none" stroke="#63b8ff" d="M106.76,-55.59C123.31,-47.24 147.73,-34.92 166.71,-25.34"/>
<polygon fill="#63b8ff" stroke="#63b8ff" points="167.99,-28.11 175.34,-20.48 164.84,-21.86 167.99,-28.11"/>
</a>
</g>
</g>
</g>
</svg>
</svg>

<style type='text/css'>
<![CDATA[
[data-mouse-over-selected='false'] { opacity: 0.7; }
[data-mouse-over-selected='true']  { opacity: 1.0; }
]]>
</style>
<script type="application/ecmascript"><![CDATA[
document.addEventListener('DOMContentLoaded', (event) => {
  highlightEdges();
  highlightAdjacentNodes();
});
]]></script>
</svg>
