<?xml version="1.0" encoding="UTF-8" standalone="no"?>
<!DOCTYPE svg PUBLIC "-//W3C//DTD SVG 1.1//EN"
 "http://www.w3.org/Graphics/SVG/1.1/DTD/svg11.dtd">
<!-- Generated by graphviz version 8.1.0 (20230707.0739)
 -->
<!-- Title: D:/Firmware/MCU16ASMPS_TestEnvironment/_deployment/dspic33ch&#45;power&#45;totem&#45;pole&#45;demonstration&#45;application&#45;single&#45;phase/dspic33ch_totem_pole_single_phase_primary_IL.X/mcc_generated_files/dma/src/dma.c Pages: 1 -->
<svg width="312pt" height="268pt"
 viewBox="0.00 0.00 311.88 268.00" xmlns="http://www.w3.org/2000/svg" xmlns:xlink="http://www.w3.org/1999/xlink">
<g id="graph0" class="graph" transform="scale(1 1) rotate(0) translate(4 264)">
<title>D:/Firmware/MCU16ASMPS_TestEnvironment/_deployment/dspic33ch&#45;power&#45;totem&#45;pole&#45;demonstration&#45;application&#45;single&#45;phase/dspic33ch_totem_pole_single_phase_primary_IL.X/mcc_generated_files/dma/src/dma.c</title>
<!-- Node1 -->
<g id="Node000001" class="node">
<title>Node1</title>
<g id="a_Node000001"><a xlink:title="This is the generated driver source file for DMA driver.">
<polygon fill="#999999" stroke="#666666" points="240.38,-260 63.88,-260 63.88,-168 240.38,-168 240.38,-260"/>
<text text-anchor="start" x="71.88" y="-246.5" font-family="Helvetica,sans-Serif" font-size="10.00">D:/Firmware/MCU16ASMPS</text>
<text text-anchor="start" x="71.88" y="-234.5" font-family="Helvetica,sans-Serif" font-size="10.00">_TestEnvironment/_deployment</text>
<text text-anchor="start" x="71.88" y="-222.5" font-family="Helvetica,sans-Serif" font-size="10.00">/dspic33ch&#45;power&#45;totem&#45;pole</text>
<text text-anchor="start" x="71.88" y="-210.5" font-family="Helvetica,sans-Serif" font-size="10.00">&#45;demonstration&#45;application&#45;single</text>
<text text-anchor="start" x="71.88" y="-198.5" font-family="Helvetica,sans-Serif" font-size="10.00">&#45;phase/dspic33ch_totem_pole_single</text>
<text text-anchor="start" x="71.88" y="-186.5" font-family="Helvetica,sans-Serif" font-size="10.00">_phase_primary_IL.X/mcc_generated</text>
<text text-anchor="middle" x="152.12" y="-174.5" font-family="Helvetica,sans-Serif" font-size="10.00">_files/dma/src/dma.c</text>
</a>
</g>
</g>
<!-- Node2 -->
<g id="Node000002" class="node">
<title>Node2</title>
<g id="a_Node000002"><a xlink:title=" ">
<polygon fill="#e0e0e0" stroke="#999999" points="108.38,-132 57.88,-132 57.88,-112 108.38,-112 108.38,-132"/>
<text text-anchor="middle" x="83.12" y="-118.5" font-family="Helvetica,sans-Serif" font-size="10.00">stddef.h</text>
</a>
</g>
</g>
<!-- Node1&#45;&gt;Node2 -->
<g id="edge1_Node000001_Node000002" class="edge">
<title>Node1&#45;&gt;Node2</title>
<g id="a_edge1_Node000001_Node000002"><a xlink:title=" ">
<path fill="none" stroke="#63b8ff" d="M117.42,-167.74C110.07,-158.15 102.74,-148.58 96.75,-140.77"/>
<polygon fill="#63b8ff" stroke="#63b8ff" points="99.06,-139.03 90.2,-133.23 93.5,-143.29 99.06,-139.03"/>
</a>
</g>
</g>
<!-- Node3 -->
<g id="Node000003" class="node">
<title>Node3</title>
<g id="a_Node000003"><a xlink:href="a00107.html" target="_top" xlink:title="This is the generated driver header file for the DMA driver.">
<polygon fill="white" stroke="#666666" points="178.12,-132 126.12,-132 126.12,-112 178.12,-112 178.12,-132"/>
<text text-anchor="middle" x="152.12" y="-118.5" font-family="Helvetica,sans-Serif" font-size="10.00">../dma.h</text>
</a>
</g>
</g>
<!-- Node1&#45;&gt;Node3 -->
<g id="edge2_Node000001_Node000003" class="edge">
<title>Node1&#45;&gt;Node3</title>
<g id="a_edge2_Node000001_Node000003"><a xlink:title=" ">
<path fill="none" stroke="#63b8ff" d="M152.12,-167.74C152.12,-159.1 152.12,-150.48 152.12,-143.14"/>
<polygon fill="#63b8ff" stroke="#63b8ff" points="155.63,-143.23 152.12,-133.23 148.63,-143.23 155.63,-143.23"/>
</a>
</g>
</g>
<!-- Node9 -->
<g id="Node000009" class="node">
<title>Node9</title>
<g id="a_Node000009"><a xlink:href="a00236.html" target="_top" xlink:title="This is the driver header file for DMA driver.">
<polygon fill="white" stroke="#666666" points="303.88,-132 196.38,-132 196.38,-112 303.88,-112 303.88,-132"/>
<text text-anchor="middle" x="250.12" y="-118.5" font-family="Helvetica,sans-Serif" font-size="10.00">driver/dma/drv_dma.h</text>
</a>
</g>
</g>
<!-- Node1&#45;&gt;Node9 -->
<g id="edge11_Node000001_Node000009" class="edge">
<title>Node1&#45;&gt;Node9</title>
<g id="a_edge11_Node000001_Node000009"><a xlink:title=" ">
<path fill="none" stroke="#63b8ff" d="M201.41,-167.74C212.42,-157.62 223.41,-147.53 232.16,-139.5"/>
<polygon fill="#63b8ff" stroke="#63b8ff" points="234.08,-142.57 239.08,-133.23 229.35,-137.41 234.08,-142.57"/>
</a>
</g>
</g>
<!-- Node4 -->
<g id="Node000004" class="node">
<title>Node4</title>
<g id="a_Node000004"><a xlink:title=" ">
<polygon fill="#e0e0e0" stroke="#999999" points="252.5,-76 217.75,-76 217.75,-56 252.5,-56 252.5,-76"/>
<text text-anchor="middle" x="235.12" y="-62.5" font-family="Helvetica,sans-Serif" font-size="10.00">xc.h</text>
</a>
</g>
</g>
<!-- Node3&#45;&gt;Node4 -->
<g id="edge3_Node000003_Node000004" class="edge">
<title>Node3&#45;&gt;Node4</title>
<g id="a_edge3_Node000003_Node000004"><a xlink:title=" ">
<path fill="none" stroke="#63b8ff" d="M166.58,-111.59C179,-103.51 197.15,-91.71 211.65,-82.27"/>
<polygon fill="#63b8ff" stroke="#63b8ff" points="213.08,-84.87 219.55,-76.48 209.26,-79 213.08,-84.87"/>
</a>
</g>
</g>
<!-- Node5 -->
<g id="Node000005" class="node">
<title>Node5</title>
<g id="a_Node000005"><a xlink:title=" ">
<polygon fill="#e0e0e0" stroke="#999999" points="122,-20 66.25,-20 66.25,0 122,0 122,-20"/>
<text text-anchor="middle" x="94.12" y="-6.5" font-family="Helvetica,sans-Serif" font-size="10.00">stdbool.h</text>
</a>
</g>
</g>
<!-- Node3&#45;&gt;Node5 -->
<g id="edge4_Node000003_Node000005" class="edge">
<title>Node3&#45;&gt;Node5</title>
<g id="a_edge4_Node000003_Node000005"><a xlink:title=" ">
<path fill="none" stroke="#63b8ff" d="M150.7,-111.69C148.42,-98.62 143.14,-74.37 133.12,-56 127.6,-45.87 119.48,-36.02 112.07,-28.13"/>
<polygon fill="#63b8ff" stroke="#63b8ff" points="114.99,-26.08 105.48,-21.42 110,-31 114.99,-26.08"/>
</a>
</g>
</g>
<!-- Node6 -->
<g id="Node000006" class="node">
<title>Node6</title>
<g id="a_Node000006"><a xlink:title=" ">
<polygon fill="#e0e0e0" stroke="#999999" points="48.25,-20 0,-20 0,0 48.25,0 48.25,-20"/>
<text text-anchor="middle" x="24.12" y="-6.5" font-family="Helvetica,sans-Serif" font-size="10.00">stdint.h</text>
</a>
</g>
</g>
<!-- Node3&#45;&gt;Node6 -->
<g id="edge5_Node000003_Node000006" class="edge">
<title>Node3&#45;&gt;Node6</title>
<g id="a_edge5_Node000003_Node000006"><a xlink:title=" ">
<path fill="none" stroke="#63b8ff" d="M125.66,-112.99C91.36,-102.36 35.18,-84 29.12,-76 19.51,-63.31 18.95,-44.95 20.4,-30.98"/>
<polygon fill="#63b8ff" stroke="#63b8ff" points="23.95,-31.89 21.93,-21.49 17.02,-30.88 23.95,-31.89"/>
</a>
</g>
</g>
<!-- Node7 -->
<g id="Node000007" class="node">
<title>Node7</title>
<g id="a_Node000007"><a xlink:href="a00113.html" target="_top" xlink:title="This is the generated driver types header file for the DMA driver.">
<polygon fill="white" stroke="#666666" points="226.25,-20 154,-20 154,0 226.25,0 226.25,-20"/>
<text text-anchor="middle" x="190.12" y="-6.5" font-family="Helvetica,sans-Serif" font-size="10.00">dma_types.h</text>
</a>
</g>
</g>
<!-- Node3&#45;&gt;Node7 -->
<g id="edge6_Node000003_Node000007" class="edge">
<title>Node3&#45;&gt;Node7</title>
<g id="a_edge6_Node000003_Node000007"><a xlink:title=" ">
<path fill="none" stroke="#63b8ff" d="M155.36,-111.62C161.53,-93.76 175.09,-54.53 183.33,-30.67"/>
<polygon fill="#63b8ff" stroke="#63b8ff" points="186.94,-31.95 186.89,-21.35 180.32,-29.66 186.94,-31.95"/>
</a>
</g>
</g>
<!-- Node8 -->
<g id="Node000008" class="node">
<title>Node8</title>
<g id="a_Node000008"><a xlink:href="a00110_source.html" target="_top" xlink:title=" ">
<polygon fill="white" stroke="#666666" points="123.62,-76 38.62,-76 38.62,-56 123.62,-56 123.62,-76"/>
<text text-anchor="middle" x="81.12" y="-62.5" font-family="Helvetica,sans-Serif" font-size="10.00">dma_interface.h</text>
</a>
</g>
</g>
<!-- Node3&#45;&gt;Node8 -->
<g id="edge7_Node000003_Node000008" class="edge">
<title>Node3&#45;&gt;Node8</title>
<g id="a_edge7_Node000003_Node000008"><a xlink:title=" ">
<path fill="none" stroke="#63b8ff" d="M139.76,-111.59C129.37,-103.7 114.31,-92.24 102.05,-82.92"/>
<polygon fill="#63b8ff" stroke="#63b8ff" points="104.43,-79.57 94.35,-76.3 100.19,-85.14 104.43,-79.57"/>
</a>
</g>
</g>
<!-- Node8&#45;&gt;Node5 -->
<g id="edge9_Node000008_Node000005" class="edge">
<title>Node8&#45;&gt;Node5</title>
<g id="a_edge9_Node000008_Node000005"><a xlink:title=" ">
<path fill="none" stroke="#63b8ff" d="M83.39,-55.59C85.03,-48.78 87.31,-39.32 89.34,-30.86"/>
<polygon fill="#63b8ff" stroke="#63b8ff" points="92.95,-31.84 91.89,-21.3 86.14,-30.2 92.95,-31.84"/>
</a>
</g>
</g>
<!-- Node8&#45;&gt;Node6 -->
<g id="edge8_Node000008_Node000006" class="edge">
<title>Node8&#45;&gt;Node6</title>
<g id="a_edge8_Node000008_Node000006"><a xlink:title=" ">
<path fill="none" stroke="#63b8ff" d="M71.2,-55.59C63.1,-47.93 51.48,-36.91 41.8,-27.75"/>
<polygon fill="#63b8ff" stroke="#63b8ff" points="44.61,-25.63 34.94,-21.3 39.79,-30.72 44.61,-25.63"/>
</a>
</g>
</g>
<!-- Node8&#45;&gt;Node7 -->
<g id="edge10_Node000008_Node000007" class="edge">
<title>Node8&#45;&gt;Node7</title>
<g id="a_edge10_Node000008_Node000007"><a xlink:title=" ">
<path fill="none" stroke="#63b8ff" d="M100.11,-55.59C116.97,-47.24 141.85,-34.92 161.18,-25.34"/>
<polygon fill="#63b8ff" stroke="#63b8ff" points="162.58,-28.05 169.99,-20.48 159.48,-21.78 162.58,-28.05"/>
</a>
</g>
</g>
<!-- Node9&#45;&gt;Node4 -->
<g id="edge12_Node000009_Node000004" class="edge">
<title>Node9&#45;&gt;Node4</title>
<g id="a_edge12_Node000009_Node000004"><a xlink:title=" ">
<path fill="none" stroke="#63b8ff" d="M247.51,-111.59C245.62,-104.78 242.99,-95.32 240.64,-86.86"/>
<polygon fill="#63b8ff" stroke="#63b8ff" points="243.76,-86 237.71,-77.3 237.01,-87.87 243.76,-86"/>
</a>
</g>
</g>
<!-- Node9&#45;&gt;Node7 -->
<g id="edge13_Node000009_Node000007" class="edge">
<title>Node9&#45;&gt;Node7</title>
<g id="a_edge13_Node000009_Node000007"><a xlink:title=" ">
<path fill="none" stroke="#63b8ff" d="M255.3,-111.55C261.79,-98.3 270.94,-73.85 261.12,-56 253.6,-42.32 239.95,-32.21 226.62,-25.08"/>
<polygon fill="#63b8ff" stroke="#63b8ff" points="228.59,-21.65 218.07,-20.4 225.51,-27.94 228.59,-21.65"/>
</a>
</g>
</g>
</g>
</svg>
