<?xml version="1.0" encoding="UTF-8" standalone="no"?>
<!DOCTYPE svg PUBLIC "-//W3C//DTD SVG 1.1//EN"
 "http://www.w3.org/Graphics/SVG/1.1/DTD/svg11.dtd">
<!-- Generated by graphviz version 8.1.0 (20230707.0739)
 -->
<!-- Title: D:/Firmware/MCU16ASMPS_TestEnvironment/_deployment/dspic33ch&#45;power&#45;totem&#45;pole&#45;demonstration&#45;application&#45;single&#45;phase/dspic33ch_totem_pole_single_phase_primary_IL.X/mcc_generated_files/spi_client/spi1.h Pages: 1 -->
<svg width="228pt" height="212pt"
 viewBox="0.00 0.00 228.38 212.00" xmlns="http://www.w3.org/2000/svg" xmlns:xlink="http://www.w3.org/1999/xlink">
<g id="graph0" class="graph" transform="scale(1 1) rotate(0) translate(4 208)">
<title>D:/Firmware/MCU16ASMPS_TestEnvironment/_deployment/dspic33ch&#45;power&#45;totem&#45;pole&#45;demonstration&#45;application&#45;single&#45;phase/dspic33ch_totem_pole_single_phase_primary_IL.X/mcc_generated_files/spi_client/spi1.h</title>
<!-- Node1 -->
<g id="Node000001" class="node">
<title>Node1</title>
<g id="a_Node000001"><a xlink:title="This is the generated driver header file for the SPI1 driver.">
<polygon fill="#999999" stroke="#666666" points="217.38,-204 40.88,-204 40.88,-112 217.38,-112 217.38,-204"/>
<text text-anchor="start" x="48.88" y="-190.5" font-family="Helvetica,sans-Serif" font-size="10.00">D:/Firmware/MCU16ASMPS</text>
<text text-anchor="start" x="48.88" y="-178.5" font-family="Helvetica,sans-Serif" font-size="10.00">_TestEnvironment/_deployment</text>
<text text-anchor="start" x="48.88" y="-166.5" font-family="Helvetica,sans-Serif" font-size="10.00">/dspic33ch&#45;power&#45;totem&#45;pole</text>
<text text-anchor="start" x="48.88" y="-154.5" font-family="Helvetica,sans-Serif" font-size="10.00">&#45;demonstration&#45;application&#45;single</text>
<text text-anchor="start" x="48.88" y="-142.5" font-family="Helvetica,sans-Serif" font-size="10.00">&#45;phase/dspic33ch_totem_pole_single</text>
<text text-anchor="start" x="48.88" y="-130.5" font-family="Helvetica,sans-Serif" font-size="10.00">_phase_primary_IL.X/mcc_generated</text>
<text text-anchor="middle" x="129.12" y="-118.5" font-family="Helvetica,sans-Serif" font-size="10.00">_files/spi_client/spi1.h</text>
</a>
</g>
</g>
<!-- Node2 -->
<g id="Node000002" class="node">
<title>Node2</title>
<g id="a_Node000002"><a xlink:title=" ">
<polygon fill="#e0e0e0" stroke="#999999" points="48.25,-20 0,-20 0,0 48.25,0 48.25,-20"/>
<text text-anchor="middle" x="24.12" y="-6.5" font-family="Helvetica,sans-Serif" font-size="10.00">stdint.h</text>
</a>
</g>
</g>
<!-- Node1&#45;&gt;Node2 -->
<g id="edge1_Node000001_Node000002" class="edge">
<title>Node1&#45;&gt;Node2</title>
<g id="a_edge1_Node000001_Node000002"><a xlink:title=" ">
<path fill="none" stroke="#63b8ff" d="M53.43,-111.72C42.04,-101.45 31.86,-89.52 25.12,-76 18.2,-62.09 18.43,-44.35 20.13,-30.91"/>
<polygon fill="#63b8ff" stroke="#63b8ff" points="23.68,-31.85 21.85,-21.42 16.78,-30.72 23.68,-31.85"/>
</a>
</g>
</g>
<!-- Node3 -->
<g id="Node000003" class="node">
<title>Node3</title>
<g id="a_Node000003"><a xlink:title=" ">
<polygon fill="#e0e0e0" stroke="#999999" points="128,-20 72.25,-20 72.25,0 128,0 128,-20"/>
<text text-anchor="middle" x="100.12" y="-6.5" font-family="Helvetica,sans-Serif" font-size="10.00">stdbool.h</text>
</a>
</g>
</g>
<!-- Node1&#45;&gt;Node3 -->
<g id="edge2_Node000001_Node000003" class="edge">
<title>Node1&#45;&gt;Node3</title>
<g id="a_edge2_Node000001_Node000003"><a xlink:title=" ">
<path fill="none" stroke="#63b8ff" d="M150.91,-111.72C156.5,-93.83 158.99,-73.42 151.12,-56 145.77,-44.13 135.57,-34.14 125.69,-26.61"/>
<polygon fill="#63b8ff" stroke="#63b8ff" points="128.05,-23.29 117.85,-20.4 124.02,-29.02 128.05,-23.29"/>
</a>
</g>
</g>
<!-- Node4 -->
<g id="Node000004" class="node">
<title>Node4</title>
<g id="a_Node000004"><a xlink:title=" ">
<polygon fill="#e0e0e0" stroke="#999999" points="220.38,-20 169.88,-20 169.88,0 220.38,0 220.38,-20"/>
<text text-anchor="middle" x="195.12" y="-6.5" font-family="Helvetica,sans-Serif" font-size="10.00">stddef.h</text>
</a>
</g>
</g>
<!-- Node1&#45;&gt;Node4 -->
<g id="edge3_Node000001_Node000004" class="edge">
<title>Node1&#45;&gt;Node4</title>
<g id="a_edge3_Node000001_Node000004"><a xlink:title=" ">
<path fill="none" stroke="#63b8ff" d="M150.68,-111.71C156.12,-100.1 161.9,-87.62 167.12,-76 173.99,-60.75 181.47,-43.34 186.97,-30.38"/>
<polygon fill="#63b8ff" stroke="#63b8ff" points="190.56,-31.87 191.23,-21.3 184.11,-29.15 190.56,-31.87"/>
</a>
</g>
</g>
<!-- Node5 -->
<g id="Node000005" class="node">
<title>Node5</title>
<g id="a_Node000005"><a xlink:href="a00137_source.html" target="_top" xlink:title=" ">
<polygon fill="white" stroke="#666666" points="141.88,-76 34.38,-76 34.38,-56 141.88,-56 141.88,-76"/>
<text text-anchor="middle" x="88.12" y="-62.5" font-family="Helvetica,sans-Serif" font-size="10.00">spi_client_interface.h</text>
</a>
</g>
</g>
<!-- Node1&#45;&gt;Node5 -->
<g id="edge4_Node000001_Node000005" class="edge">
<title>Node1&#45;&gt;Node5</title>
<g id="a_edge4_Node000001_Node000005"><a xlink:title=" ">
<path fill="none" stroke="#63b8ff" d="M108.5,-111.74C104.38,-102.68 100.26,-93.63 96.81,-86.07"/>
<polygon fill="#63b8ff" stroke="#63b8ff" points="99.66,-84.87 92.33,-77.23 93.29,-87.78 99.66,-84.87"/>
</a>
</g>
</g>
<!-- Node5&#45;&gt;Node2 -->
<g id="edge5_Node000005_Node000002" class="edge">
<title>Node5&#45;&gt;Node2</title>
<g id="a_edge5_Node000005_Node000002"><a xlink:title=" ">
<path fill="none" stroke="#63b8ff" d="M76.98,-55.59C67.71,-47.77 54.31,-36.46 43.32,-27.19"/>
<polygon fill="#63b8ff" stroke="#63b8ff" points="46.05,-24.07 36.15,-20.3 41.53,-29.42 46.05,-24.07"/>
</a>
</g>
</g>
<!-- Node5&#45;&gt;Node3 -->
<g id="edge6_Node000005_Node000003" class="edge">
<title>Node5&#45;&gt;Node3</title>
<g id="a_edge6_Node000005_Node000003"><a xlink:title=" ">
<path fill="none" stroke="#63b8ff" d="M90.22,-55.59C91.73,-48.78 93.83,-39.32 95.71,-30.86"/>
<polygon fill="#63b8ff" stroke="#63b8ff" points="99.31,-31.82 98.06,-21.3 92.47,-30.3 99.31,-31.82"/>
</a>
</g>
</g>
<!-- Node5&#45;&gt;Node4 -->
<g id="edge7_Node000005_Node000004" class="edge">
<title>Node5&#45;&gt;Node4</title>
<g id="a_edge7_Node000005_Node000004"><a xlink:title=" ">
<path fill="none" stroke="#63b8ff" d="M106.76,-55.59C123.31,-47.24 147.73,-34.92 166.71,-25.34"/>
<polygon fill="#63b8ff" stroke="#63b8ff" points="167.99,-28.11 175.34,-20.48 164.84,-21.86 167.99,-28.11"/>
</a>
</g>
</g>
</g>
</svg>
