<?xml version="1.0" encoding="UTF-8" standalone="no"?>
<!DOCTYPE svg PUBLIC "-//W3C//DTD SVG 1.1//EN"
 "http://www.w3.org/Graphics/SVG/1.1/DTD/svg11.dtd">
<!-- Generated by graphviz version 8.1.0 (20230707.0739)
 -->
<!-- Title: D:/Firmware/MCU16ASMPS_TestEnvironment/_deployment/dspic33ch&#45;power&#45;totem&#45;pole&#45;demonstration&#45;application&#45;single&#45;phase/dspic33ch_totem_pole_single_phase_primary_IL.X/mcc_generated_files/secondary_core/src/sec_core1.c Pages: 1 -->
<svg width="367pt" height="268pt"
 viewBox="0.00 0.00 366.62 268.00" xmlns="http://www.w3.org/2000/svg" xmlns:xlink="http://www.w3.org/1999/xlink">

<svg id="main" version="1.1" xmlns="http://www.w3.org/2000/svg" xmlns:xlink="http://www.w3.org/1999/xlink" xml:space="preserve" onload="init(evt)">
<style type="text/css"><![CDATA[
.node, .edge {opacity: 0.7;}
.node.selected, .edge.selected {opacity: 1;}
.edge:hover path { stroke: red; }
.edge:hover polygon { stroke: red; fill: red; }
]]></style>
<script type="application/ecmascript" xlink:href="svg.min.js"/>
<svg id="graph" class="graph">
<g id="graph0" class="graph" transform="scale(1 1) rotate(0) translate(4 264)">
<title>D:/Firmware/MCU16ASMPS_TestEnvironment/_deployment/dspic33ch&#45;power&#45;totem&#45;pole&#45;demonstration&#45;application&#45;single&#45;phase/dspic33ch_totem_pole_single_phase_primary_IL.X/mcc_generated_files/secondary_core/src/sec_core1.c</title>
<!-- Node1 -->
<g id="Node000001" class="node">
<title>Node1</title>
<g id="a_Node000001"><a xlink:title="This is the generated driver source file for SEC_CORE1 driver.">
<polygon fill="#999999" stroke="#666666" points="225.88,-260 42.62,-260 42.62,-168 225.88,-168 225.88,-260"/>
<text text-anchor="start" x="50.62" y="-246.5" font-family="Helvetica,sans-Serif" font-size="10.00">D:/Firmware/MCU16ASMPS</text>
<text text-anchor="start" x="50.62" y="-234.5" font-family="Helvetica,sans-Serif" font-size="10.00">_TestEnvironment/_deployment</text>
<text text-anchor="start" x="50.62" y="-222.5" font-family="Helvetica,sans-Serif" font-size="10.00">/dspic33ch&#45;power&#45;totem&#45;pole</text>
<text text-anchor="start" x="50.62" y="-210.5" font-family="Helvetica,sans-Serif" font-size="10.00">&#45;demonstration&#45;application&#45;single</text>
<text text-anchor="start" x="50.62" y="-198.5" font-family="Helvetica,sans-Serif" font-size="10.00">&#45;phase/dspic33ch_totem_pole_single</text>
<text text-anchor="start" x="50.62" y="-186.5" font-family="Helvetica,sans-Serif" font-size="10.00">_phase_primary_IL.X/mcc_generated</text>
<text text-anchor="middle" x="134.25" y="-174.5" font-family="Helvetica,sans-Serif" font-size="10.00">_files/secondary_core/src/sec_core1.c</text>
</a>
</g>
</g>
<!-- Node2 -->
<g id="Node000002" class="node">
<title>Node2</title>
<g id="a_Node000002"><a xlink:title=" ">
<polygon fill="#e0e0e0" stroke="#999999" points="50.5,-20 0,-20 0,0 50.5,0 50.5,-20"/>
<text text-anchor="middle" x="25.25" y="-6.5" font-family="Helvetica,sans-Serif" font-size="10.00">stddef.h</text>
</a>
</g>
</g>
<!-- Node1&#45;&gt;Node2 -->
<g id="edge1_Node000001_Node000002" class="edge">
<title>Node1&#45;&gt;Node2</title>
<g id="a_edge1_Node000001_Node000002"><a xlink:title=" ">
<path fill="none" stroke="#63b8ff" d="M98.27,-167.58C90.16,-156.29 81.97,-143.99 75.25,-132 56.16,-97.93 40.18,-55.1 31.73,-30.61"/>
<polygon fill="#63b8ff" stroke="#63b8ff" points="34.81,-29.81 28.29,-21.46 28.18,-32.05 34.81,-29.81"/>
</a>
</g>
</g>
<!-- Node3 -->
<g id="Node000003" class="node">
<title>Node3</title>
<g id="a_Node000003"><a xlink:title=" ">
<polygon fill="#e0e0e0" stroke="#999999" points="334.88,-132 277.62,-132 277.62,-112 334.88,-112 334.88,-132"/>
<text text-anchor="middle" x="306.25" y="-118.5" font-family="Helvetica,sans-Serif" font-size="10.00">libpic30.h</text>
</a>
</g>
</g>
<!-- Node1&#45;&gt;Node3 -->
<g id="edge2_Node000001_Node000003" class="edge">
<title>Node1&#45;&gt;Node3</title>
<g id="a_edge2_Node000001_Node000003"><a xlink:title=" ">
<path fill="none" stroke="#63b8ff" d="M221.01,-167.6C241.96,-156.64 262.86,-145.7 278.72,-137.41"/>
<polygon fill="#63b8ff" stroke="#63b8ff" points="280.13,-140.1 287.36,-132.36 276.88,-133.89 280.13,-140.1"/>
</a>
</g>
</g>
<!-- Node4 -->
<g id="Node000004" class="node">
<title>Node4</title>
<g id="a_Node000004"><a xlink:href="a00128.html" target="_top" xlink:title="This is the generated driver types header file for the SEC_CORE driver.">
<polygon fill="white" stroke="#666666" points="184.38,-20 82.12,-20 82.12,0 184.38,0 184.38,-20"/>
<text text-anchor="middle" x="133.25" y="-6.5" font-family="Helvetica,sans-Serif" font-size="10.00">../sec_core_types.h</text>
</a>
</g>
</g>
<!-- Node1&#45;&gt;Node4 -->
<g id="edge3_Node000001_Node000004" class="edge">
<title>Node1&#45;&gt;Node4</title>
<g id="a_edge3_Node000001_Node000004"><a xlink:title=" ">
<path fill="none" stroke="#63b8ff" d="M105.61,-167.73C90.99,-141.93 74.74,-108.37 67.25,-76 65.25,-67.34 63.1,-63.86 67.25,-56 74.27,-42.71 87.18,-32.61 99.73,-25.38"/>
<polygon fill="#63b8ff" stroke="#63b8ff" points="100.94,-28.17 108.15,-20.4 97.67,-21.98 100.94,-28.17"/>
</a>
</g>
</g>
<!-- Node5 -->
<g id="Node000005" class="node">
<title>Node5</title>
<g id="a_Node000005"><a xlink:href="a00125_source.html" target="_top" xlink:title=" ">
<polygon fill="white" stroke="#666666" points="191.75,-76 76.75,-76 76.75,-56 191.75,-56 191.75,-76"/>
<text text-anchor="middle" x="134.25" y="-62.5" font-family="Helvetica,sans-Serif" font-size="10.00">../sec_core_interface.h</text>
</a>
</g>
</g>
<!-- Node1&#45;&gt;Node5 -->
<g id="edge4_Node000001_Node000005" class="edge">
<title>Node1&#45;&gt;Node5</title>
<g id="a_edge4_Node000001_Node000005"><a xlink:title=" ">
<path fill="none" stroke="#63b8ff" d="M134.25,-167.61C134.25,-140.72 134.25,-107.98 134.25,-87.31"/>
<polygon fill="#63b8ff" stroke="#63b8ff" points="137.75,-87.41 134.25,-77.41 130.75,-87.41 137.75,-87.41"/>
</a>
</g>
</g>
<!-- Node8 -->
<g id="Node000008" class="node">
<title>Node8</title>
<g id="a_Node000008"><a xlink:href="a00122.html" target="_top" xlink:title="This is the generated driver header file for the SEC_CORE1 driver.">
<polygon fill="white" stroke="#666666" points="259.38,-132 181.12,-132 181.12,-112 259.38,-112 259.38,-132"/>
<text text-anchor="middle" x="220.25" y="-118.5" font-family="Helvetica,sans-Serif" font-size="10.00">../sec_core1.h</text>
</a>
</g>
</g>
<!-- Node1&#45;&gt;Node8 -->
<g id="edge9_Node000001_Node000008" class="edge">
<title>Node1&#45;&gt;Node8</title>
<g id="a_edge9_Node000001_Node000008"><a xlink:title=" ">
<path fill="none" stroke="#63b8ff" d="M177.5,-167.74C186.96,-157.84 196.41,-147.95 204,-140"/>
<polygon fill="#63b8ff" stroke="#63b8ff" points="206.06,-142.87 210.43,-133.23 201,-138.04 206.06,-142.87"/>
</a>
</g>
</g>
<!-- Node5&#45;&gt;Node2 -->
<g id="edge5_Node000005_Node000002" class="edge">
<title>Node5&#45;&gt;Node2</title>
<g id="a_edge5_Node000005_Node000002"><a xlink:title=" ">
<path fill="none" stroke="#63b8ff" d="M115.26,-55.59C98.41,-47.24 73.53,-34.92 54.19,-25.34"/>
<polygon fill="#63b8ff" stroke="#63b8ff" points="55.9,-21.78 45.38,-20.48 52.79,-28.05 55.9,-21.78"/>
</a>
</g>
</g>
<!-- Node5&#45;&gt;Node4 -->
<g id="edge8_Node000005_Node000004" class="edge">
<title>Node5&#45;&gt;Node4</title>
<g id="a_edge8_Node000005_Node000004"><a xlink:title=" ">
<path fill="none" stroke="#63b8ff" d="M134.08,-55.59C133.95,-48.86 133.78,-39.53 133.62,-31.15"/>
<polygon fill="#63b8ff" stroke="#63b8ff" points="137.11,-31.23 133.42,-21.3 130.11,-31.36 137.11,-31.23"/>
</a>
</g>
</g>
<!-- Node6 -->
<g id="Node000006" class="node">
<title>Node6</title>
<g id="a_Node000006"><a xlink:title=" ">
<polygon fill="#e0e0e0" stroke="#999999" points="250.38,-20 202.12,-20 202.12,0 250.38,0 250.38,-20"/>
<text text-anchor="middle" x="226.25" y="-6.5" font-family="Helvetica,sans-Serif" font-size="10.00">stdint.h</text>
</a>
</g>
</g>
<!-- Node5&#45;&gt;Node6 -->
<g id="edge6_Node000005_Node000006" class="edge">
<title>Node5&#45;&gt;Node6</title>
<g id="a_edge6_Node000005_Node000006"><a xlink:title=" ">
<path fill="none" stroke="#63b8ff" d="M150.28,-55.59C164.17,-47.44 184.54,-35.48 200.69,-26"/>
<polygon fill="#63b8ff" stroke="#63b8ff" points="202.25,-28.56 209.1,-20.48 198.7,-22.52 202.25,-28.56"/>
</a>
</g>
</g>
<!-- Node7 -->
<g id="Node000007" class="node">
<title>Node7</title>
<g id="a_Node000007"><a xlink:title=" ">
<polygon fill="#e0e0e0" stroke="#999999" points="324.12,-20 268.38,-20 268.38,0 324.12,0 324.12,-20"/>
<text text-anchor="middle" x="296.25" y="-6.5" font-family="Helvetica,sans-Serif" font-size="10.00">stdbool.h</text>
</a>
</g>
</g>
<!-- Node5&#45;&gt;Node7 -->
<g id="edge7_Node000005_Node000007" class="edge">
<title>Node5&#45;&gt;Node7</title>
<g id="a_edge7_Node000005_Node000007"><a xlink:title=" ">
<path fill="none" stroke="#63b8ff" d="M162.47,-55.59C188.87,-46.79 228.52,-33.58 257.81,-23.81"/>
<polygon fill="#63b8ff" stroke="#63b8ff" points="258.7,-26.87 267.08,-20.39 256.49,-20.23 258.7,-26.87"/>
</a>
</g>
</g>
<!-- Node8&#45;&gt;Node4 -->
<g id="edge13_Node000008_Node000004" class="edge">
<title>Node8&#45;&gt;Node4</title>
<g id="a_edge13_Node000008_Node000004"><a xlink:title=" ">
<path fill="none" stroke="#63b8ff" d="M219.36,-111.73C217.66,-98.26 212.92,-73.06 200.25,-56 190.86,-43.36 176.81,-33.15 163.99,-25.67"/>
<polygon fill="#63b8ff" stroke="#63b8ff" points="165.98,-22.22 155.53,-20.48 162.62,-28.36 165.98,-22.22"/>
</a>
</g>
</g>
<!-- Node8&#45;&gt;Node5 -->
<g id="edge14_Node000008_Node000005" class="edge">
<title>Node8&#45;&gt;Node5</title>
<g id="a_edge14_Node000008_Node000005"><a xlink:title=" ">
<path fill="none" stroke="#63b8ff" d="M205.27,-111.59C192.4,-103.51 173.6,-91.71 158.58,-82.27"/>
<polygon fill="#63b8ff" stroke="#63b8ff" points="160.68,-78.83 150.35,-76.48 156.95,-84.76 160.68,-78.83"/>
</a>
</g>
</g>
<!-- Node8&#45;&gt;Node6 -->
<g id="edge11_Node000008_Node000006" class="edge">
<title>Node8&#45;&gt;Node6</title>
<g id="a_edge11_Node000008_Node000006"><a xlink:title=" ">
<path fill="none" stroke="#63b8ff" d="M224.11,-111.54C227.55,-102.57 232.33,-88.62 234.25,-76 236.55,-60.85 234.21,-43.64 231.48,-30.74"/>
<polygon fill="#63b8ff" stroke="#63b8ff" points="234.71,-30.19 228.99,-21.28 227.9,-31.82 234.71,-30.19"/>
</a>
</g>
</g>
<!-- Node8&#45;&gt;Node7 -->
<g id="edge12_Node000008_Node000007" class="edge">
<title>Node8&#45;&gt;Node7</title>
<g id="a_edge12_Node000008_Node000007"><a xlink:title=" ">
<path fill="none" stroke="#63b8ff" d="M226.73,-111.62C239.29,-93.44 267.17,-53.09 283.55,-29.38"/>
<polygon fill="#63b8ff" stroke="#63b8ff" points="286.98,-31.57 289.79,-21.35 281.22,-27.59 286.98,-31.57"/>
</a>
</g>
</g>
<!-- Node9 -->
<g id="Node000009" class="node">
<title>Node9</title>
<g id="a_Node000009"><a xlink:title=" ">
<polygon fill="#e0e0e0" stroke="#999999" points="358.62,-76 323.88,-76 323.88,-56 358.62,-56 358.62,-76"/>
<text text-anchor="middle" x="341.25" y="-62.5" font-family="Helvetica,sans-Serif" font-size="10.00">xc.h</text>
</a>
</g>
</g>
<!-- Node8&#45;&gt;Node9 -->
<g id="edge10_Node000008_Node000009" class="edge">
<title>Node8&#45;&gt;Node9</title>
<g id="a_edge10_Node000008_Node000009"><a xlink:title=" ">
<path fill="none" stroke="#63b8ff" d="M241.33,-111.59C261.34,-102.66 291.56,-89.18 313.52,-79.38"/>
<polygon fill="#63b8ff" stroke="#63b8ff" points="314.85,-82.17 322.56,-74.9 312,-75.77 314.85,-82.17"/>
</a>
</g>
</g>
</g>
</svg>
</svg>

<style type='text/css'>
<![CDATA[
[data-mouse-over-selected='false'] { opacity: 0.7; }
[data-mouse-over-selected='true']  { opacity: 1.0; }
]]>
</style>
<script type="application/ecmascript"><![CDATA[
document.addEventListener('DOMContentLoaded', (event) => {
  highlightEdges();
  highlightAdjacentNodes();
});
]]></script>
</svg>
