<?xml version="1.0" encoding="UTF-8" standalone="no"?>
<!DOCTYPE svg PUBLIC "-//W3C//DTD SVG 1.1//EN"
 "http://www.w3.org/Graphics/SVG/1.1/DTD/svg11.dtd">
<!-- Generated by graphviz version 8.1.0 (20230707.0739)
 -->
<!-- Title: DMA_Channel_updateStatusAndSendData Pages: 1 -->
<svg width="512pt" height="40pt"
 viewBox="0.00 0.00 512.00 40.00" xmlns="http://www.w3.org/2000/svg" xmlns:xlink="http://www.w3.org/1999/xlink">
<g id="graph0" class="graph" transform="scale(1 1) rotate(0) translate(4 36)">
<title>DMA_Channel_updateStatusAndSendData</title>
<!-- Node1 -->
<g id="Node000001" class="node">
<title>Node1</title>
<g id="a_Node000001"><a xlink:title=" ">
<polygon fill="#999999" stroke="#666666" points="141.25,-32 0,-32 0,0 141.25,0 141.25,-32"/>
<text text-anchor="start" x="8" y="-18.5" font-family="Helvetica,sans-Serif" font-size="10.00">DMA_Channel_updateStatus</text>
<text text-anchor="middle" x="70.62" y="-6.5" font-family="Helvetica,sans-Serif" font-size="10.00">AndSendData</text>
</a>
</g>
</g>
<!-- Node2 -->
<g id="Node000002" class="node">
<title>Node2</title>
<g id="a_Node000002"><a xlink:href="a00415.html#gab313dfcda98b03477bba5f3812dbb3cc" target="_top" xlink:title="This routine writes data to mailbox.">
<polygon fill="white" stroke="#666666" points="316.25,-26 177.25,-26 177.25,-6 316.25,-6 316.25,-26"/>
<text text-anchor="middle" x="246.75" y="-12.5" font-family="Helvetica,sans-Serif" font-size="10.00">SEC_CORE1_ProtocolWrite</text>
</a>
</g>
</g>
<!-- Node1&#45;&gt;Node2 -->
<g id="edge1_Node000001_Node000002" class="edge">
<title>Node1&#45;&gt;Node2</title>
<g id="a_edge1_Node000001_Node000002"><a xlink:title=" ">
<path fill="none" stroke="#63b8ff" d="M141.7,-16C149.69,-16 157.88,-16 165.98,-16"/>
<polygon fill="#63b8ff" stroke="#63b8ff" points="165.96,-19.5 175.96,-16 165.96,-12.5 165.96,-19.5"/>
</a>
</g>
</g>
<!-- Node3 -->
<g id="Node000003" class="node">
<title>Node3</title>
<g id="a_Node000003"><a xlink:href="a00415.html#ga7048b9c95d3c78e856b4af93f8bac646" target="_top" xlink:title="This inline function checks whether mailbox is empty. Returns true if Protocol is empty indicating ma...">
<polygon fill="white" stroke="#666666" points="504,-26 352.25,-26 352.25,-6 504,-6 504,-26"/>
<text text-anchor="middle" x="428.12" y="-12.5" font-family="Helvetica,sans-Serif" font-size="10.00">SEC_CORE1_ProtocolIsEmpty</text>
</a>
</g>
</g>
<!-- Node2&#45;&gt;Node3 -->
<g id="edge2_Node000002_Node000003" class="edge">
<title>Node2&#45;&gt;Node3</title>
<g id="a_edge2_Node000002_Node000003"><a xlink:title=" ">
<path fill="none" stroke="#63b8ff" d="M316.59,-16C324.63,-16 332.9,-16 341.13,-16"/>
<polygon fill="#63b8ff" stroke="#63b8ff" points="340.91,-19.5 350.91,-16 340.91,-12.5 340.91,-19.5"/>
</a>
</g>
</g>
</g>
</svg>
