<?xml version="1.0" encoding="UTF-8" standalone="no"?>
<!DOCTYPE svg PUBLIC "-//W3C//DTD SVG 1.1//EN"
 "http://www.w3.org/Graphics/SVG/1.1/DTD/svg11.dtd">
<!-- Generated by graphviz version 8.1.0 (20230707.0739)
 -->
<!-- Title: DMA_Channel_doAcMonitor Pages: 1 -->
<!--zoomable 344 -->

<svg id="main" version="1.1" xmlns="http://www.w3.org/2000/svg" xmlns:xlink="http://www.w3.org/1999/xlink" xml:space="preserve" onload="init(evt)">
<style type="text/css"><![CDATA[
.node, .edge {opacity: 0.7;}
.node.selected, .edge.selected {opacity: 1;}
.edge:hover path { stroke: red; }
.edge:hover polygon { stroke: red; fill: red; }
]]></style>

<defs>
  <circle id="rim" cx="0" cy="0" r="7"/>
  <circle id="rim2" cx="0" cy="0" r="3.5"/>
  <g id="zoomPlus">
    <use xlink:href="#rim" fill="#404040"><set attributeName="fill" to="#808080" begin="zoomplus.mouseover" end="zoomplus.mouseout"/></use>
    <path d="M-4,0h8M0,-4v8" fill="none" stroke="white" stroke-width="1.5" pointer-events="none"/>
  </g>
  <g id="zoomMin">
    <use xlink:href="#rim" fill="#404040"><set attributeName="fill" to="#808080" begin="zoomminus.mouseover" end="zoomminus.mouseout"/></use>
    <path d="M-4,0h8" fill="none" stroke="white" stroke-width="1.5" pointer-events="none"/>
  </g>
  <g id="arrowUp" transform="translate(30 24)">
    <use xlink:href="#rim"/>
    <path pointer-events="none" fill="none" stroke="white" stroke-width="1.5" d="M0,-3.0v7 M-2.5,-0.5L0,-3.0L2.5,-0.5"/>
  </g>
  <g id="arrowRight" transform="rotate(90) translate(36 -43)">
    <use xlink:href="#rim"/>
    <path pointer-events="none" fill="none" stroke="white" stroke-width="1.5" d="M0,-3.0v7 M-2.5,-0.5L0,-3.0L2.5,-0.5"/>
  </g>
  <g id="arrowDown" transform="rotate(180) translate(-30 -48)">
    <use xlink:href="#rim"/>
    <path pointer-events="none" fill="none" stroke="white" stroke-width="1.5" d="M0,-3.0v7 M-2.5,-0.5L0,-3.0L2.5,-0.5"/>
  </g>
  <g id="arrowLeft" transform="rotate(270) translate(-36 17)">
    <use xlink:href="#rim"/>
    <path pointer-events="none" fill="none" stroke="white" stroke-width="1.5" d="M0,-3.0v7 M-2.5,-0.5L0,-3.0L2.5,-0.5"/>
  </g>
  <g id="resetDef">
    <use xlink:href="#rim2" fill="#404040"><set attributeName="fill" to="#808080" begin="reset.mouseover" end="reset.mouseout"/></use>
  </g>
</defs>
<script type="application/ecmascript">
var viewWidth = 741;
var viewHeight = 344;
var sectionId = 'dynsection-1';
</script>
<script type="application/ecmascript" xlink:href="svg.min.js"/>
<svg id="graph" class="graph">
<g id="viewport">
<title>DMA_Channel_doAcMonitor</title>
<!-- Node1 -->
<g id="Node000001" class="node">
<title>Node1</title>
<g id="a_Node000001"><a xlink:title=" ">
<polygon fill="#999999" stroke="#666666" points="138.25,-184 0,-184 0,-164 138.25,-164 138.25,-184"/>
<text text-anchor="middle" x="69.12" y="-170.5" font-family="Helvetica,sans-Serif" font-size="10.00">DMA_Channel_doAcMonitor</text>
</a>
</g>
</g>
<!-- Node2 -->
<g id="Node000002" class="node">
<title>Node2</title>
<g id="a_Node000002"><a xlink:href="a00257.html#a3a965bf809d4454e8cc529cc6c3eed03" target="_top" xlink:title=" ">
<polygon fill="white" stroke="#666666" points="281.75,-184 174.25,-184 174.25,-164 281.75,-164 281.75,-184"/>
<text text-anchor="middle" x="228" y="-170.5" font-family="Helvetica,sans-Serif" font-size="10.00">vacm_state_machine</text>
</a>
</g>
</g>
<!-- Node1&#45;&gt;Node2 -->
<g id="edge1_Node000001_Node000002" class="edge">
<title>Node1&#45;&gt;Node2</title>
<g id="a_edge1_Node000001_Node000002"><a xlink:title=" ">
<path fill="none" stroke="#63b8ff" d="M138.48,-174C146.65,-174 154.97,-174 163.08,-174"/>
<polygon fill="#63b8ff" stroke="#63b8ff" points="162.97,-177.5 172.97,-174 162.97,-170.5 162.97,-177.5"/>
</a>
</g>
</g>
<!-- Node3 -->
<g id="Node000003" class="node">
<title>Node3</title>
<g id="a_Node000003"><a xlink:href="a00257.html#a5e75808b2d04c2fa09dc36222aadeb5c" target="_top" xlink:title=" ">
<polygon fill="white" stroke="#666666" points="428.62,-336 326.38,-336 326.38,-316 428.62,-316 428.62,-336"/>
<text text-anchor="middle" x="377.5" y="-322.5" font-family="Helvetica,sans-Serif" font-size="10.00">vacm_capture_input</text>
</a>
</g>
</g>
<!-- Node2&#45;&gt;Node3 -->
<g id="edge2_Node000002_Node000003" class="edge">
<title>Node2&#45;&gt;Node3</title>
<g id="a_edge2_Node000002_Node000003"><a xlink:title=" ">
<path fill="none" stroke="#63b8ff" d="M233.06,-184.37C243.33,-209.29 272.81,-273.01 317.75,-307 319.45,-308.29 321.24,-309.49 323.09,-310.61"/>
<polygon fill="#63b8ff" stroke="#63b8ff" points="321.31,-314.14 331.81,-315.57 324.5,-307.9 321.31,-314.14"/>
</a>
</g>
</g>
<!-- Node4 -->
<g id="Node000004" class="node">
<title>Node4</title>
<g id="a_Node000004"><a xlink:href="a00257.html#a88354179c83ed3f823aaaab8b54def04" target="_top" xlink:title=" ">
<polygon fill="white" stroke="#666666" points="430.12,-260 324.88,-260 324.88,-240 430.12,-240 430.12,-260"/>
<text text-anchor="middle" x="377.5" y="-246.5" font-family="Helvetica,sans-Serif" font-size="10.00">vacm_state_ac_drop</text>
</a>
</g>
</g>
<!-- Node2&#45;&gt;Node4 -->
<g id="edge3_Node000002_Node000004" class="edge">
<title>Node2&#45;&gt;Node4</title>
<g id="a_edge3_Node000002_Node000004"><a xlink:title=" ">
<path fill="none" stroke="#63b8ff" d="M242.79,-184.47C259.71,-196.92 289.61,-217.69 317.75,-231 321.35,-232.7 325.15,-234.31 329.01,-235.82"/>
<polygon fill="#63b8ff" stroke="#63b8ff" points="327.67,-239.43 338.27,-239.57 330.07,-232.85 327.67,-239.43"/>
</a>
</g>
</g>
<!-- Node6 -->
<g id="Node000006" class="node">
<title>Node6</title>
<g id="a_Node000006"><a xlink:href="a00257.html#a6620ac4371af55881bc354c83de9b1a9" target="_top" xlink:title=" ">
<polygon fill="white" stroke="#666666" points="431.25,-70 323.75,-70 323.75,-50 431.25,-50 431.25,-70"/>
<text text-anchor="middle" x="377.5" y="-56.5" font-family="Helvetica,sans-Serif" font-size="10.00">vacm_state_ac_sync</text>
</a>
</g>
</g>
<!-- Node2&#45;&gt;Node6 -->
<g id="edge5_Node000002_Node000006" class="edge">
<title>Node2&#45;&gt;Node6</title>
<g id="a_edge5_Node000002_Node000006"><a xlink:title=" ">
<path fill="none" stroke="#63b8ff" d="M236.01,-163.51C249.54,-144.06 281.17,-102.24 317.75,-79 320.17,-77.46 322.72,-76.04 325.36,-74.72"/>
<polygon fill="#63b8ff" stroke="#63b8ff" points="326.41,-77.64 334.16,-70.41 323.59,-71.24 326.41,-77.64"/>
</a>
</g>
</g>
<!-- Node13 -->
<g id="Node000013" class="node">
<title>Node13</title>
<g id="a_Node000013"><a xlink:href="a00257.html#a438efdbe3c5bfcf7b66052f6e3f99fc1" target="_top" xlink:title=" ">
<polygon fill="white" stroke="#666666" points="434.25,-298 320.75,-298 320.75,-278 434.25,-278 434.25,-298"/>
<text text-anchor="middle" x="377.5" y="-284.5" font-family="Helvetica,sans-Serif" font-size="10.00">vacm_state_dc_detect</text>
</a>
</g>
</g>
<!-- Node2&#45;&gt;Node13 -->
<g id="edge13_Node000002_Node000013" class="edge">
<title>Node2&#45;&gt;Node13</title>
<g id="a_edge13_Node000002_Node000013"><a xlink:title=" ">
<path fill="none" stroke="#63b8ff" d="M236.01,-184.49C249.54,-203.94 281.17,-245.76 317.75,-269 320.17,-270.54 322.72,-271.96 325.36,-273.28"/>
<polygon fill="#63b8ff" stroke="#63b8ff" points="323.59,-276.76 334.16,-277.59 326.41,-270.36 323.59,-276.76"/>
</a>
</g>
</g>
<!-- Node15 -->
<g id="Node000015" class="node">
<title>Node15</title>
<g id="a_Node000015"><a xlink:href="a00257.html#a7b65d2b2f06bd653e747d28a897e964b" target="_top" xlink:title=" ">
<polygon fill="white" stroke="#666666" points="432.75,-222 322.25,-222 322.25,-202 432.75,-202 432.75,-222"/>
<text text-anchor="middle" x="377.5" y="-208.5" font-family="Helvetica,sans-Serif" font-size="10.00">vacm_state_dc_mode</text>
</a>
</g>
</g>
<!-- Node2&#45;&gt;Node15 -->
<g id="edge17_Node000002_Node000015" class="edge">
<title>Node2&#45;&gt;Node15</title>
<g id="a_edge17_Node000002_Node000015"><a xlink:title=" ">
<path fill="none" stroke="#63b8ff" d="M269.7,-184.48C286.95,-188.93 307.24,-194.16 325.48,-198.85"/>
<polygon fill="#63b8ff" stroke="#63b8ff" points="324.38,-202.44 334.94,-201.55 326.13,-195.67 324.38,-202.44"/>
</a>
</g>
</g>
<!-- Node16 -->
<g id="Node000016" class="node">
<title>Node16</title>
<g id="a_Node000016"><a xlink:href="a00257.html#afa82391466200dde740b703017e91eec" target="_top" xlink:title=" ">
<polygon fill="white" stroke="#666666" points="425.62,-108 329.38,-108 329.38,-88 425.62,-88 425.62,-108"/>
<text text-anchor="middle" x="377.5" y="-94.5" font-family="Helvetica,sans-Serif" font-size="10.00">vacm_state_online</text>
</a>
</g>
</g>
<!-- Node2&#45;&gt;Node16 -->
<g id="edge20_Node000002_Node000016" class="edge">
<title>Node2&#45;&gt;Node16</title>
<g id="a_edge20_Node000002_Node000016"><a xlink:title=" ">
<path fill="none" stroke="#63b8ff" d="M242.79,-163.53C259.71,-151.08 289.61,-130.31 317.75,-117 321.35,-115.3 325.15,-113.69 329.01,-112.18"/>
<polygon fill="#63b8ff" stroke="#63b8ff" points="330.07,-115.15 338.27,-108.43 327.67,-108.57 330.07,-115.15"/>
</a>
</g>
</g>
<!-- Node17 -->
<g id="Node000017" class="node">
<title>Node17</title>
<g id="a_Node000017"><a xlink:href="a00257.html#a190d0ac02bb30bdb63d3ddff1373a807" target="_top" xlink:title=" ">
<polygon fill="white" stroke="#666666" points="430.12,-184 324.88,-184 324.88,-164 430.12,-164 430.12,-184"/>
<text text-anchor="middle" x="377.5" y="-170.5" font-family="Helvetica,sans-Serif" font-size="10.00">vacm_state_standby</text>
</a>
</g>
</g>
<!-- Node2&#45;&gt;Node17 -->
<g id="edge26_Node000002_Node000017" class="edge">
<title>Node2&#45;&gt;Node17</title>
<g id="a_edge26_Node000002_Node000017"><a xlink:title=" ">
<path fill="none" stroke="#63b8ff" d="M281.83,-174C292.14,-174 303.04,-174 313.64,-174"/>
<polygon fill="#63b8ff" stroke="#63b8ff" points="313.53,-177.5 323.53,-174 313.53,-170.5 313.53,-177.5"/>
</a>
</g>
</g>
<!-- Node18 -->
<g id="Node000018" class="node">
<title>Node18</title>
<g id="a_Node000018"><a xlink:href="a00257.html#a4dbe7572d068bb830e05117273a90817" target="_top" xlink:title=" ">
<polygon fill="white" stroke="#666666" points="437.25,-146 317.75,-146 317.75,-126 437.25,-126 437.25,-146"/>
<text text-anchor="middle" x="377.5" y="-132.5" font-family="Helvetica,sans-Serif" font-size="10.00">vacm_state_wait_for_zc</text>
</a>
</g>
</g>
<!-- Node2&#45;&gt;Node18 -->
<g id="edge28_Node000002_Node000018" class="edge">
<title>Node2&#45;&gt;Node18</title>
<g id="a_edge28_Node000002_Node000018"><a xlink:title=" ">
<path fill="none" stroke="#63b8ff" d="M269.7,-163.52C286.95,-159.07 307.24,-153.84 325.48,-149.15"/>
<polygon fill="#63b8ff" stroke="#63b8ff" points="326.13,-152.33 334.94,-146.45 324.38,-145.56 326.13,-152.33"/>
</a>
</g>
</g>
<!-- Node19 -->
<g id="Node000019" class="node">
<title>Node19</title>
<g id="a_Node000019"><a xlink:href="a00257.html#a2cdea5653d497660110732024dff3bc2" target="_top" xlink:title=" ">
<polygon fill="white" stroke="#666666" points="437.25,-32 317.75,-32 317.75,0 437.25,0 437.25,-32"/>
<text text-anchor="start" x="325.75" y="-18.5" font-family="Helvetica,sans-Serif" font-size="10.00">vacm_vloop_feedforward</text>
<text text-anchor="middle" x="377.5" y="-6.5" font-family="Helvetica,sans-Serif" font-size="10.00">_update</text>
</a>
</g>
</g>
<!-- Node2&#45;&gt;Node19 -->
<g id="edge33_Node000002_Node000019" class="edge">
<title>Node2&#45;&gt;Node19</title>
<g id="a_edge33_Node000002_Node000019"><a xlink:title=" ">
<path fill="none" stroke="#63b8ff" d="M233.42,-163.52C244.28,-138.91 274.59,-76.79 317.75,-41 318.95,-40 320.2,-39.04 321.48,-38.12"/>
<polygon fill="#63b8ff" stroke="#63b8ff" points="322.81,-40.78 329.38,-32.46 319.06,-34.87 322.81,-40.78"/>
</a>
</g>
</g>
<!-- Node5 -->
<g id="Node000005" class="node">
<title>Node5</title>
<g id="a_Node000005"><a xlink:href="a00257.html#a634dc3732b7ac4380c54073b237ca710" target="_top" xlink:title=" ">
<polygon fill="white" stroke="#666666" points="607.75,-234 473.25,-234 473.25,-202 607.75,-202 607.75,-234"/>
<text text-anchor="start" x="481.25" y="-220.5" font-family="Helvetica,sans-Serif" font-size="10.00">vacm_reset_phase_monitor</text>
<text text-anchor="middle" x="540.5" y="-208.5" font-family="Helvetica,sans-Serif" font-size="10.00">_object</text>
</a>
</g>
</g>
<!-- Node4&#45;&gt;Node5 -->
<g id="edge4_Node000004_Node000005" class="edge">
<title>Node4&#45;&gt;Node5</title>
<g id="a_edge4_Node000004_Node000005"><a xlink:title=" ">
<path fill="none" stroke="#63b8ff" d="M430.33,-239.7C440.46,-237.68 451.29,-235.53 462.05,-233.39"/>
<polygon fill="#63b8ff" stroke="#63b8ff" points="462.63,-236.65 471.76,-231.27 461.27,-229.78 462.63,-236.65"/>
</a>
</g>
</g>
<!-- Node6&#45;&gt;Node5 -->
<g id="edge8_Node000006_Node000005" class="edge">
<title>Node6&#45;&gt;Node5</title>
<g id="a_edge8_Node000006_Node000005"><a xlink:title=" ">
<path fill="none" stroke="#63b8ff" d="M425.51,-70.47C429.83,-72.77 433.85,-75.58 437.25,-79 474.69,-116.7 436.73,-154.41 473.25,-193 473.93,-193.72 474.64,-194.42 475.37,-195.11"/>
<polygon fill="#63b8ff" stroke="#63b8ff" points="472.81,-198.33 482.87,-201.67 477.09,-192.79 472.81,-198.33"/>
</a>
</g>
</g>
<!-- Node7 -->
<g id="Node000007" class="node">
<title>Node7</title>
<g id="a_Node000007"><a xlink:href="a00257.html#a59a2d9f80fc5da34bbe8f2a364b0eb2a" target="_top" xlink:title=" ">
<polygon fill="white" stroke="#666666" points="589,-32 492,-32 492,-12 589,-12 589,-32"/>
<text text-anchor="middle" x="540.5" y="-18.5" font-family="Helvetica,sans-Serif" font-size="10.00">vacm_acok_assert</text>
</a>
</g>
</g>
<!-- Node6&#45;&gt;Node7 -->
<g id="edge6_Node000006_Node000007" class="edge">
<title>Node6&#45;&gt;Node7</title>
<g id="a_edge6_Node000006_Node000007"><a xlink:title=" ">
<path fill="none" stroke="#63b8ff" d="M422.92,-49.52C442.01,-45.01 464.52,-39.7 484.64,-34.95"/>
<polygon fill="#63b8ff" stroke="#63b8ff" points="485.3,-38.15 494.22,-32.45 483.69,-31.34 485.3,-38.15"/>
</a>
</g>
</g>
<!-- Node8 -->
<g id="Node000008" class="node">
<title>Node8</title>
<g id="a_Node000008"><a xlink:href="a00257.html#a128d766a414b6a9755b7586f37b92939" target="_top" xlink:title=" ">
<polygon fill="white" stroke="#666666" points="595.38,-108 485.62,-108 485.62,-88 595.38,-88 595.38,-108"/>
<text text-anchor="middle" x="540.5" y="-94.5" font-family="Helvetica,sans-Serif" font-size="10.00">vacm_polarity_update</text>
</a>
</g>
</g>
<!-- Node6&#45;&gt;Node8 -->
<g id="edge7_Node000006_Node000008" class="edge">
<title>Node6&#45;&gt;Node8</title>
<g id="a_edge7_Node000006_Node000008"><a xlink:title=" ">
<path fill="none" stroke="#63b8ff" d="M422.92,-70.48C442.01,-74.99 464.52,-80.3 484.64,-85.05"/>
<polygon fill="#63b8ff" stroke="#63b8ff" points="483.69,-88.66 494.22,-87.55 485.3,-81.85 483.69,-88.66"/>
</a>
</g>
</g>
<!-- Node9 -->
<g id="Node000009" class="node">
<title>Node9</title>
<g id="a_Node000009"><a xlink:href="a00257.html#aa3afbdf195704fcbb7fe03f05a5f1493" target="_top" xlink:title=" ">
<polygon fill="white" stroke="#666666" points="599.5,-70 481.5,-70 481.5,-50 599.5,-50 599.5,-70"/>
<text text-anchor="middle" x="540.5" y="-56.5" font-family="Helvetica,sans-Serif" font-size="10.00">vacm_timebase_update</text>
</a>
</g>
</g>
<!-- Node6&#45;&gt;Node9 -->
<g id="edge9_Node000006_Node000009" class="edge">
<title>Node6&#45;&gt;Node9</title>
<g id="a_edge9_Node000006_Node000009"><a xlink:title=" ">
<path fill="none" stroke="#63b8ff" d="M431.66,-60C444.04,-60 457.4,-60 470.36,-60"/>
<polygon fill="#63b8ff" stroke="#63b8ff" points="470.12,-63.5 480.12,-60 470.12,-56.5 470.12,-63.5"/>
</a>
</g>
</g>
<!-- Node10 -->
<g id="Node000010" class="node">
<title>Node10</title>
<g id="a_Node000010"><a xlink:href="a00257.html#a4d1cffa8629c7a211d571e6c96fe94ac" target="_top" xlink:title=" ">
<polygon fill="white" stroke="#666666" points="587.12,-184 493.88,-184 493.88,-164 587.12,-164 587.12,-184"/>
<text text-anchor="middle" x="540.5" y="-170.5" font-family="Helvetica,sans-Serif" font-size="10.00">vacm_vin_average</text>
</a>
</g>
</g>
<!-- Node6&#45;&gt;Node10 -->
<g id="edge10_Node000006_Node000010" class="edge">
<title>Node6&#45;&gt;Node10</title>
<g id="a_edge10_Node000006_Node000010"><a xlink:title=" ">
<path fill="none" stroke="#63b8ff" d="M423.88,-70.38C428.71,-72.7 433.3,-75.53 437.25,-79 465.33,-103.66 444.76,-130.81 473.25,-155 476.35,-157.63 479.8,-159.9 483.44,-161.86"/>
<polygon fill="#63b8ff" stroke="#63b8ff" points="481.9,-165.45 492.45,-166.33 484.75,-159.06 481.9,-165.45"/>
</a>
</g>
</g>
<!-- Node12 -->
<g id="Node000012" class="node">
<title>Node12</title>
<g id="a_Node000012"><a xlink:href="a00257.html#ae168f993edb4be6bef378eeb2f7d62d6" target="_top" xlink:title=" ">
<polygon fill="white" stroke="#666666" points="599.88,-146 481.12,-146 481.12,-126 599.88,-126 599.88,-146"/>
<text text-anchor="middle" x="540.5" y="-132.5" font-family="Helvetica,sans-Serif" font-size="10.00">vacm_zerocross_detect</text>
</a>
</g>
</g>
<!-- Node6&#45;&gt;Node12 -->
<g id="edge12_Node000006_Node000012" class="edge">
<title>Node6&#45;&gt;Node12</title>
<g id="a_edge12_Node000006_Node000012"><a xlink:title=" ">
<path fill="none" stroke="#63b8ff" d="M419.82,-70.44C425.9,-72.8 431.9,-75.63 437.25,-79 456.93,-91.41 453.37,-104.92 473.25,-117 475.89,-118.6 478.66,-120.07 481.53,-121.42"/>
<polygon fill="#63b8ff" stroke="#63b8ff" points="479.93,-124.97 490.51,-125.57 482.62,-118.5 479.93,-124.97"/>
</a>
</g>
</g>
<!-- Node11 -->
<g id="Node000011" class="node">
<title>Node11</title>
<g id="a_Node000011"><a xlink:href="a00257.html#aef2ab25ed304717c5d288e7053b8237f" target="_top" xlink:title=" ">
<polygon fill="white" stroke="#666666" points="732.5,-184 643.75,-184 643.75,-164 732.5,-164 732.5,-184"/>
<text text-anchor="middle" x="688.12" y="-170.5" font-family="Helvetica,sans-Serif" font-size="10.00">vacm_uv_ov_test</text>
</a>
</g>
</g>
<!-- Node10&#45;&gt;Node11 -->
<g id="edge11_Node000010_Node000011" class="edge">
<title>Node10&#45;&gt;Node11</title>
<g id="a_edge11_Node000010_Node000011"><a xlink:title=" ">
<path fill="none" stroke="#63b8ff" d="M587.58,-174C601.93,-174 617.88,-174 632.75,-174"/>
<polygon fill="#63b8ff" stroke="#63b8ff" points="632.33,-177.5 642.33,-174 632.33,-170.5 632.33,-177.5"/>
</a>
</g>
</g>
<!-- Node13&#45;&gt;Node5 -->
<g id="edge15_Node000013_Node000005" class="edge">
<title>Node13&#45;&gt;Node5</title>
<g id="a_edge15_Node000013_Node000005"><a xlink:title=" ">
<path fill="none" stroke="#63b8ff" d="M413.6,-277.6C421.47,-275.01 429.71,-272.08 437.25,-269 458.42,-260.35 481.26,-249.15 499.97,-239.45"/>
<polygon fill="#63b8ff" stroke="#63b8ff" points="501.39,-242.13 508.63,-234.39 498.14,-235.93 501.39,-242.13"/>
</a>
</g>
</g>
<!-- Node13&#45;&gt;Node10 -->
<g id="edge16_Node000013_Node000010" class="edge">
<title>Node13&#45;&gt;Node10</title>
<g id="a_edge16_Node000013_Node000010"><a xlink:title=" ">
<path fill="none" stroke="#63b8ff" d="M423.88,-277.62C428.71,-275.3 433.3,-272.47 437.25,-269 465.33,-244.34 444.76,-217.19 473.25,-193 476.35,-190.37 479.8,-188.1 483.44,-186.14"/>
<polygon fill="#63b8ff" stroke="#63b8ff" points="484.75,-188.94 492.45,-181.67 481.9,-182.55 484.75,-188.94"/>
</a>
</g>
</g>
<!-- Node14 -->
<g id="Node000014" class="node">
<title>Node14</title>
<g id="a_Node000014"><a xlink:href="a00257.html#a15257c326e34873ee3d4465e7837e87e" target="_top" xlink:title=" ">
<polygon fill="white" stroke="#666666" points="598,-298 483,-298 483,-278 598,-278 598,-298"/>
<text text-anchor="middle" x="540.5" y="-284.5" font-family="Helvetica,sans-Serif" font-size="10.00">vacm_dc_input_accept</text>
</a>
</g>
</g>
<!-- Node13&#45;&gt;Node14 -->
<g id="edge14_Node000013_Node000014" class="edge">
<title>Node13&#45;&gt;Node14</title>
<g id="a_edge14_Node000013_Node000014"><a xlink:title=" ">
<path fill="none" stroke="#63b8ff" d="M434.36,-288C446.44,-288 459.34,-288 471.82,-288"/>
<polygon fill="#63b8ff" stroke="#63b8ff" points="471.65,-291.5 481.65,-288 471.65,-284.5 471.65,-291.5"/>
</a>
</g>
</g>
<!-- Node15&#45;&gt;Node5 -->
<g id="edge18_Node000015_Node000005" class="edge">
<title>Node15&#45;&gt;Node5</title>
<g id="a_edge18_Node000015_Node000005"><a xlink:title=" ">
<path fill="none" stroke="#63b8ff" d="M433.01,-214.03C442.29,-214.38 452.08,-214.74 461.82,-215.11"/>
<polygon fill="#63b8ff" stroke="#63b8ff" points="461.64,-218.64 471.77,-215.51 461.9,-211.64 461.64,-218.64"/>
</a>
</g>
</g>
<!-- Node15&#45;&gt;Node10 -->
<g id="edge19_Node000015_Node000010" class="edge">
<title>Node15&#45;&gt;Node10</title>
<g id="a_edge19_Node000015_Node000010"><a xlink:title=" ">
<path fill="none" stroke="#63b8ff" d="M422.92,-201.52C442.01,-197.01 464.52,-191.7 484.64,-186.95"/>
<polygon fill="#63b8ff" stroke="#63b8ff" points="485.3,-190.15 494.22,-184.45 483.69,-183.34 485.3,-190.15"/>
</a>
</g>
</g>
<!-- Node16&#45;&gt;Node5 -->
<g id="edge22_Node000016_Node000005" class="edge">
<title>Node16&#45;&gt;Node5</title>
<g id="a_edge22_Node000016_Node000005"><a xlink:title=" ">
<path fill="none" stroke="#63b8ff" d="M423.88,-108.38C428.71,-110.7 433.3,-113.53 437.25,-117 465.33,-141.66 445.77,-167.67 473.25,-193 474.13,-193.81 475.04,-194.6 475.98,-195.36"/>
<polygon fill="#63b8ff" stroke="#63b8ff" points="473.77,-198.78 483.99,-201.57 477.74,-193.01 473.77,-198.78"/>
</a>
</g>
</g>
<!-- Node16&#45;&gt;Node8 -->
<g id="edge21_Node000016_Node000008" class="edge">
<title>Node16&#45;&gt;Node8</title>
<g id="a_edge21_Node000016_Node000008"><a xlink:title=" ">
<path fill="none" stroke="#63b8ff" d="M425.93,-98C441.23,-98 458.45,-98 474.77,-98"/>
<polygon fill="#63b8ff" stroke="#63b8ff" points="474.34,-101.5 484.34,-98 474.34,-94.5 474.34,-101.5"/>
</a>
</g>
</g>
<!-- Node16&#45;&gt;Node9 -->
<g id="edge23_Node000016_Node000009" class="edge">
<title>Node16&#45;&gt;Node9</title>
<g id="a_edge23_Node000016_Node000009"><a xlink:title=" ">
<path fill="none" stroke="#63b8ff" d="M422.92,-87.52C442.01,-83.01 464.52,-77.7 484.64,-72.95"/>
<polygon fill="#63b8ff" stroke="#63b8ff" points="485.3,-76.15 494.22,-70.45 483.69,-69.34 485.3,-76.15"/>
</a>
</g>
</g>
<!-- Node16&#45;&gt;Node10 -->
<g id="edge24_Node000016_Node000010" class="edge">
<title>Node16&#45;&gt;Node10</title>
<g id="a_edge24_Node000016_Node000010"><a xlink:title=" ">
<path fill="none" stroke="#63b8ff" d="M419.82,-108.44C425.9,-110.8 431.9,-113.63 437.25,-117 456.93,-129.41 453.37,-142.92 473.25,-155 476.47,-156.95 479.89,-158.71 483.43,-160.3"/>
<polygon fill="#63b8ff" stroke="#63b8ff" points="482.01,-163.9 492.6,-164.32 484.59,-157.39 482.01,-163.9"/>
</a>
</g>
</g>
<!-- Node16&#45;&gt;Node12 -->
<g id="edge25_Node000016_Node000012" class="edge">
<title>Node16&#45;&gt;Node12</title>
<g id="a_edge25_Node000016_Node000012"><a xlink:title=" ">
<path fill="none" stroke="#63b8ff" d="M422.92,-108.48C442.01,-112.99 464.52,-118.3 484.64,-123.05"/>
<polygon fill="#63b8ff" stroke="#63b8ff" points="483.69,-126.66 494.22,-125.55 485.3,-119.85 483.69,-126.66"/>
</a>
</g>
</g>
<!-- Node17&#45;&gt;Node10 -->
<g id="edge27_Node000017_Node000010" class="edge">
<title>Node17&#45;&gt;Node10</title>
<g id="a_edge27_Node000017_Node000010"><a xlink:title=" ">
<path fill="none" stroke="#63b8ff" d="M430.33,-174C446.99,-174 465.54,-174 482.56,-174"/>
<polygon fill="#63b8ff" stroke="#63b8ff" points="482.48,-177.5 492.48,-174 482.48,-170.5 482.48,-177.5"/>
</a>
</g>
</g>
<!-- Node18&#45;&gt;Node5 -->
<g id="edge30_Node000018_Node000005" class="edge">
<title>Node18&#45;&gt;Node5</title>
<g id="a_edge30_Node000018_Node000005"><a xlink:title=" ">
<path fill="none" stroke="#63b8ff" d="M419.82,-146.44C425.9,-148.8 431.9,-151.63 437.25,-155 456.93,-167.41 453.88,-180.12 473.25,-193 475.2,-194.3 477.24,-195.54 479.32,-196.73"/>
<polygon fill="#63b8ff" stroke="#63b8ff" points="477.26,-200.13 487.75,-201.61 480.48,-193.91 477.26,-200.13"/>
</a>
</g>
</g>
<!-- Node18&#45;&gt;Node8 -->
<g id="edge29_Node000018_Node000008" class="edge">
<title>Node18&#45;&gt;Node8</title>
<g id="a_edge29_Node000018_Node000008"><a xlink:title=" ">
<path fill="none" stroke="#63b8ff" d="M422.92,-125.52C442.01,-121.01 464.52,-115.7 484.64,-110.95"/>
<polygon fill="#63b8ff" stroke="#63b8ff" points="485.3,-114.15 494.22,-108.45 483.69,-107.34 485.3,-114.15"/>
</a>
</g>
</g>
<!-- Node18&#45;&gt;Node10 -->
<g id="edge31_Node000018_Node000010" class="edge">
<title>Node18&#45;&gt;Node10</title>
<g id="a_edge31_Node000018_Node000010"><a xlink:title=" ">
<path fill="none" stroke="#63b8ff" d="M422.92,-146.48C442.01,-150.99 464.52,-156.3 484.64,-161.05"/>
<polygon fill="#63b8ff" stroke="#63b8ff" points="483.69,-164.66 494.22,-163.55 485.3,-157.85 483.69,-164.66"/>
</a>
</g>
</g>
<!-- Node18&#45;&gt;Node12 -->
<g id="edge32_Node000018_Node000012" class="edge">
<title>Node18&#45;&gt;Node12</title>
<g id="a_edge32_Node000018_Node000012"><a xlink:title=" ">
<path fill="none" stroke="#63b8ff" d="M437.54,-136C448.1,-136 459.2,-136 470.03,-136"/>
<polygon fill="#63b8ff" stroke="#63b8ff" points="469.74,-139.5 479.74,-136 469.74,-132.5 469.74,-139.5"/>
</a>
</g>
</g>
</g>
</svg>

<g id="navigator" transform="translate(0 0)" fill="#404254">
  <rect fill="#f2f5e9" fill-opacity="0.5" stroke="#606060" stroke-width=".5" x="0" y="0" width="60" height="60"/>
  <use id="zoomplus" xlink:href="#zoomPlus" x="17" y="9" onmousedown="handleZoom(evt,'in')"/>
  <use id="zoomminus" xlink:href="#zoomMin" x="42" y="9" onmousedown="handleZoom(evt,'out')"/>
  <use id="reset" xlink:href="#resetDef" x="30" y="36" onmousedown="handleReset()"/>
   <use id="arrowup" xlink:href="#arrowUp" x="0" y="0" onmousedown="handlePan(0,-1)"/>
  <use id="arrowright" xlink:href="#arrowRight" x="0" y="0" onmousedown="handlePan(1,0)"/>
  <use id="arrowdown" xlink:href="#arrowDown" x="0" y="0" onmousedown="handlePan(0,1)"/>
  <use id="arrowleft" xlink:href="#arrowLeft" x="0" y="0" onmousedown="handlePan(-1,0)"/>
</g>
<svg viewBox="0 0 15 15" width="100%" height="30px" preserveAspectRatio="xMaxYMin meet">
 <g id="arrow_out" transform="scale(0.3 0.3)">
  <a xlink:href="a00233_a41351a49d0335be286c2947c26d0a07c_cgraph_org.svg" target="_base">
   <rect id="button" ry="5" rx="5" y="6" x="6" height="38" width="38"
        fill="#f2f5e9" fill-opacity="0.5" stroke="#606060" stroke-width="1.0"/>
   <path id="arrow"
     d="M 11.500037,31.436501 C 11.940474,20.09759 22.043105,11.32322 32.158766,21.979434 L 37.068811,17.246167 C 37.068811,17.246167 37.088388,32 37.088388,32 L 22.160133,31.978069 C 22.160133,31.978069 26.997745,27.140456 26.997745,27.140456 C 18.528582,18.264221 13.291696,25.230495 11.500037,31.436501 z"
     style="fill:#404040;"/>
  </a>
 </g>
</svg>

<style type='text/css'>
<![CDATA[
[data-mouse-over-selected='false'] { opacity: 0.7; }
[data-mouse-over-selected='true']  { opacity: 1.0; }
]]>
</style>
<script type="application/ecmascript"><![CDATA[
document.addEventListener('DOMContentLoaded', (event) => {
  highlightEdges();
  highlightAdjacentNodes();
});
]]></script>
</svg>
