<?xml version="1.0" encoding="UTF-8" standalone="no"?>
<!DOCTYPE svg PUBLIC "-//W3C//DTD SVG 1.1//EN"
 "http://www.w3.org/Graphics/SVG/1.1/DTD/svg11.dtd">
<!-- Generated by graphviz version 8.1.0 (20230707.0739)
 -->
<!-- Title: vacm_uv_ov_test Pages: 1 -->
<!--zoomable 218 -->

<svg id="main" version="1.1" xmlns="http://www.w3.org/2000/svg" xmlns:xlink="http://www.w3.org/1999/xlink" xml:space="preserve" onload="init(evt)">
<style type="text/css"><![CDATA[
.node, .edge {opacity: 0.7;}
.node.selected, .edge.selected {opacity: 1;}
.edge:hover path { stroke: red; }
.edge:hover polygon { stroke: red; fill: red; }
]]></style>

<defs>
  <circle id="rim" cx="0" cy="0" r="7"/>
  <circle id="rim2" cx="0" cy="0" r="3.5"/>
  <g id="zoomPlus">
    <use xlink:href="#rim" fill="#404040"><set attributeName="fill" to="#808080" begin="zoomplus.mouseover" end="zoomplus.mouseout"/></use>
    <path d="M-4,0h8M0,-4v8" fill="none" stroke="white" stroke-width="1.5" pointer-events="none"/>
  </g>
  <g id="zoomMin">
    <use xlink:href="#rim" fill="#404040"><set attributeName="fill" to="#808080" begin="zoomminus.mouseover" end="zoomminus.mouseout"/></use>
    <path d="M-4,0h8" fill="none" stroke="white" stroke-width="1.5" pointer-events="none"/>
  </g>
  <g id="arrowUp" transform="translate(30 24)">
    <use xlink:href="#rim"/>
    <path pointer-events="none" fill="none" stroke="white" stroke-width="1.5" d="M0,-3.0v7 M-2.5,-0.5L0,-3.0L2.5,-0.5"/>
  </g>
  <g id="arrowRight" transform="rotate(90) translate(36 -43)">
    <use xlink:href="#rim"/>
    <path pointer-events="none" fill="none" stroke="white" stroke-width="1.5" d="M0,-3.0v7 M-2.5,-0.5L0,-3.0L2.5,-0.5"/>
  </g>
  <g id="arrowDown" transform="rotate(180) translate(-30 -48)">
    <use xlink:href="#rim"/>
    <path pointer-events="none" fill="none" stroke="white" stroke-width="1.5" d="M0,-3.0v7 M-2.5,-0.5L0,-3.0L2.5,-0.5"/>
  </g>
  <g id="arrowLeft" transform="rotate(270) translate(-36 17)">
    <use xlink:href="#rim"/>
    <path pointer-events="none" fill="none" stroke="white" stroke-width="1.5" d="M0,-3.0v7 M-2.5,-0.5L0,-3.0L2.5,-0.5"/>
  </g>
  <g id="resetDef">
    <use xlink:href="#rim2" fill="#404040"><set attributeName="fill" to="#808080" begin="reset.mouseover" end="reset.mouseout"/></use>
  </g>
</defs>
<script type="application/ecmascript">
var viewWidth = 851;
var viewHeight = 218;
var sectionId = 'dynsection-24';
</script>
<script type="application/ecmascript" xlink:href="svg.min.js"/>
<svg id="graph" class="graph">
<g id="viewport">
<title>vacm_uv_ov_test</title>
<!-- Node1 -->
<g id="Node000001" class="node">
<title>Node1</title>
<g id="a_Node000001"><a xlink:title=" ">
<polygon fill="#999999" stroke="#666666" points="843,-115 754.25,-115 754.25,-95 843,-95 843,-115"/>
<text text-anchor="middle" x="798.62" y="-101.5" font-family="Helvetica,sans-Serif" font-size="10.00">vacm_uv_ov_test</text>
</a>
</g>
</g>
<!-- Node2 -->
<g id="Node000002" class="node">
<title>Node2</title>
<g id="a_Node000002"><a xlink:href="a00257.html#a4d1cffa8629c7a211d571e6c96fe94ac" target="_top" xlink:title=" ">
<polygon fill="white" stroke="#666666" points="718.25,-115 625,-115 625,-95 718.25,-95 718.25,-115"/>
<text text-anchor="middle" x="671.62" y="-101.5" font-family="Helvetica,sans-Serif" font-size="10.00">vacm_vin_average</text>
</a>
</g>
</g>
<!-- Node1&#45;&gt;Node2 -->
<g id="edge1_Node000001_Node000002" class="edge">
<title>Node1&#45;&gt;Node2</title>
<g id="a_edge1_Node000001_Node000002"><a xlink:title=" ">
<path fill="none" stroke="#63b8ff" d="M743,-105C734.88,-105 726.58,-105 718.65,-105"/>
<polygon fill="#63b8ff" stroke="#63b8ff" points="742.91,-108.5 752.91,-105 742.91,-101.5 742.91,-108.5"/>
</a>
</g>
</g>
<!-- Node3 -->
<g id="Node000003" class="node">
<title>Node3</title>
<g id="a_Node000003"><a xlink:href="a00257.html#a6620ac4371af55881bc354c83de9b1a9" target="_top" xlink:title=" ">
<polygon fill="white" stroke="#666666" points="583,-210 475.5,-210 475.5,-190 583,-190 583,-210"/>
<text text-anchor="middle" x="529.25" y="-196.5" font-family="Helvetica,sans-Serif" font-size="10.00">vacm_state_ac_sync</text>
</a>
</g>
</g>
<!-- Node2&#45;&gt;Node3 -->
<g id="edge2_Node000002_Node000003" class="edge">
<title>Node2&#45;&gt;Node3</title>
<g id="a_edge2_Node000002_Node000003"><a xlink:title=" ">
<path fill="none" stroke="#63b8ff" d="M655.11,-123.5C639.87,-140.6 615.16,-165.63 589,-181 583.27,-184.37 576.87,-187.22 570.46,-189.6"/>
<polygon fill="#63b8ff" stroke="#63b8ff" points="658.26,-126.21 662.18,-116.37 652.98,-121.62 658.26,-126.21"/>
</a>
</g>
</g>
<!-- Node7 -->
<g id="Node000007" class="node">
<title>Node7</title>
<g id="a_Node000007"><a xlink:href="a00257.html#a438efdbe3c5bfcf7b66052f6e3f99fc1" target="_top" xlink:title=" ">
<polygon fill="white" stroke="#666666" points="586,-172 472.5,-172 472.5,-152 586,-152 586,-172"/>
<text text-anchor="middle" x="529.25" y="-158.5" font-family="Helvetica,sans-Serif" font-size="10.00">vacm_state_dc_detect</text>
</a>
</g>
</g>
<!-- Node2&#45;&gt;Node7 -->
<g id="edge6_Node000002_Node000007" class="edge">
<title>Node2&#45;&gt;Node7</title>
<g id="a_edge6_Node000002_Node000007"><a xlink:title=" ">
<path fill="none" stroke="#63b8ff" d="M640.68,-120.02C625.41,-127.4 606.43,-136.16 589,-143 581.32,-146.02 572.94,-148.94 564.98,-151.55"/>
<polygon fill="#63b8ff" stroke="#63b8ff" points="641.68,-122.93 649.13,-115.4 638.61,-116.65 641.68,-122.93"/>
</a>
</g>
</g>
<!-- Node8 -->
<g id="Node000008" class="node">
<title>Node8</title>
<g id="a_Node000008"><a xlink:href="a00257.html#a7b65d2b2f06bd653e747d28a897e964b" target="_top" xlink:title=" ">
<polygon fill="white" stroke="#666666" points="584.5,-134 474,-134 474,-114 584.5,-114 584.5,-134"/>
<text text-anchor="middle" x="529.25" y="-120.5" font-family="Helvetica,sans-Serif" font-size="10.00">vacm_state_dc_mode</text>
</a>
</g>
</g>
<!-- Node2&#45;&gt;Node8 -->
<g id="edge8_Node000002_Node000008" class="edge">
<title>Node2&#45;&gt;Node8</title>
<g id="a_edge8_Node000002_Node000008"><a xlink:title=" ">
<path fill="none" stroke="#63b8ff" d="M613.93,-112.67C604.26,-113.98 594.23,-115.34 584.62,-116.64"/>
<polygon fill="#63b8ff" stroke="#63b8ff" points="614.22,-116.03 623.66,-111.22 613.28,-109.09 614.22,-116.03"/>
</a>
</g>
</g>
<!-- Node9 -->
<g id="Node000009" class="node">
<title>Node9</title>
<g id="a_Node000009"><a xlink:href="a00257.html#afa82391466200dde740b703017e91eec" target="_top" xlink:title=" ">
<polygon fill="white" stroke="#666666" points="577.38,-96 481.12,-96 481.12,-76 577.38,-76 577.38,-96"/>
<text text-anchor="middle" x="529.25" y="-82.5" font-family="Helvetica,sans-Serif" font-size="10.00">vacm_state_online</text>
</a>
</g>
</g>
<!-- Node2&#45;&gt;Node9 -->
<g id="edge10_Node000002_Node000009" class="edge">
<title>Node2&#45;&gt;Node9</title>
<g id="a_edge10_Node000002_Node000009"><a xlink:title=" ">
<path fill="none" stroke="#63b8ff" d="M613.85,-97.32C601.88,-95.69 589.36,-94 577.76,-92.43"/>
<polygon fill="#63b8ff" stroke="#63b8ff" points="613.28,-100.91 623.66,-98.78 614.22,-93.97 613.28,-100.91"/>
</a>
</g>
</g>
<!-- Node10 -->
<g id="Node000010" class="node">
<title>Node10</title>
<g id="a_Node000010"><a xlink:href="a00257.html#a190d0ac02bb30bdb63d3ddff1373a807" target="_top" xlink:title=" ">
<polygon fill="white" stroke="#666666" points="581.88,-58 476.62,-58 476.62,-38 581.88,-38 581.88,-58"/>
<text text-anchor="middle" x="529.25" y="-44.5" font-family="Helvetica,sans-Serif" font-size="10.00">vacm_state_standby</text>
</a>
</g>
</g>
<!-- Node2&#45;&gt;Node10 -->
<g id="edge12_Node000002_Node000010" class="edge">
<title>Node2&#45;&gt;Node10</title>
<g id="a_edge12_Node000002_Node000010"><a xlink:title=" ">
<path fill="none" stroke="#63b8ff" d="M640.68,-89.98C625.41,-82.6 606.43,-73.84 589,-67 581.32,-63.98 572.94,-61.06 564.98,-58.45"/>
<polygon fill="#63b8ff" stroke="#63b8ff" points="638.61,-93.35 649.13,-94.6 641.68,-87.07 638.61,-93.35"/>
</a>
</g>
</g>
<!-- Node11 -->
<g id="Node000011" class="node">
<title>Node11</title>
<g id="a_Node000011"><a xlink:href="a00257.html#a4dbe7572d068bb830e05117273a90817" target="_top" xlink:title=" ">
<polygon fill="white" stroke="#666666" points="589,-20 469.5,-20 469.5,0 589,0 589,-20"/>
<text text-anchor="middle" x="529.25" y="-6.5" font-family="Helvetica,sans-Serif" font-size="10.00">vacm_state_wait_for_zc</text>
</a>
</g>
</g>
<!-- Node2&#45;&gt;Node11 -->
<g id="edge14_Node000002_Node000011" class="edge">
<title>Node2&#45;&gt;Node11</title>
<g id="a_edge14_Node000002_Node000011"><a xlink:title=" ">
<path fill="none" stroke="#63b8ff" d="M655.11,-86.5C639.87,-69.4 615.16,-44.37 589,-29 583.27,-25.63 576.87,-22.78 570.46,-20.4"/>
<polygon fill="#63b8ff" stroke="#63b8ff" points="652.98,-88.38 662.18,-93.63 658.26,-83.79 652.98,-88.38"/>
</a>
</g>
</g>
<!-- Node4 -->
<g id="Node000004" class="node">
<title>Node4</title>
<g id="a_Node000004"><a xlink:href="a00257.html#a3a965bf809d4454e8cc529cc6c3eed03" target="_top" xlink:title=" ">
<polygon fill="white" stroke="#666666" points="433.5,-115 326,-115 326,-95 433.5,-95 433.5,-115"/>
<text text-anchor="middle" x="379.75" y="-101.5" font-family="Helvetica,sans-Serif" font-size="10.00">vacm_state_machine</text>
</a>
</g>
</g>
<!-- Node3&#45;&gt;Node4 -->
<g id="edge3_Node000003_Node000004" class="edge">
<title>Node3&#45;&gt;Node4</title>
<g id="a_edge3_Node000003_Node000004"><a xlink:title=" ">
<path fill="none" stroke="#63b8ff" d="M478.45,-185.47C475.36,-184.09 472.35,-182.6 469.5,-181 436.93,-162.76 405.33,-131.48 390.13,-115.33"/>
<polygon fill="#63b8ff" stroke="#63b8ff" points="476.89,-189.01 487.47,-189.51 479.51,-182.52 476.89,-189.01"/>
</a>
</g>
</g>
<!-- Node5 -->
<g id="Node000005" class="node">
<title>Node5</title>
<g id="a_Node000005"><a xlink:href="a00233.html#a41351a49d0335be286c2947c26d0a07c" target="_top" xlink:title=" ">
<polygon fill="white" stroke="#666666" points="290,-115 151.75,-115 151.75,-95 290,-95 290,-115"/>
<text text-anchor="middle" x="220.88" y="-101.5" font-family="Helvetica,sans-Serif" font-size="10.00">DMA_Channel_doAcMonitor</text>
</a>
</g>
</g>
<!-- Node4&#45;&gt;Node5 -->
<g id="edge4_Node000004_Node000005" class="edge">
<title>Node4&#45;&gt;Node5</title>
<g id="a_edge4_Node000004_Node000005"><a xlink:title=" ">
<path fill="none" stroke="#63b8ff" d="M314.77,-105C306.68,-105 298.38,-105 290.23,-105"/>
<polygon fill="#63b8ff" stroke="#63b8ff" points="314.64,-108.5 324.64,-105 314.64,-101.5 314.64,-108.5"/>
</a>
</g>
</g>
<!-- Node6 -->
<g id="Node000006" class="node">
<title>Node6</title>
<g id="a_Node000006"><a xlink:href="a00412.html#ga9f16d166d637fd9005839b1e1822dc63" target="_top" xlink:title="This is the default callback with weak attribute. The user can override and implement the default cal...">
<polygon fill="white" stroke="#666666" points="115.75,-115 0,-115 0,-95 115.75,-95 115.75,-115"/>
<text text-anchor="middle" x="57.88" y="-101.5" font-family="Helvetica,sans-Serif" font-size="10.00">DMA_ChannelCallback</text>
</a>
</g>
</g>
<!-- Node5&#45;&gt;Node6 -->
<g id="edge5_Node000005_Node000006" class="edge">
<title>Node5&#45;&gt;Node6</title>
<g id="a_edge5_Node000005_Node000006"><a xlink:title=" ">
<path fill="none" stroke="#63b8ff" d="M140.72,-105C132.41,-105 124.08,-105 116.09,-105"/>
<polygon fill="#63b8ff" stroke="#63b8ff" points="140.6,-108.5 150.6,-105 140.6,-101.5 140.6,-108.5"/>
</a>
</g>
</g>
<!-- Node7&#45;&gt;Node4 -->
<g id="edge7_Node000007_Node000004" class="edge">
<title>Node7&#45;&gt;Node4</title>
<g id="a_edge7_Node000007_Node000004"><a xlink:title=" ">
<path fill="none" stroke="#63b8ff" d="M484.12,-148.21C479.16,-146.52 474.21,-144.77 469.5,-143 446.74,-134.47 421.29,-123.41 403.5,-115.43"/>
<polygon fill="#63b8ff" stroke="#63b8ff" points="482.61,-151.73 493.2,-151.57 484.82,-145.09 482.61,-151.73"/>
</a>
</g>
</g>
<!-- Node8&#45;&gt;Node4 -->
<g id="edge9_Node000008_Node000004" class="edge">
<title>Node8&#45;&gt;Node4</title>
<g id="a_edge9_Node000008_Node000004"><a xlink:title=" ">
<path fill="none" stroke="#63b8ff" d="M463.13,-115.61C453.24,-114.34 443.14,-113.04 433.56,-111.8"/>
<polygon fill="#63b8ff" stroke="#63b8ff" points="462.38,-119.17 472.75,-116.98 463.27,-112.23 462.38,-119.17"/>
</a>
</g>
</g>
<!-- Node9&#45;&gt;Node4 -->
<g id="edge11_Node000009_Node000004" class="edge">
<title>Node9&#45;&gt;Node4</title>
<g id="a_edge11_Node000009_Node000004"><a xlink:title=" ">
<path fill="none" stroke="#63b8ff" d="M469.99,-93.5C458.04,-95.04 445.52,-96.66 433.77,-98.17"/>
<polygon fill="#63b8ff" stroke="#63b8ff" points="470.3,-96.87 479.77,-92.12 469.4,-89.92 470.3,-96.87"/>
</a>
</g>
</g>
<!-- Node10&#45;&gt;Node4 -->
<g id="edge13_Node000010_Node000004" class="edge">
<title>Node10&#45;&gt;Node4</title>
<g id="a_edge13_Node000010_Node000004"><a xlink:title=" ">
<path fill="none" stroke="#63b8ff" d="M484.12,-61.79C479.16,-63.48 474.21,-65.23 469.5,-67 446.74,-75.53 421.29,-86.59 403.5,-94.57"/>
<polygon fill="#63b8ff" stroke="#63b8ff" points="484.82,-64.91 493.2,-58.43 482.61,-58.27 484.82,-64.91"/>
</a>
</g>
</g>
<!-- Node11&#45;&gt;Node4 -->
<g id="edge15_Node000011_Node000004" class="edge">
<title>Node11&#45;&gt;Node4</title>
<g id="a_edge15_Node000011_Node000004"><a xlink:title=" ">
<path fill="none" stroke="#63b8ff" d="M478.45,-24.53C475.36,-25.91 472.35,-27.4 469.5,-29 436.93,-47.24 405.33,-78.52 390.13,-94.67"/>
<polygon fill="#63b8ff" stroke="#63b8ff" points="479.51,-27.48 487.47,-20.49 476.89,-20.99 479.51,-27.48"/>
</a>
</g>
</g>
</g>
</svg>

<g id="navigator" transform="translate(0 0)" fill="#404254">
  <rect fill="#f2f5e9" fill-opacity="0.5" stroke="#606060" stroke-width=".5" x="0" y="0" width="60" height="60"/>
  <use id="zoomplus" xlink:href="#zoomPlus" x="17" y="9" onmousedown="handleZoom(evt,'in')"/>
  <use id="zoomminus" xlink:href="#zoomMin" x="42" y="9" onmousedown="handleZoom(evt,'out')"/>
  <use id="reset" xlink:href="#resetDef" x="30" y="36" onmousedown="handleReset()"/>
   <use id="arrowup" xlink:href="#arrowUp" x="0" y="0" onmousedown="handlePan(0,-1)"/>
  <use id="arrowright" xlink:href="#arrowRight" x="0" y="0" onmousedown="handlePan(1,0)"/>
  <use id="arrowdown" xlink:href="#arrowDown" x="0" y="0" onmousedown="handlePan(0,1)"/>
  <use id="arrowleft" xlink:href="#arrowLeft" x="0" y="0" onmousedown="handlePan(-1,0)"/>
</g>
<svg viewBox="0 0 15 15" width="100%" height="30px" preserveAspectRatio="xMaxYMin meet">
 <g id="arrow_out" transform="scale(0.3 0.3)">
  <a xlink:href="a00257_aef2ab25ed304717c5d288e7053b8237f_icgraph_org.svg" target="_base">
   <rect id="button" ry="5" rx="5" y="6" x="6" height="38" width="38"
        fill="#f2f5e9" fill-opacity="0.5" stroke="#606060" stroke-width="1.0"/>
   <path id="arrow"
     d="M 11.500037,31.436501 C 11.940474,20.09759 22.043105,11.32322 32.158766,21.979434 L 37.068811,17.246167 C 37.068811,17.246167 37.088388,32 37.088388,32 L 22.160133,31.978069 C 22.160133,31.978069 26.997745,27.140456 26.997745,27.140456 C 18.528582,18.264221 13.291696,25.230495 11.500037,31.436501 z"
     style="fill:#404040;"/>
  </a>
 </g>
</svg>

<style type='text/css'>
<![CDATA[
[data-mouse-over-selected='false'] { opacity: 0.7; }
[data-mouse-over-selected='true']  { opacity: 1.0; }
]]>
</style>
<script type="application/ecmascript"><![CDATA[
document.addEventListener('DOMContentLoaded', (event) => {
  highlightEdges();
  highlightAdjacentNodes();
});
]]></script>
</svg>
