<?xml version="1.0" encoding="UTF-8" standalone="no"?>
<!DOCTYPE svg PUBLIC "-//W3C//DTD SVG 1.1//EN"
 "http://www.w3.org/Graphics/SVG/1.1/DTD/svg11.dtd">
<!-- Generated by graphviz version 8.1.0 (20230707.0739)
 -->
<!-- Title: vacm_state_dc_detect Pages: 1 -->
<svg width="417pt" height="116pt"
 viewBox="0.00 0.00 416.75 116.00" xmlns="http://www.w3.org/2000/svg" xmlns:xlink="http://www.w3.org/1999/xlink">
<g id="graph0" class="graph" transform="scale(1 1) rotate(0) translate(4 112)">
<title>vacm_state_dc_detect</title>
<!-- Node1 -->
<g id="Node000001" class="node">
<title>Node1</title>
<g id="a_Node000001"><a xlink:title=" ">
<polygon fill="#999999" stroke="#666666" points="113.5,-64 0,-64 0,-44 113.5,-44 113.5,-64"/>
<text text-anchor="middle" x="56.75" y="-50.5" font-family="Helvetica,sans-Serif" font-size="10.00">vacm_state_dc_detect</text>
</a>
</g>
</g>
<!-- Node2 -->
<g id="Node000002" class="node">
<title>Node2</title>
<g id="a_Node000002"><a xlink:href="a00257.html#a15257c326e34873ee3d4465e7837e87e" target="_top" xlink:title=" ">
<polygon fill="white" stroke="#666666" points="274.25,-108 159.25,-108 159.25,-88 274.25,-88 274.25,-108"/>
<text text-anchor="middle" x="216.75" y="-94.5" font-family="Helvetica,sans-Serif" font-size="10.00">vacm_dc_input_accept</text>
</a>
</g>
</g>
<!-- Node1&#45;&gt;Node2 -->
<g id="edge1_Node000001_Node000002" class="edge">
<title>Node1&#45;&gt;Node2</title>
<g id="a_edge1_Node000001_Node000002"><a xlink:title=" ">
<path fill="none" stroke="#63b8ff" d="M95.19,-64.43C116.96,-70.49 144.6,-78.19 167.93,-84.68"/>
<polygon fill="#63b8ff" stroke="#63b8ff" points="166.73,-88.26 177.3,-87.57 168.61,-81.52 166.73,-88.26"/>
</a>
</g>
</g>
<!-- Node3 -->
<g id="Node000003" class="node">
<title>Node3</title>
<g id="a_Node000003"><a xlink:href="a00257.html#a634dc3732b7ac4380c54073b237ca710" target="_top" xlink:title=" ">
<polygon fill="white" stroke="#666666" points="284,-70 149.5,-70 149.5,-38 284,-38 284,-70"/>
<text text-anchor="start" x="157.5" y="-56.5" font-family="Helvetica,sans-Serif" font-size="10.00">vacm_reset_phase_monitor</text>
<text text-anchor="middle" x="216.75" y="-44.5" font-family="Helvetica,sans-Serif" font-size="10.00">_object</text>
</a>
</g>
</g>
<!-- Node1&#45;&gt;Node3 -->
<g id="edge2_Node000001_Node000003" class="edge">
<title>Node1&#45;&gt;Node3</title>
<g id="a_edge2_Node000001_Node000003"><a xlink:title=" ">
<path fill="none" stroke="#63b8ff" d="M113.9,-54C121.86,-54 130.15,-54 138.42,-54"/>
<polygon fill="#63b8ff" stroke="#63b8ff" points="138.25,-57.5 148.25,-54 138.25,-50.5 138.25,-57.5"/>
</a>
</g>
</g>
<!-- Node4 -->
<g id="Node000004" class="node">
<title>Node4</title>
<g id="a_Node000004"><a xlink:href="a00257.html#a4d1cffa8629c7a211d571e6c96fe94ac" target="_top" xlink:title=" ">
<polygon fill="white" stroke="#666666" points="263.38,-20 170.12,-20 170.12,0 263.38,0 263.38,-20"/>
<text text-anchor="middle" x="216.75" y="-6.5" font-family="Helvetica,sans-Serif" font-size="10.00">vacm_vin_average</text>
</a>
</g>
</g>
<!-- Node1&#45;&gt;Node4 -->
<g id="edge3_Node000001_Node000004" class="edge">
<title>Node1&#45;&gt;Node4</title>
<g id="a_edge3_Node000001_Node000004"><a xlink:title=" ">
<path fill="none" stroke="#63b8ff" d="M95.19,-43.57C116.96,-37.51 144.6,-29.81 167.93,-23.32"/>
<polygon fill="#63b8ff" stroke="#63b8ff" points="168.61,-26.48 177.3,-20.43 166.73,-19.74 168.61,-26.48"/>
</a>
</g>
</g>
<!-- Node5 -->
<g id="Node000005" class="node">
<title>Node5</title>
<g id="a_Node000005"><a xlink:href="a00257.html#aef2ab25ed304717c5d288e7053b8237f" target="_top" xlink:title=" ">
<polygon fill="white" stroke="#666666" points="408.75,-20 320,-20 320,0 408.75,0 408.75,-20"/>
<text text-anchor="middle" x="364.38" y="-6.5" font-family="Helvetica,sans-Serif" font-size="10.00">vacm_uv_ov_test</text>
</a>
</g>
</g>
<!-- Node4&#45;&gt;Node5 -->
<g id="edge4_Node000004_Node000005" class="edge">
<title>Node4&#45;&gt;Node5</title>
<g id="a_edge4_Node000004_Node000005"><a xlink:title=" ">
<path fill="none" stroke="#63b8ff" d="M263.83,-10C278.18,-10 294.13,-10 309,-10"/>
<polygon fill="#63b8ff" stroke="#63b8ff" points="308.58,-13.5 318.58,-10 308.58,-6.5 308.58,-13.5"/>
</a>
</g>
</g>
</g>
</svg>
