<?xml version="1.0" encoding="UTF-8" standalone="no"?>
<!DOCTYPE svg PUBLIC "-//W3C//DTD SVG 1.1//EN"
 "http://www.w3.org/Graphics/SVG/1.1/DTD/svg11.dtd">
<!-- Generated by graphviz version 2.44.1 (20200629.0846)
 -->
<!-- Title: vacm_timebase_update Pages: 1 -->
<svg width="742pt" height="64pt"
 viewBox="0.00 0.00 742.00 64.00" xmlns="http://www.w3.org/2000/svg" xmlns:xlink="http://www.w3.org/1999/xlink">
<g id="graph0" class="graph" transform="scale(1 1) rotate(0) translate(4 60)">
<title>vacm_timebase_update</title>
<!-- Node1 -->
<g id="Node000001" class="node">
<title>Node1</title>
<g id="a_Node000001"><a xlink:title=" ">
<polygon fill="#999999" stroke="#666666" points="734,-37 615,-37 615,-18 734,-18 734,-37"/>
<text text-anchor="middle" x="674.5" y="-25" font-family="Helvetica,sans-Serif" font-size="10.00">vacm_timebase_update</text>
</a>
</g>
</g>
<!-- Node2 -->
<g id="Node000002" class="node">
<title>Node2</title>
<g id="a_Node000002"><a xlink:href="a00257.html#a6620ac4371af55881bc354c83de9b1a9" target="_top" xlink:title=" ">
<polygon fill="white" stroke="#666666" points="579,-56 471,-56 471,-37 579,-37 579,-56"/>
<text text-anchor="middle" x="525" y="-44" font-family="Helvetica,sans-Serif" font-size="10.00">vacm_state_ac_sync</text>
</a>
</g>
</g>
<!-- Node1&#45;&gt;Node2 -->
<g id="edge1_Node000001_Node000002" class="edge">
<title>Node1&#45;&gt;Node2</title>
<g id="a_edge1_Node000001_Node000002"><a xlink:title=" ">
<path fill="none" stroke="#63b8ff" d="M604.79,-36.35C596.21,-37.46 587.55,-38.57 579.26,-39.64"/>
<polygon fill="#63b8ff" stroke="#63b8ff" points="605.31,-39.81 614.78,-35.06 604.42,-32.87 605.31,-39.81"/>
</a>
</g>
</g>
<!-- Node6 -->
<g id="Node000006" class="node">
<title>Node6</title>
<g id="a_Node000006"><a xlink:href="a00257.html#afa82391466200dde740b703017e91eec" target="_top" xlink:title=" ">
<polygon fill="white" stroke="#666666" points="573.5,-19 476.5,-19 476.5,0 573.5,0 573.5,-19"/>
<text text-anchor="middle" x="525" y="-7" font-family="Helvetica,sans-Serif" font-size="10.00">vacm_state_online</text>
</a>
</g>
</g>
<!-- Node1&#45;&gt;Node6 -->
<g id="edge5_Node000001_Node000006" class="edge">
<title>Node1&#45;&gt;Node6</title>
<g id="a_edge5_Node000001_Node000006"><a xlink:title=" ">
<path fill="none" stroke="#63b8ff" d="M604.76,-19.11C594.23,-17.83 583.57,-16.53 573.64,-15.31"/>
<polygon fill="#63b8ff" stroke="#63b8ff" points="604.43,-22.6 614.78,-20.33 605.28,-15.65 604.43,-22.6"/>
</a>
</g>
</g>
<!-- Node3 -->
<g id="Node000003" class="node">
<title>Node3</title>
<g id="a_Node000003"><a xlink:href="a00257.html#a3a965bf809d4454e8cc529cc6c3eed03" target="_top" xlink:title=" ">
<polygon fill="white" stroke="#666666" points="435,-37 327,-37 327,-18 435,-18 435,-37"/>
<text text-anchor="middle" x="381" y="-25" font-family="Helvetica,sans-Serif" font-size="10.00">vacm_state_machine</text>
</a>
</g>
</g>
<!-- Node2&#45;&gt;Node3 -->
<g id="edge2_Node000002_Node000003" class="edge">
<title>Node2&#45;&gt;Node3</title>
<g id="a_edge2_Node000002_Node000003"><a xlink:title=" ">
<path fill="none" stroke="#63b8ff" d="M460.76,-38.04C452.19,-36.89 443.47,-35.73 435.11,-34.61"/>
<polygon fill="#63b8ff" stroke="#63b8ff" points="460.34,-41.51 470.72,-39.37 461.27,-34.58 460.34,-41.51"/>
</a>
</g>
</g>
<!-- Node4 -->
<g id="Node000004" class="node">
<title>Node4</title>
<g id="a_Node000004"><a xlink:href="a00425.html#ga41351a49d0335be286c2947c26d0a07c" target="_top" xlink:title="run AC monitor for each of the 3 phases">
<polygon fill="white" stroke="#666666" points="291,-37 152,-37 152,-18 291,-18 291,-37"/>
<text text-anchor="middle" x="221.5" y="-25" font-family="Helvetica,sans-Serif" font-size="10.00">DMA_Channel_doAcMonitor</text>
</a>
</g>
</g>
<!-- Node3&#45;&gt;Node4 -->
<g id="edge3_Node000003_Node000004" class="edge">
<title>Node3&#45;&gt;Node4</title>
<g id="a_edge3_Node000003_Node000004"><a xlink:title=" ">
<path fill="none" stroke="#63b8ff" d="M316.6,-27.5C308.21,-27.5 299.59,-27.5 291.12,-27.5"/>
<polygon fill="#63b8ff" stroke="#63b8ff" points="316.68,-31 326.68,-27.5 316.68,-24 316.68,-31"/>
</a>
</g>
</g>
<!-- Node5 -->
<g id="Node000005" class="node">
<title>Node5</title>
<g id="a_Node000005"><a xlink:href="a00418.html#ga9f16d166d637fd9005839b1e1822dc63" target="_top" xlink:title="This is the default callback with weak attribute. The user can override and implement the default cal...">
<polygon fill="white" stroke="#666666" points="116,-37 0,-37 0,-18 116,-18 116,-37"/>
<text text-anchor="middle" x="58" y="-25" font-family="Helvetica,sans-Serif" font-size="10.00">DMA_ChannelCallback</text>
</a>
</g>
</g>
<!-- Node4&#45;&gt;Node5 -->
<g id="edge4_Node000004_Node000005" class="edge">
<title>Node4&#45;&gt;Node5</title>
<g id="a_edge4_Node000004_Node000005"><a xlink:title=" ">
<path fill="none" stroke="#63b8ff" d="M141.5,-27.5C132.92,-27.5 124.31,-27.5 116.06,-27.5"/>
<polygon fill="#63b8ff" stroke="#63b8ff" points="141.54,-31 151.54,-27.5 141.54,-24 141.54,-31"/>
</a>
</g>
</g>
<!-- Node6&#45;&gt;Node3 -->
<g id="edge6_Node000006_Node000003" class="edge">
<title>Node6&#45;&gt;Node3</title>
<g id="a_edge6_Node000006_Node000003"><a xlink:title=" ">
<path fill="none" stroke="#63b8ff" d="M466.22,-16.82C455.95,-18.13 445.3,-19.48 435.18,-20.76"/>
<polygon fill="#63b8ff" stroke="#63b8ff" points="466.84,-20.27 476.32,-15.54 465.96,-13.33 466.84,-20.27"/>
</a>
</g>
</g>
</g>
</svg>
