<?xml version="1.0" encoding="UTF-8" standalone="no"?>
<!DOCTYPE svg PUBLIC "-//W3C//DTD SVG 1.1//EN"
 "http://www.w3.org/Graphics/SVG/1.1/DTD/svg11.dtd">
<!-- Generated by graphviz version 8.1.0 (20230707.0739)
 -->
<!-- Title: D:/Firmware/MCU16ASMPS_TestEnvironment/_deployment/dspic33ch&#45;power&#45;totem&#45;pole&#45;demonstration&#45;application&#45;single&#45;phase/dspic33ch_totem_pole_single_phase_primary_IL.X/sources/driver/i2c/drv_i2c.c Pages: 1 -->
<svg width="363pt" height="268pt"
 viewBox="0.00 0.00 362.88 268.00" xmlns="http://www.w3.org/2000/svg" xmlns:xlink="http://www.w3.org/1999/xlink">

<svg id="main" version="1.1" xmlns="http://www.w3.org/2000/svg" xmlns:xlink="http://www.w3.org/1999/xlink" xml:space="preserve" onload="init(evt)">
<style type="text/css"><![CDATA[
.node, .edge {opacity: 0.7;}
.node.selected, .edge.selected {opacity: 1;}
.edge:hover path { stroke: red; }
.edge:hover polygon { stroke: red; fill: red; }
]]></style>
<script type="application/ecmascript" xlink:href="svg.min.js"/>
<svg id="graph" class="graph">
<g id="graph0" class="graph" transform="scale(1 1) rotate(0) translate(4 264)">
<title>D:/Firmware/MCU16ASMPS_TestEnvironment/_deployment/dspic33ch&#45;power&#45;totem&#45;pole&#45;demonstration&#45;application&#45;single&#45;phase/dspic33ch_totem_pole_single_phase_primary_IL.X/sources/driver/i2c/drv_i2c.c</title>
<!-- Node1 -->
<g id="Node000001" class="node">
<title>Node1</title>
<g id="a_Node000001"><a xlink:title="This is the driver source file for I2C driver.">
<polygon fill="#999999" stroke="#666666" points="273,-260 96.5,-260 96.5,-168 273,-168 273,-260"/>
<text text-anchor="start" x="104.5" y="-246.5" font-family="Helvetica,sans-Serif" font-size="10.00">D:/Firmware/MCU16ASMPS</text>
<text text-anchor="start" x="104.5" y="-234.5" font-family="Helvetica,sans-Serif" font-size="10.00">_TestEnvironment/_deployment</text>
<text text-anchor="start" x="104.5" y="-222.5" font-family="Helvetica,sans-Serif" font-size="10.00">/dspic33ch&#45;power&#45;totem&#45;pole</text>
<text text-anchor="start" x="104.5" y="-210.5" font-family="Helvetica,sans-Serif" font-size="10.00">&#45;demonstration&#45;application&#45;single</text>
<text text-anchor="start" x="104.5" y="-198.5" font-family="Helvetica,sans-Serif" font-size="10.00">&#45;phase/dspic33ch_totem_pole_single</text>
<text text-anchor="start" x="104.5" y="-186.5" font-family="Helvetica,sans-Serif" font-size="10.00">_phase_primary_IL.X/sources/driver</text>
<text text-anchor="middle" x="184.75" y="-174.5" font-family="Helvetica,sans-Serif" font-size="10.00">/i2c/drv_i2c.c</text>
</a>
</g>
</g>
<!-- Node2 -->
<g id="Node000002" class="node">
<title>Node2</title>
<g id="a_Node000002"><a xlink:title=" ">
<polygon fill="#e0e0e0" stroke="#999999" points="147.12,-20 112.38,-20 112.38,0 147.12,0 147.12,-20"/>
<text text-anchor="middle" x="129.75" y="-6.5" font-family="Helvetica,sans-Serif" font-size="10.00">xc.h</text>
</a>
</g>
</g>
<!-- Node1&#45;&gt;Node2 -->
<g id="edge1_Node000001_Node000002" class="edge">
<title>Node1&#45;&gt;Node2</title>
<g id="a_edge1_Node000001_Node000002"><a xlink:title=" ">
<path fill="none" stroke="#63b8ff" d="M162.04,-167.53C157.06,-156.15 152.23,-143.81 148.75,-132 138.5,-97.28 133.48,-55.23 131.27,-30.95"/>
<polygon fill="#63b8ff" stroke="#63b8ff" points="134.7,-30.96 130.37,-21.29 127.72,-31.55 134.7,-30.96"/>
</a>
</g>
</g>
<!-- Node3 -->
<g id="Node000003" class="node">
<title>Node3</title>
<g id="a_Node000003"><a xlink:href="a00242.html" target="_top" xlink:title="This is the driver header file for DMA driver.">
<polygon fill="white" stroke="#666666" points="211.88,-132 157.62,-132 157.62,-112 211.88,-112 211.88,-132"/>
<text text-anchor="middle" x="184.75" y="-118.5" font-family="Helvetica,sans-Serif" font-size="10.00">drv_i2c.h</text>
</a>
</g>
</g>
<!-- Node1&#45;&gt;Node3 -->
<g id="edge2_Node000001_Node000003" class="edge">
<title>Node1&#45;&gt;Node3</title>
<g id="a_edge2_Node000001_Node000003"><a xlink:title=" ">
<path fill="none" stroke="#63b8ff" d="M184.75,-167.74C184.75,-159.1 184.75,-150.48 184.75,-143.14"/>
<polygon fill="#63b8ff" stroke="#63b8ff" points="188.25,-143.23 184.75,-133.23 181.25,-143.23 188.25,-143.23"/>
</a>
</g>
</g>
<!-- Node4 -->
<g id="Node000004" class="node">
<title>Node4</title>
<g id="a_Node000004"><a xlink:href="a00248_source.html" target="_top" xlink:title=" ">
<polygon fill="white" stroke="#666666" points="257.88,-76 215.62,-76 215.62,-56 257.88,-56 257.88,-76"/>
<text text-anchor="middle" x="236.75" y="-62.5" font-family="Helvetica,sans-Serif" font-size="10.00">i2c2.h</text>
</a>
</g>
</g>
<!-- Node1&#45;&gt;Node4 -->
<g id="edge11_Node000001_Node000004" class="edge">
<title>Node1&#45;&gt;Node4</title>
<g id="a_edge11_Node000001_Node000004"><a xlink:title=" ">
<path fill="none" stroke="#63b8ff" d="M206.56,-167.73C211.63,-156.23 216.71,-143.79 220.75,-132 225.82,-117.18 229.99,-99.96 232.8,-86.96"/>
<polygon fill="#63b8ff" stroke="#63b8ff" points="236.38,-87.91 234.98,-77.41 229.53,-86.49 236.38,-87.91"/>
</a>
</g>
</g>
<!-- Node8 -->
<g id="Node000008" class="node">
<title>Node8</title>
<g id="a_Node000008"><a xlink:href="a00230.html" target="_top" xlink:title="header of the CAN Driver">
<polygon fill="white" stroke="#666666" points="101.5,-76 0,-76 0,-56 101.5,-56 101.5,-76"/>
<text text-anchor="middle" x="50.75" y="-62.5" font-family="Helvetica,sans-Serif" font-size="10.00">driver/can/drv_can.h</text>
</a>
</g>
</g>
<!-- Node1&#45;&gt;Node8 -->
<g id="edge9_Node000001_Node000008" class="edge">
<title>Node1&#45;&gt;Node8</title>
<g id="a_edge9_Node000001_Node000008"><a xlink:title=" ">
<path fill="none" stroke="#63b8ff" d="M143.09,-167.61C117.25,-139.46 85.53,-104.89 66.79,-84.48"/>
<polygon fill="#63b8ff" stroke="#63b8ff" points="69.73,-82.41 60.39,-77.41 64.57,-87.14 69.73,-82.41"/>
</a>
</g>
</g>
<!-- Node9 -->
<g id="Node000009" class="node">
<title>Node9</title>
<g id="a_Node000009"><a xlink:title=" ">
<polygon fill="#e0e0e0" stroke="#999999" points="345.5,-132 268,-132 268,-112 345.5,-112 345.5,-132"/>
<text text-anchor="middle" x="306.75" y="-118.5" font-family="Helvetica,sans-Serif" font-size="10.00">system/pins.h</text>
</a>
</g>
</g>
<!-- Node1&#45;&gt;Node9 -->
<g id="edge12_Node000001_Node000009" class="edge">
<title>Node1&#45;&gt;Node9</title>
<g id="a_edge12_Node000001_Node000009"><a xlink:title=" ">
<path fill="none" stroke="#63b8ff" d="M246.11,-167.74C260.24,-157.31 274.35,-146.9 285.4,-138.75"/>
<polygon fill="#63b8ff" stroke="#63b8ff" points="287.27,-140.98 293.24,-132.23 283.12,-135.35 287.27,-140.98"/>
</a>
</g>
</g>
<!-- Node3&#45;&gt;Node2 -->
<g id="edge3_Node000003_Node000002" class="edge">
<title>Node3&#45;&gt;Node2</title>
<g id="a_edge3_Node000003_Node000002"><a xlink:title=" ">
<path fill="none" stroke="#63b8ff" d="M180.06,-111.62C171.05,-93.6 151.16,-53.81 139.26,-30.02"/>
<polygon fill="#63b8ff" stroke="#63b8ff" points="142.03,-28.73 134.43,-21.35 135.77,-31.86 142.03,-28.73"/>
</a>
</g>
</g>
<!-- Node3&#45;&gt;Node4 -->
<g id="edge4_Node000003_Node000004" class="edge">
<title>Node3&#45;&gt;Node4</title>
<g id="a_edge4_Node000003_Node000004"><a xlink:title=" ">
<path fill="none" stroke="#63b8ff" d="M193.81,-111.59C201.12,-104.01 211.58,-93.13 220.36,-84.02"/>
<polygon fill="#63b8ff" stroke="#63b8ff" points="222.38,-86.93 226.8,-77.3 217.34,-82.07 222.38,-86.93"/>
</a>
</g>
</g>
<!-- Node4&#45;&gt;Node2 -->
<g id="edge8_Node000004_Node000002" class="edge">
<title>Node4&#45;&gt;Node2</title>
<g id="a_edge8_Node000004_Node000002"><a xlink:title=" ">
<path fill="none" stroke="#63b8ff" d="M218.11,-55.59C201.26,-47.09 176.24,-34.46 157.12,-24.81"/>
<polygon fill="#63b8ff" stroke="#63b8ff" points="158.97,-21.32 148.46,-19.94 155.81,-27.57 158.97,-21.32"/>
</a>
</g>
</g>
<!-- Node5 -->
<g id="Node000005" class="node">
<title>Node5</title>
<g id="a_Node000005"><a xlink:title=" ">
<polygon fill="#e0e0e0" stroke="#999999" points="354.88,-20 306.62,-20 306.62,0 354.88,0 354.88,-20"/>
<text text-anchor="middle" x="330.75" y="-6.5" font-family="Helvetica,sans-Serif" font-size="10.00">stdint.h</text>
</a>
</g>
</g>
<!-- Node4&#45;&gt;Node5 -->
<g id="edge5_Node000004_Node000005" class="edge">
<title>Node4&#45;&gt;Node5</title>
<g id="a_edge5_Node000004_Node000005"><a xlink:title=" ">
<path fill="none" stroke="#63b8ff" d="M253.12,-55.59C267.46,-47.36 288.52,-35.26 305.1,-25.74"/>
<polygon fill="#63b8ff" stroke="#63b8ff" points="306.32,-28.5 313.25,-20.48 302.83,-22.43 306.32,-28.5"/>
</a>
</g>
</g>
<!-- Node6 -->
<g id="Node000006" class="node">
<title>Node6</title>
<g id="a_Node000006"><a xlink:title=" ">
<polygon fill="#e0e0e0" stroke="#999999" points="220.62,-20 164.88,-20 164.88,0 220.62,0 220.62,-20"/>
<text text-anchor="middle" x="192.75" y="-6.5" font-family="Helvetica,sans-Serif" font-size="10.00">stdbool.h</text>
</a>
</g>
</g>
<!-- Node4&#45;&gt;Node6 -->
<g id="edge6_Node000004_Node000006" class="edge">
<title>Node4&#45;&gt;Node6</title>
<g id="a_edge6_Node000004_Node000006"><a xlink:title=" ">
<path fill="none" stroke="#63b8ff" d="M229.09,-55.59C223.03,-48.16 214.4,-37.58 207.08,-28.58"/>
<polygon fill="#63b8ff" stroke="#63b8ff" points="209.36,-26.84 200.33,-21.3 203.93,-31.26 209.36,-26.84"/>
</a>
</g>
</g>
<!-- Node7 -->
<g id="Node000007" class="node">
<title>Node7</title>
<g id="a_Node000007"><a xlink:title=" ">
<polygon fill="#e0e0e0" stroke="#999999" points="289,-20 238.5,-20 238.5,0 289,0 289,-20"/>
<text text-anchor="middle" x="263.75" y="-6.5" font-family="Helvetica,sans-Serif" font-size="10.00">stddef.h</text>
</a>
</g>
</g>
<!-- Node4&#45;&gt;Node7 -->
<g id="edge7_Node000004_Node000007" class="edge">
<title>Node4&#45;&gt;Node7</title>
<g id="a_edge7_Node000004_Node000007"><a xlink:title=" ">
<path fill="none" stroke="#63b8ff" d="M241.45,-55.59C244.98,-48.55 249.92,-38.67 254.25,-30"/>
<polygon fill="#63b8ff" stroke="#63b8ff" points="257.76,-31.81 259.1,-21.3 251.5,-28.68 257.76,-31.81"/>
</a>
</g>
</g>
<!-- Node8&#45;&gt;Node2 -->
<g id="edge10_Node000008_Node000002" class="edge">
<title>Node8&#45;&gt;Node2</title>
<g id="a_edge10_Node000008_Node000002"><a xlink:title=" ">
<path fill="none" stroke="#63b8ff" d="M64.51,-55.59C76.22,-47.59 93.27,-35.93 107.01,-26.54"/>
<polygon fill="#63b8ff" stroke="#63b8ff" points="108.6,-29.01 114.88,-20.48 104.65,-23.23 108.6,-29.01"/>
</a>
</g>
</g>
</g>
</svg>
</svg>

<style type='text/css'>
<![CDATA[
[data-mouse-over-selected='false'] { opacity: 0.7; }
[data-mouse-over-selected='true']  { opacity: 1.0; }
]]>
</style>
<script type="application/ecmascript"><![CDATA[
document.addEventListener('DOMContentLoaded', (event) => {
  highlightEdges();
  highlightAdjacentNodes();
});
]]></script>
</svg>
