<?xml version="1.0" encoding="UTF-8" standalone="no"?>
<!DOCTYPE svg PUBLIC "-//W3C//DTD SVG 1.1//EN"
 "http://www.w3.org/Graphics/SVG/1.1/DTD/svg11.dtd">
<!-- Generated by graphviz version 8.1.0 (20230707.0739)
 -->
<!-- Title: D:/Firmware/MCU16ASMPS_TestEnvironment/_deployment/dspic33ch&#45;power&#45;totem&#45;pole&#45;demonstration&#45;application&#45;single&#45;phase/dspic33ch_totem_pole_single_phase_primary_IL.X/mcc_generated_files/timer/src/sccp1.c Pages: 1 -->
<svg width="326pt" height="280pt"
 viewBox="0.00 0.00 326.12 280.00" xmlns="http://www.w3.org/2000/svg" xmlns:xlink="http://www.w3.org/1999/xlink">

<svg id="main" version="1.1" xmlns="http://www.w3.org/2000/svg" xmlns:xlink="http://www.w3.org/1999/xlink" xml:space="preserve" onload="init(evt)">
<style type="text/css"><![CDATA[
.node, .edge {opacity: 0.7;}
.node.selected, .edge.selected {opacity: 1;}
.edge:hover path { stroke: red; }
.edge:hover polygon { stroke: red; fill: red; }
]]></style>
<script type="application/ecmascript" xlink:href="svg.min.js"/>
<svg id="graph" class="graph">
<g id="graph0" class="graph" transform="scale(1 1) rotate(0) translate(4 276)">
<title>D:/Firmware/MCU16ASMPS_TestEnvironment/_deployment/dspic33ch&#45;power&#45;totem&#45;pole&#45;demonstration&#45;application&#45;single&#45;phase/dspic33ch_totem_pole_single_phase_primary_IL.X/mcc_generated_files/timer/src/sccp1.c</title>
<!-- Node1 -->
<g id="Node000001" class="node">
<title>Node1</title>
<g id="a_Node000001"><a xlink:title="This is the generated driver source file for SCCP1&#45;TIMER driver.">
<polygon fill="#999999" stroke="#666666" points="313.12,-272 136.62,-272 136.62,-180 313.12,-180 313.12,-272"/>
<text text-anchor="start" x="144.62" y="-258.5" font-family="Helvetica,sans-Serif" font-size="10.00">D:/Firmware/MCU16ASMPS</text>
<text text-anchor="start" x="144.62" y="-246.5" font-family="Helvetica,sans-Serif" font-size="10.00">_TestEnvironment/_deployment</text>
<text text-anchor="start" x="144.62" y="-234.5" font-family="Helvetica,sans-Serif" font-size="10.00">/dspic33ch&#45;power&#45;totem&#45;pole</text>
<text text-anchor="start" x="144.62" y="-222.5" font-family="Helvetica,sans-Serif" font-size="10.00">&#45;demonstration&#45;application&#45;single</text>
<text text-anchor="start" x="144.62" y="-210.5" font-family="Helvetica,sans-Serif" font-size="10.00">&#45;phase/dspic33ch_totem_pole_single</text>
<text text-anchor="start" x="144.62" y="-198.5" font-family="Helvetica,sans-Serif" font-size="10.00">_phase_primary_IL.X/mcc_generated</text>
<text text-anchor="middle" x="224.88" y="-186.5" font-family="Helvetica,sans-Serif" font-size="10.00">_files/timer/src/sccp1.c</text>
</a>
</g>
</g>
<!-- Node2 -->
<g id="Node000002" class="node">
<title>Node2</title>
<g id="a_Node000002"><a xlink:title=" ">
<polygon fill="#e0e0e0" stroke="#999999" points="318.12,-26 267.62,-26 267.62,-6 318.12,-6 318.12,-26"/>
<text text-anchor="middle" x="292.88" y="-12.5" font-family="Helvetica,sans-Serif" font-size="10.00">stddef.h</text>
</a>
</g>
</g>
<!-- Node1&#45;&gt;Node2 -->
<g id="edge1_Node000001_Node000002" class="edge">
<title>Node1&#45;&gt;Node2</title>
<g id="a_edge1_Node000001_Node000002"><a xlink:title=" ">
<path fill="none" stroke="#63b8ff" d="M253.34,-179.69C267.9,-153.88 284.16,-120.32 291.88,-88 295.9,-71.14 295.81,-51.38 294.9,-36.99"/>
<polygon fill="#63b8ff" stroke="#63b8ff" points="298.34,-37.03 294.03,-27.35 291.36,-37.6 298.34,-37.03"/>
</a>
</g>
</g>
<!-- Node3 -->
<g id="Node000003" class="node">
<title>Node3</title>
<g id="a_Node000003"><a xlink:href="a00203.html" target="_top" xlink:title="This is the generated driver header file for the SCCP1&#45;TIMER driver.">
<polygon fill="white" stroke="#666666" points="254.62,-144 195.12,-144 195.12,-124 254.62,-124 254.62,-144"/>
<text text-anchor="middle" x="224.88" y="-130.5" font-family="Helvetica,sans-Serif" font-size="10.00">../sccp1.h</text>
</a>
</g>
</g>
<!-- Node1&#45;&gt;Node3 -->
<g id="edge2_Node000001_Node000003" class="edge">
<title>Node1&#45;&gt;Node3</title>
<g id="a_edge2_Node000001_Node000003"><a xlink:title=" ">
<path fill="none" stroke="#63b8ff" d="M224.88,-179.74C224.88,-171.1 224.88,-162.48 224.88,-155.14"/>
<polygon fill="#63b8ff" stroke="#63b8ff" points="228.38,-155.23 224.88,-145.23 221.38,-155.23 228.38,-155.23"/>
</a>
</g>
</g>
<!-- Node6 -->
<g id="Node000006" class="node">
<title>Node6</title>
<g id="a_Node000006"><a xlink:href="a00877_source.html" target="_top" xlink:title=" ">
<polygon fill="white" stroke="#666666" points="174.88,-88 86.88,-88 86.88,-68 174.88,-68 174.88,-88"/>
<text text-anchor="middle" x="130.88" y="-74.5" font-family="Helvetica,sans-Serif" font-size="10.00">timer_interface.h</text>
</a>
</g>
</g>
<!-- Node1&#45;&gt;Node6 -->
<g id="edge11_Node000001_Node000006" class="edge">
<title>Node1&#45;&gt;Node6</title>
<g id="a_edge11_Node000001_Node000006"><a xlink:title=" ">
<path fill="none" stroke="#63b8ff" d="M195.65,-179.61C177.85,-151.96 156.07,-118.13 142.84,-97.59"/>
<polygon fill="#63b8ff" stroke="#63b8ff" points="145.29,-95.92 136.93,-89.41 139.4,-99.71 145.29,-95.92"/>
</a>
</g>
</g>
<!-- Node3&#45;&gt;Node2 -->
<g id="edge3_Node000003_Node000002" class="edge">
<title>Node3&#45;&gt;Node2</title>
<g id="a_edge3_Node000003_Node000002"><a xlink:title=" ">
<path fill="none" stroke="#63b8ff" d="M238.95,-123.54C250.02,-115.38 265.02,-102.62 273.88,-88 283.37,-72.33 288.19,-51.9 290.59,-36.98"/>
<polygon fill="#63b8ff" stroke="#63b8ff" points="294.16,-37.77 292.05,-27.39 287.22,-36.82 294.16,-37.77"/>
</a>
</g>
</g>
<!-- Node4 -->
<g id="Node000004" class="node">
<title>Node4</title>
<g id="a_Node000004"><a xlink:title=" ">
<polygon fill="#e0e0e0" stroke="#999999" points="236,-26 187.75,-26 187.75,-6 236,-6 236,-26"/>
<text text-anchor="middle" x="211.88" y="-12.5" font-family="Helvetica,sans-Serif" font-size="10.00">stdint.h</text>
</a>
</g>
</g>
<!-- Node3&#45;&gt;Node4 -->
<g id="edge4_Node000003_Node000004" class="edge">
<title>Node3&#45;&gt;Node4</title>
<g id="a_edge4_Node000003_Node000004"><a xlink:title=" ">
<path fill="none" stroke="#63b8ff" d="M223.81,-123.51C221.71,-104.72 216.97,-62.44 214.13,-37.16"/>
<polygon fill="#63b8ff" stroke="#63b8ff" points="217.51,-36.85 212.92,-27.3 210.55,-37.63 217.51,-36.85"/>
</a>
</g>
</g>
<!-- Node5 -->
<g id="Node000005" class="node">
<title>Node5</title>
<g id="a_Node000005"><a xlink:title=" ">
<polygon fill="#e0e0e0" stroke="#999999" points="265.25,-88 230.5,-88 230.5,-68 265.25,-68 265.25,-88"/>
<text text-anchor="middle" x="247.88" y="-74.5" font-family="Helvetica,sans-Serif" font-size="10.00">xc.h</text>
</a>
</g>
</g>
<!-- Node3&#45;&gt;Node5 -->
<g id="edge5_Node000003_Node000005" class="edge">
<title>Node3&#45;&gt;Node5</title>
<g id="a_edge5_Node000003_Node000005"><a xlink:title=" ">
<path fill="none" stroke="#63b8ff" d="M228.88,-123.59C231.85,-116.63 236,-106.89 239.66,-98.29"/>
<polygon fill="#63b8ff" stroke="#63b8ff" points="243.22,-99.87 243.91,-89.3 236.78,-97.13 243.22,-99.87"/>
</a>
</g>
</g>
<!-- Node3&#45;&gt;Node6 -->
<g id="edge6_Node000003_Node000006" class="edge">
<title>Node3&#45;&gt;Node6</title>
<g id="a_edge6_Node000003_Node000006"><a xlink:title=" ">
<path fill="none" stroke="#63b8ff" d="M208.5,-123.59C194.17,-115.36 173.1,-103.26 156.53,-93.74"/>
<polygon fill="#63b8ff" stroke="#63b8ff" points="158.79,-90.43 148.38,-88.48 155.3,-96.5 158.79,-90.43"/>
</a>
</g>
</g>
<!-- Node6&#45;&gt;Node2 -->
<g id="edge7_Node000006_Node000002" class="edge">
<title>Node6&#45;&gt;Node2</title>
<g id="a_edge7_Node000006_Node000002"><a xlink:title=" ">
<path fill="none" stroke="#63b8ff" d="M156.19,-67.62C183.33,-57.57 226.65,-41.53 257.23,-30.2"/>
<polygon fill="#63b8ff" stroke="#63b8ff" points="258.31,-33.16 266.47,-26.41 255.88,-26.6 258.31,-33.16"/>
</a>
</g>
</g>
<!-- Node6&#45;&gt;Node4 -->
<g id="edge8_Node000006_Node000004" class="edge">
<title>Node6&#45;&gt;Node4</title>
<g id="a_edge8_Node000006_Node000004"><a xlink:title=" ">
<path fill="none" stroke="#63b8ff" d="M143.53,-67.62C156.13,-58.29 175.71,-43.79 190.68,-32.7"/>
<polygon fill="#63b8ff" stroke="#63b8ff" points="192.36,-35.07 198.31,-26.31 188.19,-29.45 192.36,-35.07"/>
</a>
</g>
</g>
<!-- Node7 -->
<g id="Node000007" class="node">
<title>Node7</title>
<g id="a_Node000007"><a xlink:title=" ">
<polygon fill="#e0e0e0" stroke="#999999" points="55.75,-26 0,-26 0,-6 55.75,-6 55.75,-26"/>
<text text-anchor="middle" x="27.88" y="-12.5" font-family="Helvetica,sans-Serif" font-size="10.00">stdbool.h</text>
</a>
</g>
</g>
<!-- Node6&#45;&gt;Node7 -->
<g id="edge9_Node000006_Node000007" class="edge">
<title>Node6&#45;&gt;Node7</title>
<g id="a_edge9_Node000006_Node000007"><a xlink:title=" ">
<path fill="none" stroke="#63b8ff" d="M114.78,-67.62C98.3,-58.03 72.45,-42.97 53.22,-31.77"/>
<polygon fill="#63b8ff" stroke="#63b8ff" points="55.26,-28.32 44.86,-26.31 51.73,-34.37 55.26,-28.32"/>
</a>
</g>
</g>
<!-- Node8 -->
<g id="Node000008" class="node">
<title>Node8</title>
<g id="a_Node000008"><a xlink:href="a00775_source.html" target="_top" xlink:title=" ">
<polygon fill="white" stroke="#666666" points="169.62,-32 74.12,-32 74.12,0 169.62,0 169.62,-32"/>
<text text-anchor="start" x="82.12" y="-18.5" font-family="Helvetica,sans-Serif" font-size="10.00">../system/interrupt</text>
<text text-anchor="middle" x="121.88" y="-6.5" font-family="Helvetica,sans-Serif" font-size="10.00">_types.h</text>
</a>
</g>
</g>
<!-- Node6&#45;&gt;Node8 -->
<g id="edge10_Node000006_Node000008" class="edge">
<title>Node6&#45;&gt;Node8</title>
<g id="a_edge10_Node000006_Node000008"><a xlink:title=" ">
<path fill="none" stroke="#63b8ff" d="M129.47,-67.62C128.47,-60.95 127.07,-51.64 125.75,-42.82"/>
<polygon fill="#63b8ff" stroke="#63b8ff" points="129.09,-42.51 124.15,-33.14 122.17,-43.55 129.09,-42.51"/>
</a>
</g>
</g>
</g>
</svg>
</svg>

<style type='text/css'>
<![CDATA[
[data-mouse-over-selected='false'] { opacity: 0.7; }
[data-mouse-over-selected='true']  { opacity: 1.0; }
]]>
</style>
<script type="application/ecmascript"><![CDATA[
document.addEventListener('DOMContentLoaded', (event) => {
  highlightEdges();
  highlightAdjacentNodes();
});
]]></script>
</svg>
