<?xml version="1.0" encoding="UTF-8" standalone="no"?>
<!DOCTYPE svg PUBLIC "-//W3C//DTD SVG 1.1//EN"
 "http://www.w3.org/Graphics/SVG/1.1/DTD/svg11.dtd">
<!-- Generated by graphviz version 2.44.1 (20200629.0846)
 -->
<!-- Title: vacm_polarity_update Pages: 1 -->
<svg width="745pt" height="101pt"
 viewBox="0.00 0.00 745.00 101.00" xmlns="http://www.w3.org/2000/svg" xmlns:xlink="http://www.w3.org/1999/xlink">
<g id="graph0" class="graph" transform="scale(1 1) rotate(0) translate(4 97)">
<title>vacm_polarity_update</title>
<!-- Node1 -->
<g id="Node000001" class="node">
<title>Node1</title>
<g id="a_Node000001"><a xlink:title=" ">
<polygon fill="#999999" stroke="#666666" points="737,-56 627,-56 627,-37 737,-37 737,-56"/>
<text text-anchor="middle" x="682" y="-44" font-family="Helvetica,sans-Serif" font-size="10.00">vacm_polarity_update</text>
</a>
</g>
</g>
<!-- Node2 -->
<g id="Node000002" class="node">
<title>Node2</title>
<g id="a_Node000002"><a xlink:href="a00257.html#a6620ac4371af55881bc354c83de9b1a9" target="_top" xlink:title=" ">
<polygon fill="white" stroke="#666666" points="585,-93 477,-93 477,-74 585,-74 585,-93"/>
<text text-anchor="middle" x="531" y="-81" font-family="Helvetica,sans-Serif" font-size="10.00">vacm_state_ac_sync</text>
</a>
</g>
</g>
<!-- Node1&#45;&gt;Node2 -->
<g id="edge1_Node000001_Node000002" class="edge">
<title>Node1&#45;&gt;Node2</title>
<g id="a_edge1_Node000001_Node000002"><a xlink:title=" ">
<path fill="none" stroke="#63b8ff" d="M632.7,-58.49C612.55,-63.5 589.48,-69.23 570.5,-73.94"/>
<polygon fill="#63b8ff" stroke="#63b8ff" points="633.77,-61.84 642.63,-56.03 632.08,-55.04 633.77,-61.84"/>
</a>
</g>
</g>
<!-- Node6 -->
<g id="Node000006" class="node">
<title>Node6</title>
<g id="a_Node000006"><a xlink:href="a00257.html#afa82391466200dde740b703017e91eec" target="_top" xlink:title=" ">
<polygon fill="white" stroke="#666666" points="579.5,-56 482.5,-56 482.5,-37 579.5,-37 579.5,-56"/>
<text text-anchor="middle" x="531" y="-44" font-family="Helvetica,sans-Serif" font-size="10.00">vacm_state_online</text>
</a>
</g>
</g>
<!-- Node1&#45;&gt;Node6 -->
<g id="edge5_Node000001_Node000006" class="edge">
<title>Node1&#45;&gt;Node6</title>
<g id="a_edge5_Node000001_Node000006"><a xlink:title=" ">
<path fill="none" stroke="#63b8ff" d="M616.48,-46.5C604.07,-46.5 591.28,-46.5 579.52,-46.5"/>
<polygon fill="#63b8ff" stroke="#63b8ff" points="616.79,-50 626.79,-46.5 616.79,-43 616.79,-50"/>
</a>
</g>
</g>
<!-- Node7 -->
<g id="Node000007" class="node">
<title>Node7</title>
<g id="a_Node000007"><a xlink:href="a00257.html#a4dbe7572d068bb830e05117273a90817" target="_top" xlink:title=" ">
<polygon fill="white" stroke="#666666" points="591,-19 471,-19 471,0 591,0 591,-19"/>
<text text-anchor="middle" x="531" y="-7" font-family="Helvetica,sans-Serif" font-size="10.00">vacm_state_wait_for_zc</text>
</a>
</g>
</g>
<!-- Node1&#45;&gt;Node7 -->
<g id="edge7_Node000001_Node000007" class="edge">
<title>Node1&#45;&gt;Node7</title>
<g id="a_edge7_Node000001_Node000007"><a xlink:title=" ">
<path fill="none" stroke="#63b8ff" d="M632.7,-34.51C612.55,-29.5 589.48,-23.77 570.5,-19.06"/>
<polygon fill="#63b8ff" stroke="#63b8ff" points="632.08,-37.96 642.63,-36.97 633.77,-31.16 632.08,-37.96"/>
</a>
</g>
</g>
<!-- Node3 -->
<g id="Node000003" class="node">
<title>Node3</title>
<g id="a_Node000003"><a xlink:href="a00257.html#a3a965bf809d4454e8cc529cc6c3eed03" target="_top" xlink:title=" ">
<polygon fill="white" stroke="#666666" points="435,-56 327,-56 327,-37 435,-37 435,-56"/>
<text text-anchor="middle" x="381" y="-44" font-family="Helvetica,sans-Serif" font-size="10.00">vacm_state_machine</text>
</a>
</g>
</g>
<!-- Node2&#45;&gt;Node3 -->
<g id="edge2_Node000002_Node000003" class="edge">
<title>Node2&#45;&gt;Node3</title>
<g id="a_edge2_Node000002_Node000003"><a xlink:title=" ">
<path fill="none" stroke="#63b8ff" d="M482.03,-71.51C462.01,-66.5 439.09,-60.77 420.24,-56.06"/>
<polygon fill="#63b8ff" stroke="#63b8ff" points="481.34,-74.94 491.89,-73.97 483.03,-68.15 481.34,-74.94"/>
</a>
</g>
</g>
<!-- Node4 -->
<g id="Node000004" class="node">
<title>Node4</title>
<g id="a_Node000004"><a xlink:href="a00425.html#ga41351a49d0335be286c2947c26d0a07c" target="_top" xlink:title="run AC monitor for each of the 3 phases">
<polygon fill="white" stroke="#666666" points="291,-56 152,-56 152,-37 291,-37 291,-56"/>
<text text-anchor="middle" x="221.5" y="-44" font-family="Helvetica,sans-Serif" font-size="10.00">DMA_Channel_doAcMonitor</text>
</a>
</g>
</g>
<!-- Node3&#45;&gt;Node4 -->
<g id="edge3_Node000003_Node000004" class="edge">
<title>Node3&#45;&gt;Node4</title>
<g id="a_edge3_Node000003_Node000004"><a xlink:title=" ">
<path fill="none" stroke="#63b8ff" d="M316.6,-46.5C308.21,-46.5 299.59,-46.5 291.12,-46.5"/>
<polygon fill="#63b8ff" stroke="#63b8ff" points="316.68,-50 326.68,-46.5 316.68,-43 316.68,-50"/>
</a>
</g>
</g>
<!-- Node5 -->
<g id="Node000005" class="node">
<title>Node5</title>
<g id="a_Node000005"><a xlink:href="a00418.html#ga9f16d166d637fd9005839b1e1822dc63" target="_top" xlink:title="This is the default callback with weak attribute. The user can override and implement the default cal...">
<polygon fill="white" stroke="#666666" points="116,-56 0,-56 0,-37 116,-37 116,-56"/>
<text text-anchor="middle" x="58" y="-44" font-family="Helvetica,sans-Serif" font-size="10.00">DMA_ChannelCallback</text>
</a>
</g>
</g>
<!-- Node4&#45;&gt;Node5 -->
<g id="edge4_Node000004_Node000005" class="edge">
<title>Node4&#45;&gt;Node5</title>
<g id="a_edge4_Node000004_Node000005"><a xlink:title=" ">
<path fill="none" stroke="#63b8ff" d="M141.5,-46.5C132.92,-46.5 124.31,-46.5 116.06,-46.5"/>
<polygon fill="#63b8ff" stroke="#63b8ff" points="141.54,-50 151.54,-46.5 141.54,-43 141.54,-50"/>
</a>
</g>
</g>
<!-- Node6&#45;&gt;Node3 -->
<g id="edge6_Node000006_Node000003" class="edge">
<title>Node6&#45;&gt;Node3</title>
<g id="a_edge6_Node000006_Node000003"><a xlink:title=" ">
<path fill="none" stroke="#63b8ff" d="M472.28,-46.5C460.07,-46.5 447.23,-46.5 435.2,-46.5"/>
<polygon fill="#63b8ff" stroke="#63b8ff" points="472.36,-50 482.36,-46.5 472.36,-43 472.36,-50"/>
</a>
</g>
</g>
<!-- Node7&#45;&gt;Node3 -->
<g id="edge8_Node000007_Node000003" class="edge">
<title>Node7&#45;&gt;Node3</title>
<g id="a_edge8_Node000007_Node000003"><a xlink:title=" ">
<path fill="none" stroke="#63b8ff" d="M482.03,-21.49C462.01,-26.5 439.09,-32.23 420.24,-36.94"/>
<polygon fill="#63b8ff" stroke="#63b8ff" points="483.03,-24.85 491.89,-19.03 481.34,-18.06 483.03,-24.85"/>
</a>
</g>
</g>
</g>
</svg>
