<?xml version="1.0" encoding="UTF-8" standalone="no"?>
<!DOCTYPE svg PUBLIC "-//W3C//DTD SVG 1.1//EN"
 "http://www.w3.org/Graphics/SVG/1.1/DTD/svg11.dtd">
<!-- Generated by graphviz version 2.44.1 (20200629.0846)
 -->
<!-- Title: C:/Users/M70027/Documents/Projects/tp&#45;deployment/dspic33ch&#45;power&#45;totem&#45;pole&#45;demonstration&#45;application&#45;single&#45;phase_v2/dspic33ch_totem_pole_single_phase_secondary_IL.X/mcc_generated_files/adc/adc1.h Pages: 1 -->
<svg width="337pt" height="214pt"
 viewBox="0.00 0.00 336.50 214.00" xmlns="http://www.w3.org/2000/svg" xmlns:xlink="http://www.w3.org/1999/xlink">
<g id="graph0" class="graph" transform="scale(1 1) rotate(0) translate(4 210)">
<title>C:/Users/M70027/Documents/Projects/tp&#45;deployment/dspic33ch&#45;power&#45;totem&#45;pole&#45;demonstration&#45;application&#45;single&#45;phase_v2/dspic33ch_totem_pole_single_phase_secondary_IL.X/mcc_generated_files/adc/adc1.h</title>
<!-- Node1 -->
<g id="Node000001" class="node">
<title>Node1</title>
<g id="a_Node000001"><a xlink:title="This is the generated driver header file for the ADC1 driver.">
<polygon fill="#999999" stroke="#666666" points="188,-206 15,-206 15,-121 188,-121 188,-206"/>
<text text-anchor="start" x="23" y="-194" font-family="Helvetica,sans-Serif" font-size="10.00">C:/Users/M70027/Documents</text>
<text text-anchor="start" x="23" y="-183" font-family="Helvetica,sans-Serif" font-size="10.00">/Projects/tp&#45;deployment</text>
<text text-anchor="start" x="23" y="-172" font-family="Helvetica,sans-Serif" font-size="10.00">/dspic33ch&#45;power&#45;totem&#45;pole</text>
<text text-anchor="start" x="23" y="-161" font-family="Helvetica,sans-Serif" font-size="10.00">&#45;demonstration&#45;application</text>
<text text-anchor="start" x="23" y="-150" font-family="Helvetica,sans-Serif" font-size="10.00">&#45;single&#45;phase_v2/dspic33ch_totem</text>
<text text-anchor="start" x="23" y="-139" font-family="Helvetica,sans-Serif" font-size="10.00">_pole_single_phase_secondary_IL.X</text>
<text text-anchor="middle" x="101.5" y="-128" font-family="Helvetica,sans-Serif" font-size="10.00">/mcc_generated_files/adc/adc1.h</text>
</a>
</g>
</g>
<!-- Node2 -->
<g id="Node000002" class="node">
<title>Node2</title>
<g id="a_Node000002"><a xlink:title=" ">
<polygon fill="#e0e0e0" stroke="#999999" points="35,-85 0,-85 0,-66 35,-66 35,-85"/>
<text text-anchor="middle" x="17.5" y="-73" font-family="Helvetica,sans-Serif" font-size="10.00">xc.h</text>
</a>
</g>
</g>
<!-- Node1&#45;&gt;Node2 -->
<g id="edge1_Node000001_Node000002" class="edge">
<title>Node1&#45;&gt;Node2</title>
<g id="a_edge1_Node000001_Node000002"><a xlink:title=" ">
<path fill="none" stroke="#63b8ff" d="M60.73,-120.76C50.82,-110.62 40.83,-100.38 32.94,-92.31"/>
<polygon fill="#63b8ff" stroke="#63b8ff" points="35.34,-89.76 25.85,-85.05 30.33,-94.65 35.34,-89.76"/>
</a>
</g>
</g>
<!-- Node3 -->
<g id="Node000003" class="node">
<title>Node3</title>
<g id="a_Node000003"><a xlink:title=" ">
<polygon fill="#e0e0e0" stroke="#999999" points="58.5,-24.5 2.5,-24.5 2.5,-5.5 58.5,-5.5 58.5,-24.5"/>
<text text-anchor="middle" x="30.5" y="-12.5" font-family="Helvetica,sans-Serif" font-size="10.00">stdbool.h</text>
</a>
</g>
</g>
<!-- Node1&#45;&gt;Node3 -->
<g id="edge2_Node000001_Node000003" class="edge">
<title>Node1&#45;&gt;Node3</title>
<g id="a_edge2_Node000001_Node000003"><a xlink:title=" ">
<path fill="none" stroke="#63b8ff" d="M81.34,-120.91C67.39,-92.12 49.52,-55.26 39.11,-33.77"/>
<polygon fill="#63b8ff" stroke="#63b8ff" points="42.16,-32.03 34.65,-24.56 35.86,-35.08 42.16,-32.03"/>
</a>
</g>
</g>
<!-- Node4 -->
<g id="Node000004" class="node">
<title>Node4</title>
<g id="a_Node000004"><a xlink:title=" ">
<polygon fill="#e0e0e0" stroke="#999999" points="126,-24.5 77,-24.5 77,-5.5 126,-5.5 126,-24.5"/>
<text text-anchor="middle" x="101.5" y="-12.5" font-family="Helvetica,sans-Serif" font-size="10.00">stdint.h</text>
</a>
</g>
</g>
<!-- Node1&#45;&gt;Node4 -->
<g id="edge3_Node000001_Node000004" class="edge">
<title>Node1&#45;&gt;Node4</title>
<g id="a_edge3_Node000001_Node000004"><a xlink:title=" ">
<path fill="none" stroke="#63b8ff" d="M101.5,-120.91C101.5,-92.52 101.5,-56.26 101.5,-34.65"/>
<polygon fill="#63b8ff" stroke="#63b8ff" points="105,-34.56 101.5,-24.56 98,-34.56 105,-34.56"/>
</a>
</g>
</g>
<!-- Node5 -->
<g id="Node000005" class="node">
<title>Node5</title>
<g id="a_Node000005"><a xlink:href="a00290.html" target="_top" xlink:title="This is the generated driver types header file for the ADC driver.">
<polygon fill="white" stroke="#666666" points="328.5,-24.5 258.5,-24.5 258.5,-5.5 328.5,-5.5 328.5,-24.5"/>
<text text-anchor="middle" x="293.5" y="-12.5" font-family="Helvetica,sans-Serif" font-size="10.00">adc_types.h</text>
</a>
</g>
</g>
<!-- Node1&#45;&gt;Node5 -->
<g id="edge4_Node000001_Node000005" class="edge">
<title>Node1&#45;&gt;Node5</title>
<g id="a_edge4_Node000001_Node000005"><a xlink:title=" ">
<path fill="none" stroke="#63b8ff" d="M171.63,-120.97C188.74,-109.92 206.67,-97.55 222.5,-85 243.22,-68.57 264.67,-46.98 278.5,-32.35"/>
<polygon fill="#63b8ff" stroke="#63b8ff" points="281.43,-34.34 285.69,-24.64 276.31,-29.57 281.43,-34.34"/>
</a>
</g>
</g>
<!-- Node6 -->
<g id="Node000006" class="node">
<title>Node6</title>
<g id="a_Node000006"><a xlink:href="a00287_source.html" target="_top" xlink:title=" ">
<polygon fill="white" stroke="#666666" points="213,-85 130,-85 130,-66 213,-66 213,-85"/>
<text text-anchor="middle" x="171.5" y="-73" font-family="Helvetica,sans-Serif" font-size="10.00">adc_interface.h</text>
</a>
</g>
</g>
<!-- Node1&#45;&gt;Node6 -->
<g id="edge5_Node000001_Node000006" class="edge">
<title>Node1&#45;&gt;Node6</title>
<g id="a_edge5_Node000001_Node000006"><a xlink:title=" ">
<path fill="none" stroke="#63b8ff" d="M135.47,-120.76C143.56,-110.83 151.72,-100.81 158.22,-92.82"/>
<polygon fill="#63b8ff" stroke="#63b8ff" points="160.95,-95.01 164.54,-85.05 155.52,-90.59 160.95,-95.01"/>
</a>
</g>
</g>
<!-- Node6&#45;&gt;Node3 -->
<g id="edge7_Node000006_Node000003" class="edge">
<title>Node6&#45;&gt;Node3</title>
<g id="a_edge7_Node000006_Node000003"><a xlink:title=" ">
<path fill="none" stroke="#63b8ff" d="M151,-65.99C127.19,-56.12 87.71,-39.73 60.46,-28.43"/>
<polygon fill="#63b8ff" stroke="#63b8ff" points="61.61,-25.12 51.03,-24.52 58.92,-31.58 61.61,-25.12"/>
</a>
</g>
</g>
<!-- Node6&#45;&gt;Node4 -->
<g id="edge6_Node000006_Node000004" class="edge">
<title>Node6&#45;&gt;Node4</title>
<g id="a_edge6_Node000006_Node000004"><a xlink:title=" ">
<path fill="none" stroke="#63b8ff" d="M161.17,-65.87C150.31,-56.8 133.01,-42.34 119.83,-31.32"/>
<polygon fill="#63b8ff" stroke="#63b8ff" points="121.79,-28.39 111.87,-24.67 117.3,-33.77 121.79,-28.39"/>
</a>
</g>
</g>
<!-- Node6&#45;&gt;Node5 -->
<g id="edge8_Node000006_Node000005" class="edge">
<title>Node6&#45;&gt;Node5</title>
<g id="a_edge8_Node000006_Node000005"><a xlink:title=" ">
<path fill="none" stroke="#63b8ff" d="M189.24,-65.99C209.57,-56.25 243.11,-40.16 266.64,-28.88"/>
<polygon fill="#63b8ff" stroke="#63b8ff" points="268.24,-32 275.74,-24.52 265.21,-25.68 268.24,-32"/>
</a>
</g>
</g>
<!-- Node7 -->
<g id="Node000007" class="node">
<title>Node7</title>
<g id="a_Node000007"><a xlink:href="a00784_source.html" target="_top" xlink:title=" ">
<polygon fill="white" stroke="#666666" points="240.5,-30 144.5,-30 144.5,0 240.5,0 240.5,-30"/>
<text text-anchor="start" x="152.5" y="-18" font-family="Helvetica,sans-Serif" font-size="10.00">../system/interrupt</text>
<text text-anchor="middle" x="192.5" y="-7" font-family="Helvetica,sans-Serif" font-size="10.00">_types.h</text>
</a>
</g>
</g>
<!-- Node6&#45;&gt;Node7 -->
<g id="edge9_Node000006_Node000007" class="edge">
<title>Node6&#45;&gt;Node7</title>
<g id="a_edge9_Node000006_Node000007"><a xlink:title=" ">
<path fill="none" stroke="#63b8ff" d="M174.6,-65.87C177.08,-58.96 180.68,-48.93 184,-39.67"/>
<polygon fill="#63b8ff" stroke="#63b8ff" points="187.35,-40.71 187.43,-30.11 180.76,-38.34 187.35,-40.71"/>
</a>
</g>
</g>
</g>
</svg>
