<?xml version="1.0" encoding="UTF-8" standalone="no"?>
<!DOCTYPE svg PUBLIC "-//W3C//DTD SVG 1.1//EN"
 "http://www.w3.org/Graphics/SVG/1.1/DTD/svg11.dtd">
<!-- Generated by graphviz version 8.1.0 (20230707.0739)
 -->
<!-- Title: CAN_Transmit_to_GUI Pages: 1 -->
<!--zoomable 331 -->

<svg id="main" version="1.1" xmlns="http://www.w3.org/2000/svg" xmlns:xlink="http://www.w3.org/1999/xlink" xml:space="preserve" onload="init(evt)">
<style type="text/css"><![CDATA[
.node, .edge {opacity: 0.7;}
.node.selected, .edge.selected {opacity: 1;}
.edge:hover path { stroke: red; }
.edge:hover polygon { stroke: red; fill: red; }
]]></style>

<defs>
  <circle id="rim" cx="0" cy="0" r="7"/>
  <circle id="rim2" cx="0" cy="0" r="3.5"/>
  <g id="zoomPlus">
    <use xlink:href="#rim" fill="#404040"><set attributeName="fill" to="#808080" begin="zoomplus.mouseover" end="zoomplus.mouseout"/></use>
    <path d="M-4,0h8M0,-4v8" fill="none" stroke="white" stroke-width="1.5" pointer-events="none"/>
  </g>
  <g id="zoomMin">
    <use xlink:href="#rim" fill="#404040"><set attributeName="fill" to="#808080" begin="zoomminus.mouseover" end="zoomminus.mouseout"/></use>
    <path d="M-4,0h8" fill="none" stroke="white" stroke-width="1.5" pointer-events="none"/>
  </g>
  <g id="arrowUp" transform="translate(30 24)">
    <use xlink:href="#rim"/>
    <path pointer-events="none" fill="none" stroke="white" stroke-width="1.5" d="M0,-3.0v7 M-2.5,-0.5L0,-3.0L2.5,-0.5"/>
  </g>
  <g id="arrowRight" transform="rotate(90) translate(36 -43)">
    <use xlink:href="#rim"/>
    <path pointer-events="none" fill="none" stroke="white" stroke-width="1.5" d="M0,-3.0v7 M-2.5,-0.5L0,-3.0L2.5,-0.5"/>
  </g>
  <g id="arrowDown" transform="rotate(180) translate(-30 -48)">
    <use xlink:href="#rim"/>
    <path pointer-events="none" fill="none" stroke="white" stroke-width="1.5" d="M0,-3.0v7 M-2.5,-0.5L0,-3.0L2.5,-0.5"/>
  </g>
  <g id="arrowLeft" transform="rotate(270) translate(-36 17)">
    <use xlink:href="#rim"/>
    <path pointer-events="none" fill="none" stroke="white" stroke-width="1.5" d="M0,-3.0v7 M-2.5,-0.5L0,-3.0L2.5,-0.5"/>
  </g>
  <g id="resetDef">
    <use xlink:href="#rim2" fill="#404040"><set attributeName="fill" to="#808080" begin="reset.mouseover" end="reset.mouseout"/></use>
  </g>
</defs>
<script type="application/ecmascript">
var viewWidth = 653;
var viewHeight = 331;
var sectionId = 'dynsection-3';
</script>
<script type="application/ecmascript" xlink:href="svg.min.js"/>
<svg id="graph" class="graph">
<g id="viewport">
<title>CAN_Transmit_to_GUI</title>
<!-- Node1 -->
<g id="Node000001" class="node">
<title>Node1</title>
<g id="a_Node000001"><a xlink:title=" ">
<polygon fill="#999999" stroke="#666666" points="114.25,-140 0,-140 0,-120 114.25,-120 114.25,-140"/>
<text text-anchor="middle" x="57.12" y="-126.5" font-family="Helvetica,sans-Serif" font-size="10.00">CAN_Transmit_to_GUI</text>
</a>
</g>
</g>
<!-- Node2 -->
<g id="Node000002" class="node">
<title>Node2</title>
<g id="a_Node000002"><a xlink:href="a00399.html#gad99c960d1ed589ce80aca873a90e068e" target="_top" xlink:title="Writes the CAN message object to specified transmit FIFO channel.">
<polygon fill="white" stroke="#666666" points="257.75,-222 173.5,-222 173.5,-202 257.75,-202 257.75,-222"/>
<text text-anchor="middle" x="215.62" y="-208.5" font-family="Helvetica,sans-Serif" font-size="10.00">CAN1_Transmit</text>
</a>
</g>
</g>
<!-- Node1&#45;&gt;Node2 -->
<g id="edge1_Node000001_Node000002" class="edge">
<title>Node1&#45;&gt;Node2</title>
<g id="a_edge1_Node000001_Node000002"><a xlink:title=" ">
<path fill="none" stroke="#63b8ff" d="M72.96,-140.36C90.76,-152.52 121.8,-172.83 150.25,-187 157.87,-190.8 166.22,-194.41 174.3,-197.65"/>
<polygon fill="#63b8ff" stroke="#63b8ff" points="172.74,-201.19 183.32,-201.54 175.27,-194.66 172.74,-201.19"/>
</a>
</g>
</g>
<!-- Node9 -->
<g id="Node000009" class="node">
<title>Node9</title>
<g id="a_Node000009"><a xlink:href="a00233.html#af058b1be15bd59ec5d57d06d1657b5e8" target="_top" xlink:title=" ">
<polygon fill="white" stroke="#666666" points="279.12,-178 152.12,-178 152.12,-158 279.12,-158 279.12,-178"/>
<text text-anchor="middle" x="215.62" y="-164.5" font-family="Helvetica,sans-Serif" font-size="10.00">DRV_DMA_getCoreBuffer</text>
</a>
</g>
</g>
<!-- Node1&#45;&gt;Node9 -->
<g id="edge9_Node000001_Node000009" class="edge">
<title>Node1&#45;&gt;Node9</title>
<g id="a_edge9_Node000001_Node000009"><a xlink:title=" ">
<path fill="none" stroke="#63b8ff" d="M101.3,-140.48C119.78,-144.97 141.54,-150.25 161.03,-154.99"/>
<polygon fill="#63b8ff" stroke="#63b8ff" points="160.04,-158.59 170.59,-157.55 161.7,-151.79 160.04,-158.59"/>
</a>
</g>
</g>
<!-- Node10 -->
<g id="Node000010" class="node">
<title>Node10</title>
<g id="a_Node000010"><a xlink:href="a00233.html#a5852ed0c8edfa25272ab834b747611ba" target="_top" xlink:title=" ">
<polygon fill="white" stroke="#666666" points="281,-140 150.25,-140 150.25,-120 281,-120 281,-140"/>
<text text-anchor="middle" x="215.62" y="-126.5" font-family="Helvetica,sans-Serif" font-size="10.00">DRV_DMA_getVinAverage</text>
</a>
</g>
</g>
<!-- Node1&#45;&gt;Node10 -->
<g id="edge10_Node000001_Node000010" class="edge">
<title>Node1&#45;&gt;Node10</title>
<g id="a_edge10_Node000001_Node000010"><a xlink:title=" ">
<path fill="none" stroke="#63b8ff" d="M114.63,-130C122.6,-130 130.9,-130 139.16,-130"/>
<polygon fill="#63b8ff" stroke="#63b8ff" points="138.97,-133.5 148.97,-130 138.97,-126.5 138.97,-133.5"/>
</a>
</g>
</g>
<!-- Node11 -->
<g id="Node000011" class="node">
<title>Node11</title>
<g id="a_Node000011"><a xlink:href="a00239.html#a5fe2662b714b85fd1b430cf48528c656" target="_top" xlink:title=" ">
<polygon fill="white" stroke="#666666" points="458.62,-96 334.62,-96 334.62,-76 458.62,-76 458.62,-96"/>
<text text-anchor="middle" x="396.62" y="-82.5" font-family="Helvetica,sans-Serif" font-size="10.00">Drv_I2C_Get_Write_Data</text>
</a>
</g>
</g>
<!-- Node1&#45;&gt;Node11 -->
<g id="edge11_Node000001_Node000011" class="edge">
<title>Node1&#45;&gt;Node11</title>
<g id="a_edge11_Node000001_Node000011"><a xlink:title=" ">
<path fill="none" stroke="#63b8ff" d="M104.35,-119.51C118.98,-116.44 135.24,-113.31 150.25,-111 208.19,-102.1 274.33,-95.57 323.33,-91.42"/>
<polygon fill="#63b8ff" stroke="#63b8ff" points="323.47,-94.84 333.14,-90.52 322.89,-87.86 323.47,-94.84"/>
</a>
</g>
</g>
<!-- Node12 -->
<g id="Node000012" class="node">
<title>Node12</title>
<g id="a_Node000012"><a xlink:href="a00227.html#a9547e1b813e407c1cedf72e3b4744ea0" target="_top" xlink:title=" ">
<polygon fill="white" stroke="#666666" points="269,-64 162.25,-64 162.25,-32 269,-32 269,-64"/>
<text text-anchor="start" x="170.25" y="-50.5" font-family="Helvetica,sans-Serif" font-size="10.00">Housekeeping_Flags</text>
<text text-anchor="middle" x="215.62" y="-38.5" font-family="Helvetica,sans-Serif" font-size="10.00">_Update</text>
</a>
</g>
</g>
<!-- Node1&#45;&gt;Node12 -->
<g id="edge12_Node000001_Node000012" class="edge">
<title>Node1&#45;&gt;Node12</title>
<g id="a_edge12_Node000001_Node000012"><a xlink:title=" ">
<path fill="none" stroke="#63b8ff" d="M75.56,-119.62C93.93,-108.82 123.79,-91.61 150.25,-78 156.08,-75 162.26,-71.96 168.4,-69.01"/>
<polygon fill="#63b8ff" stroke="#63b8ff" points="169.42,-71.93 176.96,-64.49 166.42,-65.6 169.42,-71.93"/>
</a>
</g>
</g>
<!-- Node3 -->
<g id="Node000003" class="node">
<title>Node3</title>
<g id="a_Node000003"><a xlink:href="a00399.html#ga61d156b0e75424f9b630cef5c424ac13" target="_top" xlink:title="This function get the DLC enum based decimal value.">
<polygon fill="white" stroke="#666666" points="645.25,-298 512.25,-298 512.25,-278 645.25,-278 645.25,-298"/>
<text text-anchor="middle" x="578.75" y="-284.5" font-family="Helvetica,sans-Serif" font-size="10.00">CAN1_DlcToDataBytesGet</text>
</a>
</g>
</g>
<!-- Node2&#45;&gt;Node3 -->
<g id="edge2_Node000002_Node000003" class="edge">
<title>Node2&#45;&gt;Node3</title>
<g id="a_edge2_Node000002_Node000003"><a xlink:title=" ">
<path fill="none" stroke="#63b8ff" d="M223.38,-222.34C237.68,-243.16 273.31,-289.6 317,-307 390.38,-336.22 484.48,-316.94 537.22,-301.59"/>
<polygon fill="#63b8ff" stroke="#63b8ff" points="537.95,-304.72 546.52,-298.49 535.93,-298.02 537.95,-304.72"/>
</a>
</g>
</g>
<!-- Node4 -->
<g id="Node000004" class="node">
<title>Node4</title>
<g id="a_Node000004"><a xlink:href="a00399.html#ga57b30800d7bd3b3c936f578ca1fd7e32" target="_top" xlink:title="This function get the FIFO user address, message depth and payload size information.">
<polygon fill="white" stroke="#666666" points="448.88,-298 344.38,-298 344.38,-278 448.88,-278 448.88,-298"/>
<text text-anchor="middle" x="396.62" y="-284.5" font-family="Helvetica,sans-Serif" font-size="10.00">CAN1_FIFO_InfoGet</text>
</a>
</g>
</g>
<!-- Node2&#45;&gt;Node4 -->
<g id="edge3_Node000002_Node000004" class="edge">
<title>Node2&#45;&gt;Node4</title>
<g id="a_edge3_Node000002_Node000004"><a xlink:title=" ">
<path fill="none" stroke="#63b8ff" d="M231.6,-222.29C250.66,-234.95 284.95,-256.32 317,-269 322.39,-271.13 328.08,-273.07 333.84,-274.82"/>
<polygon fill="#63b8ff" stroke="#63b8ff" points="332.65,-278.41 343.23,-277.77 334.56,-271.67 332.65,-278.41"/>
</a>
</g>
</g>
<!-- Node5 -->
<g id="Node000005" class="node">
<title>Node5</title>
<g id="a_Node000005"><a xlink:href="a00399.html#ga0980f888cad241edaa859783bb4a89d7" target="_top" xlink:title="This function Read the message object from user input and update to the CAN1 TX FIFO.">
<polygon fill="white" stroke="#666666" points="464.62,-260 328.62,-260 328.62,-240 464.62,-240 464.62,-260"/>
<text text-anchor="middle" x="396.62" y="-246.5" font-family="Helvetica,sans-Serif" font-size="10.00">CAN1_MessageWriteToFifo</text>
</a>
</g>
</g>
<!-- Node2&#45;&gt;Node5 -->
<g id="edge4_Node000002_Node000005" class="edge">
<title>Node2&#45;&gt;Node5</title>
<g id="a_edge4_Node000002_Node000005"><a xlink:title=" ">
<path fill="none" stroke="#63b8ff" d="M258.14,-220.81C281.19,-225.71 310.25,-231.88 335.72,-237.28"/>
<polygon fill="#63b8ff" stroke="#63b8ff" points="334.88,-240.89 345.39,-239.55 336.33,-234.05 334.88,-240.89"/>
</a>
</g>
</g>
<!-- Node6 -->
<g id="Node000006" class="node">
<title>Node6</title>
<g id="a_Node000006"><a xlink:href="a00399.html#gaedd6e334545a38cd71fe86ff4f9e78c3" target="_top" xlink:title="Get the CAN1 operation mode.">
<polygon fill="white" stroke="#666666" points="460.88,-222 332.38,-222 332.38,-202 460.88,-202 460.88,-222"/>
<text text-anchor="middle" x="396.62" y="-208.5" font-family="Helvetica,sans-Serif" font-size="10.00">CAN1_OperationModeGet</text>
</a>
</g>
</g>
<!-- Node2&#45;&gt;Node6 -->
<g id="edge6_Node000002_Node000006" class="edge">
<title>Node2&#45;&gt;Node6</title>
<g id="a_edge6_Node000002_Node000006"><a xlink:title=" ">
<path fill="none" stroke="#63b8ff" d="M258.14,-212C276.87,-212 299.58,-212 321.1,-212"/>
<polygon fill="#63b8ff" stroke="#63b8ff" points="320.89,-215.5 330.89,-212 320.89,-208.5 320.89,-215.5"/>
</a>
</g>
</g>
<!-- Node7 -->
<g id="Node000007" class="node">
<title>Node7</title>
<g id="a_Node000007"><a xlink:href="a00399.html#ga1d293f033f5d27b360cf00d4644c63eb" target="_top" xlink:title="Returns the CAN1 transmitter FIFO status.">
<polygon fill="white" stroke="#666666" points="471.75,-184 321.5,-184 321.5,-164 471.75,-164 471.75,-184"/>
<text text-anchor="middle" x="396.62" y="-170.5" font-family="Helvetica,sans-Serif" font-size="10.00">CAN1_TransmitFIFOStatusGet</text>
</a>
</g>
</g>
<!-- Node2&#45;&gt;Node7 -->
<g id="edge7_Node000002_Node000007" class="edge">
<title>Node2&#45;&gt;Node7</title>
<g id="a_edge7_Node000002_Node000007"><a xlink:title=" ">
<path fill="none" stroke="#63b8ff" d="M258.14,-203.19C281.19,-198.29 310.25,-192.12 335.72,-186.72"/>
<polygon fill="#63b8ff" stroke="#63b8ff" points="336.33,-189.95 345.39,-184.45 334.88,-183.11 336.33,-189.95"/>
</a>
</g>
</g>
<!-- Node8 -->
<g id="Node000008" class="node">
<title>Node8</title>
<g id="a_Node000008"><a xlink:href="a00399.html#gaedb86f6e4e8ac0efba711d7f3d7b688c" target="_top" xlink:title="This function enables The FIFO transmit message send request bit.">
<polygon fill="white" stroke="#666666" points="472.5,-146 320.75,-146 320.75,-114 472.5,-114 472.5,-146"/>
<text text-anchor="start" x="328.75" y="-132.5" font-family="Helvetica,sans-Serif" font-size="10.00">CAN1_TX_FIFO_MessageSend</text>
<text text-anchor="middle" x="396.62" y="-120.5" font-family="Helvetica,sans-Serif" font-size="10.00">Request</text>
</a>
</g>
</g>
<!-- Node2&#45;&gt;Node8 -->
<g id="edge8_Node000002_Node000008" class="edge">
<title>Node2&#45;&gt;Node8</title>
<g id="a_edge8_Node000002_Node000008"><a xlink:title=" ">
<path fill="none" stroke="#63b8ff" d="M250.11,-201.57C260.39,-197.7 271.49,-192.81 281,-187 299.27,-175.84 298.39,-165.59 317,-155 319.54,-153.56 322.17,-152.18 324.87,-150.88"/>
<polygon fill="#63b8ff" stroke="#63b8ff" points="326.13,-153.71 333.85,-146.46 323.29,-147.31 326.13,-153.71"/>
</a>
</g>
</g>
<!-- Node5&#45;&gt;Node3 -->
<g id="edge5_Node000005_Node000003" class="edge">
<title>Node5&#45;&gt;Node3</title>
<g id="a_edge5_Node000005_Node000003"><a xlink:title=" ">
<path fill="none" stroke="#63b8ff" d="M447.32,-260.48C469.08,-265.07 494.79,-270.5 517.62,-275.31"/>
<polygon fill="#63b8ff" stroke="#63b8ff" points="516.71,-278.91 527.22,-277.55 518.15,-272.06 516.71,-278.91"/>
</a>
</g>
</g>
<!-- Node12&#45;&gt;Node11 -->
<g id="edge13_Node000012_Node000011" class="edge">
<title>Node12&#45;&gt;Node11</title>
<g id="a_edge13_Node000012_Node000011"><a xlink:title=" ">
<path fill="none" stroke="#63b8ff" d="M269.36,-59.2C290.18,-63.62 314.22,-68.72 335.69,-73.28"/>
<polygon fill="#63b8ff" stroke="#63b8ff" points="334.82,-76.88 345.33,-75.53 336.27,-70.03 334.82,-76.88"/>
</a>
</g>
</g>
<!-- Node13 -->
<g id="Node000013" class="node">
<title>Node13</title>
<g id="a_Node000013"><a xlink:href="a00251.html#af3fad6443af569b0da78810b219ebaaf" target="_top" xlink:title=" ">
<polygon fill="white" stroke="#666666" points="476.25,-58 317,-58 317,-38 476.25,-38 476.25,-58"/>
<text text-anchor="middle" x="396.62" y="-44.5" font-family="Helvetica,sans-Serif" font-size="10.00">Drv_SPI_get_ChecksumOK_Flag</text>
</a>
</g>
</g>
<!-- Node12&#45;&gt;Node13 -->
<g id="edge14_Node000012_Node000013" class="edge">
<title>Node12&#45;&gt;Node13</title>
<g id="a_edge14_Node000012_Node000013"><a xlink:title=" ">
<path fill="none" stroke="#63b8ff" d="M269.36,-48C280.85,-48 293.31,-48 305.78,-48"/>
<polygon fill="#63b8ff" stroke="#63b8ff" points="305.72,-51.5 315.72,-48 305.72,-44.5 305.72,-51.5"/>
</a>
</g>
</g>
<!-- Node14 -->
<g id="Node000014" class="node">
<title>Node14</title>
<g id="a_Node000014"><a xlink:href="a00251.html#a0c28951a0ab80e65e5bd85682bf5920a" target="_top" xlink:title=" ">
<polygon fill="white" stroke="#666666" points="469.12,-20 324.12,-20 324.12,0 469.12,0 469.12,-20"/>
<text text-anchor="middle" x="396.62" y="-6.5" font-family="Helvetica,sans-Serif" font-size="10.00">Drv_SPI_get_Connected_Flag</text>
</a>
</g>
</g>
<!-- Node12&#45;&gt;Node14 -->
<g id="edge15_Node000012_Node000014" class="edge">
<title>Node12&#45;&gt;Node14</title>
<g id="a_edge15_Node000012_Node000014"><a xlink:title=" ">
<path fill="none" stroke="#63b8ff" d="M269.36,-36.8C290.18,-32.38 314.22,-27.28 335.69,-22.72"/>
<polygon fill="#63b8ff" stroke="#63b8ff" points="336.27,-25.97 345.33,-20.47 334.82,-19.12 336.27,-25.97"/>
</a>
</g>
</g>
</g>
</svg>

<g id="navigator" transform="translate(0 0)" fill="#404254">
  <rect fill="#f2f5e9" fill-opacity="0.5" stroke="#606060" stroke-width=".5" x="0" y="0" width="60" height="60"/>
  <use id="zoomplus" xlink:href="#zoomPlus" x="17" y="9" onmousedown="handleZoom(evt,'in')"/>
  <use id="zoomminus" xlink:href="#zoomMin" x="42" y="9" onmousedown="handleZoom(evt,'out')"/>
  <use id="reset" xlink:href="#resetDef" x="30" y="36" onmousedown="handleReset()"/>
   <use id="arrowup" xlink:href="#arrowUp" x="0" y="0" onmousedown="handlePan(0,-1)"/>
  <use id="arrowright" xlink:href="#arrowRight" x="0" y="0" onmousedown="handlePan(1,0)"/>
  <use id="arrowdown" xlink:href="#arrowDown" x="0" y="0" onmousedown="handlePan(0,1)"/>
  <use id="arrowleft" xlink:href="#arrowLeft" x="0" y="0" onmousedown="handlePan(-1,0)"/>
</g>
<svg viewBox="0 0 15 15" width="100%" height="30px" preserveAspectRatio="xMaxYMin meet">
 <g id="arrow_out" transform="scale(0.3 0.3)">
  <a xlink:href="a00230_a9511f6338931225152a644cd0b011f66_cgraph_org.svg" target="_base">
   <rect id="button" ry="5" rx="5" y="6" x="6" height="38" width="38"
        fill="#f2f5e9" fill-opacity="0.5" stroke="#606060" stroke-width="1.0"/>
   <path id="arrow"
     d="M 11.500037,31.436501 C 11.940474,20.09759 22.043105,11.32322 32.158766,21.979434 L 37.068811,17.246167 C 37.068811,17.246167 37.088388,32 37.088388,32 L 22.160133,31.978069 C 22.160133,31.978069 26.997745,27.140456 26.997745,27.140456 C 18.528582,18.264221 13.291696,25.230495 11.500037,31.436501 z"
     style="fill:#404040;"/>
  </a>
 </g>
</svg>

<style type='text/css'>
<![CDATA[
[data-mouse-over-selected='false'] { opacity: 0.7; }
[data-mouse-over-selected='true']  { opacity: 1.0; }
]]>
</style>
<script type="application/ecmascript"><![CDATA[
document.addEventListener('DOMContentLoaded', (event) => {
  highlightEdges();
  highlightAdjacentNodes();
});
]]></script>
</svg>
