<?xml version="1.0" encoding="UTF-8" standalone="no"?>
<!DOCTYPE svg PUBLIC "-//W3C//DTD SVG 1.1//EN"
 "http://www.w3.org/Graphics/SVG/1.1/DTD/svg11.dtd">
<!-- Generated by graphviz version 2.44.1 (20200629.0846)
 -->
<!-- Title: C:/Users/M70027/Documents/Projects/tp&#45;deployment/dspic33ch&#45;power&#45;totem&#45;pole&#45;demonstration&#45;application&#45;single&#45;phase_v2/dspic33ch_totem_pole_single_phase_primary_IL.X/sources/driver/vac_monitor/vac_monitor.c Pages: 1 -->
<svg width="489pt" height="280pt"
 viewBox="0.00 0.00 488.50 280.00" xmlns="http://www.w3.org/2000/svg" xmlns:xlink="http://www.w3.org/1999/xlink">

<svg id="main" version="1.1" xmlns="http://www.w3.org/2000/svg" xmlns:xlink="http://www.w3.org/1999/xlink" xml:space="preserve">

<style type="text/css"><![CDATA[
.node, .edge {opacity: 0.7;}
.node.selected, .edge.selected {opacity: 1;}
.edge:hover path { stroke: red; }
.edge:hover polygon { stroke: red; fill: red; }
]]></style>
<script type="application/ecmascript" xlink:href="svg.min.js"/>
<svg id="graph" class="graph">
<g id="graph0" class="graph" transform="scale(1 1) rotate(0) translate(4 276)">
<title>C:/Users/M70027/Documents/Projects/tp&#45;deployment/dspic33ch&#45;power&#45;totem&#45;pole&#45;demonstration&#45;application&#45;single&#45;phase_v2/dspic33ch_totem_pole_single_phase_primary_IL.X/sources/driver/vac_monitor/vac_monitor.c</title>
<!-- Node1 -->
<g id="Node000001" class="node">
<title>Node1</title>
<g id="a_Node000001"><a xlink:title="This is the driver source file for vac driver.">
<polygon fill="#999999" stroke="#666666" points="271,-272 74,-272 74,-187 271,-187 271,-272"/>
<text text-anchor="start" x="82" y="-260" font-family="Helvetica,sans-Serif" font-size="10.00">C:/Users/M70027/Documents</text>
<text text-anchor="start" x="82" y="-249" font-family="Helvetica,sans-Serif" font-size="10.00">/Projects/tp&#45;deployment</text>
<text text-anchor="start" x="82" y="-238" font-family="Helvetica,sans-Serif" font-size="10.00">/dspic33ch&#45;power&#45;totem&#45;pole</text>
<text text-anchor="start" x="82" y="-227" font-family="Helvetica,sans-Serif" font-size="10.00">&#45;demonstration&#45;application</text>
<text text-anchor="start" x="82" y="-216" font-family="Helvetica,sans-Serif" font-size="10.00">&#45;single&#45;phase_v2/dspic33ch_totem</text>
<text text-anchor="start" x="82" y="-205" font-family="Helvetica,sans-Serif" font-size="10.00">_pole_single_phase_primary_IL.X</text>
<text text-anchor="middle" x="172.5" y="-194" font-family="Helvetica,sans-Serif" font-size="10.00">/sources/driver/vac_monitor/vac_monitor.c</text>
</a>
</g>
</g>
<!-- Node2 -->
<g id="Node000002" class="node">
<title>Node2</title>
<g id="a_Node000002"><a xlink:title=" ">
<polygon fill="#e0e0e0" stroke="#999999" points="49,-19 0,-19 0,0 49,0 49,-19"/>
<text text-anchor="middle" x="24.5" y="-7" font-family="Helvetica,sans-Serif" font-size="10.00">stdint.h</text>
</a>
</g>
</g>
<!-- Node1&#45;&gt;Node2 -->
<g id="edge1_Node000001_Node000002" class="edge">
<title>Node1&#45;&gt;Node2</title>
<g id="a_edge1_Node000001_Node000002"><a xlink:title=" ">
<path fill="none" stroke="#63b8ff" d="M119.75,-186.79C93.03,-162.95 62.35,-130.88 43.5,-96 32.06,-74.83 27.5,-47.16 25.69,-29.12"/>
<polygon fill="#63b8ff" stroke="#63b8ff" points="29.17,-28.72 24.87,-19.04 22.2,-29.3 29.17,-28.72"/>
</a>
</g>
</g>
<!-- Node3 -->
<g id="Node000003" class="node">
<title>Node3</title>
<g id="a_Node000003"><a xlink:title=" ">
<polygon fill="#e0e0e0" stroke="#999999" points="236,-19 201,-19 201,0 236,0 236,-19"/>
<text text-anchor="middle" x="218.5" y="-7" font-family="Helvetica,sans-Serif" font-size="10.00">xc.h</text>
</a>
</g>
</g>
<!-- Node1&#45;&gt;Node3 -->
<g id="edge2_Node000001_Node000003" class="edge">
<title>Node1&#45;&gt;Node3</title>
<g id="a_edge2_Node000001_Node000003"><a xlink:title=" ">
<path fill="none" stroke="#63b8ff" d="M181.26,-186.98C191.24,-139.7 207.11,-64.49 214.49,-29.53"/>
<polygon fill="#63b8ff" stroke="#63b8ff" points="218,-29.82 216.64,-19.31 211.15,-28.37 218,-29.82"/>
</a>
</g>
</g>
<!-- Node4 -->
<g id="Node000004" class="node">
<title>Node4</title>
<g id="a_Node000004"><a xlink:href="a00260.html" target="_top" xlink:title="header of the VAC">
<polygon fill="white" stroke="#666666" points="300,-151 223,-151 223,-132 300,-132 300,-151"/>
<text text-anchor="middle" x="261.5" y="-139" font-family="Helvetica,sans-Serif" font-size="10.00">vac_monitor.h</text>
</a>
</g>
</g>
<!-- Node1&#45;&gt;Node4 -->
<g id="edge3_Node000001_Node000004" class="edge">
<title>Node1&#45;&gt;Node4</title>
<g id="a_edge3_Node000001_Node000004"><a xlink:title=" ">
<path fill="none" stroke="#63b8ff" d="M215.7,-186.76C226.3,-176.51 237.01,-166.17 245.4,-158.06"/>
<polygon fill="#63b8ff" stroke="#63b8ff" points="247.9,-160.51 252.66,-151.05 243.03,-155.48 247.9,-160.51"/>
</a>
</g>
</g>
<!-- Node5 -->
<g id="Node000005" class="node">
<title>Node5</title>
<g id="a_Node000005"><a xlink:href="a00263.html" target="_top" xlink:title="VAC Types define.">
<polygon fill="white" stroke="#666666" points="166,-85 53,-85 53,-66 166,-66 166,-85"/>
<text text-anchor="middle" x="109.5" y="-73" font-family="Helvetica,sans-Serif" font-size="10.00">vac_monitor_typedef.h</text>
</a>
</g>
</g>
<!-- Node1&#45;&gt;Node5 -->
<g id="edge12_Node000001_Node000005" class="edge">
<title>Node1&#45;&gt;Node5</title>
<g id="a_edge12_Node000001_Node000005"><a xlink:title=" ">
<path fill="none" stroke="#63b8ff" d="M155.28,-186.97C142.77,-156.76 126.43,-117.35 117.04,-94.69"/>
<polygon fill="#63b8ff" stroke="#63b8ff" points="120.2,-93.19 113.14,-85.29 113.74,-95.87 120.2,-93.19"/>
</a>
</g>
</g>
<!-- Node4&#45;&gt;Node3 -->
<g id="edge4_Node000004_Node000003" class="edge">
<title>Node4&#45;&gt;Node3</title>
<g id="a_edge4_Node000004_Node000003"><a xlink:title=" ">
<path fill="none" stroke="#63b8ff" d="M258.68,-131.97C251.79,-111.13 233.97,-57.27 224.55,-28.78"/>
<polygon fill="#63b8ff" stroke="#63b8ff" points="227.85,-27.63 221.39,-19.23 221.21,-29.82 227.85,-27.63"/>
</a>
</g>
</g>
<!-- Node4&#45;&gt;Node5 -->
<g id="edge5_Node000004_Node000005" class="edge">
<title>Node4&#45;&gt;Node5</title>
<g id="a_edge5_Node000004_Node000005"><a xlink:title=" ">
<path fill="none" stroke="#63b8ff" d="M241,-131.87C214.94,-120.89 169.72,-101.86 139.71,-89.22"/>
<polygon fill="#63b8ff" stroke="#63b8ff" points="140.73,-85.85 130.16,-85.2 138.02,-92.31 140.73,-85.85"/>
</a>
</g>
</g>
<!-- Node8 -->
<g id="Node000008" class="node">
<title>Node8</title>
<g id="a_Node000008"><a xlink:href="a00895_source.html" target="_top" xlink:title=" ">
<polygon fill="white" stroke="#666666" points="344.5,-85 260.5,-85 260.5,-66 344.5,-66 344.5,-85"/>
<text text-anchor="middle" x="302.5" y="-73" font-family="Helvetica,sans-Serif" font-size="10.00">../../../revision.h</text>
</a>
</g>
</g>
<!-- Node4&#45;&gt;Node8 -->
<g id="edge10_Node000004_Node000008" class="edge">
<title>Node4&#45;&gt;Node8</title>
<g id="a_edge10_Node000004_Node000008"><a xlink:title=" ">
<path fill="none" stroke="#63b8ff" d="M267.03,-131.87C273.23,-122.19 283.45,-106.24 291.33,-93.94"/>
<polygon fill="#63b8ff" stroke="#63b8ff" points="294.35,-95.71 296.8,-85.41 288.45,-91.94 294.35,-95.71"/>
</a>
</g>
</g>
<!-- Node9 -->
<g id="Node000009" class="node">
<title>Node9</title>
<g id="a_Node000009"><a xlink:title=" ">
<polygon fill="#e0e0e0" stroke="#999999" points="480.5,-96 362.5,-96 362.5,-55 480.5,-55 480.5,-96"/>
<text text-anchor="start" x="370.5" y="-84" font-family="Helvetica,sans-Serif" font-size="10.00">../sources_common</text>
<text text-anchor="start" x="370.5" y="-73" font-family="Helvetica,sans-Serif" font-size="10.00">/Totempole_Application</text>
<text text-anchor="middle" x="421.5" y="-62" font-family="Helvetica,sans-Serif" font-size="10.00">_Setup.h</text>
</a>
</g>
</g>
<!-- Node4&#45;&gt;Node9 -->
<g id="edge11_Node000004_Node000009" class="edge">
<title>Node4&#45;&gt;Node9</title>
<g id="a_edge11_Node000004_Node000009"><a xlink:title=" ">
<path fill="none" stroke="#63b8ff" d="M283.08,-131.87C303.62,-123.65 335.45,-110.92 363.41,-99.73"/>
<polygon fill="#63b8ff" stroke="#63b8ff" points="364.74,-102.97 372.73,-96.01 362.14,-96.47 364.74,-102.97"/>
</a>
</g>
</g>
<!-- Node5&#45;&gt;Node2 -->
<g id="edge7_Node000005_Node000002" class="edge">
<title>Node5&#45;&gt;Node2</title>
<g id="a_edge7_Node000005_Node000002"><a xlink:title=" ">
<path fill="none" stroke="#63b8ff" d="M98.04,-65.87C84.22,-55.47 60.79,-37.82 44.09,-25.25"/>
<polygon fill="#63b8ff" stroke="#63b8ff" points="46.15,-22.42 36.05,-19.2 41.94,-28.01 46.15,-22.42"/>
</a>
</g>
</g>
<!-- Node5&#45;&gt;Node3 -->
<g id="edge6_Node000005_Node000003" class="edge">
<title>Node5&#45;&gt;Node3</title>
<g id="a_edge6_Node000005_Node000003"><a xlink:title=" ">
<path fill="none" stroke="#63b8ff" d="M124.2,-65.87C142.32,-55.23 173.35,-37.01 194.84,-24.39"/>
<polygon fill="#63b8ff" stroke="#63b8ff" points="196.83,-27.28 203.68,-19.2 193.29,-21.24 196.83,-27.28"/>
</a>
</g>
</g>
<!-- Node6 -->
<g id="Node000006" class="node">
<title>Node6</title>
<g id="a_Node000006"><a xlink:title=" ">
<polygon fill="#e0e0e0" stroke="#999999" points="123.5,-19 67.5,-19 67.5,0 123.5,0 123.5,-19"/>
<text text-anchor="middle" x="95.5" y="-7" font-family="Helvetica,sans-Serif" font-size="10.00">stdbool.h</text>
</a>
</g>
</g>
<!-- Node5&#45;&gt;Node6 -->
<g id="edge8_Node000005_Node000006" class="edge">
<title>Node5&#45;&gt;Node6</title>
<g id="a_edge8_Node000005_Node000006"><a xlink:title=" ">
<path fill="none" stroke="#63b8ff" d="M107.61,-65.87C105.58,-56.57 102.28,-41.48 99.63,-29.4"/>
<polygon fill="#63b8ff" stroke="#63b8ff" points="103,-28.43 97.45,-19.41 96.17,-29.92 103,-28.43"/>
</a>
</g>
</g>
<!-- Node7 -->
<g id="Node000007" class="node">
<title>Node7</title>
<g id="a_Node000007"><a xlink:title=" ">
<polygon fill="#e0e0e0" stroke="#999999" points="183,-19 142,-19 142,0 183,0 183,-19"/>
<text text-anchor="middle" x="162.5" y="-7" font-family="Helvetica,sans-Serif" font-size="10.00">dsp.h</text>
</a>
</g>
</g>
<!-- Node5&#45;&gt;Node7 -->
<g id="edge9_Node000005_Node000007" class="edge">
<title>Node5&#45;&gt;Node7</title>
<g id="a_edge9_Node000005_Node000007"><a xlink:title=" ">
<path fill="none" stroke="#63b8ff" d="M116.65,-65.87C124.82,-56 138.39,-39.61 148.66,-27.22"/>
<polygon fill="#63b8ff" stroke="#63b8ff" points="151.44,-29.34 155.13,-19.41 146.05,-24.87 151.44,-29.34"/>
</a>
</g>
</g>
</g>
</svg>
</svg>

<style type='text/css'>
<![CDATA[
[data-mouse-over-selected='false'] { opacity: 0.7; }
[data-mouse-over-selected='true']  { opacity: 1.0; }
]]>
</style>
<script type="application/ecmascript"><![CDATA[
document.addEventListener('DOMContentLoaded', (event) => {
  highlightEdges();
  highlightAdjacentNodes();
});
]]></script>
</svg>
