<?xml version="1.0" encoding="UTF-8" standalone="no"?>
<!DOCTYPE svg PUBLIC "-//W3C//DTD SVG 1.1//EN"
 "http://www.w3.org/Graphics/SVG/1.1/DTD/svg11.dtd">
<!-- Generated by graphviz version 8.1.0 (20230707.0739)
 -->
<!-- Title: vacm_state_ac_sync Pages: 1 -->
<svg width="411pt" height="230pt"
 viewBox="0.00 0.00 410.75 230.00" xmlns="http://www.w3.org/2000/svg" xmlns:xlink="http://www.w3.org/1999/xlink">

<svg id="main" version="1.1" xmlns="http://www.w3.org/2000/svg" xmlns:xlink="http://www.w3.org/1999/xlink" xml:space="preserve" onload="init(evt)">
<style type="text/css"><![CDATA[
.node, .edge {opacity: 0.7;}
.node.selected, .edge.selected {opacity: 1;}
.edge:hover path { stroke: red; }
.edge:hover polygon { stroke: red; fill: red; }
]]></style>
<script type="application/ecmascript" xlink:href="svg.min.js"/>
<svg id="graph" class="graph">
<g id="graph0" class="graph" transform="scale(1 1) rotate(0) translate(4 226)">
<title>vacm_state_ac_sync</title>
<!-- Node1 -->
<g id="Node000001" class="node">
<title>Node1</title>
<g id="a_Node000001"><a xlink:title=" ">
<polygon fill="#999999" stroke="#666666" points="107.5,-118 0,-118 0,-98 107.5,-98 107.5,-118"/>
<text text-anchor="middle" x="53.75" y="-104.5" font-family="Helvetica,sans-Serif" font-size="10.00">vacm_state_ac_sync</text>
</a>
</g>
</g>
<!-- Node2 -->
<g id="Node000002" class="node">
<title>Node2</title>
<g id="a_Node000002"><a xlink:href="a00257.html#a59a2d9f80fc5da34bbe8f2a364b0eb2a" target="_top" xlink:title=" ">
<polygon fill="white" stroke="#666666" points="259.25,-222 162.25,-222 162.25,-202 259.25,-202 259.25,-222"/>
<text text-anchor="middle" x="210.75" y="-208.5" font-family="Helvetica,sans-Serif" font-size="10.00">vacm_acok_assert</text>
</a>
</g>
</g>
<!-- Node1&#45;&gt;Node2 -->
<g id="edge1_Node000001_Node000002" class="edge">
<title>Node1&#45;&gt;Node2</title>
<g id="a_edge1_Node000001_Node000002"><a xlink:title=" ">
<path fill="none" stroke="#63b8ff" d="M62.62,-118.29C76.83,-136.15 108.54,-172.91 143.5,-193 146.36,-194.65 149.38,-196.16 152.49,-197.55"/>
<polygon fill="#63b8ff" stroke="#63b8ff" points="151.02,-201.13 161.61,-201.57 153.61,-194.62 151.02,-201.13"/>
</a>
</g>
</g>
<!-- Node3 -->
<g id="Node000003" class="node">
<title>Node3</title>
<g id="a_Node000003"><a xlink:href="a00257.html#a128d766a414b6a9755b7586f37b92939" target="_top" xlink:title=" ">
<polygon fill="white" stroke="#666666" points="265.62,-184 155.88,-184 155.88,-164 265.62,-164 265.62,-184"/>
<text text-anchor="middle" x="210.75" y="-170.5" font-family="Helvetica,sans-Serif" font-size="10.00">vacm_polarity_update</text>
</a>
</g>
</g>
<!-- Node1&#45;&gt;Node3 -->
<g id="edge2_Node000001_Node000003" class="edge">
<title>Node1&#45;&gt;Node3</title>
<g id="a_edge2_Node000001_Node000003"><a xlink:title=" ">
<path fill="none" stroke="#63b8ff" d="M71.92,-118.47C89.43,-128.82 117.63,-144.57 143.5,-155 148.18,-156.89 153.11,-158.67 158.09,-160.32"/>
<polygon fill="#63b8ff" stroke="#63b8ff" points="156.72,-163.88 167.31,-163.55 158.82,-157.2 156.72,-163.88"/>
</a>
</g>
</g>
<!-- Node4 -->
<g id="Node000004" class="node">
<title>Node4</title>
<g id="a_Node000004"><a xlink:href="a00257.html#a634dc3732b7ac4380c54073b237ca710" target="_top" xlink:title=" ">
<polygon fill="white" stroke="#666666" points="278,-146 143.5,-146 143.5,-114 278,-114 278,-146"/>
<text text-anchor="start" x="151.5" y="-132.5" font-family="Helvetica,sans-Serif" font-size="10.00">vacm_reset_phase_monitor</text>
<text text-anchor="middle" x="210.75" y="-120.5" font-family="Helvetica,sans-Serif" font-size="10.00">_object</text>
</a>
</g>
</g>
<!-- Node1&#45;&gt;Node4 -->
<g id="edge3_Node000001_Node000004" class="edge">
<title>Node1&#45;&gt;Node4</title>
<g id="a_edge3_Node000001_Node000004"><a xlink:title=" ">
<path fill="none" stroke="#63b8ff" d="M107.66,-115.51C115.67,-116.65 124.08,-117.84 132.49,-119.03"/>
<polygon fill="#63b8ff" stroke="#63b8ff" points="131.71,-122.6 142.1,-120.54 132.69,-115.67 131.71,-122.6"/>
</a>
</g>
</g>
<!-- Node5 -->
<g id="Node000005" class="node">
<title>Node5</title>
<g id="a_Node000005"><a xlink:href="a00257.html#aa3afbdf195704fcbb7fe03f05a5f1493" target="_top" xlink:title=" ">
<polygon fill="white" stroke="#666666" points="269.75,-96 151.75,-96 151.75,-76 269.75,-76 269.75,-96"/>
<text text-anchor="middle" x="210.75" y="-82.5" font-family="Helvetica,sans-Serif" font-size="10.00">vacm_timebase_update</text>
</a>
</g>
</g>
<!-- Node1&#45;&gt;Node5 -->
<g id="edge4_Node000001_Node000005" class="edge">
<title>Node1&#45;&gt;Node5</title>
<g id="a_edge4_Node000001_Node000005"><a xlink:title=" ">
<path fill="none" stroke="#63b8ff" d="M107.66,-100.49C118.36,-98.97 129.76,-97.35 140.91,-95.77"/>
<polygon fill="#63b8ff" stroke="#63b8ff" points="141.09,-99.14 150.5,-94.27 140.11,-92.21 141.09,-99.14"/>
</a>
</g>
</g>
<!-- Node6 -->
<g id="Node000006" class="node">
<title>Node6</title>
<g id="a_Node000006"><a xlink:href="a00257.html#a4d1cffa8629c7a211d571e6c96fe94ac" target="_top" xlink:title=" ">
<polygon fill="white" stroke="#666666" points="257.38,-58 164.12,-58 164.12,-38 257.38,-38 257.38,-58"/>
<text text-anchor="middle" x="210.75" y="-44.5" font-family="Helvetica,sans-Serif" font-size="10.00">vacm_vin_average</text>
</a>
</g>
</g>
<!-- Node1&#45;&gt;Node6 -->
<g id="edge5_Node000001_Node000006" class="edge">
<title>Node1&#45;&gt;Node6</title>
<g id="a_edge5_Node000001_Node000006"><a xlink:title=" ">
<path fill="none" stroke="#63b8ff" d="M74.82,-97.65C92.57,-88.76 119.32,-75.99 143.5,-67 148.56,-65.12 153.89,-63.31 159.24,-61.61"/>
<polygon fill="#63b8ff" stroke="#63b8ff" points="159.95,-64.75 168.49,-58.48 157.9,-58.05 159.95,-64.75"/>
</a>
</g>
</g>
<!-- Node8 -->
<g id="Node000008" class="node">
<title>Node8</title>
<g id="a_Node000008"><a xlink:href="a00257.html#ae168f993edb4be6bef378eeb2f7d62d6" target="_top" xlink:title=" ">
<polygon fill="white" stroke="#666666" points="270.12,-20 151.38,-20 151.38,0 270.12,0 270.12,-20"/>
<text text-anchor="middle" x="210.75" y="-6.5" font-family="Helvetica,sans-Serif" font-size="10.00">vacm_zerocross_detect</text>
</a>
</g>
</g>
<!-- Node1&#45;&gt;Node8 -->
<g id="edge7_Node000001_Node000008" class="edge">
<title>Node1&#45;&gt;Node8</title>
<g id="a_edge7_Node000001_Node000008"><a xlink:title=" ">
<path fill="none" stroke="#63b8ff" d="M63.49,-97.66C78.27,-80.82 109.89,-47.51 143.5,-29 146.59,-27.3 149.85,-25.73 153.2,-24.3"/>
<polygon fill="#63b8ff" stroke="#63b8ff" points="154.33,-27.23 162.42,-20.39 151.83,-20.7 154.33,-27.23"/>
</a>
</g>
</g>
<!-- Node7 -->
<g id="Node000007" class="node">
<title>Node7</title>
<g id="a_Node000007"><a xlink:href="a00257.html#aef2ab25ed304717c5d288e7053b8237f" target="_top" xlink:title=" ">
<polygon fill="white" stroke="#666666" points="402.75,-58 314,-58 314,-38 402.75,-38 402.75,-58"/>
<text text-anchor="middle" x="358.38" y="-44.5" font-family="Helvetica,sans-Serif" font-size="10.00">vacm_uv_ov_test</text>
</a>
</g>
</g>
<!-- Node6&#45;&gt;Node7 -->
<g id="edge6_Node000006_Node000007" class="edge">
<title>Node6&#45;&gt;Node7</title>
<g id="a_edge6_Node000006_Node000007"><a xlink:title=" ">
<path fill="none" stroke="#63b8ff" d="M257.83,-48C272.18,-48 288.13,-48 303,-48"/>
<polygon fill="#63b8ff" stroke="#63b8ff" points="302.58,-51.5 312.58,-48 302.58,-44.5 302.58,-51.5"/>
</a>
</g>
</g>
</g>
</svg>
</svg>

<style type='text/css'>
<![CDATA[
[data-mouse-over-selected='false'] { opacity: 0.7; }
[data-mouse-over-selected='true']  { opacity: 1.0; }
]]>
</style>
<script type="application/ecmascript"><![CDATA[
document.addEventListener('DOMContentLoaded', (event) => {
  highlightEdges();
  highlightAdjacentNodes();
});
]]></script>
</svg>
