<?xml version="1.0" encoding="UTF-8" standalone="no"?>
<!DOCTYPE svg PUBLIC "-//W3C//DTD SVG 1.1//EN"
 "http://www.w3.org/Graphics/SVG/1.1/DTD/svg11.dtd">
<!-- Generated by graphviz version 8.1.0 (20230707.0739)
 -->
<!-- Title: D:/Firmware/MCU16ASMPS_TestEnvironment/_deployment/dspic33ch&#45;power&#45;totem&#45;pole&#45;demonstration&#45;application&#45;single&#45;phase/dspic33ch_totem_pole_single_phase_primary_IL.X/sources/driver/vac_monitor/vac_monitor.h Pages: 1 -->
<svg width="402pt" height="236pt"
 viewBox="0.00 0.00 402.00 236.00" xmlns="http://www.w3.org/2000/svg" xmlns:xlink="http://www.w3.org/1999/xlink">
<g id="graph0" class="graph" transform="scale(1 1) rotate(0) translate(4 232)">
<title>D:/Firmware/MCU16ASMPS_TestEnvironment/_deployment/dspic33ch&#45;power&#45;totem&#45;pole&#45;demonstration&#45;application&#45;single&#45;phase/dspic33ch_totem_pole_single_phase_primary_IL.X/sources/driver/vac_monitor/vac_monitor.h</title>
<!-- Node1 -->
<g id="Node000001" class="node">
<title>Node1</title>
<g id="a_Node000001"><a xlink:title="header of the VAC">
<polygon fill="#999999" stroke="#666666" points="247.62,-228 71.12,-228 71.12,-136 247.62,-136 247.62,-228"/>
<text text-anchor="start" x="79.12" y="-214.5" font-family="Helvetica,sans-Serif" font-size="10.00">D:/Firmware/MCU16ASMPS</text>
<text text-anchor="start" x="79.12" y="-202.5" font-family="Helvetica,sans-Serif" font-size="10.00">_TestEnvironment/_deployment</text>
<text text-anchor="start" x="79.12" y="-190.5" font-family="Helvetica,sans-Serif" font-size="10.00">/dspic33ch&#45;power&#45;totem&#45;pole</text>
<text text-anchor="start" x="79.12" y="-178.5" font-family="Helvetica,sans-Serif" font-size="10.00">&#45;demonstration&#45;application&#45;single</text>
<text text-anchor="start" x="79.12" y="-166.5" font-family="Helvetica,sans-Serif" font-size="10.00">&#45;phase/dspic33ch_totem_pole_single</text>
<text text-anchor="start" x="79.12" y="-154.5" font-family="Helvetica,sans-Serif" font-size="10.00">_phase_primary_IL.X/sources/driver</text>
<text text-anchor="middle" x="159.38" y="-142.5" font-family="Helvetica,sans-Serif" font-size="10.00">/vac_monitor/vac_monitor.h</text>
</a>
</g>
</g>
<!-- Node2 -->
<g id="Node000002" class="node">
<title>Node2</title>
<g id="a_Node000002"><a xlink:title=" ">
<polygon fill="#e0e0e0" stroke="#999999" points="34.75,-20 0,-20 0,0 34.75,0 34.75,-20"/>
<text text-anchor="middle" x="17.38" y="-6.5" font-family="Helvetica,sans-Serif" font-size="10.00">xc.h</text>
</a>
</g>
</g>
<!-- Node1&#45;&gt;Node2 -->
<g id="edge1_Node000001_Node000002" class="edge">
<title>Node1&#45;&gt;Node2</title>
<g id="a_edge1_Node000001_Node000002"><a xlink:title=" ">
<path fill="none" stroke="#63b8ff" d="M71.48,-135.69C58.1,-125.51 45.68,-113.62 36.38,-100 22.34,-79.46 18.38,-50.53 17.42,-31.29"/>
<polygon fill="#63b8ff" stroke="#63b8ff" points="20.89,-31.39 17.14,-21.48 13.9,-31.57 20.89,-31.39"/>
</a>
</g>
</g>
<!-- Node3 -->
<g id="Node000003" class="node">
<title>Node3</title>
<g id="a_Node000003"><a xlink:href="a00263.html" target="_top" xlink:title="VAC Types define.">
<polygon fill="white" stroke="#666666" points="157.75,-88 45,-88 45,-68 157.75,-68 157.75,-88"/>
<text text-anchor="middle" x="101.38" y="-74.5" font-family="Helvetica,sans-Serif" font-size="10.00">vac_monitor_typedef.h</text>
</a>
</g>
</g>
<!-- Node1&#45;&gt;Node3 -->
<g id="edge2_Node000001_Node000003" class="edge">
<title>Node1&#45;&gt;Node3</title>
<g id="a_edge2_Node000001_Node000003"><a xlink:title=" ">
<path fill="none" stroke="#63b8ff" d="M133.6,-135.67C125.97,-122.26 118.05,-108.32 111.97,-97.62"/>
<polygon fill="#63b8ff" stroke="#63b8ff" points="114.56,-96.11 106.58,-89.15 108.48,-99.57 114.56,-96.11"/>
</a>
</g>
</g>
<!-- Node7 -->
<g id="Node000007" class="node">
<title>Node7</title>
<g id="a_Node000007"><a xlink:href="a00889_source.html" target="_top" xlink:title=" ">
<polygon fill="white" stroke="#666666" points="259.12,-88 175.62,-88 175.62,-68 259.12,-68 259.12,-88"/>
<text text-anchor="middle" x="217.38" y="-74.5" font-family="Helvetica,sans-Serif" font-size="10.00">../../../revision.h</text>
</a>
</g>
</g>
<!-- Node1&#45;&gt;Node7 -->
<g id="edge7_Node000001_Node000007" class="edge">
<title>Node1&#45;&gt;Node7</title>
<g id="a_edge7_Node000001_Node000007"><a xlink:title=" ">
<path fill="none" stroke="#63b8ff" d="M185.15,-135.67C192.78,-122.26 200.7,-108.32 206.78,-97.62"/>
<polygon fill="#63b8ff" stroke="#63b8ff" points="210.27,-99.57 212.17,-89.15 204.19,-96.11 210.27,-99.57"/>
</a>
</g>
</g>
<!-- Node8 -->
<g id="Node000008" class="node">
<title>Node8</title>
<g id="a_Node000008"><a xlink:title=" ">
<polygon fill="#e0e0e0" stroke="#999999" points="394,-100 276.75,-100 276.75,-56 394,-56 394,-100"/>
<text text-anchor="start" x="284.75" y="-86.5" font-family="Helvetica,sans-Serif" font-size="10.00">../sources_common</text>
<text text-anchor="start" x="284.75" y="-74.5" font-family="Helvetica,sans-Serif" font-size="10.00">/Totempole_Application</text>
<text text-anchor="middle" x="335.38" y="-62.5" font-family="Helvetica,sans-Serif" font-size="10.00">_Setup.h</text>
</a>
</g>
</g>
<!-- Node1&#45;&gt;Node8 -->
<g id="edge8_Node000001_Node000008" class="edge">
<title>Node1&#45;&gt;Node8</title>
<g id="a_edge8_Node000001_Node000008"><a xlink:title=" ">
<path fill="none" stroke="#63b8ff" d="M237.85,-135.52C255.31,-125.4 273.28,-114.99 288.96,-105.9"/>
<polygon fill="#63b8ff" stroke="#63b8ff" points="290.5,-108.47 297.4,-100.43 286.99,-102.42 290.5,-108.47"/>
</a>
</g>
</g>
<!-- Node3&#45;&gt;Node2 -->
<g id="edge3_Node000003_Node000002" class="edge">
<title>Node3&#45;&gt;Node2</title>
<g id="a_edge3_Node000003_Node000002"><a xlink:title=" ">
<path fill="none" stroke="#63b8ff" d="M89.34,-67.54C75.87,-56.96 53.81,-39.63 37.66,-26.94"/>
<polygon fill="#63b8ff" stroke="#63b8ff" points="40.41,-23.86 30.39,-20.44 36.09,-29.37 40.41,-23.86"/>
</a>
</g>
</g>
<!-- Node4 -->
<g id="Node000004" class="node">
<title>Node4</title>
<g id="a_Node000004"><a xlink:title=" ">
<polygon fill="#e0e0e0" stroke="#999999" points="101.5,-20 53.25,-20 53.25,0 101.5,0 101.5,-20"/>
<text text-anchor="middle" x="77.38" y="-6.5" font-family="Helvetica,sans-Serif" font-size="10.00">stdint.h</text>
</a>
</g>
</g>
<!-- Node3&#45;&gt;Node4 -->
<g id="edge4_Node000003_Node000004" class="edge">
<title>Node3&#45;&gt;Node4</title>
<g id="a_edge4_Node000003_Node000004"><a xlink:title=" ">
<path fill="none" stroke="#63b8ff" d="M97.94,-67.54C94.44,-57.94 88.93,-42.78 84.49,-30.57"/>
<polygon fill="#63b8ff" stroke="#63b8ff" points="87.51,-29.64 80.81,-21.44 80.94,-32.03 87.51,-29.64"/>
</a>
</g>
</g>
<!-- Node5 -->
<g id="Node000005" class="node">
<title>Node5</title>
<g id="a_Node000005"><a xlink:title=" ">
<polygon fill="#e0e0e0" stroke="#999999" points="175.25,-20 119.5,-20 119.5,0 175.25,0 175.25,-20"/>
<text text-anchor="middle" x="147.38" y="-6.5" font-family="Helvetica,sans-Serif" font-size="10.00">stdbool.h</text>
</a>
</g>
</g>
<!-- Node3&#45;&gt;Node5 -->
<g id="edge5_Node000003_Node000005" class="edge">
<title>Node3&#45;&gt;Node5</title>
<g id="a_edge5_Node000003_Node000005"><a xlink:title=" ">
<path fill="none" stroke="#63b8ff" d="M107.97,-67.54C114.87,-57.64 125.88,-41.84 134.51,-29.46"/>
<polygon fill="#63b8ff" stroke="#63b8ff" points="137.95,-31.64 140.8,-21.44 132.21,-27.64 137.95,-31.64"/>
</a>
</g>
</g>
<!-- Node6 -->
<g id="Node000006" class="node">
<title>Node6</title>
<g id="a_Node000006"><a xlink:title=" ">
<polygon fill="#e0e0e0" stroke="#999999" points="233.38,-20 193.38,-20 193.38,0 233.38,0 233.38,-20"/>
<text text-anchor="middle" x="213.38" y="-6.5" font-family="Helvetica,sans-Serif" font-size="10.00">dsp.h</text>
</a>
</g>
</g>
<!-- Node3&#45;&gt;Node6 -->
<g id="edge6_Node000003_Node000006" class="edge">
<title>Node3&#45;&gt;Node6</title>
<g id="a_edge6_Node000003_Node000006"><a xlink:title=" ">
<path fill="none" stroke="#63b8ff" d="M117.42,-67.54C135.89,-56.66 166.44,-38.66 188.1,-25.89"/>
<polygon fill="#63b8ff" stroke="#63b8ff" points="189.52,-28.53 196.36,-20.44 185.97,-22.5 189.52,-28.53"/>
</a>
</g>
</g>
</g>
</svg>
