<?xml version="1.0" encoding="UTF-8" standalone="no"?>
<!DOCTYPE svg PUBLIC "-//W3C//DTD SVG 1.1//EN"
 "http://www.w3.org/Graphics/SVG/1.1/DTD/svg11.dtd">
<!-- Generated by graphviz version 8.1.0 (20230707.0739)
 -->
<!-- Title: D:/Firmware/MCU16ASMPS_TestEnvironment/_deployment/dspic33ch&#45;power&#45;totem&#45;pole&#45;demonstration&#45;application&#45;single&#45;phase/dspic33ch_totem_pole_single_phase_primary_IL.X/sources/driver/spi/drv_spi.c Pages: 1 -->
<!--zoomable 280 -->

<svg id="main" version="1.1" xmlns="http://www.w3.org/2000/svg" xmlns:xlink="http://www.w3.org/1999/xlink" xml:space="preserve" onload="init(evt)">
<style type="text/css"><![CDATA[
.node, .edge {opacity: 0.7;}
.node.selected, .edge.selected {opacity: 1;}
.edge:hover path { stroke: red; }
.edge:hover polygon { stroke: red; fill: red; }
]]></style>

<defs>
  <circle id="rim" cx="0" cy="0" r="7"/>
  <circle id="rim2" cx="0" cy="0" r="3.5"/>
  <g id="zoomPlus">
    <use xlink:href="#rim" fill="#404040"><set attributeName="fill" to="#808080" begin="zoomplus.mouseover" end="zoomplus.mouseout"/></use>
    <path d="M-4,0h8M0,-4v8" fill="none" stroke="white" stroke-width="1.5" pointer-events="none"/>
  </g>
  <g id="zoomMin">
    <use xlink:href="#rim" fill="#404040"><set attributeName="fill" to="#808080" begin="zoomminus.mouseover" end="zoomminus.mouseout"/></use>
    <path d="M-4,0h8" fill="none" stroke="white" stroke-width="1.5" pointer-events="none"/>
  </g>
  <g id="arrowUp" transform="translate(30 24)">
    <use xlink:href="#rim"/>
    <path pointer-events="none" fill="none" stroke="white" stroke-width="1.5" d="M0,-3.0v7 M-2.5,-0.5L0,-3.0L2.5,-0.5"/>
  </g>
  <g id="arrowRight" transform="rotate(90) translate(36 -43)">
    <use xlink:href="#rim"/>
    <path pointer-events="none" fill="none" stroke="white" stroke-width="1.5" d="M0,-3.0v7 M-2.5,-0.5L0,-3.0L2.5,-0.5"/>
  </g>
  <g id="arrowDown" transform="rotate(180) translate(-30 -48)">
    <use xlink:href="#rim"/>
    <path pointer-events="none" fill="none" stroke="white" stroke-width="1.5" d="M0,-3.0v7 M-2.5,-0.5L0,-3.0L2.5,-0.5"/>
  </g>
  <g id="arrowLeft" transform="rotate(270) translate(-36 17)">
    <use xlink:href="#rim"/>
    <path pointer-events="none" fill="none" stroke="white" stroke-width="1.5" d="M0,-3.0v7 M-2.5,-0.5L0,-3.0L2.5,-0.5"/>
  </g>
  <g id="resetDef">
    <use xlink:href="#rim2" fill="#404040"><set attributeName="fill" to="#808080" begin="reset.mouseover" end="reset.mouseout"/></use>
  </g>
</defs>
<script type="application/ecmascript">
var viewWidth = 975;
var viewHeight = 280;
var sectionId = 'dynsection-0';
</script>
<script type="application/ecmascript" xlink:href="svg.min.js"/>
<svg id="graph" class="graph">
<g id="viewport">
<title>D:/Firmware/MCU16ASMPS_TestEnvironment/_deployment/dspic33ch&#45;power&#45;totem&#45;pole&#45;demonstration&#45;application&#45;single&#45;phase/dspic33ch_totem_pole_single_phase_primary_IL.X/sources/driver/spi/drv_spi.c</title>
<!-- Node1 -->
<g id="Node000001" class="node">
<title>Node1</title>
<g id="a_Node000001"><a xlink:title="This is the driver header file for spi builds upon mcc.">
<polygon fill="#999999" stroke="#666666" points="544.25,-272 367.75,-272 367.75,-180 544.25,-180 544.25,-272"/>
<text text-anchor="start" x="375.75" y="-258.5" font-family="Helvetica,sans-Serif" font-size="10.00">D:/Firmware/MCU16ASMPS</text>
<text text-anchor="start" x="375.75" y="-246.5" font-family="Helvetica,sans-Serif" font-size="10.00">_TestEnvironment/_deployment</text>
<text text-anchor="start" x="375.75" y="-234.5" font-family="Helvetica,sans-Serif" font-size="10.00">/dspic33ch&#45;power&#45;totem&#45;pole</text>
<text text-anchor="start" x="375.75" y="-222.5" font-family="Helvetica,sans-Serif" font-size="10.00">&#45;demonstration&#45;application&#45;single</text>
<text text-anchor="start" x="375.75" y="-210.5" font-family="Helvetica,sans-Serif" font-size="10.00">&#45;phase/dspic33ch_totem_pole_single</text>
<text text-anchor="start" x="375.75" y="-198.5" font-family="Helvetica,sans-Serif" font-size="10.00">_phase_primary_IL.X/sources/driver</text>
<text text-anchor="middle" x="456" y="-186.5" font-family="Helvetica,sans-Serif" font-size="10.00">/spi/drv_spi.c</text>
</a>
</g>
</g>
<!-- Node2 -->
<g id="Node000002" class="node">
<title>Node2</title>
<g id="a_Node000002"><a xlink:title=" ">
<polygon fill="#e0e0e0" stroke="#999999" points="100,-144 0,-144 0,-124 100,-124 100,-144"/>
<text text-anchor="middle" x="50" y="-130.5" font-family="Helvetica,sans-Serif" font-size="10.00">p33CH512MP506.h</text>
</a>
</g>
</g>
<!-- Node1&#45;&gt;Node2 -->
<g id="edge1_Node000001_Node000002" class="edge">
<title>Node1&#45;&gt;Node2</title>
<g id="a_edge1_Node000001_Node000002"><a xlink:title=" ">
<path fill="none" stroke="#63b8ff" d="M367.4,-205.36C286.68,-187.47 170.11,-161.63 103.01,-146.75"/>
<polygon fill="#63b8ff" stroke="#63b8ff" points="104.2,-143.21 93.67,-144.46 102.68,-150.04 104.2,-143.21"/>
</a>
</g>
</g>
<!-- Node3 -->
<g id="Node000003" class="node">
<title>Node3</title>
<g id="a_Node000003"><a xlink:title=" ">
<polygon fill="#e0e0e0" stroke="#999999" points="175.62,-144 118.38,-144 118.38,-124 175.62,-124 175.62,-144"/>
<text text-anchor="middle" x="147" y="-130.5" font-family="Helvetica,sans-Serif" font-size="10.00">libpic30.h</text>
</a>
</g>
</g>
<!-- Node1&#45;&gt;Node3 -->
<g id="edge2_Node000001_Node000003" class="edge">
<title>Node1&#45;&gt;Node3</title>
<g id="a_edge2_Node000001_Node000003"><a xlink:title=" ">
<path fill="none" stroke="#63b8ff" d="M367.45,-199.21C307.69,-181.8 231.71,-159.67 186.35,-146.46"/>
<polygon fill="#63b8ff" stroke="#63b8ff" points="187.63,-142.9 177.05,-143.46 185.68,-149.62 187.63,-142.9"/>
</a>
</g>
</g>
<!-- Node4 -->
<g id="Node000004" class="node">
<title>Node4</title>
<g id="a_Node000004"><a xlink:href="a00254.html" target="_top" xlink:title="This is the driver source file for spi builds upon mcc.">
<polygon fill="white" stroke="#666666" points="331.12,-144 276.88,-144 276.88,-124 331.12,-124 331.12,-144"/>
<text text-anchor="middle" x="304" y="-130.5" font-family="Helvetica,sans-Serif" font-size="10.00">drv_spi.h</text>
</a>
</g>
</g>
<!-- Node1&#45;&gt;Node4 -->
<g id="edge3_Node000001_Node000004" class="edge">
<title>Node1&#45;&gt;Node4</title>
<g id="a_edge3_Node000001_Node000004"><a xlink:title=" ">
<path fill="none" stroke="#63b8ff" d="M379.55,-179.74C361.35,-168.96 343.18,-158.2 329.22,-149.94"/>
<polygon fill="#63b8ff" stroke="#63b8ff" points="331.25,-146.48 320.86,-144.39 327.69,-152.5 331.25,-146.48"/>
</a>
</g>
</g>
<!-- Node7 -->
<g id="Node000007" class="node">
<title>Node7</title>
<g id="a_Node000007"><a xlink:href="a00230.html" target="_top" xlink:title="header of the CAN Driver">
<polygon fill="white" stroke="#666666" points="450.75,-144 349.25,-144 349.25,-124 450.75,-124 450.75,-144"/>
<text text-anchor="middle" x="400" y="-130.5" font-family="Helvetica,sans-Serif" font-size="10.00">driver/can/drv_can.h</text>
</a>
</g>
</g>
<!-- Node1&#45;&gt;Node7 -->
<g id="edge6_Node000001_Node000007" class="edge">
<title>Node1&#45;&gt;Node7</title>
<g id="a_edge6_Node000001_Node000007"><a xlink:title=" ">
<path fill="none" stroke="#63b8ff" d="M427.84,-179.74C422.07,-170.47 416.31,-161.21 411.54,-153.55"/>
<polygon fill="#63b8ff" stroke="#63b8ff" points="414,-151.87 405.74,-145.23 408.05,-155.57 414,-151.87"/>
</a>
</g>
</g>
<!-- Node8 -->
<g id="Node000008" class="node">
<title>Node8</title>
<g id="a_Node000008"><a xlink:title=" ">
<polygon fill="#e0e0e0" stroke="#999999" points="836.75,-144 759.25,-144 759.25,-124 836.75,-124 836.75,-144"/>
<text text-anchor="middle" x="798" y="-130.5" font-family="Helvetica,sans-Serif" font-size="10.00">system/pins.h</text>
</a>
</g>
</g>
<!-- Node1&#45;&gt;Node8 -->
<g id="edge8_Node000001_Node000008" class="edge">
<title>Node1&#45;&gt;Node8</title>
<g id="a_edge8_Node000001_Node000008"><a xlink:title=" ">
<path fill="none" stroke="#63b8ff" d="M544.52,-201.71C610.81,-184.26 698.84,-161.1 751.8,-147.16"/>
<polygon fill="#63b8ff" stroke="#63b8ff" points="752.45,-150.34 761.23,-144.41 750.67,-143.57 752.45,-150.34"/>
</a>
</g>
</g>
<!-- Node9 -->
<g id="Node000009" class="node">
<title>Node9</title>
<g id="a_Node000009"><a xlink:href="a00134.html" target="_top" xlink:title="This is the generated driver header file for the SPI1 driver.">
<polygon fill="white" stroke="#666666" points="555.25,-144 468.75,-144 468.75,-124 555.25,-124 555.25,-144"/>
<text text-anchor="middle" x="512" y="-130.5" font-family="Helvetica,sans-Serif" font-size="10.00">spi_client/spi1.h</text>
</a>
</g>
</g>
<!-- Node1&#45;&gt;Node9 -->
<g id="edge9_Node000001_Node000009" class="edge">
<title>Node1&#45;&gt;Node9</title>
<g id="a_edge9_Node000001_Node000009"><a xlink:title=" ">
<path fill="none" stroke="#63b8ff" d="M484.16,-179.74C489.93,-170.47 495.69,-161.21 500.46,-153.55"/>
<polygon fill="#63b8ff" stroke="#63b8ff" points="503.95,-155.57 506.26,-145.23 498,-151.87 503.95,-155.57"/>
</a>
</g>
</g>
<!-- Node13 -->
<g id="Node000013" class="node">
<title>Node13</title>
<g id="a_Node000013"><a xlink:href="a00107.html" target="_top" xlink:title="This is the generated driver header file for the DMA driver.">
<polygon fill="white" stroke="#666666" points="258.38,-144 193.62,-144 193.62,-124 258.38,-124 258.38,-144"/>
<text text-anchor="middle" x="226" y="-130.5" font-family="Helvetica,sans-Serif" font-size="10.00">dma/dma.h</text>
</a>
</g>
</g>
<!-- Node1&#45;&gt;Node13 -->
<g id="edge17_Node000001_Node000013" class="edge">
<title>Node1&#45;&gt;Node13</title>
<g id="a_edge17_Node000001_Node000013"><a xlink:title=" ">
<path fill="none" stroke="#63b8ff" d="M367.4,-190.33C329.93,-175.67 288.49,-159.45 260.22,-148.39"/>
<polygon fill="#63b8ff" stroke="#63b8ff" points="261.65,-144.8 251.06,-144.42 259.1,-151.32 261.65,-144.8"/>
</a>
</g>
</g>
<!-- Node16 -->
<g id="Node000016" class="node">
<title>Node16</title>
<g id="a_Node000016"><a xlink:title=" ">
<polygon fill="#e0e0e0" stroke="#999999" points="967.38,-144 854.62,-144 854.62,-124 967.38,-124 967.38,-144"/>
<text text-anchor="middle" x="911" y="-130.5" font-family="Helvetica,sans-Serif" font-size="10.00">timer/timer_interface.h</text>
</a>
</g>
</g>
<!-- Node1&#45;&gt;Node16 -->
<g id="edge26_Node000001_Node000016" class="edge">
<title>Node1&#45;&gt;Node16</title>
<g id="a_edge26_Node000001_Node000016"><a xlink:title=" ">
<path fill="none" stroke="#63b8ff" d="M544.54,-207.49C635.53,-189.49 774.58,-161.98 852.63,-146.55"/>
<polygon fill="#63b8ff" stroke="#63b8ff" points="853.1,-149.82 862.23,-144.45 851.74,-142.96 853.1,-149.82"/>
</a>
</g>
</g>
<!-- Node17 -->
<g id="Node000017" class="node">
<title>Node17</title>
<g id="a_Node000017"><a xlink:href="a00203.html" target="_top" xlink:title="This is the generated driver header file for the SCCP1&#45;TIMER driver.">
<polygon fill="white" stroke="#666666" points="741.62,-144 666.38,-144 666.38,-124 741.62,-124 741.62,-144"/>
<text text-anchor="middle" x="704" y="-130.5" font-family="Helvetica,sans-Serif" font-size="10.00">timer/sccp1.h</text>
</a>
</g>
</g>
<!-- Node1&#45;&gt;Node17 -->
<g id="edge27_Node000001_Node000017" class="edge">
<title>Node1&#45;&gt;Node17</title>
<g id="a_edge27_Node000001_Node000017"><a xlink:title=" ">
<path fill="none" stroke="#63b8ff" d="M544.48,-192.89C586.85,-177.51 635.26,-159.95 667.53,-148.24"/>
<polygon fill="#63b8ff" stroke="#63b8ff" points="668.62,-151.2 676.82,-144.5 666.23,-144.62 668.62,-151.2"/>
</a>
</g>
</g>
<!-- Node20 -->
<g id="Node000020" class="node">
<title>Node20</title>
<g id="a_Node000020"><a xlink:href="a00206.html" target="_top" xlink:title="This is the generated driver header file for the SCCP2&#45;TIMER driver.">
<polygon fill="white" stroke="#666666" points="648.62,-144 573.38,-144 573.38,-124 648.62,-124 648.62,-144"/>
<text text-anchor="middle" x="611" y="-130.5" font-family="Helvetica,sans-Serif" font-size="10.00">timer/sccp2.h</text>
</a>
</g>
</g>
<!-- Node1&#45;&gt;Node20 -->
<g id="edge36_Node000001_Node000020" class="edge">
<title>Node1&#45;&gt;Node20</title>
<g id="a_edge36_Node000001_Node000020"><a xlink:title=" ">
<path fill="none" stroke="#63b8ff" d="M533.95,-179.74C552.7,-168.85 571.4,-157.99 585.69,-149.7"/>
<polygon fill="#63b8ff" stroke="#63b8ff" points="586.93,-152.44 593.82,-144.39 583.42,-146.39 586.93,-152.44"/>
</a>
</g>
</g>
<!-- Node5 -->
<g id="Node000005" class="node">
<title>Node5</title>
<g id="a_Node000005"><a xlink:title=" ">
<polygon fill="#e0e0e0" stroke="#999999" points="373.38,-88 338.62,-88 338.62,-68 373.38,-68 373.38,-88"/>
<text text-anchor="middle" x="356" y="-74.5" font-family="Helvetica,sans-Serif" font-size="10.00">xc.h</text>
</a>
</g>
</g>
<!-- Node4&#45;&gt;Node5 -->
<g id="edge4_Node000004_Node000005" class="edge">
<title>Node4&#45;&gt;Node5</title>
<g id="a_edge4_Node000004_Node000005"><a xlink:title=" ">
<path fill="none" stroke="#63b8ff" d="M313.06,-123.59C320.37,-116.01 330.83,-105.13 339.61,-96.02"/>
<polygon fill="#63b8ff" stroke="#63b8ff" points="341.63,-98.93 346.05,-89.3 336.59,-94.07 341.63,-98.93"/>
</a>
</g>
</g>
<!-- Node6 -->
<g id="Node000006" class="node">
<title>Node6</title>
<g id="a_Node000006"><a xlink:title=" ">
<polygon fill="#e0e0e0" stroke="#999999" points="364.88,-26 309.12,-26 309.12,-6 364.88,-6 364.88,-26"/>
<text text-anchor="middle" x="337" y="-12.5" font-family="Helvetica,sans-Serif" font-size="10.00">stdbool.h</text>
</a>
</g>
</g>
<!-- Node4&#45;&gt;Node6 -->
<g id="edge5_Node000004_Node000006" class="edge">
<title>Node4&#45;&gt;Node6</title>
<g id="a_edge5_Node000004_Node000006"><a xlink:title=" ">
<path fill="none" stroke="#63b8ff" d="M306.7,-123.51C312.07,-104.64 324.18,-62.05 331.36,-36.82"/>
<polygon fill="#63b8ff" stroke="#63b8ff" points="334.98,-37.88 334.35,-27.3 328.25,-35.96 334.98,-37.88"/>
</a>
</g>
</g>
<!-- Node7&#45;&gt;Node5 -->
<g id="edge7_Node000007_Node000005" class="edge">
<title>Node7&#45;&gt;Node5</title>
<g id="a_edge7_Node000007_Node000005"><a xlink:title=" ">
<path fill="none" stroke="#63b8ff" d="M392.34,-123.59C386.28,-116.16 377.65,-105.58 370.33,-96.58"/>
<polygon fill="#63b8ff" stroke="#63b8ff" points="372.61,-94.84 363.58,-89.3 367.18,-99.26 372.61,-94.84"/>
</a>
</g>
</g>
<!-- Node9&#45;&gt;Node6 -->
<g id="edge11_Node000009_Node000006" class="edge">
<title>Node9&#45;&gt;Node6</title>
<g id="a_edge11_Node000009_Node000006"><a xlink:title=" ">
<path fill="none" stroke="#63b8ff" d="M497.68,-123.51C467.41,-103.44 396.69,-56.56 360,-32.24"/>
<polygon fill="#63b8ff" stroke="#63b8ff" points="362.3,-28.91 352.03,-26.3 358.43,-34.74 362.3,-28.91"/>
</a>
</g>
</g>
<!-- Node10 -->
<g id="Node000010" class="node">
<title>Node10</title>
<g id="a_Node000010"><a xlink:title=" ">
<polygon fill="#e0e0e0" stroke="#999999" points="545.12,-26 496.88,-26 496.88,-6 545.12,-6 545.12,-26"/>
<text text-anchor="middle" x="521" y="-12.5" font-family="Helvetica,sans-Serif" font-size="10.00">stdint.h</text>
</a>
</g>
</g>
<!-- Node9&#45;&gt;Node10 -->
<g id="edge10_Node000009_Node000010" class="edge">
<title>Node9&#45;&gt;Node10</title>
<g id="a_edge10_Node000009_Node000010"><a xlink:title=" ">
<path fill="none" stroke="#63b8ff" d="M494.18,-123.54C474.6,-111.79 447.26,-90.51 458,-68 465.26,-52.77 479.54,-40.62 492.67,-32.01"/>
<polygon fill="#63b8ff" stroke="#63b8ff" points="494.2,-34.56 500.91,-26.36 490.56,-28.59 494.2,-34.56"/>
</a>
</g>
</g>
<!-- Node11 -->
<g id="Node000011" class="node">
<title>Node11</title>
<g id="a_Node000011"><a xlink:title=" ">
<polygon fill="#e0e0e0" stroke="#999999" points="819.25,-26 768.75,-26 768.75,-6 819.25,-6 819.25,-26"/>
<text text-anchor="middle" x="794" y="-12.5" font-family="Helvetica,sans-Serif" font-size="10.00">stddef.h</text>
</a>
</g>
</g>
<!-- Node9&#45;&gt;Node11 -->
<g id="edge12_Node000009_Node000011" class="edge">
<title>Node9&#45;&gt;Node11</title>
<g id="a_edge12_Node000009_Node000011"><a xlink:title=" ">
<path fill="none" stroke="#63b8ff" d="M555.74,-125.39C628.11,-112.77 764.98,-88.83 766,-88 781.52,-75.31 788.48,-52.83 791.57,-36.55"/>
<polygon fill="#63b8ff" stroke="#63b8ff" points="795.13,-37.45 793.21,-27.03 788.21,-36.37 795.13,-37.45"/>
</a>
</g>
</g>
<!-- Node12 -->
<g id="Node000012" class="node">
<title>Node12</title>
<g id="a_Node000012"><a xlink:href="a00137_source.html" target="_top" xlink:title=" ">
<polygon fill="white" stroke="#666666" points="574.75,-88 467.25,-88 467.25,-68 574.75,-68 574.75,-88"/>
<text text-anchor="middle" x="521" y="-74.5" font-family="Helvetica,sans-Serif" font-size="10.00">spi_client_interface.h</text>
</a>
</g>
</g>
<!-- Node9&#45;&gt;Node12 -->
<g id="edge13_Node000009_Node000012" class="edge">
<title>Node9&#45;&gt;Node12</title>
<g id="a_edge13_Node000009_Node000012"><a xlink:title=" ">
<path fill="none" stroke="#63b8ff" d="M513.57,-123.59C514.7,-116.78 516.28,-107.32 517.69,-98.86"/>
<polygon fill="#63b8ff" stroke="#63b8ff" points="521.26,-99.74 519.45,-89.3 514.35,-98.59 521.26,-99.74"/>
</a>
</g>
</g>
<!-- Node12&#45;&gt;Node6 -->
<g id="edge15_Node000012_Node000006" class="edge">
<title>Node12&#45;&gt;Node6</title>
<g id="a_edge15_Node000012_Node000006"><a xlink:title=" ">
<path fill="none" stroke="#63b8ff" d="M492.25,-67.62C460.83,-57.38 410.34,-40.91 375.51,-29.56"/>
<polygon fill="#63b8ff" stroke="#63b8ff" points="376.84,-25.98 366.25,-26.21 374.67,-32.64 376.84,-25.98"/>
</a>
</g>
</g>
<!-- Node12&#45;&gt;Node10 -->
<g id="edge14_Node000012_Node000010" class="edge">
<title>Node12&#45;&gt;Node10</title>
<g id="a_edge14_Node000012_Node000010"><a xlink:title=" ">
<path fill="none" stroke="#63b8ff" d="M521,-67.62C521,-59.48 521,-47.39 521,-37.07"/>
<polygon fill="#63b8ff" stroke="#63b8ff" points="524.5,-37.11 521,-27.11 517.5,-37.11 524.5,-37.11"/>
</a>
</g>
</g>
<!-- Node12&#45;&gt;Node11 -->
<g id="edge16_Node000012_Node000011" class="edge">
<title>Node12&#45;&gt;Node11</title>
<g id="a_edge16_Node000012_Node000011"><a xlink:title=" ">
<path fill="none" stroke="#63b8ff" d="M575.01,-70.44C624.02,-63.64 697.9,-51.26 760,-32 761.54,-31.52 763.1,-30.99 764.67,-30.43"/>
<polygon fill="#63b8ff" stroke="#63b8ff" points="765.89,-33.31 773.88,-26.35 763.29,-26.81 765.89,-33.31"/>
</a>
</g>
</g>
<!-- Node13&#45;&gt;Node5 -->
<g id="edge18_Node000013_Node000005" class="edge">
<title>Node13&#45;&gt;Node5</title>
<g id="a_edge18_Node000013_Node000005"><a xlink:title=" ">
<path fill="none" stroke="#63b8ff" d="M248.64,-123.59C270.72,-114.42 304.35,-100.45 328.08,-90.6"/>
<polygon fill="#63b8ff" stroke="#63b8ff" points="329.31,-93.46 337.21,-86.39 326.63,-87 329.31,-93.46"/>
</a>
</g>
</g>
<!-- Node13&#45;&gt;Node6 -->
<g id="edge19_Node000013_Node000006" class="edge">
<title>Node13&#45;&gt;Node6</title>
<g id="a_edge19_Node000013_Node000006"><a xlink:title=" ">
<path fill="none" stroke="#63b8ff" d="M235.08,-123.51C253.8,-103.95 296.87,-58.94 320.59,-34.15"/>
<polygon fill="#63b8ff" stroke="#63b8ff" points="322.72,-36.94 327.1,-27.3 317.66,-32.11 322.72,-36.94"/>
</a>
</g>
</g>
<!-- Node13&#45;&gt;Node10 -->
<g id="edge20_Node000013_Node000010" class="edge">
<title>Node13&#45;&gt;Node10</title>
<g id="a_edge20_Node000013_Node000010"><a xlink:title=" ">
<path fill="none" stroke="#63b8ff" d="M239.85,-123.62C263.65,-107.62 311.54,-76.02 330,-68 382.11,-45.36 446.7,-30.68 485.83,-23.12"/>
<polygon fill="#63b8ff" stroke="#63b8ff" points="486.22,-26.42 495.4,-21.14 484.93,-19.54 486.22,-26.42"/>
</a>
</g>
</g>
<!-- Node14 -->
<g id="Node000014" class="node">
<title>Node14</title>
<g id="a_Node000014"><a xlink:href="a00113.html" target="_top" xlink:title="This is the generated driver types header file for the DMA driver.">
<polygon fill="white" stroke="#666666" points="165.12,-26 92.88,-26 92.88,-6 165.12,-6 165.12,-26"/>
<text text-anchor="middle" x="129" y="-12.5" font-family="Helvetica,sans-Serif" font-size="10.00">dma_types.h</text>
</a>
</g>
</g>
<!-- Node13&#45;&gt;Node14 -->
<g id="edge21_Node000013_Node000014" class="edge">
<title>Node13&#45;&gt;Node14</title>
<g id="a_edge21_Node000013_Node000014"><a xlink:title=" ">
<path fill="none" stroke="#63b8ff" d="M193.4,-124.54C163.19,-115.96 121.52,-101.99 112,-88 101.34,-72.33 108.93,-50.75 117.09,-35.51"/>
<polygon fill="#63b8ff" stroke="#63b8ff" points="120.56,-37.51 122.61,-27.11 114.52,-33.96 120.56,-37.51"/>
</a>
</g>
</g>
<!-- Node15 -->
<g id="Node000015" class="node">
<title>Node15</title>
<g id="a_Node000015"><a xlink:href="a00110_source.html" target="_top" xlink:title=" ">
<polygon fill="white" stroke="#666666" points="206.5,-88 121.5,-88 121.5,-68 206.5,-68 206.5,-88"/>
<text text-anchor="middle" x="164" y="-74.5" font-family="Helvetica,sans-Serif" font-size="10.00">dma_interface.h</text>
</a>
</g>
</g>
<!-- Node13&#45;&gt;Node15 -->
<g id="edge22_Node000013_Node000015" class="edge">
<title>Node13&#45;&gt;Node15</title>
<g id="a_edge22_Node000013_Node000015"><a xlink:title=" ">
<path fill="none" stroke="#63b8ff" d="M215.2,-123.59C206.31,-115.85 193.49,-104.69 182.91,-95.47"/>
<polygon fill="#63b8ff" stroke="#63b8ff" points="185.52,-92.23 175.68,-88.3 180.92,-97.51 185.52,-92.23"/>
</a>
</g>
</g>
<!-- Node15&#45;&gt;Node6 -->
<g id="edge24_Node000015_Node000006" class="edge">
<title>Node15&#45;&gt;Node6</title>
<g id="a_edge24_Node000015_Node000006"><a xlink:title=" ">
<path fill="none" stroke="#63b8ff" d="M191.03,-67.62C220.27,-57.48 267.09,-41.25 299.79,-29.9"/>
<polygon fill="#63b8ff" stroke="#63b8ff" points="300.57,-32.99 308.87,-26.41 298.28,-26.38 300.57,-32.99"/>
</a>
</g>
</g>
<!-- Node15&#45;&gt;Node10 -->
<g id="edge23_Node000015_Node000010" class="edge">
<title>Node15&#45;&gt;Node10</title>
<g id="a_edge23_Node000015_Node000010"><a xlink:title=" ">
<path fill="none" stroke="#63b8ff" d="M206.71,-69.82C278.09,-57.83 420.27,-33.93 486.09,-22.87"/>
<polygon fill="#63b8ff" stroke="#63b8ff" points="486.43,-26.19 495.71,-21.08 485.27,-19.29 486.43,-26.19"/>
</a>
</g>
</g>
<!-- Node15&#45;&gt;Node14 -->
<g id="edge25_Node000015_Node000014" class="edge">
<title>Node15&#45;&gt;Node14</title>
<g id="a_edge25_Node000015_Node000014"><a xlink:title=" ">
<path fill="none" stroke="#63b8ff" d="M158.53,-67.62C153.52,-59.03 145.96,-46.07 139.74,-35.41"/>
<polygon fill="#63b8ff" stroke="#63b8ff" points="142.38,-33.99 134.32,-27.11 136.33,-37.51 142.38,-33.99"/>
</a>
</g>
</g>
<!-- Node17&#45;&gt;Node5 -->
<g id="edge30_Node000017_Node000005" class="edge">
<title>Node17&#45;&gt;Node5</title>
<g id="a_edge30_Node000017_Node000005"><a xlink:title=" ">
<path fill="none" stroke="#63b8ff" d="M666.37,-125.49C663.54,-124.97 660.73,-124.47 658,-124 557.74,-106.73 438.08,-90.06 384.45,-82.8"/>
<polygon fill="#63b8ff" stroke="#63b8ff" points="385.12,-79.23 374.75,-81.36 384.19,-86.16 385.12,-79.23"/>
</a>
</g>
</g>
<!-- Node17&#45;&gt;Node10 -->
<g id="edge29_Node000017_Node000010" class="edge">
<title>Node17&#45;&gt;Node10</title>
<g id="a_edge29_Node000017_Node000010"><a xlink:title=" ">
<path fill="none" stroke="#63b8ff" d="M689.66,-123.67C670.12,-110.99 634.01,-87.62 603,-68 583.58,-55.71 561.44,-41.96 545.07,-31.83"/>
<polygon fill="#63b8ff" stroke="#63b8ff" points="547.5,-28.61 537.16,-26.33 543.83,-34.56 547.5,-28.61"/>
</a>
</g>
</g>
<!-- Node17&#45;&gt;Node11 -->
<g id="edge28_Node000017_Node000011" class="edge">
<title>Node17&#45;&gt;Node11</title>
<g id="a_edge28_Node000017_Node000011"><a xlink:title=" ">
<path fill="none" stroke="#63b8ff" d="M741.95,-125.3C777.13,-117.29 825.7,-103.75 837,-88 849.88,-70.05 831.92,-48.14 815.43,-33.45"/>
<polygon fill="#63b8ff" stroke="#63b8ff" points="818.03,-30.22 808.12,-26.48 813.53,-35.59 818.03,-30.22"/>
</a>
</g>
</g>
<!-- Node18 -->
<g id="Node000018" class="node">
<title>Node18</title>
<g id="a_Node000018"><a xlink:href="a00877_source.html" target="_top" xlink:title=" ">
<polygon fill="white" stroke="#666666" points="757,-88 669,-88 669,-68 757,-68 757,-88"/>
<text text-anchor="middle" x="713" y="-74.5" font-family="Helvetica,sans-Serif" font-size="10.00">timer_interface.h</text>
</a>
</g>
</g>
<!-- Node17&#45;&gt;Node18 -->
<g id="edge31_Node000017_Node000018" class="edge">
<title>Node17&#45;&gt;Node18</title>
<g id="a_edge31_Node000017_Node000018"><a xlink:title=" ">
<path fill="none" stroke="#63b8ff" d="M705.57,-123.59C706.7,-116.78 708.28,-107.32 709.69,-98.86"/>
<polygon fill="#63b8ff" stroke="#63b8ff" points="713.26,-99.74 711.45,-89.3 706.35,-98.59 713.26,-99.74"/>
</a>
</g>
</g>
<!-- Node18&#45;&gt;Node6 -->
<g id="edge34_Node000018_Node000006" class="edge">
<title>Node18&#45;&gt;Node6</title>
<g id="a_edge34_Node000018_Node000006"><a xlink:title=" ">
<path fill="none" stroke="#63b8ff" d="M668.76,-69.94C594.5,-58.09 446.01,-34.4 375.67,-23.17"/>
<polygon fill="#63b8ff" stroke="#63b8ff" points="376.5,-19.6 366.07,-21.48 375.39,-26.51 376.5,-19.6"/>
</a>
</g>
</g>
<!-- Node18&#45;&gt;Node10 -->
<g id="edge33_Node000018_Node000010" class="edge">
<title>Node18&#45;&gt;Node10</title>
<g id="a_edge33_Node000018_Node000010"><a xlink:title=" ">
<path fill="none" stroke="#63b8ff" d="M683,-67.62C648.54,-56.86 592.08,-39.21 555.74,-27.86"/>
<polygon fill="#63b8ff" stroke="#63b8ff" points="557.2,-24.33 546.61,-24.69 555.11,-31.01 557.2,-24.33"/>
</a>
</g>
</g>
<!-- Node18&#45;&gt;Node11 -->
<g id="edge32_Node000018_Node000011" class="edge">
<title>Node18&#45;&gt;Node11</title>
<g id="a_edge32_Node000018_Node000011"><a xlink:title=" ">
<path fill="none" stroke="#63b8ff" d="M725.66,-67.62C738.26,-58.29 757.83,-43.79 772.81,-32.7"/>
<polygon fill="#63b8ff" stroke="#63b8ff" points="774.48,-35.07 780.43,-26.31 770.31,-29.45 774.48,-35.07"/>
</a>
</g>
</g>
<!-- Node19 -->
<g id="Node000019" class="node">
<title>Node19</title>
<g id="a_Node000019"><a xlink:href="a00775_source.html" target="_top" xlink:title=" ">
<polygon fill="white" stroke="#666666" points="750.75,-32 655.25,-32 655.25,0 750.75,0 750.75,-32"/>
<text text-anchor="start" x="663.25" y="-18.5" font-family="Helvetica,sans-Serif" font-size="10.00">../system/interrupt</text>
<text text-anchor="middle" x="703" y="-6.5" font-family="Helvetica,sans-Serif" font-size="10.00">_types.h</text>
</a>
</g>
</g>
<!-- Node18&#45;&gt;Node19 -->
<g id="edge35_Node000018_Node000019" class="edge">
<title>Node18&#45;&gt;Node19</title>
<g id="a_edge35_Node000018_Node000019"><a xlink:title=" ">
<path fill="none" stroke="#63b8ff" d="M711.44,-67.62C710.33,-60.95 708.77,-51.64 707.3,-42.82"/>
<polygon fill="#63b8ff" stroke="#63b8ff" points="710.62,-42.43 705.52,-33.14 703.72,-43.58 710.62,-42.43"/>
</a>
</g>
</g>
<!-- Node20&#45;&gt;Node5 -->
<g id="edge39_Node000020_Node000005" class="edge">
<title>Node20&#45;&gt;Node5</title>
<g id="a_edge39_Node000020_Node000005"><a xlink:title=" ">
<path fill="none" stroke="#63b8ff" d="M573.1,-124.97C521.56,-114.06 430.51,-94.78 384.42,-85.02"/>
<polygon fill="#63b8ff" stroke="#63b8ff" points="385.23,-81.4 374.73,-82.75 383.78,-88.25 385.23,-81.4"/>
</a>
</g>
</g>
<!-- Node20&#45;&gt;Node10 -->
<g id="edge38_Node000020_Node000010" class="edge">
<title>Node20&#45;&gt;Node10</title>
<g id="a_edge38_Node000020_Node000010"><a xlink:title=" ">
<path fill="none" stroke="#63b8ff" d="M608.76,-123.87C605.17,-110.59 597.17,-85.62 584,-68 573.49,-53.94 558.27,-41.48 545.42,-32.39"/>
<polygon fill="#63b8ff" stroke="#63b8ff" points="547.82,-29.11 537.58,-26.39 543.89,-34.9 547.82,-29.11"/>
</a>
</g>
</g>
<!-- Node20&#45;&gt;Node11 -->
<g id="edge37_Node000020_Node000011" class="edge">
<title>Node20&#45;&gt;Node11</title>
<g id="a_edge37_Node000020_Node000011"><a xlink:title=" ">
<path fill="none" stroke="#63b8ff" d="M648.74,-125.21C702.26,-113.99 794.3,-93.96 799,-88 810.33,-73.64 806.88,-52.14 801.96,-36.56"/>
<polygon fill="#63b8ff" stroke="#63b8ff" points="805,-35.67 798.31,-27.45 798.41,-38.05 805,-35.67"/>
</a>
</g>
</g>
<!-- Node20&#45;&gt;Node18 -->
<g id="edge40_Node000020_Node000018" class="edge">
<title>Node20&#45;&gt;Node18</title>
<g id="a_edge40_Node000020_Node000018"><a xlink:title=" ">
<path fill="none" stroke="#63b8ff" d="M628.77,-123.59C644.39,-115.32 667.39,-103.14 685.41,-93.6"/>
<polygon fill="#63b8ff" stroke="#63b8ff" points="686.89,-96.25 694.09,-88.48 683.62,-90.07 686.89,-96.25"/>
</a>
</g>
</g>
</g>
</svg>

<g id="navigator" transform="translate(0 0)" fill="#404254">
  <rect fill="#f2f5e9" fill-opacity="0.5" stroke="#606060" stroke-width=".5" x="0" y="0" width="60" height="60"/>
  <use id="zoomplus" xlink:href="#zoomPlus" x="17" y="9" onmousedown="handleZoom(evt,'in')"/>
  <use id="zoomminus" xlink:href="#zoomMin" x="42" y="9" onmousedown="handleZoom(evt,'out')"/>
  <use id="reset" xlink:href="#resetDef" x="30" y="36" onmousedown="handleReset()"/>
   <use id="arrowup" xlink:href="#arrowUp" x="0" y="0" onmousedown="handlePan(0,-1)"/>
  <use id="arrowright" xlink:href="#arrowRight" x="0" y="0" onmousedown="handlePan(1,0)"/>
  <use id="arrowdown" xlink:href="#arrowDown" x="0" y="0" onmousedown="handlePan(0,1)"/>
  <use id="arrowleft" xlink:href="#arrowLeft" x="0" y="0" onmousedown="handlePan(-1,0)"/>
</g>
<svg viewBox="0 0 15 15" width="100%" height="30px" preserveAspectRatio="xMaxYMin meet">
 <g id="arrow_out" transform="scale(0.3 0.3)">
  <a xlink:href="a00252_org.svg" target="_base">
   <rect id="button" ry="5" rx="5" y="6" x="6" height="38" width="38"
        fill="#f2f5e9" fill-opacity="0.5" stroke="#606060" stroke-width="1.0"/>
   <path id="arrow"
     d="M 11.500037,31.436501 C 11.940474,20.09759 22.043105,11.32322 32.158766,21.979434 L 37.068811,17.246167 C 37.068811,17.246167 37.088388,32 37.088388,32 L 22.160133,31.978069 C 22.160133,31.978069 26.997745,27.140456 26.997745,27.140456 C 18.528582,18.264221 13.291696,25.230495 11.500037,31.436501 z"
     style="fill:#404040;"/>
  </a>
 </g>
</svg>

<style type='text/css'>
<![CDATA[
[data-mouse-over-selected='false'] { opacity: 0.7; }
[data-mouse-over-selected='true']  { opacity: 1.0; }
]]>
</style>
<script type="application/ecmascript"><![CDATA[
document.addEventListener('DOMContentLoaded', (event) => {
  highlightEdges();
  highlightAdjacentNodes();
});
]]></script>
</svg>
