<?xml version="1.0" encoding="UTF-8" standalone="no"?>
<!DOCTYPE svg PUBLIC "-//W3C//DTD SVG 1.1//EN"
 "http://www.w3.org/Graphics/SVG/1.1/DTD/svg11.dtd">
<!-- Generated by graphviz version 2.44.1 (20200629.0846)
 -->
<!-- Title: vacm_state_machine Pages: 1 -->
<!--zoomable 335 -->

<svg id="main" version="1.1" xmlns="http://www.w3.org/2000/svg" xmlns:xlink="http://www.w3.org/1999/xlink" xml:space="preserve" onload="init(evt)">

<style type="text/css"><![CDATA[
.node, .edge {opacity: 0.7;}
.node.selected, .edge.selected {opacity: 1;}
.edge:hover path { stroke: red; }
.edge:hover polygon { stroke: red; fill: red; }
]]></style>

<defs>
  <circle id="rim" cx="0" cy="0" r="7"/>
  <circle id="rim2" cx="0" cy="0" r="3.5"/>
  <g id="zoomPlus">
    <use xlink:href="#rim" fill="#404040"><set attributeName="fill" to="#808080" begin="zoomplus.mouseover" end="zoomplus.mouseout"/></use>
    <path d="M-4,0h8M0,-4v8" fill="none" stroke="white" stroke-width="1.5" pointer-events="none"/>
  </g>
  <g id="zoomMin">
    <use xlink:href="#rim" fill="#404040"><set attributeName="fill" to="#808080" begin="zoomminus.mouseover" end="zoomminus.mouseout"/></use>
    <path d="M-4,0h8" fill="none" stroke="white" stroke-width="1.5" pointer-events="none"/>
  </g>
  <g id="arrowUp" transform="translate(30 24)">
    <use xlink:href="#rim"/>
    <path pointer-events="none" fill="none" stroke="white" stroke-width="1.5" d="M0,-3.0v7 M-2.5,-0.5L0,-3.0L2.5,-0.5"/>
  </g>
  <g id="arrowRight" transform="rotate(90) translate(36 -43)">
    <use xlink:href="#rim"/>
    <path pointer-events="none" fill="none" stroke="white" stroke-width="1.5" d="M0,-3.0v7 M-2.5,-0.5L0,-3.0L2.5,-0.5"/>
  </g>
  <g id="arrowDown" transform="rotate(180) translate(-30 -48)">
    <use xlink:href="#rim"/>
    <path pointer-events="none" fill="none" stroke="white" stroke-width="1.5" d="M0,-3.0v7 M-2.5,-0.5L0,-3.0L2.5,-0.5"/>
  </g>
  <g id="arrowLeft" transform="rotate(270) translate(-36 17)">
    <use xlink:href="#rim"/>
    <path pointer-events="none" fill="none" stroke="white" stroke-width="1.5" d="M0,-3.0v7 M-2.5,-0.5L0,-3.0L2.5,-0.5"/>
  </g>
  <g id="resetDef">
    <use xlink:href="#rim2" fill="#404040"><set attributeName="fill" to="#808080" begin="reset.mouseover" end="reset.mouseout"/></use>
  </g>
</defs>
<script type="application/ecmascript">
var viewWidth = 568;
var viewHeight = 335;
var sectionId = 'dynsection-15';
</script>
<script type="application/ecmascript" xlink:href="svg.min.js"/>
<svg id="graph" class="graph">
<g id="viewport">
<title>vacm_state_machine</title>
<!-- Node1 -->
<g id="Node000001" class="node">
<title>Node1</title>
<g id="a_Node000001"><a xlink:title=" ">
<polygon fill="#999999" stroke="#666666" points="108,-178.5 0,-178.5 0,-159.5 108,-159.5 108,-178.5"/>
<text text-anchor="middle" x="54" y="-166.5" font-family="Helvetica,sans-Serif" font-size="10.00">vacm_state_machine</text>
</a>
</g>
</g>
<!-- Node2 -->
<g id="Node000002" class="node">
<title>Node2</title>
<g id="a_Node000002"><a xlink:href="a00257.html#a5e75808b2d04c2fa09dc36222aadeb5c" target="_top" xlink:title=" ">
<polygon fill="white" stroke="#666666" points="255.5,-326.5 152.5,-326.5 152.5,-307.5 255.5,-307.5 255.5,-326.5"/>
<text text-anchor="middle" x="204" y="-314.5" font-family="Helvetica,sans-Serif" font-size="10.00">vacm_capture_input</text>
</a>
</g>
</g>
<!-- Node1&#45;&gt;Node2 -->
<g id="edge1_Node000001_Node000002" class="edge">
<title>Node1&#45;&gt;Node2</title>
<g id="a_edge1_Node000001_Node000002"><a xlink:title=" ">
<path fill="none" stroke="#63b8ff" d="M58.96,-178.82C69.21,-203.03 99.02,-265.98 144,-299 146.04,-300.5 148.2,-301.87 150.46,-303.13"/>
<polygon fill="#63b8ff" stroke="#63b8ff" points="148.94,-306.29 159.48,-307.46 151.97,-299.98 148.94,-306.29"/>
</a>
</g>
</g>
<!-- Node3 -->
<g id="Node000003" class="node">
<title>Node3</title>
<g id="a_Node000003"><a xlink:href="a00257.html#a88354179c83ed3f823aaaab8b54def04" target="_top" xlink:title=" ">
<polygon fill="white" stroke="#666666" points="257,-252.5 151,-252.5 151,-233.5 257,-233.5 257,-252.5"/>
<text text-anchor="middle" x="204" y="-240.5" font-family="Helvetica,sans-Serif" font-size="10.00">vacm_state_ac_drop</text>
</a>
</g>
</g>
<!-- Node1&#45;&gt;Node3 -->
<g id="edge2_Node000001_Node000003" class="edge">
<title>Node1&#45;&gt;Node3</title>
<g id="a_edge2_Node000001_Node000003"><a xlink:title=" ">
<path fill="none" stroke="#63b8ff" d="M67.94,-178.7C84.73,-190.91 115.28,-211.87 144,-225 148.05,-226.85 152.35,-228.58 156.7,-230.17"/>
<polygon fill="#63b8ff" stroke="#63b8ff" points="155.65,-233.51 166.24,-233.44 157.92,-226.89 155.65,-233.51"/>
</a>
</g>
</g>
<!-- Node5 -->
<g id="Node000005" class="node">
<title>Node5</title>
<g id="a_Node000005"><a xlink:href="a00257.html#a6620ac4371af55881bc354c83de9b1a9" target="_top" xlink:title=" ">
<polygon fill="white" stroke="#666666" points="258,-67.5 150,-67.5 150,-48.5 258,-48.5 258,-67.5"/>
<text text-anchor="middle" x="204" y="-55.5" font-family="Helvetica,sans-Serif" font-size="10.00">vacm_state_ac_sync</text>
</a>
</g>
</g>
<!-- Node1&#45;&gt;Node5 -->
<g id="edge4_Node000001_Node000005" class="edge">
<title>Node1&#45;&gt;Node5</title>
<g id="a_edge4_Node000001_Node000005"><a xlink:title=" ">
<path fill="none" stroke="#63b8ff" d="M61.64,-159.28C75.01,-140.42 107.08,-98.73 144,-76 146.65,-74.37 149.46,-72.88 152.36,-71.51"/>
<polygon fill="#63b8ff" stroke="#63b8ff" points="153.94,-74.64 161.83,-67.57 151.25,-68.18 153.94,-74.64"/>
</a>
</g>
</g>
<!-- Node12 -->
<g id="Node000012" class="node">
<title>Node12</title>
<g id="a_Node000012"><a xlink:href="a00257.html#a438efdbe3c5bfcf7b66052f6e3f99fc1" target="_top" xlink:title=" ">
<polygon fill="white" stroke="#666666" points="261,-289.5 147,-289.5 147,-270.5 261,-270.5 261,-289.5"/>
<text text-anchor="middle" x="204" y="-277.5" font-family="Helvetica,sans-Serif" font-size="10.00">vacm_state_dc_detect</text>
</a>
</g>
</g>
<!-- Node1&#45;&gt;Node12 -->
<g id="edge12_Node000001_Node000012" class="edge">
<title>Node1&#45;&gt;Node12</title>
<g id="a_edge12_Node000001_Node000012"><a xlink:title=" ">
<path fill="none" stroke="#63b8ff" d="M61.64,-178.72C75.01,-197.58 107.08,-239.27 144,-262 146.65,-263.63 149.46,-265.12 152.36,-266.49"/>
<polygon fill="#63b8ff" stroke="#63b8ff" points="151.25,-269.82 161.83,-270.43 153.94,-263.36 151.25,-269.82"/>
</a>
</g>
</g>
<!-- Node14 -->
<g id="Node000014" class="node">
<title>Node14</title>
<g id="a_Node000014"><a xlink:href="a00257.html#a7b65d2b2f06bd653e747d28a897e964b" target="_top" xlink:title=" ">
<polygon fill="white" stroke="#666666" points="259.5,-215.5 148.5,-215.5 148.5,-196.5 259.5,-196.5 259.5,-215.5"/>
<text text-anchor="middle" x="204" y="-203.5" font-family="Helvetica,sans-Serif" font-size="10.00">vacm_state_dc_mode</text>
</a>
</g>
</g>
<!-- Node1&#45;&gt;Node14 -->
<g id="edge16_Node000001_Node000014" class="edge">
<title>Node1&#45;&gt;Node14</title>
<g id="a_edge16_Node000001_Node000014"><a xlink:title=" ">
<path fill="none" stroke="#63b8ff" d="M93.11,-178.53C111.94,-183.24 134.86,-188.97 154.89,-193.97"/>
<polygon fill="#63b8ff" stroke="#63b8ff" points="154.21,-197.41 164.76,-196.44 155.91,-190.62 154.21,-197.41"/>
</a>
</g>
</g>
<!-- Node15 -->
<g id="Node000015" class="node">
<title>Node15</title>
<g id="a_Node000015"><a xlink:href="a00257.html#afa82391466200dde740b703017e91eec" target="_top" xlink:title=" ">
<polygon fill="white" stroke="#666666" points="252.5,-104.5 155.5,-104.5 155.5,-85.5 252.5,-85.5 252.5,-104.5"/>
<text text-anchor="middle" x="204" y="-92.5" font-family="Helvetica,sans-Serif" font-size="10.00">vacm_state_online</text>
</a>
</g>
</g>
<!-- Node1&#45;&gt;Node15 -->
<g id="edge19_Node000001_Node000015" class="edge">
<title>Node1&#45;&gt;Node15</title>
<g id="a_edge19_Node000001_Node000015"><a xlink:title=" ">
<path fill="none" stroke="#63b8ff" d="M67.94,-159.3C84.73,-147.09 115.28,-126.13 144,-113 148.05,-111.15 152.35,-109.42 156.7,-107.83"/>
<polygon fill="#63b8ff" stroke="#63b8ff" points="157.92,-111.11 166.24,-104.56 155.65,-104.49 157.92,-111.11"/>
</a>
</g>
</g>
<!-- Node16 -->
<g id="Node000016" class="node">
<title>Node16</title>
<g id="a_Node000016"><a xlink:href="a00257.html#a190d0ac02bb30bdb63d3ddff1373a807" target="_top" xlink:title=" ">
<polygon fill="white" stroke="#666666" points="257,-178.5 151,-178.5 151,-159.5 257,-159.5 257,-178.5"/>
<text text-anchor="middle" x="204" y="-166.5" font-family="Helvetica,sans-Serif" font-size="10.00">vacm_state_standby</text>
</a>
</g>
</g>
<!-- Node1&#45;&gt;Node16 -->
<g id="edge25_Node000001_Node000016" class="edge">
<title>Node1&#45;&gt;Node16</title>
<g id="a_edge25_Node000001_Node000016"><a xlink:title=" ">
<path fill="none" stroke="#63b8ff" d="M108.01,-169C118.57,-169 129.75,-169 140.6,-169"/>
<polygon fill="#63b8ff" stroke="#63b8ff" points="140.85,-172.5 150.85,-169 140.85,-165.5 140.85,-172.5"/>
</a>
</g>
</g>
<!-- Node17 -->
<g id="Node000017" class="node">
<title>Node17</title>
<g id="a_Node000017"><a xlink:href="a00257.html#a4dbe7572d068bb830e05117273a90817" target="_top" xlink:title=" ">
<polygon fill="white" stroke="#666666" points="264,-141.5 144,-141.5 144,-122.5 264,-122.5 264,-141.5"/>
<text text-anchor="middle" x="204" y="-129.5" font-family="Helvetica,sans-Serif" font-size="10.00">vacm_state_wait_for_zc</text>
</a>
</g>
</g>
<!-- Node1&#45;&gt;Node17 -->
<g id="edge27_Node000001_Node000017" class="edge">
<title>Node1&#45;&gt;Node17</title>
<g id="a_edge27_Node000001_Node000017"><a xlink:title=" ">
<path fill="none" stroke="#63b8ff" d="M93.11,-159.47C111.94,-154.76 134.86,-149.03 154.89,-144.03"/>
<polygon fill="#63b8ff" stroke="#63b8ff" points="155.91,-147.38 164.76,-141.56 154.21,-140.59 155.91,-147.38"/>
</a>
</g>
</g>
<!-- Node18 -->
<g id="Node000018" class="node">
<title>Node18</title>
<g id="a_Node000018"><a xlink:href="a00257.html#a2cdea5653d497660110732024dff3bc2" target="_top" xlink:title=" ">
<polygon fill="white" stroke="#666666" points="264,-30 144,-30 144,0 264,0 264,-30"/>
<text text-anchor="start" x="152" y="-18" font-family="Helvetica,sans-Serif" font-size="10.00">vacm_vloop_feedforward</text>
<text text-anchor="middle" x="204" y="-7" font-family="Helvetica,sans-Serif" font-size="10.00">_update</text>
</a>
</g>
</g>
<!-- Node1&#45;&gt;Node18 -->
<g id="edge32_Node000001_Node000018" class="edge">
<title>Node1&#45;&gt;Node18</title>
<g id="a_edge32_Node000001_Node000018"><a xlink:title=" ">
<path fill="none" stroke="#63b8ff" d="M59.15,-159.42C69.84,-135.78 100.56,-74.02 144,-39 145.58,-37.72 147.24,-36.51 148.96,-35.35"/>
<polygon fill="#63b8ff" stroke="#63b8ff" points="151.12,-38.14 157.93,-30.03 147.55,-32.12 151.12,-38.14"/>
</a>
</g>
</g>
<!-- Node4 -->
<g id="Node000004" class="node">
<title>Node4</title>
<g id="a_Node000004"><a xlink:href="a00257.html#a634dc3732b7ac4380c54073b237ca710" target="_top" xlink:title=" ">
<polygon fill="white" stroke="#666666" points="435,-227 300,-227 300,-197 435,-197 435,-227"/>
<text text-anchor="start" x="308" y="-215" font-family="Helvetica,sans-Serif" font-size="10.00">vacm_reset_phase_monitor</text>
<text text-anchor="middle" x="367.5" y="-204" font-family="Helvetica,sans-Serif" font-size="10.00">_object</text>
</a>
</g>
</g>
<!-- Node3&#45;&gt;Node4 -->
<g id="edge3_Node000003_Node000004" class="edge">
<title>Node3&#45;&gt;Node4</title>
<g id="a_edge3_Node000003_Node000004"><a xlink:title=" ">
<path fill="none" stroke="#63b8ff" d="M254.77,-233.45C265.92,-231.31 278,-228.99 289.96,-226.69"/>
<polygon fill="#63b8ff" stroke="#63b8ff" points="290.79,-230.1 299.95,-224.77 289.47,-223.22 290.79,-230.1"/>
</a>
</g>
</g>
<!-- Node5&#45;&gt;Node4 -->
<g id="edge7_Node000005_Node000004" class="edge">
<title>Node5&#45;&gt;Node4</title>
<g id="a_edge7_Node000005_Node000004"><a xlink:title=" ">
<path fill="none" stroke="#63b8ff" d="M252.18,-67.63C256.52,-69.87 260.57,-72.62 264,-76 301.25,-112.7 263.69,-150.38 300,-188 300.94,-188.97 301.91,-189.9 302.93,-190.79"/>
<polygon fill="#63b8ff" stroke="#63b8ff" points="301.19,-193.85 311.33,-196.93 305.31,-188.2 301.19,-193.85"/>
</a>
</g>
</g>
<!-- Node6 -->
<g id="Node000006" class="node">
<title>Node6</title>
<g id="a_Node000006"><a xlink:href="a00257.html#a59a2d9f80fc5da34bbe8f2a364b0eb2a" target="_top" xlink:title=" ">
<polygon fill="white" stroke="#666666" points="416.5,-30.5 318.5,-30.5 318.5,-11.5 416.5,-11.5 416.5,-30.5"/>
<text text-anchor="middle" x="367.5" y="-18.5" font-family="Helvetica,sans-Serif" font-size="10.00">vacm_acok_assert</text>
</a>
</g>
</g>
<!-- Node5&#45;&gt;Node6 -->
<g id="edge5_Node000005_Node000006" class="edge">
<title>Node5&#45;&gt;Node6</title>
<g id="a_edge5_Node000005_Node000006"><a xlink:title=" ">
<path fill="none" stroke="#63b8ff" d="M246.59,-48.47C267.42,-43.7 292.84,-37.88 314.9,-32.82"/>
<polygon fill="#63b8ff" stroke="#63b8ff" points="315.8,-36.21 324.77,-30.56 314.24,-29.38 315.8,-36.21"/>
</a>
</g>
</g>
<!-- Node7 -->
<g id="Node000007" class="node">
<title>Node7</title>
<g id="a_Node000007"><a xlink:href="a00257.html#a128d766a414b6a9755b7586f37b92939" target="_top" xlink:title=" ">
<polygon fill="white" stroke="#666666" points="422.5,-104.5 312.5,-104.5 312.5,-85.5 422.5,-85.5 422.5,-104.5"/>
<text text-anchor="middle" x="367.5" y="-92.5" font-family="Helvetica,sans-Serif" font-size="10.00">vacm_polarity_update</text>
</a>
</g>
</g>
<!-- Node5&#45;&gt;Node7 -->
<g id="edge6_Node000005_Node000007" class="edge">
<title>Node5&#45;&gt;Node7</title>
<g id="a_edge6_Node000005_Node000007"><a xlink:title=" ">
<path fill="none" stroke="#63b8ff" d="M246.59,-67.53C267.42,-72.3 292.84,-78.12 314.9,-83.18"/>
<polygon fill="#63b8ff" stroke="#63b8ff" points="314.24,-86.62 324.77,-85.44 315.8,-79.79 314.24,-86.62"/>
</a>
</g>
</g>
<!-- Node8 -->
<g id="Node000008" class="node">
<title>Node8</title>
<g id="a_Node000008"><a xlink:href="a00257.html#aa3afbdf195704fcbb7fe03f05a5f1493" target="_top" xlink:title=" ">
<polygon fill="white" stroke="#666666" points="427,-67.5 308,-67.5 308,-48.5 427,-48.5 427,-67.5"/>
<text text-anchor="middle" x="367.5" y="-55.5" font-family="Helvetica,sans-Serif" font-size="10.00">vacm_timebase_update</text>
</a>
</g>
</g>
<!-- Node5&#45;&gt;Node8 -->
<g id="edge8_Node000005_Node000008" class="edge">
<title>Node5&#45;&gt;Node8</title>
<g id="a_edge8_Node000005_Node000008"><a xlink:title=" ">
<path fill="none" stroke="#63b8ff" d="M258.33,-58C270.99,-58 284.68,-58 297.92,-58"/>
<polygon fill="#63b8ff" stroke="#63b8ff" points="297.94,-61.5 307.94,-58 297.94,-54.5 297.94,-61.5"/>
</a>
</g>
</g>
<!-- Node9 -->
<g id="Node000009" class="node">
<title>Node9</title>
<g id="a_Node000009"><a xlink:href="a00257.html#a4d1cffa8629c7a211d571e6c96fe94ac" target="_top" xlink:title=" ">
<polygon fill="white" stroke="#666666" points="414.5,-178.5 320.5,-178.5 320.5,-159.5 414.5,-159.5 414.5,-178.5"/>
<text text-anchor="middle" x="367.5" y="-166.5" font-family="Helvetica,sans-Serif" font-size="10.00">vacm_vin_average</text>
</a>
</g>
</g>
<!-- Node5&#45;&gt;Node9 -->
<g id="edge9_Node000005_Node000009" class="edge">
<title>Node5&#45;&gt;Node9</title>
<g id="a_edge9_Node000005_Node000009"><a xlink:title=" ">
<path fill="none" stroke="#63b8ff" d="M250.54,-67.57C255.4,-69.81 260.02,-72.58 264,-76 292.05,-100.09 271.57,-127.36 300,-151 303.31,-153.75 307,-156.09 310.91,-158.07"/>
<polygon fill="#63b8ff" stroke="#63b8ff" points="309.75,-161.38 320.32,-162.07 312.49,-154.94 309.75,-161.38"/>
</a>
</g>
</g>
<!-- Node11 -->
<g id="Node000011" class="node">
<title>Node11</title>
<g id="a_Node000011"><a xlink:href="a00257.html#ae168f993edb4be6bef378eeb2f7d62d6" target="_top" xlink:title=" ">
<polygon fill="white" stroke="#666666" points="427,-141.5 308,-141.5 308,-122.5 427,-122.5 427,-141.5"/>
<text text-anchor="middle" x="367.5" y="-129.5" font-family="Helvetica,sans-Serif" font-size="10.00">vacm_zerocross_detect</text>
</a>
</g>
</g>
<!-- Node5&#45;&gt;Node11 -->
<g id="edge11_Node000005_Node000011" class="edge">
<title>Node5&#45;&gt;Node11</title>
<g id="a_edge11_Node000005_Node000011"><a xlink:title=" ">
<path fill="none" stroke="#63b8ff" d="M245.84,-67.5C252.15,-69.8 258.42,-72.6 264,-76 283.59,-87.95 280.31,-101.23 300,-113 303.59,-115.15 307.44,-117.06 311.41,-118.77"/>
<polygon fill="#63b8ff" stroke="#63b8ff" points="310.23,-122.07 320.82,-122.38 312.74,-115.53 310.23,-122.07"/>
</a>
</g>
</g>
<!-- Node10 -->
<g id="Node000010" class="node">
<title>Node10</title>
<g id="a_Node000010"><a xlink:href="a00257.html#aef2ab25ed304717c5d288e7053b8237f" target="_top" xlink:title=" ">
<polygon fill="white" stroke="#666666" points="560,-178.5 471,-178.5 471,-159.5 560,-159.5 560,-178.5"/>
<text text-anchor="middle" x="515.5" y="-166.5" font-family="Helvetica,sans-Serif" font-size="10.00">vacm_uv_ov_test</text>
</a>
</g>
</g>
<!-- Node9&#45;&gt;Node10 -->
<g id="edge10_Node000009_Node000010" class="edge">
<title>Node9&#45;&gt;Node10</title>
<g id="a_edge10_Node000009_Node000010"><a xlink:title=" ">
<path fill="none" stroke="#63b8ff" d="M414.7,-169C429.22,-169 445.39,-169 460.41,-169"/>
<polygon fill="#63b8ff" stroke="#63b8ff" points="460.6,-172.5 470.6,-169 460.6,-165.5 460.6,-172.5"/>
</a>
</g>
</g>
<!-- Node12&#45;&gt;Node4 -->
<g id="edge14_Node000012_Node000004" class="edge">
<title>Node12&#45;&gt;Node4</title>
<g id="a_edge14_Node000012_Node000004"><a xlink:title=" ">
<path fill="none" stroke="#63b8ff" d="M239.63,-270.43C247.71,-267.93 256.23,-265.06 264,-262 286.32,-253.21 310.48,-241.54 329.73,-231.69"/>
<polygon fill="#63b8ff" stroke="#63b8ff" points="331.49,-234.72 338.76,-227.01 328.27,-228.5 331.49,-234.72"/>
</a>
</g>
</g>
<!-- Node12&#45;&gt;Node9 -->
<g id="edge15_Node000012_Node000009" class="edge">
<title>Node12&#45;&gt;Node9</title>
<g id="a_edge15_Node000012_Node000009"><a xlink:title=" ">
<path fill="none" stroke="#63b8ff" d="M250.52,-270.41C255.39,-268.17 260.01,-265.41 264,-262 291.81,-238.24 271.98,-211.51 300,-188 303.31,-185.22 307.01,-182.85 310.91,-180.82"/>
<polygon fill="#63b8ff" stroke="#63b8ff" points="312.57,-183.92 320.32,-176.7 309.76,-177.51 312.57,-183.92"/>
</a>
</g>
</g>
<!-- Node13 -->
<g id="Node000013" class="node">
<title>Node13</title>
<g id="a_Node000013"><a xlink:href="a00257.html#a15257c326e34873ee3d4465e7837e87e" target="_top" xlink:title=" ">
<polygon fill="white" stroke="#666666" points="425.5,-289.5 309.5,-289.5 309.5,-270.5 425.5,-270.5 425.5,-289.5"/>
<text text-anchor="middle" x="367.5" y="-277.5" font-family="Helvetica,sans-Serif" font-size="10.00">vacm_dc_input_accept</text>
</a>
</g>
</g>
<!-- Node12&#45;&gt;Node13 -->
<g id="edge13_Node000012_Node000013" class="edge">
<title>Node12&#45;&gt;Node13</title>
<g id="a_edge13_Node000012_Node000013"><a xlink:title=" ">
<path fill="none" stroke="#63b8ff" d="M261.03,-280C273.4,-280 286.62,-280 299.37,-280"/>
<polygon fill="#63b8ff" stroke="#63b8ff" points="299.47,-283.5 309.47,-280 299.47,-276.5 299.47,-283.5"/>
</a>
</g>
</g>
<!-- Node14&#45;&gt;Node4 -->
<g id="edge17_Node000014_Node000004" class="edge">
<title>Node14&#45;&gt;Node4</title>
<g id="a_edge17_Node000014_Node000004"><a xlink:title=" ">
<path fill="none" stroke="#63b8ff" d="M259.68,-208.03C269.35,-208.39 279.59,-208.77 289.74,-209.15"/>
<polygon fill="#63b8ff" stroke="#63b8ff" points="289.72,-212.65 299.84,-209.52 289.98,-205.65 289.72,-212.65"/>
</a>
</g>
</g>
<!-- Node14&#45;&gt;Node9 -->
<g id="edge18_Node000014_Node000009" class="edge">
<title>Node14&#45;&gt;Node9</title>
<g id="a_edge18_Node000014_Node000009"><a xlink:title=" ">
<path fill="none" stroke="#63b8ff" d="M246.59,-196.47C267.42,-191.7 292.84,-185.88 314.9,-180.82"/>
<polygon fill="#63b8ff" stroke="#63b8ff" points="315.8,-184.21 324.77,-178.56 314.24,-177.38 315.8,-184.21"/>
</a>
</g>
</g>
<!-- Node15&#45;&gt;Node4 -->
<g id="edge21_Node000015_Node000004" class="edge">
<title>Node15&#45;&gt;Node4</title>
<g id="a_edge21_Node000015_Node000004"><a xlink:title=" ">
<path fill="none" stroke="#63b8ff" d="M250.54,-104.57C255.4,-106.81 260.02,-109.58 264,-113 292.05,-137.09 272.57,-163.21 300,-188 301.31,-189.19 302.69,-190.32 304.12,-191.39"/>
<polygon fill="#63b8ff" stroke="#63b8ff" points="302.5,-194.51 312.8,-196.97 306.28,-188.62 302.5,-194.51"/>
</a>
</g>
</g>
<!-- Node15&#45;&gt;Node7 -->
<g id="edge20_Node000015_Node000007" class="edge">
<title>Node15&#45;&gt;Node7</title>
<g id="a_edge20_Node000015_Node000007"><a xlink:title=" ">
<path fill="none" stroke="#63b8ff" d="M252.58,-95C268.15,-95 285.7,-95 302.28,-95"/>
<polygon fill="#63b8ff" stroke="#63b8ff" points="302.46,-98.5 312.46,-95 302.46,-91.5 302.46,-98.5"/>
</a>
</g>
</g>
<!-- Node15&#45;&gt;Node8 -->
<g id="edge22_Node000015_Node000008" class="edge">
<title>Node15&#45;&gt;Node8</title>
<g id="a_edge22_Node000015_Node000008"><a xlink:title=" ">
<path fill="none" stroke="#63b8ff" d="M246.59,-85.47C267.42,-80.7 292.84,-74.88 314.9,-69.82"/>
<polygon fill="#63b8ff" stroke="#63b8ff" points="315.8,-73.21 324.77,-67.56 314.24,-66.38 315.8,-73.21"/>
</a>
</g>
</g>
<!-- Node15&#45;&gt;Node9 -->
<g id="edge23_Node000015_Node000009" class="edge">
<title>Node15&#45;&gt;Node9</title>
<g id="a_edge23_Node000015_Node000009"><a xlink:title=" ">
<path fill="none" stroke="#63b8ff" d="M246.19,-104.55C252.39,-106.83 258.54,-109.62 264,-113 283.78,-125.24 280.03,-139.07 300,-151 303.43,-153.05 307.09,-154.86 310.87,-156.48"/>
<polygon fill="#63b8ff" stroke="#63b8ff" points="309.84,-159.83 320.43,-160.09 312.31,-153.28 309.84,-159.83"/>
</a>
</g>
</g>
<!-- Node15&#45;&gt;Node11 -->
<g id="edge24_Node000015_Node000011" class="edge">
<title>Node15&#45;&gt;Node11</title>
<g id="a_edge24_Node000015_Node000011"><a xlink:title=" ">
<path fill="none" stroke="#63b8ff" d="M246.59,-104.53C267.42,-109.3 292.84,-115.12 314.9,-120.18"/>
<polygon fill="#63b8ff" stroke="#63b8ff" points="314.24,-123.62 324.77,-122.44 315.8,-116.79 314.24,-123.62"/>
</a>
</g>
</g>
<!-- Node16&#45;&gt;Node9 -->
<g id="edge26_Node000016_Node000009" class="edge">
<title>Node16&#45;&gt;Node9</title>
<g id="a_edge26_Node000016_Node000009"><a xlink:title=" ">
<path fill="none" stroke="#63b8ff" d="M257.43,-169C274.21,-169 292.86,-169 309.92,-169"/>
<polygon fill="#63b8ff" stroke="#63b8ff" points="310.31,-172.5 320.31,-169 310.31,-165.5 310.31,-172.5"/>
</a>
</g>
</g>
<!-- Node17&#45;&gt;Node4 -->
<g id="edge29_Node000017_Node000004" class="edge">
<title>Node17&#45;&gt;Node4</title>
<g id="a_edge29_Node000017_Node000004"><a xlink:title=" ">
<path fill="none" stroke="#63b8ff" d="M243.97,-141.56C250.91,-144.09 257.87,-147.2 264,-151 283.5,-163.1 280.72,-175.57 300,-188 302.42,-189.56 304.95,-191.03 307.56,-192.43"/>
<polygon fill="#63b8ff" stroke="#63b8ff" points="306.12,-195.62 316.64,-196.85 309.18,-189.32 306.12,-195.62"/>
</a>
</g>
</g>
<!-- Node17&#45;&gt;Node7 -->
<g id="edge28_Node000017_Node000007" class="edge">
<title>Node17&#45;&gt;Node7</title>
<g id="a_edge28_Node000017_Node000007"><a xlink:title=" ">
<path fill="none" stroke="#63b8ff" d="M246.59,-122.47C267.42,-117.7 292.84,-111.88 314.9,-106.82"/>
<polygon fill="#63b8ff" stroke="#63b8ff" points="315.8,-110.21 324.77,-104.56 314.24,-103.38 315.8,-110.21"/>
</a>
</g>
</g>
<!-- Node17&#45;&gt;Node9 -->
<g id="edge30_Node000017_Node000009" class="edge">
<title>Node17&#45;&gt;Node9</title>
<g id="a_edge30_Node000017_Node000009"><a xlink:title=" ">
<path fill="none" stroke="#63b8ff" d="M246.59,-141.53C267.42,-146.3 292.84,-152.12 314.9,-157.18"/>
<polygon fill="#63b8ff" stroke="#63b8ff" points="314.24,-160.62 324.77,-159.44 315.8,-153.79 314.24,-160.62"/>
</a>
</g>
</g>
<!-- Node17&#45;&gt;Node11 -->
<g id="edge31_Node000017_Node000011" class="edge">
<title>Node17&#45;&gt;Node11</title>
<g id="a_edge31_Node000017_Node000011"><a xlink:title=" ">
<path fill="none" stroke="#63b8ff" d="M264.22,-132C275.11,-132 286.56,-132 297.71,-132"/>
<polygon fill="#63b8ff" stroke="#63b8ff" points="297.83,-135.5 307.83,-132 297.83,-128.5 297.83,-135.5"/>
</a>
</g>
</g>
</g>
</svg>

<g id="navigator" transform="translate(0 0)" fill="#404254">
  <rect fill="#f2f5e9" fill-opacity="0.5" stroke="#606060" stroke-width=".5" x="0" y="0" width="60" height="60"/>
  <use id="zoomplus" xlink:href="#zoomPlus" x="17" y="9" onmousedown="handleZoom(evt,'in')"/>
  <use id="zoomminus" xlink:href="#zoomMin" x="42" y="9" onmousedown="handleZoom(evt,'out')"/>
  <use id="reset" xlink:href="#resetDef" x="30" y="36" onmousedown="handleReset()"/>
   <use id="arrowup" xlink:href="#arrowUp" x="0" y="0" onmousedown="handlePan(0,-1)"/>
  <use id="arrowright" xlink:href="#arrowRight" x="0" y="0" onmousedown="handlePan(1,0)"/>
  <use id="arrowdown" xlink:href="#arrowDown" x="0" y="0" onmousedown="handlePan(0,1)"/>
  <use id="arrowleft" xlink:href="#arrowLeft" x="0" y="0" onmousedown="handlePan(-1,0)"/>
</g>
<svg viewBox="0 0 15 15" width="100%" height="30px" preserveAspectRatio="xMaxYMin meet">
 <g id="arrow_out" transform="scale(0.3 0.3)">
  <a xlink:href="a00257_a3a965bf809d4454e8cc529cc6c3eed03_cgraph_org.svg" target="_base">
   <rect id="button" ry="5" rx="5" y="6" x="6" height="38" width="38"
        fill="#f2f5e9" fill-opacity="0.5" stroke="#606060" stroke-width="1.0"/>
   <path id="arrow"
     d="M 11.500037,31.436501 C 11.940474,20.09759 22.043105,11.32322 32.158766,21.979434 L 37.068811,17.246167 C 37.068811,17.246167 37.088388,32 37.088388,32 L 22.160133,31.978069 C 22.160133,31.978069 26.997745,27.140456 26.997745,27.140456 C 18.528582,18.264221 13.291696,25.230495 11.500037,31.436501 z"
     style="fill:#404040;"/>
  </a>
 </g>
</svg>

<style type='text/css'>
<![CDATA[
[data-mouse-over-selected='false'] { opacity: 0.7; }
[data-mouse-over-selected='true']  { opacity: 1.0; }
]]>
</style>
<script type="application/ecmascript"><![CDATA[
document.addEventListener('DOMContentLoaded', (event) => {
  highlightEdges();
  highlightAdjacentNodes();
});
]]></script>
</svg>
