<?xml version="1.0" encoding="UTF-8" standalone="no"?>
<!DOCTYPE svg PUBLIC "-//W3C//DTD SVG 1.1//EN"
 "http://www.w3.org/Graphics/SVG/1.1/DTD/svg11.dtd">
<!-- Generated by graphviz version 8.1.0 (20230707.0739)
 -->
<!-- Title: vacm_zerocross_detect Pages: 1 -->
<svg width="752pt" height="104pt"
 viewBox="0.00 0.00 751.75 104.00" xmlns="http://www.w3.org/2000/svg" xmlns:xlink="http://www.w3.org/1999/xlink">
<g id="graph0" class="graph" transform="scale(1 1) rotate(0) translate(4 100)">
<title>vacm_zerocross_detect</title>
<!-- Node1 -->
<g id="Node000001" class="node">
<title>Node1</title>
<g id="a_Node000001"><a xlink:title=" ">
<polygon fill="#999999" stroke="#666666" points="743.75,-58 625,-58 625,-38 743.75,-38 743.75,-58"/>
<text text-anchor="middle" x="684.38" y="-44.5" font-family="Helvetica,sans-Serif" font-size="10.00">vacm_zerocross_detect</text>
</a>
</g>
</g>
<!-- Node2 -->
<g id="Node000002" class="node">
<title>Node2</title>
<g id="a_Node000002"><a xlink:href="a00257.html#a6620ac4371af55881bc354c83de9b1a9" target="_top" xlink:title=" ">
<polygon fill="white" stroke="#666666" points="583,-96 475.5,-96 475.5,-76 583,-76 583,-96"/>
<text text-anchor="middle" x="529.25" y="-82.5" font-family="Helvetica,sans-Serif" font-size="10.00">vacm_state_ac_sync</text>
</a>
</g>
</g>
<!-- Node1&#45;&gt;Node2 -->
<g id="edge1_Node000001_Node000002" class="edge">
<title>Node1&#45;&gt;Node2</title>
<g id="a_edge1_Node000001_Node000002"><a xlink:title=" ">
<path fill="none" stroke="#63b8ff" d="M630.52,-61.12C611.51,-65.83 590.33,-71.09 572.36,-75.55"/>
<polygon fill="#63b8ff" stroke="#63b8ff" points="631.26,-64.29 640.13,-58.48 629.58,-57.5 631.26,-64.29"/>
</a>
</g>
</g>
<!-- Node6 -->
<g id="Node000006" class="node">
<title>Node6</title>
<g id="a_Node000006"><a xlink:href="a00257.html#afa82391466200dde740b703017e91eec" target="_top" xlink:title=" ">
<polygon fill="white" stroke="#666666" points="577.38,-58 481.12,-58 481.12,-38 577.38,-38 577.38,-58"/>
<text text-anchor="middle" x="529.25" y="-44.5" font-family="Helvetica,sans-Serif" font-size="10.00">vacm_state_online</text>
</a>
</g>
</g>
<!-- Node1&#45;&gt;Node6 -->
<g id="edge5_Node000001_Node000006" class="edge">
<title>Node1&#45;&gt;Node6</title>
<g id="a_edge5_Node000001_Node000006"><a xlink:title=" ">
<path fill="none" stroke="#63b8ff" d="M613.94,-48C601.68,-48 589.18,-48 577.7,-48"/>
<polygon fill="#63b8ff" stroke="#63b8ff" points="613.61,-51.5 623.61,-48 613.61,-44.5 613.61,-51.5"/>
</a>
</g>
</g>
<!-- Node7 -->
<g id="Node000007" class="node">
<title>Node7</title>
<g id="a_Node000007"><a xlink:href="a00257.html#a4dbe7572d068bb830e05117273a90817" target="_top" xlink:title=" ">
<polygon fill="white" stroke="#666666" points="589,-20 469.5,-20 469.5,0 589,0 589,-20"/>
<text text-anchor="middle" x="529.25" y="-6.5" font-family="Helvetica,sans-Serif" font-size="10.00">vacm_state_wait_for_zc</text>
</a>
</g>
</g>
<!-- Node1&#45;&gt;Node7 -->
<g id="edge7_Node000001_Node000007" class="edge">
<title>Node1&#45;&gt;Node7</title>
<g id="a_edge7_Node000001_Node000007"><a xlink:title=" ">
<path fill="none" stroke="#63b8ff" d="M630.52,-34.88C611.51,-30.17 590.33,-24.91 572.36,-20.45"/>
<polygon fill="#63b8ff" stroke="#63b8ff" points="629.58,-38.5 640.13,-37.52 631.26,-31.71 629.58,-38.5"/>
</a>
</g>
</g>
<!-- Node3 -->
<g id="Node000003" class="node">
<title>Node3</title>
<g id="a_Node000003"><a xlink:href="a00257.html#a3a965bf809d4454e8cc529cc6c3eed03" target="_top" xlink:title=" ">
<polygon fill="white" stroke="#666666" points="433.5,-58 326,-58 326,-38 433.5,-38 433.5,-58"/>
<text text-anchor="middle" x="379.75" y="-44.5" font-family="Helvetica,sans-Serif" font-size="10.00">vacm_state_machine</text>
</a>
</g>
</g>
<!-- Node2&#45;&gt;Node3 -->
<g id="edge2_Node000002_Node000003" class="edge">
<title>Node2&#45;&gt;Node3</title>
<g id="a_edge2_Node000002_Node000003"><a xlink:title=" ">
<path fill="none" stroke="#63b8ff" d="M477.08,-72.82C458.84,-68.12 438.55,-62.89 421.31,-58.45"/>
<polygon fill="#63b8ff" stroke="#63b8ff" points="476,-76.41 486.55,-75.52 477.74,-69.63 476,-76.41"/>
</a>
</g>
</g>
<!-- Node4 -->
<g id="Node000004" class="node">
<title>Node4</title>
<g id="a_Node000004"><a xlink:href="a00233.html#a41351a49d0335be286c2947c26d0a07c" target="_top" xlink:title=" ">
<polygon fill="white" stroke="#666666" points="290,-58 151.75,-58 151.75,-38 290,-38 290,-58"/>
<text text-anchor="middle" x="220.88" y="-44.5" font-family="Helvetica,sans-Serif" font-size="10.00">DMA_Channel_doAcMonitor</text>
</a>
</g>
</g>
<!-- Node3&#45;&gt;Node4 -->
<g id="edge3_Node000003_Node000004" class="edge">
<title>Node3&#45;&gt;Node4</title>
<g id="a_edge3_Node000003_Node000004"><a xlink:title=" ">
<path fill="none" stroke="#63b8ff" d="M314.77,-48C306.68,-48 298.38,-48 290.23,-48"/>
<polygon fill="#63b8ff" stroke="#63b8ff" points="314.64,-51.5 324.64,-48 314.64,-44.5 314.64,-51.5"/>
</a>
</g>
</g>
<!-- Node5 -->
<g id="Node000005" class="node">
<title>Node5</title>
<g id="a_Node000005"><a xlink:href="a00412.html#ga9f16d166d637fd9005839b1e1822dc63" target="_top" xlink:title="This is the default callback with weak attribute. The user can override and implement the default cal...">
<polygon fill="white" stroke="#666666" points="115.75,-58 0,-58 0,-38 115.75,-38 115.75,-58"/>
<text text-anchor="middle" x="57.88" y="-44.5" font-family="Helvetica,sans-Serif" font-size="10.00">DMA_ChannelCallback</text>
</a>
</g>
</g>
<!-- Node4&#45;&gt;Node5 -->
<g id="edge4_Node000004_Node000005" class="edge">
<title>Node4&#45;&gt;Node5</title>
<g id="a_edge4_Node000004_Node000005"><a xlink:title=" ">
<path fill="none" stroke="#63b8ff" d="M140.72,-48C132.41,-48 124.08,-48 116.09,-48"/>
<polygon fill="#63b8ff" stroke="#63b8ff" points="140.6,-51.5 150.6,-48 140.6,-44.5 140.6,-51.5"/>
</a>
</g>
</g>
<!-- Node6&#45;&gt;Node3 -->
<g id="edge6_Node000006_Node000003" class="edge">
<title>Node6&#45;&gt;Node3</title>
<g id="a_edge6_Node000006_Node000003"><a xlink:title=" ">
<path fill="none" stroke="#63b8ff" d="M469.99,-48C458.04,-48 445.52,-48 433.77,-48"/>
<polygon fill="#63b8ff" stroke="#63b8ff" points="469.77,-51.5 479.77,-48 469.77,-44.5 469.77,-51.5"/>
</a>
</g>
</g>
<!-- Node7&#45;&gt;Node3 -->
<g id="edge8_Node000007_Node000003" class="edge">
<title>Node7&#45;&gt;Node3</title>
<g id="a_edge8_Node000007_Node000003"><a xlink:title=" ">
<path fill="none" stroke="#63b8ff" d="M477.08,-23.18C458.84,-27.88 438.55,-33.11 421.31,-37.55"/>
<polygon fill="#63b8ff" stroke="#63b8ff" points="477.74,-26.37 486.55,-20.48 476,-19.59 477.74,-26.37"/>
</a>
</g>
</g>
</g>
</svg>
