<?xml version="1.0" encoding="UTF-8" standalone="no"?>
<!DOCTYPE svg PUBLIC "-//W3C//DTD SVG 1.1//EN"
 "http://www.w3.org/Graphics/SVG/1.1/DTD/svg11.dtd">
<!-- Generated by graphviz version 8.1.0 (20230707.0739)
 -->
<!-- Title: D:/Firmware/MCU16ASMPS_TestEnvironment/_deployment/dspic33ch&#45;power&#45;totem&#45;pole&#45;demonstration&#45;application&#45;single&#45;phase/dspic33ch_totem_pole_single_phase_secondary_IL.X/mcc_generated_files/main_core/main_core.h Pages: 1 -->
<svg width="335pt" height="212pt"
 viewBox="0.00 0.00 334.62 212.00" xmlns="http://www.w3.org/2000/svg" xmlns:xlink="http://www.w3.org/1999/xlink">

<svg id="main" version="1.1" xmlns="http://www.w3.org/2000/svg" xmlns:xlink="http://www.w3.org/1999/xlink" xml:space="preserve" onload="init(evt)">
<style type="text/css"><![CDATA[
.node, .edge {opacity: 0.7;}
.node.selected, .edge.selected {opacity: 1;}
.edge:hover path { stroke: red; }
.edge:hover polygon { stroke: red; fill: red; }
]]></style>
<script type="application/ecmascript" xlink:href="svg.min.js"/>
<svg id="graph" class="graph">
<g id="graph0" class="graph" transform="scale(1 1) rotate(0) translate(4 208)">
<title>D:/Firmware/MCU16ASMPS_TestEnvironment/_deployment/dspic33ch&#45;power&#45;totem&#45;pole&#45;demonstration&#45;application&#45;single&#45;phase/dspic33ch_totem_pole_single_phase_secondary_IL.X/mcc_generated_files/main_core/main_core.h</title>
<!-- Node1 -->
<g id="Node000001" class="node">
<title>Node1</title>
<g id="a_Node000001"><a xlink:title="This is the generated driver header file for the MAIN_CORE driver.">
<polygon fill="#999999" stroke="#666666" points="194.62,-204 6.12,-204 6.12,-112 194.62,-112 194.62,-204"/>
<text text-anchor="start" x="14.12" y="-190.5" font-family="Helvetica,sans-Serif" font-size="10.00">D:/Firmware/MCU16ASMPS</text>
<text text-anchor="start" x="14.12" y="-178.5" font-family="Helvetica,sans-Serif" font-size="10.00">_TestEnvironment/_deployment</text>
<text text-anchor="start" x="14.12" y="-166.5" font-family="Helvetica,sans-Serif" font-size="10.00">/dspic33ch&#45;power&#45;totem&#45;pole</text>
<text text-anchor="start" x="14.12" y="-154.5" font-family="Helvetica,sans-Serif" font-size="10.00">&#45;demonstration&#45;application&#45;single</text>
<text text-anchor="start" x="14.12" y="-142.5" font-family="Helvetica,sans-Serif" font-size="10.00">&#45;phase/dspic33ch_totem_pole_single</text>
<text text-anchor="start" x="14.12" y="-130.5" font-family="Helvetica,sans-Serif" font-size="10.00">_phase_secondary_IL.X/mcc_generated</text>
<text text-anchor="middle" x="100.38" y="-118.5" font-family="Helvetica,sans-Serif" font-size="10.00">_files/main_core/main_core.h</text>
</a>
</g>
</g>
<!-- Node2 -->
<g id="Node000002" class="node">
<title>Node2</title>
<g id="a_Node000002"><a xlink:title=" ">
<polygon fill="#e0e0e0" stroke="#999999" points="34.75,-76 0,-76 0,-56 34.75,-56 34.75,-76"/>
<text text-anchor="middle" x="17.38" y="-62.5" font-family="Helvetica,sans-Serif" font-size="10.00">xc.h</text>
</a>
</g>
</g>
<!-- Node1&#45;&gt;Node2 -->
<g id="edge1_Node000001_Node000002" class="edge">
<title>Node1&#45;&gt;Node2</title>
<g id="a_edge1_Node000001_Node000002"><a xlink:title=" ">
<path fill="none" stroke="#63b8ff" d="M58.63,-111.74C49.6,-101.94 40.58,-92.16 33.29,-84.26"/>
<polygon fill="#63b8ff" stroke="#63b8ff" points="36.24,-82.2 26.88,-77.23 31.09,-86.95 36.24,-82.2"/>
</a>
</g>
</g>
<!-- Node3 -->
<g id="Node000003" class="node">
<title>Node3</title>
<g id="a_Node000003"><a xlink:title=" ">
<polygon fill="#e0e0e0" stroke="#999999" points="67.5,-20 19.25,-20 19.25,0 67.5,0 67.5,-20"/>
<text text-anchor="middle" x="43.38" y="-6.5" font-family="Helvetica,sans-Serif" font-size="10.00">stdint.h</text>
</a>
</g>
</g>
<!-- Node1&#45;&gt;Node3 -->
<g id="edge2_Node000001_Node000003" class="edge">
<title>Node1&#45;&gt;Node3</title>
<g id="a_edge2_Node000001_Node000003"><a xlink:title=" ">
<path fill="none" stroke="#63b8ff" d="M82.65,-111.61C72.01,-84.34 59.01,-51.06 50.96,-30.44"/>
<polygon fill="#63b8ff" stroke="#63b8ff" points="53.95,-29.45 47.05,-21.41 47.42,-32 53.95,-29.45"/>
</a>
</g>
</g>
<!-- Node4 -->
<g id="Node000004" class="node">
<title>Node4</title>
<g id="a_Node000004"><a xlink:title=" ">
<polygon fill="#e0e0e0" stroke="#999999" points="141.25,-20 85.5,-20 85.5,0 141.25,0 141.25,-20"/>
<text text-anchor="middle" x="113.38" y="-6.5" font-family="Helvetica,sans-Serif" font-size="10.00">stdbool.h</text>
</a>
</g>
</g>
<!-- Node1&#45;&gt;Node4 -->
<g id="edge3_Node000001_Node000004" class="edge">
<title>Node1&#45;&gt;Node4</title>
<g id="a_edge3_Node000001_Node000004"><a xlink:title=" ">
<path fill="none" stroke="#63b8ff" d="M104.42,-111.61C106.81,-84.72 109.73,-51.98 111.57,-31.31"/>
<polygon fill="#63b8ff" stroke="#63b8ff" points="115.14,-31.68 112.54,-21.41 108.16,-31.06 115.14,-31.68"/>
</a>
</g>
</g>
<!-- Node5 -->
<g id="Node000005" class="node">
<title>Node5</title>
<g id="a_Node000005"><a xlink:href="a00296.html" target="_top" xlink:title="This is the generated driver types header file for the MAIN_CORE driver.">
<polygon fill="white" stroke="#666666" points="326.62,-20 228.12,-20 228.12,0 326.62,0 326.62,-20"/>
<text text-anchor="middle" x="277.38" y="-6.5" font-family="Helvetica,sans-Serif" font-size="10.00">main_core_types.h</text>
</a>
</g>
</g>
<!-- Node1&#45;&gt;Node5 -->
<g id="edge4_Node000001_Node000005" class="edge">
<title>Node1&#45;&gt;Node5</title>
<g id="a_edge4_Node000001_Node000005"><a xlink:title=" ">
<path fill="none" stroke="#63b8ff" d="M195.01,-117.91C214.78,-106.56 234.19,-92.64 249.38,-76 261.02,-63.24 268.32,-44.88 272.54,-30.93"/>
<polygon fill="#63b8ff" stroke="#63b8ff" points="276.14,-32.03 275.38,-21.47 269.38,-30.2 276.14,-32.03"/>
</a>
</g>
</g>
<!-- Node6 -->
<g id="Node000006" class="node">
<title>Node6</title>
<g id="a_Node000006"><a xlink:href="a00293_source.html" target="_top" xlink:title=" ">
<polygon fill="white" stroke="#666666" points="240,-76 128.75,-76 128.75,-56 240,-56 240,-76"/>
<text text-anchor="middle" x="184.38" y="-62.5" font-family="Helvetica,sans-Serif" font-size="10.00">main_core_interface.h</text>
</a>
</g>
</g>
<!-- Node1&#45;&gt;Node6 -->
<g id="edge5_Node000001_Node000006" class="edge">
<title>Node1&#45;&gt;Node6</title>
<g id="a_edge5_Node000001_Node000006"><a xlink:title=" ">
<path fill="none" stroke="#63b8ff" d="M142.62,-111.74C151.76,-101.94 160.89,-92.16 168.27,-84.26"/>
<polygon fill="#63b8ff" stroke="#63b8ff" points="170.5,-86.92 174.76,-77.23 165.38,-82.15 170.5,-86.92"/>
</a>
</g>
</g>
<!-- Node6&#45;&gt;Node3 -->
<g id="edge7_Node000006_Node000003" class="edge">
<title>Node6&#45;&gt;Node3</title>
<g id="a_edge7_Node000006_Node000003"><a xlink:title=" ">
<path fill="none" stroke="#63b8ff" d="M159.81,-55.59C137.07,-46.88 103.02,-33.84 77.61,-24.11"/>
<polygon fill="#63b8ff" stroke="#63b8ff" points="79.24,-20.61 68.65,-20.3 76.74,-27.14 79.24,-20.61"/>
</a>
</g>
</g>
<!-- Node6&#45;&gt;Node4 -->
<g id="edge8_Node000006_Node000004" class="edge">
<title>Node6&#45;&gt;Node4</title>
<g id="a_edge8_Node000006_Node000004"><a xlink:title=" ">
<path fill="none" stroke="#63b8ff" d="M172.01,-55.59C161.62,-47.7 146.56,-36.24 134.3,-26.92"/>
<polygon fill="#63b8ff" stroke="#63b8ff" points="136.68,-23.57 126.6,-20.3 132.44,-29.14 136.68,-23.57"/>
</a>
</g>
</g>
<!-- Node6&#45;&gt;Node5 -->
<g id="edge9_Node000006_Node000005" class="edge">
<title>Node6&#45;&gt;Node5</title>
<g id="a_edge9_Node000006_Node000005"><a xlink:title=" ">
<path fill="none" stroke="#63b8ff" d="M200.57,-55.59C214.76,-47.36 235.6,-35.26 251.99,-25.74"/>
<polygon fill="#63b8ff" stroke="#63b8ff" points="253.16,-28.53 260.05,-20.48 249.64,-22.47 253.16,-28.53"/>
</a>
</g>
</g>
<!-- Node7 -->
<g id="Node000007" class="node">
<title>Node7</title>
<g id="a_Node000007"><a xlink:title=" ">
<polygon fill="#e0e0e0" stroke="#999999" points="209.62,-20 159.12,-20 159.12,0 209.62,0 209.62,-20"/>
<text text-anchor="middle" x="184.38" y="-6.5" font-family="Helvetica,sans-Serif" font-size="10.00">stddef.h</text>
</a>
</g>
</g>
<!-- Node6&#45;&gt;Node7 -->
<g id="edge6_Node000006_Node000007" class="edge">
<title>Node6&#45;&gt;Node7</title>
<g id="a_edge6_Node000006_Node000007"><a xlink:title=" ">
<path fill="none" stroke="#63b8ff" d="M184.38,-55.59C184.38,-48.86 184.38,-39.53 184.38,-31.15"/>
<polygon fill="#63b8ff" stroke="#63b8ff" points="187.88,-31.3 184.38,-21.3 180.88,-31.3 187.88,-31.3"/>
</a>
</g>
</g>
</g>
</svg>
</svg>

<style type='text/css'>
<![CDATA[
[data-mouse-over-selected='false'] { opacity: 0.7; }
[data-mouse-over-selected='true']  { opacity: 1.0; }
]]>
</style>
<script type="application/ecmascript"><![CDATA[
document.addEventListener('DOMContentLoaded', (event) => {
  highlightEdges();
  highlightAdjacentNodes();
});
]]></script>
</svg>
