<?xml version="1.0" encoding="UTF-8" standalone="no"?>
<!DOCTYPE svg PUBLIC "-//W3C//DTD SVG 1.1//EN"
 "http://www.w3.org/Graphics/SVG/1.1/DTD/svg11.dtd">
<!-- Generated by graphviz version 8.1.0 (20230707.0739)
 -->
<!-- Title: vacm_timebase_update Pages: 1 -->
<svg width="739pt" height="66pt"
 viewBox="0.00 0.00 739.00 66.00" xmlns="http://www.w3.org/2000/svg" xmlns:xlink="http://www.w3.org/1999/xlink">
<g id="graph0" class="graph" transform="scale(1 1) rotate(0) translate(4 62)">
<title>vacm_timebase_update</title>
<!-- Node1 -->
<g id="Node000001" class="node">
<title>Node1</title>
<g id="a_Node000001"><a xlink:title=" ">
<polygon fill="#999999" stroke="#666666" points="731,-39 613,-39 613,-19 731,-19 731,-39"/>
<text text-anchor="middle" x="672" y="-25.5" font-family="Helvetica,sans-Serif" font-size="10.00">vacm_timebase_update</text>
</a>
</g>
</g>
<!-- Node2 -->
<g id="Node000002" class="node">
<title>Node2</title>
<g id="a_Node000002"><a xlink:href="a00257.html#a6620ac4371af55881bc354c83de9b1a9" target="_top" xlink:title=" ">
<polygon fill="white" stroke="#666666" points="577,-58 469.5,-58 469.5,-38 577,-38 577,-58"/>
<text text-anchor="middle" x="523.25" y="-44.5" font-family="Helvetica,sans-Serif" font-size="10.00">vacm_state_ac_sync</text>
</a>
</g>
</g>
<!-- Node1&#45;&gt;Node2 -->
<g id="edge1_Node000001_Node000002" class="edge">
<title>Node1&#45;&gt;Node2</title>
<g id="a_edge1_Node000001_Node000002"><a xlink:title=" ">
<path fill="none" stroke="#63b8ff" d="M601.8,-37.96C593.54,-39.03 585.22,-40.11 577.24,-41.14"/>
<polygon fill="#63b8ff" stroke="#63b8ff" points="602.11,-41.32 611.58,-36.56 601.21,-34.38 602.11,-41.32"/>
</a>
</g>
</g>
<!-- Node6 -->
<g id="Node000006" class="node">
<title>Node6</title>
<g id="a_Node000006"><a xlink:href="a00257.html#afa82391466200dde740b703017e91eec" target="_top" xlink:title=" ">
<polygon fill="white" stroke="#666666" points="571.38,-20 475.12,-20 475.12,0 571.38,0 571.38,-20"/>
<text text-anchor="middle" x="523.25" y="-6.5" font-family="Helvetica,sans-Serif" font-size="10.00">vacm_state_online</text>
</a>
</g>
</g>
<!-- Node1&#45;&gt;Node6 -->
<g id="edge5_Node000001_Node000006" class="edge">
<title>Node1&#45;&gt;Node6</title>
<g id="a_edge5_Node000001_Node000006"><a xlink:title=" ">
<path fill="none" stroke="#63b8ff" d="M601.96,-20.06C591.7,-18.73 581.33,-17.39 571.64,-16.14"/>
<polygon fill="#63b8ff" stroke="#63b8ff" points="601.21,-23.62 611.58,-21.44 602.11,-16.68 601.21,-23.62"/>
</a>
</g>
</g>
<!-- Node3 -->
<g id="Node000003" class="node">
<title>Node3</title>
<g id="a_Node000003"><a xlink:href="a00257.html#a3a965bf809d4454e8cc529cc6c3eed03" target="_top" xlink:title=" ">
<polygon fill="white" stroke="#666666" points="433.5,-39 326,-39 326,-19 433.5,-19 433.5,-39"/>
<text text-anchor="middle" x="379.75" y="-25.5" font-family="Helvetica,sans-Serif" font-size="10.00">vacm_state_machine</text>
</a>
</g>
</g>
<!-- Node2&#45;&gt;Node3 -->
<g id="edge2_Node000002_Node000003" class="edge">
<title>Node2&#45;&gt;Node3</title>
<g id="a_edge2_Node000002_Node000003"><a xlink:title=" ">
<path fill="none" stroke="#63b8ff" d="M458.4,-39.43C450.13,-38.32 441.73,-37.19 433.67,-36.11"/>
<polygon fill="#63b8ff" stroke="#63b8ff" points="457.78,-43.01 468.16,-40.87 458.71,-36.07 457.78,-43.01"/>
</a>
</g>
</g>
<!-- Node4 -->
<g id="Node000004" class="node">
<title>Node4</title>
<g id="a_Node000004"><a xlink:href="a00233.html#a41351a49d0335be286c2947c26d0a07c" target="_top" xlink:title=" ">
<polygon fill="white" stroke="#666666" points="290,-39 151.75,-39 151.75,-19 290,-19 290,-39"/>
<text text-anchor="middle" x="220.88" y="-25.5" font-family="Helvetica,sans-Serif" font-size="10.00">DMA_Channel_doAcMonitor</text>
</a>
</g>
</g>
<!-- Node3&#45;&gt;Node4 -->
<g id="edge3_Node000003_Node000004" class="edge">
<title>Node3&#45;&gt;Node4</title>
<g id="a_edge3_Node000003_Node000004"><a xlink:title=" ">
<path fill="none" stroke="#63b8ff" d="M314.77,-29C306.68,-29 298.38,-29 290.23,-29"/>
<polygon fill="#63b8ff" stroke="#63b8ff" points="314.64,-32.5 324.64,-29 314.64,-25.5 314.64,-32.5"/>
</a>
</g>
</g>
<!-- Node5 -->
<g id="Node000005" class="node">
<title>Node5</title>
<g id="a_Node000005"><a xlink:href="a00412.html#ga9f16d166d637fd9005839b1e1822dc63" target="_top" xlink:title="This is the default callback with weak attribute. The user can override and implement the default cal...">
<polygon fill="white" stroke="#666666" points="115.75,-39 0,-39 0,-19 115.75,-19 115.75,-39"/>
<text text-anchor="middle" x="57.88" y="-25.5" font-family="Helvetica,sans-Serif" font-size="10.00">DMA_ChannelCallback</text>
</a>
</g>
</g>
<!-- Node4&#45;&gt;Node5 -->
<g id="edge4_Node000004_Node000005" class="edge">
<title>Node4&#45;&gt;Node5</title>
<g id="a_edge4_Node000004_Node000005"><a xlink:title=" ">
<path fill="none" stroke="#63b8ff" d="M140.72,-29C132.41,-29 124.08,-29 116.09,-29"/>
<polygon fill="#63b8ff" stroke="#63b8ff" points="140.6,-32.5 150.6,-29 140.6,-25.5 140.6,-32.5"/>
</a>
</g>
</g>
<!-- Node6&#45;&gt;Node3 -->
<g id="edge6_Node000006_Node000003" class="edge">
<title>Node6&#45;&gt;Node3</title>
<g id="a_edge6_Node000006_Node000003"><a xlink:title=" ">
<path fill="none" stroke="#63b8ff" d="M464.03,-17.82C454,-19.16 443.62,-20.56 433.74,-21.88"/>
<polygon fill="#63b8ff" stroke="#63b8ff" points="464.29,-21.18 473.74,-16.38 463.36,-14.24 464.29,-21.18"/>
</a>
</g>
</g>
</g>
</svg>
