<?xml version="1.0" encoding="UTF-8" standalone="no"?>
<!DOCTYPE svg PUBLIC "-//W3C//DTD SVG 1.1//EN"
 "http://www.w3.org/Graphics/SVG/1.1/DTD/svg11.dtd">
<!-- Generated by graphviz version 2.44.1 (20200629.0846)
 -->
<!-- Title: C:/Users/M70027/Documents/Projects/tp&#45;deployment/dspic33ch&#45;power&#45;totem&#45;pole&#45;demonstration&#45;application&#45;single&#45;phase_v2/dspic33ch_totem_pole_single_phase_primary_IL.X/sources/driver/can/drv_can.c Pages: 1 -->
<!--zoomable 346 -->

<svg id="main" version="1.1" xmlns="http://www.w3.org/2000/svg" xmlns:xlink="http://www.w3.org/1999/xlink" xml:space="preserve" onload="init(evt)">

<style type="text/css"><![CDATA[
.node, .edge {opacity: 0.7;}
.node.selected, .edge.selected {opacity: 1;}
.edge:hover path { stroke: red; }
.edge:hover polygon { stroke: red; fill: red; }
]]></style>

<defs>
  <circle id="rim" cx="0" cy="0" r="7"/>
  <circle id="rim2" cx="0" cy="0" r="3.5"/>
  <g id="zoomPlus">
    <use xlink:href="#rim" fill="#404040"><set attributeName="fill" to="#808080" begin="zoomplus.mouseover" end="zoomplus.mouseout"/></use>
    <path d="M-4,0h8M0,-4v8" fill="none" stroke="white" stroke-width="1.5" pointer-events="none"/>
  </g>
  <g id="zoomMin">
    <use xlink:href="#rim" fill="#404040"><set attributeName="fill" to="#808080" begin="zoomminus.mouseover" end="zoomminus.mouseout"/></use>
    <path d="M-4,0h8" fill="none" stroke="white" stroke-width="1.5" pointer-events="none"/>
  </g>
  <g id="arrowUp" transform="translate(30 24)">
    <use xlink:href="#rim"/>
    <path pointer-events="none" fill="none" stroke="white" stroke-width="1.5" d="M0,-3.0v7 M-2.5,-0.5L0,-3.0L2.5,-0.5"/>
  </g>
  <g id="arrowRight" transform="rotate(90) translate(36 -43)">
    <use xlink:href="#rim"/>
    <path pointer-events="none" fill="none" stroke="white" stroke-width="1.5" d="M0,-3.0v7 M-2.5,-0.5L0,-3.0L2.5,-0.5"/>
  </g>
  <g id="arrowDown" transform="rotate(180) translate(-30 -48)">
    <use xlink:href="#rim"/>
    <path pointer-events="none" fill="none" stroke="white" stroke-width="1.5" d="M0,-3.0v7 M-2.5,-0.5L0,-3.0L2.5,-0.5"/>
  </g>
  <g id="arrowLeft" transform="rotate(270) translate(-36 17)">
    <use xlink:href="#rim"/>
    <path pointer-events="none" fill="none" stroke="white" stroke-width="1.5" d="M0,-3.0v7 M-2.5,-0.5L0,-3.0L2.5,-0.5"/>
  </g>
  <g id="resetDef">
    <use xlink:href="#rim2" fill="#404040"><set attributeName="fill" to="#808080" begin="reset.mouseover" end="reset.mouseout"/></use>
  </g>
</defs>
<script type="application/ecmascript">
var viewWidth = 1337;
var viewHeight = 346;
var sectionId = 'dynsection-0';
</script>
<script type="application/ecmascript" xlink:href="svg.min.js"/>
<svg id="graph" class="graph">
<g id="viewport">
<title>C:/Users/M70027/Documents/Projects/tp&#45;deployment/dspic33ch&#45;power&#45;totem&#45;pole&#45;demonstration&#45;application&#45;single&#45;phase_v2/dspic33ch_totem_pole_single_phase_primary_IL.X/sources/driver/can/drv_can.c</title>
<!-- Node1 -->
<g id="Node000001" class="node">
<title>Node1</title>
<g id="a_Node000001"><a xlink:title="This is the driver source file for CAN driver.">
<polygon fill="#999999" stroke="#666666" points="709.5,-338 543.5,-338 543.5,-253 709.5,-253 709.5,-338"/>
<text text-anchor="start" x="551.5" y="-326" font-family="Helvetica,sans-Serif" font-size="10.00">C:/Users/M70027/Documents</text>
<text text-anchor="start" x="551.5" y="-315" font-family="Helvetica,sans-Serif" font-size="10.00">/Projects/tp&#45;deployment</text>
<text text-anchor="start" x="551.5" y="-304" font-family="Helvetica,sans-Serif" font-size="10.00">/dspic33ch&#45;power&#45;totem&#45;pole</text>
<text text-anchor="start" x="551.5" y="-293" font-family="Helvetica,sans-Serif" font-size="10.00">&#45;demonstration&#45;application</text>
<text text-anchor="start" x="551.5" y="-282" font-family="Helvetica,sans-Serif" font-size="10.00">&#45;single&#45;phase_v2/dspic33ch_totem</text>
<text text-anchor="start" x="551.5" y="-271" font-family="Helvetica,sans-Serif" font-size="10.00">_pole_single_phase_primary_IL.X</text>
<text text-anchor="middle" x="626.5" y="-260" font-family="Helvetica,sans-Serif" font-size="10.00">/sources/driver/can/drv_can.c</text>
</a>
</g>
</g>
<!-- Node2 -->
<g id="Node000002" class="node">
<title>Node2</title>
<g id="a_Node000002"><a xlink:href="a00236.html" target="_top" xlink:title="This is the driver header file for DMA driver.">
<polygon fill="white" stroke="#666666" points="177.5,-211.5 69.5,-211.5 69.5,-192.5 177.5,-192.5 177.5,-211.5"/>
<text text-anchor="middle" x="123.5" y="-199.5" font-family="Helvetica,sans-Serif" font-size="10.00">driver/dma/drv_dma.h</text>
</a>
</g>
</g>
<!-- Node1&#45;&gt;Node2 -->
<g id="edge1_Node000001_Node000002" class="edge">
<title>Node1&#45;&gt;Node2</title>
<g id="a_edge1_Node000001_Node000002"><a xlink:title=" ">
<path fill="none" stroke="#63b8ff" d="M543.44,-279.39C440.8,-260.72 268.9,-229.45 180.23,-213.32"/>
<polygon fill="#63b8ff" stroke="#63b8ff" points="180.82,-209.87 170.36,-211.52 179.57,-216.76 180.82,-209.87"/>
</a>
</g>
</g>
<!-- Node5 -->
<g id="Node000005" class="node">
<title>Node5</title>
<g id="a_Node000005"><a xlink:href="a00230.html" target="_top" xlink:title="header of the CAN Driver">
<polygon fill="white" stroke="#666666" points="598.5,-211.5 540.5,-211.5 540.5,-192.5 598.5,-192.5 598.5,-211.5"/>
<text text-anchor="middle" x="569.5" y="-199.5" font-family="Helvetica,sans-Serif" font-size="10.00">drv_can.h</text>
</a>
</g>
</g>
<!-- Node1&#45;&gt;Node5 -->
<g id="edge4_Node000001_Node000005" class="edge">
<title>Node1&#45;&gt;Node5</title>
<g id="a_edge4_Node000001_Node000005"><a xlink:title=" ">
<path fill="none" stroke="#63b8ff" d="M600.5,-252.77C593.35,-241.29 586,-229.48 580.24,-220.24"/>
<polygon fill="#63b8ff" stroke="#63b8ff" points="583.16,-218.31 574.9,-211.67 577.22,-222.01 583.16,-218.31"/>
</a>
</g>
</g>
<!-- Node6 -->
<g id="Node000006" class="node">
<title>Node6</title>
<g id="a_Node000006"><a xlink:href="a00260.html" target="_top" xlink:title="header of the VAC">
<polygon fill="white" stroke="#666666" points="442.5,-217 348.5,-217 348.5,-187 442.5,-187 442.5,-217"/>
<text text-anchor="start" x="356.5" y="-205" font-family="Helvetica,sans-Serif" font-size="10.00">driver/vac_monitor</text>
<text text-anchor="middle" x="395.5" y="-194" font-family="Helvetica,sans-Serif" font-size="10.00">/vac_monitor.h</text>
</a>
</g>
</g>
<!-- Node1&#45;&gt;Node6 -->
<g id="edge6_Node000001_Node000006" class="edge">
<title>Node1&#45;&gt;Node6</title>
<g id="a_edge6_Node000001_Node000006"><a xlink:title=" ">
<path fill="none" stroke="#63b8ff" d="M543.43,-261.6C508.68,-247.83 469.68,-232.38 440.44,-220.8"/>
<polygon fill="#63b8ff" stroke="#63b8ff" points="441.51,-217.46 430.92,-217.03 438.93,-223.97 441.51,-217.46"/>
</a>
</g>
</g>
<!-- Node11 -->
<g id="Node000011" class="node">
<title>Node11</title>
<g id="a_Node000011"><a xlink:href="a00895_source.html" target="_top" xlink:title=" ">
<polygon fill="white" stroke="#666666" points="235.5,-140 151.5,-140 151.5,-121 235.5,-121 235.5,-140"/>
<text text-anchor="middle" x="193.5" y="-128" font-family="Helvetica,sans-Serif" font-size="10.00">../../../revision.h</text>
</a>
</g>
</g>
<!-- Node1&#45;&gt;Node11 -->
<g id="edge25_Node000001_Node000011" class="edge">
<title>Node1&#45;&gt;Node11</title>
<g id="a_edge25_Node000001_Node000011"><a xlink:title=" ">
<path fill="none" stroke="#63b8ff" d="M543.23,-278.17C484.88,-265.26 405.79,-244.77 339.5,-217 292.28,-197.22 241.68,-164.74 214.19,-146.02"/>
<polygon fill="#63b8ff" stroke="#63b8ff" points="216.02,-143.03 205.79,-140.24 212.05,-148.79 216.02,-143.03"/>
</a>
</g>
</g>
<!-- Node12 -->
<g id="Node000012" class="node">
<title>Node12</title>
<g id="a_Node000012"><a xlink:title=" ">
<polygon fill="#e0e0e0" stroke="#999999" points="541.5,-151 423.5,-151 423.5,-110 541.5,-110 541.5,-151"/>
<text text-anchor="start" x="431.5" y="-139" font-family="Helvetica,sans-Serif" font-size="10.00">../sources_common</text>
<text text-anchor="start" x="431.5" y="-128" font-family="Helvetica,sans-Serif" font-size="10.00">/Totempole_Application</text>
<text text-anchor="middle" x="482.5" y="-117" font-family="Helvetica,sans-Serif" font-size="10.00">_Setup.h</text>
</a>
</g>
</g>
<!-- Node1&#45;&gt;Node12 -->
<g id="edge48_Node000001_Node000012" class="edge">
<title>Node1&#45;&gt;Node12</title>
<g id="a_edge48_Node000001_Node000012"><a xlink:title=" ">
<path fill="none" stroke="#63b8ff" d="M568.66,-252.98C555.59,-242.11 542.38,-229.82 531.5,-217 516.93,-199.83 504.39,-177.71 495.64,-160.27"/>
<polygon fill="#63b8ff" stroke="#63b8ff" points="498.71,-158.58 491.19,-151.13 492.42,-161.65 498.71,-158.58"/>
</a>
</g>
</g>
<!-- Node13 -->
<g id="Node000013" class="node">
<title>Node13</title>
<g id="a_Node000013"><a xlink:href="a00254.html" target="_top" xlink:title="This is the driver source file for spi builds upon mcc.">
<polygon fill="white" stroke="#666666" points="807.5,-140 711.5,-140 711.5,-121 807.5,-121 807.5,-140"/>
<text text-anchor="middle" x="759.5" y="-128" font-family="Helvetica,sans-Serif" font-size="10.00">driver/spi/drv_spi.h</text>
</a>
</g>
</g>
<!-- Node1&#45;&gt;Node13 -->
<g id="edge15_Node000001_Node000013" class="edge">
<title>Node1&#45;&gt;Node13</title>
<g id="a_edge15_Node000001_Node000013"><a xlink:title=" ">
<path fill="none" stroke="#63b8ff" d="M625.17,-252.93C626.49,-231.36 631.4,-205.69 645.5,-187 661.93,-165.22 689.17,-151.52 712.9,-143.19"/>
<polygon fill="#63b8ff" stroke="#63b8ff" points="714.06,-146.49 722.47,-140.04 711.88,-139.84 714.06,-146.49"/>
</a>
</g>
</g>
<!-- Node14 -->
<g id="Node000014" class="node">
<title>Node14</title>
<g id="a_Node000014"><a xlink:href="a00242.html" target="_top" xlink:title="This is the driver header file for DMA driver.">
<polygon fill="white" stroke="#666666" points="750.5,-211.5 654.5,-211.5 654.5,-192.5 750.5,-192.5 750.5,-211.5"/>
<text text-anchor="middle" x="702.5" y="-199.5" font-family="Helvetica,sans-Serif" font-size="10.00">driver/i2c/drv_i2c.h</text>
</a>
</g>
</g>
<!-- Node1&#45;&gt;Node14 -->
<g id="edge18_Node000001_Node000014" class="edge">
<title>Node1&#45;&gt;Node14</title>
<g id="a_edge18_Node000001_Node000014"><a xlink:title=" ">
<path fill="none" stroke="#63b8ff" d="M661.16,-252.77C671,-240.93 681.13,-228.73 688.9,-219.38"/>
<polygon fill="#63b8ff" stroke="#63b8ff" points="691.6,-221.6 695.3,-211.67 686.21,-217.13 691.6,-221.6"/>
</a>
</g>
</g>
<!-- Node17 -->
<g id="Node000017" class="node">
<title>Node17</title>
<g id="a_Node000017"><a xlink:href="a00089_source.html" target="_top" xlink:title=" ">
<polygon fill="white" stroke="#666666" points="1065,-140 964,-140 964,-121 1065,-121 1065,-140"/>
<text text-anchor="middle" x="1014.5" y="-128" font-family="Helvetica,sans-Serif" font-size="10.00">can/can_interface.h</text>
</a>
</g>
</g>
<!-- Node1&#45;&gt;Node17 -->
<g id="edge26_Node000001_Node000017" class="edge">
<title>Node1&#45;&gt;Node17</title>
<g id="a_edge26_Node000001_Node000017"><a xlink:title=" ">
<path fill="none" stroke="#63b8ff" d="M702.2,-252.86C721.23,-241.72 741.39,-229.34 759.5,-217 777.28,-204.89 778.21,-196.54 797.5,-187 847.24,-162.4 908.96,-147.98 953.84,-140.03"/>
<polygon fill="#63b8ff" stroke="#63b8ff" points="954.46,-143.48 963.73,-138.34 953.28,-136.58 954.46,-143.48"/>
</a>
</g>
</g>
<!-- Node19 -->
<g id="Node000019" class="node">
<title>Node19</title>
<g id="a_Node000019"><a xlink:title=" ">
<polygon fill="#e0e0e0" stroke="#999999" points="884.5,-211.5 806.5,-211.5 806.5,-192.5 884.5,-192.5 884.5,-211.5"/>
<text text-anchor="middle" x="845.5" y="-199.5" font-family="Helvetica,sans-Serif" font-size="10.00">system/pins.h</text>
</a>
</g>
</g>
<!-- Node1&#45;&gt;Node19 -->
<g id="edge31_Node000001_Node000019" class="edge">
<title>Node1&#45;&gt;Node19</title>
<g id="a_edge31_Node000001_Node000019"><a xlink:title=" ">
<path fill="none" stroke="#63b8ff" d="M709.61,-259.78C746.89,-244.2 788.52,-226.8 815.76,-215.42"/>
<polygon fill="#63b8ff" stroke="#63b8ff" points="817.23,-218.6 825.11,-211.52 814.53,-212.14 817.23,-218.6"/>
</a>
</g>
</g>
<!-- Node20 -->
<g id="Node000020" class="node">
<title>Node20</title>
<g id="a_Node000020"><a xlink:href="a00083.html" target="_top" xlink:title="This is the generated driver header file for the CAN1 driver using CCL.">
<polygon fill="white" stroke="#666666" points="1007,-211.5 942,-211.5 942,-192.5 1007,-192.5 1007,-211.5"/>
<text text-anchor="middle" x="974.5" y="-199.5" font-family="Helvetica,sans-Serif" font-size="10.00">can/can1.h</text>
</a>
</g>
</g>
<!-- Node1&#45;&gt;Node20 -->
<g id="edge32_Node000001_Node000020" class="edge">
<title>Node1&#45;&gt;Node20</title>
<g id="a_edge32_Node000001_Node000020"><a xlink:title=" ">
<path fill="none" stroke="#63b8ff" d="M709.85,-272.58C779.89,-254.17 877.12,-228.6 932.13,-214.14"/>
<polygon fill="#63b8ff" stroke="#63b8ff" points="933.11,-217.5 941.89,-211.57 931.33,-210.73 933.11,-217.5"/>
</a>
</g>
</g>
<!-- Node21 -->
<g id="Node000021" class="node">
<title>Node21</title>
<g id="a_Node000021"><a xlink:href="a00122.html" target="_top" xlink:title="This is the generated driver header file for the SEC_CORE1 driver.">
<polygon fill="white" stroke="#666666" points="1197.5,-217 1093.5,-217 1093.5,-187 1197.5,-187 1197.5,-217"/>
<text text-anchor="start" x="1101.5" y="-205" font-family="Helvetica,sans-Serif" font-size="10.00">secondary_core/sec</text>
<text text-anchor="middle" x="1145.5" y="-194" font-family="Helvetica,sans-Serif" font-size="10.00">_core1.h</text>
</a>
</g>
</g>
<!-- Node1&#45;&gt;Node21 -->
<g id="edge38_Node000001_Node000021" class="edge">
<title>Node1&#45;&gt;Node21</title>
<g id="a_edge38_Node000001_Node000021"><a xlink:title=" ">
<path fill="none" stroke="#63b8ff" d="M709.6,-279.85C813.8,-261.48 990.04,-230.41 1083.31,-213.96"/>
<polygon fill="#63b8ff" stroke="#63b8ff" points="1084.2,-217.36 1093.44,-212.18 1082.99,-210.47 1084.2,-217.36"/>
</a>
</g>
</g>
<!-- Node3 -->
<g id="Node000003" class="node">
<title>Node3</title>
<g id="a_Node000003"><a xlink:title=" ">
<polygon fill="#e0e0e0" stroke="#999999" points="625,-74 590,-74 590,-55 625,-55 625,-74"/>
<text text-anchor="middle" x="607.5" y="-62" font-family="Helvetica,sans-Serif" font-size="10.00">xc.h</text>
</a>
</g>
</g>
<!-- Node2&#45;&gt;Node3 -->
<g id="edge2_Node000002_Node000003" class="edge">
<title>Node2&#45;&gt;Node3</title>
<g id="a_edge2_Node000002_Node000003"><a xlink:title=" ">
<path fill="none" stroke="#63b8ff" d="M122.32,-192.39C120.35,-174.09 118.69,-131.31 142.5,-110 175.19,-80.73 484.91,-69.15 579.92,-66.26"/>
<polygon fill="#63b8ff" stroke="#63b8ff" points="580.03,-69.76 589.92,-65.97 579.82,-62.77 580.03,-69.76"/>
</a>
</g>
</g>
<!-- Node4 -->
<g id="Node000004" class="node">
<title>Node4</title>
<g id="a_Node000004"><a xlink:href="a00113.html" target="_top" xlink:title="This is the generated driver types header file for the DMA driver.">
<polygon fill="white" stroke="#666666" points="95,-140 0,-140 0,-121 95,-121 95,-140"/>
<text text-anchor="middle" x="47.5" y="-128" font-family="Helvetica,sans-Serif" font-size="10.00">dma/dma_types.h</text>
</a>
</g>
</g>
<!-- Node2&#45;&gt;Node4 -->
<g id="edge3_Node000002_Node000004" class="edge">
<title>Node2&#45;&gt;Node4</title>
<g id="a_edge3_Node000002_Node000004"><a xlink:title=" ">
<path fill="none" stroke="#63b8ff" d="M114.18,-192.48C101.87,-181.22 79.97,-161.19 64.64,-147.17"/>
<polygon fill="#63b8ff" stroke="#63b8ff" points="66.64,-144.26 56.9,-140.09 61.91,-149.42 66.64,-144.26"/>
</a>
</g>
</g>
<!-- Node5&#45;&gt;Node3 -->
<g id="edge5_Node000005_Node000003" class="edge">
<title>Node5&#45;&gt;Node3</title>
<g id="a_edge5_Node000005_Node000003"><a xlink:title=" ">
<path fill="none" stroke="#63b8ff" d="M571.62,-192.43C575.65,-176.26 584.79,-140.14 593.5,-110 595.97,-101.44 598.91,-92.02 601.45,-84.06"/>
<polygon fill="#63b8ff" stroke="#63b8ff" points="604.85,-84.92 604.59,-74.33 598.19,-82.77 604.85,-84.92"/>
</a>
</g>
</g>
<!-- Node6&#45;&gt;Node3 -->
<g id="edge7_Node000006_Node000003" class="edge">
<title>Node6&#45;&gt;Node3</title>
<g id="a_edge7_Node000006_Node000003"><a xlink:title=" ">
<path fill="none" stroke="#63b8ff" d="M394.14,-186.86C393.05,-166.91 394.29,-130.64 414.5,-110 437.32,-86.7 532.25,-73.5 579.93,-68.22"/>
<polygon fill="#63b8ff" stroke="#63b8ff" points="580.31,-71.7 589.88,-67.16 579.57,-64.74 580.31,-71.7"/>
</a>
</g>
</g>
<!-- Node7 -->
<g id="Node000007" class="node">
<title>Node7</title>
<g id="a_Node000007"><a xlink:href="a00263.html" target="_top" xlink:title="VAC Types define.">
<polygon fill="white" stroke="#666666" points="367,-140 254,-140 254,-121 367,-121 367,-140"/>
<text text-anchor="middle" x="310.5" y="-128" font-family="Helvetica,sans-Serif" font-size="10.00">vac_monitor_typedef.h</text>
</a>
</g>
</g>
<!-- Node6&#45;&gt;Node7 -->
<g id="edge8_Node000006_Node000007" class="edge">
<title>Node6&#45;&gt;Node7</title>
<g id="a_edge8_Node000006_Node000007"><a xlink:title=" ">
<path fill="none" stroke="#63b8ff" d="M378.3,-186.94C364.02,-175.26 343.76,-158.7 329.11,-146.72"/>
<polygon fill="#63b8ff" stroke="#63b8ff" points="331.18,-143.89 321.22,-140.27 326.75,-149.31 331.18,-143.89"/>
</a>
</g>
</g>
<!-- Node6&#45;&gt;Node11 -->
<g id="edge13_Node000006_Node000011" class="edge">
<title>Node6&#45;&gt;Node11</title>
<g id="a_edge13_Node000006_Node000011"><a xlink:title=" ">
<path fill="none" stroke="#63b8ff" d="M351.38,-186.97C321.17,-177.23 280.27,-163.75 244.5,-151 238.17,-148.74 231.44,-146.24 225.01,-143.8"/>
<polygon fill="#63b8ff" stroke="#63b8ff" points="225.85,-140.38 215.26,-140.07 223.35,-146.91 225.85,-140.38"/>
</a>
</g>
</g>
<!-- Node6&#45;&gt;Node12 -->
<g id="edge14_Node000006_Node000012" class="edge">
<title>Node6&#45;&gt;Node12</title>
<g id="a_edge14_Node000006_Node000012"><a xlink:title=" ">
<path fill="none" stroke="#63b8ff" d="M413.11,-186.94C423.7,-178.48 437.5,-167.44 450.01,-157.45"/>
<polygon fill="#63b8ff" stroke="#63b8ff" points="452.37,-160.05 458,-151.07 448,-154.58 452.37,-160.05"/>
</a>
</g>
</g>
<!-- Node7&#45;&gt;Node3 -->
<g id="edge9_Node000007_Node000003" class="edge">
<title>Node7&#45;&gt;Node3</title>
<g id="a_edge9_Node000007_Node000003"><a xlink:title=" ">
<path fill="none" stroke="#63b8ff" d="M339.74,-120.95C352.51,-117.35 367.69,-113.25 381.5,-110 452.55,-93.27 537.18,-77.78 579.9,-70.26"/>
<polygon fill="#63b8ff" stroke="#63b8ff" points="580.58,-73.69 589.82,-68.52 579.37,-66.8 580.58,-73.69"/>
</a>
</g>
</g>
<!-- Node8 -->
<g id="Node000008" class="node">
<title>Node8</title>
<g id="a_Node000008"><a xlink:title=" ">
<polygon fill="#e0e0e0" stroke="#999999" points="1038,-19 989,-19 989,0 1038,0 1038,-19"/>
<text text-anchor="middle" x="1013.5" y="-7" font-family="Helvetica,sans-Serif" font-size="10.00">stdint.h</text>
</a>
</g>
</g>
<!-- Node7&#45;&gt;Node8 -->
<g id="edge10_Node000007_Node000008" class="edge">
<title>Node7&#45;&gt;Node8</title>
<g id="a_edge10_Node000007_Node000008"><a xlink:title=" ">
<path fill="none" stroke="#63b8ff" d="M335.95,-120.98C383.58,-105.37 489.66,-72.23 581.5,-55 727.7,-27.57 905.14,-15.99 978.83,-12.12"/>
<polygon fill="#63b8ff" stroke="#63b8ff" points="979.13,-15.61 988.94,-11.6 978.77,-8.62 979.13,-15.61"/>
</a>
</g>
</g>
<!-- Node9 -->
<g id="Node000009" class="node">
<title>Node9</title>
<g id="a_Node000009"><a xlink:title=" ">
<polygon fill="#e0e0e0" stroke="#999999" points="922.5,-74 866.5,-74 866.5,-55 922.5,-55 922.5,-74"/>
<text text-anchor="middle" x="894.5" y="-62" font-family="Helvetica,sans-Serif" font-size="10.00">stdbool.h</text>
</a>
</g>
</g>
<!-- Node7&#45;&gt;Node9 -->
<g id="edge11_Node000007_Node000009" class="edge">
<title>Node7&#45;&gt;Node9</title>
<g id="a_edge11_Node000007_Node000009"><a xlink:title=" ">
<path fill="none" stroke="#63b8ff" d="M351.35,-120.93C370.47,-117.16 393.58,-112.92 414.5,-110 577.91,-87.16 774.3,-73.11 855.97,-67.85"/>
<polygon fill="#63b8ff" stroke="#63b8ff" points="856.5,-71.33 866.26,-67.2 856.06,-64.34 856.5,-71.33"/>
</a>
</g>
</g>
<!-- Node10 -->
<g id="Node000010" class="node">
<title>Node10</title>
<g id="a_Node000010"><a xlink:title=" ">
<polygon fill="#e0e0e0" stroke="#999999" points="331,-74 290,-74 290,-55 331,-55 331,-74"/>
<text text-anchor="middle" x="310.5" y="-62" font-family="Helvetica,sans-Serif" font-size="10.00">dsp.h</text>
</a>
</g>
</g>
<!-- Node7&#45;&gt;Node10 -->
<g id="edge12_Node000007_Node000010" class="edge">
<title>Node7&#45;&gt;Node10</title>
<g id="a_edge12_Node000007_Node000010"><a xlink:title=" ">
<path fill="none" stroke="#63b8ff" d="M310.5,-120.87C310.5,-111.66 310.5,-96.79 310.5,-84.77"/>
<polygon fill="#63b8ff" stroke="#63b8ff" points="314,-84.41 310.5,-74.41 307,-84.41 314,-84.41"/>
</a>
</g>
</g>
<!-- Node13&#45;&gt;Node3 -->
<g id="edge16_Node000013_Node000003" class="edge">
<title>Node13&#45;&gt;Node3</title>
<g id="a_edge16_Node000013_Node000003"><a xlink:title=" ">
<path fill="none" stroke="#63b8ff" d="M739,-120.87C712.06,-109.53 664.67,-89.57 634.74,-76.97"/>
<polygon fill="#63b8ff" stroke="#63b8ff" points="635.89,-73.66 625.32,-73 633.17,-80.11 635.89,-73.66"/>
</a>
</g>
</g>
<!-- Node13&#45;&gt;Node9 -->
<g id="edge17_Node000013_Node000009" class="edge">
<title>Node13&#45;&gt;Node9</title>
<g id="a_edge17_Node000013_Node000009"><a xlink:title=" ">
<path fill="none" stroke="#63b8ff" d="M777.71,-120.87C800.65,-109.99 840.31,-91.19 866.97,-78.55"/>
<polygon fill="#63b8ff" stroke="#63b8ff" points="868.61,-81.65 876.15,-74.2 865.62,-75.32 868.61,-81.65"/>
</a>
</g>
</g>
<!-- Node14&#45;&gt;Node3 -->
<g id="edge19_Node000014_Node000003" class="edge">
<title>Node14&#45;&gt;Node3</title>
<g id="a_edge19_Node000014_Node000003"><a xlink:title=" ">
<path fill="none" stroke="#63b8ff" d="M683.74,-192.38C667.58,-184.02 644.82,-169.83 631.5,-151 617.35,-130.98 611.52,-102.85 609.13,-84.4"/>
<polygon fill="#63b8ff" stroke="#63b8ff" points="612.6,-83.9 608.05,-74.33 605.64,-84.64 612.6,-83.9"/>
</a>
</g>
</g>
<!-- Node15 -->
<g id="Node000015" class="node">
<title>Node15</title>
<g id="a_Node000015"><a xlink:href="a00248_source.html" target="_top" xlink:title=" ">
<polygon fill="white" stroke="#666666" points="869,-140 826,-140 826,-121 869,-121 869,-140"/>
<text text-anchor="middle" x="847.5" y="-128" font-family="Helvetica,sans-Serif" font-size="10.00">i2c2.h</text>
</a>
</g>
</g>
<!-- Node14&#45;&gt;Node15 -->
<g id="edge20_Node000014_Node000015" class="edge">
<title>Node14&#45;&gt;Node15</title>
<g id="a_edge20_Node000014_Node000015"><a xlink:title=" ">
<path fill="none" stroke="#63b8ff" d="M724.81,-192.36C748.13,-183.06 785.57,-167.4 816.5,-151 819.69,-149.31 822.98,-147.41 826.18,-145.48"/>
<polygon fill="#63b8ff" stroke="#63b8ff" points="828.16,-148.37 834.78,-140.1 824.45,-142.44 828.16,-148.37"/>
</a>
</g>
</g>
<!-- Node15&#45;&gt;Node3 -->
<g id="edge24_Node000015_Node000003" class="edge">
<title>Node15&#45;&gt;Node3</title>
<g id="a_edge24_Node000015_Node000003"><a xlink:title=" ">
<path fill="none" stroke="#63b8ff" d="M835.96,-120.87C830.34,-117.04 823.33,-112.77 816.5,-110 754.5,-84.83 676.11,-73.04 635.2,-68.27"/>
<polygon fill="#63b8ff" stroke="#63b8ff" points="635.5,-64.78 625.18,-67.15 634.73,-71.73 635.5,-64.78"/>
</a>
</g>
</g>
<!-- Node15&#45;&gt;Node8 -->
<g id="edge21_Node000015_Node000008" class="edge">
<title>Node15&#45;&gt;Node8</title>
<g id="a_edge21_Node000015_Node000008"><a xlink:title=" ">
<path fill="none" stroke="#63b8ff" d="M845.92,-120.94C843.63,-105.71 841.28,-73.75 857.5,-55 887.6,-20.2 942.82,-11.69 978.83,-10.09"/>
<polygon fill="#63b8ff" stroke="#63b8ff" points="979,-13.59 988.89,-9.8 978.8,-6.59 979,-13.59"/>
</a>
</g>
</g>
<!-- Node15&#45;&gt;Node9 -->
<g id="edge22_Node000015_Node000009" class="edge">
<title>Node15&#45;&gt;Node9</title>
<g id="a_edge22_Node000015_Node000009"><a xlink:title=" ">
<path fill="none" stroke="#63b8ff" d="M853.84,-120.87C861.02,-111.09 872.89,-94.92 881.96,-82.58"/>
<polygon fill="#63b8ff" stroke="#63b8ff" points="884.86,-84.54 887.96,-74.41 879.22,-80.39 884.86,-84.54"/>
</a>
</g>
</g>
<!-- Node16 -->
<g id="Node000016" class="node">
<title>Node16</title>
<g id="a_Node000016"><a xlink:title=" ">
<polygon fill="#e0e0e0" stroke="#999999" points="1118,-74 1067,-74 1067,-55 1118,-55 1118,-74"/>
<text text-anchor="middle" x="1092.5" y="-62" font-family="Helvetica,sans-Serif" font-size="10.00">stddef.h</text>
</a>
</g>
</g>
<!-- Node15&#45;&gt;Node16 -->
<g id="edge23_Node000015_Node000016" class="edge">
<title>Node15&#45;&gt;Node16</title>
<g id="a_edge23_Node000015_Node000016"><a xlink:title=" ">
<path fill="none" stroke="#63b8ff" d="M869.24,-123.82C911.62,-112.75 1005.62,-88.19 1057.1,-74.75"/>
<polygon fill="#63b8ff" stroke="#63b8ff" points="1058.01,-78.13 1066.81,-72.21 1056.25,-71.35 1058.01,-78.13"/>
</a>
</g>
</g>
<!-- Node17&#45;&gt;Node8 -->
<g id="edge28_Node000017_Node000008" class="edge">
<title>Node17&#45;&gt;Node8</title>
<g id="a_edge28_Node000017_Node000008"><a xlink:title=" ">
<path fill="none" stroke="#63b8ff" d="M1004.28,-120.94C993.26,-110.98 976.38,-93.41 969.5,-74 966.68,-66.04 966.29,-62.81 969.5,-55 974.31,-43.31 983.83,-33.05 992.8,-25.34"/>
<polygon fill="#63b8ff" stroke="#63b8ff" points="995.1,-27.98 1000.72,-19 990.73,-22.51 995.1,-27.98"/>
</a>
</g>
</g>
<!-- Node17&#45;&gt;Node9 -->
<g id="edge27_Node000017_Node000009" class="edge">
<title>Node17&#45;&gt;Node9</title>
<g id="a_edge27_Node000017_Node000009"><a xlink:title=" ">
<path fill="none" stroke="#63b8ff" d="M998.32,-120.87C978.19,-110.13 943.59,-91.68 919.91,-79.05"/>
<polygon fill="#63b8ff" stroke="#63b8ff" points="921.28,-75.82 910.81,-74.2 917.99,-81.99 921.28,-75.82"/>
</a>
</g>
</g>
<!-- Node18 -->
<g id="Node000018" class="node">
<title>Node18</title>
<g id="a_Node000018"><a xlink:href="a00092.html" target="_top" xlink:title="This is the generated driver types header file for the CAN driver using CCL.">
<polygon fill="white" stroke="#666666" points="1048.5,-74 978.5,-74 978.5,-55 1048.5,-55 1048.5,-74"/>
<text text-anchor="middle" x="1013.5" y="-62" font-family="Helvetica,sans-Serif" font-size="10.00">can_types.h</text>
</a>
</g>
</g>
<!-- Node17&#45;&gt;Node18 -->
<g id="edge29_Node000017_Node000018" class="edge">
<title>Node17&#45;&gt;Node18</title>
<g id="a_edge29_Node000017_Node000018"><a xlink:title=" ">
<path fill="none" stroke="#63b8ff" d="M1014.37,-120.87C1014.22,-111.66 1013.99,-96.79 1013.8,-84.77"/>
<polygon fill="#63b8ff" stroke="#63b8ff" points="1017.3,-84.35 1013.64,-74.41 1010.3,-84.46 1017.3,-84.35"/>
</a>
</g>
</g>
<!-- Node18&#45;&gt;Node8 -->
<g id="edge30_Node000018_Node000008" class="edge">
<title>Node18&#45;&gt;Node8</title>
<g id="a_edge30_Node000018_Node000008"><a xlink:title=" ">
<path fill="none" stroke="#63b8ff" d="M1013.5,-54.75C1013.5,-47.8 1013.5,-37.85 1013.5,-29.13"/>
<polygon fill="#63b8ff" stroke="#63b8ff" points="1017,-29.09 1013.5,-19.09 1010,-29.09 1017,-29.09"/>
</a>
</g>
</g>
<!-- Node20&#45;&gt;Node3 -->
<g id="edge33_Node000020_Node000003" class="edge">
<title>Node20&#45;&gt;Node3</title>
<g id="a_edge33_Node000020_Node000003"><a xlink:title=" ">
<path fill="none" stroke="#63b8ff" d="M941.8,-195.26C927.05,-192.69 909.41,-189.65 893.5,-187 794.04,-170.41 755.39,-203.82 669.5,-151 655.76,-142.55 631.62,-105.32 617.86,-82.87"/>
<polygon fill="#63b8ff" stroke="#63b8ff" points="620.68,-80.76 612.51,-74.01 614.69,-84.38 620.68,-80.76"/>
</a>
</g>
</g>
<!-- Node20&#45;&gt;Node8 -->
<g id="edge35_Node000020_Node000008" class="edge">
<title>Node20&#45;&gt;Node8</title>
<g id="a_edge35_Node000020_Node000008"><a xlink:title=" ">
<path fill="none" stroke="#63b8ff" d="M1007.11,-193.87C1032.81,-186.8 1068.08,-173.65 1091.5,-151 1118.66,-124.74 1119.3,-110.88 1127.5,-74 1129.33,-65.76 1132.26,-61.97 1127.5,-55 1109.94,-29.29 1075.12,-18.43 1048.57,-13.85"/>
<polygon fill="#63b8ff" stroke="#63b8ff" points="1048.9,-10.36 1038.49,-12.33 1047.86,-17.28 1048.9,-10.36"/>
</a>
</g>
</g>
<!-- Node20&#45;&gt;Node9 -->
<g id="edge34_Node000020_Node000009" class="edge">
<title>Node20&#45;&gt;Node9</title>
<g id="a_edge34_Node000020_Node000009"><a xlink:title=" ">
<path fill="none" stroke="#63b8ff" d="M962.27,-192.41C950.27,-183.39 932.25,-168.15 921.5,-151 908.35,-130.03 901.12,-102.13 897.53,-83.99"/>
<polygon fill="#63b8ff" stroke="#63b8ff" points="900.96,-83.33 895.74,-74.11 894.08,-84.58 900.96,-83.33"/>
</a>
</g>
</g>
<!-- Node20&#45;&gt;Node17 -->
<g id="edge37_Node000020_Node000017" class="edge">
<title>Node20&#45;&gt;Node17</title>
<g id="a_edge37_Node000020_Node000017"><a xlink:title=" ">
<path fill="none" stroke="#63b8ff" d="M979.4,-192.48C985.58,-181.74 996.35,-163.03 1004.34,-149.16"/>
<polygon fill="#63b8ff" stroke="#63b8ff" points="1007.6,-150.5 1009.56,-140.09 1001.53,-147.01 1007.6,-150.5"/>
</a>
</g>
</g>
<!-- Node20&#45;&gt;Node18 -->
<g id="edge36_Node000020_Node000018" class="edge">
<title>Node20&#45;&gt;Node18</title>
<g id="a_edge36_Node000020_Node000018"><a xlink:title=" ">
<path fill="none" stroke="#63b8ff" d="M1007.22,-194.18C1030.41,-187.45 1059.91,-174.61 1074.5,-151 1084.08,-135.5 1082.76,-126.24 1074.5,-110 1067.73,-96.68 1054.9,-86.41 1042.75,-79.1"/>
<polygon fill="#63b8ff" stroke="#63b8ff" points="1044.14,-75.87 1033.7,-74.09 1040.75,-81.99 1044.14,-75.87"/>
</a>
</g>
</g>
<!-- Node21&#45;&gt;Node3 -->
<g id="edge39_Node000021_Node000003" class="edge">
<title>Node21&#45;&gt;Node3</title>
<g id="a_edge39_Node000021_Node000003"><a xlink:title=" ">
<path fill="none" stroke="#63b8ff" d="M1093.11,-195.33C976.78,-182.72 706.8,-153.25 702.5,-151 681.01,-139.77 684.27,-126.5 666.5,-110 654.66,-99.01 640.2,-88.07 628.55,-79.78"/>
<polygon fill="#63b8ff" stroke="#63b8ff" points="630.49,-76.87 620.29,-74.01 626.48,-82.6 630.49,-76.87"/>
</a>
</g>
</g>
<!-- Node21&#45;&gt;Node8 -->
<g id="edge40_Node000021_Node000008" class="edge">
<title>Node21&#45;&gt;Node8</title>
<g id="a_edge40_Node000021_Node000008"><a xlink:title=" ">
<path fill="none" stroke="#63b8ff" d="M1197.57,-195.61C1229.34,-189.67 1268.51,-177.2 1293.5,-151 1323.71,-119.32 1344.11,-88.13 1315.5,-55 1281.32,-15.41 1120.34,-10.42 1048.39,-10.2"/>
<polygon fill="#63b8ff" stroke="#63b8ff" points="1048.04,-6.7 1038.04,-10.21 1048.04,-13.7 1048.04,-6.7"/>
</a>
</g>
</g>
<!-- Node21&#45;&gt;Node9 -->
<g id="edge41_Node000021_Node000009" class="edge">
<title>Node21&#45;&gt;Node9</title>
<g id="a_edge41_Node000021_Node000009"><a xlink:title=" ">
<path fill="none" stroke="#63b8ff" d="M1093.11,-196.91C1052.52,-191.58 996.48,-179.29 955.5,-151 942.36,-141.93 918.66,-105.27 904.99,-83.01"/>
<polygon fill="#63b8ff" stroke="#63b8ff" points="907.83,-80.94 899.65,-74.2 901.84,-84.57 907.83,-80.94"/>
</a>
</g>
</g>
<!-- Node22 -->
<g id="Node000022" class="node">
<title>Node22</title>
<g id="a_Node000022"><a xlink:href="a00128.html" target="_top" xlink:title="This is the generated driver types header file for the SEC_CORE driver.">
<polygon fill="white" stroke="#666666" points="1306.5,-74 1212.5,-74 1212.5,-55 1306.5,-55 1306.5,-74"/>
<text text-anchor="middle" x="1259.5" y="-62" font-family="Helvetica,sans-Serif" font-size="10.00">sec_core_types.h</text>
</a>
</g>
</g>
<!-- Node21&#45;&gt;Node22 -->
<g id="edge42_Node000021_Node000022" class="edge">
<title>Node21&#45;&gt;Node22</title>
<g id="a_edge42_Node000021_Node000022"><a xlink:title=" ">
<path fill="none" stroke="#63b8ff" d="M1197.74,-195.25C1226.08,-189.16 1258.83,-176.66 1276.5,-151 1290.47,-130.71 1279.81,-101.67 1270.18,-83.19"/>
<polygon fill="#63b8ff" stroke="#63b8ff" points="1273.19,-81.39 1265.25,-74.37 1267.08,-84.81 1273.19,-81.39"/>
</a>
</g>
</g>
<!-- Node23 -->
<g id="Node000023" class="node">
<title>Node23</title>
<g id="a_Node000023"><a xlink:href="a00125_source.html" target="_top" xlink:title=" ">
<polygon fill="white" stroke="#666666" points="1267,-140 1160,-140 1160,-121 1267,-121 1267,-140"/>
<text text-anchor="middle" x="1213.5" y="-128" font-family="Helvetica,sans-Serif" font-size="10.00">sec_core_interface.h</text>
</a>
</g>
</g>
<!-- Node21&#45;&gt;Node23 -->
<g id="edge43_Node000021_Node000023" class="edge">
<title>Node21&#45;&gt;Node23</title>
<g id="a_edge43_Node000021_Node000023"><a xlink:title=" ">
<path fill="none" stroke="#63b8ff" d="M1159.26,-186.94C1170.36,-175.59 1185.98,-159.62 1197.61,-147.74"/>
<polygon fill="#63b8ff" stroke="#63b8ff" points="1200.43,-149.86 1204.92,-140.27 1195.43,-144.97 1200.43,-149.86"/>
</a>
</g>
</g>
<!-- Node23&#45;&gt;Node8 -->
<g id="edge45_Node000023_Node000008" class="edge">
<title>Node23&#45;&gt;Node8</title>
<g id="a_edge45_Node000023_Node000008"><a xlink:title=" ">
<path fill="none" stroke="#63b8ff" d="M1209.63,-120.71C1202.32,-105.11 1184.99,-72.6 1160.5,-55 1126.85,-30.81 1079.87,-19.59 1048.15,-14.51"/>
<polygon fill="#63b8ff" stroke="#63b8ff" points="1048.43,-11.01 1038.02,-13.01 1047.4,-17.94 1048.43,-11.01"/>
</a>
</g>
</g>
<!-- Node23&#45;&gt;Node9 -->
<g id="edge46_Node000023_Node000009" class="edge">
<title>Node23&#45;&gt;Node9</title>
<g id="a_edge46_Node000023_Node000009"><a xlink:title=" ">
<path fill="none" stroke="#63b8ff" d="M1170.81,-120.94C1108.22,-108.38 992.5,-85.16 932.62,-73.15"/>
<polygon fill="#63b8ff" stroke="#63b8ff" points="933.3,-69.72 922.81,-71.18 931.93,-76.58 933.3,-69.72"/>
</a>
</g>
</g>
<!-- Node23&#45;&gt;Node16 -->
<g id="edge44_Node000023_Node000016" class="edge">
<title>Node23&#45;&gt;Node16</title>
<g id="a_edge44_Node000023_Node000016"><a xlink:title=" ">
<path fill="none" stroke="#63b8ff" d="M1197.18,-120.87C1176.79,-110.09 1141.69,-91.52 1117.8,-78.88"/>
<polygon fill="#63b8ff" stroke="#63b8ff" points="1119.42,-75.78 1108.95,-74.2 1116.15,-81.97 1119.42,-75.78"/>
</a>
</g>
</g>
<!-- Node23&#45;&gt;Node22 -->
<g id="edge47_Node000023_Node000022" class="edge">
<title>Node23&#45;&gt;Node22</title>
<g id="a_edge47_Node000023_Node000022"><a xlink:title=" ">
<path fill="none" stroke="#63b8ff" d="M1219.7,-120.87C1226.73,-111.09 1238.35,-94.92 1247.23,-82.58"/>
<polygon fill="#63b8ff" stroke="#63b8ff" points="1250.11,-84.57 1253.1,-74.41 1244.42,-80.48 1250.11,-84.57"/>
</a>
</g>
</g>
</g>
</svg>

<g id="navigator" transform="translate(0 0)" fill="#404254">
  <rect fill="#f2f5e9" fill-opacity="0.5" stroke="#606060" stroke-width=".5" x="0" y="0" width="60" height="60"/>
  <use id="zoomplus" xlink:href="#zoomPlus" x="17" y="9" onmousedown="handleZoom(evt,'in')"/>
  <use id="zoomminus" xlink:href="#zoomMin" x="42" y="9" onmousedown="handleZoom(evt,'out')"/>
  <use id="reset" xlink:href="#resetDef" x="30" y="36" onmousedown="handleReset()"/>
   <use id="arrowup" xlink:href="#arrowUp" x="0" y="0" onmousedown="handlePan(0,-1)"/>
  <use id="arrowright" xlink:href="#arrowRight" x="0" y="0" onmousedown="handlePan(1,0)"/>
  <use id="arrowdown" xlink:href="#arrowDown" x="0" y="0" onmousedown="handlePan(0,1)"/>
  <use id="arrowleft" xlink:href="#arrowLeft" x="0" y="0" onmousedown="handlePan(-1,0)"/>
</g>
<svg viewBox="0 0 15 15" width="100%" height="30px" preserveAspectRatio="xMaxYMin meet">
 <g id="arrow_out" transform="scale(0.3 0.3)">
  <a xlink:href="a00228_org.svg" target="_base">
   <rect id="button" ry="5" rx="5" y="6" x="6" height="38" width="38"
        fill="#f2f5e9" fill-opacity="0.5" stroke="#606060" stroke-width="1.0"/>
   <path id="arrow"
     d="M 11.500037,31.436501 C 11.940474,20.09759 22.043105,11.32322 32.158766,21.979434 L 37.068811,17.246167 C 37.068811,17.246167 37.088388,32 37.088388,32 L 22.160133,31.978069 C 22.160133,31.978069 26.997745,27.140456 26.997745,27.140456 C 18.528582,18.264221 13.291696,25.230495 11.500037,31.436501 z"
     style="fill:#404040;"/>
  </a>
 </g>
</svg>

<style type='text/css'>
<![CDATA[
[data-mouse-over-selected='false'] { opacity: 0.7; }
[data-mouse-over-selected='true']  { opacity: 1.0; }
]]>
</style>
<script type="application/ecmascript"><![CDATA[
document.addEventListener('DOMContentLoaded', (event) => {
  highlightEdges();
  highlightAdjacentNodes();
});
]]></script>
</svg>
