<?xml version="1.0" encoding="UTF-8" standalone="no"?>
<!DOCTYPE svg PUBLIC "-//W3C//DTD SVG 1.1//EN"
 "http://www.w3.org/Graphics/SVG/1.1/DTD/svg11.dtd">
<!-- Generated by graphviz version 2.44.1 (20200629.0846)
 -->
<!-- Title: C:/Users/M70027/Documents/Projects/tp&#45;deployment/dspic33ch&#45;power&#45;totem&#45;pole&#45;demonstration&#45;application&#45;single&#45;phase_v2/dspic33ch_totem_pole_single_phase_primary_IL.X/sources/driver/dma/drv_dma.c Pages: 1 -->
<!--zoomable 291 -->

<svg id="main" version="1.1" xmlns="http://www.w3.org/2000/svg" xmlns:xlink="http://www.w3.org/1999/xlink" xml:space="preserve" onload="init(evt)">

<style type="text/css"><![CDATA[
.node, .edge {opacity: 0.7;}
.node.selected, .edge.selected {opacity: 1;}
.edge:hover path { stroke: red; }
.edge:hover polygon { stroke: red; fill: red; }
]]></style>

<defs>
  <circle id="rim" cx="0" cy="0" r="7"/>
  <circle id="rim2" cx="0" cy="0" r="3.5"/>
  <g id="zoomPlus">
    <use xlink:href="#rim" fill="#404040"><set attributeName="fill" to="#808080" begin="zoomplus.mouseover" end="zoomplus.mouseout"/></use>
    <path d="M-4,0h8M0,-4v8" fill="none" stroke="white" stroke-width="1.5" pointer-events="none"/>
  </g>
  <g id="zoomMin">
    <use xlink:href="#rim" fill="#404040"><set attributeName="fill" to="#808080" begin="zoomminus.mouseover" end="zoomminus.mouseout"/></use>
    <path d="M-4,0h8" fill="none" stroke="white" stroke-width="1.5" pointer-events="none"/>
  </g>
  <g id="arrowUp" transform="translate(30 24)">
    <use xlink:href="#rim"/>
    <path pointer-events="none" fill="none" stroke="white" stroke-width="1.5" d="M0,-3.0v7 M-2.5,-0.5L0,-3.0L2.5,-0.5"/>
  </g>
  <g id="arrowRight" transform="rotate(90) translate(36 -43)">
    <use xlink:href="#rim"/>
    <path pointer-events="none" fill="none" stroke="white" stroke-width="1.5" d="M0,-3.0v7 M-2.5,-0.5L0,-3.0L2.5,-0.5"/>
  </g>
  <g id="arrowDown" transform="rotate(180) translate(-30 -48)">
    <use xlink:href="#rim"/>
    <path pointer-events="none" fill="none" stroke="white" stroke-width="1.5" d="M0,-3.0v7 M-2.5,-0.5L0,-3.0L2.5,-0.5"/>
  </g>
  <g id="arrowLeft" transform="rotate(270) translate(-36 17)">
    <use xlink:href="#rim"/>
    <path pointer-events="none" fill="none" stroke="white" stroke-width="1.5" d="M0,-3.0v7 M-2.5,-0.5L0,-3.0L2.5,-0.5"/>
  </g>
  <g id="resetDef">
    <use xlink:href="#rim2" fill="#404040"><set attributeName="fill" to="#808080" begin="reset.mouseover" end="reset.mouseout"/></use>
  </g>
</defs>
<script type="application/ecmascript">
var viewWidth = 1343;
var viewHeight = 291;
var sectionId = 'dynsection-0';
</script>
<script type="application/ecmascript" xlink:href="svg.min.js"/>
<svg id="graph" class="graph">
<g id="viewport">
<title>C:/Users/M70027/Documents/Projects/tp&#45;deployment/dspic33ch&#45;power&#45;totem&#45;pole&#45;demonstration&#45;application&#45;single&#45;phase_v2/dspic33ch_totem_pole_single_phase_primary_IL.X/sources/driver/dma/drv_dma.c</title>
<!-- Node1 -->
<g id="Node000001" class="node">
<title>Node1</title>
<g id="a_Node000001"><a xlink:title="This is the driver source file for DMA driver.">
<polygon fill="#999999" stroke="#666666" points="612.5,-283 446.5,-283 446.5,-198 612.5,-198 612.5,-283"/>
<text text-anchor="start" x="454.5" y="-271" font-family="Helvetica,sans-Serif" font-size="10.00">C:/Users/M70027/Documents</text>
<text text-anchor="start" x="454.5" y="-260" font-family="Helvetica,sans-Serif" font-size="10.00">/Projects/tp&#45;deployment</text>
<text text-anchor="start" x="454.5" y="-249" font-family="Helvetica,sans-Serif" font-size="10.00">/dspic33ch&#45;power&#45;totem&#45;pole</text>
<text text-anchor="start" x="454.5" y="-238" font-family="Helvetica,sans-Serif" font-size="10.00">&#45;demonstration&#45;application</text>
<text text-anchor="start" x="454.5" y="-227" font-family="Helvetica,sans-Serif" font-size="10.00">&#45;single&#45;phase_v2/dspic33ch_totem</text>
<text text-anchor="start" x="454.5" y="-216" font-family="Helvetica,sans-Serif" font-size="10.00">_pole_single_phase_primary_IL.X</text>
<text text-anchor="middle" x="529.5" y="-205" font-family="Helvetica,sans-Serif" font-size="10.00">/sources/driver/dma/drv_dma.c</text>
</a>
</g>
</g>
<!-- Node2 -->
<g id="Node000002" class="node">
<title>Node2</title>
<g id="a_Node000002"><a xlink:title=" ">
<polygon fill="#e0e0e0" stroke="#999999" points="49,-156.5 0,-156.5 0,-137.5 49,-137.5 49,-156.5"/>
<text text-anchor="middle" x="24.5" y="-144.5" font-family="Helvetica,sans-Serif" font-size="10.00">string.h</text>
</a>
</g>
</g>
<!-- Node1&#45;&gt;Node2 -->
<g id="edge1_Node000001_Node000002" class="edge">
<title>Node1&#45;&gt;Node2</title>
<g id="a_edge1_Node000001_Node000002"><a xlink:title=" ">
<path fill="none" stroke="#63b8ff" d="M446.14,-231.58C351.02,-221.22 191.42,-199.77 58.5,-162 56.61,-161.46 54.69,-160.85 52.76,-160.2"/>
<polygon fill="#63b8ff" stroke="#63b8ff" points="53.88,-156.88 43.29,-156.63 51.41,-163.43 53.88,-156.88"/>
</a>
</g>
</g>
<!-- Node3 -->
<g id="Node000003" class="node">
<title>Node3</title>
<g id="a_Node000003"><a xlink:title=" ">
<polygon fill="#e0e0e0" stroke="#999999" points="145.5,-156.5 67.5,-156.5 67.5,-137.5 145.5,-137.5 145.5,-156.5"/>
<text text-anchor="middle" x="106.5" y="-144.5" font-family="Helvetica,sans-Serif" font-size="10.00">system/pins.h</text>
</a>
</g>
</g>
<!-- Node1&#45;&gt;Node3 -->
<g id="edge2_Node000001_Node000003" class="edge">
<title>Node1&#45;&gt;Node3</title>
<g id="a_edge2_Node000001_Node000003"><a xlink:title=" ">
<path fill="none" stroke="#63b8ff" d="M446.2,-223.33C371.03,-208.44 257.53,-185.2 159.5,-162 155.65,-161.09 151.65,-160.11 147.66,-159.1"/>
<polygon fill="#63b8ff" stroke="#63b8ff" points="148.38,-155.67 137.82,-156.56 146.63,-162.44 148.38,-155.67"/>
</a>
</g>
</g>
<!-- Node4 -->
<g id="Node000004" class="node">
<title>Node4</title>
<g id="a_Node000004"><a xlink:href="a00125_source.html" target="_top" xlink:title=" ">
<polygon fill="white" stroke="#666666" points="523.5,-90.5 419.5,-90.5 419.5,-60.5 523.5,-60.5 523.5,-90.5"/>
<text text-anchor="start" x="427.5" y="-78.5" font-family="Helvetica,sans-Serif" font-size="10.00">secondary_core/sec</text>
<text text-anchor="middle" x="471.5" y="-67.5" font-family="Helvetica,sans-Serif" font-size="10.00">_core_interface.h</text>
</a>
</g>
</g>
<!-- Node1&#45;&gt;Node4 -->
<g id="edge3_Node000001_Node000004" class="edge">
<title>Node1&#45;&gt;Node4</title>
<g id="a_edge3_Node000001_Node000004"><a xlink:title=" ">
<path fill="none" stroke="#63b8ff" d="M514.71,-197.95C503.68,-166.94 489,-125.69 479.91,-100.13"/>
<polygon fill="#63b8ff" stroke="#63b8ff" points="483.14,-98.77 476.49,-90.52 476.55,-101.12 483.14,-98.77"/>
</a>
</g>
</g>
<!-- Node9 -->
<g id="Node000009" class="node">
<title>Node9</title>
<g id="a_Node000009"><a xlink:href="a00254.html" target="_top" xlink:title="This is the driver source file for spi builds upon mcc.">
<polygon fill="white" stroke="#666666" points="959.5,-85 863.5,-85 863.5,-66 959.5,-66 959.5,-85"/>
<text text-anchor="middle" x="911.5" y="-73" font-family="Helvetica,sans-Serif" font-size="10.00">driver/spi/drv_spi.h</text>
</a>
</g>
</g>
<!-- Node1&#45;&gt;Node9 -->
<g id="edge8_Node000001_Node000009" class="edge">
<title>Node1&#45;&gt;Node9</title>
<g id="a_edge8_Node000001_Node000009"><a xlink:title=" ">
<path fill="none" stroke="#63b8ff" d="M612.86,-203.93C697.77,-167.7 824.82,-113.49 881.88,-89.14"/>
<polygon fill="#63b8ff" stroke="#63b8ff" points="883.56,-92.23 891.38,-85.08 880.81,-85.79 883.56,-92.23"/>
</a>
</g>
</g>
<!-- Node11 -->
<g id="Node000011" class="node">
<title>Node11</title>
<g id="a_Node000011"><a xlink:href="a00230.html" target="_top" xlink:title="header of the CAN Driver">
<polygon fill="white" stroke="#666666" points="1079.5,-85 977.5,-85 977.5,-66 1079.5,-66 1079.5,-85"/>
<text text-anchor="middle" x="1028.5" y="-73" font-family="Helvetica,sans-Serif" font-size="10.00">driver/can/drv_can.h</text>
</a>
</g>
</g>
<!-- Node1&#45;&gt;Node11 -->
<g id="edge11_Node000001_Node000011" class="edge">
<title>Node1&#45;&gt;Node11</title>
<g id="a_edge11_Node000001_Node000011"><a xlink:title=" ">
<path fill="none" stroke="#63b8ff" d="M612.74,-212.31C723.14,-176.25 913.23,-114.15 992.33,-88.31"/>
<polygon fill="#63b8ff" stroke="#63b8ff" points="993.88,-91.49 1002.3,-85.06 991.71,-84.84 993.88,-91.49"/>
</a>
</g>
</g>
<!-- Node12 -->
<g id="Node000012" class="node">
<title>Node12</title>
<g id="a_Node000012"><a xlink:href="a00260.html" target="_top" xlink:title="header of the VAC">
<polygon fill="white" stroke="#666666" points="1124.5,-162 1030.5,-162 1030.5,-132 1124.5,-132 1124.5,-162"/>
<text text-anchor="start" x="1038.5" y="-150" font-family="Helvetica,sans-Serif" font-size="10.00">driver/vac_monitor</text>
<text text-anchor="middle" x="1077.5" y="-139" font-family="Helvetica,sans-Serif" font-size="10.00">/vac_monitor.h</text>
</a>
</g>
</g>
<!-- Node1&#45;&gt;Node12 -->
<g id="edge13_Node000001_Node000012" class="edge">
<title>Node1&#45;&gt;Node12</title>
<g id="a_edge13_Node000001_Node000012"><a xlink:title=" ">
<path fill="none" stroke="#63b8ff" d="M612.73,-225.6C725.37,-206.8 923.39,-173.73 1020.52,-157.51"/>
<polygon fill="#63b8ff" stroke="#63b8ff" points="1021.16,-160.96 1030.44,-155.86 1020,-154.05 1021.16,-160.96"/>
</a>
</g>
</g>
<!-- Node17 -->
<g id="Node000017" class="node">
<title>Node17</title>
<g id="a_Node000017"><a xlink:href="a00107.html" target="_top" xlink:title="This is the generated driver header file for the DMA driver.">
<polygon fill="white" stroke="#666666" points="407,-156.5 342,-156.5 342,-137.5 407,-137.5 407,-156.5"/>
<text text-anchor="middle" x="374.5" y="-144.5" font-family="Helvetica,sans-Serif" font-size="10.00">dma/dma.h</text>
</a>
</g>
</g>
<!-- Node1&#45;&gt;Node17 -->
<g id="edge22_Node000001_Node000017" class="edge">
<title>Node1&#45;&gt;Node17</title>
<g id="a_edge22_Node000001_Node000017"><a xlink:title=" ">
<path fill="none" stroke="#63b8ff" d="M458.8,-197.77C436.91,-184.84 414.29,-171.49 398,-161.87"/>
<polygon fill="#63b8ff" stroke="#63b8ff" points="399.58,-158.74 389.19,-156.67 396.02,-164.77 399.58,-158.74"/>
</a>
</g>
</g>
<!-- Node18 -->
<g id="Node000018" class="node">
<title>Node18</title>
<g id="a_Node000018"><a xlink:href="a00113.html" target="_top" xlink:title="This is the generated driver types header file for the DMA driver.">
<polygon fill="white" stroke="#666666" points="248,-19 175,-19 175,0 248,0 248,-19"/>
<text text-anchor="middle" x="211.5" y="-7" font-family="Helvetica,sans-Serif" font-size="10.00">dma_types.h</text>
</a>
</g>
</g>
<!-- Node1&#45;&gt;Node18 -->
<g id="edge31_Node000001_Node000018" class="edge">
<title>Node1&#45;&gt;Node18</title>
<g id="a_edge31_Node000001_Node000018"><a xlink:title=" ">
<path fill="none" stroke="#63b8ff" d="M446.3,-224.7C374.72,-207.2 275.36,-170.43 225.5,-96 212.19,-76.13 210.01,-47.96 210.27,-29.47"/>
<polygon fill="#63b8ff" stroke="#63b8ff" points="213.78,-29.49 210.67,-19.36 206.78,-29.21 213.78,-29.49"/>
</a>
</g>
</g>
<!-- Node20 -->
<g id="Node000020" class="node">
<title>Node20</title>
<g id="a_Node000020"><a xlink:href="a00122.html" target="_top" xlink:title="This is the generated driver header file for the SEC_CORE1 driver.">
<polygon fill="white" stroke="#666666" points="631.5,-162 527.5,-162 527.5,-132 631.5,-132 631.5,-162"/>
<text text-anchor="start" x="535.5" y="-150" font-family="Helvetica,sans-Serif" font-size="10.00">secondary_core/sec</text>
<text text-anchor="middle" x="579.5" y="-139" font-family="Helvetica,sans-Serif" font-size="10.00">_core1.h</text>
</a>
</g>
</g>
<!-- Node1&#45;&gt;Node20 -->
<g id="edge32_Node000001_Node000020" class="edge">
<title>Node1&#45;&gt;Node20</title>
<g id="a_edge32_Node000001_Node000020"><a xlink:title=" ">
<path fill="none" stroke="#63b8ff" d="M552.31,-197.77C557.34,-188.55 562.5,-179.12 566.94,-170.98"/>
<polygon fill="#63b8ff" stroke="#63b8ff" points="570.07,-172.56 571.79,-162.1 563.93,-169.2 570.07,-172.56"/>
</a>
</g>
</g>
<!-- Node21 -->
<g id="Node000021" class="node">
<title>Node21</title>
<g id="a_Node000021"><a xlink:title=" ">
<polygon fill="#e0e0e0" stroke="#999999" points="1258,-162 1143,-162 1143,-132 1258,-132 1258,-162"/>
<text text-anchor="start" x="1151" y="-150" font-family="Helvetica,sans-Serif" font-size="10.00">../mcc_generated_files</text>
<text text-anchor="middle" x="1200.5" y="-139" font-family="Helvetica,sans-Serif" font-size="10.00">/cmp/cmp1.h</text>
</a>
</g>
</g>
<!-- Node1&#45;&gt;Node21 -->
<g id="edge38_Node000001_Node000021" class="edge">
<title>Node1&#45;&gt;Node21</title>
<g id="a_edge38_Node000001_Node000021"><a xlink:title=" ">
<path fill="none" stroke="#63b8ff" d="M612.85,-230.9C727.65,-218.58 941,-194.01 1132.83,-162.03"/>
<polygon fill="#63b8ff" stroke="#63b8ff" points="1133.53,-165.46 1142.81,-160.35 1132.37,-158.56 1133.53,-165.46"/>
</a>
</g>
</g>
<!-- Node5 -->
<g id="Node000005" class="node">
<title>Node5</title>
<g id="a_Node000005"><a xlink:title=" ">
<polygon fill="#e0e0e0" stroke="#999999" points="477,-19 426,-19 426,0 477,0 477,-19"/>
<text text-anchor="middle" x="451.5" y="-7" font-family="Helvetica,sans-Serif" font-size="10.00">stddef.h</text>
</a>
</g>
</g>
<!-- Node4&#45;&gt;Node5 -->
<g id="edge4_Node000004_Node000005" class="edge">
<title>Node4&#45;&gt;Node5</title>
<g id="a_edge4_Node000004_Node000005"><a xlink:title=" ">
<path fill="none" stroke="#63b8ff" d="M467.06,-60.3C464.19,-51.1 460.42,-39.03 457.31,-29.08"/>
<polygon fill="#63b8ff" stroke="#63b8ff" points="460.59,-27.85 454.26,-19.34 453.91,-29.93 460.59,-27.85"/>
</a>
</g>
</g>
<!-- Node6 -->
<g id="Node000006" class="node">
<title>Node6</title>
<g id="a_Node000006"><a xlink:title=" ">
<polygon fill="#e0e0e0" stroke="#999999" points="408,-19 359,-19 359,0 408,0 408,-19"/>
<text text-anchor="middle" x="383.5" y="-7" font-family="Helvetica,sans-Serif" font-size="10.00">stdint.h</text>
</a>
</g>
</g>
<!-- Node4&#45;&gt;Node6 -->
<g id="edge5_Node000004_Node000006" class="edge">
<title>Node4&#45;&gt;Node6</title>
<g id="a_edge5_Node000004_Node000006"><a xlink:title=" ">
<path fill="none" stroke="#63b8ff" d="M451.97,-60.3C437.63,-49.87 418.2,-35.74 403.71,-25.19"/>
<polygon fill="#63b8ff" stroke="#63b8ff" points="405.55,-22.21 395.41,-19.16 401.43,-27.87 405.55,-22.21"/>
</a>
</g>
</g>
<!-- Node7 -->
<g id="Node000007" class="node">
<title>Node7</title>
<g id="a_Node000007"><a xlink:title=" ">
<polygon fill="#e0e0e0" stroke="#999999" points="663.5,-19 607.5,-19 607.5,0 663.5,0 663.5,-19"/>
<text text-anchor="middle" x="635.5" y="-7" font-family="Helvetica,sans-Serif" font-size="10.00">stdbool.h</text>
</a>
</g>
</g>
<!-- Node4&#45;&gt;Node7 -->
<g id="edge6_Node000004_Node000007" class="edge">
<title>Node4&#45;&gt;Node7</title>
<g id="a_edge6_Node000004_Node000007"><a xlink:title=" ">
<path fill="none" stroke="#63b8ff" d="M507.49,-60.45C536.38,-49.18 576.53,-33.51 604.12,-22.75"/>
<polygon fill="#63b8ff" stroke="#63b8ff" points="605.63,-25.91 613.67,-19.02 603.09,-19.39 605.63,-25.91"/>
</a>
</g>
</g>
<!-- Node8 -->
<g id="Node000008" class="node">
<title>Node8</title>
<g id="a_Node000008"><a xlink:href="a00128.html" target="_top" xlink:title="This is the generated driver types header file for the SEC_CORE driver.">
<polygon fill="white" stroke="#666666" points="589.5,-19 495.5,-19 495.5,0 589.5,0 589.5,-19"/>
<text text-anchor="middle" x="542.5" y="-7" font-family="Helvetica,sans-Serif" font-size="10.00">sec_core_types.h</text>
</a>
</g>
</g>
<!-- Node4&#45;&gt;Node8 -->
<g id="edge7_Node000004_Node000008" class="edge">
<title>Node4&#45;&gt;Node8</title>
<g id="a_edge7_Node000004_Node000008"><a xlink:title=" ">
<path fill="none" stroke="#63b8ff" d="M487.26,-60.3C498.43,-50.22 513.44,-36.69 524.99,-26.28"/>
<polygon fill="#63b8ff" stroke="#63b8ff" points="527.6,-28.64 532.69,-19.34 522.92,-23.44 527.6,-28.64"/>
</a>
</g>
</g>
<!-- Node9&#45;&gt;Node7 -->
<g id="edge10_Node000009_Node000007" class="edge">
<title>Node9&#45;&gt;Node7</title>
<g id="a_edge10_Node000009_Node000007"><a xlink:title=" ">
<path fill="none" stroke="#63b8ff" d="M874.56,-65.94C822.23,-53.8 726.99,-31.71 673.88,-19.4"/>
<polygon fill="#63b8ff" stroke="#63b8ff" points="674.38,-15.92 663.85,-17.07 672.8,-22.74 674.38,-15.92"/>
</a>
</g>
</g>
<!-- Node10 -->
<g id="Node000010" class="node">
<title>Node10</title>
<g id="a_Node000010"><a xlink:title=" ">
<polygon fill="#e0e0e0" stroke="#999999" points="891,-19 856,-19 856,0 891,0 891,-19"/>
<text text-anchor="middle" x="873.5" y="-7" font-family="Helvetica,sans-Serif" font-size="10.00">xc.h</text>
</a>
</g>
</g>
<!-- Node9&#45;&gt;Node10 -->
<g id="edge9_Node000009_Node000010" class="edge">
<title>Node9&#45;&gt;Node10</title>
<g id="a_edge9_Node000009_Node000010"><a xlink:title=" ">
<path fill="none" stroke="#63b8ff" d="M906.38,-65.87C900.68,-56.28 891.34,-40.55 884.07,-28.3"/>
<polygon fill="#63b8ff" stroke="#63b8ff" points="886.9,-26.22 878.79,-19.41 880.88,-29.79 886.9,-26.22"/>
</a>
</g>
</g>
<!-- Node11&#45;&gt;Node10 -->
<g id="edge12_Node000011_Node000010" class="edge">
<title>Node11&#45;&gt;Node10</title>
<g id="a_edge12_Node000011_Node000010"><a xlink:title=" ">
<path fill="none" stroke="#63b8ff" d="M1007.6,-65.87C979.98,-54.47 931.28,-34.36 900.79,-21.77"/>
<polygon fill="#63b8ff" stroke="#63b8ff" points="901.78,-18.39 891.2,-17.81 899.11,-24.86 901.78,-18.39"/>
</a>
</g>
</g>
<!-- Node12&#45;&gt;Node10 -->
<g id="edge14_Node000012_Node000010" class="edge">
<title>Node12&#45;&gt;Node10</title>
<g id="a_edge14_Node000012_Node000010"><a xlink:title=" ">
<path fill="none" stroke="#63b8ff" d="M1124.73,-134.19C1128.03,-133.43 1131.31,-132.69 1134.5,-132 1176.93,-122.82 1298.78,-129.4 1326.5,-96 1338.14,-81.98 1338.74,-68.5 1326.5,-55 1297.85,-23.39 995.19,-13.44 901.19,-11.11"/>
<polygon fill="#63b8ff" stroke="#63b8ff" points="901.12,-7.6 891.04,-10.86 900.95,-14.6 901.12,-7.6"/>
</a>
</g>
</g>
<!-- Node13 -->
<g id="Node000013" class="node">
<title>Node13</title>
<g id="a_Node000013"><a xlink:href="a00263.html" target="_top" xlink:title="VAC Types define.">
<polygon fill="white" stroke="#666666" points="769,-85 656,-85 656,-66 769,-66 769,-85"/>
<text text-anchor="middle" x="712.5" y="-73" font-family="Helvetica,sans-Serif" font-size="10.00">vac_monitor_typedef.h</text>
</a>
</g>
</g>
<!-- Node12&#45;&gt;Node13 -->
<g id="edge15_Node000012_Node000013" class="edge">
<title>Node12&#45;&gt;Node13</title>
<g id="a_edge15_Node000012_Node000013"><a xlink:title=" ">
<path fill="none" stroke="#63b8ff" d="M1030.16,-136.99C962.59,-124.12 838.8,-100.55 767.34,-86.94"/>
<polygon fill="#63b8ff" stroke="#63b8ff" points="767.66,-83.44 757.19,-85.01 766.35,-90.32 767.66,-83.44"/>
</a>
</g>
</g>
<!-- Node15 -->
<g id="Node000015" class="node">
<title>Node15</title>
<g id="a_Node000015"><a xlink:href="a00895_source.html" target="_top" xlink:title=" ">
<polygon fill="white" stroke="#666666" points="1181.5,-85 1097.5,-85 1097.5,-66 1181.5,-66 1181.5,-85"/>
<text text-anchor="middle" x="1139.5" y="-73" font-family="Helvetica,sans-Serif" font-size="10.00">../../../revision.h</text>
</a>
</g>
</g>
<!-- Node12&#45;&gt;Node15 -->
<g id="edge20_Node000012_Node000015" class="edge">
<title>Node12&#45;&gt;Node15</title>
<g id="a_edge20_Node000012_Node000015"><a xlink:title=" ">
<path fill="none" stroke="#63b8ff" d="M1090.05,-131.94C1100.17,-120.59 1114.41,-104.62 1125.02,-92.74"/>
<polygon fill="#63b8ff" stroke="#63b8ff" points="1127.63,-95.06 1131.68,-85.27 1122.41,-90.4 1127.63,-95.06"/>
</a>
</g>
</g>
<!-- Node16 -->
<g id="Node000016" class="node">
<title>Node16</title>
<g id="a_Node000016"><a xlink:title=" ">
<polygon fill="#e0e0e0" stroke="#999999" points="1317.5,-96 1199.5,-96 1199.5,-55 1317.5,-55 1317.5,-96"/>
<text text-anchor="start" x="1207.5" y="-84" font-family="Helvetica,sans-Serif" font-size="10.00">../sources_common</text>
<text text-anchor="start" x="1207.5" y="-73" font-family="Helvetica,sans-Serif" font-size="10.00">/Totempole_Application</text>
<text text-anchor="middle" x="1258.5" y="-62" font-family="Helvetica,sans-Serif" font-size="10.00">_Setup.h</text>
</a>
</g>
</g>
<!-- Node12&#45;&gt;Node16 -->
<g id="edge21_Node000012_Node000016" class="edge">
<title>Node12&#45;&gt;Node16</title>
<g id="a_edge21_Node000012_Node000016"><a xlink:title=" ">
<path fill="none" stroke="#63b8ff" d="M1114.13,-131.94C1138.15,-122.71 1170.14,-110.43 1197.9,-99.77"/>
<polygon fill="#63b8ff" stroke="#63b8ff" points="1199.44,-102.93 1207.52,-96.07 1196.93,-96.39 1199.44,-102.93"/>
</a>
</g>
</g>
<!-- Node13&#45;&gt;Node6 -->
<g id="edge17_Node000013_Node000006" class="edge">
<title>Node13&#45;&gt;Node6</title>
<g id="a_edge17_Node000013_Node000006"><a xlink:title=" ">
<path fill="none" stroke="#63b8ff" d="M661.22,-65.96C604.11,-56.2 508.85,-39.22 418.21,-19.28"/>
<polygon fill="#63b8ff" stroke="#63b8ff" points="418.84,-15.83 408.32,-17.08 417.33,-22.66 418.84,-15.83"/>
</a>
</g>
</g>
<!-- Node13&#45;&gt;Node7 -->
<g id="edge18_Node000013_Node000007" class="edge">
<title>Node13&#45;&gt;Node7</title>
<g id="a_edge18_Node000013_Node000007"><a xlink:title=" ">
<path fill="none" stroke="#63b8ff" d="M702.12,-65.87C689.78,-55.62 668.99,-38.34 653.91,-25.81"/>
<polygon fill="#63b8ff" stroke="#63b8ff" points="656.14,-23.11 646.21,-19.41 651.67,-28.49 656.14,-23.11"/>
</a>
</g>
</g>
<!-- Node13&#45;&gt;Node10 -->
<g id="edge16_Node000013_Node000010" class="edge">
<title>Node13&#45;&gt;Node10</title>
<g id="a_edge16_Node000013_Node000010"><a xlink:title=" ">
<path fill="none" stroke="#63b8ff" d="M734.21,-65.87C763.18,-54.35 814.47,-33.96 846.08,-21.4"/>
<polygon fill="#63b8ff" stroke="#63b8ff" points="847.59,-24.56 855.59,-17.62 845.01,-18.06 847.59,-24.56"/>
</a>
</g>
</g>
<!-- Node14 -->
<g id="Node000014" class="node">
<title>Node14</title>
<g id="a_Node000014"><a xlink:title=" ">
<polygon fill="#e0e0e0" stroke="#999999" points="733,-19 692,-19 692,0 733,0 733,-19"/>
<text text-anchor="middle" x="712.5" y="-7" font-family="Helvetica,sans-Serif" font-size="10.00">dsp.h</text>
</a>
</g>
</g>
<!-- Node13&#45;&gt;Node14 -->
<g id="edge19_Node000013_Node000014" class="edge">
<title>Node13&#45;&gt;Node14</title>
<g id="a_edge19_Node000013_Node000014"><a xlink:title=" ">
<path fill="none" stroke="#63b8ff" d="M712.5,-65.87C712.5,-56.66 712.5,-41.79 712.5,-29.77"/>
<polygon fill="#63b8ff" stroke="#63b8ff" points="716,-29.41 712.5,-19.41 709,-29.41 716,-29.41"/>
</a>
</g>
</g>
<!-- Node17&#45;&gt;Node6 -->
<g id="edge25_Node000017_Node000006" class="edge">
<title>Node17&#45;&gt;Node6</title>
<g id="a_edge25_Node000017_Node000006"><a xlink:title=" ">
<path fill="none" stroke="#63b8ff" d="M341.92,-140.26C317.09,-134 284.52,-121.26 268.5,-96 258.74,-80.61 258.2,-70.03 268.5,-55 286.34,-28.97 321.77,-18.16 348.62,-13.67"/>
<polygon fill="#63b8ff" stroke="#63b8ff" points="349.4,-17.1 358.79,-12.2 348.4,-10.17 349.4,-17.1"/>
</a>
</g>
</g>
<!-- Node17&#45;&gt;Node7 -->
<g id="edge24_Node000017_Node000007" class="edge">
<title>Node17&#45;&gt;Node7</title>
<g id="a_edge24_Node000017_Node000007"><a xlink:title=" ">
<path fill="none" stroke="#63b8ff" d="M407.14,-139.55C440.15,-132.16 491.97,-118.12 532.5,-96 567.31,-77 601.47,-45.35 620.39,-26.35"/>
<polygon fill="#63b8ff" stroke="#63b8ff" points="623.03,-28.65 627.52,-19.05 618.02,-23.76 623.03,-28.65"/>
</a>
</g>
</g>
<!-- Node17&#45;&gt;Node10 -->
<g id="edge23_Node000017_Node000010" class="edge">
<title>Node17&#45;&gt;Node10</title>
<g id="a_edge23_Node000017_Node000010"><a xlink:title=" ">
<path fill="none" stroke="#63b8ff" d="M407.04,-142.65C500.2,-132.96 762.27,-105.04 778.5,-96 798.94,-84.62 794.51,-71.08 811.5,-55 823.46,-43.68 838.43,-32.86 850.66,-24.72"/>
<polygon fill="#63b8ff" stroke="#63b8ff" points="852.9,-27.44 859.38,-19.06 849.09,-21.57 852.9,-27.44"/>
</a>
</g>
</g>
<!-- Node17&#45;&gt;Node18 -->
<g id="edge26_Node000017_Node000018" class="edge">
<title>Node17&#45;&gt;Node18</title>
<g id="a_edge26_Node000017_Node000018"><a xlink:title=" ">
<path fill="none" stroke="#63b8ff" d="M341.97,-138.44C316.49,-131.14 281.47,-117.91 257.5,-96 237.23,-77.47 224.13,-47.89 217.28,-28.84"/>
<polygon fill="#63b8ff" stroke="#63b8ff" points="220.55,-27.59 214.04,-19.23 213.92,-29.83 220.55,-27.59"/>
</a>
</g>
</g>
<!-- Node19 -->
<g id="Node000019" class="node">
<title>Node19</title>
<g id="a_Node000019"><a xlink:href="a00110_source.html" target="_top" xlink:title=" ">
<polygon fill="white" stroke="#666666" points="363.5,-85 277.5,-85 277.5,-66 363.5,-66 363.5,-85"/>
<text text-anchor="middle" x="320.5" y="-73" font-family="Helvetica,sans-Serif" font-size="10.00">dma_interface.h</text>
</a>
</g>
</g>
<!-- Node17&#45;&gt;Node19 -->
<g id="edge27_Node000017_Node000019" class="edge">
<title>Node17&#45;&gt;Node19</title>
<g id="a_edge27_Node000017_Node000019"><a xlink:title=" ">
<path fill="none" stroke="#63b8ff" d="M367.88,-137.48C359.38,-126.54 344.43,-107.3 333.59,-93.35"/>
<polygon fill="#63b8ff" stroke="#63b8ff" points="336.07,-90.84 327.18,-85.09 330.55,-95.14 336.07,-90.84"/>
</a>
</g>
</g>
<!-- Node19&#45;&gt;Node6 -->
<g id="edge28_Node000019_Node000006" class="edge">
<title>Node19&#45;&gt;Node6</title>
<g id="a_edge28_Node000019_Node000006"><a xlink:title=" ">
<path fill="none" stroke="#63b8ff" d="M329,-65.87C338.8,-55.9 355.16,-39.29 367.39,-26.86"/>
<polygon fill="#63b8ff" stroke="#63b8ff" points="370.21,-28.99 374.73,-19.41 365.22,-24.08 370.21,-28.99"/>
</a>
</g>
</g>
<!-- Node19&#45;&gt;Node7 -->
<g id="edge29_Node000019_Node000007" class="edge">
<title>Node19&#45;&gt;Node7</title>
<g id="a_edge29_Node000019_Node000007"><a xlink:title=" ">
<path fill="none" stroke="#63b8ff" d="M359,-65.94C374.92,-62.46 393.58,-58.45 410.5,-55 490.76,-38.62 513.58,-36.66 597.29,-19.19"/>
<polygon fill="#63b8ff" stroke="#63b8ff" points="598.17,-22.58 607.24,-17.1 596.74,-15.73 598.17,-22.58"/>
</a>
</g>
</g>
<!-- Node19&#45;&gt;Node18 -->
<g id="edge30_Node000019_Node000018" class="edge">
<title>Node19&#45;&gt;Node18</title>
<g id="a_edge30_Node000019_Node000018"><a xlink:title=" ">
<path fill="none" stroke="#63b8ff" d="M305.8,-65.87C287.68,-55.23 256.65,-37.01 235.16,-24.39"/>
<polygon fill="#63b8ff" stroke="#63b8ff" points="236.71,-21.24 226.32,-19.2 233.17,-27.28 236.71,-21.24"/>
</a>
</g>
</g>
<!-- Node20&#45;&gt;Node4 -->
<g id="edge37_Node000020_Node000004" class="edge">
<title>Node20&#45;&gt;Node4</title>
<g id="a_edge37_Node000020_Node000004"><a xlink:title=" ">
<path fill="none" stroke="#63b8ff" d="M557.64,-131.94C541.69,-121.67 519.85,-107.61 502.15,-96.22"/>
<polygon fill="#63b8ff" stroke="#63b8ff" points="503.63,-93.01 493.32,-90.54 499.84,-98.9 503.63,-93.01"/>
</a>
</g>
</g>
<!-- Node20&#45;&gt;Node6 -->
<g id="edge34_Node000020_Node000006" class="edge">
<title>Node20&#45;&gt;Node6</title>
<g id="a_edge34_Node000020_Node000006"><a xlink:title=" ">
<path fill="none" stroke="#63b8ff" d="M527.25,-143.2C490.11,-138.5 441.5,-126.44 410.5,-96 392.39,-78.22 386.4,-48.42 384.43,-29.11"/>
<polygon fill="#63b8ff" stroke="#63b8ff" points="387.92,-28.84 383.68,-19.13 380.94,-29.36 387.92,-28.84"/>
</a>
</g>
</g>
<!-- Node20&#45;&gt;Node7 -->
<g id="edge35_Node000020_Node000007" class="edge">
<title>Node20&#45;&gt;Node7</title>
<g id="a_edge35_Node000020_Node000007"><a xlink:title=" ">
<path fill="none" stroke="#63b8ff" d="M585.39,-131.76C595.65,-106.92 616.8,-55.76 628.06,-28.5"/>
<polygon fill="#63b8ff" stroke="#63b8ff" points="631.39,-29.61 631.97,-19.03 624.92,-26.94 631.39,-29.61"/>
</a>
</g>
</g>
<!-- Node20&#45;&gt;Node8 -->
<g id="edge36_Node000020_Node000008" class="edge">
<title>Node20&#45;&gt;Node8</title>
<g id="a_edge36_Node000020_Node000008"><a xlink:title=" ">
<path fill="none" stroke="#63b8ff" d="M575.61,-131.76C568.86,-107.03 554.98,-56.21 547.52,-28.87"/>
<polygon fill="#63b8ff" stroke="#63b8ff" points="550.84,-27.76 544.83,-19.03 544.09,-29.6 550.84,-27.76"/>
</a>
</g>
</g>
<!-- Node20&#45;&gt;Node10 -->
<g id="edge33_Node000020_Node000010" class="edge">
<title>Node20&#45;&gt;Node10</title>
<g id="a_edge33_Node000020_Node000010"><a xlink:title=" ">
<path fill="none" stroke="#63b8ff" d="M631.97,-145.23C681.85,-142.2 757.14,-131.45 811.5,-96 837.13,-79.28 855.7,-48.02 865.51,-28.29"/>
<polygon fill="#63b8ff" stroke="#63b8ff" points="868.72,-29.69 869.84,-19.15 862.4,-26.69 868.72,-29.69"/>
</a>
</g>
</g>
</g>
</svg>

<g id="navigator" transform="translate(0 0)" fill="#404254">
  <rect fill="#f2f5e9" fill-opacity="0.5" stroke="#606060" stroke-width=".5" x="0" y="0" width="60" height="60"/>
  <use id="zoomplus" xlink:href="#zoomPlus" x="17" y="9" onmousedown="handleZoom(evt,'in')"/>
  <use id="zoomminus" xlink:href="#zoomMin" x="42" y="9" onmousedown="handleZoom(evt,'out')"/>
  <use id="reset" xlink:href="#resetDef" x="30" y="36" onmousedown="handleReset()"/>
   <use id="arrowup" xlink:href="#arrowUp" x="0" y="0" onmousedown="handlePan(0,-1)"/>
  <use id="arrowright" xlink:href="#arrowRight" x="0" y="0" onmousedown="handlePan(1,0)"/>
  <use id="arrowdown" xlink:href="#arrowDown" x="0" y="0" onmousedown="handlePan(0,1)"/>
  <use id="arrowleft" xlink:href="#arrowLeft" x="0" y="0" onmousedown="handlePan(-1,0)"/>
</g>
<svg viewBox="0 0 15 15" width="100%" height="30px" preserveAspectRatio="xMaxYMin meet">
 <g id="arrow_out" transform="scale(0.3 0.3)">
  <a xlink:href="a00234_org.svg" target="_base">
   <rect id="button" ry="5" rx="5" y="6" x="6" height="38" width="38"
        fill="#f2f5e9" fill-opacity="0.5" stroke="#606060" stroke-width="1.0"/>
   <path id="arrow"
     d="M 11.500037,31.436501 C 11.940474,20.09759 22.043105,11.32322 32.158766,21.979434 L 37.068811,17.246167 C 37.068811,17.246167 37.088388,32 37.088388,32 L 22.160133,31.978069 C 22.160133,31.978069 26.997745,27.140456 26.997745,27.140456 C 18.528582,18.264221 13.291696,25.230495 11.500037,31.436501 z"
     style="fill:#404040;"/>
  </a>
 </g>
</svg>

<style type='text/css'>
<![CDATA[
[data-mouse-over-selected='false'] { opacity: 0.7; }
[data-mouse-over-selected='true']  { opacity: 1.0; }
]]>
</style>
<script type="application/ecmascript"><![CDATA[
document.addEventListener('DOMContentLoaded', (event) => {
  highlightEdges();
  highlightAdjacentNodes();
});
]]></script>
</svg>
