<?xml version="1.0" encoding="UTF-8" standalone="no"?>
<!DOCTYPE svg PUBLIC "-//W3C//DTD SVG 1.1//EN"
 "http://www.w3.org/Graphics/SVG/1.1/DTD/svg11.dtd">
<!-- Generated by graphviz version 8.1.0 (20230707.0739)
 -->
<!-- Title: vacm_reset_phase_monitor_object Pages: 1 -->
<svg width="810pt" height="247pt"
 viewBox="0.00 0.00 809.50 247.11" xmlns="http://www.w3.org/2000/svg" xmlns:xlink="http://www.w3.org/1999/xlink">
<g id="graph0" class="graph" transform="scale(1 1) rotate(0) translate(4 243.11)">
<title>vacm_reset_phase_monitor_object</title>
<!-- Node1 -->
<g id="Node000001" class="node">
<title>Node1</title>
<g id="a_Node000001"><a xlink:title=" ">
<polygon fill="#999999" stroke="#666666" points="801.5,-140 667,-140 667,-108 801.5,-108 801.5,-140"/>
<text text-anchor="start" x="675" y="-126.5" font-family="Helvetica,sans-Serif" font-size="10.00">vacm_reset_phase_monitor</text>
<text text-anchor="middle" x="734.25" y="-114.5" font-family="Helvetica,sans-Serif" font-size="10.00">_object</text>
</a>
</g>
</g>
<!-- Node2 -->
<g id="Node000002" class="node">
<title>Node2</title>
<g id="a_Node000002"><a xlink:href="a00233.html#a786371bac3733bb2c0aaca7e0903b1ad" target="_top" xlink:title=" ">
<polygon fill="white" stroke="#666666" points="475.5,-238 326,-238 326,-218 475.5,-218 475.5,-238"/>
<text text-anchor="middle" x="400.75" y="-224.5" font-family="Helvetica,sans-Serif" font-size="10.00">DMA_Channel_resetAcMonitor</text>
</a>
</g>
</g>
<!-- Node1&#45;&gt;Node2 -->
<g id="edge1_Node000001_Node000002" class="edge">
<title>Node1&#45;&gt;Node2</title>
<g id="a_edge1_Node000001_Node000002"><a xlink:title=" ">
<path fill="none" stroke="#63b8ff" d="M715.01,-149.02C696.68,-171.92 666.16,-204.38 631,-219 582.08,-239.33 522.12,-240.97 475.78,-237.85"/>
<polygon fill="#63b8ff" stroke="#63b8ff" points="718.28,-151.52 721.65,-141.47 712.75,-147.22 718.28,-151.52"/>
</a>
</g>
</g>
<!-- Node4 -->
<g id="Node000004" class="node">
<title>Node4</title>
<g id="a_Node000004"><a xlink:href="a00257.html#a88354179c83ed3f823aaaab8b54def04" target="_top" xlink:title=" ">
<polygon fill="white" stroke="#666666" points="623.88,-210 518.62,-210 518.62,-190 623.88,-190 623.88,-210"/>
<text text-anchor="middle" x="571.25" y="-196.5" font-family="Helvetica,sans-Serif" font-size="10.00">vacm_state_ac_drop</text>
</a>
</g>
</g>
<!-- Node1&#45;&gt;Node4 -->
<g id="edge3_Node000001_Node000004" class="edge">
<title>Node1&#45;&gt;Node4</title>
<g id="a_edge3_Node000001_Node000004"><a xlink:title=" ">
<path fill="none" stroke="#63b8ff" d="M697.78,-146.04C678.49,-157.43 653.95,-171 631,-181 623.83,-184.12 615.97,-187.01 608.39,-189.54"/>
<polygon fill="#63b8ff" stroke="#63b8ff" points="699.29,-148.61 706.07,-140.48 695.69,-142.61 699.29,-148.61"/>
</a>
</g>
</g>
<!-- Node7 -->
<g id="Node000007" class="node">
<title>Node7</title>
<g id="a_Node000007"><a xlink:href="a00257.html#a6620ac4371af55881bc354c83de9b1a9" target="_top" xlink:title=" ">
<polygon fill="white" stroke="#666666" points="625,-172 517.5,-172 517.5,-152 625,-152 625,-172"/>
<text text-anchor="middle" x="571.25" y="-158.5" font-family="Helvetica,sans-Serif" font-size="10.00">vacm_state_ac_sync</text>
</a>
</g>
</g>
<!-- Node1&#45;&gt;Node7 -->
<g id="edge7_Node000001_Node000007" class="edge">
<title>Node1&#45;&gt;Node7</title>
<g id="a_edge7_Node000001_Node000007"><a xlink:title=" ">
<path fill="none" stroke="#63b8ff" d="M656.41,-142.14C642.7,-145.37 628.86,-148.64 616.46,-151.56"/>
<polygon fill="#63b8ff" stroke="#63b8ff" points="656.91,-145.38 665.84,-139.68 655.3,-138.57 656.91,-145.38"/>
</a>
</g>
</g>
<!-- Node8 -->
<g id="Node000008" class="node">
<title>Node8</title>
<g id="a_Node000008"><a xlink:href="a00257.html#a438efdbe3c5bfcf7b66052f6e3f99fc1" target="_top" xlink:title=" ">
<polygon fill="white" stroke="#666666" points="628,-134 514.5,-134 514.5,-114 628,-114 628,-134"/>
<text text-anchor="middle" x="571.25" y="-120.5" font-family="Helvetica,sans-Serif" font-size="10.00">vacm_state_dc_detect</text>
</a>
</g>
</g>
<!-- Node1&#45;&gt;Node8 -->
<g id="edge9_Node000001_Node000008" class="edge">
<title>Node1&#45;&gt;Node8</title>
<g id="a_edge9_Node000001_Node000008"><a xlink:title=" ">
<path fill="none" stroke="#63b8ff" d="M655.93,-124C646.6,-124 637.2,-124 628.26,-124"/>
<polygon fill="#63b8ff" stroke="#63b8ff" points="655.84,-127.5 665.84,-124 655.84,-120.5 655.84,-127.5"/>
</a>
</g>
</g>
<!-- Node9 -->
<g id="Node000009" class="node">
<title>Node9</title>
<g id="a_Node000009"><a xlink:href="a00257.html#a7b65d2b2f06bd653e747d28a897e964b" target="_top" xlink:title=" ">
<polygon fill="white" stroke="#666666" points="626.5,-96 516,-96 516,-76 626.5,-76 626.5,-96"/>
<text text-anchor="middle" x="571.25" y="-82.5" font-family="Helvetica,sans-Serif" font-size="10.00">vacm_state_dc_mode</text>
</a>
</g>
</g>
<!-- Node1&#45;&gt;Node9 -->
<g id="edge11_Node000001_Node000009" class="edge">
<title>Node1&#45;&gt;Node9</title>
<g id="a_edge11_Node000001_Node000009"><a xlink:title=" ">
<path fill="none" stroke="#63b8ff" d="M656.41,-105.86C642.7,-102.63 628.86,-99.36 616.46,-96.44"/>
<polygon fill="#63b8ff" stroke="#63b8ff" points="655.3,-109.43 665.84,-108.32 656.91,-102.62 655.3,-109.43"/>
</a>
</g>
</g>
<!-- Node10 -->
<g id="Node000010" class="node">
<title>Node10</title>
<g id="a_Node000010"><a xlink:href="a00257.html#afa82391466200dde740b703017e91eec" target="_top" xlink:title=" ">
<polygon fill="white" stroke="#666666" points="619.38,-58 523.12,-58 523.12,-38 619.38,-38 619.38,-58"/>
<text text-anchor="middle" x="571.25" y="-44.5" font-family="Helvetica,sans-Serif" font-size="10.00">vacm_state_online</text>
</a>
</g>
</g>
<!-- Node1&#45;&gt;Node10 -->
<g id="edge13_Node000001_Node000010" class="edge">
<title>Node1&#45;&gt;Node10</title>
<g id="a_edge13_Node000001_Node000010"><a xlink:title=" ">
<path fill="none" stroke="#63b8ff" d="M697.78,-101.96C678.49,-90.57 653.95,-77 631,-67 623.83,-63.88 615.97,-60.99 608.39,-58.46"/>
<polygon fill="#63b8ff" stroke="#63b8ff" points="695.69,-105.39 706.07,-107.52 699.29,-99.39 695.69,-105.39"/>
</a>
</g>
</g>
<!-- Node11 -->
<g id="Node000011" class="node">
<title>Node11</title>
<g id="a_Node000011"><a xlink:href="a00257.html#a4dbe7572d068bb830e05117273a90817" target="_top" xlink:title=" ">
<polygon fill="white" stroke="#666666" points="631,-20 511.5,-20 511.5,0 631,0 631,-20"/>
<text text-anchor="middle" x="571.25" y="-6.5" font-family="Helvetica,sans-Serif" font-size="10.00">vacm_state_wait_for_zc</text>
</a>
</g>
</g>
<!-- Node1&#45;&gt;Node11 -->
<g id="edge15_Node000001_Node000011" class="edge">
<title>Node1&#45;&gt;Node11</title>
<g id="a_edge15_Node000001_Node000011"><a xlink:title=" ">
<path fill="none" stroke="#63b8ff" d="M712.41,-99.32C693.22,-78.01 662.96,-47.76 631,-29 625.27,-25.64 618.87,-22.79 612.46,-20.4"/>
<polygon fill="#63b8ff" stroke="#63b8ff" points="709.45,-101.39 718.69,-106.57 714.7,-96.76 709.45,-101.39"/>
</a>
</g>
</g>
<!-- Node3 -->
<g id="Node000003" class="node">
<title>Node3</title>
<g id="a_Node000003"><a xlink:href="a00412.html#ga9f16d166d637fd9005839b1e1822dc63" target="_top" xlink:title="This is the default callback with weak attribute. The user can override and implement the default cal...">
<polygon fill="white" stroke="#666666" points="115.75,-191 0,-191 0,-171 115.75,-171 115.75,-191"/>
<text text-anchor="middle" x="57.88" y="-177.5" font-family="Helvetica,sans-Serif" font-size="10.00">DMA_ChannelCallback</text>
</a>
</g>
</g>
<!-- Node2&#45;&gt;Node3 -->
<g id="edge2_Node000002_Node000003" class="edge">
<title>Node2&#45;&gt;Node3</title>
<g id="a_edge2_Node000002_Node000003"><a xlink:title=" ">
<path fill="none" stroke="#63b8ff" d="M315.23,-216.35C253.18,-207.79 170.55,-196.4 116.08,-188.89"/>
<polygon fill="#63b8ff" stroke="#63b8ff" points="314.4,-219.9 324.79,-217.8 315.36,-212.97 314.4,-219.9"/>
</a>
</g>
</g>
<!-- Node5 -->
<g id="Node000005" class="node">
<title>Node5</title>
<g id="a_Node000005"><a xlink:href="a00257.html#a3a965bf809d4454e8cc529cc6c3eed03" target="_top" xlink:title=" ">
<polygon fill="white" stroke="#666666" points="454.5,-134 347,-134 347,-114 454.5,-114 454.5,-134"/>
<text text-anchor="middle" x="400.75" y="-120.5" font-family="Helvetica,sans-Serif" font-size="10.00">vacm_state_machine</text>
</a>
</g>
</g>
<!-- Node4&#45;&gt;Node5 -->
<g id="edge4_Node000004_Node000005" class="edge">
<title>Node4&#45;&gt;Node5</title>
<g id="a_edge4_Node000004_Node000005"><a xlink:title=" ">
<path fill="none" stroke="#63b8ff" d="M524.49,-186.03C520.07,-184.43 515.67,-182.74 511.5,-181 478.02,-167.01 440.92,-146.65 419.56,-134.43"/>
<polygon fill="#63b8ff" stroke="#63b8ff" points="523.2,-189.63 533.8,-189.59 525.49,-183.01 523.2,-189.63"/>
</a>
</g>
</g>
<!-- Node6 -->
<g id="Node000006" class="node">
<title>Node6</title>
<g id="a_Node000006"><a xlink:href="a00233.html#a41351a49d0335be286c2947c26d0a07c" target="_top" xlink:title=" ">
<polygon fill="white" stroke="#666666" points="290,-172 151.75,-172 151.75,-152 290,-152 290,-172"/>
<text text-anchor="middle" x="220.88" y="-158.5" font-family="Helvetica,sans-Serif" font-size="10.00">DMA_Channel_doAcMonitor</text>
</a>
</g>
</g>
<!-- Node5&#45;&gt;Node6 -->
<g id="edge5_Node000005_Node000006" class="edge">
<title>Node5&#45;&gt;Node6</title>
<g id="a_edge5_Node000005_Node000006"><a xlink:title=" ">
<path fill="none" stroke="#63b8ff" d="M340.2,-136.72C317.65,-141.54 292.25,-146.96 270.79,-151.55"/>
<polygon fill="#63b8ff" stroke="#63b8ff" points="340.63,-140 349.67,-134.48 339.16,-133.15 340.63,-140"/>
</a>
</g>
</g>
<!-- Node6&#45;&gt;Node3 -->
<g id="edge6_Node000006_Node000003" class="edge">
<title>Node6&#45;&gt;Node3</title>
<g id="a_edge6_Node000006_Node000003"><a xlink:title=" ">
<path fill="none" stroke="#63b8ff" d="M140.72,-171.34C132.41,-172.32 124.08,-173.31 116.09,-174.25"/>
<polygon fill="#63b8ff" stroke="#63b8ff" points="141.08,-174.71 150.6,-170.06 140.26,-167.75 141.08,-174.71"/>
</a>
</g>
</g>
<!-- Node7&#45;&gt;Node5 -->
<g id="edge8_Node000007_Node000005" class="edge">
<title>Node7&#45;&gt;Node5</title>
<g id="a_edge8_Node000007_Node000005"><a xlink:title=" ">
<path fill="none" stroke="#63b8ff" d="M513.26,-149.15C492.04,-144.36 468.24,-138.99 448.09,-134.45"/>
<polygon fill="#63b8ff" stroke="#63b8ff" points="512.24,-152.73 522.76,-151.52 513.78,-145.9 512.24,-152.73"/>
</a>
</g>
</g>
<!-- Node8&#45;&gt;Node5 -->
<g id="edge10_Node000008_Node000005" class="edge">
<title>Node8&#45;&gt;Node5</title>
<g id="a_edge10_Node000008_Node000005"><a xlink:title=" ">
<path fill="none" stroke="#63b8ff" d="M503.17,-124C487.08,-124 470.11,-124 454.76,-124"/>
<polygon fill="#63b8ff" stroke="#63b8ff" points="503.14,-127.5 513.14,-124 503.14,-120.5 503.14,-127.5"/>
</a>
</g>
</g>
<!-- Node9&#45;&gt;Node5 -->
<g id="edge12_Node000009_Node000005" class="edge">
<title>Node9&#45;&gt;Node5</title>
<g id="a_edge12_Node000009_Node000005"><a xlink:title=" ">
<path fill="none" stroke="#63b8ff" d="M513.26,-98.85C492.04,-103.64 468.24,-109.01 448.09,-113.55"/>
<polygon fill="#63b8ff" stroke="#63b8ff" points="513.78,-102.1 522.76,-96.48 512.24,-95.27 513.78,-102.1"/>
</a>
</g>
</g>
<!-- Node10&#45;&gt;Node5 -->
<g id="edge14_Node000010_Node000005" class="edge">
<title>Node10&#45;&gt;Node5</title>
<g id="a_edge14_Node000010_Node000005"><a xlink:title=" ">
<path fill="none" stroke="#63b8ff" d="M524.49,-61.97C520.07,-63.57 515.67,-65.26 511.5,-67 478.02,-80.99 440.92,-101.35 419.56,-113.57"/>
<polygon fill="#63b8ff" stroke="#63b8ff" points="525.49,-64.99 533.8,-58.41 523.2,-58.37 525.49,-64.99"/>
</a>
</g>
</g>
<!-- Node11&#45;&gt;Node5 -->
<g id="edge16_Node000011_Node000005" class="edge">
<title>Node11&#45;&gt;Node5</title>
<g id="a_edge16_Node000011_Node000005"><a xlink:title=" ">
<path fill="none" stroke="#63b8ff" d="M520.44,-24.52C517.36,-25.9 514.35,-27.39 511.5,-29 469.35,-52.75 428.69,-94.31 410.99,-113.61"/>
<polygon fill="#63b8ff" stroke="#63b8ff" points="521.5,-27.46 529.46,-20.46 518.87,-20.97 521.5,-27.46"/>
</a>
</g>
</g>
</g>
</svg>
