<?xml version="1.0" encoding="UTF-8" standalone="no"?>
<!DOCTYPE svg PUBLIC "-//W3C//DTD SVG 1.1//EN"
 "http://www.w3.org/Graphics/SVG/1.1/DTD/svg11.dtd">
<!-- Generated by graphviz version 8.1.0 (20230707.0739)
 -->
<!-- Title: vacm_state_wait_for_zc Pages: 1 -->
<svg width="423pt" height="154pt"
 viewBox="0.00 0.00 422.75 154.00" xmlns="http://www.w3.org/2000/svg" xmlns:xlink="http://www.w3.org/1999/xlink">
<g id="graph0" class="graph" transform="scale(1 1) rotate(0) translate(4 150)">
<title>vacm_state_wait_for_zc</title>
<!-- Node1 -->
<g id="Node000001" class="node">
<title>Node1</title>
<g id="a_Node000001"><a xlink:title=" ">
<polygon fill="#999999" stroke="#666666" points="119.5,-80 0,-80 0,-60 119.5,-60 119.5,-80"/>
<text text-anchor="middle" x="59.75" y="-66.5" font-family="Helvetica,sans-Serif" font-size="10.00">vacm_state_wait_for_zc</text>
</a>
</g>
</g>
<!-- Node2 -->
<g id="Node000002" class="node">
<title>Node2</title>
<g id="a_Node000002"><a xlink:href="a00257.html#a128d766a414b6a9755b7586f37b92939" target="_top" xlink:title=" ">
<polygon fill="white" stroke="#666666" points="277.62,-146 167.88,-146 167.88,-126 277.62,-126 277.62,-146"/>
<text text-anchor="middle" x="222.75" y="-132.5" font-family="Helvetica,sans-Serif" font-size="10.00">vacm_polarity_update</text>
</a>
</g>
</g>
<!-- Node1&#45;&gt;Node2 -->
<g id="edge1_Node000001_Node000002" class="edge">
<title>Node1&#45;&gt;Node2</title>
<g id="a_edge1_Node000001_Node000002"><a xlink:title=" ">
<path fill="none" stroke="#63b8ff" d="M79.17,-80.39C97.94,-90.67 128.11,-106.38 155.5,-117 160.46,-118.92 165.7,-120.75 170.97,-122.46"/>
<polygon fill="#63b8ff" stroke="#63b8ff" points="169.49,-125.98 180.07,-125.59 171.56,-119.29 169.49,-125.98"/>
</a>
</g>
</g>
<!-- Node3 -->
<g id="Node000003" class="node">
<title>Node3</title>
<g id="a_Node000003"><a xlink:href="a00257.html#a634dc3732b7ac4380c54073b237ca710" target="_top" xlink:title=" ">
<polygon fill="white" stroke="#666666" points="290,-108 155.5,-108 155.5,-76 290,-76 290,-108"/>
<text text-anchor="start" x="163.5" y="-94.5" font-family="Helvetica,sans-Serif" font-size="10.00">vacm_reset_phase_monitor</text>
<text text-anchor="middle" x="222.75" y="-82.5" font-family="Helvetica,sans-Serif" font-size="10.00">_object</text>
</a>
</g>
</g>
<!-- Node1&#45;&gt;Node3 -->
<g id="edge2_Node000001_Node000003" class="edge">
<title>Node1&#45;&gt;Node3</title>
<g id="a_edge2_Node000001_Node000003"><a xlink:title=" ">
<path fill="none" stroke="#63b8ff" d="M119.79,-78.07C127.77,-79.16 136.06,-80.29 144.31,-81.42"/>
<polygon fill="#63b8ff" stroke="#63b8ff" points="143.72,-85.01 154.1,-82.89 144.67,-78.07 143.72,-85.01"/>
</a>
</g>
</g>
<!-- Node4 -->
<g id="Node000004" class="node">
<title>Node4</title>
<g id="a_Node000004"><a xlink:href="a00257.html#a4d1cffa8629c7a211d571e6c96fe94ac" target="_top" xlink:title=" ">
<polygon fill="white" stroke="#666666" points="269.38,-58 176.12,-58 176.12,-38 269.38,-38 269.38,-58"/>
<text text-anchor="middle" x="222.75" y="-44.5" font-family="Helvetica,sans-Serif" font-size="10.00">vacm_vin_average</text>
</a>
</g>
</g>
<!-- Node1&#45;&gt;Node4 -->
<g id="edge3_Node000001_Node000004" class="edge">
<title>Node1&#45;&gt;Node4</title>
<g id="a_edge3_Node000001_Node000004"><a xlink:title=" ">
<path fill="none" stroke="#63b8ff" d="M119.79,-61.93C134.66,-59.9 150.59,-57.72 165.34,-55.71"/>
<polygon fill="#63b8ff" stroke="#63b8ff" points="165.4,-59.1 174.83,-54.27 164.45,-52.16 165.4,-59.1"/>
</a>
</g>
</g>
<!-- Node6 -->
<g id="Node000006" class="node">
<title>Node6</title>
<g id="a_Node000006"><a xlink:href="a00257.html#ae168f993edb4be6bef378eeb2f7d62d6" target="_top" xlink:title=" ">
<polygon fill="white" stroke="#666666" points="282.12,-20 163.38,-20 163.38,0 282.12,0 282.12,-20"/>
<text text-anchor="middle" x="222.75" y="-6.5" font-family="Helvetica,sans-Serif" font-size="10.00">vacm_zerocross_detect</text>
</a>
</g>
</g>
<!-- Node1&#45;&gt;Node6 -->
<g id="edge5_Node000001_Node000006" class="edge">
<title>Node1&#45;&gt;Node6</title>
<g id="a_edge5_Node000001_Node000006"><a xlink:title=" ">
<path fill="none" stroke="#63b8ff" d="M82.63,-59.57C101.63,-50.75 130.02,-38.12 155.5,-29 160.72,-27.13 166.21,-25.32 171.72,-23.6"/>
<polygon fill="#63b8ff" stroke="#63b8ff" points="172.68,-26.66 181.25,-20.42 170.66,-19.96 172.68,-26.66"/>
</a>
</g>
</g>
<!-- Node5 -->
<g id="Node000005" class="node">
<title>Node5</title>
<g id="a_Node000005"><a xlink:href="a00257.html#aef2ab25ed304717c5d288e7053b8237f" target="_top" xlink:title=" ">
<polygon fill="white" stroke="#666666" points="414.75,-58 326,-58 326,-38 414.75,-38 414.75,-58"/>
<text text-anchor="middle" x="370.38" y="-44.5" font-family="Helvetica,sans-Serif" font-size="10.00">vacm_uv_ov_test</text>
</a>
</g>
</g>
<!-- Node4&#45;&gt;Node5 -->
<g id="edge4_Node000004_Node000005" class="edge">
<title>Node4&#45;&gt;Node5</title>
<g id="a_edge4_Node000004_Node000005"><a xlink:title=" ">
<path fill="none" stroke="#63b8ff" d="M269.83,-48C284.18,-48 300.13,-48 315,-48"/>
<polygon fill="#63b8ff" stroke="#63b8ff" points="314.58,-51.5 324.58,-48 314.58,-44.5 314.58,-51.5"/>
</a>
</g>
</g>
</g>
</svg>
