<?xml version="1.0" encoding="UTF-8" standalone="no"?>
<!DOCTYPE svg PUBLIC "-//W3C//DTD SVG 1.1//EN"
 "http://www.w3.org/Graphics/SVG/1.1/DTD/svg11.dtd">
<!-- Generated by graphviz version 2.44.1 (20200629.0846)
 -->
<!-- Title: C:/Users/M70027/Documents/Projects/tp&#45;deployment/dspic33ch&#45;power&#45;totem&#45;pole&#45;demonstration&#45;application&#45;single&#45;phase_v2/dspic33ch_totem_pole_single_phase_primary_IL.X/sources/driver/spi/drv_spi.c Pages: 1 -->
<!--zoomable 269 -->

<svg id="main" version="1.1" xmlns="http://www.w3.org/2000/svg" xmlns:xlink="http://www.w3.org/1999/xlink" xml:space="preserve" onload="init(evt)">

<style type="text/css"><![CDATA[
.node, .edge {opacity: 0.7;}
.node.selected, .edge.selected {opacity: 1;}
.edge:hover path { stroke: red; }
.edge:hover polygon { stroke: red; fill: red; }
]]></style>

<defs>
  <circle id="rim" cx="0" cy="0" r="7"/>
  <circle id="rim2" cx="0" cy="0" r="3.5"/>
  <g id="zoomPlus">
    <use xlink:href="#rim" fill="#404040"><set attributeName="fill" to="#808080" begin="zoomplus.mouseover" end="zoomplus.mouseout"/></use>
    <path d="M-4,0h8M0,-4v8" fill="none" stroke="white" stroke-width="1.5" pointer-events="none"/>
  </g>
  <g id="zoomMin">
    <use xlink:href="#rim" fill="#404040"><set attributeName="fill" to="#808080" begin="zoomminus.mouseover" end="zoomminus.mouseout"/></use>
    <path d="M-4,0h8" fill="none" stroke="white" stroke-width="1.5" pointer-events="none"/>
  </g>
  <g id="arrowUp" transform="translate(30 24)">
    <use xlink:href="#rim"/>
    <path pointer-events="none" fill="none" stroke="white" stroke-width="1.5" d="M0,-3.0v7 M-2.5,-0.5L0,-3.0L2.5,-0.5"/>
  </g>
  <g id="arrowRight" transform="rotate(90) translate(36 -43)">
    <use xlink:href="#rim"/>
    <path pointer-events="none" fill="none" stroke="white" stroke-width="1.5" d="M0,-3.0v7 M-2.5,-0.5L0,-3.0L2.5,-0.5"/>
  </g>
  <g id="arrowDown" transform="rotate(180) translate(-30 -48)">
    <use xlink:href="#rim"/>
    <path pointer-events="none" fill="none" stroke="white" stroke-width="1.5" d="M0,-3.0v7 M-2.5,-0.5L0,-3.0L2.5,-0.5"/>
  </g>
  <g id="arrowLeft" transform="rotate(270) translate(-36 17)">
    <use xlink:href="#rim"/>
    <path pointer-events="none" fill="none" stroke="white" stroke-width="1.5" d="M0,-3.0v7 M-2.5,-0.5L0,-3.0L2.5,-0.5"/>
  </g>
  <g id="resetDef">
    <use xlink:href="#rim2" fill="#404040"><set attributeName="fill" to="#808080" begin="reset.mouseover" end="reset.mouseout"/></use>
  </g>
</defs>
<script type="application/ecmascript">
var viewWidth = 984;
var viewHeight = 269;
var sectionId = 'dynsection-0';
</script>
<script type="application/ecmascript" xlink:href="svg.min.js"/>
<svg id="graph" class="graph">
<g id="viewport">
<title>C:/Users/M70027/Documents/Projects/tp&#45;deployment/dspic33ch&#45;power&#45;totem&#45;pole&#45;demonstration&#45;application&#45;single&#45;phase_v2/dspic33ch_totem_pole_single_phase_primary_IL.X/sources/driver/spi/drv_spi.c</title>
<!-- Node1 -->
<g id="Node000001" class="node">
<title>Node1</title>
<g id="a_Node000001"><a xlink:title="This is the driver header file for spi builds upon mcc.">
<polygon fill="#999999" stroke="#666666" points="542.5,-261 376.5,-261 376.5,-176 542.5,-176 542.5,-261"/>
<text text-anchor="start" x="384.5" y="-249" font-family="Helvetica,sans-Serif" font-size="10.00">C:/Users/M70027/Documents</text>
<text text-anchor="start" x="384.5" y="-238" font-family="Helvetica,sans-Serif" font-size="10.00">/Projects/tp&#45;deployment</text>
<text text-anchor="start" x="384.5" y="-227" font-family="Helvetica,sans-Serif" font-size="10.00">/dspic33ch&#45;power&#45;totem&#45;pole</text>
<text text-anchor="start" x="384.5" y="-216" font-family="Helvetica,sans-Serif" font-size="10.00">&#45;demonstration&#45;application</text>
<text text-anchor="start" x="384.5" y="-205" font-family="Helvetica,sans-Serif" font-size="10.00">&#45;single&#45;phase_v2/dspic33ch_totem</text>
<text text-anchor="start" x="384.5" y="-194" font-family="Helvetica,sans-Serif" font-size="10.00">_pole_single_phase_primary_IL.X</text>
<text text-anchor="middle" x="459.5" y="-183" font-family="Helvetica,sans-Serif" font-size="10.00">/sources/driver/spi/drv_spi.c</text>
</a>
</g>
</g>
<!-- Node2 -->
<g id="Node000002" class="node">
<title>Node2</title>
<g id="a_Node000002"><a xlink:title=" ">
<polygon fill="#e0e0e0" stroke="#999999" points="101,-140 0,-140 0,-121 101,-121 101,-140"/>
<text text-anchor="middle" x="50.5" y="-128" font-family="Helvetica,sans-Serif" font-size="10.00">p33CH512MP506.h</text>
</a>
</g>
</g>
<!-- Node1&#45;&gt;Node2 -->
<g id="edge1_Node000001_Node000002" class="edge">
<title>Node1&#45;&gt;Node2</title>
<g id="a_edge1_Node000001_Node000002"><a xlink:title=" ">
<path fill="none" stroke="#63b8ff" d="M376.24,-199.99C293.71,-182.64 169.94,-156.61 101.17,-142.15"/>
<polygon fill="#63b8ff" stroke="#63b8ff" points="101.53,-138.65 91.02,-140.02 100.09,-145.5 101.53,-138.65"/>
</a>
</g>
</g>
<!-- Node3 -->
<g id="Node000003" class="node">
<title>Node3</title>
<g id="a_Node000003"><a xlink:title=" ">
<polygon fill="#e0e0e0" stroke="#999999" points="177.5,-140 119.5,-140 119.5,-121 177.5,-121 177.5,-140"/>
<text text-anchor="middle" x="148.5" y="-128" font-family="Helvetica,sans-Serif" font-size="10.00">libpic30.h</text>
</a>
</g>
</g>
<!-- Node1&#45;&gt;Node3 -->
<g id="edge2_Node000001_Node000003" class="edge">
<title>Node1&#45;&gt;Node3</title>
<g id="a_edge2_Node000001_Node000003"><a xlink:title=" ">
<path fill="none" stroke="#63b8ff" d="M376.16,-194.45C314.97,-177.53 234.64,-155.32 187.58,-142.31"/>
<polygon fill="#63b8ff" stroke="#63b8ff" points="188.35,-138.89 177.78,-139.6 186.49,-145.64 188.35,-138.89"/>
</a>
</g>
</g>
<!-- Node4 -->
<g id="Node000004" class="node">
<title>Node4</title>
<g id="a_Node000004"><a xlink:href="a00254.html" target="_top" xlink:title="This is the driver source file for spi builds upon mcc.">
<polygon fill="white" stroke="#666666" points="334,-140 279,-140 279,-121 334,-121 334,-140"/>
<text text-anchor="middle" x="306.5" y="-128" font-family="Helvetica,sans-Serif" font-size="10.00">drv_spi.h</text>
</a>
</g>
</g>
<!-- Node1&#45;&gt;Node4 -->
<g id="edge3_Node000001_Node000004" class="edge">
<title>Node1&#45;&gt;Node4</title>
<g id="a_edge3_Node000001_Node000004"><a xlink:title=" ">
<path fill="none" stroke="#63b8ff" d="M385.24,-175.76C365.5,-164.67 345.57,-153.46 330.7,-145.1"/>
<polygon fill="#63b8ff" stroke="#63b8ff" points="332.14,-141.9 321.71,-140.05 328.71,-148 332.14,-141.9"/>
</a>
</g>
</g>
<!-- Node7 -->
<g id="Node000007" class="node">
<title>Node7</title>
<g id="a_Node000007"><a xlink:href="a00230.html" target="_top" xlink:title="header of the CAN Driver">
<polygon fill="white" stroke="#666666" points="454.5,-140 352.5,-140 352.5,-121 454.5,-121 454.5,-140"/>
<text text-anchor="middle" x="403.5" y="-128" font-family="Helvetica,sans-Serif" font-size="10.00">driver/can/drv_can.h</text>
</a>
</g>
</g>
<!-- Node1&#45;&gt;Node7 -->
<g id="edge6_Node000001_Node000007" class="edge">
<title>Node1&#45;&gt;Node7</title>
<g id="a_edge6_Node000001_Node000007"><a xlink:title=" ">
<path fill="none" stroke="#63b8ff" d="M432.32,-175.76C426.06,-166.15 419.74,-156.45 414.63,-148.59"/>
<polygon fill="#63b8ff" stroke="#63b8ff" points="417.46,-146.52 409.07,-140.05 411.59,-150.34 417.46,-146.52"/>
</a>
</g>
</g>
<!-- Node8 -->
<g id="Node000008" class="node">
<title>Node8</title>
<g id="a_Node000008"><a xlink:title=" ">
<polygon fill="#e0e0e0" stroke="#999999" points="844.5,-140 766.5,-140 766.5,-121 844.5,-121 844.5,-140"/>
<text text-anchor="middle" x="805.5" y="-128" font-family="Helvetica,sans-Serif" font-size="10.00">system/pins.h</text>
</a>
</g>
</g>
<!-- Node1&#45;&gt;Node8 -->
<g id="edge8_Node000001_Node000008" class="edge">
<title>Node1&#45;&gt;Node8</title>
<g id="a_edge8_Node000001_Node000008"><a xlink:title=" ">
<path fill="none" stroke="#63b8ff" d="M542.82,-196.79C611.53,-179.71 706.32,-156.15 761.25,-142.5"/>
<polygon fill="#63b8ff" stroke="#63b8ff" points="762.16,-145.88 771.02,-140.07 760.47,-139.09 762.16,-145.88"/>
</a>
</g>
</g>
<!-- Node9 -->
<g id="Node000009" class="node">
<title>Node9</title>
<g id="a_Node000009"><a xlink:href="a00134.html" target="_top" xlink:title="This is the generated driver header file for the SPI1 driver.">
<polygon fill="white" stroke="#666666" points="560,-140 473,-140 473,-121 560,-121 560,-140"/>
<text text-anchor="middle" x="516.5" y="-128" font-family="Helvetica,sans-Serif" font-size="10.00">spi_client/spi1.h</text>
</a>
</g>
</g>
<!-- Node1&#45;&gt;Node9 -->
<g id="edge9_Node000001_Node000009" class="edge">
<title>Node1&#45;&gt;Node9</title>
<g id="a_edge9_Node000001_Node000009"><a xlink:title=" ">
<path fill="none" stroke="#63b8ff" d="M487.17,-175.76C493.54,-166.15 499.97,-156.45 505.17,-148.59"/>
<polygon fill="#63b8ff" stroke="#63b8ff" points="508.23,-150.32 510.84,-140.05 502.39,-146.45 508.23,-150.32"/>
</a>
</g>
</g>
<!-- Node13 -->
<g id="Node000013" class="node">
<title>Node13</title>
<g id="a_Node000013"><a xlink:href="a00107.html" target="_top" xlink:title="This is the generated driver header file for the DMA driver.">
<polygon fill="white" stroke="#666666" points="261,-140 196,-140 196,-121 261,-121 261,-140"/>
<text text-anchor="middle" x="228.5" y="-128" font-family="Helvetica,sans-Serif" font-size="10.00">dma/dma.h</text>
</a>
</g>
</g>
<!-- Node1&#45;&gt;Node13 -->
<g id="edge17_Node000001_Node000013" class="edge">
<title>Node1&#45;&gt;Node13</title>
<g id="a_edge17_Node000001_Node000013"><a xlink:title=" ">
<path fill="none" stroke="#63b8ff" d="M376.43,-186.57C336.45,-171.69 290.84,-154.71 260.96,-143.58"/>
<polygon fill="#63b8ff" stroke="#63b8ff" points="262.05,-140.26 251.46,-140.05 259.61,-146.82 262.05,-140.26"/>
</a>
</g>
</g>
<!-- Node16 -->
<g id="Node000016" class="node">
<title>Node16</title>
<g id="a_Node000016"><a xlink:title=" ">
<polygon fill="#e0e0e0" stroke="#999999" points="976,-140 863,-140 863,-121 976,-121 976,-140"/>
<text text-anchor="middle" x="919.5" y="-128" font-family="Helvetica,sans-Serif" font-size="10.00">timer/timer_interface.h</text>
</a>
</g>
</g>
<!-- Node1&#45;&gt;Node16 -->
<g id="edge26_Node000001_Node000016" class="edge">
<title>Node1&#45;&gt;Node16</title>
<g id="a_edge26_Node000001_Node000016"><a xlink:title=" ">
<path fill="none" stroke="#63b8ff" d="M542.54,-201.98C635.6,-184.58 783.9,-156.85 863.93,-141.89"/>
<polygon fill="#63b8ff" stroke="#63b8ff" points="864.63,-145.32 873.82,-140.04 863.35,-138.44 864.63,-145.32"/>
</a>
</g>
</g>
<!-- Node17 -->
<g id="Node000017" class="node">
<title>Node17</title>
<g id="a_Node000017"><a xlink:href="a00203.html" target="_top" xlink:title="This is the generated driver header file for the SCCP1&#45;TIMER driver.">
<polygon fill="white" stroke="#666666" points="748.5,-140 672.5,-140 672.5,-121 748.5,-121 748.5,-140"/>
<text text-anchor="middle" x="710.5" y="-128" font-family="Helvetica,sans-Serif" font-size="10.00">timer/sccp1.h</text>
</a>
</g>
</g>
<!-- Node1&#45;&gt;Node17 -->
<g id="edge27_Node000001_Node000017" class="edge">
<title>Node1&#45;&gt;Node17</title>
<g id="a_edge27_Node000001_Node000017"><a xlink:title=" ">
<path fill="none" stroke="#63b8ff" d="M542.73,-188.98C588.06,-173.45 641.72,-155.07 675.92,-143.35"/>
<polygon fill="#63b8ff" stroke="#63b8ff" points="677.13,-146.63 685.46,-140.08 674.86,-140.01 677.13,-146.63"/>
</a>
</g>
</g>
<!-- Node20 -->
<g id="Node000020" class="node">
<title>Node20</title>
<g id="a_Node000020"><a xlink:href="a00206.html" target="_top" xlink:title="This is the generated driver header file for the SCCP2&#45;TIMER driver.">
<polygon fill="white" stroke="#666666" points="654.5,-140 578.5,-140 578.5,-121 654.5,-121 654.5,-140"/>
<text text-anchor="middle" x="616.5" y="-128" font-family="Helvetica,sans-Serif" font-size="10.00">timer/sccp2.h</text>
</a>
</g>
</g>
<!-- Node1&#45;&gt;Node20 -->
<g id="edge36_Node000001_Node000020" class="edge">
<title>Node1&#45;&gt;Node20</title>
<g id="a_edge36_Node000001_Node000020"><a xlink:title=" ">
<path fill="none" stroke="#63b8ff" d="M535.7,-175.76C556.15,-164.56 576.8,-153.25 592.11,-144.86"/>
<polygon fill="#63b8ff" stroke="#63b8ff" points="593.81,-147.92 600.9,-140.05 590.45,-141.78 593.81,-147.92"/>
</a>
</g>
</g>
<!-- Node5 -->
<g id="Node000005" class="node">
<title>Node5</title>
<g id="a_Node000005"><a xlink:title=" ">
<polygon fill="#e0e0e0" stroke="#999999" points="378,-85 343,-85 343,-66 378,-66 378,-85"/>
<text text-anchor="middle" x="360.5" y="-73" font-family="Helvetica,sans-Serif" font-size="10.00">xc.h</text>
</a>
</g>
</g>
<!-- Node4&#45;&gt;Node5 -->
<g id="edge4_Node000004_Node000005" class="edge">
<title>Node4&#45;&gt;Node5</title>
<g id="a_edge4_Node000004_Node000005"><a xlink:title=" ">
<path fill="none" stroke="#63b8ff" d="M315.42,-120.75C323.28,-113.03 334.93,-101.6 344.42,-92.28"/>
<polygon fill="#63b8ff" stroke="#63b8ff" points="347.06,-94.59 351.75,-85.09 342.16,-89.6 347.06,-94.59"/>
</a>
</g>
</g>
<!-- Node6 -->
<g id="Node000006" class="node">
<title>Node6</title>
<g id="a_Node000006"><a xlink:title=" ">
<polygon fill="#e0e0e0" stroke="#999999" points="369.5,-24.5 313.5,-24.5 313.5,-5.5 369.5,-5.5 369.5,-24.5"/>
<text text-anchor="middle" x="341.5" y="-12.5" font-family="Helvetica,sans-Serif" font-size="10.00">stdbool.h</text>
</a>
</g>
</g>
<!-- Node4&#45;&gt;Node6 -->
<g id="edge5_Node000004_Node000006" class="edge">
<title>Node4&#45;&gt;Node6</title>
<g id="a_edge5_Node000004_Node000006"><a xlink:title=" ">
<path fill="none" stroke="#63b8ff" d="M309.13,-120.97C314.78,-102.65 328.18,-59.18 335.85,-34.31"/>
<polygon fill="#63b8ff" stroke="#63b8ff" points="339.24,-35.22 338.84,-24.63 332.55,-33.15 339.24,-35.22"/>
</a>
</g>
</g>
<!-- Node7&#45;&gt;Node5 -->
<g id="edge7_Node000007_Node000005" class="edge">
<title>Node7&#45;&gt;Node5</title>
<g id="a_edge7_Node000007_Node000005"><a xlink:title=" ">
<path fill="none" stroke="#63b8ff" d="M396.4,-120.75C390.33,-113.26 381.41,-102.28 373.99,-93.13"/>
<polygon fill="#63b8ff" stroke="#63b8ff" points="376.49,-90.65 367.47,-85.09 371.05,-95.06 376.49,-90.65"/>
</a>
</g>
</g>
<!-- Node9&#45;&gt;Node6 -->
<g id="edge11_Node000009_Node000006" class="edge">
<title>Node9&#45;&gt;Node6</title>
<g id="a_edge11_Node000009_Node000006"><a xlink:title=" ">
<path fill="none" stroke="#63b8ff" d="M503.35,-120.97C473.45,-101.58 400.14,-54.03 363.33,-30.16"/>
<polygon fill="#63b8ff" stroke="#63b8ff" points="365.1,-27.13 354.81,-24.63 361.29,-33.01 365.1,-27.13"/>
</a>
</g>
</g>
<!-- Node10 -->
<g id="Node000010" class="node">
<title>Node10</title>
<g id="a_Node000010"><a xlink:title=" ">
<polygon fill="#e0e0e0" stroke="#999999" points="551,-24.5 502,-24.5 502,-5.5 551,-5.5 551,-24.5"/>
<text text-anchor="middle" x="526.5" y="-12.5" font-family="Helvetica,sans-Serif" font-size="10.00">stdint.h</text>
</a>
</g>
</g>
<!-- Node9&#45;&gt;Node10 -->
<g id="edge10_Node000009_Node000010" class="edge">
<title>Node9&#45;&gt;Node10</title>
<g id="a_edge10_Node000009_Node000010"><a xlink:title=" ">
<path fill="none" stroke="#63b8ff" d="M499.99,-120.86C480.7,-109.5 452.7,-88.37 463.5,-66 471,-50.47 485.93,-38.29 499.37,-29.84"/>
<polygon fill="#63b8ff" stroke="#63b8ff" points="501.47,-32.66 508.33,-24.59 497.93,-26.62 501.47,-32.66"/>
</a>
</g>
</g>
<!-- Node11 -->
<g id="Node000011" class="node">
<title>Node11</title>
<g id="a_Node000011"><a xlink:title=" ">
<polygon fill="#e0e0e0" stroke="#999999" points="827,-24.5 776,-24.5 776,-5.5 827,-5.5 827,-24.5"/>
<text text-anchor="middle" x="801.5" y="-12.5" font-family="Helvetica,sans-Serif" font-size="10.00">stddef.h</text>
</a>
</g>
</g>
<!-- Node9&#45;&gt;Node11 -->
<g id="edge12_Node000009_Node000011" class="edge">
<title>Node9&#45;&gt;Node11</title>
<g id="a_edge12_Node000009_Node000011"><a xlink:title=" ">
<path fill="none" stroke="#63b8ff" d="M560.1,-122.5C632.33,-110.83 769.35,-88.34 773.5,-85 788.73,-72.73 795.74,-50.86 798.92,-35.03"/>
<polygon fill="#63b8ff" stroke="#63b8ff" points="802.44,-35.23 800.63,-24.79 795.53,-34.08 802.44,-35.23"/>
</a>
</g>
</g>
<!-- Node12 -->
<g id="Node000012" class="node">
<title>Node12</title>
<g id="a_Node000012"><a xlink:href="a00137_source.html" target="_top" xlink:title=" ">
<polygon fill="white" stroke="#666666" points="580.5,-85 472.5,-85 472.5,-66 580.5,-66 580.5,-85"/>
<text text-anchor="middle" x="526.5" y="-73" font-family="Helvetica,sans-Serif" font-size="10.00">spi_client_interface.h</text>
</a>
</g>
</g>
<!-- Node9&#45;&gt;Node12 -->
<g id="edge13_Node000009_Node000012" class="edge">
<title>Node9&#45;&gt;Node12</title>
<g id="a_edge13_Node000009_Node000012"><a xlink:title=" ">
<path fill="none" stroke="#63b8ff" d="M518.15,-120.75C519.46,-113.8 521.34,-103.85 522.98,-95.13"/>
<polygon fill="#63b8ff" stroke="#63b8ff" points="526.46,-95.56 524.88,-85.09 519.59,-94.27 526.46,-95.56"/>
</a>
</g>
</g>
<!-- Node12&#45;&gt;Node6 -->
<g id="edge15_Node000012_Node000006" class="edge">
<title>Node12&#45;&gt;Node6</title>
<g id="a_edge15_Node000012_Node000006"><a xlink:title=" ">
<path fill="none" stroke="#63b8ff" d="M499.6,-65.99C467.54,-55.86 413.82,-38.87 378.02,-27.55"/>
<polygon fill="#63b8ff" stroke="#63b8ff" points="379.02,-24.19 368.43,-24.52 376.91,-30.87 379.02,-24.19"/>
</a>
</g>
</g>
<!-- Node12&#45;&gt;Node10 -->
<g id="edge14_Node000012_Node000010" class="edge">
<title>Node12&#45;&gt;Node10</title>
<g id="a_edge14_Node000012_Node000010"><a xlink:title=" ">
<path fill="none" stroke="#63b8ff" d="M526.5,-65.87C526.5,-57.75 526.5,-45.31 526.5,-34.89"/>
<polygon fill="#63b8ff" stroke="#63b8ff" points="530,-34.67 526.5,-24.67 523,-34.67 530,-34.67"/>
</a>
</g>
</g>
<!-- Node12&#45;&gt;Node11 -->
<g id="edge16_Node000012_Node000011" class="edge">
<title>Node12&#45;&gt;Node11</title>
<g id="a_edge16_Node000012_Node000011"><a xlink:title=" ">
<path fill="none" stroke="#63b8ff" d="M580.59,-67.58C629.7,-60.57 703.82,-48.16 766.5,-30 768.43,-29.44 770.41,-28.81 772.38,-28.14"/>
<polygon fill="#63b8ff" stroke="#63b8ff" points="773.95,-31.29 782.12,-24.54 771.52,-24.73 773.95,-31.29"/>
</a>
</g>
</g>
<!-- Node13&#45;&gt;Node5 -->
<g id="edge18_Node000013_Node000005" class="edge">
<title>Node13&#45;&gt;Node5</title>
<g id="a_edge18_Node000013_Node000005"><a xlink:title=" ">
<path fill="none" stroke="#63b8ff" d="M249.71,-120.98C272.38,-111.88 308.41,-97.41 333.19,-87.46"/>
<polygon fill="#63b8ff" stroke="#63b8ff" points="334.75,-90.61 342.73,-83.63 332.15,-84.11 334.75,-90.61"/>
</a>
</g>
</g>
<!-- Node13&#45;&gt;Node6 -->
<g id="edge19_Node000013_Node000006" class="edge">
<title>Node13&#45;&gt;Node6</title>
<g id="a_edge19_Node000013_Node000006"><a xlink:title=" ">
<path fill="none" stroke="#63b8ff" d="M236.99,-120.97C255.81,-102.07 301.25,-56.43 325.55,-32.02"/>
<polygon fill="#63b8ff" stroke="#63b8ff" points="328.33,-34.19 332.91,-24.63 323.37,-29.25 328.33,-34.19"/>
</a>
</g>
</g>
<!-- Node13&#45;&gt;Node10 -->
<g id="edge20_Node000013_Node000010" class="edge">
<title>Node13&#45;&gt;Node10</title>
<g id="a_edge20_Node000013_Node000010"><a xlink:title=" ">
<path fill="none" stroke="#63b8ff" d="M240.3,-120.88C259.27,-107.39 298.1,-81.27 334.5,-66 387.42,-43.8 452.78,-29.32 491.98,-21.91"/>
<polygon fill="#63b8ff" stroke="#63b8ff" points="492.63,-25.35 501.83,-20.09 491.36,-18.46 492.63,-25.35"/>
</a>
</g>
</g>
<!-- Node14 -->
<g id="Node000014" class="node">
<title>Node14</title>
<g id="a_Node000014"><a xlink:href="a00113.html" target="_top" xlink:title="This is the generated driver types header file for the DMA driver.">
<polygon fill="white" stroke="#666666" points="169,-24.5 96,-24.5 96,-5.5 169,-5.5 169,-24.5"/>
<text text-anchor="middle" x="132.5" y="-12.5" font-family="Helvetica,sans-Serif" font-size="10.00">dma_types.h</text>
</a>
</g>
</g>
<!-- Node13&#45;&gt;Node14 -->
<g id="edge21_Node000013_Node000014" class="edge">
<title>Node13&#45;&gt;Node14</title>
<g id="a_edge21_Node000013_Node000014"><a xlink:title=" ">
<path fill="none" stroke="#63b8ff" d="M195.9,-121.06C165.98,-112.58 124.9,-98.81 115.5,-85 105.02,-69.61 112.81,-48.38 120.96,-33.55"/>
<polygon fill="#63b8ff" stroke="#63b8ff" points="124.04,-35.23 126.19,-24.85 118.04,-31.62 124.04,-35.23"/>
</a>
</g>
</g>
<!-- Node15 -->
<g id="Node000015" class="node">
<title>Node15</title>
<g id="a_Node000015"><a xlink:href="a00110_source.html" target="_top" xlink:title=" ">
<polygon fill="white" stroke="#666666" points="210.5,-85 124.5,-85 124.5,-66 210.5,-66 210.5,-85"/>
<text text-anchor="middle" x="167.5" y="-73" font-family="Helvetica,sans-Serif" font-size="10.00">dma_interface.h</text>
</a>
</g>
</g>
<!-- Node13&#45;&gt;Node15 -->
<g id="edge22_Node000013_Node000015" class="edge">
<title>Node13&#45;&gt;Node15</title>
<g id="a_edge22_Node000013_Node000015"><a xlink:title=" ">
<path fill="none" stroke="#63b8ff" d="M218.7,-120.98C209.68,-113.15 196.09,-101.34 185.18,-91.86"/>
<polygon fill="#63b8ff" stroke="#63b8ff" points="187.32,-89.09 177.48,-85.17 182.73,-94.37 187.32,-89.09"/>
</a>
</g>
</g>
<!-- Node15&#45;&gt;Node6 -->
<g id="edge24_Node000015_Node000006" class="edge">
<title>Node15&#45;&gt;Node6</title>
<g id="a_edge24_Node000015_Node000006"><a xlink:title=" ">
<path fill="none" stroke="#63b8ff" d="M192.8,-65.99C222.7,-55.94 272.62,-39.16 306.28,-27.84"/>
<polygon fill="#63b8ff" stroke="#63b8ff" points="307.81,-31.02 316.17,-24.52 305.57,-24.39 307.81,-31.02"/>
</a>
</g>
</g>
<!-- Node15&#45;&gt;Node10 -->
<g id="edge23_Node000015_Node000010" class="edge">
<title>Node15&#45;&gt;Node10</title>
<g id="a_edge23_Node000015_Node000010"><a xlink:title=" ">
<path fill="none" stroke="#63b8ff" d="M210.8,-67.44C282.85,-55.7 425.91,-32.39 491.8,-21.65"/>
<polygon fill="#63b8ff" stroke="#63b8ff" points="492.38,-25.11 501.69,-20.04 491.26,-18.2 492.38,-25.11"/>
</a>
</g>
</g>
<!-- Node15&#45;&gt;Node14 -->
<g id="edge25_Node000015_Node000014" class="edge">
<title>Node15&#45;&gt;Node14</title>
<g id="a_edge25_Node000015_Node000014"><a xlink:title=" ">
<path fill="none" stroke="#63b8ff" d="M162.34,-65.87C157.27,-57.4 149.4,-44.24 143.01,-33.57"/>
<polygon fill="#63b8ff" stroke="#63b8ff" points="145.82,-31.45 137.69,-24.67 139.82,-35.05 145.82,-31.45"/>
</a>
</g>
</g>
<!-- Node17&#45;&gt;Node5 -->
<g id="edge30_Node000017_Node000005" class="edge">
<title>Node17&#45;&gt;Node5</title>
<g id="a_edge30_Node000017_Node000005"><a xlink:title=" ">
<path fill="none" stroke="#63b8ff" d="M672.3,-122.48C669.32,-121.97 666.36,-121.47 663.5,-121 562.38,-104.44 441.79,-87.59 388.35,-80.28"/>
<polygon fill="#63b8ff" stroke="#63b8ff" points="388.67,-76.79 378.29,-78.9 387.73,-83.72 388.67,-76.79"/>
</a>
</g>
</g>
<!-- Node17&#45;&gt;Node10 -->
<g id="edge29_Node000017_Node000010" class="edge">
<title>Node17&#45;&gt;Node10</title>
<g id="a_edge29_Node000017_Node000010"><a xlink:title=" ">
<path fill="none" stroke="#63b8ff" d="M696.67,-120.83C677.08,-108.57 640.11,-85.48 608.5,-66 588.68,-53.79 566.09,-40.03 549.65,-30.04"/>
<polygon fill="#63b8ff" stroke="#63b8ff" points="551.11,-26.83 540.75,-24.63 547.48,-32.81 551.11,-26.83"/>
</a>
</g>
</g>
<!-- Node17&#45;&gt;Node11 -->
<g id="edge28_Node000017_Node000011" class="edge">
<title>Node17&#45;&gt;Node11</title>
<g id="a_edge28_Node000017_Node000011"><a xlink:title=" ">
<path fill="none" stroke="#63b8ff" d="M748.72,-121.98C784.17,-114.14 833.1,-100.8 844.5,-85 857.49,-67 838.29,-45.08 821.55,-30.84"/>
<polygon fill="#63b8ff" stroke="#63b8ff" points="823.67,-28.05 813.68,-24.52 819.29,-33.51 823.67,-28.05"/>
</a>
</g>
</g>
<!-- Node18 -->
<g id="Node000018" class="node">
<title>Node18</title>
<g id="a_Node000018"><a xlink:href="a00883_source.html" target="_top" xlink:title=" ">
<polygon fill="white" stroke="#666666" points="764,-85 675,-85 675,-66 764,-66 764,-85"/>
<text text-anchor="middle" x="719.5" y="-73" font-family="Helvetica,sans-Serif" font-size="10.00">timer_interface.h</text>
</a>
</g>
</g>
<!-- Node17&#45;&gt;Node18 -->
<g id="edge31_Node000017_Node000018" class="edge">
<title>Node17&#45;&gt;Node18</title>
<g id="a_edge31_Node000017_Node000018"><a xlink:title=" ">
<path fill="none" stroke="#63b8ff" d="M711.99,-120.75C713.17,-113.8 714.86,-103.85 716.34,-95.13"/>
<polygon fill="#63b8ff" stroke="#63b8ff" points="719.82,-95.53 718.04,-85.09 712.92,-94.36 719.82,-95.53"/>
</a>
</g>
</g>
<!-- Node18&#45;&gt;Node6 -->
<g id="edge34_Node000018_Node000006" class="edge">
<title>Node18&#45;&gt;Node6</title>
<g id="a_edge34_Node000018_Node000006"><a xlink:title=" ">
<path fill="none" stroke="#63b8ff" d="M674.65,-67.56C599.69,-55.96 450.24,-32.83 379.85,-21.93"/>
<polygon fill="#63b8ff" stroke="#63b8ff" points="380.07,-18.43 369.65,-20.36 379,-25.35 380.07,-18.43"/>
</a>
</g>
</g>
<!-- Node18&#45;&gt;Node10 -->
<g id="edge33_Node000018_Node000010" class="edge">
<title>Node18&#45;&gt;Node10</title>
<g id="a_edge33_Node000018_Node000010"><a xlink:title=" ">
<path fill="none" stroke="#63b8ff" d="M691.44,-65.99C656.94,-55.54 598.4,-37.79 561.14,-26.5"/>
<polygon fill="#63b8ff" stroke="#63b8ff" points="561.81,-23.05 551.23,-23.5 559.78,-29.75 561.81,-23.05"/>
</a>
</g>
</g>
<!-- Node18&#45;&gt;Node11 -->
<g id="edge32_Node000018_Node000011" class="edge">
<title>Node18&#45;&gt;Node11</title>
<g id="a_edge32_Node000018_Node000011"><a xlink:title=" ">
<path fill="none" stroke="#63b8ff" d="M731.6,-65.87C744.56,-56.62 765.36,-41.78 780.9,-30.69"/>
<polygon fill="#63b8ff" stroke="#63b8ff" points="783.24,-33.32 789.35,-24.67 779.18,-27.63 783.24,-33.32"/>
</a>
</g>
</g>
<!-- Node19 -->
<g id="Node000019" class="node">
<title>Node19</title>
<g id="a_Node000019"><a xlink:href="a00781_source.html" target="_top" xlink:title=" ">
<polygon fill="white" stroke="#666666" points="757.5,-30 661.5,-30 661.5,0 757.5,0 757.5,-30"/>
<text text-anchor="start" x="669.5" y="-18" font-family="Helvetica,sans-Serif" font-size="10.00">../system/interrupt</text>
<text text-anchor="middle" x="709.5" y="-7" font-family="Helvetica,sans-Serif" font-size="10.00">_types.h</text>
</a>
</g>
</g>
<!-- Node18&#45;&gt;Node19 -->
<g id="edge35_Node000018_Node000019" class="edge">
<title>Node18&#45;&gt;Node19</title>
<g id="a_edge35_Node000018_Node000019"><a xlink:title=" ">
<path fill="none" stroke="#63b8ff" d="M718.02,-65.87C716.87,-59.11 715.2,-49.35 713.65,-40.26"/>
<polygon fill="#63b8ff" stroke="#63b8ff" points="717.05,-39.38 711.91,-30.11 710.15,-40.56 717.05,-39.38"/>
</a>
</g>
</g>
<!-- Node20&#45;&gt;Node5 -->
<g id="edge39_Node000020_Node000005" class="edge">
<title>Node20&#45;&gt;Node5</title>
<g id="a_edge39_Node000020_Node000005"><a xlink:title=" ">
<path fill="none" stroke="#63b8ff" d="M578.45,-121.62C526.38,-110.84 434.14,-91.74 388.16,-82.23"/>
<polygon fill="#63b8ff" stroke="#63b8ff" points="388.8,-78.78 378.3,-80.18 387.38,-85.64 388.8,-78.78"/>
</a>
</g>
</g>
<!-- Node20&#45;&gt;Node10 -->
<g id="edge38_Node000020_Node000010" class="edge">
<title>Node20&#45;&gt;Node10</title>
<g id="a_edge38_Node000020_Node000010"><a xlink:title=" ">
<path fill="none" stroke="#63b8ff" d="M614.35,-121C610.78,-108.12 602.71,-83.34 589.5,-66 578.64,-51.74 562.83,-39.21 549.76,-30.26"/>
<polygon fill="#63b8ff" stroke="#63b8ff" points="551.53,-27.23 541.25,-24.66 547.68,-33.08 551.53,-27.23"/>
</a>
</g>
</g>
<!-- Node20&#45;&gt;Node11 -->
<g id="edge37_Node000020_Node000011" class="edge">
<title>Node20&#45;&gt;Node11</title>
<g id="a_edge37_Node000020_Node000011"><a xlink:title=" ">
<path fill="none" stroke="#63b8ff" d="M654.64,-121.83C708.73,-110.76 801.74,-91.01 806.5,-85 817.67,-70.91 814.07,-49.71 809.15,-34.53"/>
<polygon fill="#63b8ff" stroke="#63b8ff" points="812.28,-32.9 805.53,-24.73 805.71,-35.32 812.28,-32.9"/>
</a>
</g>
</g>
<!-- Node20&#45;&gt;Node18 -->
<g id="edge40_Node000020_Node000018" class="edge">
<title>Node20&#45;&gt;Node18</title>
<g id="a_edge40_Node000020_Node000018"><a xlink:title=" ">
<path fill="none" stroke="#63b8ff" d="M633.05,-120.98C649.39,-112.57 674.63,-99.59 693.63,-89.81"/>
<polygon fill="#63b8ff" stroke="#63b8ff" points="695.36,-92.86 702.65,-85.17 692.16,-86.63 695.36,-92.86"/>
</a>
</g>
</g>
</g>
</svg>

<g id="navigator" transform="translate(0 0)" fill="#404254">
  <rect fill="#f2f5e9" fill-opacity="0.5" stroke="#606060" stroke-width=".5" x="0" y="0" width="60" height="60"/>
  <use id="zoomplus" xlink:href="#zoomPlus" x="17" y="9" onmousedown="handleZoom(evt,'in')"/>
  <use id="zoomminus" xlink:href="#zoomMin" x="42" y="9" onmousedown="handleZoom(evt,'out')"/>
  <use id="reset" xlink:href="#resetDef" x="30" y="36" onmousedown="handleReset()"/>
   <use id="arrowup" xlink:href="#arrowUp" x="0" y="0" onmousedown="handlePan(0,-1)"/>
  <use id="arrowright" xlink:href="#arrowRight" x="0" y="0" onmousedown="handlePan(1,0)"/>
  <use id="arrowdown" xlink:href="#arrowDown" x="0" y="0" onmousedown="handlePan(0,1)"/>
  <use id="arrowleft" xlink:href="#arrowLeft" x="0" y="0" onmousedown="handlePan(-1,0)"/>
</g>
<svg viewBox="0 0 15 15" width="100%" height="30px" preserveAspectRatio="xMaxYMin meet">
 <g id="arrow_out" transform="scale(0.3 0.3)">
  <a xlink:href="a00252_org.svg" target="_base">
   <rect id="button" ry="5" rx="5" y="6" x="6" height="38" width="38"
        fill="#f2f5e9" fill-opacity="0.5" stroke="#606060" stroke-width="1.0"/>
   <path id="arrow"
     d="M 11.500037,31.436501 C 11.940474,20.09759 22.043105,11.32322 32.158766,21.979434 L 37.068811,17.246167 C 37.068811,17.246167 37.088388,32 37.088388,32 L 22.160133,31.978069 C 22.160133,31.978069 26.997745,27.140456 26.997745,27.140456 C 18.528582,18.264221 13.291696,25.230495 11.500037,31.436501 z"
     style="fill:#404040;"/>
  </a>
 </g>
</svg>

<style type='text/css'>
<![CDATA[
[data-mouse-over-selected='false'] { opacity: 0.7; }
[data-mouse-over-selected='true']  { opacity: 1.0; }
]]>
</style>
<script type="application/ecmascript"><![CDATA[
document.addEventListener('DOMContentLoaded', (event) => {
  highlightEdges();
  highlightAdjacentNodes();
});
]]></script>
</svg>
