<?xml version="1.0" encoding="UTF-8" standalone="no"?>
<!DOCTYPE svg PUBLIC "-//W3C//DTD SVG 1.1//EN"
 "http://www.w3.org/Graphics/SVG/1.1/DTD/svg11.dtd">
<!-- Generated by graphviz version 8.1.0 (20230707.0739)
 -->
<!-- Title: vacm_state_machine Pages: 1 -->
<svg width="566pt" height="344pt"
 viewBox="0.00 0.00 566.25 344.00" xmlns="http://www.w3.org/2000/svg" xmlns:xlink="http://www.w3.org/1999/xlink">
<g id="graph0" class="graph" transform="scale(1 1) rotate(0) translate(4 340)">
<title>vacm_state_machine</title>
<!-- Node1 -->
<g id="Node000001" class="node">
<title>Node1</title>
<g id="a_Node000001"><a xlink:title=" ">
<polygon fill="#999999" stroke="#666666" points="107.5,-184 0,-184 0,-164 107.5,-164 107.5,-184"/>
<text text-anchor="middle" x="53.75" y="-170.5" font-family="Helvetica,sans-Serif" font-size="10.00">vacm_state_machine</text>
</a>
</g>
</g>
<!-- Node2 -->
<g id="Node000002" class="node">
<title>Node2</title>
<g id="a_Node000002"><a xlink:href="a00257.html#a5e75808b2d04c2fa09dc36222aadeb5c" target="_top" xlink:title=" ">
<polygon fill="white" stroke="#666666" points="254.38,-336 152.12,-336 152.12,-316 254.38,-316 254.38,-336"/>
<text text-anchor="middle" x="203.25" y="-322.5" font-family="Helvetica,sans-Serif" font-size="10.00">vacm_capture_input</text>
</a>
</g>
</g>
<!-- Node1&#45;&gt;Node2 -->
<g id="edge1_Node000001_Node000002" class="edge">
<title>Node1&#45;&gt;Node2</title>
<g id="a_edge1_Node000001_Node000002"><a xlink:title=" ">
<path fill="none" stroke="#63b8ff" d="M58.81,-184.37C69.08,-209.29 98.56,-273.01 143.5,-307 145.2,-308.29 146.99,-309.49 148.84,-310.61"/>
<polygon fill="#63b8ff" stroke="#63b8ff" points="147.06,-314.14 157.56,-315.57 150.25,-307.9 147.06,-314.14"/>
</a>
</g>
</g>
<!-- Node3 -->
<g id="Node000003" class="node">
<title>Node3</title>
<g id="a_Node000003"><a xlink:href="a00257.html#a88354179c83ed3f823aaaab8b54def04" target="_top" xlink:title=" ">
<polygon fill="white" stroke="#666666" points="255.88,-260 150.62,-260 150.62,-240 255.88,-240 255.88,-260"/>
<text text-anchor="middle" x="203.25" y="-246.5" font-family="Helvetica,sans-Serif" font-size="10.00">vacm_state_ac_drop</text>
</a>
</g>
</g>
<!-- Node1&#45;&gt;Node3 -->
<g id="edge2_Node000001_Node000003" class="edge">
<title>Node1&#45;&gt;Node3</title>
<g id="a_edge2_Node000001_Node000003"><a xlink:title=" ">
<path fill="none" stroke="#63b8ff" d="M68.54,-184.47C85.46,-196.92 115.36,-217.69 143.5,-231 147.1,-232.7 150.9,-234.31 154.76,-235.82"/>
<polygon fill="#63b8ff" stroke="#63b8ff" points="153.42,-239.43 164.02,-239.57 155.82,-232.85 153.42,-239.43"/>
</a>
</g>
</g>
<!-- Node5 -->
<g id="Node000005" class="node">
<title>Node5</title>
<g id="a_Node000005"><a xlink:href="a00257.html#a6620ac4371af55881bc354c83de9b1a9" target="_top" xlink:title=" ">
<polygon fill="white" stroke="#666666" points="257,-70 149.5,-70 149.5,-50 257,-50 257,-70"/>
<text text-anchor="middle" x="203.25" y="-56.5" font-family="Helvetica,sans-Serif" font-size="10.00">vacm_state_ac_sync</text>
</a>
</g>
</g>
<!-- Node1&#45;&gt;Node5 -->
<g id="edge4_Node000001_Node000005" class="edge">
<title>Node1&#45;&gt;Node5</title>
<g id="a_edge4_Node000001_Node000005"><a xlink:title=" ">
<path fill="none" stroke="#63b8ff" d="M61.76,-163.51C75.29,-144.06 106.92,-102.24 143.5,-79 145.92,-77.46 148.47,-76.04 151.11,-74.72"/>
<polygon fill="#63b8ff" stroke="#63b8ff" points="152.16,-77.64 159.91,-70.41 149.34,-71.24 152.16,-77.64"/>
</a>
</g>
</g>
<!-- Node12 -->
<g id="Node000012" class="node">
<title>Node12</title>
<g id="a_Node000012"><a xlink:href="a00257.html#a438efdbe3c5bfcf7b66052f6e3f99fc1" target="_top" xlink:title=" ">
<polygon fill="white" stroke="#666666" points="260,-298 146.5,-298 146.5,-278 260,-278 260,-298"/>
<text text-anchor="middle" x="203.25" y="-284.5" font-family="Helvetica,sans-Serif" font-size="10.00">vacm_state_dc_detect</text>
</a>
</g>
</g>
<!-- Node1&#45;&gt;Node12 -->
<g id="edge12_Node000001_Node000012" class="edge">
<title>Node1&#45;&gt;Node12</title>
<g id="a_edge12_Node000001_Node000012"><a xlink:title=" ">
<path fill="none" stroke="#63b8ff" d="M61.76,-184.49C75.29,-203.94 106.92,-245.76 143.5,-269 145.92,-270.54 148.47,-271.96 151.11,-273.28"/>
<polygon fill="#63b8ff" stroke="#63b8ff" points="149.34,-276.76 159.91,-277.59 152.16,-270.36 149.34,-276.76"/>
</a>
</g>
</g>
<!-- Node14 -->
<g id="Node000014" class="node">
<title>Node14</title>
<g id="a_Node000014"><a xlink:href="a00257.html#a7b65d2b2f06bd653e747d28a897e964b" target="_top" xlink:title=" ">
<polygon fill="white" stroke="#666666" points="258.5,-222 148,-222 148,-202 258.5,-202 258.5,-222"/>
<text text-anchor="middle" x="203.25" y="-208.5" font-family="Helvetica,sans-Serif" font-size="10.00">vacm_state_dc_mode</text>
</a>
</g>
</g>
<!-- Node1&#45;&gt;Node14 -->
<g id="edge16_Node000001_Node000014" class="edge">
<title>Node1&#45;&gt;Node14</title>
<g id="a_edge16_Node000001_Node000014"><a xlink:title=" ">
<path fill="none" stroke="#63b8ff" d="M95.45,-184.48C112.7,-188.93 132.99,-194.16 151.23,-198.85"/>
<polygon fill="#63b8ff" stroke="#63b8ff" points="150.13,-202.44 160.69,-201.55 151.88,-195.67 150.13,-202.44"/>
</a>
</g>
</g>
<!-- Node15 -->
<g id="Node000015" class="node">
<title>Node15</title>
<g id="a_Node000015"><a xlink:href="a00257.html#afa82391466200dde740b703017e91eec" target="_top" xlink:title=" ">
<polygon fill="white" stroke="#666666" points="251.38,-108 155.12,-108 155.12,-88 251.38,-88 251.38,-108"/>
<text text-anchor="middle" x="203.25" y="-94.5" font-family="Helvetica,sans-Serif" font-size="10.00">vacm_state_online</text>
</a>
</g>
</g>
<!-- Node1&#45;&gt;Node15 -->
<g id="edge19_Node000001_Node000015" class="edge">
<title>Node1&#45;&gt;Node15</title>
<g id="a_edge19_Node000001_Node000015"><a xlink:title=" ">
<path fill="none" stroke="#63b8ff" d="M68.54,-163.53C85.46,-151.08 115.36,-130.31 143.5,-117 147.1,-115.3 150.9,-113.69 154.76,-112.18"/>
<polygon fill="#63b8ff" stroke="#63b8ff" points="155.82,-115.15 164.02,-108.43 153.42,-108.57 155.82,-115.15"/>
</a>
</g>
</g>
<!-- Node16 -->
<g id="Node000016" class="node">
<title>Node16</title>
<g id="a_Node000016"><a xlink:href="a00257.html#a190d0ac02bb30bdb63d3ddff1373a807" target="_top" xlink:title=" ">
<polygon fill="white" stroke="#666666" points="255.88,-184 150.62,-184 150.62,-164 255.88,-164 255.88,-184"/>
<text text-anchor="middle" x="203.25" y="-170.5" font-family="Helvetica,sans-Serif" font-size="10.00">vacm_state_standby</text>
</a>
</g>
</g>
<!-- Node1&#45;&gt;Node16 -->
<g id="edge25_Node000001_Node000016" class="edge">
<title>Node1&#45;&gt;Node16</title>
<g id="a_edge25_Node000001_Node000016"><a xlink:title=" ">
<path fill="none" stroke="#63b8ff" d="M107.58,-174C117.89,-174 128.79,-174 139.39,-174"/>
<polygon fill="#63b8ff" stroke="#63b8ff" points="139.28,-177.5 149.28,-174 139.28,-170.5 139.28,-177.5"/>
</a>
</g>
</g>
<!-- Node17 -->
<g id="Node000017" class="node">
<title>Node17</title>
<g id="a_Node000017"><a xlink:href="a00257.html#a4dbe7572d068bb830e05117273a90817" target="_top" xlink:title=" ">
<polygon fill="white" stroke="#666666" points="263,-146 143.5,-146 143.5,-126 263,-126 263,-146"/>
<text text-anchor="middle" x="203.25" y="-132.5" font-family="Helvetica,sans-Serif" font-size="10.00">vacm_state_wait_for_zc</text>
</a>
</g>
</g>
<!-- Node1&#45;&gt;Node17 -->
<g id="edge27_Node000001_Node000017" class="edge">
<title>Node1&#45;&gt;Node17</title>
<g id="a_edge27_Node000001_Node000017"><a xlink:title=" ">
<path fill="none" stroke="#63b8ff" d="M95.45,-163.52C112.7,-159.07 132.99,-153.84 151.23,-149.15"/>
<polygon fill="#63b8ff" stroke="#63b8ff" points="151.88,-152.33 160.69,-146.45 150.13,-145.56 151.88,-152.33"/>
</a>
</g>
</g>
<!-- Node18 -->
<g id="Node000018" class="node">
<title>Node18</title>
<g id="a_Node000018"><a xlink:href="a00257.html#a2cdea5653d497660110732024dff3bc2" target="_top" xlink:title=" ">
<polygon fill="white" stroke="#666666" points="263,-32 143.5,-32 143.5,0 263,0 263,-32"/>
<text text-anchor="start" x="151.5" y="-18.5" font-family="Helvetica,sans-Serif" font-size="10.00">vacm_vloop_feedforward</text>
<text text-anchor="middle" x="203.25" y="-6.5" font-family="Helvetica,sans-Serif" font-size="10.00">_update</text>
</a>
</g>
</g>
<!-- Node1&#45;&gt;Node18 -->
<g id="edge32_Node000001_Node000018" class="edge">
<title>Node1&#45;&gt;Node18</title>
<g id="a_edge32_Node000001_Node000018"><a xlink:title=" ">
<path fill="none" stroke="#63b8ff" d="M59.17,-163.52C70.03,-138.91 100.34,-76.79 143.5,-41 144.7,-40 145.95,-39.04 147.23,-38.12"/>
<polygon fill="#63b8ff" stroke="#63b8ff" points="148.56,-40.78 155.13,-32.46 144.81,-34.87 148.56,-40.78"/>
</a>
</g>
</g>
<!-- Node4 -->
<g id="Node000004" class="node">
<title>Node4</title>
<g id="a_Node000004"><a xlink:href="a00257.html#a634dc3732b7ac4380c54073b237ca710" target="_top" xlink:title=" ">
<polygon fill="white" stroke="#666666" points="433.5,-234 299,-234 299,-202 433.5,-202 433.5,-234"/>
<text text-anchor="start" x="307" y="-220.5" font-family="Helvetica,sans-Serif" font-size="10.00">vacm_reset_phase_monitor</text>
<text text-anchor="middle" x="366.25" y="-208.5" font-family="Helvetica,sans-Serif" font-size="10.00">_object</text>
</a>
</g>
</g>
<!-- Node3&#45;&gt;Node4 -->
<g id="edge3_Node000003_Node000004" class="edge">
<title>Node3&#45;&gt;Node4</title>
<g id="a_edge3_Node000003_Node000004"><a xlink:title=" ">
<path fill="none" stroke="#63b8ff" d="M256.08,-239.7C266.21,-237.68 277.04,-235.53 287.8,-233.39"/>
<polygon fill="#63b8ff" stroke="#63b8ff" points="288.38,-236.65 297.51,-231.27 287.02,-229.78 288.38,-236.65"/>
</a>
</g>
</g>
<!-- Node5&#45;&gt;Node4 -->
<g id="edge7_Node000005_Node000004" class="edge">
<title>Node5&#45;&gt;Node4</title>
<g id="a_edge7_Node000005_Node000004"><a xlink:title=" ">
<path fill="none" stroke="#63b8ff" d="M251.26,-70.47C255.58,-72.77 259.6,-75.58 263,-79 300.44,-116.7 262.48,-154.41 299,-193 299.68,-193.72 300.39,-194.42 301.12,-195.11"/>
<polygon fill="#63b8ff" stroke="#63b8ff" points="298.56,-198.33 308.62,-201.67 302.84,-192.79 298.56,-198.33"/>
</a>
</g>
</g>
<!-- Node6 -->
<g id="Node000006" class="node">
<title>Node6</title>
<g id="a_Node000006"><a xlink:href="a00257.html#a59a2d9f80fc5da34bbe8f2a364b0eb2a" target="_top" xlink:title=" ">
<polygon fill="white" stroke="#666666" points="414.75,-32 317.75,-32 317.75,-12 414.75,-12 414.75,-32"/>
<text text-anchor="middle" x="366.25" y="-18.5" font-family="Helvetica,sans-Serif" font-size="10.00">vacm_acok_assert</text>
</a>
</g>
</g>
<!-- Node5&#45;&gt;Node6 -->
<g id="edge5_Node000005_Node000006" class="edge">
<title>Node5&#45;&gt;Node6</title>
<g id="a_edge5_Node000005_Node000006"><a xlink:title=" ">
<path fill="none" stroke="#63b8ff" d="M248.67,-49.52C267.76,-45.01 290.27,-39.7 310.39,-34.95"/>
<polygon fill="#63b8ff" stroke="#63b8ff" points="311.05,-38.15 319.97,-32.45 309.44,-31.34 311.05,-38.15"/>
</a>
</g>
</g>
<!-- Node7 -->
<g id="Node000007" class="node">
<title>Node7</title>
<g id="a_Node000007"><a xlink:href="a00257.html#a128d766a414b6a9755b7586f37b92939" target="_top" xlink:title=" ">
<polygon fill="white" stroke="#666666" points="421.12,-108 311.38,-108 311.38,-88 421.12,-88 421.12,-108"/>
<text text-anchor="middle" x="366.25" y="-94.5" font-family="Helvetica,sans-Serif" font-size="10.00">vacm_polarity_update</text>
</a>
</g>
</g>
<!-- Node5&#45;&gt;Node7 -->
<g id="edge6_Node000005_Node000007" class="edge">
<title>Node5&#45;&gt;Node7</title>
<g id="a_edge6_Node000005_Node000007"><a xlink:title=" ">
<path fill="none" stroke="#63b8ff" d="M248.67,-70.48C267.76,-74.99 290.27,-80.3 310.39,-85.05"/>
<polygon fill="#63b8ff" stroke="#63b8ff" points="309.44,-88.66 319.97,-87.55 311.05,-81.85 309.44,-88.66"/>
</a>
</g>
</g>
<!-- Node8 -->
<g id="Node000008" class="node">
<title>Node8</title>
<g id="a_Node000008"><a xlink:href="a00257.html#aa3afbdf195704fcbb7fe03f05a5f1493" target="_top" xlink:title=" ">
<polygon fill="white" stroke="#666666" points="425.25,-70 307.25,-70 307.25,-50 425.25,-50 425.25,-70"/>
<text text-anchor="middle" x="366.25" y="-56.5" font-family="Helvetica,sans-Serif" font-size="10.00">vacm_timebase_update</text>
</a>
</g>
</g>
<!-- Node5&#45;&gt;Node8 -->
<g id="edge8_Node000005_Node000008" class="edge">
<title>Node5&#45;&gt;Node8</title>
<g id="a_edge8_Node000005_Node000008"><a xlink:title=" ">
<path fill="none" stroke="#63b8ff" d="M257.41,-60C269.79,-60 283.15,-60 296.11,-60"/>
<polygon fill="#63b8ff" stroke="#63b8ff" points="295.87,-63.5 305.87,-60 295.87,-56.5 295.87,-63.5"/>
</a>
</g>
</g>
<!-- Node9 -->
<g id="Node000009" class="node">
<title>Node9</title>
<g id="a_Node000009"><a xlink:href="a00257.html#a4d1cffa8629c7a211d571e6c96fe94ac" target="_top" xlink:title=" ">
<polygon fill="white" stroke="#666666" points="412.88,-184 319.62,-184 319.62,-164 412.88,-164 412.88,-184"/>
<text text-anchor="middle" x="366.25" y="-170.5" font-family="Helvetica,sans-Serif" font-size="10.00">vacm_vin_average</text>
</a>
</g>
</g>
<!-- Node5&#45;&gt;Node9 -->
<g id="edge9_Node000005_Node000009" class="edge">
<title>Node5&#45;&gt;Node9</title>
<g id="a_edge9_Node000005_Node000009"><a xlink:title=" ">
<path fill="none" stroke="#63b8ff" d="M249.63,-70.38C254.46,-72.7 259.05,-75.53 263,-79 291.08,-103.66 270.51,-130.81 299,-155 302.1,-157.63 305.55,-159.9 309.19,-161.86"/>
<polygon fill="#63b8ff" stroke="#63b8ff" points="307.65,-165.45 318.2,-166.33 310.5,-159.06 307.65,-165.45"/>
</a>
</g>
</g>
<!-- Node11 -->
<g id="Node000011" class="node">
<title>Node11</title>
<g id="a_Node000011"><a xlink:href="a00257.html#ae168f993edb4be6bef378eeb2f7d62d6" target="_top" xlink:title=" ">
<polygon fill="white" stroke="#666666" points="425.62,-146 306.88,-146 306.88,-126 425.62,-126 425.62,-146"/>
<text text-anchor="middle" x="366.25" y="-132.5" font-family="Helvetica,sans-Serif" font-size="10.00">vacm_zerocross_detect</text>
</a>
</g>
</g>
<!-- Node5&#45;&gt;Node11 -->
<g id="edge11_Node000005_Node000011" class="edge">
<title>Node5&#45;&gt;Node11</title>
<g id="a_edge11_Node000005_Node000011"><a xlink:title=" ">
<path fill="none" stroke="#63b8ff" d="M245.57,-70.44C251.65,-72.8 257.65,-75.63 263,-79 282.68,-91.41 279.12,-104.92 299,-117 301.64,-118.6 304.41,-120.07 307.28,-121.42"/>
<polygon fill="#63b8ff" stroke="#63b8ff" points="305.68,-124.97 316.26,-125.57 308.37,-118.5 305.68,-124.97"/>
</a>
</g>
</g>
<!-- Node10 -->
<g id="Node000010" class="node">
<title>Node10</title>
<g id="a_Node000010"><a xlink:href="a00257.html#aef2ab25ed304717c5d288e7053b8237f" target="_top" xlink:title=" ">
<polygon fill="white" stroke="#666666" points="558.25,-184 469.5,-184 469.5,-164 558.25,-164 558.25,-184"/>
<text text-anchor="middle" x="513.88" y="-170.5" font-family="Helvetica,sans-Serif" font-size="10.00">vacm_uv_ov_test</text>
</a>
</g>
</g>
<!-- Node9&#45;&gt;Node10 -->
<g id="edge10_Node000009_Node000010" class="edge">
<title>Node9&#45;&gt;Node10</title>
<g id="a_edge10_Node000009_Node000010"><a xlink:title=" ">
<path fill="none" stroke="#63b8ff" d="M413.33,-174C427.68,-174 443.63,-174 458.5,-174"/>
<polygon fill="#63b8ff" stroke="#63b8ff" points="458.08,-177.5 468.08,-174 458.08,-170.5 458.08,-177.5"/>
</a>
</g>
</g>
<!-- Node12&#45;&gt;Node4 -->
<g id="edge14_Node000012_Node000004" class="edge">
<title>Node12&#45;&gt;Node4</title>
<g id="a_edge14_Node000012_Node000004"><a xlink:title=" ">
<path fill="none" stroke="#63b8ff" d="M239.35,-277.6C247.22,-275.01 255.46,-272.08 263,-269 284.17,-260.35 307.01,-249.15 325.72,-239.45"/>
<polygon fill="#63b8ff" stroke="#63b8ff" points="327.14,-242.13 334.38,-234.39 323.89,-235.93 327.14,-242.13"/>
</a>
</g>
</g>
<!-- Node12&#45;&gt;Node9 -->
<g id="edge15_Node000012_Node000009" class="edge">
<title>Node12&#45;&gt;Node9</title>
<g id="a_edge15_Node000012_Node000009"><a xlink:title=" ">
<path fill="none" stroke="#63b8ff" d="M249.63,-277.62C254.46,-275.3 259.05,-272.47 263,-269 291.08,-244.34 270.51,-217.19 299,-193 302.1,-190.37 305.55,-188.1 309.19,-186.14"/>
<polygon fill="#63b8ff" stroke="#63b8ff" points="310.5,-188.94 318.2,-181.67 307.65,-182.55 310.5,-188.94"/>
</a>
</g>
</g>
<!-- Node13 -->
<g id="Node000013" class="node">
<title>Node13</title>
<g id="a_Node000013"><a xlink:href="a00257.html#a15257c326e34873ee3d4465e7837e87e" target="_top" xlink:title=" ">
<polygon fill="white" stroke="#666666" points="423.75,-298 308.75,-298 308.75,-278 423.75,-278 423.75,-298"/>
<text text-anchor="middle" x="366.25" y="-284.5" font-family="Helvetica,sans-Serif" font-size="10.00">vacm_dc_input_accept</text>
</a>
</g>
</g>
<!-- Node12&#45;&gt;Node13 -->
<g id="edge13_Node000012_Node000013" class="edge">
<title>Node12&#45;&gt;Node13</title>
<g id="a_edge13_Node000012_Node000013"><a xlink:title=" ">
<path fill="none" stroke="#63b8ff" d="M260.11,-288C272.19,-288 285.09,-288 297.57,-288"/>
<polygon fill="#63b8ff" stroke="#63b8ff" points="297.4,-291.5 307.4,-288 297.4,-284.5 297.4,-291.5"/>
</a>
</g>
</g>
<!-- Node14&#45;&gt;Node4 -->
<g id="edge17_Node000014_Node000004" class="edge">
<title>Node14&#45;&gt;Node4</title>
<g id="a_edge17_Node000014_Node000004"><a xlink:title=" ">
<path fill="none" stroke="#63b8ff" d="M258.76,-214.03C268.04,-214.38 277.83,-214.74 287.57,-215.11"/>
<polygon fill="#63b8ff" stroke="#63b8ff" points="287.39,-218.64 297.52,-215.51 287.65,-211.64 287.39,-218.64"/>
</a>
</g>
</g>
<!-- Node14&#45;&gt;Node9 -->
<g id="edge18_Node000014_Node000009" class="edge">
<title>Node14&#45;&gt;Node9</title>
<g id="a_edge18_Node000014_Node000009"><a xlink:title=" ">
<path fill="none" stroke="#63b8ff" d="M248.67,-201.52C267.76,-197.01 290.27,-191.7 310.39,-186.95"/>
<polygon fill="#63b8ff" stroke="#63b8ff" points="311.05,-190.15 319.97,-184.45 309.44,-183.34 311.05,-190.15"/>
</a>
</g>
</g>
<!-- Node15&#45;&gt;Node4 -->
<g id="edge21_Node000015_Node000004" class="edge">
<title>Node15&#45;&gt;Node4</title>
<g id="a_edge21_Node000015_Node000004"><a xlink:title=" ">
<path fill="none" stroke="#63b8ff" d="M249.63,-108.38C254.46,-110.7 259.05,-113.53 263,-117 291.08,-141.66 271.52,-167.67 299,-193 299.88,-193.81 300.79,-194.6 301.73,-195.36"/>
<polygon fill="#63b8ff" stroke="#63b8ff" points="299.52,-198.78 309.74,-201.57 303.49,-193.01 299.52,-198.78"/>
</a>
</g>
</g>
<!-- Node15&#45;&gt;Node7 -->
<g id="edge20_Node000015_Node000007" class="edge">
<title>Node15&#45;&gt;Node7</title>
<g id="a_edge20_Node000015_Node000007"><a xlink:title=" ">
<path fill="none" stroke="#63b8ff" d="M251.68,-98C266.98,-98 284.2,-98 300.52,-98"/>
<polygon fill="#63b8ff" stroke="#63b8ff" points="300.09,-101.5 310.09,-98 300.09,-94.5 300.09,-101.5"/>
</a>
</g>
</g>
<!-- Node15&#45;&gt;Node8 -->
<g id="edge22_Node000015_Node000008" class="edge">
<title>Node15&#45;&gt;Node8</title>
<g id="a_edge22_Node000015_Node000008"><a xlink:title=" ">
<path fill="none" stroke="#63b8ff" d="M248.67,-87.52C267.76,-83.01 290.27,-77.7 310.39,-72.95"/>
<polygon fill="#63b8ff" stroke="#63b8ff" points="311.05,-76.15 319.97,-70.45 309.44,-69.34 311.05,-76.15"/>
</a>
</g>
</g>
<!-- Node15&#45;&gt;Node9 -->
<g id="edge23_Node000015_Node000009" class="edge">
<title>Node15&#45;&gt;Node9</title>
<g id="a_edge23_Node000015_Node000009"><a xlink:title=" ">
<path fill="none" stroke="#63b8ff" d="M245.57,-108.44C251.65,-110.8 257.65,-113.63 263,-117 282.68,-129.41 279.12,-142.92 299,-155 302.22,-156.95 305.64,-158.71 309.18,-160.3"/>
<polygon fill="#63b8ff" stroke="#63b8ff" points="307.76,-163.9 318.35,-164.32 310.34,-157.39 307.76,-163.9"/>
</a>
</g>
</g>
<!-- Node15&#45;&gt;Node11 -->
<g id="edge24_Node000015_Node000011" class="edge">
<title>Node15&#45;&gt;Node11</title>
<g id="a_edge24_Node000015_Node000011"><a xlink:title=" ">
<path fill="none" stroke="#63b8ff" d="M248.67,-108.48C267.76,-112.99 290.27,-118.3 310.39,-123.05"/>
<polygon fill="#63b8ff" stroke="#63b8ff" points="309.44,-126.66 319.97,-125.55 311.05,-119.85 309.44,-126.66"/>
</a>
</g>
</g>
<!-- Node16&#45;&gt;Node9 -->
<g id="edge26_Node000016_Node000009" class="edge">
<title>Node16&#45;&gt;Node9</title>
<g id="a_edge26_Node000016_Node000009"><a xlink:title=" ">
<path fill="none" stroke="#63b8ff" d="M256.08,-174C272.74,-174 291.29,-174 308.31,-174"/>
<polygon fill="#63b8ff" stroke="#63b8ff" points="308.23,-177.5 318.23,-174 308.23,-170.5 308.23,-177.5"/>
</a>
</g>
</g>
<!-- Node17&#45;&gt;Node4 -->
<g id="edge29_Node000017_Node000004" class="edge">
<title>Node17&#45;&gt;Node4</title>
<g id="a_edge29_Node000017_Node000004"><a xlink:title=" ">
<path fill="none" stroke="#63b8ff" d="M245.57,-146.44C251.65,-148.8 257.65,-151.63 263,-155 282.68,-167.41 279.63,-180.12 299,-193 300.95,-194.3 302.99,-195.54 305.07,-196.73"/>
<polygon fill="#63b8ff" stroke="#63b8ff" points="303.01,-200.13 313.5,-201.61 306.23,-193.91 303.01,-200.13"/>
</a>
</g>
</g>
<!-- Node17&#45;&gt;Node7 -->
<g id="edge28_Node000017_Node000007" class="edge">
<title>Node17&#45;&gt;Node7</title>
<g id="a_edge28_Node000017_Node000007"><a xlink:title=" ">
<path fill="none" stroke="#63b8ff" d="M248.67,-125.52C267.76,-121.01 290.27,-115.7 310.39,-110.95"/>
<polygon fill="#63b8ff" stroke="#63b8ff" points="311.05,-114.15 319.97,-108.45 309.44,-107.34 311.05,-114.15"/>
</a>
</g>
</g>
<!-- Node17&#45;&gt;Node9 -->
<g id="edge30_Node000017_Node000009" class="edge">
<title>Node17&#45;&gt;Node9</title>
<g id="a_edge30_Node000017_Node000009"><a xlink:title=" ">
<path fill="none" stroke="#63b8ff" d="M248.67,-146.48C267.76,-150.99 290.27,-156.3 310.39,-161.05"/>
<polygon fill="#63b8ff" stroke="#63b8ff" points="309.44,-164.66 319.97,-163.55 311.05,-157.85 309.44,-164.66"/>
</a>
</g>
</g>
<!-- Node17&#45;&gt;Node11 -->
<g id="edge31_Node000017_Node000011" class="edge">
<title>Node17&#45;&gt;Node11</title>
<g id="a_edge31_Node000017_Node000011"><a xlink:title=" ">
<path fill="none" stroke="#63b8ff" d="M263.29,-136C273.85,-136 284.95,-136 295.78,-136"/>
<polygon fill="#63b8ff" stroke="#63b8ff" points="295.49,-139.5 305.49,-136 295.49,-132.5 295.49,-139.5"/>
</a>
</g>
</g>
</g>
</svg>
