<?xml version="1.0" encoding="UTF-8" standalone="no"?>
<!DOCTYPE svg PUBLIC "-//W3C//DTD SVG 1.1//EN"
 "http://www.w3.org/Graphics/SVG/1.1/DTD/svg11.dtd">
<!-- Generated by graphviz version 2.44.1 (20200629.0846)
 -->
<!-- Title: C:/Users/M70027/Documents/Projects/tp&#45;deployment/dspic33ch&#45;power&#45;totem&#45;pole&#45;demonstration&#45;application&#45;single&#45;phase_v2/dspic33ch_totem_pole_single_phase_primary_IL.X/mcc_generated_files/timer/src/sccp1.c Pages: 1 -->
<svg width="330pt" height="269pt"
 viewBox="0.00 0.00 329.50 269.00" xmlns="http://www.w3.org/2000/svg" xmlns:xlink="http://www.w3.org/1999/xlink">
<g id="graph0" class="graph" transform="scale(1 1) rotate(0) translate(4 265)">
<title>C:/Users/M70027/Documents/Projects/tp&#45;deployment/dspic33ch&#45;power&#45;totem&#45;pole&#45;demonstration&#45;application&#45;single&#45;phase_v2/dspic33ch_totem_pole_single_phase_primary_IL.X/mcc_generated_files/timer/src/sccp1.c</title>
<!-- Node1 -->
<g id="Node000001" class="node">
<title>Node1</title>
<g id="a_Node000001"><a xlink:title="This is the generated driver source file for SCCP1&#45;TIMER driver.">
<polygon fill="#999999" stroke="#666666" points="321,-261 133,-261 133,-176 321,-176 321,-261"/>
<text text-anchor="start" x="141" y="-249" font-family="Helvetica,sans-Serif" font-size="10.00">C:/Users/M70027/Documents</text>
<text text-anchor="start" x="141" y="-238" font-family="Helvetica,sans-Serif" font-size="10.00">/Projects/tp&#45;deployment</text>
<text text-anchor="start" x="141" y="-227" font-family="Helvetica,sans-Serif" font-size="10.00">/dspic33ch&#45;power&#45;totem&#45;pole</text>
<text text-anchor="start" x="141" y="-216" font-family="Helvetica,sans-Serif" font-size="10.00">&#45;demonstration&#45;application</text>
<text text-anchor="start" x="141" y="-205" font-family="Helvetica,sans-Serif" font-size="10.00">&#45;single&#45;phase_v2/dspic33ch_totem</text>
<text text-anchor="start" x="141" y="-194" font-family="Helvetica,sans-Serif" font-size="10.00">_pole_single_phase_primary_IL.X</text>
<text text-anchor="middle" x="227" y="-183" font-family="Helvetica,sans-Serif" font-size="10.00">/mcc_generated_files/timer/src/sccp1.c</text>
</a>
</g>
</g>
<!-- Node2 -->
<g id="Node000002" class="node">
<title>Node2</title>
<g id="a_Node000002"><a xlink:title=" ">
<polygon fill="#e0e0e0" stroke="#999999" points="321.5,-24.5 270.5,-24.5 270.5,-5.5 321.5,-5.5 321.5,-24.5"/>
<text text-anchor="middle" x="296" y="-12.5" font-family="Helvetica,sans-Serif" font-size="10.00">stddef.h</text>
</a>
</g>
</g>
<!-- Node1&#45;&gt;Node2 -->
<g id="edge1_Node000001_Node000002" class="edge">
<title>Node1&#45;&gt;Node2</title>
<g id="a_edge1_Node000001_Node000002"><a xlink:title=" ">
<path fill="none" stroke="#63b8ff" d="M254.64,-175.92C269.73,-150.76 286.93,-117.36 295,-85 299.12,-68.47 298.97,-49.02 298.03,-34.99"/>
<polygon fill="#63b8ff" stroke="#63b8ff" points="301.48,-34.32 297.12,-24.66 294.51,-34.93 301.48,-34.32"/>
</a>
</g>
</g>
<!-- Node3 -->
<g id="Node000003" class="node">
<title>Node3</title>
<g id="a_Node000003"><a xlink:href="a00203.html" target="_top" xlink:title="This is the generated driver header file for the SCCP1&#45;TIMER driver.">
<polygon fill="white" stroke="#666666" points="257,-140 197,-140 197,-121 257,-121 257,-140"/>
<text text-anchor="middle" x="227" y="-128" font-family="Helvetica,sans-Serif" font-size="10.00">../sccp1.h</text>
</a>
</g>
</g>
<!-- Node1&#45;&gt;Node3 -->
<g id="edge2_Node000001_Node000003" class="edge">
<title>Node1&#45;&gt;Node3</title>
<g id="a_edge2_Node000001_Node000003"><a xlink:title=" ">
<path fill="none" stroke="#63b8ff" d="M227,-175.76C227,-166.78 227,-157.73 227,-150.17"/>
<polygon fill="#63b8ff" stroke="#63b8ff" points="230.5,-150.05 227,-140.05 223.5,-150.05 230.5,-150.05"/>
</a>
</g>
</g>
<!-- Node6 -->
<g id="Node000006" class="node">
<title>Node6</title>
<g id="a_Node000006"><a xlink:href="a00883_source.html" target="_top" xlink:title=" ">
<polygon fill="white" stroke="#666666" points="175.5,-85 86.5,-85 86.5,-66 175.5,-66 175.5,-85"/>
<text text-anchor="middle" x="131" y="-73" font-family="Helvetica,sans-Serif" font-size="10.00">timer_interface.h</text>
</a>
</g>
</g>
<!-- Node1&#45;&gt;Node6 -->
<g id="edge11_Node000001_Node000006" class="edge">
<title>Node1&#45;&gt;Node6</title>
<g id="a_edge11_Node000001_Node000006"><a xlink:title=" ">
<path fill="none" stroke="#63b8ff" d="M198.72,-175.96C180,-148.47 156.44,-113.87 142.62,-93.57"/>
<polygon fill="#63b8ff" stroke="#63b8ff" points="145.36,-91.38 136.84,-85.08 139.58,-95.32 145.36,-91.38"/>
</a>
</g>
</g>
<!-- Node3&#45;&gt;Node2 -->
<g id="edge3_Node000003_Node000002" class="edge">
<title>Node3&#45;&gt;Node2</title>
<g id="a_edge3_Node000003_Node000002"><a xlink:title=" ">
<path fill="none" stroke="#63b8ff" d="M240.43,-120.86C251.8,-112.88 267.68,-100 277,-85 286.52,-69.68 291.36,-49.54 293.75,-34.98"/>
<polygon fill="#63b8ff" stroke="#63b8ff" points="297.27,-35.09 295.2,-24.7 290.34,-34.11 297.27,-35.09"/>
</a>
</g>
</g>
<!-- Node4 -->
<g id="Node000004" class="node">
<title>Node4</title>
<g id="a_Node000004"><a xlink:title=" ">
<polygon fill="#e0e0e0" stroke="#999999" points="237.5,-24.5 188.5,-24.5 188.5,-5.5 237.5,-5.5 237.5,-24.5"/>
<text text-anchor="middle" x="213" y="-12.5" font-family="Helvetica,sans-Serif" font-size="10.00">stdint.h</text>
</a>
</g>
</g>
<!-- Node3&#45;&gt;Node4 -->
<g id="edge4_Node000003_Node000004" class="edge">
<title>Node3&#45;&gt;Node4</title>
<g id="a_edge4_Node000003_Node000004"><a xlink:title=" ">
<path fill="none" stroke="#63b8ff" d="M225.95,-120.97C223.7,-102.73 218.37,-59.57 215.3,-34.64"/>
<polygon fill="#63b8ff" stroke="#63b8ff" points="218.76,-34.13 214.06,-24.63 211.82,-34.98 218.76,-34.13"/>
</a>
</g>
</g>
<!-- Node5 -->
<g id="Node000005" class="node">
<title>Node5</title>
<g id="a_Node000005"><a xlink:title=" ">
<polygon fill="#e0e0e0" stroke="#999999" points="267.5,-85 232.5,-85 232.5,-66 267.5,-66 267.5,-85"/>
<text text-anchor="middle" x="250" y="-73" font-family="Helvetica,sans-Serif" font-size="10.00">xc.h</text>
</a>
</g>
</g>
<!-- Node3&#45;&gt;Node5 -->
<g id="edge5_Node000003_Node000005" class="edge">
<title>Node3&#45;&gt;Node5</title>
<g id="a_edge5_Node000003_Node000005"><a xlink:title=" ">
<path fill="none" stroke="#63b8ff" d="M230.8,-120.75C233.91,-113.57 238.42,-103.18 242.29,-94.27"/>
<polygon fill="#63b8ff" stroke="#63b8ff" points="245.5,-95.66 246.27,-85.09 239.08,-92.87 245.5,-95.66"/>
</a>
</g>
</g>
<!-- Node3&#45;&gt;Node6 -->
<g id="edge6_Node000003_Node000006" class="edge">
<title>Node3&#45;&gt;Node6</title>
<g id="a_edge6_Node000003_Node000006"><a xlink:title=" ">
<path fill="none" stroke="#63b8ff" d="M211.58,-120.98C196.55,-112.69 173.46,-99.94 155.84,-90.22"/>
<polygon fill="#63b8ff" stroke="#63b8ff" points="157.15,-86.94 146.7,-85.17 153.77,-93.07 157.15,-86.94"/>
</a>
</g>
</g>
<!-- Node6&#45;&gt;Node2 -->
<g id="edge7_Node000006_Node000002" class="edge">
<title>Node6&#45;&gt;Node2</title>
<g id="a_edge7_Node000006_Node000002"><a xlink:title=" ">
<path fill="none" stroke="#63b8ff" d="M154.99,-65.99C183.22,-55.99 230.28,-39.3 262.19,-27.99"/>
<polygon fill="#63b8ff" stroke="#63b8ff" points="263.72,-31.16 271.98,-24.52 261.38,-24.56 263.72,-31.16"/>
</a>
</g>
</g>
<!-- Node6&#45;&gt;Node4 -->
<g id="edge8_Node000006_Node000004" class="edge">
<title>Node6&#45;&gt;Node4</title>
<g id="a_edge8_Node000006_Node000004"><a xlink:title=" ">
<path fill="none" stroke="#63b8ff" d="M143.1,-65.87C156.06,-56.62 176.86,-41.78 192.4,-30.69"/>
<polygon fill="#63b8ff" stroke="#63b8ff" points="194.74,-33.32 200.85,-24.67 190.68,-27.63 194.74,-33.32"/>
</a>
</g>
</g>
<!-- Node7 -->
<g id="Node000007" class="node">
<title>Node7</title>
<g id="a_Node000007"><a xlink:title=" ">
<polygon fill="#e0e0e0" stroke="#999999" points="56,-24.5 0,-24.5 0,-5.5 56,-5.5 56,-24.5"/>
<text text-anchor="middle" x="28" y="-12.5" font-family="Helvetica,sans-Serif" font-size="10.00">stdbool.h</text>
</a>
</g>
</g>
<!-- Node6&#45;&gt;Node7 -->
<g id="edge9_Node000006_Node000007" class="edge">
<title>Node6&#45;&gt;Node7</title>
<g id="a_edge9_Node000006_Node000007"><a xlink:title=" ">
<path fill="none" stroke="#63b8ff" d="M115.8,-65.87C98.99,-56.32 71.68,-40.81 51.98,-29.62"/>
<polygon fill="#63b8ff" stroke="#63b8ff" points="53.68,-26.56 43.26,-24.67 50.23,-32.65 53.68,-26.56"/>
</a>
</g>
</g>
<!-- Node8 -->
<g id="Node000008" class="node">
<title>Node8</title>
<g id="a_Node000008"><a xlink:href="a00781_source.html" target="_top" xlink:title=" ">
<polygon fill="white" stroke="#666666" points="170,-30 74,-30 74,0 170,0 170,-30"/>
<text text-anchor="start" x="82" y="-18" font-family="Helvetica,sans-Serif" font-size="10.00">../system/interrupt</text>
<text text-anchor="middle" x="122" y="-7" font-family="Helvetica,sans-Serif" font-size="10.00">_types.h</text>
</a>
</g>
</g>
<!-- Node6&#45;&gt;Node8 -->
<g id="edge10_Node000006_Node000008" class="edge">
<title>Node6&#45;&gt;Node8</title>
<g id="a_edge10_Node000006_Node000008"><a xlink:title=" ">
<path fill="none" stroke="#63b8ff" d="M129.67,-65.87C128.63,-59.11 127.13,-49.35 125.73,-40.26"/>
<polygon fill="#63b8ff" stroke="#63b8ff" points="129.15,-39.47 124.17,-30.11 122.23,-40.53 129.15,-39.47"/>
</a>
</g>
</g>
</g>
</svg>
