<?xml version="1.0" encoding="UTF-8" standalone="no"?>
<!DOCTYPE svg PUBLIC "-//W3C//DTD SVG 1.1//EN"
 "http://www.w3.org/Graphics/SVG/1.1/DTD/svg11.dtd">
<!-- Generated by graphviz version 8.1.0 (20230707.0739)
 -->
<!-- Title: Housekeeping_Flags_Update Pages: 1 -->
<svg width="310pt" height="104pt"
 viewBox="0.00 0.00 310.00 104.00" xmlns="http://www.w3.org/2000/svg" xmlns:xlink="http://www.w3.org/1999/xlink">
<g id="graph0" class="graph" transform="scale(1 1) rotate(0) translate(4 100)">
<title>Housekeeping_Flags_Update</title>
<!-- Node1 -->
<g id="Node000001" class="node">
<title>Node1</title>
<g id="a_Node000001"><a xlink:title=" ">
<polygon fill="#999999" stroke="#666666" points="106.75,-64 0,-64 0,-32 106.75,-32 106.75,-64"/>
<text text-anchor="start" x="8" y="-50.5" font-family="Helvetica,sans-Serif" font-size="10.00">Housekeeping_Flags</text>
<text text-anchor="middle" x="53.38" y="-38.5" font-family="Helvetica,sans-Serif" font-size="10.00">_Update</text>
</a>
</g>
</g>
<!-- Node2 -->
<g id="Node000002" class="node">
<title>Node2</title>
<g id="a_Node000002"><a xlink:href="a00239.html#a5fe2662b714b85fd1b430cf48528c656" target="_top" xlink:title=" ">
<polygon fill="white" stroke="#666666" points="284.38,-96 160.38,-96 160.38,-76 284.38,-76 284.38,-96"/>
<text text-anchor="middle" x="222.38" y="-82.5" font-family="Helvetica,sans-Serif" font-size="10.00">Drv_I2C_Get_Write_Data</text>
</a>
</g>
</g>
<!-- Node1&#45;&gt;Node2 -->
<g id="edge1_Node000001_Node000002" class="edge">
<title>Node1&#45;&gt;Node2</title>
<g id="a_edge1_Node000001_Node000002"><a xlink:title=" ">
<path fill="none" stroke="#63b8ff" d="M107.21,-60.02C125.51,-64.19 146.08,-68.87 164.67,-73.1"/>
<polygon fill="#63b8ff" stroke="#63b8ff" points="163.83,-76.72 174.35,-75.53 165.38,-69.9 163.83,-76.72"/>
</a>
</g>
</g>
<!-- Node3 -->
<g id="Node000003" class="node">
<title>Node3</title>
<g id="a_Node000003"><a xlink:href="a00251.html#af3fad6443af569b0da78810b219ebaaf" target="_top" xlink:title=" ">
<polygon fill="white" stroke="#666666" points="302,-58 142.75,-58 142.75,-38 302,-38 302,-58"/>
<text text-anchor="middle" x="222.38" y="-44.5" font-family="Helvetica,sans-Serif" font-size="10.00">Drv_SPI_get_ChecksumOK_Flag</text>
</a>
</g>
</g>
<!-- Node1&#45;&gt;Node3 -->
<g id="edge2_Node000001_Node000003" class="edge">
<title>Node1&#45;&gt;Node3</title>
<g id="a_edge2_Node000001_Node000003"><a xlink:title=" ">
<path fill="none" stroke="#63b8ff" d="M107.21,-48C114.99,-48 123.17,-48 131.44,-48"/>
<polygon fill="#63b8ff" stroke="#63b8ff" points="131.34,-51.5 141.34,-48 131.34,-44.5 131.34,-51.5"/>
</a>
</g>
</g>
<!-- Node4 -->
<g id="Node000004" class="node">
<title>Node4</title>
<g id="a_Node000004"><a xlink:href="a00251.html#a0c28951a0ab80e65e5bd85682bf5920a" target="_top" xlink:title=" ">
<polygon fill="white" stroke="#666666" points="294.88,-20 149.88,-20 149.88,0 294.88,0 294.88,-20"/>
<text text-anchor="middle" x="222.38" y="-6.5" font-family="Helvetica,sans-Serif" font-size="10.00">Drv_SPI_get_Connected_Flag</text>
</a>
</g>
</g>
<!-- Node1&#45;&gt;Node4 -->
<g id="edge3_Node000001_Node000004" class="edge">
<title>Node1&#45;&gt;Node4</title>
<g id="a_edge3_Node000001_Node000004"><a xlink:title=" ">
<path fill="none" stroke="#63b8ff" d="M107.21,-35.98C125.51,-31.81 146.08,-27.13 164.67,-22.9"/>
<polygon fill="#63b8ff" stroke="#63b8ff" points="165.38,-26.1 174.35,-20.47 163.83,-19.28 165.38,-26.1"/>
</a>
</g>
</g>
</g>
</svg>
