<?xml version="1.0" encoding="UTF-8" standalone="no"?>
<!DOCTYPE svg PUBLIC "-//W3C//DTD SVG 1.1//EN"
 "http://www.w3.org/Graphics/SVG/1.1/DTD/svg11.dtd">
<!-- Generated by graphviz version 2.44.1 (20200629.0846)
 -->
<!-- Title: DMA_Channel_updateStatusAndSendData Pages: 1 -->
<svg width="514pt" height="38pt"
 viewBox="0.00 0.00 514.00 38.00" xmlns="http://www.w3.org/2000/svg" xmlns:xlink="http://www.w3.org/1999/xlink">
<g id="graph0" class="graph" transform="scale(1 1) rotate(0) translate(4 34)">
<title>DMA_Channel_updateStatusAndSendData</title>
<!-- Node1 -->
<g id="Node000001" class="node">
<title>Node1</title>
<g id="a_Node000001"><a xlink:title=" ">
<polygon fill="#999999" stroke="#666666" points="142,-30 0,-30 0,0 142,0 142,-30"/>
<text text-anchor="start" x="8" y="-18" font-family="Helvetica,sans-Serif" font-size="10.00">DMA_Channel_updateStatus</text>
<text text-anchor="middle" x="71" y="-7" font-family="Helvetica,sans-Serif" font-size="10.00">AndSendData</text>
</a>
</g>
</g>
<!-- Node2 -->
<g id="Node000002" class="node">
<title>Node2</title>
<g id="a_Node000002"><a xlink:href="a00421.html#gab313dfcda98b03477bba5f3812dbb3cc" target="_top" xlink:title="This routine writes data to mailbox.">
<polygon fill="white" stroke="#666666" points="318,-24.5 178,-24.5 178,-5.5 318,-5.5 318,-24.5"/>
<text text-anchor="middle" x="248" y="-12.5" font-family="Helvetica,sans-Serif" font-size="10.00">SEC_CORE1_ProtocolWrite</text>
</a>
</g>
</g>
<!-- Node1&#45;&gt;Node2 -->
<g id="edge1_Node000001_Node000002" class="edge">
<title>Node1&#45;&gt;Node2</title>
<g id="a_edge1_Node000001_Node000002"><a xlink:title=" ">
<path fill="none" stroke="#63b8ff" d="M142.17,-15C150.65,-15 159.35,-15 167.94,-15"/>
<polygon fill="#63b8ff" stroke="#63b8ff" points="167.95,-18.5 177.95,-15 167.95,-11.5 167.95,-18.5"/>
</a>
</g>
</g>
<!-- Node3 -->
<g id="Node000003" class="node">
<title>Node3</title>
<g id="a_Node000003"><a xlink:href="a00421.html#ga7048b9c95d3c78e856b4af93f8bac646" target="_top" xlink:title="This inline function checks whether mailbox is empty. Returns true if Protocol is empty indicating ma...">
<polygon fill="white" stroke="#666666" points="506,-24.5 354,-24.5 354,-5.5 506,-5.5 506,-24.5"/>
<text text-anchor="middle" x="430" y="-12.5" font-family="Helvetica,sans-Serif" font-size="10.00">SEC_CORE1_ProtocolIsEmpty</text>
</a>
</g>
</g>
<!-- Node2&#45;&gt;Node3 -->
<g id="edge2_Node000002_Node000003" class="edge">
<title>Node2&#45;&gt;Node3</title>
<g id="a_edge2_Node000002_Node000003"><a xlink:title=" ">
<path fill="none" stroke="#63b8ff" d="M318.08,-15C326.49,-15 335.15,-15 343.76,-15"/>
<polygon fill="#63b8ff" stroke="#63b8ff" points="343.82,-18.5 353.82,-15 343.82,-11.5 343.82,-18.5"/>
</a>
</g>
</g>
</g>
</svg>
