<?xml version="1.0" encoding="UTF-8" standalone="no"?>
<!DOCTYPE svg PUBLIC "-//W3C//DTD SVG 1.1//EN"
 "http://www.w3.org/Graphics/SVG/1.1/DTD/svg11.dtd">
<!-- Generated by graphviz version 8.1.0 (20230707.0739)
 -->
<!-- Title: D:/Firmware/MCU16ASMPS_TestEnvironment/_deployment/dspic33ch&#45;power&#45;totem&#45;pole&#45;demonstration&#45;application&#45;single&#45;phase/dspic33ch_totem_pole_single_phase_primary_IL.X/sources/driver/dma/drv_dma.c Pages: 1 -->
<svg width="1340pt" height="304pt"
 viewBox="0.00 0.00 1339.77 304.00" xmlns="http://www.w3.org/2000/svg" xmlns:xlink="http://www.w3.org/1999/xlink">
<g id="graph0" class="graph" transform="scale(1 1) rotate(0) translate(4 300)">
<title>D:/Firmware/MCU16ASMPS_TestEnvironment/_deployment/dspic33ch&#45;power&#45;totem&#45;pole&#45;demonstration&#45;application&#45;single&#45;phase/dspic33ch_totem_pole_single_phase_primary_IL.X/sources/driver/dma/drv_dma.c</title>
<!-- Node1 -->
<g id="Node000001" class="node">
<title>Node1</title>
<g id="a_Node000001"><a xlink:title="This is the driver source file for DMA driver.">
<polygon fill="#999999" stroke="#666666" points="616.38,-296 439.88,-296 439.88,-204 616.38,-204 616.38,-296"/>
<text text-anchor="start" x="447.88" y="-282.5" font-family="Helvetica,sans-Serif" font-size="10.00">D:/Firmware/MCU16ASMPS</text>
<text text-anchor="start" x="447.88" y="-270.5" font-family="Helvetica,sans-Serif" font-size="10.00">_TestEnvironment/_deployment</text>
<text text-anchor="start" x="447.88" y="-258.5" font-family="Helvetica,sans-Serif" font-size="10.00">/dspic33ch&#45;power&#45;totem&#45;pole</text>
<text text-anchor="start" x="447.88" y="-246.5" font-family="Helvetica,sans-Serif" font-size="10.00">&#45;demonstration&#45;application&#45;single</text>
<text text-anchor="start" x="447.88" y="-234.5" font-family="Helvetica,sans-Serif" font-size="10.00">&#45;phase/dspic33ch_totem_pole_single</text>
<text text-anchor="start" x="447.88" y="-222.5" font-family="Helvetica,sans-Serif" font-size="10.00">_phase_primary_IL.X/sources/driver</text>
<text text-anchor="middle" x="528.12" y="-210.5" font-family="Helvetica,sans-Serif" font-size="10.00">/dma/drv_dma.c</text>
</a>
</g>
</g>
<!-- Node2 -->
<g id="Node000002" class="node">
<title>Node2</title>
<g id="a_Node000002"><a xlink:title=" ">
<polygon fill="#e0e0e0" stroke="#999999" points="48.25,-162 0,-162 0,-142 48.25,-142 48.25,-162"/>
<text text-anchor="middle" x="24.12" y="-148.5" font-family="Helvetica,sans-Serif" font-size="10.00">string.h</text>
</a>
</g>
</g>
<!-- Node1&#45;&gt;Node2 -->
<g id="edge1_Node000001_Node000002" class="edge">
<title>Node1&#45;&gt;Node2</title>
<g id="a_edge1_Node000001_Node000002"><a xlink:title=" ">
<path fill="none" stroke="#63b8ff" d="M439.75,-240.64C343.9,-230 187.18,-208.01 57.12,-168 55.62,-167.54 54.1,-167.02 52.57,-166.47"/>
<polygon fill="#63b8ff" stroke="#63b8ff" points="54.23,-162.96 43.65,-162.42 51.59,-169.44 54.23,-162.96"/>
</a>
</g>
</g>
<!-- Node3 -->
<g id="Node000003" class="node">
<title>Node3</title>
<g id="a_Node000003"><a xlink:title=" ">
<polygon fill="#e0e0e0" stroke="#999999" points="143.88,-162 66.38,-162 66.38,-142 143.88,-142 143.88,-162"/>
<text text-anchor="middle" x="105.12" y="-148.5" font-family="Helvetica,sans-Serif" font-size="10.00">system/pins.h</text>
</a>
</g>
</g>
<!-- Node1&#45;&gt;Node3 -->
<g id="edge2_Node000001_Node000003" class="edge">
<title>Node1&#45;&gt;Node3</title>
<g id="a_edge2_Node000001_Node000003"><a xlink:title=" ">
<path fill="none" stroke="#63b8ff" d="M439.56,-231.18C364.38,-215.67 253.8,-191.99 158.12,-168 154.74,-167.15 151.24,-166.24 147.73,-165.3"/>
<polygon fill="#63b8ff" stroke="#63b8ff" points="148.84,-161.7 138.27,-162.43 146.99,-168.45 148.84,-161.7"/>
</a>
</g>
</g>
<!-- Node4 -->
<g id="Node000004" class="node">
<title>Node4</title>
<g id="a_Node000004"><a xlink:href="a00125_source.html" target="_top" xlink:title=" ">
<polygon fill="white" stroke="#666666" points="522,-94 418.25,-94 418.25,-62 522,-62 522,-94"/>
<text text-anchor="start" x="426.25" y="-80.5" font-family="Helvetica,sans-Serif" font-size="10.00">secondary_core/sec</text>
<text text-anchor="middle" x="470.12" y="-68.5" font-family="Helvetica,sans-Serif" font-size="10.00">_core_interface.h</text>
</a>
</g>
</g>
<!-- Node1&#45;&gt;Node4 -->
<g id="edge3_Node000001_Node000004" class="edge">
<title>Node1&#45;&gt;Node4</title>
<g id="a_edge3_Node000001_Node000004"><a xlink:title=" ">
<path fill="none" stroke="#63b8ff" d="M512.73,-203.89C501.93,-172.22 487.86,-130.98 478.91,-104.75"/>
<polygon fill="#63b8ff" stroke="#63b8ff" points="481.95,-103.82 475.41,-95.49 475.33,-106.08 481.95,-103.82"/>
</a>
</g>
</g>
<!-- Node9 -->
<g id="Node000009" class="node">
<title>Node9</title>
<g id="a_Node000009"><a xlink:href="a00254.html" target="_top" xlink:title="This is the driver source file for spi builds upon mcc.">
<polygon fill="white" stroke="#666666" points="955.88,-88 860.38,-88 860.38,-68 955.88,-68 955.88,-88"/>
<text text-anchor="middle" x="908.12" y="-74.5" font-family="Helvetica,sans-Serif" font-size="10.00">driver/spi/drv_spi.h</text>
</a>
</g>
</g>
<!-- Node1&#45;&gt;Node9 -->
<g id="edge8_Node000001_Node000009" class="edge">
<title>Node1&#45;&gt;Node9</title>
<g id="a_edge8_Node000001_Node000009"><a xlink:title=" ">
<path fill="none" stroke="#63b8ff" d="M616.74,-209.36C700.35,-171.95 821.02,-117.97 877.19,-92.84"/>
<polygon fill="#63b8ff" stroke="#63b8ff" points="878.2,-95.77 885.9,-88.49 875.35,-89.38 878.2,-95.77"/>
</a>
</g>
</g>
<!-- Node11 -->
<g id="Node000011" class="node">
<title>Node11</title>
<g id="a_Node000011"><a xlink:href="a00230.html" target="_top" xlink:title="header of the CAN Driver">
<polygon fill="white" stroke="#666666" points="1075.88,-88 974.38,-88 974.38,-68 1075.88,-68 1075.88,-88"/>
<text text-anchor="middle" x="1025.12" y="-74.5" font-family="Helvetica,sans-Serif" font-size="10.00">driver/can/drv_can.h</text>
</a>
</g>
</g>
<!-- Node1&#45;&gt;Node11 -->
<g id="edge11_Node000001_Node000011" class="edge">
<title>Node1&#45;&gt;Node11</title>
<g id="a_edge11_Node000001_Node000011"><a xlink:title=" ">
<path fill="none" stroke="#63b8ff" d="M616.5,-219.1C704.82,-189.16 844.47,-141.68 965.12,-100 972.5,-97.45 980.37,-94.71 987.91,-92.08"/>
<polygon fill="#63b8ff" stroke="#63b8ff" points="988.98,-95.06 997.26,-88.45 986.67,-88.46 988.98,-95.06"/>
</a>
</g>
</g>
<!-- Node12 -->
<g id="Node000012" class="node">
<title>Node12</title>
<g id="a_Node000012"><a xlink:href="a00260.html" target="_top" xlink:title="header of the VAC">
<polygon fill="white" stroke="#666666" points="1120.75,-168 1027.5,-168 1027.5,-136 1120.75,-136 1120.75,-168"/>
<text text-anchor="start" x="1035.5" y="-154.5" font-family="Helvetica,sans-Serif" font-size="10.00">driver/vac_monitor</text>
<text text-anchor="middle" x="1074.12" y="-142.5" font-family="Helvetica,sans-Serif" font-size="10.00">/vac_monitor.h</text>
</a>
</g>
</g>
<!-- Node1&#45;&gt;Node12 -->
<g id="edge13_Node000001_Node000012" class="edge">
<title>Node1&#45;&gt;Node12</title>
<g id="a_edge13_Node000001_Node000012"><a xlink:title=" ">
<path fill="none" stroke="#63b8ff" d="M616.76,-233.42C729.59,-213.58 921.28,-179.87 1016.67,-163.1"/>
<polygon fill="#63b8ff" stroke="#63b8ff" points="1017.02,-166.42 1026.26,-161.24 1015.8,-159.52 1017.02,-166.42"/>
</a>
</g>
</g>
<!-- Node17 -->
<g id="Node000017" class="node">
<title>Node17</title>
<g id="a_Node000017"><a xlink:href="a00107.html" target="_top" xlink:title="This is the generated driver header file for the DMA driver.">
<polygon fill="white" stroke="#666666" points="406.5,-162 341.75,-162 341.75,-142 406.5,-142 406.5,-162"/>
<text text-anchor="middle" x="374.12" y="-148.5" font-family="Helvetica,sans-Serif" font-size="10.00">dma/dma.h</text>
</a>
</g>
</g>
<!-- Node1&#45;&gt;Node17 -->
<g id="edge22_Node000001_Node000017" class="edge">
<title>Node1&#45;&gt;Node17</title>
<g id="a_edge22_Node000001_Node000017"><a xlink:title=" ">
<path fill="none" stroke="#63b8ff" d="M455.18,-203.53C434.78,-190.81 413.99,-177.85 398.57,-168.24"/>
<polygon fill="#63b8ff" stroke="#63b8ff" points="400.61,-164.77 390.28,-162.45 396.91,-170.71 400.61,-164.77"/>
</a>
</g>
</g>
<!-- Node18 -->
<g id="Node000018" class="node">
<title>Node18</title>
<g id="a_Node000018"><a xlink:href="a00113.html" target="_top" xlink:title="This is the generated driver types header file for the DMA driver.">
<polygon fill="white" stroke="#666666" points="246.25,-20 174,-20 174,0 246.25,0 246.25,-20"/>
<text text-anchor="middle" x="210.12" y="-6.5" font-family="Helvetica,sans-Serif" font-size="10.00">dma_types.h</text>
</a>
</g>
</g>
<!-- Node1&#45;&gt;Node18 -->
<g id="edge31_Node000001_Node000018" class="edge">
<title>Node1&#45;&gt;Node18</title>
<g id="a_edge31_Node000001_Node000018"><a xlink:title=" ">
<path fill="none" stroke="#63b8ff" d="M439.51,-231.52C368.02,-212.34 271.65,-173.89 223.12,-100 209.63,-79.45 207.82,-50.52 208.42,-31.29"/>
<polygon fill="#63b8ff" stroke="#63b8ff" points="211.96,-31.66 209.05,-21.48 204.97,-31.26 211.96,-31.66"/>
</a>
</g>
</g>
<!-- Node20 -->
<g id="Node000020" class="node">
<title>Node20</title>
<g id="a_Node000020"><a xlink:href="a00122.html" target="_top" xlink:title="This is the generated driver header file for the SEC_CORE1 driver.">
<polygon fill="white" stroke="#666666" points="630,-168 526.25,-168 526.25,-136 630,-136 630,-168"/>
<text text-anchor="start" x="534.25" y="-154.5" font-family="Helvetica,sans-Serif" font-size="10.00">secondary_core/sec</text>
<text text-anchor="middle" x="578.12" y="-142.5" font-family="Helvetica,sans-Serif" font-size="10.00">_core1.h</text>
</a>
</g>
</g>
<!-- Node1&#45;&gt;Node20 -->
<g id="edge32_Node000001_Node000020" class="edge">
<title>Node1&#45;&gt;Node20</title>
<g id="a_edge32_Node000001_Node000020"><a xlink:title=" ">
<path fill="none" stroke="#63b8ff" d="M551.81,-203.53C556.44,-194.63 561.13,-185.62 565.25,-177.72"/>
<polygon fill="#63b8ff" stroke="#63b8ff" points="568.76,-179.56 570.27,-169.08 562.55,-176.33 568.76,-179.56"/>
</a>
</g>
</g>
<!-- Node21 -->
<g id="Node000021" class="node">
<title>Node21</title>
<g id="a_Node000021"><a xlink:title=" ">
<polygon fill="#e0e0e0" stroke="#999999" points="1253.25,-168 1139,-168 1139,-136 1253.25,-136 1253.25,-168"/>
<text text-anchor="start" x="1147" y="-154.5" font-family="Helvetica,sans-Serif" font-size="10.00">../mcc_generated_files</text>
<text text-anchor="middle" x="1196.12" y="-142.5" font-family="Helvetica,sans-Serif" font-size="10.00">/cmp/cmp1.h</text>
</a>
</g>
</g>
<!-- Node1&#45;&gt;Node21 -->
<g id="edge38_Node000001_Node000021" class="edge">
<title>Node1&#45;&gt;Node21</title>
<g id="a_edge38_Node000001_Node000021"><a xlink:title=" ">
<path fill="none" stroke="#63b8ff" d="M616.75,-239.6C732.31,-226.77 940.85,-201.69 1128,-168.3"/>
<polygon fill="#63b8ff" stroke="#63b8ff" points="1128.37,-171.61 1137.59,-166.39 1127.13,-164.72 1128.37,-171.61"/>
</a>
</g>
</g>
<!-- Node5 -->
<g id="Node000005" class="node">
<title>Node5</title>
<g id="a_Node000005"><a xlink:title=" ">
<polygon fill="#e0e0e0" stroke="#999999" points="475.38,-20 424.88,-20 424.88,0 475.38,0 475.38,-20"/>
<text text-anchor="middle" x="450.12" y="-6.5" font-family="Helvetica,sans-Serif" font-size="10.00">stddef.h</text>
</a>
</g>
</g>
<!-- Node4&#45;&gt;Node5 -->
<g id="edge4_Node000004_Node000005" class="edge">
<title>Node4&#45;&gt;Node5</title>
<g id="a_edge4_Node000004_Node000005"><a xlink:title=" ">
<path fill="none" stroke="#63b8ff" d="M465.49,-61.69C462.7,-52.5 459.12,-40.7 456.12,-30.8"/>
<polygon fill="#63b8ff" stroke="#63b8ff" points="459.2,-29.87 452.95,-21.32 452.5,-31.9 459.2,-29.87"/>
</a>
</g>
</g>
<!-- Node6 -->
<g id="Node000006" class="node">
<title>Node6</title>
<g id="a_Node000006"><a xlink:title=" ">
<polygon fill="#e0e0e0" stroke="#999999" points="407.25,-20 359,-20 359,0 407.25,0 407.25,-20"/>
<text text-anchor="middle" x="383.12" y="-6.5" font-family="Helvetica,sans-Serif" font-size="10.00">stdint.h</text>
</a>
</g>
</g>
<!-- Node4&#45;&gt;Node6 -->
<g id="edge5_Node000004_Node000006" class="edge">
<title>Node4&#45;&gt;Node6</title>
<g id="a_edge5_Node000004_Node000006"><a xlink:title=" ">
<path fill="none" stroke="#63b8ff" d="M449.95,-61.69C436.11,-51.2 417.81,-37.31 403.85,-26.73"/>
<polygon fill="#63b8ff" stroke="#63b8ff" points="406.49,-23.57 396.41,-20.32 402.26,-29.15 406.49,-23.57"/>
</a>
</g>
</g>
<!-- Node7 -->
<g id="Node000007" class="node">
<title>Node7</title>
<g id="a_Node000007"><a xlink:title=" ">
<polygon fill="#e0e0e0" stroke="#999999" points="661,-20 605.25,-20 605.25,0 661,0 661,-20"/>
<text text-anchor="middle" x="633.12" y="-6.5" font-family="Helvetica,sans-Serif" font-size="10.00">stdbool.h</text>
</a>
</g>
</g>
<!-- Node4&#45;&gt;Node7 -->
<g id="edge6_Node000004_Node000007" class="edge">
<title>Node4&#45;&gt;Node7</title>
<g id="a_edge6_Node000004_Node000007"><a xlink:title=" ">
<path fill="none" stroke="#63b8ff" d="M508.34,-61.53C536.09,-50.29 573.26,-35.24 599.8,-24.49"/>
<polygon fill="#63b8ff" stroke="#63b8ff" points="600.81,-27.46 608.76,-20.46 598.18,-20.97 600.81,-27.46"/>
</a>
</g>
</g>
<!-- Node8 -->
<g id="Node000008" class="node">
<title>Node8</title>
<g id="a_Node000008"><a xlink:href="a00128.html" target="_top" xlink:title="This is the generated driver types header file for the SEC_CORE driver.">
<polygon fill="white" stroke="#666666" points="586.75,-20 493.5,-20 493.5,0 586.75,0 586.75,-20"/>
<text text-anchor="middle" x="540.12" y="-6.5" font-family="Helvetica,sans-Serif" font-size="10.00">sec_core_types.h</text>
</a>
</g>
</g>
<!-- Node4&#45;&gt;Node8 -->
<g id="edge7_Node000004_Node000008" class="edge">
<title>Node4&#45;&gt;Node8</title>
<g id="a_edge7_Node000004_Node000008"><a xlink:title=" ">
<path fill="none" stroke="#63b8ff" d="M486.36,-61.69C497.17,-51.5 511.38,-38.1 522.48,-27.64"/>
<polygon fill="#63b8ff" stroke="#63b8ff" points="524.37,-30.72 529.24,-21.32 519.57,-25.63 524.37,-30.72"/>
</a>
</g>
</g>
<!-- Node9&#45;&gt;Node7 -->
<g id="edge10_Node000009_Node000007" class="edge">
<title>Node9&#45;&gt;Node7</title>
<g id="a_edge10_Node000009_Node000007"><a xlink:title=" ">
<path fill="none" stroke="#63b8ff" d="M868.72,-67.54C816.17,-54.93 723.74,-32.75 671.64,-20.24"/>
<polygon fill="#63b8ff" stroke="#63b8ff" points="672.71,-16.66 662.16,-17.73 671.07,-23.47 672.71,-16.66"/>
</a>
</g>
</g>
<!-- Node10 -->
<g id="Node000010" class="node">
<title>Node10</title>
<g id="a_Node000010"><a xlink:title=" ">
<polygon fill="#e0e0e0" stroke="#999999" points="887.5,-20 852.75,-20 852.75,0 887.5,0 887.5,-20"/>
<text text-anchor="middle" x="870.12" y="-6.5" font-family="Helvetica,sans-Serif" font-size="10.00">xc.h</text>
</a>
</g>
</g>
<!-- Node9&#45;&gt;Node10 -->
<g id="edge9_Node000009_Node000010" class="edge">
<title>Node9&#45;&gt;Node10</title>
<g id="a_edge9_Node000009_Node000010"><a xlink:title=" ">
<path fill="none" stroke="#63b8ff" d="M902.68,-67.54C897.04,-57.74 888.06,-42.16 880.97,-29.83"/>
<polygon fill="#63b8ff" stroke="#63b8ff" points="883.58,-28.36 875.56,-21.44 877.52,-31.85 883.58,-28.36"/>
</a>
</g>
</g>
<!-- Node11&#45;&gt;Node10 -->
<g id="edge12_Node000011_Node000010" class="edge">
<title>Node11&#45;&gt;Node10</title>
<g id="a_edge12_Node000011_Node000010"><a xlink:title=" ">
<path fill="none" stroke="#63b8ff" d="M1002.92,-67.54C975.21,-55.75 927.83,-35.57 897.8,-22.78"/>
<polygon fill="#63b8ff" stroke="#63b8ff" points="899.53,-19.29 888.96,-18.59 896.78,-25.73 899.53,-19.29"/>
</a>
</g>
</g>
<!-- Node12&#45;&gt;Node10 -->
<g id="edge14_Node000012_Node000010" class="edge">
<title>Node12&#45;&gt;Node10</title>
<g id="a_edge14_Node000012_Node000010"><a xlink:title=" ">
<path fill="none" stroke="#63b8ff" d="M1121.11,-138.13C1124.16,-137.39 1127.18,-136.67 1130.12,-136 1172.46,-126.38 1294.4,-133.4 1322.12,-100 1334.61,-84.95 1335.25,-70.5 1322.12,-56 1293.64,-24.54 993.44,-14.17 898.64,-11.67"/>
<polygon fill="#63b8ff" stroke="#63b8ff" points="898.97,-8.15 888.89,-11.39 898.8,-15.15 898.97,-8.15"/>
</a>
</g>
</g>
<!-- Node13 -->
<g id="Node000013" class="node">
<title>Node13</title>
<g id="a_Node000013"><a xlink:href="a00263.html" target="_top" xlink:title="VAC Types define.">
<polygon fill="white" stroke="#666666" points="766.5,-88 653.75,-88 653.75,-68 766.5,-68 766.5,-88"/>
<text text-anchor="middle" x="710.12" y="-74.5" font-family="Helvetica,sans-Serif" font-size="10.00">vac_monitor_typedef.h</text>
</a>
</g>
</g>
<!-- Node12&#45;&gt;Node13 -->
<g id="edge15_Node000012_Node000013" class="edge">
<title>Node12&#45;&gt;Node13</title>
<g id="a_edge15_Node000012_Node000013"><a xlink:title=" ">
<path fill="none" stroke="#63b8ff" d="M1027.28,-141.73C961.17,-128.66 840.54,-104.8 768.62,-90.57"/>
<polygon fill="#63b8ff" stroke="#63b8ff" points="769.43,-86.97 758.94,-88.46 768.07,-93.83 769.43,-86.97"/>
</a>
</g>
</g>
<!-- Node15 -->
<g id="Node000015" class="node">
<title>Node15</title>
<g id="a_Node000015"><a xlink:href="a00889_source.html" target="_top" xlink:title=" ">
<polygon fill="white" stroke="#666666" points="1177.88,-88 1094.38,-88 1094.38,-68 1177.88,-68 1177.88,-88"/>
<text text-anchor="middle" x="1136.12" y="-74.5" font-family="Helvetica,sans-Serif" font-size="10.00">../../../revision.h</text>
</a>
</g>
</g>
<!-- Node12&#45;&gt;Node15 -->
<g id="edge20_Node000012_Node000015" class="edge">
<title>Node12&#45;&gt;Node15</title>
<g id="a_edge20_Node000012_Node000015"><a xlink:title=" ">
<path fill="none" stroke="#63b8ff" d="M1087.27,-135.73C1097.13,-124.28 1110.64,-108.59 1120.96,-96.62"/>
<polygon fill="#63b8ff" stroke="#63b8ff" points="1124.23,-99.17 1128.11,-89.31 1118.93,-94.61 1124.23,-99.17"/>
</a>
</g>
</g>
<!-- Node16 -->
<g id="Node000016" class="node">
<title>Node16</title>
<g id="a_Node000016"><a xlink:title=" ">
<polygon fill="#e0e0e0" stroke="#999999" points="1312.75,-100 1195.5,-100 1195.5,-56 1312.75,-56 1312.75,-100"/>
<text text-anchor="start" x="1203.5" y="-86.5" font-family="Helvetica,sans-Serif" font-size="10.00">../sources_common</text>
<text text-anchor="start" x="1203.5" y="-74.5" font-family="Helvetica,sans-Serif" font-size="10.00">/Totempole_Application</text>
<text text-anchor="middle" x="1254.12" y="-62.5" font-family="Helvetica,sans-Serif" font-size="10.00">_Setup.h</text>
</a>
</g>
</g>
<!-- Node12&#45;&gt;Node16 -->
<g id="edge21_Node000012_Node000016" class="edge">
<title>Node12&#45;&gt;Node16</title>
<g id="a_edge21_Node000012_Node000016"><a xlink:title=" ">
<path fill="none" stroke="#63b8ff" d="M1112.74,-135.55C1135.36,-126.51 1164.48,-114.86 1190.42,-104.48"/>
<polygon fill="#63b8ff" stroke="#63b8ff" points="1191.57,-107.39 1199.55,-100.43 1188.97,-100.89 1191.57,-107.39"/>
</a>
</g>
</g>
<!-- Node13&#45;&gt;Node6 -->
<g id="edge17_Node000013_Node000006" class="edge">
<title>Node13&#45;&gt;Node6</title>
<g id="a_edge17_Node000013_Node000006"><a xlink:title=" ">
<path fill="none" stroke="#63b8ff" d="M654.59,-67.51C597.6,-57.49 506.15,-40.61 418.28,-20.37"/>
<polygon fill="#63b8ff" stroke="#63b8ff" points="419.11,-16.74 408.58,-17.89 417.53,-23.56 419.11,-16.74"/>
</a>
</g>
</g>
<!-- Node13&#45;&gt;Node7 -->
<g id="edge18_Node000013_Node000007" class="edge">
<title>Node13&#45;&gt;Node7</title>
<g id="a_edge18_Node000013_Node000007"><a xlink:title=" ">
<path fill="none" stroke="#63b8ff" d="M699.09,-67.54C686.86,-57.06 666.9,-39.95 652.13,-27.29"/>
<polygon fill="#63b8ff" stroke="#63b8ff" points="655.01,-24.29 645.14,-20.44 650.45,-29.6 655.01,-24.29"/>
</a>
</g>
</g>
<!-- Node13&#45;&gt;Node10 -->
<g id="edge16_Node000013_Node000010" class="edge">
<title>Node13&#45;&gt;Node10</title>
<g id="a_edge16_Node000013_Node000010"><a xlink:title=" ">
<path fill="none" stroke="#63b8ff" d="M733.05,-67.54C761.96,-55.62 811.61,-35.14 842.56,-22.37"/>
<polygon fill="#63b8ff" stroke="#63b8ff" points="843.75,-25.25 851.66,-18.2 841.08,-18.78 843.75,-25.25"/>
</a>
</g>
</g>
<!-- Node14 -->
<g id="Node000014" class="node">
<title>Node14</title>
<g id="a_Node000014"><a xlink:title=" ">
<polygon fill="#e0e0e0" stroke="#999999" points="730.12,-20 690.12,-20 690.12,0 730.12,0 730.12,-20"/>
<text text-anchor="middle" x="710.12" y="-6.5" font-family="Helvetica,sans-Serif" font-size="10.00">dsp.h</text>
</a>
</g>
</g>
<!-- Node13&#45;&gt;Node14 -->
<g id="edge19_Node000013_Node000014" class="edge">
<title>Node13&#45;&gt;Node14</title>
<g id="a_edge19_Node000013_Node000014"><a xlink:title=" ">
<path fill="none" stroke="#63b8ff" d="M710.12,-67.54C710.12,-58.13 710.12,-43.39 710.12,-31.32"/>
<polygon fill="#63b8ff" stroke="#63b8ff" points="713.63,-31.44 710.12,-21.44 706.63,-31.44 713.63,-31.44"/>
</a>
</g>
</g>
<!-- Node17&#45;&gt;Node6 -->
<g id="edge25_Node000017_Node000006" class="edge">
<title>Node17&#45;&gt;Node6</title>
<g id="a_edge25_Node000017_Node000006"><a xlink:title=" ">
<path fill="none" stroke="#63b8ff" d="M341.49,-145.11C316.38,-138.69 283.33,-125.67 267.12,-100 256.69,-83.46 256.08,-72.14 267.12,-56 285.14,-29.68 320.97,-18.75 348.06,-14.22"/>
<polygon fill="#63b8ff" stroke="#63b8ff" points="348.3,-17.57 357.7,-12.68 347.3,-10.65 348.3,-17.57"/>
</a>
</g>
</g>
<!-- Node17&#45;&gt;Node7 -->
<g id="edge24_Node000017_Node000007" class="edge">
<title>Node17&#45;&gt;Node7</title>
<g id="a_edge24_Node000017_Node000007"><a xlink:title=" ">
<path fill="none" stroke="#63b8ff" d="M406.97,-144.4C439.88,-136.88 491.24,-122.62 531.12,-100 565.5,-80.51 598.71,-48.24 617.47,-28.37"/>
<polygon fill="#63b8ff" stroke="#63b8ff" points="619.58,-31.17 623.8,-21.45 614.44,-26.41 619.58,-31.17"/>
</a>
</g>
</g>
<!-- Node17&#45;&gt;Node10 -->
<g id="edge23_Node000017_Node000010" class="edge">
<title>Node17&#45;&gt;Node10</title>
<g id="a_edge23_Node000017_Node000010"><a xlink:title=" ">
<path fill="none" stroke="#63b8ff" d="M406.77,-147.55C499.56,-137.65 759.2,-109.26 775.12,-100 796.25,-87.71 790.71,-73.15 808.12,-56 819.42,-44.88 833.63,-34.37 845.6,-26.3"/>
<polygon fill="#63b8ff" stroke="#63b8ff" points="847.17,-28.8 853.61,-20.39 843.33,-22.94 847.17,-28.8"/>
</a>
</g>
</g>
<!-- Node17&#45;&gt;Node18 -->
<g id="edge26_Node000017_Node000018" class="edge">
<title>Node17&#45;&gt;Node18</title>
<g id="a_edge26_Node000017_Node000018"><a xlink:title=" ">
<path fill="none" stroke="#63b8ff" d="M341.41,-143.58C315.36,-136.26 279.38,-122.77 255.12,-100 234.76,-80.88 222.19,-50.51 215.68,-30.67"/>
<polygon fill="#63b8ff" stroke="#63b8ff" points="218.8,-29.9 212.53,-21.36 212.11,-31.95 218.8,-29.9"/>
</a>
</g>
</g>
<!-- Node19 -->
<g id="Node000019" class="node">
<title>Node19</title>
<g id="a_Node000019"><a xlink:href="a00110_source.html" target="_top" xlink:title=" ">
<polygon fill="white" stroke="#666666" points="361.62,-88 276.62,-88 276.62,-68 361.62,-68 361.62,-88"/>
<text text-anchor="middle" x="319.12" y="-74.5" font-family="Helvetica,sans-Serif" font-size="10.00">dma_interface.h</text>
</a>
</g>
</g>
<!-- Node17&#45;&gt;Node19 -->
<g id="edge27_Node000017_Node000019" class="edge">
<title>Node17&#45;&gt;Node19</title>
<g id="a_edge27_Node000017_Node000019"><a xlink:title=" ">
<path fill="none" stroke="#63b8ff" d="M366.93,-141.59C358.24,-130.21 343.43,-110.81 332.59,-96.62"/>
<polygon fill="#63b8ff" stroke="#63b8ff" points="334.99,-95.01 326.14,-89.19 329.43,-99.26 334.99,-95.01"/>
</a>
</g>
</g>
<!-- Node19&#45;&gt;Node6 -->
<g id="edge28_Node000019_Node000006" class="edge">
<title>Node19&#45;&gt;Node6</title>
<g id="a_edge28_Node000019_Node000006"><a xlink:title=" ">
<path fill="none" stroke="#63b8ff" d="M328.29,-67.54C338.27,-57.25 354.44,-40.58 366.63,-28.01"/>
<polygon fill="#63b8ff" stroke="#63b8ff" points="368.52,-31.05 372.97,-21.44 363.5,-26.18 368.52,-31.05"/>
</a>
</g>
</g>
<!-- Node19&#45;&gt;Node7 -->
<g id="edge29_Node000019_Node000007" class="edge">
<title>Node19&#45;&gt;Node7</title>
<g id="a_edge29_Node000019_Node000007"><a xlink:title=" ">
<path fill="none" stroke="#63b8ff" d="M358.03,-67.57C373.86,-63.83 392.33,-59.57 409.12,-56 488.59,-39.09 511.6,-38.06 594.22,-20.33"/>
<polygon fill="#63b8ff" stroke="#63b8ff" points="594.84,-23.56 603.88,-18.02 593.36,-16.72 594.84,-23.56"/>
</a>
</g>
</g>
<!-- Node19&#45;&gt;Node18 -->
<g id="edge30_Node000019_Node000018" class="edge">
<title>Node19&#45;&gt;Node18</title>
<g id="a_edge30_Node000019_Node000018"><a xlink:title=" ">
<path fill="none" stroke="#63b8ff" d="M303.51,-67.54C285.62,-56.71 256.07,-38.82 235,-26.06"/>
<polygon fill="#63b8ff" stroke="#63b8ff" points="237.08,-22.62 226.71,-20.44 233.45,-28.61 237.08,-22.62"/>
</a>
</g>
</g>
<!-- Node20&#45;&gt;Node4 -->
<g id="edge37_Node000020_Node000004" class="edge">
<title>Node20&#45;&gt;Node4</title>
<g id="a_edge37_Node000020_Node000004"><a xlink:title=" ">
<path fill="none" stroke="#63b8ff" d="M554.96,-135.55C539.58,-125.3 519.19,-111.71 502.26,-100.42"/>
<polygon fill="#63b8ff" stroke="#63b8ff" points="504.52,-97.06 494.26,-94.42 500.63,-102.88 504.52,-97.06"/>
</a>
</g>
</g>
<!-- Node20&#45;&gt;Node6 -->
<g id="edge34_Node000020_Node000006" class="edge">
<title>Node20&#45;&gt;Node6</title>
<g id="a_edge34_Node000020_Node000006"><a xlink:title=" ">
<path fill="none" stroke="#63b8ff" d="M526.05,-148.11C488.75,-143.31 439.87,-131.02 409.12,-100 390.92,-81.63 385.32,-51.27 383.68,-31.2"/>
<polygon fill="#63b8ff" stroke="#63b8ff" points="387.12,-31.03 383.09,-21.23 380.13,-31.4 387.12,-31.03"/>
</a>
</g>
</g>
<!-- Node20&#45;&gt;Node7 -->
<g id="edge35_Node000020_Node000007" class="edge">
<title>Node20&#45;&gt;Node7</title>
<g id="a_edge35_Node000020_Node000007"><a xlink:title=" ">
<path fill="none" stroke="#63b8ff" d="M584.12,-135.75C594.15,-110.21 614.34,-58.83 625.41,-30.63"/>
<polygon fill="#63b8ff" stroke="#63b8ff" points="629.02,-32.01 629.42,-21.42 622.51,-29.45 629.02,-32.01"/>
</a>
</g>
</g>
<!-- Node20&#45;&gt;Node8 -->
<g id="edge36_Node000020_Node000008" class="edge">
<title>Node20&#45;&gt;Node8</title>
<g id="a_edge36_Node000020_Node000008"><a xlink:title=" ">
<path fill="none" stroke="#63b8ff" d="M573.99,-135.75C567.09,-110.33 553.23,-59.28 545.56,-31.01"/>
<polygon fill="#63b8ff" stroke="#63b8ff" points="548.68,-30.16 542.68,-21.42 541.92,-31.99 548.68,-30.16"/>
</a>
</g>
</g>
<!-- Node20&#45;&gt;Node10 -->
<g id="edge33_Node000020_Node000010" class="edge">
<title>Node20&#45;&gt;Node10</title>
<g id="a_edge33_Node000020_Node000010"><a xlink:title=" ">
<path fill="none" stroke="#63b8ff" d="M630.3,-150.08C679.88,-146.9 754.61,-135.85 808.12,-100 833.98,-82.68 852.3,-50.62 862.03,-30.08"/>
<polygon fill="#63b8ff" stroke="#63b8ff" points="865.53,-31.83 866.44,-21.27 859.15,-28.96 865.53,-31.83"/>
</a>
</g>
</g>
</g>
</svg>
