<?xml version="1.0" encoding="UTF-8" standalone="no"?>
<!DOCTYPE svg PUBLIC "-//W3C//DTD SVG 1.1//EN"
 "http://www.w3.org/Graphics/SVG/1.1/DTD/svg11.dtd">
<!-- Generated by graphviz version 8.1.0 (20230707.0739)
 -->
<!-- Title: SPI_Synchronize Pages: 1 -->
<svg width="433pt" height="142pt"
 viewBox="0.00 0.00 433.25 142.00" xmlns="http://www.w3.org/2000/svg" xmlns:xlink="http://www.w3.org/1999/xlink">
<g id="graph0" class="graph" transform="scale(1 1) rotate(0) translate(4 138)">
<title>SPI_Synchronize</title>
<!-- Node1 -->
<g id="Node000001" class="node">
<title>Node1</title>
<g id="a_Node000001"><a xlink:title=" ">
<polygon fill="#999999" stroke="#666666" points="91,-77 0,-77 0,-57 91,-57 91,-77"/>
<text text-anchor="middle" x="45.5" y="-63.5" font-family="Helvetica,sans-Serif" font-size="10.00">SPI_Synchronize</text>
</a>
</g>
</g>
<!-- Node2 -->
<g id="Node000002" class="node">
<title>Node2</title>
<g id="a_Node000002"><a xlink:href="a00412.html#gab59dab7bbec7ad0589d0fa8f57769a94" target="_top" xlink:title="This inline function disables the DMA channel.">
<polygon fill="white" stroke="#666666" points="237.5,-134 127,-134 127,-114 237.5,-114 237.5,-134"/>
<text text-anchor="middle" x="182.25" y="-120.5" font-family="Helvetica,sans-Serif" font-size="10.00">DMA_ChannelDisable</text>
</a>
</g>
</g>
<!-- Node1&#45;&gt;Node2 -->
<g id="edge1_Node000001_Node000002" class="edge">
<title>Node1&#45;&gt;Node2</title>
<g id="a_edge1_Node000001_Node000002"><a xlink:title=" ">
<path fill="none" stroke="#63b8ff" d="M67.08,-77.44C83.19,-85.44 106.26,-96.5 127,-105 131.1,-106.68 135.42,-108.35 139.74,-109.96"/>
<polygon fill="#63b8ff" stroke="#63b8ff" points="138.18,-113.48 148.77,-113.6 140.56,-106.9 138.18,-113.48"/>
</a>
</g>
</g>
<!-- Node3 -->
<g id="Node000003" class="node">
<title>Node3</title>
<g id="a_Node000003"><a xlink:href="a00412.html#gad10f447e17425a18eac1b5186e2e8699" target="_top" xlink:title="This inline function enables the DMA channel.">
<polygon fill="white" stroke="#666666" points="236.38,-96 128.12,-96 128.12,-76 236.38,-76 236.38,-96"/>
<text text-anchor="middle" x="182.25" y="-82.5" font-family="Helvetica,sans-Serif" font-size="10.00">DMA_ChannelEnable</text>
</a>
</g>
</g>
<!-- Node1&#45;&gt;Node3 -->
<g id="edge2_Node000001_Node000003" class="edge">
<title>Node1&#45;&gt;Node3</title>
<g id="a_edge2_Node000001_Node000003"><a xlink:title=" ">
<path fill="none" stroke="#63b8ff" d="M91.37,-73.33C99.55,-74.48 108.23,-75.7 116.85,-76.92"/>
<polygon fill="#63b8ff" stroke="#63b8ff" points="116.3,-80.52 126.69,-78.45 117.28,-73.59 116.3,-80.52"/>
</a>
</g>
</g>
<!-- Node4 -->
<g id="Node000004" class="node">
<title>Node4</title>
<g id="a_Node000004"><a xlink:href="a00412.html#ga3950883876bea54b441aaf14ff17d47e" target="_top" xlink:title="Initializes the DMA module.">
<polygon fill="white" stroke="#666666" points="221.38,-58 143.12,-58 143.12,-38 221.38,-38 221.38,-58"/>
<text text-anchor="middle" x="182.25" y="-44.5" font-family="Helvetica,sans-Serif" font-size="10.00">DMA_Initialize</text>
</a>
</g>
</g>
<!-- Node1&#45;&gt;Node4 -->
<g id="edge3_Node000001_Node000004" class="edge">
<title>Node1&#45;&gt;Node4</title>
<g id="a_edge3_Node000001_Node000004"><a xlink:title=" ">
<path fill="none" stroke="#63b8ff" d="M91.37,-60.67C104.41,-58.83 118.72,-56.82 132.01,-54.94"/>
<polygon fill="#63b8ff" stroke="#63b8ff" points="132.47,-58.27 141.89,-53.41 131.5,-51.34 132.47,-58.27"/>
</a>
</g>
</g>
<!-- Node7 -->
<g id="Node000007" class="node">
<title>Node7</title>
<g id="a_Node000007"><a xlink:href="a00413.html#ga0607cad7a6b302950091fea719146a54" target="_top" xlink:title="Initializes SPI1 module, using the given initialization data. This function must be called before any...">
<polygon fill="white" stroke="#666666" points="221,-20 143.5,-20 143.5,0 221,0 221,-20"/>
<text text-anchor="middle" x="182.25" y="-6.5" font-family="Helvetica,sans-Serif" font-size="10.00">SPI1_Initialize</text>
</a>
</g>
</g>
<!-- Node1&#45;&gt;Node7 -->
<g id="edge6_Node000001_Node000007" class="edge">
<title>Node1&#45;&gt;Node7</title>
<g id="a_edge6_Node000001_Node000007"><a xlink:title=" ">
<path fill="none" stroke="#63b8ff" d="M67.08,-56.56C83.19,-48.56 106.26,-37.5 127,-29 131.1,-27.32 135.42,-25.65 139.74,-24.04"/>
<polygon fill="#63b8ff" stroke="#63b8ff" points="140.56,-27.1 148.77,-20.4 138.18,-20.52 140.56,-27.1"/>
</a>
</g>
</g>
<!-- Node5 -->
<g id="Node000005" class="node">
<title>Node5</title>
<g id="a_Node000005"><a xlink:href="a00412.html#ga9f16d166d637fd9005839b1e1822dc63" target="_top" xlink:title="This is the default callback with weak attribute. The user can override and implement the default cal...">
<polygon fill="white" stroke="#666666" points="407.25,-77 291.5,-77 291.5,-57 407.25,-57 407.25,-77"/>
<text text-anchor="middle" x="349.38" y="-63.5" font-family="Helvetica,sans-Serif" font-size="10.00">DMA_ChannelCallback</text>
</a>
</g>
</g>
<!-- Node4&#45;&gt;Node5 -->
<g id="edge4_Node000004_Node000005" class="edge">
<title>Node4&#45;&gt;Node5</title>
<g id="a_edge4_Node000004_Node000005"><a xlink:title=" ">
<path fill="none" stroke="#63b8ff" d="M221.55,-52.41C239.07,-54.42 260.37,-56.87 280.48,-59.19"/>
<polygon fill="#63b8ff" stroke="#63b8ff" points="279.84,-62.75 290.17,-60.42 280.64,-55.8 279.84,-62.75"/>
</a>
</g>
</g>
<!-- Node6 -->
<g id="Node000006" class="node">
<title>Node6</title>
<g id="a_Node000006"><a xlink:href="a00412.html#gab9190941904dd0add59b63f1e774fb2c" target="_top" xlink:title="This function can be used to override default callback and to define custom callback for DMA Channel ...">
<polygon fill="white" stroke="#666666" points="425.25,-39 273.5,-39 273.5,-19 425.25,-19 425.25,-39"/>
<text text-anchor="middle" x="349.38" y="-25.5" font-family="Helvetica,sans-Serif" font-size="10.00">DMA_ChannelCallbackRegister</text>
</a>
</g>
</g>
<!-- Node4&#45;&gt;Node6 -->
<g id="edge5_Node000004_Node000006" class="edge">
<title>Node4&#45;&gt;Node6</title>
<g id="a_edge5_Node000004_Node000006"><a xlink:title=" ">
<path fill="none" stroke="#63b8ff" d="M221.55,-43.59C233.97,-42.16 248.28,-40.52 262.73,-38.85"/>
<polygon fill="#63b8ff" stroke="#63b8ff" points="262.71,-42.27 272.24,-37.65 261.91,-35.31 262.71,-42.27"/>
</a>
</g>
</g>
</g>
</svg>
