<?xml version="1.0" encoding="UTF-8" standalone="no"?>
<!DOCTYPE svg PUBLIC "-//W3C//DTD SVG 1.1//EN"
 "http://www.w3.org/Graphics/SVG/1.1/DTD/svg11.dtd">
<!-- Generated by graphviz version 2.44.1 (20200629.0846)
 -->
<!-- Title: C:/Users/M70027/Documents/Projects/tp&#45;deployment/dspic33ch&#45;power&#45;totem&#45;pole&#45;demonstration&#45;application&#45;single&#45;phase_v2/dspic33ch_totem_pole_single_phase_primary_IL.X/sources/driver/vac_monitor/vac_monitor.h Pages: 1 -->
<svg width="406pt" height="225pt"
 viewBox="0.00 0.00 405.50 225.00" xmlns="http://www.w3.org/2000/svg" xmlns:xlink="http://www.w3.org/1999/xlink">

<svg id="main" version="1.1" xmlns="http://www.w3.org/2000/svg" xmlns:xlink="http://www.w3.org/1999/xlink" xml:space="preserve">

<style type="text/css"><![CDATA[
.node, .edge {opacity: 0.7;}
.node.selected, .edge.selected {opacity: 1;}
.edge:hover path { stroke: red; }
.edge:hover polygon { stroke: red; fill: red; }
]]></style>
<script type="application/ecmascript" xlink:href="svg.min.js"/>
<svg id="graph" class="graph">
<g id="graph0" class="graph" transform="scale(1 1) rotate(0) translate(4 221)">
<title>C:/Users/M70027/Documents/Projects/tp&#45;deployment/dspic33ch&#45;power&#45;totem&#45;pole&#45;demonstration&#45;application&#45;single&#45;phase_v2/dspic33ch_totem_pole_single_phase_primary_IL.X/sources/driver/vac_monitor/vac_monitor.h</title>
<!-- Node1 -->
<g id="Node000001" class="node">
<title>Node1</title>
<g id="a_Node000001"><a xlink:title="header of the VAC">
<polygon fill="#999999" stroke="#666666" points="259,-217 62,-217 62,-132 259,-132 259,-217"/>
<text text-anchor="start" x="70" y="-205" font-family="Helvetica,sans-Serif" font-size="10.00">C:/Users/M70027/Documents</text>
<text text-anchor="start" x="70" y="-194" font-family="Helvetica,sans-Serif" font-size="10.00">/Projects/tp&#45;deployment</text>
<text text-anchor="start" x="70" y="-183" font-family="Helvetica,sans-Serif" font-size="10.00">/dspic33ch&#45;power&#45;totem&#45;pole</text>
<text text-anchor="start" x="70" y="-172" font-family="Helvetica,sans-Serif" font-size="10.00">&#45;demonstration&#45;application</text>
<text text-anchor="start" x="70" y="-161" font-family="Helvetica,sans-Serif" font-size="10.00">&#45;single&#45;phase_v2/dspic33ch_totem</text>
<text text-anchor="start" x="70" y="-150" font-family="Helvetica,sans-Serif" font-size="10.00">_pole_single_phase_primary_IL.X</text>
<text text-anchor="middle" x="160.5" y="-139" font-family="Helvetica,sans-Serif" font-size="10.00">/sources/driver/vac_monitor/vac_monitor.h</text>
</a>
</g>
</g>
<!-- Node2 -->
<g id="Node000002" class="node">
<title>Node2</title>
<g id="a_Node000002"><a xlink:title=" ">
<polygon fill="#e0e0e0" stroke="#999999" points="35,-19 0,-19 0,0 35,0 35,-19"/>
<text text-anchor="middle" x="17.5" y="-7" font-family="Helvetica,sans-Serif" font-size="10.00">xc.h</text>
</a>
</g>
</g>
<!-- Node1&#45;&gt;Node2 -->
<g id="edge1_Node000001_Node000002" class="edge">
<title>Node1&#45;&gt;Node2</title>
<g id="a_edge1_Node000001_Node000002"><a xlink:title=" ">
<path fill="none" stroke="#63b8ff" d="M73.59,-131.86C59.49,-121.82 46.32,-109.89 36.5,-96 22.54,-76.26 18.59,-48.06 17.6,-29.52"/>
<polygon fill="#63b8ff" stroke="#63b8ff" points="21.1,-29.28 17.31,-19.39 14.1,-29.49 21.1,-29.28"/>
</a>
</g>
</g>
<!-- Node3 -->
<g id="Node000003" class="node">
<title>Node3</title>
<g id="a_Node000003"><a xlink:href="a00263.html" target="_top" xlink:title="VAC Types define.">
<polygon fill="white" stroke="#666666" points="159,-85 46,-85 46,-66 159,-66 159,-85"/>
<text text-anchor="middle" x="102.5" y="-73" font-family="Helvetica,sans-Serif" font-size="10.00">vac_monitor_typedef.h</text>
</a>
</g>
</g>
<!-- Node1&#45;&gt;Node3 -->
<g id="edge2_Node000001_Node000003" class="edge">
<title>Node1&#45;&gt;Node3</title>
<g id="a_edge2_Node000001_Node000003"><a xlink:title=" ">
<path fill="none" stroke="#63b8ff" d="M135.57,-131.8C127.57,-118.43 119.16,-104.36 112.82,-93.76"/>
<polygon fill="#63b8ff" stroke="#63b8ff" points="115.79,-91.91 107.65,-85.12 109.78,-95.5 115.79,-91.91"/>
</a>
</g>
</g>
<!-- Node7 -->
<g id="Node000007" class="node">
<title>Node7</title>
<g id="a_Node000007"><a xlink:href="a00895_source.html" target="_top" xlink:title=" ">
<polygon fill="white" stroke="#666666" points="261.5,-85 177.5,-85 177.5,-66 261.5,-66 261.5,-85"/>
<text text-anchor="middle" x="219.5" y="-73" font-family="Helvetica,sans-Serif" font-size="10.00">../../../revision.h</text>
</a>
</g>
</g>
<!-- Node1&#45;&gt;Node7 -->
<g id="edge7_Node000001_Node000007" class="edge">
<title>Node1&#45;&gt;Node7</title>
<g id="a_edge7_Node000001_Node000007"><a xlink:title=" ">
<path fill="none" stroke="#63b8ff" d="M185.86,-131.8C193.99,-118.43 202.55,-104.36 209,-93.76"/>
<polygon fill="#63b8ff" stroke="#63b8ff" points="212.05,-95.48 214.26,-85.12 206.07,-91.84 212.05,-95.48"/>
</a>
</g>
</g>
<!-- Node8 -->
<g id="Node000008" class="node">
<title>Node8</title>
<g id="a_Node000008"><a xlink:title=" ">
<polygon fill="#e0e0e0" stroke="#999999" points="397.5,-96 279.5,-96 279.5,-55 397.5,-55 397.5,-96"/>
<text text-anchor="start" x="287.5" y="-84" font-family="Helvetica,sans-Serif" font-size="10.00">../sources_common</text>
<text text-anchor="start" x="287.5" y="-73" font-family="Helvetica,sans-Serif" font-size="10.00">/Totempole_Application</text>
<text text-anchor="middle" x="338.5" y="-62" font-family="Helvetica,sans-Serif" font-size="10.00">_Setup.h</text>
</a>
</g>
</g>
<!-- Node1&#45;&gt;Node8 -->
<g id="edge8_Node000001_Node000008" class="edge">
<title>Node1&#45;&gt;Node8</title>
<g id="a_edge8_Node000001_Node000008"><a xlink:title=" ">
<path fill="none" stroke="#63b8ff" d="M236.76,-131.94C256.03,-121.44 276.11,-110.5 293.29,-101.14"/>
<polygon fill="#63b8ff" stroke="#63b8ff" points="295.41,-103.97 302.51,-96.11 292.06,-97.82 295.41,-103.97"/>
</a>
</g>
</g>
<!-- Node3&#45;&gt;Node2 -->
<g id="edge3_Node000003_Node000002" class="edge">
<title>Node3&#45;&gt;Node2</title>
<g id="a_edge3_Node000003_Node000002"><a xlink:title=" ">
<path fill="none" stroke="#63b8ff" d="M91.04,-65.87C77.22,-55.47 53.79,-37.82 37.09,-25.25"/>
<polygon fill="#63b8ff" stroke="#63b8ff" points="39.15,-22.42 29.05,-19.2 34.94,-28.01 39.15,-22.42"/>
</a>
</g>
</g>
<!-- Node4 -->
<g id="Node000004" class="node">
<title>Node4</title>
<g id="a_Node000004"><a xlink:title=" ">
<polygon fill="#e0e0e0" stroke="#999999" points="102,-19 53,-19 53,0 102,0 102,-19"/>
<text text-anchor="middle" x="77.5" y="-7" font-family="Helvetica,sans-Serif" font-size="10.00">stdint.h</text>
</a>
</g>
</g>
<!-- Node3&#45;&gt;Node4 -->
<g id="edge4_Node000003_Node000004" class="edge">
<title>Node3&#45;&gt;Node4</title>
<g id="a_edge4_Node000003_Node000004"><a xlink:title=" ">
<path fill="none" stroke="#63b8ff" d="M99.13,-65.87C95.46,-56.47 89.48,-41.17 84.74,-29.03"/>
<polygon fill="#63b8ff" stroke="#63b8ff" points="87.88,-27.45 80.98,-19.41 81.36,-29.99 87.88,-27.45"/>
</a>
</g>
</g>
<!-- Node5 -->
<g id="Node000005" class="node">
<title>Node5</title>
<g id="a_Node000005"><a xlink:title=" ">
<polygon fill="#e0e0e0" stroke="#999999" points="176.5,-19 120.5,-19 120.5,0 176.5,0 176.5,-19"/>
<text text-anchor="middle" x="148.5" y="-7" font-family="Helvetica,sans-Serif" font-size="10.00">stdbool.h</text>
</a>
</g>
</g>
<!-- Node3&#45;&gt;Node5 -->
<g id="edge5_Node000003_Node000005" class="edge">
<title>Node3&#45;&gt;Node5</title>
<g id="a_edge5_Node000003_Node000005"><a xlink:title=" ">
<path fill="none" stroke="#63b8ff" d="M108.7,-65.87C115.73,-56.09 127.35,-39.92 136.23,-27.58"/>
<polygon fill="#63b8ff" stroke="#63b8ff" points="139.11,-29.57 142.1,-19.41 133.42,-25.48 139.11,-29.57"/>
</a>
</g>
</g>
<!-- Node6 -->
<g id="Node000006" class="node">
<title>Node6</title>
<g id="a_Node000006"><a xlink:title=" ">
<polygon fill="#e0e0e0" stroke="#999999" points="236,-19 195,-19 195,0 236,0 236,-19"/>
<text text-anchor="middle" x="215.5" y="-7" font-family="Helvetica,sans-Serif" font-size="10.00">dsp.h</text>
</a>
</g>
</g>
<!-- Node3&#45;&gt;Node6 -->
<g id="edge6_Node000003_Node000006" class="edge">
<title>Node3&#45;&gt;Node6</title>
<g id="a_edge6_Node000003_Node000006"><a xlink:title=" ">
<path fill="none" stroke="#63b8ff" d="M117.74,-65.87C136.61,-55.18 168.98,-36.85 191.27,-24.22"/>
<polygon fill="#63b8ff" stroke="#63b8ff" points="193.16,-27.17 200.14,-19.2 189.71,-21.08 193.16,-27.17"/>
</a>
</g>
</g>
</g>
</svg>
</svg>

<style type='text/css'>
<![CDATA[
[data-mouse-over-selected='false'] { opacity: 0.7; }
[data-mouse-over-selected='true']  { opacity: 1.0; }
]]>
</style>
<script type="application/ecmascript"><![CDATA[
document.addEventListener('DOMContentLoaded', (event) => {
  highlightEdges();
  highlightAdjacentNodes();
});
]]></script>
</svg>
