<?xml version="1.0" encoding="UTF-8" standalone="no"?>
<!DOCTYPE svg PUBLIC "-//W3C//DTD SVG 1.1//EN"
 "http://www.w3.org/Graphics/SVG/1.1/DTD/svg11.dtd">
<!-- Generated by graphviz version 8.1.0 (20230707.0739)
 -->
<!-- Title: CAN_Receive_from_GUI Pages: 1 -->
<!--zoomable 268 -->

<svg id="main" version="1.1" xmlns="http://www.w3.org/2000/svg" xmlns:xlink="http://www.w3.org/1999/xlink" xml:space="preserve" onload="init(evt)">
<style type="text/css"><![CDATA[
.node, .edge {opacity: 0.7;}
.node.selected, .edge.selected {opacity: 1;}
.edge:hover path { stroke: red; }
.edge:hover polygon { stroke: red; fill: red; }
]]></style>

<defs>
  <circle id="rim" cx="0" cy="0" r="7"/>
  <circle id="rim2" cx="0" cy="0" r="3.5"/>
  <g id="zoomPlus">
    <use xlink:href="#rim" fill="#404040"><set attributeName="fill" to="#808080" begin="zoomplus.mouseover" end="zoomplus.mouseout"/></use>
    <path d="M-4,0h8M0,-4v8" fill="none" stroke="white" stroke-width="1.5" pointer-events="none"/>
  </g>
  <g id="zoomMin">
    <use xlink:href="#rim" fill="#404040"><set attributeName="fill" to="#808080" begin="zoomminus.mouseover" end="zoomminus.mouseout"/></use>
    <path d="M-4,0h8" fill="none" stroke="white" stroke-width="1.5" pointer-events="none"/>
  </g>
  <g id="arrowUp" transform="translate(30 24)">
    <use xlink:href="#rim"/>
    <path pointer-events="none" fill="none" stroke="white" stroke-width="1.5" d="M0,-3.0v7 M-2.5,-0.5L0,-3.0L2.5,-0.5"/>
  </g>
  <g id="arrowRight" transform="rotate(90) translate(36 -43)">
    <use xlink:href="#rim"/>
    <path pointer-events="none" fill="none" stroke="white" stroke-width="1.5" d="M0,-3.0v7 M-2.5,-0.5L0,-3.0L2.5,-0.5"/>
  </g>
  <g id="arrowDown" transform="rotate(180) translate(-30 -48)">
    <use xlink:href="#rim"/>
    <path pointer-events="none" fill="none" stroke="white" stroke-width="1.5" d="M0,-3.0v7 M-2.5,-0.5L0,-3.0L2.5,-0.5"/>
  </g>
  <g id="arrowLeft" transform="rotate(270) translate(-36 17)">
    <use xlink:href="#rim"/>
    <path pointer-events="none" fill="none" stroke="white" stroke-width="1.5" d="M0,-3.0v7 M-2.5,-0.5L0,-3.0L2.5,-0.5"/>
  </g>
  <g id="resetDef">
    <use xlink:href="#rim2" fill="#404040"><set attributeName="fill" to="#808080" begin="reset.mouseover" end="reset.mouseout"/></use>
  </g>
</defs>
<script type="application/ecmascript">
var viewWidth = 707;
var viewHeight = 268;
var sectionId = 'dynsection-2';
</script>
<script type="application/ecmascript" xlink:href="svg.min.js"/>
<svg id="graph" class="graph">
<g id="viewport">
<title>CAN_Receive_from_GUI</title>
<!-- Node1 -->
<g id="Node000001" class="node">
<title>Node1</title>
<g id="a_Node000001"><a xlink:title=" ">
<polygon fill="#999999" stroke="#666666" points="121,-146 0,-146 0,-126 121,-126 121,-146"/>
<text text-anchor="middle" x="60.5" y="-132.5" font-family="Helvetica,sans-Serif" font-size="10.00">CAN_Receive_from_GUI</text>
</a>
</g>
</g>
<!-- Node2 -->
<g id="Node000002" class="node">
<title>Node2</title>
<g id="a_Node000002"><a xlink:href="a00399.html#ga4fe1df4cd9f0ce122687dcfab0713b5b" target="_top" xlink:title="Reads the received single message object.">
<polygon fill="white" stroke="#666666" points="280.62,-146 200.12,-146 200.12,-126 280.62,-126 280.62,-146"/>
<text text-anchor="middle" x="240.38" y="-132.5" font-family="Helvetica,sans-Serif" font-size="10.00">CAN1_Receive</text>
</a>
</g>
</g>
<!-- Node1&#45;&gt;Node2 -->
<g id="edge1_Node000001_Node000002" class="edge">
<title>Node1&#45;&gt;Node2</title>
<g id="a_edge1_Node000001_Node000002"><a xlink:title=" ">
<path fill="none" stroke="#63b8ff" d="M121.22,-136C143.13,-136 167.69,-136 188.72,-136"/>
<polygon fill="#63b8ff" stroke="#63b8ff" points="188.68,-139.5 198.68,-136 188.68,-132.5 188.68,-139.5"/>
</a>
</g>
</g>
<!-- Node9 -->
<g id="Node000009" class="node">
<title>Node9</title>
<g id="a_Node000009"><a xlink:href="a00399.html#gac27e97593d8d9bd7787d116910adc40d" target="_top" xlink:title="Returns the number of CAN messages received in all the FIFO.">
<polygon fill="white" stroke="#666666" points="323.75,-203 157,-203 157,-183 323.75,-183 323.75,-203"/>
<text text-anchor="middle" x="240.38" y="-189.5" font-family="Helvetica,sans-Serif" font-size="10.00">CAN1_ReceivedMessageCountGet</text>
</a>
</g>
</g>
<!-- Node1&#45;&gt;Node9 -->
<g id="edge8_Node000001_Node000009" class="edge">
<title>Node1&#45;&gt;Node9</title>
<g id="a_edge8_Node000001_Node000009"><a xlink:title=" ">
<path fill="none" stroke="#63b8ff" d="M94.13,-146.45C122.87,-155.67 164.95,-169.15 196.42,-179.24"/>
<polygon fill="#63b8ff" stroke="#63b8ff" points="195.07,-182.8 205.66,-182.52 197.2,-176.13 195.07,-182.8"/>
</a>
</g>
</g>
<!-- Node11 -->
<g id="Node000011" class="node">
<title>Node11</title>
<g id="a_Node000011"><a xlink:href="a00415.html#gab313dfcda98b03477bba5f3812dbb3cc" target="_top" xlink:title="This routine writes data to mailbox.">
<polygon fill="white" stroke="#666666" points="309.88,-64 170.88,-64 170.88,-44 309.88,-44 309.88,-64"/>
<text text-anchor="middle" x="240.38" y="-50.5" font-family="Helvetica,sans-Serif" font-size="10.00">SEC_CORE1_ProtocolWrite</text>
</a>
</g>
</g>
<!-- Node1&#45;&gt;Node11 -->
<g id="edge12_Node000001_Node000011" class="edge">
<title>Node1&#45;&gt;Node11</title>
<g id="a_edge12_Node000001_Node000011"><a xlink:title=" ">
<path fill="none" stroke="#63b8ff" d="M84.03,-125.61C115.08,-111.3 171.24,-85.41 206.85,-68.99"/>
<polygon fill="#63b8ff" stroke="#63b8ff" points="208.13,-71.8 215.75,-64.43 205.2,-65.44 208.13,-71.8"/>
</a>
</g>
</g>
<!-- Node3 -->
<g id="Node000003" class="node">
<title>Node3</title>
<g id="a_Node000003"><a xlink:href="a00399.html#ga57b30800d7bd3b3c936f578ca1fd7e32" target="_top" xlink:title="This function get the FIFO user address, message depth and payload size information.">
<polygon fill="white" stroke="#666666" points="496.88,-184 392.38,-184 392.38,-164 496.88,-164 496.88,-184"/>
<text text-anchor="middle" x="444.62" y="-170.5" font-family="Helvetica,sans-Serif" font-size="10.00">CAN1_FIFO_InfoGet</text>
</a>
</g>
</g>
<!-- Node2&#45;&gt;Node3 -->
<g id="edge2_Node000002_Node000003" class="edge">
<title>Node2&#45;&gt;Node3</title>
<g id="a_edge2_Node000002_Node000003"><a xlink:title=" ">
<path fill="none" stroke="#63b8ff" d="M280.85,-143.42C309.48,-148.8 348.77,-156.18 381.58,-162.34"/>
<polygon fill="#63b8ff" stroke="#63b8ff" points="380.51,-165.89 390.98,-164.3 381.8,-159.01 380.51,-165.89"/>
</a>
</g>
</g>
<!-- Node4 -->
<g id="Node000004" class="node">
<title>Node4</title>
<g id="a_Node000004"><a xlink:href="a00399.html#gaa89329ca22f234476d55536c446b70e3" target="_top" xlink:title="This function read the message object from receive FIFO and update to the user &#160;&#160;message object point...">
<polygon fill="white" stroke="#666666" points="518.25,-146 371,-146 371,-126 518.25,-126 518.25,-146"/>
<text text-anchor="middle" x="444.62" y="-132.5" font-family="Helvetica,sans-Serif" font-size="10.00">CAN1_MessageReadFromFifo</text>
</a>
</g>
</g>
<!-- Node2&#45;&gt;Node4 -->
<g id="edge3_Node000002_Node000004" class="edge">
<title>Node2&#45;&gt;Node4</title>
<g id="a_edge3_Node000002_Node000004"><a xlink:title=" ">
<path fill="none" stroke="#63b8ff" d="M280.85,-136C303.38,-136 332.51,-136 359.89,-136"/>
<polygon fill="#63b8ff" stroke="#63b8ff" points="359.68,-139.5 369.68,-136 359.68,-132.5 359.68,-139.5"/>
</a>
</g>
</g>
<!-- Node6 -->
<g id="Node000006" class="node">
<title>Node6</title>
<g id="a_Node000006"><a xlink:href="a00399.html#ga0dab5f41a5a5ef032d23c2ba4890a866" target="_top" xlink:title="This function Update the receive FIFO message increment tail position.">
<polygon fill="white" stroke="#666666" points="527.25,-108 362,-108 362,-88 527.25,-88 527.25,-108"/>
<text text-anchor="middle" x="444.62" y="-94.5" font-family="Helvetica,sans-Serif" font-size="10.00">CAN1_RX_FIFO_IncrementMsgPtr</text>
</a>
</g>
</g>
<!-- Node2&#45;&gt;Node6 -->
<g id="edge5_Node000002_Node000006" class="edge">
<title>Node2&#45;&gt;Node6</title>
<g id="a_edge5_Node000002_Node000006"><a xlink:title=" ">
<path fill="none" stroke="#63b8ff" d="M280.85,-128.58C308.22,-123.44 345.33,-116.47 377.21,-110.48"/>
<polygon fill="#63b8ff" stroke="#63b8ff" points="377.62,-113.78 386.8,-108.49 376.32,-106.9 377.62,-113.78"/>
</a>
</g>
</g>
<!-- Node7 -->
<g id="Node000007" class="node">
<title>Node7</title>
<g id="a_Node000007"><a xlink:href="a00399.html#ga224fbf549503a57f5818cc8391105b8f" target="_top" xlink:title="This function is used to clear the CAN1 receive FIFO overflow status bit.">
<polygon fill="white" stroke="#666666" points="522.38,-70 366.88,-70 366.88,-38 522.38,-38 522.38,-70"/>
<text text-anchor="start" x="374.88" y="-56.5" font-family="Helvetica,sans-Serif" font-size="10.00">CAN1_RX_FIFO_OverflowStatus</text>
<text text-anchor="middle" x="444.62" y="-44.5" font-family="Helvetica,sans-Serif" font-size="10.00">FlagClear</text>
</a>
</g>
</g>
<!-- Node2&#45;&gt;Node7 -->
<g id="edge6_Node000002_Node000007" class="edge">
<title>Node2&#45;&gt;Node7</title>
<g id="a_edge6_Node000002_Node000007"><a xlink:title=" ">
<path fill="none" stroke="#63b8ff" d="M260.64,-125.55C283.73,-113.3 323.8,-92.91 359.75,-79 364.26,-77.26 368.94,-75.56 373.68,-73.93"/>
<polygon fill="#63b8ff" stroke="#63b8ff" points="374.73,-76.93 383.12,-70.46 372.52,-70.29 374.73,-76.93"/>
</a>
</g>
</g>
<!-- Node8 -->
<g id="Node000008" class="node">
<title>Node8</title>
<g id="a_Node000008"><a xlink:href="a00399.html#ga4a6437adcdf1917fffef4e7e5761fda1" target="_top" xlink:title="This returns the CAN1 receive FIFO status.">
<polygon fill="white" stroke="#666666" points="512.25,-222 377,-222 377,-202 512.25,-202 512.25,-222"/>
<text text-anchor="middle" x="444.62" y="-208.5" font-family="Helvetica,sans-Serif" font-size="10.00">CAN1_RX_FIFO_StatusGet</text>
</a>
</g>
</g>
<!-- Node2&#45;&gt;Node8 -->
<g id="edge7_Node000002_Node000008" class="edge">
<title>Node2&#45;&gt;Node8</title>
<g id="a_edge7_Node000002_Node000008"><a xlink:title=" ">
<path fill="none" stroke="#63b8ff" d="M264.97,-146.48C281.52,-153.93 304.12,-164.3 323.75,-174 339.97,-182.01 342.78,-186.73 359.75,-193 365.49,-195.12 371.55,-197.05 377.66,-198.8"/>
<polygon fill="#63b8ff" stroke="#63b8ff" points="376.41,-202.35 386.98,-201.56 378.23,-195.59 376.41,-202.35"/>
</a>
</g>
</g>
<!-- Node5 -->
<g id="Node000005" class="node">
<title>Node5</title>
<g id="a_Node000005"><a xlink:href="a00399.html#ga61d156b0e75424f9b630cef5c424ac13" target="_top" xlink:title="This function get the DLC enum based decimal value.">
<polygon fill="white" stroke="#666666" points="698.5,-146 565.5,-146 565.5,-126 698.5,-126 698.5,-146"/>
<text text-anchor="middle" x="632" y="-132.5" font-family="Helvetica,sans-Serif" font-size="10.00">CAN1_DlcToDataBytesGet</text>
</a>
</g>
</g>
<!-- Node4&#45;&gt;Node5 -->
<g id="edge4_Node000004_Node000005" class="edge">
<title>Node4&#45;&gt;Node5</title>
<g id="a_edge4_Node000004_Node000005"><a xlink:title=" ">
<path fill="none" stroke="#63b8ff" d="M518.62,-136C530.41,-136 542.65,-136 554.52,-136"/>
<polygon fill="#63b8ff" stroke="#63b8ff" points="554.3,-139.5 564.3,-136 554.3,-132.5 554.3,-139.5"/>
</a>
</g>
</g>
<!-- Node9&#45;&gt;Node3 -->
<g id="edge9_Node000009_Node000003" class="edge">
<title>Node9&#45;&gt;Node3</title>
<g id="a_edge9_Node000009_Node000003"><a xlink:title=" ">
<path fill="none" stroke="#63b8ff" d="M324.22,-185.22C343.19,-183.43 363.05,-181.57 381.01,-179.88"/>
<polygon fill="#63b8ff" stroke="#63b8ff" points="381.29,-183.28 390.92,-178.86 380.63,-176.31 381.29,-183.28"/>
</a>
</g>
</g>
<!-- Node9&#45;&gt;Node8 -->
<g id="edge11_Node000009_Node000008" class="edge">
<title>Node9&#45;&gt;Node8</title>
<g id="a_edge11_Node000009_Node000008"><a xlink:title=" ">
<path fill="none" stroke="#63b8ff" d="M324.22,-200.78C337.99,-202.08 352.23,-203.41 365.87,-204.7"/>
<polygon fill="#63b8ff" stroke="#63b8ff" points="365.38,-208.26 375.66,-205.71 366.04,-201.29 365.38,-208.26"/>
</a>
</g>
</g>
<!-- Node10 -->
<g id="Node000010" class="node">
<title>Node10</title>
<g id="a_Node000010"><a xlink:href="a00399.html#ga5532c9a884cedd0805a011bf8baaabdd" target="_top" xlink:title="This function get the Receiver FIFO message index value.">
<polygon fill="white" stroke="#666666" points="529.5,-260 359.75,-260 359.75,-240 529.5,-240 529.5,-260"/>
<text text-anchor="middle" x="444.62" y="-246.5" font-family="Helvetica,sans-Serif" font-size="10.00">CAN1_RX_FIFO_MessageIndexGet</text>
</a>
</g>
</g>
<!-- Node9&#45;&gt;Node10 -->
<g id="edge10_Node000009_Node000010" class="edge">
<title>Node9&#45;&gt;Node10</title>
<g id="a_edge10_Node000009_Node000010"><a xlink:title=" ">
<path fill="none" stroke="#63b8ff" d="M271.32,-203.42C295.12,-211.5 329.35,-222.69 359.75,-231 367.46,-233.11 375.62,-235.16 383.69,-237.1"/>
<polygon fill="#63b8ff" stroke="#63b8ff" points="382.68,-240.69 393.22,-239.57 384.28,-233.88 382.68,-240.69"/>
</a>
</g>
</g>
<!-- Node12 -->
<g id="Node000012" class="node">
<title>Node12</title>
<g id="a_Node000012"><a xlink:href="a00415.html#ga7048b9c95d3c78e856b4af93f8bac646" target="_top" xlink:title="This inline function checks whether mailbox is empty. Returns true if Protocol is empty indicating ma...">
<polygon fill="white" stroke="#666666" points="520.5,-20 368.75,-20 368.75,0 520.5,0 520.5,-20"/>
<text text-anchor="middle" x="444.62" y="-6.5" font-family="Helvetica,sans-Serif" font-size="10.00">SEC_CORE1_ProtocolIsEmpty</text>
</a>
</g>
</g>
<!-- Node11&#45;&gt;Node12 -->
<g id="edge13_Node000011_Node000012" class="edge">
<title>Node11&#45;&gt;Node12</title>
<g id="a_edge13_Node000011_Node000012"><a xlink:title=" ">
<path fill="none" stroke="#63b8ff" d="M289.56,-43.52C318.2,-37.29 354.72,-29.34 385.02,-22.75"/>
<polygon fill="#63b8ff" stroke="#63b8ff" points="385.43,-26.02 394.46,-20.48 383.94,-19.18 385.43,-26.02"/>
</a>
</g>
</g>
</g>
</svg>

<g id="navigator" transform="translate(0 0)" fill="#404254">
  <rect fill="#f2f5e9" fill-opacity="0.5" stroke="#606060" stroke-width=".5" x="0" y="0" width="60" height="60"/>
  <use id="zoomplus" xlink:href="#zoomPlus" x="17" y="9" onmousedown="handleZoom(evt,'in')"/>
  <use id="zoomminus" xlink:href="#zoomMin" x="42" y="9" onmousedown="handleZoom(evt,'out')"/>
  <use id="reset" xlink:href="#resetDef" x="30" y="36" onmousedown="handleReset()"/>
   <use id="arrowup" xlink:href="#arrowUp" x="0" y="0" onmousedown="handlePan(0,-1)"/>
  <use id="arrowright" xlink:href="#arrowRight" x="0" y="0" onmousedown="handlePan(1,0)"/>
  <use id="arrowdown" xlink:href="#arrowDown" x="0" y="0" onmousedown="handlePan(0,1)"/>
  <use id="arrowleft" xlink:href="#arrowLeft" x="0" y="0" onmousedown="handlePan(-1,0)"/>
</g>
<svg viewBox="0 0 15 15" width="100%" height="30px" preserveAspectRatio="xMaxYMin meet">
 <g id="arrow_out" transform="scale(0.3 0.3)">
  <a xlink:href="a00230_a77b41fe067ba8e8d666827b686e52cff_cgraph_org.svg" target="_base">
   <rect id="button" ry="5" rx="5" y="6" x="6" height="38" width="38"
        fill="#f2f5e9" fill-opacity="0.5" stroke="#606060" stroke-width="1.0"/>
   <path id="arrow"
     d="M 11.500037,31.436501 C 11.940474,20.09759 22.043105,11.32322 32.158766,21.979434 L 37.068811,17.246167 C 37.068811,17.246167 37.088388,32 37.088388,32 L 22.160133,31.978069 C 22.160133,31.978069 26.997745,27.140456 26.997745,27.140456 C 18.528582,18.264221 13.291696,25.230495 11.500037,31.436501 z"
     style="fill:#404040;"/>
  </a>
 </g>
</svg>

<style type='text/css'>
<![CDATA[
[data-mouse-over-selected='false'] { opacity: 0.7; }
[data-mouse-over-selected='true']  { opacity: 1.0; }
]]>
</style>
<script type="application/ecmascript"><![CDATA[
document.addEventListener('DOMContentLoaded', (event) => {
  highlightEdges();
  highlightAdjacentNodes();
});
]]></script>
</svg>
