<?xml version="1.0" encoding="UTF-8" standalone="no"?>
<!DOCTYPE svg PUBLIC "-//W3C//DTD SVG 1.1//EN"
 "http://www.w3.org/Graphics/SVG/1.1/DTD/svg11.dtd">
<!-- Generated by graphviz version 8.1.0 (20230707.0739)
 -->
<!-- Title: D:/Firmware/MCU16ASMPS_TestEnvironment/_deployment/dspic33ch&#45;power&#45;totem&#45;pole&#45;demonstration&#45;application&#45;single&#45;phase/dspic33ch_totem_pole_single_phase_primary_IL.X/sources/driver/can/drv_can.c Pages: 1 -->
<svg width="1329pt" height="360pt"
 viewBox="0.00 0.00 1328.59 360.00" xmlns="http://www.w3.org/2000/svg" xmlns:xlink="http://www.w3.org/1999/xlink">
<g id="graph0" class="graph" transform="scale(1 1) rotate(0) translate(4 356)">
<title>D:/Firmware/MCU16ASMPS_TestEnvironment/_deployment/dspic33ch&#45;power&#45;totem&#45;pole&#45;demonstration&#45;application&#45;single&#45;phase/dspic33ch_totem_pole_single_phase_primary_IL.X/sources/driver/can/drv_can.c</title>
<!-- Node1 -->
<g id="Node000001" class="node">
<title>Node1</title>
<g id="a_Node000001"><a xlink:title="This is the driver source file for CAN driver.">
<polygon fill="#999999" stroke="#666666" points="711.25,-352 534.75,-352 534.75,-260 711.25,-260 711.25,-352"/>
<text text-anchor="start" x="542.75" y="-338.5" font-family="Helvetica,sans-Serif" font-size="10.00">D:/Firmware/MCU16ASMPS</text>
<text text-anchor="start" x="542.75" y="-326.5" font-family="Helvetica,sans-Serif" font-size="10.00">_TestEnvironment/_deployment</text>
<text text-anchor="start" x="542.75" y="-314.5" font-family="Helvetica,sans-Serif" font-size="10.00">/dspic33ch&#45;power&#45;totem&#45;pole</text>
<text text-anchor="start" x="542.75" y="-302.5" font-family="Helvetica,sans-Serif" font-size="10.00">&#45;demonstration&#45;application&#45;single</text>
<text text-anchor="start" x="542.75" y="-290.5" font-family="Helvetica,sans-Serif" font-size="10.00">&#45;phase/dspic33ch_totem_pole_single</text>
<text text-anchor="start" x="542.75" y="-278.5" font-family="Helvetica,sans-Serif" font-size="10.00">_phase_primary_IL.X/sources/driver</text>
<text text-anchor="middle" x="623" y="-266.5" font-family="Helvetica,sans-Serif" font-size="10.00">/can/drv_can.c</text>
</a>
</g>
</g>
<!-- Node2 -->
<g id="Node000002" class="node">
<title>Node2</title>
<g id="a_Node000002"><a xlink:href="a00236.html" target="_top" xlink:title="This is the driver header file for DMA driver.">
<polygon fill="white" stroke="#666666" points="175.75,-218 68.25,-218 68.25,-198 175.75,-198 175.75,-218"/>
<text text-anchor="middle" x="122" y="-204.5" font-family="Helvetica,sans-Serif" font-size="10.00">driver/dma/drv_dma.h</text>
</a>
</g>
</g>
<!-- Node1&#45;&gt;Node2 -->
<g id="edge1_Node000001_Node000002" class="edge">
<title>Node1&#45;&gt;Node2</title>
<g id="a_edge1_Node000001_Node000002"><a xlink:title=" ">
<path fill="none" stroke="#63b8ff" d="M534.3,-288C432.85,-268.56 269.53,-237.27 182,-220.5"/>
<polygon fill="#63b8ff" stroke="#63b8ff" points="182.93,-216.92 172.45,-218.48 181.61,-223.79 182.93,-216.92"/>
</a>
</g>
</g>
<!-- Node5 -->
<g id="Node000005" class="node">
<title>Node5</title>
<g id="a_Node000005"><a xlink:href="a00230.html" target="_top" xlink:title="header of the CAN Driver">
<polygon fill="white" stroke="#666666" points="594.62,-218 537.38,-218 537.38,-198 594.62,-198 594.62,-218"/>
<text text-anchor="middle" x="566" y="-204.5" font-family="Helvetica,sans-Serif" font-size="10.00">drv_can.h</text>
</a>
</g>
</g>
<!-- Node1&#45;&gt;Node5 -->
<g id="edge4_Node000001_Node000005" class="edge">
<title>Node1&#45;&gt;Node5</title>
<g id="a_edge4_Node000001_Node000005"><a xlink:title=" ">
<path fill="none" stroke="#63b8ff" d="M596,-259.53C589.31,-248.26 582.51,-236.81 577.08,-227.66"/>
<polygon fill="#63b8ff" stroke="#63b8ff" points="579.72,-226.26 571.61,-219.45 573.7,-229.83 579.72,-226.26"/>
</a>
</g>
</g>
<!-- Node6 -->
<g id="Node000006" class="node">
<title>Node6</title>
<g id="a_Node000006"><a xlink:href="a00260.html" target="_top" xlink:title="header of the VAC">
<polygon fill="white" stroke="#666666" points="438.62,-224 345.38,-224 345.38,-192 438.62,-192 438.62,-224"/>
<text text-anchor="start" x="353.38" y="-210.5" font-family="Helvetica,sans-Serif" font-size="10.00">driver/vac_monitor</text>
<text text-anchor="middle" x="392" y="-198.5" font-family="Helvetica,sans-Serif" font-size="10.00">/vac_monitor.h</text>
</a>
</g>
</g>
<!-- Node1&#45;&gt;Node6 -->
<g id="edge6_Node000001_Node000006" class="edge">
<title>Node1&#45;&gt;Node6</title>
<g id="a_edge6_Node000001_Node000006"><a xlink:title=" ">
<path fill="none" stroke="#63b8ff" d="M534.35,-268.16C501.97,-254.7 466.61,-240.01 439.23,-228.63"/>
<polygon fill="#63b8ff" stroke="#63b8ff" points="440.73,-225.05 430.15,-224.44 438.05,-231.51 440.73,-225.05"/>
</a>
</g>
</g>
<!-- Node11 -->
<g id="Node000011" class="node">
<title>Node11</title>
<g id="a_Node000011"><a xlink:href="a00889_source.html" target="_top" xlink:title=" ">
<polygon fill="white" stroke="#666666" points="233.75,-144 150.25,-144 150.25,-124 233.75,-124 233.75,-144"/>
<text text-anchor="middle" x="192" y="-130.5" font-family="Helvetica,sans-Serif" font-size="10.00">../../../revision.h</text>
</a>
</g>
</g>
<!-- Node1&#45;&gt;Node11 -->
<g id="edge25_Node000001_Node000011" class="edge">
<title>Node1&#45;&gt;Node11</title>
<g id="a_edge25_Node000001_Node000011"><a xlink:title=" ">
<path fill="none" stroke="#63b8ff" d="M534.46,-286.75C476.58,-273.2 400.1,-252.19 336,-224 289.55,-203.57 240.26,-170.22 213.09,-150.67"/>
<polygon fill="#63b8ff" stroke="#63b8ff" points="215.58,-147.43 205.44,-144.37 211.46,-153.08 215.58,-147.43"/>
</a>
</g>
</g>
<!-- Node12 -->
<g id="Node000012" class="node">
<title>Node12</title>
<g id="a_Node000012"><a xlink:title=" ">
<polygon fill="#e0e0e0" stroke="#999999" points="537.62,-156 420.38,-156 420.38,-112 537.62,-112 537.62,-156"/>
<text text-anchor="start" x="428.38" y="-142.5" font-family="Helvetica,sans-Serif" font-size="10.00">../sources_common</text>
<text text-anchor="start" x="428.38" y="-130.5" font-family="Helvetica,sans-Serif" font-size="10.00">/Totempole_Application</text>
<text text-anchor="middle" x="479" y="-118.5" font-family="Helvetica,sans-Serif" font-size="10.00">_Setup.h</text>
</a>
</g>
</g>
<!-- Node1&#45;&gt;Node12 -->
<g id="edge48_Node000001_Node000012" class="edge">
<title>Node1&#45;&gt;Node12</title>
<g id="a_edge48_Node000001_Node000012"><a xlink:title=" ">
<path fill="none" stroke="#63b8ff" d="M563.09,-259.68C550.68,-248.77 538.27,-236.6 528,-224 513.74,-206.52 501.5,-184.29 492.82,-166.42"/>
<polygon fill="#63b8ff" stroke="#63b8ff" points="495.56,-165.02 488.13,-157.47 489.23,-168.01 495.56,-165.02"/>
</a>
</g>
</g>
<!-- Node13 -->
<g id="Node000013" class="node">
<title>Node13</title>
<g id="a_Node000013"><a xlink:href="a00254.html" target="_top" xlink:title="This is the driver source file for spi builds upon mcc.">
<polygon fill="white" stroke="#666666" points="803.75,-144 708.25,-144 708.25,-124 803.75,-124 803.75,-144"/>
<text text-anchor="middle" x="756" y="-130.5" font-family="Helvetica,sans-Serif" font-size="10.00">driver/spi/drv_spi.h</text>
</a>
</g>
</g>
<!-- Node1&#45;&gt;Node13 -->
<g id="edge15_Node000001_Node000013" class="edge">
<title>Node1&#45;&gt;Node13</title>
<g id="a_edge15_Node000001_Node000013"><a xlink:title=" ">
<path fill="none" stroke="#63b8ff" d="M621.35,-259.74C622.7,-237.44 627.74,-211.27 642,-192 657.88,-170.54 684.11,-156.64 707.41,-147.95"/>
<polygon fill="#63b8ff" stroke="#63b8ff" points="708.23,-151.03 716.52,-144.43 705.92,-144.42 708.23,-151.03"/>
</a>
</g>
</g>
<!-- Node14 -->
<g id="Node000014" class="node">
<title>Node14</title>
<g id="a_Node000014"><a xlink:href="a00242.html" target="_top" xlink:title="This is the driver header file for DMA driver.">
<polygon fill="white" stroke="#666666" points="746.75,-218 651.25,-218 651.25,-198 746.75,-198 746.75,-218"/>
<text text-anchor="middle" x="699" y="-204.5" font-family="Helvetica,sans-Serif" font-size="10.00">driver/i2c/drv_i2c.h</text>
</a>
</g>
</g>
<!-- Node1&#45;&gt;Node14 -->
<g id="edge18_Node000001_Node000014" class="edge">
<title>Node1&#45;&gt;Node14</title>
<g id="a_edge18_Node000001_Node000014"><a xlink:title=" ">
<path fill="none" stroke="#63b8ff" d="M659,-259.53C668.2,-247.9 677.57,-236.07 684.92,-226.78"/>
<polygon fill="#63b8ff" stroke="#63b8ff" points="688.06,-229.46 691.52,-219.45 682.57,-225.11 688.06,-229.46"/>
</a>
</g>
</g>
<!-- Node17 -->
<g id="Node000017" class="node">
<title>Node17</title>
<g id="a_Node000017"><a xlink:href="a00089_source.html" target="_top" xlink:title=" ">
<polygon fill="white" stroke="#666666" points="1058.38,-144 957.62,-144 957.62,-124 1058.38,-124 1058.38,-144"/>
<text text-anchor="middle" x="1008" y="-130.5" font-family="Helvetica,sans-Serif" font-size="10.00">can/can_interface.h</text>
</a>
</g>
</g>
<!-- Node1&#45;&gt;Node17 -->
<g id="edge26_Node000001_Node000017" class="edge">
<title>Node1&#45;&gt;Node17</title>
<g id="a_edge26_Node000001_Node000017"><a xlink:title=" ">
<path fill="none" stroke="#63b8ff" d="M702,-259.62C720.09,-248.48 738.99,-236.23 756,-224 773.93,-211.11 774.42,-202.2 794,-192 842.2,-166.9 902.41,-152.14 946.68,-143.95"/>
<polygon fill="#63b8ff" stroke="#63b8ff" points="947.06,-147.26 956.29,-142.06 945.83,-140.37 947.06,-147.26"/>
</a>
</g>
</g>
<!-- Node19 -->
<g id="Node000019" class="node">
<title>Node19</title>
<g id="a_Node000019"><a xlink:title=" ">
<polygon fill="#e0e0e0" stroke="#999999" points="880.75,-218 803.25,-218 803.25,-198 880.75,-198 880.75,-218"/>
<text text-anchor="middle" x="842" y="-204.5" font-family="Helvetica,sans-Serif" font-size="10.00">system/pins.h</text>
</a>
</g>
</g>
<!-- Node1&#45;&gt;Node19 -->
<g id="edge31_Node000001_Node000019" class="edge">
<title>Node1&#45;&gt;Node19</title>
<g id="a_edge31_Node000001_Node000019"><a xlink:title=" ">
<path fill="none" stroke="#63b8ff" d="M711.44,-266.23C746.5,-250.86 784.55,-234.18 810.48,-222.82"/>
<polygon fill="#63b8ff" stroke="#63b8ff" points="811.71,-225.66 819.46,-218.44 808.9,-219.25 811.71,-225.66"/>
</a>
</g>
</g>
<!-- Node20 -->
<g id="Node000020" class="node">
<title>Node20</title>
<g id="a_Node000020"><a xlink:href="a00083.html" target="_top" xlink:title="This is the generated driver header file for the CAN1 driver using CCL.">
<polygon fill="white" stroke="#666666" points="1001,-218 937,-218 937,-198 1001,-198 1001,-218"/>
<text text-anchor="middle" x="969" y="-204.5" font-family="Helvetica,sans-Serif" font-size="10.00">can/can1.h</text>
</a>
</g>
</g>
<!-- Node1&#45;&gt;Node20 -->
<g id="edge32_Node000001_Node000020" class="edge">
<title>Node1&#45;&gt;Node20</title>
<g id="a_edge32_Node000001_Node000020"><a xlink:title=" ">
<path fill="none" stroke="#63b8ff" d="M711.65,-280.4C780.59,-261.28 873.18,-235.59 926.44,-220.81"/>
<polygon fill="#63b8ff" stroke="#63b8ff" points="927.17,-223.96 935.87,-217.92 925.29,-217.22 927.17,-223.96"/>
</a>
</g>
</g>
<!-- Node21 -->
<g id="Node000021" class="node">
<title>Node21</title>
<g id="a_Node000021"><a xlink:href="a00122.html" target="_top" xlink:title="This is the generated driver header file for the SEC_CORE1 driver.">
<polygon fill="white" stroke="#666666" points="1189.88,-224 1086.12,-224 1086.12,-192 1189.88,-192 1189.88,-224"/>
<text text-anchor="start" x="1094.12" y="-210.5" font-family="Helvetica,sans-Serif" font-size="10.00">secondary_core/sec</text>
<text text-anchor="middle" x="1138" y="-198.5" font-family="Helvetica,sans-Serif" font-size="10.00">_core1.h</text>
</a>
</g>
</g>
<!-- Node1&#45;&gt;Node21 -->
<g id="edge38_Node000001_Node000021" class="edge">
<title>Node1&#45;&gt;Node21</title>
<g id="a_edge38_Node000001_Node000021"><a xlink:title=" ">
<path fill="none" stroke="#63b8ff" d="M711.53,-288.5C815.17,-269.18 984.17,-237.67 1075.2,-220.71"/>
<polygon fill="#63b8ff" stroke="#63b8ff" points="1075.71,-223.98 1084.9,-218.71 1074.43,-217.1 1075.71,-223.98"/>
</a>
</g>
</g>
<!-- Node3 -->
<g id="Node000003" class="node">
<title>Node3</title>
<g id="a_Node000003"><a xlink:title=" ">
<polygon fill="#e0e0e0" stroke="#999999" points="621.38,-76 586.62,-76 586.62,-56 621.38,-56 621.38,-76"/>
<text text-anchor="middle" x="604" y="-62.5" font-family="Helvetica,sans-Serif" font-size="10.00">xc.h</text>
</a>
</g>
</g>
<!-- Node2&#45;&gt;Node3 -->
<g id="edge2_Node000002_Node000003" class="edge">
<title>Node2&#45;&gt;Node3</title>
<g id="a_edge2_Node000002_Node000003"><a xlink:title=" ">
<path fill="none" stroke="#63b8ff" d="M120.65,-197.73C118.42,-178.5 116.42,-134.22 141,-112 173.27,-82.82 479.34,-70.88 575.34,-67.83"/>
<polygon fill="#63b8ff" stroke="#63b8ff" points="575.33,-71.3 585.22,-67.5 575.12,-64.31 575.33,-71.3"/>
</a>
</g>
</g>
<!-- Node4 -->
<g id="Node000004" class="node">
<title>Node4</title>
<g id="a_Node000004"><a xlink:href="a00113.html" target="_top" xlink:title="This is the generated driver types header file for the DMA driver.">
<polygon fill="white" stroke="#666666" points="94,-144 0,-144 0,-124 94,-124 94,-144"/>
<text text-anchor="middle" x="47" y="-130.5" font-family="Helvetica,sans-Serif" font-size="10.00">dma/dma_types.h</text>
</a>
</g>
</g>
<!-- Node2&#45;&gt;Node4 -->
<g id="edge3_Node000002_Node000004" class="edge">
<title>Node2&#45;&gt;Node4</title>
<g id="a_edge3_Node000002_Node000004"><a xlink:title=" ">
<path fill="none" stroke="#63b8ff" d="M112.2,-197.59C100,-185.88 78.98,-165.7 64.1,-151.42"/>
<polygon fill="#63b8ff" stroke="#63b8ff" points="67.21,-149.59 57.57,-145.19 62.36,-154.64 67.21,-149.59"/>
</a>
</g>
</g>
<!-- Node5&#45;&gt;Node3 -->
<g id="edge5_Node000005_Node000003" class="edge">
<title>Node5&#45;&gt;Node3</title>
<g id="a_edge5_Node000005_Node000003"><a xlink:title=" ">
<path fill="none" stroke="#63b8ff" d="M568.22,-197.52C572.26,-180.37 581.24,-143.11 590,-112 592.35,-103.64 595.16,-94.48 597.65,-86.61"/>
<polygon fill="#63b8ff" stroke="#63b8ff" points="601.24,-87.86 600.96,-77.26 594.58,-85.72 601.24,-87.86"/>
</a>
</g>
</g>
<!-- Node6&#45;&gt;Node3 -->
<g id="edge7_Node000006_Node000003" class="edge">
<title>Node6&#45;&gt;Node3</title>
<g id="a_edge7_Node000006_Node000003"><a xlink:title=" ">
<path fill="none" stroke="#63b8ff" d="M390.39,-191.55C389.13,-170.61 390.28,-133.38 411,-112 433.56,-88.71 527.5,-75.33 575.5,-69.88"/>
<polygon fill="#63b8ff" stroke="#63b8ff" points="575.81,-73.26 585.37,-68.7 575.05,-66.3 575.81,-73.26"/>
</a>
</g>
</g>
<!-- Node7 -->
<g id="Node000007" class="node">
<title>Node7</title>
<g id="a_Node000007"><a xlink:href="a00263.html" target="_top" xlink:title="VAC Types define.">
<polygon fill="white" stroke="#666666" points="364.38,-144 251.62,-144 251.62,-124 364.38,-124 364.38,-144"/>
<text text-anchor="middle" x="308" y="-130.5" font-family="Helvetica,sans-Serif" font-size="10.00">vac_monitor_typedef.h</text>
</a>
</g>
</g>
<!-- Node6&#45;&gt;Node7 -->
<g id="edge8_Node000006_Node000007" class="edge">
<title>Node6&#45;&gt;Node7</title>
<g id="a_edge8_Node000006_Node000007"><a xlink:title=" ">
<path fill="none" stroke="#63b8ff" d="M374.19,-191.73C360.31,-179.83 341.08,-163.36 326.93,-151.22"/>
<polygon fill="#63b8ff" stroke="#63b8ff" points="329.73,-148.16 319.86,-144.31 325.18,-153.48 329.73,-148.16"/>
</a>
</g>
</g>
<!-- Node6&#45;&gt;Node11 -->
<g id="edge13_Node000006_Node000011" class="edge">
<title>Node6&#45;&gt;Node11</title>
<g id="a_edge13_Node000006_Node000011"><a xlink:title=" ">
<path fill="none" stroke="#63b8ff" d="M345.1,-191.76C315.63,-181.98 276.9,-168.77 243,-156 236.91,-153.71 230.47,-151.15 224.28,-148.64"/>
<polygon fill="#63b8ff" stroke="#63b8ff" points="225.81,-145.07 215.23,-144.5 223.14,-151.54 225.81,-145.07"/>
</a>
</g>
</g>
<!-- Node6&#45;&gt;Node12 -->
<g id="edge14_Node000006_Node000012" class="edge">
<title>Node6&#45;&gt;Node12</title>
<g id="a_edge14_Node000006_Node000012"><a xlink:title=" ">
<path fill="none" stroke="#63b8ff" d="M410.45,-191.73C420.48,-183.43 433.22,-172.89 444.98,-163.16"/>
<polygon fill="#63b8ff" stroke="#63b8ff" points="446.84,-165.33 452.32,-156.26 442.38,-159.93 446.84,-165.33"/>
</a>
</g>
</g>
<!-- Node7&#45;&gt;Node3 -->
<g id="edge9_Node000007_Node000003" class="edge">
<title>Node7&#45;&gt;Node3</title>
<g id="a_edge9_Node000007_Node000003"><a xlink:title=" ">
<path fill="none" stroke="#63b8ff" d="M337.12,-123.59C349.63,-119.72 364.46,-115.37 378,-112 448.41,-94.47 532.49,-79.19 575.53,-71.77"/>
<polygon fill="#63b8ff" stroke="#63b8ff" points="576.02,-75.07 585.29,-69.94 574.84,-68.17 576.02,-75.07"/>
</a>
</g>
</g>
<!-- Node8 -->
<g id="Node000008" class="node">
<title>Node8</title>
<g id="a_Node000008"><a xlink:title=" ">
<polygon fill="#e0e0e0" stroke="#999999" points="1030.12,-20 981.88,-20 981.88,0 1030.12,0 1030.12,-20"/>
<text text-anchor="middle" x="1006" y="-6.5" font-family="Helvetica,sans-Serif" font-size="10.00">stdint.h</text>
</a>
</g>
</g>
<!-- Node7&#45;&gt;Node8 -->
<g id="edge10_Node000007_Node000008" class="edge">
<title>Node7&#45;&gt;Node8</title>
<g id="a_edge10_Node000007_Node000008"><a xlink:title=" ">
<path fill="none" stroke="#63b8ff" d="M335.22,-123.54C383.49,-107.14 487.55,-73.51 578,-56 722.13,-28.09 897.15,-16.51 970.73,-12.64"/>
<polygon fill="#63b8ff" stroke="#63b8ff" points="970.84,-16.09 980.65,-12.08 970.48,-9.1 970.84,-16.09"/>
</a>
</g>
</g>
<!-- Node9 -->
<g id="Node000009" class="node">
<title>Node9</title>
<g id="a_Node000009"><a xlink:title=" ">
<polygon fill="#e0e0e0" stroke="#999999" points="914.88,-76 859.12,-76 859.12,-56 914.88,-56 914.88,-76"/>
<text text-anchor="middle" x="887" y="-62.5" font-family="Helvetica,sans-Serif" font-size="10.00">stdbool.h</text>
</a>
</g>
</g>
<!-- Node7&#45;&gt;Node9 -->
<g id="edge11_Node000007_Node000009" class="edge">
<title>Node7&#45;&gt;Node9</title>
<g id="a_edge11_Node000007_Node000009"><a xlink:title=" ">
<path fill="none" stroke="#63b8ff" d="M349.42,-123.5C368.14,-119.48 390.6,-115.03 411,-112 572.34,-88 766.46,-74.33 847.97,-69.27"/>
<polygon fill="#63b8ff" stroke="#63b8ff" points="847.94,-72.72 857.71,-68.62 847.51,-65.73 847.94,-72.72"/>
</a>
</g>
</g>
<!-- Node10 -->
<g id="Node000010" class="node">
<title>Node10</title>
<g id="a_Node000010"><a xlink:title=" ">
<polygon fill="#e0e0e0" stroke="#999999" points="328,-76 288,-76 288,-56 328,-56 328,-76"/>
<text text-anchor="middle" x="308" y="-62.5" font-family="Helvetica,sans-Serif" font-size="10.00">dsp.h</text>
</a>
</g>
</g>
<!-- Node7&#45;&gt;Node10 -->
<g id="edge12_Node000007_Node000010" class="edge">
<title>Node7&#45;&gt;Node10</title>
<g id="a_edge12_Node000007_Node000010"><a xlink:title=" ">
<path fill="none" stroke="#63b8ff" d="M308,-123.54C308,-114.13 308,-99.39 308,-87.32"/>
<polygon fill="#63b8ff" stroke="#63b8ff" points="311.5,-87.44 308,-77.44 304.5,-87.44 311.5,-87.44"/>
</a>
</g>
</g>
<!-- Node13&#45;&gt;Node3 -->
<g id="edge16_Node000013_Node000003" class="edge">
<title>Node13&#45;&gt;Node3</title>
<g id="a_edge16_Node000013_Node000003"><a xlink:title=" ">
<path fill="none" stroke="#63b8ff" d="M734.22,-123.54C707.17,-111.8 661,-91.75 631.52,-78.95"/>
<polygon fill="#63b8ff" stroke="#63b8ff" points="633.05,-75.36 622.49,-74.59 630.26,-81.79 633.05,-75.36"/>
</a>
</g>
</g>
<!-- Node13&#45;&gt;Node9 -->
<g id="edge17_Node000013_Node000009" class="edge">
<title>Node13&#45;&gt;Node9</title>
<g id="a_edge17_Node000013_Node000009"><a xlink:title=" ">
<path fill="none" stroke="#63b8ff" d="M774.77,-123.54C796.66,-112.52 833.07,-94.17 858.46,-81.38"/>
<polygon fill="#63b8ff" stroke="#63b8ff" points="859.91,-84.06 867.27,-76.44 856.76,-77.81 859.91,-84.06"/>
</a>
</g>
</g>
<!-- Node14&#45;&gt;Node3 -->
<g id="edge19_Node000014_Node000003" class="edge">
<title>Node14&#45;&gt;Node3</title>
<g id="a_edge19_Node000014_Node000003"><a xlink:title=" ">
<path fill="none" stroke="#63b8ff" d="M679.23,-197.64C663.11,-189.01 640.96,-174.72 628,-156 613.66,-135.29 607.88,-106.39 605.56,-87.21"/>
<polygon fill="#63b8ff" stroke="#63b8ff" points="608.96,-87.05 604.49,-77.44 601.99,-87.73 608.96,-87.05"/>
</a>
</g>
</g>
<!-- Node15 -->
<g id="Node000015" class="node">
<title>Node15</title>
<g id="a_Node000015"><a xlink:href="a00248_source.html" target="_top" xlink:title=" ">
<polygon fill="white" stroke="#666666" points="864.12,-144 821.88,-144 821.88,-124 864.12,-124 864.12,-144"/>
<text text-anchor="middle" x="843" y="-130.5" font-family="Helvetica,sans-Serif" font-size="10.00">i2c2.h</text>
</a>
</g>
</g>
<!-- Node14&#45;&gt;Node15 -->
<g id="edge20_Node000014_Node000015" class="edge">
<title>Node14&#45;&gt;Node15</title>
<g id="a_edge20_Node000014_Node000015"><a xlink:title=" ">
<path fill="none" stroke="#63b8ff" d="M723.67,-197.55C747.22,-188.17 783.39,-172.79 813,-156 815.95,-154.33 818.97,-152.44 821.9,-150.51"/>
<polygon fill="#63b8ff" stroke="#63b8ff" points="823.57,-152.91 829.79,-144.34 819.58,-147.16 823.57,-152.91"/>
</a>
</g>
</g>
<!-- Node15&#45;&gt;Node3 -->
<g id="edge24_Node000015_Node000003" class="edge">
<title>Node15&#45;&gt;Node3</title>
<g id="a_edge24_Node000015_Node000003"><a xlink:title=" ">
<path fill="none" stroke="#63b8ff" d="M831.96,-123.67C826.55,-119.54 819.76,-114.95 813,-112 752.03,-85.4 673.99,-73.99 632.66,-69.54"/>
<polygon fill="#63b8ff" stroke="#63b8ff" points="633.09,-65.96 622.79,-68.44 632.39,-72.93 633.09,-65.96"/>
</a>
</g>
</g>
<!-- Node15&#45;&gt;Node8 -->
<g id="edge21_Node000015_Node000008" class="edge">
<title>Node15&#45;&gt;Node8</title>
<g id="a_edge21_Node000015_Node000008"><a xlink:title=" ">
<path fill="none" stroke="#63b8ff" d="M840.82,-123.71C837.69,-107.86 833.93,-75.46 850,-56 879.28,-20.55 934.59,-12 970.86,-10.47"/>
<polygon fill="#63b8ff" stroke="#63b8ff" points="970.55,-13.96 980.46,-10.2 970.37,-6.96 970.55,-13.96"/>
</a>
</g>
</g>
<!-- Node15&#45;&gt;Node9 -->
<g id="edge22_Node000015_Node000009" class="edge">
<title>Node15&#45;&gt;Node9</title>
<g id="a_edge22_Node000015_Node000009"><a xlink:title=" ">
<path fill="none" stroke="#63b8ff" d="M849.3,-123.54C855.9,-113.64 866.44,-97.84 874.69,-85.46"/>
<polygon fill="#63b8ff" stroke="#63b8ff" points="878.07,-87.7 880.71,-77.44 872.25,-83.82 878.07,-87.7"/>
</a>
</g>
</g>
<!-- Node16 -->
<g id="Node000016" class="node">
<title>Node16</title>
<g id="a_Node000016"><a xlink:title=" ">
<polygon fill="#e0e0e0" stroke="#999999" points="1109.25,-76 1058.75,-76 1058.75,-56 1109.25,-56 1109.25,-76"/>
<text text-anchor="middle" x="1084" y="-62.5" font-family="Helvetica,sans-Serif" font-size="10.00">stddef.h</text>
</a>
</g>
</g>
<!-- Node15&#45;&gt;Node16 -->
<g id="edge23_Node000015_Node000016" class="edge">
<title>Node15&#45;&gt;Node16</title>
<g id="a_edge23_Node000015_Node000016"><a xlink:title=" ">
<path fill="none" stroke="#63b8ff" d="M864.39,-127.14C905.71,-115.83 996.91,-90.85 1047.83,-76.91"/>
<polygon fill="#63b8ff" stroke="#63b8ff" points="1048.63,-80.04 1057.35,-74.02 1046.78,-73.29 1048.63,-80.04"/>
</a>
</g>
</g>
<!-- Node17&#45;&gt;Node8 -->
<g id="edge28_Node000017_Node000008" class="edge">
<title>Node17&#45;&gt;Node8</title>
<g id="a_edge28_Node000017_Node000008"><a xlink:title=" ">
<path fill="none" stroke="#63b8ff" d="M997.14,-123.83C985.87,-113.53 968.95,-95.66 962,-76 959.04,-67.62 958.64,-64.23 962,-56 966.58,-44.77 975.46,-34.82 984.05,-27.15"/>
<polygon fill="#63b8ff" stroke="#63b8ff" points="985.89,-29.34 991.37,-20.27 981.43,-23.94 985.89,-29.34"/>
</a>
</g>
</g>
<!-- Node17&#45;&gt;Node9 -->
<g id="edge27_Node000017_Node000009" class="edge">
<title>Node17&#45;&gt;Node9</title>
<g id="a_edge27_Node000017_Node000009"><a xlink:title=" ">
<path fill="none" stroke="#63b8ff" d="M990.66,-123.54C970.54,-112.57 937.11,-94.33 913.67,-81.55"/>
<polygon fill="#63b8ff" stroke="#63b8ff" points="915.76,-78.15 905.3,-76.44 912.41,-84.3 915.76,-78.15"/>
</a>
</g>
</g>
<!-- Node18 -->
<g id="Node000018" class="node">
<title>Node18</title>
<g id="a_Node000018"><a xlink:href="a00092.html" target="_top" xlink:title="This is the generated driver types header file for the CAN driver using CCL.">
<polygon fill="white" stroke="#666666" points="1040.62,-76 971.38,-76 971.38,-56 1040.62,-56 1040.62,-76"/>
<text text-anchor="middle" x="1006" y="-62.5" font-family="Helvetica,sans-Serif" font-size="10.00">can_types.h</text>
</a>
</g>
</g>
<!-- Node17&#45;&gt;Node18 -->
<g id="edge29_Node000017_Node000018" class="edge">
<title>Node17&#45;&gt;Node18</title>
<g id="a_edge29_Node000017_Node000018"><a xlink:title=" ">
<path fill="none" stroke="#63b8ff" d="M1007.71,-123.54C1007.43,-114.13 1006.98,-99.39 1006.62,-87.32"/>
<polygon fill="#63b8ff" stroke="#63b8ff" points="1010.09,-87.33 1006.29,-77.44 1003.09,-87.54 1010.09,-87.33"/>
</a>
</g>
</g>
<!-- Node18&#45;&gt;Node8 -->
<g id="edge30_Node000018_Node000008" class="edge">
<title>Node18&#45;&gt;Node8</title>
<g id="a_edge30_Node000018_Node000008"><a xlink:title=" ">
<path fill="none" stroke="#63b8ff" d="M1006,-55.59C1006,-48.86 1006,-39.53 1006,-31.15"/>
<polygon fill="#63b8ff" stroke="#63b8ff" points="1009.5,-31.3 1006,-21.3 1002.5,-31.3 1009.5,-31.3"/>
</a>
</g>
</g>
<!-- Node20&#45;&gt;Node3 -->
<g id="edge33_Node000020_Node000003" class="edge">
<title>Node20&#45;&gt;Node3</title>
<g id="a_edge33_Node000020_Node000003"><a xlink:title=" ">
<path fill="none" stroke="#63b8ff" d="M936.75,-200.66C922.45,-197.91 905.4,-194.7 890,-192 790.68,-174.59 751.39,-209.63 666,-156 652.11,-147.27 628.41,-109.21 614.69,-85.77"/>
<polygon fill="#63b8ff" stroke="#63b8ff" points="617.35,-84.38 609.31,-77.48 611.29,-87.88 617.35,-84.38"/>
</a>
</g>
</g>
<!-- Node20&#45;&gt;Node8 -->
<g id="edge35_Node000020_Node000008" class="edge">
<title>Node20&#45;&gt;Node8</title>
<g id="a_edge35_Node000020_Node000008"><a xlink:title=" ">
<path fill="none" stroke="#63b8ff" d="M1001.28,-199.65C1026.66,-192.39 1061.4,-178.96 1084,-156 1111.1,-128.47 1110.29,-113.86 1118,-76 1119.77,-67.29 1122.98,-63.36 1118,-56 1100.96,-30.78 1067.2,-19.69 1041.18,-14.82"/>
<polygon fill="#63b8ff" stroke="#63b8ff" points="1042.01,-11.25 1031.57,-13.09 1040.88,-18.15 1042.01,-11.25"/>
</a>
</g>
</g>
<!-- Node20&#45;&gt;Node9 -->
<g id="edge34_Node000020_Node000009" class="edge">
<title>Node20&#45;&gt;Node9</title>
<g id="a_edge34_Node000020_Node000009"><a xlink:title=" ">
<path fill="none" stroke="#63b8ff" d="M956.36,-197.82C944.39,-188.52 926.71,-173.1 916,-156 902.49,-134.44 894.65,-105.95 890.61,-87.08"/>
<polygon fill="#63b8ff" stroke="#63b8ff" points="893.89,-86.61 888.52,-77.48 887.02,-87.97 893.89,-86.61"/>
</a>
</g>
</g>
<!-- Node20&#45;&gt;Node17 -->
<g id="edge37_Node000020_Node000017" class="edge">
<title>Node20&#45;&gt;Node17</title>
<g id="a_edge37_Node000020_Node000017"><a xlink:title=" ">
<path fill="none" stroke="#63b8ff" d="M974.1,-197.59C980.09,-186.53 990.17,-167.91 997.79,-153.85"/>
<polygon fill="#63b8ff" stroke="#63b8ff" points="1001.34,-155.65 1003.02,-145.19 995.18,-152.31 1001.34,-155.65"/>
</a>
</g>
</g>
<!-- Node20&#45;&gt;Node18 -->
<g id="edge36_Node000020_Node000018" class="edge">
<title>Node20&#45;&gt;Node18</title>
<g id="a_edge36_Node000020_Node000018"><a xlink:title=" ">
<path fill="none" stroke="#63b8ff" d="M1001.11,-199.67C1023.86,-192.61 1052.77,-179.45 1067,-156 1077.15,-139.28 1075.81,-129.46 1067,-112 1060.49,-99.12 1048.37,-89.01 1036.63,-81.67"/>
<polygon fill="#63b8ff" stroke="#63b8ff" points="1038.83,-78.32 1028.41,-76.37 1035.34,-84.39 1038.83,-78.32"/>
</a>
</g>
</g>
<!-- Node21&#45;&gt;Node3 -->
<g id="edge39_Node000021_Node000003" class="edge">
<title>Node21&#45;&gt;Node3</title>
<g id="a_edge39_Node000021_Node000003"><a xlink:title=" ">
<path fill="none" stroke="#63b8ff" d="M1085.69,-200.85C1062.5,-198.13 1034.89,-194.9 1010,-192 940.89,-183.95 760.05,-189.36 699,-156 676.83,-143.88 681.17,-129.56 663,-112 651.85,-101.23 638.15,-90.64 626.76,-82.45"/>
<polygon fill="#63b8ff" stroke="#63b8ff" points="629.03,-79.06 618.84,-76.17 625.01,-84.79 629.03,-79.06"/>
</a>
</g>
</g>
<!-- Node21&#45;&gt;Node8 -->
<g id="edge40_Node000021_Node000008" class="edge">
<title>Node21&#45;&gt;Node8</title>
<g id="a_edge40_Node000021_Node000008"><a xlink:title=" ">
<path fill="none" stroke="#63b8ff" d="M1190.19,-200.99C1221.45,-194.74 1259.71,-181.99 1284,-156 1315.07,-122.75 1335.7,-90.48 1306,-56 1272.15,-16.7 1112.8,-11.24 1041.11,-10.81"/>
<polygon fill="#63b8ff" stroke="#63b8ff" points="1041.39,-7.3 1031.38,-10.78 1041.37,-14.3 1041.39,-7.3"/>
</a>
</g>
</g>
<!-- Node21&#45;&gt;Node9 -->
<g id="edge41_Node000021_Node000009" class="edge">
<title>Node21&#45;&gt;Node9</title>
<g id="a_edge41_Node000021_Node000009"><a xlink:title=" ">
<path fill="none" stroke="#63b8ff" d="M1085.78,-202.65C1045.35,-197.12 989.59,-184.55 949,-156 942.16,-151.19 914.99,-110.25 898.98,-85.6"/>
<polygon fill="#63b8ff" stroke="#63b8ff" points="901.44,-83.97 893.07,-77.48 895.57,-87.78 901.44,-83.97"/>
</a>
</g>
</g>
<!-- Node22 -->
<g id="Node000022" class="node">
<title>Node22</title>
<g id="a_Node000022"><a xlink:href="a00128.html" target="_top" xlink:title="This is the generated driver types header file for the SEC_CORE driver.">
<polygon fill="white" stroke="#666666" points="1296.62,-76 1203.38,-76 1203.38,-56 1296.62,-56 1296.62,-76"/>
<text text-anchor="middle" x="1250" y="-62.5" font-family="Helvetica,sans-Serif" font-size="10.00">sec_core_types.h</text>
</a>
</g>
</g>
<!-- Node21&#45;&gt;Node22 -->
<g id="edge42_Node000021_Node000022" class="edge">
<title>Node21&#45;&gt;Node22</title>
<g id="a_edge42_Node000021_Node000022"><a xlink:title=" ">
<path fill="none" stroke="#63b8ff" d="M1190.16,-200.47C1217.92,-194.04 1249.8,-181.29 1267,-156 1281.25,-135.04 1270.83,-105.2 1261.14,-85.96"/>
<polygon fill="#63b8ff" stroke="#63b8ff" points="1263.85,-84.61 1256,-77.49 1257.69,-87.95 1263.85,-84.61"/>
</a>
</g>
</g>
<!-- Node23 -->
<g id="Node000023" class="node">
<title>Node23</title>
<g id="a_Node000023"><a xlink:href="a00125_source.html" target="_top" xlink:title=" ">
<polygon fill="white" stroke="#666666" points="1258,-144 1152,-144 1152,-124 1258,-124 1258,-144"/>
<text text-anchor="middle" x="1205" y="-130.5" font-family="Helvetica,sans-Serif" font-size="10.00">sec_core_interface.h</text>
</a>
</g>
</g>
<!-- Node21&#45;&gt;Node23 -->
<g id="edge43_Node000021_Node000023" class="edge">
<title>Node21&#45;&gt;Node23</title>
<g id="a_edge43_Node000021_Node000023"><a xlink:title=" ">
<path fill="none" stroke="#63b8ff" d="M1152.21,-191.73C1162.97,-180.17 1177.75,-164.29 1188.93,-152.26"/>
<polygon fill="#63b8ff" stroke="#63b8ff" points="1191.09,-155.02 1195.34,-145.31 1185.96,-150.25 1191.09,-155.02"/>
</a>
</g>
</g>
<!-- Node23&#45;&gt;Node8 -->
<g id="edge45_Node000023_Node000008" class="edge">
<title>Node23&#45;&gt;Node8</title>
<g id="a_edge45_Node000023_Node000008"><a xlink:title=" ">
<path fill="none" stroke="#63b8ff" d="M1200.96,-123.67C1193.48,-107.49 1175.93,-74.18 1151,-56 1118.28,-32.14 1072.61,-20.71 1041.32,-15.39"/>
<polygon fill="#63b8ff" stroke="#63b8ff" points="1041.91,-11.78 1031.49,-13.69 1040.83,-18.7 1041.91,-11.78"/>
</a>
</g>
</g>
<!-- Node23&#45;&gt;Node9 -->
<g id="edge46_Node000023_Node000009" class="edge">
<title>Node23&#45;&gt;Node9</title>
<g id="a_edge46_Node000023_Node000009"><a xlink:title=" ">
<path fill="none" stroke="#63b8ff" d="M1159.44,-123.54C1096.68,-110.52 984.71,-87.28 925.76,-75.04"/>
<polygon fill="#63b8ff" stroke="#63b8ff" points="926.55,-71.43 916.05,-72.82 925.13,-78.28 926.55,-71.43"/>
</a>
</g>
</g>
<!-- Node23&#45;&gt;Node16 -->
<g id="edge44_Node000023_Node000016" class="edge">
<title>Node23&#45;&gt;Node16</title>
<g id="a_edge44_Node000023_Node000016"><a xlink:title=" ">
<path fill="none" stroke="#63b8ff" d="M1187.66,-123.54C1167.54,-112.57 1134.11,-94.33 1110.67,-81.55"/>
<polygon fill="#63b8ff" stroke="#63b8ff" points="1112.76,-78.15 1102.3,-76.44 1109.41,-84.3 1112.76,-78.15"/>
</a>
</g>
</g>
<!-- Node23&#45;&gt;Node22 -->
<g id="edge47_Node000023_Node000022" class="edge">
<title>Node23&#45;&gt;Node22</title>
<g id="a_edge47_Node000023_Node000022"><a xlink:title=" ">
<path fill="none" stroke="#63b8ff" d="M1211.45,-123.54C1218.2,-113.64 1228.97,-97.84 1237.41,-85.46"/>
<polygon fill="#63b8ff" stroke="#63b8ff" points="1240.82,-87.67 1243.56,-77.44 1235.04,-83.73 1240.82,-87.67"/>
</a>
</g>
</g>
</g>
</svg>
