<?xml version="1.0" encoding="UTF-8" standalone="no"?>
<!DOCTYPE svg PUBLIC "-//W3C//DTD SVG 1.1//EN"
 "http://www.w3.org/Graphics/SVG/1.1/DTD/svg11.dtd">
<!-- Generated by graphviz version 2.44.1 (20200629.0846)
 -->
<!-- Title: vacm_reset_phase_monitor_object Pages: 1 -->
<svg width="812pt" height="241pt"
 viewBox="0.00 0.00 812.00 241.41" xmlns="http://www.w3.org/2000/svg" xmlns:xlink="http://www.w3.org/1999/xlink">
<g id="graph0" class="graph" transform="scale(1 1) rotate(0) translate(4 237.41)">
<title>vacm_reset_phase_monitor_object</title>
<!-- Node1 -->
<g id="Node000001" class="node">
<title>Node1</title>
<g id="a_Node000001"><a xlink:title=" ">
<polygon fill="#999999" stroke="#666666" points="804,-135.5 669,-135.5 669,-105.5 804,-105.5 804,-135.5"/>
<text text-anchor="start" x="677" y="-123.5" font-family="Helvetica,sans-Serif" font-size="10.00">vacm_reset_phase_monitor</text>
<text text-anchor="middle" x="736.5" y="-112.5" font-family="Helvetica,sans-Serif" font-size="10.00">_object</text>
</a>
</g>
</g>
<!-- Node2 -->
<g id="Node000002" class="node">
<title>Node2</title>
<g id="a_Node000002"><a xlink:href="a00425.html#ga786371bac3733bb2c0aaca7e0903b1ad" target="_top" xlink:title="reset the 3 AC monitor objects">
<polygon fill="white" stroke="#666666" points="477,-232 327,-232 327,-213 477,-213 477,-232"/>
<text text-anchor="middle" x="402" y="-220" font-family="Helvetica,sans-Serif" font-size="10.00">DMA_Channel_resetAcMonitor</text>
</a>
</g>
</g>
<!-- Node1&#45;&gt;Node2 -->
<g id="edge1_Node000001_Node000002" class="edge">
<title>Node1&#45;&gt;Node2</title>
<g id="a_edge1_Node000001_Node000002"><a xlink:title=" ">
<path fill="none" stroke="#63b8ff" d="M718.25,-143.58C699.92,-166.06 668.7,-198.91 633,-213.5 582.88,-233.98 521.38,-235.31 474.59,-232.01"/>
<polygon fill="#63b8ff" stroke="#63b8ff" points="721.16,-145.54 724.63,-135.53 715.68,-141.2 721.16,-145.54"/>
</a>
</g>
</g>
<!-- Node4 -->
<g id="Node000004" class="node">
<title>Node4</title>
<g id="a_Node000004"><a xlink:href="a00257.html#a88354179c83ed3f823aaaab8b54def04" target="_top" xlink:title=" ">
<polygon fill="white" stroke="#666666" points="626,-204 520,-204 520,-185 626,-185 626,-204"/>
<text text-anchor="middle" x="573" y="-192" font-family="Helvetica,sans-Serif" font-size="10.00">vacm_state_ac_drop</text>
</a>
</g>
</g>
<!-- Node1&#45;&gt;Node4 -->
<g id="edge3_Node000001_Node000004" class="edge">
<title>Node1&#45;&gt;Node4</title>
<g id="a_edge3_Node000001_Node000004"><a xlink:title=" ">
<path fill="none" stroke="#63b8ff" d="M702.48,-140.78C682.8,-152.3 657.04,-166.39 633,-176.5 625.5,-179.66 617.25,-182.52 609.36,-185"/>
<polygon fill="#63b8ff" stroke="#63b8ff" points="704.53,-143.64 711.35,-135.53 700.96,-137.62 704.53,-143.64"/>
</a>
</g>
</g>
<!-- Node7 -->
<g id="Node000007" class="node">
<title>Node7</title>
<g id="a_Node000007"><a xlink:href="a00257.html#a6620ac4371af55881bc354c83de9b1a9" target="_top" xlink:title=" ">
<polygon fill="white" stroke="#666666" points="627,-167 519,-167 519,-148 627,-148 627,-167"/>
<text text-anchor="middle" x="573" y="-155" font-family="Helvetica,sans-Serif" font-size="10.00">vacm_state_ac_sync</text>
</a>
</g>
</g>
<!-- Node1&#45;&gt;Node7 -->
<g id="edge7_Node000001_Node000007" class="edge">
<title>Node1&#45;&gt;Node7</title>
<g id="a_edge7_Node000001_Node000007"><a xlink:title=" ">
<path fill="none" stroke="#63b8ff" d="M659.84,-137.83C644.59,-141.33 629.09,-144.88 615.54,-147.98"/>
<polygon fill="#63b8ff" stroke="#63b8ff" points="660.85,-141.19 669.81,-135.55 659.28,-134.37 660.85,-141.19"/>
</a>
</g>
</g>
<!-- Node8 -->
<g id="Node000008" class="node">
<title>Node8</title>
<g id="a_Node000008"><a xlink:href="a00257.html#a438efdbe3c5bfcf7b66052f6e3f99fc1" target="_top" xlink:title=" ">
<polygon fill="white" stroke="#666666" points="630,-130 516,-130 516,-111 630,-111 630,-130"/>
<text text-anchor="middle" x="573" y="-118" font-family="Helvetica,sans-Serif" font-size="10.00">vacm_state_dc_detect</text>
</a>
</g>
</g>
<!-- Node1&#45;&gt;Node8 -->
<g id="edge9_Node000001_Node000008" class="edge">
<title>Node1&#45;&gt;Node8</title>
<g id="a_edge9_Node000001_Node000008"><a xlink:title=" ">
<path fill="none" stroke="#63b8ff" d="M658.86,-120.5C649.19,-120.5 639.45,-120.5 630.18,-120.5"/>
<polygon fill="#63b8ff" stroke="#63b8ff" points="658.88,-124 668.88,-120.5 658.88,-117 658.88,-124"/>
</a>
</g>
</g>
<!-- Node9 -->
<g id="Node000009" class="node">
<title>Node9</title>
<g id="a_Node000009"><a xlink:href="a00257.html#a7b65d2b2f06bd653e747d28a897e964b" target="_top" xlink:title=" ">
<polygon fill="white" stroke="#666666" points="628.5,-93 517.5,-93 517.5,-74 628.5,-74 628.5,-93"/>
<text text-anchor="middle" x="573" y="-81" font-family="Helvetica,sans-Serif" font-size="10.00">vacm_state_dc_mode</text>
</a>
</g>
</g>
<!-- Node1&#45;&gt;Node9 -->
<g id="edge11_Node000001_Node000009" class="edge">
<title>Node1&#45;&gt;Node9</title>
<g id="a_edge11_Node000001_Node000009"><a xlink:title=" ">
<path fill="none" stroke="#63b8ff" d="M659.84,-103.17C644.59,-99.67 629.09,-96.12 615.54,-93.02"/>
<polygon fill="#63b8ff" stroke="#63b8ff" points="659.28,-106.63 669.81,-105.45 660.85,-99.81 659.28,-106.63"/>
</a>
</g>
</g>
<!-- Node10 -->
<g id="Node000010" class="node">
<title>Node10</title>
<g id="a_Node000010"><a xlink:href="a00257.html#afa82391466200dde740b703017e91eec" target="_top" xlink:title=" ">
<polygon fill="white" stroke="#666666" points="621.5,-56 524.5,-56 524.5,-37 621.5,-37 621.5,-56"/>
<text text-anchor="middle" x="573" y="-44" font-family="Helvetica,sans-Serif" font-size="10.00">vacm_state_online</text>
</a>
</g>
</g>
<!-- Node1&#45;&gt;Node10 -->
<g id="edge13_Node000001_Node000010" class="edge">
<title>Node1&#45;&gt;Node10</title>
<g id="a_edge13_Node000001_Node000010"><a xlink:title=" ">
<path fill="none" stroke="#63b8ff" d="M701.58,-100.3C681.97,-89.13 656.58,-75.53 633,-65.5 624.78,-62.01 615.69,-58.78 607.15,-56.02"/>
<polygon fill="#63b8ff" stroke="#63b8ff" points="700.02,-103.44 710.44,-105.4 703.52,-97.37 700.02,-103.44"/>
</a>
</g>
</g>
<!-- Node11 -->
<g id="Node000011" class="node">
<title>Node11</title>
<g id="a_Node000011"><a xlink:href="a00257.html#a4dbe7572d068bb830e05117273a90817" target="_top" xlink:title=" ">
<polygon fill="white" stroke="#666666" points="633,-19 513,-19 513,0 633,0 633,-19"/>
<text text-anchor="middle" x="573" y="-7" font-family="Helvetica,sans-Serif" font-size="10.00">vacm_state_wait_for_zc</text>
</a>
</g>
</g>
<!-- Node1&#45;&gt;Node11 -->
<g id="edge15_Node000001_Node000011" class="edge">
<title>Node1&#45;&gt;Node11</title>
<g id="a_edge15_Node000001_Node000011"><a xlink:title=" ">
<path fill="none" stroke="#63b8ff" d="M716.07,-97.87C696.9,-76.87 665.79,-46.12 633,-27.5 627.13,-24.17 620.58,-21.39 614.04,-19.09"/>
<polygon fill="#63b8ff" stroke="#63b8ff" points="713.53,-100.28 722.81,-105.4 718.74,-95.61 713.53,-100.28"/>
</a>
</g>
</g>
<!-- Node3 -->
<g id="Node000003" class="node">
<title>Node3</title>
<g id="a_Node000003"><a xlink:href="a00418.html#ga9f16d166d637fd9005839b1e1822dc63" target="_top" xlink:title="This is the default callback with weak attribute. The user can override and implement the default cal...">
<polygon fill="white" stroke="#666666" points="116,-186 0,-186 0,-167 116,-167 116,-186"/>
<text text-anchor="middle" x="58" y="-174" font-family="Helvetica,sans-Serif" font-size="10.00">DMA_ChannelCallback</text>
</a>
</g>
</g>
<!-- Node2&#45;&gt;Node3 -->
<g id="edge2_Node000002_Node000003" class="edge">
<title>Node2&#45;&gt;Node3</title>
<g id="a_edge2_Node000002_Node000003"><a xlink:title=" ">
<path fill="none" stroke="#63b8ff" d="M319.88,-211.59C257.16,-203.15 171.9,-191.69 116.18,-184.19"/>
<polygon fill="#63b8ff" stroke="#63b8ff" points="319.76,-215.1 330.14,-212.97 320.69,-208.17 319.76,-215.1"/>
</a>
</g>
</g>
<!-- Node5 -->
<g id="Node000005" class="node">
<title>Node5</title>
<g id="a_Node000005"><a xlink:href="a00257.html#a3a965bf809d4454e8cc529cc6c3eed03" target="_top" xlink:title=" ">
<polygon fill="white" stroke="#666666" points="456,-130 348,-130 348,-111 456,-111 456,-130"/>
<text text-anchor="middle" x="402" y="-118" font-family="Helvetica,sans-Serif" font-size="10.00">vacm_state_machine</text>
</a>
</g>
</g>
<!-- Node4&#45;&gt;Node5 -->
<g id="edge4_Node000004_Node000005" class="edge">
<title>Node4&#45;&gt;Node5</title>
<g id="a_edge4_Node000004_Node000005"><a xlink:title=" ">
<path fill="none" stroke="#63b8ff" d="M527.16,-181.73C522.34,-180.08 517.54,-178.33 513,-176.5 478.82,-162.71 440.91,-142.17 419.72,-130.18"/>
<polygon fill="#63b8ff" stroke="#63b8ff" points="526.43,-185.17 537.02,-184.93 528.59,-178.51 526.43,-185.17"/>
</a>
</g>
</g>
<!-- Node6 -->
<g id="Node000006" class="node">
<title>Node6</title>
<g id="a_Node000006"><a xlink:href="a00425.html#ga41351a49d0335be286c2947c26d0a07c" target="_top" xlink:title="run AC monitor for each of the 3 phases">
<polygon fill="white" stroke="#666666" points="291,-167 152,-167 152,-148 291,-148 291,-167"/>
<text text-anchor="middle" x="221.5" y="-155" font-family="Helvetica,sans-Serif" font-size="10.00">DMA_Channel_doAcMonitor</text>
</a>
</g>
</g>
<!-- Node5&#45;&gt;Node6 -->
<g id="edge5_Node000005_Node000006" class="edge">
<title>Node5&#45;&gt;Node6</title>
<g id="a_edge5_Node000005_Node000006"><a xlink:title=" ">
<path fill="none" stroke="#63b8ff" d="M345.11,-132.08C320.52,-137.18 291.98,-143.1 268.62,-147.94"/>
<polygon fill="#63b8ff" stroke="#63b8ff" points="345.95,-135.49 355.03,-130.03 344.53,-128.63 345.95,-135.49"/>
</a>
</g>
</g>
<!-- Node6&#45;&gt;Node3 -->
<g id="edge6_Node000006_Node000003" class="edge">
<title>Node6&#45;&gt;Node3</title>
<g id="a_edge6_Node000006_Node000003"><a xlink:title=" ">
<path fill="none" stroke="#63b8ff" d="M141.5,-166.79C132.92,-167.8 124.31,-168.82 116.06,-169.79"/>
<polygon fill="#63b8ff" stroke="#63b8ff" points="142.02,-170.26 151.54,-165.61 141.2,-163.31 142.02,-170.26"/>
</a>
</g>
</g>
<!-- Node7&#45;&gt;Node5 -->
<g id="edge8_Node000007_Node000005" class="edge">
<title>Node7&#45;&gt;Node5</title>
<g id="a_edge8_Node000007_Node000005"><a xlink:title=" ">
<path fill="none" stroke="#63b8ff" d="M518.47,-145.78C495.32,-140.71 468.58,-134.86 446.67,-130.06"/>
<polygon fill="#63b8ff" stroke="#63b8ff" points="517.96,-149.25 528.48,-147.97 519.46,-142.41 517.96,-149.25"/>
</a>
</g>
</g>
<!-- Node8&#45;&gt;Node5 -->
<g id="edge10_Node000008_Node000005" class="edge">
<title>Node8&#45;&gt;Node5</title>
<g id="a_edge10_Node000008_Node000005"><a xlink:title=" ">
<path fill="none" stroke="#63b8ff" d="M505.65,-120.5C489.24,-120.5 471.86,-120.5 456.17,-120.5"/>
<polygon fill="#63b8ff" stroke="#63b8ff" points="505.73,-124 515.73,-120.5 505.73,-117 505.73,-124"/>
</a>
</g>
</g>
<!-- Node9&#45;&gt;Node5 -->
<g id="edge12_Node000009_Node000005" class="edge">
<title>Node9&#45;&gt;Node5</title>
<g id="a_edge12_Node000009_Node000005"><a xlink:title=" ">
<path fill="none" stroke="#63b8ff" d="M518.47,-95.22C495.32,-100.29 468.58,-106.14 446.67,-110.94"/>
<polygon fill="#63b8ff" stroke="#63b8ff" points="519.46,-98.59 528.48,-93.03 517.96,-91.75 519.46,-98.59"/>
</a>
</g>
</g>
<!-- Node10&#45;&gt;Node5 -->
<g id="edge14_Node000010_Node000005" class="edge">
<title>Node10&#45;&gt;Node5</title>
<g id="a_edge14_Node000010_Node000005"><a xlink:title=" ">
<path fill="none" stroke="#63b8ff" d="M529.34,-59.38C523.8,-61.31 518.23,-63.36 513,-65.5 479.2,-79.3 441.47,-99.2 420.15,-110.9"/>
<polygon fill="#63b8ff" stroke="#63b8ff" points="530.85,-62.57 539.22,-56.08 528.63,-55.93 530.85,-62.57"/>
</a>
</g>
</g>
<!-- Node11&#45;&gt;Node5 -->
<g id="edge16_Node000011_Node000005" class="edge">
<title>Node11&#45;&gt;Node5</title>
<g id="a_edge16_Node000011_Node000005"><a xlink:title=" ">
<path fill="none" stroke="#63b8ff" d="M523.22,-22.63C519.69,-24.11 516.25,-25.73 513,-27.5 470.4,-50.72 429.19,-92.15 411.73,-110.86"/>
<polygon fill="#63b8ff" stroke="#63b8ff" points="524.58,-25.86 532.69,-19.05 522.1,-19.32 524.58,-25.86"/>
</a>
</g>
</g>
</g>
</svg>
