<?xml version="1.0" encoding="UTF-8" standalone="no"?>
<!DOCTYPE svg PUBLIC "-//W3C//DTD SVG 1.1//EN"
 "http://www.w3.org/Graphics/SVG/1.1/DTD/svg11.dtd">
<!-- Generated by graphviz version 2.44.1 (20200629.0846)
 -->
<!-- Title: vacm_uv_ov_test Pages: 1 -->
<svg width="854pt" height="212pt"
 viewBox="0.00 0.00 854.00 212.00" xmlns="http://www.w3.org/2000/svg" xmlns:xlink="http://www.w3.org/1999/xlink">
<g id="graph0" class="graph" transform="scale(1 1) rotate(0) translate(4 208)">
<title>vacm_uv_ov_test</title>
<!-- Node1 -->
<g id="Node000001" class="node">
<title>Node1</title>
<g id="a_Node000001"><a xlink:title=" ">
<polygon fill="#999999" stroke="#666666" points="846,-111 757,-111 757,-92 846,-92 846,-111"/>
<text text-anchor="middle" x="801.5" y="-99" font-family="Helvetica,sans-Serif" font-size="10.00">vacm_uv_ov_test</text>
</a>
</g>
</g>
<!-- Node2 -->
<g id="Node000002" class="node">
<title>Node2</title>
<g id="a_Node000002"><a xlink:href="a00257.html#a4d1cffa8629c7a211d571e6c96fe94ac" target="_top" xlink:title=" ">
<polygon fill="white" stroke="#666666" points="721,-111 627,-111 627,-92 721,-92 721,-111"/>
<text text-anchor="middle" x="674" y="-99" font-family="Helvetica,sans-Serif" font-size="10.00">vacm_vin_average</text>
</a>
</g>
</g>
<!-- Node1&#45;&gt;Node2 -->
<g id="edge1_Node000001_Node000002" class="edge">
<title>Node1&#45;&gt;Node2</title>
<g id="a_edge1_Node000001_Node000002"><a xlink:title=" ">
<path fill="none" stroke="#63b8ff" d="M746.69,-101.5C738.14,-101.5 729.37,-101.5 721.03,-101.5"/>
<polygon fill="#63b8ff" stroke="#63b8ff" points="746.96,-105 756.96,-101.5 746.96,-98 746.96,-105"/>
</a>
</g>
</g>
<!-- Node3 -->
<g id="Node000003" class="node">
<title>Node3</title>
<g id="a_Node000003"><a xlink:href="a00257.html#a6620ac4371af55881bc354c83de9b1a9" target="_top" xlink:title=" ">
<polygon fill="white" stroke="#666666" points="585,-204 477,-204 477,-185 585,-185 585,-204"/>
<text text-anchor="middle" x="531" y="-192" font-family="Helvetica,sans-Serif" font-size="10.00">vacm_state_ac_sync</text>
</a>
</g>
</g>
<!-- Node2&#45;&gt;Node3 -->
<g id="edge2_Node000002_Node000003" class="edge">
<title>Node2&#45;&gt;Node3</title>
<g id="a_edge2_Node000002_Node000003"><a xlink:title=" ">
<path fill="none" stroke="#63b8ff" d="M658.57,-118.55C643.36,-135.51 617.93,-161.14 591,-176.5 585.14,-179.84 578.59,-182.63 572.05,-184.93"/>
<polygon fill="#63b8ff" stroke="#63b8ff" points="661.22,-120.84 665.17,-111.01 655.95,-116.23 661.22,-120.84"/>
</a>
</g>
</g>
<!-- Node7 -->
<g id="Node000007" class="node">
<title>Node7</title>
<g id="a_Node000007"><a xlink:href="a00257.html#a438efdbe3c5bfcf7b66052f6e3f99fc1" target="_top" xlink:title=" ">
<polygon fill="white" stroke="#666666" points="588,-167 474,-167 474,-148 588,-148 588,-167"/>
<text text-anchor="middle" x="531" y="-155" font-family="Helvetica,sans-Serif" font-size="10.00">vacm_state_dc_detect</text>
</a>
</g>
</g>
<!-- Node2&#45;&gt;Node7 -->
<g id="edge6_Node000002_Node000007" class="edge">
<title>Node2&#45;&gt;Node7</title>
<g id="a_edge6_Node000002_Node000007"><a xlink:title=" ">
<path fill="none" stroke="#63b8ff" d="M645.28,-115.51C629.58,-123.15 609.45,-132.45 591,-139.5 583.1,-142.52 574.45,-145.39 566.28,-147.92"/>
<polygon fill="#63b8ff" stroke="#63b8ff" points="647,-118.56 654.43,-111 643.91,-112.28 647,-118.56"/>
</a>
</g>
</g>
<!-- Node8 -->
<g id="Node000008" class="node">
<title>Node8</title>
<g id="a_Node000008"><a xlink:href="a00257.html#a7b65d2b2f06bd653e747d28a897e964b" target="_top" xlink:title=" ">
<polygon fill="white" stroke="#666666" points="586.5,-130 475.5,-130 475.5,-111 586.5,-111 586.5,-130"/>
<text text-anchor="middle" x="531" y="-118" font-family="Helvetica,sans-Serif" font-size="10.00">vacm_state_dc_mode</text>
</a>
</g>
</g>
<!-- Node2&#45;&gt;Node8 -->
<g id="edge8_Node000002_Node000008" class="edge">
<title>Node2&#45;&gt;Node8</title>
<g id="a_edge8_Node000002_Node000008"><a xlink:title=" ">
<path fill="none" stroke="#63b8ff" d="M616.68,-109.09C606.77,-110.42 596.48,-111.81 586.62,-113.14"/>
<polygon fill="#63b8ff" stroke="#63b8ff" points="617.39,-112.53 626.83,-107.72 616.45,-105.59 617.39,-112.53"/>
</a>
</g>
</g>
<!-- Node9 -->
<g id="Node000009" class="node">
<title>Node9</title>
<g id="a_Node000009"><a xlink:href="a00257.html#afa82391466200dde740b703017e91eec" target="_top" xlink:title=" ">
<polygon fill="white" stroke="#666666" points="579.5,-93 482.5,-93 482.5,-74 579.5,-74 579.5,-93"/>
<text text-anchor="middle" x="531" y="-81" font-family="Helvetica,sans-Serif" font-size="10.00">vacm_state_online</text>
</a>
</g>
</g>
<!-- Node2&#45;&gt;Node9 -->
<g id="edge10_Node000002_Node000009" class="edge">
<title>Node2&#45;&gt;Node9</title>
<g id="a_edge10_Node000002_Node000009"><a xlink:title=" ">
<path fill="none" stroke="#63b8ff" d="M616.71,-94.31C604.46,-92.75 591.61,-91.11 579.72,-89.59"/>
<polygon fill="#63b8ff" stroke="#63b8ff" points="616.47,-97.81 626.83,-95.61 617.36,-90.87 616.47,-97.81"/>
</a>
</g>
</g>
<!-- Node10 -->
<g id="Node000010" class="node">
<title>Node10</title>
<g id="a_Node000010"><a xlink:href="a00257.html#a190d0ac02bb30bdb63d3ddff1373a807" target="_top" xlink:title=" ">
<polygon fill="white" stroke="#666666" points="584,-56 478,-56 478,-37 584,-37 584,-56"/>
<text text-anchor="middle" x="531" y="-44" font-family="Helvetica,sans-Serif" font-size="10.00">vacm_state_standby</text>
</a>
</g>
</g>
<!-- Node2&#45;&gt;Node10 -->
<g id="edge12_Node000002_Node000010" class="edge">
<title>Node2&#45;&gt;Node10</title>
<g id="a_edge12_Node000002_Node000010"><a xlink:title=" ">
<path fill="none" stroke="#63b8ff" d="M643.16,-87.52C627.74,-80.52 608.53,-72.15 591,-65.5 582.25,-62.18 572.63,-58.92 563.74,-56.07"/>
<polygon fill="#63b8ff" stroke="#63b8ff" points="642.13,-90.9 652.68,-91.89 645.05,-84.54 642.13,-90.9"/>
</a>
</g>
</g>
<!-- Node11 -->
<g id="Node000011" class="node">
<title>Node11</title>
<g id="a_Node000011"><a xlink:href="a00257.html#a4dbe7572d068bb830e05117273a90817" target="_top" xlink:title=" ">
<polygon fill="white" stroke="#666666" points="591,-19 471,-19 471,0 591,0 591,-19"/>
<text text-anchor="middle" x="531" y="-7" font-family="Helvetica,sans-Serif" font-size="10.00">vacm_state_wait_for_zc</text>
</a>
</g>
</g>
<!-- Node2&#45;&gt;Node11 -->
<g id="edge14_Node000002_Node000011" class="edge">
<title>Node2&#45;&gt;Node11</title>
<g id="a_edge14_Node000002_Node000011"><a xlink:title=" ">
<path fill="none" stroke="#63b8ff" d="M657.26,-83.76C641.83,-67.35 616.93,-43.33 591,-28.5 584.46,-24.76 577.09,-21.65 569.82,-19.09"/>
<polygon fill="#63b8ff" stroke="#63b8ff" points="655.07,-86.56 664.41,-91.56 660.23,-81.82 655.07,-86.56"/>
</a>
</g>
</g>
<!-- Node4 -->
<g id="Node000004" class="node">
<title>Node4</title>
<g id="a_Node000004"><a xlink:href="a00257.html#a3a965bf809d4454e8cc529cc6c3eed03" target="_top" xlink:title=" ">
<polygon fill="white" stroke="#666666" points="435,-111 327,-111 327,-92 435,-92 435,-111"/>
<text text-anchor="middle" x="381" y="-99" font-family="Helvetica,sans-Serif" font-size="10.00">vacm_state_machine</text>
</a>
</g>
</g>
<!-- Node3&#45;&gt;Node4 -->
<g id="edge3_Node000003_Node000004" class="edge">
<title>Node3&#45;&gt;Node4</title>
<g id="a_edge3_Node000003_Node000004"><a xlink:title=" ">
<path fill="none" stroke="#63b8ff" d="M481.22,-181.36C477.69,-179.88 474.25,-178.27 471,-176.5 437.98,-158.54 405.96,-127.09 390.92,-111.23"/>
<polygon fill="#63b8ff" stroke="#63b8ff" points="480.1,-184.68 490.69,-184.95 482.58,-178.13 480.1,-184.68"/>
</a>
</g>
</g>
<!-- Node5 -->
<g id="Node000005" class="node">
<title>Node5</title>
<g id="a_Node000005"><a xlink:href="a00425.html#ga41351a49d0335be286c2947c26d0a07c" target="_top" xlink:title="run AC monitor for each of the 3 phases">
<polygon fill="white" stroke="#666666" points="291,-111 152,-111 152,-92 291,-92 291,-111"/>
<text text-anchor="middle" x="221.5" y="-99" font-family="Helvetica,sans-Serif" font-size="10.00">DMA_Channel_doAcMonitor</text>
</a>
</g>
</g>
<!-- Node4&#45;&gt;Node5 -->
<g id="edge4_Node000004_Node000005" class="edge">
<title>Node4&#45;&gt;Node5</title>
<g id="a_edge4_Node000004_Node000005"><a xlink:title=" ">
<path fill="none" stroke="#63b8ff" d="M316.6,-101.5C308.21,-101.5 299.59,-101.5 291.12,-101.5"/>
<polygon fill="#63b8ff" stroke="#63b8ff" points="316.68,-105 326.68,-101.5 316.68,-98 316.68,-105"/>
</a>
</g>
</g>
<!-- Node6 -->
<g id="Node000006" class="node">
<title>Node6</title>
<g id="a_Node000006"><a xlink:href="a00418.html#ga9f16d166d637fd9005839b1e1822dc63" target="_top" xlink:title="This is the default callback with weak attribute. The user can override and implement the default cal...">
<polygon fill="white" stroke="#666666" points="116,-111 0,-111 0,-92 116,-92 116,-111"/>
<text text-anchor="middle" x="58" y="-99" font-family="Helvetica,sans-Serif" font-size="10.00">DMA_ChannelCallback</text>
</a>
</g>
</g>
<!-- Node5&#45;&gt;Node6 -->
<g id="edge5_Node000005_Node000006" class="edge">
<title>Node5&#45;&gt;Node6</title>
<g id="a_edge5_Node000005_Node000006"><a xlink:title=" ">
<path fill="none" stroke="#63b8ff" d="M141.5,-101.5C132.92,-101.5 124.31,-101.5 116.06,-101.5"/>
<polygon fill="#63b8ff" stroke="#63b8ff" points="141.54,-105 151.54,-101.5 141.54,-98 141.54,-105"/>
</a>
</g>
</g>
<!-- Node7&#45;&gt;Node4 -->
<g id="edge7_Node000007_Node000004" class="edge">
<title>Node7&#45;&gt;Node4</title>
<g id="a_edge7_Node000007_Node000004"><a xlink:title=" ">
<path fill="none" stroke="#63b8ff" d="M486.84,-144.92C481.48,-143.19 476.09,-141.36 471,-139.5 447.17,-130.81 420.49,-119.15 402.61,-111.05"/>
<polygon fill="#63b8ff" stroke="#63b8ff" points="485.82,-148.27 496.41,-147.93 487.92,-141.59 485.82,-148.27"/>
</a>
</g>
</g>
<!-- Node8&#45;&gt;Node4 -->
<g id="edge9_Node000008_Node000004" class="edge">
<title>Node8&#45;&gt;Node4</title>
<g id="a_edge9_Node000008_Node000004"><a xlink:title=" ">
<path fill="none" stroke="#63b8ff" d="M465.11,-112.17C455.21,-110.9 445.09,-109.6 435.48,-108.37"/>
<polygon fill="#63b8ff" stroke="#63b8ff" points="464.95,-115.68 475.31,-113.48 465.84,-108.73 464.95,-115.68"/>
</a>
</g>
</g>
<!-- Node9&#45;&gt;Node4 -->
<g id="edge11_Node000009_Node000004" class="edge">
<title>Node9&#45;&gt;Node4</title>
<g id="a_edge11_Node000009_Node000004"><a xlink:title=" ">
<path fill="none" stroke="#63b8ff" d="M472.28,-90.52C460.07,-92.01 447.23,-93.57 435.2,-95.03"/>
<polygon fill="#63b8ff" stroke="#63b8ff" points="472.85,-93.98 482.36,-89.29 472.01,-87.03 472.85,-93.98"/>
</a>
</g>
</g>
<!-- Node10&#45;&gt;Node4 -->
<g id="edge13_Node000010_Node000004" class="edge">
<title>Node10&#45;&gt;Node4</title>
<g id="a_edge13_Node000010_Node000004"><a xlink:title=" ">
<path fill="none" stroke="#63b8ff" d="M489.37,-59.15C483.19,-61.2 476.91,-63.36 471,-65.5 448.12,-73.8 422.39,-84.34 404.5,-91.87"/>
<polygon fill="#63b8ff" stroke="#63b8ff" points="490.51,-62.47 498.93,-56.04 488.34,-55.81 490.51,-62.47"/>
</a>
</g>
</g>
<!-- Node11&#45;&gt;Node4 -->
<g id="edge15_Node000011_Node000004" class="edge">
<title>Node11&#45;&gt;Node4</title>
<g id="a_edge15_Node000011_Node000004"><a xlink:title=" ">
<path fill="none" stroke="#63b8ff" d="M483.45,-22.64C479.15,-24.41 474.93,-26.36 471,-28.5 438.72,-46.1 406.86,-76.11 391.5,-91.6"/>
<polygon fill="#63b8ff" stroke="#63b8ff" points="484.79,-25.88 492.92,-19.09 482.33,-19.33 484.79,-25.88"/>
</a>
</g>
</g>
</g>
</svg>
