<?xml version="1.0" encoding="UTF-8" standalone="no"?>
<!DOCTYPE svg PUBLIC "-//W3C//DTD SVG 1.1//EN"
 "http://www.w3.org/Graphics/SVG/1.1/DTD/svg11.dtd">
<!-- Generated by graphviz version 2.44.1 (20200629.0846)
 -->
<!-- Title: vacm_vloop_feedforward_update Pages: 1 -->
<svg width="599pt" height="38pt"
 viewBox="0.00 0.00 599.00 38.00" xmlns="http://www.w3.org/2000/svg" xmlns:xlink="http://www.w3.org/1999/xlink">
<g id="graph0" class="graph" transform="scale(1 1) rotate(0) translate(4 34)">
<title>vacm_vloop_feedforward_update</title>
<!-- Node1 -->
<g id="Node000001" class="node">
<title>Node1</title>
<g id="a_Node000001"><a xlink:title=" ">
<polygon fill="#999999" stroke="#666666" points="591,-30 471,-30 471,0 591,0 591,-30"/>
<text text-anchor="start" x="479" y="-18" font-family="Helvetica,sans-Serif" font-size="10.00">vacm_vloop_feedforward</text>
<text text-anchor="middle" x="531" y="-7" font-family="Helvetica,sans-Serif" font-size="10.00">_update</text>
</a>
</g>
</g>
<!-- Node2 -->
<g id="Node000002" class="node">
<title>Node2</title>
<g id="a_Node000002"><a xlink:href="a00257.html#a3a965bf809d4454e8cc529cc6c3eed03" target="_top" xlink:title=" ">
<polygon fill="white" stroke="#666666" points="435,-24.5 327,-24.5 327,-5.5 435,-5.5 435,-24.5"/>
<text text-anchor="middle" x="381" y="-12.5" font-family="Helvetica,sans-Serif" font-size="10.00">vacm_state_machine</text>
</a>
</g>
</g>
<!-- Node1&#45;&gt;Node2 -->
<g id="edge1_Node000001_Node000002" class="edge">
<title>Node1&#45;&gt;Node2</title>
<g id="a_edge1_Node000001_Node000002"><a xlink:title=" ">
<path fill="none" stroke="#63b8ff" d="M460.65,-15C452.08,-15 443.42,-15 435.14,-15"/>
<polygon fill="#63b8ff" stroke="#63b8ff" points="460.66,-18.5 470.66,-15 460.66,-11.5 460.66,-18.5"/>
</a>
</g>
</g>
<!-- Node3 -->
<g id="Node000003" class="node">
<title>Node3</title>
<g id="a_Node000003"><a xlink:href="a00425.html#ga41351a49d0335be286c2947c26d0a07c" target="_top" xlink:title="run AC monitor for each of the 3 phases">
<polygon fill="white" stroke="#666666" points="291,-24.5 152,-24.5 152,-5.5 291,-5.5 291,-24.5"/>
<text text-anchor="middle" x="221.5" y="-12.5" font-family="Helvetica,sans-Serif" font-size="10.00">DMA_Channel_doAcMonitor</text>
</a>
</g>
</g>
<!-- Node2&#45;&gt;Node3 -->
<g id="edge2_Node000002_Node000003" class="edge">
<title>Node2&#45;&gt;Node3</title>
<g id="a_edge2_Node000002_Node000003"><a xlink:title=" ">
<path fill="none" stroke="#63b8ff" d="M316.6,-15C308.21,-15 299.59,-15 291.12,-15"/>
<polygon fill="#63b8ff" stroke="#63b8ff" points="316.68,-18.5 326.68,-15 316.68,-11.5 316.68,-18.5"/>
</a>
</g>
</g>
<!-- Node4 -->
<g id="Node000004" class="node">
<title>Node4</title>
<g id="a_Node000004"><a xlink:href="a00418.html#ga9f16d166d637fd9005839b1e1822dc63" target="_top" xlink:title="This is the default callback with weak attribute. The user can override and implement the default cal...">
<polygon fill="white" stroke="#666666" points="116,-24.5 0,-24.5 0,-5.5 116,-5.5 116,-24.5"/>
<text text-anchor="middle" x="58" y="-12.5" font-family="Helvetica,sans-Serif" font-size="10.00">DMA_ChannelCallback</text>
</a>
</g>
</g>
<!-- Node3&#45;&gt;Node4 -->
<g id="edge3_Node000003_Node000004" class="edge">
<title>Node3&#45;&gt;Node4</title>
<g id="a_edge3_Node000003_Node000004"><a xlink:title=" ">
<path fill="none" stroke="#63b8ff" d="M141.5,-15C132.92,-15 124.31,-15 116.06,-15"/>
<polygon fill="#63b8ff" stroke="#63b8ff" points="141.54,-18.5 151.54,-15 141.54,-11.5 141.54,-18.5"/>
</a>
</g>
</g>
</g>
</svg>
