<?xml version="1.0" encoding="UTF-8" standalone="no"?>
<!DOCTYPE svg PUBLIC "-//W3C//DTD SVG 1.1//EN"
 "http://www.w3.org/Graphics/SVG/1.1/DTD/svg11.dtd">
<!-- Generated by graphviz version 8.1.0 (20230707.0739)
 -->
<!-- Title: Drv_SPI_Timeout Pages: 1 -->
<!--zoomable 142 -->

<svg id="main" version="1.1" xmlns="http://www.w3.org/2000/svg" xmlns:xlink="http://www.w3.org/1999/xlink" xml:space="preserve" onload="init(evt)">
<style type="text/css"><![CDATA[
.node, .edge {opacity: 0.7;}
.node.selected, .edge.selected {opacity: 1;}
.edge:hover path { stroke: red; }
.edge:hover polygon { stroke: red; fill: red; }
]]></style>

<defs>
  <circle id="rim" cx="0" cy="0" r="7"/>
  <circle id="rim2" cx="0" cy="0" r="3.5"/>
  <g id="zoomPlus">
    <use xlink:href="#rim" fill="#404040"><set attributeName="fill" to="#808080" begin="zoomplus.mouseover" end="zoomplus.mouseout"/></use>
    <path d="M-4,0h8M0,-4v8" fill="none" stroke="white" stroke-width="1.5" pointer-events="none"/>
  </g>
  <g id="zoomMin">
    <use xlink:href="#rim" fill="#404040"><set attributeName="fill" to="#808080" begin="zoomminus.mouseover" end="zoomminus.mouseout"/></use>
    <path d="M-4,0h8" fill="none" stroke="white" stroke-width="1.5" pointer-events="none"/>
  </g>
  <g id="arrowUp" transform="translate(30 24)">
    <use xlink:href="#rim"/>
    <path pointer-events="none" fill="none" stroke="white" stroke-width="1.5" d="M0,-3.0v7 M-2.5,-0.5L0,-3.0L2.5,-0.5"/>
  </g>
  <g id="arrowRight" transform="rotate(90) translate(36 -43)">
    <use xlink:href="#rim"/>
    <path pointer-events="none" fill="none" stroke="white" stroke-width="1.5" d="M0,-3.0v7 M-2.5,-0.5L0,-3.0L2.5,-0.5"/>
  </g>
  <g id="arrowDown" transform="rotate(180) translate(-30 -48)">
    <use xlink:href="#rim"/>
    <path pointer-events="none" fill="none" stroke="white" stroke-width="1.5" d="M0,-3.0v7 M-2.5,-0.5L0,-3.0L2.5,-0.5"/>
  </g>
  <g id="arrowLeft" transform="rotate(270) translate(-36 17)">
    <use xlink:href="#rim"/>
    <path pointer-events="none" fill="none" stroke="white" stroke-width="1.5" d="M0,-3.0v7 M-2.5,-0.5L0,-3.0L2.5,-0.5"/>
  </g>
  <g id="resetDef">
    <use xlink:href="#rim2" fill="#404040"><set attributeName="fill" to="#808080" begin="reset.mouseover" end="reset.mouseout"/></use>
  </g>
</defs>
<script type="application/ecmascript">
var viewWidth = 560;
var viewHeight = 142;
var sectionId = 'dynsection-6';
</script>
<script type="application/ecmascript" xlink:href="svg.min.js"/>
<svg id="graph" class="graph">
<g id="viewport">
<title>Drv_SPI_Timeout</title>
<!-- Node1 -->
<g id="Node000001" class="node">
<title>Node1</title>
<g id="a_Node000001"><a xlink:title=" ">
<polygon fill="#999999" stroke="#666666" points="90.25,-77 0,-77 0,-57 90.25,-57 90.25,-77"/>
<text text-anchor="middle" x="45.12" y="-63.5" font-family="Helvetica,sans-Serif" font-size="10.00">Drv_SPI_Timeout</text>
</a>
</g>
</g>
<!-- Node2 -->
<g id="Node000002" class="node">
<title>Node2</title>
<g id="a_Node000002"><a xlink:href="a00251.html#a145f1f1255a7289b74ff5907798d21fa" target="_top" xlink:title=" ">
<polygon fill="white" stroke="#666666" points="217.25,-77 126.25,-77 126.25,-57 217.25,-57 217.25,-77"/>
<text text-anchor="middle" x="171.75" y="-63.5" font-family="Helvetica,sans-Serif" font-size="10.00">SPI_Synchronize</text>
</a>
</g>
</g>
<!-- Node1&#45;&gt;Node2 -->
<g id="edge1_Node000001_Node000002" class="edge">
<title>Node1&#45;&gt;Node2</title>
<g id="a_edge1_Node000001_Node000002"><a xlink:title=" ">
<path fill="none" stroke="#63b8ff" d="M90.41,-67C98.3,-67 106.61,-67 114.78,-67"/>
<polygon fill="#63b8ff" stroke="#63b8ff" points="114.76,-70.5 124.76,-67 114.76,-63.5 114.76,-70.5"/>
</a>
</g>
</g>
<!-- Node3 -->
<g id="Node000003" class="node">
<title>Node3</title>
<g id="a_Node000003"><a xlink:href="a00412.html#gab59dab7bbec7ad0589d0fa8f57769a94" target="_top" xlink:title="This inline function disables the DMA channel.">
<polygon fill="white" stroke="#666666" points="363.75,-134 253.25,-134 253.25,-114 363.75,-114 363.75,-134"/>
<text text-anchor="middle" x="308.5" y="-120.5" font-family="Helvetica,sans-Serif" font-size="10.00">DMA_ChannelDisable</text>
</a>
</g>
</g>
<!-- Node2&#45;&gt;Node3 -->
<g id="edge2_Node000002_Node000003" class="edge">
<title>Node2&#45;&gt;Node3</title>
<g id="a_edge2_Node000002_Node000003"><a xlink:title=" ">
<path fill="none" stroke="#63b8ff" d="M193.33,-77.44C209.44,-85.44 232.51,-96.5 253.25,-105 257.35,-106.68 261.67,-108.35 265.99,-109.96"/>
<polygon fill="#63b8ff" stroke="#63b8ff" points="264.43,-113.48 275.02,-113.6 266.81,-106.9 264.43,-113.48"/>
</a>
</g>
</g>
<!-- Node4 -->
<g id="Node000004" class="node">
<title>Node4</title>
<g id="a_Node000004"><a xlink:href="a00412.html#gad10f447e17425a18eac1b5186e2e8699" target="_top" xlink:title="This inline function enables the DMA channel.">
<polygon fill="white" stroke="#666666" points="362.62,-96 254.38,-96 254.38,-76 362.62,-76 362.62,-96"/>
<text text-anchor="middle" x="308.5" y="-82.5" font-family="Helvetica,sans-Serif" font-size="10.00">DMA_ChannelEnable</text>
</a>
</g>
</g>
<!-- Node2&#45;&gt;Node4 -->
<g id="edge3_Node000002_Node000004" class="edge">
<title>Node2&#45;&gt;Node4</title>
<g id="a_edge3_Node000002_Node000004"><a xlink:title=" ">
<path fill="none" stroke="#63b8ff" d="M217.62,-73.33C225.8,-74.48 234.48,-75.7 243.1,-76.92"/>
<polygon fill="#63b8ff" stroke="#63b8ff" points="242.55,-80.52 252.94,-78.45 243.53,-73.59 242.55,-80.52"/>
</a>
</g>
</g>
<!-- Node5 -->
<g id="Node000005" class="node">
<title>Node5</title>
<g id="a_Node000005"><a xlink:href="a00412.html#ga3950883876bea54b441aaf14ff17d47e" target="_top" xlink:title="Initializes the DMA module.">
<polygon fill="white" stroke="#666666" points="347.62,-58 269.38,-58 269.38,-38 347.62,-38 347.62,-58"/>
<text text-anchor="middle" x="308.5" y="-44.5" font-family="Helvetica,sans-Serif" font-size="10.00">DMA_Initialize</text>
</a>
</g>
</g>
<!-- Node2&#45;&gt;Node5 -->
<g id="edge4_Node000002_Node000005" class="edge">
<title>Node2&#45;&gt;Node5</title>
<g id="a_edge4_Node000002_Node000005"><a xlink:title=" ">
<path fill="none" stroke="#63b8ff" d="M217.62,-60.67C230.66,-58.83 244.97,-56.82 258.26,-54.94"/>
<polygon fill="#63b8ff" stroke="#63b8ff" points="258.72,-58.27 268.14,-53.41 257.75,-51.34 258.72,-58.27"/>
</a>
</g>
</g>
<!-- Node8 -->
<g id="Node000008" class="node">
<title>Node8</title>
<g id="a_Node000008"><a xlink:href="a00413.html#ga0607cad7a6b302950091fea719146a54" target="_top" xlink:title="Initializes SPI1 module, using the given initialization data. This function must be called before any...">
<polygon fill="white" stroke="#666666" points="347.25,-20 269.75,-20 269.75,0 347.25,0 347.25,-20"/>
<text text-anchor="middle" x="308.5" y="-6.5" font-family="Helvetica,sans-Serif" font-size="10.00">SPI1_Initialize</text>
</a>
</g>
</g>
<!-- Node2&#45;&gt;Node8 -->
<g id="edge7_Node000002_Node000008" class="edge">
<title>Node2&#45;&gt;Node8</title>
<g id="a_edge7_Node000002_Node000008"><a xlink:title=" ">
<path fill="none" stroke="#63b8ff" d="M193.33,-56.56C209.44,-48.56 232.51,-37.5 253.25,-29 257.35,-27.32 261.67,-25.65 265.99,-24.04"/>
<polygon fill="#63b8ff" stroke="#63b8ff" points="266.81,-27.1 275.02,-20.4 264.43,-20.52 266.81,-27.1"/>
</a>
</g>
</g>
<!-- Node6 -->
<g id="Node000006" class="node">
<title>Node6</title>
<g id="a_Node000006"><a xlink:href="a00412.html#ga9f16d166d637fd9005839b1e1822dc63" target="_top" xlink:title="This is the default callback with weak attribute. The user can override and implement the default cal...">
<polygon fill="white" stroke="#666666" points="533.5,-77 417.75,-77 417.75,-57 533.5,-57 533.5,-77"/>
<text text-anchor="middle" x="475.62" y="-63.5" font-family="Helvetica,sans-Serif" font-size="10.00">DMA_ChannelCallback</text>
</a>
</g>
</g>
<!-- Node5&#45;&gt;Node6 -->
<g id="edge5_Node000005_Node000006" class="edge">
<title>Node5&#45;&gt;Node6</title>
<g id="a_edge5_Node000005_Node000006"><a xlink:title=" ">
<path fill="none" stroke="#63b8ff" d="M347.8,-52.41C365.32,-54.42 386.62,-56.87 406.73,-59.19"/>
<polygon fill="#63b8ff" stroke="#63b8ff" points="406.09,-62.75 416.42,-60.42 406.89,-55.8 406.09,-62.75"/>
</a>
</g>
</g>
<!-- Node7 -->
<g id="Node000007" class="node">
<title>Node7</title>
<g id="a_Node000007"><a xlink:href="a00412.html#gab9190941904dd0add59b63f1e774fb2c" target="_top" xlink:title="This function can be used to override default callback and to define custom callback for DMA Channel ...">
<polygon fill="white" stroke="#666666" points="551.5,-39 399.75,-39 399.75,-19 551.5,-19 551.5,-39"/>
<text text-anchor="middle" x="475.62" y="-25.5" font-family="Helvetica,sans-Serif" font-size="10.00">DMA_ChannelCallbackRegister</text>
</a>
</g>
</g>
<!-- Node5&#45;&gt;Node7 -->
<g id="edge6_Node000005_Node000007" class="edge">
<title>Node5&#45;&gt;Node7</title>
<g id="a_edge6_Node000005_Node000007"><a xlink:title=" ">
<path fill="none" stroke="#63b8ff" d="M347.8,-43.59C360.22,-42.16 374.53,-40.52 388.98,-38.85"/>
<polygon fill="#63b8ff" stroke="#63b8ff" points="388.96,-42.27 398.49,-37.65 388.16,-35.31 388.96,-42.27"/>
</a>
</g>
</g>
</g>
</svg>

<g id="navigator" transform="translate(0 0)" fill="#404254">
  <rect fill="#f2f5e9" fill-opacity="0.5" stroke="#606060" stroke-width=".5" x="0" y="0" width="60" height="60"/>
  <use id="zoomplus" xlink:href="#zoomPlus" x="17" y="9" onmousedown="handleZoom(evt,'in')"/>
  <use id="zoomminus" xlink:href="#zoomMin" x="42" y="9" onmousedown="handleZoom(evt,'out')"/>
  <use id="reset" xlink:href="#resetDef" x="30" y="36" onmousedown="handleReset()"/>
   <use id="arrowup" xlink:href="#arrowUp" x="0" y="0" onmousedown="handlePan(0,-1)"/>
  <use id="arrowright" xlink:href="#arrowRight" x="0" y="0" onmousedown="handlePan(1,0)"/>
  <use id="arrowdown" xlink:href="#arrowDown" x="0" y="0" onmousedown="handlePan(0,1)"/>
  <use id="arrowleft" xlink:href="#arrowLeft" x="0" y="0" onmousedown="handlePan(-1,0)"/>
</g>
<svg viewBox="0 0 15 15" width="100%" height="30px" preserveAspectRatio="xMaxYMin meet">
 <g id="arrow_out" transform="scale(0.3 0.3)">
  <a xlink:href="a00251_a931d1aef6dcb7d881ab27cf66cd94d00_cgraph_org.svg" target="_base">
   <rect id="button" ry="5" rx="5" y="6" x="6" height="38" width="38"
        fill="#f2f5e9" fill-opacity="0.5" stroke="#606060" stroke-width="1.0"/>
   <path id="arrow"
     d="M 11.500037,31.436501 C 11.940474,20.09759 22.043105,11.32322 32.158766,21.979434 L 37.068811,17.246167 C 37.068811,17.246167 37.088388,32 37.088388,32 L 22.160133,31.978069 C 22.160133,31.978069 26.997745,27.140456 26.997745,27.140456 C 18.528582,18.264221 13.291696,25.230495 11.500037,31.436501 z"
     style="fill:#404040;"/>
  </a>
 </g>
</svg>

<style type='text/css'>
<![CDATA[
[data-mouse-over-selected='false'] { opacity: 0.7; }
[data-mouse-over-selected='true']  { opacity: 1.0; }
]]>
</style>
<script type="application/ecmascript"><![CDATA[
document.addEventListener('DOMContentLoaded', (event) => {
  highlightEdges();
  highlightAdjacentNodes();
});
]]></script>
</svg>
