<?xml version="1.0" encoding="UTF-8" standalone="no"?>
<!DOCTYPE svg PUBLIC "-//W3C//DTD SVG 1.1//EN"
 "http://www.w3.org/Graphics/SVG/1.1/DTD/svg11.dtd">
<!-- Generated by graphviz version 8.1.0 (20230707.0739)
 -->
<!-- Title: D:/Firmware/MCU16ASMPS_TestEnvironment/_deployment/dspic33ch&#45;power&#45;totem&#45;pole&#45;demonstration&#45;application&#45;single&#45;phase/dspic33ch_totem_pole_single_phase_secondary_IL.X/mcc_generated_files/adc/adc1.h Pages: 1 -->
<svg width="333pt" height="224pt"
 viewBox="0.00 0.00 333.00 224.00" xmlns="http://www.w3.org/2000/svg" xmlns:xlink="http://www.w3.org/1999/xlink">
<g id="graph0" class="graph" transform="scale(1 1) rotate(0) translate(4 220)">
<title>D:/Firmware/MCU16ASMPS_TestEnvironment/_deployment/dspic33ch&#45;power&#45;totem&#45;pole&#45;demonstration&#45;application&#45;single&#45;phase/dspic33ch_totem_pole_single_phase_secondary_IL.X/mcc_generated_files/adc/adc1.h</title>
<!-- Node1 -->
<g id="Node000001" class="node">
<title>Node1</title>
<g id="a_Node000001"><a xlink:title="This is the generated driver header file for the ADC1 driver.">
<polygon fill="#999999" stroke="#666666" points="194.62,-216 6.12,-216 6.12,-124 194.62,-124 194.62,-216"/>
<text text-anchor="start" x="14.12" y="-202.5" font-family="Helvetica,sans-Serif" font-size="10.00">D:/Firmware/MCU16ASMPS</text>
<text text-anchor="start" x="14.12" y="-190.5" font-family="Helvetica,sans-Serif" font-size="10.00">_TestEnvironment/_deployment</text>
<text text-anchor="start" x="14.12" y="-178.5" font-family="Helvetica,sans-Serif" font-size="10.00">/dspic33ch&#45;power&#45;totem&#45;pole</text>
<text text-anchor="start" x="14.12" y="-166.5" font-family="Helvetica,sans-Serif" font-size="10.00">&#45;demonstration&#45;application&#45;single</text>
<text text-anchor="start" x="14.12" y="-154.5" font-family="Helvetica,sans-Serif" font-size="10.00">&#45;phase/dspic33ch_totem_pole_single</text>
<text text-anchor="start" x="14.12" y="-142.5" font-family="Helvetica,sans-Serif" font-size="10.00">_phase_secondary_IL.X/mcc_generated</text>
<text text-anchor="middle" x="100.38" y="-130.5" font-family="Helvetica,sans-Serif" font-size="10.00">_files/adc/adc1.h</text>
</a>
</g>
</g>
<!-- Node2 -->
<g id="Node000002" class="node">
<title>Node2</title>
<g id="a_Node000002"><a xlink:title=" ">
<polygon fill="#e0e0e0" stroke="#999999" points="34.75,-88 0,-88 0,-68 34.75,-68 34.75,-88"/>
<text text-anchor="middle" x="17.38" y="-74.5" font-family="Helvetica,sans-Serif" font-size="10.00">xc.h</text>
</a>
</g>
</g>
<!-- Node1&#45;&gt;Node2 -->
<g id="edge1_Node000001_Node000002" class="edge">
<title>Node1&#45;&gt;Node2</title>
<g id="a_edge1_Node000001_Node000002"><a xlink:title=" ">
<path fill="none" stroke="#63b8ff" d="M58.63,-123.74C49.6,-113.94 40.58,-104.16 33.29,-96.26"/>
<polygon fill="#63b8ff" stroke="#63b8ff" points="36.24,-94.2 26.88,-89.23 31.09,-98.95 36.24,-94.2"/>
</a>
</g>
</g>
<!-- Node3 -->
<g id="Node000003" class="node">
<title>Node3</title>
<g id="a_Node000003"><a xlink:title=" ">
<polygon fill="#e0e0e0" stroke="#999999" points="58.25,-26 2.5,-26 2.5,-6 58.25,-6 58.25,-26"/>
<text text-anchor="middle" x="30.38" y="-12.5" font-family="Helvetica,sans-Serif" font-size="10.00">stdbool.h</text>
</a>
</g>
</g>
<!-- Node1&#45;&gt;Node3 -->
<g id="edge2_Node000001_Node000003" class="edge">
<title>Node1&#45;&gt;Node3</title>
<g id="a_edge2_Node000001_Node000003"><a xlink:title=" ">
<path fill="none" stroke="#63b8ff" d="M79.56,-123.81C66.12,-94.61 49.31,-58.11 39.23,-36.23"/>
<polygon fill="#63b8ff" stroke="#63b8ff" points="42.11,-35.11 34.75,-27.49 35.75,-38.04 42.11,-35.11"/>
</a>
</g>
</g>
<!-- Node4 -->
<g id="Node000004" class="node">
<title>Node4</title>
<g id="a_Node000004"><a xlink:title=" ">
<polygon fill="#e0e0e0" stroke="#999999" points="124.5,-26 76.25,-26 76.25,-6 124.5,-6 124.5,-26"/>
<text text-anchor="middle" x="100.38" y="-12.5" font-family="Helvetica,sans-Serif" font-size="10.00">stdint.h</text>
</a>
</g>
</g>
<!-- Node1&#45;&gt;Node4 -->
<g id="edge3_Node000001_Node000004" class="edge">
<title>Node1&#45;&gt;Node4</title>
<g id="a_edge3_Node000001_Node000004"><a xlink:title=" ">
<path fill="none" stroke="#63b8ff" d="M100.38,-123.81C100.38,-95.14 100.38,-59.44 100.38,-37.44"/>
<polygon fill="#63b8ff" stroke="#63b8ff" points="103.88,-37.49 100.38,-27.49 96.88,-37.49 103.88,-37.49"/>
</a>
</g>
</g>
<!-- Node5 -->
<g id="Node000005" class="node">
<title>Node5</title>
<g id="a_Node000005"><a xlink:href="a00284.html" target="_top" xlink:title="This is the generated driver types header file for the ADC driver.">
<polygon fill="white" stroke="#666666" points="325,-26 255.75,-26 255.75,-6 325,-6 325,-26"/>
<text text-anchor="middle" x="290.38" y="-12.5" font-family="Helvetica,sans-Serif" font-size="10.00">adc_types.h</text>
</a>
</g>
</g>
<!-- Node1&#45;&gt;Node5 -->
<g id="edge4_Node000001_Node000005" class="edge">
<title>Node1&#45;&gt;Node5</title>
<g id="a_edge4_Node000001_Node000005"><a xlink:title=" ">
<path fill="none" stroke="#63b8ff" d="M171.81,-123.57C187.88,-112.49 204.55,-100.27 219.38,-88 239.8,-71.09 261.03,-49.2 274.89,-34.22"/>
<polygon fill="#63b8ff" stroke="#63b8ff" points="276.97,-37.04 281.13,-27.3 271.8,-32.32 276.97,-37.04"/>
</a>
</g>
</g>
<!-- Node6 -->
<g id="Node000006" class="node">
<title>Node6</title>
<g id="a_Node000006"><a xlink:href="a00281_source.html" target="_top" xlink:title=" ">
<polygon fill="white" stroke="#666666" points="210.38,-88 128.38,-88 128.38,-68 210.38,-68 210.38,-88"/>
<text text-anchor="middle" x="169.38" y="-74.5" font-family="Helvetica,sans-Serif" font-size="10.00">adc_interface.h</text>
</a>
</g>
</g>
<!-- Node1&#45;&gt;Node6 -->
<g id="edge5_Node000001_Node000006" class="edge">
<title>Node1&#45;&gt;Node6</title>
<g id="a_edge5_Node000001_Node000006"><a xlink:title=" ">
<path fill="none" stroke="#63b8ff" d="M135.08,-123.74C142.43,-114.15 149.76,-104.58 155.75,-96.77"/>
<polygon fill="#63b8ff" stroke="#63b8ff" points="159,-99.29 162.3,-89.23 153.44,-95.03 159,-99.29"/>
</a>
</g>
</g>
<!-- Node6&#45;&gt;Node3 -->
<g id="edge7_Node000006_Node000003" class="edge">
<title>Node6&#45;&gt;Node3</title>
<g id="a_edge7_Node000006_Node000003"><a xlink:title=" ">
<path fill="none" stroke="#63b8ff" d="M147.66,-67.62C124.6,-57.67 87.96,-41.85 61.76,-30.55"/>
<polygon fill="#63b8ff" stroke="#63b8ff" points="63.51,-27.06 52.94,-26.31 60.74,-33.49 63.51,-27.06"/>
</a>
</g>
</g>
<!-- Node6&#45;&gt;Node4 -->
<g id="edge6_Node000006_Node000004" class="edge">
<title>Node6&#45;&gt;Node4</title>
<g id="a_edge6_Node000006_Node000004"><a xlink:title=" ">
<path fill="none" stroke="#63b8ff" d="M158.59,-67.62C148,-58.41 131.62,-44.17 118.93,-33.14"/>
<polygon fill="#63b8ff" stroke="#63b8ff" points="121.7,-30.03 111.85,-26.11 117.1,-35.32 121.7,-30.03"/>
</a>
</g>
</g>
<!-- Node6&#45;&gt;Node5 -->
<g id="edge8_Node000006_Node000005" class="edge">
<title>Node6&#45;&gt;Node5</title>
<g id="a_edge8_Node000006_Node000005"><a xlink:title=" ">
<path fill="none" stroke="#63b8ff" d="M188.28,-67.62C207.99,-57.85 239.13,-42.41 261.83,-31.15"/>
<polygon fill="#63b8ff" stroke="#63b8ff" points="263.2,-33.89 270.6,-26.31 260.09,-27.62 263.2,-33.89"/>
</a>
</g>
</g>
<!-- Node7 -->
<g id="Node000007" class="node">
<title>Node7</title>
<g id="a_Node000007"><a xlink:href="a00778_source.html" target="_top" xlink:title=" ">
<polygon fill="white" stroke="#666666" points="238.12,-32 142.62,-32 142.62,0 238.12,0 238.12,-32"/>
<text text-anchor="start" x="150.62" y="-18.5" font-family="Helvetica,sans-Serif" font-size="10.00">../system/interrupt</text>
<text text-anchor="middle" x="190.38" y="-6.5" font-family="Helvetica,sans-Serif" font-size="10.00">_types.h</text>
</a>
</g>
</g>
<!-- Node6&#45;&gt;Node7 -->
<g id="edge9_Node000006_Node000007" class="edge">
<title>Node6&#45;&gt;Node7</title>
<g id="a_edge9_Node000006_Node000007"><a xlink:title=" ">
<path fill="none" stroke="#63b8ff" d="M172.66,-67.62C175.02,-60.88 178.32,-51.43 181.44,-42.52"/>
<polygon fill="#63b8ff" stroke="#63b8ff" points="185.08,-43.74 185.08,-33.14 178.47,-41.42 185.08,-43.74"/>
</a>
</g>
</g>
</g>
</svg>
