<?xml version="1.0" encoding="UTF-8" standalone="no"?>
<!DOCTYPE svg PUBLIC "-//W3C//DTD SVG 1.1//EN"
 "http://www.w3.org/Graphics/SVG/1.1/DTD/svg11.dtd">
<!-- Generated by graphviz version 2.44.1 (20200629.0846)
 -->
<!-- Title: vacm_state_dc_detect Pages: 1 -->
<svg width="418pt" height="113pt"
 viewBox="0.00 0.00 418.00 113.00" xmlns="http://www.w3.org/2000/svg" xmlns:xlink="http://www.w3.org/1999/xlink">
<g id="graph0" class="graph" transform="scale(1 1) rotate(0) translate(4 109)">
<title>vacm_state_dc_detect</title>
<!-- Node1 -->
<g id="Node000001" class="node">
<title>Node1</title>
<g id="a_Node000001"><a xlink:title=" ">
<polygon fill="#999999" stroke="#666666" points="114,-62 0,-62 0,-43 114,-43 114,-62"/>
<text text-anchor="middle" x="57" y="-50" font-family="Helvetica,sans-Serif" font-size="10.00">vacm_state_dc_detect</text>
</a>
</g>
</g>
<!-- Node2 -->
<g id="Node000002" class="node">
<title>Node2</title>
<g id="a_Node000002"><a xlink:href="a00257.html#a15257c326e34873ee3d4465e7837e87e" target="_top" xlink:title=" ">
<polygon fill="white" stroke="#666666" points="275.5,-105 159.5,-105 159.5,-86 275.5,-86 275.5,-105"/>
<text text-anchor="middle" x="217.5" y="-93" font-family="Helvetica,sans-Serif" font-size="10.00">vacm_dc_input_accept</text>
</a>
</g>
</g>
<!-- Node1&#45;&gt;Node2 -->
<g id="edge1_Node000001_Node000002" class="edge">
<title>Node1&#45;&gt;Node2</title>
<g id="a_edge1_Node000001_Node000002"><a xlink:title=" ">
<path fill="none" stroke="#63b8ff" d="M93.18,-62.04C116.26,-68.31 146.66,-76.55 171.5,-83.29"/>
<polygon fill="#63b8ff" stroke="#63b8ff" points="170.85,-86.74 181.42,-85.98 172.69,-79.99 170.85,-86.74"/>
</a>
</g>
</g>
<!-- Node3 -->
<g id="Node000003" class="node">
<title>Node3</title>
<g id="a_Node000003"><a xlink:href="a00257.html#a634dc3732b7ac4380c54073b237ca710" target="_top" xlink:title=" ">
<polygon fill="white" stroke="#666666" points="285,-67.5 150,-67.5 150,-37.5 285,-37.5 285,-67.5"/>
<text text-anchor="start" x="158" y="-55.5" font-family="Helvetica,sans-Serif" font-size="10.00">vacm_reset_phase_monitor</text>
<text text-anchor="middle" x="217.5" y="-44.5" font-family="Helvetica,sans-Serif" font-size="10.00">_object</text>
</a>
</g>
</g>
<!-- Node1&#45;&gt;Node3 -->
<g id="edge2_Node000001_Node000003" class="edge">
<title>Node1&#45;&gt;Node3</title>
<g id="a_edge2_Node000001_Node000003"><a xlink:title=" ">
<path fill="none" stroke="#63b8ff" d="M114.33,-52.5C122.58,-52.5 131.19,-52.5 139.76,-52.5"/>
<polygon fill="#63b8ff" stroke="#63b8ff" points="139.79,-56 149.79,-52.5 139.79,-49 139.79,-56"/>
</a>
</g>
</g>
<!-- Node4 -->
<g id="Node000004" class="node">
<title>Node4</title>
<g id="a_Node000004"><a xlink:href="a00257.html#a4d1cffa8629c7a211d571e6c96fe94ac" target="_top" xlink:title=" ">
<polygon fill="white" stroke="#666666" points="264.5,-19 170.5,-19 170.5,0 264.5,0 264.5,-19"/>
<text text-anchor="middle" x="217.5" y="-7" font-family="Helvetica,sans-Serif" font-size="10.00">vacm_vin_average</text>
</a>
</g>
</g>
<!-- Node1&#45;&gt;Node4 -->
<g id="edge3_Node000001_Node000004" class="edge">
<title>Node1&#45;&gt;Node4</title>
<g id="a_edge3_Node000001_Node000004"><a xlink:title=" ">
<path fill="none" stroke="#63b8ff" d="M93.18,-42.96C116.26,-36.69 146.66,-28.45 171.5,-21.71"/>
<polygon fill="#63b8ff" stroke="#63b8ff" points="172.69,-25.01 181.42,-19.02 170.85,-18.26 172.69,-25.01"/>
</a>
</g>
</g>
<!-- Node5 -->
<g id="Node000005" class="node">
<title>Node5</title>
<g id="a_Node000005"><a xlink:href="a00257.html#aef2ab25ed304717c5d288e7053b8237f" target="_top" xlink:title=" ">
<polygon fill="white" stroke="#666666" points="410,-19 321,-19 321,0 410,0 410,-19"/>
<text text-anchor="middle" x="365.5" y="-7" font-family="Helvetica,sans-Serif" font-size="10.00">vacm_uv_ov_test</text>
</a>
</g>
</g>
<!-- Node4&#45;&gt;Node5 -->
<g id="edge4_Node000004_Node000005" class="edge">
<title>Node4&#45;&gt;Node5</title>
<g id="a_edge4_Node000004_Node000005"><a xlink:title=" ">
<path fill="none" stroke="#63b8ff" d="M264.7,-9.5C279.22,-9.5 295.39,-9.5 310.41,-9.5"/>
<polygon fill="#63b8ff" stroke="#63b8ff" points="310.6,-13 320.6,-9.5 310.6,-6 310.6,-13"/>
</a>
</g>
</g>
</g>
</svg>
