<?xml version="1.0" encoding="UTF-8" standalone="no"?>
<!DOCTYPE svg PUBLIC "-//W3C//DTD SVG 1.1//EN"
 "http://www.w3.org/Graphics/SVG/1.1/DTD/svg11.dtd">
<!-- Generated by graphviz version 8.1.0 (20230707.0739)
 -->
<!-- Title: D:/Firmware/MCU16ASMPS_TestEnvironment/_deployment/dspic33ch&#45;power&#45;totem&#45;pole&#45;demonstration&#45;application&#45;single&#45;phase/dspic33ch_totem_pole_single_phase_secondary_IL.X/mcc_generated_files/adc/src/adc1.c Pages: 1 -->
<svg width="362pt" height="280pt"
 viewBox="0.00 0.00 361.88 280.00" xmlns="http://www.w3.org/2000/svg" xmlns:xlink="http://www.w3.org/1999/xlink">

<svg id="main" version="1.1" xmlns="http://www.w3.org/2000/svg" xmlns:xlink="http://www.w3.org/1999/xlink" xml:space="preserve" onload="init(evt)">
<style type="text/css"><![CDATA[
.node, .edge {opacity: 0.7;}
.node.selected, .edge.selected {opacity: 1;}
.edge:hover path { stroke: red; }
.edge:hover polygon { stroke: red; fill: red; }
]]></style>
<script type="application/ecmascript" xlink:href="svg.min.js"/>
<svg id="graph" class="graph">
<g id="graph0" class="graph" transform="scale(1 1) rotate(0) translate(4 276)">
<title>D:/Firmware/MCU16ASMPS_TestEnvironment/_deployment/dspic33ch&#45;power&#45;totem&#45;pole&#45;demonstration&#45;application&#45;single&#45;phase/dspic33ch_totem_pole_single_phase_secondary_IL.X/mcc_generated_files/adc/src/adc1.c</title>
<!-- Node1 -->
<g id="Node000001" class="node">
<title>Node1</title>
<g id="a_Node000001"><a xlink:title="This is the generated driver source file for ADC1 driver.">
<polygon fill="#999999" stroke="#666666" points="188.5,-272 0,-272 0,-180 188.5,-180 188.5,-272"/>
<text text-anchor="start" x="8" y="-258.5" font-family="Helvetica,sans-Serif" font-size="10.00">D:/Firmware/MCU16ASMPS</text>
<text text-anchor="start" x="8" y="-246.5" font-family="Helvetica,sans-Serif" font-size="10.00">_TestEnvironment/_deployment</text>
<text text-anchor="start" x="8" y="-234.5" font-family="Helvetica,sans-Serif" font-size="10.00">/dspic33ch&#45;power&#45;totem&#45;pole</text>
<text text-anchor="start" x="8" y="-222.5" font-family="Helvetica,sans-Serif" font-size="10.00">&#45;demonstration&#45;application&#45;single</text>
<text text-anchor="start" x="8" y="-210.5" font-family="Helvetica,sans-Serif" font-size="10.00">&#45;phase/dspic33ch_totem_pole_single</text>
<text text-anchor="start" x="8" y="-198.5" font-family="Helvetica,sans-Serif" font-size="10.00">_phase_secondary_IL.X/mcc_generated</text>
<text text-anchor="middle" x="94.25" y="-186.5" font-family="Helvetica,sans-Serif" font-size="10.00">_files/adc/src/adc1.c</text>
</a>
</g>
</g>
<!-- Node2 -->
<g id="Node000002" class="node">
<title>Node2</title>
<g id="a_Node000002"><a xlink:title=" ">
<polygon fill="#e0e0e0" stroke="#999999" points="84.5,-144 34,-144 34,-124 84.5,-124 84.5,-144"/>
<text text-anchor="middle" x="59.25" y="-130.5" font-family="Helvetica,sans-Serif" font-size="10.00">stddef.h</text>
</a>
</g>
</g>
<!-- Node1&#45;&gt;Node2 -->
<g id="edge1_Node000001_Node000002" class="edge">
<title>Node1&#45;&gt;Node2</title>
<g id="a_edge1_Node000001_Node000002"><a xlink:title=" ">
<path fill="none" stroke="#63b8ff" d="M76.65,-179.74C73.17,-170.78 69.69,-161.84 66.77,-154.34"/>
<polygon fill="#63b8ff" stroke="#63b8ff" points="69.72,-153.28 62.84,-145.23 63.2,-155.81 69.72,-153.28"/>
</a>
</g>
</g>
<!-- Node3 -->
<g id="Node000003" class="node">
<title>Node3</title>
<g id="a_Node000003"><a xlink:href="a00275.html" target="_top" xlink:title="This is the generated driver header file for the ADC1 driver.">
<polygon fill="white" stroke="#666666" points="156.38,-144 102.12,-144 102.12,-124 156.38,-124 156.38,-144"/>
<text text-anchor="middle" x="129.25" y="-130.5" font-family="Helvetica,sans-Serif" font-size="10.00">../adc1.h</text>
</a>
</g>
</g>
<!-- Node1&#45;&gt;Node3 -->
<g id="edge2_Node000001_Node000003" class="edge">
<title>Node1&#45;&gt;Node3</title>
<g id="a_edge2_Node000001_Node000003"><a xlink:title=" ">
<path fill="none" stroke="#63b8ff" d="M111.85,-179.74C115.33,-170.78 118.81,-161.84 121.73,-154.34"/>
<polygon fill="#63b8ff" stroke="#63b8ff" points="125.3,-155.81 125.66,-145.23 118.78,-153.28 125.3,-155.81"/>
</a>
</g>
</g>
<!-- Node4 -->
<g id="Node000004" class="node">
<title>Node4</title>
<g id="a_Node000004"><a xlink:title=" ">
<polygon fill="#e0e0e0" stroke="#999999" points="63.62,-88 28.88,-88 28.88,-68 63.62,-68 63.62,-88"/>
<text text-anchor="middle" x="46.25" y="-74.5" font-family="Helvetica,sans-Serif" font-size="10.00">xc.h</text>
</a>
</g>
</g>
<!-- Node3&#45;&gt;Node4 -->
<g id="edge3_Node000003_Node000004" class="edge">
<title>Node3&#45;&gt;Node4</title>
<g id="a_edge3_Node000003_Node000004"><a xlink:title=" ">
<path fill="none" stroke="#63b8ff" d="M114.79,-123.59C102.37,-115.51 84.23,-103.71 69.73,-94.27"/>
<polygon fill="#63b8ff" stroke="#63b8ff" points="72.11,-91 61.82,-88.48 68.29,-96.87 72.11,-91"/>
</a>
</g>
</g>
<!-- Node5 -->
<g id="Node000005" class="node">
<title>Node5</title>
<g id="a_Node000005"><a xlink:title=" ">
<polygon fill="#e0e0e0" stroke="#999999" points="87.12,-26 31.38,-26 31.38,-6 87.12,-6 87.12,-26"/>
<text text-anchor="middle" x="59.25" y="-12.5" font-family="Helvetica,sans-Serif" font-size="10.00">stdbool.h</text>
</a>
</g>
</g>
<!-- Node3&#45;&gt;Node5 -->
<g id="edge4_Node000003_Node000005" class="edge">
<title>Node3&#45;&gt;Node5</title>
<g id="a_edge4_Node000003_Node000005"><a xlink:title=" ">
<path fill="none" stroke="#63b8ff" d="M123.52,-123.51C111.93,-104.29 85.5,-60.5 70.39,-35.47"/>
<polygon fill="#63b8ff" stroke="#63b8ff" points="73.03,-34.05 64.86,-27.3 67.03,-37.67 73.03,-34.05"/>
</a>
</g>
</g>
<!-- Node6 -->
<g id="Node000006" class="node">
<title>Node6</title>
<g id="a_Node000006"><a xlink:title=" ">
<polygon fill="#e0e0e0" stroke="#999999" points="153.38,-26 105.12,-26 105.12,-6 153.38,-6 153.38,-26"/>
<text text-anchor="middle" x="129.25" y="-12.5" font-family="Helvetica,sans-Serif" font-size="10.00">stdint.h</text>
</a>
</g>
</g>
<!-- Node3&#45;&gt;Node6 -->
<g id="edge5_Node000003_Node000006" class="edge">
<title>Node3&#45;&gt;Node6</title>
<g id="a_edge5_Node000003_Node000006"><a xlink:title=" ">
<path fill="none" stroke="#63b8ff" d="M129.25,-123.51C129.25,-104.72 129.25,-62.44 129.25,-37.16"/>
<polygon fill="#63b8ff" stroke="#63b8ff" points="132.75,-37.3 129.25,-27.3 125.75,-37.3 132.75,-37.3"/>
</a>
</g>
</g>
<!-- Node7 -->
<g id="Node000007" class="node">
<title>Node7</title>
<g id="a_Node000007"><a xlink:href="a00284.html" target="_top" xlink:title="This is the generated driver types header file for the ADC driver.">
<polygon fill="white" stroke="#666666" points="353.88,-26 284.62,-26 284.62,-6 353.88,-6 353.88,-26"/>
<text text-anchor="middle" x="319.25" y="-12.5" font-family="Helvetica,sans-Serif" font-size="10.00">adc_types.h</text>
</a>
</g>
</g>
<!-- Node3&#45;&gt;Node7 -->
<g id="edge6_Node000003_Node000007" class="edge">
<title>Node3&#45;&gt;Node7</title>
<g id="a_edge6_Node000003_Node000007"><a xlink:title=" ">
<path fill="none" stroke="#63b8ff" d="M156.77,-126.19C181.93,-119.15 219.49,-106.57 248.25,-88 271.02,-73.29 292.32,-50.26 305.54,-34.44"/>
<polygon fill="#63b8ff" stroke="#63b8ff" points="308.75,-37.04 312.34,-27.08 303.31,-32.63 308.75,-37.04"/>
</a>
</g>
</g>
<!-- Node8 -->
<g id="Node000008" class="node">
<title>Node8</title>
<g id="a_Node000008"><a xlink:href="a00281_source.html" target="_top" xlink:title=" ">
<polygon fill="white" stroke="#666666" points="239.25,-88 157.25,-88 157.25,-68 239.25,-68 239.25,-88"/>
<text text-anchor="middle" x="198.25" y="-74.5" font-family="Helvetica,sans-Serif" font-size="10.00">adc_interface.h</text>
</a>
</g>
</g>
<!-- Node3&#45;&gt;Node8 -->
<g id="edge7_Node000003_Node000008" class="edge">
<title>Node3&#45;&gt;Node8</title>
<g id="a_edge7_Node000003_Node000008"><a xlink:title=" ">
<path fill="none" stroke="#63b8ff" d="M141.27,-123.59C151.36,-115.7 166,-104.24 177.91,-94.92"/>
<polygon fill="#63b8ff" stroke="#63b8ff" points="179.65,-97.22 185.37,-88.3 175.34,-91.71 179.65,-97.22"/>
</a>
</g>
</g>
<!-- Node8&#45;&gt;Node5 -->
<g id="edge9_Node000008_Node000005" class="edge">
<title>Node8&#45;&gt;Node5</title>
<g id="a_edge9_Node000008_Node000005"><a xlink:title=" ">
<path fill="none" stroke="#63b8ff" d="M176.53,-67.62C153.48,-57.67 116.83,-41.85 90.64,-30.55"/>
<polygon fill="#63b8ff" stroke="#63b8ff" points="92.38,-27.06 81.82,-26.31 89.61,-33.49 92.38,-27.06"/>
</a>
</g>
</g>
<!-- Node8&#45;&gt;Node6 -->
<g id="edge8_Node000008_Node000006" class="edge">
<title>Node8&#45;&gt;Node6</title>
<g id="a_edge8_Node000008_Node000006"><a xlink:title=" ">
<path fill="none" stroke="#63b8ff" d="M187.47,-67.62C176.87,-58.41 160.5,-44.17 147.81,-33.14"/>
<polygon fill="#63b8ff" stroke="#63b8ff" points="150.57,-30.03 140.73,-26.11 145.98,-35.32 150.57,-30.03"/>
</a>
</g>
</g>
<!-- Node8&#45;&gt;Node7 -->
<g id="edge10_Node000008_Node000007" class="edge">
<title>Node8&#45;&gt;Node7</title>
<g id="a_edge10_Node000008_Node000007"><a xlink:title=" ">
<path fill="none" stroke="#63b8ff" d="M217.16,-67.62C236.87,-57.85 268,-42.41 290.71,-31.15"/>
<polygon fill="#63b8ff" stroke="#63b8ff" points="292.07,-33.89 299.48,-26.31 288.96,-27.62 292.07,-33.89"/>
</a>
</g>
</g>
<!-- Node9 -->
<g id="Node000009" class="node">
<title>Node9</title>
<g id="a_Node000009"><a xlink:href="a00778_source.html" target="_top" xlink:title=" ">
<polygon fill="white" stroke="#666666" points="267,-32 171.5,-32 171.5,0 267,0 267,-32"/>
<text text-anchor="start" x="179.5" y="-18.5" font-family="Helvetica,sans-Serif" font-size="10.00">../system/interrupt</text>
<text text-anchor="middle" x="219.25" y="-6.5" font-family="Helvetica,sans-Serif" font-size="10.00">_types.h</text>
</a>
</g>
</g>
<!-- Node8&#45;&gt;Node9 -->
<g id="edge11_Node000008_Node000009" class="edge">
<title>Node8&#45;&gt;Node9</title>
<g id="a_edge11_Node000008_Node000009"><a xlink:title=" ">
<path fill="none" stroke="#63b8ff" d="M201.53,-67.62C203.89,-60.88 207.2,-51.43 210.32,-42.52"/>
<polygon fill="#63b8ff" stroke="#63b8ff" points="213.95,-43.74 213.95,-33.14 207.34,-41.42 213.95,-43.74"/>
</a>
</g>
</g>
</g>
</svg>
</svg>

<style type='text/css'>
<![CDATA[
[data-mouse-over-selected='false'] { opacity: 0.7; }
[data-mouse-over-selected='true']  { opacity: 1.0; }
]]>
</style>
<script type="application/ecmascript"><![CDATA[
document.addEventListener('DOMContentLoaded', (event) => {
  highlightEdges();
  highlightAdjacentNodes();
});
]]></script>
</svg>
