<?xml version="1.0" encoding="UTF-8" standalone="no"?>
<!DOCTYPE svg PUBLIC "-//W3C//DTD SVG 1.1//EN"
 "http://www.w3.org/Graphics/SVG/1.1/DTD/svg11.dtd">
<!-- Generated by graphviz version 2.44.1 (20200629.0846)
 -->
<!-- Title: vacm_state_ac_sync Pages: 1 -->
<svg width="412pt" height="224pt"
 viewBox="0.00 0.00 412.00 224.00" xmlns="http://www.w3.org/2000/svg" xmlns:xlink="http://www.w3.org/1999/xlink">
<g id="graph0" class="graph" transform="scale(1 1) rotate(0) translate(4 220)">
<title>vacm_state_ac_sync</title>
<!-- Node1 -->
<g id="Node000001" class="node">
<title>Node1</title>
<g id="a_Node000001"><a xlink:title=" ">
<polygon fill="#999999" stroke="#666666" points="108,-114 0,-114 0,-95 108,-95 108,-114"/>
<text text-anchor="middle" x="54" y="-102" font-family="Helvetica,sans-Serif" font-size="10.00">vacm_state_ac_sync</text>
</a>
</g>
</g>
<!-- Node2 -->
<g id="Node000002" class="node">
<title>Node2</title>
<g id="a_Node000002"><a xlink:href="a00257.html#a59a2d9f80fc5da34bbe8f2a364b0eb2a" target="_top" xlink:title=" ">
<polygon fill="white" stroke="#666666" points="260.5,-216 162.5,-216 162.5,-197 260.5,-197 260.5,-216"/>
<text text-anchor="middle" x="211.5" y="-204" font-family="Helvetica,sans-Serif" font-size="10.00">vacm_acok_assert</text>
</a>
</g>
</g>
<!-- Node1&#45;&gt;Node2 -->
<g id="edge1_Node000001_Node000002" class="edge">
<title>Node1&#45;&gt;Node2</title>
<g id="a_edge1_Node000001_Node000002"><a xlink:title=" ">
<path fill="none" stroke="#63b8ff" d="M62.45,-114.16C76.48,-131.67 108.59,-168.67 144,-188.5 147.22,-190.3 150.62,-191.93 154.12,-193.4"/>
<polygon fill="#63b8ff" stroke="#63b8ff" points="152.96,-196.7 163.56,-196.94 155.42,-190.15 152.96,-196.7"/>
</a>
</g>
</g>
<!-- Node3 -->
<g id="Node000003" class="node">
<title>Node3</title>
<g id="a_Node000003"><a xlink:href="a00257.html#a128d766a414b6a9755b7586f37b92939" target="_top" xlink:title=" ">
<polygon fill="white" stroke="#666666" points="266.5,-179 156.5,-179 156.5,-160 266.5,-160 266.5,-179"/>
<text text-anchor="middle" x="211.5" y="-167" font-family="Helvetica,sans-Serif" font-size="10.00">vacm_polarity_update</text>
</a>
</g>
</g>
<!-- Node1&#45;&gt;Node3 -->
<g id="edge2_Node000001_Node000003" class="edge">
<title>Node1&#45;&gt;Node3</title>
<g id="a_edge2_Node000001_Node000003"><a xlink:title=" ">
<path fill="none" stroke="#63b8ff" d="M71.27,-114.16C88.77,-124.26 117.65,-140.05 144,-150.5 149.86,-152.82 156.11,-154.99 162.35,-156.98"/>
<polygon fill="#63b8ff" stroke="#63b8ff" points="161.5,-160.38 172.08,-159.93 163.53,-153.68 161.5,-160.38"/>
</a>
</g>
</g>
<!-- Node4 -->
<g id="Node000004" class="node">
<title>Node4</title>
<g id="a_Node000004"><a xlink:href="a00257.html#a634dc3732b7ac4380c54073b237ca710" target="_top" xlink:title=" ">
<polygon fill="white" stroke="#666666" points="279,-141.5 144,-141.5 144,-111.5 279,-111.5 279,-141.5"/>
<text text-anchor="start" x="152" y="-129.5" font-family="Helvetica,sans-Serif" font-size="10.00">vacm_reset_phase_monitor</text>
<text text-anchor="middle" x="211.5" y="-118.5" font-family="Helvetica,sans-Serif" font-size="10.00">_object</text>
</a>
</g>
</g>
<!-- Node1&#45;&gt;Node4 -->
<g id="edge3_Node000001_Node000004" class="edge">
<title>Node1&#45;&gt;Node4</title>
<g id="a_edge3_Node000001_Node000004"><a xlink:title=" ">
<path fill="none" stroke="#63b8ff" d="M108.08,-112.01C116.36,-113.18 125.06,-114.41 133.75,-115.64"/>
<polygon fill="#63b8ff" stroke="#63b8ff" points="133.52,-119.14 143.91,-117.08 134.5,-112.21 133.52,-119.14"/>
</a>
</g>
</g>
<!-- Node5 -->
<g id="Node000005" class="node">
<title>Node5</title>
<g id="a_Node000005"><a xlink:href="a00257.html#aa3afbdf195704fcbb7fe03f05a5f1493" target="_top" xlink:title=" ">
<polygon fill="white" stroke="#666666" points="271,-93 152,-93 152,-74 271,-74 271,-93"/>
<text text-anchor="middle" x="211.5" y="-81" font-family="Helvetica,sans-Serif" font-size="10.00">vacm_timebase_update</text>
</a>
</g>
</g>
<!-- Node1&#45;&gt;Node5 -->
<g id="edge4_Node000001_Node000005" class="edge">
<title>Node1&#45;&gt;Node5</title>
<g id="a_edge4_Node000001_Node000005"><a xlink:title=" ">
<path fill="none" stroke="#63b8ff" d="M108.08,-97.33C118.86,-95.88 130.34,-94.33 141.58,-92.81"/>
<polygon fill="#63b8ff" stroke="#63b8ff" points="142.35,-96.23 151.8,-91.43 141.42,-89.3 142.35,-96.23"/>
</a>
</g>
</g>
<!-- Node6 -->
<g id="Node000006" class="node">
<title>Node6</title>
<g id="a_Node000006"><a xlink:href="a00257.html#a4d1cffa8629c7a211d571e6c96fe94ac" target="_top" xlink:title=" ">
<polygon fill="white" stroke="#666666" points="258.5,-56 164.5,-56 164.5,-37 258.5,-37 258.5,-56"/>
<text text-anchor="middle" x="211.5" y="-44" font-family="Helvetica,sans-Serif" font-size="10.00">vacm_vin_average</text>
</a>
</g>
</g>
<!-- Node1&#45;&gt;Node6 -->
<g id="edge5_Node000001_Node000006" class="edge">
<title>Node1&#45;&gt;Node6</title>
<g id="a_edge5_Node000001_Node000006"><a xlink:title=" ">
<path fill="none" stroke="#63b8ff" d="M74.84,-94.89C92.67,-86.47 119.72,-74.24 144,-65.5 150.38,-63.2 157.17,-61 163.89,-58.95"/>
<polygon fill="#63b8ff" stroke="#63b8ff" points="165.03,-62.26 173.63,-56.08 163.05,-55.55 165.03,-62.26"/>
</a>
</g>
</g>
<!-- Node8 -->
<g id="Node000008" class="node">
<title>Node8</title>
<g id="a_Node000008"><a xlink:href="a00257.html#ae168f993edb4be6bef378eeb2f7d62d6" target="_top" xlink:title=" ">
<polygon fill="white" stroke="#666666" points="271,-19 152,-19 152,0 271,0 271,-19"/>
<text text-anchor="middle" x="211.5" y="-7" font-family="Helvetica,sans-Serif" font-size="10.00">vacm_zerocross_detect</text>
</a>
</g>
</g>
<!-- Node1&#45;&gt;Node8 -->
<g id="edge7_Node000001_Node000008" class="edge">
<title>Node1&#45;&gt;Node8</title>
<g id="a_edge7_Node000001_Node000008"><a xlink:title=" ">
<path fill="none" stroke="#63b8ff" d="M63.61,-94.83C78.46,-78.74 110.52,-46.47 144,-28.5 148.21,-26.24 152.72,-24.23 157.33,-22.43"/>
<polygon fill="#63b8ff" stroke="#63b8ff" points="158.61,-25.69 166.87,-19.06 156.28,-19.09 158.61,-25.69"/>
</a>
</g>
</g>
<!-- Node7 -->
<g id="Node000007" class="node">
<title>Node7</title>
<g id="a_Node000007"><a xlink:href="a00257.html#aef2ab25ed304717c5d288e7053b8237f" target="_top" xlink:title=" ">
<polygon fill="white" stroke="#666666" points="404,-56 315,-56 315,-37 404,-37 404,-56"/>
<text text-anchor="middle" x="359.5" y="-44" font-family="Helvetica,sans-Serif" font-size="10.00">vacm_uv_ov_test</text>
</a>
</g>
</g>
<!-- Node6&#45;&gt;Node7 -->
<g id="edge6_Node000006_Node000007" class="edge">
<title>Node6&#45;&gt;Node7</title>
<g id="a_edge6_Node000006_Node000007"><a xlink:title=" ">
<path fill="none" stroke="#63b8ff" d="M258.7,-46.5C273.22,-46.5 289.39,-46.5 304.41,-46.5"/>
<polygon fill="#63b8ff" stroke="#63b8ff" points="304.6,-50 314.6,-46.5 304.6,-43 304.6,-50"/>
</a>
</g>
</g>
</g>
</svg>
