<?xml version="1.0" encoding="UTF-8" standalone="no"?>
<!DOCTYPE svg PUBLIC "-//W3C//DTD SVG 1.1//EN"
 "http://www.w3.org/Graphics/SVG/1.1/DTD/svg11.dtd">
<!-- Generated by graphviz version 2.44.1 (20200629.0846)
 -->
<!-- Title: C:/Users/M70027/Documents/Projects/tp&#45;deployment/dspic33ch&#45;power&#45;totem&#45;pole&#45;demonstration&#45;application&#45;single&#45;phase_v2/dspic33ch_totem_pole_single_phase_secondary_IL.X/mcc_generated_files/main_core/src/main_core.c Pages: 1 -->
<svg width="376pt" height="269pt"
 viewBox="0.00 0.00 376.00 269.00" xmlns="http://www.w3.org/2000/svg" xmlns:xlink="http://www.w3.org/1999/xlink">

<svg id="main" version="1.1" xmlns="http://www.w3.org/2000/svg" xmlns:xlink="http://www.w3.org/1999/xlink" xml:space="preserve">

<style type="text/css"><![CDATA[
.node, .edge {opacity: 0.7;}
.node.selected, .edge.selected {opacity: 1;}
.edge:hover path { stroke: red; }
.edge:hover polygon { stroke: red; fill: red; }
]]></style>
<script type="application/ecmascript" xlink:href="svg.min.js"/>
<svg id="graph" class="graph">
<g id="graph0" class="graph" transform="scale(1 1) rotate(0) translate(4 265)">
<title>C:/Users/M70027/Documents/Projects/tp&#45;deployment/dspic33ch&#45;power&#45;totem&#45;pole&#45;demonstration&#45;application&#45;single&#45;phase_v2/dspic33ch_totem_pole_single_phase_secondary_IL.X/mcc_generated_files/main_core/src/main_core.c</title>
<!-- Node1 -->
<g id="Node000001" class="node">
<title>Node1</title>
<g id="a_Node000001"><a xlink:title="This is the generated driver source file for MAIN_CORE driver.">
<polygon fill="#999999" stroke="#666666" points="181,-261 8,-261 8,-165 181,-165 181,-261"/>
<text text-anchor="start" x="16" y="-249" font-family="Helvetica,sans-Serif" font-size="10.00">C:/Users/M70027/Documents</text>
<text text-anchor="start" x="16" y="-238" font-family="Helvetica,sans-Serif" font-size="10.00">/Projects/tp&#45;deployment</text>
<text text-anchor="start" x="16" y="-227" font-family="Helvetica,sans-Serif" font-size="10.00">/dspic33ch&#45;power&#45;totem&#45;pole</text>
<text text-anchor="start" x="16" y="-216" font-family="Helvetica,sans-Serif" font-size="10.00">&#45;demonstration&#45;application</text>
<text text-anchor="start" x="16" y="-205" font-family="Helvetica,sans-Serif" font-size="10.00">&#45;single&#45;phase_v2/dspic33ch_totem</text>
<text text-anchor="start" x="16" y="-194" font-family="Helvetica,sans-Serif" font-size="10.00">_pole_single_phase_secondary_IL.X</text>
<text text-anchor="start" x="16" y="-183" font-family="Helvetica,sans-Serif" font-size="10.00">/mcc_generated_files/main_core/src</text>
<text text-anchor="middle" x="94.5" y="-172" font-family="Helvetica,sans-Serif" font-size="10.00">/main_core.c</text>
</a>
</g>
</g>
<!-- Node2 -->
<g id="Node000002" class="node">
<title>Node2</title>
<g id="a_Node000002"><a xlink:title=" ">
<polygon fill="#e0e0e0" stroke="#999999" points="51,-19 0,-19 0,0 51,0 51,-19"/>
<text text-anchor="middle" x="25.5" y="-7" font-family="Helvetica,sans-Serif" font-size="10.00">stddef.h</text>
</a>
</g>
</g>
<!-- Node1&#45;&gt;Node2 -->
<g id="edge1_Node000001_Node000002" class="edge">
<title>Node1&#45;&gt;Node2</title>
<g id="a_edge1_Node000001_Node000002"><a xlink:title=" ">
<path fill="none" stroke="#63b8ff" d="M71.15,-164.75C65.93,-153.21 60.71,-140.79 56.5,-129 44.22,-94.57 34.46,-52.96 29.36,-29.33"/>
<polygon fill="#63b8ff" stroke="#63b8ff" points="32.73,-28.34 27.25,-19.28 25.88,-29.79 32.73,-28.34"/>
</a>
</g>
</g>
<!-- Node3 -->
<g id="Node000003" class="node">
<title>Node3</title>
<g id="a_Node000003"><a xlink:href="a00302.html" target="_top" xlink:title="This is the generated driver types header file for the MAIN_CORE driver.">
<polygon fill="white" stroke="#666666" points="190.5,-19 82.5,-19 82.5,0 190.5,0 190.5,-19"/>
<text text-anchor="middle" x="136.5" y="-7" font-family="Helvetica,sans-Serif" font-size="10.00">../main_core_types.h</text>
</a>
</g>
</g>
<!-- Node1&#45;&gt;Node3 -->
<g id="edge2_Node000001_Node000003" class="edge">
<title>Node1&#45;&gt;Node3</title>
<g id="a_edge2_Node000001_Node000003"><a xlink:title=" ">
<path fill="none" stroke="#63b8ff" d="M72.25,-164.78C60.3,-132.19 51.37,-88.81 69.5,-55 77.01,-41 91.07,-30.66 104.38,-23.48"/>
<polygon fill="#63b8ff" stroke="#63b8ff" points="105.98,-26.6 113.39,-19.02 102.87,-20.33 105.98,-26.6"/>
</a>
</g>
</g>
<!-- Node4 -->
<g id="Node000004" class="node">
<title>Node4</title>
<g id="a_Node000004"><a xlink:href="a00299_source.html" target="_top" xlink:title=" ">
<polygon fill="white" stroke="#666666" points="200,-74 79,-74 79,-55 200,-55 200,-74"/>
<text text-anchor="middle" x="139.5" y="-62" font-family="Helvetica,sans-Serif" font-size="10.00">../main_core_interface.h</text>
</a>
</g>
</g>
<!-- Node1&#45;&gt;Node4 -->
<g id="edge3_Node000001_Node000004" class="edge">
<title>Node1&#45;&gt;Node4</title>
<g id="a_edge3_Node000001_Node000004"><a xlink:title=" ">
<path fill="none" stroke="#63b8ff" d="M108.99,-164.84C117.44,-137.32 127.63,-104.14 133.84,-83.94"/>
<polygon fill="#63b8ff" stroke="#63b8ff" points="137.24,-84.76 136.83,-74.18 130.55,-82.71 137.24,-84.76"/>
</a>
</g>
</g>
<!-- Node7 -->
<g id="Node000007" class="node">
<title>Node7</title>
<g id="a_Node000007"><a xlink:href="a00296.html" target="_top" xlink:title="This is the generated driver header file for the MAIN_CORE driver.">
<polygon fill="white" stroke="#666666" points="287,-129 208,-129 208,-110 287,-110 287,-129"/>
<text text-anchor="middle" x="247.5" y="-117" font-family="Helvetica,sans-Serif" font-size="10.00">../main_core.h</text>
</a>
</g>
</g>
<!-- Node1&#45;&gt;Node7 -->
<g id="edge8_Node000001_Node000007" class="edge">
<title>Node1&#45;&gt;Node7</title>
<g id="a_edge8_Node000001_Node000007"><a xlink:title=" ">
<path fill="none" stroke="#63b8ff" d="M173.24,-164.91C191.92,-153.74 210.42,-142.67 224.29,-134.38"/>
<polygon fill="#63b8ff" stroke="#63b8ff" points="226.3,-137.26 233.09,-129.12 222.71,-131.25 226.3,-137.26"/>
</a>
</g>
</g>
<!-- Node4&#45;&gt;Node2 -->
<g id="edge4_Node000004_Node000002" class="edge">
<title>Node4&#45;&gt;Node2</title>
<g id="a_edge4_Node000004_Node000002"><a xlink:title=" ">
<path fill="none" stroke="#63b8ff" d="M121.18,-54.98C102.84,-46.46 74.39,-33.23 53.27,-23.41"/>
<polygon fill="#63b8ff" stroke="#63b8ff" points="54.69,-20.21 44.15,-19.17 51.74,-26.56 54.69,-20.21"/>
</a>
</g>
</g>
<!-- Node4&#45;&gt;Node3 -->
<g id="edge7_Node000004_Node000003" class="edge">
<title>Node4&#45;&gt;Node3</title>
<g id="a_edge7_Node000004_Node000003"><a xlink:title=" ">
<path fill="none" stroke="#63b8ff" d="M139,-54.75C138.61,-47.8 138.05,-37.85 137.55,-29.13"/>
<polygon fill="#63b8ff" stroke="#63b8ff" points="141.05,-28.88 136.99,-19.09 134.06,-29.27 141.05,-28.88"/>
</a>
</g>
</g>
<!-- Node5 -->
<g id="Node000005" class="node">
<title>Node5</title>
<g id="a_Node000005"><a xlink:title=" ">
<polygon fill="#e0e0e0" stroke="#999999" points="258,-19 209,-19 209,0 258,0 258,-19"/>
<text text-anchor="middle" x="233.5" y="-7" font-family="Helvetica,sans-Serif" font-size="10.00">stdint.h</text>
</a>
</g>
</g>
<!-- Node4&#45;&gt;Node5 -->
<g id="edge5_Node000004_Node000005" class="edge">
<title>Node4&#45;&gt;Node5</title>
<g id="a_edge5_Node000004_Node000005"><a xlink:title=" ">
<path fill="none" stroke="#63b8ff" d="M154.6,-54.98C169.32,-46.69 191.92,-33.94 209.17,-24.22"/>
<polygon fill="#63b8ff" stroke="#63b8ff" points="211.13,-27.13 218.12,-19.17 207.69,-21.03 211.13,-27.13"/>
</a>
</g>
</g>
<!-- Node6 -->
<g id="Node000006" class="node">
<title>Node6</title>
<g id="a_Node000006"><a xlink:title=" ">
<polygon fill="#e0e0e0" stroke="#999999" points="332.5,-19 276.5,-19 276.5,0 332.5,0 332.5,-19"/>
<text text-anchor="middle" x="304.5" y="-7" font-family="Helvetica,sans-Serif" font-size="10.00">stdbool.h</text>
</a>
</g>
</g>
<!-- Node4&#45;&gt;Node6 -->
<g id="edge6_Node000004_Node000006" class="edge">
<title>Node4&#45;&gt;Node6</title>
<g id="a_edge6_Node000004_Node000006"><a xlink:title=" ">
<path fill="none" stroke="#63b8ff" d="M166.01,-54.98C193.71,-46.09 237.36,-32.07 268.24,-22.15"/>
<polygon fill="#63b8ff" stroke="#63b8ff" points="269.33,-25.47 277.78,-19.08 267.19,-18.81 269.33,-25.47"/>
</a>
</g>
</g>
<!-- Node7&#45;&gt;Node3 -->
<g id="edge12_Node000007_Node000003" class="edge">
<title>Node7&#45;&gt;Node3</title>
<g id="a_edge12_Node000007_Node000003"><a xlink:title=" ">
<path fill="none" stroke="#63b8ff" d="M243.78,-109.83C237.82,-96.73 225.13,-71.67 208.5,-55 195.73,-42.2 178.6,-31.42 164.26,-23.68"/>
<polygon fill="#63b8ff" stroke="#63b8ff" points="165.79,-20.53 155.3,-19.04 162.57,-26.75 165.79,-20.53"/>
</a>
</g>
</g>
<!-- Node7&#45;&gt;Node4 -->
<g id="edge13_Node000007_Node000004" class="edge">
<title>Node7&#45;&gt;Node4</title>
<g id="a_edge13_Node000007_Node000004"><a xlink:title=" ">
<path fill="none" stroke="#63b8ff" d="M230.15,-109.98C212.93,-101.54 186.3,-88.47 166.35,-78.68"/>
<polygon fill="#63b8ff" stroke="#63b8ff" points="167.69,-75.43 157.17,-74.17 164.6,-81.72 167.69,-75.43"/>
</a>
</g>
</g>
<!-- Node7&#45;&gt;Node5 -->
<g id="edge10_Node000007_Node000005" class="edge">
<title>Node7&#45;&gt;Node5</title>
<g id="a_edge10_Node000007_Node000005"><a xlink:title=" ">
<path fill="none" stroke="#63b8ff" d="M247.15,-109.84C246.58,-97.58 245.23,-74.49 242.5,-55 241.31,-46.51 239.51,-37.2 237.83,-29.31"/>
<polygon fill="#63b8ff" stroke="#63b8ff" points="241.19,-28.32 235.61,-19.31 234.36,-29.83 241.19,-28.32"/>
</a>
</g>
</g>
<!-- Node7&#45;&gt;Node6 -->
<g id="edge11_Node000007_Node000006" class="edge">
<title>Node7&#45;&gt;Node6</title>
<g id="a_edge11_Node000007_Node000006"><a xlink:title=" ">
<path fill="none" stroke="#63b8ff" d="M252.16,-109.66C261.56,-91.85 282.93,-51.37 295.26,-28.01"/>
<polygon fill="#63b8ff" stroke="#63b8ff" points="298.36,-29.64 299.93,-19.16 292.17,-26.37 298.36,-29.64"/>
</a>
</g>
</g>
<!-- Node8 -->
<g id="Node000008" class="node">
<title>Node8</title>
<g id="a_Node000008"><a xlink:title=" ">
<polygon fill="#e0e0e0" stroke="#999999" points="368,-74 333,-74 333,-55 368,-55 368,-74"/>
<text text-anchor="middle" x="350.5" y="-62" font-family="Helvetica,sans-Serif" font-size="10.00">xc.h</text>
</a>
</g>
</g>
<!-- Node7&#45;&gt;Node8 -->
<g id="edge9_Node000007_Node000008" class="edge">
<title>Node7&#45;&gt;Node8</title>
<g id="a_edge9_Node000007_Node000008"><a xlink:title=" ">
<path fill="none" stroke="#63b8ff" d="M264.05,-109.98C280.39,-101.57 305.63,-88.59 324.63,-78.81"/>
<polygon fill="#63b8ff" stroke="#63b8ff" points="326.36,-81.86 333.65,-74.17 323.16,-75.63 326.36,-81.86"/>
</a>
</g>
</g>
</g>
</svg>
</svg>

<style type='text/css'>
<![CDATA[
[data-mouse-over-selected='false'] { opacity: 0.7; }
[data-mouse-over-selected='true']  { opacity: 1.0; }
]]>
</style>
<script type="application/ecmascript"><![CDATA[
document.addEventListener('DOMContentLoaded', (event) => {
  highlightEdges();
  highlightAdjacentNodes();
});
]]></script>
</svg>
