<?xml version="1.0" encoding="UTF-8" standalone="no"?>
<!DOCTYPE svg PUBLIC "-//W3C//DTD SVG 1.1//EN"
 "http://www.w3.org/Graphics/SVG/1.1/DTD/svg11.dtd">
<!-- Generated by graphviz version 8.1.0 (20230707.0739)
 -->
<!-- Title: D:/Firmware/MCU16ASMPS_TestEnvironment/_deployment/dspic33ch&#45;power&#45;totem&#45;pole&#45;demonstration&#45;application&#45;single&#45;phase/dspic33ch_totem_pole_single_phase_secondary_IL.X/sources/driver/power_controller/drv_pwrctrl_app_misc_TPBLPFC.h Pages: 1 -->
<svg width="251pt" height="224pt"
 viewBox="0.00 0.00 250.50 224.00" xmlns="http://www.w3.org/2000/svg" xmlns:xlink="http://www.w3.org/1999/xlink">
<g id="graph0" class="graph" transform="scale(1 1) rotate(0) translate(4 220)">
<title>D:/Firmware/MCU16ASMPS_TestEnvironment/_deployment/dspic33ch&#45;power&#45;totem&#45;pole&#45;demonstration&#45;application&#45;single&#45;phase/dspic33ch_totem_pole_single_phase_secondary_IL.X/sources/driver/power_controller/drv_pwrctrl_app_misc_TPBLPFC.h</title>
<!-- Node1 -->
<g id="Node000001" class="node">
<title>Node1</title>
<g id="a_Node000001"><a xlink:title="This is the driver header file for the power controller misc app.">
<polygon fill="#999999" stroke="#666666" points="242.5,-216 0,-216 0,-124 242.5,-124 242.5,-216"/>
<text text-anchor="start" x="8" y="-202.5" font-family="Helvetica,sans-Serif" font-size="10.00">D:/Firmware/MCU16ASMPS</text>
<text text-anchor="start" x="8" y="-190.5" font-family="Helvetica,sans-Serif" font-size="10.00">_TestEnvironment/_deployment</text>
<text text-anchor="start" x="8" y="-178.5" font-family="Helvetica,sans-Serif" font-size="10.00">/dspic33ch&#45;power&#45;totem&#45;pole</text>
<text text-anchor="start" x="8" y="-166.5" font-family="Helvetica,sans-Serif" font-size="10.00">&#45;demonstration&#45;application&#45;single</text>
<text text-anchor="start" x="8" y="-154.5" font-family="Helvetica,sans-Serif" font-size="10.00">&#45;phase/dspic33ch_totem_pole_single</text>
<text text-anchor="start" x="8" y="-142.5" font-family="Helvetica,sans-Serif" font-size="10.00">_phase_secondary_IL.X/sources/driver</text>
<text text-anchor="middle" x="121.25" y="-130.5" font-family="Helvetica,sans-Serif" font-size="10.00">/power_controller/drv_pwrctrl_app_misc_TPBLPFC.h</text>
</a>
</g>
</g>
<!-- Node2 -->
<g id="Node000002" class="node">
<title>Node2</title>
<g id="a_Node000002"><a xlink:title=" ">
<polygon fill="#e0e0e0" stroke="#999999" points="108.62,-20 73.88,-20 73.88,0 108.62,0 108.62,-20"/>
<text text-anchor="middle" x="91.25" y="-6.5" font-family="Helvetica,sans-Serif" font-size="10.00">xc.h</text>
</a>
</g>
</g>
<!-- Node1&#45;&gt;Node2 -->
<g id="edge1_Node000001_Node000002" class="edge">
<title>Node1&#45;&gt;Node2</title>
<g id="a_edge1_Node000001_Node000002"><a xlink:title=" ">
<path fill="none" stroke="#63b8ff" d="M103.67,-123.76C99.9,-112.26 96.4,-99.81 94.25,-88 90.77,-68.89 90.27,-46.69 90.49,-31.05"/>
<polygon fill="#63b8ff" stroke="#63b8ff" points="94.02,-31.19 90.78,-21.1 87.02,-31 94.02,-31.19"/>
</a>
</g>
</g>
<!-- Node3 -->
<g id="Node000003" class="node">
<title>Node3</title>
<g id="a_Node000003"><a xlink:href="a00338.html" target="_top" xlink:title="This is the typedef file for power controller.">
<polygon fill="white" stroke="#666666" points="230.75,-88 103.75,-88 103.75,-56 230.75,-56 230.75,-88"/>
<text text-anchor="start" x="111.75" y="-74.5" font-family="Helvetica,sans-Serif" font-size="10.00">../../../sources/devices</text>
<text text-anchor="middle" x="167.25" y="-62.5" font-family="Helvetica,sans-Serif" font-size="10.00">/dev_TPBLPFC_typedef.h</text>
</a>
</g>
</g>
<!-- Node1&#45;&gt;Node3 -->
<g id="edge2_Node000001_Node000003" class="edge">
<title>Node1&#45;&gt;Node3</title>
<g id="a_edge2_Node000001_Node000003"><a xlink:title=" ">
<path fill="none" stroke="#63b8ff" d="M143.04,-123.53C147.25,-114.73 151.52,-105.82 155.28,-97.99"/>
<polygon fill="#63b8ff" stroke="#63b8ff" points="158.86,-99.61 160.03,-89.08 152.55,-96.58 158.86,-99.61"/>
</a>
</g>
</g>
<!-- Node3&#45;&gt;Node2 -->
<g id="edge3_Node000003_Node000002" class="edge">
<title>Node3&#45;&gt;Node2</title>
<g id="a_edge3_Node000003_Node000002"><a xlink:title=" ">
<path fill="none" stroke="#63b8ff" d="M147.68,-55.55C136.57,-46.78 122.7,-35.83 111.48,-26.97"/>
<polygon fill="#63b8ff" stroke="#63b8ff" points="114.18,-23.86 104.17,-20.41 109.85,-29.35 114.18,-23.86"/>
</a>
</g>
</g>
<!-- Node4 -->
<g id="Node000004" class="node">
<title>Node4</title>
<g id="a_Node000004"><a xlink:title=" ">
<polygon fill="#e0e0e0" stroke="#999999" points="191.38,-20 143.12,-20 143.12,0 191.38,0 191.38,-20"/>
<text text-anchor="middle" x="167.25" y="-6.5" font-family="Helvetica,sans-Serif" font-size="10.00">stdint.h</text>
</a>
</g>
</g>
<!-- Node3&#45;&gt;Node4 -->
<g id="edge4_Node000003_Node000004" class="edge">
<title>Node3&#45;&gt;Node4</title>
<g id="a_edge4_Node000003_Node000004"><a xlink:title=" ">
<path fill="none" stroke="#63b8ff" d="M167.25,-55.55C167.25,-48.17 167.25,-39.24 167.25,-31.32"/>
<polygon fill="#63b8ff" stroke="#63b8ff" points="170.75,-31.41 167.25,-21.41 163.75,-31.41 170.75,-31.41"/>
</a>
</g>
</g>
</g>
</svg>
