<?xml version="1.0" encoding="UTF-8" standalone="no"?>
<!DOCTYPE svg PUBLIC "-//W3C//DTD SVG 1.1//EN"
 "http://www.w3.org/Graphics/SVG/1.1/DTD/svg11.dtd">
<!-- Generated by graphviz version 8.1.0 (20230707.0739)
 -->
<!-- Title: D:/Firmware/MCU16ASMPS_TestEnvironment/_deployment/dspic33ch&#45;power&#45;totem&#45;pole&#45;demonstration&#45;application&#45;single&#45;phase/dspic33ch_totem_pole_single_phase_secondary_IL.X/mcc_generated_files/uart/uart1.h Pages: 1 -->
<svg width="286pt" height="212pt"
 viewBox="0.00 0.00 286.12 212.00" xmlns="http://www.w3.org/2000/svg" xmlns:xlink="http://www.w3.org/1999/xlink">
<g id="graph0" class="graph" transform="scale(1 1) rotate(0) translate(4 208)">
<title>D:/Firmware/MCU16ASMPS_TestEnvironment/_deployment/dspic33ch&#45;power&#45;totem&#45;pole&#45;demonstration&#45;application&#45;single&#45;phase/dspic33ch_totem_pole_single_phase_secondary_IL.X/mcc_generated_files/uart/uart1.h</title>
<!-- Node1 -->
<g id="Node000001" class="node">
<title>Node1</title>
<g id="a_Node000001"><a xlink:title="This is the generated driver header file for the UART1 driver.">
<polygon fill="#999999" stroke="#666666" points="226.12,-204 37.62,-204 37.62,-112 226.12,-112 226.12,-204"/>
<text text-anchor="start" x="45.62" y="-190.5" font-family="Helvetica,sans-Serif" font-size="10.00">D:/Firmware/MCU16ASMPS</text>
<text text-anchor="start" x="45.62" y="-178.5" font-family="Helvetica,sans-Serif" font-size="10.00">_TestEnvironment/_deployment</text>
<text text-anchor="start" x="45.62" y="-166.5" font-family="Helvetica,sans-Serif" font-size="10.00">/dspic33ch&#45;power&#45;totem&#45;pole</text>
<text text-anchor="start" x="45.62" y="-154.5" font-family="Helvetica,sans-Serif" font-size="10.00">&#45;demonstration&#45;application&#45;single</text>
<text text-anchor="start" x="45.62" y="-142.5" font-family="Helvetica,sans-Serif" font-size="10.00">&#45;phase/dspic33ch_totem_pole_single</text>
<text text-anchor="start" x="45.62" y="-130.5" font-family="Helvetica,sans-Serif" font-size="10.00">_phase_secondary_IL.X/mcc_generated</text>
<text text-anchor="middle" x="131.88" y="-118.5" font-family="Helvetica,sans-Serif" font-size="10.00">_files/uart/uart1.h</text>
</a>
</g>
</g>
<!-- Node2 -->
<g id="Node000002" class="node">
<title>Node2</title>
<g id="a_Node000002"><a xlink:title=" ">
<polygon fill="#e0e0e0" stroke="#999999" points="55.75,-20 0,-20 0,0 55.75,0 55.75,-20"/>
<text text-anchor="middle" x="27.88" y="-6.5" font-family="Helvetica,sans-Serif" font-size="10.00">stdbool.h</text>
</a>
</g>
</g>
<!-- Node1&#45;&gt;Node2 -->
<g id="edge1_Node000001_Node000002" class="edge">
<title>Node1&#45;&gt;Node2</title>
<g id="a_edge1_Node000001_Node000002"><a xlink:title=" ">
<path fill="none" stroke="#63b8ff" d="M99.54,-111.61C79.76,-83.84 55.53,-49.82 40.92,-29.31"/>
<polygon fill="#63b8ff" stroke="#63b8ff" points="43.23,-27.52 34.58,-21.41 37.53,-31.58 43.23,-27.52"/>
</a>
</g>
</g>
<!-- Node3 -->
<g id="Node000003" class="node">
<title>Node3</title>
<g id="a_Node000003"><a xlink:title=" ">
<polygon fill="#e0e0e0" stroke="#999999" points="122,-20 73.75,-20 73.75,0 122,0 122,-20"/>
<text text-anchor="middle" x="97.88" y="-6.5" font-family="Helvetica,sans-Serif" font-size="10.00">stdint.h</text>
</a>
</g>
</g>
<!-- Node1&#45;&gt;Node3 -->
<g id="edge2_Node000001_Node000003" class="edge">
<title>Node1&#45;&gt;Node3</title>
<g id="a_edge2_Node000001_Node000003"><a xlink:title=" ">
<path fill="none" stroke="#63b8ff" d="M121.3,-111.61C115.01,-84.59 107.35,-51.67 102.54,-31.02"/>
<polygon fill="#63b8ff" stroke="#63b8ff" points="105.74,-30.35 100.07,-21.41 98.93,-31.94 105.74,-30.35"/>
</a>
</g>
</g>
<!-- Node4 -->
<g id="Node000004" class="node">
<title>Node4</title>
<g id="a_Node000004"><a xlink:title=" ">
<polygon fill="#e0e0e0" stroke="#999999" points="278.12,-20 227.62,-20 227.62,0 278.12,0 278.12,-20"/>
<text text-anchor="middle" x="252.88" y="-6.5" font-family="Helvetica,sans-Serif" font-size="10.00">stddef.h</text>
</a>
</g>
</g>
<!-- Node1&#45;&gt;Node4 -->
<g id="edge3_Node000001_Node000004" class="edge">
<title>Node1&#45;&gt;Node4</title>
<g id="a_edge3_Node000001_Node000004"><a xlink:title=" ">
<path fill="none" stroke="#63b8ff" d="M184.36,-111.8C195.77,-100.7 207.28,-88.42 216.88,-76 227.95,-61.66 237.71,-43.49 244.26,-30.01"/>
<polygon fill="#63b8ff" stroke="#63b8ff" points="247.71,-31.9 248.79,-21.36 241.37,-28.93 247.71,-31.9"/>
</a>
</g>
</g>
<!-- Node5 -->
<g id="Node000005" class="node">
<title>Node5</title>
<g id="a_Node000005"><a xlink:href="a00323_source.html" target="_top" xlink:title=" ">
<polygon fill="white" stroke="#666666" points="208.25,-76 125.5,-76 125.5,-56 208.25,-56 208.25,-76"/>
<text text-anchor="middle" x="166.88" y="-62.5" font-family="Helvetica,sans-Serif" font-size="10.00">uart_interface.h</text>
</a>
</g>
</g>
<!-- Node1&#45;&gt;Node5 -->
<g id="edge4_Node000001_Node000005" class="edge">
<title>Node1&#45;&gt;Node5</title>
<g id="a_edge4_Node000001_Node000005"><a xlink:title=" ">
<path fill="none" stroke="#63b8ff" d="M149.48,-111.74C152.96,-102.78 156.44,-93.84 159.36,-86.34"/>
<polygon fill="#63b8ff" stroke="#63b8ff" points="162.92,-87.81 163.29,-77.23 156.4,-85.28 162.92,-87.81"/>
</a>
</g>
</g>
<!-- Node5&#45;&gt;Node2 -->
<g id="edge5_Node000005_Node000002" class="edge">
<title>Node5&#45;&gt;Node2</title>
<g id="a_edge5_Node000005_Node000002"><a xlink:title=" ">
<path fill="none" stroke="#63b8ff" d="M142.66,-55.59C120.48,-46.97 87.38,-34.12 62.42,-24.42"/>
<polygon fill="#63b8ff" stroke="#63b8ff" points="63.86,-20.84 53.28,-20.48 61.33,-27.36 63.86,-20.84"/>
</a>
</g>
</g>
<!-- Node5&#45;&gt;Node3 -->
<g id="edge6_Node000005_Node000003" class="edge">
<title>Node5&#45;&gt;Node3</title>
<g id="a_edge6_Node000005_Node000003"><a xlink:title=" ">
<path fill="none" stroke="#63b8ff" d="M154.86,-55.59C144.76,-47.7 130.13,-36.24 118.21,-26.92"/>
<polygon fill="#63b8ff" stroke="#63b8ff" points="120.79,-23.71 110.76,-20.3 116.47,-29.22 120.79,-23.71"/>
</a>
</g>
</g>
<!-- Node5&#45;&gt;Node4 -->
<g id="edge7_Node000005_Node000004" class="edge">
<title>Node5&#45;&gt;Node4</title>
<g id="a_edge7_Node000005_Node000004"><a xlink:title=" ">
<path fill="none" stroke="#63b8ff" d="M181.86,-55.59C194.72,-47.51 213.52,-35.71 228.55,-26.27"/>
<polygon fill="#63b8ff" stroke="#63b8ff" points="230.17,-28.76 236.78,-20.48 226.45,-22.83 230.17,-28.76"/>
</a>
</g>
</g>
<!-- Node6 -->
<g id="Node000006" class="node">
<title>Node6</title>
<g id="a_Node000006"><a xlink:href="a00326.html" target="_top" xlink:title="This is the generated driver types header file for the UART driver.">
<polygon fill="white" stroke="#666666" points="209.88,-20 139.88,-20 139.88,0 209.88,0 209.88,-20"/>
<text text-anchor="middle" x="174.88" y="-6.5" font-family="Helvetica,sans-Serif" font-size="10.00">uart_types.h</text>
</a>
</g>
</g>
<!-- Node5&#45;&gt;Node6 -->
<g id="edge8_Node000005_Node000006" class="edge">
<title>Node5&#45;&gt;Node6</title>
<g id="a_edge8_Node000005_Node000006"><a xlink:title=" ">
<path fill="none" stroke="#63b8ff" d="M168.27,-55.59C169.27,-48.86 170.65,-39.53 171.89,-31.15"/>
<polygon fill="#63b8ff" stroke="#63b8ff" points="175.49,-31.7 173.5,-21.3 168.57,-30.68 175.49,-31.7"/>
</a>
</g>
</g>
</g>
</svg>
