<?xml version="1.0" encoding="UTF-8" standalone="no"?>
<!DOCTYPE svg PUBLIC "-//W3C//DTD SVG 1.1//EN"
 "http://www.w3.org/Graphics/SVG/1.1/DTD/svg11.dtd">
<!-- Generated by graphviz version 8.1.0 (20230707.0739)
 -->
<!-- Title: ADC1_ComparatorCallbackRegister Pages: 1 -->
<svg width="394pt" height="40pt"
 viewBox="0.00 0.00 393.50 40.00" xmlns="http://www.w3.org/2000/svg" xmlns:xlink="http://www.w3.org/1999/xlink">
<g id="graph0" class="graph" transform="scale(1 1) rotate(0) translate(4 36)">
<title>ADC1_ComparatorCallbackRegister</title>
<!-- Node1 -->
<g id="Node000001" class="node">
<title>Node1</title>
<g id="a_Node000001"><a xlink:title="This function can be used to override default callback and to define custom callback for ADC1_Compara...">
<polygon fill="#999999" stroke="#666666" points="385.5,-32 251,-32 251,0 385.5,0 385.5,-32"/>
<text text-anchor="start" x="259" y="-18.5" font-family="Helvetica,sans-Serif" font-size="10.00">ADC1_ComparatorCallback</text>
<text text-anchor="middle" x="318.25" y="-6.5" font-family="Helvetica,sans-Serif" font-size="10.00">Register</text>
</a>
</g>
</g>
<!-- Node2 -->
<g id="Node000002" class="node">
<title>Node2</title>
<g id="a_Node000002"><a xlink:href="a00398.html#gad272fc3ade4d66bfb9580444418b97ee" target="_top" xlink:title="Initializes ADC1 module, using the given initialization data This function must be called before any ...">
<polygon fill="white" stroke="#666666" points="215,-26 133,-26 133,-6 215,-6 215,-26"/>
<text text-anchor="middle" x="174" y="-12.5" font-family="Helvetica,sans-Serif" font-size="10.00">ADC1_Initialize</text>
</a>
</g>
</g>
<!-- Node1&#45;&gt;Node2 -->
<g id="edge1_Node000001_Node000002" class="edge">
<title>Node1&#45;&gt;Node2</title>
<g id="a_edge1_Node000001_Node000002"><a xlink:title=" ">
<path fill="none" stroke="#63b8ff" d="M239.88,-16C231.35,-16 222.94,-16 215.15,-16"/>
<polygon fill="#63b8ff" stroke="#63b8ff" points="239.71,-19.5 249.71,-16 239.71,-12.5 239.71,-19.5"/>
</a>
</g>
</g>
<!-- Node3 -->
<g id="Node000003" class="node">
<title>Node3</title>
<g id="a_Node000003"><a xlink:href="a00406.html#ga5e8391114a0cf91ac20002be25e3d352" target="_top" xlink:title="Initializes the System module.">
<polygon fill="white" stroke="#666666" points="97,-26 0,-26 0,-6 97,-6 97,-26"/>
<text text-anchor="middle" x="48.5" y="-12.5" font-family="Helvetica,sans-Serif" font-size="10.00">SYSTEM_Initialize</text>
</a>
</g>
</g>
<!-- Node2&#45;&gt;Node3 -->
<g id="edge2_Node000002_Node000003" class="edge">
<title>Node2&#45;&gt;Node3</title>
<g id="a_edge2_Node000002_Node000003"><a xlink:title=" ">
<path fill="none" stroke="#63b8ff" d="M121.75,-16C113.67,-16 105.34,-16 97.34,-16"/>
<polygon fill="#63b8ff" stroke="#63b8ff" points="121.56,-19.5 131.56,-16 121.56,-12.5 121.56,-19.5"/>
</a>
</g>
</g>
</g>
</svg>
