<?xml version="1.0" encoding="UTF-8" standalone="no"?>
<!DOCTYPE svg PUBLIC "-//W3C//DTD SVG 1.1//EN"
 "http://www.w3.org/Graphics/SVG/1.1/DTD/svg11.dtd">
<!-- Generated by graphviz version 2.44.1 (20200629.0846)
 -->
<!-- Title: Application_handler_PH1 Pages: 1 -->
<svg width="625pt" height="422pt"
 viewBox="0.00 0.00 625.00 421.94" xmlns="http://www.w3.org/2000/svg" xmlns:xlink="http://www.w3.org/1999/xlink">
<g id="graph0" class="graph" transform="scale(1 1) rotate(0) translate(4 417.94)">
<title>Application_handler_PH1</title>
<!-- Node1 -->
<g id="Node000001" class="node">
<title>Node1</title>
<g id="a_Node000001"><a xlink:title=" ">
<polygon fill="#999999" stroke="#666666" points="125,-228.94 0,-228.94 0,-209.94 125,-209.94 125,-228.94"/>
<text text-anchor="middle" x="62.5" y="-216.94" font-family="Helvetica,sans-Serif" font-size="10.00">Application_handler_PH1</text>
</a>
</g>
</g>
<!-- Node2 -->
<g id="Node000002" class="node">
<title>Node2</title>
<g id="a_Node000002"><a xlink:href="a00371.html#a647fd6dacbfbcebe49cc34111a01493b" target="_top" xlink:title=" ">
<polygon fill="white" stroke="#666666" points="239.5,-228.94 165.5,-228.94 165.5,-209.94 239.5,-209.94 239.5,-228.94"/>
<text text-anchor="middle" x="202.5" y="-216.94" font-family="Helvetica,sans-Serif" font-size="10.00">Handler_PHx</text>
</a>
</g>
</g>
<!-- Node1&#45;&gt;Node2 -->
<g id="edge1_Node000001_Node000002" class="edge">
<title>Node1&#45;&gt;Node2</title>
<g id="a_edge1_Node000001_Node000002"><a xlink:title=" ">
<path fill="none" stroke="#63b8ff" d="M125.23,-219.44C135.25,-219.44 145.47,-219.44 155.04,-219.44"/>
<polygon fill="#63b8ff" stroke="#63b8ff" points="155.13,-222.94 165.13,-219.44 155.13,-215.94 155.13,-222.94"/>
</a>
</g>
</g>
<!-- Node17 -->
<g id="Node000017" class="node">
<title>Node17</title>
<g id="a_Node000017"><a xlink:href="a00371.html#a3c1c3278a759d0a53b473f7ee8786d12" target="_top" xlink:title="Vout dV/dT check.">
<polygon fill="white" stroke="#666666" points="423.5,-413.94 303.5,-413.94 303.5,-394.94 423.5,-394.94 423.5,-413.94"/>
<text text-anchor="middle" x="363.5" y="-401.94" font-family="Helvetica,sans-Serif" font-size="10.00">VOUT_HystereticCheck</text>
</a>
</g>
</g>
<!-- Node1&#45;&gt;Node17 -->
<g id="edge31_Node000001_Node000017" class="edge">
<title>Node1&#45;&gt;Node17</title>
<g id="a_edge31_Node000001_Node000017"><a xlink:title=" ">
<path fill="none" stroke="#63b8ff" d="M72.84,-229.07C101.14,-257.7 189.59,-342.85 280,-385.44 285.28,-387.93 290.91,-390.1 296.65,-392"/>
<polygon fill="#63b8ff" stroke="#63b8ff" points="295.79,-395.39 306.38,-394.93 297.81,-388.69 295.79,-395.39"/>
</a>
</g>
</g>
<!-- Node18 -->
<g id="Node000018" class="node">
<title>Node18</title>
<g id="a_Node000018"><a xlink:href="a00371.html#a88d1001937f9c64e4327a9828fc17b45" target="_top" xlink:title="average voltage calculation of Vout">
<polygon fill="white" stroke="#666666" points="244,-191.94 161,-191.94 161,-172.94 244,-172.94 244,-191.94"/>
<text text-anchor="middle" x="202.5" y="-179.94" font-family="Helvetica,sans-Serif" font-size="10.00">VOUTaveraging</text>
</a>
</g>
</g>
<!-- Node1&#45;&gt;Node18 -->
<g id="edge34_Node000001_Node000018" class="edge">
<title>Node1&#45;&gt;Node18</title>
<g id="a_edge34_Node000001_Node000018"><a xlink:title=" ">
<path fill="none" stroke="#63b8ff" d="M99.04,-209.91C116.37,-205.26 137.41,-199.62 155.91,-194.66"/>
<polygon fill="#63b8ff" stroke="#63b8ff" points="156.85,-198.03 165.6,-192.06 155.04,-191.27 156.85,-198.03"/>
</a>
</g>
</g>
<!-- Node3 -->
<g id="Node000003" class="node">
<title>Node3</title>
<g id="a_Node000003"><a xlink:href="a00371.html#af6c4a58221bd490ef4d2084547601a10" target="_top" xlink:title=" ">
<polygon fill="white" stroke="#666666" points="441,-228.94 286,-228.94 286,-209.94 441,-209.94 441,-228.94"/>
<text text-anchor="middle" x="363.5" y="-216.94" font-family="Helvetica,sans-Serif" font-size="10.00">Adaptive_Currentcontroller_Gain</text>
</a>
</g>
</g>
<!-- Node2&#45;&gt;Node3 -->
<g id="edge2_Node000002_Node000003" class="edge">
<title>Node2&#45;&gt;Node3</title>
<g id="a_edge2_Node000002_Node000003"><a xlink:title=" ">
<path fill="none" stroke="#63b8ff" d="M239.58,-219.44C250.5,-219.44 262.99,-219.44 275.73,-219.44"/>
<polygon fill="#63b8ff" stroke="#63b8ff" points="275.98,-222.94 285.98,-219.44 275.98,-215.94 275.98,-222.94"/>
</a>
</g>
</g>
<!-- Node4 -->
<g id="Node000004" class="node">
<title>Node4</title>
<g id="a_Node000004"><a xlink:href="a00371.html#a51a90512029dd0d15f013ea8548c5e7c" target="_top" xlink:title=" ">
<polygon fill="white" stroke="#666666" points="407.5,-376.94 319.5,-376.94 319.5,-357.94 407.5,-357.94 407.5,-376.94"/>
<text text-anchor="middle" x="363.5" y="-364.94" font-family="Helvetica,sans-Serif" font-size="10.00">BurstMode_PHx</text>
</a>
</g>
</g>
<!-- Node2&#45;&gt;Node4 -->
<g id="edge3_Node000002_Node000004" class="edge">
<title>Node2&#45;&gt;Node4</title>
<g id="a_edge3_Node000002_Node000004"><a xlink:title=" ">
<path fill="none" stroke="#63b8ff" d="M206.27,-229.01C213.77,-253.17 236.9,-316.95 280,-348.44 288.63,-354.75 299.02,-359 309.47,-361.87"/>
<polygon fill="#63b8ff" stroke="#63b8ff" points="308.92,-365.33 319.46,-364.2 310.52,-358.52 308.92,-365.33"/>
</a>
</g>
</g>
<!-- Node7 -->
<g id="Node000007" class="node">
<title>Node7</title>
<g id="a_Node000007"><a xlink:href="a00371.html#a69847930c99b34bceb7165143cd28b92" target="_top" xlink:title=" ">
<polygon fill="white" stroke="#666666" points="394.5,-191.94 332.5,-191.94 332.5,-172.94 394.5,-172.94 394.5,-191.94"/>
<text text-anchor="middle" x="363.5" y="-179.94" font-family="Helvetica,sans-Serif" font-size="10.00">CCM_PHx</text>
</a>
</g>
</g>
<!-- Node2&#45;&gt;Node7 -->
<g id="edge6_Node000002_Node000007" class="edge">
<title>Node2&#45;&gt;Node7</title>
<g id="a_edge6_Node000002_Node000007"><a xlink:title=" ">
<path fill="none" stroke="#63b8ff" d="M239.64,-210.24C252.38,-207.05 266.81,-203.52 280,-200.44 293.77,-197.23 308.87,-193.88 322.34,-190.96"/>
<polygon fill="#63b8ff" stroke="#63b8ff" points="323.24,-194.34 332.28,-188.81 321.77,-187.5 323.24,-194.34"/>
</a>
</g>
</g>
<!-- Node10 -->
<g id="Node000010" class="node">
<title>Node10</title>
<g id="a_Node000010"><a xlink:href="a00371.html#a02e735cc5f9ec0075b4b0157326fd3db" target="_top" xlink:title=" ">
<polygon fill="white" stroke="#666666" points="434.5,-339.94 292.5,-339.94 292.5,-320.94 434.5,-320.94 434.5,-339.94"/>
<text text-anchor="middle" x="363.5" y="-327.94" font-family="Helvetica,sans-Serif" font-size="10.00">DutyCycleFeedForward_PHx</text>
</a>
</g>
</g>
<!-- Node2&#45;&gt;Node10 -->
<g id="edge11_Node000002_Node000010" class="edge">
<title>Node2&#45;&gt;Node10</title>
<g id="a_edge11_Node000002_Node000010"><a xlink:title=" ">
<path fill="none" stroke="#63b8ff" d="M208.58,-229C219.17,-247.94 245.5,-290.21 280,-311.44 283.42,-313.54 287.06,-315.42 290.81,-317.08"/>
<polygon fill="#63b8ff" stroke="#63b8ff" points="289.78,-320.44 300.37,-320.81 292.33,-313.92 289.78,-320.44"/>
</a>
</g>
</g>
<!-- Node11 -->
<g id="Node000011" class="node">
<title>Node11</title>
<g id="a_Node000011"><a xlink:href="a00407.html#ga37968a783e44cd80643478d2b559dbf4" target="_top" xlink:title="This inline function sets the PWM generator specific duty cycle register.">
<polygon fill="white" stroke="#666666" points="603.5,-53.94 496.5,-53.94 496.5,-34.94 603.5,-34.94 603.5,-53.94"/>
<text text-anchor="middle" x="550" y="-41.94" font-family="Helvetica,sans-Serif" font-size="10.00">PWM_DutyCycleSet</text>
</a>
</g>
</g>
<!-- Node2&#45;&gt;Node11 -->
<g id="edge12_Node000002_Node000011" class="edge">
<title>Node2&#45;&gt;Node11</title>
<g id="a_edge12_Node000002_Node000011"><a xlink:title=" ">
<path fill="none" stroke="#63b8ff" d="M232.87,-209.74C237.09,-207.27 241.01,-204.21 244,-200.44 291.98,-139.92 220,-79.06 280,-30.44 349.09,25.55 463.97,-9.36 518.49,-31.03"/>
<polygon fill="#63b8ff" stroke="#63b8ff" points="517.36,-34.35 527.94,-34.89 520.01,-27.87 517.36,-34.35"/>
</a>
</g>
</g>
<!-- Node12 -->
<g id="Node000012" class="node">
<title>Node12</title>
<g id="a_Node000012"><a xlink:href="a00380.html#ac4c8852561395f2969c08ff062325e03" target="_top" xlink:title=" ">
<polygon fill="white" stroke="#666666" points="436,-302.94 291,-302.94 291,-283.94 436,-283.94 436,-302.94"/>
<text text-anchor="middle" x="363.5" y="-290.94" font-family="Helvetica,sans-Serif" font-size="10.00">SMPS_Controller2P2ZUpdate</text>
</a>
</g>
</g>
<!-- Node2&#45;&gt;Node12 -->
<g id="edge13_Node000002_Node000012" class="edge">
<title>Node2&#45;&gt;Node12</title>
<g id="a_edge13_Node000002_Node000012"><a xlink:title=" ">
<path fill="none" stroke="#63b8ff" d="M214.04,-229.14C228.05,-241.51 254.07,-262.71 280,-274.44 285.4,-276.88 291.16,-279.03 297.01,-280.91"/>
<polygon fill="#63b8ff" stroke="#63b8ff" points="296.33,-284.36 306.92,-283.83 298.31,-277.65 296.33,-284.36"/>
</a>
</g>
</g>
<!-- Node13 -->
<g id="Node000013" class="node">
<title>Node13</title>
<g id="a_Node000013"><a xlink:href="a00371.html#ad3476b7cd98e6a22a65e1d89b7a59ea5" target="_top" xlink:title=" ">
<polygon fill="white" stroke="#666666" points="418.5,-69.44 308.5,-69.44 308.5,-39.44 418.5,-39.44 418.5,-69.44"/>
<text text-anchor="start" x="316.5" y="-57.44" font-family="Helvetica,sans-Serif" font-size="10.00">SoftstartAfterZC_PHx</text>
<text text-anchor="middle" x="363.5" y="-46.44" font-family="Helvetica,sans-Serif" font-size="10.00">_GTIMode</text>
</a>
</g>
</g>
<!-- Node2&#45;&gt;Node13 -->
<g id="edge14_Node000002_Node000013" class="edge">
<title>Node2&#45;&gt;Node13</title>
<g id="a_edge14_Node000002_Node000013"><a xlink:title=" ">
<path fill="none" stroke="#63b8ff" d="M232.21,-209.77C236.61,-207.28 240.76,-204.21 244,-200.44 280.83,-157.55 239.95,-118.34 280,-78.44 285.3,-73.15 291.7,-69.02 298.55,-65.79"/>
<polygon fill="#63b8ff" stroke="#63b8ff" points="300.17,-68.91 308.13,-61.92 297.54,-62.42 300.17,-68.91"/>
</a>
</g>
</g>
<!-- Node14 -->
<g id="Node000014" class="node">
<title>Node14</title>
<g id="a_Node000014"><a xlink:href="a00371.html#a3e7091905b384bca668f6f12a50834f4" target="_top" xlink:title=" ">
<polygon fill="white" stroke="#666666" points="418.5,-117.44 308.5,-117.44 308.5,-87.44 418.5,-87.44 418.5,-117.44"/>
<text text-anchor="start" x="316.5" y="-105.44" font-family="Helvetica,sans-Serif" font-size="10.00">SoftstartAfterZC_PHx</text>
<text text-anchor="middle" x="363.5" y="-94.44" font-family="Helvetica,sans-Serif" font-size="10.00">_PFCMode</text>
</a>
</g>
</g>
<!-- Node2&#45;&gt;Node14 -->
<g id="edge20_Node000002_Node000014" class="edge">
<title>Node2&#45;&gt;Node14</title>
<g id="a_edge20_Node000002_Node000014"><a xlink:title=" ">
<path fill="none" stroke="#63b8ff" d="M230.86,-209.75C235.62,-207.22 240.24,-204.15 244,-200.44 270.04,-174.76 252.04,-150.02 280,-126.44 285.57,-121.74 292.01,-117.97 298.79,-114.93"/>
<polygon fill="#63b8ff" stroke="#63b8ff" points="300.18,-118.15 308.2,-111.23 297.62,-111.63 300.18,-118.15"/>
</a>
</g>
</g>
<!-- Node15 -->
<g id="Node000015" class="node">
<title>Node15</title>
<g id="a_Node000015"><a xlink:href="a00380.html#a4fd6e889896907ceaae34b73435d5627" target="_top" xlink:title=" ">
<polygon fill="white" stroke="#666666" points="447,-265.94 280,-265.94 280,-246.94 447,-246.94 447,-265.94"/>
<text text-anchor="middle" x="363.5" y="-253.94" font-family="Helvetica,sans-Serif" font-size="10.00">XFT_SMPS_Controller2P2ZUpdate</text>
</a>
</g>
</g>
<!-- Node2&#45;&gt;Node15 -->
<g id="edge26_Node000002_Node000015" class="edge">
<title>Node2&#45;&gt;Node15</title>
<g id="a_edge26_Node000002_Node000015"><a xlink:title=" ">
<path fill="none" stroke="#63b8ff" d="M239.68,-227.99C252.42,-230.99 266.84,-234.38 280,-237.44 289.98,-239.76 300.65,-242.23 310.89,-244.59"/>
<polygon fill="#63b8ff" stroke="#63b8ff" points="310.41,-248.07 320.94,-246.91 311.99,-241.25 310.41,-248.07"/>
</a>
</g>
</g>
<!-- Node16 -->
<g id="Node000016" class="node">
<title>Node16</title>
<g id="a_Node000016"><a xlink:href="a00371.html#a9d01eea56aae5f1437eb541a321277cc" target="_top" xlink:title=" ">
<polygon fill="white" stroke="#666666" points="406,-154.94 321,-154.94 321,-135.94 406,-135.94 406,-154.94"/>
<text text-anchor="middle" x="363.5" y="-142.94" font-family="Helvetica,sans-Serif" font-size="10.00">ZeroCross_PHx</text>
</a>
</g>
</g>
<!-- Node2&#45;&gt;Node16 -->
<g id="edge27_Node000002_Node000016" class="edge">
<title>Node2&#45;&gt;Node16</title>
<g id="a_edge27_Node000002_Node000016"><a xlink:title=" ">
<path fill="none" stroke="#63b8ff" d="M227.86,-209.75C233.38,-207.09 239.07,-203.95 244,-200.44 262.69,-187.13 259.94,-174.58 280,-163.44 289.42,-158.21 300.23,-154.49 310.86,-151.86"/>
<polygon fill="#63b8ff" stroke="#63b8ff" points="311.92,-155.21 320.94,-149.65 310.43,-148.37 311.92,-155.21"/>
</a>
</g>
</g>
<!-- Node5 -->
<g id="Node000005" class="node">
<title>Node5</title>
<g id="a_Node000005"><a xlink:href="a00407.html#ga531b59d8823e3ebda2da60f48582bcf3" target="_top" xlink:title="This inline function enables PWM override on PWMH output for specific PWM generator selected by the a...">
<polygon fill="white" stroke="#666666" points="615.5,-164.94 484.5,-164.94 484.5,-145.94 615.5,-145.94 615.5,-164.94"/>
<text text-anchor="middle" x="550" y="-152.94" font-family="Helvetica,sans-Serif" font-size="10.00">PWM_OverrideHighEnable</text>
</a>
</g>
</g>
<!-- Node4&#45;&gt;Node5 -->
<g id="edge4_Node000004_Node000005" class="edge">
<title>Node4&#45;&gt;Node5</title>
<g id="a_edge4_Node000004_Node000005"><a xlink:title=" ">
<path fill="none" stroke="#63b8ff" d="M407.63,-366.58C421.89,-364.15 436.73,-358.95 447,-348.44 502.49,-291.63 428.66,-231.34 483,-173.44 483.79,-172.59 484.62,-171.79 485.48,-171.02"/>
<polygon fill="#63b8ff" stroke="#63b8ff" points="487.81,-173.66 493.96,-165.03 483.77,-167.94 487.81,-173.66"/>
</a>
</g>
</g>
<!-- Node6 -->
<g id="Node000006" class="node">
<title>Node6</title>
<g id="a_Node000006"><a xlink:href="a00407.html#ga2548ca8feda75ba6ab784280679da6ae" target="_top" xlink:title="This inline function enables PWM override on PWML output for specific PWM generator selected by the a...">
<polygon fill="white" stroke="#666666" points="614.5,-201.94 485.5,-201.94 485.5,-182.94 614.5,-182.94 614.5,-201.94"/>
<text text-anchor="middle" x="550" y="-189.94" font-family="Helvetica,sans-Serif" font-size="10.00">PWM_OverrideLowEnable</text>
</a>
</g>
</g>
<!-- Node4&#45;&gt;Node6 -->
<g id="edge5_Node000004_Node000006" class="edge">
<title>Node4&#45;&gt;Node6</title>
<g id="a_edge5_Node000004_Node000006"><a xlink:title=" ">
<path fill="none" stroke="#63b8ff" d="M407.76,-363.82C421.23,-361.1 435.55,-356.43 447,-348.44 497.29,-313.36 529.02,-244.74 542.11,-211.45"/>
<polygon fill="#63b8ff" stroke="#63b8ff" points="545.43,-212.56 545.7,-201.97 538.88,-210.08 545.43,-212.56"/>
</a>
</g>
</g>
<!-- Node7&#45;&gt;Node5 -->
<g id="edge8_Node000007_Node000005" class="edge">
<title>Node7&#45;&gt;Node5</title>
<g id="a_edge8_Node000007_Node000005"><a xlink:title=" ">
<path fill="none" stroke="#63b8ff" d="M394.55,-178.04C416.11,-174.89 446.14,-170.49 473.99,-166.41"/>
<polygon fill="#63b8ff" stroke="#63b8ff" points="474.75,-169.84 484.14,-164.93 473.74,-162.91 474.75,-169.84"/>
</a>
</g>
</g>
<!-- Node7&#45;&gt;Node6 -->
<g id="edge10_Node000007_Node000006" class="edge">
<title>Node7&#45;&gt;Node6</title>
<g id="a_edge10_Node000007_Node000006"><a xlink:title=" ">
<path fill="none" stroke="#63b8ff" d="M394.55,-184.07C416.38,-185.25 446.9,-186.9 475.05,-188.43"/>
<polygon fill="#63b8ff" stroke="#63b8ff" points="475.12,-191.94 485.3,-188.99 475.5,-184.95 475.12,-191.94"/>
</a>
</g>
</g>
<!-- Node8 -->
<g id="Node000008" class="node">
<title>Node8</title>
<g id="a_Node000008"><a xlink:href="a00407.html#ga957b002605bfb2239a26f174808b2ad8" target="_top" xlink:title="This inline function disables PWM override on PWMH output for specific PWM generator selected by the ...">
<polygon fill="white" stroke="#666666" points="617,-90.94 483,-90.94 483,-71.94 617,-71.94 617,-90.94"/>
<text text-anchor="middle" x="550" y="-78.94" font-family="Helvetica,sans-Serif" font-size="10.00">PWM_OverrideHighDisable</text>
</a>
</g>
</g>
<!-- Node7&#45;&gt;Node8 -->
<g id="edge7_Node000007_Node000008" class="edge">
<title>Node7&#45;&gt;Node8</title>
<g id="a_edge7_Node000007_Node000008"><a xlink:title=" ">
<path fill="none" stroke="#63b8ff" d="M394.85,-181.35C411.63,-179.38 432.05,-174.62 447,-163.44 473.13,-143.89 457.26,-119.51 483,-99.44 484.79,-98.04 486.68,-96.76 488.64,-95.57"/>
<polygon fill="#63b8ff" stroke="#63b8ff" points="490.34,-98.63 497.66,-90.98 487.16,-92.4 490.34,-98.63"/>
</a>
</g>
</g>
<!-- Node9 -->
<g id="Node000009" class="node">
<title>Node9</title>
<g id="a_Node000009"><a xlink:href="a00407.html#gabbedef830c43428e96c7d5125662a8a6" target="_top" xlink:title="This inline function disables PWM override on PWML output for specific PWM generator selected by the ...">
<polygon fill="white" stroke="#666666" points="615.5,-127.94 484.5,-127.94 484.5,-108.94 615.5,-108.94 615.5,-127.94"/>
<text text-anchor="middle" x="550" y="-115.94" font-family="Helvetica,sans-Serif" font-size="10.00">PWM_OverrideLowDisable</text>
</a>
</g>
</g>
<!-- Node7&#45;&gt;Node9 -->
<g id="edge9_Node000007_Node000009" class="edge">
<title>Node7&#45;&gt;Node9</title>
<g id="a_edge9_Node000007_Node000009"><a xlink:title=" ">
<path fill="none" stroke="#63b8ff" d="M394.89,-178.55C410.92,-175.74 430.6,-171.06 447,-163.44 465.14,-155.01 465.03,-145.23 483,-136.44 486.84,-134.56 490.91,-132.85 495.06,-131.31"/>
<polygon fill="#63b8ff" stroke="#63b8ff" points="496.49,-134.52 504.84,-127.99 494.24,-127.89 496.49,-134.52"/>
</a>
</g>
</g>
<!-- Node13&#45;&gt;Node5 -->
<g id="edge17_Node000013_Node000005" class="edge">
<title>Node13&#45;&gt;Node5</title>
<g id="a_edge17_Node000013_Node000005"><a xlink:title=" ">
<path fill="none" stroke="#63b8ff" d="M418.7,-64.04C428.75,-67.47 438.68,-72.13 447,-78.44 471.17,-96.78 458.81,-118.13 483,-136.44 485.49,-138.32 488.15,-140.02 490.94,-141.54"/>
<polygon fill="#63b8ff" stroke="#63b8ff" points="489.62,-144.79 500.16,-145.88 492.6,-138.46 489.62,-144.79"/>
</a>
</g>
</g>
<!-- Node13&#45;&gt;Node6 -->
<g id="edge19_Node000013_Node000006" class="edge">
<title>Node13&#45;&gt;Node6</title>
<g id="a_edge19_Node000013_Node000006"><a xlink:title=" ">
<path fill="none" stroke="#63b8ff" d="M418.87,-62.52C429.13,-66.06 439.11,-71.15 447,-78.44 480.17,-109.08 449.79,-142.85 483,-173.44 484.71,-175.01 486.54,-176.46 488.47,-177.79"/>
<polygon fill="#63b8ff" stroke="#63b8ff" points="487,-180.98 497.43,-182.87 490.46,-174.89 487,-180.98"/>
</a>
</g>
</g>
<!-- Node13&#45;&gt;Node8 -->
<g id="edge16_Node000013_Node000008" class="edge">
<title>Node13&#45;&gt;Node8</title>
<g id="a_edge16_Node000013_Node000008"><a xlink:title=" ">
<path fill="none" stroke="#63b8ff" d="M418.86,-62.39C436.08,-64.91 455.43,-67.74 473.84,-70.44"/>
<polygon fill="#63b8ff" stroke="#63b8ff" points="473.55,-73.93 483.95,-71.92 474.56,-67.01 473.55,-73.93"/>
</a>
</g>
</g>
<!-- Node13&#45;&gt;Node9 -->
<g id="edge18_Node000013_Node000009" class="edge">
<title>Node13&#45;&gt;Node9</title>
<g id="a_edge18_Node000013_Node000009"><a xlink:title=" ">
<path fill="none" stroke="#63b8ff" d="M418.87,-68.19C428.39,-71.18 438.09,-74.61 447,-78.44 464.02,-85.75 465.97,-92.15 483,-99.44 488.41,-101.75 494.18,-103.88 499.98,-105.81"/>
<polygon fill="#63b8ff" stroke="#63b8ff" points="499.11,-109.2 509.7,-108.86 501.21,-102.52 499.11,-109.2"/>
</a>
</g>
</g>
<!-- Node13&#45;&gt;Node11 -->
<g id="edge15_Node000013_Node000011" class="edge">
<title>Node13&#45;&gt;Node11</title>
<g id="a_edge15_Node000013_Node000011"><a xlink:title=" ">
<path fill="none" stroke="#63b8ff" d="M418.86,-51.49C439.96,-50.35 464.27,-49.03 486.12,-47.85"/>
<polygon fill="#63b8ff" stroke="#63b8ff" points="486.5,-51.33 496.3,-47.29 486.12,-44.34 486.5,-51.33"/>
</a>
</g>
</g>
<!-- Node14&#45;&gt;Node5 -->
<g id="edge23_Node000014_Node000005" class="edge">
<title>Node14&#45;&gt;Node5</title>
<g id="a_edge23_Node000014_Node000005"><a xlink:title=" ">
<path fill="none" stroke="#63b8ff" d="M416.88,-117.48C445.03,-125.57 479.31,-135.42 505.9,-143.06"/>
<polygon fill="#63b8ff" stroke="#63b8ff" points="505.11,-146.47 515.69,-145.87 507.04,-139.74 505.11,-146.47"/>
</a>
</g>
</g>
<!-- Node14&#45;&gt;Node6 -->
<g id="edge25_Node000014_Node000006" class="edge">
<title>Node14&#45;&gt;Node6</title>
<g id="a_edge25_Node000014_Node000006"><a xlink:title=" ">
<path fill="none" stroke="#63b8ff" d="M418.65,-112.84C428.6,-116.2 438.51,-120.63 447,-126.44 468.71,-141.3 461.26,-158.61 483,-173.44 485.95,-175.45 489.1,-177.25 492.38,-178.86"/>
<polygon fill="#63b8ff" stroke="#63b8ff" points="491.31,-182.21 501.88,-182.92 494.06,-175.77 491.31,-182.21"/>
</a>
</g>
</g>
<!-- Node14&#45;&gt;Node8 -->
<g id="edge22_Node000014_Node000008" class="edge">
<title>Node14&#45;&gt;Node8</title>
<g id="a_edge22_Node000014_Node000008"><a xlink:title=" ">
<path fill="none" stroke="#63b8ff" d="M418.86,-96.25C435.81,-94.32 454.83,-92.16 472.98,-90.09"/>
<polygon fill="#63b8ff" stroke="#63b8ff" points="473.41,-93.56 482.95,-88.96 472.62,-86.61 473.41,-93.56"/>
</a>
</g>
</g>
<!-- Node14&#45;&gt;Node9 -->
<g id="edge24_Node000014_Node000009" class="edge">
<title>Node14&#45;&gt;Node9</title>
<g id="a_edge24_Node000014_Node000009"><a xlink:title=" ">
<path fill="none" stroke="#63b8ff" d="M418.86,-107.15C436.17,-108.65 455.63,-110.34 474.13,-111.95"/>
<polygon fill="#63b8ff" stroke="#63b8ff" points="474.02,-115.45 484.28,-112.83 474.62,-108.48 474.02,-115.45"/>
</a>
</g>
</g>
<!-- Node14&#45;&gt;Node11 -->
<g id="edge21_Node000014_Node000011" class="edge">
<title>Node14&#45;&gt;Node11</title>
<g id="a_edge21_Node000014_Node000011"><a xlink:title=" ">
<path fill="none" stroke="#63b8ff" d="M418.54,-87.86C428.09,-84.96 437.89,-81.77 447,-78.44 463.44,-72.42 466.51,-68.31 483,-62.44 488.52,-60.47 494.36,-58.6 500.2,-56.85"/>
<polygon fill="#63b8ff" stroke="#63b8ff" points="501.32,-60.17 509.96,-54.03 499.38,-53.44 501.32,-60.17"/>
</a>
</g>
</g>
<!-- Node16&#45;&gt;Node5 -->
<g id="edge29_Node000016_Node000005" class="edge">
<title>Node16&#45;&gt;Node5</title>
<g id="a_edge29_Node000016_Node000005"><a xlink:title=" ">
<path fill="none" stroke="#63b8ff" d="M406.37,-147.71C426.46,-148.8 451.16,-150.14 474.33,-151.39"/>
<polygon fill="#63b8ff" stroke="#63b8ff" points="474.31,-154.9 484.49,-151.94 474.69,-147.91 474.31,-154.9"/>
</a>
</g>
</g>
<!-- Node16&#45;&gt;Node6 -->
<g id="edge30_Node000016_Node000006" class="edge">
<title>Node16&#45;&gt;Node6</title>
<g id="a_edge30_Node000016_Node000006"><a xlink:title=" ">
<path fill="none" stroke="#63b8ff" d="M406.16,-154C419.27,-156.84 433.78,-160.12 447,-163.44 453.01,-164.95 480.91,-172.89 506.01,-180.08"/>
<polygon fill="#63b8ff" stroke="#63b8ff" points="505.22,-183.5 515.8,-182.89 507.15,-176.77 505.22,-183.5"/>
</a>
</g>
</g>
<!-- Node16&#45;&gt;Node11 -->
<g id="edge28_Node000016_Node000011" class="edge">
<title>Node16&#45;&gt;Node11</title>
<g id="a_edge28_Node000016_Node000011"><a xlink:title=" ">
<path fill="none" stroke="#63b8ff" d="M406.38,-142.6C420.37,-139.97 435.35,-135.16 447,-126.44 473.13,-106.89 457.26,-82.51 483,-62.44 484.79,-61.04 486.68,-59.76 488.64,-58.57"/>
<polygon fill="#63b8ff" stroke="#63b8ff" points="490.34,-61.63 497.66,-53.98 487.16,-55.4 490.34,-61.63"/>
</a>
</g>
</g>
<!-- Node17&#45;&gt;Node5 -->
<g id="edge32_Node000017_Node000005" class="edge">
<title>Node17&#45;&gt;Node5</title>
<g id="a_edge32_Node000017_Node000005"><a xlink:title=" ">
<path fill="none" stroke="#63b8ff" d="M423.63,-399.81C432.42,-396.74 440.65,-392.17 447,-385.44 512.59,-315.92 418.81,-244.25 483,-173.44 483.76,-172.6 484.55,-171.8 485.37,-171.04"/>
<polygon fill="#63b8ff" stroke="#63b8ff" points="487.51,-173.81 493.53,-165.09 483.38,-168.16 487.51,-173.81"/>
</a>
</g>
</g>
<!-- Node17&#45;&gt;Node6 -->
<g id="edge33_Node000017_Node000006" class="edge">
<title>Node17&#45;&gt;Node6</title>
<g id="a_edge33_Node000017_Node000006"><a xlink:title=" ">
<path fill="none" stroke="#63b8ff" d="M423.66,-397.39C432.04,-394.58 440.13,-390.72 447,-385.44 505.77,-340.25 534.28,-251.44 544.46,-212.05"/>
<polygon fill="#63b8ff" stroke="#63b8ff" points="547.86,-212.87 546.86,-202.33 541.07,-211.2 547.86,-212.87"/>
</a>
</g>
</g>
</g>
</svg>
