<?xml version="1.0" encoding="UTF-8" standalone="no"?>
<!DOCTYPE svg PUBLIC "-//W3C//DTD SVG 1.1//EN"
 "http://www.w3.org/Graphics/SVG/1.1/DTD/svg11.dtd">
<!-- Generated by graphviz version 8.1.0 (20230707.0739)
 -->
<!-- Title: CAN1_ReceiveMessageGet Pages: 1 -->
<svg width="514pt" height="230pt"
 viewBox="0.00 0.00 514.25 230.00" xmlns="http://www.w3.org/2000/svg" xmlns:xlink="http://www.w3.org/1999/xlink">
<g id="graph0" class="graph" transform="scale(1 1) rotate(0) translate(4 226)">
<title>CAN1_ReceiveMessageGet</title>
<!-- Node1 -->
<g id="Node000001" class="node">
<title>Node1</title>
<g id="a_Node000001"><a xlink:title="Reads the received single message object from the CAN1 receive FIFO.">
<polygon fill="#999999" stroke="#666666" points="136,-124 0,-124 0,-104 136,-104 136,-124"/>
<text text-anchor="middle" x="68" y="-110.5" font-family="Helvetica,sans-Serif" font-size="10.00">CAN1_ReceiveMessageGet</text>
</a>
</g>
</g>
<!-- Node2 -->
<g id="Node000002" class="node">
<title>Node2</title>
<g id="a_Node000002"><a xlink:href="a00399.html#ga57b30800d7bd3b3c936f578ca1fd7e32" target="_top" xlink:title="This function get the FIFO user address, message depth and payload size information.">
<polygon fill="white" stroke="#666666" points="306.88,-222 202.38,-222 202.38,-202 306.88,-202 306.88,-222"/>
<text text-anchor="middle" x="254.62" y="-208.5" font-family="Helvetica,sans-Serif" font-size="10.00">CAN1_FIFO_InfoGet</text>
</a>
</g>
</g>
<!-- Node1&#45;&gt;Node2 -->
<g id="edge1_Node000001_Node000002" class="edge">
<title>Node1&#45;&gt;Node2</title>
<g id="a_edge1_Node000001_Node000002"><a xlink:title=" ">
<path fill="none" stroke="#63b8ff" d="M79.39,-124.47C96.9,-141.5 134.1,-175.09 172,-193 178.13,-195.9 184.73,-198.37 191.43,-200.47"/>
<polygon fill="#63b8ff" stroke="#63b8ff" points="190.41,-204.11 200.99,-203.49 192.33,-197.38 190.41,-204.11"/>
</a>
</g>
</g>
<!-- Node3 -->
<g id="Node000003" class="node">
<title>Node3</title>
<g id="a_Node000003"><a xlink:href="a00399.html#gaa89329ca22f234476d55536c446b70e3" target="_top" xlink:title="This function read the message object from receive FIFO and update to the user &#160;&#160;message object point...">
<polygon fill="white" stroke="#666666" points="328.25,-184 181,-184 181,-164 328.25,-164 328.25,-184"/>
<text text-anchor="middle" x="254.62" y="-170.5" font-family="Helvetica,sans-Serif" font-size="10.00">CAN1_MessageReadFromFifo</text>
</a>
</g>
</g>
<!-- Node1&#45;&gt;Node3 -->
<g id="edge2_Node000001_Node000003" class="edge">
<title>Node1&#45;&gt;Node3</title>
<g id="a_edge2_Node000001_Node000003"><a xlink:title=" ">
<path fill="none" stroke="#63b8ff" d="M92.36,-124.47C113.01,-133.44 144.08,-146.25 172,-155 178.72,-157.11 185.81,-159.09 192.9,-160.93"/>
<polygon fill="#63b8ff" stroke="#63b8ff" points="191.68,-164.49 202.23,-163.52 193.38,-157.7 191.68,-164.49"/>
</a>
</g>
</g>
<!-- Node5 -->
<g id="Node000005" class="node">
<title>Node5</title>
<g id="a_Node000005"><a xlink:href="a00399.html#ga0dab5f41a5a5ef032d23c2ba4890a866" target="_top" xlink:title="This function Update the receive FIFO message increment tail position.">
<polygon fill="white" stroke="#666666" points="337.25,-146 172,-146 172,-126 337.25,-126 337.25,-146"/>
<text text-anchor="middle" x="254.62" y="-132.5" font-family="Helvetica,sans-Serif" font-size="10.00">CAN1_RX_FIFO_IncrementMsgPtr</text>
</a>
</g>
</g>
<!-- Node1&#45;&gt;Node5 -->
<g id="edge4_Node000001_Node000005" class="edge">
<title>Node1&#45;&gt;Node5</title>
<g id="a_edge4_Node000001_Node000005"><a xlink:title=" ">
<path fill="none" stroke="#63b8ff" d="M136.44,-122.04C144.39,-122.98 152.6,-123.96 160.83,-124.94"/>
<polygon fill="#63b8ff" stroke="#63b8ff" points="160.27,-128.52 170.61,-126.23 161.1,-121.57 160.27,-128.52"/>
</a>
</g>
</g>
<!-- Node6 -->
<g id="Node000006" class="node">
<title>Node6</title>
<g id="a_Node000006"><a xlink:href="a00399.html#ga224fbf549503a57f5818cc8391105b8f" target="_top" xlink:title="This function is used to clear the CAN1 receive FIFO overflow status bit.">
<polygon fill="white" stroke="#666666" points="332.38,-108 176.88,-108 176.88,-76 332.38,-76 332.38,-108"/>
<text text-anchor="start" x="184.88" y="-94.5" font-family="Helvetica,sans-Serif" font-size="10.00">CAN1_RX_FIFO_OverflowStatus</text>
<text text-anchor="middle" x="254.62" y="-82.5" font-family="Helvetica,sans-Serif" font-size="10.00">FlagClear</text>
</a>
</g>
</g>
<!-- Node1&#45;&gt;Node6 -->
<g id="edge5_Node000001_Node000006" class="edge">
<title>Node1&#45;&gt;Node6</title>
<g id="a_edge5_Node000001_Node000006"><a xlink:title=" ">
<path fill="none" stroke="#63b8ff" d="M136.44,-105.96C146.04,-104.82 156.04,-103.63 165.96,-102.45"/>
<polygon fill="#63b8ff" stroke="#63b8ff" points="166.17,-105.83 175.68,-101.17 165.34,-98.88 166.17,-105.83"/>
</a>
</g>
</g>
<!-- Node7 -->
<g id="Node000007" class="node">
<title>Node7</title>
<g id="a_Node000007"><a xlink:href="a00399.html#ga4a6437adcdf1917fffef4e7e5761fda1" target="_top" xlink:title="This returns the CAN1 receive FIFO status.">
<polygon fill="white" stroke="#666666" points="322.25,-58 187,-58 187,-38 322.25,-38 322.25,-58"/>
<text text-anchor="middle" x="254.62" y="-44.5" font-family="Helvetica,sans-Serif" font-size="10.00">CAN1_RX_FIFO_StatusGet</text>
</a>
</g>
</g>
<!-- Node1&#45;&gt;Node7 -->
<g id="edge6_Node000001_Node000007" class="edge">
<title>Node1&#45;&gt;Node7</title>
<g id="a_edge6_Node000001_Node000007"><a xlink:title=" ">
<path fill="none" stroke="#63b8ff" d="M88.65,-103.6C109.03,-93.16 142.05,-77.21 172,-67 178.24,-64.88 184.82,-62.91 191.43,-61.11"/>
<polygon fill="#63b8ff" stroke="#63b8ff" points="192,-64.32 200.8,-58.42 190.25,-57.54 192,-64.32"/>
</a>
</g>
</g>
<!-- Node8 -->
<g id="Node000008" class="node">
<title>Node8</title>
<g id="a_Node000008"><a xlink:href="a00399.html#gaa1a63eced76d657863054390e3ae6df3" target="_top" xlink:title="This function Search the CAN1 receive FIFO channel index.">
<polygon fill="white" stroke="#666666" points="307.25,-20 202,-20 202,0 307.25,0 307.25,-20"/>
<text text-anchor="middle" x="254.62" y="-6.5" font-family="Helvetica,sans-Serif" font-size="10.00">CAN1_RxFifoSearch</text>
</a>
</g>
</g>
<!-- Node1&#45;&gt;Node8 -->
<g id="edge7_Node000001_Node000008" class="edge">
<title>Node1&#45;&gt;Node8</title>
<g id="a_edge7_Node000001_Node000008"><a xlink:title=" ">
<path fill="none" stroke="#63b8ff" d="M78.4,-103.57C95.3,-85.5 132.72,-48.43 172,-29 178.08,-25.99 184.65,-23.45 191.33,-21.31"/>
<polygon fill="#63b8ff" stroke="#63b8ff" points="192.23,-24.4 200.86,-18.25 190.28,-17.68 192.23,-24.4"/>
</a>
</g>
</g>
<!-- Node4 -->
<g id="Node000004" class="node">
<title>Node4</title>
<g id="a_Node000004"><a xlink:href="a00399.html#ga61d156b0e75424f9b630cef5c424ac13" target="_top" xlink:title="This function get the DLC enum based decimal value.">
<polygon fill="white" stroke="#666666" points="506.25,-184 373.25,-184 373.25,-164 506.25,-164 506.25,-184"/>
<text text-anchor="middle" x="439.75" y="-170.5" font-family="Helvetica,sans-Serif" font-size="10.00">CAN1_DlcToDataBytesGet</text>
</a>
</g>
</g>
<!-- Node3&#45;&gt;Node4 -->
<g id="edge3_Node000003_Node000004" class="edge">
<title>Node3&#45;&gt;Node4</title>
<g id="a_edge3_Node000003_Node000004"><a xlink:title=" ">
<path fill="none" stroke="#63b8ff" d="M328.53,-174C339.52,-174 350.9,-174 361.97,-174"/>
<polygon fill="#63b8ff" stroke="#63b8ff" points="361.92,-177.5 371.92,-174 361.92,-170.5 361.92,-177.5"/>
</a>
</g>
</g>
</g>
</svg>
