<?xml version="1.0" encoding="UTF-8" standalone="no"?>
<!DOCTYPE svg PUBLIC "-//W3C//DTD SVG 1.1//EN"
 "http://www.w3.org/Graphics/SVG/1.1/DTD/svg11.dtd">
<!-- Generated by graphviz version 2.44.1 (20200629.0846)
 -->
<!-- Title: SMPS_Controller2P2ZInitialize Pages: 1 -->
<svg width="493pt" height="124pt"
 viewBox="0.00 0.00 493.00 123.50" xmlns="http://www.w3.org/2000/svg" xmlns:xlink="http://www.w3.org/1999/xlink">

<svg id="main" version="1.1" xmlns="http://www.w3.org/2000/svg" xmlns:xlink="http://www.w3.org/1999/xlink" xml:space="preserve">

<style type="text/css"><![CDATA[
.node, .edge {opacity: 0.7;}
.node.selected, .edge.selected {opacity: 1;}
.edge:hover path { stroke: red; }
.edge:hover polygon { stroke: red; fill: red; }
]]></style>
<script type="application/ecmascript" xlink:href="svg.min.js"/>
<svg id="graph" class="graph">
<g id="graph0" class="graph" transform="scale(1 1) rotate(0) translate(4 119.5)">
<title>SMPS_Controller2P2ZInitialize</title>
<!-- Node1 -->
<g id="Node000001" class="node">
<title>Node1</title>
<g id="a_Node000001"><a xlink:title=" ">
<polygon fill="#999999" stroke="#666666" points="485,-62 336,-62 336,-43 485,-43 485,-62"/>
<text text-anchor="middle" x="410.5" y="-50" font-family="Helvetica,sans-Serif" font-size="10.00">SMPS_Controller2P2ZInitialize</text>
</a>
</g>
</g>
<!-- Node2 -->
<g id="Node000002" class="node">
<title>Node2</title>
<g id="a_Node000002"><a xlink:href="a00359.html#a46079d4255b0d0a571e9246e2fd8dd6f" target="_top" xlink:title="initialize current controller coefficient array(s)">
<polygon fill="white" stroke="#666666" points="295,-115.5 175,-115.5 175,-85.5 295,-85.5 295,-115.5"/>
<text text-anchor="start" x="183" y="-103.5" font-family="Helvetica,sans-Serif" font-size="10.00">CurrentController</text>
<text text-anchor="middle" x="235" y="-92.5" font-family="Helvetica,sans-Serif" font-size="10.00">_PwrCtrl_TPBLPFC_Init</text>
</a>
</g>
</g>
<!-- Node1&#45;&gt;Node2 -->
<g id="edge1_Node000001_Node000002" class="edge">
<title>Node1&#45;&gt;Node2</title>
<g id="a_edge1_Node000001_Node000002"><a xlink:title=" ">
<path fill="none" stroke="#63b8ff" d="M365.08,-64.79C342.34,-71.08 314.47,-78.79 290.45,-85.44"/>
<polygon fill="#63b8ff" stroke="#63b8ff" points="366.1,-68.14 374.81,-62.1 364.24,-61.39 366.1,-68.14"/>
</a>
</g>
</g>
<!-- Node4 -->
<g id="Node000004" class="node">
<title>Node4</title>
<g id="a_Node000004"><a xlink:href="a00431.html#gab00b4f4c807e319cfd81191aa20a0cc9" target="_top" xlink:title="initialize control loops">
<polygon fill="white" stroke="#666666" points="300,-19 170,-19 170,0 300,0 300,-19"/>
<text text-anchor="middle" x="235" y="-7" font-family="Helvetica,sans-Serif" font-size="10.00">StartControl_StateHandler</text>
</a>
</g>
</g>
<!-- Node1&#45;&gt;Node4 -->
<g id="edge3_Node000001_Node000004" class="edge">
<title>Node1&#45;&gt;Node4</title>
<g id="a_edge3_Node000001_Node000004"><a xlink:title=" ">
<path fill="none" stroke="#63b8ff" d="M361.22,-40.53C333.81,-33.74 299.98,-25.36 274.4,-19.02"/>
<polygon fill="#63b8ff" stroke="#63b8ff" points="360.45,-43.95 370.99,-42.96 362.13,-37.15 360.45,-43.95"/>
</a>
</g>
</g>
<!-- Node6 -->
<g id="Node000006" class="node">
<title>Node6</title>
<g id="a_Node000006"><a xlink:href="a00359.html#a03f01aedf81f2d089607e8c412fce3bb" target="_top" xlink:title="initialize voltage controller coefficient array(s)">
<polygon fill="white" stroke="#666666" points="295,-67.5 175,-67.5 175,-37.5 295,-37.5 295,-67.5"/>
<text text-anchor="start" x="183" y="-55.5" font-family="Helvetica,sans-Serif" font-size="10.00">VoltageController</text>
<text text-anchor="middle" x="235" y="-44.5" font-family="Helvetica,sans-Serif" font-size="10.00">_PwrCtrl_TPBLPFC_Init</text>
</a>
</g>
</g>
<!-- Node1&#45;&gt;Node6 -->
<g id="edge5_Node000001_Node000006" class="edge">
<title>Node1&#45;&gt;Node6</title>
<g id="a_edge5_Node000001_Node000006"><a xlink:title=" ">
<path fill="none" stroke="#63b8ff" d="M325.68,-52.5C315.39,-52.5 305.05,-52.5 295.24,-52.5"/>
<polygon fill="#63b8ff" stroke="#63b8ff" points="325.92,-56 335.92,-52.5 325.92,-49 325.92,-56"/>
</a>
</g>
</g>
<!-- Node3 -->
<g id="Node000003" class="node">
<title>Node3</title>
<g id="a_Node000003"><a xlink:href="a00365.html#abecfb276359657d445e0f49eaa51166d" target="_top" xlink:title="initialization">
<polygon fill="white" stroke="#666666" points="134,-86 0,-86 0,-67 134,-67 134,-86"/>
<text text-anchor="middle" x="67" y="-74" font-family="Helvetica,sans-Serif" font-size="10.00">Drv_PwrCtrl_TPBLPFC_Init</text>
</a>
</g>
</g>
<!-- Node2&#45;&gt;Node3 -->
<g id="edge2_Node000002_Node000003" class="edge">
<title>Node2&#45;&gt;Node3</title>
<g id="a_edge2_Node000002_Node000003"><a xlink:title=" ">
<path fill="none" stroke="#63b8ff" d="M164.49,-90.45C154.33,-88.98 143.89,-87.47 133.8,-86.01"/>
<polygon fill="#63b8ff" stroke="#63b8ff" points="164.14,-93.94 174.54,-91.9 165.14,-87.01 164.14,-93.94"/>
</a>
</g>
</g>
<!-- Node5 -->
<g id="Node000005" class="node">
<title>Node5</title>
<g id="a_Node000005"><a xlink:href="a00431.html#ga97fda594ad396d08b6a833ebb3b04538" target="_top" xlink:title="tasks run every 100us">
<polygon fill="white" stroke="#666666" points="104,-19 30,-19 30,0 104,0 104,-19"/>
<text text-anchor="middle" x="67" y="-7" font-family="Helvetica,sans-Serif" font-size="10.00">Tasks_100us</text>
</a>
</g>
</g>
<!-- Node4&#45;&gt;Node5 -->
<g id="edge4_Node000004_Node000005" class="edge">
<title>Node4&#45;&gt;Node5</title>
<g id="a_edge4_Node000004_Node000005"><a xlink:title=" ">
<path fill="none" stroke="#63b8ff" d="M159.8,-9.5C140.49,-9.5 120.54,-9.5 104.19,-9.5"/>
<polygon fill="#63b8ff" stroke="#63b8ff" points="159.82,-13 169.82,-9.5 159.82,-6 159.82,-13"/>
</a>
</g>
</g>
<!-- Node6&#45;&gt;Node3 -->
<g id="edge6_Node000006_Node000003" class="edge">
<title>Node6&#45;&gt;Node3</title>
<g id="a_edge6_Node000006_Node000003"><a xlink:title=" ">
<path fill="none" stroke="#63b8ff" d="M164.49,-62.55C154.33,-64.02 143.89,-65.53 133.8,-66.99"/>
<polygon fill="#63b8ff" stroke="#63b8ff" points="165.14,-65.99 174.54,-61.1 164.14,-59.06 165.14,-65.99"/>
</a>
</g>
</g>
</g>
</svg>
</svg>

<style type='text/css'>
<![CDATA[
[data-mouse-over-selected='false'] { opacity: 0.7; }
[data-mouse-over-selected='true']  { opacity: 1.0; }
]]>
</style>
<script type="application/ecmascript"><![CDATA[
document.addEventListener('DOMContentLoaded', (event) => {
  highlightEdges();
  highlightAdjacentNodes();
});
]]></script>
</svg>
