<?xml version="1.0" encoding="UTF-8" standalone="no"?>
<!DOCTYPE svg PUBLIC "-//W3C//DTD SVG 1.1//EN"
 "http://www.w3.org/Graphics/SVG/1.1/DTD/svg11.dtd">
<!-- Generated by graphviz version 2.44.1 (20200629.0846)
 -->
<!-- Title: Handler_PHx Pages: 1 -->
<svg width="375pt" height="64pt"
 viewBox="0.00 0.00 375.00 64.00" xmlns="http://www.w3.org/2000/svg" xmlns:xlink="http://www.w3.org/1999/xlink">

<svg id="main" version="1.1" xmlns="http://www.w3.org/2000/svg" xmlns:xlink="http://www.w3.org/1999/xlink" xml:space="preserve">

<style type="text/css"><![CDATA[
.node, .edge {opacity: 0.7;}
.node.selected, .edge.selected {opacity: 1;}
.edge:hover path { stroke: red; }
.edge:hover polygon { stroke: red; fill: red; }
]]></style>
<script type="application/ecmascript" xlink:href="svg.min.js"/>
<svg id="graph" class="graph">
<g id="graph0" class="graph" transform="scale(1 1) rotate(0) translate(4 60)">
<title>Handler_PHx</title>
<!-- Node1 -->
<g id="Node000001" class="node">
<title>Node1</title>
<g id="a_Node000001"><a xlink:title=" ">
<polygon fill="#999999" stroke="#666666" points="367,-37 293,-37 293,-18 367,-18 367,-37"/>
<text text-anchor="middle" x="330" y="-25" font-family="Helvetica,sans-Serif" font-size="10.00">Handler_PHx</text>
</a>
</g>
</g>
<!-- Node2 -->
<g id="Node000002" class="node">
<title>Node2</title>
<g id="a_Node000002"><a xlink:href="a00371.html#aa7b8e2dc355948aa24cf22ca82f9e805" target="_top" xlink:title=" ">
<polygon fill="white" stroke="#666666" points="257,-56 132,-56 132,-37 257,-37 257,-56"/>
<text text-anchor="middle" x="194.5" y="-44" font-family="Helvetica,sans-Serif" font-size="10.00">Application_handler_PH1</text>
</a>
</g>
</g>
<!-- Node1&#45;&gt;Node2 -->
<g id="edge1_Node000001_Node000002" class="edge">
<title>Node1&#45;&gt;Node2</title>
<g id="a_edge1_Node000001_Node000002"><a xlink:title=" ">
<path fill="none" stroke="#63b8ff" d="M282.7,-34.09C274.45,-35.26 265.73,-36.51 257.12,-37.73"/>
<polygon fill="#63b8ff" stroke="#63b8ff" points="283.47,-37.52 292.87,-32.64 282.48,-30.59 283.47,-37.52"/>
</a>
</g>
</g>
<!-- Node4 -->
<g id="Node000004" class="node">
<title>Node4</title>
<g id="a_Node000004"><a xlink:href="a00371.html#a87fa9190951df7c866d828b8ad7b526b" target="_top" xlink:title=" ">
<polygon fill="white" stroke="#666666" points="257,-19 132,-19 132,0 257,0 257,-19"/>
<text text-anchor="middle" x="194.5" y="-7" font-family="Helvetica,sans-Serif" font-size="10.00">Application_handler_PH2</text>
</a>
</g>
</g>
<!-- Node1&#45;&gt;Node4 -->
<g id="edge3_Node000001_Node000004" class="edge">
<title>Node1&#45;&gt;Node4</title>
<g id="a_edge3_Node000001_Node000004"><a xlink:title=" ">
<path fill="none" stroke="#63b8ff" d="M282.7,-21.26C274.45,-20.14 265.73,-18.97 257.12,-17.81"/>
<polygon fill="#63b8ff" stroke="#63b8ff" points="282.49,-24.76 292.87,-22.63 283.43,-17.82 282.49,-24.76"/>
</a>
</g>
</g>
<!-- Node3 -->
<g id="Node000003" class="node">
<title>Node3</title>
<g id="a_Node000003"><a xlink:href="a00347.html#a968747854ba14331aa9f85784178d0da" target="_top" xlink:title=" ">
<polygon fill="white" stroke="#666666" points="96,-56 0,-56 0,-37 96,-37 96,-56"/>
<text text-anchor="middle" x="48" y="-44" font-family="Helvetica,sans-Serif" font-size="10.00">_ADCAN0Interrupt</text>
</a>
</g>
</g>
<!-- Node2&#45;&gt;Node3 -->
<g id="edge2_Node000002_Node000003" class="edge">
<title>Node2&#45;&gt;Node3</title>
<g id="a_edge2_Node000002_Node000003"><a xlink:title=" ">
<path fill="none" stroke="#63b8ff" d="M121.64,-46.5C112.96,-46.5 104.26,-46.5 96.07,-46.5"/>
<polygon fill="#63b8ff" stroke="#63b8ff" points="121.8,-50 131.8,-46.5 121.8,-43 121.8,-50"/>
</a>
</g>
</g>
<!-- Node5 -->
<g id="Node000005" class="node">
<title>Node5</title>
<g id="a_Node000005"><a xlink:href="a00347.html#a6ac2591aa2e32874156ad3f8bf477d2f" target="_top" xlink:title=" ">
<polygon fill="white" stroke="#666666" points="96,-19 0,-19 0,0 96,0 96,-19"/>
<text text-anchor="middle" x="48" y="-7" font-family="Helvetica,sans-Serif" font-size="10.00">_ADCAN1Interrupt</text>
</a>
</g>
</g>
<!-- Node4&#45;&gt;Node5 -->
<g id="edge4_Node000004_Node000005" class="edge">
<title>Node4&#45;&gt;Node5</title>
<g id="a_edge4_Node000004_Node000005"><a xlink:title=" ">
<path fill="none" stroke="#63b8ff" d="M121.64,-9.5C112.96,-9.5 104.26,-9.5 96.07,-9.5"/>
<polygon fill="#63b8ff" stroke="#63b8ff" points="121.8,-13 131.8,-9.5 121.8,-6 121.8,-13"/>
</a>
</g>
</g>
</g>
</svg>
</svg>

<style type='text/css'>
<![CDATA[
[data-mouse-over-selected='false'] { opacity: 0.7; }
[data-mouse-over-selected='true']  { opacity: 1.0; }
]]>
</style>
<script type="application/ecmascript"><![CDATA[
document.addEventListener('DOMContentLoaded', (event) => {
  highlightEdges();
  highlightAdjacentNodes();
});
]]></script>
</svg>
