<?xml version="1.0" encoding="UTF-8" standalone="no"?>
<!DOCTYPE svg PUBLIC "-//W3C//DTD SVG 1.1//EN"
 "http://www.w3.org/Graphics/SVG/1.1/DTD/svg11.dtd">
<!-- Generated by graphviz version 8.1.0 (20230707.0739)
 -->
<!-- Title: D:/Firmware/MCU16ASMPS_TestEnvironment/_deployment/dspic33ch&#45;power&#45;totem&#45;pole&#45;demonstration&#45;application&#45;single&#45;phase/dspic33ch_totem_pole_single_phase_secondary_IL.X/sources/driver/msi/drv_msi.c Pages: 1 -->
<svg width="710pt" height="292pt"
 viewBox="0.00 0.00 710.12 292.00" xmlns="http://www.w3.org/2000/svg" xmlns:xlink="http://www.w3.org/1999/xlink">
<g id="graph0" class="graph" transform="scale(1 1) rotate(0) translate(4 288)">
<title>D:/Firmware/MCU16ASMPS_TestEnvironment/_deployment/dspic33ch&#45;power&#45;totem&#45;pole&#45;demonstration&#45;application&#45;single&#45;phase/dspic33ch_totem_pole_single_phase_secondary_IL.X/sources/driver/msi/drv_msi.c</title>
<!-- Node1 -->
<g id="Node000001" class="node">
<title>Node1</title>
<g id="a_Node000001"><a xlink:title="This is the driver source file for MSI.">
<polygon fill="#999999" stroke="#666666" points="434.88,-284 253.12,-284 253.12,-192 434.88,-192 434.88,-284"/>
<text text-anchor="start" x="261.12" y="-270.5" font-family="Helvetica,sans-Serif" font-size="10.00">D:/Firmware/MCU16ASMPS</text>
<text text-anchor="start" x="261.12" y="-258.5" font-family="Helvetica,sans-Serif" font-size="10.00">_TestEnvironment/_deployment</text>
<text text-anchor="start" x="261.12" y="-246.5" font-family="Helvetica,sans-Serif" font-size="10.00">/dspic33ch&#45;power&#45;totem&#45;pole</text>
<text text-anchor="start" x="261.12" y="-234.5" font-family="Helvetica,sans-Serif" font-size="10.00">&#45;demonstration&#45;application&#45;single</text>
<text text-anchor="start" x="261.12" y="-222.5" font-family="Helvetica,sans-Serif" font-size="10.00">&#45;phase/dspic33ch_totem_pole_single</text>
<text text-anchor="start" x="261.12" y="-210.5" font-family="Helvetica,sans-Serif" font-size="10.00">_phase_secondary_IL.X/sources/driver</text>
<text text-anchor="middle" x="344" y="-198.5" font-family="Helvetica,sans-Serif" font-size="10.00">/msi/drv_msi.c</text>
</a>
</g>
</g>
<!-- Node2 -->
<g id="Node000002" class="node">
<title>Node2</title>
<g id="a_Node000002"><a xlink:title=" ">
<polygon fill="#e0e0e0" stroke="#999999" points="112,-144 0,-144 0,-124 112,-124 112,-144"/>
<text text-anchor="middle" x="56" y="-130.5" font-family="Helvetica,sans-Serif" font-size="10.00">p33CH512MP506S1.h</text>
</a>
</g>
</g>
<!-- Node1&#45;&gt;Node2 -->
<g id="edge1_Node000001_Node000002" class="edge">
<title>Node1&#45;&gt;Node2</title>
<g id="a_edge1_Node000001_Node000002"><a xlink:title=" ">
<path fill="none" stroke="#63b8ff" d="M252.88,-204.73C198.72,-185.55 132.97,-162.26 92.83,-148.04"/>
<polygon fill="#63b8ff" stroke="#63b8ff" points="94.3,-144.5 83.71,-144.46 91.96,-151.1 94.3,-144.5"/>
</a>
</g>
</g>
<!-- Node3 -->
<g id="Node000003" class="node">
<title>Node3</title>
<g id="a_Node000003"><a xlink:href="a00350.html" target="_top" xlink:title="This is the driver header file for MSI.">
<polygon fill="white" stroke="#666666" points="315.62,-144 258.38,-144 258.38,-124 315.62,-124 315.62,-144"/>
<text text-anchor="middle" x="287" y="-130.5" font-family="Helvetica,sans-Serif" font-size="10.00">drv_msi.h</text>
</a>
</g>
</g>
<!-- Node1&#45;&gt;Node3 -->
<g id="edge2_Node000001_Node000003" class="edge">
<title>Node1&#45;&gt;Node3</title>
<g id="a_edge2_Node000001_Node000003"><a xlink:title=" ">
<path fill="none" stroke="#63b8ff" d="M318.67,-191.67C311.17,-178.26 303.39,-164.32 297.41,-153.62"/>
<polygon fill="#63b8ff" stroke="#63b8ff" points="300.05,-152.17 292.11,-145.15 293.93,-155.58 300.05,-152.17"/>
</a>
</g>
</g>
<!-- Node5 -->
<g id="Node000005" class="node">
<title>Node5</title>
<g id="a_Node000005"><a xlink:href="a00290.html" target="_top" xlink:title="This is the generated driver header file for the MAIN_CORE driver.">
<polygon fill="white" stroke="#666666" points="240.25,-156 129.75,-156 129.75,-112 240.25,-112 240.25,-156"/>
<text text-anchor="start" x="137.75" y="-142.5" font-family="Helvetica,sans-Serif" font-size="10.00">../../../mcc_generated</text>
<text text-anchor="start" x="137.75" y="-130.5" font-family="Helvetica,sans-Serif" font-size="10.00">_files/main_core/main</text>
<text text-anchor="middle" x="185" y="-118.5" font-family="Helvetica,sans-Serif" font-size="10.00">_core.h</text>
</a>
</g>
</g>
<!-- Node1&#45;&gt;Node5 -->
<g id="edge4_Node000001_Node000005" class="edge">
<title>Node1&#45;&gt;Node5</title>
<g id="a_edge4_Node000001_Node000005"><a xlink:title=" ">
<path fill="none" stroke="#63b8ff" d="M273.33,-191.67C257.69,-181.63 241.58,-171.29 227.47,-162.24"/>
<polygon fill="#63b8ff" stroke="#63b8ff" points="229.82,-158.95 219.51,-156.5 226.04,-164.84 229.82,-158.95"/>
</a>
</g>
</g>
<!-- Node11 -->
<g id="Node000011" class="node">
<title>Node11</title>
<g id="a_Node000011"><a xlink:href="a00338.html" target="_top" xlink:title="This is the typedef file for power controller.">
<polygon fill="white" stroke="#666666" points="468.62,-156 333.38,-156 333.38,-112 468.62,-112 468.62,-156"/>
<text text-anchor="start" x="341.38" y="-142.5" font-family="Helvetica,sans-Serif" font-size="10.00">../power_controller</text>
<text text-anchor="start" x="341.38" y="-130.5" font-family="Helvetica,sans-Serif" font-size="10.00">/../../devices/dev_TPBLPFC</text>
<text text-anchor="middle" x="401" y="-118.5" font-family="Helvetica,sans-Serif" font-size="10.00">_typedef.h</text>
</a>
</g>
</g>
<!-- Node1&#45;&gt;Node11 -->
<g id="edge14_Node000001_Node000011" class="edge">
<title>Node1&#45;&gt;Node11</title>
<g id="a_edge14_Node000001_Node000011"><a xlink:title=" ">
<path fill="none" stroke="#63b8ff" d="M369.33,-191.67C374.19,-182.97 379.18,-174.04 383.72,-165.93"/>
<polygon fill="#63b8ff" stroke="#63b8ff" points="387.16,-167.94 388.99,-157.5 381.05,-164.52 387.16,-167.94"/>
</a>
</g>
</g>
<!-- Node12 -->
<g id="Node000012" class="node">
<title>Node12</title>
<g id="a_Node000012"><a xlink:href="a00892_source.html" target="_top" xlink:title=" ">
<polygon fill="white" stroke="#666666" points="569.75,-144 486.25,-144 486.25,-124 569.75,-124 569.75,-144"/>
<text text-anchor="middle" x="528" y="-130.5" font-family="Helvetica,sans-Serif" font-size="10.00">../../../revision.h</text>
</a>
</g>
</g>
<!-- Node1&#45;&gt;Node12 -->
<g id="edge17_Node000001_Node000012" class="edge">
<title>Node1&#45;&gt;Node12</title>
<g id="a_edge17_Node000001_Node000012"><a xlink:title=" ">
<path fill="none" stroke="#63b8ff" d="M426.04,-191.52C453.3,-176.41 481.74,-160.65 501.63,-149.62"/>
<polygon fill="#63b8ff" stroke="#63b8ff" points="503.16,-152.22 510.21,-144.31 499.76,-146.1 503.16,-152.22"/>
</a>
</g>
</g>
<!-- Node13 -->
<g id="Node000013" class="node">
<title>Node13</title>
<g id="a_Node000013"><a xlink:title=" ">
<polygon fill="#e0e0e0" stroke="#999999" points="702.12,-150 587.88,-150 587.88,-118 702.12,-118 702.12,-150"/>
<text text-anchor="start" x="595.88" y="-136.5" font-family="Helvetica,sans-Serif" font-size="10.00">../mcc_generated_files</text>
<text text-anchor="middle" x="645" y="-124.5" font-family="Helvetica,sans-Serif" font-size="10.00">/system/pins.h</text>
</a>
</g>
</g>
<!-- Node1&#45;&gt;Node13 -->
<g id="edge18_Node000001_Node000013" class="edge">
<title>Node1&#45;&gt;Node13</title>
<g id="a_edge18_Node000001_Node000013"><a xlink:title=" ">
<path fill="none" stroke="#63b8ff" d="M435.13,-206.12C485.32,-189.11 546.01,-168.55 589.18,-153.91"/>
<polygon fill="#63b8ff" stroke="#63b8ff" points="590.14,-156.95 598.49,-150.42 587.9,-150.32 590.14,-156.95"/>
</a>
</g>
</g>
<!-- Node4 -->
<g id="Node000004" class="node">
<title>Node4</title>
<g id="a_Node000004"><a xlink:title=" ">
<polygon fill="#e0e0e0" stroke="#999999" points="337.38,-76 302.62,-76 302.62,-56 337.38,-56 337.38,-76"/>
<text text-anchor="middle" x="320" y="-62.5" font-family="Helvetica,sans-Serif" font-size="10.00">xc.h</text>
</a>
</g>
</g>
<!-- Node3&#45;&gt;Node4 -->
<g id="edge3_Node000003_Node000004" class="edge">
<title>Node3&#45;&gt;Node4</title>
<g id="a_edge3_Node000003_Node000004"><a xlink:title=" ">
<path fill="none" stroke="#63b8ff" d="M291.73,-123.54C296.58,-113.84 304.27,-98.47 310.4,-86.2"/>
<polygon fill="#63b8ff" stroke="#63b8ff" points="313.94,-87.95 315.28,-77.44 307.68,-84.82 313.94,-87.95"/>
</a>
</g>
</g>
<!-- Node5&#45;&gt;Node4 -->
<g id="edge5_Node000005_Node000004" class="edge">
<title>Node5&#45;&gt;Node4</title>
<g id="a_edge5_Node000005_Node000004"><a xlink:title=" ">
<path fill="none" stroke="#63b8ff" d="M228.83,-111.57C249.78,-101.33 274.21,-89.38 292.51,-80.44"/>
<polygon fill="#63b8ff" stroke="#63b8ff" points="293.79,-83.22 301.24,-75.68 290.72,-76.93 293.79,-83.22"/>
</a>
</g>
</g>
<!-- Node6 -->
<g id="Node000006" class="node">
<title>Node6</title>
<g id="a_Node000006"><a xlink:title=" ">
<polygon fill="#e0e0e0" stroke="#999999" points="351.12,-20 302.88,-20 302.88,0 351.12,0 351.12,-20"/>
<text text-anchor="middle" x="327" y="-6.5" font-family="Helvetica,sans-Serif" font-size="10.00">stdint.h</text>
</a>
</g>
</g>
<!-- Node5&#45;&gt;Node6 -->
<g id="edge6_Node000005_Node000006" class="edge">
<title>Node5&#45;&gt;Node6</title>
<g id="a_edge6_Node000005_Node000006"><a xlink:title=" ">
<path fill="none" stroke="#63b8ff" d="M209.73,-111.75C237.74,-87.69 282.76,-49.01 308.09,-27.24"/>
<polygon fill="#63b8ff" stroke="#63b8ff" points="309.87,-29.47 315.17,-20.3 305.31,-24.16 309.87,-29.47"/>
</a>
</g>
</g>
<!-- Node7 -->
<g id="Node000007" class="node">
<title>Node7</title>
<g id="a_Node000007"><a xlink:title=" ">
<polygon fill="#e0e0e0" stroke="#999999" points="98.88,-20 43.12,-20 43.12,0 98.88,0 98.88,-20"/>
<text text-anchor="middle" x="71" y="-6.5" font-family="Helvetica,sans-Serif" font-size="10.00">stdbool.h</text>
</a>
</g>
</g>
<!-- Node5&#45;&gt;Node7 -->
<g id="edge7_Node000005_Node000007" class="edge">
<title>Node5&#45;&gt;Node7</title>
<g id="a_edge7_Node000005_Node000007"><a xlink:title=" ">
<path fill="none" stroke="#63b8ff" d="M131.95,-111.56C115.78,-102.71 99.31,-90.95 88,-76 78.2,-63.05 74.03,-44.96 72.27,-31.15"/>
<polygon fill="#63b8ff" stroke="#63b8ff" points="75.67,-30.99 71.26,-21.36 68.71,-31.64 75.67,-30.99"/>
</a>
</g>
</g>
<!-- Node8 -->
<g id="Node000008" class="node">
<title>Node8</title>
<g id="a_Node000008"><a xlink:href="a00296.html" target="_top" xlink:title="This is the generated driver types header file for the MAIN_CORE driver.">
<polygon fill="white" stroke="#666666" points="285.25,-20 186.75,-20 186.75,0 285.25,0 285.25,-20"/>
<text text-anchor="middle" x="236" y="-6.5" font-family="Helvetica,sans-Serif" font-size="10.00">main_core_types.h</text>
</a>
</g>
</g>
<!-- Node5&#45;&gt;Node8 -->
<g id="edge8_Node000005_Node000008" class="edge">
<title>Node5&#45;&gt;Node8</title>
<g id="a_edge8_Node000005_Node000008"><a xlink:title=" ">
<path fill="none" stroke="#63b8ff" d="M199.04,-111.75C205.48,-101.3 212.82,-88.34 218,-76 224.18,-61.29 228.88,-43.82 231.92,-30.7"/>
<polygon fill="#63b8ff" stroke="#63b8ff" points="235.53,-31.59 234.25,-21.07 228.69,-30.09 235.53,-31.59"/>
</a>
</g>
</g>
<!-- Node9 -->
<g id="Node000009" class="node">
<title>Node9</title>
<g id="a_Node000009"><a xlink:href="a00293_source.html" target="_top" xlink:title=" ">
<polygon fill="white" stroke="#666666" points="208.62,-76 97.38,-76 97.38,-56 208.62,-56 208.62,-76"/>
<text text-anchor="middle" x="153" y="-62.5" font-family="Helvetica,sans-Serif" font-size="10.00">main_core_interface.h</text>
</a>
</g>
</g>
<!-- Node5&#45;&gt;Node9 -->
<g id="edge9_Node000005_Node000009" class="edge">
<title>Node5&#45;&gt;Node9</title>
<g id="a_edge9_Node000005_Node000009"><a xlink:title=" ">
<path fill="none" stroke="#63b8ff" d="M174.7,-111.75C170.73,-103.57 166.22,-94.27 162.35,-86.28"/>
<polygon fill="#63b8ff" stroke="#63b8ff" points="165.08,-84.89 157.57,-77.42 158.78,-87.94 165.08,-84.89"/>
</a>
</g>
</g>
<!-- Node9&#45;&gt;Node6 -->
<g id="edge11_Node000009_Node000006" class="edge">
<title>Node9&#45;&gt;Node6</title>
<g id="a_edge11_Node000009_Node000006"><a xlink:title=" ">
<path fill="none" stroke="#63b8ff" d="M183.31,-55.59C213.66,-46.17 260.33,-31.69 292.18,-21.8"/>
<polygon fill="#63b8ff" stroke="#63b8ff" points="292.86,-24.95 301.38,-18.64 290.79,-18.26 292.86,-24.95"/>
</a>
</g>
</g>
<!-- Node9&#45;&gt;Node7 -->
<g id="edge12_Node000009_Node000007" class="edge">
<title>Node9&#45;&gt;Node7</title>
<g id="a_edge12_Node000009_Node000007"><a xlink:title=" ">
<path fill="none" stroke="#63b8ff" d="M138.72,-55.59C126.45,-47.51 108.52,-35.71 94.19,-26.27"/>
<polygon fill="#63b8ff" stroke="#63b8ff" points="96.67,-23.06 86.39,-20.48 92.82,-28.9 96.67,-23.06"/>
</a>
</g>
</g>
<!-- Node9&#45;&gt;Node8 -->
<g id="edge13_Node000009_Node000008" class="edge">
<title>Node9&#45;&gt;Node8</title>
<g id="a_edge13_Node000009_Node000008"><a xlink:title=" ">
<path fill="none" stroke="#63b8ff" d="M167.46,-55.59C179.88,-47.51 198.02,-35.71 212.52,-26.27"/>
<polygon fill="#63b8ff" stroke="#63b8ff" points="213.96,-28.87 220.43,-20.48 210.14,-23 213.96,-28.87"/>
</a>
</g>
</g>
<!-- Node10 -->
<g id="Node000010" class="node">
<title>Node10</title>
<g id="a_Node000010"><a xlink:title=" ">
<polygon fill="#e0e0e0" stroke="#999999" points="168.25,-20 117.75,-20 117.75,0 168.25,0 168.25,-20"/>
<text text-anchor="middle" x="143" y="-6.5" font-family="Helvetica,sans-Serif" font-size="10.00">stddef.h</text>
</a>
</g>
</g>
<!-- Node9&#45;&gt;Node10 -->
<g id="edge10_Node000009_Node000010" class="edge">
<title>Node9&#45;&gt;Node10</title>
<g id="a_edge10_Node000009_Node000010"><a xlink:title=" ">
<path fill="none" stroke="#63b8ff" d="M151.26,-55.59C150,-48.78 148.24,-39.32 146.68,-30.86"/>
<polygon fill="#63b8ff" stroke="#63b8ff" points="149.98,-30.49 144.72,-21.3 143.1,-31.77 149.98,-30.49"/>
</a>
</g>
</g>
<!-- Node11&#45;&gt;Node4 -->
<g id="edge15_Node000011_Node000004" class="edge">
<title>Node11&#45;&gt;Node4</title>
<g id="a_edge15_Node000011_Node000004"><a xlink:title=" ">
<path fill="none" stroke="#63b8ff" d="M374.93,-111.75C363.62,-102.54 350.59,-91.93 340.06,-83.35"/>
<polygon fill="#63b8ff" stroke="#63b8ff" points="342.52,-80.02 332.56,-76.42 338.1,-85.45 342.52,-80.02"/>
</a>
</g>
</g>
<!-- Node11&#45;&gt;Node6 -->
<g id="edge16_Node000011_Node000006" class="edge">
<title>Node11&#45;&gt;Node6</title>
<g id="a_edge16_Node000011_Node000006"><a xlink:title=" ">
<path fill="none" stroke="#63b8ff" d="M388.11,-111.75C374.03,-88.53 351.69,-51.7 338.27,-29.59"/>
<polygon fill="#63b8ff" stroke="#63b8ff" points="340.82,-28.04 332.64,-21.3 334.84,-31.67 340.82,-28.04"/>
</a>
</g>
</g>
</g>
</svg>
