<?xml version="1.0" encoding="UTF-8" standalone="no"?>
<!DOCTYPE svg PUBLIC "-//W3C//DTD SVG 1.1//EN"
 "http://www.w3.org/Graphics/SVG/1.1/DTD/svg11.dtd">
<!-- Generated by graphviz version 8.1.0 (20230707.0739)
 -->
<!-- Title: D:/Firmware/MCU16ASMPS_TestEnvironment/_deployment/dspic33ch&#45;power&#45;totem&#45;pole&#45;demonstration&#45;application&#45;single&#45;phase/dspic33ch_totem_pole_single_phase_secondary_IL.X/mcc_generated_files/pwm_hs/src/pwm.c Pages: 1 -->
<svg width="345pt" height="268pt"
 viewBox="0.00 0.00 344.61 268.00" xmlns="http://www.w3.org/2000/svg" xmlns:xlink="http://www.w3.org/1999/xlink">

<svg id="main" version="1.1" xmlns="http://www.w3.org/2000/svg" xmlns:xlink="http://www.w3.org/1999/xlink" xml:space="preserve" onload="init(evt)">
<style type="text/css"><![CDATA[
.node, .edge {opacity: 0.7;}
.node.selected, .edge.selected {opacity: 1;}
.edge:hover path { stroke: red; }
.edge:hover polygon { stroke: red; fill: red; }
]]></style>
<script type="application/ecmascript" xlink:href="svg.min.js"/>
<svg id="graph" class="graph">
<g id="graph0" class="graph" transform="scale(1 1) rotate(0) translate(4 264)">
<title>D:/Firmware/MCU16ASMPS_TestEnvironment/_deployment/dspic33ch&#45;power&#45;totem&#45;pole&#45;demonstration&#45;application&#45;single&#45;phase/dspic33ch_totem_pole_single_phase_secondary_IL.X/mcc_generated_files/pwm_hs/src/pwm.c</title>
<!-- Node1 -->
<g id="Node000001" class="node">
<title>Node1</title>
<g id="a_Node000001"><a xlink:title="This is the generated driver source file for PWM driver.">
<polygon fill="#999999" stroke="#666666" points="282.49,-260 93.99,-260 93.99,-168 282.49,-168 282.49,-260"/>
<text text-anchor="start" x="101.99" y="-246.5" font-family="Helvetica,sans-Serif" font-size="10.00">D:/Firmware/MCU16ASMPS</text>
<text text-anchor="start" x="101.99" y="-234.5" font-family="Helvetica,sans-Serif" font-size="10.00">_TestEnvironment/_deployment</text>
<text text-anchor="start" x="101.99" y="-222.5" font-family="Helvetica,sans-Serif" font-size="10.00">/dspic33ch&#45;power&#45;totem&#45;pole</text>
<text text-anchor="start" x="101.99" y="-210.5" font-family="Helvetica,sans-Serif" font-size="10.00">&#45;demonstration&#45;application&#45;single</text>
<text text-anchor="start" x="101.99" y="-198.5" font-family="Helvetica,sans-Serif" font-size="10.00">&#45;phase/dspic33ch_totem_pole_single</text>
<text text-anchor="start" x="101.99" y="-186.5" font-family="Helvetica,sans-Serif" font-size="10.00">_phase_secondary_IL.X/mcc_generated</text>
<text text-anchor="middle" x="188.24" y="-174.5" font-family="Helvetica,sans-Serif" font-size="10.00">_files/pwm_hs/src/pwm.c</text>
</a>
</g>
</g>
<!-- Node2 -->
<g id="Node000002" class="node">
<title>Node2</title>
<g id="a_Node000002"><a xlink:href="a00302.html" target="_top" xlink:title="This is the generated driver header file for the PWM driver.">
<polygon fill="white" stroke="#666666" points="167.99,-132 114.49,-132 114.49,-112 167.99,-112 167.99,-132"/>
<text text-anchor="middle" x="141.24" y="-118.5" font-family="Helvetica,sans-Serif" font-size="10.00">../pwm.h</text>
</a>
</g>
</g>
<!-- Node1&#45;&gt;Node2 -->
<g id="edge1_Node000001_Node000002" class="edge">
<title>Node1&#45;&gt;Node2</title>
<g id="a_edge1_Node000001_Node000002"><a xlink:title=" ">
<path fill="none" stroke="#63b8ff" d="M164.6,-167.74C159.82,-158.57 155.04,-149.42 151.06,-141.81"/>
<polygon fill="#63b8ff" stroke="#63b8ff" points="153.79,-140.47 146.06,-133.23 147.58,-143.71 153.79,-140.47"/>
</a>
</g>
</g>
<!-- Node9 -->
<g id="Node000009" class="node">
<title>Node9</title>
<g id="a_Node000009"><a xlink:href="a00760_source.html" target="_top" xlink:title=" ">
<polygon fill="white" stroke="#666666" points="336.61,-132 235.86,-132 235.86,-112 336.61,-112 336.61,-132"/>
<text text-anchor="middle" x="286.24" y="-118.5" font-family="Helvetica,sans-Serif" font-size="10.00">../../system/clock.h</text>
</a>
</g>
</g>
<!-- Node1&#45;&gt;Node9 -->
<g id="edge11_Node000001_Node000009" class="edge">
<title>Node1&#45;&gt;Node9</title>
<g id="a_edge11_Node000001_Node000009"><a xlink:title=" ">
<path fill="none" stroke="#63b8ff" d="M237.53,-167.74C248.54,-157.62 259.53,-147.53 268.28,-139.5"/>
<polygon fill="#63b8ff" stroke="#63b8ff" points="270.2,-142.57 275.19,-133.23 265.46,-137.41 270.2,-142.57"/>
</a>
</g>
</g>
<!-- Node3 -->
<g id="Node000003" class="node">
<title>Node3</title>
<g id="a_Node000003"><a xlink:title=" ">
<polygon fill="#e0e0e0" stroke="#999999" points="47.61,-76 12.86,-76 12.86,-56 47.61,-56 47.61,-76"/>
<text text-anchor="middle" x="30.24" y="-62.5" font-family="Helvetica,sans-Serif" font-size="10.00">xc.h</text>
</a>
</g>
</g>
<!-- Node2&#45;&gt;Node3 -->
<g id="edge2_Node000002_Node000003" class="edge">
<title>Node2&#45;&gt;Node3</title>
<g id="a_edge2_Node000002_Node000003"><a xlink:title=" ">
<path fill="none" stroke="#63b8ff" d="M121.9,-111.59C104.13,-102.95 77.6,-90.04 57.64,-80.33"/>
<polygon fill="#63b8ff" stroke="#63b8ff" points="59.41,-76.81 48.89,-75.59 56.35,-83.11 59.41,-76.81"/>
</a>
</g>
</g>
<!-- Node4 -->
<g id="Node000004" class="node">
<title>Node4</title>
<g id="a_Node000004"><a xlink:title=" ">
<polygon fill="#e0e0e0" stroke="#999999" points="77.36,-20 29.11,-20 29.11,0 77.36,0 77.36,-20"/>
<text text-anchor="middle" x="53.24" y="-6.5" font-family="Helvetica,sans-Serif" font-size="10.00">stdint.h</text>
</a>
</g>
</g>
<!-- Node2&#45;&gt;Node4 -->
<g id="edge3_Node000002_Node000004" class="edge">
<title>Node2&#45;&gt;Node4</title>
<g id="a_edge3_Node000002_Node000004"><a xlink:title=" ">
<path fill="none" stroke="#63b8ff" d="M114.26,-120.88C82.04,-119.1 29.35,-110.67 4.24,-76 -8.11,-58.94 10.52,-39.72 28.25,-26.63"/>
<polygon fill="#63b8ff" stroke="#63b8ff" points="30.04,-28.96 36.27,-20.39 26.06,-23.2 30.04,-28.96"/>
</a>
</g>
</g>
<!-- Node5 -->
<g id="Node000005" class="node">
<title>Node5</title>
<g id="a_Node000005"><a xlink:title=" ">
<polygon fill="#e0e0e0" stroke="#999999" points="327.11,-20 271.36,-20 271.36,0 327.11,0 327.11,-20"/>
<text text-anchor="middle" x="299.24" y="-6.5" font-family="Helvetica,sans-Serif" font-size="10.00">stdbool.h</text>
</a>
</g>
</g>
<!-- Node2&#45;&gt;Node5 -->
<g id="edge4_Node000002_Node000005" class="edge">
<title>Node2&#45;&gt;Node5</title>
<g id="a_edge4_Node000002_Node000005"><a xlink:title=" ">
<path fill="none" stroke="#63b8ff" d="M168.42,-119.57C199.66,-116.45 250.45,-106.65 280.24,-76 291.89,-64.01 296.46,-45.29 298.22,-31.01"/>
<polygon fill="#63b8ff" stroke="#63b8ff" points="301.77,-31.57 299.13,-21.31 294.8,-30.97 301.77,-31.57"/>
</a>
</g>
</g>
<!-- Node6 -->
<g id="Node000006" class="node">
<title>Node6</title>
<g id="a_Node000006"><a xlink:title=" ">
<polygon fill="#e0e0e0" stroke="#999999" points="112.99,-76 65.49,-76 65.49,-56 112.99,-56 112.99,-76"/>
<text text-anchor="middle" x="89.24" y="-62.5" font-family="Helvetica,sans-Serif" font-size="10.00">stdlib.h</text>
</a>
</g>
</g>
<!-- Node2&#45;&gt;Node6 -->
<g id="edge5_Node000002_Node000006" class="edge">
<title>Node2&#45;&gt;Node6</title>
<g id="a_edge5_Node000002_Node000006"><a xlink:title=" ">
<path fill="none" stroke="#63b8ff" d="M132.18,-111.59C124.87,-104.01 114.4,-93.13 105.63,-84.02"/>
<polygon fill="#63b8ff" stroke="#63b8ff" points="108.65,-82.07 99.19,-77.3 103.61,-86.93 108.65,-82.07"/>
</a>
</g>
</g>
<!-- Node7 -->
<g id="Node000007" class="node">
<title>Node7</title>
<g id="a_Node000007"><a xlink:href="a00311.html" target="_top" xlink:title="This is the generated driver types header file for the PWM driver.">
<polygon fill="white" stroke="#666666" points="218.99,-20 129.49,-20 129.49,0 218.99,0 218.99,-20"/>
<text text-anchor="middle" x="174.24" y="-6.5" font-family="Helvetica,sans-Serif" font-size="10.00">pwm_hs_types.h</text>
</a>
</g>
</g>
<!-- Node2&#45;&gt;Node7 -->
<g id="edge6_Node000002_Node000007" class="edge">
<title>Node2&#45;&gt;Node7</title>
<g id="a_edge6_Node000002_Node000007"><a xlink:title=" ">
<path fill="none" stroke="#63b8ff" d="M143.89,-111.73C147.52,-99.1 154.26,-75.81 160.24,-56 162.75,-47.68 165.58,-38.53 168.04,-30.66"/>
<polygon fill="#63b8ff" stroke="#63b8ff" points="171.64,-31.88 171.3,-21.29 164.96,-29.79 171.64,-31.88"/>
</a>
</g>
</g>
<!-- Node8 -->
<g id="Node000008" class="node">
<title>Node8</title>
<g id="a_Node000008"><a xlink:href="a00308_source.html" target="_top" xlink:title=" ">
<polygon fill="white" stroke="#666666" points="271.36,-76 169.11,-76 169.11,-56 271.36,-56 271.36,-76"/>
<text text-anchor="middle" x="220.24" y="-62.5" font-family="Helvetica,sans-Serif" font-size="10.00">pwm_hs_interface.h</text>
</a>
</g>
</g>
<!-- Node2&#45;&gt;Node8 -->
<g id="edge7_Node000002_Node000008" class="edge">
<title>Node2&#45;&gt;Node8</title>
<g id="a_edge7_Node000002_Node000008"><a xlink:title=" ">
<path fill="none" stroke="#63b8ff" d="M155,-111.59C166.71,-103.59 183.76,-91.93 197.5,-82.54"/>
<polygon fill="#63b8ff" stroke="#63b8ff" points="199.09,-85.01 205.37,-76.48 195.14,-79.23 199.09,-85.01"/>
</a>
</g>
</g>
<!-- Node8&#45;&gt;Node4 -->
<g id="edge9_Node000008_Node000004" class="edge">
<title>Node8&#45;&gt;Node4</title>
<g id="a_edge9_Node000008_Node000004"><a xlink:title=" ">
<path fill="none" stroke="#63b8ff" d="M191.15,-55.59C162.39,-46.3 118.39,-32.07 87.85,-22.19"/>
<polygon fill="#63b8ff" stroke="#63b8ff" points="89.25,-18.64 78.66,-18.9 87.09,-25.3 89.25,-18.64"/>
</a>
</g>
</g>
<!-- Node8&#45;&gt;Node5 -->
<g id="edge8_Node000008_Node000005" class="edge">
<title>Node8&#45;&gt;Node5</title>
<g id="a_edge8_Node000008_Node000005"><a xlink:title=" ">
<path fill="none" stroke="#63b8ff" d="M234,-55.59C245.71,-47.59 262.76,-35.93 276.5,-26.54"/>
<polygon fill="#63b8ff" stroke="#63b8ff" points="278.09,-29.01 284.37,-20.48 274.14,-23.23 278.09,-29.01"/>
</a>
</g>
</g>
<!-- Node8&#45;&gt;Node7 -->
<g id="edge10_Node000008_Node000007" class="edge">
<title>Node8&#45;&gt;Node7</title>
<g id="a_edge10_Node000008_Node000007"><a xlink:title=" ">
<path fill="none" stroke="#63b8ff" d="M212.23,-55.59C205.89,-48.16 196.88,-37.58 189.22,-28.58"/>
<polygon fill="#63b8ff" stroke="#63b8ff" points="191.31,-26.64 182.16,-21.3 185.98,-31.18 191.31,-26.64"/>
</a>
</g>
</g>
<!-- Node9&#45;&gt;Node5 -->
<g id="edge12_Node000009_Node000005" class="edge">
<title>Node9&#45;&gt;Node5</title>
<g id="a_edge12_Node000009_Node000005"><a xlink:title=" ">
<path fill="none" stroke="#63b8ff" d="M293.9,-111.7C300.48,-103.06 309.49,-89.52 313.24,-76 317.43,-60.86 313.21,-43.44 308.33,-30.45"/>
<polygon fill="#63b8ff" stroke="#63b8ff" points="311.18,-29.2 304.08,-21.34 304.73,-31.91 311.18,-29.2"/>
</a>
</g>
</g>
</g>
</svg>
</svg>

<style type='text/css'>
<![CDATA[
[data-mouse-over-selected='false'] { opacity: 0.7; }
[data-mouse-over-selected='true']  { opacity: 1.0; }
]]>
</style>
<script type="application/ecmascript"><![CDATA[
document.addEventListener('DOMContentLoaded', (event) => {
  highlightEdges();
  highlightAdjacentNodes();
});
]]></script>
</svg>
