<?xml version="1.0" encoding="UTF-8" standalone="no"?>
<!DOCTYPE svg PUBLIC "-//W3C//DTD SVG 1.1//EN"
 "http://www.w3.org/Graphics/SVG/1.1/DTD/svg11.dtd">
<!-- Generated by graphviz version 2.44.1 (20200629.0846)
 -->
<!-- Title: C:/Users/M70027/Documents/Projects/tp&#45;deployment/dspic33ch&#45;power&#45;totem&#45;pole&#45;demonstration&#45;application&#45;single&#45;phase_v2/dspic33ch_totem_pole_single_phase_secondary_IL.X/sources/driver/power_controller/drv_controller_TPBLPFC.h Pages: 1 -->
<svg width="589pt" height="236pt"
 viewBox="0.00 0.00 589.00 236.00" xmlns="http://www.w3.org/2000/svg" xmlns:xlink="http://www.w3.org/1999/xlink">
<g id="graph0" class="graph" transform="scale(1 1) rotate(0) translate(4 232)">
<title>C:/Users/M70027/Documents/Projects/tp&#45;deployment/dspic33ch&#45;power&#45;totem&#45;pole&#45;demonstration&#45;application&#45;single&#45;phase_v2/dspic33ch_totem_pole_single_phase_secondary_IL.X/sources/driver/power_controller/drv_controller_TPBLPFC.h</title>
<!-- Node1 -->
<g id="Node000001" class="node">
<title>Node1</title>
<g id="a_Node000001"><a xlink:title="This is the driver header file for the power controller.">
<polygon fill="#999999" stroke="#666666" points="294,-228 121,-228 121,-132 294,-132 294,-228"/>
<text text-anchor="start" x="129" y="-216" font-family="Helvetica,sans-Serif" font-size="10.00">C:/Users/M70027/Documents</text>
<text text-anchor="start" x="129" y="-205" font-family="Helvetica,sans-Serif" font-size="10.00">/Projects/tp&#45;deployment</text>
<text text-anchor="start" x="129" y="-194" font-family="Helvetica,sans-Serif" font-size="10.00">/dspic33ch&#45;power&#45;totem&#45;pole</text>
<text text-anchor="start" x="129" y="-183" font-family="Helvetica,sans-Serif" font-size="10.00">&#45;demonstration&#45;application</text>
<text text-anchor="start" x="129" y="-172" font-family="Helvetica,sans-Serif" font-size="10.00">&#45;single&#45;phase_v2/dspic33ch_totem</text>
<text text-anchor="start" x="129" y="-161" font-family="Helvetica,sans-Serif" font-size="10.00">_pole_single_phase_secondary_IL.X</text>
<text text-anchor="start" x="129" y="-150" font-family="Helvetica,sans-Serif" font-size="10.00">/sources/driver/power_controller</text>
<text text-anchor="middle" x="207.5" y="-139" font-family="Helvetica,sans-Serif" font-size="10.00">/drv_controller_TPBLPFC.h</text>
</a>
</g>
</g>
<!-- Node2 -->
<g id="Node000002" class="node">
<title>Node2</title>
<g id="a_Node000002"><a xlink:title=" ">
<polygon fill="#e0e0e0" stroke="#999999" points="35,-19 0,-19 0,0 35,0 35,-19"/>
<text text-anchor="middle" x="17.5" y="-7" font-family="Helvetica,sans-Serif" font-size="10.00">xc.h</text>
</a>
</g>
</g>
<!-- Node1&#45;&gt;Node2 -->
<g id="edge1_Node000001_Node000002" class="edge">
<title>Node1&#45;&gt;Node2</title>
<g id="a_edge1_Node000001_Node000002"><a xlink:title=" ">
<path fill="none" stroke="#63b8ff" d="M120.81,-156.47C88.45,-143.82 54.3,-124.63 32.5,-96 17.83,-76.74 15.67,-47.98 16.09,-29.23"/>
<polygon fill="#63b8ff" stroke="#63b8ff" points="19.59,-29.18 16.6,-19.02 12.6,-28.84 19.59,-29.18"/>
</a>
</g>
</g>
<!-- Node3 -->
<g id="Node000003" class="node">
<title>Node3</title>
<g id="a_Node000003"><a xlink:href="a00380.html" target="_top" xlink:title="Generated by the Microchip Digital Compensator Design Tool (DCDT).">
<polygon fill="white" stroke="#666666" points="124,-85 41,-85 41,-66 124,-66 124,-85"/>
<text text-anchor="middle" x="82.5" y="-73" font-family="Helvetica,sans-Serif" font-size="10.00">smps_control.h</text>
</a>
</g>
</g>
<!-- Node1&#45;&gt;Node3 -->
<g id="edge2_Node000001_Node000003" class="edge">
<title>Node1&#45;&gt;Node3</title>
<g id="a_edge2_Node000001_Node000003"><a xlink:title=" ">
<path fill="none" stroke="#63b8ff" d="M150.12,-131.95C132.22,-117.27 113.76,-102.13 100.65,-91.39"/>
<polygon fill="#63b8ff" stroke="#63b8ff" points="102.83,-88.65 92.88,-85.01 98.39,-94.06 102.83,-88.65"/>
</a>
</g>
</g>
<!-- Node5 -->
<g id="Node000005" class="node">
<title>Node5</title>
<g id="a_Node000005"><a xlink:title=" ">
<polygon fill="#e0e0e0" stroke="#999999" points="273,-96 142,-96 142,-55 273,-55 273,-96"/>
<text text-anchor="start" x="150" y="-84" font-family="Helvetica,sans-Serif" font-size="10.00">../dcdt/icomp1lv/dcdt</text>
<text text-anchor="start" x="150" y="-73" font-family="Helvetica,sans-Serif" font-size="10.00">_generated_code/icomp1lv</text>
<text text-anchor="middle" x="207.5" y="-62" font-family="Helvetica,sans-Serif" font-size="10.00">_dcdt.h</text>
</a>
</g>
</g>
<!-- Node1&#45;&gt;Node5 -->
<g id="edge5_Node000001_Node000005" class="edge">
<title>Node1&#45;&gt;Node5</title>
<g id="a_edge5_Node000001_Node000005"><a xlink:title=" ">
<path fill="none" stroke="#63b8ff" d="M207.5,-131.95C207.5,-123.17 207.5,-114.22 207.5,-106.15"/>
<polygon fill="#63b8ff" stroke="#63b8ff" points="211,-106.13 207.5,-96.13 204,-106.13 211,-106.13"/>
</a>
</g>
</g>
<!-- Node6 -->
<g id="Node000006" class="node">
<title>Node6</title>
<g id="a_Node000006"><a xlink:title=" ">
<polygon fill="#e0e0e0" stroke="#999999" points="425.5,-96 291.5,-96 291.5,-55 425.5,-55 425.5,-96"/>
<text text-anchor="start" x="299.5" y="-84" font-family="Helvetica,sans-Serif" font-size="10.00">../dcdt/icomp1hv/dcdt</text>
<text text-anchor="start" x="299.5" y="-73" font-family="Helvetica,sans-Serif" font-size="10.00">_generated_code/icomp1hv</text>
<text text-anchor="middle" x="358.5" y="-62" font-family="Helvetica,sans-Serif" font-size="10.00">_dcdt.h</text>
</a>
</g>
</g>
<!-- Node1&#45;&gt;Node6 -->
<g id="edge6_Node000001_Node000006" class="edge">
<title>Node1&#45;&gt;Node6</title>
<g id="a_edge6_Node000001_Node000006"><a xlink:title=" ">
<path fill="none" stroke="#63b8ff" d="M276.81,-131.95C292.08,-121.59 307.68,-111 321.1,-101.88"/>
<polygon fill="#63b8ff" stroke="#63b8ff" points="323.28,-104.64 329.59,-96.13 319.35,-98.85 323.28,-104.64"/>
</a>
</g>
</g>
<!-- Node7 -->
<g id="Node000007" class="node">
<title>Node7</title>
<g id="a_Node000007"><a xlink:title=" ">
<polygon fill="#e0e0e0" stroke="#999999" points="581,-96 444,-96 444,-55 581,-55 581,-96"/>
<text text-anchor="start" x="452" y="-84" font-family="Helvetica,sans-Serif" font-size="10.00">../dcdt/vcomp1ph/dcdt</text>
<text text-anchor="start" x="452" y="-73" font-family="Helvetica,sans-Serif" font-size="10.00">_generated_code/vcomp1ph</text>
<text text-anchor="middle" x="512.5" y="-62" font-family="Helvetica,sans-Serif" font-size="10.00">_dcdt.h</text>
</a>
</g>
</g>
<!-- Node1&#45;&gt;Node7 -->
<g id="edge7_Node000001_Node000007" class="edge">
<title>Node1&#45;&gt;Node7</title>
<g id="a_edge7_Node000001_Node000007"><a xlink:title=" ">
<path fill="none" stroke="#63b8ff" d="M294.08,-149.9C341.83,-133.86 400.25,-114.22 444.66,-99.3"/>
<polygon fill="#63b8ff" stroke="#63b8ff" points="445.83,-102.6 454.19,-96.09 443.6,-95.96 445.83,-102.6"/>
</a>
</g>
</g>
<!-- Node3&#45;&gt;Node2 -->
<g id="edge3_Node000003_Node000002" class="edge">
<title>Node3&#45;&gt;Node2</title>
<g id="a_edge3_Node000003_Node000002"><a xlink:title=" ">
<path fill="none" stroke="#63b8ff" d="M73.73,-65.87C63.52,-55.81 46.42,-38.98 33.76,-26.51"/>
<polygon fill="#63b8ff" stroke="#63b8ff" points="36.13,-23.93 26.54,-19.41 31.21,-28.92 36.13,-23.93"/>
</a>
</g>
</g>
<!-- Node4 -->
<g id="Node000004" class="node">
<title>Node4</title>
<g id="a_Node000004"><a xlink:title=" ">
<polygon fill="#e0e0e0" stroke="#999999" points="107,-19 58,-19 58,0 107,0 107,-19"/>
<text text-anchor="middle" x="82.5" y="-7" font-family="Helvetica,sans-Serif" font-size="10.00">stdint.h</text>
</a>
</g>
</g>
<!-- Node3&#45;&gt;Node4 -->
<g id="edge4_Node000003_Node000004" class="edge">
<title>Node3&#45;&gt;Node4</title>
<g id="a_edge4_Node000003_Node000004"><a xlink:title=" ">
<path fill="none" stroke="#63b8ff" d="M82.5,-65.87C82.5,-56.66 82.5,-41.79 82.5,-29.77"/>
<polygon fill="#63b8ff" stroke="#63b8ff" points="86,-29.41 82.5,-19.41 79,-29.41 86,-29.41"/>
</a>
</g>
</g>
</g>
</svg>
