<?xml version="1.0" encoding="UTF-8" standalone="no"?>
<!DOCTYPE svg PUBLIC "-//W3C//DTD SVG 1.1//EN"
 "http://www.w3.org/Graphics/SVG/1.1/DTD/svg11.dtd">
<!-- Generated by graphviz version 2.44.1 (20200629.0846)
 -->
<!-- Title: Drv_PwrCtrl_TPBLPFC_Init Pages: 1 -->
<svg width="488pt" height="198pt"
 viewBox="0.00 0.00 488.00 198.00" xmlns="http://www.w3.org/2000/svg" xmlns:xlink="http://www.w3.org/1999/xlink">

<svg id="main" version="1.1" xmlns="http://www.w3.org/2000/svg" xmlns:xlink="http://www.w3.org/1999/xlink" xml:space="preserve">

<style type="text/css"><![CDATA[
.node, .edge {opacity: 0.7;}
.node.selected, .edge.selected {opacity: 1;}
.edge:hover path { stroke: red; }
.edge:hover polygon { stroke: red; fill: red; }
]]></style>
<script type="application/ecmascript" xlink:href="svg.min.js"/>
<svg id="graph" class="graph">
<g id="graph0" class="graph" transform="scale(1 1) rotate(0) translate(4 194)">
<title>Drv_PwrCtrl_TPBLPFC_Init</title>
<!-- Node1 -->
<g id="Node000001" class="node">
<title>Node1</title>
<g id="a_Node000001"><a xlink:title="initialization">
<polygon fill="#999999" stroke="#666666" points="134,-104.5 0,-104.5 0,-85.5 134,-85.5 134,-104.5"/>
<text text-anchor="middle" x="67" y="-92.5" font-family="Helvetica,sans-Serif" font-size="10.00">Drv_PwrCtrl_TPBLPFC_Init</text>
</a>
</g>
</g>
<!-- Node2 -->
<g id="Node000002" class="node">
<title>Node2</title>
<g id="a_Node000002"><a xlink:href="a00359.html#a46079d4255b0d0a571e9246e2fd8dd6f" target="_top" xlink:title="initialize current controller coefficient array(s)">
<polygon fill="white" stroke="#666666" points="292.5,-190 172.5,-190 172.5,-160 292.5,-160 292.5,-190"/>
<text text-anchor="start" x="180.5" y="-178" font-family="Helvetica,sans-Serif" font-size="10.00">CurrentController</text>
<text text-anchor="middle" x="232.5" y="-167" font-family="Helvetica,sans-Serif" font-size="10.00">_PwrCtrl_TPBLPFC_Init</text>
</a>
</g>
</g>
<!-- Node1&#45;&gt;Node2 -->
<g id="edge1_Node000001_Node000002" class="edge">
<title>Node1&#45;&gt;Node2</title>
<g id="a_edge1_Node000001_Node000002"><a xlink:title=" ">
<path fill="none" stroke="#63b8ff" d="M83.92,-104.59C103.71,-116.3 138.7,-136.38 170,-151 173.63,-152.7 177.42,-154.38 181.26,-156.02"/>
<polygon fill="#63b8ff" stroke="#63b8ff" points="180.25,-159.39 190.82,-159.99 182.93,-152.92 180.25,-159.39"/>
</a>
</g>
</g>
<!-- Node4 -->
<g id="Node000004" class="node">
<title>Node4</title>
<g id="a_Node000004"><a xlink:href="a00407.html#gaf368256a569a5a9e12f85f84d7d42287" target="_top" xlink:title="This inline function updates PWM Deadtime high register with the requested value for a specific PWM g...">
<polygon fill="white" stroke="#666666" points="295,-141.5 170,-141.5 170,-122.5 295,-122.5 295,-141.5"/>
<text text-anchor="middle" x="232.5" y="-129.5" font-family="Helvetica,sans-Serif" font-size="10.00">PWM_DeadTimeHighSet</text>
</a>
</g>
</g>
<!-- Node1&#45;&gt;Node4 -->
<g id="edge3_Node000001_Node000004" class="edge">
<title>Node1&#45;&gt;Node4</title>
<g id="a_edge3_Node000001_Node000004"><a xlink:title=" ">
<path fill="none" stroke="#63b8ff" d="M110.11,-104.53C131.19,-109.3 156.92,-115.12 179.26,-120.18"/>
<polygon fill="#63b8ff" stroke="#63b8ff" points="178.73,-123.65 189.25,-122.44 180.27,-116.82 178.73,-123.65"/>
</a>
</g>
</g>
<!-- Node5 -->
<g id="Node000005" class="node">
<title>Node5</title>
<g id="a_Node000005"><a xlink:href="a00407.html#ga124426b28426beb53948e9b57319ab4b" target="_top" xlink:title="This inline function updates PWM Deadtime low register with the requested value for a specific PWM ge...">
<polygon fill="white" stroke="#666666" points="293.5,-104.5 171.5,-104.5 171.5,-85.5 293.5,-85.5 293.5,-104.5"/>
<text text-anchor="middle" x="232.5" y="-92.5" font-family="Helvetica,sans-Serif" font-size="10.00">PWM_DeadTimeLowSet</text>
</a>
</g>
</g>
<!-- Node1&#45;&gt;Node5 -->
<g id="edge4_Node000001_Node000005" class="edge">
<title>Node1&#45;&gt;Node5</title>
<g id="a_edge4_Node000001_Node000005"><a xlink:title=" ">
<path fill="none" stroke="#63b8ff" d="M134.03,-95C142.98,-95 152.19,-95 161.21,-95"/>
<polygon fill="#63b8ff" stroke="#63b8ff" points="161.3,-98.5 171.3,-95 161.3,-91.5 161.3,-98.5"/>
</a>
</g>
</g>
<!-- Node6 -->
<g id="Node000006" class="node">
<title>Node6</title>
<g id="a_Node000006"><a xlink:href="a00407.html#gae78d4b93260f34902cf74a4870f48081" target="_top" xlink:title="This inline function enables the specific PWM generator selected by the argument PWM_GENERATOR.">
<polygon fill="white" stroke="#666666" points="292,-67.5 173,-67.5 173,-48.5 292,-48.5 292,-67.5"/>
<text text-anchor="middle" x="232.5" y="-55.5" font-family="Helvetica,sans-Serif" font-size="10.00">PWM_GeneratorEnable</text>
</a>
</g>
</g>
<!-- Node1&#45;&gt;Node6 -->
<g id="edge5_Node000001_Node000006" class="edge">
<title>Node1&#45;&gt;Node6</title>
<g id="a_edge5_Node000001_Node000006"><a xlink:title=" ">
<path fill="none" stroke="#63b8ff" d="M110.11,-85.47C131.19,-80.7 156.92,-74.88 179.26,-69.82"/>
<polygon fill="#63b8ff" stroke="#63b8ff" points="180.27,-73.18 189.25,-67.56 178.73,-66.35 180.27,-73.18"/>
</a>
</g>
</g>
<!-- Node7 -->
<g id="Node000007" class="node">
<title>Node7</title>
<g id="a_Node000007"><a xlink:href="a00359.html#a03f01aedf81f2d089607e8c412fce3bb" target="_top" xlink:title="initialize voltage controller coefficient array(s)">
<polygon fill="white" stroke="#666666" points="292.5,-30 172.5,-30 172.5,0 292.5,0 292.5,-30"/>
<text text-anchor="start" x="180.5" y="-18" font-family="Helvetica,sans-Serif" font-size="10.00">VoltageController</text>
<text text-anchor="middle" x="232.5" y="-7" font-family="Helvetica,sans-Serif" font-size="10.00">_PwrCtrl_TPBLPFC_Init</text>
</a>
</g>
</g>
<!-- Node1&#45;&gt;Node7 -->
<g id="edge6_Node000001_Node000007" class="edge">
<title>Node1&#45;&gt;Node7</title>
<g id="a_edge6_Node000001_Node000007"><a xlink:title=" ">
<path fill="none" stroke="#63b8ff" d="M84.32,-85.48C104.23,-74.05 139.06,-54.58 170,-40 174.27,-37.99 178.75,-35.98 183.26,-34.02"/>
<polygon fill="#63b8ff" stroke="#63b8ff" points="184.67,-37.23 192.51,-30.1 181.94,-30.78 184.67,-37.23"/>
</a>
</g>
</g>
<!-- Node3 -->
<g id="Node000003" class="node">
<title>Node3</title>
<g id="a_Node000003"><a xlink:href="a00380.html#a8d0d916c7a3ca172408fcded86a6baa2" target="_top" xlink:title=" ">
<polygon fill="white" stroke="#666666" points="480,-104.5 331,-104.5 331,-85.5 480,-85.5 480,-104.5"/>
<text text-anchor="middle" x="405.5" y="-92.5" font-family="Helvetica,sans-Serif" font-size="10.00">SMPS_Controller2P2ZInitialize</text>
</a>
</g>
</g>
<!-- Node2&#45;&gt;Node3 -->
<g id="edge2_Node000002_Node000003" class="edge">
<title>Node2&#45;&gt;Node3</title>
<g id="a_edge2_Node000002_Node000003"><a xlink:title=" ">
<path fill="none" stroke="#63b8ff" d="M273.77,-159.96C280.9,-157.1 288.2,-154.05 295,-151 323.84,-138.04 355.96,-121.33 377.91,-109.55"/>
<polygon fill="#63b8ff" stroke="#63b8ff" points="379.8,-112.51 386.94,-104.68 376.48,-106.35 379.8,-112.51"/>
</a>
</g>
</g>
<!-- Node7&#45;&gt;Node3 -->
<g id="edge7_Node000007_Node000003" class="edge">
<title>Node7&#45;&gt;Node3</title>
<g id="a_edge7_Node000007_Node000003"><a xlink:title=" ">
<path fill="none" stroke="#63b8ff" d="M271.76,-30C279.5,-33.19 287.55,-36.62 295,-40 323.52,-52.94 355.45,-69.18 377.44,-80.65"/>
<polygon fill="#63b8ff" stroke="#63b8ff" points="376.02,-83.86 386.5,-85.41 379.27,-77.66 376.02,-83.86"/>
</a>
</g>
</g>
</g>
</svg>
</svg>

<style type='text/css'>
<![CDATA[
[data-mouse-over-selected='false'] { opacity: 0.7; }
[data-mouse-over-selected='true']  { opacity: 1.0; }
]]>
</style>
<script type="application/ecmascript"><![CDATA[
document.addEventListener('DOMContentLoaded', (event) => {
  highlightEdges();
  highlightAdjacentNodes();
});
]]></script>
</svg>
