<?xml version="1.0" encoding="UTF-8" standalone="no"?>
<!DOCTYPE svg PUBLIC "-//W3C//DTD SVG 1.1//EN"
 "http://www.w3.org/Graphics/SVG/1.1/DTD/svg11.dtd">
<!-- Generated by graphviz version 2.44.1 (20200629.0846)
 -->
<!-- Title: C:/Users/M70027/Documents/Projects/tp&#45;deployment/dspic33ch&#45;power&#45;totem&#45;pole&#45;demonstration&#45;application&#45;single&#45;phase_v2/dspic33ch_totem_pole_single_phase_secondary_IL.X/sources/devices/dev_TPBLPFC_typedef.c Pages: 1 -->
<svg width="405pt" height="214pt"
 viewBox="0.00 0.00 404.50 214.00" xmlns="http://www.w3.org/2000/svg" xmlns:xlink="http://www.w3.org/1999/xlink">
<g id="graph0" class="graph" transform="scale(1 1) rotate(0) translate(4 210)">
<title>C:/Users/M70027/Documents/Projects/tp&#45;deployment/dspic33ch&#45;power&#45;totem&#45;pole&#45;demonstration&#45;application&#45;single&#45;phase_v2/dspic33ch_totem_pole_single_phase_secondary_IL.X/sources/devices/dev_TPBLPFC_typedef.c</title>
<!-- Node1 -->
<g id="Node000001" class="node">
<title>Node1</title>
<g id="a_Node000001"><a xlink:title="This is the typedef file for power controller.">
<polygon fill="#999999" stroke="#666666" points="293.5,-206 93.5,-206 93.5,-121 293.5,-121 293.5,-206"/>
<text text-anchor="start" x="101.5" y="-194" font-family="Helvetica,sans-Serif" font-size="10.00">C:/Users/M70027/Documents</text>
<text text-anchor="start" x="101.5" y="-183" font-family="Helvetica,sans-Serif" font-size="10.00">/Projects/tp&#45;deployment</text>
<text text-anchor="start" x="101.5" y="-172" font-family="Helvetica,sans-Serif" font-size="10.00">/dspic33ch&#45;power&#45;totem&#45;pole</text>
<text text-anchor="start" x="101.5" y="-161" font-family="Helvetica,sans-Serif" font-size="10.00">&#45;demonstration&#45;application</text>
<text text-anchor="start" x="101.5" y="-150" font-family="Helvetica,sans-Serif" font-size="10.00">&#45;single&#45;phase_v2/dspic33ch_totem</text>
<text text-anchor="start" x="101.5" y="-139" font-family="Helvetica,sans-Serif" font-size="10.00">_pole_single_phase_secondary_IL.X</text>
<text text-anchor="middle" x="193.5" y="-128" font-family="Helvetica,sans-Serif" font-size="10.00">/sources/devices/dev_TPBLPFC_typedef.c</text>
</a>
</g>
</g>
<!-- Node2 -->
<g id="Node000002" class="node">
<title>Node2</title>
<g id="a_Node000002"><a xlink:title=" ">
<polygon fill="#e0e0e0" stroke="#999999" points="113,-79.5 0,-79.5 0,-60.5 113,-60.5 113,-79.5"/>
<text text-anchor="middle" x="56.5" y="-67.5" font-family="Helvetica,sans-Serif" font-size="10.00">p33CH512MP506S1.h</text>
</a>
</g>
</g>
<!-- Node1&#45;&gt;Node2 -->
<g id="edge1_Node000001_Node000002" class="edge">
<title>Node1&#45;&gt;Node2</title>
<g id="a_edge1_Node000001_Node000002"><a xlink:title=" ">
<path fill="none" stroke="#63b8ff" d="M131.01,-120.77C112.03,-108.08 92.42,-94.99 78.08,-85.41"/>
<polygon fill="#63b8ff" stroke="#63b8ff" points="79.74,-82.32 69.49,-79.67 75.86,-88.14 79.74,-82.32"/>
</a>
</g>
</g>
<!-- Node3 -->
<g id="Node000003" class="node">
<title>Node3</title>
<g id="a_Node000003"><a xlink:href="a00344.html" target="_top" xlink:title="This is the typedef file for power controller.">
<polygon fill="white" stroke="#666666" points="256,-79.5 131,-79.5 131,-60.5 256,-60.5 256,-79.5"/>
<text text-anchor="middle" x="193.5" y="-67.5" font-family="Helvetica,sans-Serif" font-size="10.00">dev_TPBLPFC_typedef.h</text>
</a>
</g>
</g>
<!-- Node1&#45;&gt;Node3 -->
<g id="edge2_Node000001_Node000003" class="edge">
<title>Node1&#45;&gt;Node3</title>
<g id="a_edge2_Node000001_Node000003"><a xlink:title=" ">
<path fill="none" stroke="#63b8ff" d="M193.5,-120.77C193.5,-109.9 193.5,-98.72 193.5,-89.72"/>
<polygon fill="#63b8ff" stroke="#63b8ff" points="197,-89.67 193.5,-79.67 190,-89.67 197,-89.67"/>
</a>
</g>
</g>
<!-- Node6 -->
<g id="Node000006" class="node">
<title>Node6</title>
<g id="a_Node000006"><a xlink:title=" ">
<polygon fill="#e0e0e0" stroke="#999999" points="396.5,-85 274.5,-85 274.5,-55 396.5,-55 396.5,-85"/>
<text text-anchor="start" x="282.5" y="-73" font-family="Helvetica,sans-Serif" font-size="10.00">../../sources_common</text>
<text text-anchor="middle" x="335.5" y="-62" font-family="Helvetica,sans-Serif" font-size="10.00">/PFC_frameworkSetup.h</text>
</a>
</g>
</g>
<!-- Node1&#45;&gt;Node6 -->
<g id="edge5_Node000001_Node000006" class="edge">
<title>Node1&#45;&gt;Node6</title>
<g id="a_edge5_Node000001_Node000006"><a xlink:title=" ">
<path fill="none" stroke="#63b8ff" d="M258.27,-120.77C274.59,-110.25 291.35,-99.45 305.07,-90.61"/>
<polygon fill="#63b8ff" stroke="#63b8ff" points="307.1,-93.46 313.61,-85.1 303.31,-87.58 307.1,-93.46"/>
</a>
</g>
</g>
<!-- Node4 -->
<g id="Node000004" class="node">
<title>Node4</title>
<g id="a_Node000004"><a xlink:title=" ">
<polygon fill="#e0e0e0" stroke="#999999" points="181,-19 146,-19 146,0 181,0 181,-19"/>
<text text-anchor="middle" x="163.5" y="-7" font-family="Helvetica,sans-Serif" font-size="10.00">xc.h</text>
</a>
</g>
</g>
<!-- Node3&#45;&gt;Node4 -->
<g id="edge3_Node000003_Node000004" class="edge">
<title>Node3&#45;&gt;Node4</title>
<g id="a_edge3_Node000003_Node000004"><a xlink:title=" ">
<path fill="none" stroke="#63b8ff" d="M189.07,-60.37C184.73,-51.9 177.98,-38.74 172.51,-28.07"/>
<polygon fill="#63b8ff" stroke="#63b8ff" points="175.62,-26.47 167.94,-19.17 169.39,-29.66 175.62,-26.47"/>
</a>
</g>
</g>
<!-- Node5 -->
<g id="Node000005" class="node">
<title>Node5</title>
<g id="a_Node000005"><a xlink:title=" ">
<polygon fill="#e0e0e0" stroke="#999999" points="248,-19 199,-19 199,0 248,0 248,-19"/>
<text text-anchor="middle" x="223.5" y="-7" font-family="Helvetica,sans-Serif" font-size="10.00">stdint.h</text>
</a>
</g>
</g>
<!-- Node3&#45;&gt;Node5 -->
<g id="edge4_Node000003_Node000005" class="edge">
<title>Node3&#45;&gt;Node5</title>
<g id="a_edge4_Node000003_Node000005"><a xlink:title=" ">
<path fill="none" stroke="#63b8ff" d="M197.93,-60.37C202.27,-51.9 209.02,-38.74 214.49,-28.07"/>
<polygon fill="#63b8ff" stroke="#63b8ff" points="217.61,-29.66 219.06,-19.17 211.38,-26.47 217.61,-29.66"/>
</a>
</g>
</g>
</g>
</svg>
