<?xml version="1.0" encoding="UTF-8" standalone="no"?>
<!DOCTYPE svg PUBLIC "-//W3C//DTD SVG 1.1//EN"
 "http://www.w3.org/Graphics/SVG/1.1/DTD/svg11.dtd">
<!-- Generated by graphviz version 8.1.0 (20230707.0739)
 -->
<!-- Title: Drv_PwrCtrl_TPBLPFC_Init Pages: 1 -->
<svg width="486pt" height="204pt"
 viewBox="0.00 0.00 485.75 204.00" xmlns="http://www.w3.org/2000/svg" xmlns:xlink="http://www.w3.org/1999/xlink">
<g id="graph0" class="graph" transform="scale(1 1) rotate(0) translate(4 200)">
<title>Drv_PwrCtrl_TPBLPFC_Init</title>
<!-- Node1 -->
<g id="Node000001" class="node">
<title>Node1</title>
<g id="a_Node000001"><a xlink:title=" ">
<polygon fill="#999999" stroke="#666666" points="133,-108 0,-108 0,-88 133,-88 133,-108"/>
<text text-anchor="middle" x="66.5" y="-94.5" font-family="Helvetica,sans-Serif" font-size="10.00">Drv_PwrCtrl_TPBLPFC_Init</text>
</a>
</g>
</g>
<!-- Node2 -->
<g id="Node000002" class="node">
<title>Node2</title>
<g id="a_Node000002"><a xlink:href="a00353.html#a46079d4255b0d0a571e9246e2fd8dd6f" target="_top" xlink:title=" ">
<polygon fill="white" stroke="#666666" points="290.75,-196 171.25,-196 171.25,-164 290.75,-164 290.75,-196"/>
<text text-anchor="start" x="179.25" y="-182.5" font-family="Helvetica,sans-Serif" font-size="10.00">CurrentController</text>
<text text-anchor="middle" x="231" y="-170.5" font-family="Helvetica,sans-Serif" font-size="10.00">_PwrCtrl_TPBLPFC_Init</text>
</a>
</g>
</g>
<!-- Node1&#45;&gt;Node2 -->
<g id="edge1_Node000001_Node000002" class="edge">
<title>Node1&#45;&gt;Node2</title>
<g id="a_edge1_Node000001_Node000002"><a xlink:title=" ">
<path fill="none" stroke="#63b8ff" d="M84.4,-108.34C104.27,-120.29 138.43,-140.22 169,-155 171.94,-156.42 174.99,-157.84 178.08,-159.24"/>
<polygon fill="#63b8ff" stroke="#63b8ff" points="176.46,-162.79 187.03,-163.59 179.27,-156.37 176.46,-162.79"/>
</a>
</g>
</g>
<!-- Node4 -->
<g id="Node000004" class="node">
<title>Node4</title>
<g id="a_Node000004"><a xlink:href="a00401.html#gaf368256a569a5a9e12f85f84d7d42287" target="_top" xlink:title="This inline function updates PWM Deadtime high register with the requested value for a specific PWM g...">
<polygon fill="white" stroke="#666666" points="293,-146 169,-146 169,-126 293,-126 293,-146"/>
<text text-anchor="middle" x="231" y="-132.5" font-family="Helvetica,sans-Serif" font-size="10.00">PWM_DeadTimeHighSet</text>
</a>
</g>
</g>
<!-- Node1&#45;&gt;Node4 -->
<g id="edge3_Node000001_Node000004" class="edge">
<title>Node1&#45;&gt;Node4</title>
<g id="a_edge3_Node000001_Node000004"><a xlink:title=" ">
<path fill="none" stroke="#63b8ff" d="M112.33,-108.48C131.6,-112.99 154.32,-118.3 174.63,-123.05"/>
<polygon fill="#63b8ff" stroke="#63b8ff" points="173.78,-126.68 184.31,-125.55 175.37,-119.86 173.78,-126.68"/>
</a>
</g>
</g>
<!-- Node5 -->
<g id="Node000005" class="node">
<title>Node5</title>
<g id="a_Node000005"><a xlink:href="a00401.html#ga124426b28426beb53948e9b57319ab4b" target="_top" xlink:title="This inline function updates PWM Deadtime low register with the requested value for a specific PWM ge...">
<polygon fill="white" stroke="#666666" points="291.88,-108 170.12,-108 170.12,-88 291.88,-88 291.88,-108"/>
<text text-anchor="middle" x="231" y="-94.5" font-family="Helvetica,sans-Serif" font-size="10.00">PWM_DeadTimeLowSet</text>
</a>
</g>
</g>
<!-- Node1&#45;&gt;Node5 -->
<g id="edge4_Node000001_Node000005" class="edge">
<title>Node1&#45;&gt;Node5</title>
<g id="a_edge4_Node000001_Node000005"><a xlink:title=" ">
<path fill="none" stroke="#63b8ff" d="M133.13,-98C141.61,-98 150.33,-98 158.9,-98"/>
<polygon fill="#63b8ff" stroke="#63b8ff" points="158.64,-101.5 168.64,-98 158.64,-94.5 158.64,-101.5"/>
</a>
</g>
</g>
<!-- Node6 -->
<g id="Node000006" class="node">
<title>Node6</title>
<g id="a_Node000006"><a xlink:href="a00401.html#gae78d4b93260f34902cf74a4870f48081" target="_top" xlink:title="This inline function enables the specific PWM generator selected by the argument PWM_GENERATOR.">
<polygon fill="white" stroke="#666666" points="290.38,-70 171.62,-70 171.62,-50 290.38,-50 290.38,-70"/>
<text text-anchor="middle" x="231" y="-56.5" font-family="Helvetica,sans-Serif" font-size="10.00">PWM_GeneratorEnable</text>
</a>
</g>
</g>
<!-- Node1&#45;&gt;Node6 -->
<g id="edge5_Node000001_Node000006" class="edge">
<title>Node1&#45;&gt;Node6</title>
<g id="a_edge5_Node000001_Node000006"><a xlink:title=" ">
<path fill="none" stroke="#63b8ff" d="M112.33,-87.52C131.6,-83.01 154.32,-77.7 174.63,-72.95"/>
<polygon fill="#63b8ff" stroke="#63b8ff" points="175.37,-76.14 184.31,-70.45 173.78,-69.32 175.37,-76.14"/>
</a>
</g>
</g>
<!-- Node7 -->
<g id="Node000007" class="node">
<title>Node7</title>
<g id="a_Node000007"><a xlink:href="a00353.html#a03f01aedf81f2d089607e8c412fce3bb" target="_top" xlink:title=" ">
<polygon fill="white" stroke="#666666" points="290.75,-32 171.25,-32 171.25,0 290.75,0 290.75,-32"/>
<text text-anchor="start" x="179.25" y="-18.5" font-family="Helvetica,sans-Serif" font-size="10.00">VoltageController</text>
<text text-anchor="middle" x="231" y="-6.5" font-family="Helvetica,sans-Serif" font-size="10.00">_PwrCtrl_TPBLPFC_Init</text>
</a>
</g>
</g>
<!-- Node1&#45;&gt;Node7 -->
<g id="edge6_Node000001_Node000007" class="edge">
<title>Node1&#45;&gt;Node7</title>
<g id="a_edge6_Node000001_Node000007"><a xlink:title=" ">
<path fill="none" stroke="#63b8ff" d="M84.4,-87.66C104.27,-75.71 138.43,-55.78 169,-41 171.94,-39.58 174.99,-38.16 178.08,-36.76"/>
<polygon fill="#63b8ff" stroke="#63b8ff" points="179.27,-39.63 187.03,-32.41 176.46,-33.21 179.27,-39.63"/>
</a>
</g>
</g>
<!-- Node3 -->
<g id="Node000003" class="node">
<title>Node3</title>
<g id="a_Node000003"><a xlink:href="a00374.html#a8d0d916c7a3ca172408fcded86a6baa2" target="_top" xlink:title=" ">
<polygon fill="white" stroke="#666666" points="477.75,-108 329,-108 329,-88 477.75,-88 477.75,-108"/>
<text text-anchor="middle" x="403.38" y="-94.5" font-family="Helvetica,sans-Serif" font-size="10.00">SMPS_Controller2P2ZInitialize</text>
</a>
</g>
</g>
<!-- Node2&#45;&gt;Node3 -->
<g id="edge2_Node000002_Node000003" class="edge">
<title>Node2&#45;&gt;Node3</title>
<g id="a_edge2_Node000002_Node000003"><a xlink:title=" ">
<path fill="none" stroke="#63b8ff" d="M273.57,-163.56C280.11,-160.8 286.77,-157.89 293,-155 321,-142 352.15,-125.56 374.02,-113.69"/>
<polygon fill="#63b8ff" stroke="#63b8ff" points="375.57,-116.28 382.67,-108.42 372.21,-110.14 375.57,-116.28"/>
</a>
</g>
</g>
<!-- Node7&#45;&gt;Node3 -->
<g id="edge7_Node000007_Node000003" class="edge">
<title>Node7&#45;&gt;Node3</title>
<g id="a_edge7_Node000007_Node000003"><a xlink:title=" ">
<path fill="none" stroke="#63b8ff" d="M273.57,-32.44C280.11,-35.2 286.77,-38.11 293,-41 321,-54 352.15,-70.44 374.02,-82.31"/>
<polygon fill="#63b8ff" stroke="#63b8ff" points="372.21,-85.86 382.67,-87.58 375.57,-79.72 372.21,-85.86"/>
</a>
</g>
</g>
</g>
</svg>
