<?xml version="1.0" encoding="UTF-8" standalone="no"?>
<!DOCTYPE svg PUBLIC "-//W3C//DTD SVG 1.1//EN"
 "http://www.w3.org/Graphics/SVG/1.1/DTD/svg11.dtd">
<!-- Generated by graphviz version 8.1.0 (20230707.0739)
 -->
<!-- Title: _ADCAN1Interrupt Pages: 1 -->
<svg width="744pt" height="430pt"
 viewBox="0.00 0.00 744.25 430.06" xmlns="http://www.w3.org/2000/svg" xmlns:xlink="http://www.w3.org/1999/xlink">
<g id="graph0" class="graph" transform="scale(1 1) rotate(0) translate(4 426.06)">
<title>_ADCAN1Interrupt</title>
<!-- Node1 -->
<g id="Node000001" class="node">
<title>Node1</title>
<g id="a_Node000001"><a xlink:title=" ">
<polygon fill="#999999" stroke="#666666" points="95.5,-251.06 0,-251.06 0,-231.06 95.5,-231.06 95.5,-251.06"/>
<text text-anchor="middle" x="47.75" y="-237.56" font-family="Helvetica,sans-Serif" font-size="10.00">_ADCAN1Interrupt</text>
</a>
</g>
</g>
<!-- Node2 -->
<g id="Node000002" class="node">
<title>Node2</title>
<g id="a_Node000002"><a xlink:href="a00365.html#a87fa9190951df7c866d828b8ad7b526b" target="_top" xlink:title=" ">
<polygon fill="white" stroke="#666666" points="256.25,-232.06 131.5,-232.06 131.5,-212.06 256.25,-212.06 256.25,-232.06"/>
<text text-anchor="middle" x="193.88" y="-218.56" font-family="Helvetica,sans-Serif" font-size="10.00">Application_handler_PH2</text>
</a>
</g>
</g>
<!-- Node1&#45;&gt;Node2 -->
<g id="edge1_Node000001_Node000002" class="edge">
<title>Node1&#45;&gt;Node2</title>
<g id="a_edge1_Node000001_Node000002"><a xlink:title=" ">
<path fill="none" stroke="#63b8ff" d="M95.94,-234.84C103.76,-233.81 112.03,-232.72 120.3,-231.63"/>
<polygon fill="#63b8ff" stroke="#63b8ff" points="120.69,-234.97 130.15,-230.2 119.78,-228.03 120.69,-234.97"/>
</a>
</g>
</g>
<!-- Node18 -->
<g id="Node000018" class="node">
<title>Node18</title>
<g id="a_Node000018"><a xlink:href="a00359.html#a315b78111431dff7a91b13e42f9133b1" target="_top" xlink:title=" ">
<polygon fill="white" stroke="#666666" points="554.5,-422.06 414,-422.06 414,-402.06 554.5,-402.06 554.5,-422.06"/>
<text text-anchor="middle" x="484.25" y="-408.56" font-family="Helvetica,sans-Serif" font-size="10.00">Drv_PwrCtrl_TPBLPFC_Stop</text>
</a>
</g>
</g>
<!-- Node1&#45;&gt;Node18 -->
<g id="edge32_Node000001_Node000018" class="edge">
<title>Node1&#45;&gt;Node18</title>
<g id="a_edge32_Node000001_Node000018"><a xlink:title=" ">
<path fill="none" stroke="#63b8ff" d="M69.3,-251.48C122.77,-278.25 271.14,-350.31 401.25,-393.06 407.63,-395.15 414.36,-397.11 421.11,-398.91"/>
<polygon fill="#63b8ff" stroke="#63b8ff" points="420.13,-402.52 430.68,-401.6 421.85,-395.74 420.13,-402.52"/>
</a>
</g>
</g>
<!-- Node3 -->
<g id="Node000003" class="node">
<title>Node3</title>
<g id="a_Node000003"><a xlink:href="a00365.html#a647fd6dacbfbcebe49cc34111a01493b" target="_top" xlink:title=" ">
<polygon fill="white" stroke="#666666" points="365.25,-232.06 292.25,-232.06 292.25,-212.06 365.25,-212.06 365.25,-232.06"/>
<text text-anchor="middle" x="328.75" y="-218.56" font-family="Helvetica,sans-Serif" font-size="10.00">Handler_PHx</text>
</a>
</g>
</g>
<!-- Node2&#45;&gt;Node3 -->
<g id="edge2_Node000002_Node000003" class="edge">
<title>Node2&#45;&gt;Node3</title>
<g id="a_edge2_Node000002_Node000003"><a xlink:title=" ">
<path fill="none" stroke="#63b8ff" d="M256.64,-222.06C264.84,-222.06 273.14,-222.06 281.03,-222.06"/>
<polygon fill="#63b8ff" stroke="#63b8ff" points="280.85,-225.56 290.85,-222.06 280.85,-218.56 280.85,-225.56"/>
</a>
</g>
</g>
<!-- Node4 -->
<g id="Node000004" class="node">
<title>Node4</title>
<g id="a_Node000004"><a xlink:href="a00365.html#af6c4a58221bd490ef4d2084547601a10" target="_top" xlink:title=" ">
<polygon fill="white" stroke="#666666" points="561.62,-232.06 406.88,-232.06 406.88,-212.06 561.62,-212.06 561.62,-232.06"/>
<text text-anchor="middle" x="484.25" y="-218.56" font-family="Helvetica,sans-Serif" font-size="10.00">Adaptive_Currentcontroller_Gain</text>
</a>
</g>
</g>
<!-- Node3&#45;&gt;Node4 -->
<g id="edge3_Node000003_Node000004" class="edge">
<title>Node3&#45;&gt;Node4</title>
<g id="a_edge3_Node000003_Node000004"><a xlink:title=" ">
<path fill="none" stroke="#63b8ff" d="M365.74,-222.06C374.98,-222.06 385.32,-222.06 395.95,-222.06"/>
<polygon fill="#63b8ff" stroke="#63b8ff" points="395.63,-225.56 405.63,-222.06 395.63,-218.56 395.63,-225.56"/>
</a>
</g>
</g>
<!-- Node5 -->
<g id="Node000005" class="node">
<title>Node5</title>
<g id="a_Node000005"><a xlink:href="a00365.html#a51a90512029dd0d15f013ea8548c5e7c" target="_top" xlink:title=" ">
<polygon fill="white" stroke="#666666" points="527.88,-384.06 440.62,-384.06 440.62,-364.06 527.88,-364.06 527.88,-384.06"/>
<text text-anchor="middle" x="484.25" y="-370.56" font-family="Helvetica,sans-Serif" font-size="10.00">BurstMode_PHx</text>
</a>
</g>
</g>
<!-- Node3&#45;&gt;Node5 -->
<g id="edge4_Node000003_Node000005" class="edge">
<title>Node3&#45;&gt;Node5</title>
<g id="a_edge4_Node000003_Node000005"><a xlink:title=" ">
<path fill="none" stroke="#63b8ff" d="M332.14,-232.27C338.59,-257.41 358.76,-322.58 401.25,-355.06 409.52,-361.38 419.54,-365.66 429.7,-368.53"/>
<polygon fill="#63b8ff" stroke="#63b8ff" points="428.72,-372.14 439.26,-371.05 430.34,-365.33 428.72,-372.14"/>
</a>
</g>
</g>
<!-- Node8 -->
<g id="Node000008" class="node">
<title>Node8</title>
<g id="a_Node000008"><a xlink:href="a00365.html#a69847930c99b34bceb7165143cd28b92" target="_top" xlink:title=" ">
<polygon fill="white" stroke="#666666" points="515.12,-194.06 453.38,-194.06 453.38,-174.06 515.12,-174.06 515.12,-194.06"/>
<text text-anchor="middle" x="484.25" y="-180.56" font-family="Helvetica,sans-Serif" font-size="10.00">CCM_PHx</text>
</a>
</g>
</g>
<!-- Node3&#45;&gt;Node8 -->
<g id="edge7_Node000003_Node000008" class="edge">
<title>Node3&#45;&gt;Node8</title>
<g id="a_edge7_Node000003_Node000008"><a xlink:title=" ">
<path fill="none" stroke="#63b8ff" d="M365.7,-212.26C377.05,-209.24 389.66,-205.94 401.25,-203.06 414.66,-199.72 429.34,-196.26 442.54,-193.22"/>
<polygon fill="#63b8ff" stroke="#63b8ff" points="443.24,-196.42 452.21,-190.78 441.68,-189.6 443.24,-196.42"/>
</a>
</g>
</g>
<!-- Node11 -->
<g id="Node000011" class="node">
<title>Node11</title>
<g id="a_Node000011"><a xlink:href="a00365.html#a02e735cc5f9ec0075b4b0157326fd3db" target="_top" xlink:title=" ">
<polygon fill="white" stroke="#666666" points="554.88,-346.06 413.62,-346.06 413.62,-326.06 554.88,-326.06 554.88,-346.06"/>
<text text-anchor="middle" x="484.25" y="-332.56" font-family="Helvetica,sans-Serif" font-size="10.00">DutyCycleFeedForward_PHx</text>
</a>
</g>
</g>
<!-- Node3&#45;&gt;Node11 -->
<g id="edge12_Node000003_Node000011" class="edge">
<title>Node3&#45;&gt;Node11</title>
<g id="a_edge12_Node000003_Node000011"><a xlink:title=" ">
<path fill="none" stroke="#63b8ff" d="M334.54,-232.54C344.17,-252.37 367.85,-295.34 401.25,-317.06 403.55,-318.56 405.96,-319.94 408.45,-321.21"/>
<polygon fill="#63b8ff" stroke="#63b8ff" points="406.79,-324.75 417.35,-325.6 409.63,-318.35 406.79,-324.75"/>
</a>
</g>
</g>
<!-- Node12 -->
<g id="Node000012" class="node">
<title>Node12</title>
<g id="a_Node000012"><a xlink:href="a00401.html#ga37968a783e44cd80643478d2b559dbf4" target="_top" xlink:title="This inline function sets the PWM generator specific duty cycle register.">
<polygon fill="white" stroke="#666666" points="722.75,-52.06 616.75,-52.06 616.75,-32.06 722.75,-32.06 722.75,-52.06"/>
<text text-anchor="middle" x="669.75" y="-38.56" font-family="Helvetica,sans-Serif" font-size="10.00">PWM_DutyCycleSet</text>
</a>
</g>
</g>
<!-- Node3&#45;&gt;Node12 -->
<g id="edge13_Node000003_Node000012" class="edge">
<title>Node3&#45;&gt;Node12</title>
<g id="a_edge13_Node000003_Node000012"><a xlink:title=" ">
<path fill="none" stroke="#63b8ff" d="M329.78,-211.6C330.53,-177.82 337.99,-71.24 401.25,-27.06 471.68,22.13 579.71,-7.46 634.44,-27.76"/>
<polygon fill="#63b8ff" stroke="#63b8ff" points="633.05,-31.36 643.64,-31.67 635.56,-24.83 633.05,-31.36"/>
</a>
</g>
</g>
<!-- Node13 -->
<g id="Node000013" class="node">
<title>Node13</title>
<g id="a_Node000013"><a xlink:href="a00374.html#ac4c8852561395f2969c08ff062325e03" target="_top" xlink:title=" ">
<polygon fill="white" stroke="#666666" points="556.38,-308.06 412.12,-308.06 412.12,-288.06 556.38,-288.06 556.38,-308.06"/>
<text text-anchor="middle" x="484.25" y="-294.56" font-family="Helvetica,sans-Serif" font-size="10.00">SMPS_Controller2P2ZUpdate</text>
</a>
</g>
</g>
<!-- Node3&#45;&gt;Node13 -->
<g id="edge14_Node000003_Node000013" class="edge">
<title>Node3&#45;&gt;Node13</title>
<g id="a_edge14_Node000003_Node000013"><a xlink:title=" ">
<path fill="none" stroke="#63b8ff" d="M339.4,-232.15C352.29,-245.02 376.38,-267.03 401.25,-279.06 405.25,-280.99 409.45,-282.73 413.75,-284.3"/>
<polygon fill="#63b8ff" stroke="#63b8ff" points="412.33,-287.85 422.93,-287.65 414.52,-281.2 412.33,-287.85"/>
</a>
</g>
</g>
<!-- Node14 -->
<g id="Node000014" class="node">
<title>Node14</title>
<g id="a_Node000014"><a xlink:href="a00365.html#ad3476b7cd98e6a22a65e1d89b7a59ea5" target="_top" xlink:title=" ">
<polygon fill="white" stroke="#666666" points="538.75,-68.06 429.75,-68.06 429.75,-36.06 538.75,-36.06 538.75,-68.06"/>
<text text-anchor="start" x="437.75" y="-54.56" font-family="Helvetica,sans-Serif" font-size="10.00">SoftstartAfterZC_PHx</text>
<text text-anchor="middle" x="484.25" y="-42.56" font-family="Helvetica,sans-Serif" font-size="10.00">_GTIMode</text>
</a>
</g>
</g>
<!-- Node3&#45;&gt;Node14 -->
<g id="edge15_Node000003_Node000014" class="edge">
<title>Node3&#45;&gt;Node14</title>
<g id="a_edge15_Node000003_Node000014"><a xlink:title=" ">
<path fill="none" stroke="#63b8ff" d="M331.82,-211.91C337.74,-185.57 357.19,-114.5 401.25,-77.06 406.66,-72.46 412.9,-68.71 419.48,-65.65"/>
<polygon fill="#63b8ff" stroke="#63b8ff" points="420.36,-68.66 428.29,-61.64 417.71,-62.18 420.36,-68.66"/>
</a>
</g>
</g>
<!-- Node15 -->
<g id="Node000015" class="node">
<title>Node15</title>
<g id="a_Node000015"><a xlink:href="a00365.html#a3e7091905b384bca668f6f12a50834f4" target="_top" xlink:title=" ">
<polygon fill="white" stroke="#666666" points="538.75,-118.06 429.75,-118.06 429.75,-86.06 538.75,-86.06 538.75,-118.06"/>
<text text-anchor="start" x="437.75" y="-104.56" font-family="Helvetica,sans-Serif" font-size="10.00">SoftstartAfterZC_PHx</text>
<text text-anchor="middle" x="484.25" y="-92.56" font-family="Helvetica,sans-Serif" font-size="10.00">_PFCMode</text>
</a>
</g>
</g>
<!-- Node3&#45;&gt;Node15 -->
<g id="edge21_Node000003_Node000015" class="edge">
<title>Node3&#45;&gt;Node15</title>
<g id="a_edge21_Node000003_Node000015"><a xlink:title=" ">
<path fill="none" stroke="#63b8ff" d="M334.68,-211.78C344.55,-192.3 368.61,-149.91 401.25,-127.06 406.77,-123.19 412.9,-119.91 419.26,-117.13"/>
<polygon fill="#63b8ff" stroke="#63b8ff" points="420.35,-120.07 428.38,-113.16 417.79,-113.56 420.35,-120.07"/>
</a>
</g>
</g>
<!-- Node16 -->
<g id="Node000016" class="node">
<title>Node16</title>
<g id="a_Node000016"><a xlink:href="a00374.html#a4fd6e889896907ceaae34b73435d5627" target="_top" xlink:title=" ">
<polygon fill="white" stroke="#666666" points="567.25,-270.06 401.25,-270.06 401.25,-250.06 567.25,-250.06 567.25,-270.06"/>
<text text-anchor="middle" x="484.25" y="-256.56" font-family="Helvetica,sans-Serif" font-size="10.00">XFT_SMPS_Controller2P2ZUpdate</text>
</a>
</g>
</g>
<!-- Node3&#45;&gt;Node16 -->
<g id="edge27_Node000003_Node000016" class="edge">
<title>Node3&#45;&gt;Node16</title>
<g id="a_edge27_Node000003_Node000016"><a xlink:title=" ">
<path fill="none" stroke="#63b8ff" d="M365.7,-231.85C377.05,-234.88 389.66,-238.18 401.25,-241.06 409.33,-243.07 417.87,-245.12 426.27,-247.1"/>
<polygon fill="#63b8ff" stroke="#63b8ff" points="425.25,-250.69 435.79,-249.56 426.85,-243.88 425.25,-250.69"/>
</a>
</g>
</g>
<!-- Node17 -->
<g id="Node000017" class="node">
<title>Node17</title>
<g id="a_Node000017"><a xlink:href="a00365.html#a9d01eea56aae5f1437eb541a321277cc" target="_top" xlink:title=" ">
<polygon fill="white" stroke="#666666" points="526.38,-156.06 442.12,-156.06 442.12,-136.06 526.38,-136.06 526.38,-156.06"/>
<text text-anchor="middle" x="484.25" y="-142.56" font-family="Helvetica,sans-Serif" font-size="10.00">ZeroCross_PHx</text>
</a>
</g>
</g>
<!-- Node3&#45;&gt;Node17 -->
<g id="edge28_Node000003_Node000017" class="edge">
<title>Node3&#45;&gt;Node17</title>
<g id="a_edge28_Node000003_Node000017"><a xlink:title=" ">
<path fill="none" stroke="#63b8ff" d="M339.4,-211.96C352.29,-199.09 376.38,-177.08 401.25,-165.06 410.62,-160.53 421.13,-157.04 431.42,-154.38"/>
<polygon fill="#63b8ff" stroke="#63b8ff" points="432.06,-157.59 441,-151.89 430.46,-150.77 432.06,-157.59"/>
</a>
</g>
</g>
<!-- Node6 -->
<g id="Node000006" class="node">
<title>Node6</title>
<g id="a_Node000006"><a xlink:href="a00401.html#ga531b59d8823e3ebda2da60f48582bcf3" target="_top" xlink:title="This inline function enables PWM override on PWMH output for specific PWM generator selected by the a...">
<polygon fill="white" stroke="#666666" points="735.12,-166.06 604.38,-166.06 604.38,-146.06 735.12,-146.06 735.12,-166.06"/>
<text text-anchor="middle" x="669.75" y="-152.56" font-family="Helvetica,sans-Serif" font-size="10.00">PWM_OverrideHighEnable</text>
</a>
</g>
</g>
<!-- Node5&#45;&gt;Node6 -->
<g id="edge5_Node000005_Node000006" class="edge">
<title>Node5&#45;&gt;Node6</title>
<g id="a_edge5_Node000005_Node000006"><a xlink:title=" ">
<path fill="none" stroke="#63b8ff" d="M528.15,-373.17C542.34,-370.74 557.07,-365.55 567.25,-355.06 624.06,-296.5 548.06,-235.14 603.25,-175.06 603.93,-174.31 604.64,-173.6 605.38,-172.91"/>
<polygon fill="#63b8ff" stroke="#63b8ff" points="607.08,-175.27 613.08,-166.54 602.94,-169.62 607.08,-175.27"/>
</a>
</g>
</g>
<!-- Node7 -->
<g id="Node000007" class="node">
<title>Node7</title>
<g id="a_Node000007"><a xlink:href="a00401.html#ga2548ca8feda75ba6ab784280679da6ae" target="_top" xlink:title="This inline function enables PWM override on PWML output for specific PWM generator selected by the a...">
<polygon fill="white" stroke="#666666" points="734,-204.06 605.5,-204.06 605.5,-184.06 734,-184.06 734,-204.06"/>
<text text-anchor="middle" x="669.75" y="-190.56" font-family="Helvetica,sans-Serif" font-size="10.00">PWM_OverrideLowEnable</text>
</a>
</g>
</g>
<!-- Node5&#45;&gt;Node7 -->
<g id="edge6_Node000005_Node000007" class="edge">
<title>Node5&#45;&gt;Node7</title>
<g id="a_edge6_Node000005_Node000007"><a xlink:title=" ">
<path fill="none" stroke="#63b8ff" d="M528.33,-370.51C541.73,-367.79 555.94,-363.1 567.25,-355.06 617.82,-319.11 648.81,-249.28 661.74,-214.61"/>
<polygon fill="#63b8ff" stroke="#63b8ff" points="665.36,-215.89 665.43,-205.3 658.77,-213.53 665.36,-215.89"/>
</a>
</g>
</g>
<!-- Node8&#45;&gt;Node6 -->
<g id="edge9_Node000008_Node000006" class="edge">
<title>Node8&#45;&gt;Node6</title>
<g id="a_edge9_Node000008_Node000006"><a xlink:title=" ">
<path fill="none" stroke="#63b8ff" d="M515.55,-179.43C536.76,-176.2 566.08,-171.72 593.39,-167.56"/>
<polygon fill="#63b8ff" stroke="#63b8ff" points="593.78,-170.89 603.14,-165.92 592.72,-163.97 593.78,-170.89"/>
</a>
</g>
</g>
<!-- Node8&#45;&gt;Node7 -->
<g id="edge11_Node000008_Node000007" class="edge">
<title>Node8&#45;&gt;Node7</title>
<g id="a_edge11_Node000008_Node000007"><a xlink:title=" ">
<path fill="none" stroke="#63b8ff" d="M515.55,-185.71C537.03,-186.88 566.82,-188.5 594.43,-190.01"/>
<polygon fill="#63b8ff" stroke="#63b8ff" points="594.11,-193.55 604.28,-190.6 594.49,-186.56 594.11,-193.55"/>
</a>
</g>
</g>
<!-- Node9 -->
<g id="Node000009" class="node">
<title>Node9</title>
<g id="a_Node000009"><a xlink:href="a00401.html#ga957b002605bfb2239a26f174808b2ad8" target="_top" xlink:title="This inline function disables PWM override on PWMH output for specific PWM generator selected by the ...">
<polygon fill="white" stroke="#666666" points="736.25,-90.06 603.25,-90.06 603.25,-70.06 736.25,-70.06 736.25,-90.06"/>
<text text-anchor="middle" x="669.75" y="-76.56" font-family="Helvetica,sans-Serif" font-size="10.00">PWM_OverrideHighDisable</text>
</a>
</g>
</g>
<!-- Node8&#45;&gt;Node9 -->
<g id="edge8_Node000008_Node000009" class="edge">
<title>Node8&#45;&gt;Node9</title>
<g id="a_edge8_Node000008_Node000009"><a xlink:title=" ">
<path fill="none" stroke="#63b8ff" d="M515.47,-183C532.17,-181.05 552.47,-176.28 567.25,-165.06 593.86,-144.85 577.2,-119.99 603.25,-99.06 604.71,-97.89 606.24,-96.78 607.82,-95.75"/>
<polygon fill="#63b8ff" stroke="#63b8ff" points="609.29,-98.4 616.41,-90.55 605.95,-92.25 609.29,-98.4"/>
</a>
</g>
</g>
<!-- Node10 -->
<g id="Node000010" class="node">
<title>Node10</title>
<g id="a_Node000010"><a xlink:href="a00401.html#gabbedef830c43428e96c7d5125662a8a6" target="_top" xlink:title="This inline function disables PWM override on PWML output for specific PWM generator selected by the ...">
<polygon fill="white" stroke="#666666" points="735.12,-128.06 604.38,-128.06 604.38,-108.06 735.12,-108.06 735.12,-128.06"/>
<text text-anchor="middle" x="669.75" y="-114.56" font-family="Helvetica,sans-Serif" font-size="10.00">PWM_OverrideLowDisable</text>
</a>
</g>
</g>
<!-- Node8&#45;&gt;Node10 -->
<g id="edge10_Node000008_Node000010" class="edge">
<title>Node8&#45;&gt;Node10</title>
<g id="a_edge10_Node000008_Node000010"><a xlink:title=" ">
<path fill="none" stroke="#63b8ff" d="M515.51,-180.26C531.46,-177.47 551.02,-172.78 567.25,-165.06 585.55,-156.34 585.19,-146.27 603.25,-137.06 606.72,-135.29 610.39,-133.66 614.14,-132.16"/>
<polygon fill="#63b8ff" stroke="#63b8ff" points="614.98,-135.21 623.18,-128.51 612.59,-128.63 614.98,-135.21"/>
</a>
</g>
</g>
<!-- Node14&#45;&gt;Node6 -->
<g id="edge18_Node000014_Node000006" class="edge">
<title>Node14&#45;&gt;Node6</title>
<g id="a_edge18_Node000014_Node000006"><a xlink:title=" ">
<path fill="none" stroke="#63b8ff" d="M539.21,-62.32C549.19,-65.87 559.04,-70.64 567.25,-77.06 591.76,-96.2 578.61,-118.08 603.25,-137.06 604.94,-138.36 606.71,-139.57 608.55,-140.7"/>
<polygon fill="#63b8ff" stroke="#63b8ff" points="606.72,-144.21 617.21,-145.68 609.93,-137.99 606.72,-144.21"/>
</a>
</g>
</g>
<!-- Node14&#45;&gt;Node7 -->
<g id="edge20_Node000014_Node000007" class="edge">
<title>Node14&#45;&gt;Node7</title>
<g id="a_edge20_Node000014_Node000007"><a xlink:title=" ">
<path fill="none" stroke="#63b8ff" d="M538.95,-60.68C549.29,-64.35 559.36,-69.59 567.25,-77.06 600.97,-108.94 569.32,-143.41 603.25,-175.06 604.41,-176.14 605.64,-177.17 606.91,-178.13"/>
<polygon fill="#63b8ff" stroke="#63b8ff" points="604.56,-181.41 614.91,-183.7 608.24,-175.46 604.56,-181.41"/>
</a>
</g>
</g>
<!-- Node14&#45;&gt;Node9 -->
<g id="edge17_Node000014_Node000009" class="edge">
<title>Node14&#45;&gt;Node9</title>
<g id="a_edge17_Node000014_Node000009"><a xlink:title=" ">
<path fill="none" stroke="#63b8ff" d="M538.82,-60.23C555.54,-62.78 574.33,-65.65 592.3,-68.39"/>
<polygon fill="#63b8ff" stroke="#63b8ff" points="591.65,-71.99 602.07,-70.04 592.71,-65.07 591.65,-71.99"/>
</a>
</g>
</g>
<!-- Node14&#45;&gt;Node10 -->
<g id="edge19_Node000014_Node000010" class="edge">
<title>Node14&#45;&gt;Node10</title>
<g id="a_edge19_Node000014_Node000010"><a xlink:title=" ">
<path fill="none" stroke="#63b8ff" d="M538.9,-66.28C548.5,-69.42 558.29,-73.03 567.25,-77.06 584.35,-84.74 586.09,-91.49 603.25,-99.06 607.39,-100.89 611.76,-102.59 616.19,-104.17"/>
<polygon fill="#63b8ff" stroke="#63b8ff" points="614.98,-107.79 625.58,-107.62 617.19,-101.15 614.98,-107.79"/>
</a>
</g>
</g>
<!-- Node14&#45;&gt;Node12 -->
<g id="edge16_Node000014_Node000012" class="edge">
<title>Node14&#45;&gt;Node12</title>
<g id="a_edge16_Node000014_Node000012"><a xlink:title=" ">
<path fill="none" stroke="#63b8ff" d="M538.82,-49.14C559.72,-48 583.85,-46.68 605.59,-45.5"/>
<polygon fill="#63b8ff" stroke="#63b8ff" points="605.59,-48.95 615.38,-44.91 605.2,-41.96 605.59,-48.95"/>
</a>
</g>
</g>
<!-- Node15&#45;&gt;Node6 -->
<g id="edge24_Node000015_Node000006" class="edge">
<title>Node15&#45;&gt;Node6</title>
<g id="a_edge24_Node000015_Node000006"><a xlink:title=" ">
<path fill="none" stroke="#63b8ff" d="M538.98,-118.07C559.13,-124.05 582.23,-130.89 603.25,-137.06 609.36,-138.85 615.8,-140.73 622.16,-142.58"/>
<polygon fill="#63b8ff" stroke="#63b8ff" points="621.12,-146.21 631.7,-145.64 623.08,-139.49 621.12,-146.21"/>
</a>
</g>
</g>
<!-- Node15&#45;&gt;Node7 -->
<g id="edge26_Node000015_Node000007" class="edge">
<title>Node15&#45;&gt;Node7</title>
<g id="a_edge26_Node000015_Node000007"><a xlink:title=" ">
<path fill="none" stroke="#63b8ff" d="M539.13,-113.15C549.01,-116.63 558.84,-121.16 567.25,-127.06 589.08,-142.37 581.31,-159.89 603.25,-175.06 605.35,-176.51 607.55,-177.85 609.83,-179.08"/>
<polygon fill="#63b8ff" stroke="#63b8ff" points="608.03,-182.57 618.57,-183.62 610.99,-176.23 608.03,-182.57"/>
</a>
</g>
</g>
<!-- Node15&#45;&gt;Node9 -->
<g id="edge23_Node000015_Node000009" class="edge">
<title>Node15&#45;&gt;Node9</title>
<g id="a_edge23_Node000015_Node000009"><a xlink:title=" ">
<path fill="none" stroke="#63b8ff" d="M538.82,-95.64C555.54,-93.63 574.33,-91.38 592.3,-89.22"/>
<polygon fill="#63b8ff" stroke="#63b8ff" points="592.55,-92.6 602.07,-87.93 591.72,-85.65 592.55,-92.6"/>
</a>
</g>
</g>
<!-- Node15&#45;&gt;Node10 -->
<g id="edge25_Node000015_Node000010" class="edge">
<title>Node15&#45;&gt;Node10</title>
<g id="a_edge25_Node000015_Node000010"><a xlink:title=" ">
<path fill="none" stroke="#63b8ff" d="M538.82,-106.73C555.81,-108.21 574.92,-109.88 593.15,-111.47"/>
<polygon fill="#63b8ff" stroke="#63b8ff" points="592.8,-115.04 603.06,-112.42 593.41,-108.06 592.8,-115.04"/>
</a>
</g>
</g>
<!-- Node15&#45;&gt;Node12 -->
<g id="edge22_Node000015_Node000012" class="edge">
<title>Node15&#45;&gt;Node12</title>
<g id="a_edge22_Node000015_Node000012"><a xlink:title=" ">
<path fill="none" stroke="#63b8ff" d="M538.94,-86.72C548.44,-83.72 558.19,-80.44 567.25,-77.06 583.65,-70.94 586.8,-67.07 603.25,-61.06 608.33,-59.2 613.69,-57.4 619.06,-55.7"/>
<polygon fill="#63b8ff" stroke="#63b8ff" points="619.79,-58.83 628.33,-52.55 617.74,-52.13 619.79,-58.83"/>
</a>
</g>
</g>
<!-- Node17&#45;&gt;Node6 -->
<g id="edge30_Node000017_Node000006" class="edge">
<title>Node17&#45;&gt;Node6</title>
<g id="a_edge30_Node000017_Node000006"><a xlink:title=" ">
<path fill="none" stroke="#63b8ff" d="M526.43,-148.3C546.13,-149.38 570.36,-150.7 593.21,-151.94"/>
<polygon fill="#63b8ff" stroke="#63b8ff" points="592.76,-155.48 602.93,-152.53 593.14,-148.49 592.76,-155.48"/>
</a>
</g>
</g>
<!-- Node17&#45;&gt;Node7 -->
<g id="edge31_Node000017_Node000007" class="edge">
<title>Node17&#45;&gt;Node7</title>
<g id="a_edge31_Node000017_Node000007"><a xlink:title=" ">
<path fill="none" stroke="#63b8ff" d="M526.64,-155.22C539.67,-158.22 554.09,-161.66 567.25,-165.06 577.92,-167.82 600.98,-174.39 622.43,-180.58"/>
<polygon fill="#63b8ff" stroke="#63b8ff" points="621.19,-184.15 631.77,-183.57 623.13,-177.43 621.19,-184.15"/>
</a>
</g>
</g>
<!-- Node17&#45;&gt;Node12 -->
<g id="edge29_Node000017_Node000012" class="edge">
<title>Node17&#45;&gt;Node12</title>
<g id="a_edge29_Node000017_Node000012"><a xlink:title=" ">
<path fill="none" stroke="#63b8ff" d="M526.52,-143.34C540.55,-140.73 555.61,-135.9 567.25,-127.06 593.86,-106.85 577.2,-81.99 603.25,-61.06 604.71,-59.89 606.24,-58.78 607.82,-57.75"/>
<polygon fill="#63b8ff" stroke="#63b8ff" points="609.29,-60.4 616.41,-52.55 605.95,-54.25 609.29,-60.4"/>
</a>
</g>
</g>
<!-- Node18&#45;&gt;Node6 -->
<g id="edge33_Node000018_Node000006" class="edge">
<title>Node18&#45;&gt;Node6</title>
<g id="a_edge33_Node000018_Node000006"><a xlink:title=" ">
<path fill="none" stroke="#63b8ff" d="M554.87,-402.58C559.44,-400.03 563.65,-396.89 567.25,-393.06 634.43,-321.43 538.05,-248.49 603.25,-175.06 603.92,-174.3 604.62,-173.58 605.34,-172.88"/>
<polygon fill="#63b8ff" stroke="#63b8ff" points="607.05,-175.22 612.96,-166.43 602.85,-169.62 607.05,-175.22"/>
</a>
</g>
</g>
<!-- Node18&#45;&gt;Node7 -->
<g id="edge34_Node000018_Node000007" class="edge">
<title>Node18&#45;&gt;Node7</title>
<g id="a_edge34_Node000018_Node000007"><a xlink:title=" ">
<path fill="none" stroke="#63b8ff" d="M552.85,-401.63C557.99,-399.3 562.87,-396.48 567.25,-393.06 626.77,-346.54 654.47,-255.61 664.32,-214.78"/>
<polygon fill="#63b8ff" stroke="#63b8ff" points="667.91,-215.77 666.73,-205.24 661.09,-214.21 667.91,-215.77"/>
</a>
</g>
</g>
</g>
</svg>
