<?xml version="1.0" encoding="UTF-8" standalone="no"?>
<!DOCTYPE svg PUBLIC "-//W3C//DTD SVG 1.1//EN"
 "http://www.w3.org/Graphics/SVG/1.1/DTD/svg11.dtd">
<!-- Generated by graphviz version 2.44.1 (20200629.0846)
 -->
<!-- Title: Drv_PwrCtrl_TPBLPFC_Stop Pages: 1 -->
<svg width="438pt" height="212pt"
 viewBox="0.00 0.00 438.00 212.00" xmlns="http://www.w3.org/2000/svg" xmlns:xlink="http://www.w3.org/1999/xlink">
<g id="graph0" class="graph" transform="scale(1 1) rotate(0) translate(4 208)">
<title>Drv_PwrCtrl_TPBLPFC_Stop</title>
<!-- Node1 -->
<g id="Node000001" class="node">
<title>Node1</title>
<g id="a_Node000001"><a xlink:title="stop and reset power controller">
<polygon fill="#999999" stroke="#666666" points="430,-111 289,-111 289,-92 430,-92 430,-111"/>
<text text-anchor="middle" x="359.5" y="-99" font-family="Helvetica,sans-Serif" font-size="10.00">Drv_PwrCtrl_TPBLPFC_Stop</text>
</a>
</g>
</g>
<!-- Node2 -->
<g id="Node000002" class="node">
<title>Node2</title>
<g id="a_Node000002"><a xlink:href="a00347.html#a968747854ba14331aa9f85784178d0da" target="_top" xlink:title=" ">
<polygon fill="white" stroke="#666666" points="229.5,-204 133.5,-204 133.5,-185 229.5,-185 229.5,-204"/>
<text text-anchor="middle" x="181.5" y="-192" font-family="Helvetica,sans-Serif" font-size="10.00">_ADCAN0Interrupt</text>
</a>
</g>
</g>
<!-- Node1&#45;&gt;Node2 -->
<g id="edge1_Node000001_Node000002" class="edge">
<title>Node1&#45;&gt;Node2</title>
<g id="a_edge1_Node000001_Node000002"><a xlink:title=" ">
<path fill="none" stroke="#63b8ff" d="M340.24,-117.71C320.18,-134.7 286.36,-161.04 253,-176.5 245.66,-179.9 237.59,-182.72 229.61,-185.05"/>
<polygon fill="#63b8ff" stroke="#63b8ff" points="342.66,-120.24 347.95,-111.06 338.09,-114.94 342.66,-120.24"/>
</a>
</g>
</g>
<!-- Node3 -->
<g id="Node000003" class="node">
<title>Node3</title>
<g id="a_Node000003"><a xlink:href="a00347.html#a6ac2591aa2e32874156ad3f8bf477d2f" target="_top" xlink:title=" ">
<polygon fill="white" stroke="#666666" points="229.5,-167 133.5,-167 133.5,-148 229.5,-148 229.5,-167"/>
<text text-anchor="middle" x="181.5" y="-155" font-family="Helvetica,sans-Serif" font-size="10.00">_ADCAN1Interrupt</text>
</a>
</g>
</g>
<!-- Node1&#45;&gt;Node3 -->
<g id="edge2_Node000001_Node000003" class="edge">
<title>Node1&#45;&gt;Node3</title>
<g id="a_edge2_Node000001_Node000003"><a xlink:title=" ">
<path fill="none" stroke="#63b8ff" d="M324.46,-114.7C303.92,-122.42 277.15,-132.09 253,-139.5 243.22,-142.5 232.57,-145.41 222.58,-147.98"/>
<polygon fill="#63b8ff" stroke="#63b8ff" points="325.89,-117.9 334,-111.08 323.41,-111.35 325.89,-117.9"/>
</a>
</g>
</g>
<!-- Node4 -->
<g id="Node000004" class="node">
<title>Node4</title>
<g id="a_Node000004"><a xlink:href="a00431.html#ga6a8f059084b08dc82c20c9d8e714152a" target="_top" xlink:title="check run bit during soft start">
<polygon fill="white" stroke="#666666" points="239.5,-130 123.5,-130 123.5,-111 239.5,-111 239.5,-130"/>
<text text-anchor="middle" x="181.5" y="-118" font-family="Helvetica,sans-Serif" font-size="10.00">SoftStart_StateHandler</text>
</a>
</g>
</g>
<!-- Node1&#45;&gt;Node4 -->
<g id="edge3_Node000001_Node000004" class="edge">
<title>Node1&#45;&gt;Node4</title>
<g id="a_edge3_Node000001_Node000004"><a xlink:title=" ">
<path fill="none" stroke="#63b8ff" d="M278.9,-110.09C265.67,-111.52 252.19,-112.98 239.66,-114.33"/>
<polygon fill="#63b8ff" stroke="#63b8ff" points="279.37,-113.56 288.94,-109.01 278.62,-106.6 279.37,-113.56"/>
</a>
</g>
</g>
<!-- Node6 -->
<g id="Node000006" class="node">
<title>Node6</title>
<g id="a_Node000006"><a xlink:href="a00431.html#ga5c3037f09ca5d5feb40ca3c3aa16dc90" target="_top" xlink:title="up and running state">
<polygon fill="white" stroke="#666666" points="253,-93 110,-93 110,-74 253,-74 253,-93"/>
<text text-anchor="middle" x="181.5" y="-81" font-family="Helvetica,sans-Serif" font-size="10.00">UpAndRunning_StateHandler</text>
</a>
</g>
</g>
<!-- Node1&#45;&gt;Node6 -->
<g id="edge5_Node000001_Node000006" class="edge">
<title>Node1&#45;&gt;Node6</title>
<g id="a_edge5_Node000001_Node000006"><a xlink:title=" ">
<path fill="none" stroke="#63b8ff" d="M278.96,-93.37C270.4,-92.49 261.73,-91.6 253.29,-90.74"/>
<polygon fill="#63b8ff" stroke="#63b8ff" points="278.64,-96.85 288.94,-94.39 279.35,-89.89 278.64,-96.85"/>
</a>
</g>
</g>
<!-- Node7 -->
<g id="Node000007" class="node">
<title>Node7</title>
<g id="a_Node000007"><a xlink:href="a00431.html#ga4fc797d6e302efdf04cccc92f1094252" target="_top" xlink:title="check VACok flag(s) in fast while loop">
<polygon fill="white" stroke="#666666" points="223.5,-56 139.5,-56 139.5,-37 223.5,-37 223.5,-56"/>
<text text-anchor="middle" x="181.5" y="-44" font-family="Helvetica,sans-Serif" font-size="10.00">VACOK_Check</text>
</a>
</g>
</g>
<!-- Node1&#45;&gt;Node7 -->
<g id="edge7_Node000001_Node000007" class="edge">
<title>Node1&#45;&gt;Node7</title>
<g id="a_edge7_Node000001_Node000007"><a xlink:title=" ">
<path fill="none" stroke="#63b8ff" d="M322.72,-88.64C302.38,-81.49 276.38,-72.63 253,-65.5 242.21,-62.21 230.4,-58.91 219.59,-56.01"/>
<polygon fill="#63b8ff" stroke="#63b8ff" points="321.61,-91.96 332.21,-91.99 323.95,-85.36 321.61,-91.96"/>
</a>
</g>
</g>
<!-- Node8 -->
<g id="Node000008" class="node">
<title>Node8</title>
<g id="a_Node000008"><a xlink:href="a00431.html#gacc4bae28b11e678430b4ecb1b2f52144" target="_top" xlink:title="delay before relay on">
<polygon fill="white" stroke="#666666" points="248.5,-19 114.5,-19 114.5,0 248.5,0 248.5,-19"/>
<text text-anchor="middle" x="181.5" y="-7" font-family="Helvetica,sans-Serif" font-size="10.00">VoutPreLoad_StateHandler</text>
</a>
</g>
</g>
<!-- Node1&#45;&gt;Node8 -->
<g id="edge9_Node000001_Node000008" class="edge">
<title>Node1&#45;&gt;Node8</title>
<g id="a_edge9_Node000001_Node000008"><a xlink:title=" ">
<path fill="none" stroke="#63b8ff" d="M339.47,-85.3C319.23,-68.84 285.71,-43.67 253,-28.5 244.95,-24.77 236.03,-21.65 227.32,-19.1"/>
<polygon fill="#63b8ff" stroke="#63b8ff" points="337.35,-88.09 347.28,-91.77 341.81,-82.7 337.35,-88.09"/>
</a>
</g>
</g>
<!-- Node5 -->
<g id="Node000005" class="node">
<title>Node5</title>
<g id="a_Node000005"><a xlink:href="a00431.html#ga97fda594ad396d08b6a833ebb3b04538" target="_top" xlink:title="tasks run every 100us">
<polygon fill="white" stroke="#666666" points="74,-74 0,-74 0,-55 74,-55 74,-74"/>
<text text-anchor="middle" x="37" y="-62" font-family="Helvetica,sans-Serif" font-size="10.00">Tasks_100us</text>
</a>
</g>
</g>
<!-- Node4&#45;&gt;Node5 -->
<g id="edge4_Node000004_Node000005" class="edge">
<title>Node4&#45;&gt;Node5</title>
<g id="a_edge4_Node000004_Node000005"><a xlink:title=" ">
<path fill="none" stroke="#63b8ff" d="M126.34,-108.07C120.77,-106.37 115.23,-104.52 110,-102.5 89.69,-94.67 67.76,-82.51 53.51,-74.06"/>
<polygon fill="#63b8ff" stroke="#63b8ff" points="125.8,-111.55 136.37,-110.94 127.72,-104.82 125.8,-111.55"/>
</a>
</g>
</g>
<!-- Node6&#45;&gt;Node5 -->
<g id="edge6_Node000006_Node000005" class="edge">
<title>Node6&#45;&gt;Node5</title>
<g id="a_edge6_Node000006_Node000005"><a xlink:title=" ">
<path fill="none" stroke="#63b8ff" d="M99.61,-72.71C90.75,-71.53 82.09,-70.38 74.2,-69.33"/>
<polygon fill="#63b8ff" stroke="#63b8ff" points="99.29,-76.2 109.67,-74.06 100.22,-69.26 99.29,-76.2"/>
</a>
</g>
</g>
<!-- Node7&#45;&gt;Node5 -->
<g id="edge8_Node000007_Node000005" class="edge">
<title>Node7&#45;&gt;Node5</title>
<g id="a_edge8_Node000007_Node000005"><a xlink:title=" ">
<path fill="none" stroke="#63b8ff" d="M129.13,-52.99C110.97,-55.28 90.93,-57.81 74.28,-59.92"/>
<polygon fill="#63b8ff" stroke="#63b8ff" points="129.8,-56.43 139.28,-51.71 128.92,-49.49 129.8,-56.43"/>
</a>
</g>
</g>
<!-- Node8&#45;&gt;Node5 -->
<g id="edge10_Node000008_Node000005" class="edge">
<title>Node8&#45;&gt;Node5</title>
<g id="a_edge10_Node000008_Node000005"><a xlink:title=" ">
<path fill="none" stroke="#63b8ff" d="M129.69,-21.88C123,-23.89 116.29,-26.11 110,-28.5 90.41,-35.95 69.05,-47.03 54.73,-54.93"/>
<polygon fill="#63b8ff" stroke="#63b8ff" points="130.78,-25.21 139.42,-19.08 128.84,-18.48 130.78,-25.21"/>
</a>
</g>
</g>
</g>
</svg>
