<?xml version="1.0" encoding="UTF-8" standalone="no"?>
<!DOCTYPE svg PUBLIC "-//W3C//DTD SVG 1.1//EN"
 "http://www.w3.org/Graphics/SVG/1.1/DTD/svg11.dtd">
<!-- Generated by graphviz version 2.44.1 (20200629.0846)
 -->
<!-- Title: C:/Users/M70027/Documents/Projects/tp&#45;deployment/dspic33ch&#45;power&#45;totem&#45;pole&#45;demonstration&#45;application&#45;single&#45;phase_v2/dspic33ch_totem_pole_single_phase_secondary_IL.X/mcc_generated_files/pwm_hs/src/pwm.c Pages: 1 -->
<svg width="349pt" height="258pt"
 viewBox="0.00 0.00 348.75 258.00" xmlns="http://www.w3.org/2000/svg" xmlns:xlink="http://www.w3.org/1999/xlink">
<g id="graph0" class="graph" transform="scale(1 1) rotate(0) translate(4 254)">
<title>C:/Users/M70027/Documents/Projects/tp&#45;deployment/dspic33ch&#45;power&#45;totem&#45;pole&#45;demonstration&#45;application&#45;single&#45;phase_v2/dspic33ch_totem_pole_single_phase_secondary_IL.X/mcc_generated_files/pwm_hs/src/pwm.c</title>
<!-- Node1 -->
<g id="Node000001" class="node">
<title>Node1</title>
<g id="a_Node000001"><a xlink:title="This is the generated driver source file for PWM driver.">
<polygon fill="#999999" stroke="#666666" points="289.25,-250 93.25,-250 93.25,-165 289.25,-165 289.25,-250"/>
<text text-anchor="start" x="101.25" y="-238" font-family="Helvetica,sans-Serif" font-size="10.00">C:/Users/M70027/Documents</text>
<text text-anchor="start" x="101.25" y="-227" font-family="Helvetica,sans-Serif" font-size="10.00">/Projects/tp&#45;deployment</text>
<text text-anchor="start" x="101.25" y="-216" font-family="Helvetica,sans-Serif" font-size="10.00">/dspic33ch&#45;power&#45;totem&#45;pole</text>
<text text-anchor="start" x="101.25" y="-205" font-family="Helvetica,sans-Serif" font-size="10.00">&#45;demonstration&#45;application</text>
<text text-anchor="start" x="101.25" y="-194" font-family="Helvetica,sans-Serif" font-size="10.00">&#45;single&#45;phase_v2/dspic33ch_totem</text>
<text text-anchor="start" x="101.25" y="-183" font-family="Helvetica,sans-Serif" font-size="10.00">_pole_single_phase_secondary_IL.X</text>
<text text-anchor="middle" x="191.25" y="-172" font-family="Helvetica,sans-Serif" font-size="10.00">/mcc_generated_files/pwm_hs/src/pwm.c</text>
</a>
</g>
</g>
<!-- Node2 -->
<g id="Node000002" class="node">
<title>Node2</title>
<g id="a_Node000002"><a xlink:href="a00308.html" target="_top" xlink:title="This is the generated driver header file for the PWM driver.">
<polygon fill="white" stroke="#666666" points="170.25,-129 116.25,-129 116.25,-110 170.25,-110 170.25,-129"/>
<text text-anchor="middle" x="143.25" y="-117" font-family="Helvetica,sans-Serif" font-size="10.00">../pwm.h</text>
</a>
</g>
</g>
<!-- Node1&#45;&gt;Node2 -->
<g id="edge1_Node000001_Node000002" class="edge">
<title>Node1&#45;&gt;Node2</title>
<g id="a_edge1_Node000001_Node000002"><a xlink:title=" ">
<path fill="none" stroke="#63b8ff" d="M167.96,-164.76C162.65,-155.25 157.3,-145.66 152.94,-137.85"/>
<polygon fill="#63b8ff" stroke="#63b8ff" points="155.95,-136.07 148.02,-129.05 149.84,-139.48 155.95,-136.07"/>
</a>
</g>
</g>
<!-- Node9 -->
<g id="Node000009" class="node">
<title>Node9</title>
<g id="a_Node000009"><a xlink:href="a00766_source.html" target="_top" xlink:title=" ">
<polygon fill="white" stroke="#666666" points="340.75,-129 239.75,-129 239.75,-110 340.75,-110 340.75,-129"/>
<text text-anchor="middle" x="290.25" y="-117" font-family="Helvetica,sans-Serif" font-size="10.00">../../system/clock.h</text>
</a>
</g>
</g>
<!-- Node1&#45;&gt;Node9 -->
<g id="edge11_Node000001_Node000009" class="edge">
<title>Node1&#45;&gt;Node9</title>
<g id="a_edge11_Node000001_Node000009"><a xlink:title=" ">
<path fill="none" stroke="#63b8ff" d="M239.3,-164.76C251.22,-154.41 263.25,-143.95 272.63,-135.81"/>
<polygon fill="#63b8ff" stroke="#63b8ff" points="275.16,-138.25 280.41,-129.05 270.57,-132.96 275.16,-138.25"/>
</a>
</g>
</g>
<!-- Node3 -->
<g id="Node000003" class="node">
<title>Node3</title>
<g id="a_Node000003"><a xlink:title=" ">
<polygon fill="#e0e0e0" stroke="#999999" points="48.75,-74 13.75,-74 13.75,-55 48.75,-55 48.75,-74"/>
<text text-anchor="middle" x="31.25" y="-62" font-family="Helvetica,sans-Serif" font-size="10.00">xc.h</text>
</a>
</g>
</g>
<!-- Node2&#45;&gt;Node3 -->
<g id="edge2_Node000002_Node000003" class="edge">
<title>Node2&#45;&gt;Node3</title>
<g id="a_edge2_Node000002_Node000003"><a xlink:title=" ">
<path fill="none" stroke="#63b8ff" d="M125.26,-109.98C107.11,-101.4 78.87,-88.04 58.08,-78.2"/>
<polygon fill="#63b8ff" stroke="#63b8ff" points="59.37,-74.93 48.83,-73.82 56.38,-81.26 59.37,-74.93"/>
</a>
</g>
</g>
<!-- Node4 -->
<g id="Node000004" class="node">
<title>Node4</title>
<g id="a_Node000004"><a xlink:title=" ">
<polygon fill="#e0e0e0" stroke="#999999" points="78.75,-19 29.75,-19 29.75,0 78.75,0 78.75,-19"/>
<text text-anchor="middle" x="54.25" y="-7" font-family="Helvetica,sans-Serif" font-size="10.00">stdint.h</text>
</a>
</g>
</g>
<!-- Node2&#45;&gt;Node4 -->
<g id="edge3_Node000002_Node000004" class="edge">
<title>Node2&#45;&gt;Node4</title>
<g id="a_edge3_Node000002_Node000004"><a xlink:title=" ">
<path fill="none" stroke="#63b8ff" d="M116.19,-118.63C83.55,-117.14 29.87,-109.1 4.25,-74 -8.33,-56.76 11.69,-37.59 30.02,-24.87"/>
<polygon fill="#63b8ff" stroke="#63b8ff" points="32.27,-27.58 38.72,-19.18 28.44,-21.72 32.27,-27.58"/>
</a>
</g>
</g>
<!-- Node5 -->
<g id="Node000005" class="node">
<title>Node5</title>
<g id="a_Node000005"><a xlink:title=" ">
<polygon fill="#e0e0e0" stroke="#999999" points="331.25,-19 275.25,-19 275.25,0 331.25,0 331.25,-19"/>
<text text-anchor="middle" x="303.25" y="-7" font-family="Helvetica,sans-Serif" font-size="10.00">stdbool.h</text>
</a>
</g>
</g>
<!-- Node2&#45;&gt;Node5 -->
<g id="edge4_Node000002_Node000005" class="edge">
<title>Node2&#45;&gt;Node5</title>
<g id="a_edge4_Node000002_Node000005"><a xlink:title=" ">
<path fill="none" stroke="#63b8ff" d="M170.49,-117.28C202.11,-114.4 253.81,-104.9 284.25,-74 295.98,-62.1 300.52,-43.27 302.25,-29.2"/>
<polygon fill="#63b8ff" stroke="#63b8ff" points="305.74,-29.43 303.12,-19.16 298.77,-28.82 305.74,-29.43"/>
</a>
</g>
</g>
<!-- Node6 -->
<g id="Node000006" class="node">
<title>Node6</title>
<g id="a_Node000006"><a xlink:title=" ">
<polygon fill="#e0e0e0" stroke="#999999" points="115.25,-74 67.25,-74 67.25,-55 115.25,-55 115.25,-74"/>
<text text-anchor="middle" x="91.25" y="-62" font-family="Helvetica,sans-Serif" font-size="10.00">stdlib.h</text>
</a>
</g>
</g>
<!-- Node2&#45;&gt;Node6 -->
<g id="edge5_Node000002_Node000006" class="edge">
<title>Node2&#45;&gt;Node6</title>
<g id="a_edge5_Node000002_Node000006"><a xlink:title=" ">
<path fill="none" stroke="#63b8ff" d="M134.67,-109.75C127.09,-102.03 115.88,-90.6 106.74,-81.28"/>
<polygon fill="#63b8ff" stroke="#63b8ff" points="109.18,-78.78 99.68,-74.09 104.19,-83.68 109.18,-78.78"/>
</a>
</g>
</g>
<!-- Node7 -->
<g id="Node000007" class="node">
<title>Node7</title>
<g id="a_Node000007"><a xlink:href="a00317.html" target="_top" xlink:title="This is the generated driver types header file for the PWM driver.">
<polygon fill="white" stroke="#666666" points="222.25,-19 132.25,-19 132.25,0 222.25,0 222.25,-19"/>
<text text-anchor="middle" x="177.25" y="-7" font-family="Helvetica,sans-Serif" font-size="10.00">pwm_hs_types.h</text>
</a>
</g>
</g>
<!-- Node2&#45;&gt;Node7 -->
<g id="edge6_Node000002_Node000007" class="edge">
<title>Node2&#45;&gt;Node7</title>
<g id="a_edge6_Node000002_Node000007"><a xlink:title=" ">
<path fill="none" stroke="#63b8ff" d="M146.04,-109.66C151.57,-92.09 164.05,-52.45 171.44,-28.95"/>
<polygon fill="#63b8ff" stroke="#63b8ff" points="174.86,-29.75 174.53,-19.16 168.19,-27.65 174.86,-29.75"/>
</a>
</g>
</g>
<!-- Node8 -->
<g id="Node000008" class="node">
<title>Node8</title>
<g id="a_Node000008"><a xlink:href="a00314_source.html" target="_top" xlink:title=" ">
<polygon fill="white" stroke="#666666" points="274.75,-74 171.75,-74 171.75,-55 274.75,-55 274.75,-74"/>
<text text-anchor="middle" x="223.25" y="-62" font-family="Helvetica,sans-Serif" font-size="10.00">pwm_hs_interface.h</text>
</a>
</g>
</g>
<!-- Node2&#45;&gt;Node8 -->
<g id="edge7_Node000002_Node000008" class="edge">
<title>Node2&#45;&gt;Node8</title>
<g id="a_edge7_Node000002_Node000008"><a xlink:title=" ">
<path fill="none" stroke="#63b8ff" d="M156.11,-109.98C168.4,-101.84 187.16,-89.41 201.73,-79.76"/>
<polygon fill="#63b8ff" stroke="#63b8ff" points="203.76,-82.61 210.17,-74.17 199.9,-76.78 203.76,-82.61"/>
</a>
</g>
</g>
<!-- Node8&#45;&gt;Node4 -->
<g id="edge9_Node000008_Node000004" class="edge">
<title>Node8&#45;&gt;Node4</title>
<g id="a_edge9_Node000008_Node000004"><a xlink:title=" ">
<path fill="none" stroke="#63b8ff" d="M196.1,-54.98C166.89,-45.82 120.35,-31.23 88.61,-21.27"/>
<polygon fill="#63b8ff" stroke="#63b8ff" points="89.45,-17.87 78.87,-18.22 87.36,-24.55 89.45,-17.87"/>
</a>
</g>
</g>
<!-- Node8&#45;&gt;Node5 -->
<g id="edge8_Node000008_Node000005" class="edge">
<title>Node8&#45;&gt;Node5</title>
<g id="a_edge8_Node000008_Node000005"><a xlink:title=" ">
<path fill="none" stroke="#63b8ff" d="M236.11,-54.98C248.4,-46.84 267.16,-34.41 281.73,-24.76"/>
<polygon fill="#63b8ff" stroke="#63b8ff" points="283.76,-27.61 290.17,-19.17 279.9,-21.78 283.76,-27.61"/>
</a>
</g>
</g>
<!-- Node8&#45;&gt;Node7 -->
<g id="edge10_Node000008_Node000007" class="edge">
<title>Node8&#45;&gt;Node7</title>
<g id="a_edge10_Node000008_Node000007"><a xlink:title=" ">
<path fill="none" stroke="#63b8ff" d="M215.66,-54.75C209.09,-47.18 199.43,-36.05 191.44,-26.84"/>
<polygon fill="#63b8ff" stroke="#63b8ff" points="193.91,-24.35 184.71,-19.09 188.62,-28.94 193.91,-24.35"/>
</a>
</g>
</g>
<!-- Node9&#45;&gt;Node5 -->
<g id="edge12_Node000009_Node000005" class="edge">
<title>Node9&#45;&gt;Node5</title>
<g id="a_edge12_Node000009_Node000005"><a xlink:title=" ">
<path fill="none" stroke="#63b8ff" d="M297.4,-109.97C304.02,-101.48 313.41,-87.75 317.25,-74 321.48,-58.88 316.98,-41.45 311.99,-28.68"/>
<polygon fill="#63b8ff" stroke="#63b8ff" points="315.07,-26.97 307.87,-19.2 308.65,-29.77 315.07,-26.97"/>
</a>
</g>
</g>
</g>
</svg>
