<?xml version="1.0" encoding="UTF-8" standalone="no"?>
<!DOCTYPE svg PUBLIC "-//W3C//DTD SVG 1.1//EN"
 "http://www.w3.org/Graphics/SVG/1.1/DTD/svg11.dtd">
<!-- Generated by graphviz version 8.1.0 (20230707.0739)
 -->
<!-- Title: SoftstartAfterZC_PHx_GTIMode Pages: 1 -->
<!--zoomable 66 -->

<svg id="main" version="1.1" xmlns="http://www.w3.org/2000/svg" xmlns:xlink="http://www.w3.org/1999/xlink" xml:space="preserve" onload="init(evt)">
<style type="text/css"><![CDATA[
.node, .edge {opacity: 0.7;}
.node.selected, .edge.selected {opacity: 1;}
.edge:hover path { stroke: red; }
.edge:hover polygon { stroke: red; fill: red; }
]]></style>

<defs>
  <circle id="rim" cx="0" cy="0" r="7"/>
  <circle id="rim2" cx="0" cy="0" r="3.5"/>
  <g id="zoomPlus">
    <use xlink:href="#rim" fill="#404040"><set attributeName="fill" to="#808080" begin="zoomplus.mouseover" end="zoomplus.mouseout"/></use>
    <path d="M-4,0h8M0,-4v8" fill="none" stroke="white" stroke-width="1.5" pointer-events="none"/>
  </g>
  <g id="zoomMin">
    <use xlink:href="#rim" fill="#404040"><set attributeName="fill" to="#808080" begin="zoomminus.mouseover" end="zoomminus.mouseout"/></use>
    <path d="M-4,0h8" fill="none" stroke="white" stroke-width="1.5" pointer-events="none"/>
  </g>
  <g id="arrowUp" transform="translate(30 24)">
    <use xlink:href="#rim"/>
    <path pointer-events="none" fill="none" stroke="white" stroke-width="1.5" d="M0,-3.0v7 M-2.5,-0.5L0,-3.0L2.5,-0.5"/>
  </g>
  <g id="arrowRight" transform="rotate(90) translate(36 -43)">
    <use xlink:href="#rim"/>
    <path pointer-events="none" fill="none" stroke="white" stroke-width="1.5" d="M0,-3.0v7 M-2.5,-0.5L0,-3.0L2.5,-0.5"/>
  </g>
  <g id="arrowDown" transform="rotate(180) translate(-30 -48)">
    <use xlink:href="#rim"/>
    <path pointer-events="none" fill="none" stroke="white" stroke-width="1.5" d="M0,-3.0v7 M-2.5,-0.5L0,-3.0L2.5,-0.5"/>
  </g>
  <g id="arrowLeft" transform="rotate(270) translate(-36 17)">
    <use xlink:href="#rim"/>
    <path pointer-events="none" fill="none" stroke="white" stroke-width="1.5" d="M0,-3.0v7 M-2.5,-0.5L0,-3.0L2.5,-0.5"/>
  </g>
  <g id="resetDef">
    <use xlink:href="#rim2" fill="#404040"><set attributeName="fill" to="#808080" begin="reset.mouseover" end="reset.mouseout"/></use>
  </g>
</defs>
<script type="application/ecmascript">
var viewWidth = 518;
var viewHeight = 66;
var sectionId = 'dynsection-14';
</script>
<script type="application/ecmascript" xlink:href="svg.min.js"/>
<svg id="graph" class="graph">
<g id="viewport">
<title>SoftstartAfterZC_PHx_GTIMode</title>
<!-- Node1 -->
<g id="Node000001" class="node">
<title>Node1</title>
<g id="a_Node000001"><a xlink:title=" ">
<polygon fill="#999999" stroke="#666666" points="510.25,-45 401.25,-45 401.25,-13 510.25,-13 510.25,-45"/>
<text text-anchor="start" x="409.25" y="-31.5" font-family="Helvetica,sans-Serif" font-size="10.00">SoftstartAfterZC_PHx</text>
<text text-anchor="middle" x="455.75" y="-19.5" font-family="Helvetica,sans-Serif" font-size="10.00">_GTIMode</text>
</a>
</g>
</g>
<!-- Node2 -->
<g id="Node000002" class="node">
<title>Node2</title>
<g id="a_Node000002"><a xlink:href="a00365.html#a647fd6dacbfbcebe49cc34111a01493b" target="_top" xlink:title=" ">
<polygon fill="white" stroke="#666666" points="365.25,-39 292.25,-39 292.25,-19 365.25,-19 365.25,-39"/>
<text text-anchor="middle" x="328.75" y="-25.5" font-family="Helvetica,sans-Serif" font-size="10.00">Handler_PHx</text>
</a>
</g>
</g>
<!-- Node1&#45;&gt;Node2 -->
<g id="edge1_Node000001_Node000002" class="edge">
<title>Node1&#45;&gt;Node2</title>
<g id="a_edge1_Node000001_Node000002"><a xlink:title=" ">
<path fill="none" stroke="#63b8ff" d="M390.22,-29C381.68,-29 373.19,-29 365.39,-29"/>
<polygon fill="#63b8ff" stroke="#63b8ff" points="390.01,-32.5 400.01,-29 390.01,-25.5 390.01,-32.5"/>
</a>
</g>
</g>
<!-- Node3 -->
<g id="Node000003" class="node">
<title>Node3</title>
<g id="a_Node000003"><a xlink:href="a00365.html#aa7b8e2dc355948aa24cf22ca82f9e805" target="_top" xlink:title=" ">
<polygon fill="white" stroke="#666666" points="256.25,-58 131.5,-58 131.5,-38 256.25,-38 256.25,-58"/>
<text text-anchor="middle" x="193.88" y="-44.5" font-family="Helvetica,sans-Serif" font-size="10.00">Application_handler_PH1</text>
</a>
</g>
</g>
<!-- Node2&#45;&gt;Node3 -->
<g id="edge2_Node000002_Node000003" class="edge">
<title>Node2&#45;&gt;Node3</title>
<g id="a_edge2_Node000002_Node000003"><a xlink:title=" ">
<path fill="none" stroke="#63b8ff" d="M281.01,-35.68C273.15,-36.81 264.89,-37.99 256.72,-39.16"/>
<polygon fill="#63b8ff" stroke="#63b8ff" points="281.39,-39.02 290.79,-34.14 280.4,-32.09 281.39,-39.02"/>
</a>
</g>
</g>
<!-- Node5 -->
<g id="Node000005" class="node">
<title>Node5</title>
<g id="a_Node000005"><a xlink:href="a00365.html#a87fa9190951df7c866d828b8ad7b526b" target="_top" xlink:title=" ">
<polygon fill="white" stroke="#666666" points="256.25,-20 131.5,-20 131.5,0 256.25,0 256.25,-20"/>
<text text-anchor="middle" x="193.88" y="-6.5" font-family="Helvetica,sans-Serif" font-size="10.00">Application_handler_PH2</text>
</a>
</g>
</g>
<!-- Node2&#45;&gt;Node5 -->
<g id="edge4_Node000002_Node000005" class="edge">
<title>Node2&#45;&gt;Node5</title>
<g id="a_edge4_Node000002_Node000005"><a xlink:title=" ">
<path fill="none" stroke="#63b8ff" d="M281.01,-22.32C273.15,-21.19 264.89,-20.01 256.72,-18.84"/>
<polygon fill="#63b8ff" stroke="#63b8ff" points="280.4,-25.91 290.79,-23.86 281.39,-18.98 280.4,-25.91"/>
</a>
</g>
</g>
<!-- Node4 -->
<g id="Node000004" class="node">
<title>Node4</title>
<g id="a_Node000004"><a xlink:href="a00341.html#a968747854ba14331aa9f85784178d0da" target="_top" xlink:title=" ">
<polygon fill="white" stroke="#666666" points="95.5,-58 0,-58 0,-38 95.5,-38 95.5,-58"/>
<text text-anchor="middle" x="47.75" y="-44.5" font-family="Helvetica,sans-Serif" font-size="10.00">_ADCAN0Interrupt</text>
</a>
</g>
</g>
<!-- Node3&#45;&gt;Node4 -->
<g id="edge3_Node000003_Node000004" class="edge">
<title>Node3&#45;&gt;Node4</title>
<g id="a_edge3_Node000003_Node000004"><a xlink:title=" ">
<path fill="none" stroke="#63b8ff" d="M120.35,-48C111.98,-48 103.6,-48 95.7,-48"/>
<polygon fill="#63b8ff" stroke="#63b8ff" points="120.34,-51.5 130.33,-48 120.33,-44.5 120.34,-51.5"/>
</a>
</g>
</g>
<!-- Node6 -->
<g id="Node000006" class="node">
<title>Node6</title>
<g id="a_Node000006"><a xlink:href="a00341.html#a6ac2591aa2e32874156ad3f8bf477d2f" target="_top" xlink:title=" ">
<polygon fill="white" stroke="#666666" points="95.5,-20 0,-20 0,0 95.5,0 95.5,-20"/>
<text text-anchor="middle" x="47.75" y="-6.5" font-family="Helvetica,sans-Serif" font-size="10.00">_ADCAN1Interrupt</text>
</a>
</g>
</g>
<!-- Node5&#45;&gt;Node6 -->
<g id="edge5_Node000005_Node000006" class="edge">
<title>Node5&#45;&gt;Node6</title>
<g id="a_edge5_Node000005_Node000006"><a xlink:title=" ">
<path fill="none" stroke="#63b8ff" d="M120.35,-10C111.98,-10 103.6,-10 95.7,-10"/>
<polygon fill="#63b8ff" stroke="#63b8ff" points="120.34,-13.5 130.33,-10 120.33,-6.5 120.34,-13.5"/>
</a>
</g>
</g>
</g>
</svg>

<g id="navigator" transform="translate(0 0)" fill="#404254">
  <rect fill="#f2f5e9" fill-opacity="0.5" stroke="#606060" stroke-width=".5" x="0" y="0" width="60" height="60"/>
  <use id="zoomplus" xlink:href="#zoomPlus" x="17" y="9" onmousedown="handleZoom(evt,'in')"/>
  <use id="zoomminus" xlink:href="#zoomMin" x="42" y="9" onmousedown="handleZoom(evt,'out')"/>
  <use id="reset" xlink:href="#resetDef" x="30" y="36" onmousedown="handleReset()"/>
   <use id="arrowup" xlink:href="#arrowUp" x="0" y="0" onmousedown="handlePan(0,-1)"/>
  <use id="arrowright" xlink:href="#arrowRight" x="0" y="0" onmousedown="handlePan(1,0)"/>
  <use id="arrowdown" xlink:href="#arrowDown" x="0" y="0" onmousedown="handlePan(0,1)"/>
  <use id="arrowleft" xlink:href="#arrowLeft" x="0" y="0" onmousedown="handlePan(-1,0)"/>
</g>
<svg viewBox="0 0 15 15" width="100%" height="30px" preserveAspectRatio="xMaxYMin meet">
 <g id="arrow_out" transform="scale(0.3 0.3)">
  <a xlink:href="a00365_ad3476b7cd98e6a22a65e1d89b7a59ea5_icgraph_org.svg" target="_base">
   <rect id="button" ry="5" rx="5" y="6" x="6" height="38" width="38"
        fill="#f2f5e9" fill-opacity="0.5" stroke="#606060" stroke-width="1.0"/>
   <path id="arrow"
     d="M 11.500037,31.436501 C 11.940474,20.09759 22.043105,11.32322 32.158766,21.979434 L 37.068811,17.246167 C 37.068811,17.246167 37.088388,32 37.088388,32 L 22.160133,31.978069 C 22.160133,31.978069 26.997745,27.140456 26.997745,27.140456 C 18.528582,18.264221 13.291696,25.230495 11.500037,31.436501 z"
     style="fill:#404040;"/>
  </a>
 </g>
</svg>

<style type='text/css'>
<![CDATA[
[data-mouse-over-selected='false'] { opacity: 0.7; }
[data-mouse-over-selected='true']  { opacity: 1.0; }
]]>
</style>
<script type="application/ecmascript"><![CDATA[
document.addEventListener('DOMContentLoaded', (event) => {
  highlightEdges();
  highlightAdjacentNodes();
});
]]></script>
</svg>
