<?xml version="1.0" encoding="UTF-8" standalone="no"?>
<!DOCTYPE svg PUBLIC "-//W3C//DTD SVG 1.1//EN"
 "http://www.w3.org/Graphics/SVG/1.1/DTD/svg11.dtd">
<!-- Generated by graphviz version 8.1.0 (20230707.0739)
 -->
<!-- Title: ZeroCross_PHx Pages: 1 -->
<svg width="259pt" height="104pt"
 viewBox="0.00 0.00 259.00 104.00" xmlns="http://www.w3.org/2000/svg" xmlns:xlink="http://www.w3.org/1999/xlink">
<g id="graph0" class="graph" transform="scale(1 1) rotate(0) translate(4 100)">
<title>ZeroCross_PHx</title>
<!-- Node1 -->
<g id="Node000001" class="node">
<title>Node1</title>
<g id="a_Node000001"><a xlink:title=" ">
<polygon fill="#999999" stroke="#666666" points="84.25,-58 0,-58 0,-38 84.25,-38 84.25,-58"/>
<text text-anchor="middle" x="42.12" y="-44.5" font-family="Helvetica,sans-Serif" font-size="10.00">ZeroCross_PHx</text>
</a>
</g>
</g>
<!-- Node2 -->
<g id="Node000002" class="node">
<title>Node2</title>
<g id="a_Node000002"><a xlink:href="a00401.html#ga37968a783e44cd80643478d2b559dbf4" target="_top" xlink:title="This inline function sets the PWM generator specific duty cycle register.">
<polygon fill="white" stroke="#666666" points="238.62,-96 132.62,-96 132.62,-76 238.62,-76 238.62,-96"/>
<text text-anchor="middle" x="185.62" y="-82.5" font-family="Helvetica,sans-Serif" font-size="10.00">PWM_DutyCycleSet</text>
</a>
</g>
</g>
<!-- Node1&#45;&gt;Node2 -->
<g id="edge1_Node000001_Node000002" class="edge">
<title>Node1&#45;&gt;Node2</title>
<g id="a_edge1_Node000001_Node000002"><a xlink:title=" ">
<path fill="none" stroke="#63b8ff" d="M82.17,-58.48C98.56,-62.89 117.82,-68.06 135.18,-72.72"/>
<polygon fill="#63b8ff" stroke="#63b8ff" points="134.15,-76.34 144.71,-75.55 135.96,-69.58 134.15,-76.34"/>
</a>
</g>
</g>
<!-- Node3 -->
<g id="Node000003" class="node">
<title>Node3</title>
<g id="a_Node000003"><a xlink:href="a00401.html#ga531b59d8823e3ebda2da60f48582bcf3" target="_top" xlink:title="This inline function enables PWM override on PWMH output for specific PWM generator selected by the a...">
<polygon fill="white" stroke="#666666" points="251,-58 120.25,-58 120.25,-38 251,-38 251,-58"/>
<text text-anchor="middle" x="185.62" y="-44.5" font-family="Helvetica,sans-Serif" font-size="10.00">PWM_OverrideHighEnable</text>
</a>
</g>
</g>
<!-- Node1&#45;&gt;Node3 -->
<g id="edge2_Node000001_Node000003" class="edge">
<title>Node1&#45;&gt;Node3</title>
<g id="a_edge2_Node000001_Node000003"><a xlink:title=" ">
<path fill="none" stroke="#63b8ff" d="M84.43,-48C92.23,-48 100.62,-48 109.09,-48"/>
<polygon fill="#63b8ff" stroke="#63b8ff" points="108.83,-51.5 118.83,-48 108.83,-44.5 108.83,-51.5"/>
</a>
</g>
</g>
<!-- Node4 -->
<g id="Node000004" class="node">
<title>Node4</title>
<g id="a_Node000004"><a xlink:href="a00401.html#ga2548ca8feda75ba6ab784280679da6ae" target="_top" xlink:title="This inline function enables PWM override on PWML output for specific PWM generator selected by the a...">
<polygon fill="white" stroke="#666666" points="249.88,-20 121.38,-20 121.38,0 249.88,0 249.88,-20"/>
<text text-anchor="middle" x="185.62" y="-6.5" font-family="Helvetica,sans-Serif" font-size="10.00">PWM_OverrideLowEnable</text>
</a>
</g>
</g>
<!-- Node1&#45;&gt;Node4 -->
<g id="edge3_Node000001_Node000004" class="edge">
<title>Node1&#45;&gt;Node4</title>
<g id="a_edge3_Node000001_Node000004"><a xlink:title=" ">
<path fill="none" stroke="#63b8ff" d="M82.17,-37.52C98.56,-33.11 117.82,-27.94 135.18,-23.28"/>
<polygon fill="#63b8ff" stroke="#63b8ff" points="135.96,-26.42 144.71,-20.45 134.15,-19.66 135.96,-26.42"/>
</a>
</g>
</g>
</g>
</svg>
