<?xml version="1.0" encoding="UTF-8" standalone="no"?>
<!DOCTYPE svg PUBLIC "-//W3C//DTD SVG 1.1//EN"
 "http://www.w3.org/Graphics/SVG/1.1/DTD/svg11.dtd">
<!-- Generated by graphviz version 2.44.1 (20200629.0846)
 -->
<!-- Title: C:/Users/M70027/Documents/Projects/tp&#45;deployment/dspic33ch&#45;power&#45;totem&#45;pole&#45;demonstration&#45;application&#45;single&#45;phase_v2/dspic33ch_totem_pole_single_phase_secondary_IL.X/sources/driver/power_controller/drv_pwrctrl_app_misc_TPBLPFC.c Pages: 1 -->
<!--zoomable 302 -->

<svg id="main" version="1.1" xmlns="http://www.w3.org/2000/svg" xmlns:xlink="http://www.w3.org/1999/xlink" xml:space="preserve" onload="init(evt)">

<style type="text/css"><![CDATA[
.node, .edge {opacity: 0.7;}
.node.selected, .edge.selected {opacity: 1;}
.edge:hover path { stroke: red; }
.edge:hover polygon { stroke: red; fill: red; }
]]></style>

<defs>
  <circle id="rim" cx="0" cy="0" r="7"/>
  <circle id="rim2" cx="0" cy="0" r="3.5"/>
  <g id="zoomPlus">
    <use xlink:href="#rim" fill="#404040"><set attributeName="fill" to="#808080" begin="zoomplus.mouseover" end="zoomplus.mouseout"/></use>
    <path d="M-4,0h8M0,-4v8" fill="none" stroke="white" stroke-width="1.5" pointer-events="none"/>
  </g>
  <g id="zoomMin">
    <use xlink:href="#rim" fill="#404040"><set attributeName="fill" to="#808080" begin="zoomminus.mouseover" end="zoomminus.mouseout"/></use>
    <path d="M-4,0h8" fill="none" stroke="white" stroke-width="1.5" pointer-events="none"/>
  </g>
  <g id="arrowUp" transform="translate(30 24)">
    <use xlink:href="#rim"/>
    <path pointer-events="none" fill="none" stroke="white" stroke-width="1.5" d="M0,-3.0v7 M-2.5,-0.5L0,-3.0L2.5,-0.5"/>
  </g>
  <g id="arrowRight" transform="rotate(90) translate(36 -43)">
    <use xlink:href="#rim"/>
    <path pointer-events="none" fill="none" stroke="white" stroke-width="1.5" d="M0,-3.0v7 M-2.5,-0.5L0,-3.0L2.5,-0.5"/>
  </g>
  <g id="arrowDown" transform="rotate(180) translate(-30 -48)">
    <use xlink:href="#rim"/>
    <path pointer-events="none" fill="none" stroke="white" stroke-width="1.5" d="M0,-3.0v7 M-2.5,-0.5L0,-3.0L2.5,-0.5"/>
  </g>
  <g id="arrowLeft" transform="rotate(270) translate(-36 17)">
    <use xlink:href="#rim"/>
    <path pointer-events="none" fill="none" stroke="white" stroke-width="1.5" d="M0,-3.0v7 M-2.5,-0.5L0,-3.0L2.5,-0.5"/>
  </g>
  <g id="resetDef">
    <use xlink:href="#rim2" fill="#404040"><set attributeName="fill" to="#808080" begin="reset.mouseover" end="reset.mouseout"/></use>
  </g>
</defs>
<script type="application/ecmascript">
var viewWidth = 953;
var viewHeight = 302;
var sectionId = 'dynsection-0';
</script>
<script type="application/ecmascript" xlink:href="svg.min.js"/>
<svg id="graph" class="graph">
<g id="viewport">
<title>C:/Users/M70027/Documents/Projects/tp&#45;deployment/dspic33ch&#45;power&#45;totem&#45;pole&#45;demonstration&#45;application&#45;single&#45;phase_v2/dspic33ch_totem_pole_single_phase_secondary_IL.X/sources/driver/power_controller/drv_pwrctrl_app_misc_TPBLPFC.c</title>
<!-- Node1 -->
<g id="Node000001" class="node">
<title>Node1</title>
<g id="a_Node000001"><a xlink:title="This is the driver source file for the power controller misc app.">
<polygon fill="#999999" stroke="#666666" points="518.88,-294 345.88,-294 345.88,-198 518.88,-198 518.88,-294"/>
<text text-anchor="start" x="353.88" y="-282" font-family="Helvetica,sans-Serif" font-size="10.00">C:/Users/M70027/Documents</text>
<text text-anchor="start" x="353.88" y="-271" font-family="Helvetica,sans-Serif" font-size="10.00">/Projects/tp&#45;deployment</text>
<text text-anchor="start" x="353.88" y="-260" font-family="Helvetica,sans-Serif" font-size="10.00">/dspic33ch&#45;power&#45;totem&#45;pole</text>
<text text-anchor="start" x="353.88" y="-249" font-family="Helvetica,sans-Serif" font-size="10.00">&#45;demonstration&#45;application</text>
<text text-anchor="start" x="353.88" y="-238" font-family="Helvetica,sans-Serif" font-size="10.00">&#45;single&#45;phase_v2/dspic33ch_totem</text>
<text text-anchor="start" x="353.88" y="-227" font-family="Helvetica,sans-Serif" font-size="10.00">_pole_single_phase_secondary_IL.X</text>
<text text-anchor="start" x="353.88" y="-216" font-family="Helvetica,sans-Serif" font-size="10.00">/sources/driver/power_controller</text>
<text text-anchor="middle" x="432.38" y="-205" font-family="Helvetica,sans-Serif" font-size="10.00">/drv_pwrctrl_app_misc_TPBLPFC.c</text>
</a>
</g>
</g>
<!-- Node2 -->
<g id="Node000002" class="node">
<title>Node2</title>
<g id="a_Node000002"><a xlink:title=" ">
<polygon fill="#e0e0e0" stroke="#999999" points="546.88,-19 511.88,-19 511.88,0 546.88,0 546.88,-19"/>
<text text-anchor="middle" x="529.38" y="-7" font-family="Helvetica,sans-Serif" font-size="10.00">xc.h</text>
</a>
</g>
</g>
<!-- Node1&#45;&gt;Node2 -->
<g id="edge1_Node000001_Node000002" class="edge">
<title>Node1&#45;&gt;Node2</title>
<g id="a_edge1_Node000001_Node000002"><a xlink:title=" ">
<path fill="none" stroke="#63b8ff" d="M345.53,-240.8C233.16,-233.35 46.76,-213.39 4.38,-162 -4.1,-151.71 2.53,-145.2 4.38,-132 9.32,-96.75 -1.06,-77.67 26.38,-55 63.19,-24.6 401.56,-13.71 501.63,-11.15"/>
<polygon fill="#63b8ff" stroke="#63b8ff" points="501.94,-14.64 511.85,-10.89 501.77,-7.64 501.94,-14.64"/>
</a>
</g>
</g>
<!-- Node3 -->
<g id="Node000003" class="node">
<title>Node3</title>
<g id="a_Node000003"><a xlink:title=" ">
<polygon fill="#e0e0e0" stroke="#999999" points="753.88,-19 704.88,-19 704.88,0 753.88,0 753.88,-19"/>
<text text-anchor="middle" x="729.38" y="-7" font-family="Helvetica,sans-Serif" font-size="10.00">stdint.h</text>
</a>
</g>
</g>
<!-- Node1&#45;&gt;Node3 -->
<g id="edge2_Node000001_Node000003" class="edge">
<title>Node1&#45;&gt;Node3</title>
<g id="a_edge2_Node000001_Node000003"><a xlink:title=" ">
<path fill="none" stroke="#63b8ff" d="M519.14,-234.45C601.58,-219.31 721.21,-182.87 778.38,-96 788.4,-80.78 785.76,-71.66 778.38,-55 773.06,-42.97 762.7,-32.8 752.87,-25.24"/>
<polygon fill="#63b8ff" stroke="#63b8ff" points="754.68,-22.23 744.51,-19.27 750.62,-27.93 754.68,-22.23"/>
</a>
</g>
</g>
<!-- Node4 -->
<g id="Node000004" class="node">
<title>Node4</title>
<g id="a_Node000004"><a xlink:href="a00790_source.html" target="_top" xlink:title=" ">
<polygon fill="white" stroke="#666666" points="123.38,-162 13.38,-162 13.38,-132 123.38,-132 123.38,-162"/>
<text text-anchor="start" x="21.38" y="-150" font-family="Helvetica,sans-Serif" font-size="10.00">../../../mcc_generated</text>
<text text-anchor="middle" x="68.38" y="-139" font-family="Helvetica,sans-Serif" font-size="10.00">_files/system/pins.h</text>
</a>
</g>
</g>
<!-- Node1&#45;&gt;Node4 -->
<g id="edge3_Node000001_Node000004" class="edge">
<title>Node1&#45;&gt;Node4</title>
<g id="a_edge3_Node000001_Node000004"><a xlink:title=" ">
<path fill="none" stroke="#63b8ff" d="M345.66,-221.89C279.56,-204.28 190.12,-180.44 130.91,-164.66"/>
<polygon fill="#63b8ff" stroke="#63b8ff" points="131.51,-161.2 120.94,-162.01 129.71,-167.96 131.51,-161.2"/>
</a>
</g>
</g>
<!-- Node5 -->
<g id="Node000005" class="node">
<title>Node5</title>
<g id="a_Node000005"><a xlink:href="a00362.html" target="_top" xlink:title="This is the driver header file for the power controller.">
<polygon fill="white" stroke="#666666" points="497.88,-156.5 366.88,-156.5 366.88,-137.5 497.88,-137.5 497.88,-156.5"/>
<text text-anchor="middle" x="432.38" y="-144.5" font-family="Helvetica,sans-Serif" font-size="10.00">drv_controller_TPBLPFC.h</text>
</a>
</g>
</g>
<!-- Node1&#45;&gt;Node5 -->
<g id="edge5_Node000001_Node000005" class="edge">
<title>Node1&#45;&gt;Node5</title>
<g id="a_edge5_Node000001_Node000005"><a xlink:title=" ">
<path fill="none" stroke="#63b8ff" d="M432.38,-197.92C432.38,-186.91 432.38,-175.81 432.38,-166.87"/>
<polygon fill="#63b8ff" stroke="#63b8ff" points="435.88,-166.57 432.38,-156.57 428.88,-166.57 435.88,-166.57"/>
</a>
</g>
</g>
<!-- Node10 -->
<g id="Node000010" class="node">
<title>Node10</title>
<g id="a_Node000010"><a xlink:href="a00344.html" target="_top" xlink:title="This is the typedef file for power controller.">
<polygon fill="white" stroke="#666666" points="769.38,-90.5 659.38,-90.5 659.38,-60.5 769.38,-60.5 769.38,-90.5"/>
<text text-anchor="start" x="667.38" y="-78.5" font-family="Helvetica,sans-Serif" font-size="10.00">../../devices/dev</text>
<text text-anchor="middle" x="714.38" y="-67.5" font-family="Helvetica,sans-Serif" font-size="10.00">_TPBLPFC_typedef.h</text>
</a>
</g>
</g>
<!-- Node1&#45;&gt;Node10 -->
<g id="edge13_Node000001_Node000010" class="edge">
<title>Node1&#45;&gt;Node10</title>
<g id="a_edge13_Node000001_Node000010"><a xlink:title=" ">
<path fill="none" stroke="#63b8ff" d="M511.31,-197.84C567.66,-164.17 640.54,-120.62 681.91,-95.9"/>
<polygon fill="#63b8ff" stroke="#63b8ff" points="683.94,-98.77 690.73,-90.63 680.35,-92.76 683.94,-98.77"/>
</a>
</g>
</g>
<!-- Node11 -->
<g id="Node000011" class="node">
<title>Node11</title>
<g id="a_Node000011"><a xlink:href="a00392.html" target="_top" xlink:title="Allows the user to change the advanced operating parameters.">
<polygon fill="white" stroke="#666666" points="944.88,-156.5 825.88,-156.5 825.88,-137.5 944.88,-137.5 944.88,-156.5"/>
<text text-anchor="middle" x="885.38" y="-144.5" font-family="Helvetica,sans-Serif" font-size="10.00">PFC_frameworkSetup.h</text>
</a>
</g>
</g>
<!-- Node1&#45;&gt;Node11 -->
<g id="edge16_Node000001_Node000011" class="edge">
<title>Node1&#45;&gt;Node11</title>
<g id="a_edge16_Node000001_Node000011"><a xlink:title=" ">
<path fill="none" stroke="#63b8ff" d="M518.92,-226.47C612.81,-206.37 759.45,-174.96 835.65,-158.65"/>
<polygon fill="#63b8ff" stroke="#63b8ff" points="836.43,-162.06 845.48,-156.54 834.96,-155.22 836.43,-162.06"/>
</a>
</g>
</g>
<!-- Node15 -->
<g id="Node000015" class="node">
<title>Node15</title>
<g id="a_Node000015"><a xlink:href="a00389_source.html" target="_top" xlink:title=" ">
<polygon fill="white" stroke="#666666" points="321.88,-156.5 196.88,-156.5 196.88,-137.5 321.88,-137.5 321.88,-156.5"/>
<text text-anchor="middle" x="259.38" y="-144.5" font-family="Helvetica,sans-Serif" font-size="10.00">../../misc/MCC_add_on.h</text>
</a>
</g>
</g>
<!-- Node1&#45;&gt;Node15 -->
<g id="edge22_Node000001_Node000015" class="edge">
<title>Node1&#45;&gt;Node15</title>
<g id="a_edge22_Node000001_Node000015"><a xlink:title=" ">
<path fill="none" stroke="#63b8ff" d="M348.41,-197.92C324.59,-184.56 300.51,-171.06 283.41,-161.47"/>
<polygon fill="#63b8ff" stroke="#63b8ff" points="285.11,-158.41 274.67,-156.57 281.68,-164.52 285.11,-158.41"/>
</a>
</g>
</g>
<!-- Node4&#45;&gt;Node2 -->
<g id="edge4_Node000004_Node000002" class="edge">
<title>Node4&#45;&gt;Node2</title>
<g id="a_edge4_Node000004_Node000002"><a xlink:title=" ">
<path fill="none" stroke="#63b8ff" d="M56.16,-131.89C40.72,-112.32 18.41,-76.86 38.38,-55 69.78,-20.62 402.53,-12.54 501.66,-10.88"/>
<polygon fill="#63b8ff" stroke="#63b8ff" points="501.86,-14.38 511.8,-10.72 501.74,-7.38 501.86,-14.38"/>
</a>
</g>
</g>
<!-- Node5&#45;&gt;Node2 -->
<g id="edge6_Node000005_Node000002" class="edge">
<title>Node5&#45;&gt;Node2</title>
<g id="a_edge6_Node000005_Node000002"><a xlink:title=" ">
<path fill="none" stroke="#63b8ff" d="M454.68,-137.39C472.49,-129.36 496.66,-115.65 510.38,-96 524.23,-76.18 528.2,-48 529.23,-29.49"/>
<polygon fill="#63b8ff" stroke="#63b8ff" points="532.73,-29.48 529.55,-19.37 525.73,-29.26 532.73,-29.48"/>
</a>
</g>
</g>
<!-- Node6 -->
<g id="Node000006" class="node">
<title>Node6</title>
<g id="a_Node000006"><a xlink:href="a00380.html" target="_top" xlink:title="Generated by the Microchip Digital Compensator Design Tool (DCDT).">
<polygon fill="white" stroke="#666666" points="640.88,-85 557.88,-85 557.88,-66 640.88,-66 640.88,-85"/>
<text text-anchor="middle" x="599.38" y="-73" font-family="Helvetica,sans-Serif" font-size="10.00">smps_control.h</text>
</a>
</g>
</g>
<!-- Node5&#45;&gt;Node6 -->
<g id="edge7_Node000005_Node000006" class="edge">
<title>Node5&#45;&gt;Node6</title>
<g id="a_edge7_Node000005_Node000006"><a xlink:title=" ">
<path fill="none" stroke="#63b8ff" d="M452.86,-137.48C482.03,-125.34 535.74,-102.99 569.4,-88.98"/>
<polygon fill="#63b8ff" stroke="#63b8ff" points="570.85,-92.17 578.74,-85.09 568.16,-85.7 570.85,-92.17"/>
</a>
</g>
</g>
<!-- Node7 -->
<g id="Node000007" class="node">
<title>Node7</title>
<g id="a_Node000007"><a xlink:title=" ">
<polygon fill="#e0e0e0" stroke="#999999" points="192.88,-96 61.88,-96 61.88,-55 192.88,-55 192.88,-96"/>
<text text-anchor="start" x="69.88" y="-84" font-family="Helvetica,sans-Serif" font-size="10.00">../dcdt/icomp1lv/dcdt</text>
<text text-anchor="start" x="69.88" y="-73" font-family="Helvetica,sans-Serif" font-size="10.00">_generated_code/icomp1lv</text>
<text text-anchor="middle" x="127.38" y="-62" font-family="Helvetica,sans-Serif" font-size="10.00">_dcdt.h</text>
</a>
</g>
</g>
<!-- Node5&#45;&gt;Node7 -->
<g id="edge10_Node000005_Node000007" class="edge">
<title>Node5&#45;&gt;Node7</title>
<g id="a_edge10_Node000005_Node000007"><a xlink:title=" ">
<path fill="none" stroke="#63b8ff" d="M390.72,-137.47C346.63,-128.33 274.78,-113.09 203.28,-96.17"/>
<polygon fill="#63b8ff" stroke="#63b8ff" points="203.73,-92.68 193.19,-93.77 202.11,-99.49 203.73,-92.68"/>
</a>
</g>
</g>
<!-- Node8 -->
<g id="Node000008" class="node">
<title>Node8</title>
<g id="a_Node000008"><a xlink:title=" ">
<polygon fill="#e0e0e0" stroke="#999999" points="345.38,-96 211.38,-96 211.38,-55 345.38,-55 345.38,-96"/>
<text text-anchor="start" x="219.38" y="-84" font-family="Helvetica,sans-Serif" font-size="10.00">../dcdt/icomp1hv/dcdt</text>
<text text-anchor="start" x="219.38" y="-73" font-family="Helvetica,sans-Serif" font-size="10.00">_generated_code/icomp1hv</text>
<text text-anchor="middle" x="278.38" y="-62" font-family="Helvetica,sans-Serif" font-size="10.00">_dcdt.h</text>
</a>
</g>
</g>
<!-- Node5&#45;&gt;Node8 -->
<g id="edge11_Node000005_Node000008" class="edge">
<title>Node5&#45;&gt;Node8</title>
<g id="a_edge11_Node000005_Node000008"><a xlink:title=" ">
<path fill="none" stroke="#63b8ff" d="M413.5,-137.48C393.08,-128.26 359.62,-113.16 331.1,-100.29"/>
<polygon fill="#63b8ff" stroke="#63b8ff" points="332.2,-96.95 321.65,-96.03 329.33,-103.33 332.2,-96.95"/>
</a>
</g>
</g>
<!-- Node9 -->
<g id="Node000009" class="node">
<title>Node9</title>
<g id="a_Node000009"><a xlink:title=" ">
<polygon fill="#e0e0e0" stroke="#999999" points="500.88,-96 363.88,-96 363.88,-55 500.88,-55 500.88,-96"/>
<text text-anchor="start" x="371.88" y="-84" font-family="Helvetica,sans-Serif" font-size="10.00">../dcdt/vcomp1ph/dcdt</text>
<text text-anchor="start" x="371.88" y="-73" font-family="Helvetica,sans-Serif" font-size="10.00">_generated_code/vcomp1ph</text>
<text text-anchor="middle" x="432.38" y="-62" font-family="Helvetica,sans-Serif" font-size="10.00">_dcdt.h</text>
</a>
</g>
</g>
<!-- Node5&#45;&gt;Node9 -->
<g id="edge12_Node000005_Node000009" class="edge">
<title>Node5&#45;&gt;Node9</title>
<g id="a_edge12_Node000005_Node000009"><a xlink:title=" ">
<path fill="none" stroke="#63b8ff" d="M432.38,-137.48C432.38,-129.65 432.38,-117.58 432.38,-106.24"/>
<polygon fill="#63b8ff" stroke="#63b8ff" points="435.88,-106.17 432.38,-96.17 428.88,-106.17 435.88,-106.17"/>
</a>
</g>
</g>
<!-- Node6&#45;&gt;Node2 -->
<g id="edge8_Node000006_Node000002" class="edge">
<title>Node6&#45;&gt;Node2</title>
<g id="a_edge8_Node000006_Node000002"><a xlink:title=" ">
<path fill="none" stroke="#63b8ff" d="M589.94,-65.87C578.83,-55.71 560.18,-38.66 546.5,-26.15"/>
<polygon fill="#63b8ff" stroke="#63b8ff" points="548.86,-23.57 539.12,-19.41 544.14,-28.74 548.86,-23.57"/>
</a>
</g>
</g>
<!-- Node6&#45;&gt;Node3 -->
<g id="edge9_Node000006_Node000003" class="edge">
<title>Node6&#45;&gt;Node3</title>
<g id="a_edge9_Node000006_Node000003"><a xlink:title=" ">
<path fill="none" stroke="#63b8ff" d="M616.91,-65.87C638.91,-55.04 676.87,-36.35 702.53,-23.72"/>
<polygon fill="#63b8ff" stroke="#63b8ff" points="704.29,-26.76 711.71,-19.2 701.19,-20.48 704.29,-26.76"/>
</a>
</g>
</g>
<!-- Node10&#45;&gt;Node2 -->
<g id="edge14_Node000010_Node000002" class="edge">
<title>Node10&#45;&gt;Node2</title>
<g id="a_edge14_Node000010_Node000002"><a xlink:title=" ">
<path fill="none" stroke="#63b8ff" d="M673.78,-60.45C638.23,-48.16 587.56,-30.63 556.66,-19.94"/>
<polygon fill="#63b8ff" stroke="#63b8ff" points="557.59,-16.55 546.99,-16.59 555.3,-23.17 557.59,-16.55"/>
</a>
</g>
</g>
<!-- Node10&#45;&gt;Node3 -->
<g id="edge15_Node000010_Node000003" class="edge">
<title>Node10&#45;&gt;Node3</title>
<g id="a_edge15_Node000010_Node000003"><a xlink:title=" ">
<path fill="none" stroke="#63b8ff" d="M717.71,-60.3C719.84,-51.2 722.63,-39.29 724.95,-29.4"/>
<polygon fill="#63b8ff" stroke="#63b8ff" points="728.43,-29.88 727.31,-19.34 721.62,-28.28 728.43,-29.88"/>
</a>
</g>
</g>
<!-- Node12 -->
<g id="Node000012" class="node">
<title>Node12</title>
<g id="a_Node000012"><a xlink:href="a00395.html" target="_top" xlink:title="Allows the user to easily change the operation modes.">
<polygon fill="white" stroke="#666666" points="940.88,-90.5 825.88,-90.5 825.88,-60.5 940.88,-60.5 940.88,-90.5"/>
<text text-anchor="start" x="833.88" y="-78.5" font-family="Helvetica,sans-Serif" font-size="10.00">Totempole_Application</text>
<text text-anchor="middle" x="883.38" y="-67.5" font-family="Helvetica,sans-Serif" font-size="10.00">_Setup.h</text>
</a>
</g>
</g>
<!-- Node11&#45;&gt;Node12 -->
<g id="edge17_Node000011_Node000012" class="edge">
<title>Node11&#45;&gt;Node12</title>
<g id="a_edge17_Node000011_Node000012"><a xlink:title=" ">
<path fill="none" stroke="#63b8ff" d="M885.14,-137.48C884.87,-128.36 884.45,-113.48 884.08,-100.7"/>
<polygon fill="#63b8ff" stroke="#63b8ff" points="887.57,-100.53 883.79,-90.64 880.58,-100.73 887.57,-100.53"/>
</a>
</g>
</g>
<!-- Node12&#45;&gt;Node2 -->
<g id="edge18_Node000012_Node000002" class="edge">
<title>Node12&#45;&gt;Node2</title>
<g id="a_edge18_Node000012_Node000002"><a xlink:title=" ">
<path fill="none" stroke="#63b8ff" d="M825.63,-63.7C810.28,-60.85 793.7,-57.79 778.38,-55 697.99,-40.35 602.91,-23.49 556.97,-15.37"/>
<polygon fill="#63b8ff" stroke="#63b8ff" points="557.35,-11.88 546.9,-13.59 556.14,-18.77 557.35,-11.88"/>
</a>
</g>
</g>
<!-- Node12&#45;&gt;Node3 -->
<g id="edge19_Node000012_Node000003" class="edge">
<title>Node12&#45;&gt;Node3</title>
<g id="a_edge19_Node000012_Node000003"><a xlink:title=" ">
<path fill="none" stroke="#63b8ff" d="M849.59,-60.45C822.58,-49.23 785.09,-33.65 759.19,-22.89"/>
<polygon fill="#63b8ff" stroke="#63b8ff" points="760.45,-19.62 749.88,-19.02 757.77,-26.09 760.45,-19.62"/>
</a>
</g>
</g>
<!-- Node13 -->
<g id="Node000013" class="node">
<title>Node13</title>
<g id="a_Node000013"><a xlink:title=" ">
<polygon fill="#e0e0e0" stroke="#999999" points="877.38,-19 821.38,-19 821.38,0 877.38,0 877.38,-19"/>
<text text-anchor="middle" x="849.38" y="-7" font-family="Helvetica,sans-Serif" font-size="10.00">stdbool.h</text>
</a>
</g>
</g>
<!-- Node12&#45;&gt;Node13 -->
<g id="edge20_Node000012_Node000013" class="edge">
<title>Node12&#45;&gt;Node13</title>
<g id="a_edge20_Node000012_Node000013"><a xlink:title=" ">
<path fill="none" stroke="#63b8ff" d="M875.84,-60.3C870.85,-50.91 864.27,-38.52 858.91,-28.45"/>
<polygon fill="#63b8ff" stroke="#63b8ff" points="861.86,-26.53 854.08,-19.34 855.68,-29.82 861.86,-26.53"/>
</a>
</g>
</g>
<!-- Node14 -->
<g id="Node000014" class="node">
<title>Node14</title>
<g id="a_Node000014"><a xlink:title=" ">
<polygon fill="#e0e0e0" stroke="#999999" points="936.88,-19 895.88,-19 895.88,0 936.88,0 936.88,-19"/>
<text text-anchor="middle" x="916.38" y="-7" font-family="Helvetica,sans-Serif" font-size="10.00">dsp.h</text>
</a>
</g>
</g>
<!-- Node12&#45;&gt;Node14 -->
<g id="edge21_Node000012_Node000014" class="edge">
<title>Node12&#45;&gt;Node14</title>
<g id="a_edge21_Node000012_Node000014"><a xlink:title=" ">
<path fill="none" stroke="#63b8ff" d="M890.7,-60.3C895.55,-50.91 901.93,-38.52 907.13,-28.45"/>
<polygon fill="#63b8ff" stroke="#63b8ff" points="910.35,-29.84 911.82,-19.34 904.13,-26.63 910.35,-29.84"/>
</a>
</g>
</g>
<!-- Node15&#45;&gt;Node2 -->
<g id="edge23_Node000015_Node000002" class="edge">
<title>Node15&#45;&gt;Node2</title>
<g id="a_edge23_Node000015_Node000002"><a xlink:title=" ">
<path fill="none" stroke="#63b8ff" d="M196.72,-139.63C120.49,-129.53 7.31,-105.58 53.38,-55 83.69,-21.73 404.31,-12.89 501.57,-10.97"/>
<polygon fill="#63b8ff" stroke="#63b8ff" points="501.86,-14.46 511.79,-10.78 501.73,-7.47 501.86,-14.46"/>
</a>
</g>
</g>
</g>
</svg>

<g id="navigator" transform="translate(0 0)" fill="#404254">
  <rect fill="#f2f5e9" fill-opacity="0.5" stroke="#606060" stroke-width=".5" x="0" y="0" width="60" height="60"/>
  <use id="zoomplus" xlink:href="#zoomPlus" x="17" y="9" onmousedown="handleZoom(evt,'in')"/>
  <use id="zoomminus" xlink:href="#zoomMin" x="42" y="9" onmousedown="handleZoom(evt,'out')"/>
  <use id="reset" xlink:href="#resetDef" x="30" y="36" onmousedown="handleReset()"/>
   <use id="arrowup" xlink:href="#arrowUp" x="0" y="0" onmousedown="handlePan(0,-1)"/>
  <use id="arrowright" xlink:href="#arrowRight" x="0" y="0" onmousedown="handlePan(1,0)"/>
  <use id="arrowdown" xlink:href="#arrowDown" x="0" y="0" onmousedown="handlePan(0,1)"/>
  <use id="arrowleft" xlink:href="#arrowLeft" x="0" y="0" onmousedown="handlePan(-1,0)"/>
</g>
<svg viewBox="0 0 15 15" width="100%" height="30px" preserveAspectRatio="xMaxYMin meet">
 <g id="arrow_out" transform="scale(0.3 0.3)">
  <a xlink:href="a00366_org.svg" target="_base">
   <rect id="button" ry="5" rx="5" y="6" x="6" height="38" width="38"
        fill="#f2f5e9" fill-opacity="0.5" stroke="#606060" stroke-width="1.0"/>
   <path id="arrow"
     d="M 11.500037,31.436501 C 11.940474,20.09759 22.043105,11.32322 32.158766,21.979434 L 37.068811,17.246167 C 37.068811,17.246167 37.088388,32 37.088388,32 L 22.160133,31.978069 C 22.160133,31.978069 26.997745,27.140456 26.997745,27.140456 C 18.528582,18.264221 13.291696,25.230495 11.500037,31.436501 z"
     style="fill:#404040;"/>
  </a>
 </g>
</svg>

<style type='text/css'>
<![CDATA[
[data-mouse-over-selected='false'] { opacity: 0.7; }
[data-mouse-over-selected='true']  { opacity: 1.0; }
]]>
</style>
<script type="application/ecmascript"><![CDATA[
document.addEventListener('DOMContentLoaded', (event) => {
  highlightEdges();
  highlightAdjacentNodes();
});
]]></script>
</svg>
