<?xml version="1.0" encoding="UTF-8" standalone="no"?>
<!DOCTYPE svg PUBLIC "-//W3C//DTD SVG 1.1//EN"
 "http://www.w3.org/Graphics/SVG/1.1/DTD/svg11.dtd">
<!-- Generated by graphviz version 8.1.0 (20230707.0739)
 -->
<!-- Title: D:/Firmware/MCU16ASMPS_TestEnvironment/_deployment/dspic33ch&#45;power&#45;totem&#45;pole&#45;demonstration&#45;application&#45;single&#45;phase/dspic33ch_totem_pole_single_phase_secondary_IL.X/sources/devices/dev_TPBLPFC_typedef.h Pages: 1 -->
<!--zoomable 356 -->

<svg id="main" version="1.1" xmlns="http://www.w3.org/2000/svg" xmlns:xlink="http://www.w3.org/1999/xlink" xml:space="preserve" onload="init(evt)">
<style type="text/css"><![CDATA[
.node, .edge {opacity: 0.7;}
.node.selected, .edge.selected {opacity: 1;}
.edge:hover path { stroke: red; }
.edge:hover polygon { stroke: red; fill: red; }
]]></style>

<defs>
  <circle id="rim" cx="0" cy="0" r="7"/>
  <circle id="rim2" cx="0" cy="0" r="3.5"/>
  <g id="zoomPlus">
    <use xlink:href="#rim" fill="#404040"><set attributeName="fill" to="#808080" begin="zoomplus.mouseover" end="zoomplus.mouseout"/></use>
    <path d="M-4,0h8M0,-4v8" fill="none" stroke="white" stroke-width="1.5" pointer-events="none"/>
  </g>
  <g id="zoomMin">
    <use xlink:href="#rim" fill="#404040"><set attributeName="fill" to="#808080" begin="zoomminus.mouseover" end="zoomminus.mouseout"/></use>
    <path d="M-4,0h8" fill="none" stroke="white" stroke-width="1.5" pointer-events="none"/>
  </g>
  <g id="arrowUp" transform="translate(30 24)">
    <use xlink:href="#rim"/>
    <path pointer-events="none" fill="none" stroke="white" stroke-width="1.5" d="M0,-3.0v7 M-2.5,-0.5L0,-3.0L2.5,-0.5"/>
  </g>
  <g id="arrowRight" transform="rotate(90) translate(36 -43)">
    <use xlink:href="#rim"/>
    <path pointer-events="none" fill="none" stroke="white" stroke-width="1.5" d="M0,-3.0v7 M-2.5,-0.5L0,-3.0L2.5,-0.5"/>
  </g>
  <g id="arrowDown" transform="rotate(180) translate(-30 -48)">
    <use xlink:href="#rim"/>
    <path pointer-events="none" fill="none" stroke="white" stroke-width="1.5" d="M0,-3.0v7 M-2.5,-0.5L0,-3.0L2.5,-0.5"/>
  </g>
  <g id="arrowLeft" transform="rotate(270) translate(-36 17)">
    <use xlink:href="#rim"/>
    <path pointer-events="none" fill="none" stroke="white" stroke-width="1.5" d="M0,-3.0v7 M-2.5,-0.5L0,-3.0L2.5,-0.5"/>
  </g>
  <g id="resetDef">
    <use xlink:href="#rim2" fill="#404040"><set attributeName="fill" to="#808080" begin="reset.mouseover" end="reset.mouseout"/></use>
  </g>
</defs>
<script type="application/ecmascript">
var viewWidth = 1611;
var viewHeight = 356;
var sectionId = 'dynsection-1';
</script>
<script type="application/ecmascript" xlink:href="svg.min.js"/>
<svg id="graph" class="graph">
<g id="viewport">
<title>D:/Firmware/MCU16ASMPS_TestEnvironment/_deployment/dspic33ch&#45;power&#45;totem&#45;pole&#45;demonstration&#45;application&#45;single&#45;phase/dspic33ch_totem_pole_single_phase_secondary_IL.X/sources/devices/dev_TPBLPFC_typedef.h</title>
<!-- Node1 -->
<g id="Node000001" class="node">
<title>Node1</title>
<g id="a_Node000001"><a xlink:title="This is the typedef file for power controller.">
<polygon fill="#999999" stroke="#666666" points="688,-348 496.5,-348 496.5,-256 688,-256 688,-348"/>
<text text-anchor="start" x="504.5" y="-334.5" font-family="Helvetica,sans-Serif" font-size="10.00">D:/Firmware/MCU16ASMPS</text>
<text text-anchor="start" x="504.5" y="-322.5" font-family="Helvetica,sans-Serif" font-size="10.00">_TestEnvironment/_deployment</text>
<text text-anchor="start" x="504.5" y="-310.5" font-family="Helvetica,sans-Serif" font-size="10.00">/dspic33ch&#45;power&#45;totem&#45;pole</text>
<text text-anchor="start" x="504.5" y="-298.5" font-family="Helvetica,sans-Serif" font-size="10.00">&#45;demonstration&#45;application&#45;single</text>
<text text-anchor="start" x="504.5" y="-286.5" font-family="Helvetica,sans-Serif" font-size="10.00">&#45;phase/dspic33ch_totem_pole_single</text>
<text text-anchor="start" x="504.5" y="-274.5" font-family="Helvetica,sans-Serif" font-size="10.00">_phase_secondary_IL.X/sources/devices</text>
<text text-anchor="middle" x="592.25" y="-262.5" font-family="Helvetica,sans-Serif" font-size="10.00">/dev_TPBLPFC_typedef.h</text>
</a>
</g>
</g>
<!-- Node2 -->
<g id="Node000002" class="node">
<title>Node2</title>
<g id="a_Node000002"><a xlink:href="a00724_source.html" target="_top" xlink:title=" ">
<polygon fill="white" stroke="#666666" points="176.5,-86 0,-86 0,-6 176.5,-6 176.5,-86"/>
<text text-anchor="start" x="8" y="-72.5" font-family="Helvetica,sans-Serif" font-size="10.00">D:/Firmware/MCU16ASMPS</text>
<text text-anchor="start" x="8" y="-60.5" font-family="Helvetica,sans-Serif" font-size="10.00">_TestEnvironment/_deployment</text>
<text text-anchor="start" x="8" y="-48.5" font-family="Helvetica,sans-Serif" font-size="10.00">/dspic33ch&#45;power&#45;totem&#45;pole</text>
<text text-anchor="start" x="8" y="-36.5" font-family="Helvetica,sans-Serif" font-size="10.00">&#45;demonstration&#45;application&#45;single</text>
<text text-anchor="start" x="8" y="-24.5" font-family="Helvetica,sans-Serif" font-size="10.00">&#45;phase/dspic33ch_totem_pole_single</text>
<text text-anchor="middle" x="88.25" y="-12.5" font-family="Helvetica,sans-Serif" font-size="10.00">_phase_secondary_IL.X/main.c</text>
</a>
</g>
</g>
<!-- Node1&#45;&gt;Node2 -->
<g id="edge1_Node000001_Node000002" class="edge">
<title>Node1&#45;&gt;Node2</title>
<g id="a_edge1_Node000001_Node000002"><a xlink:title=" ">
<path fill="none" stroke="#63b8ff" d="M485.63,-292.78C373.69,-282.15 207.25,-260.07 158.25,-220 117.62,-186.78 100.38,-126.32 93.2,-86.41"/>
<polygon fill="#63b8ff" stroke="#63b8ff" points="485,-296.33 495.28,-293.77 485.65,-289.36 485,-296.33"/>
</a>
</g>
</g>
<!-- Node3 -->
<g id="Node000003" class="node">
<title>Node3</title>
<g id="a_Node000003"><a xlink:href="a00736_source.html" target="_top" xlink:title=" ">
<polygon fill="white" stroke="#666666" points="374.38,-86 194.12,-86 194.12,-6 374.38,-6 374.38,-86"/>
<text text-anchor="start" x="202.12" y="-72.5" font-family="Helvetica,sans-Serif" font-size="10.00">D:/Firmware/MCU16ASMPS</text>
<text text-anchor="start" x="202.12" y="-60.5" font-family="Helvetica,sans-Serif" font-size="10.00">_TestEnvironment/_deployment</text>
<text text-anchor="start" x="202.12" y="-48.5" font-family="Helvetica,sans-Serif" font-size="10.00">/dspic33ch&#45;power&#45;totem&#45;pole</text>
<text text-anchor="start" x="202.12" y="-36.5" font-family="Helvetica,sans-Serif" font-size="10.00">&#45;demonstration&#45;application&#45;single</text>
<text text-anchor="start" x="202.12" y="-24.5" font-family="Helvetica,sans-Serif" font-size="10.00">&#45;phase/dspic33ch_totem_pole_single</text>
<text text-anchor="middle" x="284.25" y="-12.5" font-family="Helvetica,sans-Serif" font-size="10.00">_phase_secondary_IL.X/main_tasks.c</text>
</a>
</g>
</g>
<!-- Node1&#45;&gt;Node3 -->
<g id="edge2_Node000001_Node000003" class="edge">
<title>Node1&#45;&gt;Node3</title>
<g id="a_edge2_Node000001_Node000003"><a xlink:title=" ">
<path fill="none" stroke="#63b8ff" d="M485.4,-295.07C376.18,-286.5 217.33,-266.27 179.25,-220 153.27,-188.43 161.21,-164.7 179.25,-128 187.22,-111.78 200.18,-97.89 214.31,-86.43"/>
<polygon fill="#63b8ff" stroke="#63b8ff" points="484.9,-298.61 495.14,-295.88 485.43,-291.63 484.9,-298.61"/>
</a>
</g>
</g>
<!-- Node4 -->
<g id="Node000004" class="node">
<title>Node4</title>
<g id="a_Node000004"><a xlink:href="a00329.html" target="_top" xlink:title="This is the typedef file for power controller.">
<polygon fill="white" stroke="#666666" points="698.12,-220 486.38,-220 486.38,-128 698.12,-128 698.12,-220"/>
<text text-anchor="start" x="494.38" y="-206.5" font-family="Helvetica,sans-Serif" font-size="10.00">D:/Firmware/MCU16ASMPS</text>
<text text-anchor="start" x="494.38" y="-194.5" font-family="Helvetica,sans-Serif" font-size="10.00">_TestEnvironment/_deployment</text>
<text text-anchor="start" x="494.38" y="-182.5" font-family="Helvetica,sans-Serif" font-size="10.00">/dspic33ch&#45;power&#45;totem&#45;pole</text>
<text text-anchor="start" x="494.38" y="-170.5" font-family="Helvetica,sans-Serif" font-size="10.00">&#45;demonstration&#45;application&#45;single</text>
<text text-anchor="start" x="494.38" y="-158.5" font-family="Helvetica,sans-Serif" font-size="10.00">&#45;phase/dspic33ch_totem_pole_single</text>
<text text-anchor="start" x="494.38" y="-146.5" font-family="Helvetica,sans-Serif" font-size="10.00">_phase_secondary_IL.X/sources/devices</text>
<text text-anchor="middle" x="592.25" y="-134.5" font-family="Helvetica,sans-Serif" font-size="10.00">/dev_TPBLPFC_numberconnection_typedef.c</text>
</a>
</g>
</g>
<!-- Node1&#45;&gt;Node4 -->
<g id="edge3_Node000001_Node000004" class="edge">
<title>Node1&#45;&gt;Node4</title>
<g id="a_edge3_Node000001_Node000004"><a xlink:title=" ">
<path fill="none" stroke="#63b8ff" d="M592.25,-244.61C592.25,-236.52 592.25,-228.27 592.25,-220.42"/>
<polygon fill="#63b8ff" stroke="#63b8ff" points="588.75,-244.51 592.25,-254.51 595.75,-244.51 588.75,-244.51"/>
</a>
</g>
</g>
<!-- Node5 -->
<g id="Node000005" class="node">
<title>Node5</title>
<g id="a_Node000005"><a xlink:href="a00335.html" target="_top" xlink:title="This is the typedef file for power controller.">
<polygon fill="white" stroke="#666666" points="908,-220 716.5,-220 716.5,-128 908,-128 908,-220"/>
<text text-anchor="start" x="724.5" y="-206.5" font-family="Helvetica,sans-Serif" font-size="10.00">D:/Firmware/MCU16ASMPS</text>
<text text-anchor="start" x="724.5" y="-194.5" font-family="Helvetica,sans-Serif" font-size="10.00">_TestEnvironment/_deployment</text>
<text text-anchor="start" x="724.5" y="-182.5" font-family="Helvetica,sans-Serif" font-size="10.00">/dspic33ch&#45;power&#45;totem&#45;pole</text>
<text text-anchor="start" x="724.5" y="-170.5" font-family="Helvetica,sans-Serif" font-size="10.00">&#45;demonstration&#45;application&#45;single</text>
<text text-anchor="start" x="724.5" y="-158.5" font-family="Helvetica,sans-Serif" font-size="10.00">&#45;phase/dspic33ch_totem_pole_single</text>
<text text-anchor="start" x="724.5" y="-146.5" font-family="Helvetica,sans-Serif" font-size="10.00">_phase_secondary_IL.X/sources/devices</text>
<text text-anchor="middle" x="812.25" y="-134.5" font-family="Helvetica,sans-Serif" font-size="10.00">/dev_TPBLPFC_typedef.c</text>
</a>
</g>
</g>
<!-- Node1&#45;&gt;Node5 -->
<g id="edge4_Node000001_Node000005" class="edge">
<title>Node1&#45;&gt;Node5</title>
<g id="a_edge4_Node000001_Node000005"><a xlink:title=" ">
<path fill="none" stroke="#63b8ff" d="M681.12,-250.1C698.26,-240.28 716.12,-230.05 732.94,-220.42"/>
<polygon fill="#63b8ff" stroke="#63b8ff" points="679.61,-247.5 672.68,-255.51 683.09,-253.58 679.61,-247.5"/>
</a>
</g>
</g>
<!-- Node6 -->
<g id="Node000006" class="node">
<title>Node6</title>
<g id="a_Node000006"><a xlink:href="a00341.html" target="_top" xlink:title="This is the driver source file for adc builds upon mcc.">
<polygon fill="white" stroke="#666666" points="574.12,-92 392.38,-92 392.38,0 574.12,0 574.12,-92"/>
<text text-anchor="start" x="400.38" y="-78.5" font-family="Helvetica,sans-Serif" font-size="10.00">D:/Firmware/MCU16ASMPS</text>
<text text-anchor="start" x="400.38" y="-66.5" font-family="Helvetica,sans-Serif" font-size="10.00">_TestEnvironment/_deployment</text>
<text text-anchor="start" x="400.38" y="-54.5" font-family="Helvetica,sans-Serif" font-size="10.00">/dspic33ch&#45;power&#45;totem&#45;pole</text>
<text text-anchor="start" x="400.38" y="-42.5" font-family="Helvetica,sans-Serif" font-size="10.00">&#45;demonstration&#45;application&#45;single</text>
<text text-anchor="start" x="400.38" y="-30.5" font-family="Helvetica,sans-Serif" font-size="10.00">&#45;phase/dspic33ch_totem_pole_single</text>
<text text-anchor="start" x="400.38" y="-18.5" font-family="Helvetica,sans-Serif" font-size="10.00">_phase_secondary_IL.X/sources/driver</text>
<text text-anchor="middle" x="483.25" y="-6.5" font-family="Helvetica,sans-Serif" font-size="10.00">/adc/drv_adc.c</text>
</a>
</g>
</g>
<!-- Node1&#45;&gt;Node6 -->
<g id="edge5_Node000001_Node000006" class="edge">
<title>Node1&#45;&gt;Node6</title>
<g id="a_edge5_Node000001_Node000006"><a xlink:title=" ">
<path fill="none" stroke="#63b8ff" d="M498.68,-248.2C490.14,-239.85 482.67,-230.46 477.25,-220 456.77,-180.52 461.97,-128.87 470.01,-92.31"/>
<polygon fill="#63b8ff" stroke="#63b8ff" points="496.04,-250.45 505.8,-254.59 500.75,-245.27 496.04,-250.45"/>
</a>
</g>
</g>
<!-- Node7 -->
<g id="Node000007" class="node">
<title>Node7</title>
<g id="a_Node000007"><a xlink:href="a00347.html" target="_top" xlink:title="This is the driver source file for MSI.">
<polygon fill="white" stroke="#666666" points="1108.12,-220 926.38,-220 926.38,-128 1108.12,-128 1108.12,-220"/>
<text text-anchor="start" x="934.38" y="-206.5" font-family="Helvetica,sans-Serif" font-size="10.00">D:/Firmware/MCU16ASMPS</text>
<text text-anchor="start" x="934.38" y="-194.5" font-family="Helvetica,sans-Serif" font-size="10.00">_TestEnvironment/_deployment</text>
<text text-anchor="start" x="934.38" y="-182.5" font-family="Helvetica,sans-Serif" font-size="10.00">/dspic33ch&#45;power&#45;totem&#45;pole</text>
<text text-anchor="start" x="934.38" y="-170.5" font-family="Helvetica,sans-Serif" font-size="10.00">&#45;demonstration&#45;application&#45;single</text>
<text text-anchor="start" x="934.38" y="-158.5" font-family="Helvetica,sans-Serif" font-size="10.00">&#45;phase/dspic33ch_totem_pole_single</text>
<text text-anchor="start" x="934.38" y="-146.5" font-family="Helvetica,sans-Serif" font-size="10.00">_phase_secondary_IL.X/sources/driver</text>
<text text-anchor="middle" x="1017.25" y="-134.5" font-family="Helvetica,sans-Serif" font-size="10.00">/msi/drv_msi.c</text>
</a>
</g>
</g>
<!-- Node1&#45;&gt;Node7 -->
<g id="edge6_Node000001_Node000007" class="edge">
<title>Node1&#45;&gt;Node7</title>
<g id="a_edge6_Node000001_Node000007"><a xlink:title=" ">
<path fill="none" stroke="#63b8ff" d="M699.01,-279.44C763.11,-265.25 845.82,-244.75 917.25,-220 920.13,-219 923.04,-217.95 925.96,-216.87"/>
<polygon fill="#63b8ff" stroke="#63b8ff" points="698.5,-276.19 689.49,-281.75 700,-283.03 698.5,-276.19"/>
</a>
</g>
</g>
<!-- Node8 -->
<g id="Node000008" class="node">
<title>Node8</title>
<g id="a_Node000008"><a xlink:href="a00365.html" target="_top" xlink:title="This is the driver source file for the power controller app.">
<polygon fill="white" stroke="#666666" points="1342.38,-220 1126.12,-220 1126.12,-128 1342.38,-128 1342.38,-220"/>
<text text-anchor="start" x="1134.12" y="-206.5" font-family="Helvetica,sans-Serif" font-size="10.00">D:/Firmware/MCU16ASMPS</text>
<text text-anchor="start" x="1134.12" y="-194.5" font-family="Helvetica,sans-Serif" font-size="10.00">_TestEnvironment/_deployment</text>
<text text-anchor="start" x="1134.12" y="-182.5" font-family="Helvetica,sans-Serif" font-size="10.00">/dspic33ch&#45;power&#45;totem&#45;pole</text>
<text text-anchor="start" x="1134.12" y="-170.5" font-family="Helvetica,sans-Serif" font-size="10.00">&#45;demonstration&#45;application&#45;single</text>
<text text-anchor="start" x="1134.12" y="-158.5" font-family="Helvetica,sans-Serif" font-size="10.00">&#45;phase/dspic33ch_totem_pole_single</text>
<text text-anchor="start" x="1134.12" y="-146.5" font-family="Helvetica,sans-Serif" font-size="10.00">_phase_secondary_IL.X/sources/driver</text>
<text text-anchor="middle" x="1234.25" y="-134.5" font-family="Helvetica,sans-Serif" font-size="10.00">/power_controller/drv_pwrctrl_app_TPBLPFC.c</text>
</a>
</g>
</g>
<!-- Node1&#45;&gt;Node8 -->
<g id="edge7_Node000001_Node000008" class="edge">
<title>Node1&#45;&gt;Node8</title>
<g id="a_edge7_Node000001_Node000008"><a xlink:title=" ">
<path fill="none" stroke="#63b8ff" d="M699.17,-291.28C806.24,-279.97 975.08,-257.84 1117.25,-220 1120.09,-219.24 1122.95,-218.44 1125.83,-217.6"/>
<polygon fill="#63b8ff" stroke="#63b8ff" points="698.94,-287.89 689.36,-292.41 699.67,-294.85 698.94,-287.89"/>
</a>
</g>
</g>
<!-- Node9 -->
<g id="Node000009" class="node">
<title>Node9</title>
<g id="a_Node000009"><a xlink:href="a00359.html" target="_top" xlink:title="This is the driver source file for the power controller misc app.">
<polygon fill="white" stroke="#666666" points="1602.5,-220 1360,-220 1360,-128 1602.5,-128 1602.5,-220"/>
<text text-anchor="start" x="1368" y="-206.5" font-family="Helvetica,sans-Serif" font-size="10.00">D:/Firmware/MCU16ASMPS</text>
<text text-anchor="start" x="1368" y="-194.5" font-family="Helvetica,sans-Serif" font-size="10.00">_TestEnvironment/_deployment</text>
<text text-anchor="start" x="1368" y="-182.5" font-family="Helvetica,sans-Serif" font-size="10.00">/dspic33ch&#45;power&#45;totem&#45;pole</text>
<text text-anchor="start" x="1368" y="-170.5" font-family="Helvetica,sans-Serif" font-size="10.00">&#45;demonstration&#45;application&#45;single</text>
<text text-anchor="start" x="1368" y="-158.5" font-family="Helvetica,sans-Serif" font-size="10.00">&#45;phase/dspic33ch_totem_pole_single</text>
<text text-anchor="start" x="1368" y="-146.5" font-family="Helvetica,sans-Serif" font-size="10.00">_phase_secondary_IL.X/sources/driver</text>
<text text-anchor="middle" x="1481.25" y="-134.5" font-family="Helvetica,sans-Serif" font-size="10.00">/power_controller/drv_pwrctrl_app_misc_TPBLPFC.c</text>
</a>
</g>
</g>
<!-- Node1&#45;&gt;Node9 -->
<g id="edge8_Node000001_Node000009" class="edge">
<title>Node1&#45;&gt;Node9</title>
<g id="a_edge8_Node000001_Node000009"><a xlink:title=" ">
<path fill="none" stroke="#63b8ff" d="M699.21,-297.22C847.3,-290.27 1122.4,-271.12 1351.25,-220 1354.05,-219.38 1356.87,-218.71 1359.7,-218.01"/>
<polygon fill="#63b8ff" stroke="#63b8ff" points="699.17,-293.77 689.34,-297.72 699.49,-300.76 699.17,-293.77"/>
</a>
</g>
</g>
<!-- Node10 -->
<g id="Node000010" class="node">
<title>Node10</title>
<g id="a_Node000010"><a xlink:href="a00362.html" target="_top" xlink:title="This is the driver header file for the power controller misc app.">
<polygon fill="white" stroke="#666666" points="430.5,-220 188,-220 188,-128 430.5,-128 430.5,-220"/>
<text text-anchor="start" x="196" y="-206.5" font-family="Helvetica,sans-Serif" font-size="10.00">D:/Firmware/MCU16ASMPS</text>
<text text-anchor="start" x="196" y="-194.5" font-family="Helvetica,sans-Serif" font-size="10.00">_TestEnvironment/_deployment</text>
<text text-anchor="start" x="196" y="-182.5" font-family="Helvetica,sans-Serif" font-size="10.00">/dspic33ch&#45;power&#45;totem&#45;pole</text>
<text text-anchor="start" x="196" y="-170.5" font-family="Helvetica,sans-Serif" font-size="10.00">&#45;demonstration&#45;application&#45;single</text>
<text text-anchor="start" x="196" y="-158.5" font-family="Helvetica,sans-Serif" font-size="10.00">&#45;phase/dspic33ch_totem_pole_single</text>
<text text-anchor="start" x="196" y="-146.5" font-family="Helvetica,sans-Serif" font-size="10.00">_phase_secondary_IL.X/sources/driver</text>
<text text-anchor="middle" x="309.25" y="-134.5" font-family="Helvetica,sans-Serif" font-size="10.00">/power_controller/drv_pwrctrl_app_misc_TPBLPFC.h</text>
</a>
</g>
</g>
<!-- Node1&#45;&gt;Node10 -->
<g id="edge9_Node000001_Node000010" class="edge">
<title>Node1&#45;&gt;Node10</title>
<g id="a_edge9_Node000001_Node000010"><a xlink:title=" ">
<path fill="none" stroke="#63b8ff" d="M486.31,-253.83C461.66,-242.86 435.46,-231.19 410.99,-220.3"/>
<polygon fill="#63b8ff" stroke="#63b8ff" points="484.49,-257.3 495.04,-258.17 487.33,-250.9 484.49,-257.3"/>
</a>
</g>
</g>
<!-- Node10&#45;&gt;Node2 -->
<g id="edge10_Node000010_Node000002" class="edge">
<title>Node10&#45;&gt;Node2</title>
<g id="a_edge10_Node000010_Node000002"><a xlink:title=" ">
<path fill="none" stroke="#63b8ff" d="M219.96,-122.09C199.09,-110.19 177.16,-97.69 157.32,-86.38"/>
<polygon fill="#63b8ff" stroke="#63b8ff" points="218.04,-125.6 228.46,-127.51 221.51,-119.52 218.04,-125.6"/>
</a>
</g>
</g>
<!-- Node10&#45;&gt;Node3 -->
<g id="edge11_Node000010_Node000003" class="edge">
<title>Node10&#45;&gt;Node3</title>
<g id="a_edge11_Node000010_Node000003"><a xlink:title=" ">
<path fill="none" stroke="#63b8ff" d="M298.11,-116.86C296.06,-106.5 293.95,-95.9 292.02,-86.18"/>
<polygon fill="#63b8ff" stroke="#63b8ff" points="294.85,-117.38 300.22,-126.51 301.71,-116.02 294.85,-117.38"/>
</a>
</g>
</g>
<!-- Node10&#45;&gt;Node6 -->
<g id="edge12_Node000010_Node000006" class="edge">
<title>Node10&#45;&gt;Node6</title>
<g id="a_edge12_Node000010_Node000006"><a xlink:title=" ">
<path fill="none" stroke="#63b8ff" d="M380.67,-121.28C393.88,-111.72 407.59,-101.79 420.52,-92.42"/>
<polygon fill="#63b8ff" stroke="#63b8ff" points="379.11,-118.81 373.07,-127.51 383.22,-124.48 379.11,-118.81"/>
</a>
</g>
</g>
</g>
</svg>

<g id="navigator" transform="translate(0 0)" fill="#404254">
  <rect fill="#f2f5e9" fill-opacity="0.5" stroke="#606060" stroke-width=".5" x="0" y="0" width="60" height="60"/>
  <use id="zoomplus" xlink:href="#zoomPlus" x="17" y="9" onmousedown="handleZoom(evt,'in')"/>
  <use id="zoomminus" xlink:href="#zoomMin" x="42" y="9" onmousedown="handleZoom(evt,'out')"/>
  <use id="reset" xlink:href="#resetDef" x="30" y="36" onmousedown="handleReset()"/>
   <use id="arrowup" xlink:href="#arrowUp" x="0" y="0" onmousedown="handlePan(0,-1)"/>
  <use id="arrowright" xlink:href="#arrowRight" x="0" y="0" onmousedown="handlePan(1,0)"/>
  <use id="arrowdown" xlink:href="#arrowDown" x="0" y="0" onmousedown="handlePan(0,1)"/>
  <use id="arrowleft" xlink:href="#arrowLeft" x="0" y="0" onmousedown="handlePan(-1,0)"/>
</g>
<svg viewBox="0 0 15 15" width="100%" height="30px" preserveAspectRatio="xMaxYMin meet">
 <g id="arrow_out" transform="scale(0.3 0.3)">
  <a xlink:href="a00340_org.svg" target="_base">
   <rect id="button" ry="5" rx="5" y="6" x="6" height="38" width="38"
        fill="#f2f5e9" fill-opacity="0.5" stroke="#606060" stroke-width="1.0"/>
   <path id="arrow"
     d="M 11.500037,31.436501 C 11.940474,20.09759 22.043105,11.32322 32.158766,21.979434 L 37.068811,17.246167 C 37.068811,17.246167 37.088388,32 37.088388,32 L 22.160133,31.978069 C 22.160133,31.978069 26.997745,27.140456 26.997745,27.140456 C 18.528582,18.264221 13.291696,25.230495 11.500037,31.436501 z"
     style="fill:#404040;"/>
  </a>
 </g>
</svg>

<style type='text/css'>
<![CDATA[
[data-mouse-over-selected='false'] { opacity: 0.7; }
[data-mouse-over-selected='true']  { opacity: 1.0; }
]]>
</style>
<script type="application/ecmascript"><![CDATA[
document.addEventListener('DOMContentLoaded', (event) => {
  highlightEdges();
  highlightAdjacentNodes();
});
]]></script>
</svg>
