<?xml version="1.0" encoding="UTF-8" standalone="no"?>
<!DOCTYPE svg PUBLIC "-//W3C//DTD SVG 1.1//EN"
 "http://www.w3.org/Graphics/SVG/1.1/DTD/svg11.dtd">
<!-- Generated by graphviz version 8.1.0 (20230707.0739)
 -->
<!-- Title: ADC1_Initialize Pages: 1 -->
<svg width="285pt" height="306pt"
 viewBox="0.00 0.00 285.25 306.00" xmlns="http://www.w3.org/2000/svg" xmlns:xlink="http://www.w3.org/1999/xlink">
<g id="graph0" class="graph" transform="scale(1 1) rotate(0) translate(4 302)">
<title>ADC1_Initialize</title>
<!-- Node1 -->
<g id="Node000001" class="node">
<title>Node1</title>
<g id="a_Node000001"><a xlink:title="Initializes ADC1 module, using the given initialization data This function must be called before any ...">
<polygon fill="#999999" stroke="#666666" points="82,-165 0,-165 0,-145 82,-145 82,-165"/>
<text text-anchor="middle" x="41" y="-151.5" font-family="Helvetica,sans-Serif" font-size="10.00">ADC1_Initialize</text>
</a>
</g>
</g>
<!-- Node2 -->
<g id="Node000002" class="node">
<title>Node2</title>
<g id="a_Node000002"><a xlink:href="a00398.html#ga9b0b6df07fa6f03a98b101045b35e39e" target="_top" xlink:title="This is the default callback function for all the analog channels. This callback is triggered once th...">
<polygon fill="white" stroke="#666666" points="257.38,-298 137.88,-298 137.88,-278 257.38,-278 257.38,-298"/>
<text text-anchor="middle" x="197.62" y="-284.5" font-family="Helvetica,sans-Serif" font-size="10.00">ADC1_ChannelCallback</text>
</a>
</g>
</g>
<!-- Node1&#45;&gt;Node2 -->
<g id="edge1_Node000001_Node000002" class="edge">
<title>Node1&#45;&gt;Node2</title>
<g id="a_edge1_Node000001_Node000002"><a xlink:title=" ">
<path fill="none" stroke="#63b8ff" d="M45.85,-165.41C54.8,-188.04 79.2,-241.89 118,-269 120.94,-271.05 124.07,-272.88 127.32,-274.52"/>
<polygon fill="#63b8ff" stroke="#63b8ff" points="125.84,-278.12 136.41,-278.85 128.61,-271.69 125.84,-278.12"/>
</a>
</g>
</g>
<!-- Node3 -->
<g id="Node000003" class="node">
<title>Node3</title>
<g id="a_Node000003"><a xlink:href="a00398.html#gaf5a05de69c2fee35a21d798c01ce3417" target="_top" xlink:title="This function can be used to override default callback ADC1_ChannelCallback and to define custom call...">
<polygon fill="white" stroke="#666666" points="275.38,-260 119.88,-260 119.88,-240 275.38,-240 275.38,-260"/>
<text text-anchor="middle" x="197.62" y="-246.5" font-family="Helvetica,sans-Serif" font-size="10.00">ADC1_ChannelCallbackRegister</text>
</a>
</g>
</g>
<!-- Node1&#45;&gt;Node3 -->
<g id="edge2_Node000001_Node000003" class="edge">
<title>Node1&#45;&gt;Node3</title>
<g id="a_edge2_Node000001_Node000003"><a xlink:title=" ">
<path fill="none" stroke="#63b8ff" d="M49.35,-165.4C61.61,-181.94 87.89,-214.11 118,-231 121.06,-232.72 124.28,-234.28 127.58,-235.7"/>
<polygon fill="#63b8ff" stroke="#63b8ff" points="126.13,-239.28 136.72,-239.56 128.62,-232.74 126.13,-239.28"/>
</a>
</g>
</g>
<!-- Node4 -->
<g id="Node000004" class="node">
<title>Node4</title>
<g id="a_Node000004"><a xlink:href="a00398.html#ga15c38c135acb0b6a4a3cd1474ce9ae9c" target="_top" xlink:title="This is the default callback with weak attribute. The user can override and implement the default cal...">
<polygon fill="white" stroke="#666666" points="259.25,-222 136,-222 136,-202 259.25,-202 259.25,-222"/>
<text text-anchor="middle" x="197.62" y="-208.5" font-family="Helvetica,sans-Serif" font-size="10.00">ADC1_CommonCallback</text>
</a>
</g>
</g>
<!-- Node1&#45;&gt;Node4 -->
<g id="edge3_Node000001_Node000004" class="edge">
<title>Node1&#45;&gt;Node4</title>
<g id="a_edge3_Node000001_Node000004"><a xlink:title=" ">
<path fill="none" stroke="#63b8ff" d="M59.91,-165.41C75,-173.82 97.36,-185.46 118,-193 123.52,-195.02 129.34,-196.89 135.22,-198.6"/>
<polygon fill="#63b8ff" stroke="#63b8ff" points="134.22,-202.23 144.79,-201.5 136.07,-195.48 134.22,-202.23"/>
</a>
</g>
</g>
<!-- Node5 -->
<g id="Node000005" class="node">
<title>Node5</title>
<g id="a_Node000005"><a xlink:href="a00398.html#gaecf43569204fdaadc281671b99322935" target="_top" xlink:title="This function can be used to override default callback and to define custom callback for ADC1 Common ...">
<polygon fill="white" stroke="#666666" points="277.25,-184 118,-184 118,-164 277.25,-164 277.25,-184"/>
<text text-anchor="middle" x="197.62" y="-170.5" font-family="Helvetica,sans-Serif" font-size="10.00">ADC1_CommonCallbackRegister</text>
</a>
</g>
</g>
<!-- Node1&#45;&gt;Node5 -->
<g id="edge4_Node000001_Node000005" class="edge">
<title>Node1&#45;&gt;Node5</title>
<g id="a_edge4_Node000001_Node000005"><a xlink:title=" ">
<path fill="none" stroke="#63b8ff" d="M82.22,-159.94C89.9,-160.89 98.21,-161.91 106.74,-162.95"/>
<polygon fill="#63b8ff" stroke="#63b8ff" points="106.26,-166.55 116.62,-164.29 107.12,-159.6 106.26,-166.55"/>
</a>
</g>
</g>
<!-- Node6 -->
<g id="Node000006" class="node">
<title>Node6</title>
<g id="a_Node000006"><a xlink:href="a00398.html#ga451e7989cdee47c83772616b964f1828" target="_top" xlink:title="Comparator callback function.">
<polygon fill="white" stroke="#666666" points="264.88,-146 130.38,-146 130.38,-126 264.88,-126 264.88,-146"/>
<text text-anchor="middle" x="197.62" y="-132.5" font-family="Helvetica,sans-Serif" font-size="10.00">ADC1_ComparatorCallback</text>
</a>
</g>
</g>
<!-- Node1&#45;&gt;Node6 -->
<g id="edge5_Node000001_Node000006" class="edge">
<title>Node1&#45;&gt;Node6</title>
<g id="a_edge5_Node000001_Node000006"><a xlink:title=" ">
<path fill="none" stroke="#63b8ff" d="M82.22,-150.06C93.62,-148.66 106.42,-147.08 119.23,-145.51"/>
<polygon fill="#63b8ff" stroke="#63b8ff" points="119.46,-148.89 128.96,-144.19 118.6,-141.94 119.46,-148.89"/>
</a>
</g>
</g>
<!-- Node7 -->
<g id="Node000007" class="node">
<title>Node7</title>
<g id="a_Node000007"><a xlink:href="a00398.html#ga80266aee20908dbc13be9199675ddef3" target="_top" xlink:title="This function can be used to override default callback and to define custom callback for ADC1_Compara...">
<polygon fill="white" stroke="#666666" points="264.88,-108 130.38,-108 130.38,-76 264.88,-76 264.88,-108"/>
<text text-anchor="start" x="138.38" y="-94.5" font-family="Helvetica,sans-Serif" font-size="10.00">ADC1_ComparatorCallback</text>
<text text-anchor="middle" x="197.62" y="-82.5" font-family="Helvetica,sans-Serif" font-size="10.00">Register</text>
</a>
</g>
</g>
<!-- Node1&#45;&gt;Node7 -->
<g id="edge6_Node000001_Node000007" class="edge">
<title>Node1&#45;&gt;Node7</title>
<g id="a_edge6_Node000001_Node000007"><a xlink:title=" ">
<path fill="none" stroke="#63b8ff" d="M60.67,-144.64C75.83,-136.48 97.91,-125.16 118,-117 122.18,-115.3 126.52,-113.64 130.92,-112.04"/>
<polygon fill="#63b8ff" stroke="#63b8ff" points="131.98,-115.03 140.25,-108.41 129.65,-108.43 131.98,-115.03"/>
</a>
</g>
</g>
<!-- Node8 -->
<g id="Node000008" class="node">
<title>Node8</title>
<g id="a_Node000008"><a xlink:href="a00398.html#gaf051bfe964d4b2babd517b5445d53883" target="_top" xlink:title="Enables analog and digital power for ADC1 dedicated core.">
<polygon fill="white" stroke="#666666" points="259.62,-58 135.62,-58 135.62,-38 259.62,-38 259.62,-58"/>
<text text-anchor="middle" x="197.62" y="-44.5" font-family="Helvetica,sans-Serif" font-size="10.00">ADC1_CorePowerEnable</text>
</a>
</g>
</g>
<!-- Node1&#45;&gt;Node8 -->
<g id="edge7_Node000001_Node000008" class="edge">
<title>Node1&#45;&gt;Node8</title>
<g id="a_edge7_Node000001_Node000008"><a xlink:title=" ">
<path fill="none" stroke="#63b8ff" d="M47.84,-144.74C58.98,-126.18 85.08,-87.08 118,-67 120.64,-65.39 123.41,-63.91 126.27,-62.56"/>
<polygon fill="#63b8ff" stroke="#63b8ff" points="127.34,-65.49 135.24,-58.44 124.67,-59.03 127.34,-65.49"/>
</a>
</g>
</g>
<!-- Node9 -->
<g id="Node000009" class="node">
<title>Node9</title>
<g id="a_Node000009"><a xlink:href="a00398.html#ga497308e69536136ae422cf23a5eed40c" target="_top" xlink:title="Enables power for ADC1 shared Core This function is used to set the analog and digital power for ADC1...">
<polygon fill="white" stroke="#666666" points="275,-20 120.25,-20 120.25,0 275,0 275,-20"/>
<text text-anchor="middle" x="197.62" y="-6.5" font-family="Helvetica,sans-Serif" font-size="10.00">ADC1_SharedCorePowerEnable</text>
</a>
</g>
</g>
<!-- Node1&#45;&gt;Node9 -->
<g id="edge8_Node000001_Node000009" class="edge">
<title>Node1&#45;&gt;Node9</title>
<g id="a_edge8_Node000001_Node000009"><a xlink:title=" ">
<path fill="none" stroke="#63b8ff" d="M45.16,-144.62C53.12,-120.32 76.38,-59.51 118,-29 119.74,-27.72 121.56,-26.53 123.43,-25.42"/>
<polygon fill="#63b8ff" stroke="#63b8ff" points="124.87,-28.11 132.23,-20.49 121.72,-21.86 124.87,-28.11"/>
</a>
</g>
</g>
</g>
</svg>
