<?xml version="1.0" encoding="UTF-8" standalone="no"?>
<!DOCTYPE svg PUBLIC "-//W3C//DTD SVG 1.1//EN"
 "http://www.w3.org/Graphics/SVG/1.1/DTD/svg11.dtd">
<!-- Generated by graphviz version 8.1.0 (20230707.0739)
 -->
<!-- Title: CAN1_RX_FIFO_OverflowStatusFlagClear Pages: 1 -->
<svg width="493pt" height="66pt"
 viewBox="0.00 0.00 492.50 66.00" xmlns="http://www.w3.org/2000/svg" xmlns:xlink="http://www.w3.org/1999/xlink">
<g id="graph0" class="graph" transform="scale(1 1) rotate(0) translate(4 62)">
<title>CAN1_RX_FIFO_OverflowStatusFlagClear</title>
<!-- Node1 -->
<g id="Node000001" class="node">
<title>Node1</title>
<g id="a_Node000001"><a xlink:title="This function is used to clear the CAN1 receive FIFO overflow status bit.">
<polygon fill="#999999" stroke="#666666" points="484.5,-45 329,-45 329,-13 484.5,-13 484.5,-45"/>
<text text-anchor="start" x="337" y="-31.5" font-family="Helvetica,sans-Serif" font-size="10.00">CAN1_RX_FIFO_OverflowStatus</text>
<text text-anchor="middle" x="406.75" y="-19.5" font-family="Helvetica,sans-Serif" font-size="10.00">FlagClear</text>
</a>
</g>
</g>
<!-- Node2 -->
<g id="Node000002" class="node">
<title>Node2</title>
<g id="a_Node000002"><a xlink:href="a00399.html#ga4fe1df4cd9f0ce122687dcfab0713b5b" target="_top" xlink:title="Reads the received single message object.">
<polygon fill="white" stroke="#666666" points="265.25,-58 184.75,-58 184.75,-38 265.25,-38 265.25,-58"/>
<text text-anchor="middle" x="225" y="-44.5" font-family="Helvetica,sans-Serif" font-size="10.00">CAN1_Receive</text>
</a>
</g>
</g>
<!-- Node1&#45;&gt;Node2 -->
<g id="edge1_Node000001_Node000002" class="edge">
<title>Node1&#45;&gt;Node2</title>
<g id="a_edge1_Node000001_Node000002"><a xlink:title=" ">
<path fill="none" stroke="#63b8ff" d="M317.98,-38.28C299.66,-40.21 281.22,-42.16 265.71,-43.8"/>
<polygon fill="#63b8ff" stroke="#63b8ff" points="318.16,-41.67 327.74,-37.14 317.43,-34.71 318.16,-41.67"/>
</a>
</g>
</g>
<!-- Node4 -->
<g id="Node000004" class="node">
<title>Node4</title>
<g id="a_Node000004"><a xlink:href="a00399.html#ga2c655a58965fff8578916b59bed47297" target="_top" xlink:title="Reads the received single message object from the CAN1 receive FIFO.">
<polygon fill="white" stroke="#666666" points="293,-20 157,-20 157,0 293,0 293,-20"/>
<text text-anchor="middle" x="225" y="-6.5" font-family="Helvetica,sans-Serif" font-size="10.00">CAN1_ReceiveMessageGet</text>
</a>
</g>
</g>
<!-- Node1&#45;&gt;Node4 -->
<g id="edge3_Node000001_Node000004" class="edge">
<title>Node1&#45;&gt;Node4</title>
<g id="a_edge3_Node000001_Node000004"><a xlink:title=" ">
<path fill="none" stroke="#63b8ff" d="M317.88,-19.71C309.59,-18.84 301.27,-17.96 293.22,-17.11"/>
<polygon fill="#63b8ff" stroke="#63b8ff" points="317.43,-23.29 327.74,-20.86 318.16,-16.33 317.43,-23.29"/>
</a>
</g>
</g>
<!-- Node3 -->
<g id="Node000003" class="node">
<title>Node3</title>
<g id="a_Node000003"><a xlink:href="a00227.html#a77b41fe067ba8e8d666827b686e52cff" target="_top" xlink:title=" ">
<polygon fill="white" stroke="#666666" points="121,-58 0,-58 0,-38 121,-38 121,-58"/>
<text text-anchor="middle" x="60.5" y="-44.5" font-family="Helvetica,sans-Serif" font-size="10.00">CAN_Receive_from_GUI</text>
</a>
</g>
</g>
<!-- Node2&#45;&gt;Node3 -->
<g id="edge2_Node000002_Node000003" class="edge">
<title>Node2&#45;&gt;Node3</title>
<g id="a_edge2_Node000002_Node000003"><a xlink:title=" ">
<path fill="none" stroke="#63b8ff" d="M174.06,-48C157.43,-48 138.72,-48 121.41,-48"/>
<polygon fill="#63b8ff" stroke="#63b8ff" points="173.66,-51.5 183.66,-48 173.66,-44.5 173.66,-51.5"/>
</a>
</g>
</g>
</g>
</svg>
