<?xml version="1.0" encoding="UTF-8" standalone="no"?>
<!DOCTYPE svg PUBLIC "-//W3C//DTD SVG 1.1//EN"
 "http://www.w3.org/Graphics/SVG/1.1/DTD/svg11.dtd">
<!-- Generated by graphviz version 2.44.1 (20200629.0846)
 -->
<!-- Title: Handler_PHx Pages: 1 -->
<svg width="455pt" height="384pt"
 viewBox="0.00 0.00 455.00 384.00" xmlns="http://www.w3.org/2000/svg" xmlns:xlink="http://www.w3.org/1999/xlink">

<svg id="main" version="1.1" xmlns="http://www.w3.org/2000/svg" xmlns:xlink="http://www.w3.org/1999/xlink" xml:space="preserve">

<style type="text/css"><![CDATA[
.node, .edge {opacity: 0.7;}
.node.selected, .edge.selected {opacity: 1;}
.edge:hover path { stroke: red; }
.edge:hover polygon { stroke: red; fill: red; }
]]></style>
<script type="application/ecmascript" xlink:href="svg.min.js"/>
<svg id="graph" class="graph">
<g id="graph0" class="graph" transform="scale(1 1) rotate(0) translate(4 380)">
<title>Handler_PHx</title>
<!-- Node1 -->
<g id="Node000001" class="node">
<title>Node1</title>
<g id="a_Node000001"><a xlink:title=" ">
<polygon fill="#999999" stroke="#666666" points="74,-198 0,-198 0,-179 74,-179 74,-198"/>
<text text-anchor="middle" x="37" y="-186" font-family="Helvetica,sans-Serif" font-size="10.00">Handler_PHx</text>
</a>
</g>
</g>
<!-- Node2 -->
<g id="Node000002" class="node">
<title>Node2</title>
<g id="a_Node000002"><a xlink:href="a00371.html#af6c4a58221bd490ef4d2084547601a10" target="_top" xlink:title=" ">
<polygon fill="white" stroke="#666666" points="271,-376 116,-376 116,-357 271,-357 271,-376"/>
<text text-anchor="middle" x="193.5" y="-364" font-family="Helvetica,sans-Serif" font-size="10.00">Adaptive_Currentcontroller_Gain</text>
</a>
</g>
</g>
<!-- Node1&#45;&gt;Node2 -->
<g id="edge1_Node000001_Node000002" class="edge">
<title>Node1&#45;&gt;Node2</title>
<g id="a_edge1_Node000001_Node000002"><a xlink:title=" ">
<path fill="none" stroke="#63b8ff" d="M39.33,-198.24C43.7,-226.35 60.32,-308.21 110,-348.5 111.41,-349.64 112.87,-350.72 114.39,-351.73"/>
<polygon fill="#63b8ff" stroke="#63b8ff" points="113.08,-355.01 123.52,-356.83 116.5,-348.9 113.08,-355.01"/>
</a>
</g>
</g>
<!-- Node3 -->
<g id="Node000003" class="node">
<title>Node3</title>
<g id="a_Node000003"><a xlink:href="a00371.html#a51a90512029dd0d15f013ea8548c5e7c" target="_top" xlink:title=" ">
<polygon fill="white" stroke="#666666" points="237.5,-339 149.5,-339 149.5,-320 237.5,-320 237.5,-339"/>
<text text-anchor="middle" x="193.5" y="-327" font-family="Helvetica,sans-Serif" font-size="10.00">BurstMode_PHx</text>
</a>
</g>
</g>
<!-- Node1&#45;&gt;Node3 -->
<g id="edge2_Node000001_Node000003" class="edge">
<title>Node1&#45;&gt;Node3</title>
<g id="a_edge2_Node000001_Node000003"><a xlink:title=" ">
<path fill="none" stroke="#63b8ff" d="M40.75,-198.34C47.9,-221.94 69.35,-281.99 110,-311.5 118.63,-317.77 129.02,-321.92 139.47,-324.67"/>
<polygon fill="#63b8ff" stroke="#63b8ff" points="138.93,-328.13 149.45,-326.89 140.45,-321.3 138.93,-328.13"/>
</a>
</g>
</g>
<!-- Node6 -->
<g id="Node000006" class="node">
<title>Node6</title>
<g id="a_Node000006"><a xlink:href="a00371.html#a69847930c99b34bceb7165143cd28b92" target="_top" xlink:title=" ">
<polygon fill="white" stroke="#666666" points="224.5,-302 162.5,-302 162.5,-283 224.5,-283 224.5,-302"/>
<text text-anchor="middle" x="193.5" y="-290" font-family="Helvetica,sans-Serif" font-size="10.00">CCM_PHx</text>
</a>
</g>
</g>
<!-- Node1&#45;&gt;Node6 -->
<g id="edge5_Node000001_Node000006" class="edge">
<title>Node1&#45;&gt;Node6</title>
<g id="a_edge5_Node000001_Node000006"><a xlink:title=" ">
<path fill="none" stroke="#63b8ff" d="M43.3,-198.16C53.64,-216.03 78.29,-254.18 110,-273.5 122.63,-281.19 138.07,-285.77 152.16,-288.5"/>
<polygon fill="#63b8ff" stroke="#63b8ff" points="151.68,-291.97 162.13,-290.18 152.84,-285.07 151.68,-291.97"/>
</a>
</g>
</g>
<!-- Node9 -->
<g id="Node000009" class="node">
<title>Node9</title>
<g id="a_Node000009"><a xlink:href="a00371.html#a02e735cc5f9ec0075b4b0157326fd3db" target="_top" xlink:title=" ">
<polygon fill="white" stroke="#666666" points="264.5,-93 122.5,-93 122.5,-74 264.5,-74 264.5,-93"/>
<text text-anchor="middle" x="193.5" y="-81" font-family="Helvetica,sans-Serif" font-size="10.00">DutyCycleFeedForward_PHx</text>
</a>
</g>
</g>
<!-- Node1&#45;&gt;Node9 -->
<g id="edge10_Node000001_Node000009" class="edge">
<title>Node1&#45;&gt;Node9</title>
<g id="a_edge10_Node000001_Node000009"><a xlink:title=" ">
<path fill="none" stroke="#63b8ff" d="M43.86,-178.93C54.76,-161.97 79.78,-126.6 110,-107.5 117.16,-102.97 125.2,-99.28 133.38,-96.26"/>
<polygon fill="#63b8ff" stroke="#63b8ff" points="134.64,-99.53 143.01,-93.03 132.41,-92.89 134.64,-99.53"/>
</a>
</g>
</g>
<!-- Node10 -->
<g id="Node000010" class="node">
<title>Node10</title>
<g id="a_Node000010"><a xlink:href="a00407.html#ga37968a783e44cd80643478d2b559dbf4" target="_top" xlink:title="This inline function sets the PWM generator specific duty cycle register.">
<polygon fill="white" stroke="#666666" points="433.5,-154 326.5,-154 326.5,-135 433.5,-135 433.5,-154"/>
<text text-anchor="middle" x="380" y="-142" font-family="Helvetica,sans-Serif" font-size="10.00">PWM_DutyCycleSet</text>
</a>
</g>
</g>
<!-- Node1&#45;&gt;Node10 -->
<g id="edge11_Node000001_Node000010" class="edge">
<title>Node1&#45;&gt;Node10</title>
<g id="a_edge11_Node000001_Node000010"><a xlink:title=" ">
<path fill="none" stroke="#63b8ff" d="M48.18,-178.81C61.27,-167.08 85.27,-147.99 110,-140.5 179.65,-119.41 264.16,-125.47 319.64,-133.45"/>
<polygon fill="#63b8ff" stroke="#63b8ff" points="319.24,-136.93 329.65,-134.96 320.28,-130.01 319.24,-136.93"/>
</a>
</g>
</g>
<!-- Node11 -->
<g id="Node000011" class="node">
<title>Node11</title>
<g id="a_Node000011"><a xlink:href="a00380.html#ac4c8852561395f2969c08ff062325e03" target="_top" xlink:title=" ">
<polygon fill="white" stroke="#666666" points="266,-56 121,-56 121,-37 266,-37 266,-56"/>
<text text-anchor="middle" x="193.5" y="-44" font-family="Helvetica,sans-Serif" font-size="10.00">SMPS_Controller2P2ZUpdate</text>
</a>
</g>
</g>
<!-- Node1&#45;&gt;Node11 -->
<g id="edge12_Node000001_Node000011" class="edge">
<title>Node1&#45;&gt;Node11</title>
<g id="a_edge12_Node000001_Node000011"><a xlink:title=" ">
<path fill="none" stroke="#63b8ff" d="M40.63,-178.93C47.61,-155.39 68.96,-94.41 110,-64.5 111.88,-63.13 113.84,-61.86 115.86,-60.69"/>
<polygon fill="#63b8ff" stroke="#63b8ff" points="117.71,-63.68 125.12,-56.12 114.6,-57.41 117.71,-63.68"/>
</a>
</g>
</g>
<!-- Node12 -->
<g id="Node000012" class="node">
<title>Node12</title>
<g id="a_Node000012"><a xlink:href="a00371.html#ad3476b7cd98e6a22a65e1d89b7a59ea5" target="_top" xlink:title=" ">
<polygon fill="white" stroke="#666666" points="248.5,-227.5 138.5,-227.5 138.5,-197.5 248.5,-197.5 248.5,-227.5"/>
<text text-anchor="start" x="146.5" y="-215.5" font-family="Helvetica,sans-Serif" font-size="10.00">SoftstartAfterZC_PHx</text>
<text text-anchor="middle" x="193.5" y="-204.5" font-family="Helvetica,sans-Serif" font-size="10.00">_GTIMode</text>
</a>
</g>
</g>
<!-- Node1&#45;&gt;Node12 -->
<g id="edge13_Node000001_Node000012" class="edge">
<title>Node1&#45;&gt;Node12</title>
<g id="a_edge13_Node000001_Node000012"><a xlink:title=" ">
<path fill="none" stroke="#63b8ff" d="M74.22,-194.13C90.33,-196.63 109.78,-199.65 128.22,-202.52"/>
<polygon fill="#63b8ff" stroke="#63b8ff" points="127.92,-206.01 138.34,-204.09 128.99,-199.09 127.92,-206.01"/>
</a>
</g>
</g>
<!-- Node13 -->
<g id="Node000013" class="node">
<title>Node13</title>
<g id="a_Node000013"><a xlink:href="a00371.html#a3e7091905b384bca668f6f12a50834f4" target="_top" xlink:title=" ">
<polygon fill="white" stroke="#666666" points="248.5,-179.5 138.5,-179.5 138.5,-149.5 248.5,-149.5 248.5,-179.5"/>
<text text-anchor="start" x="146.5" y="-167.5" font-family="Helvetica,sans-Serif" font-size="10.00">SoftstartAfterZC_PHx</text>
<text text-anchor="middle" x="193.5" y="-156.5" font-family="Helvetica,sans-Serif" font-size="10.00">_PFCMode</text>
</a>
</g>
</g>
<!-- Node1&#45;&gt;Node13 -->
<g id="edge19_Node000001_Node000013" class="edge">
<title>Node1&#45;&gt;Node13</title>
<g id="a_edge19_Node000001_Node000013"><a xlink:title=" ">
<path fill="none" stroke="#63b8ff" d="M74.22,-182.87C90.33,-180.37 109.78,-177.35 128.22,-174.48"/>
<polygon fill="#63b8ff" stroke="#63b8ff" points="128.99,-177.91 138.34,-172.91 127.92,-170.99 128.99,-177.91"/>
</a>
</g>
</g>
<!-- Node14 -->
<g id="Node000014" class="node">
<title>Node14</title>
<g id="a_Node000014"><a xlink:href="a00380.html#a4fd6e889896907ceaae34b73435d5627" target="_top" xlink:title=" ">
<polygon fill="white" stroke="#666666" points="277,-19 110,-19 110,0 277,0 277,-19"/>
<text text-anchor="middle" x="193.5" y="-7" font-family="Helvetica,sans-Serif" font-size="10.00">XFT_SMPS_Controller2P2ZUpdate</text>
</a>
</g>
</g>
<!-- Node1&#45;&gt;Node14 -->
<g id="edge25_Node000001_Node000014" class="edge">
<title>Node1&#45;&gt;Node14</title>
<g id="a_edge25_Node000001_Node000014"><a xlink:title=" ">
<path fill="none" stroke="#63b8ff" d="M39.31,-178.7C43.62,-150.41 60.1,-68.06 110,-27.5 111.41,-26.36 112.87,-25.28 114.38,-24.27"/>
<polygon fill="#63b8ff" stroke="#63b8ff" points="116.5,-27.1 123.51,-19.16 113.07,-20.99 116.5,-27.1"/>
</a>
</g>
</g>
<!-- Node15 -->
<g id="Node000015" class="node">
<title>Node15</title>
<g id="a_Node000015"><a xlink:href="a00371.html#a9d01eea56aae5f1437eb541a321277cc" target="_top" xlink:title=" ">
<polygon fill="white" stroke="#666666" points="236,-265 151,-265 151,-246 236,-246 236,-265"/>
<text text-anchor="middle" x="193.5" y="-253" font-family="Helvetica,sans-Serif" font-size="10.00">ZeroCross_PHx</text>
</a>
</g>
</g>
<!-- Node1&#45;&gt;Node15 -->
<g id="edge26_Node000001_Node000015" class="edge">
<title>Node1&#45;&gt;Node15</title>
<g id="a_edge26_Node000001_Node000015"><a xlink:title=" ">
<path fill="none" stroke="#63b8ff" d="M49.46,-198.07C63.06,-208.96 86.82,-226.5 110,-236.5 119.72,-240.69 130.49,-244.03 140.96,-246.66"/>
<polygon fill="#63b8ff" stroke="#63b8ff" points="140.33,-250.1 150.86,-248.97 141.92,-243.29 140.33,-250.1"/>
</a>
</g>
</g>
<!-- Node4 -->
<g id="Node000004" class="node">
<title>Node4</title>
<g id="a_Node000004"><a xlink:href="a00407.html#ga531b59d8823e3ebda2da60f48582bcf3" target="_top" xlink:title="This inline function enables PWM override on PWMH output for specific PWM generator selected by the a...">
<polygon fill="white" stroke="#666666" points="445.5,-265 314.5,-265 314.5,-246 445.5,-246 445.5,-265"/>
<text text-anchor="middle" x="380" y="-253" font-family="Helvetica,sans-Serif" font-size="10.00">PWM_OverrideHighEnable</text>
</a>
</g>
</g>
<!-- Node3&#45;&gt;Node4 -->
<g id="edge3_Node000003_Node000004" class="edge">
<title>Node3&#45;&gt;Node4</title>
<g id="a_edge3_Node000003_Node000004"><a xlink:title=" ">
<path fill="none" stroke="#63b8ff" d="M237.81,-325.05C250.99,-322.41 265.13,-318.2 277,-311.5 297.26,-300.07 293.04,-285.45 313,-273.5 315.85,-271.79 318.87,-270.24 321.99,-268.84"/>
<polygon fill="#63b8ff" stroke="#63b8ff" points="323.54,-271.98 331.54,-265.04 320.96,-265.48 323.54,-271.98"/>
</a>
</g>
</g>
<!-- Node5 -->
<g id="Node000005" class="node">
<title>Node5</title>
<g id="a_Node000005"><a xlink:href="a00407.html#ga2548ca8feda75ba6ab784280679da6ae" target="_top" xlink:title="This inline function enables PWM override on PWML output for specific PWM generator selected by the a...">
<polygon fill="white" stroke="#666666" points="444.5,-302 315.5,-302 315.5,-283 444.5,-283 444.5,-302"/>
<text text-anchor="middle" x="380" y="-290" font-family="Helvetica,sans-Serif" font-size="10.00">PWM_OverrideLowEnable</text>
</a>
</g>
</g>
<!-- Node3&#45;&gt;Node5 -->
<g id="edge4_Node000003_Node000005" class="edge">
<title>Node3&#45;&gt;Node5</title>
<g id="a_edge4_Node000003_Node000005"><a xlink:title=" ">
<path fill="none" stroke="#63b8ff" d="M237.76,-320.83C262.69,-315.83 294.35,-309.48 321.37,-304.06"/>
<polygon fill="#63b8ff" stroke="#63b8ff" points="322.36,-307.43 331.48,-302.03 320.99,-300.56 322.36,-307.43"/>
</a>
</g>
</g>
<!-- Node6&#45;&gt;Node4 -->
<g id="edge7_Node000006_Node000004" class="edge">
<title>Node6&#45;&gt;Node4</title>
<g id="a_edge7_Node000006_Node000004"><a xlink:title=" ">
<path fill="none" stroke="#63b8ff" d="M224.55,-286.47C250.63,-281.24 289.11,-273.53 321.14,-267.1"/>
<polygon fill="#63b8ff" stroke="#63b8ff" points="322.17,-270.47 331.29,-265.07 320.8,-263.6 322.17,-270.47"/>
</a>
</g>
</g>
<!-- Node6&#45;&gt;Node5 -->
<g id="edge9_Node000006_Node000005" class="edge">
<title>Node6&#45;&gt;Node5</title>
<g id="a_edge9_Node000006_Node000005"><a xlink:title=" ">
<path fill="none" stroke="#63b8ff" d="M224.55,-292.5C246.38,-292.5 276.9,-292.5 305.05,-292.5"/>
<polygon fill="#63b8ff" stroke="#63b8ff" points="305.3,-296 315.3,-292.5 305.3,-289 305.3,-296"/>
</a>
</g>
</g>
<!-- Node7 -->
<g id="Node000007" class="node">
<title>Node7</title>
<g id="a_Node000007"><a xlink:href="a00407.html#ga957b002605bfb2239a26f174808b2ad8" target="_top" xlink:title="This inline function disables PWM override on PWMH output for specific PWM generator selected by the ...">
<polygon fill="white" stroke="#666666" points="447,-191 313,-191 313,-172 447,-172 447,-191"/>
<text text-anchor="middle" x="380" y="-179" font-family="Helvetica,sans-Serif" font-size="10.00">PWM_OverrideHighDisable</text>
</a>
</g>
</g>
<!-- Node6&#45;&gt;Node7 -->
<g id="edge6_Node000006_Node000007" class="edge">
<title>Node6&#45;&gt;Node7</title>
<g id="a_edge6_Node000006_Node000007"><a xlink:title=" ">
<path fill="none" stroke="#63b8ff" d="M224.71,-291.79C241.65,-289.96 262.28,-285.21 277,-273.5 305.62,-250.73 284.84,-222.84 313,-199.5 314.54,-198.22 316.17,-197.03 317.86,-195.93"/>
<polygon fill="#63b8ff" stroke="#63b8ff" points="319.67,-198.93 326.79,-191.08 316.33,-192.78 319.67,-198.93"/>
</a>
</g>
</g>
<!-- Node8 -->
<g id="Node000008" class="node">
<title>Node8</title>
<g id="a_Node000008"><a xlink:href="a00407.html#gabbedef830c43428e96c7d5125662a8a6" target="_top" xlink:title="This inline function disables PWM override on PWML output for specific PWM generator selected by the ...">
<polygon fill="white" stroke="#666666" points="445.5,-228 314.5,-228 314.5,-209 445.5,-209 445.5,-228"/>
<text text-anchor="middle" x="380" y="-216" font-family="Helvetica,sans-Serif" font-size="10.00">PWM_OverrideLowDisable</text>
</a>
</g>
</g>
<!-- Node6&#45;&gt;Node8 -->
<g id="edge8_Node000006_Node000008" class="edge">
<title>Node6&#45;&gt;Node8</title>
<g id="a_edge8_Node000006_Node000008"><a xlink:title=" ">
<path fill="none" stroke="#63b8ff" d="M224.62,-289.75C240.95,-287.25 260.99,-282.51 277,-273.5 296.99,-262.24 293.23,-248.15 313,-236.5 315.86,-234.81 318.89,-233.28 322.01,-231.88"/>
<polygon fill="#63b8ff" stroke="#63b8ff" points="323.57,-235.03 331.58,-228.11 321,-228.52 323.57,-235.03"/>
</a>
</g>
</g>
<!-- Node12&#45;&gt;Node4 -->
<g id="edge16_Node000012_Node000004" class="edge">
<title>Node12&#45;&gt;Node4</title>
<g id="a_edge16_Node000012_Node000004"><a xlink:title=" ">
<path fill="none" stroke="#63b8ff" d="M248.86,-225.17C273.99,-231.03 303.66,-237.94 328.32,-243.69"/>
<polygon fill="#63b8ff" stroke="#63b8ff" points="327.67,-247.13 338.2,-245.99 329.26,-240.31 327.67,-247.13"/>
</a>
</g>
</g>
<!-- Node12&#45;&gt;Node5 -->
<g id="edge18_Node000012_Node000005" class="edge">
<title>Node12&#45;&gt;Node5</title>
<g id="a_edge18_Node000012_Node000005"><a xlink:title=" ">
<path fill="none" stroke="#63b8ff" d="M248.56,-223.87C258.41,-227.13 268.31,-231.28 277,-236.5 296.67,-248.32 293.32,-261.71 313,-273.5 316.62,-275.67 320.51,-277.61 324.52,-279.33"/>
<polygon fill="#63b8ff" stroke="#63b8ff" points="323.42,-282.66 334.01,-282.97 325.93,-276.12 323.42,-282.66"/>
</a>
</g>
</g>
<!-- Node12&#45;&gt;Node7 -->
<g id="edge15_Node000012_Node000007" class="edge">
<title>Node12&#45;&gt;Node7</title>
<g id="a_edge15_Node000012_Node000007"><a xlink:title=" ">
<path fill="none" stroke="#63b8ff" d="M248.86,-203.37C268.68,-200.04 291.33,-196.23 312.11,-192.74"/>
<polygon fill="#63b8ff" stroke="#63b8ff" points="312.86,-196.16 322.15,-191.05 311.7,-189.26 312.86,-196.16"/>
</a>
</g>
</g>
<!-- Node12&#45;&gt;Node8 -->
<g id="edge17_Node000012_Node000008" class="edge">
<title>Node12&#45;&gt;Node8</title>
<g id="a_edge17_Node000012_Node000008"><a xlink:title=" ">
<path fill="none" stroke="#63b8ff" d="M248.86,-214.27C266.17,-214.83 285.63,-215.46 304.13,-216.07"/>
<polygon fill="#63b8ff" stroke="#63b8ff" points="304.18,-219.57 314.28,-216.4 304.4,-212.57 304.18,-219.57"/>
</a>
</g>
</g>
<!-- Node12&#45;&gt;Node10 -->
<g id="edge14_Node000012_Node000010" class="edge">
<title>Node12&#45;&gt;Node10</title>
<g id="a_edge14_Node000012_Node000010"><a xlink:title=" ">
<path fill="none" stroke="#63b8ff" d="M248.76,-199.6C258.39,-196.51 268.15,-192.82 277,-188.5 294.73,-179.84 295.19,-171.01 313,-162.5 317.03,-160.58 321.29,-158.83 325.64,-157.25"/>
<polygon fill="#63b8ff" stroke="#63b8ff" points="326.86,-160.53 335.24,-154.05 324.64,-153.89 326.86,-160.53"/>
</a>
</g>
</g>
<!-- Node13&#45;&gt;Node4 -->
<g id="edge22_Node000013_Node000004" class="edge">
<title>Node13&#45;&gt;Node4</title>
<g id="a_edge22_Node000013_Node000004"><a xlink:title=" ">
<path fill="none" stroke="#63b8ff" d="M248.7,-174.84C258.64,-178.2 268.54,-182.64 277,-188.5 298.93,-203.67 291.05,-221.36 313,-236.5 315.88,-238.49 318.98,-240.27 322.19,-241.87"/>
<polygon fill="#63b8ff" stroke="#63b8ff" points="320.93,-245.14 331.5,-245.9 323.71,-238.72 320.93,-245.14"/>
</a>
</g>
</g>
<!-- Node13&#45;&gt;Node5 -->
<g id="edge24_Node000013_Node000005" class="edge">
<title>Node13&#45;&gt;Node5</title>
<g id="a_edge24_Node000013_Node000005"><a xlink:title=" ">
<path fill="none" stroke="#63b8ff" d="M248.65,-172.81C258.93,-176.34 268.97,-181.36 277,-188.5 307.66,-215.76 282.3,-246.29 313,-273.5 314.78,-275.07 316.68,-276.52 318.67,-277.84"/>
<polygon fill="#63b8ff" stroke="#63b8ff" points="317.46,-281.17 327.9,-282.92 320.83,-275.04 317.46,-281.17"/>
</a>
</g>
</g>
<!-- Node13&#45;&gt;Node7 -->
<g id="edge21_Node000013_Node000007" class="edge">
<title>Node13&#45;&gt;Node7</title>
<g id="a_edge21_Node000013_Node000007"><a xlink:title=" ">
<path fill="none" stroke="#63b8ff" d="M248.86,-169.51C265.81,-171.07 284.83,-172.82 302.98,-174.5"/>
<polygon fill="#63b8ff" stroke="#63b8ff" points="302.67,-177.98 312.95,-175.41 303.32,-171.01 302.67,-177.98"/>
</a>
</g>
</g>
<!-- Node13&#45;&gt;Node8 -->
<g id="edge23_Node000013_Node000008" class="edge">
<title>Node13&#45;&gt;Node8</title>
<g id="a_edge23_Node000013_Node000008"><a xlink:title=" ">
<path fill="none" stroke="#63b8ff" d="M246.46,-179.5C256.6,-182.46 267.14,-185.56 277,-188.5 293.03,-193.28 296.96,-194.74 313,-199.5 320.31,-201.67 328.09,-203.94 335.65,-206.13"/>
<polygon fill="#63b8ff" stroke="#63b8ff" points="334.82,-209.53 345.39,-208.94 336.75,-202.81 334.82,-209.53"/>
</a>
</g>
</g>
<!-- Node13&#45;&gt;Node10 -->
<g id="edge20_Node000013_Node000010" class="edge">
<title>Node13&#45;&gt;Node10</title>
<g id="a_edge20_Node000013_Node000010"><a xlink:title=" ">
<path fill="none" stroke="#63b8ff" d="M248.86,-158.61C269.96,-156.32 294.27,-153.68 316.12,-151.32"/>
<polygon fill="#63b8ff" stroke="#63b8ff" points="316.73,-154.77 326.3,-150.21 315.98,-147.81 316.73,-154.77"/>
</a>
</g>
</g>
<!-- Node15&#45;&gt;Node4 -->
<g id="edge28_Node000015_Node000004" class="edge">
<title>Node15&#45;&gt;Node4</title>
<g id="a_edge28_Node000015_Node000004"><a xlink:title=" ">
<path fill="none" stroke="#63b8ff" d="M236.37,-255.5C256.46,-255.5 281.16,-255.5 304.33,-255.5"/>
<polygon fill="#63b8ff" stroke="#63b8ff" points="304.49,-259 314.49,-255.5 304.49,-252 304.49,-259"/>
</a>
</g>
</g>
<!-- Node15&#45;&gt;Node5 -->
<g id="edge29_Node000015_Node000005" class="edge">
<title>Node15&#45;&gt;Node5</title>
<g id="a_edge29_Node000015_Node000005"><a xlink:title=" ">
<path fill="none" stroke="#63b8ff" d="M236.37,-263.9C261.55,-268.95 293.97,-275.45 321.53,-280.98"/>
<polygon fill="#63b8ff" stroke="#63b8ff" points="320.95,-284.43 331.45,-282.96 322.33,-277.57 320.95,-284.43"/>
</a>
</g>
</g>
<!-- Node15&#45;&gt;Node10 -->
<g id="edge27_Node000015_Node000010" class="edge">
<title>Node15&#45;&gt;Node10</title>
<g id="a_edge27_Node000015_Node000010"><a xlink:title=" ">
<path fill="none" stroke="#63b8ff" d="M236.26,-253.13C250.4,-250.55 265.5,-245.65 277,-236.5 305.62,-213.73 284.84,-185.84 313,-162.5 314.54,-161.22 316.17,-160.03 317.86,-158.93"/>
<polygon fill="#63b8ff" stroke="#63b8ff" points="319.67,-161.93 326.79,-154.08 316.33,-155.78 319.67,-161.93"/>
</a>
</g>
</g>
</g>
</svg>
</svg>

<style type='text/css'>
<![CDATA[
[data-mouse-over-selected='false'] { opacity: 0.7; }
[data-mouse-over-selected='true']  { opacity: 1.0; }
]]>
</style>
<script type="application/ecmascript"><![CDATA[
document.addEventListener('DOMContentLoaded', (event) => {
  highlightEdges();
  highlightAdjacentNodes();
});
]]></script>
</svg>
