<?xml version="1.0" encoding="UTF-8" standalone="no"?>
<!DOCTYPE svg PUBLIC "-//W3C//DTD SVG 1.1//EN"
 "http://www.w3.org/Graphics/SVG/1.1/DTD/svg11.dtd">
<!-- Generated by graphviz version 8.1.0 (20230707.0739)
 -->
<!-- Title: D:/Firmware/MCU16ASMPS_TestEnvironment/_deployment/dspic33ch&#45;power&#45;totem&#45;pole&#45;demonstration&#45;application&#45;single&#45;phase/dspic33ch_totem_pole_single_phase_secondary_IL.X/sources/driver/adc/drv_adc.c Pages: 1 -->
<svg width="1098pt" height="316pt"
 viewBox="0.00 0.00 1097.62 316.00" xmlns="http://www.w3.org/2000/svg" xmlns:xlink="http://www.w3.org/1999/xlink">
<g id="graph0" class="graph" transform="scale(1 1) rotate(0) translate(4 312)">
<title>D:/Firmware/MCU16ASMPS_TestEnvironment/_deployment/dspic33ch&#45;power&#45;totem&#45;pole&#45;demonstration&#45;application&#45;single&#45;phase/dspic33ch_totem_pole_single_phase_secondary_IL.X/sources/driver/adc/drv_adc.c</title>
<!-- Node1 -->
<g id="Node000001" class="node">
<title>Node1</title>
<g id="a_Node000001"><a xlink:title="This is the driver source file for adc builds upon mcc.">
<polygon fill="#999999" stroke="#666666" points="570.62,-308 388.88,-308 388.88,-216 570.62,-216 570.62,-308"/>
<text text-anchor="start" x="396.88" y="-294.5" font-family="Helvetica,sans-Serif" font-size="10.00">D:/Firmware/MCU16ASMPS</text>
<text text-anchor="start" x="396.88" y="-282.5" font-family="Helvetica,sans-Serif" font-size="10.00">_TestEnvironment/_deployment</text>
<text text-anchor="start" x="396.88" y="-270.5" font-family="Helvetica,sans-Serif" font-size="10.00">/dspic33ch&#45;power&#45;totem&#45;pole</text>
<text text-anchor="start" x="396.88" y="-258.5" font-family="Helvetica,sans-Serif" font-size="10.00">&#45;demonstration&#45;application&#45;single</text>
<text text-anchor="start" x="396.88" y="-246.5" font-family="Helvetica,sans-Serif" font-size="10.00">&#45;phase/dspic33ch_totem_pole_single</text>
<text text-anchor="start" x="396.88" y="-234.5" font-family="Helvetica,sans-Serif" font-size="10.00">_phase_secondary_IL.X/sources/driver</text>
<text text-anchor="middle" x="479.75" y="-222.5" font-family="Helvetica,sans-Serif" font-size="10.00">/adc/drv_adc.c</text>
</a>
</g>
</g>
<!-- Node2 -->
<g id="Node000002" class="node">
<title>Node2</title>
<g id="a_Node000002"><a xlink:title=" ">
<polygon fill="#e0e0e0" stroke="#999999" points="149.75,-168 37.75,-168 37.75,-148 149.75,-148 149.75,-168"/>
<text text-anchor="middle" x="93.75" y="-154.5" font-family="Helvetica,sans-Serif" font-size="10.00">p33CH512MP506S1.h</text>
</a>
</g>
</g>
<!-- Node1&#45;&gt;Node2 -->
<g id="edge1_Node000001_Node000002" class="edge">
<title>Node1&#45;&gt;Node2</title>
<g id="a_edge1_Node000001_Node000002"><a xlink:title=" ">
<path fill="none" stroke="#63b8ff" d="M388.7,-239.7C324.2,-224.21 235.81,-202.15 158.75,-180 150.08,-177.51 140.82,-174.64 132.09,-171.85"/>
<polygon fill="#63b8ff" stroke="#63b8ff" points="133.37,-168.26 122.78,-168.5 131.21,-174.92 133.37,-168.26"/>
</a>
</g>
</g>
<!-- Node3 -->
<g id="Node000003" class="node">
<title>Node3</title>
<g id="a_Node000003"><a xlink:title=" ">
<polygon fill="#e0e0e0" stroke="#999999" points="215.5,-168 168,-168 168,-148 215.5,-148 215.5,-168"/>
<text text-anchor="middle" x="191.75" y="-154.5" font-family="Helvetica,sans-Serif" font-size="10.00">stdlib.h</text>
</a>
</g>
</g>
<!-- Node1&#45;&gt;Node3 -->
<g id="edge2_Node000001_Node000003" class="edge">
<title>Node1&#45;&gt;Node3</title>
<g id="a_edge2_Node000001_Node000003"><a xlink:title=" ">
<path fill="none" stroke="#63b8ff" d="M388.53,-236.03C340.48,-221.73 281.03,-202.23 229.75,-180 225.47,-178.14 221.04,-175.96 216.78,-173.71"/>
<polygon fill="#63b8ff" stroke="#63b8ff" points="218.75,-170.25 208.31,-168.48 215.37,-176.38 218.75,-170.25"/>
</a>
</g>
</g>
<!-- Node4 -->
<g id="Node000004" class="node">
<title>Node4</title>
<g id="a_Node000004"><a xlink:href="a00344.html" target="_top" xlink:title="This is the driver header file for adc builds upon mcc.">
<polygon fill="white" stroke="#666666" points="527.38,-88 470.12,-88 470.12,-68 527.38,-68 527.38,-88"/>
<text text-anchor="middle" x="498.75" y="-74.5" font-family="Helvetica,sans-Serif" font-size="10.00">drv_adc.h</text>
</a>
</g>
</g>
<!-- Node1&#45;&gt;Node4 -->
<g id="edge3_Node000001_Node000004" class="edge">
<title>Node1&#45;&gt;Node4</title>
<g id="a_edge3_Node000001_Node000004"><a xlink:title=" ">
<path fill="none" stroke="#63b8ff" d="M484.5,-215.54C488.4,-178.12 493.75,-126.86 496.66,-99"/>
<polygon fill="#63b8ff" stroke="#63b8ff" points="500.22,-99.6 497.78,-89.3 493.26,-98.88 500.22,-99.6"/>
</a>
</g>
</g>
<!-- Node6 -->
<g id="Node000006" class="node">
<title>Node6</title>
<g id="a_Node000006"><a xlink:href="a00784_source.html" target="_top" xlink:title=" ">
<polygon fill="white" stroke="#666666" points="451.62,-94 341.88,-94 341.88,-62 451.62,-62 451.62,-94"/>
<text text-anchor="start" x="349.88" y="-80.5" font-family="Helvetica,sans-Serif" font-size="10.00">../../../mcc_generated</text>
<text text-anchor="middle" x="396.75" y="-68.5" font-family="Helvetica,sans-Serif" font-size="10.00">_files/system/pins.h</text>
</a>
</g>
</g>
<!-- Node1&#45;&gt;Node6 -->
<g id="edge5_Node000001_Node000006" class="edge">
<title>Node1&#45;&gt;Node6</title>
<g id="a_edge5_Node000001_Node000006"><a xlink:title=" ">
<path fill="none" stroke="#63b8ff" d="M459.02,-215.54C442.94,-180.29 421.26,-132.74 408.18,-104.06"/>
<polygon fill="#63b8ff" stroke="#63b8ff" points="411.11,-103.05 403.78,-95.4 404.74,-105.96 411.11,-103.05"/>
</a>
</g>
</g>
<!-- Node7 -->
<g id="Node000007" class="node">
<title>Node7</title>
<g id="a_Node000007"><a xlink:href="a00290.html" target="_top" xlink:title="This is the generated driver header file for the MAIN_CORE driver.">
<polygon fill="white" stroke="#666666" points="814,-180 703.5,-180 703.5,-136 814,-136 814,-180"/>
<text text-anchor="start" x="711.5" y="-166.5" font-family="Helvetica,sans-Serif" font-size="10.00">../../../mcc_generated</text>
<text text-anchor="start" x="711.5" y="-154.5" font-family="Helvetica,sans-Serif" font-size="10.00">_files/main_core/main</text>
<text text-anchor="middle" x="758.75" y="-142.5" font-family="Helvetica,sans-Serif" font-size="10.00">_core.h</text>
</a>
</g>
</g>
<!-- Node1&#45;&gt;Node7 -->
<g id="edge7_Node000001_Node000007" class="edge">
<title>Node1&#45;&gt;Node7</title>
<g id="a_edge7_Node000001_Node000007"><a xlink:title=" ">
<path fill="none" stroke="#63b8ff" d="M571.11,-227.6C610.91,-213.05 656.67,-196.32 693.04,-183.02"/>
<polygon fill="#63b8ff" stroke="#63b8ff" points="693.84,-186.09 702.03,-179.37 691.44,-179.52 693.84,-186.09"/>
</a>
</g>
</g>
<!-- Node13 -->
<g id="Node000013" class="node">
<title>Node13</title>
<g id="a_Node000013"><a xlink:href="a00362.html" target="_top" xlink:title="This is the driver header file for the power controller misc app.">
<polygon fill="white" stroke="#666666" points="619.75,-180 507.75,-180 507.75,-136 619.75,-136 619.75,-180"/>
<text text-anchor="start" x="515.75" y="-166.5" font-family="Helvetica,sans-Serif" font-size="10.00">../power_controller</text>
<text text-anchor="start" x="515.75" y="-154.5" font-family="Helvetica,sans-Serif" font-size="10.00">/drv_pwrctrl_app_misc</text>
<text text-anchor="middle" x="563.75" y="-142.5" font-family="Helvetica,sans-Serif" font-size="10.00">_TPBLPFC.h</text>
</a>
</g>
</g>
<!-- Node1&#45;&gt;Node13 -->
<g id="edge17_Node000001_Node000013" class="edge">
<title>Node1&#45;&gt;Node13</title>
<g id="a_edge17_Node000001_Node000013"><a xlink:title=" ">
<path fill="none" stroke="#63b8ff" d="M517.08,-215.67C524.56,-206.58 532.24,-197.26 539.16,-188.86"/>
<polygon fill="#63b8ff" stroke="#63b8ff" points="542.39,-191.44 546.05,-181.5 536.99,-186.99 542.39,-191.44"/>
</a>
</g>
</g>
<!-- Node14 -->
<g id="Node000014" class="node">
<title>Node14</title>
<g id="a_Node000014"><a xlink:href="a00338.html" target="_top" xlink:title="This is the typedef file for power controller.">
<polygon fill="white" stroke="#666666" points="711.25,-94 584.25,-94 584.25,-62 711.25,-62 711.25,-94"/>
<text text-anchor="start" x="592.25" y="-80.5" font-family="Helvetica,sans-Serif" font-size="10.00">../../../sources/devices</text>
<text text-anchor="middle" x="647.75" y="-68.5" font-family="Helvetica,sans-Serif" font-size="10.00">/dev_TPBLPFC_typedef.h</text>
</a>
</g>
</g>
<!-- Node1&#45;&gt;Node14 -->
<g id="edge24_Node000001_Node000014" class="edge">
<title>Node1&#45;&gt;Node14</title>
<g id="a_edge24_Node000001_Node000014"><a xlink:title=" ">
<path fill="none" stroke="#63b8ff" d="M571.05,-227.73C592.89,-215.77 614.1,-200.11 628.75,-180 644.6,-158.24 648.36,-127.04 648.79,-105.09"/>
<polygon fill="#63b8ff" stroke="#63b8ff" points="652.28,-105.25 648.74,-95.27 645.28,-105.28 652.28,-105.25"/>
</a>
</g>
</g>
<!-- Node15 -->
<g id="Node000015" class="node">
<title>Node15</title>
<g id="a_Node000015"><a xlink:href="a00332.html" target="_top" xlink:title="This is the typedef file for power controller.">
<polygon fill="white" stroke="#666666" points="149.5,-100 0,-100 0,-56 149.5,-56 149.5,-100"/>
<text text-anchor="start" x="8" y="-86.5" font-family="Helvetica,sans-Serif" font-size="10.00">../../devices/dev</text>
<text text-anchor="start" x="8" y="-74.5" font-family="Helvetica,sans-Serif" font-size="10.00">_TPBLPFC_numberconnection</text>
<text text-anchor="middle" x="74.75" y="-62.5" font-family="Helvetica,sans-Serif" font-size="10.00">_typedef.h</text>
</a>
</g>
</g>
<!-- Node1&#45;&gt;Node15 -->
<g id="edge22_Node000001_Node000015" class="edge">
<title>Node1&#45;&gt;Node15</title>
<g id="a_edge22_Node000001_Node000015"><a xlink:title=" ">
<path fill="none" stroke="#63b8ff" d="M388.52,-238.13C347.74,-225.19 300.46,-206.24 262.75,-180 241.54,-165.24 245.92,-150.82 224.75,-136 205.26,-122.35 182.07,-111.47 159.83,-103.02"/>
<polygon fill="#63b8ff" stroke="#63b8ff" points="161.29,-99.46 150.69,-99.31 158.88,-106.03 161.29,-99.46"/>
</a>
</g>
</g>
<!-- Node16 -->
<g id="Node000016" class="node">
<title>Node16</title>
<g id="a_Node000016"><a xlink:href="a00368.html" target="_top" xlink:title="This is the driver header file for the power controller app.">
<polygon fill="white" stroke="#666666" points="414.12,-174 271.38,-174 271.38,-142 414.12,-142 414.12,-174"/>
<text text-anchor="start" x="279.38" y="-160.5" font-family="Helvetica,sans-Serif" font-size="10.00">../power_controller</text>
<text text-anchor="middle" x="342.75" y="-148.5" font-family="Helvetica,sans-Serif" font-size="10.00">/drv_pwrctrl_app_TPBLPFC.h</text>
</a>
</g>
</g>
<!-- Node1&#45;&gt;Node16 -->
<g id="edge25_Node000001_Node000016" class="edge">
<title>Node1&#45;&gt;Node16</title>
<g id="a_edge25_Node000001_Node000016"><a xlink:title=" ">
<path fill="none" stroke="#63b8ff" d="M418.86,-215.67C402.56,-203.53 385.69,-190.97 371.98,-180.76"/>
<polygon fill="#63b8ff" stroke="#63b8ff" points="374.57,-177.59 364.46,-174.42 370.39,-183.2 374.57,-177.59"/>
</a>
</g>
</g>
<!-- Node18 -->
<g id="Node000018" class="node">
<title>Node18</title>
<g id="a_Node000018"><a xlink:title=" ">
<polygon fill="#e0e0e0" stroke="#999999" points="949.75,-180 831.75,-180 831.75,-136 949.75,-136 949.75,-180"/>
<text text-anchor="start" x="839.75" y="-166.5" font-family="Helvetica,sans-Serif" font-size="10.00">../../../sources/driver</text>
<text text-anchor="start" x="839.75" y="-154.5" font-family="Helvetica,sans-Serif" font-size="10.00">/power_controller/drv</text>
<text text-anchor="middle" x="890.75" y="-142.5" font-family="Helvetica,sans-Serif" font-size="10.00">_controller_TPBLPFC.h</text>
</a>
</g>
</g>
<!-- Node1&#45;&gt;Node18 -->
<g id="edge28_Node000001_Node000018" class="edge">
<title>Node1&#45;&gt;Node18</title>
<g id="a_edge28_Node000001_Node000018"><a xlink:title=" ">
<path fill="none" stroke="#63b8ff" d="M570.8,-241.26C637.6,-226.37 730.67,-204.77 821.05,-180.39"/>
<polygon fill="#63b8ff" stroke="#63b8ff" points="821.75,-183.56 830.48,-177.56 819.91,-176.8 821.75,-183.56"/>
</a>
</g>
</g>
<!-- Node19 -->
<g id="Node000019" class="node">
<title>Node19</title>
<g id="a_Node000019"><a xlink:title=" ">
<polygon fill="#e0e0e0" stroke="#999999" points="1089.62,-174 967.88,-174 967.88,-142 1089.62,-142 1089.62,-174"/>
<text text-anchor="start" x="975.88" y="-160.5" font-family="Helvetica,sans-Serif" font-size="10.00">../sources_common</text>
<text text-anchor="middle" x="1028.75" y="-148.5" font-family="Helvetica,sans-Serif" font-size="10.00">/PFC_frameworkSetup.h</text>
</a>
</g>
</g>
<!-- Node1&#45;&gt;Node19 -->
<g id="edge29_Node000001_Node000019" class="edge">
<title>Node1&#45;&gt;Node19</title>
<g id="a_edge29_Node000001_Node000019"><a xlink:title=" ">
<path fill="none" stroke="#63b8ff" d="M570.91,-249.02C667.78,-235.49 825.08,-211.22 958.75,-180 962.32,-179.17 965.97,-178.25 969.65,-177.29"/>
<polygon fill="#63b8ff" stroke="#63b8ff" points="970.28,-180.47 979,-174.47 968.43,-173.72 970.28,-180.47"/>
</a>
</g>
</g>
<!-- Node5 -->
<g id="Node000005" class="node">
<title>Node5</title>
<g id="a_Node000005"><a xlink:title=" ">
<polygon fill="#e0e0e0" stroke="#999999" points="516.12,-20 481.38,-20 481.38,0 516.12,0 516.12,-20"/>
<text text-anchor="middle" x="498.75" y="-6.5" font-family="Helvetica,sans-Serif" font-size="10.00">xc.h</text>
</a>
</g>
</g>
<!-- Node4&#45;&gt;Node5 -->
<g id="edge4_Node000004_Node000005" class="edge">
<title>Node4&#45;&gt;Node5</title>
<g id="a_edge4_Node000004_Node000005"><a xlink:title=" ">
<path fill="none" stroke="#63b8ff" d="M498.75,-67.54C498.75,-58.13 498.75,-43.39 498.75,-31.32"/>
<polygon fill="#63b8ff" stroke="#63b8ff" points="502.25,-31.44 498.75,-21.44 495.25,-31.44 502.25,-31.44"/>
</a>
</g>
</g>
<!-- Node6&#45;&gt;Node5 -->
<g id="edge6_Node000006_Node000005" class="edge">
<title>Node6&#45;&gt;Node5</title>
<g id="a_edge6_Node000006_Node000005"><a xlink:title=" ">
<path fill="none" stroke="#63b8ff" d="M420.66,-61.53C437.1,-50.89 458.84,-36.83 475.2,-26.24"/>
<polygon fill="#63b8ff" stroke="#63b8ff" points="476.64,-28.83 483.13,-20.46 472.83,-22.95 476.64,-28.83"/>
</a>
</g>
</g>
<!-- Node7&#45;&gt;Node5 -->
<g id="edge8_Node000007_Node000005" class="edge">
<title>Node7&#45;&gt;Node5</title>
<g id="a_edge8_Node000007_Node000005"><a xlink:title=" ">
<path fill="none" stroke="#63b8ff" d="M756.74,-135.8C753.38,-112.65 744.43,-76.16 720.75,-56 691.81,-31.35 579.99,-18.27 526.96,-13.34"/>
<polygon fill="#63b8ff" stroke="#63b8ff" points="527.56,-9.79 517.29,-12.38 526.94,-16.76 527.56,-9.79"/>
</a>
</g>
</g>
<!-- Node8 -->
<g id="Node000008" class="node">
<title>Node8</title>
<g id="a_Node000008"><a xlink:title=" ">
<polygon fill="#e0e0e0" stroke="#999999" points="779.88,-20 731.62,-20 731.62,0 779.88,0 779.88,-20"/>
<text text-anchor="middle" x="755.75" y="-6.5" font-family="Helvetica,sans-Serif" font-size="10.00">stdint.h</text>
</a>
</g>
</g>
<!-- Node7&#45;&gt;Node8 -->
<g id="edge9_Node000007_Node000008" class="edge">
<title>Node7&#45;&gt;Node8</title>
<g id="a_edge9_Node000007_Node000008"><a xlink:title=" ">
<path fill="none" stroke="#63b8ff" d="M758.31,-135.77C757.74,-107.66 756.73,-58.46 756.16,-30.99"/>
<polygon fill="#63b8ff" stroke="#63b8ff" points="759.65,-31.28 755.94,-21.36 752.65,-31.43 759.65,-31.28"/>
</a>
</g>
</g>
<!-- Node9 -->
<g id="Node000009" class="node">
<title>Node9</title>
<g id="a_Node000009"><a xlink:title=" ">
<polygon fill="#e0e0e0" stroke="#999999" points="853.62,-20 797.88,-20 797.88,0 853.62,0 853.62,-20"/>
<text text-anchor="middle" x="825.75" y="-6.5" font-family="Helvetica,sans-Serif" font-size="10.00">stdbool.h</text>
</a>
</g>
</g>
<!-- Node7&#45;&gt;Node9 -->
<g id="edge10_Node000007_Node000009" class="edge">
<title>Node7&#45;&gt;Node9</title>
<g id="a_edge10_Node000007_Node000009"><a xlink:title=" ">
<path fill="none" stroke="#63b8ff" d="M768.49,-135.77C781.51,-107.41 804.38,-57.57 816.91,-30.25"/>
<polygon fill="#63b8ff" stroke="#63b8ff" points="820.47,-31.91 821.46,-21.36 814.1,-28.99 820.47,-31.91"/>
</a>
</g>
</g>
<!-- Node10 -->
<g id="Node000010" class="node">
<title>Node10</title>
<g id="a_Node000010"><a xlink:href="a00296.html" target="_top" xlink:title="This is the generated driver types header file for the MAIN_CORE driver.">
<polygon fill="white" stroke="#666666" points="1039,-20 940.5,-20 940.5,0 1039,0 1039,-20"/>
<text text-anchor="middle" x="989.75" y="-6.5" font-family="Helvetica,sans-Serif" font-size="10.00">main_core_types.h</text>
</a>
</g>
</g>
<!-- Node7&#45;&gt;Node10 -->
<g id="edge11_Node000007_Node000010" class="edge">
<title>Node7&#45;&gt;Node10</title>
<g id="a_edge11_Node000007_Node000010"><a xlink:title=" ">
<path fill="none" stroke="#63b8ff" d="M814.18,-138.55C817.07,-137.67 819.94,-136.82 822.75,-136 885.27,-117.84 918.13,-145.45 964.75,-100 983.3,-81.92 988.4,-51.25 989.63,-31.07"/>
<polygon fill="#63b8ff" stroke="#63b8ff" points="993.15,-31.42 989.98,-21.31 986.16,-31.19 993.15,-31.42"/>
</a>
</g>
</g>
<!-- Node11 -->
<g id="Node000011" class="node">
<title>Node11</title>
<g id="a_Node000011"><a xlink:href="a00293_source.html" target="_top" xlink:title=" ">
<polygon fill="white" stroke="#666666" points="955.38,-88 844.12,-88 844.12,-68 955.38,-68 955.38,-88"/>
<text text-anchor="middle" x="899.75" y="-74.5" font-family="Helvetica,sans-Serif" font-size="10.00">main_core_interface.h</text>
</a>
</g>
</g>
<!-- Node7&#45;&gt;Node11 -->
<g id="edge12_Node000007_Node000011" class="edge">
<title>Node7&#45;&gt;Node11</title>
<g id="a_edge12_Node000007_Node000011"><a xlink:title=" ">
<path fill="none" stroke="#63b8ff" d="M797.28,-135.69C821.35,-122.37 851.74,-105.56 873.15,-93.72"/>
<polygon fill="#63b8ff" stroke="#63b8ff" points="874.53,-96.4 881.58,-88.5 871.14,-90.27 874.53,-96.4"/>
</a>
</g>
</g>
<!-- Node11&#45;&gt;Node8 -->
<g id="edge14_Node000011_Node000008" class="edge">
<title>Node11&#45;&gt;Node8</title>
<g id="a_edge14_Node000011_Node000008"><a xlink:title=" ">
<path fill="none" stroke="#63b8ff" d="M879.12,-67.54C854.74,-56.37 813.96,-37.68 786.01,-24.87"/>
<polygon fill="#63b8ff" stroke="#63b8ff" points="787.89,-21.42 777.34,-20.44 784.98,-27.79 787.89,-21.42"/>
</a>
</g>
</g>
<!-- Node11&#45;&gt;Node9 -->
<g id="edge15_Node000011_Node000009" class="edge">
<title>Node11&#45;&gt;Node9</title>
<g id="a_edge15_Node000011_Node000009"><a xlink:title=" ">
<path fill="none" stroke="#63b8ff" d="M889.15,-67.54C877.5,-57.15 858.56,-40.27 844.42,-27.65"/>
<polygon fill="#63b8ff" stroke="#63b8ff" points="847.13,-25.48 837.33,-21.44 842.47,-30.71 847.13,-25.48"/>
</a>
</g>
</g>
<!-- Node11&#45;&gt;Node10 -->
<g id="edge16_Node000011_Node000010" class="edge">
<title>Node11&#45;&gt;Node10</title>
<g id="a_edge16_Node000011_Node000010"><a xlink:title=" ">
<path fill="none" stroke="#63b8ff" d="M912.64,-67.54C927.08,-56.96 950.71,-39.63 968.02,-26.94"/>
<polygon fill="#63b8ff" stroke="#63b8ff" points="969.88,-29.17 975.88,-20.44 965.75,-23.53 969.88,-29.17"/>
</a>
</g>
</g>
<!-- Node12 -->
<g id="Node000012" class="node">
<title>Node12</title>
<g id="a_Node000012"><a xlink:title=" ">
<polygon fill="#e0e0e0" stroke="#999999" points="922,-20 871.5,-20 871.5,0 922,0 922,-20"/>
<text text-anchor="middle" x="896.75" y="-6.5" font-family="Helvetica,sans-Serif" font-size="10.00">stddef.h</text>
</a>
</g>
</g>
<!-- Node11&#45;&gt;Node12 -->
<g id="edge13_Node000011_Node000012" class="edge">
<title>Node11&#45;&gt;Node12</title>
<g id="a_edge13_Node000011_Node000012"><a xlink:title=" ">
<path fill="none" stroke="#63b8ff" d="M899.32,-67.54C898.89,-58.13 898.22,-43.39 897.67,-31.32"/>
<polygon fill="#63b8ff" stroke="#63b8ff" points="901.13,-31.27 897.18,-21.44 894.14,-31.59 901.13,-31.27"/>
</a>
</g>
</g>
<!-- Node13&#45;&gt;Node5 -->
<g id="edge18_Node000013_Node000005" class="edge">
<title>Node13&#45;&gt;Node5</title>
<g id="a_edge18_Node000013_Node000005"><a xlink:title=" ">
<path fill="none" stroke="#63b8ff" d="M560.81,-135.51C557.29,-114.35 550.11,-81.58 536.75,-56 531.47,-45.88 523.57,-36.03 516.33,-28.14"/>
<polygon fill="#63b8ff" stroke="#63b8ff" points="519.36,-26.2 509.91,-21.42 514.32,-31.06 519.36,-26.2"/>
</a>
</g>
</g>
<!-- Node13&#45;&gt;Node14 -->
<g id="edge19_Node000013_Node000014" class="edge">
<title>Node13&#45;&gt;Node14</title>
<g id="a_edge19_Node000013_Node000014"><a xlink:title=" ">
<path fill="none" stroke="#63b8ff" d="M586.7,-135.69C598.04,-125.16 611.72,-112.45 623.26,-101.74"/>
<polygon fill="#63b8ff" stroke="#63b8ff" points="625.27,-104.72 630.22,-95.35 620.51,-99.59 625.27,-104.72"/>
</a>
</g>
</g>
<!-- Node14&#45;&gt;Node5 -->
<g id="edge20_Node000014_Node000005" class="edge">
<title>Node14&#45;&gt;Node5</title>
<g id="a_edge20_Node000014_Node000005"><a xlink:title=" ">
<path fill="none" stroke="#63b8ff" d="M612.82,-61.53C586.44,-49.84 550.75,-34.03 526.35,-23.23"/>
<polygon fill="#63b8ff" stroke="#63b8ff" points="527.9,-19.64 517.34,-18.79 525.06,-26.04 527.9,-19.64"/>
</a>
</g>
</g>
<!-- Node14&#45;&gt;Node8 -->
<g id="edge21_Node000014_Node000008" class="edge">
<title>Node14&#45;&gt;Node8</title>
<g id="a_edge21_Node000014_Node000008"><a xlink:title=" ">
<path fill="none" stroke="#63b8ff" d="M673.07,-61.53C690.64,-50.79 713.92,-36.56 731.3,-25.94"/>
<polygon fill="#63b8ff" stroke="#63b8ff" points="732.56,-28.66 739.27,-20.46 728.91,-22.69 732.56,-28.66"/>
</a>
</g>
</g>
<!-- Node15&#45;&gt;Node5 -->
<g id="edge23_Node000015_Node000005" class="edge">
<title>Node15&#45;&gt;Node5</title>
<g id="a_edge23_Node000015_Node000005"><a xlink:title=" ">
<path fill="none" stroke="#63b8ff" d="M149.9,-58.72C154.58,-57.75 159.22,-56.84 163.75,-56 276.58,-35.16 412.48,-19.9 470.39,-13.86"/>
<polygon fill="#63b8ff" stroke="#63b8ff" points="470.63,-17.25 480.22,-12.74 469.91,-10.29 470.63,-17.25"/>
</a>
</g>
</g>
<!-- Node16&#45;&gt;Node5 -->
<g id="edge27_Node000016_Node000005" class="edge">
<title>Node16&#45;&gt;Node5</title>
<g id="a_edge27_Node000016_Node000005"><a xlink:title=" ">
<path fill="none" stroke="#63b8ff" d="M284.64,-141.6C248.64,-130.74 207.3,-115.45 196.75,-100 185.72,-83.85 183.98,-70.81 196.75,-56 232,-15.1 402.39,-10.8 470.52,-10.75"/>
<polygon fill="#63b8ff" stroke="#63b8ff" points="470.26,-14.25 480.27,-10.77 470.28,-7.25 470.26,-14.25"/>
</a>
</g>
</g>
<!-- Node17 -->
<g id="Node000017" class="node">
<title>Node17</title>
<g id="a_Node000017"><a xlink:title=" ">
<polygon fill="#e0e0e0" stroke="#999999" points="323.38,-100 206.12,-100 206.12,-56 323.38,-56 323.38,-100"/>
<text text-anchor="start" x="214.12" y="-86.5" font-family="Helvetica,sans-Serif" font-size="10.00">../sources_common</text>
<text text-anchor="start" x="214.12" y="-74.5" font-family="Helvetica,sans-Serif" font-size="10.00">/Totempole_Application</text>
<text text-anchor="middle" x="264.75" y="-62.5" font-family="Helvetica,sans-Serif" font-size="10.00">_Setup.h</text>
</a>
</g>
</g>
<!-- Node16&#45;&gt;Node17 -->
<g id="edge26_Node000016_Node000017" class="edge">
<title>Node16&#45;&gt;Node17</title>
<g id="a_edge26_Node000016_Node000017"><a xlink:title=" ">
<path fill="none" stroke="#63b8ff" d="M327.34,-141.59C317.74,-131.99 305.1,-119.35 293.68,-107.93"/>
<polygon fill="#63b8ff" stroke="#63b8ff" points="296.58,-105.88 287.03,-101.28 291.63,-110.83 296.58,-105.88"/>
</a>
</g>
</g>
</g>
</svg>
