<?xml version="1.0" encoding="UTF-8" standalone="no"?>
<!DOCTYPE svg PUBLIC "-//W3C//DTD SVG 1.1//EN"
 "http://www.w3.org/Graphics/SVG/1.1/DTD/svg11.dtd">
<!-- Generated by graphviz version 8.1.0 (20230707.0739)
 -->
<!-- Title: MPLABX MCC Melody Code Generator Pages: 1 -->
<!--zoomable 674 -->

<svg id="main" version="1.1" xmlns="http://www.w3.org/2000/svg" xmlns:xlink="http://www.w3.org/1999/xlink" xml:space="preserve" onload="init(evt)">
<style type="text/css"><![CDATA[
.node, .edge {opacity: 0.7;}
.node.selected, .edge.selected {opacity: 1;}
.edge:hover path { stroke: red; }
.edge:hover polygon { stroke: red; fill: red; }
]]></style>

<defs>
  <circle id="rim" cx="0" cy="0" r="7"/>
  <circle id="rim2" cx="0" cy="0" r="3.5"/>
  <g id="zoomPlus">
    <use xlink:href="#rim" fill="#404040"><set attributeName="fill" to="#808080" begin="zoomplus.mouseover" end="zoomplus.mouseout"/></use>
    <path d="M-4,0h8M0,-4v8" fill="none" stroke="white" stroke-width="1.5" pointer-events="none"/>
  </g>
  <g id="zoomMin">
    <use xlink:href="#rim" fill="#404040"><set attributeName="fill" to="#808080" begin="zoomminus.mouseover" end="zoomminus.mouseout"/></use>
    <path d="M-4,0h8" fill="none" stroke="white" stroke-width="1.5" pointer-events="none"/>
  </g>
  <g id="arrowUp" transform="translate(30 24)">
    <use xlink:href="#rim"/>
    <path pointer-events="none" fill="none" stroke="white" stroke-width="1.5" d="M0,-3.0v7 M-2.5,-0.5L0,-3.0L2.5,-0.5"/>
  </g>
  <g id="arrowRight" transform="rotate(90) translate(36 -43)">
    <use xlink:href="#rim"/>
    <path pointer-events="none" fill="none" stroke="white" stroke-width="1.5" d="M0,-3.0v7 M-2.5,-0.5L0,-3.0L2.5,-0.5"/>
  </g>
  <g id="arrowDown" transform="rotate(180) translate(-30 -48)">
    <use xlink:href="#rim"/>
    <path pointer-events="none" fill="none" stroke="white" stroke-width="1.5" d="M0,-3.0v7 M-2.5,-0.5L0,-3.0L2.5,-0.5"/>
  </g>
  <g id="arrowLeft" transform="rotate(270) translate(-36 17)">
    <use xlink:href="#rim"/>
    <path pointer-events="none" fill="none" stroke="white" stroke-width="1.5" d="M0,-3.0v7 M-2.5,-0.5L0,-3.0L2.5,-0.5"/>
  </g>
  <g id="resetDef">
    <use xlink:href="#rim2" fill="#404040"><set attributeName="fill" to="#808080" begin="reset.mouseover" end="reset.mouseout"/></use>
  </g>
</defs>
<script type="application/ecmascript">
var viewWidth = 268;
var viewHeight = 674;
var sectionId = 'dynsection-0';
</script>
<script type="application/ecmascript" xlink:href="svg.min.js"/>
<svg id="graph" class="graph">
<g id="viewport">
<title>MPLABX MCC Melody Code Generator</title>
<!-- Node2 -->
<g id="Node000002" class="node">
<title>Node2</title>
<g id="a_Node000002"><a xlink:href="a00398.html" target="_top" xlink:title="High&#45;Speed, 12&#45;Bit Multiple SARs Analog&#45;to&#45;Digital Converter driver using dsPIC MCUs.">
<polygon fill="white" stroke="#666666" points="258.12,-666 152.12,-666 152.12,-646 258.12,-646 258.12,-666"/>
<text text-anchor="middle" x="205.12" y="-652.5" font-family="Helvetica,sans-Serif" font-size="10.00">ADC Multicore Driver</text>
</a>
</g>
</g>
<!-- Node3 -->
<g id="Node000003" class="node">
<title>Node3</title>
<g id="a_Node000003"><a xlink:href="a00399.html" target="_top" xlink:title="CAN FD Driver using dsPIC MCUs.">
<polygon fill="white" stroke="#666666" points="244.62,-628 165.62,-628 165.62,-608 244.62,-608 244.62,-628"/>
<text text-anchor="middle" x="205.12" y="-614.5" font-family="Helvetica,sans-Serif" font-size="10.00">CAN FD Driver</text>
</a>
</g>
</g>
<!-- Node12 -->
<g id="Node000012" class="node">
<title>Node12</title>
<g id="a_Node000012"><a xlink:href="a00408.html" target="_top" xlink:title="Clock configurator driver for System and Peripheral Clock using dsPIC MCUs.">
<polygon fill="white" stroke="#666666" points="239,-590 171.25,-590 171.25,-570 239,-570 239,-590"/>
<text text-anchor="middle" x="205.12" y="-576.5" font-family="Helvetica,sans-Serif" font-size="10.00">Clock Driver</text>
</a>
</g>
</g>
<!-- Node4 -->
<g id="Node000004" class="node">
<title>Node4</title>
<g id="a_Node000004"><a xlink:href="a00400.html" target="_top" xlink:title="High Speed Analog Comparator with Slope Compensation DAC driver using dsPIC MCUs.">
<polygon fill="white" stroke="#666666" points="249.12,-552 161.12,-552 161.12,-532 249.12,-532 249.12,-552"/>
<text text-anchor="middle" x="205.12" y="-538.5" font-family="Helvetica,sans-Serif" font-size="10.00">CMP DAC Driver</text>
</a>
</g>
</g>
<!-- Node16 -->
<g id="Node000016" class="node">
<title>Node16</title>
<g id="a_Node000016"><a xlink:href="a00412.html" target="_top" xlink:title="Direct Memory Access driver to service high data throughput peripherals allowing them to access data ...">
<polygon fill="white" stroke="#666666" points="237.5,-514 172.75,-514 172.75,-494 237.5,-494 237.5,-514"/>
<text text-anchor="middle" x="205.12" y="-500.5" font-family="Helvetica,sans-Serif" font-size="10.00">DMA Driver</text>
</a>
</g>
</g>
<!-- Node6 -->
<g id="Node000006" class="node">
<title>Node6</title>
<g id="a_Node000006"><a xlink:href="a00402.html" target="_top" xlink:title="Deadman Timer (DMT) driver using dsPIC MCUs. The functionality is to interrupt the processor in the e...">
<polygon fill="white" stroke="#666666" points="236.75,-476 173.5,-476 173.5,-456 236.75,-456 236.75,-476"/>
<text text-anchor="middle" x="205.12" y="-462.5" font-family="Helvetica,sans-Serif" font-size="10.00">DMT Driver</text>
</a>
</g>
</g>
<!-- Node7 -->
<g id="Node000007" class="node">
<title>Node7</title>
<g id="a_Node000007"><a xlink:href="a00403.html" target="_top" xlink:title="Interrupt Priority configuration driver using dsPIC MCUs.">
<polygon fill="white" stroke="#666666" points="244.25,-438 166,-438 166,-418 244.25,-418 244.25,-438"/>
<text text-anchor="middle" x="205.12" y="-424.5" font-family="Helvetica,sans-Serif" font-size="10.00">Interrupt Driver</text>
</a>
</g>
</g>
<!-- Node18 -->
<g id="Node000018" class="node">
<title>Node18</title>
<g id="a_Node000018"><a xlink:href="a00414.html" target="_top" xlink:title="This is the generated driver interface file for the MAIN_CORE driver.">
<polygon fill="white" stroke="#666666" points="247.25,-400 163,-400 163,-380 247.25,-380 247.25,-400"/>
<text text-anchor="middle" x="205.12" y="-386.5" font-family="Helvetica,sans-Serif" font-size="10.00">MSI&#45;Main Driver</text>
</a>
</g>
</g>
<!-- Node1 -->
<g id="Node000001" class="node">
<title>Node1</title>
<g id="a_Node000001"><a xlink:title="Contains all the module generated by MCC for this application.">
<polygon fill="#999999" stroke="#666666" points="114.25,-349 0,-349 0,-317 114.25,-317 114.25,-349"/>
<text text-anchor="start" x="8" y="-335.5" font-family="Helvetica,sans-Serif" font-size="10.00">MPLABX MCC Melody</text>
<text text-anchor="middle" x="57.12" y="-323.5" font-family="Helvetica,sans-Serif" font-size="10.00"> Code Generator</text>
</a>
</g>
</g>
<!-- Node1&#45;&gt;Node2 -->
<g id="edge1" class="edge">
<title>Node1&#45;&gt;Node2</title>
<path fill="none" stroke="black" d="M58.54,-360.29C60.9,-418.91 74.66,-557.94 150.25,-637 153.54,-640.44 157.49,-643.26 161.74,-645.57"/>
<polygon fill="black" stroke="black" points="62.01,-360.25 58.19,-350.37 55.01,-360.47 62.01,-360.25"/>
</g>
<!-- Node1&#45;&gt;Node3 -->
<g id="edge2" class="edge">
<title>Node1&#45;&gt;Node3</title>
<path fill="none" stroke="black" d="M59.93,-360.17C64.91,-413.31 83.29,-531.66 150.25,-599 154.52,-603.29 159.81,-606.61 165.39,-609.19"/>
<polygon fill="black" stroke="black" points="63.34,-359.95 59.02,-350.28 56.37,-360.54 63.34,-359.95"/>
</g>
<!-- Node1&#45;&gt;Node12 -->
<g id="edge11" class="edge">
<title>Node1&#45;&gt;Node12</title>
<path fill="none" stroke="black" d="M61.72,-359.93C69.42,-407.14 91.81,-505.13 150.25,-561 155.99,-566.48 163.4,-570.39 170.88,-573.18"/>
<polygon fill="black" stroke="black" points="65.07,-359.7 60.1,-350.34 58.15,-360.75 65.07,-359.7"/>
</g>
<!-- Node1&#45;&gt;Node4 -->
<g id="edge3" class="edge">
<title>Node1&#45;&gt;Node4</title>
<path fill="none" stroke="black" d="M64.15,-359.76C74.7,-400.58 100.27,-478.35 150.25,-523 154.1,-526.44 158.6,-529.26 163.34,-531.58"/>
<polygon fill="black" stroke="black" points="67.36,-359.16 61.57,-350.29 60.57,-360.83 67.36,-359.16"/>
</g>
<!-- Node1&#45;&gt;Node16 -->
<g id="edge15" class="edge">
<title>Node1&#45;&gt;Node16</title>
<path fill="none" stroke="black" d="M67.57,-359.28C80.95,-392.98 108.55,-451.11 150.25,-485 156.64,-490.19 164.55,-494.01 172.32,-496.81"/>
<polygon fill="black" stroke="black" points="70.57,-358.34 63.72,-350.26 64.04,-360.85 70.57,-358.34"/>
</g>
<!-- Node1&#45;&gt;Node6 -->
<g id="edge5" class="edge">
<title>Node1&#45;&gt;Node6</title>
<path fill="none" stroke="black" d="M72.83,-358.5C88.85,-384.18 116.71,-423.3 150.25,-447 157.05,-451.81 165.19,-455.51 173.06,-458.3"/>
<polygon fill="black" stroke="black" points="75.47,-357.1 67.29,-350.37 69.49,-360.73 75.47,-357.1"/>
</g>
<!-- Node1&#45;&gt;Node7 -->
<g id="edge6" class="edge">
<title>Node1&#45;&gt;Node7</title>
<path fill="none" stroke="black" d="M81.65,-356.4C99.31,-372.91 124.74,-394.58 150.25,-409 156.04,-412.27 162.48,-415.13 168.85,-417.57"/>
<polygon fill="black" stroke="black" points="84.77,-354.58 75.12,-350.22 79.94,-359.65 84.77,-354.58"/>
</g>
<!-- Node1&#45;&gt;Node18 -->
<g id="edge17" class="edge">
<title>Node1&#45;&gt;Node18</title>
<path fill="none" stroke="black" d="M106.46,-353.49C120.52,-359.3 135.95,-365.53 150.25,-371 157.75,-373.87 165.9,-376.82 173.54,-379.52"/>
<polygon fill="black" stroke="black" points="108.07,-349.96 97.49,-349.35 105.39,-356.42 108.07,-349.96"/>
</g>
<!-- Node9 -->
<g id="Node000009" class="node">
<title>Node9</title>
<g id="a_Node000009"><a xlink:href="a00405.html" target="_top" xlink:title="The Pin Driver directs the operation and function of the selected device pins using dsPIC MCUs.">
<polygon fill="white" stroke="#666666" points="236.38,-362 173.88,-362 173.88,-342 236.38,-342 236.38,-362"/>
<text text-anchor="middle" x="205.12" y="-348.5" font-family="Helvetica,sans-Serif" font-size="10.00">Pins Driver</text>
</a>
</g>
</g>
<!-- Node1&#45;&gt;Node9 -->
<g id="edge8" class="edge">
<title>Node1&#45;&gt;Node9</title>
<path fill="none" stroke="black" d="M125.04,-341.71C141.99,-343.91 159.39,-346.18 173.53,-348.02"/>
<polygon fill="black" stroke="black" points="125.94,-338.17 115.57,-340.35 125.04,-345.11 125.94,-338.17"/>
</g>
<!-- Node5 -->
<g id="Node000005" class="node">
<title>Node5</title>
<g id="a_Node000005"><a xlink:href="a00401.html" target="_top" xlink:title="High&#45;Resolution Pulse&#45;Width Modulated (PWM) with Fine Edge Placement using dsPIC MCUs.">
<polygon fill="white" stroke="#666666" points="247.25,-324 163,-324 163,-304 247.25,-304 247.25,-324"/>
<text text-anchor="middle" x="205.12" y="-310.5" font-family="Helvetica,sans-Serif" font-size="10.00">PWM HS Driver</text>
</a>
</g>
</g>
<!-- Node1&#45;&gt;Node5 -->
<g id="edge4" class="edge">
<title>Node1&#45;&gt;Node5</title>
<path fill="none" stroke="black" d="M125.23,-324.27C138.03,-322.6 151.07,-320.9 162.77,-319.38"/>
<polygon fill="black" stroke="black" points="125.04,-320.89 115.57,-325.65 125.94,-327.83 125.04,-320.89"/>
</g>
<!-- Node11 -->
<g id="Node000011" class="node">
<title>Node11</title>
<g id="a_Node000011"><a xlink:href="a00407.html" target="_top" xlink:title="Reset driver using dsPIC MCUs.">
<polygon fill="white" stroke="#666666" points="239.38,-286 170.88,-286 170.88,-266 239.38,-266 239.38,-286"/>
<text text-anchor="middle" x="205.12" y="-272.5" font-family="Helvetica,sans-Serif" font-size="10.00">Reset Driver</text>
</a>
</g>
</g>
<!-- Node1&#45;&gt;Node11 -->
<g id="edge10" class="edge">
<title>Node1&#45;&gt;Node11</title>
<path fill="none" stroke="black" d="M106.46,-312.51C120.52,-306.7 135.95,-300.47 150.25,-295 157.75,-292.13 165.9,-289.18 173.54,-286.48"/>
<polygon fill="black" stroke="black" points="105.39,-309.58 97.49,-316.65 108.07,-316.04 105.39,-309.58"/>
</g>
<!-- Node19 -->
<g id="Node000019" class="node">
<title>Node19</title>
<g id="a_Node000019"><a xlink:href="a00415.html" target="_top" xlink:title="This is the generated driver interface file for SEC_CORE driver.">
<polygon fill="white" stroke="#666666" points="260,-248 150.25,-248 150.25,-228 260,-228 260,-248"/>
<text text-anchor="middle" x="205.12" y="-234.5" font-family="Helvetica,sans-Serif" font-size="10.00">MSI&#45;Secondary Driver</text>
</a>
</g>
</g>
<!-- Node1&#45;&gt;Node19 -->
<g id="edge18" class="edge">
<title>Node1&#45;&gt;Node19</title>
<path fill="none" stroke="black" d="M81.65,-309.6C99.31,-293.09 124.74,-271.42 150.25,-257 156.04,-253.73 162.48,-250.87 168.85,-248.43"/>
<polygon fill="black" stroke="black" points="79.94,-306.35 75.12,-315.78 84.77,-311.42 79.94,-306.35"/>
</g>
<!-- Node17 -->
<g id="Node000017" class="node">
<title>Node17</title>
<g id="a_Node000017"><a xlink:href="a00413.html" target="_top" xlink:title="Serial Peripheral Interface (SPI) CLIENT Driver using dsPIC MCUs.">
<polygon fill="white" stroke="#666666" points="248.38,-210 161.88,-210 161.88,-190 248.38,-190 248.38,-210"/>
<text text-anchor="middle" x="205.12" y="-196.5" font-family="Helvetica,sans-Serif" font-size="10.00">SPI Client Driver</text>
</a>
</g>
</g>
<!-- Node1&#45;&gt;Node17 -->
<g id="edge16" class="edge">
<title>Node1&#45;&gt;Node17</title>
<path fill="none" stroke="black" d="M72.83,-307.5C88.85,-281.82 116.71,-242.7 150.25,-219 155.03,-215.62 160.47,-212.79 166.01,-210.44"/>
<polygon fill="black" stroke="black" points="69.49,-305.27 67.29,-315.63 75.47,-308.9 69.49,-305.27"/>
</g>
<!-- Node10 -->
<g id="Node000010" class="node">
<title>Node10</title>
<g id="a_Node000010"><a xlink:href="a00406.html" target="_top" xlink:title="System driver using dsPIC MCUs.">
<polygon fill="white" stroke="#666666" points="243.5,-172 166.75,-172 166.75,-152 243.5,-152 243.5,-172"/>
<text text-anchor="middle" x="205.12" y="-158.5" font-family="Helvetica,sans-Serif" font-size="10.00">System Driver</text>
</a>
</g>
</g>
<!-- Node1&#45;&gt;Node10 -->
<g id="edge9" class="edge">
<title>Node1&#45;&gt;Node10</title>
<path fill="none" stroke="black" d="M67.57,-306.72C80.95,-273.02 108.55,-214.89 150.25,-181 155.02,-177.12 160.64,-174.01 166.42,-171.51"/>
<polygon fill="black" stroke="black" points="64.04,-305.15 63.72,-315.74 70.57,-307.66 64.04,-305.15"/>
</g>
<!-- Node14 -->
<g id="Node000014" class="node">
<title>Node14</title>
<g id="a_Node000014"><a xlink:href="a00410.html" target="_top" xlink:title="Timer Driver is a 16&#45;bit timer or 32&#45;bit timer that can operate as a free&#45;running interval timer usin...">
<polygon fill="white" stroke="#666666" points="238.62,-134 171.62,-134 171.62,-114 238.62,-114 238.62,-134"/>
<text text-anchor="middle" x="205.12" y="-120.5" font-family="Helvetica,sans-Serif" font-size="10.00">Timer Driver</text>
</a>
</g>
</g>
<!-- Node1&#45;&gt;Node14 -->
<g id="edge13" class="edge">
<title>Node1&#45;&gt;Node14</title>
<path fill="none" stroke="black" d="M64.15,-306.24C74.7,-265.42 100.27,-187.65 150.25,-143 156.17,-137.71 163.65,-133.88 171.14,-131.1"/>
<polygon fill="black" stroke="black" points="60.57,-305.17 61.57,-315.71 67.36,-306.84 60.57,-305.17"/>
</g>
<!-- Node13 -->
<g id="Node000013" class="node">
<title>Node13</title>
<g id="a_Node000013"><a xlink:href="a00409.html" target="_top" xlink:title="Traps driver with handler for all types of traps using dsPIC MCUs.">
<polygon fill="white" stroke="#666666" points="238.62,-96 171.62,-96 171.62,-76 238.62,-76 238.62,-96"/>
<text text-anchor="middle" x="205.12" y="-82.5" font-family="Helvetica,sans-Serif" font-size="10.00">Traps Driver</text>
</a>
</g>
</g>
<!-- Node1&#45;&gt;Node13 -->
<g id="edge12" class="edge">
<title>Node1&#45;&gt;Node13</title>
<path fill="none" stroke="black" d="M61.72,-306.07C69.42,-258.86 91.81,-160.87 150.25,-105 156.06,-99.45 163.58,-95.51 171.16,-92.71"/>
<polygon fill="black" stroke="black" points="58.15,-305.25 60.1,-315.66 65.07,-306.3 58.15,-305.25"/>
</g>
<!-- Node15 -->
<g id="Node000015" class="node">
<title>Node15</title>
<g id="a_Node000015"><a xlink:href="a00411.html" target="_top" xlink:title="Universal Asynchronous Receiver Transmitter driver using dsPIC MCUs.">
<polygon fill="white" stroke="#666666" points="239.38,-58 170.88,-58 170.88,-38 239.38,-38 239.38,-58"/>
<text text-anchor="middle" x="205.12" y="-44.5" font-family="Helvetica,sans-Serif" font-size="10.00">UART Driver</text>
</a>
</g>
</g>
<!-- Node1&#45;&gt;Node15 -->
<g id="edge14" class="edge">
<title>Node1&#45;&gt;Node15</title>
<path fill="none" stroke="black" d="M59.93,-305.83C64.91,-252.69 83.29,-134.34 150.25,-67 155.77,-61.44 163.02,-57.51 170.4,-54.72"/>
<polygon fill="black" stroke="black" points="56.37,-305.46 59.02,-315.72 63.34,-306.05 56.37,-305.46"/>
</g>
<!-- Node8 -->
<g id="Node000008" class="node">
<title>Node8</title>
<g id="a_Node000008"><a xlink:href="a00404.html" target="_top" xlink:title="Watchdog Timer Driver using dsPIC MCUs.">
<polygon fill="white" stroke="#666666" points="237.5,-20 172.75,-20 172.75,0 237.5,0 237.5,-20"/>
<text text-anchor="middle" x="205.12" y="-6.5" font-family="Helvetica,sans-Serif" font-size="10.00">WDT Driver</text>
</a>
</g>
</g>
<!-- Node1&#45;&gt;Node8 -->
<g id="edge7" class="edge">
<title>Node1&#45;&gt;Node8</title>
<path fill="none" stroke="black" d="M58.54,-305.71C60.9,-247.09 74.66,-108.06 150.25,-29 156.21,-22.76 164.35,-18.57 172.48,-15.75"/>
<polygon fill="black" stroke="black" points="55.01,-305.53 58.19,-315.63 62.01,-305.75 55.01,-305.53"/>
</g>
</g>
</svg>

<g id="navigator" transform="translate(0 0)" fill="#404254">
  <rect fill="#f2f5e9" fill-opacity="0.5" stroke="#606060" stroke-width=".5" x="0" y="0" width="60" height="60"/>
  <use id="zoomplus" xlink:href="#zoomPlus" x="17" y="9" onmousedown="handleZoom(evt,'in')"/>
  <use id="zoomminus" xlink:href="#zoomMin" x="42" y="9" onmousedown="handleZoom(evt,'out')"/>
  <use id="reset" xlink:href="#resetDef" x="30" y="36" onmousedown="handleReset()"/>
   <use id="arrowup" xlink:href="#arrowUp" x="0" y="0" onmousedown="handlePan(0,-1)"/>
  <use id="arrowright" xlink:href="#arrowRight" x="0" y="0" onmousedown="handlePan(1,0)"/>
  <use id="arrowdown" xlink:href="#arrowDown" x="0" y="0" onmousedown="handlePan(0,1)"/>
  <use id="arrowleft" xlink:href="#arrowLeft" x="0" y="0" onmousedown="handlePan(-1,0)"/>
</g>
<svg viewBox="0 0 15 15" width="100%" height="30px" preserveAspectRatio="xMaxYMin meet">
 <g id="arrow_out" transform="scale(0.3 0.3)">
  <a xlink:href="a00395_org.svg" target="_base">
   <rect id="button" ry="5" rx="5" y="6" x="6" height="38" width="38"
        fill="#f2f5e9" fill-opacity="0.5" stroke="#606060" stroke-width="1.0"/>
   <path id="arrow"
     d="M 11.500037,31.436501 C 11.940474,20.09759 22.043105,11.32322 32.158766,21.979434 L 37.068811,17.246167 C 37.068811,17.246167 37.088388,32 37.088388,32 L 22.160133,31.978069 C 22.160133,31.978069 26.997745,27.140456 26.997745,27.140456 C 18.528582,18.264221 13.291696,25.230495 11.500037,31.436501 z"
     style="fill:#404040;"/>
  </a>
 </g>
</svg>

<style type='text/css'>
<![CDATA[
[data-mouse-over-selected='false'] { opacity: 0.7; }
[data-mouse-over-selected='true']  { opacity: 1.0; }
]]>
</style>
<script type="application/ecmascript"><![CDATA[
document.addEventListener('DOMContentLoaded', (event) => {
  highlightEdges();
  highlightAdjacentNodes();
});
]]></script>
</svg>
