<?xml version="1.0" encoding="UTF-8" standalone="no"?>
<!DOCTYPE svg PUBLIC "-//W3C//DTD SVG 1.1//EN"
 "http://www.w3.org/Graphics/SVG/1.1/DTD/svg11.dtd">
<!-- Generated by graphviz version 8.1.0 (20230707.0739)
 -->
<!-- Title: D:/Firmware/MCU16ASMPS_TestEnvironment/_deployment/dspic33ch&#45;power&#45;totem&#45;pole&#45;demonstration&#45;application&#45;single&#45;phase/dspic33ch_totem_pole_single_phase_secondary_IL.X/sources/driver/power_controller/drv_controller_TPBLPFC.h Pages: 1 -->
<svg width="586pt" height="236pt"
 viewBox="0.00 0.00 585.75 236.00" xmlns="http://www.w3.org/2000/svg" xmlns:xlink="http://www.w3.org/1999/xlink">
<g id="graph0" class="graph" transform="scale(1 1) rotate(0) translate(4 232)">
<title>D:/Firmware/MCU16ASMPS_TestEnvironment/_deployment/dspic33ch&#45;power&#45;totem&#45;pole&#45;demonstration&#45;application&#45;single&#45;phase/dspic33ch_totem_pole_single_phase_secondary_IL.X/sources/driver/power_controller/drv_controller_TPBLPFC.h</title>
<!-- Node1 -->
<g id="Node000001" class="node">
<title>Node1</title>
<g id="a_Node000001"><a xlink:title="This is the driver header file for the power controller.">
<polygon fill="#999999" stroke="#666666" points="309.62,-228 103.12,-228 103.12,-136 309.62,-136 309.62,-228"/>
<text text-anchor="start" x="111.12" y="-214.5" font-family="Helvetica,sans-Serif" font-size="10.00">D:/Firmware/MCU16ASMPS</text>
<text text-anchor="start" x="111.12" y="-202.5" font-family="Helvetica,sans-Serif" font-size="10.00">_TestEnvironment/_deployment</text>
<text text-anchor="start" x="111.12" y="-190.5" font-family="Helvetica,sans-Serif" font-size="10.00">/dspic33ch&#45;power&#45;totem&#45;pole</text>
<text text-anchor="start" x="111.12" y="-178.5" font-family="Helvetica,sans-Serif" font-size="10.00">&#45;demonstration&#45;application&#45;single</text>
<text text-anchor="start" x="111.12" y="-166.5" font-family="Helvetica,sans-Serif" font-size="10.00">&#45;phase/dspic33ch_totem_pole_single</text>
<text text-anchor="start" x="111.12" y="-154.5" font-family="Helvetica,sans-Serif" font-size="10.00">_phase_secondary_IL.X/sources/driver</text>
<text text-anchor="middle" x="206.38" y="-142.5" font-family="Helvetica,sans-Serif" font-size="10.00">/power_controller/drv_controller_TPBLPFC.h</text>
</a>
</g>
</g>
<!-- Node2 -->
<g id="Node000002" class="node">
<title>Node2</title>
<g id="a_Node000002"><a xlink:title=" ">
<polygon fill="#e0e0e0" stroke="#999999" points="34.75,-20 0,-20 0,0 34.75,0 34.75,-20"/>
<text text-anchor="middle" x="17.38" y="-6.5" font-family="Helvetica,sans-Serif" font-size="10.00">xc.h</text>
</a>
</g>
</g>
<!-- Node1&#45;&gt;Node2 -->
<g id="edge1_Node000001_Node000002" class="edge">
<title>Node1&#45;&gt;Node2</title>
<g id="a_edge1_Node000001_Node000002"><a xlink:title=" ">
<path fill="none" stroke="#63b8ff" d="M103.04,-152.92C75.95,-140.82 49.33,-123.78 31.38,-100 16.46,-80.25 14.64,-50.9 15.42,-31.38"/>
<polygon fill="#63b8ff" stroke="#63b8ff" points="18.98,-31.63 16.17,-21.41 11.99,-31.15 18.98,-31.63"/>
</a>
</g>
</g>
<!-- Node3 -->
<g id="Node000003" class="node">
<title>Node3</title>
<g id="a_Node000003"><a xlink:href="a00374.html" target="_top" xlink:title="Generated by the Microchip Digital Compensator Design Tool (DCDT).">
<polygon fill="white" stroke="#666666" points="122.75,-88 40,-88 40,-68 122.75,-68 122.75,-88"/>
<text text-anchor="middle" x="81.38" y="-74.5" font-family="Helvetica,sans-Serif" font-size="10.00">smps_control.h</text>
</a>
</g>
</g>
<!-- Node1&#45;&gt;Node3 -->
<g id="edge2_Node000001_Node000003" class="edge">
<title>Node1&#45;&gt;Node3</title>
<g id="a_edge2_Node000001_Node000003"><a xlink:title=" ">
<path fill="none" stroke="#63b8ff" d="M150.82,-135.67C133.02,-121.14 114.46,-106 101.01,-95.02"/>
<polygon fill="#63b8ff" stroke="#63b8ff" points="103.55,-91.76 93.58,-88.15 99.12,-97.18 103.55,-91.76"/>
</a>
</g>
</g>
<!-- Node5 -->
<g id="Node000005" class="node">
<title>Node5</title>
<g id="a_Node000005"><a xlink:title=" ">
<polygon fill="#e0e0e0" stroke="#999999" points="271.75,-100 141,-100 141,-56 271.75,-56 271.75,-100"/>
<text text-anchor="start" x="149" y="-86.5" font-family="Helvetica,sans-Serif" font-size="10.00">../dcdt/icomp1lv/dcdt</text>
<text text-anchor="start" x="149" y="-74.5" font-family="Helvetica,sans-Serif" font-size="10.00">_generated_code/icomp1lv</text>
<text text-anchor="middle" x="206.38" y="-62.5" font-family="Helvetica,sans-Serif" font-size="10.00">_dcdt.h</text>
</a>
</g>
</g>
<!-- Node1&#45;&gt;Node5 -->
<g id="edge5_Node000001_Node000005" class="edge">
<title>Node1&#45;&gt;Node5</title>
<g id="a_edge5_Node000001_Node000005"><a xlink:title=" ">
<path fill="none" stroke="#63b8ff" d="M206.38,-135.67C206.38,-127.45 206.38,-119.02 206.38,-111.27"/>
<polygon fill="#63b8ff" stroke="#63b8ff" points="209.88,-111.5 206.38,-101.5 202.88,-111.5 209.88,-111.5"/>
</a>
</g>
</g>
<!-- Node6 -->
<g id="Node000006" class="node">
<title>Node6</title>
<g id="a_Node000006"><a xlink:title=" ">
<polygon fill="#e0e0e0" stroke="#999999" points="423.25,-100 289.5,-100 289.5,-56 423.25,-56 423.25,-100"/>
<text text-anchor="start" x="297.5" y="-86.5" font-family="Helvetica,sans-Serif" font-size="10.00">../dcdt/icomp1hv/dcdt</text>
<text text-anchor="start" x="297.5" y="-74.5" font-family="Helvetica,sans-Serif" font-size="10.00">_generated_code/icomp1hv</text>
<text text-anchor="middle" x="356.38" y="-62.5" font-family="Helvetica,sans-Serif" font-size="10.00">_dcdt.h</text>
</a>
</g>
</g>
<!-- Node1&#45;&gt;Node6 -->
<g id="edge6_Node000001_Node000006" class="edge">
<title>Node1&#45;&gt;Node6</title>
<g id="a_edge6_Node000001_Node000006"><a xlink:title=" ">
<path fill="none" stroke="#63b8ff" d="M273.04,-135.67C287.66,-125.72 302.71,-115.49 315.93,-106.5"/>
<polygon fill="#63b8ff" stroke="#63b8ff" points="317.46,-109.02 323.76,-100.5 313.52,-103.23 317.46,-109.02"/>
</a>
</g>
</g>
<!-- Node7 -->
<g id="Node000007" class="node">
<title>Node7</title>
<g id="a_Node000007"><a xlink:title=" ">
<polygon fill="#e0e0e0" stroke="#999999" points="577.75,-100 441,-100 441,-56 577.75,-56 577.75,-100"/>
<text text-anchor="start" x="449" y="-86.5" font-family="Helvetica,sans-Serif" font-size="10.00">../dcdt/vcomp1ph/dcdt</text>
<text text-anchor="start" x="449" y="-74.5" font-family="Helvetica,sans-Serif" font-size="10.00">_generated_code/vcomp1ph</text>
<text text-anchor="middle" x="509.38" y="-62.5" font-family="Helvetica,sans-Serif" font-size="10.00">_dcdt.h</text>
</a>
</g>
</g>
<!-- Node1&#45;&gt;Node7 -->
<g id="edge7_Node000001_Node000007" class="edge">
<title>Node1&#45;&gt;Node7</title>
<g id="a_edge7_Node000001_Node000007"><a xlink:title=" ">
<path fill="none" stroke="#63b8ff" d="M309.8,-146.18C351.02,-132.31 397.53,-116.65 435.27,-103.95"/>
<polygon fill="#63b8ff" stroke="#63b8ff" points="436.31,-106.95 444.67,-100.44 434.08,-100.32 436.31,-106.95"/>
</a>
</g>
</g>
<!-- Node3&#45;&gt;Node2 -->
<g id="edge3_Node000003_Node000002" class="edge">
<title>Node3&#45;&gt;Node2</title>
<g id="a_edge3_Node000003_Node000002"><a xlink:title=" ">
<path fill="none" stroke="#63b8ff" d="M72.21,-67.54C62.23,-57.25 46.06,-40.58 33.87,-28.01"/>
<polygon fill="#63b8ff" stroke="#63b8ff" points="37,-26.18 27.53,-21.44 31.98,-31.05 37,-26.18"/>
</a>
</g>
</g>
<!-- Node4 -->
<g id="Node000004" class="node">
<title>Node4</title>
<g id="a_Node000004"><a xlink:title=" ">
<polygon fill="#e0e0e0" stroke="#999999" points="105.5,-20 57.25,-20 57.25,0 105.5,0 105.5,-20"/>
<text text-anchor="middle" x="81.38" y="-6.5" font-family="Helvetica,sans-Serif" font-size="10.00">stdint.h</text>
</a>
</g>
</g>
<!-- Node3&#45;&gt;Node4 -->
<g id="edge4_Node000003_Node000004" class="edge">
<title>Node3&#45;&gt;Node4</title>
<g id="a_edge4_Node000003_Node000004"><a xlink:title=" ">
<path fill="none" stroke="#63b8ff" d="M81.38,-67.54C81.38,-58.13 81.38,-43.39 81.38,-31.32"/>
<polygon fill="#63b8ff" stroke="#63b8ff" points="84.88,-31.44 81.38,-21.44 77.88,-31.44 84.88,-31.44"/>
</a>
</g>
</g>
</g>
</svg>
