<?xml version="1.0" encoding="UTF-8" standalone="no"?>
<!DOCTYPE svg PUBLIC "-//W3C//DTD SVG 1.1//EN"
 "http://www.w3.org/Graphics/SVG/1.1/DTD/svg11.dtd">
<!-- Generated by graphviz version 8.1.0 (20230707.0739)
 -->
<!-- Title: CAN1_RX_FIFO_IncrementMsgPtr Pages: 1 -->
<svg width="502pt" height="66pt"
 viewBox="0.00 0.00 502.25 66.00" xmlns="http://www.w3.org/2000/svg" xmlns:xlink="http://www.w3.org/1999/xlink">
<g id="graph0" class="graph" transform="scale(1 1) rotate(0) translate(4 62)">
<title>CAN1_RX_FIFO_IncrementMsgPtr</title>
<!-- Node1 -->
<g id="Node000001" class="node">
<title>Node1</title>
<g id="a_Node000001"><a xlink:title="This function Update the receive FIFO message increment tail position.">
<polygon fill="#999999" stroke="#666666" points="494.25,-39 329,-39 329,-19 494.25,-19 494.25,-39"/>
<text text-anchor="middle" x="411.62" y="-25.5" font-family="Helvetica,sans-Serif" font-size="10.00">CAN1_RX_FIFO_IncrementMsgPtr</text>
</a>
</g>
</g>
<!-- Node2 -->
<g id="Node000002" class="node">
<title>Node2</title>
<g id="a_Node000002"><a xlink:href="a00399.html#ga4fe1df4cd9f0ce122687dcfab0713b5b" target="_top" xlink:title="Reads the received single message object.">
<polygon fill="white" stroke="#666666" points="265.25,-58 184.75,-58 184.75,-38 265.25,-38 265.25,-58"/>
<text text-anchor="middle" x="225" y="-44.5" font-family="Helvetica,sans-Serif" font-size="10.00">CAN1_Receive</text>
</a>
</g>
</g>
<!-- Node1&#45;&gt;Node2 -->
<g id="edge1_Node000001_Node000002" class="edge">
<title>Node1&#45;&gt;Node2</title>
<g id="a_edge1_Node000001_Node000002"><a xlink:title=" ">
<path fill="none" stroke="#63b8ff" d="M317.72,-38.56C299.27,-40.46 280.84,-42.36 265.4,-43.95"/>
<polygon fill="#63b8ff" stroke="#63b8ff" points="317.98,-41.95 327.57,-37.44 317.26,-34.99 317.98,-41.95"/>
</a>
</g>
</g>
<!-- Node4 -->
<g id="Node000004" class="node">
<title>Node4</title>
<g id="a_Node000004"><a xlink:href="a00399.html#ga2c655a58965fff8578916b59bed47297" target="_top" xlink:title="Reads the received single message object from the CAN1 receive FIFO.">
<polygon fill="white" stroke="#666666" points="293,-20 157,-20 157,0 293,0 293,-20"/>
<text text-anchor="middle" x="225" y="-6.5" font-family="Helvetica,sans-Serif" font-size="10.00">CAN1_ReceiveMessageGet</text>
</a>
</g>
</g>
<!-- Node1&#45;&gt;Node4 -->
<g id="edge3_Node000001_Node000004" class="edge">
<title>Node1&#45;&gt;Node4</title>
<g id="a_edge3_Node000001_Node000004"><a xlink:title=" ">
<path fill="none" stroke="#63b8ff" d="M317.79,-19.45C309.58,-18.6 301.37,-17.76 293.42,-16.94"/>
<polygon fill="#63b8ff" stroke="#63b8ff" points="317.26,-23.01 327.57,-20.56 317.98,-16.05 317.26,-23.01"/>
</a>
</g>
</g>
<!-- Node3 -->
<g id="Node000003" class="node">
<title>Node3</title>
<g id="a_Node000003"><a xlink:href="a00227.html#a77b41fe067ba8e8d666827b686e52cff" target="_top" xlink:title=" ">
<polygon fill="white" stroke="#666666" points="121,-58 0,-58 0,-38 121,-38 121,-58"/>
<text text-anchor="middle" x="60.5" y="-44.5" font-family="Helvetica,sans-Serif" font-size="10.00">CAN_Receive_from_GUI</text>
</a>
</g>
</g>
<!-- Node2&#45;&gt;Node3 -->
<g id="edge2_Node000002_Node000003" class="edge">
<title>Node2&#45;&gt;Node3</title>
<g id="a_edge2_Node000002_Node000003"><a xlink:title=" ">
<path fill="none" stroke="#63b8ff" d="M174.06,-48C157.43,-48 138.72,-48 121.41,-48"/>
<polygon fill="#63b8ff" stroke="#63b8ff" points="173.66,-51.5 183.66,-48 173.66,-44.5 173.66,-51.5"/>
</a>
</g>
</g>
</g>
</svg>
