<?xml version="1.0" encoding="UTF-8" standalone="no"?>
<!DOCTYPE svg PUBLIC "-//W3C//DTD SVG 1.1//EN"
 "http://www.w3.org/Graphics/SVG/1.1/DTD/svg11.dtd">
<!-- Generated by graphviz version 2.44.1 (20200629.0846)
 -->
<!-- Title: C:/Users/M70027/Documents/Projects/tp&#45;deployment/dspic33ch&#45;power&#45;totem&#45;pole&#45;demonstration&#45;application&#45;single&#45;phase_v2/dspic33ch_totem_pole_single_phase_secondary_IL.X/sources/driver/adc/drv_adc.c Pages: 1 -->
<!--zoomable 302 -->

<svg id="main" version="1.1" xmlns="http://www.w3.org/2000/svg" xmlns:xlink="http://www.w3.org/1999/xlink" xml:space="preserve" onload="init(evt)">

<style type="text/css"><![CDATA[
.node, .edge {opacity: 0.7;}
.node.selected, .edge.selected {opacity: 1;}
.edge:hover path { stroke: red; }
.edge:hover polygon { stroke: red; fill: red; }
]]></style>

<defs>
  <circle id="rim" cx="0" cy="0" r="7"/>
  <circle id="rim2" cx="0" cy="0" r="3.5"/>
  <g id="zoomPlus">
    <use xlink:href="#rim" fill="#404040"><set attributeName="fill" to="#808080" begin="zoomplus.mouseover" end="zoomplus.mouseout"/></use>
    <path d="M-4,0h8M0,-4v8" fill="none" stroke="white" stroke-width="1.5" pointer-events="none"/>
  </g>
  <g id="zoomMin">
    <use xlink:href="#rim" fill="#404040"><set attributeName="fill" to="#808080" begin="zoomminus.mouseover" end="zoomminus.mouseout"/></use>
    <path d="M-4,0h8" fill="none" stroke="white" stroke-width="1.5" pointer-events="none"/>
  </g>
  <g id="arrowUp" transform="translate(30 24)">
    <use xlink:href="#rim"/>
    <path pointer-events="none" fill="none" stroke="white" stroke-width="1.5" d="M0,-3.0v7 M-2.5,-0.5L0,-3.0L2.5,-0.5"/>
  </g>
  <g id="arrowRight" transform="rotate(90) translate(36 -43)">
    <use xlink:href="#rim"/>
    <path pointer-events="none" fill="none" stroke="white" stroke-width="1.5" d="M0,-3.0v7 M-2.5,-0.5L0,-3.0L2.5,-0.5"/>
  </g>
  <g id="arrowDown" transform="rotate(180) translate(-30 -48)">
    <use xlink:href="#rim"/>
    <path pointer-events="none" fill="none" stroke="white" stroke-width="1.5" d="M0,-3.0v7 M-2.5,-0.5L0,-3.0L2.5,-0.5"/>
  </g>
  <g id="arrowLeft" transform="rotate(270) translate(-36 17)">
    <use xlink:href="#rim"/>
    <path pointer-events="none" fill="none" stroke="white" stroke-width="1.5" d="M0,-3.0v7 M-2.5,-0.5L0,-3.0L2.5,-0.5"/>
  </g>
  <g id="resetDef">
    <use xlink:href="#rim2" fill="#404040"><set attributeName="fill" to="#808080" begin="reset.mouseover" end="reset.mouseout"/></use>
  </g>
</defs>
<script type="application/ecmascript">
var viewWidth = 1100;
var viewHeight = 302;
var sectionId = 'dynsection-0';
</script>
<script type="application/ecmascript" xlink:href="svg.min.js"/>
<svg id="graph" class="graph">
<g id="viewport">
<title>C:/Users/M70027/Documents/Projects/tp&#45;deployment/dspic33ch&#45;power&#45;totem&#45;pole&#45;demonstration&#45;application&#45;single&#45;phase_v2/dspic33ch_totem_pole_single_phase_secondary_IL.X/sources/driver/adc/drv_adc.c</title>
<!-- Node1 -->
<g id="Node000001" class="node">
<title>Node1</title>
<g id="a_Node000001"><a xlink:title="This is the driver source file for adc builds upon mcc.">
<polygon fill="#999999" stroke="#666666" points="564.5,-294 391.5,-294 391.5,-209 564.5,-209 564.5,-294"/>
<text text-anchor="start" x="399.5" y="-282" font-family="Helvetica,sans-Serif" font-size="10.00">C:/Users/M70027/Documents</text>
<text text-anchor="start" x="399.5" y="-271" font-family="Helvetica,sans-Serif" font-size="10.00">/Projects/tp&#45;deployment</text>
<text text-anchor="start" x="399.5" y="-260" font-family="Helvetica,sans-Serif" font-size="10.00">/dspic33ch&#45;power&#45;totem&#45;pole</text>
<text text-anchor="start" x="399.5" y="-249" font-family="Helvetica,sans-Serif" font-size="10.00">&#45;demonstration&#45;application</text>
<text text-anchor="start" x="399.5" y="-238" font-family="Helvetica,sans-Serif" font-size="10.00">&#45;single&#45;phase_v2/dspic33ch_totem</text>
<text text-anchor="start" x="399.5" y="-227" font-family="Helvetica,sans-Serif" font-size="10.00">_pole_single_phase_secondary_IL.X</text>
<text text-anchor="middle" x="478" y="-216" font-family="Helvetica,sans-Serif" font-size="10.00">/sources/driver/adc/drv_adc.c</text>
</a>
</g>
</g>
<!-- Node2 -->
<g id="Node000002" class="node">
<title>Node2</title>
<g id="a_Node000002"><a xlink:title=" ">
<polygon fill="#e0e0e0" stroke="#999999" points="145.5,-162 32.5,-162 32.5,-143 145.5,-143 145.5,-162"/>
<text text-anchor="middle" x="89" y="-150" font-family="Helvetica,sans-Serif" font-size="10.00">p33CH512MP506S1.h</text>
</a>
</g>
</g>
<!-- Node1&#45;&gt;Node2 -->
<g id="edge1_Node000001_Node000002" class="edge">
<title>Node1&#45;&gt;Node2</title>
<g id="a_edge1_Node000001_Node000002"><a xlink:title=" ">
<path fill="none" stroke="#63b8ff" d="M391.32,-230.99C326.11,-216 234.66,-194.31 155,-173 145.76,-170.53 135.85,-167.7 126.58,-164.97"/>
<polygon fill="#63b8ff" stroke="#63b8ff" points="127.43,-161.57 116.85,-162.08 125.44,-168.28 127.43,-161.57"/>
</a>
</g>
</g>
<!-- Node3 -->
<g id="Node000003" class="node">
<title>Node3</title>
<g id="a_Node000003"><a xlink:title=" ">
<polygon fill="#e0e0e0" stroke="#999999" points="212,-162 164,-162 164,-143 212,-143 212,-162"/>
<text text-anchor="middle" x="188" y="-150" font-family="Helvetica,sans-Serif" font-size="10.00">stdlib.h</text>
</a>
</g>
</g>
<!-- Node1&#45;&gt;Node3 -->
<g id="edge2_Node000001_Node000003" class="edge">
<title>Node1&#45;&gt;Node3</title>
<g id="a_edge2_Node000001_Node000003"><a xlink:title=" ">
<path fill="none" stroke="#63b8ff" d="M391.25,-227.9C342.04,-214.07 279.74,-194.86 226,-173 221.43,-171.14 216.67,-168.93 212.13,-166.68"/>
<polygon fill="#63b8ff" stroke="#63b8ff" points="213.73,-163.57 203.24,-162.1 210.53,-169.79 213.73,-163.57"/>
</a>
</g>
</g>
<!-- Node4 -->
<g id="Node000004" class="node">
<title>Node4</title>
<g id="a_Node000004"><a xlink:href="a00350.html" target="_top" xlink:title="This is the driver header file for adc builds upon mcc.">
<polygon fill="white" stroke="#666666" points="528,-85 470,-85 470,-66 528,-66 528,-85"/>
<text text-anchor="middle" x="499" y="-73" font-family="Helvetica,sans-Serif" font-size="10.00">drv_adc.h</text>
</a>
</g>
</g>
<!-- Node1&#45;&gt;Node4 -->
<g id="edge3_Node000001_Node000004" class="edge">
<title>Node1&#45;&gt;Node4</title>
<g id="a_edge3_Node000001_Node000004"><a xlink:title=" ">
<path fill="none" stroke="#63b8ff" d="M483.03,-208.82C487.38,-172.75 493.48,-122.27 496.73,-95.27"/>
<polygon fill="#63b8ff" stroke="#63b8ff" points="500.22,-95.6 497.94,-85.25 493.27,-94.76 500.22,-95.6"/>
</a>
</g>
</g>
<!-- Node6 -->
<g id="Node000006" class="node">
<title>Node6</title>
<g id="a_Node000006"><a xlink:href="a00790_source.html" target="_top" xlink:title=" ">
<polygon fill="white" stroke="#666666" points="452,-90.5 342,-90.5 342,-60.5 452,-60.5 452,-90.5"/>
<text text-anchor="start" x="350" y="-78.5" font-family="Helvetica,sans-Serif" font-size="10.00">../../../mcc_generated</text>
<text text-anchor="middle" x="397" y="-67.5" font-family="Helvetica,sans-Serif" font-size="10.00">_files/system/pins.h</text>
</a>
</g>
</g>
<!-- Node1&#45;&gt;Node6 -->
<g id="edge5_Node000001_Node000006" class="edge">
<title>Node1&#45;&gt;Node6</title>
<g id="a_edge5_Node000001_Node000006"><a xlink:title=" ">
<path fill="none" stroke="#63b8ff" d="M458.6,-208.82C442.76,-174.8 420.94,-127.94 407.98,-100.08"/>
<polygon fill="#63b8ff" stroke="#63b8ff" points="411.02,-98.32 403.63,-90.73 404.67,-101.28 411.02,-98.32"/>
</a>
</g>
</g>
<!-- Node7 -->
<g id="Node000007" class="node">
<title>Node7</title>
<g id="a_Node000007"><a xlink:href="a00296.html" target="_top" xlink:title="This is the generated driver header file for the MAIN_CORE driver.">
<polygon fill="white" stroke="#666666" points="814.5,-173 703.5,-173 703.5,-132 814.5,-132 814.5,-173"/>
<text text-anchor="start" x="711.5" y="-161" font-family="Helvetica,sans-Serif" font-size="10.00">../../../mcc_generated</text>
<text text-anchor="start" x="711.5" y="-150" font-family="Helvetica,sans-Serif" font-size="10.00">_files/main_core/main</text>
<text text-anchor="middle" x="759" y="-139" font-family="Helvetica,sans-Serif" font-size="10.00">_core.h</text>
</a>
</g>
</g>
<!-- Node1&#45;&gt;Node7 -->
<g id="edge7_Node000001_Node000007" class="edge">
<title>Node1&#45;&gt;Node7</title>
<g id="a_edge7_Node000001_Node000007"><a xlink:title=" ">
<path fill="none" stroke="#63b8ff" d="M564.6,-220.61C606.23,-206.24 655.29,-189.3 693.71,-176.04"/>
<polygon fill="#63b8ff" stroke="#63b8ff" points="694.93,-179.32 703.24,-172.75 692.65,-172.7 694.93,-179.32"/>
</a>
</g>
</g>
<!-- Node13 -->
<g id="Node000013" class="node">
<title>Node13</title>
<g id="a_Node000013"><a xlink:href="a00368.html" target="_top" xlink:title="This is the driver header file for the power controller misc app.">
<polygon fill="white" stroke="#666666" points="619.5,-173 506.5,-173 506.5,-132 619.5,-132 619.5,-173"/>
<text text-anchor="start" x="514.5" y="-161" font-family="Helvetica,sans-Serif" font-size="10.00">../power_controller</text>
<text text-anchor="start" x="514.5" y="-150" font-family="Helvetica,sans-Serif" font-size="10.00">/drv_pwrctrl_app_misc</text>
<text text-anchor="middle" x="563" y="-139" font-family="Helvetica,sans-Serif" font-size="10.00">_TPBLPFC.h</text>
</a>
</g>
</g>
<!-- Node1&#45;&gt;Node13 -->
<g id="edge17_Node000001_Node000013" class="edge">
<title>Node1&#45;&gt;Node13</title>
<g id="a_edge17_Node000001_Node000013"><a xlink:title=" ">
<path fill="none" stroke="#63b8ff" d="M514.54,-208.8C522.88,-199.29 531.53,-189.42 539.17,-180.69"/>
<polygon fill="#63b8ff" stroke="#63b8ff" points="541.91,-182.88 545.87,-173.05 536.65,-178.26 541.91,-182.88"/>
</a>
</g>
</g>
<!-- Node14 -->
<g id="Node000014" class="node">
<title>Node14</title>
<g id="a_Node000014"><a xlink:href="a00344.html" target="_top" xlink:title="This is the typedef file for power controller.">
<polygon fill="white" stroke="#666666" points="712,-90.5 584,-90.5 584,-60.5 712,-60.5 712,-90.5"/>
<text text-anchor="start" x="592" y="-78.5" font-family="Helvetica,sans-Serif" font-size="10.00">../../../sources/devices</text>
<text text-anchor="middle" x="648" y="-67.5" font-family="Helvetica,sans-Serif" font-size="10.00">/dev_TPBLPFC_typedef.h</text>
</a>
</g>
</g>
<!-- Node1&#45;&gt;Node14 -->
<g id="edge24_Node000001_Node000014" class="edge">
<title>Node1&#45;&gt;Node14</title>
<g id="a_edge24_Node000001_Node000014"><a xlink:title=" ">
<path fill="none" stroke="#63b8ff" d="M564.83,-222.3C588.86,-210.58 612.78,-194.54 629,-173 644.66,-152.21 648.41,-121.96 648.88,-100.9"/>
<polygon fill="#63b8ff" stroke="#63b8ff" points="652.38,-100.81 648.87,-90.81 645.38,-100.82 652.38,-100.81"/>
</a>
</g>
</g>
<!-- Node15 -->
<g id="Node000015" class="node">
<title>Node15</title>
<g id="a_Node000015"><a xlink:href="a00338.html" target="_top" xlink:title="This is the typedef file for power controller.">
<polygon fill="white" stroke="#666666" points="150,-96 0,-96 0,-55 150,-55 150,-96"/>
<text text-anchor="start" x="8" y="-84" font-family="Helvetica,sans-Serif" font-size="10.00">../../devices/dev</text>
<text text-anchor="start" x="8" y="-73" font-family="Helvetica,sans-Serif" font-size="10.00">_TPBLPFC_numberconnection</text>
<text text-anchor="middle" x="75" y="-62" font-family="Helvetica,sans-Serif" font-size="10.00">_typedef.h</text>
</a>
</g>
</g>
<!-- Node1&#45;&gt;Node15 -->
<g id="edge22_Node000001_Node000015" class="edge">
<title>Node1&#45;&gt;Node15</title>
<g id="a_edge22_Node000001_Node000015"><a xlink:title=" ">
<path fill="none" stroke="#63b8ff" d="M391.44,-229.88C349.59,-217.45 299.92,-198.93 260,-173 238.91,-159.3 241.94,-145.93 221,-132 200.95,-118.66 177.23,-107.9 154.82,-99.53"/>
<polygon fill="#63b8ff" stroke="#63b8ff" points="155.9,-96.2 145.3,-96.09 153.52,-102.78 155.9,-96.2"/>
</a>
</g>
</g>
<!-- Node16 -->
<g id="Node000016" class="node">
<title>Node16</title>
<g id="a_Node000016"><a xlink:href="a00374.html" target="_top" xlink:title="This is the driver header file for the power controller app.">
<polygon fill="white" stroke="#666666" points="411.5,-167.5 268.5,-167.5 268.5,-137.5 411.5,-137.5 411.5,-167.5"/>
<text text-anchor="start" x="276.5" y="-155.5" font-family="Helvetica,sans-Serif" font-size="10.00">../power_controller</text>
<text text-anchor="middle" x="340" y="-144.5" font-family="Helvetica,sans-Serif" font-size="10.00">/drv_pwrctrl_app_TPBLPFC.h</text>
</a>
</g>
</g>
<!-- Node1&#45;&gt;Node16 -->
<g id="edge25_Node000001_Node000016" class="edge">
<title>Node1&#45;&gt;Node16</title>
<g id="a_edge25_Node000001_Node000016"><a xlink:title=" ">
<path fill="none" stroke="#63b8ff" d="M418.67,-208.8C401.25,-196.55 382.99,-183.72 368.45,-173.5"/>
<polygon fill="#63b8ff" stroke="#63b8ff" points="370.11,-170.39 359.92,-167.5 366.09,-176.12 370.11,-170.39"/>
</a>
</g>
</g>
<!-- Node18 -->
<g id="Node000018" class="node">
<title>Node18</title>
<g id="a_Node000018"><a xlink:title=" ">
<polygon fill="#e0e0e0" stroke="#999999" points="951.5,-173 832.5,-173 832.5,-132 951.5,-132 951.5,-173"/>
<text text-anchor="start" x="840.5" y="-161" font-family="Helvetica,sans-Serif" font-size="10.00">../../../sources/driver</text>
<text text-anchor="start" x="840.5" y="-150" font-family="Helvetica,sans-Serif" font-size="10.00">/power_controller/drv</text>
<text text-anchor="middle" x="892" y="-139" font-family="Helvetica,sans-Serif" font-size="10.00">_controller_TPBLPFC.h</text>
</a>
</g>
</g>
<!-- Node1&#45;&gt;Node18 -->
<g id="edge28_Node000001_Node000018" class="edge">
<title>Node1&#45;&gt;Node18</title>
<g id="a_edge28_Node000001_Node000018"><a xlink:title=" ">
<path fill="none" stroke="#63b8ff" d="M564.72,-232.56C632.51,-218.19 729.28,-196.92 822.47,-173.33"/>
<polygon fill="#63b8ff" stroke="#63b8ff" points="823.52,-176.68 832.35,-170.82 821.8,-169.89 823.52,-176.68"/>
</a>
</g>
</g>
<!-- Node19 -->
<g id="Node000019" class="node">
<title>Node19</title>
<g id="a_Node000019"><a xlink:title=" ">
<polygon fill="#e0e0e0" stroke="#999999" points="1092,-167.5 970,-167.5 970,-137.5 1092,-137.5 1092,-167.5"/>
<text text-anchor="start" x="978" y="-155.5" font-family="Helvetica,sans-Serif" font-size="10.00">../sources_common</text>
<text text-anchor="middle" x="1031" y="-144.5" font-family="Helvetica,sans-Serif" font-size="10.00">/PFC_frameworkSetup.h</text>
</a>
</g>
</g>
<!-- Node1&#45;&gt;Node19 -->
<g id="edge29_Node000001_Node000019" class="edge">
<title>Node1&#45;&gt;Node19</title>
<g id="a_edge29_Node000001_Node000019"><a xlink:title=" ">
<path fill="none" stroke="#63b8ff" d="M564.93,-239.55C662.05,-226.63 823.69,-203.04 961,-173 965.09,-172.11 969.3,-171.11 973.52,-170.07"/>
<polygon fill="#63b8ff" stroke="#63b8ff" points="974.54,-173.42 983.36,-167.54 972.8,-166.64 974.54,-173.42"/>
</a>
</g>
</g>
<!-- Node5 -->
<g id="Node000005" class="node">
<title>Node5</title>
<g id="a_Node000005"><a xlink:title=" ">
<polygon fill="#e0e0e0" stroke="#999999" points="516.5,-19 481.5,-19 481.5,0 516.5,0 516.5,-19"/>
<text text-anchor="middle" x="499" y="-7" font-family="Helvetica,sans-Serif" font-size="10.00">xc.h</text>
</a>
</g>
</g>
<!-- Node4&#45;&gt;Node5 -->
<g id="edge4_Node000004_Node000005" class="edge">
<title>Node4&#45;&gt;Node5</title>
<g id="a_edge4_Node000004_Node000005"><a xlink:title=" ">
<path fill="none" stroke="#63b8ff" d="M499,-65.87C499,-56.66 499,-41.79 499,-29.77"/>
<polygon fill="#63b8ff" stroke="#63b8ff" points="502.5,-29.41 499,-19.41 495.5,-29.41 502.5,-29.41"/>
</a>
</g>
</g>
<!-- Node6&#45;&gt;Node5 -->
<g id="edge6_Node000006_Node000005" class="edge">
<title>Node6&#45;&gt;Node5</title>
<g id="a_edge6_Node000006_Node000005"><a xlink:title=" ">
<path fill="none" stroke="#63b8ff" d="M419.38,-60.45C436.41,-49.77 459.71,-35.15 476.71,-24.48"/>
<polygon fill="#63b8ff" stroke="#63b8ff" points="478.82,-27.3 485.43,-19.02 475.09,-21.37 478.82,-27.3"/>
</a>
</g>
</g>
<!-- Node7&#45;&gt;Node5 -->
<g id="edge8_Node000007_Node000005" class="edge">
<title>Node7&#45;&gt;Node5</title>
<g id="a_edge8_Node000007_Node000005"><a xlink:title=" ">
<path fill="none" stroke="#63b8ff" d="M756.78,-131.62C753.21,-109.48 744.06,-74.3 721,-55 691.74,-30.52 579.2,-17.58 526.51,-12.75"/>
<polygon fill="#63b8ff" stroke="#63b8ff" points="526.79,-9.26 516.52,-11.87 526.17,-16.24 526.79,-9.26"/>
</a>
</g>
</g>
<!-- Node8 -->
<g id="Node000008" class="node">
<title>Node8</title>
<g id="a_Node000008"><a xlink:title=" ">
<polygon fill="#e0e0e0" stroke="#999999" points="778.5,-19 729.5,-19 729.5,0 778.5,0 778.5,-19"/>
<text text-anchor="middle" x="754" y="-7" font-family="Helvetica,sans-Serif" font-size="10.00">stdint.h</text>
</a>
</g>
</g>
<!-- Node7&#45;&gt;Node8 -->
<g id="edge9_Node000007_Node000008" class="edge">
<title>Node7&#45;&gt;Node8</title>
<g id="a_edge9_Node000007_Node000008"><a xlink:title=" ">
<path fill="none" stroke="#63b8ff" d="M758.3,-131.89C757.34,-104.74 755.61,-56.01 754.67,-29.29"/>
<polygon fill="#63b8ff" stroke="#63b8ff" points="758.15,-28.89 754.3,-19.02 751.16,-29.13 758.15,-28.89"/>
</a>
</g>
</g>
<!-- Node9 -->
<g id="Node000009" class="node">
<title>Node9</title>
<g id="a_Node000009"><a xlink:title=" ">
<polygon fill="#e0e0e0" stroke="#999999" points="853,-19 797,-19 797,0 853,0 853,-19"/>
<text text-anchor="middle" x="825" y="-7" font-family="Helvetica,sans-Serif" font-size="10.00">stdbool.h</text>
</a>
</g>
</g>
<!-- Node7&#45;&gt;Node9 -->
<g id="edge10_Node000007_Node000009" class="edge">
<title>Node7&#45;&gt;Node9</title>
<g id="a_edge10_Node000007_Node000009"><a xlink:title=" ">
<path fill="none" stroke="#63b8ff" d="M768.18,-131.89C781.06,-104.37 804.31,-54.69 816.7,-28.22"/>
<polygon fill="#63b8ff" stroke="#63b8ff" points="819.94,-29.56 821.01,-19.02 813.6,-26.59 819.94,-29.56"/>
</a>
</g>
</g>
<!-- Node10 -->
<g id="Node000010" class="node">
<title>Node10</title>
<g id="a_Node000010"><a xlink:href="a00302.html" target="_top" xlink:title="This is the generated driver types header file for the MAIN_CORE driver.">
<polygon fill="white" stroke="#666666" points="1039.5,-19 940.5,-19 940.5,0 1039.5,0 1039.5,-19"/>
<text text-anchor="middle" x="990" y="-7" font-family="Helvetica,sans-Serif" font-size="10.00">main_core_types.h</text>
</a>
</g>
</g>
<!-- Node7&#45;&gt;Node10 -->
<g id="edge11_Node000007_Node000010" class="edge">
<title>Node7&#45;&gt;Node10</title>
<g id="a_edge11_Node000007_Node000010"><a xlink:title=" ">
<path fill="none" stroke="#63b8ff" d="M814.63,-134.65C817.79,-133.74 820.93,-132.85 824,-132 886.32,-114.7 918.48,-140.94 965,-96 983.13,-78.48 988.31,-48.61 989.68,-29.22"/>
<polygon fill="#63b8ff" stroke="#63b8ff" points="993.18,-29.32 990.11,-19.18 986.18,-29.02 993.18,-29.32"/>
</a>
</g>
</g>
<!-- Node11 -->
<g id="Node000011" class="node">
<title>Node11</title>
<g id="a_Node000011"><a xlink:href="a00299_source.html" target="_top" xlink:title=" ">
<polygon fill="white" stroke="#666666" points="956,-85 844,-85 844,-66 956,-66 956,-85"/>
<text text-anchor="middle" x="900" y="-73" font-family="Helvetica,sans-Serif" font-size="10.00">main_core_interface.h</text>
</a>
</g>
</g>
<!-- Node7&#45;&gt;Node11 -->
<g id="edge12_Node000007_Node000011" class="edge">
<title>Node7&#45;&gt;Node11</title>
<g id="a_edge12_Node000007_Node000011"><a xlink:title=" ">
<path fill="none" stroke="#63b8ff" d="M795.68,-131.99C820.56,-118.76 852.8,-101.61 874.81,-89.9"/>
<polygon fill="#63b8ff" stroke="#63b8ff" points="876.67,-92.87 883.85,-85.09 873.38,-86.69 876.67,-92.87"/>
</a>
</g>
</g>
<!-- Node11&#45;&gt;Node8 -->
<g id="edge14_Node000011_Node000008" class="edge">
<title>Node11&#45;&gt;Node8</title>
<g id="a_edge14_Node000011_Node000008"><a xlink:title=" ">
<path fill="none" stroke="#63b8ff" d="M880.31,-65.87C855.27,-54.89 811.85,-35.86 783.02,-23.22"/>
<polygon fill="#63b8ff" stroke="#63b8ff" points="784.41,-20.01 773.84,-19.2 781.6,-26.42 784.41,-20.01"/>
</a>
</g>
</g>
<!-- Node11&#45;&gt;Node9 -->
<g id="edge15_Node000011_Node000009" class="edge">
<title>Node11&#45;&gt;Node9</title>
<g id="a_edge15_Node000011_Node000009"><a xlink:title=" ">
<path fill="none" stroke="#63b8ff" d="M889.89,-65.87C877.99,-55.71 858,-38.66 843.35,-26.15"/>
<polygon fill="#63b8ff" stroke="#63b8ff" points="845.31,-23.23 835.44,-19.41 840.77,-28.56 845.31,-23.23"/>
</a>
</g>
</g>
<!-- Node11&#45;&gt;Node10 -->
<g id="edge16_Node000011_Node000010" class="edge">
<title>Node11&#45;&gt;Node10</title>
<g id="a_edge16_Node000011_Node000010"><a xlink:title=" ">
<path fill="none" stroke="#63b8ff" d="M912.14,-65.87C926.77,-55.47 951.58,-37.82 969.26,-25.25"/>
<polygon fill="#63b8ff" stroke="#63b8ff" points="971.65,-27.85 977.77,-19.2 967.59,-22.14 971.65,-27.85"/>
</a>
</g>
</g>
<!-- Node12 -->
<g id="Node000012" class="node">
<title>Node12</title>
<g id="a_Node000012"><a xlink:title=" ">
<polygon fill="#e0e0e0" stroke="#999999" points="922.5,-19 871.5,-19 871.5,0 922.5,0 922.5,-19"/>
<text text-anchor="middle" x="897" y="-7" font-family="Helvetica,sans-Serif" font-size="10.00">stddef.h</text>
</a>
</g>
</g>
<!-- Node11&#45;&gt;Node12 -->
<g id="edge13_Node000011_Node000012" class="edge">
<title>Node11&#45;&gt;Node12</title>
<g id="a_edge13_Node000011_Node000012"><a xlink:title=" ">
<path fill="none" stroke="#63b8ff" d="M899.6,-65.87C899.16,-56.57 898.45,-41.48 897.89,-29.4"/>
<polygon fill="#63b8ff" stroke="#63b8ff" points="901.38,-29.23 897.42,-19.41 894.39,-29.56 901.38,-29.23"/>
</a>
</g>
</g>
<!-- Node13&#45;&gt;Node5 -->
<g id="edge18_Node000013_Node000005" class="edge">
<title>Node13&#45;&gt;Node5</title>
<g id="a_edge18_Node000013_Node000005"><a xlink:title=" ">
<path fill="none" stroke="#63b8ff" d="M560.3,-131.71C556.95,-111.51 550.02,-79.71 537,-55 531.46,-44.48 523.05,-34.29 515.54,-26.31"/>
<polygon fill="#63b8ff" stroke="#63b8ff" points="518,-23.81 508.48,-19.15 513.01,-28.73 518,-23.81"/>
</a>
</g>
</g>
<!-- Node13&#45;&gt;Node14 -->
<g id="edge19_Node000013_Node000014" class="edge">
<title>Node13&#45;&gt;Node14</title>
<g id="a_edge19_Node000013_Node000014"><a xlink:title=" ">
<path fill="none" stroke="#63b8ff" d="M585.33,-131.79C597.36,-121.19 612.18,-108.1 624.4,-97.33"/>
<polygon fill="#63b8ff" stroke="#63b8ff" points="626.81,-99.87 631.99,-90.63 622.18,-94.62 626.81,-99.87"/>
</a>
</g>
</g>
<!-- Node14&#45;&gt;Node5 -->
<g id="edge20_Node000014_Node000005" class="edge">
<title>Node14&#45;&gt;Node5</title>
<g id="a_edge20_Node000014_Node000005"><a xlink:title=" ">
<path fill="none" stroke="#63b8ff" d="M615.3,-60.45C588.53,-48.96 551.11,-32.88 526.02,-22.1"/>
<polygon fill="#63b8ff" stroke="#63b8ff" points="527.3,-18.85 516.73,-18.11 524.53,-25.28 527.3,-18.85"/>
</a>
</g>
</g>
<!-- Node14&#45;&gt;Node8 -->
<g id="edge21_Node000014_Node000008" class="edge">
<title>Node14&#45;&gt;Node8</title>
<g id="a_edge21_Node000014_Node000008"><a xlink:title=" ">
<path fill="none" stroke="#63b8ff" d="M671.26,-60.45C689.11,-49.68 713.62,-34.88 731.33,-24.19"/>
<polygon fill="#63b8ff" stroke="#63b8ff" points="733.14,-27.18 739.89,-19.02 729.52,-21.19 733.14,-27.18"/>
</a>
</g>
</g>
<!-- Node15&#45;&gt;Node5 -->
<g id="edge23_Node000015_Node000005" class="edge">
<title>Node15&#45;&gt;Node5</title>
<g id="a_edge23_Node000015_Node000005"><a xlink:title=" ">
<path fill="none" stroke="#63b8ff" d="M150.18,-57.57C154.85,-56.66 159.48,-55.79 164,-55 277.46,-35.07 413.94,-19.53 471.39,-13.38"/>
<polygon fill="#63b8ff" stroke="#63b8ff" points="471.91,-16.84 481.48,-12.3 471.17,-9.88 471.91,-16.84"/>
</a>
</g>
</g>
<!-- Node16&#45;&gt;Node5 -->
<g id="edge27_Node000016_Node000005" class="edge">
<title>Node16&#45;&gt;Node5</title>
<g id="a_edge27_Node000016_Node000005"><a xlink:title=" ">
<path fill="none" stroke="#63b8ff" d="M286.16,-137.45C250.21,-126.86 207.64,-111.55 197,-96 186.71,-80.96 185.09,-68.79 197,-55 232.27,-14.15 402.56,-10.13 470.72,-10.2"/>
<polygon fill="#63b8ff" stroke="#63b8ff" points="471.09,-13.7 481.11,-10.24 471.12,-6.7 471.09,-13.7"/>
</a>
</g>
</g>
<!-- Node17 -->
<g id="Node000017" class="node">
<title>Node17</title>
<g id="a_Node000017"><a xlink:title=" ">
<polygon fill="#e0e0e0" stroke="#999999" points="324,-96 206,-96 206,-55 324,-55 324,-96"/>
<text text-anchor="start" x="214" y="-84" font-family="Helvetica,sans-Serif" font-size="10.00">../sources_common</text>
<text text-anchor="start" x="214" y="-73" font-family="Helvetica,sans-Serif" font-size="10.00">/Totempole_Application</text>
<text text-anchor="middle" x="265" y="-62" font-family="Helvetica,sans-Serif" font-size="10.00">_Setup.h</text>
</a>
</g>
</g>
<!-- Node16&#45;&gt;Node17 -->
<g id="edge26_Node000016_Node000017" class="edge">
<title>Node16&#45;&gt;Node17</title>
<g id="a_edge26_Node000016_Node000017"><a xlink:title=" ">
<path fill="none" stroke="#63b8ff" d="M325.89,-137.39C316.36,-127.86 303.46,-114.96 291.99,-103.49"/>
<polygon fill="#63b8ff" stroke="#63b8ff" points="294.25,-100.8 284.7,-96.2 289.3,-105.75 294.25,-100.8"/>
</a>
</g>
</g>
</g>
</svg>

<g id="navigator" transform="translate(0 0)" fill="#404254">
  <rect fill="#f2f5e9" fill-opacity="0.5" stroke="#606060" stroke-width=".5" x="0" y="0" width="60" height="60"/>
  <use id="zoomplus" xlink:href="#zoomPlus" x="17" y="9" onmousedown="handleZoom(evt,'in')"/>
  <use id="zoomminus" xlink:href="#zoomMin" x="42" y="9" onmousedown="handleZoom(evt,'out')"/>
  <use id="reset" xlink:href="#resetDef" x="30" y="36" onmousedown="handleReset()"/>
   <use id="arrowup" xlink:href="#arrowUp" x="0" y="0" onmousedown="handlePan(0,-1)"/>
  <use id="arrowright" xlink:href="#arrowRight" x="0" y="0" onmousedown="handlePan(1,0)"/>
  <use id="arrowdown" xlink:href="#arrowDown" x="0" y="0" onmousedown="handlePan(0,1)"/>
  <use id="arrowleft" xlink:href="#arrowLeft" x="0" y="0" onmousedown="handlePan(-1,0)"/>
</g>
<svg viewBox="0 0 15 15" width="100%" height="30px" preserveAspectRatio="xMaxYMin meet">
 <g id="arrow_out" transform="scale(0.3 0.3)">
  <a xlink:href="a00348_org.svg" target="_base">
   <rect id="button" ry="5" rx="5" y="6" x="6" height="38" width="38"
        fill="#f2f5e9" fill-opacity="0.5" stroke="#606060" stroke-width="1.0"/>
   <path id="arrow"
     d="M 11.500037,31.436501 C 11.940474,20.09759 22.043105,11.32322 32.158766,21.979434 L 37.068811,17.246167 C 37.068811,17.246167 37.088388,32 37.088388,32 L 22.160133,31.978069 C 22.160133,31.978069 26.997745,27.140456 26.997745,27.140456 C 18.528582,18.264221 13.291696,25.230495 11.500037,31.436501 z"
     style="fill:#404040;"/>
  </a>
 </g>
</svg>

<style type='text/css'>
<![CDATA[
[data-mouse-over-selected='false'] { opacity: 0.7; }
[data-mouse-over-selected='true']  { opacity: 1.0; }
]]>
</style>
<script type="application/ecmascript"><![CDATA[
document.addEventListener('DOMContentLoaded', (event) => {
  highlightEdges();
  highlightAdjacentNodes();
});
]]></script>
</svg>
