<?xml version="1.0" encoding="UTF-8" standalone="no"?>
<!DOCTYPE svg PUBLIC "-//W3C//DTD SVG 1.1//EN"
 "http://www.w3.org/Graphics/SVG/1.1/DTD/svg11.dtd">
<!-- Generated by graphviz version 8.1.0 (20230707.0739)
 -->
<!-- Title: ReceiveMSIAMessage Pages: 1 -->
<svg width="468pt" height="28pt"
 viewBox="0.00 0.00 467.75 28.00" xmlns="http://www.w3.org/2000/svg" xmlns:xlink="http://www.w3.org/1999/xlink">
<g id="graph0" class="graph" transform="scale(1 1) rotate(0) translate(4 24)">
<title>ReceiveMSIAMessage</title>
<!-- Node1 -->
<g id="Node000001" class="node">
<title>Node1</title>
<g id="a_Node000001"><a xlink:title=" ">
<polygon fill="#999999" stroke="#666666" points="113.5,-20 0,-20 0,0 113.5,0 113.5,-20"/>
<text text-anchor="middle" x="56.75" y="-6.5" font-family="Helvetica,sans-Serif" font-size="10.00">ReceiveMSIAMessage</text>
</a>
</g>
</g>
<!-- Node2 -->
<g id="Node000002" class="node">
<title>Node2</title>
<g id="a_Node000002"><a xlink:href="a00414.html#ga6441b5fad8233f83a6afe63a8861b333" target="_top" xlink:title="This routine reads data from mailbox.">
<polygon fill="white" stroke="#666666" points="286.25,-20 149.5,-20 149.5,0 286.25,0 286.25,-20"/>
<text text-anchor="middle" x="217.88" y="-6.5" font-family="Helvetica,sans-Serif" font-size="10.00">MAIN_CORE_ProtocolRead</text>
</a>
</g>
</g>
<!-- Node1&#45;&gt;Node2 -->
<g id="edge1_Node000001_Node000002" class="edge">
<title>Node1&#45;&gt;Node2</title>
<g id="a_edge1_Node000001_Node000002"><a xlink:title=" ">
<path fill="none" stroke="#63b8ff" d="M113.85,-10C121.82,-10 130.12,-10 138.42,-10"/>
<polygon fill="#63b8ff" stroke="#63b8ff" points="138.28,-13.5 148.28,-10 138.28,-6.5 138.28,-13.5"/>
</a>
</g>
</g>
<!-- Node3 -->
<g id="Node000003" class="node">
<title>Node3</title>
<g id="a_Node000003"><a xlink:href="a00414.html#ga8b485c96b189f1ace72033f47f88ddd3" target="_top" xlink:title="This inline function checks whether mailbox is full. Returns true if New data are ready to read....">
<polygon fill="white" stroke="#666666" points="459.75,-20 322.25,-20 322.25,0 459.75,0 459.75,-20"/>
<text text-anchor="middle" x="391" y="-6.5" font-family="Helvetica,sans-Serif" font-size="10.00">MAIN_CORE_ProtocolIsFull</text>
</a>
</g>
</g>
<!-- Node2&#45;&gt;Node3 -->
<g id="edge2_Node000002_Node000003" class="edge">
<title>Node2&#45;&gt;Node3</title>
<g id="a_edge2_Node000002_Node000003"><a xlink:title=" ">
<path fill="none" stroke="#63b8ff" d="M286.51,-10C294.63,-10 302.97,-10 311.23,-10"/>
<polygon fill="#63b8ff" stroke="#63b8ff" points="311.02,-13.5 321.02,-10 311.02,-6.5 311.02,-13.5"/>
</a>
</g>
</g>
</g>
</svg>
