<?xml version="1.0" encoding="UTF-8" standalone="no"?>
<!DOCTYPE svg PUBLIC "-//W3C//DTD SVG 1.1//EN"
 "http://www.w3.org/Graphics/SVG/1.1/DTD/svg11.dtd">
<!-- Generated by graphviz version 8.1.0 (20230707.0739)
 -->
<!-- Title: Handler_PHx Pages: 1 -->
<svg width="452pt" height="394pt"
 viewBox="0.00 0.00 452.00 394.00" xmlns="http://www.w3.org/2000/svg" xmlns:xlink="http://www.w3.org/1999/xlink">

<svg id="main" version="1.1" xmlns="http://www.w3.org/2000/svg" xmlns:xlink="http://www.w3.org/1999/xlink" xml:space="preserve" onload="init(evt)">
<style type="text/css"><![CDATA[
.node, .edge {opacity: 0.7;}
.node.selected, .edge.selected {opacity: 1;}
.edge:hover path { stroke: red; }
.edge:hover polygon { stroke: red; fill: red; }
]]></style>
<script type="application/ecmascript" xlink:href="svg.min.js"/>
<svg id="graph" class="graph">
<g id="graph0" class="graph" transform="scale(1 1) rotate(0) translate(4 390)">
<title>Handler_PHx</title>
<!-- Node1 -->
<g id="Node000001" class="node">
<title>Node1</title>
<g id="a_Node000001"><a xlink:title=" ">
<polygon fill="#999999" stroke="#666666" points="73,-203 0,-203 0,-183 73,-183 73,-203"/>
<text text-anchor="middle" x="36.5" y="-189.5" font-family="Helvetica,sans-Serif" font-size="10.00">Handler_PHx</text>
</a>
</g>
</g>
<!-- Node2 -->
<g id="Node000002" class="node">
<title>Node2</title>
<g id="a_Node000002"><a xlink:href="a00365.html#af6c4a58221bd490ef4d2084547601a10" target="_top" xlink:title=" ">
<polygon fill="white" stroke="#666666" points="269.38,-386 114.62,-386 114.62,-366 269.38,-366 269.38,-386"/>
<text text-anchor="middle" x="192" y="-372.5" font-family="Helvetica,sans-Serif" font-size="10.00">Adaptive_Currentcontroller_Gain</text>
</a>
</g>
</g>
<!-- Node1&#45;&gt;Node2 -->
<g id="edge1_Node000001_Node000002" class="edge">
<title>Node1&#45;&gt;Node2</title>
<g id="a_edge1_Node000001_Node000002"><a xlink:title=" ">
<path fill="none" stroke="#63b8ff" d="M38.8,-203.36C43.02,-232.45 59.09,-315.49 109,-357 110.43,-358.19 111.92,-359.31 113.46,-360.36"/>
<polygon fill="#63b8ff" stroke="#63b8ff" points="111.35,-363.75 121.77,-365.67 114.82,-357.67 111.35,-363.75"/>
</a>
</g>
</g>
<!-- Node3 -->
<g id="Node000003" class="node">
<title>Node3</title>
<g id="a_Node000003"><a xlink:href="a00365.html#a51a90512029dd0d15f013ea8548c5e7c" target="_top" xlink:title=" ">
<polygon fill="white" stroke="#666666" points="235.62,-348 148.38,-348 148.38,-328 235.62,-328 235.62,-348"/>
<text text-anchor="middle" x="192" y="-334.5" font-family="Helvetica,sans-Serif" font-size="10.00">BurstMode_PHx</text>
</a>
</g>
</g>
<!-- Node1&#45;&gt;Node3 -->
<g id="edge2_Node000001_Node000003" class="edge">
<title>Node1&#45;&gt;Node3</title>
<g id="a_edge2_Node000001_Node000003"><a xlink:title=" ">
<path fill="none" stroke="#63b8ff" d="M40.27,-203.4C47.31,-227.73 68.28,-288.61 109,-319 117.34,-325.23 127.4,-329.46 137.56,-332.33"/>
<polygon fill="#63b8ff" stroke="#63b8ff" points="136.58,-335.93 147.12,-334.84 138.2,-329.12 136.58,-335.93"/>
</a>
</g>
</g>
<!-- Node6 -->
<g id="Node000006" class="node">
<title>Node6</title>
<g id="a_Node000006"><a xlink:href="a00365.html#a69847930c99b34bceb7165143cd28b92" target="_top" xlink:title=" ">
<polygon fill="white" stroke="#666666" points="222.88,-310 161.12,-310 161.12,-290 222.88,-290 222.88,-310"/>
<text text-anchor="middle" x="192" y="-296.5" font-family="Helvetica,sans-Serif" font-size="10.00">CCM_PHx</text>
</a>
</g>
</g>
<!-- Node1&#45;&gt;Node6 -->
<g id="edge5_Node000001_Node000006" class="edge">
<title>Node1&#45;&gt;Node6</title>
<g id="a_edge5_Node000001_Node000006"><a xlink:title=" ">
<path fill="none" stroke="#63b8ff" d="M42.82,-203.29C53,-221.9 77.11,-261.09 109,-281 121.23,-288.63 136.2,-293.2 150,-295.94"/>
<polygon fill="#63b8ff" stroke="#63b8ff" points="149.29,-299.54 159.73,-297.77 150.46,-292.64 149.29,-299.54"/>
</a>
</g>
</g>
<!-- Node9 -->
<g id="Node000009" class="node">
<title>Node9</title>
<g id="a_Node000009"><a xlink:href="a00365.html#a02e735cc5f9ec0075b4b0157326fd3db" target="_top" xlink:title=" ">
<polygon fill="white" stroke="#666666" points="262.62,-96 121.38,-96 121.38,-76 262.62,-76 262.62,-96"/>
<text text-anchor="middle" x="192" y="-82.5" font-family="Helvetica,sans-Serif" font-size="10.00">DutyCycleFeedForward_PHx</text>
</a>
</g>
</g>
<!-- Node1&#45;&gt;Node9 -->
<g id="edge10_Node000001_Node000009" class="edge">
<title>Node1&#45;&gt;Node9</title>
<g id="a_edge10_Node000001_Node000009"><a xlink:title=" ">
<path fill="none" stroke="#63b8ff" d="M43.59,-182.64C54.47,-165.05 78.94,-129.36 109,-110 115.03,-106.11 121.71,-102.84 128.58,-100.09"/>
<polygon fill="#63b8ff" stroke="#63b8ff" points="129.52,-103.11 137.73,-96.41 127.13,-96.53 129.52,-103.11"/>
</a>
</g>
</g>
<!-- Node10 -->
<g id="Node000010" class="node">
<title>Node10</title>
<g id="a_Node000010"><a xlink:href="a00401.html#ga37968a783e44cd80643478d2b559dbf4" target="_top" xlink:title="This inline function sets the PWM generator specific duty cycle register.">
<polygon fill="white" stroke="#666666" points="430.5,-158 324.5,-158 324.5,-138 430.5,-138 430.5,-158"/>
<text text-anchor="middle" x="377.5" y="-144.5" font-family="Helvetica,sans-Serif" font-size="10.00">PWM_DutyCycleSet</text>
</a>
</g>
</g>
<!-- Node1&#45;&gt;Node10 -->
<g id="edge11_Node000001_Node000010" class="edge">
<title>Node1&#45;&gt;Node10</title>
<g id="a_edge11_Node000001_Node000010"><a xlink:title=" ">
<path fill="none" stroke="#63b8ff" d="M47.52,-182.91C60.42,-170.71 84.15,-150.83 109,-143 176.81,-121.64 259.14,-127.61 314.41,-135.86"/>
<polygon fill="#63b8ff" stroke="#63b8ff" points="313.66,-139.45 324.08,-137.54 314.75,-132.53 313.66,-139.45"/>
</a>
</g>
</g>
<!-- Node11 -->
<g id="Node000011" class="node">
<title>Node11</title>
<g id="a_Node000011"><a xlink:href="a00374.html#ac4c8852561395f2969c08ff062325e03" target="_top" xlink:title=" ">
<polygon fill="white" stroke="#666666" points="264.12,-58 119.88,-58 119.88,-38 264.12,-38 264.12,-58"/>
<text text-anchor="middle" x="192" y="-44.5" font-family="Helvetica,sans-Serif" font-size="10.00">SMPS_Controller2P2ZUpdate</text>
</a>
</g>
</g>
<!-- Node1&#45;&gt;Node11 -->
<g id="edge12_Node000001_Node000011" class="edge">
<title>Node1&#45;&gt;Node11</title>
<g id="a_edge12_Node000001_Node000011"><a xlink:title=" ">
<path fill="none" stroke="#63b8ff" d="M40.27,-182.6C47.31,-158.27 68.28,-97.39 109,-67 110.71,-65.72 112.5,-64.53 114.34,-63.41"/>
<polygon fill="#63b8ff" stroke="#63b8ff" points="115.68,-66.15 122.97,-58.46 112.48,-59.92 115.68,-66.15"/>
</a>
</g>
</g>
<!-- Node12 -->
<g id="Node000012" class="node">
<title>Node12</title>
<g id="a_Node000012"><a xlink:href="a00365.html#ad3476b7cd98e6a22a65e1d89b7a59ea5" target="_top" xlink:title=" ">
<polygon fill="white" stroke="#666666" points="246.5,-234 137.5,-234 137.5,-202 246.5,-202 246.5,-234"/>
<text text-anchor="start" x="145.5" y="-220.5" font-family="Helvetica,sans-Serif" font-size="10.00">SoftstartAfterZC_PHx</text>
<text text-anchor="middle" x="192" y="-208.5" font-family="Helvetica,sans-Serif" font-size="10.00">_GTIMode</text>
</a>
</g>
</g>
<!-- Node1&#45;&gt;Node12 -->
<g id="edge13_Node000001_Node000012" class="edge">
<title>Node1&#45;&gt;Node12</title>
<g id="a_edge13_Node000001_Node000012"><a xlink:title=" ">
<path fill="none" stroke="#63b8ff" d="M73.49,-198.86C89.27,-201.43 108.28,-204.53 126.38,-207.47"/>
<polygon fill="#63b8ff" stroke="#63b8ff" points="125.75,-211.08 136.19,-209.24 126.88,-204.17 125.75,-211.08"/>
</a>
</g>
</g>
<!-- Node13 -->
<g id="Node000013" class="node">
<title>Node13</title>
<g id="a_Node000013"><a xlink:href="a00365.html#a3e7091905b384bca668f6f12a50834f4" target="_top" xlink:title=" ">
<polygon fill="white" stroke="#666666" points="246.5,-184 137.5,-184 137.5,-152 246.5,-152 246.5,-184"/>
<text text-anchor="start" x="145.5" y="-170.5" font-family="Helvetica,sans-Serif" font-size="10.00">SoftstartAfterZC_PHx</text>
<text text-anchor="middle" x="192" y="-158.5" font-family="Helvetica,sans-Serif" font-size="10.00">_PFCMode</text>
</a>
</g>
</g>
<!-- Node1&#45;&gt;Node13 -->
<g id="edge19_Node000001_Node000013" class="edge">
<title>Node1&#45;&gt;Node13</title>
<g id="a_edge19_Node000001_Node000013"><a xlink:title=" ">
<path fill="none" stroke="#63b8ff" d="M73.49,-187.14C89.27,-184.57 108.28,-181.47 126.38,-178.53"/>
<polygon fill="#63b8ff" stroke="#63b8ff" points="126.88,-181.83 136.19,-176.76 125.75,-174.92 126.88,-181.83"/>
</a>
</g>
</g>
<!-- Node14 -->
<g id="Node000014" class="node">
<title>Node14</title>
<g id="a_Node000014"><a xlink:href="a00374.html#a4fd6e889896907ceaae34b73435d5627" target="_top" xlink:title=" ">
<polygon fill="white" stroke="#666666" points="275,-20 109,-20 109,0 275,0 275,-20"/>
<text text-anchor="middle" x="192" y="-6.5" font-family="Helvetica,sans-Serif" font-size="10.00">XFT_SMPS_Controller2P2ZUpdate</text>
</a>
</g>
</g>
<!-- Node1&#45;&gt;Node14 -->
<g id="edge25_Node000001_Node000014" class="edge">
<title>Node1&#45;&gt;Node14</title>
<g id="a_edge25_Node000001_Node000014"><a xlink:title=" ">
<path fill="none" stroke="#63b8ff" d="M38.8,-182.64C43.02,-153.55 59.09,-70.51 109,-29 110.43,-27.81 111.92,-26.69 113.46,-25.64"/>
<polygon fill="#63b8ff" stroke="#63b8ff" points="114.82,-28.33 121.77,-20.33 111.35,-22.25 114.82,-28.33"/>
</a>
</g>
</g>
<!-- Node15 -->
<g id="Node000015" class="node">
<title>Node15</title>
<g id="a_Node000015"><a xlink:href="a00365.html#a9d01eea56aae5f1437eb541a321277cc" target="_top" xlink:title=" ">
<polygon fill="white" stroke="#666666" points="234.12,-272 149.88,-272 149.88,-252 234.12,-252 234.12,-272"/>
<text text-anchor="middle" x="192" y="-258.5" font-family="Helvetica,sans-Serif" font-size="10.00">ZeroCross_PHx</text>
</a>
</g>
</g>
<!-- Node1&#45;&gt;Node15 -->
<g id="edge26_Node000001_Node000015" class="edge">
<title>Node1&#45;&gt;Node15</title>
<g id="a_edge26_Node000001_Node000015"><a xlink:title=" ">
<path fill="none" stroke="#63b8ff" d="M49.28,-203.4C62.79,-214.78 86.03,-232.77 109,-243 118.41,-247.19 128.86,-250.52 139.06,-253.13"/>
<polygon fill="#63b8ff" stroke="#63b8ff" points="138.01,-256.72 148.54,-255.61 139.62,-249.9 138.01,-256.72"/>
</a>
</g>
</g>
<!-- Node4 -->
<g id="Node000004" class="node">
<title>Node4</title>
<g id="a_Node000004"><a xlink:href="a00401.html#ga531b59d8823e3ebda2da60f48582bcf3" target="_top" xlink:title="This inline function enables PWM override on PWMH output for specific PWM generator selected by the a...">
<polygon fill="white" stroke="#666666" points="442.88,-272 312.12,-272 312.12,-252 442.88,-252 442.88,-272"/>
<text text-anchor="middle" x="377.5" y="-258.5" font-family="Helvetica,sans-Serif" font-size="10.00">PWM_OverrideHighEnable</text>
</a>
</g>
</g>
<!-- Node3&#45;&gt;Node4 -->
<g id="edge3_Node000003_Node000004" class="edge">
<title>Node3&#45;&gt;Node4</title>
<g id="a_edge3_Node000003_Node000004"><a xlink:title=" ">
<path fill="none" stroke="#63b8ff" d="M236.05,-332.91C249.16,-330.11 263.21,-325.75 275,-319 295.19,-307.44 291.13,-293.11 311,-281 313.61,-279.41 316.35,-277.95 319.18,-276.61"/>
<polygon fill="#63b8ff" stroke="#63b8ff" points="320.18,-279.57 328.05,-272.48 317.48,-273.11 320.18,-279.57"/>
</a>
</g>
</g>
<!-- Node5 -->
<g id="Node000005" class="node">
<title>Node5</title>
<g id="a_Node000005"><a xlink:href="a00401.html#ga2548ca8feda75ba6ab784280679da6ae" target="_top" xlink:title="This inline function enables PWM override on PWML output for specific PWM generator selected by the a...">
<polygon fill="white" stroke="#666666" points="441.75,-310 313.25,-310 313.25,-290 441.75,-290 441.75,-310"/>
<text text-anchor="middle" x="377.5" y="-296.5" font-family="Helvetica,sans-Serif" font-size="10.00">PWM_OverrideLowEnable</text>
</a>
</g>
</g>
<!-- Node3&#45;&gt;Node5 -->
<g id="edge4_Node000003_Node000005" class="edge">
<title>Node3&#45;&gt;Node5</title>
<g id="a_edge4_Node000003_Node000005"><a xlink:title=" ">
<path fill="none" stroke="#63b8ff" d="M236.02,-329.09C259.67,-324.19 289.4,-318.04 315.42,-312.65"/>
<polygon fill="#63b8ff" stroke="#63b8ff" points="315.85,-315.93 324.93,-310.47 314.43,-309.07 315.85,-315.93"/>
</a>
</g>
</g>
<!-- Node6&#45;&gt;Node4 -->
<g id="edge7_Node000006_Node000004" class="edge">
<title>Node6&#45;&gt;Node4</title>
<g id="a_edge7_Node000006_Node000004"><a xlink:title=" ">
<path fill="none" stroke="#63b8ff" d="M223.3,-293.73C248.25,-288.56 284.42,-281.07 315.35,-274.66"/>
<polygon fill="#63b8ff" stroke="#63b8ff" points="315.96,-277.9 325.05,-272.45 314.54,-271.05 315.96,-277.9"/>
</a>
</g>
</g>
<!-- Node6&#45;&gt;Node5 -->
<g id="edge9_Node000006_Node000005" class="edge">
<title>Node6&#45;&gt;Node5</title>
<g id="a_edge9_Node000006_Node000005"><a xlink:title=" ">
<path fill="none" stroke="#63b8ff" d="M223.3,-300C244.78,-300 274.57,-300 302.18,-300"/>
<polygon fill="#63b8ff" stroke="#63b8ff" points="302.03,-303.5 312.03,-300 302.03,-296.5 302.03,-303.5"/>
</a>
</g>
</g>
<!-- Node7 -->
<g id="Node000007" class="node">
<title>Node7</title>
<g id="a_Node000007"><a xlink:href="a00401.html#ga957b002605bfb2239a26f174808b2ad8" target="_top" xlink:title="This inline function disables PWM override on PWMH output for specific PWM generator selected by the ...">
<polygon fill="white" stroke="#666666" points="444,-196 311,-196 311,-176 444,-176 444,-196"/>
<text text-anchor="middle" x="377.5" y="-182.5" font-family="Helvetica,sans-Serif" font-size="10.00">PWM_OverrideHighDisable</text>
</a>
</g>
</g>
<!-- Node6&#45;&gt;Node7 -->
<g id="edge6_Node000006_Node000007" class="edge">
<title>Node6&#45;&gt;Node7</title>
<g id="a_edge6_Node000006_Node000007"><a xlink:title=" ">
<path fill="none" stroke="#63b8ff" d="M223.07,-299.3C239.93,-297.48 260.43,-292.73 275,-281 304.11,-257.56 282.54,-229.23 311,-205 312.39,-203.81 313.86,-202.7 315.38,-201.66"/>
<polygon fill="#63b8ff" stroke="#63b8ff" points="316.66,-204.39 323.63,-196.41 313.2,-198.3 316.66,-204.39"/>
</a>
</g>
</g>
<!-- Node8 -->
<g id="Node000008" class="node">
<title>Node8</title>
<g id="a_Node000008"><a xlink:href="a00401.html#gabbedef830c43428e96c7d5125662a8a6" target="_top" xlink:title="This inline function disables PWM override on PWML output for specific PWM generator selected by the ...">
<polygon fill="white" stroke="#666666" points="442.88,-234 312.12,-234 312.12,-214 442.88,-214 442.88,-234"/>
<text text-anchor="middle" x="377.5" y="-220.5" font-family="Helvetica,sans-Serif" font-size="10.00">PWM_OverrideLowDisable</text>
</a>
</g>
</g>
<!-- Node6&#45;&gt;Node8 -->
<g id="edge8_Node000006_Node000008" class="edge">
<title>Node6&#45;&gt;Node8</title>
<g id="a_edge8_Node000006_Node000008"><a xlink:title=" ">
<path fill="none" stroke="#63b8ff" d="M222.99,-297.3C239.23,-294.82 259.15,-290.08 275,-281 295.19,-269.44 291.13,-255.11 311,-243 313.61,-241.41 316.35,-239.95 319.18,-238.61"/>
<polygon fill="#63b8ff" stroke="#63b8ff" points="320.18,-241.57 328.05,-234.48 317.48,-235.11 320.18,-241.57"/>
</a>
</g>
</g>
<!-- Node12&#45;&gt;Node4 -->
<g id="edge16_Node000012_Node000004" class="edge">
<title>Node12&#45;&gt;Node4</title>
<g id="a_edge16_Node000012_Node000004"><a xlink:title=" ">
<path fill="none" stroke="#63b8ff" d="M246.57,-230.84C270.33,-236.54 298.25,-243.24 322.1,-248.96"/>
<polygon fill="#63b8ff" stroke="#63b8ff" points="321.21,-252.58 331.75,-251.51 322.84,-245.77 321.21,-252.58"/>
</a>
</g>
</g>
<!-- Node12&#45;&gt;Node5 -->
<g id="edge18_Node000012_Node000005" class="edge">
<title>Node12&#45;&gt;Node5</title>
<g id="a_edge18_Node000012_Node000005"><a xlink:title=" ">
<path fill="none" stroke="#63b8ff" d="M246.79,-230.03C256.57,-233.41 266.39,-237.67 275,-243 294.78,-255.24 291.13,-268.89 311,-281 313.61,-282.59 316.35,-284.05 319.18,-285.39"/>
<polygon fill="#63b8ff" stroke="#63b8ff" points="317.48,-288.89 328.05,-289.52 320.18,-282.43 317.48,-288.89"/>
</a>
</g>
</g>
<!-- Node12&#45;&gt;Node7 -->
<g id="edge15_Node000012_Node000007" class="edge">
<title>Node12&#45;&gt;Node7</title>
<g id="a_edge15_Node000012_Node000007"><a xlink:title=" ">
<path fill="none" stroke="#63b8ff" d="M246.57,-208.66C265.05,-205.44 286.04,-201.78 305.68,-198.35"/>
<polygon fill="#63b8ff" stroke="#63b8ff" points="306.17,-201.64 315.42,-196.48 304.97,-194.75 306.17,-201.64"/>
</a>
</g>
</g>
<!-- Node12&#45;&gt;Node8 -->
<g id="edge17_Node000012_Node000008" class="edge">
<title>Node12&#45;&gt;Node8</title>
<g id="a_edge17_Node000012_Node000008"><a xlink:title=" ">
<path fill="none" stroke="#63b8ff" d="M246.57,-219.75C263.56,-220.31 282.67,-220.93 300.9,-221.53"/>
<polygon fill="#63b8ff" stroke="#63b8ff" points="300.7,-225.06 310.81,-221.88 300.93,-218.06 300.7,-225.06"/>
</a>
</g>
</g>
<!-- Node12&#45;&gt;Node10 -->
<g id="edge14_Node000012_Node000010" class="edge">
<title>Node12&#45;&gt;Node10</title>
<g id="a_edge14_Node000012_Node000010"><a xlink:title=" ">
<path fill="none" stroke="#63b8ff" d="M246.92,-204.34C256.49,-201.14 266.2,-197.37 275,-193 292.68,-184.23 293.26,-175.65 311,-167 314.72,-165.18 318.65,-163.51 322.67,-161.97"/>
<polygon fill="#63b8ff" stroke="#63b8ff" points="323.46,-165.05 331.73,-158.42 321.13,-158.45 323.46,-165.05"/>
</a>
</g>
</g>
<!-- Node13&#45;&gt;Node4 -->
<g id="edge22_Node000013_Node000004" class="edge">
<title>Node13&#45;&gt;Node4</title>
<g id="a_edge22_Node000013_Node000004"><a xlink:title=" ">
<path fill="none" stroke="#63b8ff" d="M246.97,-178.96C256.84,-182.45 266.65,-187.02 275,-193 297.26,-208.94 288.63,-227.21 311,-243 312.97,-244.39 315.03,-245.67 317.17,-246.87"/>
<polygon fill="#63b8ff" stroke="#63b8ff" points="315.38,-250.37 325.92,-251.52 318.4,-244.05 315.38,-250.37"/>
</a>
</g>
</g>
<!-- Node13&#45;&gt;Node5 -->
<g id="edge24_Node000013_Node000005" class="edge">
<title>Node13&#45;&gt;Node5</title>
<g id="a_edge24_Node000013_Node000005"><a xlink:title=" ">
<path fill="none" stroke="#63b8ff" d="M246.92,-176.99C257.13,-180.64 267.08,-185.78 275,-193 306.23,-221.47 279.58,-252.74 311,-281 312.21,-282.09 313.48,-283.12 314.8,-284.08"/>
<polygon fill="#63b8ff" stroke="#63b8ff" points="312.73,-287.52 323.11,-289.66 316.33,-281.52 312.73,-287.52"/>
</a>
</g>
</g>
<!-- Node13&#45;&gt;Node7 -->
<g id="edge21_Node000013_Node000007" class="edge">
<title>Node13&#45;&gt;Node7</title>
<g id="a_edge21_Node000013_Node000007"><a xlink:title=" ">
<path fill="none" stroke="#63b8ff" d="M246.57,-173.25C263.29,-174.9 282.08,-176.74 300.05,-178.5"/>
<polygon fill="#63b8ff" stroke="#63b8ff" points="299.52,-182.06 309.82,-179.56 300.21,-175.1 299.52,-182.06"/>
</a>
</g>
</g>
<!-- Node13&#45;&gt;Node8 -->
<g id="edge23_Node000013_Node000008" class="edge">
<title>Node13&#45;&gt;Node8</title>
<g id="a_edge23_Node000013_Node000008"><a xlink:title=" ">
<path fill="none" stroke="#63b8ff" d="M246.87,-184.21C256.26,-187.09 265.93,-190.1 275,-193 291.07,-198.13 294.9,-199.98 311,-205 316.87,-206.83 323.04,-208.7 329.17,-210.51"/>
<polygon fill="#63b8ff" stroke="#63b8ff" points="327.78,-214.04 338.36,-213.5 329.75,-207.33 327.78,-214.04"/>
</a>
</g>
</g>
<!-- Node13&#45;&gt;Node10 -->
<g id="edge20_Node000013_Node000010" class="edge">
<title>Node13&#45;&gt;Node10</title>
<g id="a_edge20_Node000013_Node000010"><a xlink:title=" ">
<path fill="none" stroke="#63b8ff" d="M246.57,-162.16C267.47,-159.88 291.6,-157.25 313.34,-154.88"/>
<polygon fill="#63b8ff" stroke="#63b8ff" points="313.57,-158.27 323.13,-153.71 312.81,-151.31 313.57,-158.27"/>
</a>
</g>
</g>
<!-- Node15&#45;&gt;Node4 -->
<g id="edge28_Node000015_Node000004" class="edge">
<title>Node15&#45;&gt;Node4</title>
<g id="a_edge28_Node000015_Node000004"><a xlink:title=" ">
<path fill="none" stroke="#63b8ff" d="M234.18,-262C253.88,-262 278.11,-262 300.96,-262"/>
<polygon fill="#63b8ff" stroke="#63b8ff" points="300.68,-265.5 310.68,-262 300.68,-258.5 300.68,-265.5"/>
</a>
</g>
</g>
<!-- Node15&#45;&gt;Node5 -->
<g id="edge29_Node000015_Node000005" class="edge">
<title>Node15&#45;&gt;Node5</title>
<g id="a_edge29_Node000015_Node000005"><a xlink:title=" ">
<path fill="none" stroke="#63b8ff" d="M234.18,-270.53C258.05,-275.47 288.56,-281.79 315.2,-287.31"/>
<polygon fill="#63b8ff" stroke="#63b8ff" points="314.46,-290.93 324.97,-289.54 315.88,-284.08 314.46,-290.93"/>
</a>
</g>
</g>
<!-- Node15&#45;&gt;Node10 -->
<g id="edge27_Node000015_Node000010" class="edge">
<title>Node15&#45;&gt;Node10</title>
<g id="a_edge27_Node000015_Node000010"><a xlink:title=" ">
<path fill="none" stroke="#63b8ff" d="M234.56,-259.64C248.62,-257.07 263.62,-252.17 275,-243 304.11,-219.56 282.54,-191.23 311,-167 312.39,-165.81 313.86,-164.7 315.38,-163.66"/>
<polygon fill="#63b8ff" stroke="#63b8ff" points="316.66,-166.39 323.63,-158.41 313.2,-160.3 316.66,-166.39"/>
</a>
</g>
</g>
</g>
</svg>
</svg>

<style type='text/css'>
<![CDATA[
[data-mouse-over-selected='false'] { opacity: 0.7; }
[data-mouse-over-selected='true']  { opacity: 1.0; }
]]>
</style>
<script type="application/ecmascript"><![CDATA[
document.addEventListener('DOMContentLoaded', (event) => {
  highlightEdges();
  highlightAdjacentNodes();
});
]]></script>
</svg>
