<?xml version="1.0" encoding="UTF-8" standalone="no"?>
<!DOCTYPE svg PUBLIC "-//W3C//DTD SVG 1.1//EN"
 "http://www.w3.org/Graphics/SVG/1.1/DTD/svg11.dtd">
<!-- Generated by graphviz version 8.1.0 (20230707.0739)
 -->
<!-- Title: D:/Firmware/MCU16ASMPS_TestEnvironment/_deployment/dspic33ch&#45;power&#45;totem&#45;pole&#45;demonstration&#45;application&#45;single&#45;phase/dspic33ch_totem_pole_single_phase_secondary_IL.X/mcc_generated_files/main_core/src/main_core.c Pages: 1 -->
<svg width="373pt" height="268pt"
 viewBox="0.00 0.00 372.62 268.00" xmlns="http://www.w3.org/2000/svg" xmlns:xlink="http://www.w3.org/1999/xlink">

<svg id="main" version="1.1" xmlns="http://www.w3.org/2000/svg" xmlns:xlink="http://www.w3.org/1999/xlink" xml:space="preserve" onload="init(evt)">
<style type="text/css"><![CDATA[
.node, .edge {opacity: 0.7;}
.node.selected, .edge.selected {opacity: 1;}
.edge:hover path { stroke: red; }
.edge:hover polygon { stroke: red; fill: red; }
]]></style>
<script type="application/ecmascript" xlink:href="svg.min.js"/>
<svg id="graph" class="graph">
<g id="graph0" class="graph" transform="scale(1 1) rotate(0) translate(4 264)">
<title>D:/Firmware/MCU16ASMPS_TestEnvironment/_deployment/dspic33ch&#45;power&#45;totem&#45;pole&#45;demonstration&#45;application&#45;single&#45;phase/dspic33ch_totem_pole_single_phase_secondary_IL.X/mcc_generated_files/main_core/src/main_core.c</title>
<!-- Node1 -->
<g id="Node000001" class="node">
<title>Node1</title>
<g id="a_Node000001"><a xlink:title="This is the generated driver source file for MAIN_CORE driver.">
<polygon fill="#999999" stroke="#666666" points="188.5,-260 0,-260 0,-168 188.5,-168 188.5,-260"/>
<text text-anchor="start" x="8" y="-246.5" font-family="Helvetica,sans-Serif" font-size="10.00">D:/Firmware/MCU16ASMPS</text>
<text text-anchor="start" x="8" y="-234.5" font-family="Helvetica,sans-Serif" font-size="10.00">_TestEnvironment/_deployment</text>
<text text-anchor="start" x="8" y="-222.5" font-family="Helvetica,sans-Serif" font-size="10.00">/dspic33ch&#45;power&#45;totem&#45;pole</text>
<text text-anchor="start" x="8" y="-210.5" font-family="Helvetica,sans-Serif" font-size="10.00">&#45;demonstration&#45;application&#45;single</text>
<text text-anchor="start" x="8" y="-198.5" font-family="Helvetica,sans-Serif" font-size="10.00">&#45;phase/dspic33ch_totem_pole_single</text>
<text text-anchor="start" x="8" y="-186.5" font-family="Helvetica,sans-Serif" font-size="10.00">_phase_secondary_IL.X/mcc_generated</text>
<text text-anchor="middle" x="94.25" y="-174.5" font-family="Helvetica,sans-Serif" font-size="10.00">_files/main_core/src/main_core.c</text>
</a>
</g>
</g>
<!-- Node2 -->
<g id="Node000002" class="node">
<title>Node2</title>
<g id="a_Node000002"><a xlink:title=" ">
<polygon fill="#e0e0e0" stroke="#999999" points="51.5,-20 1,-20 1,0 51.5,0 51.5,-20"/>
<text text-anchor="middle" x="26.25" y="-6.5" font-family="Helvetica,sans-Serif" font-size="10.00">stddef.h</text>
</a>
</g>
</g>
<!-- Node1&#45;&gt;Node2 -->
<g id="edge1_Node000001_Node000002" class="edge">
<title>Node1&#45;&gt;Node2</title>
<g id="a_edge1_Node000001_Node000002"><a xlink:title=" ">
<path fill="none" stroke="#63b8ff" d="M71.15,-167.82C65.8,-156.32 60.46,-143.86 56.25,-132 43.93,-97.27 34.73,-55.23 29.95,-30.95"/>
<polygon fill="#63b8ff" stroke="#63b8ff" points="33.23,-30.45 27.91,-21.29 26.35,-31.77 33.23,-30.45"/>
</a>
</g>
</g>
<!-- Node3 -->
<g id="Node000003" class="node">
<title>Node3</title>
<g id="a_Node000003"><a xlink:href="a00296.html" target="_top" xlink:title="This is the generated driver types header file for the MAIN_CORE driver.">
<polygon fill="white" stroke="#666666" points="190,-20 82.5,-20 82.5,0 190,0 190,-20"/>
<text text-anchor="middle" x="136.25" y="-6.5" font-family="Helvetica,sans-Serif" font-size="10.00">../main_core_types.h</text>
</a>
</g>
</g>
<!-- Node1&#45;&gt;Node3 -->
<g id="edge2_Node000001_Node000003" class="edge">
<title>Node1&#45;&gt;Node3</title>
<g id="a_edge2_Node000001_Node000003"><a xlink:title=" ">
<path fill="none" stroke="#63b8ff" d="M72.7,-167.56C60.46,-134.8 50.88,-90.46 69.25,-56 76.34,-42.7 89.3,-32.63 101.95,-25.42"/>
<polygon fill="#63b8ff" stroke="#63b8ff" points="103.21,-28.19 110.46,-20.47 99.97,-21.99 103.21,-28.19"/>
</a>
</g>
</g>
<!-- Node4 -->
<g id="Node000004" class="node">
<title>Node4</title>
<g id="a_Node000004"><a xlink:href="a00293_source.html" target="_top" xlink:title=" ">
<polygon fill="white" stroke="#666666" points="198.38,-76 78.12,-76 78.12,-56 198.38,-56 198.38,-76"/>
<text text-anchor="middle" x="138.25" y="-62.5" font-family="Helvetica,sans-Serif" font-size="10.00">../main_core_interface.h</text>
</a>
</g>
</g>
<!-- Node1&#45;&gt;Node4 -->
<g id="edge3_Node000001_Node000004" class="edge">
<title>Node1&#45;&gt;Node4</title>
<g id="a_edge3_Node000001_Node000004"><a xlink:title=" ">
<path fill="none" stroke="#63b8ff" d="M107.93,-167.61C116.11,-140.47 126.09,-107.36 132.3,-86.73"/>
<polygon fill="#63b8ff" stroke="#63b8ff" points="135.88,-87.99 135.41,-77.41 129.18,-85.97 135.88,-87.99"/>
</a>
</g>
</g>
<!-- Node7 -->
<g id="Node000007" class="node">
<title>Node7</title>
<g id="a_Node000007"><a xlink:href="a00290.html" target="_top" xlink:title="This is the generated driver header file for the MAIN_CORE driver.">
<polygon fill="white" stroke="#666666" points="284.38,-132 206.12,-132 206.12,-112 284.38,-112 284.38,-132"/>
<text text-anchor="middle" x="245.25" y="-118.5" font-family="Helvetica,sans-Serif" font-size="10.00">../main_core.h</text>
</a>
</g>
</g>
<!-- Node1&#45;&gt;Node7 -->
<g id="edge8_Node000001_Node000007" class="edge">
<title>Node1&#45;&gt;Node7</title>
<g id="a_edge8_Node000001_Node000007"><a xlink:title=" ">
<path fill="none" stroke="#63b8ff" d="M170.19,-167.74C188.28,-156.96 206.33,-146.2 220.19,-137.94"/>
<polygon fill="#63b8ff" stroke="#63b8ff" points="221.69,-140.52 228.49,-132.39 218.11,-134.51 221.69,-140.52"/>
</a>
</g>
</g>
<!-- Node4&#45;&gt;Node2 -->
<g id="edge4_Node000004_Node000002" class="edge">
<title>Node4&#45;&gt;Node2</title>
<g id="a_edge4_Node000004_Node000002"><a xlink:title=" ">
<path fill="none" stroke="#63b8ff" d="M118.74,-55.59C101.34,-47.21 75.62,-34.8 55.71,-25.21"/>
<polygon fill="#63b8ff" stroke="#63b8ff" points="57.44,-21.67 46.91,-20.48 54.4,-27.98 57.44,-21.67"/>
</a>
</g>
</g>
<!-- Node4&#45;&gt;Node3 -->
<g id="edge7_Node000004_Node000003" class="edge">
<title>Node4&#45;&gt;Node3</title>
<g id="a_edge7_Node000004_Node000003"><a xlink:title=" ">
<path fill="none" stroke="#63b8ff" d="M137.9,-55.59C137.65,-48.86 137.31,-39.53 137,-31.15"/>
<polygon fill="#63b8ff" stroke="#63b8ff" points="140.46,-31.16 136.59,-21.3 133.47,-31.42 140.46,-31.16"/>
</a>
</g>
</g>
<!-- Node5 -->
<g id="Node000005" class="node">
<title>Node5</title>
<g id="a_Node000005"><a xlink:title=" ">
<polygon fill="#e0e0e0" stroke="#999999" points="256.38,-20 208.12,-20 208.12,0 256.38,0 256.38,-20"/>
<text text-anchor="middle" x="232.25" y="-6.5" font-family="Helvetica,sans-Serif" font-size="10.00">stdint.h</text>
</a>
</g>
</g>
<!-- Node4&#45;&gt;Node5 -->
<g id="edge5_Node000004_Node000005" class="edge">
<title>Node4&#45;&gt;Node5</title>
<g id="a_edge5_Node000004_Node000005"><a xlink:title=" ">
<path fill="none" stroke="#63b8ff" d="M154.62,-55.59C168.96,-47.36 190.02,-35.26 206.6,-25.74"/>
<polygon fill="#63b8ff" stroke="#63b8ff" points="207.82,-28.5 214.75,-20.48 204.33,-22.43 207.82,-28.5"/>
</a>
</g>
</g>
<!-- Node6 -->
<g id="Node000006" class="node">
<title>Node6</title>
<g id="a_Node000006"><a xlink:title=" ">
<polygon fill="#e0e0e0" stroke="#999999" points="330.12,-20 274.38,-20 274.38,0 330.12,0 330.12,-20"/>
<text text-anchor="middle" x="302.25" y="-6.5" font-family="Helvetica,sans-Serif" font-size="10.00">stdbool.h</text>
</a>
</g>
</g>
<!-- Node4&#45;&gt;Node6 -->
<g id="edge6_Node000004_Node000006" class="edge">
<title>Node4&#45;&gt;Node6</title>
<g id="a_edge6_Node000004_Node000006"><a xlink:title=" ">
<path fill="none" stroke="#63b8ff" d="M166.82,-55.59C193.63,-46.77 233.93,-33.5 263.6,-23.72"/>
<polygon fill="#63b8ff" stroke="#63b8ff" points="264.61,-26.75 273.01,-20.3 262.42,-20.1 264.61,-26.75"/>
</a>
</g>
</g>
<!-- Node7&#45;&gt;Node3 -->
<g id="edge12_Node000007_Node000003" class="edge">
<title>Node7&#45;&gt;Node3</title>
<g id="a_edge12_Node000007_Node000003"><a xlink:title=" ">
<path fill="none" stroke="#63b8ff" d="M241.51,-111.69C235.74,-98.19 223.59,-72.93 207.25,-56 195.43,-43.75 179.63,-33.31 165.94,-25.59"/>
<polygon fill="#63b8ff" stroke="#63b8ff" points="167.9,-22.13 157.43,-20.45 164.57,-28.29 167.9,-22.13"/>
</a>
</g>
</g>
<!-- Node7&#45;&gt;Node4 -->
<g id="edge13_Node000007_Node000004" class="edge">
<title>Node7&#45;&gt;Node4</title>
<g id="a_edge13_Node000007_Node000004"><a xlink:title=" ">
<path fill="none" stroke="#63b8ff" d="M226.61,-111.59C210.07,-103.24 185.64,-90.92 166.66,-81.34"/>
<polygon fill="#63b8ff" stroke="#63b8ff" points="168.54,-77.86 158.03,-76.48 165.38,-84.11 168.54,-77.86"/>
</a>
</g>
</g>
<!-- Node7&#45;&gt;Node5 -->
<g id="edge10_Node000007_Node000005" class="edge">
<title>Node7&#45;&gt;Node5</title>
<g id="a_edge10_Node000007_Node000005"><a xlink:title=" ">
<path fill="none" stroke="#63b8ff" d="M244.83,-111.71C244.18,-99.07 242.76,-75.76 240.25,-56 239.2,-47.74 237.67,-38.69 236.22,-30.89"/>
<polygon fill="#63b8ff" stroke="#63b8ff" points="239.51,-30.42 234.17,-21.27 232.63,-31.75 239.51,-30.42"/>
</a>
</g>
</g>
<!-- Node7&#45;&gt;Node6 -->
<g id="edge11_Node000007_Node000006" class="edge">
<title>Node7&#45;&gt;Node6</title>
<g id="a_edge11_Node000007_Node000006"><a xlink:title=" ">
<path fill="none" stroke="#63b8ff" d="M250.11,-111.62C259.45,-93.6 280.07,-53.81 292.39,-30.02"/>
<polygon fill="#63b8ff" stroke="#63b8ff" points="295.91,-31.84 297.4,-21.35 289.69,-28.62 295.91,-31.84"/>
</a>
</g>
</g>
<!-- Node8 -->
<g id="Node000008" class="node">
<title>Node8</title>
<g id="a_Node000008"><a xlink:title=" ">
<polygon fill="#e0e0e0" stroke="#999999" points="364.62,-76 329.88,-76 329.88,-56 364.62,-56 364.62,-76"/>
<text text-anchor="middle" x="347.25" y="-62.5" font-family="Helvetica,sans-Serif" font-size="10.00">xc.h</text>
</a>
</g>
</g>
<!-- Node7&#45;&gt;Node8 -->
<g id="edge9_Node000007_Node000008" class="edge">
<title>Node7&#45;&gt;Node8</title>
<g id="a_edge9_Node000007_Node000008"><a xlink:title=" ">
<path fill="none" stroke="#63b8ff" d="M263.02,-111.59C278.74,-103.27 301.93,-90.99 320,-81.43"/>
<polygon fill="#63b8ff" stroke="#63b8ff" points="321.49,-84.07 328.69,-76.3 318.21,-77.88 321.49,-84.07"/>
</a>
</g>
</g>
</g>
</svg>
</svg>

<style type='text/css'>
<![CDATA[
[data-mouse-over-selected='false'] { opacity: 0.7; }
[data-mouse-over-selected='true']  { opacity: 1.0; }
]]>
</style>
<script type="application/ecmascript"><![CDATA[
document.addEventListener('DOMContentLoaded', (event) => {
  highlightEdges();
  highlightAdjacentNodes();
});
]]></script>
</svg>
