<?xml version="1.0" encoding="UTF-8" standalone="no"?>
<!DOCTYPE svg PUBLIC "-//W3C//DTD SVG 1.1//EN"
 "http://www.w3.org/Graphics/SVG/1.1/DTD/svg11.dtd">
<!-- Generated by graphviz version 2.44.1 (20200629.0846)
 -->
<!-- Title: C:/Users/M70027/Documents/Projects/tp&#45;deployment/dspic33ch&#45;power&#45;totem&#45;pole&#45;demonstration&#45;application&#45;single&#45;phase_v2/dspic33ch_totem_pole_single_phase_secondary_IL.X/mcc_generated_files/uart/src/uart1.c Pages: 1 -->
<svg width="332pt" height="258pt"
 viewBox="0.00 0.00 332.00 258.00" xmlns="http://www.w3.org/2000/svg" xmlns:xlink="http://www.w3.org/1999/xlink">
<g id="graph0" class="graph" transform="scale(1 1) rotate(0) translate(4 254)">
<title>C:/Users/M70027/Documents/Projects/tp&#45;deployment/dspic33ch&#45;power&#45;totem&#45;pole&#45;demonstration&#45;application&#45;single&#45;phase_v2/dspic33ch_totem_pole_single_phase_secondary_IL.X/mcc_generated_files/uart/src/uart1.c</title>
<!-- Node1 -->
<g id="Node000001" class="node">
<title>Node1</title>
<g id="a_Node000001"><a xlink:title="This is the generated driver source file for the UART1 driver.">
<polygon fill="#999999" stroke="#666666" points="311.5,-250 133.5,-250 133.5,-165 311.5,-165 311.5,-250"/>
<text text-anchor="start" x="141.5" y="-238" font-family="Helvetica,sans-Serif" font-size="10.00">C:/Users/M70027/Documents</text>
<text text-anchor="start" x="141.5" y="-227" font-family="Helvetica,sans-Serif" font-size="10.00">/Projects/tp&#45;deployment</text>
<text text-anchor="start" x="141.5" y="-216" font-family="Helvetica,sans-Serif" font-size="10.00">/dspic33ch&#45;power&#45;totem&#45;pole</text>
<text text-anchor="start" x="141.5" y="-205" font-family="Helvetica,sans-Serif" font-size="10.00">&#45;demonstration&#45;application</text>
<text text-anchor="start" x="141.5" y="-194" font-family="Helvetica,sans-Serif" font-size="10.00">&#45;single&#45;phase_v2/dspic33ch_totem</text>
<text text-anchor="start" x="141.5" y="-183" font-family="Helvetica,sans-Serif" font-size="10.00">_pole_single_phase_secondary_IL.X</text>
<text text-anchor="middle" x="222.5" y="-172" font-family="Helvetica,sans-Serif" font-size="10.00">/mcc_generated_files/uart/src/uart1.c</text>
</a>
</g>
</g>
<!-- Node2 -->
<g id="Node000002" class="node">
<title>Node2</title>
<g id="a_Node000002"><a xlink:title=" ">
<polygon fill="#e0e0e0" stroke="#999999" points="49,-19 0,-19 0,0 49,0 49,-19"/>
<text text-anchor="middle" x="24.5" y="-7" font-family="Helvetica,sans-Serif" font-size="10.00">stdint.h</text>
</a>
</g>
</g>
<!-- Node1&#45;&gt;Node2 -->
<g id="edge1_Node000001_Node000002" class="edge">
<title>Node1&#45;&gt;Node2</title>
<g id="a_edge1_Node000001_Node000002"><a xlink:title=" ">
<path fill="none" stroke="#63b8ff" d="M144.94,-164.76C109.46,-142.14 69.61,-111.18 43.5,-74 34.1,-60.61 29.28,-42.5 26.85,-29.05"/>
<polygon fill="#63b8ff" stroke="#63b8ff" points="30.29,-28.41 25.33,-19.05 23.37,-29.47 30.29,-28.41"/>
</a>
</g>
</g>
<!-- Node3 -->
<g id="Node000003" class="node">
<title>Node3</title>
<g id="a_Node000003"><a xlink:title=" ">
<polygon fill="#e0e0e0" stroke="#999999" points="282,-19 231,-19 231,0 282,0 282,-19"/>
<text text-anchor="middle" x="256.5" y="-7" font-family="Helvetica,sans-Serif" font-size="10.00">stddef.h</text>
</a>
</g>
</g>
<!-- Node1&#45;&gt;Node3 -->
<g id="edge2_Node000001_Node000003" class="edge">
<title>Node1&#45;&gt;Node3</title>
<g id="a_edge2_Node000001_Node000003"><a xlink:title=" ">
<path fill="none" stroke="#63b8ff" d="M229.71,-164.93C236.97,-123.08 247.84,-60.41 253.23,-29.34"/>
<polygon fill="#63b8ff" stroke="#63b8ff" points="256.75,-29.55 255.01,-19.1 249.85,-28.35 256.75,-29.55"/>
</a>
</g>
</g>
<!-- Node4 -->
<g id="Node000004" class="node">
<title>Node4</title>
<g id="a_Node000004"><a xlink:title=" ">
<polygon fill="#e0e0e0" stroke="#999999" points="324,-129 289,-129 289,-110 324,-110 324,-129"/>
<text text-anchor="middle" x="306.5" y="-117" font-family="Helvetica,sans-Serif" font-size="10.00">xc.h</text>
</a>
</g>
</g>
<!-- Node1&#45;&gt;Node4 -->
<g id="edge3_Node000001_Node000004" class="edge">
<title>Node1&#45;&gt;Node4</title>
<g id="a_edge3_Node000001_Node000004"><a xlink:title=" ">
<path fill="none" stroke="#63b8ff" d="M263.27,-164.76C273.18,-154.62 283.17,-144.38 291.06,-136.31"/>
<polygon fill="#63b8ff" stroke="#63b8ff" points="293.67,-138.65 298.15,-129.05 288.66,-133.76 293.67,-138.65"/>
</a>
</g>
</g>
<!-- Node5 -->
<g id="Node000005" class="node">
<title>Node5</title>
<g id="a_Node000005"><a xlink:href="a00326.html" target="_top" xlink:title="This is the generated driver header file for the UART1 driver.">
<polygon fill="white" stroke="#666666" points="212.5,-129 156.5,-129 156.5,-110 212.5,-110 212.5,-129"/>
<text text-anchor="middle" x="184.5" y="-117" font-family="Helvetica,sans-Serif" font-size="10.00">../uart1.h</text>
</a>
</g>
</g>
<!-- Node1&#45;&gt;Node5 -->
<g id="edge4_Node000001_Node000005" class="edge">
<title>Node1&#45;&gt;Node5</title>
<g id="a_edge4_Node000001_Node000005"><a xlink:title=" ">
<path fill="none" stroke="#63b8ff" d="M204.06,-164.76C199.95,-155.46 195.81,-146.09 192.4,-138.37"/>
<polygon fill="#63b8ff" stroke="#63b8ff" points="195.52,-136.78 188.28,-129.05 189.12,-139.61 195.52,-136.78"/>
</a>
</g>
</g>
<!-- Node5&#45;&gt;Node2 -->
<g id="edge6_Node000005_Node000002" class="edge">
<title>Node5&#45;&gt;Node2</title>
<g id="a_edge6_Node000005_Node000002"><a xlink:title=" ">
<path fill="none" stroke="#63b8ff" d="M156.41,-113.67C130.04,-107.96 90.69,-96.27 63.5,-74 48.68,-61.86 37.96,-42.52 31.55,-28.37"/>
<polygon fill="#63b8ff" stroke="#63b8ff" points="34.77,-27.01 27.65,-19.16 28.33,-29.74 34.77,-27.01"/>
</a>
</g>
</g>
<!-- Node5&#45;&gt;Node3 -->
<g id="edge7_Node000005_Node000003" class="edge">
<title>Node5&#45;&gt;Node3</title>
<g id="a_edge7_Node000005_Node000003"><a xlink:title=" ">
<path fill="none" stroke="#63b8ff" d="M190.39,-109.66C202.32,-91.77 229.5,-51 245.04,-27.69"/>
<polygon fill="#63b8ff" stroke="#63b8ff" points="248.09,-29.42 250.73,-19.16 242.27,-25.54 248.09,-29.42"/>
</a>
</g>
</g>
<!-- Node6 -->
<g id="Node000006" class="node">
<title>Node6</title>
<g id="a_Node000006"><a xlink:title=" ">
<polygon fill="#e0e0e0" stroke="#999999" points="212.5,-19 156.5,-19 156.5,0 212.5,0 212.5,-19"/>
<text text-anchor="middle" x="184.5" y="-7" font-family="Helvetica,sans-Serif" font-size="10.00">stdbool.h</text>
</a>
</g>
</g>
<!-- Node5&#45;&gt;Node6 -->
<g id="edge5_Node000005_Node000006" class="edge">
<title>Node5&#45;&gt;Node6</title>
<g id="a_edge5_Node000005_Node000006"><a xlink:title=" ">
<path fill="none" stroke="#63b8ff" d="M184.5,-109.66C184.5,-92.17 184.5,-52.8 184.5,-29.27"/>
<polygon fill="#63b8ff" stroke="#63b8ff" points="188,-29.16 184.5,-19.16 181,-29.16 188,-29.16"/>
</a>
</g>
</g>
<!-- Node7 -->
<g id="Node000007" class="node">
<title>Node7</title>
<g id="a_Node000007"><a xlink:href="a00329_source.html" target="_top" xlink:title=" ">
<polygon fill="white" stroke="#666666" points="156,-74 73,-74 73,-55 156,-55 156,-74"/>
<text text-anchor="middle" x="114.5" y="-62" font-family="Helvetica,sans-Serif" font-size="10.00">uart_interface.h</text>
</a>
</g>
</g>
<!-- Node5&#45;&gt;Node7 -->
<g id="edge8_Node000005_Node000007" class="edge">
<title>Node5&#45;&gt;Node7</title>
<g id="a_edge8_Node000005_Node000007"><a xlink:title=" ">
<path fill="none" stroke="#63b8ff" d="M173.25,-109.98C162.7,-102 146.7,-89.88 134.06,-80.31"/>
<polygon fill="#63b8ff" stroke="#63b8ff" points="136.04,-77.42 125.95,-74.17 131.81,-83 136.04,-77.42"/>
</a>
</g>
</g>
<!-- Node7&#45;&gt;Node2 -->
<g id="edge10_Node000007_Node000002" class="edge">
<title>Node7&#45;&gt;Node2</title>
<g id="a_edge10_Node000007_Node000002"><a xlink:title=" ">
<path fill="none" stroke="#63b8ff" d="M100.04,-54.98C86.08,-46.77 64.71,-34.18 48.25,-24.49"/>
<polygon fill="#63b8ff" stroke="#63b8ff" points="49.62,-21.23 39.22,-19.17 46.06,-27.26 49.62,-21.23"/>
</a>
</g>
</g>
<!-- Node7&#45;&gt;Node3 -->
<g id="edge11_Node000007_Node000003" class="edge">
<title>Node7&#45;&gt;Node3</title>
<g id="a_edge11_Node000007_Node000003"><a xlink:title=" ">
<path fill="none" stroke="#63b8ff" d="M137.31,-54.98C160.67,-46.27 197.2,-32.63 223.67,-22.75"/>
<polygon fill="#63b8ff" stroke="#63b8ff" points="225.13,-25.95 233.27,-19.17 222.68,-19.39 225.13,-25.95"/>
</a>
</g>
</g>
<!-- Node7&#45;&gt;Node6 -->
<g id="edge9_Node000007_Node000006" class="edge">
<title>Node7&#45;&gt;Node6</title>
<g id="a_edge9_Node000007_Node000006"><a xlink:title=" ">
<path fill="none" stroke="#63b8ff" d="M125.75,-54.98C136.3,-47 152.3,-34.88 164.94,-25.31"/>
<polygon fill="#63b8ff" stroke="#63b8ff" points="167.19,-28 173.05,-19.17 162.96,-22.42 167.19,-28"/>
</a>
</g>
</g>
<!-- Node8 -->
<g id="Node000008" class="node">
<title>Node8</title>
<g id="a_Node000008"><a xlink:href="a00332.html" target="_top" xlink:title="This is the generated driver types header file for the UART driver.">
<polygon fill="white" stroke="#666666" points="138,-19 67,-19 67,0 138,0 138,-19"/>
<text text-anchor="middle" x="102.5" y="-7" font-family="Helvetica,sans-Serif" font-size="10.00">uart_types.h</text>
</a>
</g>
</g>
<!-- Node7&#45;&gt;Node8 -->
<g id="edge12_Node000007_Node000008" class="edge">
<title>Node7&#45;&gt;Node8</title>
<g id="a_edge12_Node000007_Node000008"><a xlink:title=" ">
<path fill="none" stroke="#63b8ff" d="M112.52,-54.75C110.93,-47.72 108.64,-37.62 106.65,-28.84"/>
<polygon fill="#63b8ff" stroke="#63b8ff" points="110.07,-28.07 104.44,-19.09 103.24,-29.62 110.07,-28.07"/>
</a>
</g>
</g>
</g>
</svg>
