<?xml version="1.0" encoding="UTF-8" standalone="no"?>
<!DOCTYPE svg PUBLIC "-//W3C//DTD SVG 1.1//EN"
 "http://www.w3.org/Graphics/SVG/1.1/DTD/svg11.dtd">
<!-- Generated by graphviz version 8.1.0 (20230707.0739)
 -->
<!-- Title: Application_handler_PH1 Pages: 1 -->
<!--zoomable 433 -->

<svg id="main" version="1.1" xmlns="http://www.w3.org/2000/svg" xmlns:xlink="http://www.w3.org/1999/xlink" xml:space="preserve" onload="init(evt)">
<style type="text/css"><![CDATA[
.node, .edge {opacity: 0.7;}
.node.selected, .edge.selected {opacity: 1;}
.edge:hover path { stroke: red; }
.edge:hover polygon { stroke: red; fill: red; }
]]></style>

<defs>
  <circle id="rim" cx="0" cy="0" r="7"/>
  <circle id="rim2" cx="0" cy="0" r="3.5"/>
  <g id="zoomPlus">
    <use xlink:href="#rim" fill="#404040"><set attributeName="fill" to="#808080" begin="zoomplus.mouseover" end="zoomplus.mouseout"/></use>
    <path d="M-4,0h8M0,-4v8" fill="none" stroke="white" stroke-width="1.5" pointer-events="none"/>
  </g>
  <g id="zoomMin">
    <use xlink:href="#rim" fill="#404040"><set attributeName="fill" to="#808080" begin="zoomminus.mouseover" end="zoomminus.mouseout"/></use>
    <path d="M-4,0h8" fill="none" stroke="white" stroke-width="1.5" pointer-events="none"/>
  </g>
  <g id="arrowUp" transform="translate(30 24)">
    <use xlink:href="#rim"/>
    <path pointer-events="none" fill="none" stroke="white" stroke-width="1.5" d="M0,-3.0v7 M-2.5,-0.5L0,-3.0L2.5,-0.5"/>
  </g>
  <g id="arrowRight" transform="rotate(90) translate(36 -43)">
    <use xlink:href="#rim"/>
    <path pointer-events="none" fill="none" stroke="white" stroke-width="1.5" d="M0,-3.0v7 M-2.5,-0.5L0,-3.0L2.5,-0.5"/>
  </g>
  <g id="arrowDown" transform="rotate(180) translate(-30 -48)">
    <use xlink:href="#rim"/>
    <path pointer-events="none" fill="none" stroke="white" stroke-width="1.5" d="M0,-3.0v7 M-2.5,-0.5L0,-3.0L2.5,-0.5"/>
  </g>
  <g id="arrowLeft" transform="rotate(270) translate(-36 17)">
    <use xlink:href="#rim"/>
    <path pointer-events="none" fill="none" stroke="white" stroke-width="1.5" d="M0,-3.0v7 M-2.5,-0.5L0,-3.0L2.5,-0.5"/>
  </g>
  <g id="resetDef">
    <use xlink:href="#rim2" fill="#404040"><set attributeName="fill" to="#808080" begin="reset.mouseover" end="reset.mouseout"/></use>
  </g>
</defs>
<script type="application/ecmascript">
var viewWidth = 623;
var viewHeight = 433;
var sectionId = 'dynsection-2';
</script>
<script type="application/ecmascript" xlink:href="svg.min.js"/>
<svg id="graph" class="graph">
<g id="viewport">
<title>Application_handler_PH1</title>
<!-- Node1 -->
<g id="Node000001" class="node">
<title>Node1</title>
<g id="a_Node000001"><a xlink:title=" ">
<polygon fill="#999999" stroke="#666666" points="124.75,-235.2 0,-235.2 0,-215.2 124.75,-215.2 124.75,-235.2"/>
<text text-anchor="middle" x="62.38" y="-221.7" font-family="Helvetica,sans-Serif" font-size="10.00">Application_handler_PH1</text>
</a>
</g>
</g>
<!-- Node2 -->
<g id="Node000002" class="node">
<title>Node2</title>
<g id="a_Node000002"><a xlink:href="a00365.html#a647fd6dacbfbcebe49cc34111a01493b" target="_top" xlink:title=" ">
<polygon fill="white" stroke="#666666" points="238.62,-235.2 165.62,-235.2 165.62,-215.2 238.62,-215.2 238.62,-235.2"/>
<text text-anchor="middle" x="202.12" y="-221.7" font-family="Helvetica,sans-Serif" font-size="10.00">Handler_PHx</text>
</a>
</g>
</g>
<!-- Node1&#45;&gt;Node2 -->
<g id="edge1_Node000001_Node000002" class="edge">
<title>Node1&#45;&gt;Node2</title>
<g id="a_edge1_Node000001_Node000002"><a xlink:title=" ">
<path fill="none" stroke="#63b8ff" d="M125,-225.2C134.88,-225.2 144.97,-225.2 154.43,-225.2"/>
<polygon fill="#63b8ff" stroke="#63b8ff" points="154.2,-228.7 164.2,-225.2 154.2,-221.7 154.2,-228.7"/>
</a>
</g>
</g>
<!-- Node17 -->
<g id="Node000017" class="node">
<title>Node17</title>
<g id="a_Node000017"><a xlink:href="a00365.html#a3c1c3278a759d0a53b473f7ee8786d12" target="_top" xlink:title=" ">
<polygon fill="white" stroke="#666666" points="422.25,-425.2 302.75,-425.2 302.75,-405.2 422.25,-405.2 422.25,-425.2"/>
<text text-anchor="middle" x="362.5" y="-411.7" font-family="Helvetica,sans-Serif" font-size="10.00">VOUT_HystereticCheck</text>
</a>
</g>
</g>
<!-- Node1&#45;&gt;Node17 -->
<g id="edge31_Node000001_Node000017" class="edge">
<title>Node1&#45;&gt;Node17</title>
<g id="a_edge31_Node000001_Node000017"><a xlink:title=" ">
<path fill="none" stroke="#63b8ff" d="M73.03,-235.56C101.53,-265.47 188.96,-352.63 279.5,-396.2 283.57,-398.16 287.86,-399.92 292.25,-401.51"/>
<polygon fill="#63b8ff" stroke="#63b8ff" points="291.03,-405.12 301.62,-404.9 293.2,-398.47 291.03,-405.12"/>
</a>
</g>
</g>
<!-- Node18 -->
<g id="Node000018" class="node">
<title>Node18</title>
<g id="a_Node000018"><a xlink:href="a00365.html#a88d1001937f9c64e4327a9828fc17b45" target="_top" xlink:title=" ">
<polygon fill="white" stroke="#666666" points="243.5,-197.2 160.75,-197.2 160.75,-177.2 243.5,-177.2 243.5,-197.2"/>
<text text-anchor="middle" x="202.12" y="-183.7" font-family="Helvetica,sans-Serif" font-size="10.00">VOUTaveraging</text>
</a>
</g>
</g>
<!-- Node1&#45;&gt;Node18 -->
<g id="edge34_Node000001_Node000018" class="edge">
<title>Node1&#45;&gt;Node18</title>
<g id="a_edge34_Node000001_Node000018"><a xlink:title=" ">
<path fill="none" stroke="#63b8ff" d="M101.38,-214.72C117.34,-210.31 136.09,-205.14 153,-200.48"/>
<polygon fill="#63b8ff" stroke="#63b8ff" points="153.53,-203.68 162.24,-197.65 151.67,-196.94 153.53,-203.68"/>
</a>
</g>
</g>
<!-- Node3 -->
<g id="Node000003" class="node">
<title>Node3</title>
<g id="a_Node000003"><a xlink:href="a00365.html#af6c4a58221bd490ef4d2084547601a10" target="_top" xlink:title=" ">
<polygon fill="white" stroke="#666666" points="439.88,-235.2 285.12,-235.2 285.12,-215.2 439.88,-215.2 439.88,-235.2"/>
<text text-anchor="middle" x="362.5" y="-221.7" font-family="Helvetica,sans-Serif" font-size="10.00">Adaptive_Currentcontroller_Gain</text>
</a>
</g>
</g>
<!-- Node2&#45;&gt;Node3 -->
<g id="edge2_Node000002_Node000003" class="edge">
<title>Node2&#45;&gt;Node3</title>
<g id="a_edge2_Node000002_Node000003"><a xlink:title=" ">
<path fill="none" stroke="#63b8ff" d="M239.06,-225.2C249.58,-225.2 261.57,-225.2 273.83,-225.2"/>
<polygon fill="#63b8ff" stroke="#63b8ff" points="273.64,-228.7 283.64,-225.2 273.64,-221.7 273.64,-228.7"/>
</a>
</g>
</g>
<!-- Node4 -->
<g id="Node000004" class="node">
<title>Node4</title>
<g id="a_Node000004"><a xlink:href="a00365.html#a51a90512029dd0d15f013ea8548c5e7c" target="_top" xlink:title=" ">
<polygon fill="white" stroke="#666666" points="406.12,-387.2 318.88,-387.2 318.88,-367.2 406.12,-367.2 406.12,-387.2"/>
<text text-anchor="middle" x="362.5" y="-373.7" font-family="Helvetica,sans-Serif" font-size="10.00">BurstMode_PHx</text>
</a>
</g>
</g>
<!-- Node2&#45;&gt;Node4 -->
<g id="edge3_Node000002_Node000004" class="edge">
<title>Node2&#45;&gt;Node4</title>
<g id="a_edge3_Node000002_Node000004"><a xlink:title=" ">
<path fill="none" stroke="#63b8ff" d="M205.9,-235.43C213.28,-260.59 235.89,-325.82 279.5,-358.2 287.86,-364.41 297.92,-368.63 308.08,-371.49"/>
<polygon fill="#63b8ff" stroke="#63b8ff" points="307.11,-375.1 317.65,-374.01 308.73,-368.29 307.11,-375.1"/>
</a>
</g>
</g>
<!-- Node7 -->
<g id="Node000007" class="node">
<title>Node7</title>
<g id="a_Node000007"><a xlink:href="a00365.html#a69847930c99b34bceb7165143cd28b92" target="_top" xlink:title=" ">
<polygon fill="white" stroke="#666666" points="393.38,-197.2 331.62,-197.2 331.62,-177.2 393.38,-177.2 393.38,-197.2"/>
<text text-anchor="middle" x="362.5" y="-183.7" font-family="Helvetica,sans-Serif" font-size="10.00">CCM_PHx</text>
</a>
</g>
</g>
<!-- Node2&#45;&gt;Node7 -->
<g id="edge6_Node000002_Node000007" class="edge">
<title>Node2&#45;&gt;Node7</title>
<g id="a_edge6_Node000002_Node000007"><a xlink:title=" ">
<path fill="none" stroke="#63b8ff" d="M238.84,-216.19C251.65,-212.99 266.21,-209.39 279.5,-206.2 292.93,-202.97 307.63,-199.54 320.82,-196.49"/>
<polygon fill="#63b8ff" stroke="#63b8ff" points="321.52,-199.69 330.48,-194.03 319.95,-192.87 321.52,-199.69"/>
</a>
</g>
</g>
<!-- Node10 -->
<g id="Node000010" class="node">
<title>Node10</title>
<g id="a_Node000010"><a xlink:href="a00365.html#a02e735cc5f9ec0075b4b0157326fd3db" target="_top" xlink:title=" ">
<polygon fill="white" stroke="#666666" points="433.12,-349.2 291.88,-349.2 291.88,-329.2 433.12,-329.2 433.12,-349.2"/>
<text text-anchor="middle" x="362.5" y="-335.7" font-family="Helvetica,sans-Serif" font-size="10.00">DutyCycleFeedForward_PHx</text>
</a>
</g>
</g>
<!-- Node2&#45;&gt;Node10 -->
<g id="edge11_Node000002_Node000010" class="edge">
<title>Node2&#45;&gt;Node10</title>
<g id="a_edge11_Node000002_Node000010"><a xlink:title=" ">
<path fill="none" stroke="#63b8ff" d="M208.44,-235.68C219.07,-255.51 244.91,-298.48 279.5,-320.2 281.97,-321.75 284.55,-323.17 287.21,-324.48"/>
<polygon fill="#63b8ff" stroke="#63b8ff" points="285.57,-328.01 296.14,-328.73 288.32,-321.58 285.57,-328.01"/>
</a>
</g>
</g>
<!-- Node11 -->
<g id="Node000011" class="node">
<title>Node11</title>
<g id="a_Node000011"><a xlink:href="a00401.html#ga37968a783e44cd80643478d2b559dbf4" target="_top" xlink:title="This inline function sets the PWM generator specific duty cycle register.">
<polygon fill="white" stroke="#666666" points="601,-55.2 495,-55.2 495,-35.2 601,-35.2 601,-55.2"/>
<text text-anchor="middle" x="548" y="-41.7" font-family="Helvetica,sans-Serif" font-size="10.00">PWM_DutyCycleSet</text>
</a>
</g>
</g>
<!-- Node2&#45;&gt;Node11 -->
<g id="edge12_Node000002_Node000011" class="edge">
<title>Node2&#45;&gt;Node11</title>
<g id="a_edge12_Node000002_Node000011"><a xlink:title=" ">
<path fill="none" stroke="#63b8ff" d="M233.64,-214.77C237.38,-212.44 240.82,-209.61 243.5,-206.2 292.85,-143.44 217.64,-80.68 279.5,-30.2 347.04,24.92 459.06,-8.71 514.24,-30.68"/>
<polygon fill="#63b8ff" stroke="#63b8ff" points="512.59,-34.2 523.17,-34.76 515.24,-27.72 512.59,-34.2"/>
</a>
</g>
</g>
<!-- Node12 -->
<g id="Node000012" class="node">
<title>Node12</title>
<g id="a_Node000012"><a xlink:href="a00374.html#ac4c8852561395f2969c08ff062325e03" target="_top" xlink:title=" ">
<polygon fill="white" stroke="#666666" points="434.62,-311.2 290.38,-311.2 290.38,-291.2 434.62,-291.2 434.62,-311.2"/>
<text text-anchor="middle" x="362.5" y="-297.7" font-family="Helvetica,sans-Serif" font-size="10.00">SMPS_Controller2P2ZUpdate</text>
</a>
</g>
</g>
<!-- Node2&#45;&gt;Node12 -->
<g id="edge13_Node000002_Node000012" class="edge">
<title>Node2&#45;&gt;Node12</title>
<g id="a_edge13_Node000002_Node000012"><a xlink:title=" ">
<path fill="none" stroke="#63b8ff" d="M213.58,-235.27C227.49,-248.11 253.39,-270.08 279.5,-282.2 283.6,-284.1 287.91,-285.82 292.31,-287.38"/>
<polygon fill="#63b8ff" stroke="#63b8ff" points="291.12,-290.99 301.71,-290.71 293.26,-284.33 291.12,-290.99"/>
</a>
</g>
</g>
<!-- Node13 -->
<g id="Node000013" class="node">
<title>Node13</title>
<g id="a_Node000013"><a xlink:href="a00365.html#ad3476b7cd98e6a22a65e1d89b7a59ea5" target="_top" xlink:title=" ">
<polygon fill="white" stroke="#666666" points="417,-71.2 308,-71.2 308,-39.2 417,-39.2 417,-71.2"/>
<text text-anchor="start" x="316" y="-57.7" font-family="Helvetica,sans-Serif" font-size="10.00">SoftstartAfterZC_PHx</text>
<text text-anchor="middle" x="362.5" y="-45.7" font-family="Helvetica,sans-Serif" font-size="10.00">_GTIMode</text>
</a>
</g>
</g>
<!-- Node2&#45;&gt;Node13 -->
<g id="edge14_Node000002_Node000013" class="edge">
<title>Node2&#45;&gt;Node13</title>
<g id="a_edge14_Node000002_Node000013"><a xlink:title=" ">
<path fill="none" stroke="#63b8ff" d="M233,-214.83C236.93,-212.47 240.59,-209.62 243.5,-206.2 281.23,-161.83 238.68,-121.74 279.5,-80.2 284.69,-74.92 290.95,-70.75 297.68,-67.46"/>
<polygon fill="#63b8ff" stroke="#63b8ff" points="298.92,-70.31 306.8,-63.23 296.22,-63.85 298.92,-70.31"/>
</a>
</g>
</g>
<!-- Node14 -->
<g id="Node000014" class="node">
<title>Node14</title>
<g id="a_Node000014"><a xlink:href="a00365.html#a3e7091905b384bca668f6f12a50834f4" target="_top" xlink:title=" ">
<polygon fill="white" stroke="#666666" points="417,-121.2 308,-121.2 308,-89.2 417,-89.2 417,-121.2"/>
<text text-anchor="start" x="316" y="-107.7" font-family="Helvetica,sans-Serif" font-size="10.00">SoftstartAfterZC_PHx</text>
<text text-anchor="middle" x="362.5" y="-95.7" font-family="Helvetica,sans-Serif" font-size="10.00">_PFCMode</text>
</a>
</g>
</g>
<!-- Node2&#45;&gt;Node14 -->
<g id="edge20_Node000002_Node000014" class="edge">
<title>Node2&#45;&gt;Node14</title>
<g id="a_edge20_Node000002_Node000014"><a xlink:title=" ">
<path fill="none" stroke="#63b8ff" d="M231.68,-214.85C235.98,-212.46 240.1,-209.59 243.5,-206.2 269.96,-179.8 251.21,-154.62 279.5,-130.2 284.95,-125.5 291.27,-121.68 297.93,-118.58"/>
<polygon fill="#63b8ff" stroke="#63b8ff" points="298.94,-121.54 306.88,-114.53 296.3,-115.05 298.94,-121.54"/>
</a>
</g>
</g>
<!-- Node15 -->
<g id="Node000015" class="node">
<title>Node15</title>
<g id="a_Node000015"><a xlink:href="a00374.html#a4fd6e889896907ceaae34b73435d5627" target="_top" xlink:title=" ">
<polygon fill="white" stroke="#666666" points="445.5,-273.2 279.5,-273.2 279.5,-253.2 445.5,-253.2 445.5,-273.2"/>
<text text-anchor="middle" x="362.5" y="-259.7" font-family="Helvetica,sans-Serif" font-size="10.00">XFT_SMPS_Controller2P2ZUpdate</text>
</a>
</g>
</g>
<!-- Node2&#45;&gt;Node15 -->
<g id="edge26_Node000002_Node000015" class="edge">
<title>Node2&#45;&gt;Node15</title>
<g id="a_edge26_Node000002_Node000015"><a xlink:title=" ">
<path fill="none" stroke="#63b8ff" d="M238.84,-234.21C251.65,-237.41 266.21,-241.01 279.5,-244.2 287.88,-246.21 296.76,-248.31 305.46,-250.34"/>
<polygon fill="#63b8ff" stroke="#63b8ff" points="304.39,-253.92 314.93,-252.78 305.98,-247.1 304.39,-253.92"/>
</a>
</g>
</g>
<!-- Node16 -->
<g id="Node000016" class="node">
<title>Node16</title>
<g id="a_Node000016"><a xlink:href="a00365.html#a9d01eea56aae5f1437eb541a321277cc" target="_top" xlink:title=" ">
<polygon fill="white" stroke="#666666" points="404.62,-159.2 320.38,-159.2 320.38,-139.2 404.62,-139.2 404.62,-159.2"/>
<text text-anchor="middle" x="362.5" y="-145.7" font-family="Helvetica,sans-Serif" font-size="10.00">ZeroCross_PHx</text>
</a>
</g>
</g>
<!-- Node2&#45;&gt;Node16 -->
<g id="edge27_Node000002_Node000016" class="edge">
<title>Node2&#45;&gt;Node16</title>
<g id="a_edge27_Node000002_Node000016"><a xlink:title=" ">
<path fill="none" stroke="#63b8ff" d="M229.14,-214.72C234.1,-212.24 239.11,-209.38 243.5,-206.2 262.35,-192.57 259.31,-179.76 279.5,-168.2 288.63,-162.97 299.11,-159.18 309.46,-156.43"/>
<polygon fill="#63b8ff" stroke="#63b8ff" points="310.19,-159.62 319.13,-153.93 308.6,-152.81 310.19,-159.62"/>
</a>
</g>
</g>
<!-- Node5 -->
<g id="Node000005" class="node">
<title>Node5</title>
<g id="a_Node000005"><a xlink:href="a00401.html#ga531b59d8823e3ebda2da60f48582bcf3" target="_top" xlink:title="This inline function enables PWM override on PWMH output for specific PWM generator selected by the a...">
<polygon fill="white" stroke="#666666" points="613.38,-169.2 482.62,-169.2 482.62,-149.2 613.38,-149.2 613.38,-169.2"/>
<text text-anchor="middle" x="548" y="-155.7" font-family="Helvetica,sans-Serif" font-size="10.00">PWM_OverrideHighEnable</text>
</a>
</g>
</g>
<!-- Node4&#45;&gt;Node5 -->
<g id="edge4_Node000004_Node000005" class="edge">
<title>Node4&#45;&gt;Node5</title>
<g id="a_edge4_Node000004_Node000005"><a xlink:title=" ">
<path fill="none" stroke="#63b8ff" d="M406.4,-376.32C420.59,-373.88 435.32,-368.69 445.5,-358.2 502.31,-299.64 426.31,-238.29 481.5,-178.2 482.18,-177.46 482.89,-176.74 483.63,-176.05"/>
<polygon fill="#63b8ff" stroke="#63b8ff" points="485.33,-178.41 491.33,-169.68 481.19,-172.76 485.33,-178.41"/>
</a>
</g>
</g>
<!-- Node6 -->
<g id="Node000006" class="node">
<title>Node6</title>
<g id="a_Node000006"><a xlink:href="a00401.html#ga2548ca8feda75ba6ab784280679da6ae" target="_top" xlink:title="This inline function enables PWM override on PWML output for specific PWM generator selected by the a...">
<polygon fill="white" stroke="#666666" points="612.25,-207.2 483.75,-207.2 483.75,-187.2 612.25,-187.2 612.25,-207.2"/>
<text text-anchor="middle" x="548" y="-193.7" font-family="Helvetica,sans-Serif" font-size="10.00">PWM_OverrideLowEnable</text>
</a>
</g>
</g>
<!-- Node4&#45;&gt;Node6 -->
<g id="edge5_Node000004_Node000006" class="edge">
<title>Node4&#45;&gt;Node6</title>
<g id="a_edge5_Node000004_Node000006"><a xlink:title=" ">
<path fill="none" stroke="#63b8ff" d="M406.58,-373.65C419.98,-370.93 434.19,-366.24 445.5,-358.2 496.07,-322.25 527.06,-252.42 539.99,-217.75"/>
<polygon fill="#63b8ff" stroke="#63b8ff" points="543.61,-219.04 543.68,-208.44 537.02,-216.67 543.61,-219.04"/>
</a>
</g>
</g>
<!-- Node7&#45;&gt;Node5 -->
<g id="edge8_Node000007_Node000005" class="edge">
<title>Node7&#45;&gt;Node5</title>
<g id="a_edge8_Node000007_Node000005"><a xlink:title=" ">
<path fill="none" stroke="#63b8ff" d="M393.8,-182.58C415.01,-179.34 444.33,-174.87 471.64,-170.7"/>
<polygon fill="#63b8ff" stroke="#63b8ff" points="472.03,-174.03 481.39,-169.06 470.97,-167.11 472.03,-174.03"/>
</a>
</g>
</g>
<!-- Node7&#45;&gt;Node6 -->
<g id="edge10_Node000007_Node000006" class="edge">
<title>Node7&#45;&gt;Node6</title>
<g id="a_edge10_Node000007_Node000006"><a xlink:title=" ">
<path fill="none" stroke="#63b8ff" d="M393.8,-188.85C415.28,-190.02 445.07,-191.65 472.68,-193.15"/>
<polygon fill="#63b8ff" stroke="#63b8ff" points="472.36,-196.69 482.53,-193.74 472.74,-189.7 472.36,-196.69"/>
</a>
</g>
</g>
<!-- Node8 -->
<g id="Node000008" class="node">
<title>Node8</title>
<g id="a_Node000008"><a xlink:href="a00401.html#ga957b002605bfb2239a26f174808b2ad8" target="_top" xlink:title="This inline function disables PWM override on PWMH output for specific PWM generator selected by the ...">
<polygon fill="white" stroke="#666666" points="614.5,-93.2 481.5,-93.2 481.5,-73.2 614.5,-73.2 614.5,-93.2"/>
<text text-anchor="middle" x="548" y="-79.7" font-family="Helvetica,sans-Serif" font-size="10.00">PWM_OverrideHighDisable</text>
</a>
</g>
</g>
<!-- Node7&#45;&gt;Node8 -->
<g id="edge7_Node000007_Node000008" class="edge">
<title>Node7&#45;&gt;Node8</title>
<g id="a_edge7_Node000007_Node000008"><a xlink:title=" ">
<path fill="none" stroke="#63b8ff" d="M393.72,-186.14C410.42,-184.19 430.72,-179.43 445.5,-168.2 472.11,-147.99 455.45,-123.13 481.5,-102.2 482.96,-101.03 484.49,-99.93 486.07,-98.89"/>
<polygon fill="#63b8ff" stroke="#63b8ff" points="487.54,-101.54 494.66,-93.69 484.2,-95.39 487.54,-101.54"/>
</a>
</g>
</g>
<!-- Node9 -->
<g id="Node000009" class="node">
<title>Node9</title>
<g id="a_Node000009"><a xlink:href="a00401.html#gabbedef830c43428e96c7d5125662a8a6" target="_top" xlink:title="This inline function disables PWM override on PWML output for specific PWM generator selected by the ...">
<polygon fill="white" stroke="#666666" points="613.38,-131.2 482.62,-131.2 482.62,-111.2 613.38,-111.2 613.38,-131.2"/>
<text text-anchor="middle" x="548" y="-117.7" font-family="Helvetica,sans-Serif" font-size="10.00">PWM_OverrideLowDisable</text>
</a>
</g>
</g>
<!-- Node7&#45;&gt;Node9 -->
<g id="edge9_Node000007_Node000009" class="edge">
<title>Node7&#45;&gt;Node9</title>
<g id="a_edge9_Node000007_Node000009"><a xlink:title=" ">
<path fill="none" stroke="#63b8ff" d="M393.76,-183.4C409.71,-180.61 429.27,-175.93 445.5,-168.2 463.8,-159.49 463.44,-149.41 481.5,-140.2 484.97,-138.43 488.64,-136.8 492.39,-135.3"/>
<polygon fill="#63b8ff" stroke="#63b8ff" points="493.23,-138.36 501.43,-131.65 490.84,-131.78 493.23,-138.36"/>
</a>
</g>
</g>
<!-- Node13&#45;&gt;Node5 -->
<g id="edge17_Node000013_Node000005" class="edge">
<title>Node13&#45;&gt;Node5</title>
<g id="a_edge17_Node000013_Node000005"><a xlink:title=" ">
<path fill="none" stroke="#63b8ff" d="M417.46,-65.46C427.44,-69.01 437.29,-73.79 445.5,-80.2 470.01,-99.34 456.86,-121.22 481.5,-140.2 483.19,-141.5 484.96,-142.71 486.8,-143.84"/>
<polygon fill="#63b8ff" stroke="#63b8ff" points="484.97,-147.35 495.46,-148.82 488.18,-141.13 484.97,-147.35"/>
</a>
</g>
</g>
<!-- Node13&#45;&gt;Node6 -->
<g id="edge19_Node000013_Node000006" class="edge">
<title>Node13&#45;&gt;Node6</title>
<g id="a_edge19_Node000013_Node000006"><a xlink:title=" ">
<path fill="none" stroke="#63b8ff" d="M417.2,-63.82C427.54,-67.5 437.61,-72.74 445.5,-80.2 479.22,-112.08 447.57,-146.55 481.5,-178.2 482.66,-179.29 483.89,-180.31 485.16,-181.27"/>
<polygon fill="#63b8ff" stroke="#63b8ff" points="482.81,-184.56 493.16,-186.84 486.49,-178.6 482.81,-184.56"/>
</a>
</g>
</g>
<!-- Node13&#45;&gt;Node8 -->
<g id="edge16_Node000013_Node000008" class="edge">
<title>Node13&#45;&gt;Node8</title>
<g id="a_edge16_Node000013_Node000008"><a xlink:title=" ">
<path fill="none" stroke="#63b8ff" d="M417.07,-63.37C433.79,-65.93 452.58,-68.79 470.55,-71.53"/>
<polygon fill="#63b8ff" stroke="#63b8ff" points="469.9,-75.13 480.32,-73.18 470.96,-68.21 469.9,-75.13"/>
</a>
</g>
</g>
<!-- Node13&#45;&gt;Node9 -->
<g id="edge18_Node000013_Node000009" class="edge">
<title>Node13&#45;&gt;Node9</title>
<g id="a_edge18_Node000013_Node000009"><a xlink:title=" ">
<path fill="none" stroke="#63b8ff" d="M417.15,-69.42C426.75,-72.56 436.54,-76.17 445.5,-80.2 462.6,-87.88 464.34,-94.63 481.5,-102.2 485.64,-104.03 490.01,-105.73 494.44,-107.31"/>
<polygon fill="#63b8ff" stroke="#63b8ff" points="493.23,-110.93 503.83,-110.77 495.44,-104.29 493.23,-110.93"/>
</a>
</g>
</g>
<!-- Node13&#45;&gt;Node11 -->
<g id="edge15_Node000013_Node000011" class="edge">
<title>Node13&#45;&gt;Node11</title>
<g id="a_edge15_Node000013_Node000011"><a xlink:title=" ">
<path fill="none" stroke="#63b8ff" d="M417.07,-52.28C437.97,-51.14 462.1,-49.83 483.84,-48.64"/>
<polygon fill="#63b8ff" stroke="#63b8ff" points="483.84,-52.09 493.63,-48.05 483.45,-45.1 483.84,-52.09"/>
</a>
</g>
</g>
<!-- Node14&#45;&gt;Node5 -->
<g id="edge23_Node000014_Node000005" class="edge">
<title>Node14&#45;&gt;Node5</title>
<g id="a_edge23_Node000014_Node000005"><a xlink:title=" ">
<path fill="none" stroke="#63b8ff" d="M417.23,-121.21C437.38,-127.2 460.48,-134.03 481.5,-140.2 487.61,-141.99 494.05,-143.87 500.41,-145.72"/>
<polygon fill="#63b8ff" stroke="#63b8ff" points="499.37,-149.36 509.95,-148.79 501.33,-142.63 499.37,-149.36"/>
</a>
</g>
</g>
<!-- Node14&#45;&gt;Node6 -->
<g id="edge25_Node000014_Node000006" class="edge">
<title>Node14&#45;&gt;Node6</title>
<g id="a_edge25_Node000014_Node000006"><a xlink:title=" ">
<path fill="none" stroke="#63b8ff" d="M417.38,-116.29C427.26,-119.77 437.09,-124.3 445.5,-130.2 467.33,-145.51 459.56,-163.04 481.5,-178.2 483.6,-179.65 485.8,-180.99 488.08,-182.23"/>
<polygon fill="#63b8ff" stroke="#63b8ff" points="486.28,-185.71 496.82,-186.77 489.24,-179.37 486.28,-185.71"/>
</a>
</g>
</g>
<!-- Node14&#45;&gt;Node8 -->
<g id="edge22_Node000014_Node000008" class="edge">
<title>Node14&#45;&gt;Node8</title>
<g id="a_edge22_Node000014_Node000008"><a xlink:title=" ">
<path fill="none" stroke="#63b8ff" d="M417.07,-98.78C433.79,-96.77 452.58,-94.52 470.55,-92.37"/>
<polygon fill="#63b8ff" stroke="#63b8ff" points="470.8,-95.74 480.32,-91.07 469.97,-88.79 470.8,-95.74"/>
</a>
</g>
</g>
<!-- Node14&#45;&gt;Node9 -->
<g id="edge24_Node000014_Node000009" class="edge">
<title>Node14&#45;&gt;Node9</title>
<g id="a_edge24_Node000014_Node000009"><a xlink:title=" ">
<path fill="none" stroke="#63b8ff" d="M417.07,-109.87C434.06,-111.35 453.17,-113.02 471.4,-114.61"/>
<polygon fill="#63b8ff" stroke="#63b8ff" points="471.05,-118.18 481.31,-115.56 471.66,-111.2 471.05,-118.18"/>
</a>
</g>
</g>
<!-- Node14&#45;&gt;Node11 -->
<g id="edge21_Node000014_Node000011" class="edge">
<title>Node14&#45;&gt;Node11</title>
<g id="a_edge21_Node000014_Node000011"><a xlink:title=" ">
<path fill="none" stroke="#63b8ff" d="M417.19,-89.86C426.69,-86.86 436.44,-83.58 445.5,-80.2 461.9,-74.08 465.05,-70.21 481.5,-64.2 486.58,-62.34 491.94,-60.54 497.31,-58.84"/>
<polygon fill="#63b8ff" stroke="#63b8ff" points="498.04,-61.97 506.58,-55.69 495.99,-55.28 498.04,-61.97"/>
</a>
</g>
</g>
<!-- Node16&#45;&gt;Node5 -->
<g id="edge29_Node000016_Node000005" class="edge">
<title>Node16&#45;&gt;Node5</title>
<g id="a_edge29_Node000016_Node000005"><a xlink:title=" ">
<path fill="none" stroke="#63b8ff" d="M404.68,-151.44C424.38,-152.52 448.61,-153.84 471.46,-155.08"/>
<polygon fill="#63b8ff" stroke="#63b8ff" points="471.01,-158.62 481.18,-155.67 471.39,-151.63 471.01,-158.62"/>
</a>
</g>
</g>
<!-- Node16&#45;&gt;Node6 -->
<g id="edge30_Node000016_Node000006" class="edge">
<title>Node16&#45;&gt;Node6</title>
<g id="a_edge30_Node000016_Node000006"><a xlink:title=" ">
<path fill="none" stroke="#63b8ff" d="M404.89,-158.36C417.92,-161.36 432.34,-164.8 445.5,-168.2 456.17,-170.96 479.23,-177.53 500.68,-183.72"/>
<polygon fill="#63b8ff" stroke="#63b8ff" points="499.44,-187.29 510.02,-186.71 501.38,-180.57 499.44,-187.29"/>
</a>
</g>
</g>
<!-- Node16&#45;&gt;Node11 -->
<g id="edge28_Node000016_Node000011" class="edge">
<title>Node16&#45;&gt;Node11</title>
<g id="a_edge28_Node000016_Node000011"><a xlink:title=" ">
<path fill="none" stroke="#63b8ff" d="M404.77,-146.48C418.8,-143.87 433.86,-139.04 445.5,-130.2 472.11,-109.99 455.45,-85.13 481.5,-64.2 482.96,-63.03 484.49,-61.93 486.07,-60.89"/>
<polygon fill="#63b8ff" stroke="#63b8ff" points="487.54,-63.54 494.66,-55.69 484.2,-57.39 487.54,-63.54"/>
</a>
</g>
</g>
<!-- Node17&#45;&gt;Node5 -->
<g id="edge32_Node000017_Node000005" class="edge">
<title>Node17&#45;&gt;Node5</title>
<g id="a_edge32_Node000017_Node000005"><a xlink:title=" ">
<path fill="none" stroke="#63b8ff" d="M422.72,-410.39C431.3,-407.33 439.3,-402.81 445.5,-396.2 512.68,-324.57 416.3,-251.63 481.5,-178.2 482.17,-177.44 482.87,-176.72 483.59,-176.02"/>
<polygon fill="#63b8ff" stroke="#63b8ff" points="485.3,-178.37 491.21,-169.57 481.1,-172.76 485.3,-178.37"/>
</a>
</g>
</g>
<!-- Node17&#45;&gt;Node6 -->
<g id="edge33_Node000017_Node000006" class="edge">
<title>Node17&#45;&gt;Node6</title>
<g id="a_edge33_Node000017_Node000006"><a xlink:title=" ">
<path fill="none" stroke="#63b8ff" d="M422.37,-408.19C430.69,-405.38 438.71,-401.51 445.5,-396.2 505.02,-349.68 532.72,-258.75 542.57,-217.92"/>
<polygon fill="#63b8ff" stroke="#63b8ff" points="546.16,-218.91 544.98,-208.38 539.34,-217.35 546.16,-218.91"/>
</a>
</g>
</g>
</g>
</svg>

<g id="navigator" transform="translate(0 0)" fill="#404254">
  <rect fill="#f2f5e9" fill-opacity="0.5" stroke="#606060" stroke-width=".5" x="0" y="0" width="60" height="60"/>
  <use id="zoomplus" xlink:href="#zoomPlus" x="17" y="9" onmousedown="handleZoom(evt,'in')"/>
  <use id="zoomminus" xlink:href="#zoomMin" x="42" y="9" onmousedown="handleZoom(evt,'out')"/>
  <use id="reset" xlink:href="#resetDef" x="30" y="36" onmousedown="handleReset()"/>
   <use id="arrowup" xlink:href="#arrowUp" x="0" y="0" onmousedown="handlePan(0,-1)"/>
  <use id="arrowright" xlink:href="#arrowRight" x="0" y="0" onmousedown="handlePan(1,0)"/>
  <use id="arrowdown" xlink:href="#arrowDown" x="0" y="0" onmousedown="handlePan(0,1)"/>
  <use id="arrowleft" xlink:href="#arrowLeft" x="0" y="0" onmousedown="handlePan(-1,0)"/>
</g>
<svg viewBox="0 0 15 15" width="100%" height="30px" preserveAspectRatio="xMaxYMin meet">
 <g id="arrow_out" transform="scale(0.3 0.3)">
  <a xlink:href="a00365_aa7b8e2dc355948aa24cf22ca82f9e805_cgraph_org.svg" target="_base">
   <rect id="button" ry="5" rx="5" y="6" x="6" height="38" width="38"
        fill="#f2f5e9" fill-opacity="0.5" stroke="#606060" stroke-width="1.0"/>
   <path id="arrow"
     d="M 11.500037,31.436501 C 11.940474,20.09759 22.043105,11.32322 32.158766,21.979434 L 37.068811,17.246167 C 37.068811,17.246167 37.088388,32 37.088388,32 L 22.160133,31.978069 C 22.160133,31.978069 26.997745,27.140456 26.997745,27.140456 C 18.528582,18.264221 13.291696,25.230495 11.500037,31.436501 z"
     style="fill:#404040;"/>
  </a>
 </g>
</svg>

<style type='text/css'>
<![CDATA[
[data-mouse-over-selected='false'] { opacity: 0.7; }
[data-mouse-over-selected='true']  { opacity: 1.0; }
]]>
</style>
<script type="application/ecmascript"><![CDATA[
document.addEventListener('DOMContentLoaded', (event) => {
  highlightEdges();
  highlightAdjacentNodes();
});
]]></script>
</svg>
