<?xml version="1.0" encoding="UTF-8" standalone="no"?>
<!DOCTYPE svg PUBLIC "-//W3C//DTD SVG 1.1//EN"
 "http://www.w3.org/Graphics/SVG/1.1/DTD/svg11.dtd">
<!-- Generated by graphviz version 8.1.0 (20230707.0739)
 -->
<!-- Title: CAN1_Transmit Pages: 1 -->
<svg width="449pt" height="217pt"
 viewBox="0.00 0.00 449.00 216.62" xmlns="http://www.w3.org/2000/svg" xmlns:xlink="http://www.w3.org/1999/xlink">
<g id="graph0" class="graph" transform="scale(1 1) rotate(0) translate(4 212.62)">
<title>CAN1_Transmit</title>
<!-- Node1 -->
<g id="Node000001" class="node">
<title>Node1</title>
<g id="a_Node000001"><a xlink:title="Writes the CAN message object to specified transmit FIFO channel.">
<polygon fill="#999999" stroke="#666666" points="84.25,-127 0,-127 0,-107 84.25,-107 84.25,-127"/>
<text text-anchor="middle" x="42.12" y="-113.5" font-family="Helvetica,sans-Serif" font-size="10.00">CAN1_Transmit</text>
</a>
</g>
</g>
<!-- Node2 -->
<g id="Node000002" class="node">
<title>Node2</title>
<g id="a_Node000002"><a xlink:href="a00399.html#ga61d156b0e75424f9b630cef5c424ac13" target="_top" xlink:title="This function get the DLC enum based decimal value.">
<polygon fill="white" stroke="#666666" points="441,-184 308,-184 308,-164 441,-164 441,-184"/>
<text text-anchor="middle" x="374.5" y="-170.5" font-family="Helvetica,sans-Serif" font-size="10.00">CAN1_DlcToDataBytesGet</text>
</a>
</g>
</g>
<!-- Node1&#45;&gt;Node2 -->
<g id="edge1_Node000001_Node000002" class="edge">
<title>Node1&#45;&gt;Node2</title>
<g id="a_edge1_Node000001_Node000002"><a xlink:title=" ">
<path fill="none" stroke="#63b8ff" d="M49.64,-127.4C61.28,-144.89 87.55,-179.6 120.25,-193 191.09,-222.04 282.35,-202.94 333.73,-187.65"/>
<polygon fill="#63b8ff" stroke="#63b8ff" points="334.55,-190.75 343.07,-184.46 332.48,-184.06 334.55,-190.75"/>
</a>
</g>
</g>
<!-- Node3 -->
<g id="Node000003" class="node">
<title>Node3</title>
<g id="a_Node000003"><a xlink:href="a00399.html#ga57b30800d7bd3b3c936f578ca1fd7e32" target="_top" xlink:title="This function get the FIFO user address, message depth and payload size information.">
<polygon fill="white" stroke="#666666" points="248.38,-184 143.88,-184 143.88,-164 248.38,-164 248.38,-184"/>
<text text-anchor="middle" x="196.12" y="-170.5" font-family="Helvetica,sans-Serif" font-size="10.00">CAN1_FIFO_InfoGet</text>
</a>
</g>
</g>
<!-- Node1&#45;&gt;Node3 -->
<g id="edge2_Node000001_Node000003" class="edge">
<title>Node1&#45;&gt;Node3</title>
<g id="a_edge2_Node000001_Node000003"><a xlink:title=" ">
<path fill="none" stroke="#63b8ff" d="M61.35,-127.33C76.68,-135.7 99.38,-147.31 120.25,-155 125.68,-157 131.4,-158.87 137.17,-160.59"/>
<polygon fill="#63b8ff" stroke="#63b8ff" points="135.96,-164.16 146.53,-163.52 137.87,-157.43 135.96,-164.16"/>
</a>
</g>
</g>
<!-- Node4 -->
<g id="Node000004" class="node">
<title>Node4</title>
<g id="a_Node000004"><a xlink:href="a00399.html#ga0980f888cad241edaa859783bb4a89d7" target="_top" xlink:title="This function Read the message object from user input and update to the CAN1 TX FIFO.">
<polygon fill="white" stroke="#666666" points="264.12,-146 128.12,-146 128.12,-126 264.12,-126 264.12,-146"/>
<text text-anchor="middle" x="196.12" y="-132.5" font-family="Helvetica,sans-Serif" font-size="10.00">CAN1_MessageWriteToFifo</text>
</a>
</g>
</g>
<!-- Node1&#45;&gt;Node4 -->
<g id="edge3_Node000001_Node000004" class="edge">
<title>Node1&#45;&gt;Node4</title>
<g id="a_edge3_Node000001_Node000004"><a xlink:title=" ">
<path fill="none" stroke="#63b8ff" d="M84.66,-122.19C94.78,-123.46 105.94,-124.85 117.16,-126.25"/>
<polygon fill="#63b8ff" stroke="#63b8ff" points="116.55,-129.83 126.9,-127.6 117.41,-122.88 116.55,-129.83"/>
</a>
</g>
</g>
<!-- Node5 -->
<g id="Node000005" class="node">
<title>Node5</title>
<g id="a_Node000005"><a xlink:href="a00399.html#gaedd6e334545a38cd71fe86ff4f9e78c3" target="_top" xlink:title="Get the CAN1 operation mode.">
<polygon fill="white" stroke="#666666" points="260.38,-108 131.88,-108 131.88,-88 260.38,-88 260.38,-108"/>
<text text-anchor="middle" x="196.12" y="-94.5" font-family="Helvetica,sans-Serif" font-size="10.00">CAN1_OperationModeGet</text>
</a>
</g>
</g>
<!-- Node1&#45;&gt;Node5 -->
<g id="edge5_Node000001_Node000005" class="edge">
<title>Node1&#45;&gt;Node5</title>
<g id="a_edge5_Node000001_Node000005"><a xlink:title=" ">
<path fill="none" stroke="#63b8ff" d="M84.66,-111.81C95.81,-110.41 108.21,-108.86 120.57,-107.32"/>
<polygon fill="#63b8ff" stroke="#63b8ff" points="120.89,-110.68 130.38,-105.97 120.02,-103.74 120.89,-110.68"/>
</a>
</g>
</g>
<!-- Node6 -->
<g id="Node000006" class="node">
<title>Node6</title>
<g id="a_Node000006"><a xlink:href="a00399.html#ga1d293f033f5d27b360cf00d4644c63eb" target="_top" xlink:title="Returns the CAN1 transmitter FIFO status.">
<polygon fill="white" stroke="#666666" points="271.25,-70 121,-70 121,-50 271.25,-50 271.25,-70"/>
<text text-anchor="middle" x="196.12" y="-56.5" font-family="Helvetica,sans-Serif" font-size="10.00">CAN1_TransmitFIFOStatusGet</text>
</a>
</g>
</g>
<!-- Node1&#45;&gt;Node6 -->
<g id="edge6_Node000001_Node000006" class="edge">
<title>Node1&#45;&gt;Node6</title>
<g id="a_edge6_Node000001_Node000006"><a xlink:title=" ">
<path fill="none" stroke="#63b8ff" d="M61.35,-106.67C76.68,-98.3 99.38,-86.69 120.25,-79 125.68,-77 131.4,-75.13 137.17,-73.41"/>
<polygon fill="#63b8ff" stroke="#63b8ff" points="137.87,-76.57 146.53,-70.48 135.96,-69.84 137.87,-76.57"/>
</a>
</g>
</g>
<!-- Node7 -->
<g id="Node000007" class="node">
<title>Node7</title>
<g id="a_Node000007"><a xlink:href="a00399.html#gaedb86f6e4e8ac0efba711d7f3d7b688c" target="_top" xlink:title="This function enables The FIFO transmit message send request bit.">
<polygon fill="white" stroke="#666666" points="272,-32 120.25,-32 120.25,0 272,0 272,-32"/>
<text text-anchor="start" x="128.25" y="-18.5" font-family="Helvetica,sans-Serif" font-size="10.00">CAN1_TX_FIFO_MessageSend</text>
<text text-anchor="middle" x="196.12" y="-6.5" font-family="Helvetica,sans-Serif" font-size="10.00">Request</text>
</a>
</g>
</g>
<!-- Node1&#45;&gt;Node7 -->
<g id="edge7_Node000001_Node000007" class="edge">
<title>Node1&#45;&gt;Node7</title>
<g id="a_edge7_Node000001_Node000007"><a xlink:title=" ">
<path fill="none" stroke="#63b8ff" d="M51,-106.64C63.82,-90.43 90.76,-59.08 120.25,-41 122.55,-39.59 124.94,-38.25 127.39,-36.97"/>
<polygon fill="#63b8ff" stroke="#63b8ff" points="128.55,-39.82 136.09,-32.38 125.56,-33.5 128.55,-39.82"/>
</a>
</g>
</g>
<!-- Node4&#45;&gt;Node2 -->
<g id="edge4_Node000004_Node000002" class="edge">
<title>Node4&#45;&gt;Node2</title>
<g id="a_edge4_Node000004_Node000002"><a xlink:title=" ">
<path fill="none" stroke="#63b8ff" d="M245.79,-146.48C266.99,-151.05 292.04,-156.45 314.32,-161.25"/>
<polygon fill="#63b8ff" stroke="#63b8ff" points="313.48,-164.87 324,-163.55 314.96,-158.02 313.48,-164.87"/>
</a>
</g>
</g>
</g>
</svg>
