<?xml version="1.0" encoding="UTF-8" standalone="no"?>
<!DOCTYPE svg PUBLIC "-//W3C//DTD SVG 1.1//EN"
 "http://www.w3.org/Graphics/SVG/1.1/DTD/svg11.dtd">
<!-- Generated by graphviz version 8.1.0 (20230707.0739)
 -->
<!-- Title: CAN1_DlcToDataBytesGet Pages: 1 -->
<svg width="653pt" height="113pt"
 viewBox="0.00 0.00 653.25 113.00" xmlns="http://www.w3.org/2000/svg" xmlns:xlink="http://www.w3.org/1999/xlink">
<g id="graph0" class="graph" transform="scale(1 1) rotate(0) translate(4 109)">
<title>CAN1_DlcToDataBytesGet</title>
<!-- Node1 -->
<g id="Node000001" class="node">
<title>Node1</title>
<g id="a_Node000001"><a xlink:title="This function get the DLC enum based decimal value.">
<polygon fill="#999999" stroke="#666666" points="645.25,-48 512.25,-48 512.25,-28 645.25,-28 645.25,-48"/>
<text text-anchor="middle" x="578.75" y="-34.5" font-family="Helvetica,sans-Serif" font-size="10.00">CAN1_DlcToDataBytesGet</text>
</a>
</g>
</g>
<!-- Node2 -->
<g id="Node000002" class="node">
<title>Node2</title>
<g id="a_Node000002"><a xlink:href="a00399.html#gaa89329ca22f234476d55536c446b70e3" target="_top" xlink:title="This function read the message object from receive FIFO and update to the user &#160;&#160;message object point...">
<polygon fill="white" stroke="#666666" points="476.25,-86 329,-86 329,-66 476.25,-66 476.25,-86"/>
<text text-anchor="middle" x="402.62" y="-72.5" font-family="Helvetica,sans-Serif" font-size="10.00">CAN1_MessageReadFromFifo</text>
</a>
</g>
</g>
<!-- Node1&#45;&gt;Node2 -->
<g id="edge1_Node000001_Node000002" class="edge">
<title>Node1&#45;&gt;Node2</title>
<g id="a_edge1_Node000001_Node000002"><a xlink:title=" ">
<path fill="none" stroke="#63b8ff" d="M519.16,-50.79C497.15,-55.59 472.43,-60.99 451.51,-65.55"/>
<polygon fill="#63b8ff" stroke="#63b8ff" points="519.68,-54.04 528.71,-48.48 518.19,-47.2 519.68,-54.04"/>
</a>
</g>
</g>
<!-- Node6 -->
<g id="Node000006" class="node">
<title>Node6</title>
<g id="a_Node000006"><a xlink:href="a00399.html#ga0980f888cad241edaa859783bb4a89d7" target="_top" xlink:title="This function Read the message object from user input and update to the CAN1 TX FIFO.">
<polygon fill="white" stroke="#666666" points="470.62,-48 334.62,-48 334.62,-28 470.62,-28 470.62,-48"/>
<text text-anchor="middle" x="402.62" y="-34.5" font-family="Helvetica,sans-Serif" font-size="10.00">CAN1_MessageWriteToFifo</text>
</a>
</g>
</g>
<!-- Node1&#45;&gt;Node6 -->
<g id="edge5_Node000001_Node000006" class="edge">
<title>Node1&#45;&gt;Node6</title>
<g id="a_edge5_Node000001_Node000006"><a xlink:title=" ">
<path fill="none" stroke="#63b8ff" d="M501.13,-38C491.09,-38 480.86,-38 470.99,-38"/>
<polygon fill="#63b8ff" stroke="#63b8ff" points="500.92,-41.5 510.92,-38 500.92,-34.5 500.92,-41.5"/>
</a>
</g>
</g>
<!-- Node7 -->
<g id="Node000007" class="node">
<title>Node7</title>
<g id="a_Node000007"><a xlink:href="a00399.html#gad99c960d1ed589ce80aca873a90e068e" target="_top" xlink:title="Writes the CAN message object to specified transmit FIFO channel.">
<polygon fill="white" stroke="#666666" points="267.12,-20 182.88,-20 182.88,0 267.12,0 267.12,-20"/>
<text text-anchor="middle" x="225" y="-6.5" font-family="Helvetica,sans-Serif" font-size="10.00">CAN1_Transmit</text>
</a>
</g>
</g>
<!-- Node1&#45;&gt;Node7 -->
<g id="edge8_Node000001_Node000007" class="edge">
<title>Node1&#45;&gt;Node7</title>
<g id="a_edge8_Node000001_Node000007"><a xlink:title=" ">
<path fill="none" stroke="#63b8ff" d="M519.41,-25.54C505.34,-22.96 490.31,-20.56 476.25,-19 403.01,-10.87 317.05,-9.56 267.32,-9.6"/>
<polygon fill="#63b8ff" stroke="#63b8ff" points="518.48,-29.11 528.95,-27.54 519.78,-22.24 518.48,-29.11"/>
</a>
</g>
</g>
<!-- Node3 -->
<g id="Node000003" class="node">
<title>Node3</title>
<g id="a_Node000003"><a xlink:href="a00399.html#ga4fe1df4cd9f0ce122687dcfab0713b5b" target="_top" xlink:title="Reads the received single message object.">
<polygon fill="white" stroke="#666666" points="265.25,-105 184.75,-105 184.75,-85 265.25,-85 265.25,-105"/>
<text text-anchor="middle" x="225" y="-91.5" font-family="Helvetica,sans-Serif" font-size="10.00">CAN1_Receive</text>
</a>
</g>
</g>
<!-- Node2&#45;&gt;Node3 -->
<g id="edge2_Node000002_Node000003" class="edge">
<title>Node2&#45;&gt;Node3</title>
<g id="a_edge2_Node000002_Node000003"><a xlink:title=" ">
<path fill="none" stroke="#63b8ff" d="M317.93,-85.06C299.59,-87.04 281.01,-89.05 265.4,-90.74"/>
<polygon fill="#63b8ff" stroke="#63b8ff" points="318.1,-88.45 327.67,-83.89 317.35,-81.49 318.1,-88.45"/>
</a>
</g>
</g>
<!-- Node5 -->
<g id="Node000005" class="node">
<title>Node5</title>
<g id="a_Node000005"><a xlink:href="a00399.html#ga2c655a58965fff8578916b59bed47297" target="_top" xlink:title="Reads the received single message object from the CAN1 receive FIFO.">
<polygon fill="white" stroke="#666666" points="293,-67 157,-67 157,-47 293,-47 293,-67"/>
<text text-anchor="middle" x="225" y="-53.5" font-family="Helvetica,sans-Serif" font-size="10.00">CAN1_ReceiveMessageGet</text>
</a>
</g>
</g>
<!-- Node2&#45;&gt;Node5 -->
<g id="edge4_Node000002_Node000005" class="edge">
<title>Node2&#45;&gt;Node5</title>
<g id="a_edge4_Node000002_Node000005"><a xlink:title=" ">
<path fill="none" stroke="#63b8ff" d="M317.91,-66.94C309.69,-66.05 301.42,-65.16 293.39,-64.29"/>
<polygon fill="#63b8ff" stroke="#63b8ff" points="317.35,-70.51 327.67,-68.11 318.1,-63.55 317.35,-70.51"/>
</a>
</g>
</g>
<!-- Node4 -->
<g id="Node000004" class="node">
<title>Node4</title>
<g id="a_Node000004"><a xlink:href="a00227.html#a77b41fe067ba8e8d666827b686e52cff" target="_top" xlink:title=" ">
<polygon fill="white" stroke="#666666" points="121,-105 0,-105 0,-85 121,-85 121,-105"/>
<text text-anchor="middle" x="60.5" y="-91.5" font-family="Helvetica,sans-Serif" font-size="10.00">CAN_Receive_from_GUI</text>
</a>
</g>
</g>
<!-- Node3&#45;&gt;Node4 -->
<g id="edge3_Node000003_Node000004" class="edge">
<title>Node3&#45;&gt;Node4</title>
<g id="a_edge3_Node000003_Node000004"><a xlink:title=" ">
<path fill="none" stroke="#63b8ff" d="M174.06,-95C157.43,-95 138.72,-95 121.41,-95"/>
<polygon fill="#63b8ff" stroke="#63b8ff" points="173.66,-98.5 183.66,-95 173.66,-91.5 173.66,-98.5"/>
</a>
</g>
</g>
<!-- Node6&#45;&gt;Node7 -->
<g id="edge6_Node000006_Node000007" class="edge">
<title>Node6&#45;&gt;Node7</title>
<g id="a_edge6_Node000006_Node000007"><a xlink:title=" ">
<path fill="none" stroke="#63b8ff" d="M325.34,-25.84C305.43,-22.66 284.71,-19.36 267.38,-16.6"/>
<polygon fill="#63b8ff" stroke="#63b8ff" points="324.55,-29.42 334.98,-27.53 325.65,-22.5 324.55,-29.42"/>
</a>
</g>
</g>
<!-- Node8 -->
<g id="Node000008" class="node">
<title>Node8</title>
<g id="a_Node000008"><a xlink:href="a00227.html#a9511f6338931225152a644cd0b011f66" target="_top" xlink:title=" ">
<polygon fill="white" stroke="#666666" points="117.62,-20 3.37,-20 3.37,0 117.62,0 117.62,-20"/>
<text text-anchor="middle" x="60.5" y="-6.5" font-family="Helvetica,sans-Serif" font-size="10.00">CAN_Transmit_to_GUI</text>
</a>
</g>
</g>
<!-- Node7&#45;&gt;Node8 -->
<g id="edge7_Node000007_Node000008" class="edge">
<title>Node7&#45;&gt;Node8</title>
<g id="a_edge7_Node000007_Node000008"><a xlink:title=" ">
<path fill="none" stroke="#63b8ff" d="M171.62,-10C154.46,-10 135.32,-10 117.87,-10"/>
<polygon fill="#63b8ff" stroke="#63b8ff" points="171.57,-13.5 181.57,-10 171.57,-6.5 171.57,-13.5"/>
</a>
</g>
</g>
</g>
</svg>
