<?xml version="1.0" encoding="UTF-8" standalone="no"?>
<!DOCTYPE svg PUBLIC "-//W3C//DTD SVG 1.1//EN"
 "http://www.w3.org/Graphics/SVG/1.1/DTD/svg11.dtd">
<!-- Generated by graphviz version 2.44.1 (20200629.0846)
 -->
<!-- Title: FIFOData_SendToPrim Pages: 1 -->
<svg width="389pt" height="27pt"
 viewBox="0.00 0.00 389.00 27.00" xmlns="http://www.w3.org/2000/svg" xmlns:xlink="http://www.w3.org/1999/xlink">
<g id="graph0" class="graph" transform="scale(1 1) rotate(0) translate(4 23)">
<title>FIFOData_SendToPrim</title>
<!-- Node1 -->
<g id="Node000001" class="node">
<title>Node1</title>
<g id="a_Node000001"><a xlink:title="S&#45;&gt;M Fifo.">
<polygon fill="#999999" stroke="#666666" points="381,-19 264,-19 264,0 381,0 381,-19"/>
<text text-anchor="middle" x="322.5" y="-7" font-family="Helvetica,sans-Serif" font-size="10.00">FIFOData_SendToPrim</text>
</a>
</g>
</g>
<!-- Node2 -->
<g id="Node000002" class="node">
<title>Node2</title>
<g id="a_Node000002"><a xlink:href="a00353.html#a0f90f8f2d2212b3afc697c5f9b499a06" target="_top" xlink:title="S&#45;&gt;M Fifo.">
<polygon fill="white" stroke="#666666" points="228,-19 110,-19 110,0 228,0 228,-19"/>
<text text-anchor="middle" x="169" y="-7" font-family="Helvetica,sans-Serif" font-size="10.00">SendMSIFIFOMessage</text>
</a>
</g>
</g>
<!-- Node1&#45;&gt;Node2 -->
<g id="edge1_Node000001_Node000002" class="edge">
<title>Node1&#45;&gt;Node2</title>
<g id="a_edge1_Node000001_Node000002"><a xlink:title=" ">
<path fill="none" stroke="#63b8ff" d="M253.52,-9.5C245.01,-9.5 236.38,-9.5 228.05,-9.5"/>
<polygon fill="#63b8ff" stroke="#63b8ff" points="253.79,-13 263.79,-9.5 253.79,-6 253.79,-13"/>
</a>
</g>
</g>
<!-- Node3 -->
<g id="Node000003" class="node">
<title>Node3</title>
<g id="a_Node000003"><a xlink:href="a00431.html#ga97fda594ad396d08b6a833ebb3b04538" target="_top" xlink:title="tasks run every 100us">
<polygon fill="white" stroke="#666666" points="74,-19 0,-19 0,0 74,0 74,-19"/>
<text text-anchor="middle" x="37" y="-7" font-family="Helvetica,sans-Serif" font-size="10.00">Tasks_100us</text>
</a>
</g>
</g>
<!-- Node2&#45;&gt;Node3 -->
<g id="edge2_Node000002_Node000003" class="edge">
<title>Node2&#45;&gt;Node3</title>
<g id="a_edge2_Node000002_Node000003"><a xlink:title=" ">
<path fill="none" stroke="#63b8ff" d="M99.82,-9.5C90.95,-9.5 82.15,-9.5 74.1,-9.5"/>
<polygon fill="#63b8ff" stroke="#63b8ff" points="99.84,-13 109.84,-9.5 99.84,-6 99.84,-13"/>
</a>
</g>
</g>
</g>
</svg>
