<?xml version="1.0" encoding="UTF-8" standalone="no"?>
<!DOCTYPE svg PUBLIC "-//W3C//DTD SVG 1.1//EN"
 "http://www.w3.org/Graphics/SVG/1.1/DTD/svg11.dtd">
<!-- Generated by graphviz version 8.1.0 (20230707.0739)
 -->
<!-- Title: Secondary Core Layer Pages: 1 -->
<svg width="267pt" height="78pt"
 viewBox="0.00 0.00 267.25 78.00" xmlns="http://www.w3.org/2000/svg" xmlns:xlink="http://www.w3.org/1999/xlink">
<g id="graph0" class="graph" transform="scale(1 1) rotate(0) translate(4 74)">
<title>Secondary Core Layer</title>
<!-- Node3 -->
<g id="Node000003" class="node">
<title>Node3</title>
<g id="a_Node000003"><a xlink:href="a00425.html" target="_top" xlink:title="main task">
<polygon fill="white" stroke="#666666" points="259.25,-70 148.75,-70 148.75,-38 259.25,-38 259.25,-70"/>
<text text-anchor="start" x="156.75" y="-56.5" font-family="Helvetica,sans-Serif" font-size="10.00">Secondary Core state</text>
<text text-anchor="middle" x="204" y="-44.5" font-family="Helvetica,sans-Serif" font-size="10.00"> machine</text>
</a>
</g>
</g>
<!-- Node2 -->
<g id="Node000002" class="node">
<title>Node2</title>
<g id="a_Node000002"><a xlink:href="a00422.html" target="_top" xlink:title="secondary Driver Layer">
<polygon fill="white" stroke="#666666" points="237.5,-20 170.5,-20 170.5,0 237.5,0 237.5,-20"/>
<text text-anchor="middle" x="204" y="-6.5" font-family="Helvetica,sans-Serif" font-size="10.00">Driver Layer</text>
</a>
</g>
</g>
<!-- Node1 -->
<g id="Node000001" class="node">
<title>Node1</title>
<g id="a_Node000001"><a xlink:title="Functions performed by the secondary core of the dsPIC33CH.">
<polygon fill="#999999" stroke="#666666" points="112.75,-42 0,-42 0,-22 112.75,-22 112.75,-42"/>
<text text-anchor="middle" x="56.38" y="-28.5" font-family="Helvetica,sans-Serif" font-size="10.00">Secondary Core Layer</text>
</a>
</g>
</g>
<!-- Node1&#45;&gt;Node3 -->
<g id="edge2" class="edge">
<title>Node1&#45;&gt;Node3</title>
<path fill="none" stroke="black" d="M123.71,-42.02C132.06,-43.28 140.52,-44.56 148.65,-45.79"/>
<polygon fill="black" stroke="black" points="124.26,-38.41 113.84,-40.38 123.21,-45.33 124.26,-38.41"/>
</g>
<!-- Node1&#45;&gt;Node2 -->
<g id="edge1" class="edge">
<title>Node1&#45;&gt;Node2</title>
<path fill="none" stroke="black" d="M123.38,-22.03C139.55,-19.58 156.18,-17.07 170.04,-14.98"/>
<polygon fill="black" stroke="black" points="123.21,-18.67 113.84,-23.62 124.26,-25.59 123.21,-18.67"/>
</g>
</g>
</svg>
