<?xml version="1.0" encoding="UTF-8" standalone="no"?>
<!DOCTYPE svg PUBLIC "-//W3C//DTD SVG 1.1//EN"
 "http://www.w3.org/Graphics/SVG/1.1/DTD/svg11.dtd">
<!-- Generated by graphviz version 8.1.0 (20230707.0739)
 -->
<!-- Title: CAN1_ModeChangeCallbackRegister Pages: 1 -->
<svg width="582pt" height="40pt"
 viewBox="0.00 0.00 582.00 40.00" xmlns="http://www.w3.org/2000/svg" xmlns:xlink="http://www.w3.org/1999/xlink">
<g id="graph0" class="graph" transform="scale(1 1) rotate(0) translate(4 36)">
<title>CAN1_ModeChangeCallbackRegister</title>
<!-- Node1 -->
<g id="Node000001" class="node">
<title>Node1</title>
<g id="a_Node000001"><a xlink:title="This function can be used to override default callback and to define custom callback for CAN1_ModeCha...">
<polygon fill="#999999" stroke="#666666" points="574,-32 432.75,-32 432.75,0 574,0 574,-32"/>
<text text-anchor="start" x="440.75" y="-18.5" font-family="Helvetica,sans-Serif" font-size="10.00">CAN1_ModeChangeCallback</text>
<text text-anchor="middle" x="503.38" y="-6.5" font-family="Helvetica,sans-Serif" font-size="10.00">Register</text>
</a>
</g>
</g>
<!-- Node2 -->
<g id="Node000002" class="node">
<title>Node2</title>
<g id="a_Node000002"><a xlink:href="a00399.html#gaa87a20920f9eeb971cc0fb144ab9f9ee" target="_top" xlink:title="This function enables the CAN1 error notification interrupt.">
<polygon fill="white" stroke="#666666" points="396.75,-26 251,-26 251,-6 396.75,-6 396.75,-26"/>
<text text-anchor="middle" x="323.88" y="-12.5" font-family="Helvetica,sans-Serif" font-size="10.00">CAN1_ErrorNotificationEnable</text>
</a>
</g>
</g>
<!-- Node1&#45;&gt;Node2 -->
<g id="edge1_Node000001_Node000002" class="edge">
<title>Node1&#45;&gt;Node2</title>
<g id="a_edge1_Node000001_Node000002"><a xlink:title=" ">
<path fill="none" stroke="#63b8ff" d="M421.73,-16C413.5,-16 405.18,-16 397.04,-16"/>
<polygon fill="#63b8ff" stroke="#63b8ff" points="421.48,-19.5 431.48,-16 421.48,-12.5 421.48,-19.5"/>
</a>
</g>
</g>
<!-- Node3 -->
<g id="Node000003" class="node">
<title>Node3</title>
<g id="a_Node000003"><a xlink:href="a00399.html#gadd8850a15e40f5316f9e614fd70ec956" target="_top" xlink:title="Initializes CAN1 module.">
<polygon fill="white" stroke="#666666" points="215,-26 133,-26 133,-6 215,-6 215,-26"/>
<text text-anchor="middle" x="174" y="-12.5" font-family="Helvetica,sans-Serif" font-size="10.00">CAN1_Initialize</text>
</a>
</g>
</g>
<!-- Node2&#45;&gt;Node3 -->
<g id="edge2_Node000002_Node000003" class="edge">
<title>Node2&#45;&gt;Node3</title>
<g id="a_edge2_Node000002_Node000003"><a xlink:title=" ">
<path fill="none" stroke="#63b8ff" d="M239.85,-16C231.35,-16 223.01,-16 215.29,-16"/>
<polygon fill="#63b8ff" stroke="#63b8ff" points="239.67,-19.5 249.67,-16 239.67,-12.5 239.67,-19.5"/>
</a>
</g>
</g>
<!-- Node4 -->
<g id="Node000004" class="node">
<title>Node4</title>
<g id="a_Node000004"><a xlink:href="a00406.html#ga5e8391114a0cf91ac20002be25e3d352" target="_top" xlink:title="Initializes the System module.">
<polygon fill="white" stroke="#666666" points="97,-26 0,-26 0,-6 97,-6 97,-26"/>
<text text-anchor="middle" x="48.5" y="-12.5" font-family="Helvetica,sans-Serif" font-size="10.00">SYSTEM_Initialize</text>
</a>
</g>
</g>
<!-- Node3&#45;&gt;Node4 -->
<g id="edge3_Node000003_Node000004" class="edge">
<title>Node3&#45;&gt;Node4</title>
<g id="a_edge3_Node000003_Node000004"><a xlink:title=" ">
<path fill="none" stroke="#63b8ff" d="M121.75,-16C113.67,-16 105.34,-16 97.34,-16"/>
<polygon fill="#63b8ff" stroke="#63b8ff" points="121.56,-19.5 131.56,-16 121.56,-12.5 121.56,-19.5"/>
</a>
</g>
</g>
</g>
</svg>
