<?xml version="1.0" encoding="UTF-8" standalone="no"?>
<!DOCTYPE svg PUBLIC "-//W3C//DTD SVG 1.1//EN"
 "http://www.w3.org/Graphics/SVG/1.1/DTD/svg11.dtd">
<!-- Generated by graphviz version 8.1.0 (20230707.0739)
 -->
<!-- Title: _ADCAN0Interrupt Pages: 1 -->
<svg width="821pt" height="539pt"
 viewBox="0.00 0.00 820.75 538.80" xmlns="http://www.w3.org/2000/svg" xmlns:xlink="http://www.w3.org/1999/xlink">
<g id="graph0" class="graph" transform="scale(1 1) rotate(0) translate(4 534.8)">
<title>_ADCAN0Interrupt</title>
<!-- Node1 -->
<g id="Node000001" class="node">
<title>Node1</title>
<g id="a_Node000001"><a xlink:title=" ">
<polygon fill="#999999" stroke="#666666" points="95.5,-77 0,-77 0,-57 95.5,-57 95.5,-77"/>
<text text-anchor="middle" x="47.75" y="-63.5" font-family="Helvetica,sans-Serif" font-size="10.00">_ADCAN0Interrupt</text>
</a>
</g>
</g>
<!-- Node2 -->
<g id="Node000002" class="node">
<title>Node2</title>
<g id="a_Node000002"><a xlink:href="a00365.html#aa7b8e2dc355948aa24cf22ca82f9e805" target="_top" xlink:title=" ">
<polygon fill="white" stroke="#666666" points="262.25,-153 137.5,-153 137.5,-133 262.25,-133 262.25,-153"/>
<text text-anchor="middle" x="199.88" y="-139.5" font-family="Helvetica,sans-Serif" font-size="10.00">Application_handler_PH1</text>
</a>
</g>
</g>
<!-- Node1&#45;&gt;Node2 -->
<g id="edge1_Node000001_Node000002" class="edge">
<title>Node1&#45;&gt;Node2</title>
<g id="a_edge1_Node000001_Node000002"><a xlink:title=" ">
<path fill="none" stroke="#63b8ff" d="M69.31,-77.41C95.03,-90.43 139.26,-112.82 168.79,-127.77"/>
<polygon fill="#63b8ff" stroke="#63b8ff" points="167.06,-131.32 177.56,-132.72 170.22,-125.08 167.06,-131.32"/>
</a>
</g>
</g>
<!-- Node20 -->
<g id="Node000020" class="node">
<title>Node20</title>
<g id="a_Node000020"><a xlink:href="a00329.html#aab95f406b6fe4938d22bad3a388c8682" target="_top" xlink:title=" ">
<polygon fill="white" stroke="#666666" points="256.25,-58 143.5,-58 143.5,-38 256.25,-38 256.25,-58"/>
<text text-anchor="middle" x="199.88" y="-44.5" font-family="Helvetica,sans-Serif" font-size="10.00">dev_connect_numbers</text>
</a>
</g>
</g>
<!-- Node1&#45;&gt;Node20 -->
<g id="edge36_Node000001_Node000020" class="edge">
<title>Node1&#45;&gt;Node20</title>
<g id="a_edge36_Node000001_Node000020"><a xlink:title=" ">
<path fill="none" stroke="#63b8ff" d="M95.84,-61.04C107.41,-59.58 120.02,-57.98 132.32,-56.42"/>
<polygon fill="#63b8ff" stroke="#63b8ff" points="132.53,-59.8 142.01,-55.07 131.65,-52.85 132.53,-59.8"/>
</a>
</g>
</g>
<!-- Node21 -->
<g id="Node000021" class="node">
<title>Node21</title>
<g id="a_Node000021"><a xlink:href="a00359.html#a315b78111431dff7a91b13e42f9133b1" target="_top" xlink:title=" ">
<polygon fill="white" stroke="#666666" points="631,-96 490.5,-96 490.5,-76 631,-76 631,-96"/>
<text text-anchor="middle" x="560.75" y="-82.5" font-family="Helvetica,sans-Serif" font-size="10.00">Drv_PwrCtrl_TPBLPFC_Stop</text>
</a>
</g>
</g>
<!-- Node1&#45;&gt;Node21 -->
<g id="edge37_Node000001_Node000021" class="edge">
<title>Node1&#45;&gt;Node21</title>
<g id="a_edge37_Node000001_Node000021"><a xlink:title=" ">
<path fill="none" stroke="#63b8ff" d="M95.91,-68.75C183.33,-72 371.46,-79 479.35,-83.01"/>
<polygon fill="#63b8ff" stroke="#63b8ff" points="479.05,-86.54 489.17,-83.41 479.31,-79.54 479.05,-86.54"/>
</a>
</g>
</g>
<!-- Node22 -->
<g id="Node000022" class="node">
<title>Node22</title>
<g id="a_Node000022"><a xlink:href="a00414.html#ga6441b5fad8233f83a6afe63a8861b333" target="_top" xlink:title="This routine reads data from mailbox.">
<polygon fill="white" stroke="#666666" points="268.25,-20 131.5,-20 131.5,0 268.25,0 268.25,-20"/>
<text text-anchor="middle" x="199.88" y="-6.5" font-family="Helvetica,sans-Serif" font-size="10.00">MAIN_CORE_ProtocolRead</text>
</a>
</g>
</g>
<!-- Node1&#45;&gt;Node22 -->
<g id="edge40_Node000001_Node000022" class="edge">
<title>Node1&#45;&gt;Node22</title>
<g id="a_edge40_Node000001_Node000022"><a xlink:title=" ">
<path fill="none" stroke="#63b8ff" d="M69.12,-56.57C85.64,-48.37 109.69,-37.03 131.5,-29 136.64,-27.11 142.06,-25.29 147.51,-23.58"/>
<polygon fill="#63b8ff" stroke="#63b8ff" points="148.37,-26.68 156.93,-20.44 146.35,-19.98 148.37,-26.68"/>
</a>
</g>
</g>
<!-- Node3 -->
<g id="Node000003" class="node">
<title>Node3</title>
<g id="a_Node000003"><a xlink:href="a00365.html#a647fd6dacbfbcebe49cc34111a01493b" target="_top" xlink:title=" ">
<polygon fill="white" stroke="#666666" points="409.5,-324 336.5,-324 336.5,-304 409.5,-304 409.5,-324"/>
<text text-anchor="middle" x="373" y="-310.5" font-family="Helvetica,sans-Serif" font-size="10.00">Handler_PHx</text>
</a>
</g>
</g>
<!-- Node2&#45;&gt;Node3 -->
<g id="edge2_Node000002_Node000003" class="edge">
<title>Node2&#45;&gt;Node3</title>
<g id="a_edge2_Node000002_Node000003"><a xlink:title=" ">
<path fill="none" stroke="#63b8ff" d="M211.32,-153.44C239.67,-181.77 318.31,-260.35 353.99,-296"/>
<polygon fill="#63b8ff" stroke="#63b8ff" points="351.14,-298.1 360.69,-302.7 356.09,-293.15 351.14,-298.1"/>
</a>
</g>
</g>
<!-- Node18 -->
<g id="Node000018" class="node">
<title>Node18</title>
<g id="a_Node000018"><a xlink:href="a00365.html#a3c1c3278a759d0a53b473f7ee8786d12" target="_top" xlink:title=" ">
<polygon fill="white" stroke="#666666" points="620.5,-134 501,-134 501,-114 620.5,-114 620.5,-134"/>
<text text-anchor="middle" x="560.75" y="-120.5" font-family="Helvetica,sans-Serif" font-size="10.00">VOUT_HystereticCheck</text>
</a>
</g>
</g>
<!-- Node2&#45;&gt;Node18 -->
<g id="edge32_Node000002_Node000018" class="edge">
<title>Node2&#45;&gt;Node18</title>
<g id="a_edge32_Node000002_Node000018"><a xlink:title=" ">
<path fill="none" stroke="#63b8ff" d="M262.57,-139.73C325.78,-136.39 423.91,-131.19 489.93,-127.7"/>
<polygon fill="#63b8ff" stroke="#63b8ff" points="489.85,-131.15 499.65,-127.13 489.48,-124.16 489.85,-131.15"/>
</a>
</g>
</g>
<!-- Node19 -->
<g id="Node000019" class="node">
<title>Node19</title>
<g id="a_Node000019"><a xlink:href="a00365.html#a88d1001937f9c64e4327a9828fc17b45" target="_top" xlink:title=" ">
<polygon fill="white" stroke="#666666" points="414.38,-172 331.62,-172 331.62,-152 414.38,-152 414.38,-172"/>
<text text-anchor="middle" x="373" y="-158.5" font-family="Helvetica,sans-Serif" font-size="10.00">VOUTaveraging</text>
</a>
</g>
</g>
<!-- Node2&#45;&gt;Node19 -->
<g id="edge35_Node000002_Node000019" class="edge">
<title>Node2&#45;&gt;Node19</title>
<g id="a_edge35_Node000002_Node000019"><a xlink:title=" ">
<path fill="none" stroke="#63b8ff" d="M262.66,-149.86C281.61,-151.96 302.26,-154.26 320.46,-156.28"/>
<polygon fill="#63b8ff" stroke="#63b8ff" points="319.82,-159.84 330.15,-157.46 320.59,-152.88 319.82,-159.84"/>
</a>
</g>
</g>
<!-- Node4 -->
<g id="Node000004" class="node">
<title>Node4</title>
<g id="a_Node000004"><a xlink:href="a00365.html#af6c4a58221bd490ef4d2084547601a10" target="_top" xlink:title=" ">
<polygon fill="white" stroke="#666666" points="638.12,-172 483.38,-172 483.38,-152 638.12,-152 638.12,-172"/>
<text text-anchor="middle" x="560.75" y="-158.5" font-family="Helvetica,sans-Serif" font-size="10.00">Adaptive_Currentcontroller_Gain</text>
</a>
</g>
</g>
<!-- Node3&#45;&gt;Node4 -->
<g id="edge3_Node000003_Node000004" class="edge">
<title>Node3&#45;&gt;Node4</title>
<g id="a_edge3_Node000003_Node000004"><a xlink:title=" ">
<path fill="none" stroke="#63b8ff" d="M378.87,-303.74C391.41,-278.51 427.39,-213.14 477.75,-181 480.21,-179.43 482.78,-177.99 485.43,-176.67"/>
<polygon fill="#63b8ff" stroke="#63b8ff" points="486.54,-179.57 494.34,-172.39 483.77,-173.15 486.54,-179.57"/>
</a>
</g>
</g>
<!-- Node5 -->
<g id="Node000005" class="node">
<title>Node5</title>
<g id="a_Node000005"><a xlink:href="a00365.html#a51a90512029dd0d15f013ea8548c5e7c" target="_top" xlink:title=" ">
<polygon fill="white" stroke="#666666" points="604.38,-324 517.12,-324 517.12,-304 604.38,-304 604.38,-324"/>
<text text-anchor="middle" x="560.75" y="-310.5" font-family="Helvetica,sans-Serif" font-size="10.00">BurstMode_PHx</text>
</a>
</g>
</g>
<!-- Node3&#45;&gt;Node5 -->
<g id="edge4_Node000003_Node000005" class="edge">
<title>Node3&#45;&gt;Node5</title>
<g id="a_edge4_Node000003_Node000005"><a xlink:title=" ">
<path fill="none" stroke="#63b8ff" d="M409.81,-314C437.16,-314 475.29,-314 506.25,-314"/>
<polygon fill="#63b8ff" stroke="#63b8ff" points="505.87,-317.5 515.87,-314 505.87,-310.5 505.87,-317.5"/>
</a>
</g>
</g>
<!-- Node8 -->
<g id="Node000008" class="node">
<title>Node8</title>
<g id="a_Node000008"><a xlink:href="a00365.html#a69847930c99b34bceb7165143cd28b92" target="_top" xlink:title=" ">
<polygon fill="white" stroke="#666666" points="591.62,-400 529.88,-400 529.88,-380 591.62,-380 591.62,-400"/>
<text text-anchor="middle" x="560.75" y="-386.5" font-family="Helvetica,sans-Serif" font-size="10.00">CCM_PHx</text>
</a>
</g>
</g>
<!-- Node3&#45;&gt;Node8 -->
<g id="edge7_Node000003_Node000008" class="edge">
<title>Node3&#45;&gt;Node8</title>
<g id="a_edge7_Node000003_Node000008"><a xlink:title=" ">
<path fill="none" stroke="#63b8ff" d="M389.52,-324.31C409.25,-336.99 444.73,-358.38 477.75,-371 490.89,-376.02 505.74,-379.95 519.16,-382.9"/>
<polygon fill="#63b8ff" stroke="#63b8ff" points="518.06,-386.46 528.56,-385.06 519.48,-379.6 518.06,-386.46"/>
</a>
</g>
</g>
<!-- Node11 -->
<g id="Node000011" class="node">
<title>Node11</title>
<g id="a_Node000011"><a xlink:href="a00365.html#a02e735cc5f9ec0075b4b0157326fd3db" target="_top" xlink:title=" ">
<polygon fill="white" stroke="#666666" points="631.38,-286 490.12,-286 490.12,-266 631.38,-266 631.38,-286"/>
<text text-anchor="middle" x="560.75" y="-272.5" font-family="Helvetica,sans-Serif" font-size="10.00">DutyCycleFeedForward_PHx</text>
</a>
</g>
</g>
<!-- Node3&#45;&gt;Node11 -->
<g id="edge12_Node000003_Node000011" class="edge">
<title>Node3&#45;&gt;Node11</title>
<g id="a_edge12_Node000003_Node000011"><a xlink:title=" ">
<path fill="none" stroke="#63b8ff" d="M409.81,-306.67C434.79,-301.56 468.75,-294.62 498.04,-288.62"/>
<polygon fill="#63b8ff" stroke="#63b8ff" points="498.5,-291.9 507.59,-286.47 497.09,-285.04 498.5,-291.9"/>
</a>
</g>
</g>
<!-- Node12 -->
<g id="Node000012" class="node">
<title>Node12</title>
<g id="a_Node000012"><a xlink:href="a00401.html#ga37968a783e44cd80643478d2b559dbf4" target="_top" xlink:title="This inline function sets the PWM generator specific duty cycle register.">
<polygon fill="white" stroke="#666666" points="799.25,-491 693.25,-491 693.25,-471 799.25,-471 799.25,-491"/>
<text text-anchor="middle" x="746.25" y="-477.5" font-family="Helvetica,sans-Serif" font-size="10.00">PWM_DutyCycleSet</text>
</a>
</g>
</g>
<!-- Node3&#45;&gt;Node12 -->
<g id="edge13_Node000003_Node000012" class="edge">
<title>Node3&#45;&gt;Node12</title>
<g id="a_edge13_Node000003_Node000012"><a xlink:title=" ">
<path fill="none" stroke="#63b8ff" d="M375.69,-324.14C381.93,-357.86 407.07,-466.55 477.75,-509 552.62,-553.97 660.87,-518.29 713.77,-495.79"/>
<polygon fill="#63b8ff" stroke="#63b8ff" points="714.82,-498.71 722.58,-491.5 712.02,-492.3 714.82,-498.71"/>
</a>
</g>
</g>
<!-- Node13 -->
<g id="Node000013" class="node">
<title>Node13</title>
<g id="a_Node000013"><a xlink:href="a00374.html#ac4c8852561395f2969c08ff062325e03" target="_top" xlink:title=" ">
<polygon fill="white" stroke="#666666" points="632.88,-248 488.62,-248 488.62,-228 632.88,-228 632.88,-248"/>
<text text-anchor="middle" x="560.75" y="-234.5" font-family="Helvetica,sans-Serif" font-size="10.00">SMPS_Controller2P2ZUpdate</text>
</a>
</g>
</g>
<!-- Node3&#45;&gt;Node13 -->
<g id="edge14_Node000003_Node000013" class="edge">
<title>Node3&#45;&gt;Node13</title>
<g id="a_edge14_Node000003_Node000013"><a xlink:title=" ">
<path fill="none" stroke="#63b8ff" d="M389.52,-303.69C409.25,-291.01 444.73,-269.62 477.75,-257 483.21,-254.91 488.97,-253.01 494.79,-251.3"/>
<polygon fill="#63b8ff" stroke="#63b8ff" points="495.6,-254.43 504.3,-248.4 493.73,-247.68 495.6,-254.43"/>
</a>
</g>
</g>
<!-- Node14 -->
<g id="Node000014" class="node">
<title>Node14</title>
<g id="a_Node000014"><a xlink:href="a00365.html#ad3476b7cd98e6a22a65e1d89b7a59ea5" target="_top" xlink:title=" ">
<polygon fill="white" stroke="#666666" points="615.25,-450 506.25,-450 506.25,-418 615.25,-418 615.25,-450"/>
<text text-anchor="start" x="514.25" y="-436.5" font-family="Helvetica,sans-Serif" font-size="10.00">SoftstartAfterZC_PHx</text>
<text text-anchor="middle" x="560.75" y="-424.5" font-family="Helvetica,sans-Serif" font-size="10.00">_GTIMode</text>
</a>
</g>
</g>
<!-- Node3&#45;&gt;Node14 -->
<g id="edge15_Node000003_Node000014" class="edge">
<title>Node3&#45;&gt;Node14</title>
<g id="a_edge15_Node000003_Node000014"><a xlink:title=" ">
<path fill="none" stroke="#63b8ff" d="M382.58,-324.49C399.03,-343.94 437.03,-385.76 477.75,-409 483.43,-412.24 489.58,-415.11 495.87,-417.64"/>
<polygon fill="#63b8ff" stroke="#63b8ff" points="494.23,-421.13 504.82,-421.32 496.66,-414.57 494.23,-421.13"/>
</a>
</g>
</g>
<!-- Node15 -->
<g id="Node000015" class="node">
<title>Node15</title>
<g id="a_Node000015"><a xlink:href="a00365.html#a3e7091905b384bca668f6f12a50834f4" target="_top" xlink:title=" ">
<polygon fill="white" stroke="#666666" points="615.25,-500 506.25,-500 506.25,-468 615.25,-468 615.25,-500"/>
<text text-anchor="start" x="514.25" y="-486.5" font-family="Helvetica,sans-Serif" font-size="10.00">SoftstartAfterZC_PHx</text>
<text text-anchor="middle" x="560.75" y="-474.5" font-family="Helvetica,sans-Serif" font-size="10.00">_PFCMode</text>
</a>
</g>
</g>
<!-- Node3&#45;&gt;Node15 -->
<g id="edge21_Node000003_Node000015" class="edge">
<title>Node3&#45;&gt;Node15</title>
<g id="a_edge21_Node000003_Node000015"><a xlink:title=" ">
<path fill="none" stroke="#63b8ff" d="M378.4,-324.18C390.34,-350.58 425.96,-421.8 477.75,-459 483.22,-462.93 489.33,-466.25 495.66,-469.06"/>
<polygon fill="#63b8ff" stroke="#63b8ff" points="494.18,-472.63 504.76,-473.06 496.75,-466.12 494.18,-472.63"/>
</a>
</g>
</g>
<!-- Node16 -->
<g id="Node000016" class="node">
<title>Node16</title>
<g id="a_Node000016"><a xlink:href="a00374.html#a4fd6e889896907ceaae34b73435d5627" target="_top" xlink:title=" ">
<polygon fill="white" stroke="#666666" points="643.75,-210 477.75,-210 477.75,-190 643.75,-190 643.75,-210"/>
<text text-anchor="middle" x="560.75" y="-196.5" font-family="Helvetica,sans-Serif" font-size="10.00">XFT_SMPS_Controller2P2ZUpdate</text>
</a>
</g>
</g>
<!-- Node3&#45;&gt;Node16 -->
<g id="edge27_Node000003_Node000016" class="edge">
<title>Node3&#45;&gt;Node16</title>
<g id="a_edge27_Node000003_Node000016"><a xlink:title=" ">
<path fill="none" stroke="#63b8ff" d="M382.18,-303.56C398.25,-283.8 436.04,-240.96 477.75,-219 481.08,-217.25 484.58,-215.65 488.17,-214.2"/>
<polygon fill="#63b8ff" stroke="#63b8ff" points="489.25,-217.17 497.47,-210.5 486.88,-210.59 489.25,-217.17"/>
</a>
</g>
</g>
<!-- Node17 -->
<g id="Node000017" class="node">
<title>Node17</title>
<g id="a_Node000017"><a xlink:href="a00365.html#a9d01eea56aae5f1437eb541a321277cc" target="_top" xlink:title=" ">
<polygon fill="white" stroke="#666666" points="602.88,-362 518.62,-362 518.62,-342 602.88,-342 602.88,-362"/>
<text text-anchor="middle" x="560.75" y="-348.5" font-family="Helvetica,sans-Serif" font-size="10.00">ZeroCross_PHx</text>
</a>
</g>
</g>
<!-- Node3&#45;&gt;Node17 -->
<g id="edge28_Node000003_Node000017" class="edge">
<title>Node3&#45;&gt;Node17</title>
<g id="a_edge28_Node000003_Node000017"><a xlink:title=" ">
<path fill="none" stroke="#63b8ff" d="M409.81,-321.33C437.54,-327 476.34,-334.94 507.53,-341.32"/>
<polygon fill="#63b8ff" stroke="#63b8ff" points="506.71,-344.93 517.21,-343.5 508.11,-338.07 506.71,-344.93"/>
</a>
</g>
</g>
<!-- Node6 -->
<g id="Node000006" class="node">
<title>Node6</title>
<g id="a_Node000006"><a xlink:href="a00401.html#ga531b59d8823e3ebda2da60f48582bcf3" target="_top" xlink:title="This inline function enables PWM override on PWMH output for specific PWM generator selected by the a...">
<polygon fill="white" stroke="#666666" points="811.62,-371 680.88,-371 680.88,-351 811.62,-351 811.62,-371"/>
<text text-anchor="middle" x="746.25" y="-357.5" font-family="Helvetica,sans-Serif" font-size="10.00">PWM_OverrideHighEnable</text>
</a>
</g>
</g>
<!-- Node5&#45;&gt;Node6 -->
<g id="edge5_Node000005_Node000006" class="edge">
<title>Node5&#45;&gt;Node6</title>
<g id="a_edge5_Node000005_Node000006"><a xlink:title=" ">
<path fill="none" stroke="#63b8ff" d="M604.81,-323.62C617.39,-326.53 631.14,-329.8 643.75,-333 661.65,-337.54 681.23,-342.86 698.38,-347.63"/>
<polygon fill="#63b8ff" stroke="#63b8ff" points="697.13,-351.2 707.7,-350.52 699.02,-344.46 697.13,-351.2"/>
</a>
</g>
</g>
<!-- Node7 -->
<g id="Node000007" class="node">
<title>Node7</title>
<g id="a_Node000007"><a xlink:href="a00401.html#ga2548ca8feda75ba6ab784280679da6ae" target="_top" xlink:title="This inline function enables PWM override on PWML output for specific PWM generator selected by the a...">
<polygon fill="white" stroke="#666666" points="810.5,-333 682,-333 682,-313 810.5,-313 810.5,-333"/>
<text text-anchor="middle" x="746.25" y="-319.5" font-family="Helvetica,sans-Serif" font-size="10.00">PWM_OverrideLowEnable</text>
</a>
</g>
</g>
<!-- Node5&#45;&gt;Node7 -->
<g id="edge6_Node000005_Node000007" class="edge">
<title>Node5&#45;&gt;Node7</title>
<g id="a_edge6_Node000005_Node000007"><a xlink:title=" ">
<path fill="none" stroke="#63b8ff" d="M604.77,-316.11C624.44,-317.07 648.31,-318.25 670.75,-319.35"/>
<polygon fill="#63b8ff" stroke="#63b8ff" points="670.47,-322.89 680.63,-319.88 670.81,-315.89 670.47,-322.89"/>
</a>
</g>
</g>
<!-- Node8&#45;&gt;Node6 -->
<g id="edge9_Node000008_Node000006" class="edge">
<title>Node8&#45;&gt;Node6</title>
<g id="a_edge9_Node000008_Node000006"><a xlink:title=" ">
<path fill="none" stroke="#63b8ff" d="M592.05,-385.21C613.26,-381.86 642.58,-377.23 669.89,-372.91"/>
<polygon fill="#63b8ff" stroke="#63b8ff" points="670.3,-376.23 679.64,-371.21 669.21,-369.32 670.3,-376.23"/>
</a>
</g>
</g>
<!-- Node8&#45;&gt;Node7 -->
<g id="edge11_Node000008_Node000007" class="edge">
<title>Node8&#45;&gt;Node7</title>
<g id="a_edge11_Node000008_Node000007"><a xlink:title=" ">
<path fill="none" stroke="#63b8ff" d="M592.06,-386.31C608.03,-383.56 627.59,-378.87 643.75,-371 662.22,-362.01 661.53,-351.49 679.75,-342 683.05,-340.28 686.53,-338.7 690.1,-337.24"/>
<polygon fill="#63b8ff" stroke="#63b8ff" points="691.12,-340.22 699.28,-333.47 688.69,-333.66 691.12,-340.22"/>
</a>
</g>
</g>
<!-- Node9 -->
<g id="Node000009" class="node">
<title>Node9</title>
<g id="a_Node000009"><a xlink:href="a00401.html#ga957b002605bfb2239a26f174808b2ad8" target="_top" xlink:title="This inline function disables PWM override on PWMH output for specific PWM generator selected by the ...">
<polygon fill="white" stroke="#666666" points="812.75,-450 679.75,-450 679.75,-430 812.75,-430 812.75,-450"/>
<text text-anchor="middle" x="746.25" y="-436.5" font-family="Helvetica,sans-Serif" font-size="10.00">PWM_OverrideHighDisable</text>
</a>
</g>
</g>
<!-- Node8&#45;&gt;Node9 -->
<g id="edge8_Node000008_Node000009" class="edge">
<title>Node8&#45;&gt;Node9</title>
<g id="a_edge8_Node000008_Node000009"><a xlink:title=" ">
<path fill="none" stroke="#63b8ff" d="M591.91,-396.28C607.48,-399.7 626.73,-404.2 643.75,-409 659.98,-413.58 663.65,-415.98 679.75,-421 685.62,-422.83 691.79,-424.7 697.92,-426.51"/>
<polygon fill="#63b8ff" stroke="#63b8ff" points="696.53,-430.04 707.11,-429.5 698.5,-423.33 696.53,-430.04"/>
</a>
</g>
</g>
<!-- Node10 -->
<g id="Node000010" class="node">
<title>Node10</title>
<g id="a_Node000010"><a xlink:href="a00401.html#gabbedef830c43428e96c7d5125662a8a6" target="_top" xlink:title="This inline function disables PWM override on PWML output for specific PWM generator selected by the ...">
<polygon fill="white" stroke="#666666" points="811.62,-412 680.88,-412 680.88,-392 811.62,-392 811.62,-412"/>
<text text-anchor="middle" x="746.25" y="-398.5" font-family="Helvetica,sans-Serif" font-size="10.00">PWM_OverrideLowDisable</text>
</a>
</g>
</g>
<!-- Node8&#45;&gt;Node10 -->
<g id="edge10_Node000008_Node000010" class="edge">
<title>Node8&#45;&gt;Node10</title>
<g id="a_edge10_Node000008_Node000010"><a xlink:title=" ">
<path fill="none" stroke="#63b8ff" d="M592.05,-391.98C613.26,-393.37 642.58,-395.29 669.89,-397.07"/>
<polygon fill="#63b8ff" stroke="#63b8ff" points="669.43,-400.61 679.64,-397.77 669.89,-393.63 669.43,-400.61"/>
</a>
</g>
</g>
<!-- Node14&#45;&gt;Node6 -->
<g id="edge18_Node000014_Node000006" class="edge">
<title>Node14&#45;&gt;Node6</title>
<g id="a_edge18_Node000014_Node000006"><a xlink:title=" ">
<path fill="none" stroke="#63b8ff" d="M615.67,-420.34C625.24,-417.14 634.95,-413.37 643.75,-409 661.43,-400.23 662.2,-392.02 679.75,-383 685.35,-380.12 691.42,-377.49 697.51,-375.14"/>
<polygon fill="#63b8ff" stroke="#63b8ff" points="698.52,-378.14 706.73,-371.44 696.14,-371.56 698.52,-378.14"/>
</a>
</g>
</g>
<!-- Node14&#45;&gt;Node7 -->
<g id="edge20_Node000014_Node000007" class="edge">
<title>Node14&#45;&gt;Node7</title>
<g id="a_edge20_Node000014_Node000007"><a xlink:title=" ">
<path fill="none" stroke="#63b8ff" d="M615.53,-424.2C625.63,-420.61 635.58,-415.7 643.75,-409 669.89,-387.57 653.47,-363.26 679.75,-342 681.21,-340.82 682.73,-339.72 684.31,-338.68"/>
<polygon fill="#63b8ff" stroke="#63b8ff" points="685.78,-341.33 692.88,-333.47 682.43,-335.18 685.78,-341.33"/>
</a>
</g>
</g>
<!-- Node14&#45;&gt;Node9 -->
<g id="edge17_Node000014_Node000009" class="edge">
<title>Node14&#45;&gt;Node9</title>
<g id="a_edge17_Node000014_Node000009"><a xlink:title=" ">
<path fill="none" stroke="#63b8ff" d="M615.32,-435.75C632.04,-436.3 650.83,-436.91 668.8,-437.5"/>
<polygon fill="#63b8ff" stroke="#63b8ff" points="668.46,-441.02 678.57,-437.85 668.69,-434.03 668.46,-441.02"/>
</a>
</g>
</g>
<!-- Node14&#45;&gt;Node10 -->
<g id="edge19_Node000014_Node000010" class="edge">
<title>Node14&#45;&gt;Node10</title>
<g id="a_edge19_Node000014_Node000010"><a xlink:title=" ">
<path fill="none" stroke="#63b8ff" d="M615.32,-424.66C633.8,-421.44 654.79,-417.78 674.43,-414.35"/>
<polygon fill="#63b8ff" stroke="#63b8ff" points="674.92,-417.64 684.17,-412.48 673.72,-410.75 674.92,-417.64"/>
</a>
</g>
</g>
<!-- Node14&#45;&gt;Node12 -->
<g id="edge16_Node000014_Node000012" class="edge">
<title>Node14&#45;&gt;Node12</title>
<g id="a_edge16_Node000014_Node000012"><a xlink:title=" ">
<path fill="none" stroke="#63b8ff" d="M615.32,-447.72C640.11,-454.07 669.42,-461.58 693.93,-467.85"/>
<polygon fill="#63b8ff" stroke="#63b8ff" points="692.9,-471.46 703.46,-470.55 694.64,-464.68 692.9,-471.46"/>
</a>
</g>
</g>
<!-- Node15&#45;&gt;Node6 -->
<g id="edge24_Node000015_Node000006" class="edge">
<title>Node15&#45;&gt;Node6</title>
<g id="a_edge24_Node000015_Node000006"><a xlink:title=" ">
<path fill="none" stroke="#63b8ff" d="M615.37,-474.67C625.6,-471.04 635.64,-466 643.75,-459 672.04,-434.58 651.8,-407.82 679.75,-383 682.57,-380.49 685.69,-378.27 688.98,-376.3"/>
<polygon fill="#63b8ff" stroke="#63b8ff" points="690.33,-379.04 697.66,-371.39 687.16,-372.8 690.33,-379.04"/>
</a>
</g>
</g>
<!-- Node15&#45;&gt;Node7 -->
<g id="edge26_Node000015_Node000007" class="edge">
<title>Node15&#45;&gt;Node7</title>
<g id="a_edge26_Node000015_Node000007"><a xlink:title=" ">
<path fill="none" stroke="#63b8ff" d="M615.33,-475.85C625.81,-472.15 635.95,-466.78 643.75,-459 682.27,-420.58 640.97,-380.16 679.75,-342 680.62,-341.15 681.52,-340.34 682.45,-339.56"/>
<polygon fill="#63b8ff" stroke="#63b8ff" points="684.19,-341.94 690.57,-333.49 680.31,-336.11 684.19,-341.94"/>
</a>
</g>
</g>
<!-- Node15&#45;&gt;Node9 -->
<g id="edge23_Node000015_Node000009" class="edge">
<title>Node15&#45;&gt;Node9</title>
<g id="a_edge23_Node000015_Node000009"><a xlink:title=" ">
<path fill="none" stroke="#63b8ff" d="M615.32,-471.16C639.08,-465.46 667,-458.76 690.85,-453.04"/>
<polygon fill="#63b8ff" stroke="#63b8ff" points="691.59,-456.23 700.5,-450.49 689.96,-449.42 691.59,-456.23"/>
</a>
</g>
</g>
<!-- Node15&#45;&gt;Node10 -->
<g id="edge25_Node000015_Node000010" class="edge">
<title>Node15&#45;&gt;Node10</title>
<g id="a_edge25_Node000015_Node000010"><a xlink:title=" ">
<path fill="none" stroke="#63b8ff" d="M615.54,-471.97C625.32,-468.59 635.14,-464.33 643.75,-459 663.53,-446.76 659.88,-433.11 679.75,-421 682.36,-419.41 685.1,-417.95 687.93,-416.61"/>
<polygon fill="#63b8ff" stroke="#63b8ff" points="688.93,-419.57 696.8,-412.48 686.23,-413.11 688.93,-419.57"/>
</a>
</g>
</g>
<!-- Node15&#45;&gt;Node12 -->
<g id="edge22_Node000015_Node000012" class="edge">
<title>Node15&#45;&gt;Node12</title>
<g id="a_edge22_Node000015_Node000012"><a xlink:title=" ">
<path fill="none" stroke="#63b8ff" d="M615.32,-483.12C636.22,-482.78 660.35,-482.39 682.09,-482.03"/>
<polygon fill="#63b8ff" stroke="#63b8ff" points="681.94,-485.52 691.88,-481.86 681.82,-478.52 681.94,-485.52"/>
</a>
</g>
</g>
<!-- Node17&#45;&gt;Node6 -->
<g id="edge30_Node000017_Node000006" class="edge">
<title>Node17&#45;&gt;Node6</title>
<g id="a_edge30_Node000017_Node000006"><a xlink:title=" ">
<path fill="none" stroke="#63b8ff" d="M602.93,-354.02C622.63,-354.99 646.86,-356.17 669.71,-357.29"/>
<polygon fill="#63b8ff" stroke="#63b8ff" points="669.27,-360.83 679.43,-357.82 669.62,-353.84 669.27,-360.83"/>
</a>
</g>
</g>
<!-- Node17&#45;&gt;Node7 -->
<g id="edge31_Node000017_Node000007" class="edge">
<title>Node17&#45;&gt;Node7</title>
<g id="a_edge31_Node000017_Node000007"><a xlink:title=" ">
<path fill="none" stroke="#63b8ff" d="M602.93,-345.49C622.91,-342.33 647.54,-338.44 670.66,-334.79"/>
<polygon fill="#63b8ff" stroke="#63b8ff" points="671.18,-338.09 680.51,-333.07 670.08,-331.18 671.18,-338.09"/>
</a>
</g>
</g>
<!-- Node17&#45;&gt;Node12 -->
<g id="edge29_Node000017_Node000012" class="edge">
<title>Node17&#45;&gt;Node12</title>
<g id="a_edge29_Node000017_Node000012"><a xlink:title=" ">
<path fill="none" stroke="#63b8ff" d="M603.17,-353.94C617.38,-356.46 632.51,-361.43 643.75,-371 675.93,-398.39 648.92,-430.1 679.75,-459 682.33,-461.42 685.19,-463.58 688.22,-465.49"/>
<polygon fill="#63b8ff" stroke="#63b8ff" points="686.28,-468.96 696.76,-470.57 689.57,-462.78 686.28,-468.96"/>
</a>
</g>
</g>
<!-- Node18&#45;&gt;Node6 -->
<g id="edge33_Node000018_Node000006" class="edge">
<title>Node18&#45;&gt;Node6</title>
<g id="a_edge33_Node000018_Node000006"><a xlink:title=" ">
<path fill="none" stroke="#63b8ff" d="M620.89,-128.89C629.47,-131.94 637.5,-136.44 643.75,-143 705.74,-208.08 619.56,-275.25 679.75,-342 680.43,-342.75 681.13,-343.47 681.86,-344.17"/>
<polygon fill="#63b8ff" stroke="#63b8ff" points="679.4,-347.44 689.51,-350.58 683.56,-341.81 679.4,-347.44"/>
</a>
</g>
</g>
<!-- Node18&#45;&gt;Node7 -->
<g id="edge34_Node000018_Node000007" class="edge">
<title>Node18&#45;&gt;Node7</title>
<g id="a_edge34_Node000018_Node000007"><a xlink:title=" ">
<path fill="none" stroke="#63b8ff" d="M620.85,-131.4C629.04,-134.17 636.96,-137.92 643.75,-143 698.93,-184.3 728.46,-264.99 739.75,-302.69"/>
<polygon fill="#63b8ff" stroke="#63b8ff" points="736.56,-303.26 742.68,-311.91 743.29,-301.34 736.56,-303.26"/>
</a>
</g>
</g>
<!-- Node21&#45;&gt;Node6 -->
<g id="edge38_Node000021_Node000006" class="edge">
<title>Node21&#45;&gt;Node6</title>
<g id="a_edge38_Node000021_Node000006"><a xlink:title=" ">
<path fill="none" stroke="#63b8ff" d="M631.42,-95.43C635.99,-97.99 640.18,-101.14 643.75,-105 716.13,-183.18 609.53,-261.87 679.75,-342 680.42,-342.76 681.11,-343.49 681.83,-344.19"/>
<polygon fill="#63b8ff" stroke="#63b8ff" points="679.32,-347.44 689.41,-350.67 683.54,-341.85 679.32,-347.44"/>
</a>
</g>
</g>
<!-- Node21&#45;&gt;Node7 -->
<g id="edge39_Node000021_Node000007" class="edge">
<title>Node21&#45;&gt;Node7</title>
<g id="a_edge39_Node000021_Node000007"><a xlink:title=" ">
<path fill="none" stroke="#63b8ff" d="M629.89,-96.45C634.85,-98.78 639.55,-101.59 643.75,-105 707.62,-156.8 733.3,-257.95 741.74,-301.84"/>
<polygon fill="#63b8ff" stroke="#63b8ff" points="738.46,-302.39 743.68,-311.61 745.35,-301.15 738.46,-302.39"/>
</a>
</g>
</g>
<!-- Node23 -->
<g id="Node000023" class="node">
<title>Node23</title>
<g id="a_Node000023"><a xlink:href="a00414.html#ga8b485c96b189f1ace72033f47f88ddd3" target="_top" xlink:title="This inline function checks whether mailbox is full. Returns true if New data are ready to read....">
<polygon fill="white" stroke="#666666" points="441.75,-20 304.25,-20 304.25,0 441.75,0 441.75,-20"/>
<text text-anchor="middle" x="373" y="-6.5" font-family="Helvetica,sans-Serif" font-size="10.00">MAIN_CORE_ProtocolIsFull</text>
</a>
</g>
</g>
<!-- Node22&#45;&gt;Node23 -->
<g id="edge41_Node000022_Node000023" class="edge">
<title>Node22&#45;&gt;Node23</title>
<g id="a_edge41_Node000022_Node000023"><a xlink:title=" ">
<path fill="none" stroke="#63b8ff" d="M268.51,-10C276.63,-10 284.97,-10 293.23,-10"/>
<polygon fill="#63b8ff" stroke="#63b8ff" points="293.02,-13.5 303.02,-10 293.02,-6.5 293.02,-13.5"/>
</a>
</g>
</g>
</g>
</svg>
