<?xml version="1.0" encoding="UTF-8" standalone="no"?>
<!DOCTYPE svg PUBLIC "-//W3C//DTD SVG 1.1//EN"
 "http://www.w3.org/Graphics/SVG/1.1/DTD/svg11.dtd">
<!-- Generated by graphviz version 8.1.0 (20230707.0739)
 -->
<!-- Title: CAN1_OperationModeGet Pages: 1 -->
<svg width="584pt" height="142pt"
 viewBox="0.00 0.00 583.50 142.00" xmlns="http://www.w3.org/2000/svg" xmlns:xlink="http://www.w3.org/1999/xlink">
<g id="graph0" class="graph" transform="scale(1 1) rotate(0) translate(4 138)">
<title>CAN1_OperationModeGet</title>
<!-- Node1 -->
<g id="Node000001" class="node">
<title>Node1</title>
<g id="a_Node000001"><a xlink:title="Get the CAN1 operation mode.">
<polygon fill="#999999" stroke="#666666" points="575.5,-58 447,-58 447,-38 575.5,-38 575.5,-58"/>
<text text-anchor="middle" x="511.25" y="-44.5" font-family="Helvetica,sans-Serif" font-size="10.00">CAN1_OperationModeGet</text>
</a>
</g>
</g>
<!-- Node2 -->
<g id="Node000002" class="node">
<title>Node2</title>
<g id="a_Node000002"><a xlink:href="a00399.html#gaf5fa07221c88fc4aadfb447301ebfb0e" target="_top" xlink:title="Sets the CAN1 operation mode.">
<polygon fill="white" stroke="#666666" points="411,-86 283.25,-86 283.25,-66 411,-66 411,-86"/>
<text text-anchor="middle" x="347.12" y="-72.5" font-family="Helvetica,sans-Serif" font-size="10.00">CAN1_OperationModeSet</text>
</a>
</g>
</g>
<!-- Node1&#45;&gt;Node2 -->
<g id="edge1_Node000001_Node000002" class="edge">
<title>Node1&#45;&gt;Node2</title>
<g id="a_edge1_Node000001_Node000002"><a xlink:title=" ">
<path fill="none" stroke="#63b8ff" d="M439.05,-60.3C428.97,-62.04 418.68,-63.82 408.82,-65.52"/>
<polygon fill="#63b8ff" stroke="#63b8ff" points="439.62,-63.58 448.88,-58.43 438.43,-56.68 439.62,-63.58"/>
</a>
</g>
</g>
<!-- Node7 -->
<g id="Node000007" class="node">
<title>Node7</title>
<g id="a_Node000007"><a xlink:href="a00399.html#gad99c960d1ed589ce80aca873a90e068e" target="_top" xlink:title="Writes the CAN message object to specified transmit FIFO channel.">
<polygon fill="white" stroke="#666666" points="389.25,-39 305,-39 305,-19 389.25,-19 389.25,-39"/>
<text text-anchor="middle" x="347.12" y="-25.5" font-family="Helvetica,sans-Serif" font-size="10.00">CAN1_Transmit</text>
</a>
</g>
</g>
<!-- Node1&#45;&gt;Node7 -->
<g id="edge6_Node000001_Node000007" class="edge">
<title>Node1&#45;&gt;Node7</title>
<g id="a_edge6_Node000001_Node000007"><a xlink:title=" ">
<path fill="none" stroke="#63b8ff" d="M435.75,-39.27C419.89,-37.41 403.7,-35.51 389.62,-33.86"/>
<polygon fill="#63b8ff" stroke="#63b8ff" points="435.3,-42.86 445.64,-40.55 436.11,-35.9 435.3,-42.86"/>
</a>
</g>
</g>
<!-- Node3 -->
<g id="Node000003" class="node">
<title>Node3</title>
<g id="a_Node000003"><a xlink:href="a00399.html#gaeb50d539a3c66d129458ae0927c3ba34" target="_top" xlink:title="Deinitializes CAN1 to POR values.">
<polygon fill="white" stroke="#666666" points="237.12,-134 143.12,-134 143.12,-114 237.12,-114 237.12,-134"/>
<text text-anchor="middle" x="190.12" y="-120.5" font-family="Helvetica,sans-Serif" font-size="10.00">CAN1_Deinitialize</text>
</a>
</g>
</g>
<!-- Node2&#45;&gt;Node3 -->
<g id="edge2_Node000002_Node000003" class="edge">
<title>Node2&#45;&gt;Node3</title>
<g id="a_edge2_Node000002_Node000003"><a xlink:title=" ">
<path fill="none" stroke="#63b8ff" d="M302.03,-89.66C277.55,-97.24 247.57,-106.52 224.96,-113.52"/>
<polygon fill="#63b8ff" stroke="#63b8ff" points="302.98,-92.72 311.49,-86.42 300.9,-86.03 302.98,-92.72"/>
</a>
</g>
</g>
<!-- Node4 -->
<g id="Node000004" class="node">
<title>Node4</title>
<g id="a_Node000004"><a xlink:href="a00399.html#gadd8850a15e40f5316f9e614fd70ec956" target="_top" xlink:title="Initializes CAN1 module.">
<polygon fill="white" stroke="#666666" points="231.12,-96 149.12,-96 149.12,-76 231.12,-76 231.12,-96"/>
<text text-anchor="middle" x="190.12" y="-82.5" font-family="Helvetica,sans-Serif" font-size="10.00">CAN1_Initialize</text>
</a>
</g>
</g>
<!-- Node2&#45;&gt;Node4 -->
<g id="edge3_Node000002_Node000004" class="edge">
<title>Node2&#45;&gt;Node4</title>
<g id="a_edge3_Node000002_Node000004"><a xlink:title=" ">
<path fill="none" stroke="#63b8ff" d="M272.36,-80.76C258.26,-81.67 244,-82.59 231.44,-83.4"/>
<polygon fill="#63b8ff" stroke="#63b8ff" points="272.33,-84.2 282.08,-80.07 271.88,-77.22 272.33,-84.2"/>
</a>
</g>
</g>
<!-- Node6 -->
<g id="Node000006" class="node">
<title>Node6</title>
<g id="a_Node000006"><a xlink:href="a00399.html#ga41d9a27d9d5e04efcb58c31006f43f98" target="_top" xlink:title="Sets the CAN node in sleep mode.">
<polygon fill="white" stroke="#666666" points="225.88,-58 154.38,-58 154.38,-38 225.88,-38 225.88,-58"/>
<text text-anchor="middle" x="190.12" y="-44.5" font-family="Helvetica,sans-Serif" font-size="10.00">CAN1_Sleep</text>
</a>
</g>
</g>
<!-- Node2&#45;&gt;Node6 -->
<g id="edge5_Node000002_Node000006" class="edge">
<title>Node2&#45;&gt;Node6</title>
<g id="a_edge5_Node000002_Node000006"><a xlink:title=" ">
<path fill="none" stroke="#63b8ff" d="M277.68,-63.64C259.79,-60.4 241.24,-57.05 225.92,-54.29"/>
<polygon fill="#63b8ff" stroke="#63b8ff" points="276.95,-67.24 287.41,-65.57 278.19,-60.35 276.95,-67.24"/>
</a>
</g>
</g>
<!-- Node5 -->
<g id="Node000005" class="node">
<title>Node5</title>
<g id="a_Node000005"><a xlink:href="a00406.html#ga5e8391114a0cf91ac20002be25e3d352" target="_top" xlink:title="Initializes the System module.">
<polygon fill="white" stroke="#666666" points="97,-96 0,-96 0,-76 97,-76 97,-96"/>
<text text-anchor="middle" x="48.5" y="-82.5" font-family="Helvetica,sans-Serif" font-size="10.00">SYSTEM_Initialize</text>
</a>
</g>
</g>
<!-- Node4&#45;&gt;Node5 -->
<g id="edge4_Node000004_Node000005" class="edge">
<title>Node4&#45;&gt;Node5</title>
<g id="a_edge4_Node000004_Node000005"><a xlink:title=" ">
<path fill="none" stroke="#63b8ff" d="M137.9,-86C124.68,-86 110.5,-86 97.45,-86"/>
<polygon fill="#63b8ff" stroke="#63b8ff" points="137.74,-89.5 147.74,-86 137.74,-82.5 137.74,-89.5"/>
</a>
</g>
</g>
<!-- Node8 -->
<g id="Node000008" class="node">
<title>Node8</title>
<g id="a_Node000008"><a xlink:href="a00227.html#a9511f6338931225152a644cd0b011f66" target="_top" xlink:title=" ">
<polygon fill="white" stroke="#666666" points="247.25,-20 133,-20 133,0 247.25,0 247.25,-20"/>
<text text-anchor="middle" x="190.12" y="-6.5" font-family="Helvetica,sans-Serif" font-size="10.00">CAN_Transmit_to_GUI</text>
</a>
</g>
</g>
<!-- Node7&#45;&gt;Node8 -->
<g id="edge7_Node000007_Node000008" class="edge">
<title>Node7&#45;&gt;Node8</title>
<g id="a_edge7_Node000007_Node000008"><a xlink:title=" ">
<path fill="none" stroke="#63b8ff" d="M294.02,-22.61C279.11,-20.79 262.8,-18.79 247.64,-16.93"/>
<polygon fill="#63b8ff" stroke="#63b8ff" points="293.24,-26.17 303.59,-23.91 294.09,-19.22 293.24,-26.17"/>
</a>
</g>
</g>
</g>
</svg>
