<?xml version="1.0" encoding="UTF-8" standalone="no"?>
<!DOCTYPE svg PUBLIC "-//W3C//DTD SVG 1.1//EN"
 "http://www.w3.org/Graphics/SVG/1.1/DTD/svg11.dtd">
<!-- Generated by graphviz version 2.44.1 (20200629.0846)
 -->
<!-- Title: C:/Users/M70027/Documents/Projects/tp&#45;deployment/dspic33ch&#45;power&#45;totem&#45;pole&#45;demonstration&#45;application&#45;single&#45;phase_v2/dspic33ch_totem_pole_single_phase_secondary_IL.X/sources/devices/dev_TPBLPFC_numberconnection_typedef.c Pages: 1 -->
<svg width="447pt" height="214pt"
 viewBox="0.00 0.00 447.00 214.00" xmlns="http://www.w3.org/2000/svg" xmlns:xlink="http://www.w3.org/1999/xlink">
<g id="graph0" class="graph" transform="scale(1 1) rotate(0) translate(4 210)">
<title>C:/Users/M70027/Documents/Projects/tp&#45;deployment/dspic33ch&#45;power&#45;totem&#45;pole&#45;demonstration&#45;application&#45;single&#45;phase_v2/dspic33ch_totem_pole_single_phase_secondary_IL.X/sources/devices/dev_TPBLPFC_numberconnection_typedef.c</title>
<!-- Node1 -->
<g id="Node000001" class="node">
<title>Node1</title>
<g id="a_Node000001"><a xlink:title="This is the typedef file for power controller.">
<polygon fill="#999999" stroke="#666666" points="356,-206 71,-206 71,-121 356,-121 356,-206"/>
<text text-anchor="start" x="79" y="-194" font-family="Helvetica,sans-Serif" font-size="10.00">C:/Users/M70027/Documents</text>
<text text-anchor="start" x="79" y="-183" font-family="Helvetica,sans-Serif" font-size="10.00">/Projects/tp&#45;deployment</text>
<text text-anchor="start" x="79" y="-172" font-family="Helvetica,sans-Serif" font-size="10.00">/dspic33ch&#45;power&#45;totem&#45;pole</text>
<text text-anchor="start" x="79" y="-161" font-family="Helvetica,sans-Serif" font-size="10.00">&#45;demonstration&#45;application</text>
<text text-anchor="start" x="79" y="-150" font-family="Helvetica,sans-Serif" font-size="10.00">&#45;single&#45;phase_v2/dspic33ch_totem</text>
<text text-anchor="start" x="79" y="-139" font-family="Helvetica,sans-Serif" font-size="10.00">_pole_single_phase_secondary_IL.X</text>
<text text-anchor="middle" x="213.5" y="-128" font-family="Helvetica,sans-Serif" font-size="10.00">/sources/devices/dev_TPBLPFC_numberconnection_typedef.c</text>
</a>
</g>
</g>
<!-- Node2 -->
<g id="Node000002" class="node">
<title>Node2</title>
<g id="a_Node000002"><a xlink:title=" ">
<polygon fill="#e0e0e0" stroke="#999999" points="113,-79.5 0,-79.5 0,-60.5 113,-60.5 113,-79.5"/>
<text text-anchor="middle" x="56.5" y="-67.5" font-family="Helvetica,sans-Serif" font-size="10.00">p33CH512MP506S1.h</text>
</a>
</g>
</g>
<!-- Node1&#45;&gt;Node2 -->
<g id="edge1_Node000001_Node000002" class="edge">
<title>Node1&#45;&gt;Node2</title>
<g id="a_edge1_Node000001_Node000002"><a xlink:title=" ">
<path fill="none" stroke="#63b8ff" d="M141.89,-120.77C119.72,-107.84 96.8,-94.49 80.3,-84.87"/>
<polygon fill="#63b8ff" stroke="#63b8ff" points="81.78,-81.68 71.38,-79.67 78.26,-87.73 81.78,-81.68"/>
</a>
</g>
</g>
<!-- Node3 -->
<g id="Node000003" class="node">
<title>Node3</title>
<g id="a_Node000003"><a xlink:href="a00338.html" target="_top" xlink:title="This is the typedef file for power controller.">
<polygon fill="white" stroke="#666666" points="295.5,-85 131.5,-85 131.5,-55 295.5,-55 295.5,-85"/>
<text text-anchor="start" x="139.5" y="-73" font-family="Helvetica,sans-Serif" font-size="10.00">dev_TPBLPFC_numberconnection</text>
<text text-anchor="middle" x="213.5" y="-62" font-family="Helvetica,sans-Serif" font-size="10.00">_typedef.h</text>
</a>
</g>
</g>
<!-- Node1&#45;&gt;Node3 -->
<g id="edge2_Node000001_Node000003" class="edge">
<title>Node1&#45;&gt;Node3</title>
<g id="a_edge2_Node000001_Node000003"><a xlink:title=" ">
<path fill="none" stroke="#63b8ff" d="M213.5,-120.77C213.5,-112.05 213.5,-103.14 213.5,-95.32"/>
<polygon fill="#63b8ff" stroke="#63b8ff" points="217,-95.1 213.5,-85.1 210,-95.1 217,-95.1"/>
</a>
</g>
</g>
<!-- Node5 -->
<g id="Node000005" class="node">
<title>Node5</title>
<g id="a_Node000005"><a xlink:href="a00344.html" target="_top" xlink:title="This is the typedef file for power controller.">
<polygon fill="white" stroke="#666666" points="439,-79.5 314,-79.5 314,-60.5 439,-60.5 439,-79.5"/>
<text text-anchor="middle" x="376.5" y="-67.5" font-family="Helvetica,sans-Serif" font-size="10.00">dev_TPBLPFC_typedef.h</text>
</a>
</g>
</g>
<!-- Node1&#45;&gt;Node5 -->
<g id="edge4_Node000001_Node000005" class="edge">
<title>Node1&#45;&gt;Node5</title>
<g id="a_edge4_Node000001_Node000005"><a xlink:title=" ">
<path fill="none" stroke="#63b8ff" d="M287.85,-120.77C311.08,-107.72 335.1,-94.24 352.27,-84.6"/>
<polygon fill="#63b8ff" stroke="#63b8ff" points="354.04,-87.62 361.05,-79.67 350.62,-81.52 354.04,-87.62"/>
</a>
</g>
</g>
<!-- Node4 -->
<g id="Node000004" class="node">
<title>Node4</title>
<g id="a_Node000004"><a xlink:title=" ">
<polygon fill="#e0e0e0" stroke="#999999" points="283,-19 248,-19 248,0 283,0 283,-19"/>
<text text-anchor="middle" x="265.5" y="-7" font-family="Helvetica,sans-Serif" font-size="10.00">xc.h</text>
</a>
</g>
</g>
<!-- Node3&#45;&gt;Node4 -->
<g id="edge3_Node000003_Node000004" class="edge">
<title>Node3&#45;&gt;Node4</title>
<g id="a_edge3_Node000003_Node000004"><a xlink:title=" ">
<path fill="none" stroke="#63b8ff" d="M226.09,-54.84C233.56,-46.43 243.06,-35.74 250.87,-26.96"/>
<polygon fill="#63b8ff" stroke="#63b8ff" points="253.68,-29.07 257.71,-19.27 248.45,-24.41 253.68,-29.07"/>
</a>
</g>
</g>
<!-- Node5&#45;&gt;Node4 -->
<g id="edge5_Node000005_Node000004" class="edge">
<title>Node5&#45;&gt;Node4</title>
<g id="a_edge5_Node000005_Node000004"><a xlink:title=" ">
<path fill="none" stroke="#63b8ff" d="M360.12,-60.37C341.92,-50.78 312.3,-35.17 291.05,-23.97"/>
<polygon fill="#63b8ff" stroke="#63b8ff" points="292.42,-20.73 281.95,-19.17 289.16,-26.93 292.42,-20.73"/>
</a>
</g>
</g>
<!-- Node6 -->
<g id="Node000006" class="node">
<title>Node6</title>
<g id="a_Node000006"><a xlink:title=" ">
<polygon fill="#e0e0e0" stroke="#999999" points="401,-19 352,-19 352,0 401,0 401,-19"/>
<text text-anchor="middle" x="376.5" y="-7" font-family="Helvetica,sans-Serif" font-size="10.00">stdint.h</text>
</a>
</g>
</g>
<!-- Node5&#45;&gt;Node6 -->
<g id="edge6_Node000005_Node000006" class="edge">
<title>Node5&#45;&gt;Node6</title>
<g id="a_edge6_Node000005_Node000006"><a xlink:title=" ">
<path fill="none" stroke="#63b8ff" d="M376.5,-60.37C376.5,-52.25 376.5,-39.81 376.5,-29.39"/>
<polygon fill="#63b8ff" stroke="#63b8ff" points="380,-29.17 376.5,-19.17 373,-29.17 380,-29.17"/>
</a>
</g>
</g>
</g>
</svg>
