<?xml version="1.0" encoding="UTF-8" standalone="no"?>
<!DOCTYPE svg PUBLIC "-//W3C//DTD SVG 1.1//EN"
 "http://www.w3.org/Graphics/SVG/1.1/DTD/svg11.dtd">
<!-- Generated by graphviz version 2.44.1 (20200629.0846)
 -->
<!-- Title: Application_handler_PH2 Pages: 1 -->
<svg width="616pt" height="384pt"
 viewBox="0.00 0.00 616.00 384.00" xmlns="http://www.w3.org/2000/svg" xmlns:xlink="http://www.w3.org/1999/xlink">
<g id="graph0" class="graph" transform="scale(1 1) rotate(0) translate(4 380)">
<title>Application_handler_PH2</title>
<!-- Node1 -->
<g id="Node000001" class="node">
<title>Node1</title>
<g id="a_Node000001"><a xlink:title=" ">
<polygon fill="#999999" stroke="#666666" points="125,-198 0,-198 0,-179 125,-179 125,-198"/>
<text text-anchor="middle" x="62.5" y="-186" font-family="Helvetica,sans-Serif" font-size="10.00">Application_handler_PH2</text>
</a>
</g>
</g>
<!-- Node2 -->
<g id="Node000002" class="node">
<title>Node2</title>
<g id="a_Node000002"><a xlink:href="a00371.html#a647fd6dacbfbcebe49cc34111a01493b" target="_top" xlink:title=" ">
<polygon fill="white" stroke="#666666" points="235,-198 161,-198 161,-179 235,-179 235,-198"/>
<text text-anchor="middle" x="198" y="-186" font-family="Helvetica,sans-Serif" font-size="10.00">Handler_PHx</text>
</a>
</g>
</g>
<!-- Node1&#45;&gt;Node2 -->
<g id="edge1_Node000001_Node000002" class="edge">
<title>Node1&#45;&gt;Node2</title>
<g id="a_edge1_Node000001_Node000002"><a xlink:title=" ">
<path fill="none" stroke="#63b8ff" d="M125.17,-188.5C133.72,-188.5 142.38,-188.5 150.59,-188.5"/>
<polygon fill="#63b8ff" stroke="#63b8ff" points="150.7,-192 160.7,-188.5 150.7,-185 150.7,-192"/>
</a>
</g>
</g>
<!-- Node3 -->
<g id="Node000003" class="node">
<title>Node3</title>
<g id="a_Node000003"><a xlink:href="a00371.html#af6c4a58221bd490ef4d2084547601a10" target="_top" xlink:title=" ">
<polygon fill="white" stroke="#666666" points="432,-376 277,-376 277,-357 432,-357 432,-376"/>
<text text-anchor="middle" x="354.5" y="-364" font-family="Helvetica,sans-Serif" font-size="10.00">Adaptive_Currentcontroller_Gain</text>
</a>
</g>
</g>
<!-- Node2&#45;&gt;Node3 -->
<g id="edge2_Node000002_Node000003" class="edge">
<title>Node2&#45;&gt;Node3</title>
<g id="a_edge2_Node000002_Node000003"><a xlink:title=" ">
<path fill="none" stroke="#63b8ff" d="M200.33,-198.24C204.7,-226.35 221.32,-308.21 271,-348.5 272.41,-349.64 273.87,-350.72 275.39,-351.73"/>
<polygon fill="#63b8ff" stroke="#63b8ff" points="274.08,-355.01 284.52,-356.83 277.5,-348.9 274.08,-355.01"/>
</a>
</g>
</g>
<!-- Node4 -->
<g id="Node000004" class="node">
<title>Node4</title>
<g id="a_Node000004"><a xlink:href="a00371.html#a51a90512029dd0d15f013ea8548c5e7c" target="_top" xlink:title=" ">
<polygon fill="white" stroke="#666666" points="398.5,-339 310.5,-339 310.5,-320 398.5,-320 398.5,-339"/>
<text text-anchor="middle" x="354.5" y="-327" font-family="Helvetica,sans-Serif" font-size="10.00">BurstMode_PHx</text>
</a>
</g>
</g>
<!-- Node2&#45;&gt;Node4 -->
<g id="edge3_Node000002_Node000004" class="edge">
<title>Node2&#45;&gt;Node4</title>
<g id="a_edge3_Node000002_Node000004"><a xlink:title=" ">
<path fill="none" stroke="#63b8ff" d="M201.75,-198.34C208.9,-221.94 230.35,-281.99 271,-311.5 279.63,-317.77 290.02,-321.92 300.47,-324.67"/>
<polygon fill="#63b8ff" stroke="#63b8ff" points="299.93,-328.13 310.45,-326.89 301.45,-321.3 299.93,-328.13"/>
</a>
</g>
</g>
<!-- Node7 -->
<g id="Node000007" class="node">
<title>Node7</title>
<g id="a_Node000007"><a xlink:href="a00371.html#a69847930c99b34bceb7165143cd28b92" target="_top" xlink:title=" ">
<polygon fill="white" stroke="#666666" points="385.5,-302 323.5,-302 323.5,-283 385.5,-283 385.5,-302"/>
<text text-anchor="middle" x="354.5" y="-290" font-family="Helvetica,sans-Serif" font-size="10.00">CCM_PHx</text>
</a>
</g>
</g>
<!-- Node2&#45;&gt;Node7 -->
<g id="edge6_Node000002_Node000007" class="edge">
<title>Node2&#45;&gt;Node7</title>
<g id="a_edge6_Node000002_Node000007"><a xlink:title=" ">
<path fill="none" stroke="#63b8ff" d="M204.3,-198.16C214.64,-216.03 239.29,-254.18 271,-273.5 283.63,-281.19 299.07,-285.77 313.16,-288.5"/>
<polygon fill="#63b8ff" stroke="#63b8ff" points="312.68,-291.97 323.13,-290.18 313.84,-285.07 312.68,-291.97"/>
</a>
</g>
</g>
<!-- Node10 -->
<g id="Node000010" class="node">
<title>Node10</title>
<g id="a_Node000010"><a xlink:href="a00371.html#a02e735cc5f9ec0075b4b0157326fd3db" target="_top" xlink:title=" ">
<polygon fill="white" stroke="#666666" points="425.5,-93 283.5,-93 283.5,-74 425.5,-74 425.5,-93"/>
<text text-anchor="middle" x="354.5" y="-81" font-family="Helvetica,sans-Serif" font-size="10.00">DutyCycleFeedForward_PHx</text>
</a>
</g>
</g>
<!-- Node2&#45;&gt;Node10 -->
<g id="edge11_Node000002_Node000010" class="edge">
<title>Node2&#45;&gt;Node10</title>
<g id="a_edge11_Node000002_Node000010"><a xlink:title=" ">
<path fill="none" stroke="#63b8ff" d="M204.86,-178.93C215.76,-161.97 240.78,-126.6 271,-107.5 278.16,-102.97 286.2,-99.28 294.38,-96.26"/>
<polygon fill="#63b8ff" stroke="#63b8ff" points="295.64,-99.53 304.01,-93.03 293.41,-92.89 295.64,-99.53"/>
</a>
</g>
</g>
<!-- Node11 -->
<g id="Node000011" class="node">
<title>Node11</title>
<g id="a_Node000011"><a xlink:href="a00407.html#ga37968a783e44cd80643478d2b559dbf4" target="_top" xlink:title="This inline function sets the PWM generator specific duty cycle register.">
<polygon fill="white" stroke="#666666" points="594.5,-154 487.5,-154 487.5,-135 594.5,-135 594.5,-154"/>
<text text-anchor="middle" x="541" y="-142" font-family="Helvetica,sans-Serif" font-size="10.00">PWM_DutyCycleSet</text>
</a>
</g>
</g>
<!-- Node2&#45;&gt;Node11 -->
<g id="edge12_Node000002_Node000011" class="edge">
<title>Node2&#45;&gt;Node11</title>
<g id="a_edge12_Node000002_Node000011"><a xlink:title=" ">
<path fill="none" stroke="#63b8ff" d="M209.18,-178.81C222.27,-167.08 246.27,-147.99 271,-140.5 340.65,-119.41 425.16,-125.47 480.64,-133.45"/>
<polygon fill="#63b8ff" stroke="#63b8ff" points="480.24,-136.93 490.65,-134.96 481.28,-130.01 480.24,-136.93"/>
</a>
</g>
</g>
<!-- Node12 -->
<g id="Node000012" class="node">
<title>Node12</title>
<g id="a_Node000012"><a xlink:href="a00380.html#ac4c8852561395f2969c08ff062325e03" target="_top" xlink:title=" ">
<polygon fill="white" stroke="#666666" points="427,-56 282,-56 282,-37 427,-37 427,-56"/>
<text text-anchor="middle" x="354.5" y="-44" font-family="Helvetica,sans-Serif" font-size="10.00">SMPS_Controller2P2ZUpdate</text>
</a>
</g>
</g>
<!-- Node2&#45;&gt;Node12 -->
<g id="edge13_Node000002_Node000012" class="edge">
<title>Node2&#45;&gt;Node12</title>
<g id="a_edge13_Node000002_Node000012"><a xlink:title=" ">
<path fill="none" stroke="#63b8ff" d="M201.63,-178.93C208.61,-155.39 229.96,-94.41 271,-64.5 272.88,-63.13 274.84,-61.86 276.86,-60.69"/>
<polygon fill="#63b8ff" stroke="#63b8ff" points="278.71,-63.68 286.12,-56.12 275.6,-57.41 278.71,-63.68"/>
</a>
</g>
</g>
<!-- Node13 -->
<g id="Node000013" class="node">
<title>Node13</title>
<g id="a_Node000013"><a xlink:href="a00371.html#ad3476b7cd98e6a22a65e1d89b7a59ea5" target="_top" xlink:title=" ">
<polygon fill="white" stroke="#666666" points="409.5,-227.5 299.5,-227.5 299.5,-197.5 409.5,-197.5 409.5,-227.5"/>
<text text-anchor="start" x="307.5" y="-215.5" font-family="Helvetica,sans-Serif" font-size="10.00">SoftstartAfterZC_PHx</text>
<text text-anchor="middle" x="354.5" y="-204.5" font-family="Helvetica,sans-Serif" font-size="10.00">_GTIMode</text>
</a>
</g>
</g>
<!-- Node2&#45;&gt;Node13 -->
<g id="edge14_Node000002_Node000013" class="edge">
<title>Node2&#45;&gt;Node13</title>
<g id="a_edge14_Node000002_Node000013"><a xlink:title=" ">
<path fill="none" stroke="#63b8ff" d="M235.22,-194.13C251.33,-196.63 270.78,-199.65 289.22,-202.52"/>
<polygon fill="#63b8ff" stroke="#63b8ff" points="288.92,-206.01 299.34,-204.09 289.99,-199.09 288.92,-206.01"/>
</a>
</g>
</g>
<!-- Node14 -->
<g id="Node000014" class="node">
<title>Node14</title>
<g id="a_Node000014"><a xlink:href="a00371.html#a3e7091905b384bca668f6f12a50834f4" target="_top" xlink:title=" ">
<polygon fill="white" stroke="#666666" points="409.5,-179.5 299.5,-179.5 299.5,-149.5 409.5,-149.5 409.5,-179.5"/>
<text text-anchor="start" x="307.5" y="-167.5" font-family="Helvetica,sans-Serif" font-size="10.00">SoftstartAfterZC_PHx</text>
<text text-anchor="middle" x="354.5" y="-156.5" font-family="Helvetica,sans-Serif" font-size="10.00">_PFCMode</text>
</a>
</g>
</g>
<!-- Node2&#45;&gt;Node14 -->
<g id="edge20_Node000002_Node000014" class="edge">
<title>Node2&#45;&gt;Node14</title>
<g id="a_edge20_Node000002_Node000014"><a xlink:title=" ">
<path fill="none" stroke="#63b8ff" d="M235.22,-182.87C251.33,-180.37 270.78,-177.35 289.22,-174.48"/>
<polygon fill="#63b8ff" stroke="#63b8ff" points="289.99,-177.91 299.34,-172.91 288.92,-170.99 289.99,-177.91"/>
</a>
</g>
</g>
<!-- Node15 -->
<g id="Node000015" class="node">
<title>Node15</title>
<g id="a_Node000015"><a xlink:href="a00380.html#a4fd6e889896907ceaae34b73435d5627" target="_top" xlink:title=" ">
<polygon fill="white" stroke="#666666" points="438,-19 271,-19 271,0 438,0 438,-19"/>
<text text-anchor="middle" x="354.5" y="-7" font-family="Helvetica,sans-Serif" font-size="10.00">XFT_SMPS_Controller2P2ZUpdate</text>
</a>
</g>
</g>
<!-- Node2&#45;&gt;Node15 -->
<g id="edge26_Node000002_Node000015" class="edge">
<title>Node2&#45;&gt;Node15</title>
<g id="a_edge26_Node000002_Node000015"><a xlink:title=" ">
<path fill="none" stroke="#63b8ff" d="M200.31,-178.7C204.62,-150.41 221.1,-68.06 271,-27.5 272.41,-26.36 273.87,-25.28 275.38,-24.27"/>
<polygon fill="#63b8ff" stroke="#63b8ff" points="277.5,-27.1 284.51,-19.16 274.07,-20.99 277.5,-27.1"/>
</a>
</g>
</g>
<!-- Node16 -->
<g id="Node000016" class="node">
<title>Node16</title>
<g id="a_Node000016"><a xlink:href="a00371.html#a9d01eea56aae5f1437eb541a321277cc" target="_top" xlink:title=" ">
<polygon fill="white" stroke="#666666" points="397,-265 312,-265 312,-246 397,-246 397,-265"/>
<text text-anchor="middle" x="354.5" y="-253" font-family="Helvetica,sans-Serif" font-size="10.00">ZeroCross_PHx</text>
</a>
</g>
</g>
<!-- Node2&#45;&gt;Node16 -->
<g id="edge27_Node000002_Node000016" class="edge">
<title>Node2&#45;&gt;Node16</title>
<g id="a_edge27_Node000002_Node000016"><a xlink:title=" ">
<path fill="none" stroke="#63b8ff" d="M210.46,-198.07C224.06,-208.96 247.82,-226.5 271,-236.5 280.72,-240.69 291.49,-244.03 301.96,-246.66"/>
<polygon fill="#63b8ff" stroke="#63b8ff" points="301.33,-250.1 311.86,-248.97 302.92,-243.29 301.33,-250.1"/>
</a>
</g>
</g>
<!-- Node5 -->
<g id="Node000005" class="node">
<title>Node5</title>
<g id="a_Node000005"><a xlink:href="a00407.html#ga531b59d8823e3ebda2da60f48582bcf3" target="_top" xlink:title="This inline function enables PWM override on PWMH output for specific PWM generator selected by the a...">
<polygon fill="white" stroke="#666666" points="606.5,-265 475.5,-265 475.5,-246 606.5,-246 606.5,-265"/>
<text text-anchor="middle" x="541" y="-253" font-family="Helvetica,sans-Serif" font-size="10.00">PWM_OverrideHighEnable</text>
</a>
</g>
</g>
<!-- Node4&#45;&gt;Node5 -->
<g id="edge4_Node000004_Node000005" class="edge">
<title>Node4&#45;&gt;Node5</title>
<g id="a_edge4_Node000004_Node000005"><a xlink:title=" ">
<path fill="none" stroke="#63b8ff" d="M398.81,-325.05C411.99,-322.41 426.13,-318.2 438,-311.5 458.26,-300.07 454.04,-285.45 474,-273.5 476.85,-271.79 479.87,-270.24 482.99,-268.84"/>
<polygon fill="#63b8ff" stroke="#63b8ff" points="484.54,-271.98 492.54,-265.04 481.96,-265.48 484.54,-271.98"/>
</a>
</g>
</g>
<!-- Node6 -->
<g id="Node000006" class="node">
<title>Node6</title>
<g id="a_Node000006"><a xlink:href="a00407.html#ga2548ca8feda75ba6ab784280679da6ae" target="_top" xlink:title="This inline function enables PWM override on PWML output for specific PWM generator selected by the a...">
<polygon fill="white" stroke="#666666" points="605.5,-302 476.5,-302 476.5,-283 605.5,-283 605.5,-302"/>
<text text-anchor="middle" x="541" y="-290" font-family="Helvetica,sans-Serif" font-size="10.00">PWM_OverrideLowEnable</text>
</a>
</g>
</g>
<!-- Node4&#45;&gt;Node6 -->
<g id="edge5_Node000004_Node000006" class="edge">
<title>Node4&#45;&gt;Node6</title>
<g id="a_edge5_Node000004_Node000006"><a xlink:title=" ">
<path fill="none" stroke="#63b8ff" d="M398.76,-320.83C423.69,-315.83 455.35,-309.48 482.37,-304.06"/>
<polygon fill="#63b8ff" stroke="#63b8ff" points="483.36,-307.43 492.48,-302.03 481.99,-300.56 483.36,-307.43"/>
</a>
</g>
</g>
<!-- Node7&#45;&gt;Node5 -->
<g id="edge8_Node000007_Node000005" class="edge">
<title>Node7&#45;&gt;Node5</title>
<g id="a_edge8_Node000007_Node000005"><a xlink:title=" ">
<path fill="none" stroke="#63b8ff" d="M385.55,-286.47C411.63,-281.24 450.11,-273.53 482.14,-267.1"/>
<polygon fill="#63b8ff" stroke="#63b8ff" points="483.17,-270.47 492.29,-265.07 481.8,-263.6 483.17,-270.47"/>
</a>
</g>
</g>
<!-- Node7&#45;&gt;Node6 -->
<g id="edge10_Node000007_Node000006" class="edge">
<title>Node7&#45;&gt;Node6</title>
<g id="a_edge10_Node000007_Node000006"><a xlink:title=" ">
<path fill="none" stroke="#63b8ff" d="M385.55,-292.5C407.38,-292.5 437.9,-292.5 466.05,-292.5"/>
<polygon fill="#63b8ff" stroke="#63b8ff" points="466.3,-296 476.3,-292.5 466.3,-289 466.3,-296"/>
</a>
</g>
</g>
<!-- Node8 -->
<g id="Node000008" class="node">
<title>Node8</title>
<g id="a_Node000008"><a xlink:href="a00407.html#ga957b002605bfb2239a26f174808b2ad8" target="_top" xlink:title="This inline function disables PWM override on PWMH output for specific PWM generator selected by the ...">
<polygon fill="white" stroke="#666666" points="608,-191 474,-191 474,-172 608,-172 608,-191"/>
<text text-anchor="middle" x="541" y="-179" font-family="Helvetica,sans-Serif" font-size="10.00">PWM_OverrideHighDisable</text>
</a>
</g>
</g>
<!-- Node7&#45;&gt;Node8 -->
<g id="edge7_Node000007_Node000008" class="edge">
<title>Node7&#45;&gt;Node8</title>
<g id="a_edge7_Node000007_Node000008"><a xlink:title=" ">
<path fill="none" stroke="#63b8ff" d="M385.71,-291.79C402.65,-289.96 423.28,-285.21 438,-273.5 466.62,-250.73 445.84,-222.84 474,-199.5 475.54,-198.22 477.17,-197.03 478.86,-195.93"/>
<polygon fill="#63b8ff" stroke="#63b8ff" points="480.67,-198.93 487.79,-191.08 477.33,-192.78 480.67,-198.93"/>
</a>
</g>
</g>
<!-- Node9 -->
<g id="Node000009" class="node">
<title>Node9</title>
<g id="a_Node000009"><a xlink:href="a00407.html#gabbedef830c43428e96c7d5125662a8a6" target="_top" xlink:title="This inline function disables PWM override on PWML output for specific PWM generator selected by the ...">
<polygon fill="white" stroke="#666666" points="606.5,-228 475.5,-228 475.5,-209 606.5,-209 606.5,-228"/>
<text text-anchor="middle" x="541" y="-216" font-family="Helvetica,sans-Serif" font-size="10.00">PWM_OverrideLowDisable</text>
</a>
</g>
</g>
<!-- Node7&#45;&gt;Node9 -->
<g id="edge9_Node000007_Node000009" class="edge">
<title>Node7&#45;&gt;Node9</title>
<g id="a_edge9_Node000007_Node000009"><a xlink:title=" ">
<path fill="none" stroke="#63b8ff" d="M385.62,-289.75C401.95,-287.25 421.99,-282.51 438,-273.5 457.99,-262.24 454.23,-248.15 474,-236.5 476.86,-234.81 479.89,-233.28 483.01,-231.88"/>
<polygon fill="#63b8ff" stroke="#63b8ff" points="484.57,-235.03 492.58,-228.11 482,-228.52 484.57,-235.03"/>
</a>
</g>
</g>
<!-- Node13&#45;&gt;Node5 -->
<g id="edge17_Node000013_Node000005" class="edge">
<title>Node13&#45;&gt;Node5</title>
<g id="a_edge17_Node000013_Node000005"><a xlink:title=" ">
<path fill="none" stroke="#63b8ff" d="M409.86,-225.17C434.99,-231.03 464.66,-237.94 489.32,-243.69"/>
<polygon fill="#63b8ff" stroke="#63b8ff" points="488.67,-247.13 499.2,-245.99 490.26,-240.31 488.67,-247.13"/>
</a>
</g>
</g>
<!-- Node13&#45;&gt;Node6 -->
<g id="edge19_Node000013_Node000006" class="edge">
<title>Node13&#45;&gt;Node6</title>
<g id="a_edge19_Node000013_Node000006"><a xlink:title=" ">
<path fill="none" stroke="#63b8ff" d="M409.56,-223.87C419.41,-227.13 429.31,-231.28 438,-236.5 457.67,-248.32 454.32,-261.71 474,-273.5 477.62,-275.67 481.51,-277.61 485.52,-279.33"/>
<polygon fill="#63b8ff" stroke="#63b8ff" points="484.42,-282.66 495.01,-282.97 486.93,-276.12 484.42,-282.66"/>
</a>
</g>
</g>
<!-- Node13&#45;&gt;Node8 -->
<g id="edge16_Node000013_Node000008" class="edge">
<title>Node13&#45;&gt;Node8</title>
<g id="a_edge16_Node000013_Node000008"><a xlink:title=" ">
<path fill="none" stroke="#63b8ff" d="M409.86,-203.37C429.68,-200.04 452.33,-196.23 473.11,-192.74"/>
<polygon fill="#63b8ff" stroke="#63b8ff" points="473.86,-196.16 483.15,-191.05 472.7,-189.26 473.86,-196.16"/>
</a>
</g>
</g>
<!-- Node13&#45;&gt;Node9 -->
<g id="edge18_Node000013_Node000009" class="edge">
<title>Node13&#45;&gt;Node9</title>
<g id="a_edge18_Node000013_Node000009"><a xlink:title=" ">
<path fill="none" stroke="#63b8ff" d="M409.86,-214.27C427.17,-214.83 446.63,-215.46 465.13,-216.07"/>
<polygon fill="#63b8ff" stroke="#63b8ff" points="465.18,-219.57 475.28,-216.4 465.4,-212.57 465.18,-219.57"/>
</a>
</g>
</g>
<!-- Node13&#45;&gt;Node11 -->
<g id="edge15_Node000013_Node000011" class="edge">
<title>Node13&#45;&gt;Node11</title>
<g id="a_edge15_Node000013_Node000011"><a xlink:title=" ">
<path fill="none" stroke="#63b8ff" d="M409.76,-199.6C419.39,-196.51 429.15,-192.82 438,-188.5 455.73,-179.84 456.19,-171.01 474,-162.5 478.03,-160.58 482.29,-158.83 486.64,-157.25"/>
<polygon fill="#63b8ff" stroke="#63b8ff" points="487.86,-160.53 496.24,-154.05 485.64,-153.89 487.86,-160.53"/>
</a>
</g>
</g>
<!-- Node14&#45;&gt;Node5 -->
<g id="edge23_Node000014_Node000005" class="edge">
<title>Node14&#45;&gt;Node5</title>
<g id="a_edge23_Node000014_Node000005"><a xlink:title=" ">
<path fill="none" stroke="#63b8ff" d="M409.7,-174.84C419.64,-178.2 429.54,-182.64 438,-188.5 459.93,-203.67 452.05,-221.36 474,-236.5 476.88,-238.49 479.98,-240.27 483.19,-241.87"/>
<polygon fill="#63b8ff" stroke="#63b8ff" points="481.93,-245.14 492.5,-245.9 484.71,-238.72 481.93,-245.14"/>
</a>
</g>
</g>
<!-- Node14&#45;&gt;Node6 -->
<g id="edge25_Node000014_Node000006" class="edge">
<title>Node14&#45;&gt;Node6</title>
<g id="a_edge25_Node000014_Node000006"><a xlink:title=" ">
<path fill="none" stroke="#63b8ff" d="M409.65,-172.81C419.93,-176.34 429.97,-181.36 438,-188.5 468.66,-215.76 443.3,-246.29 474,-273.5 475.78,-275.07 477.68,-276.52 479.67,-277.84"/>
<polygon fill="#63b8ff" stroke="#63b8ff" points="478.46,-281.17 488.9,-282.92 481.83,-275.04 478.46,-281.17"/>
</a>
</g>
</g>
<!-- Node14&#45;&gt;Node8 -->
<g id="edge22_Node000014_Node000008" class="edge">
<title>Node14&#45;&gt;Node8</title>
<g id="a_edge22_Node000014_Node000008"><a xlink:title=" ">
<path fill="none" stroke="#63b8ff" d="M409.86,-169.51C426.81,-171.07 445.83,-172.82 463.98,-174.5"/>
<polygon fill="#63b8ff" stroke="#63b8ff" points="463.67,-177.98 473.95,-175.41 464.32,-171.01 463.67,-177.98"/>
</a>
</g>
</g>
<!-- Node14&#45;&gt;Node9 -->
<g id="edge24_Node000014_Node000009" class="edge">
<title>Node14&#45;&gt;Node9</title>
<g id="a_edge24_Node000014_Node000009"><a xlink:title=" ">
<path fill="none" stroke="#63b8ff" d="M407.46,-179.5C417.6,-182.46 428.14,-185.56 438,-188.5 454.03,-193.28 457.96,-194.74 474,-199.5 481.31,-201.67 489.09,-203.94 496.65,-206.13"/>
<polygon fill="#63b8ff" stroke="#63b8ff" points="495.82,-209.53 506.39,-208.94 497.75,-202.81 495.82,-209.53"/>
</a>
</g>
</g>
<!-- Node14&#45;&gt;Node11 -->
<g id="edge21_Node000014_Node000011" class="edge">
<title>Node14&#45;&gt;Node11</title>
<g id="a_edge21_Node000014_Node000011"><a xlink:title=" ">
<path fill="none" stroke="#63b8ff" d="M409.86,-158.61C430.96,-156.32 455.27,-153.68 477.12,-151.32"/>
<polygon fill="#63b8ff" stroke="#63b8ff" points="477.73,-154.77 487.3,-150.21 476.98,-147.81 477.73,-154.77"/>
</a>
</g>
</g>
<!-- Node16&#45;&gt;Node5 -->
<g id="edge29_Node000016_Node000005" class="edge">
<title>Node16&#45;&gt;Node5</title>
<g id="a_edge29_Node000016_Node000005"><a xlink:title=" ">
<path fill="none" stroke="#63b8ff" d="M397.37,-255.5C417.46,-255.5 442.16,-255.5 465.33,-255.5"/>
<polygon fill="#63b8ff" stroke="#63b8ff" points="465.49,-259 475.49,-255.5 465.49,-252 465.49,-259"/>
</a>
</g>
</g>
<!-- Node16&#45;&gt;Node6 -->
<g id="edge30_Node000016_Node000006" class="edge">
<title>Node16&#45;&gt;Node6</title>
<g id="a_edge30_Node000016_Node000006"><a xlink:title=" ">
<path fill="none" stroke="#63b8ff" d="M397.37,-263.9C422.55,-268.95 454.97,-275.45 482.53,-280.98"/>
<polygon fill="#63b8ff" stroke="#63b8ff" points="481.95,-284.43 492.45,-282.96 483.33,-277.57 481.95,-284.43"/>
</a>
</g>
</g>
<!-- Node16&#45;&gt;Node11 -->
<g id="edge28_Node000016_Node000011" class="edge">
<title>Node16&#45;&gt;Node11</title>
<g id="a_edge28_Node000016_Node000011"><a xlink:title=" ">
<path fill="none" stroke="#63b8ff" d="M397.26,-253.13C411.4,-250.55 426.5,-245.65 438,-236.5 466.62,-213.73 445.84,-185.84 474,-162.5 475.54,-161.22 477.17,-160.03 478.86,-158.93"/>
<polygon fill="#63b8ff" stroke="#63b8ff" points="480.67,-161.93 487.79,-154.08 477.33,-155.78 480.67,-161.93"/>
</a>
</g>
</g>
</g>
</svg>
