<?xml version="1.0" encoding="UTF-8" standalone="no"?>
<!DOCTYPE svg PUBLIC "-//W3C//DTD SVG 1.1//EN"
 "http://www.w3.org/Graphics/SVG/1.1/DTD/svg11.dtd">
<!-- Generated by graphviz version 2.44.1 (20200629.0846)
 -->
<!-- Title: C:/Users/M70027/Documents/Projects/tp&#45;deployment/dspic33ch&#45;power&#45;totem&#45;pole&#45;demonstration&#45;application&#45;single&#45;phase_v2/dspic33ch_totem_pole_single_phase_secondary_IL.X/sources/driver/msi/drv_msi.c Pages: 1 -->
<!--zoomable 280 -->

<svg id="main" version="1.1" xmlns="http://www.w3.org/2000/svg" xmlns:xlink="http://www.w3.org/1999/xlink" xml:space="preserve" onload="init(evt)">

<style type="text/css"><![CDATA[
.node, .edge {opacity: 0.7;}
.node.selected, .edge.selected {opacity: 1;}
.edge:hover path { stroke: red; }
.edge:hover polygon { stroke: red; fill: red; }
]]></style>

<defs>
  <circle id="rim" cx="0" cy="0" r="7"/>
  <circle id="rim2" cx="0" cy="0" r="3.5"/>
  <g id="zoomPlus">
    <use xlink:href="#rim" fill="#404040"><set attributeName="fill" to="#808080" begin="zoomplus.mouseover" end="zoomplus.mouseout"/></use>
    <path d="M-4,0h8M0,-4v8" fill="none" stroke="white" stroke-width="1.5" pointer-events="none"/>
  </g>
  <g id="zoomMin">
    <use xlink:href="#rim" fill="#404040"><set attributeName="fill" to="#808080" begin="zoomminus.mouseover" end="zoomminus.mouseout"/></use>
    <path d="M-4,0h8" fill="none" stroke="white" stroke-width="1.5" pointer-events="none"/>
  </g>
  <g id="arrowUp" transform="translate(30 24)">
    <use xlink:href="#rim"/>
    <path pointer-events="none" fill="none" stroke="white" stroke-width="1.5" d="M0,-3.0v7 M-2.5,-0.5L0,-3.0L2.5,-0.5"/>
  </g>
  <g id="arrowRight" transform="rotate(90) translate(36 -43)">
    <use xlink:href="#rim"/>
    <path pointer-events="none" fill="none" stroke="white" stroke-width="1.5" d="M0,-3.0v7 M-2.5,-0.5L0,-3.0L2.5,-0.5"/>
  </g>
  <g id="arrowDown" transform="rotate(180) translate(-30 -48)">
    <use xlink:href="#rim"/>
    <path pointer-events="none" fill="none" stroke="white" stroke-width="1.5" d="M0,-3.0v7 M-2.5,-0.5L0,-3.0L2.5,-0.5"/>
  </g>
  <g id="arrowLeft" transform="rotate(270) translate(-36 17)">
    <use xlink:href="#rim"/>
    <path pointer-events="none" fill="none" stroke="white" stroke-width="1.5" d="M0,-3.0v7 M-2.5,-0.5L0,-3.0L2.5,-0.5"/>
  </g>
  <g id="resetDef">
    <use xlink:href="#rim2" fill="#404040"><set attributeName="fill" to="#808080" begin="reset.mouseover" end="reset.mouseout"/></use>
  </g>
</defs>
<script type="application/ecmascript">
var viewWidth = 716;
var viewHeight = 280;
var sectionId = 'dynsection-0';
</script>
<script type="application/ecmascript" xlink:href="svg.min.js"/>
<svg id="graph" class="graph">
<g id="viewport">
<title>C:/Users/M70027/Documents/Projects/tp&#45;deployment/dspic33ch&#45;power&#45;totem&#45;pole&#45;demonstration&#45;application&#45;single&#45;phase_v2/dspic33ch_totem_pole_single_phase_secondary_IL.X/sources/driver/msi/drv_msi.c</title>
<!-- Node1 -->
<g id="Node000001" class="node">
<title>Node1</title>
<g id="a_Node000001"><a xlink:title="This is the driver source file for MSI.">
<polygon fill="#999999" stroke="#666666" points="433,-272 260,-272 260,-187 433,-187 433,-272"/>
<text text-anchor="start" x="268" y="-260" font-family="Helvetica,sans-Serif" font-size="10.00">C:/Users/M70027/Documents</text>
<text text-anchor="start" x="268" y="-249" font-family="Helvetica,sans-Serif" font-size="10.00">/Projects/tp&#45;deployment</text>
<text text-anchor="start" x="268" y="-238" font-family="Helvetica,sans-Serif" font-size="10.00">/dspic33ch&#45;power&#45;totem&#45;pole</text>
<text text-anchor="start" x="268" y="-227" font-family="Helvetica,sans-Serif" font-size="10.00">&#45;demonstration&#45;application</text>
<text text-anchor="start" x="268" y="-216" font-family="Helvetica,sans-Serif" font-size="10.00">&#45;single&#45;phase_v2/dspic33ch_totem</text>
<text text-anchor="start" x="268" y="-205" font-family="Helvetica,sans-Serif" font-size="10.00">_pole_single_phase_secondary_IL.X</text>
<text text-anchor="middle" x="346.5" y="-194" font-family="Helvetica,sans-Serif" font-size="10.00">/sources/driver/msi/drv_msi.c</text>
</a>
</g>
</g>
<!-- Node2 -->
<g id="Node000002" class="node">
<title>Node2</title>
<g id="a_Node000002"><a xlink:title=" ">
<polygon fill="#e0e0e0" stroke="#999999" points="113,-140 0,-140 0,-121 113,-121 113,-140"/>
<text text-anchor="middle" x="56.5" y="-128" font-family="Helvetica,sans-Serif" font-size="10.00">p33CH512MP506S1.h</text>
</a>
</g>
</g>
<!-- Node1&#45;&gt;Node2 -->
<g id="edge1_Node000001_Node000002" class="edge">
<title>Node1&#45;&gt;Node2</title>
<g id="a_edge1_Node000001_Node000002"><a xlink:title=" ">
<path fill="none" stroke="#63b8ff" d="M259.88,-199.53C203.6,-180.7 133.24,-157.17 91.75,-143.29"/>
<polygon fill="#63b8ff" stroke="#63b8ff" points="92.7,-139.92 82.1,-140.06 90.48,-146.56 92.7,-139.92"/>
</a>
</g>
</g>
<!-- Node3 -->
<g id="Node000003" class="node">
<title>Node3</title>
<g id="a_Node000003"><a xlink:href="a00356.html" target="_top" xlink:title="This is the driver header file for MSI.">
<polygon fill="white" stroke="#666666" points="318.5,-140 260.5,-140 260.5,-121 318.5,-121 318.5,-140"/>
<text text-anchor="middle" x="289.5" y="-128" font-family="Helvetica,sans-Serif" font-size="10.00">drv_msi.h</text>
</a>
</g>
</g>
<!-- Node1&#45;&gt;Node3 -->
<g id="edge2_Node000001_Node000003" class="edge">
<title>Node1&#45;&gt;Node3</title>
<g id="a_edge2_Node000001_Node000003"><a xlink:title=" ">
<path fill="none" stroke="#63b8ff" d="M322,-186.8C314.14,-173.43 305.87,-159.36 299.64,-148.76"/>
<polygon fill="#63b8ff" stroke="#63b8ff" points="302.65,-146.97 294.56,-140.12 296.61,-150.51 302.65,-146.97"/>
</a>
</g>
</g>
<!-- Node5 -->
<g id="Node000005" class="node">
<title>Node5</title>
<g id="a_Node000005"><a xlink:href="a00296.html" target="_top" xlink:title="This is the generated driver header file for the MAIN_CORE driver.">
<polygon fill="white" stroke="#666666" points="242,-151 131,-151 131,-110 242,-110 242,-151"/>
<text text-anchor="start" x="139" y="-139" font-family="Helvetica,sans-Serif" font-size="10.00">../../../mcc_generated</text>
<text text-anchor="start" x="139" y="-128" font-family="Helvetica,sans-Serif" font-size="10.00">_files/main_core/main</text>
<text text-anchor="middle" x="186.5" y="-117" font-family="Helvetica,sans-Serif" font-size="10.00">_core.h</text>
</a>
</g>
</g>
<!-- Node1&#45;&gt;Node5 -->
<g id="edge4_Node000001_Node000005" class="edge">
<title>Node1&#45;&gt;Node5</title>
<g id="a_edge4_Node000001_Node000005"><a xlink:title=" ">
<path fill="none" stroke="#63b8ff" d="M277.72,-186.8C260.58,-176.41 242.75,-165.6 227.44,-156.32"/>
<polygon fill="#63b8ff" stroke="#63b8ff" points="229.11,-153.24 218.75,-151.05 225.48,-159.23 229.11,-153.24"/>
</a>
</g>
</g>
<!-- Node11 -->
<g id="Node000011" class="node">
<title>Node11</title>
<g id="a_Node000011"><a xlink:href="a00344.html" target="_top" xlink:title="This is the typedef file for power controller.">
<polygon fill="white" stroke="#666666" points="472.5,-151 336.5,-151 336.5,-110 472.5,-110 472.5,-151"/>
<text text-anchor="start" x="344.5" y="-139" font-family="Helvetica,sans-Serif" font-size="10.00">../power_controller</text>
<text text-anchor="start" x="344.5" y="-128" font-family="Helvetica,sans-Serif" font-size="10.00">/../../devices/dev_TPBLPFC</text>
<text text-anchor="middle" x="404.5" y="-117" font-family="Helvetica,sans-Serif" font-size="10.00">_typedef.h</text>
</a>
</g>
</g>
<!-- Node1&#45;&gt;Node11 -->
<g id="edge14_Node000001_Node000011" class="edge">
<title>Node1&#45;&gt;Node11</title>
<g id="a_edge14_Node000001_Node000011"><a xlink:title=" ">
<path fill="none" stroke="#63b8ff" d="M371.43,-186.8C376.89,-177.67 382.54,-168.22 387.6,-159.77"/>
<polygon fill="#63b8ff" stroke="#63b8ff" points="390.68,-161.43 392.81,-151.05 384.67,-157.84 390.68,-161.43"/>
</a>
</g>
</g>
<!-- Node12 -->
<g id="Node000012" class="node">
<title>Node12</title>
<g id="a_Node000012"><a xlink:href="a00898_source.html" target="_top" xlink:title=" ">
<polygon fill="white" stroke="#666666" points="574.5,-140 490.5,-140 490.5,-121 574.5,-121 574.5,-140"/>
<text text-anchor="middle" x="532.5" y="-128" font-family="Helvetica,sans-Serif" font-size="10.00">../../../revision.h</text>
</a>
</g>
</g>
<!-- Node1&#45;&gt;Node12 -->
<g id="edge17_Node000001_Node000012" class="edge">
<title>Node1&#45;&gt;Node12</title>
<g id="a_edge17_Node000001_Node000012"><a xlink:title=" ">
<path fill="none" stroke="#63b8ff" d="M426.19,-186.94C455.26,-171.78 486.11,-155.69 507.04,-144.78"/>
<polygon fill="#63b8ff" stroke="#63b8ff" points="508.67,-147.87 515.92,-140.15 505.43,-141.67 508.67,-147.87"/>
</a>
</g>
</g>
<!-- Node13 -->
<g id="Node000013" class="node">
<title>Node13</title>
<g id="a_Node000013"><a xlink:title=" ">
<polygon fill="#e0e0e0" stroke="#999999" points="708,-145.5 593,-145.5 593,-115.5 708,-115.5 708,-145.5"/>
<text text-anchor="start" x="601" y="-133.5" font-family="Helvetica,sans-Serif" font-size="10.00">../mcc_generated_files</text>
<text text-anchor="middle" x="650.5" y="-122.5" font-family="Helvetica,sans-Serif" font-size="10.00">/system/pins.h</text>
</a>
</g>
</g>
<!-- Node1&#45;&gt;Node13 -->
<g id="edge18_Node000001_Node000013" class="edge">
<title>Node1&#45;&gt;Node13</title>
<g id="a_edge18_Node000001_Node000013"><a xlink:title=" ">
<path fill="none" stroke="#63b8ff" d="M433.21,-200.83C485.85,-184.04 551.4,-163.12 596.66,-148.68"/>
<polygon fill="#63b8ff" stroke="#63b8ff" points="597.82,-151.98 606.28,-145.61 595.69,-145.31 597.82,-151.98"/>
</a>
</g>
</g>
<!-- Node4 -->
<g id="Node000004" class="node">
<title>Node4</title>
<g id="a_Node000004"><a xlink:title=" ">
<polygon fill="#e0e0e0" stroke="#999999" points="340,-74 305,-74 305,-55 340,-55 340,-74"/>
<text text-anchor="middle" x="322.5" y="-62" font-family="Helvetica,sans-Serif" font-size="10.00">xc.h</text>
</a>
</g>
</g>
<!-- Node3&#45;&gt;Node4 -->
<g id="edge3_Node000003_Node000004" class="edge">
<title>Node3&#45;&gt;Node4</title>
<g id="a_edge3_Node000003_Node000004"><a xlink:title=" ">
<path fill="none" stroke="#63b8ff" d="M293.95,-120.87C298.89,-111.28 307.01,-95.55 313.32,-83.3"/>
<polygon fill="#63b8ff" stroke="#63b8ff" points="316.44,-84.9 317.91,-74.41 310.21,-81.69 316.44,-84.9"/>
</a>
</g>
</g>
<!-- Node5&#45;&gt;Node4 -->
<g id="edge5_Node000005_Node000004" class="edge">
<title>Node5&#45;&gt;Node4</title>
<g id="a_edge5_Node000005_Node000004"><a xlink:title=" ">
<path fill="none" stroke="#63b8ff" d="M228.04,-109.95C250.1,-99.57 276.55,-87.13 295.84,-78.05"/>
<polygon fill="#63b8ff" stroke="#63b8ff" points="297.39,-81.18 304.95,-73.76 294.41,-74.85 297.39,-81.18"/>
</a>
</g>
</g>
<!-- Node6 -->
<g id="Node000006" class="node">
<title>Node6</title>
<g id="a_Node000006"><a xlink:title=" ">
<polygon fill="#e0e0e0" stroke="#999999" points="354,-19 305,-19 305,0 354,0 354,-19"/>
<text text-anchor="middle" x="329.5" y="-7" font-family="Helvetica,sans-Serif" font-size="10.00">stdint.h</text>
</a>
</g>
</g>
<!-- Node5&#45;&gt;Node6 -->
<g id="edge6_Node000005_Node000006" class="edge">
<title>Node5&#45;&gt;Node6</title>
<g id="a_edge6_Node000005_Node000006"><a xlink:title=" ">
<path fill="none" stroke="#63b8ff" d="M210.11,-109.85C238.48,-86.24 285.46,-47.15 311.21,-25.72"/>
<polygon fill="#63b8ff" stroke="#63b8ff" points="313.63,-28.26 319.08,-19.18 309.15,-22.88 313.63,-28.26"/>
</a>
</g>
</g>
<!-- Node7 -->
<g id="Node000007" class="node">
<title>Node7</title>
<g id="a_Node000007"><a xlink:title=" ">
<polygon fill="#e0e0e0" stroke="#999999" points="99.5,-19 43.5,-19 43.5,0 99.5,0 99.5,-19"/>
<text text-anchor="middle" x="71.5" y="-7" font-family="Helvetica,sans-Serif" font-size="10.00">stdbool.h</text>
</a>
</g>
</g>
<!-- Node5&#45;&gt;Node7 -->
<g id="edge7_Node000005_Node000007" class="edge">
<title>Node5&#45;&gt;Node7</title>
<g id="a_edge7_Node000005_Node000007"><a xlink:title=" ">
<path fill="none" stroke="#63b8ff" d="M135.91,-109.95C119.04,-101.21 101.51,-89.36 89.5,-74 79.46,-61.17 75.02,-43 73.06,-29.38"/>
<polygon fill="#63b8ff" stroke="#63b8ff" points="76.51,-28.78 71.92,-19.23 69.56,-29.56 76.51,-28.78"/>
</a>
</g>
</g>
<!-- Node8 -->
<g id="Node000008" class="node">
<title>Node8</title>
<g id="a_Node000008"><a xlink:href="a00302.html" target="_top" xlink:title="This is the generated driver types header file for the MAIN_CORE driver.">
<polygon fill="white" stroke="#666666" points="287,-19 188,-19 188,0 287,0 287,-19"/>
<text text-anchor="middle" x="237.5" y="-7" font-family="Helvetica,sans-Serif" font-size="10.00">main_core_types.h</text>
</a>
</g>
</g>
<!-- Node5&#45;&gt;Node8 -->
<g id="edge8_Node000005_Node000008" class="edge">
<title>Node5&#45;&gt;Node8</title>
<g id="a_edge8_Node000005_Node000008"><a xlink:title=" ">
<path fill="none" stroke="#63b8ff" d="M199.88,-109.87C206.47,-99.54 214.14,-86.46 219.5,-74 225.74,-59.51 230.47,-42.24 233.51,-29.37"/>
<polygon fill="#63b8ff" stroke="#63b8ff" points="236.98,-29.9 235.75,-19.37 230.15,-28.37 236.98,-29.9"/>
</a>
</g>
</g>
<!-- Node9 -->
<g id="Node000009" class="node">
<title>Node9</title>
<g id="a_Node000009"><a xlink:href="a00299_source.html" target="_top" xlink:title=" ">
<polygon fill="white" stroke="#666666" points="210.5,-74 98.5,-74 98.5,-55 210.5,-55 210.5,-74"/>
<text text-anchor="middle" x="154.5" y="-62" font-family="Helvetica,sans-Serif" font-size="10.00">main_core_interface.h</text>
</a>
</g>
</g>
<!-- Node5&#45;&gt;Node9 -->
<g id="edge9_Node000005_Node000009" class="edge">
<title>Node5&#45;&gt;Node9</title>
<g id="a_edge9_Node000005_Node000009"><a xlink:title=" ">
<path fill="none" stroke="#63b8ff" d="M176.73,-109.95C172.49,-101.48 167.57,-91.64 163.43,-83.37"/>
<polygon fill="#63b8ff" stroke="#63b8ff" points="166.48,-81.64 158.88,-74.26 160.22,-84.77 166.48,-81.64"/>
</a>
</g>
</g>
<!-- Node9&#45;&gt;Node6 -->
<g id="edge11_Node000009_Node000006" class="edge">
<title>Node9&#45;&gt;Node6</title>
<g id="a_edge11_Node000009_Node000006"><a xlink:title=" ">
<path fill="none" stroke="#63b8ff" d="M182.62,-54.98C213.26,-45.7 262.31,-30.85 295.2,-20.89"/>
<polygon fill="#63b8ff" stroke="#63b8ff" points="296.29,-24.21 304.85,-17.97 294.26,-17.52 296.29,-24.21"/>
</a>
</g>
</g>
<!-- Node9&#45;&gt;Node7 -->
<g id="edge12_Node000009_Node000007" class="edge">
<title>Node9&#45;&gt;Node7</title>
<g id="a_edge12_Node000009_Node000007"><a xlink:title=" ">
<path fill="none" stroke="#63b8ff" d="M141.16,-54.98C128.41,-46.84 108.95,-34.41 93.83,-24.76"/>
<polygon fill="#63b8ff" stroke="#63b8ff" points="95.39,-21.6 85.08,-19.17 91.62,-27.5 95.39,-21.6"/>
</a>
</g>
</g>
<!-- Node9&#45;&gt;Node8 -->
<g id="edge13_Node000009_Node000008" class="edge">
<title>Node9&#45;&gt;Node8</title>
<g id="a_edge13_Node000009_Node000008"><a xlink:title=" ">
<path fill="none" stroke="#63b8ff" d="M167.84,-54.98C180.59,-46.84 200.05,-34.41 215.17,-24.76"/>
<polygon fill="#63b8ff" stroke="#63b8ff" points="217.38,-27.5 223.92,-19.17 213.61,-21.6 217.38,-27.5"/>
</a>
</g>
</g>
<!-- Node10 -->
<g id="Node000010" class="node">
<title>Node10</title>
<g id="a_Node000010"><a xlink:title=" ">
<polygon fill="#e0e0e0" stroke="#999999" points="170,-19 119,-19 119,0 170,0 170,-19"/>
<text text-anchor="middle" x="144.5" y="-7" font-family="Helvetica,sans-Serif" font-size="10.00">stddef.h</text>
</a>
</g>
</g>
<!-- Node9&#45;&gt;Node10 -->
<g id="edge10_Node000009_Node000010" class="edge">
<title>Node9&#45;&gt;Node10</title>
<g id="a_edge10_Node000009_Node000010"><a xlink:title=" ">
<path fill="none" stroke="#63b8ff" d="M152.85,-54.75C151.54,-47.8 149.66,-37.85 148.02,-29.13"/>
<polygon fill="#63b8ff" stroke="#63b8ff" points="151.41,-28.27 146.12,-19.09 144.54,-29.56 151.41,-28.27"/>
</a>
</g>
</g>
<!-- Node11&#45;&gt;Node4 -->
<g id="edge15_Node000011_Node000004" class="edge">
<title>Node11&#45;&gt;Node4</title>
<g id="a_edge15_Node000011_Node000004"><a xlink:title=" ">
<path fill="none" stroke="#63b8ff" d="M379.45,-109.95C367.29,-100.46 352.91,-89.24 341.65,-80.44"/>
<polygon fill="#63b8ff" stroke="#63b8ff" points="343.76,-77.65 333.72,-74.26 339.45,-83.17 343.76,-77.65"/>
</a>
</g>
</g>
<!-- Node11&#45;&gt;Node6 -->
<g id="edge16_Node000011_Node000006" class="edge">
<title>Node11&#45;&gt;Node6</title>
<g id="a_edge16_Node000011_Node000006"><a xlink:title=" ">
<path fill="none" stroke="#63b8ff" d="M392.12,-109.85C377.69,-86.96 354.09,-49.52 340.36,-27.72"/>
<polygon fill="#63b8ff" stroke="#63b8ff" points="343.26,-25.77 334.97,-19.18 337.34,-29.5 343.26,-25.77"/>
</a>
</g>
</g>
</g>
</svg>

<g id="navigator" transform="translate(0 0)" fill="#404254">
  <rect fill="#f2f5e9" fill-opacity="0.5" stroke="#606060" stroke-width=".5" x="0" y="0" width="60" height="60"/>
  <use id="zoomplus" xlink:href="#zoomPlus" x="17" y="9" onmousedown="handleZoom(evt,'in')"/>
  <use id="zoomminus" xlink:href="#zoomMin" x="42" y="9" onmousedown="handleZoom(evt,'out')"/>
  <use id="reset" xlink:href="#resetDef" x="30" y="36" onmousedown="handleReset()"/>
   <use id="arrowup" xlink:href="#arrowUp" x="0" y="0" onmousedown="handlePan(0,-1)"/>
  <use id="arrowright" xlink:href="#arrowRight" x="0" y="0" onmousedown="handlePan(1,0)"/>
  <use id="arrowdown" xlink:href="#arrowDown" x="0" y="0" onmousedown="handlePan(0,1)"/>
  <use id="arrowleft" xlink:href="#arrowLeft" x="0" y="0" onmousedown="handlePan(-1,0)"/>
</g>
<svg viewBox="0 0 15 15" width="100%" height="30px" preserveAspectRatio="xMaxYMin meet">
 <g id="arrow_out" transform="scale(0.3 0.3)">
  <a xlink:href="a00354_org.svg" target="_base">
   <rect id="button" ry="5" rx="5" y="6" x="6" height="38" width="38"
        fill="#f2f5e9" fill-opacity="0.5" stroke="#606060" stroke-width="1.0"/>
   <path id="arrow"
     d="M 11.500037,31.436501 C 11.940474,20.09759 22.043105,11.32322 32.158766,21.979434 L 37.068811,17.246167 C 37.068811,17.246167 37.088388,32 37.088388,32 L 22.160133,31.978069 C 22.160133,31.978069 26.997745,27.140456 26.997745,27.140456 C 18.528582,18.264221 13.291696,25.230495 11.500037,31.436501 z"
     style="fill:#404040;"/>
  </a>
 </g>
</svg>

<style type='text/css'>
<![CDATA[
[data-mouse-over-selected='false'] { opacity: 0.7; }
[data-mouse-over-selected='true']  { opacity: 1.0; }
]]>
</style>
<script type="application/ecmascript"><![CDATA[
document.addEventListener('DOMContentLoaded', (event) => {
  highlightEdges();
  highlightAdjacentNodes();
});
]]></script>
</svg>
