<?xml version="1.0" encoding="UTF-8" standalone="no"?>
<!DOCTYPE svg PUBLIC "-//W3C//DTD SVG 1.1//EN"
 "http://www.w3.org/Graphics/SVG/1.1/DTD/svg11.dtd">
<!-- Generated by graphviz version 8.1.0 (20230707.0739)
 -->
<!-- Title: CAN1_FIFO_InfoGet Pages: 1 -->
<svg width="472pt" height="142pt"
 viewBox="0.00 0.00 472.25 142.00" xmlns="http://www.w3.org/2000/svg" xmlns:xlink="http://www.w3.org/1999/xlink">
<g id="graph0" class="graph" transform="scale(1 1) rotate(0) translate(4 138)">
<title>CAN1_FIFO_InfoGet</title>
<!-- Node1 -->
<g id="Node000001" class="node">
<title>Node1</title>
<g id="a_Node000001"><a xlink:title="This function get the FIFO user address, message depth and payload size information.">
<polygon fill="#999999" stroke="#666666" points="464.25,-77 359.75,-77 359.75,-57 464.25,-57 464.25,-77"/>
<text text-anchor="middle" x="412" y="-63.5" font-family="Helvetica,sans-Serif" font-size="10.00">CAN1_FIFO_InfoGet</text>
</a>
</g>
</g>
<!-- Node2 -->
<g id="Node000002" class="node">
<title>Node2</title>
<g id="a_Node000002"><a xlink:href="a00399.html#ga4fe1df4cd9f0ce122687dcfab0713b5b" target="_top" xlink:title="Reads the received single message object.">
<polygon fill="white" stroke="#666666" points="280.62,-134 200.12,-134 200.12,-114 280.62,-114 280.62,-134"/>
<text text-anchor="middle" x="240.38" y="-120.5" font-family="Helvetica,sans-Serif" font-size="10.00">CAN1_Receive</text>
</a>
</g>
</g>
<!-- Node1&#45;&gt;Node2 -->
<g id="edge1_Node000001_Node000002" class="edge">
<title>Node1&#45;&gt;Node2</title>
<g id="a_edge1_Node000001_Node000002"><a xlink:title=" ">
<path fill="none" stroke="#63b8ff" d="M380.27,-82.04C363.8,-89.68 342.98,-98.65 323.75,-105 309.95,-109.55 294.51,-113.43 280.75,-116.46"/>
<polygon fill="#63b8ff" stroke="#63b8ff" points="381.36,-84.92 388.91,-77.49 378.38,-78.59 381.36,-84.92"/>
</a>
</g>
</g>
<!-- Node4 -->
<g id="Node000004" class="node">
<title>Node4</title>
<g id="a_Node000004"><a xlink:href="a00399.html#gac27e97593d8d9bd7787d116910adc40d" target="_top" xlink:title="Returns the number of CAN messages received in all the FIFO.">
<polygon fill="white" stroke="#666666" points="323.75,-96 157,-96 157,-76 323.75,-76 323.75,-96"/>
<text text-anchor="middle" x="240.38" y="-82.5" font-family="Helvetica,sans-Serif" font-size="10.00">CAN1_ReceivedMessageCountGet</text>
</a>
</g>
</g>
<!-- Node1&#45;&gt;Node4 -->
<g id="edge3_Node000001_Node000004" class="edge">
<title>Node1&#45;&gt;Node4</title>
<g id="a_edge3_Node000001_Node000004"><a xlink:title=" ">
<path fill="none" stroke="#63b8ff" d="M348.89,-73.96C340.85,-74.86 332.51,-75.79 324.2,-76.72"/>
<polygon fill="#63b8ff" stroke="#63b8ff" points="349.1,-77.34 358.65,-72.75 348.32,-70.39 349.1,-77.34"/>
</a>
</g>
</g>
<!-- Node5 -->
<g id="Node000005" class="node">
<title>Node5</title>
<g id="a_Node000005"><a xlink:href="a00399.html#ga2c655a58965fff8578916b59bed47297" target="_top" xlink:title="Reads the received single message object from the CAN1 receive FIFO.">
<polygon fill="white" stroke="#666666" points="308.38,-58 172.38,-58 172.38,-38 308.38,-38 308.38,-58"/>
<text text-anchor="middle" x="240.38" y="-44.5" font-family="Helvetica,sans-Serif" font-size="10.00">CAN1_ReceiveMessageGet</text>
</a>
</g>
</g>
<!-- Node1&#45;&gt;Node5 -->
<g id="edge5_Node000001_Node000005" class="edge">
<title>Node1&#45;&gt;Node5</title>
<g id="a_edge5_Node000001_Node000005"><a xlink:title=" ">
<path fill="none" stroke="#63b8ff" d="M348.91,-60.05C335.88,-58.59 322.07,-57.04 308.85,-55.56"/>
<polygon fill="#63b8ff" stroke="#63b8ff" points="348.32,-63.61 358.65,-61.25 349.1,-56.66 348.32,-63.61"/>
</a>
</g>
</g>
<!-- Node6 -->
<g id="Node000006" class="node">
<title>Node6</title>
<g id="a_Node000006"><a xlink:href="a00399.html#gad99c960d1ed589ce80aca873a90e068e" target="_top" xlink:title="Writes the CAN message object to specified transmit FIFO channel.">
<polygon fill="white" stroke="#666666" points="282.5,-20 198.25,-20 198.25,0 282.5,0 282.5,-20"/>
<text text-anchor="middle" x="240.38" y="-6.5" font-family="Helvetica,sans-Serif" font-size="10.00">CAN1_Transmit</text>
</a>
</g>
</g>
<!-- Node1&#45;&gt;Node6 -->
<g id="edge6_Node000001_Node000006" class="edge">
<title>Node1&#45;&gt;Node6</title>
<g id="a_edge6_Node000001_Node000006"><a xlink:title=" ">
<path fill="none" stroke="#63b8ff" d="M380.27,-51.96C363.8,-44.32 342.98,-35.35 323.75,-29 310.65,-24.68 296.06,-20.97 282.85,-18"/>
<polygon fill="#63b8ff" stroke="#63b8ff" points="378.38,-55.41 388.91,-56.51 381.36,-49.08 378.38,-55.41"/>
</a>
</g>
</g>
<!-- Node3 -->
<g id="Node000003" class="node">
<title>Node3</title>
<g id="a_Node000003"><a xlink:href="a00227.html#a77b41fe067ba8e8d666827b686e52cff" target="_top" xlink:title=" ">
<polygon fill="white" stroke="#666666" points="121,-115 0,-115 0,-95 121,-95 121,-115"/>
<text text-anchor="middle" x="60.5" y="-101.5" font-family="Helvetica,sans-Serif" font-size="10.00">CAN_Receive_from_GUI</text>
</a>
</g>
</g>
<!-- Node2&#45;&gt;Node3 -->
<g id="edge2_Node000002_Node000003" class="edge">
<title>Node2&#45;&gt;Node3</title>
<g id="a_edge2_Node000002_Node000003"><a xlink:title=" ">
<path fill="none" stroke="#63b8ff" d="M189.25,-118.65C168.19,-116.4 143.52,-113.76 121.5,-111.41"/>
<polygon fill="#63b8ff" stroke="#63b8ff" points="188.58,-122.2 198.9,-119.78 189.33,-115.24 188.58,-122.2"/>
</a>
</g>
</g>
<!-- Node4&#45;&gt;Node3 -->
<g id="edge4_Node000004_Node000003" class="edge">
<title>Node4&#45;&gt;Node3</title>
<g id="a_edge4_Node000004_Node000003"><a xlink:title=" ">
<path fill="none" stroke="#63b8ff" d="M145.81,-95.99C137.53,-96.88 129.32,-97.76 121.44,-98.6"/>
<polygon fill="#63b8ff" stroke="#63b8ff" points="146.11,-99.37 155.69,-94.83 145.37,-92.41 146.11,-99.37"/>
</a>
</g>
</g>
<!-- Node7 -->
<g id="Node000007" class="node">
<title>Node7</title>
<g id="a_Node000007"><a xlink:href="a00227.html#a9511f6338931225152a644cd0b011f66" target="_top" xlink:title=" ">
<polygon fill="white" stroke="#666666" points="117.62,-20 3.37,-20 3.37,0 117.62,0 117.62,-20"/>
<text text-anchor="middle" x="60.5" y="-6.5" font-family="Helvetica,sans-Serif" font-size="10.00">CAN_Transmit_to_GUI</text>
</a>
</g>
</g>
<!-- Node6&#45;&gt;Node7 -->
<g id="edge7_Node000006_Node000007" class="edge">
<title>Node6&#45;&gt;Node7</title>
<g id="a_edge7_Node000006_Node000007"><a xlink:title=" ">
<path fill="none" stroke="#63b8ff" d="M187.12,-10C165.41,-10 140.17,-10 118.03,-10"/>
<polygon fill="#63b8ff" stroke="#63b8ff" points="187.12,-13.5 197.12,-10 187.12,-6.5 187.12,-13.5"/>
</a>
</g>
</g>
</g>
</svg>
