<?xml version="1.0" encoding="UTF-8" standalone="no"?>
<!DOCTYPE svg PUBLIC "-//W3C//DTD SVG 1.1//EN"
 "http://www.w3.org/Graphics/SVG/1.1/DTD/svg11.dtd">
<!-- Generated by graphviz version 8.1.0 (20230707.0739)
 -->
<!-- Title: D:/Firmware/MCU16ASMPS_TestEnvironment/_deployment/dspic33ch&#45;power&#45;totem&#45;pole&#45;demonstration&#45;application&#45;single&#45;phase/sources_common/PFC_frameworkSetup.h Pages: 1 -->
<svg width="245pt" height="200pt"
 viewBox="0.00 0.00 244.62 200.00" xmlns="http://www.w3.org/2000/svg" xmlns:xlink="http://www.w3.org/1999/xlink">
<g id="graph0" class="graph" transform="scale(1 1) rotate(0) translate(4 196)">
<title>D:/Firmware/MCU16ASMPS_TestEnvironment/_deployment/dspic33ch&#45;power&#45;totem&#45;pole&#45;demonstration&#45;application&#45;single&#45;phase/sources_common/PFC_frameworkSetup.h</title>
<!-- Node1 -->
<g id="Node000001" class="node">
<title>Node1</title>
<g id="a_Node000001"><a xlink:title="Allows the user to change the advanced operating parameters.">
<polygon fill="#999999" stroke="#666666" points="231.25,-192 0,-192 0,-124 231.25,-124 231.25,-192"/>
<text text-anchor="start" x="8" y="-178.5" font-family="Helvetica,sans-Serif" font-size="10.00">D:/Firmware/MCU16ASMPS</text>
<text text-anchor="start" x="8" y="-166.5" font-family="Helvetica,sans-Serif" font-size="10.00">_TestEnvironment/_deployment</text>
<text text-anchor="start" x="8" y="-154.5" font-family="Helvetica,sans-Serif" font-size="10.00">/dspic33ch&#45;power&#45;totem&#45;pole</text>
<text text-anchor="start" x="8" y="-142.5" font-family="Helvetica,sans-Serif" font-size="10.00">&#45;demonstration&#45;application&#45;single</text>
<text text-anchor="middle" x="115.62" y="-130.5" font-family="Helvetica,sans-Serif" font-size="10.00">&#45;phase/sources_common/PFC_frameworkSetup.h</text>
</a>
</g>
</g>
<!-- Node2 -->
<g id="Node000002" class="node">
<title>Node2</title>
<g id="a_Node000002"><a xlink:href="a00389.html" target="_top" xlink:title="Allows the user to easily change the operation modes.">
<polygon fill="white" stroke="#666666" points="172.75,-88 58.5,-88 58.5,-56 172.75,-56 172.75,-88"/>
<text text-anchor="start" x="66.5" y="-74.5" font-family="Helvetica,sans-Serif" font-size="10.00">Totempole_Application</text>
<text text-anchor="middle" x="115.62" y="-62.5" font-family="Helvetica,sans-Serif" font-size="10.00">_Setup.h</text>
</a>
</g>
</g>
<!-- Node1&#45;&gt;Node2 -->
<g id="edge1_Node000001_Node000002" class="edge">
<title>Node1&#45;&gt;Node2</title>
<g id="a_edge1_Node000001_Node000002"><a xlink:title=" ">
<path fill="none" stroke="#63b8ff" d="M115.62,-123.8C115.62,-115.64 115.62,-107.01 115.62,-99.23"/>
<polygon fill="#63b8ff" stroke="#63b8ff" points="119.13,-99.24 115.62,-89.24 112.13,-99.24 119.13,-99.24"/>
</a>
</g>
</g>
<!-- Node3 -->
<g id="Node000003" class="node">
<title>Node3</title>
<g id="a_Node000003"><a xlink:title=" ">
<polygon fill="#e0e0e0" stroke="#999999" points="38,-20 3.25,-20 3.25,0 38,0 38,-20"/>
<text text-anchor="middle" x="20.62" y="-6.5" font-family="Helvetica,sans-Serif" font-size="10.00">xc.h</text>
</a>
</g>
</g>
<!-- Node2&#45;&gt;Node3 -->
<g id="edge2_Node000002_Node000003" class="edge">
<title>Node2&#45;&gt;Node3</title>
<g id="a_edge2_Node000002_Node000003"><a xlink:title=" ">
<path fill="none" stroke="#63b8ff" d="M91.16,-55.55C76.87,-46.52 58.9,-35.17 44.68,-26.19"/>
<polygon fill="#63b8ff" stroke="#63b8ff" points="46.84,-22.79 36.52,-20.41 43.11,-28.71 46.84,-22.79"/>
</a>
</g>
</g>
<!-- Node4 -->
<g id="Node000004" class="node">
<title>Node4</title>
<g id="a_Node000004"><a xlink:title=" ">
<polygon fill="#e0e0e0" stroke="#999999" points="104.75,-20 56.5,-20 56.5,0 104.75,0 104.75,-20"/>
<text text-anchor="middle" x="80.62" y="-6.5" font-family="Helvetica,sans-Serif" font-size="10.00">stdint.h</text>
</a>
</g>
</g>
<!-- Node2&#45;&gt;Node4 -->
<g id="edge3_Node000002_Node000004" class="edge">
<title>Node2&#45;&gt;Node4</title>
<g id="a_edge3_Node000002_Node000004"><a xlink:title=" ">
<path fill="none" stroke="#63b8ff" d="M106.61,-55.55C102,-47.65 96.36,-37.97 91.51,-29.66"/>
<polygon fill="#63b8ff" stroke="#63b8ff" points="94.17,-28.28 86.11,-21.41 88.13,-31.81 94.17,-28.28"/>
</a>
</g>
</g>
<!-- Node5 -->
<g id="Node000005" class="node">
<title>Node5</title>
<g id="a_Node000005"><a xlink:title=" ">
<polygon fill="#e0e0e0" stroke="#999999" points="178.5,-20 122.75,-20 122.75,0 178.5,0 178.5,-20"/>
<text text-anchor="middle" x="150.62" y="-6.5" font-family="Helvetica,sans-Serif" font-size="10.00">stdbool.h</text>
</a>
</g>
</g>
<!-- Node2&#45;&gt;Node5 -->
<g id="edge4_Node000002_Node000005" class="edge">
<title>Node2&#45;&gt;Node5</title>
<g id="a_edge4_Node000002_Node000005"><a xlink:title=" ">
<path fill="none" stroke="#63b8ff" d="M124.64,-55.55C129.25,-47.65 134.89,-37.97 139.74,-29.66"/>
<polygon fill="#63b8ff" stroke="#63b8ff" points="143.12,-31.81 145.14,-21.41 137.08,-28.28 143.12,-31.81"/>
</a>
</g>
</g>
<!-- Node6 -->
<g id="Node000006" class="node">
<title>Node6</title>
<g id="a_Node000006"><a xlink:title=" ">
<polygon fill="#e0e0e0" stroke="#999999" points="236.62,-20 196.62,-20 196.62,0 236.62,0 236.62,-20"/>
<text text-anchor="middle" x="216.62" y="-6.5" font-family="Helvetica,sans-Serif" font-size="10.00">dsp.h</text>
</a>
</g>
</g>
<!-- Node2&#45;&gt;Node6 -->
<g id="edge5_Node000002_Node000006" class="edge">
<title>Node2&#45;&gt;Node6</title>
<g id="a_edge5_Node000002_Node000006"><a xlink:title=" ">
<path fill="none" stroke="#63b8ff" d="M141.64,-55.55C156.98,-46.43 176.3,-34.96 191.49,-25.93"/>
<polygon fill="#63b8ff" stroke="#63b8ff" points="192.98,-28.52 199.79,-20.41 189.4,-22.51 192.98,-28.52"/>
</a>
</g>
</g>
</g>
</svg>
