<?xml version="1.0" encoding="UTF-8" standalone="no"?>
<!DOCTYPE svg PUBLIC "-//W3C//DTD SVG 1.1//EN"
 "http://www.w3.org/Graphics/SVG/1.1/DTD/svg11.dtd">
<!-- Generated by graphviz version 8.1.0 (20230707.0739)
 -->
<!-- Title: CAN1_ReceivedMessageCountGet Pages: 1 -->
<svg width="381pt" height="104pt"
 viewBox="0.00 0.00 380.50 104.00" xmlns="http://www.w3.org/2000/svg" xmlns:xlink="http://www.w3.org/1999/xlink">
<g id="graph0" class="graph" transform="scale(1 1) rotate(0) translate(4 100)">
<title>CAN1_ReceivedMessageCountGet</title>
<!-- Node1 -->
<g id="Node000001" class="node">
<title>Node1</title>
<g id="a_Node000001"><a xlink:title="Returns the number of CAN messages received in all the FIFO.">
<polygon fill="#999999" stroke="#666666" points="166.75,-58 0,-58 0,-38 166.75,-38 166.75,-58"/>
<text text-anchor="middle" x="83.38" y="-44.5" font-family="Helvetica,sans-Serif" font-size="10.00">CAN1_ReceivedMessageCountGet</text>
</a>
</g>
</g>
<!-- Node2 -->
<g id="Node000002" class="node">
<title>Node2</title>
<g id="a_Node000002"><a xlink:href="a00399.html#ga57b30800d7bd3b3c936f578ca1fd7e32" target="_top" xlink:title="This function get the FIFO user address, message depth and payload size information.">
<polygon fill="white" stroke="#666666" points="339.88,-96 235.38,-96 235.38,-76 339.88,-76 339.88,-96"/>
<text text-anchor="middle" x="287.62" y="-82.5" font-family="Helvetica,sans-Serif" font-size="10.00">CAN1_FIFO_InfoGet</text>
</a>
</g>
</g>
<!-- Node1&#45;&gt;Node2 -->
<g id="edge1_Node000001_Node000002" class="edge">
<title>Node1&#45;&gt;Node2</title>
<g id="a_edge1_Node000001_Node000002"><a xlink:title=" ">
<path fill="none" stroke="#63b8ff" d="M140.18,-58.48C166.39,-63.41 197.74,-69.3 224.69,-74.36"/>
<polygon fill="#63b8ff" stroke="#63b8ff" points="223.69,-77.92 234.17,-76.33 224.98,-71.05 223.69,-77.92"/>
</a>
</g>
</g>
<!-- Node3 -->
<g id="Node000003" class="node">
<title>Node3</title>
<g id="a_Node000003"><a xlink:href="a00399.html#ga5532c9a884cedd0805a011bf8baaabdd" target="_top" xlink:title="This function get the Receiver FIFO message index value.">
<polygon fill="white" stroke="#666666" points="372.5,-58 202.75,-58 202.75,-38 372.5,-38 372.5,-58"/>
<text text-anchor="middle" x="287.62" y="-44.5" font-family="Helvetica,sans-Serif" font-size="10.00">CAN1_RX_FIFO_MessageIndexGet</text>
</a>
</g>
</g>
<!-- Node1&#45;&gt;Node3 -->
<g id="edge2_Node000001_Node000003" class="edge">
<title>Node1&#45;&gt;Node3</title>
<g id="a_edge2_Node000001_Node000003"><a xlink:title=" ">
<path fill="none" stroke="#63b8ff" d="M167.22,-48C175.17,-48 183.28,-48 191.33,-48"/>
<polygon fill="#63b8ff" stroke="#63b8ff" points="191.27,-51.5 201.27,-48 191.27,-44.5 191.27,-51.5"/>
</a>
</g>
</g>
<!-- Node4 -->
<g id="Node000004" class="node">
<title>Node4</title>
<g id="a_Node000004"><a xlink:href="a00399.html#ga4a6437adcdf1917fffef4e7e5761fda1" target="_top" xlink:title="This returns the CAN1 receive FIFO status.">
<polygon fill="white" stroke="#666666" points="355.25,-20 220,-20 220,0 355.25,0 355.25,-20"/>
<text text-anchor="middle" x="287.62" y="-6.5" font-family="Helvetica,sans-Serif" font-size="10.00">CAN1_RX_FIFO_StatusGet</text>
</a>
</g>
</g>
<!-- Node1&#45;&gt;Node4 -->
<g id="edge3_Node000001_Node000004" class="edge">
<title>Node1&#45;&gt;Node4</title>
<g id="a_edge3_Node000001_Node000004"><a xlink:title=" ">
<path fill="none" stroke="#63b8ff" d="M140.18,-37.52C165.05,-32.84 194.53,-27.3 220.49,-22.43"/>
<polygon fill="#63b8ff" stroke="#63b8ff" points="220.82,-25.74 230.01,-20.45 219.53,-18.86 220.82,-25.74"/>
</a>
</g>
</g>
</g>
</svg>
