<?xml version="1.0" encoding="UTF-8" standalone="no"?>
<!DOCTYPE svg PUBLIC "-//W3C//DTD SVG 1.1//EN"
 "http://www.w3.org/Graphics/SVG/1.1/DTD/svg11.dtd">
<!-- Generated by graphviz version 8.1.0 (20230707.0739)
 -->
<!-- Title: CAN1_ErrorNotificationEnable Pages: 1 -->
<svg width="360pt" height="582pt"
 viewBox="0.00 0.00 360.25 582.00" xmlns="http://www.w3.org/2000/svg" xmlns:xlink="http://www.w3.org/1999/xlink">
<g id="graph0" class="graph" transform="scale(1 1) rotate(0) translate(4 578)">
<title>CAN1_ErrorNotificationEnable</title>
<!-- Node1 -->
<g id="Node000001" class="node">
<title>Node1</title>
<g id="a_Node000001"><a xlink:title="This function enables the CAN1 error notification interrupt.">
<polygon fill="#999999" stroke="#666666" points="145.75,-300 0,-300 0,-280 145.75,-280 145.75,-300"/>
<text text-anchor="middle" x="72.88" y="-286.5" font-family="Helvetica,sans-Serif" font-size="10.00">CAN1_ErrorNotificationEnable</text>
</a>
</g>
</g>
<!-- Node2 -->
<g id="Node000002" class="node">
<title>Node2</title>
<g id="a_Node000002"><a xlink:href="a00399.html#gacbe5d017b9015e9756ea3530da8cc8db" target="_top" xlink:title="This is the default callback with weak attribute. The user can override and implement the default cal...">
<polygon fill="white" stroke="#666666" points="328.25,-574 205.75,-574 205.75,-554 328.25,-554 328.25,-574"/>
<text text-anchor="middle" x="267" y="-560.5" font-family="Helvetica,sans-Serif" font-size="10.00">CAN1_BusErrorCallback</text>
</a>
</g>
</g>
<!-- Node1&#45;&gt;Node2 -->
<g id="edge1_Node000001_Node000002" class="edge">
<title>Node1&#45;&gt;Node2</title>
<g id="a_edge1_Node000001_Node000002"><a xlink:title=" ">
<path fill="none" stroke="#63b8ff" d="M74.95,-300.48C79.55,-339.5 101.16,-477.64 181.75,-545 185.96,-548.52 190.68,-551.41 195.69,-553.8"/>
<polygon fill="#63b8ff" stroke="#63b8ff" points="194.02,-557.31 204.6,-557.79 196.63,-550.81 194.02,-557.31"/>
</a>
</g>
</g>
<!-- Node3 -->
<g id="Node000003" class="node">
<title>Node3</title>
<g id="a_Node000003"><a xlink:href="a00399.html#ga55e70b90188be64bc08f86ac9d0d7566" target="_top" xlink:title="This function can be used to override default callback and to define custom callback for CAN1_BusErro...">
<polygon fill="white" stroke="#666666" points="346.25,-536 187.75,-536 187.75,-516 346.25,-516 346.25,-536"/>
<text text-anchor="middle" x="267" y="-522.5" font-family="Helvetica,sans-Serif" font-size="10.00">CAN1_BusErrorCallbackRegister</text>
</a>
</g>
</g>
<!-- Node1&#45;&gt;Node3 -->
<g id="edge2_Node000001_Node000003" class="edge">
<title>Node1&#45;&gt;Node3</title>
<g id="a_edge2_Node000001_Node000003"><a xlink:title=" ">
<path fill="none" stroke="#63b8ff" d="M75.72,-300.13C82.62,-334.98 110.27,-450.88 181.75,-507 183.39,-508.28 185.09,-509.49 186.86,-510.61"/>
<polygon fill="#63b8ff" stroke="#63b8ff" points="184.64,-513.93 195.1,-515.6 187.96,-507.77 184.64,-513.93"/>
</a>
</g>
</g>
<!-- Node4 -->
<g id="Node000004" class="node">
<title>Node4</title>
<g id="a_Node000004"><a xlink:href="a00399.html#ga63ae61e90d5f2b4353ff69c3d774cd69" target="_top" xlink:title="This is the default callback with weak attribute. The user can override and implement the default cal...">
<polygon fill="white" stroke="#666666" points="352.25,-498 181.75,-498 181.75,-478 352.25,-478 352.25,-498"/>
<text text-anchor="middle" x="267" y="-484.5" font-family="Helvetica,sans-Serif" font-size="10.00">CAN1_BusWakeUpActivityCallback</text>
</a>
</g>
</g>
<!-- Node1&#45;&gt;Node4 -->
<g id="edge3_Node000001_Node000004" class="edge">
<title>Node1&#45;&gt;Node4</title>
<g id="a_edge3_Node000001_Node000004"><a xlink:title=" ">
<path fill="none" stroke="#63b8ff" d="M76.95,-300.5C86.64,-331.65 119.67,-424.2 181.75,-469 183.68,-470.39 185.69,-471.68 187.76,-472.88"/>
<polygon fill="#63b8ff" stroke="#63b8ff" points="185.73,-476.27 196.24,-477.56 188.83,-470 185.73,-476.27"/>
</a>
</g>
</g>
<!-- Node5 -->
<g id="Node000005" class="node">
<title>Node5</title>
<g id="a_Node000005"><a xlink:href="a00399.html#gae58473b24d41be10392bd3cd5703b278" target="_top" xlink:title="This function can be used to override default callback and to define custom callback for CAN1_BusWake...">
<polygon fill="white" stroke="#666666" points="352.25,-460 181.75,-460 181.75,-428 352.25,-428 352.25,-460"/>
<text text-anchor="start" x="189.75" y="-446.5" font-family="Helvetica,sans-Serif" font-size="10.00">CAN1_BusWakeUpActivityCallback</text>
<text text-anchor="middle" x="267" y="-434.5" font-family="Helvetica,sans-Serif" font-size="10.00">Register</text>
</a>
</g>
</g>
<!-- Node1&#45;&gt;Node5 -->
<g id="edge4_Node000001_Node000005" class="edge">
<title>Node1&#45;&gt;Node5</title>
<g id="a_edge4_Node000001_Node000005"><a xlink:title=" ">
<path fill="none" stroke="#63b8ff" d="M79.67,-300.47C93.79,-325.02 132.47,-386.61 181.75,-419 183.77,-420.33 185.86,-421.59 188.01,-422.78"/>
<polygon fill="#63b8ff" stroke="#63b8ff" points="186.23,-426.3 196.74,-427.61 189.34,-420.03 186.23,-426.3"/>
</a>
</g>
</g>
<!-- Node6 -->
<g id="Node000006" class="node">
<title>Node6</title>
<g id="a_Node000006"><a xlink:href="a00399.html#ga9fd5634a4a1d0a49935799d20133a5b3" target="_top" xlink:title="This is the default callback with weak attribute. The user can override and implement the default cal...">
<polygon fill="white" stroke="#666666" points="342.12,-410 191.88,-410 191.88,-390 342.12,-390 342.12,-410"/>
<text text-anchor="middle" x="267" y="-396.5" font-family="Helvetica,sans-Serif" font-size="10.00">CAN1_InvalidMessageCallback</text>
</a>
</g>
</g>
<!-- Node1&#45;&gt;Node6 -->
<g id="edge5_Node000001_Node000006" class="edge">
<title>Node1&#45;&gt;Node6</title>
<g id="a_edge5_Node000001_Node000006"><a xlink:title=" ">
<path fill="none" stroke="#63b8ff" d="M82.83,-300.29C100.01,-319.34 139.62,-360.06 181.75,-381 185.49,-382.86 189.42,-384.54 193.45,-386.06"/>
<polygon fill="#63b8ff" stroke="#63b8ff" points="192.03,-389.61 202.62,-389.51 194.28,-382.98 192.03,-389.61"/>
</a>
</g>
</g>
<!-- Node7 -->
<g id="Node000007" class="node">
<title>Node7</title>
<g id="a_Node000007"><a xlink:href="a00399.html#gadf09a964fe2b5f408d5467bf0a195e7e" target="_top" xlink:title="This function can be used to override default callback and to define custom callback for CAN1_Invalid...">
<polygon fill="white" stroke="#666666" points="342.12,-372 191.88,-372 191.88,-340 342.12,-340 342.12,-372"/>
<text text-anchor="start" x="199.88" y="-358.5" font-family="Helvetica,sans-Serif" font-size="10.00">CAN1_InvalidMessageCallback</text>
<text text-anchor="middle" x="267" y="-346.5" font-family="Helvetica,sans-Serif" font-size="10.00">Register</text>
</a>
</g>
</g>
<!-- Node1&#45;&gt;Node7 -->
<g id="edge6_Node000001_Node000007" class="edge">
<title>Node1&#45;&gt;Node7</title>
<g id="a_edge6_Node000001_Node000007"><a xlink:title=" ">
<path fill="none" stroke="#63b8ff" d="M99.84,-300.49C121.56,-309.12 153.47,-321.44 181.75,-331 187.17,-332.83 192.81,-334.66 198.49,-336.45"/>
<polygon fill="#63b8ff" stroke="#63b8ff" points="197.13,-340.01 207.72,-339.63 199.2,-333.32 197.13,-340.01"/>
</a>
</g>
</g>
<!-- Node8 -->
<g id="Node000008" class="node">
<title>Node8</title>
<g id="a_Node000008"><a xlink:href="a00399.html#ga9f3a8787946348d5982bd754b1907ec2" target="_top" xlink:title="This is the default callback with weak attribute. The user can override and implement the default cal...">
<polygon fill="white" stroke="#666666" points="337.62,-322 196.38,-322 196.38,-302 337.62,-302 337.62,-322"/>
<text text-anchor="middle" x="267" y="-308.5" font-family="Helvetica,sans-Serif" font-size="10.00">CAN1_ModeChangeCallback</text>
</a>
</g>
</g>
<!-- Node1&#45;&gt;Node8 -->
<g id="edge7_Node000001_Node000008" class="edge">
<title>Node1&#45;&gt;Node8</title>
<g id="a_edge7_Node000001_Node000008"><a xlink:title=" ">
<path fill="none" stroke="#63b8ff" d="M146.24,-298.29C158.95,-299.74 172.26,-301.27 185.18,-302.75"/>
<polygon fill="#63b8ff" stroke="#63b8ff" points="184.6,-306.32 194.93,-303.98 185.4,-299.36 184.6,-306.32"/>
</a>
</g>
</g>
<!-- Node9 -->
<g id="Node000009" class="node">
<title>Node9</title>
<g id="a_Node000009"><a xlink:href="a00399.html#ga180079a3530dfacdb86a24f764f6fc4d" target="_top" xlink:title="This function can be used to override default callback and to define custom callback for CAN1_ModeCha...">
<polygon fill="white" stroke="#666666" points="337.62,-284 196.38,-284 196.38,-252 337.62,-252 337.62,-284"/>
<text text-anchor="start" x="204.38" y="-270.5" font-family="Helvetica,sans-Serif" font-size="10.00">CAN1_ModeChangeCallback</text>
<text text-anchor="middle" x="267" y="-258.5" font-family="Helvetica,sans-Serif" font-size="10.00">Register</text>
</a>
</g>
</g>
<!-- Node1&#45;&gt;Node9 -->
<g id="edge8_Node000001_Node000009" class="edge">
<title>Node1&#45;&gt;Node9</title>
<g id="a_edge8_Node000001_Node000009"><a xlink:title=" ">
<path fill="none" stroke="#63b8ff" d="M146.24,-281.71C158.95,-280.26 172.26,-278.73 185.18,-277.25"/>
<polygon fill="#63b8ff" stroke="#63b8ff" points="185.4,-280.64 194.93,-276.02 184.6,-273.68 185.4,-280.64"/>
</a>
</g>
</g>
<!-- Node10 -->
<g id="Node000010" class="node">
<title>Node10</title>
<g id="a_Node000010"><a xlink:href="a00399.html#gad8a749c14d472ac82978c7e593d06543" target="_top" xlink:title="This is the default callback with weak attribute. The user can override and implement the default cal...">
<polygon fill="white" stroke="#666666" points="347.38,-234 186.62,-234 186.62,-214 347.38,-214 347.38,-234"/>
<text text-anchor="middle" x="267" y="-220.5" font-family="Helvetica,sans-Serif" font-size="10.00">CAN1_RxBufferOverFlowCallback</text>
</a>
</g>
</g>
<!-- Node1&#45;&gt;Node10 -->
<g id="edge9_Node000001_Node000010" class="edge">
<title>Node1&#45;&gt;Node10</title>
<g id="a_edge9_Node000001_Node000010"><a xlink:title=" ">
<path fill="none" stroke="#63b8ff" d="M94.5,-279.61C115.88,-269.18 150.49,-253.23 181.75,-243 188.36,-240.84 195.33,-238.84 202.33,-237.01"/>
<polygon fill="#63b8ff" stroke="#63b8ff" points="202.7,-240.27 211.55,-234.45 201,-233.48 202.7,-240.27"/>
</a>
</g>
</g>
<!-- Node11 -->
<g id="Node000011" class="node">
<title>Node11</title>
<g id="a_Node000011"><a xlink:href="a00399.html#ga1ce191440d01b9f65ab3c8837f6c4c5d" target="_top" xlink:title="This function can be used to override default callback and to define custom callback for CAN1_RxBuffe...">
<polygon fill="white" stroke="#666666" points="347.38,-196 186.62,-196 186.62,-164 347.38,-164 347.38,-196"/>
<text text-anchor="start" x="194.62" y="-182.5" font-family="Helvetica,sans-Serif" font-size="10.00">CAN1_RxBufferOverFlowCallback</text>
<text text-anchor="middle" x="267" y="-170.5" font-family="Helvetica,sans-Serif" font-size="10.00">Register</text>
</a>
</g>
</g>
<!-- Node1&#45;&gt;Node11 -->
<g id="edge10_Node000001_Node000011" class="edge">
<title>Node1&#45;&gt;Node11</title>
<g id="a_edge10_Node000001_Node000011"><a xlink:title=" ">
<path fill="none" stroke="#63b8ff" d="M84.24,-279.56C102.43,-261.79 141.95,-225.62 181.75,-205 184.87,-203.39 188.1,-201.86 191.41,-200.42"/>
<polygon fill="#63b8ff" stroke="#63b8ff" points="192.54,-203.33 200.51,-196.35 189.93,-196.84 192.54,-203.33"/>
</a>
</g>
</g>
<!-- Node12 -->
<g id="Node000012" class="node">
<title>Node12</title>
<g id="a_Node000012"><a xlink:href="a00399.html#ga9c0579a2606bbdcf40073c96c82e3fc9" target="_top" xlink:title="This is the default callback with weak attribute. The user can override and implement the default cal...">
<polygon fill="white" stroke="#666666" points="336.5,-146 197.5,-146 197.5,-126 336.5,-126 336.5,-146"/>
<text text-anchor="middle" x="267" y="-132.5" font-family="Helvetica,sans-Serif" font-size="10.00">CAN1_SystemErrorCallback</text>
</a>
</g>
</g>
<!-- Node1&#45;&gt;Node12 -->
<g id="edge11_Node000001_Node000012" class="edge">
<title>Node1&#45;&gt;Node12</title>
<g id="a_edge11_Node000001_Node000012"><a xlink:title=" ">
<path fill="none" stroke="#63b8ff" d="M79,-279.57C92.17,-253.92 129.87,-187.47 181.75,-155 184.23,-153.45 186.81,-152.03 189.48,-150.72"/>
<polygon fill="#63b8ff" stroke="#63b8ff" points="190.61,-153.61 198.43,-146.47 187.86,-147.18 190.61,-153.61"/>
</a>
</g>
</g>
<!-- Node13 -->
<g id="Node000013" class="node">
<title>Node13</title>
<g id="a_Node000013"><a xlink:href="a00399.html#ga589e67cdfd74495013704b8357df54ad" target="_top" xlink:title="This function can be used to override default callback and to define custom callback for CAN1_SystemE...">
<polygon fill="white" stroke="#666666" points="336.5,-108 197.5,-108 197.5,-76 336.5,-76 336.5,-108"/>
<text text-anchor="start" x="205.5" y="-94.5" font-family="Helvetica,sans-Serif" font-size="10.00">CAN1_SystemErrorCallback</text>
<text text-anchor="middle" x="267" y="-82.5" font-family="Helvetica,sans-Serif" font-size="10.00">Register</text>
</a>
</g>
</g>
<!-- Node1&#45;&gt;Node13 -->
<g id="edge12_Node000001_Node000013" class="edge">
<title>Node1&#45;&gt;Node13</title>
<g id="a_edge12_Node000001_Node000013"><a xlink:title=" ">
<path fill="none" stroke="#63b8ff" d="M77.34,-279.61C87.91,-249.6 122.62,-162.03 181.75,-117 183.67,-115.54 185.68,-114.16 187.76,-112.86"/>
<polygon fill="#63b8ff" stroke="#63b8ff" points="189.14,-115.54 196.22,-107.67 185.77,-109.4 189.14,-115.54"/>
</a>
</g>
</g>
<!-- Node14 -->
<g id="Node000014" class="node">
<title>Node14</title>
<g id="a_Node000014"><a xlink:href="a00399.html#ga348dcbe373245ad35f5d4a22250ae3b8" target="_top" xlink:title="This is the default callback with weak attribute. The user can override and implement the default cal...">
<polygon fill="white" stroke="#666666" points="331.62,-58 202.38,-58 202.38,-38 331.62,-38 331.62,-58"/>
<text text-anchor="middle" x="267" y="-44.5" font-family="Helvetica,sans-Serif" font-size="10.00">CAN1_TxAttemptCallback</text>
</a>
</g>
</g>
<!-- Node1&#45;&gt;Node14 -->
<g id="edge13_Node000001_Node000014" class="edge">
<title>Node1&#45;&gt;Node14</title>
<g id="a_edge13_Node000001_Node000014"><a xlink:title=" ">
<path fill="none" stroke="#63b8ff" d="M75.62,-279.6C82.22,-243.81 109,-124.76 181.75,-67 184.93,-64.47 188.38,-62.27 192.01,-60.35"/>
<polygon fill="#63b8ff" stroke="#63b8ff" points="193.27,-63.17 200.97,-55.89 190.41,-56.78 193.27,-63.17"/>
</a>
</g>
</g>
<!-- Node15 -->
<g id="Node000015" class="node">
<title>Node15</title>
<g id="a_Node000015"><a xlink:href="a00399.html#gaf093799d78b962becbf6810614899884" target="_top" xlink:title="This function can be used to override default callback and to define custom callback for CAN1_TxAttem...">
<polygon fill="white" stroke="#666666" points="349.62,-20 184.38,-20 184.38,0 349.62,0 349.62,-20"/>
<text text-anchor="middle" x="267" y="-6.5" font-family="Helvetica,sans-Serif" font-size="10.00">CAN1_TxAttemptCallbackRegister</text>
</a>
</g>
</g>
<!-- Node1&#45;&gt;Node15 -->
<g id="edge14_Node000001_Node000015" class="edge">
<title>Node1&#45;&gt;Node15</title>
<g id="a_edge14_Node000001_Node000015"><a xlink:title=" ">
<path fill="none" stroke="#63b8ff" d="M74.84,-279.56C79.07,-240.01 99.65,-98.2 181.75,-29 183,-27.94 184.3,-26.94 185.65,-25.99"/>
<polygon fill="#63b8ff" stroke="#63b8ff" points="187.18,-28.56 194.02,-20.47 183.62,-22.53 187.18,-28.56"/>
</a>
</g>
</g>
</g>
</svg>
