<?xml version="1.0" encoding="UTF-8" standalone="no"?>
<!DOCTYPE svg PUBLIC "-//W3C//DTD SVG 1.1//EN"
 "http://www.w3.org/Graphics/SVG/1.1/DTD/svg11.dtd">
<!-- Generated by graphviz version 2.44.1 (20200629.0846)
 -->
<!-- Title: _ADCAN1Interrupt Pages: 1 -->
<svg width="748pt" height="419pt"
 viewBox="0.00 0.00 748.00 418.65" xmlns="http://www.w3.org/2000/svg" xmlns:xlink="http://www.w3.org/1999/xlink">
<g id="graph0" class="graph" transform="scale(1 1) rotate(0) translate(4 414.65)">
<title>_ADCAN1Interrupt</title>
<!-- Node1 -->
<g id="Node000001" class="node">
<title>Node1</title>
<g id="a_Node000001"><a xlink:title=" ">
<polygon fill="#999999" stroke="#666666" points="96,-317.65 0,-317.65 0,-298.65 96,-298.65 96,-317.65"/>
<text text-anchor="middle" x="48" y="-305.65" font-family="Helvetica,sans-Serif" font-size="10.00">_ADCAN1Interrupt</text>
</a>
</g>
</g>
<!-- Node2 -->
<g id="Node000002" class="node">
<title>Node2</title>
<g id="a_Node000002"><a xlink:href="a00371.html#a87fa9190951df7c866d828b8ad7b526b" target="_top" xlink:title=" ">
<polygon fill="white" stroke="#666666" points="257,-298.65 132,-298.65 132,-279.65 257,-279.65 257,-298.65"/>
<text text-anchor="middle" x="194.5" y="-286.65" font-family="Helvetica,sans-Serif" font-size="10.00">Application_handler_PH2</text>
</a>
</g>
</g>
<!-- Node1&#45;&gt;Node2 -->
<g id="edge1_Node000001_Node000002" class="edge">
<title>Node1&#45;&gt;Node2</title>
<g id="a_edge1_Node000001_Node000002"><a xlink:title=" ">
<path fill="none" stroke="#63b8ff" d="M96.31,-301.93C104.48,-300.85 113.13,-299.71 121.77,-298.58"/>
<polygon fill="#63b8ff" stroke="#63b8ff" points="122.41,-302.02 131.87,-297.25 121.5,-295.08 122.41,-302.02"/>
</a>
</g>
</g>
<!-- Node18 -->
<g id="Node000018" class="node">
<title>Node18</title>
<g id="a_Node000018"><a xlink:href="a00365.html#a315b78111431dff7a91b13e42f9133b1" target="_top" xlink:title="stop and reset power controller">
<polygon fill="white" stroke="#666666" points="557,-410.65 416,-410.65 416,-391.65 557,-391.65 557,-410.65"/>
<text text-anchor="middle" x="486.5" y="-398.65" font-family="Helvetica,sans-Serif" font-size="10.00">Drv_PwrCtrl_TPBLPFC_Stop</text>
</a>
</g>
</g>
<!-- Node1&#45;&gt;Node18 -->
<g id="edge32_Node000001_Node000018" class="edge">
<title>Node1&#45;&gt;Node18</title>
<g id="a_edge32_Node000001_Node000018"><a xlink:title=" ">
<path fill="none" stroke="#63b8ff" d="M93.66,-317.66C174.23,-334.83 343.63,-370.92 430.93,-389.52"/>
<polygon fill="#63b8ff" stroke="#63b8ff" points="430.39,-392.98 440.9,-391.64 431.85,-386.14 430.39,-392.98"/>
</a>
</g>
</g>
<!-- Node3 -->
<g id="Node000003" class="node">
<title>Node3</title>
<g id="a_Node000003"><a xlink:href="a00371.html#a647fd6dacbfbcebe49cc34111a01493b" target="_top" xlink:title=" ">
<polygon fill="white" stroke="#666666" points="367,-225.65 293,-225.65 293,-206.65 367,-206.65 367,-225.65"/>
<text text-anchor="middle" x="330" y="-213.65" font-family="Helvetica,sans-Serif" font-size="10.00">Handler_PHx</text>
</a>
</g>
</g>
<!-- Node2&#45;&gt;Node3 -->
<g id="edge2_Node000002_Node000003" class="edge">
<title>Node2&#45;&gt;Node3</title>
<g id="a_edge2_Node000002_Node000003"><a xlink:title=" ">
<path fill="none" stroke="#63b8ff" d="M212.95,-279.6C235.74,-267.14 275.84,-245.21 302.42,-230.68"/>
<polygon fill="#63b8ff" stroke="#63b8ff" points="304.45,-233.56 311.54,-225.69 301.09,-227.42 304.45,-233.56"/>
</a>
</g>
</g>
<!-- Node4 -->
<g id="Node000004" class="node">
<title>Node4</title>
<g id="a_Node000004"><a xlink:href="a00371.html#af6c4a58221bd490ef4d2084547601a10" target="_top" xlink:title=" ">
<polygon fill="white" stroke="#666666" points="564,-225.65 409,-225.65 409,-206.65 564,-206.65 564,-225.65"/>
<text text-anchor="middle" x="486.5" y="-213.65" font-family="Helvetica,sans-Serif" font-size="10.00">Adaptive_Currentcontroller_Gain</text>
</a>
</g>
</g>
<!-- Node3&#45;&gt;Node4 -->
<g id="edge3_Node000003_Node000004" class="edge">
<title>Node3&#45;&gt;Node4</title>
<g id="a_edge3_Node000003_Node000004"><a xlink:title=" ">
<path fill="none" stroke="#63b8ff" d="M367.22,-216.15C376.78,-216.15 387.52,-216.15 398.53,-216.15"/>
<polygon fill="#63b8ff" stroke="#63b8ff" points="398.69,-219.65 408.69,-216.15 398.69,-212.65 398.69,-219.65"/>
</a>
</g>
</g>
<!-- Node5 -->
<g id="Node000005" class="node">
<title>Node5</title>
<g id="a_Node000005"><a xlink:href="a00371.html#a51a90512029dd0d15f013ea8548c5e7c" target="_top" xlink:title=" ">
<polygon fill="white" stroke="#666666" points="530.5,-373.65 442.5,-373.65 442.5,-354.65 530.5,-354.65 530.5,-373.65"/>
<text text-anchor="middle" x="486.5" y="-361.65" font-family="Helvetica,sans-Serif" font-size="10.00">BurstMode_PHx</text>
</a>
</g>
</g>
<!-- Node3&#45;&gt;Node5 -->
<g id="edge4_Node000003_Node000005" class="edge">
<title>Node3&#45;&gt;Node5</title>
<g id="a_edge4_Node000003_Node000005"><a xlink:title=" ">
<path fill="none" stroke="#63b8ff" d="M333.38,-225.81C339.93,-250.2 360.57,-314.56 403,-346.15 411.55,-352.51 421.91,-356.72 432.35,-359.47"/>
<polygon fill="#63b8ff" stroke="#63b8ff" points="431.81,-362.94 442.33,-361.69 433.33,-356.1 431.81,-362.94"/>
</a>
</g>
</g>
<!-- Node8 -->
<g id="Node000008" class="node">
<title>Node8</title>
<g id="a_Node000008"><a xlink:href="a00371.html#a69847930c99b34bceb7165143cd28b92" target="_top" xlink:title=" ">
<polygon fill="white" stroke="#666666" points="517.5,-188.65 455.5,-188.65 455.5,-169.65 517.5,-169.65 517.5,-188.65"/>
<text text-anchor="middle" x="486.5" y="-176.65" font-family="Helvetica,sans-Serif" font-size="10.00">CCM_PHx</text>
</a>
</g>
</g>
<!-- Node3&#45;&gt;Node8 -->
<g id="edge7_Node000003_Node000008" class="edge">
<title>Node3&#45;&gt;Node8</title>
<g id="a_edge7_Node000003_Node000008"><a xlink:title=" ">
<path fill="none" stroke="#63b8ff" d="M366.08,-206.56C377.79,-203.45 390.93,-200.05 403,-197.15 416.74,-193.84 431.84,-190.47 445.31,-187.55"/>
<polygon fill="#63b8ff" stroke="#63b8ff" points="446.21,-190.94 455.26,-185.42 444.75,-184.09 446.21,-190.94"/>
</a>
</g>
</g>
<!-- Node11 -->
<g id="Node000011" class="node">
<title>Node11</title>
<g id="a_Node000011"><a xlink:href="a00371.html#a02e735cc5f9ec0075b4b0157326fd3db" target="_top" xlink:title=" ">
<polygon fill="white" stroke="#666666" points="557.5,-336.65 415.5,-336.65 415.5,-317.65 557.5,-317.65 557.5,-336.65"/>
<text text-anchor="middle" x="486.5" y="-324.65" font-family="Helvetica,sans-Serif" font-size="10.00">DutyCycleFeedForward_PHx</text>
</a>
</g>
</g>
<!-- Node3&#45;&gt;Node11 -->
<g id="edge12_Node000003_Node000011" class="edge">
<title>Node3&#45;&gt;Node11</title>
<g id="a_edge12_Node000003_Node000011"><a xlink:title=" ">
<path fill="none" stroke="#63b8ff" d="M335.63,-225.71C345.32,-244.65 369.63,-286.92 403,-308.15 406.32,-310.26 409.85,-312.14 413.51,-313.81"/>
<polygon fill="#63b8ff" stroke="#63b8ff" points="412.25,-317.07 422.83,-317.55 414.85,-310.58 412.25,-317.07"/>
</a>
</g>
</g>
<!-- Node12 -->
<g id="Node000012" class="node">
<title>Node12</title>
<g id="a_Node000012"><a xlink:href="a00407.html#ga37968a783e44cd80643478d2b559dbf4" target="_top" xlink:title="This inline function sets the PWM generator specific duty cycle register.">
<polygon fill="white" stroke="#666666" points="726.5,-50.65 619.5,-50.65 619.5,-31.65 726.5,-31.65 726.5,-50.65"/>
<text text-anchor="middle" x="673" y="-38.65" font-family="Helvetica,sans-Serif" font-size="10.00">PWM_DutyCycleSet</text>
</a>
</g>
</g>
<!-- Node3&#45;&gt;Node12 -->
<g id="edge13_Node000003_Node000012" class="edge">
<title>Node3&#45;&gt;Node12</title>
<g id="a_edge13_Node000003_Node000012"><a xlink:title=" ">
<path fill="none" stroke="#63b8ff" d="M331.17,-206.45C332.3,-174.18 340.84,-69.98 403,-27.15 475.14,22.57 585.75,-7.98 639.9,-27.94"/>
<polygon fill="#63b8ff" stroke="#63b8ff" points="638.74,-31.24 649.33,-31.52 641.22,-24.7 638.74,-31.24"/>
</a>
</g>
</g>
<!-- Node13 -->
<g id="Node000013" class="node">
<title>Node13</title>
<g id="a_Node000013"><a xlink:href="a00380.html#ac4c8852561395f2969c08ff062325e03" target="_top" xlink:title=" ">
<polygon fill="white" stroke="#666666" points="559,-299.65 414,-299.65 414,-280.65 559,-280.65 559,-299.65"/>
<text text-anchor="middle" x="486.5" y="-287.65" font-family="Helvetica,sans-Serif" font-size="10.00">SMPS_Controller2P2ZUpdate</text>
</a>
</g>
</g>
<!-- Node3&#45;&gt;Node13 -->
<g id="edge14_Node000003_Node000013" class="edge">
<title>Node3&#45;&gt;Node13</title>
<g id="a_edge14_Node000003_Node000013"><a xlink:title=" ">
<path fill="none" stroke="#63b8ff" d="M340.8,-225.88C353.87,-238.28 378.23,-259.5 403,-271.15 408.28,-273.63 413.91,-275.8 419.65,-277.69"/>
<polygon fill="#63b8ff" stroke="#63b8ff" points="418.8,-281.09 429.38,-280.63 420.82,-274.39 418.8,-281.09"/>
</a>
</g>
</g>
<!-- Node14 -->
<g id="Node000014" class="node">
<title>Node14</title>
<g id="a_Node000014"><a xlink:href="a00371.html#ad3476b7cd98e6a22a65e1d89b7a59ea5" target="_top" xlink:title=" ">
<polygon fill="white" stroke="#666666" points="541.5,-66.15 431.5,-66.15 431.5,-36.15 541.5,-36.15 541.5,-66.15"/>
<text text-anchor="start" x="439.5" y="-54.15" font-family="Helvetica,sans-Serif" font-size="10.00">SoftstartAfterZC_PHx</text>
<text text-anchor="middle" x="486.5" y="-43.15" font-family="Helvetica,sans-Serif" font-size="10.00">_GTIMode</text>
</a>
</g>
</g>
<!-- Node3&#45;&gt;Node14 -->
<g id="edge15_Node000003_Node000014" class="edge">
<title>Node3&#45;&gt;Node14</title>
<g id="a_edge15_Node000003_Node000014"><a xlink:title=" ">
<path fill="none" stroke="#63b8ff" d="M333.08,-206.61C339.14,-181.21 359.15,-111.4 403,-75.15 408.61,-70.51 415.08,-66.76 421.88,-63.74"/>
<polygon fill="#63b8ff" stroke="#63b8ff" points="423.27,-66.96 431.31,-60.06 420.72,-60.44 423.27,-66.96"/>
</a>
</g>
</g>
<!-- Node15 -->
<g id="Node000015" class="node">
<title>Node15</title>
<g id="a_Node000015"><a xlink:href="a00371.html#a3e7091905b384bca668f6f12a50834f4" target="_top" xlink:title=" ">
<polygon fill="white" stroke="#666666" points="541.5,-114.15 431.5,-114.15 431.5,-84.15 541.5,-84.15 541.5,-114.15"/>
<text text-anchor="start" x="439.5" y="-102.15" font-family="Helvetica,sans-Serif" font-size="10.00">SoftstartAfterZC_PHx</text>
<text text-anchor="middle" x="486.5" y="-91.15" font-family="Helvetica,sans-Serif" font-size="10.00">_PFCMode</text>
</a>
</g>
</g>
<!-- Node3&#45;&gt;Node15 -->
<g id="edge21_Node000003_Node000015" class="edge">
<title>Node3&#45;&gt;Node15</title>
<g id="a_edge21_Node000003_Node000015"><a xlink:title=" ">
<path fill="none" stroke="#63b8ff" d="M335.71,-206.64C345.54,-187.78 370.08,-145.55 403,-123.15 408.72,-119.26 415.07,-115.99 421.64,-113.24"/>
<polygon fill="#63b8ff" stroke="#63b8ff" points="423.24,-116.38 431.37,-109.59 420.78,-109.83 423.24,-116.38"/>
</a>
</g>
</g>
<!-- Node16 -->
<g id="Node000016" class="node">
<title>Node16</title>
<g id="a_Node000016"><a xlink:href="a00380.html#a4fd6e889896907ceaae34b73435d5627" target="_top" xlink:title=" ">
<polygon fill="white" stroke="#666666" points="570,-262.65 403,-262.65 403,-243.65 570,-243.65 570,-262.65"/>
<text text-anchor="middle" x="486.5" y="-250.65" font-family="Helvetica,sans-Serif" font-size="10.00">XFT_SMPS_Controller2P2ZUpdate</text>
</a>
</g>
</g>
<!-- Node3&#45;&gt;Node16 -->
<g id="edge27_Node000003_Node000016" class="edge">
<title>Node3&#45;&gt;Node16</title>
<g id="a_edge27_Node000003_Node000016"><a xlink:title=" ">
<path fill="none" stroke="#63b8ff" d="M367.23,-225.34C378.66,-228.21 391.35,-231.35 403,-234.15 412.86,-236.51 423.4,-238.99 433.53,-241.33"/>
<polygon fill="#63b8ff" stroke="#63b8ff" points="432.96,-244.79 443.49,-243.63 434.54,-237.97 432.96,-244.79"/>
</a>
</g>
</g>
<!-- Node17 -->
<g id="Node000017" class="node">
<title>Node17</title>
<g id="a_Node000017"><a xlink:href="a00371.html#a9d01eea56aae5f1437eb541a321277cc" target="_top" xlink:title=" ">
<polygon fill="white" stroke="#666666" points="529,-151.65 444,-151.65 444,-132.65 529,-132.65 529,-151.65"/>
<text text-anchor="middle" x="486.5" y="-139.65" font-family="Helvetica,sans-Serif" font-size="10.00">ZeroCross_PHx</text>
</a>
</g>
</g>
<!-- Node3&#45;&gt;Node17 -->
<g id="edge28_Node000003_Node000017" class="edge">
<title>Node3&#45;&gt;Node17</title>
<g id="a_edge28_Node000003_Node000017"><a xlink:title=" ">
<path fill="none" stroke="#63b8ff" d="M340.3,-206.62C353.19,-194 377.76,-171.97 403,-160.15 412.56,-155.67 423.26,-152.29 433.72,-149.74"/>
<polygon fill="#63b8ff" stroke="#63b8ff" points="434.61,-153.13 443.62,-147.54 433.1,-146.29 434.61,-153.13"/>
</a>
</g>
</g>
<!-- Node6 -->
<g id="Node000006" class="node">
<title>Node6</title>
<g id="a_Node000006"><a xlink:href="a00407.html#ga531b59d8823e3ebda2da60f48582bcf3" target="_top" xlink:title="This inline function enables PWM override on PWMH output for specific PWM generator selected by the a...">
<polygon fill="white" stroke="#666666" points="738.5,-161.65 607.5,-161.65 607.5,-142.65 738.5,-142.65 738.5,-161.65"/>
<text text-anchor="middle" x="673" y="-149.65" font-family="Helvetica,sans-Serif" font-size="10.00">PWM_OverrideHighEnable</text>
</a>
</g>
</g>
<!-- Node5&#45;&gt;Node6 -->
<g id="edge5_Node000005_Node000006" class="edge">
<title>Node5&#45;&gt;Node6</title>
<g id="a_edge5_Node000005_Node000006"><a xlink:title=" ">
<path fill="none" stroke="#63b8ff" d="M530.6,-363.86C544.86,-361.61 559.7,-356.58 570,-346.15 626.09,-289.32 551.39,-228.39 606,-170.15 606.79,-169.3 607.62,-168.5 608.48,-167.73"/>
<polygon fill="#63b8ff" stroke="#63b8ff" points="610.81,-170.36 616.96,-161.74 606.77,-164.65 610.81,-170.36"/>
</a>
</g>
</g>
<!-- Node7 -->
<g id="Node000007" class="node">
<title>Node7</title>
<g id="a_Node000007"><a xlink:href="a00407.html#ga2548ca8feda75ba6ab784280679da6ae" target="_top" xlink:title="This inline function enables PWM override on PWML output for specific PWM generator selected by the a...">
<polygon fill="white" stroke="#666666" points="737.5,-198.65 608.5,-198.65 608.5,-179.65 737.5,-179.65 737.5,-198.65"/>
<text text-anchor="middle" x="673" y="-186.65" font-family="Helvetica,sans-Serif" font-size="10.00">PWM_OverrideLowEnable</text>
</a>
</g>
</g>
<!-- Node5&#45;&gt;Node7 -->
<g id="edge6_Node000005_Node000007" class="edge">
<title>Node5&#45;&gt;Node7</title>
<g id="a_edge6_Node000005_Node000007"><a xlink:title=" ">
<path fill="none" stroke="#63b8ff" d="M530.75,-361.14C544.23,-358.58 558.54,-354.06 570,-346.15 620.67,-311.13 652.21,-241.93 665.18,-208.34"/>
<polygon fill="#63b8ff" stroke="#63b8ff" points="668.54,-209.37 668.74,-198.77 661.98,-206.93 668.54,-209.37"/>
</a>
</g>
</g>
<!-- Node8&#45;&gt;Node6 -->
<g id="edge9_Node000008_Node000006" class="edge">
<title>Node8&#45;&gt;Node6</title>
<g id="a_edge9_Node000008_Node000006"><a xlink:title=" ">
<path fill="none" stroke="#63b8ff" d="M517.55,-174.75C539.11,-171.59 569.14,-167.2 596.99,-163.12"/>
<polygon fill="#63b8ff" stroke="#63b8ff" points="597.75,-166.55 607.14,-161.64 596.74,-159.62 597.75,-166.55"/>
</a>
</g>
</g>
<!-- Node8&#45;&gt;Node7 -->
<g id="edge11_Node000008_Node000007" class="edge">
<title>Node8&#45;&gt;Node7</title>
<g id="a_edge11_Node000008_Node000007"><a xlink:title=" ">
<path fill="none" stroke="#63b8ff" d="M517.55,-180.78C539.38,-181.96 569.9,-183.61 598.05,-185.14"/>
<polygon fill="#63b8ff" stroke="#63b8ff" points="598.12,-188.65 608.3,-185.69 598.5,-181.66 598.12,-188.65"/>
</a>
</g>
</g>
<!-- Node9 -->
<g id="Node000009" class="node">
<title>Node9</title>
<g id="a_Node000009"><a xlink:href="a00407.html#ga957b002605bfb2239a26f174808b2ad8" target="_top" xlink:title="This inline function disables PWM override on PWMH output for specific PWM generator selected by the ...">
<polygon fill="white" stroke="#666666" points="740,-87.65 606,-87.65 606,-68.65 740,-68.65 740,-87.65"/>
<text text-anchor="middle" x="673" y="-75.65" font-family="Helvetica,sans-Serif" font-size="10.00">PWM_OverrideHighDisable</text>
</a>
</g>
</g>
<!-- Node8&#45;&gt;Node9 -->
<g id="edge8_Node000008_Node000009" class="edge">
<title>Node8&#45;&gt;Node9</title>
<g id="a_edge8_Node000008_Node000009"><a xlink:title=" ">
<path fill="none" stroke="#63b8ff" d="M517.85,-178.05C534.63,-176.09 555.05,-171.33 570,-160.15 596.13,-140.59 580.26,-116.22 606,-96.15 607.79,-94.75 609.68,-93.47 611.64,-92.28"/>
<polygon fill="#63b8ff" stroke="#63b8ff" points="613.34,-95.34 620.66,-87.69 610.16,-89.1 613.34,-95.34"/>
</a>
</g>
</g>
<!-- Node10 -->
<g id="Node000010" class="node">
<title>Node10</title>
<g id="a_Node000010"><a xlink:href="a00407.html#gabbedef830c43428e96c7d5125662a8a6" target="_top" xlink:title="This inline function disables PWM override on PWML output for specific PWM generator selected by the ...">
<polygon fill="white" stroke="#666666" points="738.5,-124.65 607.5,-124.65 607.5,-105.65 738.5,-105.65 738.5,-124.65"/>
<text text-anchor="middle" x="673" y="-112.65" font-family="Helvetica,sans-Serif" font-size="10.00">PWM_OverrideLowDisable</text>
</a>
</g>
</g>
<!-- Node8&#45;&gt;Node10 -->
<g id="edge10_Node000008_Node000010" class="edge">
<title>Node8&#45;&gt;Node10</title>
<g id="a_edge10_Node000008_Node000010"><a xlink:title=" ">
<path fill="none" stroke="#63b8ff" d="M517.89,-175.26C533.92,-172.45 553.6,-167.76 570,-160.15 588.14,-151.72 588.03,-141.93 606,-133.15 609.84,-131.27 613.91,-129.56 618.06,-128.02"/>
<polygon fill="#63b8ff" stroke="#63b8ff" points="619.49,-131.23 627.84,-124.7 617.24,-124.6 619.49,-131.23"/>
</a>
</g>
</g>
<!-- Node14&#45;&gt;Node6 -->
<g id="edge18_Node000014_Node000006" class="edge">
<title>Node14&#45;&gt;Node6</title>
<g id="a_edge18_Node000014_Node000006"><a xlink:title=" ">
<path fill="none" stroke="#63b8ff" d="M541.7,-60.75C551.75,-64.18 561.68,-68.83 570,-75.15 594.17,-93.49 581.81,-114.84 606,-133.15 608.49,-135.03 611.15,-136.72 613.94,-138.25"/>
<polygon fill="#63b8ff" stroke="#63b8ff" points="612.62,-141.5 623.16,-142.58 615.6,-135.16 612.62,-141.5"/>
</a>
</g>
</g>
<!-- Node14&#45;&gt;Node7 -->
<g id="edge20_Node000014_Node000007" class="edge">
<title>Node14&#45;&gt;Node7</title>
<g id="a_edge20_Node000014_Node000007"><a xlink:title=" ">
<path fill="none" stroke="#63b8ff" d="M541.87,-59.22C552.13,-62.77 562.11,-67.86 570,-75.15 603.17,-105.79 572.79,-139.55 606,-170.15 607.71,-171.72 609.54,-173.17 611.47,-174.49"/>
<polygon fill="#63b8ff" stroke="#63b8ff" points="610,-177.69 620.43,-179.58 613.46,-171.6 610,-177.69"/>
</a>
</g>
</g>
<!-- Node14&#45;&gt;Node9 -->
<g id="edge17_Node000014_Node000009" class="edge">
<title>Node14&#45;&gt;Node9</title>
<g id="a_edge17_Node000014_Node000009"><a xlink:title=" ">
<path fill="none" stroke="#63b8ff" d="M541.86,-59.1C559.08,-61.62 578.43,-64.45 596.84,-67.15"/>
<polygon fill="#63b8ff" stroke="#63b8ff" points="596.55,-70.64 606.95,-68.63 597.56,-63.72 596.55,-70.64"/>
</a>
</g>
</g>
<!-- Node14&#45;&gt;Node10 -->
<g id="edge19_Node000014_Node000010" class="edge">
<title>Node14&#45;&gt;Node10</title>
<g id="a_edge19_Node000014_Node000010"><a xlink:title=" ">
<path fill="none" stroke="#63b8ff" d="M541.87,-64.9C551.39,-67.89 561.09,-71.32 570,-75.15 587.02,-82.45 588.97,-88.86 606,-96.15 611.41,-98.46 617.18,-100.59 622.98,-102.51"/>
<polygon fill="#63b8ff" stroke="#63b8ff" points="622.11,-105.91 632.7,-105.57 624.21,-99.23 622.11,-105.91"/>
</a>
</g>
</g>
<!-- Node14&#45;&gt;Node12 -->
<g id="edge16_Node000014_Node000012" class="edge">
<title>Node14&#45;&gt;Node12</title>
<g id="a_edge16_Node000014_Node000012"><a xlink:title=" ">
<path fill="none" stroke="#63b8ff" d="M541.86,-48.2C562.96,-47.06 587.27,-45.74 609.12,-44.55"/>
<polygon fill="#63b8ff" stroke="#63b8ff" points="609.5,-48.04 619.3,-44 609.12,-41.05 609.5,-48.04"/>
</a>
</g>
</g>
<!-- Node15&#45;&gt;Node6 -->
<g id="edge24_Node000015_Node000006" class="edge">
<title>Node15&#45;&gt;Node6</title>
<g id="a_edge24_Node000015_Node000006"><a xlink:title=" ">
<path fill="none" stroke="#63b8ff" d="M539.88,-114.19C568.03,-122.28 602.31,-132.13 628.9,-139.77"/>
<polygon fill="#63b8ff" stroke="#63b8ff" points="628.11,-143.18 638.69,-142.58 630.04,-136.45 628.11,-143.18"/>
</a>
</g>
</g>
<!-- Node15&#45;&gt;Node7 -->
<g id="edge26_Node000015_Node000007" class="edge">
<title>Node15&#45;&gt;Node7</title>
<g id="a_edge26_Node000015_Node000007"><a xlink:title=" ">
<path fill="none" stroke="#63b8ff" d="M541.65,-109.55C551.6,-112.91 561.51,-117.33 570,-123.15 591.71,-138.01 584.26,-155.32 606,-170.15 608.95,-172.16 612.1,-173.96 615.38,-175.57"/>
<polygon fill="#63b8ff" stroke="#63b8ff" points="614.31,-178.91 624.88,-179.63 617.06,-172.48 614.31,-178.91"/>
</a>
</g>
</g>
<!-- Node15&#45;&gt;Node9 -->
<g id="edge23_Node000015_Node000009" class="edge">
<title>Node15&#45;&gt;Node9</title>
<g id="a_edge23_Node000015_Node000009"><a xlink:title=" ">
<path fill="none" stroke="#63b8ff" d="M541.86,-92.96C558.81,-91.03 577.83,-88.87 595.98,-86.8"/>
<polygon fill="#63b8ff" stroke="#63b8ff" points="596.41,-90.27 605.95,-85.66 595.62,-83.32 596.41,-90.27"/>
</a>
</g>
</g>
<!-- Node15&#45;&gt;Node10 -->
<g id="edge25_Node000015_Node000010" class="edge">
<title>Node15&#45;&gt;Node10</title>
<g id="a_edge25_Node000015_Node000010"><a xlink:title=" ">
<path fill="none" stroke="#63b8ff" d="M541.86,-103.86C559.17,-105.36 578.63,-107.05 597.13,-108.65"/>
<polygon fill="#63b8ff" stroke="#63b8ff" points="597.02,-112.16 607.28,-109.53 597.62,-105.18 597.02,-112.16"/>
</a>
</g>
</g>
<!-- Node15&#45;&gt;Node12 -->
<g id="edge22_Node000015_Node000012" class="edge">
<title>Node15&#45;&gt;Node12</title>
<g id="a_edge22_Node000015_Node000012"><a xlink:title=" ">
<path fill="none" stroke="#63b8ff" d="M541.54,-84.56C551.09,-81.66 560.89,-78.48 570,-75.15 586.44,-69.13 589.51,-65.02 606,-59.15 611.52,-57.18 617.36,-55.3 623.2,-53.55"/>
<polygon fill="#63b8ff" stroke="#63b8ff" points="624.32,-56.87 632.96,-50.74 622.38,-50.15 624.32,-56.87"/>
</a>
</g>
</g>
<!-- Node17&#45;&gt;Node6 -->
<g id="edge30_Node000017_Node000006" class="edge">
<title>Node17&#45;&gt;Node6</title>
<g id="a_edge30_Node000017_Node000006"><a xlink:title=" ">
<path fill="none" stroke="#63b8ff" d="M529.37,-144.42C549.46,-145.5 574.16,-146.84 597.33,-148.1"/>
<polygon fill="#63b8ff" stroke="#63b8ff" points="597.31,-151.6 607.49,-148.65 597.69,-144.61 597.31,-151.6"/>
</a>
</g>
</g>
<!-- Node17&#45;&gt;Node7 -->
<g id="edge31_Node000017_Node000007" class="edge">
<title>Node17&#45;&gt;Node7</title>
<g id="a_edge31_Node000017_Node000007"><a xlink:title=" ">
<path fill="none" stroke="#63b8ff" d="M529.16,-150.71C542.27,-153.54 556.78,-156.83 570,-160.15 576.01,-161.65 603.91,-169.6 629.01,-176.79"/>
<polygon fill="#63b8ff" stroke="#63b8ff" points="628.22,-180.2 638.8,-179.6 630.15,-173.48 628.22,-180.2"/>
</a>
</g>
</g>
<!-- Node17&#45;&gt;Node12 -->
<g id="edge29_Node000017_Node000012" class="edge">
<title>Node17&#45;&gt;Node12</title>
<g id="a_edge29_Node000017_Node000012"><a xlink:title=" ">
<path fill="none" stroke="#63b8ff" d="M529.38,-139.31C543.37,-136.68 558.35,-131.86 570,-123.15 596.13,-103.59 580.26,-79.22 606,-59.15 607.79,-57.75 609.68,-56.47 611.64,-55.28"/>
<polygon fill="#63b8ff" stroke="#63b8ff" points="613.34,-58.34 620.66,-50.69 610.16,-52.1 613.34,-58.34"/>
</a>
</g>
</g>
<!-- Node18&#45;&gt;Node6 -->
<g id="edge33_Node000018_Node000006" class="edge">
<title>Node18&#45;&gt;Node6</title>
<g id="a_edge33_Node000018_Node000006"><a xlink:title=" ">
<path fill="none" stroke="#63b8ff" d="M557.11,-392.78C561.87,-390.24 566.26,-387.07 570,-383.15 636.26,-313.67 541.55,-241.31 606,-170.15 606.76,-169.31 607.55,-168.51 608.37,-167.75"/>
<polygon fill="#63b8ff" stroke="#63b8ff" points="610.51,-170.52 616.52,-161.8 606.38,-164.87 610.51,-170.52"/>
</a>
</g>
</g>
<!-- Node18&#45;&gt;Node7 -->
<g id="edge34_Node000018_Node000007" class="edge">
<title>Node18&#45;&gt;Node7</title>
<g id="a_edge34_Node000018_Node000007"><a xlink:title=" ">
<path fill="none" stroke="#63b8ff" d="M555.44,-391.56C560.63,-389.29 565.57,-386.52 570,-383.15 629.37,-337.94 657.64,-248.15 667.61,-208.61"/>
<polygon fill="#63b8ff" stroke="#63b8ff" points="671.07,-209.21 670,-198.67 664.26,-207.57 671.07,-209.21"/>
</a>
</g>
</g>
</g>
</svg>
