<?xml version="1.0" encoding="UTF-8" standalone="no"?>
<!DOCTYPE svg PUBLIC "-//W3C//DTD SVG 1.1//EN"
 "http://www.w3.org/Graphics/SVG/1.1/DTD/svg11.dtd">
<!-- Generated by graphviz version 2.44.1 (20200629.0846)
 -->
<!-- Title: C:/Users/M70027/Documents/Projects/tp&#45;deployment/dspic33ch&#45;power&#45;totem&#45;pole&#45;demonstration&#45;application&#45;single&#45;phase_v2/dspic33ch_totem_pole_single_phase_secondary_IL.X/sources/driver/power_controller/drv_pwrctrl_app_TPBLPFC.c Pages: 1 -->
<svg width="1313pt" height="302pt"
 viewBox="0.00 0.00 1312.50 302.00" xmlns="http://www.w3.org/2000/svg" xmlns:xlink="http://www.w3.org/1999/xlink">
<g id="graph0" class="graph" transform="scale(1 1) rotate(0) translate(4 298)">
<title>C:/Users/M70027/Documents/Projects/tp&#45;deployment/dspic33ch&#45;power&#45;totem&#45;pole&#45;demonstration&#45;application&#45;single&#45;phase_v2/dspic33ch_totem_pole_single_phase_secondary_IL.X/sources/driver/power_controller/drv_pwrctrl_app_TPBLPFC.c</title>
<!-- Node1 -->
<g id="Node000001" class="node">
<title>Node1</title>
<g id="a_Node000001"><a xlink:title="This is the driver source file for the power controller app.">
<polygon fill="#999999" stroke="#666666" points="691,-294 518,-294 518,-198 691,-198 691,-294"/>
<text text-anchor="start" x="526" y="-282" font-family="Helvetica,sans-Serif" font-size="10.00">C:/Users/M70027/Documents</text>
<text text-anchor="start" x="526" y="-271" font-family="Helvetica,sans-Serif" font-size="10.00">/Projects/tp&#45;deployment</text>
<text text-anchor="start" x="526" y="-260" font-family="Helvetica,sans-Serif" font-size="10.00">/dspic33ch&#45;power&#45;totem&#45;pole</text>
<text text-anchor="start" x="526" y="-249" font-family="Helvetica,sans-Serif" font-size="10.00">&#45;demonstration&#45;application</text>
<text text-anchor="start" x="526" y="-238" font-family="Helvetica,sans-Serif" font-size="10.00">&#45;single&#45;phase_v2/dspic33ch_totem</text>
<text text-anchor="start" x="526" y="-227" font-family="Helvetica,sans-Serif" font-size="10.00">_pole_single_phase_secondary_IL.X</text>
<text text-anchor="start" x="526" y="-216" font-family="Helvetica,sans-Serif" font-size="10.00">/sources/driver/power_controller</text>
<text text-anchor="middle" x="604.5" y="-205" font-family="Helvetica,sans-Serif" font-size="10.00">/drv_pwrctrl_app_TPBLPFC.c</text>
</a>
</g>
</g>
<!-- Node2 -->
<g id="Node000002" class="node">
<title>Node2</title>
<g id="a_Node000002"><a xlink:title=" ">
<polygon fill="#e0e0e0" stroke="#999999" points="113,-156.5 0,-156.5 0,-137.5 113,-137.5 113,-156.5"/>
<text text-anchor="middle" x="56.5" y="-144.5" font-family="Helvetica,sans-Serif" font-size="10.00">p33CH512MP506S1.h</text>
</a>
</g>
</g>
<!-- Node1&#45;&gt;Node2 -->
<g id="edge1_Node000001_Node000002" class="edge">
<title>Node1&#45;&gt;Node2</title>
<g id="a_edge1_Node000001_Node000002"><a xlink:title=" ">
<path fill="none" stroke="#63b8ff" d="M517.68,-231.08C421.04,-215.35 260.3,-188.47 122.5,-162 117.04,-160.95 111.33,-159.81 105.65,-158.64"/>
<polygon fill="#63b8ff" stroke="#63b8ff" points="106.04,-155.15 95.54,-156.54 104.61,-162 106.04,-155.15"/>
</a>
</g>
</g>
<!-- Node3 -->
<g id="Node000003" class="node">
<title>Node3</title>
<g id="a_Node000003"><a xlink:href="a00790_source.html" target="_top" xlink:title=" ">
<polygon fill="white" stroke="#666666" points="1055.5,-162 945.5,-162 945.5,-132 1055.5,-132 1055.5,-162"/>
<text text-anchor="start" x="953.5" y="-150" font-family="Helvetica,sans-Serif" font-size="10.00">../../../mcc_generated</text>
<text text-anchor="middle" x="1000.5" y="-139" font-family="Helvetica,sans-Serif" font-size="10.00">_files/system/pins.h</text>
</a>
</g>
</g>
<!-- Node1&#45;&gt;Node3 -->
<g id="edge2_Node000001_Node000003" class="edge">
<title>Node1&#45;&gt;Node3</title>
<g id="a_edge2_Node000001_Node000003"><a xlink:title=" ">
<path fill="none" stroke="#63b8ff" d="M691.4,-223.71C765.03,-205.68 868.97,-180.22 935.55,-163.91"/>
<polygon fill="#63b8ff" stroke="#63b8ff" points="936.62,-167.25 945.5,-161.47 934.95,-160.45 936.62,-167.25"/>
</a>
</g>
</g>
<!-- Node5 -->
<g id="Node000005" class="node">
<title>Node5</title>
<g id="a_Node000005"><a xlink:href="a00748.html" target="_top" xlink:title="This is the generated driver header file for the CMP1 driver.">
<polygon fill="white" stroke="#666666" points="241.5,-162 131.5,-162 131.5,-132 241.5,-132 241.5,-162"/>
<text text-anchor="start" x="139.5" y="-150" font-family="Helvetica,sans-Serif" font-size="10.00">../../../mcc_generated</text>
<text text-anchor="middle" x="186.5" y="-139" font-family="Helvetica,sans-Serif" font-size="10.00">_files/cmp/cmp1.h</text>
</a>
</g>
</g>
<!-- Node1&#45;&gt;Node5 -->
<g id="edge4_Node000001_Node000005" class="edge">
<title>Node1&#45;&gt;Node5</title>
<g id="a_edge4_Node000001_Node000005"><a xlink:title=" ">
<path fill="none" stroke="#63b8ff" d="M517.89,-224.9C438.64,-206.51 323.14,-179.71 251.52,-163.09"/>
<polygon fill="#63b8ff" stroke="#63b8ff" points="252.25,-159.66 241.71,-160.81 250.66,-166.48 252.25,-159.66"/>
</a>
</g>
</g>
<!-- Node9 -->
<g id="Node000009" class="node">
<title>Node9</title>
<g id="a_Node000009"><a xlink:href="a00362.html" target="_top" xlink:title="This is the driver header file for the power controller.">
<polygon fill="white" stroke="#666666" points="746,-156.5 615,-156.5 615,-137.5 746,-137.5 746,-156.5"/>
<text text-anchor="middle" x="680.5" y="-144.5" font-family="Helvetica,sans-Serif" font-size="10.00">drv_controller_TPBLPFC.h</text>
</a>
</g>
</g>
<!-- Node1&#45;&gt;Node9 -->
<g id="edge10_Node000001_Node000009" class="edge">
<title>Node1&#45;&gt;Node9</title>
<g id="a_edge10_Node000001_Node000009"><a xlink:title=" ">
<path fill="none" stroke="#63b8ff" d="M641.39,-197.92C650.79,-185.92 660.28,-173.81 667.56,-164.52"/>
<polygon fill="#63b8ff" stroke="#63b8ff" points="670.37,-166.6 673.78,-156.57 664.86,-162.29 670.37,-166.6"/>
</a>
</g>
</g>
<!-- Node15 -->
<g id="Node000015" class="node">
<title>Node15</title>
<g id="a_Node000015"><a xlink:href="a00344.html" target="_top" xlink:title="This is the typedef file for power controller.">
<polygon fill="white" stroke="#666666" points="458.5,-90.5 348.5,-90.5 348.5,-60.5 458.5,-60.5 458.5,-90.5"/>
<text text-anchor="start" x="356.5" y="-78.5" font-family="Helvetica,sans-Serif" font-size="10.00">../../devices/dev</text>
<text text-anchor="middle" x="403.5" y="-67.5" font-family="Helvetica,sans-Serif" font-size="10.00">_TPBLPFC_typedef.h</text>
</a>
</g>
</g>
<!-- Node1&#45;&gt;Node15 -->
<g id="edge18_Node000001_Node000015" class="edge">
<title>Node1&#45;&gt;Node15</title>
<g id="a_edge18_Node000001_Node000015"><a xlink:title=" ">
<path fill="none" stroke="#63b8ff" d="M550.75,-197.76C527.23,-177.32 499.19,-153.25 473.5,-132 459.29,-120.24 443.17,-107.43 429.98,-97.08"/>
<polygon fill="#63b8ff" stroke="#63b8ff" points="431.83,-94.08 421.79,-90.67 427.51,-99.59 431.83,-94.08"/>
</a>
</g>
</g>
<!-- Node16 -->
<g id="Node000016" class="node">
<title>Node16</title>
<g id="a_Node000016"><a xlink:href="a00392.html" target="_top" xlink:title="Allows the user to change the advanced operating parameters.">
<polygon fill="white" stroke="#666666" points="465,-156.5 346,-156.5 346,-137.5 465,-137.5 465,-156.5"/>
<text text-anchor="middle" x="405.5" y="-144.5" font-family="Helvetica,sans-Serif" font-size="10.00">PFC_frameworkSetup.h</text>
</a>
</g>
</g>
<!-- Node1&#45;&gt;Node16 -->
<g id="edge21_Node000001_Node000016" class="edge">
<title>Node1&#45;&gt;Node16</title>
<g id="a_edge21_Node000001_Node000016"><a xlink:title=" ">
<path fill="none" stroke="#63b8ff" d="M517.79,-202.74C486.77,-187.62 454.07,-171.67 432,-160.92"/>
<polygon fill="#63b8ff" stroke="#63b8ff" points="433.47,-157.74 422.95,-156.5 430.4,-164.03 433.47,-157.74"/>
</a>
</g>
</g>
<!-- Node19 -->
<g id="Node000019" class="node">
<title>Node19</title>
<g id="a_Node000019"><a xlink:href="a00389_source.html" target="_top" xlink:title=" ">
<polygon fill="white" stroke="#666666" points="897,-156.5 772,-156.5 772,-137.5 897,-137.5 897,-156.5"/>
<text text-anchor="middle" x="834.5" y="-144.5" font-family="Helvetica,sans-Serif" font-size="10.00">../../misc/MCC_add_on.h</text>
</a>
</g>
</g>
<!-- Node1&#45;&gt;Node19 -->
<g id="edge27_Node000001_Node000019" class="edge">
<title>Node1&#45;&gt;Node19</title>
<g id="a_edge27_Node000001_Node000019"><a xlink:title=" ">
<path fill="none" stroke="#63b8ff" d="M691.13,-208.47C730.99,-191.65 775.72,-172.79 804.45,-160.67"/>
<polygon fill="#63b8ff" stroke="#63b8ff" points="806.05,-163.8 813.91,-156.68 803.33,-157.35 806.05,-163.8"/>
</a>
</g>
</g>
<!-- Node20 -->
<g id="Node000020" class="node">
<title>Node20</title>
<g id="a_Node000020"><a xlink:href="a00374.html" target="_top" xlink:title="This is the driver header file for the power controller app.">
<polygon fill="white" stroke="#666666" points="1228.5,-156.5 1088.5,-156.5 1088.5,-137.5 1228.5,-137.5 1228.5,-156.5"/>
<text text-anchor="middle" x="1158.5" y="-144.5" font-family="Helvetica,sans-Serif" font-size="10.00">drv_pwrctrl_app_TPBLPFC.h</text>
</a>
</g>
</g>
<!-- Node1&#45;&gt;Node20 -->
<g id="edge29_Node000001_Node000020" class="edge">
<title>Node1&#45;&gt;Node20</title>
<g id="a_edge29_Node000001_Node000020"><a xlink:title=" ">
<path fill="none" stroke="#63b8ff" d="M691.06,-229.84C804.96,-209.9 1002.1,-175.38 1099.94,-158.25"/>
<polygon fill="#63b8ff" stroke="#63b8ff" points="1100.7,-161.67 1109.94,-156.5 1099.49,-154.78 1100.7,-161.67"/>
</a>
</g>
</g>
<!-- Node4 -->
<g id="Node000004" class="node">
<title>Node4</title>
<g id="a_Node000004"><a xlink:title=" ">
<polygon fill="#e0e0e0" stroke="#999999" points="1062,-19 1027,-19 1027,0 1062,0 1062,-19"/>
<text text-anchor="middle" x="1044.5" y="-7" font-family="Helvetica,sans-Serif" font-size="10.00">xc.h</text>
</a>
</g>
</g>
<!-- Node3&#45;&gt;Node4 -->
<g id="edge3_Node000003_Node000004" class="edge">
<title>Node3&#45;&gt;Node4</title>
<g id="a_edge3_Node000003_Node000004"><a xlink:title=" ">
<path fill="none" stroke="#63b8ff" d="M1050.62,-131.94C1068.28,-124.31 1086.27,-112.87 1096.5,-96 1105.95,-80.42 1104.12,-71.55 1096.5,-55 1090.75,-42.52 1079.59,-32.24 1069.08,-24.71"/>
<polygon fill="#63b8ff" stroke="#63b8ff" points="1070.8,-21.65 1060.53,-19.05 1066.93,-27.49 1070.8,-21.65"/>
</a>
</g>
</g>
<!-- Node6 -->
<g id="Node000006" class="node">
<title>Node6</title>
<g id="a_Node000006"><a xlink:title=" ">
<polygon fill="#e0e0e0" stroke="#999999" points="105,-19 54,-19 54,0 105,0 105,-19"/>
<text text-anchor="middle" x="79.5" y="-7" font-family="Helvetica,sans-Serif" font-size="10.00">stddef.h</text>
</a>
</g>
</g>
<!-- Node5&#45;&gt;Node6 -->
<g id="edge5_Node000005_Node000006" class="edge">
<title>Node5&#45;&gt;Node6</title>
<g id="a_edge5_Node000005_Node000006"><a xlink:title=" ">
<path fill="none" stroke="#63b8ff" d="M136.53,-131.91C106.42,-122.3 72.25,-109 63.5,-96 49.78,-75.61 59.97,-46.59 69.22,-28.15"/>
<polygon fill="#63b8ff" stroke="#63b8ff" points="72.3,-29.81 73.96,-19.35 66.14,-26.49 72.3,-29.81"/>
</a>
</g>
</g>
<!-- Node7 -->
<g id="Node000007" class="node">
<title>Node7</title>
<g id="a_Node000007"><a xlink:title=" ">
<polygon fill="#e0e0e0" stroke="#999999" points="214.5,-19 158.5,-19 158.5,0 214.5,0 214.5,-19"/>
<text text-anchor="middle" x="186.5" y="-7" font-family="Helvetica,sans-Serif" font-size="10.00">stdbool.h</text>
</a>
</g>
</g>
<!-- Node5&#45;&gt;Node7 -->
<g id="edge6_Node000005_Node000007" class="edge">
<title>Node5&#45;&gt;Node7</title>
<g id="a_edge6_Node000005_Node000007"><a xlink:title=" ">
<path fill="none" stroke="#63b8ff" d="M186.5,-131.76C186.5,-107.14 186.5,-56.66 186.5,-29.23"/>
<polygon fill="#63b8ff" stroke="#63b8ff" points="190,-29.03 186.5,-19.03 183,-29.03 190,-29.03"/>
</a>
</g>
</g>
<!-- Node8 -->
<g id="Node000008" class="node">
<title>Node8</title>
<g id="a_Node000008"><a xlink:href="a00754_source.html" target="_top" xlink:title=" ">
<polygon fill="white" stroke="#666666" points="158.5,-85 72.5,-85 72.5,-66 158.5,-66 158.5,-85"/>
<text text-anchor="middle" x="115.5" y="-73" font-family="Helvetica,sans-Serif" font-size="10.00">cmp_interface.h</text>
</a>
</g>
</g>
<!-- Node5&#45;&gt;Node8 -->
<g id="edge7_Node000005_Node000008" class="edge">
<title>Node5&#45;&gt;Node8</title>
<g id="a_edge7_Node000005_Node000008"><a xlink:title=" ">
<path fill="none" stroke="#63b8ff" d="M172.13,-131.94C160.43,-120.48 143.92,-104.32 131.74,-92.4"/>
<polygon fill="#63b8ff" stroke="#63b8ff" points="134.05,-89.76 124.46,-85.27 129.15,-94.76 134.05,-89.76"/>
</a>
</g>
</g>
<!-- Node8&#45;&gt;Node6 -->
<g id="edge9_Node000008_Node000006" class="edge">
<title>Node8&#45;&gt;Node6</title>
<g id="a_edge9_Node000008_Node000006"><a xlink:title=" ">
<path fill="none" stroke="#63b8ff" d="M110.64,-65.87C105.25,-56.28 96.4,-40.55 89.51,-28.3"/>
<polygon fill="#63b8ff" stroke="#63b8ff" points="92.46,-26.41 84.51,-19.41 86.36,-29.84 92.46,-26.41"/>
</a>
</g>
</g>
<!-- Node8&#45;&gt;Node7 -->
<g id="edge8_Node000008_Node000007" class="edge">
<title>Node8&#45;&gt;Node7</title>
<g id="a_edge8_Node000008_Node000007"><a xlink:title=" ">
<path fill="none" stroke="#63b8ff" d="M125.08,-65.87C136.34,-55.71 155.26,-38.66 169.13,-26.15"/>
<polygon fill="#63b8ff" stroke="#63b8ff" points="171.54,-28.7 176.62,-19.41 166.85,-23.5 171.54,-28.7"/>
</a>
</g>
</g>
<!-- Node9&#45;&gt;Node4 -->
<g id="edge11_Node000009_Node000004" class="edge">
<title>Node9&#45;&gt;Node4</title>
<g id="a_edge11_Node000009_Node000004"><a xlink:title=" ">
<path fill="none" stroke="#63b8ff" d="M729.02,-137.44C740.02,-135.58 751.65,-133.67 762.5,-132 820.8,-123.03 982.1,-135.95 1025.5,-96 1043.83,-79.13 1046.48,-48.83 1046.01,-29.2"/>
<polygon fill="#63b8ff" stroke="#63b8ff" points="1049.5,-28.86 1045.47,-19.06 1042.51,-29.23 1049.5,-28.86"/>
</a>
</g>
</g>
<!-- Node10 -->
<g id="Node000010" class="node">
<title>Node10</title>
<g id="a_Node000010"><a xlink:href="a00380.html" target="_top" xlink:title="Generated by the Microchip Digital Compensator Design Tool (DCDT).">
<polygon fill="white" stroke="#666666" points="715,-85 632,-85 632,-66 715,-66 715,-85"/>
<text text-anchor="middle" x="673.5" y="-73" font-family="Helvetica,sans-Serif" font-size="10.00">smps_control.h</text>
</a>
</g>
</g>
<!-- Node9&#45;&gt;Node10 -->
<g id="edge12_Node000009_Node000010" class="edge">
<title>Node9&#45;&gt;Node10</title>
<g id="a_edge12_Node000009_Node000010"><a xlink:title=" ">
<path fill="none" stroke="#63b8ff" d="M679.64,-137.48C678.59,-127.06 676.78,-109.11 675.4,-95.38"/>
<polygon fill="#63b8ff" stroke="#63b8ff" points="678.85,-94.69 674.37,-85.09 671.89,-95.39 678.85,-94.69"/>
</a>
</g>
</g>
<!-- Node12 -->
<g id="Node000012" class="node">
<title>Node12</title>
<g id="a_Node000012"><a xlink:title=" ">
<polygon fill="#e0e0e0" stroke="#999999" points="864,-96 733,-96 733,-55 864,-55 864,-96"/>
<text text-anchor="start" x="741" y="-84" font-family="Helvetica,sans-Serif" font-size="10.00">../dcdt/icomp1lv/dcdt</text>
<text text-anchor="start" x="741" y="-73" font-family="Helvetica,sans-Serif" font-size="10.00">_generated_code/icomp1lv</text>
<text text-anchor="middle" x="798.5" y="-62" font-family="Helvetica,sans-Serif" font-size="10.00">_dcdt.h</text>
</a>
</g>
</g>
<!-- Node9&#45;&gt;Node12 -->
<g id="edge15_Node000009_Node000012" class="edge">
<title>Node9&#45;&gt;Node12</title>
<g id="a_edge15_Node000009_Node000012"><a xlink:title=" ">
<path fill="none" stroke="#63b8ff" d="M694.97,-137.48C710.22,-128.49 734.97,-113.92 756.44,-101.27"/>
<polygon fill="#63b8ff" stroke="#63b8ff" points="758.26,-104.26 765.1,-96.17 754.71,-98.23 758.26,-104.26"/>
</a>
</g>
</g>
<!-- Node13 -->
<g id="Node000013" class="node">
<title>Node13</title>
<g id="a_Node000013"><a xlink:title=" ">
<polygon fill="#e0e0e0" stroke="#999999" points="1016.5,-96 882.5,-96 882.5,-55 1016.5,-55 1016.5,-96"/>
<text text-anchor="start" x="890.5" y="-84" font-family="Helvetica,sans-Serif" font-size="10.00">../dcdt/icomp1hv/dcdt</text>
<text text-anchor="start" x="890.5" y="-73" font-family="Helvetica,sans-Serif" font-size="10.00">_generated_code/icomp1hv</text>
<text text-anchor="middle" x="949.5" y="-62" font-family="Helvetica,sans-Serif" font-size="10.00">_dcdt.h</text>
</a>
</g>
</g>
<!-- Node9&#45;&gt;Node13 -->
<g id="edge16_Node000009_Node000013" class="edge">
<title>Node9&#45;&gt;Node13</title>
<g id="a_edge16_Node000009_Node000013"><a xlink:title=" ">
<path fill="none" stroke="#63b8ff" d="M713.48,-137.48C752.83,-127.31 819.87,-109.99 872.48,-96.4"/>
<polygon fill="#63b8ff" stroke="#63b8ff" points="873.65,-99.71 882.45,-93.82 871.9,-92.94 873.65,-99.71"/>
</a>
</g>
</g>
<!-- Node14 -->
<g id="Node000014" class="node">
<title>Node14</title>
<g id="a_Node000014"><a xlink:title=" ">
<polygon fill="#e0e0e0" stroke="#999999" points="614,-96 477,-96 477,-55 614,-55 614,-96"/>
<text text-anchor="start" x="485" y="-84" font-family="Helvetica,sans-Serif" font-size="10.00">../dcdt/vcomp1ph/dcdt</text>
<text text-anchor="start" x="485" y="-73" font-family="Helvetica,sans-Serif" font-size="10.00">_generated_code/vcomp1ph</text>
<text text-anchor="middle" x="545.5" y="-62" font-family="Helvetica,sans-Serif" font-size="10.00">_dcdt.h</text>
</a>
</g>
</g>
<!-- Node9&#45;&gt;Node14 -->
<g id="edge17_Node000009_Node000014" class="edge">
<title>Node9&#45;&gt;Node14</title>
<g id="a_edge17_Node000009_Node000014"><a xlink:title=" ">
<path fill="none" stroke="#63b8ff" d="M663.95,-137.48C646.2,-128.34 617.22,-113.42 592.37,-100.63"/>
<polygon fill="#63b8ff" stroke="#63b8ff" points="593.92,-97.49 583.43,-96.03 590.72,-103.72 593.92,-97.49"/>
</a>
</g>
</g>
<!-- Node10&#45;&gt;Node4 -->
<g id="edge13_Node000010_Node000004" class="edge">
<title>Node10&#45;&gt;Node4</title>
<g id="a_edge13_Node000010_Node000004"><a xlink:title=" ">
<path fill="none" stroke="#63b8ff" d="M692.62,-65.83C701.79,-61.98 713.04,-57.72 723.5,-55 829.67,-27.35 960.35,-16 1016.59,-12.17"/>
<polygon fill="#63b8ff" stroke="#63b8ff" points="1017.07,-15.64 1026.82,-11.5 1016.61,-8.66 1017.07,-15.64"/>
</a>
</g>
</g>
<!-- Node11 -->
<g id="Node000011" class="node">
<title>Node11</title>
<g id="a_Node000011"><a xlink:title=" ">
<polygon fill="#e0e0e0" stroke="#999999" points="428,-19 379,-19 379,0 428,0 428,-19"/>
<text text-anchor="middle" x="403.5" y="-7" font-family="Helvetica,sans-Serif" font-size="10.00">stdint.h</text>
</a>
</g>
</g>
<!-- Node10&#45;&gt;Node11 -->
<g id="edge14_Node000010_Node000011" class="edge">
<title>Node10&#45;&gt;Node11</title>
<g id="a_edge14_Node000010_Node000011"><a xlink:title=" ">
<path fill="none" stroke="#63b8ff" d="M653.41,-65.94C644.13,-62.21 632.88,-58.02 622.5,-55 558.48,-36.39 481.74,-22.72 438.19,-15.73"/>
<polygon fill="#63b8ff" stroke="#63b8ff" points="438.55,-12.25 428.12,-14.14 437.46,-19.16 438.55,-12.25"/>
</a>
</g>
</g>
<!-- Node15&#45;&gt;Node4 -->
<g id="edge19_Node000015_Node000004" class="edge">
<title>Node15&#45;&gt;Node4</title>
<g id="a_edge19_Node000015_Node000004"><a xlink:title=" ">
<path fill="none" stroke="#63b8ff" d="M444.83,-60.47C452.3,-58.34 460.08,-56.4 467.5,-55 675.85,-15.72 932.78,-10.96 1016.62,-10.5"/>
<polygon fill="#63b8ff" stroke="#63b8ff" points="1016.86,-14 1026.85,-10.46 1016.84,-7 1016.86,-14"/>
</a>
</g>
</g>
<!-- Node15&#45;&gt;Node11 -->
<g id="edge20_Node000015_Node000011" class="edge">
<title>Node15&#45;&gt;Node11</title>
<g id="a_edge20_Node000015_Node000011"><a xlink:title=" ">
<path fill="none" stroke="#63b8ff" d="M403.5,-60.3C403.5,-51.2 403.5,-39.29 403.5,-29.4"/>
<polygon fill="#63b8ff" stroke="#63b8ff" points="407,-29.34 403.5,-19.34 400,-29.34 407,-29.34"/>
</a>
</g>
</g>
<!-- Node17 -->
<g id="Node000017" class="node">
<title>Node17</title>
<g id="a_Node000017"><a xlink:href="a00395.html" target="_top" xlink:title="Allows the user to easily change the operation modes.">
<polygon fill="white" stroke="#666666" points="330,-90.5 215,-90.5 215,-60.5 330,-60.5 330,-90.5"/>
<text text-anchor="start" x="223" y="-78.5" font-family="Helvetica,sans-Serif" font-size="10.00">Totempole_Application</text>
<text text-anchor="middle" x="272.5" y="-67.5" font-family="Helvetica,sans-Serif" font-size="10.00">_Setup.h</text>
</a>
</g>
</g>
<!-- Node16&#45;&gt;Node17 -->
<g id="edge22_Node000016_Node000017" class="edge">
<title>Node16&#45;&gt;Node17</title>
<g id="a_edge22_Node000016_Node000017"><a xlink:title=" ">
<path fill="none" stroke="#63b8ff" d="M389.19,-137.48C369.21,-127.04 334.78,-109.04 308.48,-95.3"/>
<polygon fill="#63b8ff" stroke="#63b8ff" points="310.04,-92.17 299.55,-90.64 306.8,-98.37 310.04,-92.17"/>
</a>
</g>
</g>
<!-- Node17&#45;&gt;Node4 -->
<g id="edge23_Node000017_Node000004" class="edge">
<title>Node17&#45;&gt;Node4</title>
<g id="a_edge23_Node000017_Node000004"><a xlink:title=" ">
<path fill="none" stroke="#63b8ff" d="M315.42,-60.5C323.36,-58.34 331.62,-56.38 339.5,-55 599.8,-9.48 921.36,-9.06 1016.65,-10.07"/>
<polygon fill="#63b8ff" stroke="#63b8ff" points="1016.85,-13.57 1026.89,-10.19 1016.93,-6.57 1016.85,-13.57"/>
</a>
</g>
</g>
<!-- Node17&#45;&gt;Node7 -->
<g id="edge25_Node000017_Node000007" class="edge">
<title>Node17&#45;&gt;Node7</title>
<g id="a_edge25_Node000017_Node000007"><a xlink:title=" ">
<path fill="none" stroke="#63b8ff" d="M253.41,-60.3C239.48,-49.93 220.64,-35.9 206.5,-25.38"/>
<polygon fill="#63b8ff" stroke="#63b8ff" points="208.5,-22.51 198.38,-19.34 204.32,-28.12 208.5,-22.51"/>
</a>
</g>
</g>
<!-- Node17&#45;&gt;Node11 -->
<g id="edge24_Node000017_Node000011" class="edge">
<title>Node17&#45;&gt;Node11</title>
<g id="a_edge24_Node000017_Node000011"><a xlink:title=" ">
<path fill="none" stroke="#63b8ff" d="M301.25,-60.45C323.82,-49.43 354.99,-34.2 376.97,-23.46"/>
<polygon fill="#63b8ff" stroke="#63b8ff" points="378.62,-26.55 386.07,-19.02 375.54,-20.26 378.62,-26.55"/>
</a>
</g>
</g>
<!-- Node18 -->
<g id="Node000018" class="node">
<title>Node18</title>
<g id="a_Node000018"><a xlink:title=" ">
<polygon fill="#e0e0e0" stroke="#999999" points="293,-19 252,-19 252,0 293,0 293,-19"/>
<text text-anchor="middle" x="272.5" y="-7" font-family="Helvetica,sans-Serif" font-size="10.00">dsp.h</text>
</a>
</g>
</g>
<!-- Node17&#45;&gt;Node18 -->
<g id="edge26_Node000017_Node000018" class="edge">
<title>Node17&#45;&gt;Node18</title>
<g id="a_edge26_Node000017_Node000018"><a xlink:title=" ">
<path fill="none" stroke="#63b8ff" d="M272.5,-60.3C272.5,-51.2 272.5,-39.29 272.5,-29.4"/>
<polygon fill="#63b8ff" stroke="#63b8ff" points="276,-29.34 272.5,-19.34 269,-29.34 276,-29.34"/>
</a>
</g>
</g>
<!-- Node19&#45;&gt;Node4 -->
<g id="edge28_Node000019_Node000004" class="edge">
<title>Node19&#45;&gt;Node4</title>
<g id="a_edge28_Node000019_Node000004"><a xlink:title=" ">
<path fill="none" stroke="#63b8ff" d="M888.94,-137.47C951.76,-127.08 1047.86,-109.27 1058.5,-96 1073.97,-76.7 1063.79,-46.91 1054.53,-28.08"/>
<polygon fill="#63b8ff" stroke="#63b8ff" points="1057.55,-26.31 1049.78,-19.11 1051.36,-29.58 1057.55,-26.31"/>
</a>
</g>
</g>
<!-- Node20&#45;&gt;Node4 -->
<g id="edge31_Node000020_Node000004" class="edge">
<title>Node20&#45;&gt;Node4</title>
<g id="a_edge31_Node000020_Node000004"><a xlink:title=" ">
<path fill="none" stroke="#63b8ff" d="M1156.07,-137.32C1150.87,-119.98 1137.25,-80.56 1114.5,-55 1102.6,-41.63 1085.75,-30.75 1071.56,-23.1"/>
<polygon fill="#63b8ff" stroke="#63b8ff" points="1072.76,-19.78 1062.26,-18.32 1069.56,-26 1072.76,-19.78"/>
</a>
</g>
</g>
<!-- Node21 -->
<g id="Node000021" class="node">
<title>Node21</title>
<g id="a_Node000021"><a xlink:title=" ">
<polygon fill="#e0e0e0" stroke="#999999" points="1304.5,-96 1186.5,-96 1186.5,-55 1304.5,-55 1304.5,-96"/>
<text text-anchor="start" x="1194.5" y="-84" font-family="Helvetica,sans-Serif" font-size="10.00">../sources_common</text>
<text text-anchor="start" x="1194.5" y="-73" font-family="Helvetica,sans-Serif" font-size="10.00">/Totempole_Application</text>
<text text-anchor="middle" x="1245.5" y="-62" font-family="Helvetica,sans-Serif" font-size="10.00">_Setup.h</text>
</a>
</g>
</g>
<!-- Node20&#45;&gt;Node21 -->
<g id="edge30_Node000020_Node000021" class="edge">
<title>Node20&#45;&gt;Node21</title>
<g id="a_edge30_Node000020_Node000021"><a xlink:title=" ">
<path fill="none" stroke="#63b8ff" d="M1169.17,-137.48C1180.06,-128.77 1197.53,-114.82 1213.01,-102.46"/>
<polygon fill="#63b8ff" stroke="#63b8ff" points="1215.25,-105.15 1220.87,-96.17 1210.88,-99.68 1215.25,-105.15"/>
</a>
</g>
</g>
</g>
</svg>
