<?xml version="1.0" encoding="UTF-8" standalone="no"?>
<!DOCTYPE svg PUBLIC "-//W3C//DTD SVG 1.1//EN"
 "http://www.w3.org/Graphics/SVG/1.1/DTD/svg11.dtd">
<!-- Generated by graphviz version 8.1.0 (20230707.0739)
 -->
<!-- Title: D:/Firmware/MCU16ASMPS_TestEnvironment/_deployment/dspic33ch&#45;power&#45;totem&#45;pole&#45;demonstration&#45;application&#45;single&#45;phase/dspic33ch_totem_pole_single_phase_secondary_IL.X/sources/devices/dev_TPBLPFC_typedef.c Pages: 1 -->
<svg width="402pt" height="224pt"
 viewBox="0.00 0.00 401.88 224.00" xmlns="http://www.w3.org/2000/svg" xmlns:xlink="http://www.w3.org/1999/xlink">

<svg id="main" version="1.1" xmlns="http://www.w3.org/2000/svg" xmlns:xlink="http://www.w3.org/1999/xlink" xml:space="preserve" onload="init(evt)">
<style type="text/css"><![CDATA[
.node, .edge {opacity: 0.7;}
.node.selected, .edge.selected {opacity: 1;}
.edge:hover path { stroke: red; }
.edge:hover polygon { stroke: red; fill: red; }
]]></style>
<script type="application/ecmascript" xlink:href="svg.min.js"/>
<svg id="graph" class="graph">
<g id="graph0" class="graph" transform="scale(1 1) rotate(0) translate(4 220)">
<title>D:/Firmware/MCU16ASMPS_TestEnvironment/_deployment/dspic33ch&#45;power&#45;totem&#45;pole&#45;demonstration&#45;application&#45;single&#45;phase/dspic33ch_totem_pole_single_phase_secondary_IL.X/sources/devices/dev_TPBLPFC_typedef.c</title>
<!-- Node1 -->
<g id="Node000001" class="node">
<title>Node1</title>
<g id="a_Node000001"><a xlink:title="This is the typedef file for power controller.">
<polygon fill="#999999" stroke="#666666" points="287.75,-216 96.25,-216 96.25,-124 287.75,-124 287.75,-216"/>
<text text-anchor="start" x="104.25" y="-202.5" font-family="Helvetica,sans-Serif" font-size="10.00">D:/Firmware/MCU16ASMPS</text>
<text text-anchor="start" x="104.25" y="-190.5" font-family="Helvetica,sans-Serif" font-size="10.00">_TestEnvironment/_deployment</text>
<text text-anchor="start" x="104.25" y="-178.5" font-family="Helvetica,sans-Serif" font-size="10.00">/dspic33ch&#45;power&#45;totem&#45;pole</text>
<text text-anchor="start" x="104.25" y="-166.5" font-family="Helvetica,sans-Serif" font-size="10.00">&#45;demonstration&#45;application&#45;single</text>
<text text-anchor="start" x="104.25" y="-154.5" font-family="Helvetica,sans-Serif" font-size="10.00">&#45;phase/dspic33ch_totem_pole_single</text>
<text text-anchor="start" x="104.25" y="-142.5" font-family="Helvetica,sans-Serif" font-size="10.00">_phase_secondary_IL.X/sources/devices</text>
<text text-anchor="middle" x="192" y="-130.5" font-family="Helvetica,sans-Serif" font-size="10.00">/dev_TPBLPFC_typedef.c</text>
</a>
</g>
</g>
<!-- Node2 -->
<g id="Node000002" class="node">
<title>Node2</title>
<g id="a_Node000002"><a xlink:title=" ">
<polygon fill="#e0e0e0" stroke="#999999" points="112,-82 0,-82 0,-62 112,-62 112,-82"/>
<text text-anchor="middle" x="56" y="-68.5" font-family="Helvetica,sans-Serif" font-size="10.00">p33CH512MP506S1.h</text>
</a>
</g>
</g>
<!-- Node1&#45;&gt;Node2 -->
<g id="edge1_Node000001_Node000002" class="edge">
<title>Node1&#45;&gt;Node2</title>
<g id="a_edge1_Node000001_Node000002"><a xlink:title=" ">
<path fill="none" stroke="#63b8ff" d="M127.58,-123.53C109.73,-110.93 91.55,-98.1 77.98,-88.52"/>
<polygon fill="#63b8ff" stroke="#63b8ff" points="80.57,-85.35 70.38,-82.45 76.53,-91.07 80.57,-85.35"/>
</a>
</g>
</g>
<!-- Node3 -->
<g id="Node000003" class="node">
<title>Node3</title>
<g id="a_Node000003"><a xlink:href="a00338.html" target="_top" xlink:title="This is the typedef file for power controller.">
<polygon fill="white" stroke="#666666" points="254,-82 130,-82 130,-62 254,-62 254,-82"/>
<text text-anchor="middle" x="192" y="-68.5" font-family="Helvetica,sans-Serif" font-size="10.00">dev_TPBLPFC_typedef.h</text>
</a>
</g>
</g>
<!-- Node1&#45;&gt;Node3 -->
<g id="edge2_Node000001_Node000003" class="edge">
<title>Node1&#45;&gt;Node3</title>
<g id="a_edge2_Node000001_Node000003"><a xlink:title=" ">
<path fill="none" stroke="#63b8ff" d="M192,-123.53C192,-112.87 192,-102.04 192,-93.16"/>
<polygon fill="#63b8ff" stroke="#63b8ff" points="195.5,-93.45 192,-83.45 188.5,-93.45 195.5,-93.45"/>
</a>
</g>
</g>
<!-- Node6 -->
<g id="Node000006" class="node">
<title>Node6</title>
<g id="a_Node000006"><a xlink:title=" ">
<polygon fill="#e0e0e0" stroke="#999999" points="393.88,-88 272.12,-88 272.12,-56 393.88,-56 393.88,-88"/>
<text text-anchor="start" x="280.12" y="-74.5" font-family="Helvetica,sans-Serif" font-size="10.00">../../sources_common</text>
<text text-anchor="middle" x="333" y="-62.5" font-family="Helvetica,sans-Serif" font-size="10.00">/PFC_frameworkSetup.h</text>
</a>
</g>
</g>
<!-- Node1&#45;&gt;Node6 -->
<g id="edge5_Node000001_Node000006" class="edge">
<title>Node1&#45;&gt;Node6</title>
<g id="a_edge5_Node000001_Node000006"><a xlink:title=" ">
<path fill="none" stroke="#63b8ff" d="M258.78,-123.53C273.79,-113.31 289.02,-102.94 301.75,-94.28"/>
<polygon fill="#63b8ff" stroke="#63b8ff" points="303.24,-96.82 309.54,-88.3 299.3,-91.03 303.24,-96.82"/>
</a>
</g>
</g>
<!-- Node4 -->
<g id="Node000004" class="node">
<title>Node4</title>
<g id="a_Node000004"><a xlink:title=" ">
<polygon fill="#e0e0e0" stroke="#999999" points="179.38,-20 144.62,-20 144.62,0 179.38,0 179.38,-20"/>
<text text-anchor="middle" x="162" y="-6.5" font-family="Helvetica,sans-Serif" font-size="10.00">xc.h</text>
</a>
</g>
</g>
<!-- Node3&#45;&gt;Node4 -->
<g id="edge3_Node000003_Node000004" class="edge">
<title>Node3&#45;&gt;Node4</title>
<g id="a_edge3_Node000003_Node000004"><a xlink:title=" ">
<path fill="none" stroke="#63b8ff" d="M187.31,-61.62C183.06,-53.12 176.67,-40.33 171.37,-29.74"/>
<polygon fill="#63b8ff" stroke="#63b8ff" points="174.16,-28.49 166.56,-21.11 167.9,-31.62 174.16,-28.49"/>
</a>
</g>
</g>
<!-- Node5 -->
<g id="Node000005" class="node">
<title>Node5</title>
<g id="a_Node000005"><a xlink:title=" ">
<polygon fill="#e0e0e0" stroke="#999999" points="246.12,-20 197.88,-20 197.88,0 246.12,0 246.12,-20"/>
<text text-anchor="middle" x="222" y="-6.5" font-family="Helvetica,sans-Serif" font-size="10.00">stdint.h</text>
</a>
</g>
</g>
<!-- Node3&#45;&gt;Node5 -->
<g id="edge4_Node000003_Node000005" class="edge">
<title>Node3&#45;&gt;Node5</title>
<g id="a_edge4_Node000003_Node000005"><a xlink:title=" ">
<path fill="none" stroke="#63b8ff" d="M196.69,-61.62C200.94,-53.12 207.33,-40.33 212.63,-29.74"/>
<polygon fill="#63b8ff" stroke="#63b8ff" points="216.1,-31.62 217.44,-21.11 209.84,-28.49 216.1,-31.62"/>
</a>
</g>
</g>
</g>
</svg>
</svg>

<style type='text/css'>
<![CDATA[
[data-mouse-over-selected='false'] { opacity: 0.7; }
[data-mouse-over-selected='true']  { opacity: 1.0; }
]]>
</style>
<script type="application/ecmascript"><![CDATA[
document.addEventListener('DOMContentLoaded', (event) => {
  highlightEdges();
  highlightAdjacentNodes();
});
]]></script>
</svg>
