<?xml version="1.0" encoding="UTF-8" standalone="no"?>
<!DOCTYPE svg PUBLIC "-//W3C//DTD SVG 1.1//EN"
 "http://www.w3.org/Graphics/SVG/1.1/DTD/svg11.dtd">
<!-- Generated by graphviz version 2.44.1 (20200629.0846)
 -->
<!-- Title: _ADCAN0Interrupt Pages: 1 -->
<!--zoomable 525 -->

<svg id="main" version="1.1" xmlns="http://www.w3.org/2000/svg" xmlns:xlink="http://www.w3.org/1999/xlink" xml:space="preserve" onload="init(evt)">

<style type="text/css"><![CDATA[
.node, .edge {opacity: 0.7;}
.node.selected, .edge.selected {opacity: 1;}
.edge:hover path { stroke: red; }
.edge:hover polygon { stroke: red; fill: red; }
]]></style>

<defs>
  <circle id="rim" cx="0" cy="0" r="7"/>
  <circle id="rim2" cx="0" cy="0" r="3.5"/>
  <g id="zoomPlus">
    <use xlink:href="#rim" fill="#404040"><set attributeName="fill" to="#808080" begin="zoomplus.mouseover" end="zoomplus.mouseout"/></use>
    <path d="M-4,0h8M0,-4v8" fill="none" stroke="white" stroke-width="1.5" pointer-events="none"/>
  </g>
  <g id="zoomMin">
    <use xlink:href="#rim" fill="#404040"><set attributeName="fill" to="#808080" begin="zoomminus.mouseover" end="zoomminus.mouseout"/></use>
    <path d="M-4,0h8" fill="none" stroke="white" stroke-width="1.5" pointer-events="none"/>
  </g>
  <g id="arrowUp" transform="translate(30 24)">
    <use xlink:href="#rim"/>
    <path pointer-events="none" fill="none" stroke="white" stroke-width="1.5" d="M0,-3.0v7 M-2.5,-0.5L0,-3.0L2.5,-0.5"/>
  </g>
  <g id="arrowRight" transform="rotate(90) translate(36 -43)">
    <use xlink:href="#rim"/>
    <path pointer-events="none" fill="none" stroke="white" stroke-width="1.5" d="M0,-3.0v7 M-2.5,-0.5L0,-3.0L2.5,-0.5"/>
  </g>
  <g id="arrowDown" transform="rotate(180) translate(-30 -48)">
    <use xlink:href="#rim"/>
    <path pointer-events="none" fill="none" stroke="white" stroke-width="1.5" d="M0,-3.0v7 M-2.5,-0.5L0,-3.0L2.5,-0.5"/>
  </g>
  <g id="arrowLeft" transform="rotate(270) translate(-36 17)">
    <use xlink:href="#rim"/>
    <path pointer-events="none" fill="none" stroke="white" stroke-width="1.5" d="M0,-3.0v7 M-2.5,-0.5L0,-3.0L2.5,-0.5"/>
  </g>
  <g id="resetDef">
    <use xlink:href="#rim2" fill="#404040"><set attributeName="fill" to="#808080" begin="reset.mouseover" end="reset.mouseout"/></use>
  </g>
</defs>
<script type="application/ecmascript">
var viewWidth = 824;
var viewHeight = 525;
var sectionId = 'dynsection-1';
</script>
<script type="application/ecmascript" xlink:href="svg.min.js"/>
<svg id="graph" class="graph">
<g id="viewport">
<title>_ADCAN0Interrupt</title>
<!-- Node1 -->
<g id="Node000001" class="node">
<title>Node1</title>
<g id="a_Node000001"><a xlink:title=" ">
<polygon fill="#999999" stroke="#666666" points="96,-75 0,-75 0,-56 96,-56 96,-75"/>
<text text-anchor="middle" x="48" y="-63" font-family="Helvetica,sans-Serif" font-size="10.00">_ADCAN0Interrupt</text>
</a>
</g>
</g>
<!-- Node2 -->
<g id="Node000002" class="node">
<title>Node2</title>
<g id="a_Node000002"><a xlink:href="a00371.html#aa7b8e2dc355948aa24cf22ca82f9e805" target="_top" xlink:title=" ">
<polygon fill="white" stroke="#666666" points="263,-151 138,-151 138,-132 263,-132 263,-151"/>
<text text-anchor="middle" x="200.5" y="-139" font-family="Helvetica,sans-Serif" font-size="10.00">Application_handler_PH1</text>
</a>
</g>
</g>
<!-- Node1&#45;&gt;Node2 -->
<g id="edge1_Node000001_Node000002" class="edge">
<title>Node1&#45;&gt;Node2</title>
<g id="a_edge1_Node000001_Node000002"><a xlink:title=" ">
<path fill="none" stroke="#63b8ff" d="M68.06,-75.13C94.18,-88.32 141.29,-112.11 171.45,-127.33"/>
<polygon fill="#63b8ff" stroke="#63b8ff" points="170.09,-130.57 180.59,-131.95 173.25,-124.32 170.09,-130.57"/>
</a>
</g>
</g>
<!-- Node20 -->
<g id="Node000020" class="node">
<title>Node20</title>
<g id="a_Node000020"><a xlink:href="a00335.html#a5f3234838062ca0cddef3397d0c54d7d" target="_top" xlink:title=" ">
<polygon fill="white" stroke="#666666" points="257,-56 144,-56 144,-37 257,-37 257,-56"/>
<text text-anchor="middle" x="200.5" y="-44" font-family="Helvetica,sans-Serif" font-size="10.00">dev_connect_numbers</text>
</a>
</g>
</g>
<!-- Node1&#45;&gt;Node20 -->
<g id="edge36_Node000001_Node000020" class="edge">
<title>Node1&#45;&gt;Node20</title>
<g id="a_edge36_Node000001_Node000020"><a xlink:title=" ">
<path fill="none" stroke="#63b8ff" d="M96.21,-59.54C108.11,-58.04 121.11,-56.4 133.74,-54.8"/>
<polygon fill="#63b8ff" stroke="#63b8ff" points="134.28,-58.26 143.77,-53.54 133.41,-51.32 134.28,-58.26"/>
</a>
</g>
</g>
<!-- Node21 -->
<g id="Node000021" class="node">
<title>Node21</title>
<g id="a_Node000021"><a xlink:href="a00365.html#a315b78111431dff7a91b13e42f9133b1" target="_top" xlink:title="stop and reset power controller">
<polygon fill="white" stroke="#666666" points="633,-94 492,-94 492,-75 633,-75 633,-94"/>
<text text-anchor="middle" x="562.5" y="-82" font-family="Helvetica,sans-Serif" font-size="10.00">Drv_PwrCtrl_TPBLPFC_Stop</text>
</a>
</g>
</g>
<!-- Node1&#45;&gt;Node21 -->
<g id="edge37_Node000001_Node000021" class="edge">
<title>Node1&#45;&gt;Node21</title>
<g id="a_edge37_Node000001_Node000021"><a xlink:title=" ">
<path fill="none" stroke="#63b8ff" d="M96.3,-67.25C184.16,-70.51 373.42,-77.53 481.51,-81.53"/>
<polygon fill="#63b8ff" stroke="#63b8ff" points="481.59,-85.04 491.72,-81.91 481.85,-78.04 481.59,-85.04"/>
</a>
</g>
</g>
<!-- Node22 -->
<g id="Node000022" class="node">
<title>Node22</title>
<g id="a_Node000022"><a xlink:href="a00420.html#ga6441b5fad8233f83a6afe63a8861b333" target="_top" xlink:title="This routine reads data from mailbox.">
<polygon fill="white" stroke="#666666" points="269,-19 132,-19 132,0 269,0 269,-19"/>
<text text-anchor="middle" x="200.5" y="-7" font-family="Helvetica,sans-Serif" font-size="10.00">MAIN_CORE_ProtocolRead</text>
</a>
</g>
</g>
<!-- Node1&#45;&gt;Node22 -->
<g id="edge40_Node000001_Node000022" class="edge">
<title>Node1&#45;&gt;Node22</title>
<g id="a_edge40_Node000001_Node000022"><a xlink:title=" ">
<path fill="none" stroke="#63b8ff" d="M67.41,-55.98C83.99,-47.67 109.18,-35.7 132,-27.5 137.56,-25.5 143.44,-23.61 149.33,-21.87"/>
<polygon fill="#63b8ff" stroke="#63b8ff" points="150.52,-25.17 159.18,-19.06 148.6,-18.43 150.52,-25.17"/>
</a>
</g>
</g>
<!-- Node3 -->
<g id="Node000003" class="node">
<title>Node3</title>
<g id="a_Node000003"><a xlink:href="a00371.html#a647fd6dacbfbcebe49cc34111a01493b" target="_top" xlink:title=" ">
<polygon fill="white" stroke="#666666" points="411,-316 337,-316 337,-297 411,-297 411,-316"/>
<text text-anchor="middle" x="374" y="-304" font-family="Helvetica,sans-Serif" font-size="10.00">Handler_PHx</text>
</a>
</g>
</g>
<!-- Node2&#45;&gt;Node3 -->
<g id="edge2_Node000002_Node000003" class="edge">
<title>Node2&#45;&gt;Node3</title>
<g id="a_edge2_Node000002_Node000003"><a xlink:title=" ">
<path fill="none" stroke="#63b8ff" d="M211.46,-151.08C239.64,-178.2 320.18,-255.68 355.75,-289.91"/>
<polygon fill="#63b8ff" stroke="#63b8ff" points="353.38,-292.48 363.01,-296.89 358.23,-287.43 353.38,-292.48"/>
</a>
</g>
</g>
<!-- Node18 -->
<g id="Node000018" class="node">
<title>Node18</title>
<g id="a_Node000018"><a xlink:href="a00371.html#a3c1c3278a759d0a53b473f7ee8786d12" target="_top" xlink:title="Vout dV/dT check.">
<polygon fill="white" stroke="#666666" points="622.5,-131 502.5,-131 502.5,-112 622.5,-112 622.5,-131"/>
<text text-anchor="middle" x="562.5" y="-119" font-family="Helvetica,sans-Serif" font-size="10.00">VOUT_HystereticCheck</text>
</a>
</g>
</g>
<!-- Node2&#45;&gt;Node18 -->
<g id="edge32_Node000002_Node000018" class="edge">
<title>Node2&#45;&gt;Node18</title>
<g id="a_edge32_Node000002_Node000018"><a xlink:title=" ">
<path fill="none" stroke="#63b8ff" d="M263.39,-138.06C326.93,-134.53 425.64,-129.05 491.87,-125.37"/>
<polygon fill="#63b8ff" stroke="#63b8ff" points="492.42,-128.84 502.21,-124.79 492.03,-121.85 492.42,-128.84"/>
</a>
</g>
</g>
<!-- Node19 -->
<g id="Node000019" class="node">
<title>Node19</title>
<g id="a_Node000019"><a xlink:href="a00371.html#a88d1001937f9c64e4327a9828fc17b45" target="_top" xlink:title="average voltage calculation of Vout">
<polygon fill="white" stroke="#666666" points="415.5,-170 332.5,-170 332.5,-151 415.5,-151 415.5,-170"/>
<text text-anchor="middle" x="374" y="-158" font-family="Helvetica,sans-Serif" font-size="10.00">VOUTaveraging</text>
</a>
</g>
</g>
<!-- Node2&#45;&gt;Node19 -->
<g id="edge35_Node000002_Node000019" class="edge">
<title>Node2&#45;&gt;Node19</title>
<g id="a_edge35_Node000002_Node000019"><a xlink:title=" ">
<path fill="none" stroke="#63b8ff" d="M263.42,-148.36C282.76,-150.5 303.87,-152.84 322.35,-154.89"/>
<polygon fill="#63b8ff" stroke="#63b8ff" points="321.99,-158.37 332.32,-155.99 322.76,-151.41 321.99,-158.37"/>
</a>
</g>
</g>
<!-- Node4 -->
<g id="Node000004" class="node">
<title>Node4</title>
<g id="a_Node000004"><a xlink:href="a00371.html#af6c4a58221bd490ef4d2084547601a10" target="_top" xlink:title=" ">
<polygon fill="white" stroke="#666666" points="640,-168 485,-168 485,-149 640,-149 640,-168"/>
<text text-anchor="middle" x="562.5" y="-156" font-family="Helvetica,sans-Serif" font-size="10.00">Adaptive_Currentcontroller_Gain</text>
</a>
</g>
</g>
<!-- Node3&#45;&gt;Node4 -->
<g id="edge3_Node000003_Node000004" class="edge">
<title>Node3&#45;&gt;Node4</title>
<g id="a_edge3_Node000003_Node000004"><a xlink:title=" ">
<path fill="none" stroke="#63b8ff" d="M379.79,-296.91C392.39,-272.69 429.01,-208.79 479,-177.5 482.41,-175.37 486.03,-173.47 489.78,-171.79"/>
<polygon fill="#63b8ff" stroke="#63b8ff" points="491.29,-174.96 499.31,-168.03 488.73,-168.44 491.29,-174.96"/>
</a>
</g>
</g>
<!-- Node5 -->
<g id="Node000005" class="node">
<title>Node5</title>
<g id="a_Node000005"><a xlink:href="a00371.html#a51a90512029dd0d15f013ea8548c5e7c" target="_top" xlink:title=" ">
<polygon fill="white" stroke="#666666" points="606.5,-316 518.5,-316 518.5,-297 606.5,-297 606.5,-316"/>
<text text-anchor="middle" x="562.5" y="-304" font-family="Helvetica,sans-Serif" font-size="10.00">BurstMode_PHx</text>
</a>
</g>
</g>
<!-- Node3&#45;&gt;Node5 -->
<g id="edge4_Node000003_Node000005" class="edge">
<title>Node3&#45;&gt;Node5</title>
<g id="a_edge4_Node000003_Node000005"><a xlink:title=" ">
<path fill="none" stroke="#63b8ff" d="M411.4,-306.5C438.93,-306.5 477.14,-306.5 508.11,-306.5"/>
<polygon fill="#63b8ff" stroke="#63b8ff" points="508.32,-310 518.32,-306.5 508.32,-303 508.32,-310"/>
</a>
</g>
</g>
<!-- Node8 -->
<g id="Node000008" class="node">
<title>Node8</title>
<g id="a_Node000008"><a xlink:href="a00371.html#a69847930c99b34bceb7165143cd28b92" target="_top" xlink:title=" ">
<polygon fill="white" stroke="#666666" points="593.5,-390 531.5,-390 531.5,-371 593.5,-371 593.5,-390"/>
<text text-anchor="middle" x="562.5" y="-378" font-family="Helvetica,sans-Serif" font-size="10.00">CCM_PHx</text>
</a>
</g>
</g>
<!-- Node3&#45;&gt;Node8 -->
<g id="edge7_Node000003_Node000008" class="edge">
<title>Node3&#45;&gt;Node8</title>
<g id="a_edge7_Node000003_Node000008"><a xlink:title=" ">
<path fill="none" stroke="#63b8ff" d="M389.54,-316.03C409.1,-328.45 445.34,-350.05 479,-362.5 492.37,-367.45 507.48,-371.23 521.08,-374.02"/>
<polygon fill="#63b8ff" stroke="#63b8ff" points="520.66,-377.51 531.14,-375.97 521.99,-370.63 520.66,-377.51"/>
</a>
</g>
</g>
<!-- Node11 -->
<g id="Node000011" class="node">
<title>Node11</title>
<g id="a_Node000011"><a xlink:href="a00371.html#a02e735cc5f9ec0075b4b0157326fd3db" target="_top" xlink:title=" ">
<polygon fill="white" stroke="#666666" points="633.5,-279 491.5,-279 491.5,-260 633.5,-260 633.5,-279"/>
<text text-anchor="middle" x="562.5" y="-267" font-family="Helvetica,sans-Serif" font-size="10.00">DutyCycleFeedForward_PHx</text>
</a>
</g>
</g>
<!-- Node3&#45;&gt;Node11 -->
<g id="edge12_Node000003_Node000011" class="edge">
<title>Node3&#45;&gt;Node11</title>
<g id="a_edge12_Node000003_Node000011"><a xlink:title=" ">
<path fill="none" stroke="#63b8ff" d="M411.4,-299.28C437.59,-294.08 473.46,-286.97 503.56,-280.99"/>
<polygon fill="#63b8ff" stroke="#63b8ff" points="504.4,-284.4 513.53,-279.02 503.04,-277.53 504.4,-284.4"/>
</a>
</g>
</g>
<!-- Node12 -->
<g id="Node000012" class="node">
<title>Node12</title>
<g id="a_Node000012"><a xlink:href="a00407.html#ga37968a783e44cd80643478d2b559dbf4" target="_top" xlink:title="This inline function sets the PWM generator specific duty cycle register.">
<polygon fill="white" stroke="#666666" points="802.5,-478 695.5,-478 695.5,-459 802.5,-459 802.5,-478"/>
<text text-anchor="middle" x="749" y="-466" font-family="Helvetica,sans-Serif" font-size="10.00">PWM_DutyCycleSet</text>
</a>
</g>
</g>
<!-- Node3&#45;&gt;Node12 -->
<g id="edge13_Node000003_Node000012" class="edge">
<title>Node3&#45;&gt;Node12</title>
<g id="a_edge13_Node000003_Node000012"><a xlink:title=" ">
<path fill="none" stroke="#63b8ff" d="M376.81,-316.34C383.44,-349.07 409.68,-454.52 479,-495.5 555.68,-540.83 666.49,-504.12 718.7,-482.09"/>
<polygon fill="#63b8ff" stroke="#63b8ff" points="720.26,-485.23 728.04,-478.04 717.47,-478.81 720.26,-485.23"/>
</a>
</g>
</g>
<!-- Node13 -->
<g id="Node000013" class="node">
<title>Node13</title>
<g id="a_Node000013"><a xlink:href="a00380.html#ac4c8852561395f2969c08ff062325e03" target="_top" xlink:title=" ">
<polygon fill="white" stroke="#666666" points="635,-242 490,-242 490,-223 635,-223 635,-242"/>
<text text-anchor="middle" x="562.5" y="-230" font-family="Helvetica,sans-Serif" font-size="10.00">SMPS_Controller2P2ZUpdate</text>
</a>
</g>
</g>
<!-- Node3&#45;&gt;Node13 -->
<g id="edge14_Node000003_Node000013" class="edge">
<title>Node3&#45;&gt;Node13</title>
<g id="a_edge14_Node000003_Node000013"><a xlink:title=" ">
<path fill="none" stroke="#63b8ff" d="M390.27,-296.79C410.03,-284.61 445.89,-263.83 479,-251.5 485.99,-248.9 493.45,-246.58 500.93,-244.54"/>
<polygon fill="#63b8ff" stroke="#63b8ff" points="501.91,-247.9 510.71,-242.01 500.16,-241.12 501.91,-247.9"/>
</a>
</g>
</g>
<!-- Node14 -->
<g id="Node000014" class="node">
<title>Node14</title>
<g id="a_Node000014"><a xlink:href="a00371.html#ad3476b7cd98e6a22a65e1d89b7a59ea5" target="_top" xlink:title=" ">
<polygon fill="white" stroke="#666666" points="617.5,-438.5 507.5,-438.5 507.5,-408.5 617.5,-408.5 617.5,-438.5"/>
<text text-anchor="start" x="515.5" y="-426.5" font-family="Helvetica,sans-Serif" font-size="10.00">SoftstartAfterZC_PHx</text>
<text text-anchor="middle" x="562.5" y="-415.5" font-family="Helvetica,sans-Serif" font-size="10.00">_GTIMode</text>
</a>
</g>
</g>
<!-- Node3&#45;&gt;Node14 -->
<g id="edge15_Node000003_Node000014" class="edge">
<title>Node3&#45;&gt;Node14</title>
<g id="a_edge15_Node000003_Node000014"><a xlink:title=" ">
<path fill="none" stroke="#63b8ff" d="M383.11,-316.21C399.37,-335.05 437.91,-376.71 479,-399.5 484.87,-402.76 491.23,-405.61 497.72,-408.1"/>
<polygon fill="#63b8ff" stroke="#63b8ff" points="496.69,-411.45 507.29,-411.5 499.03,-404.85 496.69,-411.45"/>
</a>
</g>
</g>
<!-- Node15 -->
<g id="Node000015" class="node">
<title>Node15</title>
<g id="a_Node000015"><a xlink:href="a00371.html#a3e7091905b384bca668f6f12a50834f4" target="_top" xlink:title=" ">
<polygon fill="white" stroke="#666666" points="617.5,-486.5 507.5,-486.5 507.5,-456.5 617.5,-456.5 617.5,-486.5"/>
<text text-anchor="start" x="515.5" y="-474.5" font-family="Helvetica,sans-Serif" font-size="10.00">SoftstartAfterZC_PHx</text>
<text text-anchor="middle" x="562.5" y="-463.5" font-family="Helvetica,sans-Serif" font-size="10.00">_PFCMode</text>
</a>
</g>
</g>
<!-- Node3&#45;&gt;Node15 -->
<g id="edge21_Node000003_Node000015" class="edge">
<title>Node3&#45;&gt;Node15</title>
<g id="a_edge21_Node000003_Node000015"><a xlink:title=" ">
<path fill="none" stroke="#63b8ff" d="M379.3,-316.06C391.23,-341.52 427.36,-411.47 479,-447.5 484.67,-451.46 490.99,-454.77 497.55,-457.54"/>
<polygon fill="#63b8ff" stroke="#63b8ff" points="496.67,-460.95 507.26,-461.22 499.15,-454.4 496.67,-460.95"/>
</a>
</g>
</g>
<!-- Node16 -->
<g id="Node000016" class="node">
<title>Node16</title>
<g id="a_Node000016"><a xlink:href="a00380.html#a4fd6e889896907ceaae34b73435d5627" target="_top" xlink:title=" ">
<polygon fill="white" stroke="#666666" points="646,-205 479,-205 479,-186 646,-186 646,-205"/>
<text text-anchor="middle" x="562.5" y="-193" font-family="Helvetica,sans-Serif" font-size="10.00">XFT_SMPS_Controller2P2ZUpdate</text>
</a>
</g>
</g>
<!-- Node3&#45;&gt;Node16 -->
<g id="edge27_Node000003_Node000016" class="edge">
<title>Node3&#45;&gt;Node16</title>
<g id="a_edge27_Node000003_Node000016"><a xlink:title=" ">
<path fill="none" stroke="#63b8ff" d="M382.78,-296.98C398.74,-278.13 437.2,-236.01 479,-214.5 483.62,-212.12 488.54,-210.04 493.58,-208.22"/>
<polygon fill="#63b8ff" stroke="#63b8ff" points="494.97,-211.44 503.39,-205.02 492.8,-204.79 494.97,-211.44"/>
</a>
</g>
</g>
<!-- Node17 -->
<g id="Node000017" class="node">
<title>Node17</title>
<g id="a_Node000017"><a xlink:href="a00371.html#a9d01eea56aae5f1437eb541a321277cc" target="_top" xlink:title=" ">
<polygon fill="white" stroke="#666666" points="605,-353 520,-353 520,-334 605,-334 605,-353"/>
<text text-anchor="middle" x="562.5" y="-341" font-family="Helvetica,sans-Serif" font-size="10.00">ZeroCross_PHx</text>
</a>
</g>
</g>
<!-- Node3&#45;&gt;Node17 -->
<g id="edge28_Node000003_Node000017" class="edge">
<title>Node3&#45;&gt;Node17</title>
<g id="a_edge28_Node000003_Node000017"><a xlink:title=" ">
<path fill="none" stroke="#63b8ff" d="M411.4,-313.72C439.52,-319.3 478.8,-327.09 510.12,-333.31"/>
<polygon fill="#63b8ff" stroke="#63b8ff" points="509.5,-336.75 519.99,-335.26 510.86,-329.89 509.5,-336.75"/>
</a>
</g>
</g>
<!-- Node6 -->
<g id="Node000006" class="node">
<title>Node6</title>
<g id="a_Node000006"><a xlink:href="a00407.html#ga531b59d8823e3ebda2da60f48582bcf3" target="_top" xlink:title="This inline function enables PWM override on PWMH output for specific PWM generator selected by the a...">
<polygon fill="white" stroke="#666666" points="814.5,-357 683.5,-357 683.5,-338 814.5,-338 814.5,-357"/>
<text text-anchor="middle" x="749" y="-345" font-family="Helvetica,sans-Serif" font-size="10.00">PWM_OverrideHighEnable</text>
</a>
</g>
</g>
<!-- Node5&#45;&gt;Node6 -->
<g id="edge5_Node000005_Node000006" class="edge">
<title>Node5&#45;&gt;Node6</title>
<g id="a_edge5_Node000005_Node000006"><a xlink:title=" ">
<path fill="none" stroke="#63b8ff" d="M606.29,-316.01C632.74,-321.89 666.9,-329.48 695.05,-335.73"/>
<polygon fill="#63b8ff" stroke="#63b8ff" points="694.6,-339.22 705.12,-337.97 696.12,-332.39 694.6,-339.22"/>
</a>
</g>
</g>
<!-- Node7 -->
<g id="Node000007" class="node">
<title>Node7</title>
<g id="a_Node000007"><a xlink:href="a00407.html#ga2548ca8feda75ba6ab784280679da6ae" target="_top" xlink:title="This inline function enables PWM override on PWML output for specific PWM generator selected by the a...">
<polygon fill="white" stroke="#666666" points="813.5,-320 684.5,-320 684.5,-301 813.5,-301 813.5,-320"/>
<text text-anchor="middle" x="749" y="-308" font-family="Helvetica,sans-Serif" font-size="10.00">PWM_OverrideLowEnable</text>
</a>
</g>
</g>
<!-- Node5&#45;&gt;Node7 -->
<g id="edge6_Node000005_Node000007" class="edge">
<title>Node5&#45;&gt;Node7</title>
<g id="a_edge6_Node000005_Node000007"><a xlink:title=" ">
<path fill="none" stroke="#63b8ff" d="M606.76,-307.44C626.89,-307.87 651.41,-308.41 674.33,-308.9"/>
<polygon fill="#63b8ff" stroke="#63b8ff" points="674.31,-312.4 684.38,-309.12 674.46,-305.4 674.31,-312.4"/>
</a>
</g>
</g>
<!-- Node8&#45;&gt;Node6 -->
<g id="edge9_Node000008_Node000006" class="edge">
<title>Node8&#45;&gt;Node6</title>
<g id="a_edge9_Node000008_Node000006"><a xlink:title=" ">
<path fill="none" stroke="#63b8ff" d="M593.55,-375.12C618.25,-370.71 654.07,-364.3 685,-358.77"/>
<polygon fill="#63b8ff" stroke="#63b8ff" points="685.62,-362.21 694.85,-357.01 684.39,-355.32 685.62,-362.21"/>
</a>
</g>
</g>
<!-- Node8&#45;&gt;Node7 -->
<g id="edge11_Node000008_Node000007" class="edge">
<title>Node8&#45;&gt;Node7</title>
<g id="a_edge11_Node000008_Node000007"><a xlink:title=" ">
<path fill="none" stroke="#63b8ff" d="M593.81,-377.75C610,-375.35 629.86,-370.87 646,-362.5 665.27,-352.51 663.07,-340.12 682,-329.5 685.97,-327.27 690.22,-325.29 694.58,-323.53"/>
<polygon fill="#63b8ff" stroke="#63b8ff" points="696.05,-326.72 704.24,-320 693.65,-320.14 696.05,-326.72"/>
</a>
</g>
</g>
<!-- Node9 -->
<g id="Node000009" class="node">
<title>Node9</title>
<g id="a_Node000009"><a xlink:href="a00407.html#ga957b002605bfb2239a26f174808b2ad8" target="_top" xlink:title="This inline function disables PWM override on PWMH output for specific PWM generator selected by the ...">
<polygon fill="white" stroke="#666666" points="816,-436 682,-436 682,-417 816,-417 816,-436"/>
<text text-anchor="middle" x="749" y="-424" font-family="Helvetica,sans-Serif" font-size="10.00">PWM_OverrideHighDisable</text>
</a>
</g>
</g>
<!-- Node8&#45;&gt;Node9 -->
<g id="edge8_Node000008_Node000009" class="edge">
<title>Node8&#45;&gt;Node9</title>
<g id="a_edge8_Node000008_Node000009"><a xlink:title=" ">
<path fill="none" stroke="#63b8ff" d="M593.73,-387.21C609.36,-390.75 628.74,-395.23 646,-399.5 664.73,-404.13 685.31,-409.53 703.06,-414.27"/>
<polygon fill="#63b8ff" stroke="#63b8ff" points="702.57,-417.76 713.14,-416.97 704.39,-411 702.57,-417.76"/>
</a>
</g>
</g>
<!-- Node10 -->
<g id="Node000010" class="node">
<title>Node10</title>
<g id="a_Node000010"><a xlink:href="a00407.html#gabbedef830c43428e96c7d5125662a8a6" target="_top" xlink:title="This inline function disables PWM override on PWML output for specific PWM generator selected by the ...">
<polygon fill="white" stroke="#666666" points="814.5,-399 683.5,-399 683.5,-380 814.5,-380 814.5,-399"/>
<text text-anchor="middle" x="749" y="-387" font-family="Helvetica,sans-Serif" font-size="10.00">PWM_OverrideLowDisable</text>
</a>
</g>
</g>
<!-- Node8&#45;&gt;Node10 -->
<g id="edge10_Node000008_Node000010" class="edge">
<title>Node8&#45;&gt;Node10</title>
<g id="a_edge10_Node000008_Node000010"><a xlink:title=" ">
<path fill="none" stroke="#63b8ff" d="M593.55,-381.97C615.11,-383.02 645.14,-384.48 672.99,-385.84"/>
<polygon fill="#63b8ff" stroke="#63b8ff" points="672.98,-389.34 683.14,-386.34 673.32,-382.35 672.98,-389.34"/>
</a>
</g>
</g>
<!-- Node14&#45;&gt;Node6 -->
<g id="edge18_Node000014_Node000006" class="edge">
<title>Node14&#45;&gt;Node6</title>
<g id="a_edge18_Node000014_Node000006"><a xlink:title=" ">
<path fill="none" stroke="#63b8ff" d="M617.89,-410.86C627.5,-407.74 637.23,-403.98 646,-399.5 664.05,-390.28 664.26,-381.31 682,-371.5 689.52,-367.35 697.89,-363.66 706.09,-360.5"/>
<polygon fill="#63b8ff" stroke="#63b8ff" points="707.37,-363.76 715.56,-357.04 704.97,-357.18 707.37,-363.76"/>
</a>
</g>
</g>
<!-- Node14&#45;&gt;Node7 -->
<g id="edge20_Node000014_Node000007" class="edge">
<title>Node14&#45;&gt;Node7</title>
<g id="a_edge20_Node000014_Node000007"><a xlink:title=" ">
<path fill="none" stroke="#63b8ff" d="M617.68,-414.57C627.84,-411.08 637.83,-406.24 646,-399.5 672.99,-377.25 654.97,-351.72 682,-329.5 684.06,-327.81 686.25,-326.27 688.55,-324.87"/>
<polygon fill="#63b8ff" stroke="#63b8ff" points="690.54,-327.78 697.85,-320.11 687.36,-321.55 690.54,-327.78"/>
</a>
</g>
</g>
<!-- Node14&#45;&gt;Node9 -->
<g id="edge17_Node000014_Node000009" class="edge">
<title>Node14&#45;&gt;Node9</title>
<g id="a_edge17_Node000014_Node000009"><a xlink:title=" ">
<path fill="none" stroke="#63b8ff" d="M617.86,-424.38C634.73,-424.66 653.65,-424.97 671.72,-425.26"/>
<polygon fill="#63b8ff" stroke="#63b8ff" points="671.9,-428.76 681.95,-425.43 672.01,-421.76 671.9,-428.76"/>
</a>
</g>
</g>
<!-- Node14&#45;&gt;Node10 -->
<g id="edge19_Node000014_Node000010" class="edge">
<title>Node14&#45;&gt;Node10</title>
<g id="a_edge19_Node000014_Node000010"><a xlink:title=" ">
<path fill="none" stroke="#63b8ff" d="M617.86,-413.48C639.34,-409.52 664.13,-404.96 686.28,-400.87"/>
<polygon fill="#63b8ff" stroke="#63b8ff" points="687.05,-404.29 696.25,-399.04 685.78,-397.41 687.05,-404.29"/>
</a>
</g>
</g>
<!-- Node14&#45;&gt;Node12 -->
<g id="edge16_Node000014_Node000012" class="edge">
<title>Node14&#45;&gt;Node12</title>
<g id="a_edge16_Node000014_Node000012"><a xlink:title=" ">
<path fill="none" stroke="#63b8ff" d="M617.86,-436.76C643.55,-443.02 673.99,-450.45 698.96,-456.54"/>
<polygon fill="#63b8ff" stroke="#63b8ff" points="698.41,-460.01 708.95,-458.98 700.06,-453.21 698.41,-460.01"/>
</a>
</g>
</g>
<!-- Node15&#45;&gt;Node6 -->
<g id="edge24_Node000015_Node000006" class="edge">
<title>Node15&#45;&gt;Node6</title>
<g id="a_edge24_Node000015_Node000006"><a xlink:title=" ">
<path fill="none" stroke="#63b8ff" d="M617.85,-462.78C628,-459.27 637.94,-454.37 646,-447.5 674.45,-423.26 654.36,-396.66 682,-371.5 686.45,-367.45 691.63,-364.07 697.1,-361.25"/>
<polygon fill="#63b8ff" stroke="#63b8ff" points="698.82,-364.32 706.5,-357.02 695.95,-357.93 698.82,-364.32"/>
</a>
</g>
</g>
<!-- Node15&#45;&gt;Node7 -->
<g id="edge26_Node000015_Node000007" class="edge">
<title>Node15&#45;&gt;Node7</title>
<g id="a_edge26_Node000015_Node000007"><a xlink:title=" ">
<path fill="none" stroke="#63b8ff" d="M617.82,-463.97C628.21,-460.39 638.25,-455.15 646,-447.5 685.02,-408.98 642.92,-367.96 682,-329.5 683.47,-328.06 685.03,-326.72 686.68,-325.49"/>
<polygon fill="#63b8ff" stroke="#63b8ff" points="688.79,-328.3 695.52,-320.11 685.16,-322.32 688.79,-328.3"/>
</a>
</g>
</g>
<!-- Node15&#45;&gt;Node9 -->
<g id="edge23_Node000015_Node000009" class="edge">
<title>Node15&#45;&gt;Node9</title>
<g id="a_edge23_Node000015_Node000009"><a xlink:title=" ">
<path fill="none" stroke="#63b8ff" d="M617.86,-458.24C643.55,-451.98 673.99,-444.55 698.96,-438.46"/>
<polygon fill="#63b8ff" stroke="#63b8ff" points="700.06,-441.79 708.95,-436.02 698.41,-434.99 700.06,-441.79"/>
</a>
</g>
</g>
<!-- Node15&#45;&gt;Node10 -->
<g id="edge25_Node000015_Node000010" class="edge">
<title>Node15&#45;&gt;Node10</title>
<g id="a_edge25_Node000015_Node000010"><a xlink:title=" ">
<path fill="none" stroke="#63b8ff" d="M617.68,-460.32C627.51,-457.03 637.38,-452.84 646,-447.5 666.06,-435.09 661.92,-420.89 682,-408.5 685.54,-406.32 689.34,-404.38 693.26,-402.65"/>
<polygon fill="#63b8ff" stroke="#63b8ff" points="694.54,-405.91 702.58,-399.01 691.99,-399.39 694.54,-405.91"/>
</a>
</g>
</g>
<!-- Node15&#45;&gt;Node12 -->
<g id="edge22_Node000015_Node000012" class="edge">
<title>Node15&#45;&gt;Node12</title>
<g id="a_edge22_Node000015_Node000012"><a xlink:title=" ">
<path fill="none" stroke="#63b8ff" d="M617.86,-470.62C638.96,-470.27 663.27,-469.88 685.12,-469.52"/>
<polygon fill="#63b8ff" stroke="#63b8ff" points="685.36,-473.02 695.3,-469.36 685.24,-466.02 685.36,-473.02"/>
</a>
</g>
</g>
<!-- Node17&#45;&gt;Node6 -->
<g id="edge30_Node000017_Node000006" class="edge">
<title>Node17&#45;&gt;Node6</title>
<g id="a_edge30_Node000017_Node000006"><a xlink:title=" ">
<path fill="none" stroke="#63b8ff" d="M605.37,-344.41C625.46,-344.84 650.16,-345.38 673.33,-345.88"/>
<polygon fill="#63b8ff" stroke="#63b8ff" points="673.42,-349.38 683.49,-346.1 673.57,-342.39 673.42,-349.38"/>
</a>
</g>
</g>
<!-- Node17&#45;&gt;Node7 -->
<g id="edge31_Node000017_Node000007" class="edge">
<title>Node17&#45;&gt;Node7</title>
<g id="a_edge31_Node000017_Node000007"><a xlink:title=" ">
<path fill="none" stroke="#63b8ff" d="M605.37,-336.01C628.84,-331.81 658.59,-326.49 684.85,-321.8"/>
<polygon fill="#63b8ff" stroke="#63b8ff" points="685.49,-325.24 694.71,-320.03 684.25,-318.35 685.49,-325.24"/>
</a>
</g>
</g>
<!-- Node17&#45;&gt;Node12 -->
<g id="edge29_Node000017_Node000012" class="edge">
<title>Node17&#45;&gt;Node12</title>
<g id="a_edge29_Node000017_Node000012"><a xlink:title=" ">
<path fill="none" stroke="#63b8ff" d="M605.06,-345.52C619.34,-348.05 634.59,-353.01 646,-362.5 676.91,-388.22 652.54,-418.14 682,-445.5 685.79,-449.02 690.15,-452.01 694.79,-454.54"/>
<polygon fill="#63b8ff" stroke="#63b8ff" points="693.42,-457.77 703.96,-458.87 696.41,-451.44 693.42,-457.77"/>
</a>
</g>
</g>
<!-- Node18&#45;&gt;Node6 -->
<g id="edge33_Node000018_Node000006" class="edge">
<title>Node18&#45;&gt;Node6</title>
<g id="a_edge33_Node000018_Node000006"><a xlink:title=" ">
<path fill="none" stroke="#63b8ff" d="M622.52,-126.24C631.32,-129.29 639.58,-133.83 646,-140.5 705.3,-202.11 623.94,-266.72 682,-329.5 682.79,-330.35 683.61,-331.16 684.46,-331.94"/>
<polygon fill="#63b8ff" stroke="#63b8ff" points="682.73,-335 692.91,-337.96 686.8,-329.3 682.73,-335"/>
</a>
</g>
</g>
<!-- Node18&#45;&gt;Node7 -->
<g id="edge34_Node000018_Node000007" class="edge">
<title>Node18&#45;&gt;Node7</title>
<g id="a_edge34_Node000018_Node000007"><a xlink:title=" ">
<path fill="none" stroke="#63b8ff" d="M622.84,-129.02C631.1,-131.77 639.1,-135.49 646,-140.5 699.5,-179.37 730.15,-255.65 742.11,-291.29"/>
<polygon fill="#63b8ff" stroke="#63b8ff" points="738.83,-292.52 745.23,-300.96 745.49,-290.37 738.83,-292.52"/>
</a>
</g>
</g>
<!-- Node21&#45;&gt;Node6 -->
<g id="edge38_Node000021_Node000006" class="edge">
<title>Node21&#45;&gt;Node6</title>
<g id="a_edge38_Node000021_Node000006"><a xlink:title=" ">
<path fill="none" stroke="#63b8ff" d="M633.18,-93.7C637.93,-96.3 642.29,-99.53 646,-103.5 715.42,-177.84 614.08,-253.79 682,-329.5 682.75,-330.34 683.54,-331.14 684.36,-331.91"/>
<polygon fill="#63b8ff" stroke="#63b8ff" points="682.36,-334.78 692.49,-337.88 686.5,-329.14 682.36,-334.78"/>
</a>
</g>
</g>
<!-- Node21&#45;&gt;Node7 -->
<g id="edge39_Node000021_Node000007" class="edge">
<title>Node21&#45;&gt;Node7</title>
<g id="a_edge39_Node000021_Node000007"><a xlink:title=" ">
<path fill="none" stroke="#63b8ff" d="M629.92,-94.1C635.69,-96.58 641.16,-99.67 646,-103.5 708.15,-152.7 735.16,-249.5 744.22,-290.93"/>
<polygon fill="#63b8ff" stroke="#63b8ff" points="740.82,-291.77 746.28,-300.85 747.68,-290.35 740.82,-291.77"/>
</a>
</g>
</g>
<!-- Node23 -->
<g id="Node000023" class="node">
<title>Node23</title>
<g id="a_Node000023"><a xlink:href="a00420.html#ga8b485c96b189f1ace72033f47f88ddd3" target="_top" xlink:title="This inline function checks whether mailbox is full. Returns true if New data are ready to read....">
<polygon fill="white" stroke="#666666" points="443,-19 305,-19 305,0 443,0 443,-19"/>
<text text-anchor="middle" x="374" y="-7" font-family="Helvetica,sans-Serif" font-size="10.00">MAIN_CORE_ProtocolIsFull</text>
</a>
</g>
</g>
<!-- Node22&#45;&gt;Node23 -->
<g id="edge41_Node000022_Node000023" class="edge">
<title>Node22&#45;&gt;Node23</title>
<g id="a_edge41_Node000022_Node000023"><a xlink:title=" ">
<path fill="none" stroke="#63b8ff" d="M269.28,-9.5C277.6,-9.5 286.16,-9.5 294.62,-9.5"/>
<polygon fill="#63b8ff" stroke="#63b8ff" points="294.87,-13 304.87,-9.5 294.87,-6 294.87,-13"/>
</a>
</g>
</g>
</g>
</svg>

<g id="navigator" transform="translate(0 0)" fill="#404254">
  <rect fill="#f2f5e9" fill-opacity="0.5" stroke="#606060" stroke-width=".5" x="0" y="0" width="60" height="60"/>
  <use id="zoomplus" xlink:href="#zoomPlus" x="17" y="9" onmousedown="handleZoom(evt,'in')"/>
  <use id="zoomminus" xlink:href="#zoomMin" x="42" y="9" onmousedown="handleZoom(evt,'out')"/>
  <use id="reset" xlink:href="#resetDef" x="30" y="36" onmousedown="handleReset()"/>
   <use id="arrowup" xlink:href="#arrowUp" x="0" y="0" onmousedown="handlePan(0,-1)"/>
  <use id="arrowright" xlink:href="#arrowRight" x="0" y="0" onmousedown="handlePan(1,0)"/>
  <use id="arrowdown" xlink:href="#arrowDown" x="0" y="0" onmousedown="handlePan(0,1)"/>
  <use id="arrowleft" xlink:href="#arrowLeft" x="0" y="0" onmousedown="handlePan(-1,0)"/>
</g>
<svg viewBox="0 0 15 15" width="100%" height="30px" preserveAspectRatio="xMaxYMin meet">
 <g id="arrow_out" transform="scale(0.3 0.3)">
  <a xlink:href="a00347_a968747854ba14331aa9f85784178d0da_cgraph_org.svg" target="_base">
   <rect id="button" ry="5" rx="5" y="6" x="6" height="38" width="38"
        fill="#f2f5e9" fill-opacity="0.5" stroke="#606060" stroke-width="1.0"/>
   <path id="arrow"
     d="M 11.500037,31.436501 C 11.940474,20.09759 22.043105,11.32322 32.158766,21.979434 L 37.068811,17.246167 C 37.068811,17.246167 37.088388,32 37.088388,32 L 22.160133,31.978069 C 22.160133,31.978069 26.997745,27.140456 26.997745,27.140456 C 18.528582,18.264221 13.291696,25.230495 11.500037,31.436501 z"
     style="fill:#404040;"/>
  </a>
 </g>
</svg>

<style type='text/css'>
<![CDATA[
[data-mouse-over-selected='false'] { opacity: 0.7; }
[data-mouse-over-selected='true']  { opacity: 1.0; }
]]>
</style>
<script type="application/ecmascript"><![CDATA[
document.addEventListener('DOMContentLoaded', (event) => {
  highlightEdges();
  highlightAdjacentNodes();
});
]]></script>
</svg>
