<?xml version="1.0" encoding="UTF-8" standalone="no"?>
<!DOCTYPE svg PUBLIC "-//W3C//DTD SVG 1.1//EN"
 "http://www.w3.org/Graphics/SVG/1.1/DTD/svg11.dtd">
<!-- Generated by graphviz version 8.1.0 (20230707.0739)
 -->
<!-- Title: CAN1_Initialize Pages: 1 -->
<svg width="480pt" height="620pt"
 viewBox="0.00 0.00 479.75 620.00" xmlns="http://www.w3.org/2000/svg" xmlns:xlink="http://www.w3.org/1999/xlink">
<g id="graph0" class="graph" transform="scale(1 1) rotate(0) translate(4 616)">
<title>CAN1_Initialize</title>
<!-- Node1 -->
<g id="Node000001" class="node">
<title>Node1</title>
<g id="a_Node000001"><a xlink:title="Initializes CAN1 module.">
<polygon fill="#999999" stroke="#666666" points="82,-240 0,-240 0,-220 82,-220 82,-240"/>
<text text-anchor="middle" x="41" y="-226.5" font-family="Helvetica,sans-Serif" font-size="10.00">CAN1_Initialize</text>
</a>
</g>
</g>
<!-- Node2 -->
<g id="Node000002" class="node">
<title>Node2</title>
<g id="a_Node000002"><a xlink:href="a00399.html#gabad0a60bbd68c053885720c843f72ed5" target="_top" xlink:title="This function configure the CAN1 bit rate settings.">
<polygon fill="white" stroke="#666666" points="259.25,-354 124,-354 124,-334 259.25,-334 259.25,-354"/>
<text text-anchor="middle" x="191.62" y="-340.5" font-family="Helvetica,sans-Serif" font-size="10.00">CAN1_BitRateConfiguration</text>
</a>
</g>
</g>
<!-- Node1&#45;&gt;Node2 -->
<g id="edge1_Node000001_Node000002" class="edge">
<title>Node1&#45;&gt;Node2</title>
<g id="a_edge1_Node000001_Node000002"><a xlink:title=" ">
<path fill="none" stroke="#63b8ff" d="M47.33,-240.39C57.98,-260.08 83.81,-302.8 118,-325 120.3,-326.49 122.7,-327.86 125.19,-329.13"/>
<polygon fill="#63b8ff" stroke="#63b8ff" points="123.53,-332.67 134.09,-333.5 126.36,-326.26 123.53,-332.67"/>
</a>
</g>
</g>
<!-- Node3 -->
<g id="Node000003" class="node">
<title>Node3</title>
<g id="a_Node000003"><a xlink:href="a00399.html#gaa87a20920f9eeb971cc0fb144ab9f9ee" target="_top" xlink:title="This function enables the CAN1 error notification interrupt.">
<polygon fill="white" stroke="#666666" points="264.5,-316 118.75,-316 118.75,-296 264.5,-296 264.5,-316"/>
<text text-anchor="middle" x="191.62" y="-302.5" font-family="Helvetica,sans-Serif" font-size="10.00">CAN1_ErrorNotificationEnable</text>
</a>
</g>
</g>
<!-- Node1&#45;&gt;Node3 -->
<g id="edge2_Node000001_Node000003" class="edge">
<title>Node1&#45;&gt;Node3</title>
<g id="a_edge2_Node000001_Node000003"><a xlink:title=" ">
<path fill="none" stroke="#63b8ff" d="M52.93,-240.4C66.93,-253.18 92.45,-274.67 118,-287 121.79,-288.83 125.77,-290.5 129.85,-292.02"/>
<polygon fill="#63b8ff" stroke="#63b8ff" points="128.5,-295.6 139.1,-295.5 130.75,-288.97 128.5,-295.6"/>
</a>
</g>
</g>
<!-- Node18 -->
<g id="Node000018" class="node">
<title>Node18</title>
<g id="a_Node000018"><a xlink:href="a00399.html#gaf5fa07221c88fc4aadfb447301ebfb0e" target="_top" xlink:title="Sets the CAN1 operation mode.">
<polygon fill="white" stroke="#666666" points="255.5,-278 127.75,-278 127.75,-258 255.5,-258 255.5,-278"/>
<text text-anchor="middle" x="191.62" y="-264.5" font-family="Helvetica,sans-Serif" font-size="10.00">CAN1_OperationModeSet</text>
</a>
</g>
</g>
<!-- Node1&#45;&gt;Node18 -->
<g id="edge17_Node000001_Node000018" class="edge">
<title>Node1&#45;&gt;Node18</title>
<g id="a_edge17_Node000001_Node000018"><a xlink:title=" ">
<path fill="none" stroke="#63b8ff" d="M82.22,-240.28C99.76,-244.77 120.55,-250.08 139.2,-254.85"/>
<polygon fill="#63b8ff" stroke="#63b8ff" points="138.04,-258.42 148.6,-257.51 139.78,-251.64 138.04,-258.42"/>
</a>
</g>
</g>
<!-- Node20 -->
<g id="Node000020" class="node">
<title>Node20</title>
<g id="a_Node000020"><a xlink:href="a00399.html#ga705b1008d63bc7a6f8355bef60566883" target="_top" xlink:title="This function configure the CAN1 receive FIFO settings.">
<polygon fill="white" stroke="#666666" points="265.25,-240 118,-240 118,-220 265.25,-220 265.25,-240"/>
<text text-anchor="middle" x="191.62" y="-226.5" font-family="Helvetica,sans-Serif" font-size="10.00">CAN1_RX_FIFO_Configuration</text>
</a>
</g>
</g>
<!-- Node1&#45;&gt;Node20 -->
<g id="edge19_Node000001_Node000020" class="edge">
<title>Node1&#45;&gt;Node20</title>
<g id="a_edge19_Node000001_Node000020"><a xlink:title=" ">
<path fill="none" stroke="#63b8ff" d="M82.22,-230C89.96,-230 98.32,-230 106.86,-230"/>
<polygon fill="#63b8ff" stroke="#63b8ff" points="106.73,-233.5 116.73,-230 106.73,-226.5 106.73,-233.5"/>
</a>
</g>
</g>
<!-- Node21 -->
<g id="Node000021" class="node">
<title>Node21</title>
<g id="a_Node000021"><a xlink:href="a00399.html#ga730492bf1df406365f732c477bcd8ef0" target="_top" xlink:title="This function configure the CAN1 filter and mask settings.">
<polygon fill="white" stroke="#666666" points="260,-202 123.25,-202 123.25,-170 260,-170 260,-202"/>
<text text-anchor="start" x="131.25" y="-188.5" font-family="Helvetica,sans-Serif" font-size="10.00">CAN1_RX_FIFO_FilterMask</text>
<text text-anchor="middle" x="191.62" y="-176.5" font-family="Helvetica,sans-Serif" font-size="10.00">Configuration</text>
</a>
</g>
</g>
<!-- Node1&#45;&gt;Node21 -->
<g id="edge20_Node000001_Node000021" class="edge">
<title>Node1&#45;&gt;Node21</title>
<g id="a_edge20_Node000001_Node000021"><a xlink:title=" ">
<path fill="none" stroke="#63b8ff" d="M77.22,-219.57C91.51,-215.34 108.49,-210.31 124.91,-205.45"/>
<polygon fill="#63b8ff" stroke="#63b8ff" points="125.43,-208.65 134.03,-202.46 123.45,-201.94 125.43,-208.65"/>
</a>
</g>
</g>
<!-- Node22 -->
<g id="Node000022" class="node">
<title>Node22</title>
<g id="a_Node000022"><a xlink:href="a00399.html#ga226812033c0e8cbd56c917ddd880c4dd" target="_top" xlink:title="This function reset the CAN1 receive message head count.">
<polygon fill="white" stroke="#666666" points="257.38,-152 125.88,-152 125.88,-132 257.38,-132 257.38,-152"/>
<text text-anchor="middle" x="191.62" y="-138.5" font-family="Helvetica,sans-Serif" font-size="10.00">CAN1_RX_FIFO_ResetInfo</text>
</a>
</g>
</g>
<!-- Node1&#45;&gt;Node22 -->
<g id="edge21_Node000001_Node000022" class="edge">
<title>Node1&#45;&gt;Node22</title>
<g id="a_edge21_Node000001_Node000022"><a xlink:title=" ">
<path fill="none" stroke="#63b8ff" d="M50.44,-219.66C63.39,-204.5 89.64,-176.37 118,-161 121.25,-159.24 124.67,-157.64 128.19,-156.18"/>
<polygon fill="#63b8ff" stroke="#63b8ff" points="129.12,-159.19 137.27,-152.43 126.68,-152.63 129.12,-159.19"/>
</a>
</g>
</g>
<!-- Node23 -->
<g id="Node000023" class="node">
<title>Node23</title>
<g id="a_Node000023"><a xlink:href="a00399.html#ga6fa4d488931d7c9ae4c2ef0d8898d202" target="_top" xlink:title="This function configure the CAN1 transmit FIFO settings.">
<polygon fill="white" stroke="#666666" points="264.5,-114 118.75,-114 118.75,-94 264.5,-94 264.5,-114"/>
<text text-anchor="middle" x="191.62" y="-100.5" font-family="Helvetica,sans-Serif" font-size="10.00">CAN1_TX_FIFO_Configuration</text>
</a>
</g>
</g>
<!-- Node1&#45;&gt;Node23 -->
<g id="edge22_Node000001_Node000023" class="edge">
<title>Node1&#45;&gt;Node23</title>
<g id="a_edge22_Node000001_Node000023"><a xlink:title=" ">
<path fill="none" stroke="#63b8ff" d="M46.36,-219.63C55.97,-198.12 81.07,-148.51 118,-123 120.13,-121.53 122.36,-120.18 124.67,-118.93"/>
<polygon fill="#63b8ff" stroke="#63b8ff" points="125.92,-121.74 133.52,-114.35 122.98,-115.39 125.92,-121.74"/>
</a>
</g>
</g>
<!-- Node4 -->
<g id="Node000004" class="node">
<title>Node4</title>
<g id="a_Node000004"><a xlink:href="a00399.html#gacbe5d017b9015e9756ea3530da8cc8db" target="_top" xlink:title="This is the default callback with weak attribute. The user can override and implement the default cal...">
<polygon fill="white" stroke="#666666" points="447.75,-612 325.25,-612 325.25,-592 447.75,-592 447.75,-612"/>
<text text-anchor="middle" x="386.5" y="-598.5" font-family="Helvetica,sans-Serif" font-size="10.00">CAN1_BusErrorCallback</text>
</a>
</g>
</g>
<!-- Node3&#45;&gt;Node4 -->
<g id="edge3_Node000003_Node000004" class="edge">
<title>Node3&#45;&gt;Node4</title>
<g id="a_edge3_Node000003_Node000004"><a xlink:title=" ">
<path fill="none" stroke="#63b8ff" d="M254.77,-316.41C258.66,-318.76 262.22,-321.59 265.25,-325 342.18,-411.52 222.86,-497.8 301.25,-583 305.25,-587.34 310.01,-590.8 315.2,-593.54"/>
<polygon fill="#63b8ff" stroke="#63b8ff" points="313.38,-597 323.95,-597.74 316.15,-590.57 313.38,-597"/>
</a>
</g>
</g>
<!-- Node5 -->
<g id="Node000005" class="node">
<title>Node5</title>
<g id="a_Node000005"><a xlink:href="a00399.html#ga55e70b90188be64bc08f86ac9d0d7566" target="_top" xlink:title="This function can be used to override default callback and to define custom callback for CAN1_BusErro...">
<polygon fill="white" stroke="#666666" points="465.75,-574 307.25,-574 307.25,-554 465.75,-554 465.75,-574"/>
<text text-anchor="middle" x="386.5" y="-560.5" font-family="Helvetica,sans-Serif" font-size="10.00">CAN1_BusErrorCallbackRegister</text>
</a>
</g>
</g>
<!-- Node3&#45;&gt;Node5 -->
<g id="edge4_Node000003_Node000005" class="edge">
<title>Node3&#45;&gt;Node5</title>
<g id="a_edge4_Node000003_Node000005"><a xlink:title=" ">
<path fill="none" stroke="#63b8ff" d="M254.68,-316.49C258.59,-318.82 262.18,-321.63 265.25,-325 331.95,-398.26 233.31,-472.88 301.25,-545 301.95,-545.74 302.67,-546.45 303.41,-547.14"/>
<polygon fill="#63b8ff" stroke="#63b8ff" points="300.94,-550.42 311.04,-553.61 305.14,-544.81 300.94,-550.42"/>
</a>
</g>
</g>
<!-- Node6 -->
<g id="Node000006" class="node">
<title>Node6</title>
<g id="a_Node000006"><a xlink:href="a00399.html#ga63ae61e90d5f2b4353ff69c3d774cd69" target="_top" xlink:title="This is the default callback with weak attribute. The user can override and implement the default cal...">
<polygon fill="white" stroke="#666666" points="471.75,-536 301.25,-536 301.25,-516 471.75,-516 471.75,-536"/>
<text text-anchor="middle" x="386.5" y="-522.5" font-family="Helvetica,sans-Serif" font-size="10.00">CAN1_BusWakeUpActivityCallback</text>
</a>
</g>
</g>
<!-- Node3&#45;&gt;Node6 -->
<g id="edge5_Node000003_Node000006" class="edge">
<title>Node3&#45;&gt;Node6</title>
<g id="a_edge5_Node000003_Node000006"><a xlink:title=" ">
<path fill="none" stroke="#63b8ff" d="M254.22,-316.41C258.29,-318.75 262.03,-321.58 265.25,-325 321.76,-385.04 243.72,-447.93 301.25,-507 302.09,-507.86 302.95,-508.68 303.85,-509.47"/>
<polygon fill="#63b8ff" stroke="#63b8ff" points="301.39,-512.74 311.56,-515.71 305.47,-507.04 301.39,-512.74"/>
</a>
</g>
</g>
<!-- Node7 -->
<g id="Node000007" class="node">
<title>Node7</title>
<g id="a_Node000007"><a xlink:href="a00399.html#gae58473b24d41be10392bd3cd5703b278" target="_top" xlink:title="This function can be used to override default callback and to define custom callback for CAN1_BusWake...">
<polygon fill="white" stroke="#666666" points="471.75,-498 301.25,-498 301.25,-466 471.75,-466 471.75,-498"/>
<text text-anchor="start" x="309.25" y="-484.5" font-family="Helvetica,sans-Serif" font-size="10.00">CAN1_BusWakeUpActivityCallback</text>
<text text-anchor="middle" x="386.5" y="-472.5" font-family="Helvetica,sans-Serif" font-size="10.00">Register</text>
</a>
</g>
</g>
<!-- Node3&#45;&gt;Node7 -->
<g id="edge6_Node000003_Node000007" class="edge">
<title>Node3&#45;&gt;Node7</title>
<g id="a_edge6_Node000003_Node000007"><a xlink:title=" ">
<path fill="none" stroke="#63b8ff" d="M253.61,-316.48C257.87,-318.8 261.82,-321.61 265.25,-325 308.47,-367.78 258.73,-413.53 301.25,-457 301.95,-457.72 302.67,-458.41 303.41,-459.09"/>
<polygon fill="#63b8ff" stroke="#63b8ff" points="300.86,-462.31 310.93,-465.6 305.11,-456.75 300.86,-462.31"/>
</a>
</g>
</g>
<!-- Node8 -->
<g id="Node000008" class="node">
<title>Node8</title>
<g id="a_Node000008"><a xlink:href="a00399.html#ga9fd5634a4a1d0a49935799d20133a5b3" target="_top" xlink:title="This is the default callback with weak attribute. The user can override and implement the default cal...">
<polygon fill="white" stroke="#666666" points="461.62,-448 311.38,-448 311.38,-428 461.62,-428 461.62,-448"/>
<text text-anchor="middle" x="386.5" y="-434.5" font-family="Helvetica,sans-Serif" font-size="10.00">CAN1_InvalidMessageCallback</text>
</a>
</g>
</g>
<!-- Node3&#45;&gt;Node8 -->
<g id="edge7_Node000003_Node000008" class="edge">
<title>Node3&#45;&gt;Node8</title>
<g id="a_edge7_Node000003_Node000008"><a xlink:title=" ">
<path fill="none" stroke="#63b8ff" d="M252.19,-316.32C256.92,-318.67 261.37,-321.52 265.25,-325 298.57,-354.85 267.42,-389.72 301.25,-419 302.49,-420.07 303.78,-421.09 305.11,-422.05"/>
<polygon fill="#63b8ff" stroke="#63b8ff" points="303.04,-425.49 313.42,-427.65 306.65,-419.5 303.04,-425.49"/>
</a>
</g>
</g>
<!-- Node9 -->
<g id="Node000009" class="node">
<title>Node9</title>
<g id="a_Node000009"><a xlink:href="a00399.html#gadf09a964fe2b5f408d5467bf0a195e7e" target="_top" xlink:title="This function can be used to override default callback and to define custom callback for CAN1_Invalid...">
<polygon fill="white" stroke="#666666" points="461.62,-410 311.38,-410 311.38,-378 461.62,-378 461.62,-410"/>
<text text-anchor="start" x="319.38" y="-396.5" font-family="Helvetica,sans-Serif" font-size="10.00">CAN1_InvalidMessageCallback</text>
<text text-anchor="middle" x="386.5" y="-384.5" font-family="Helvetica,sans-Serif" font-size="10.00">Register</text>
</a>
</g>
</g>
<!-- Node3&#45;&gt;Node9 -->
<g id="edge8_Node000003_Node000009" class="edge">
<title>Node3&#45;&gt;Node9</title>
<g id="a_edge8_Node000003_Node000009"><a xlink:title=" ">
<path fill="none" stroke="#63b8ff" d="M247.74,-316.41C253.9,-318.73 259.88,-321.55 265.25,-325 286.52,-338.64 280.21,-355.01 301.25,-369 303.26,-370.34 305.35,-371.61 307.49,-372.81"/>
<polygon fill="#63b8ff" stroke="#63b8ff" points="305.69,-376.32 316.2,-377.67 308.82,-370.06 305.69,-376.32"/>
</a>
</g>
</g>
<!-- Node10 -->
<g id="Node000010" class="node">
<title>Node10</title>
<g id="a_Node000010"><a xlink:href="a00399.html#ga9f3a8787946348d5982bd754b1907ec2" target="_top" xlink:title="This is the default callback with weak attribute. The user can override and implement the default cal...">
<polygon fill="white" stroke="#666666" points="457.12,-360 315.88,-360 315.88,-340 457.12,-340 457.12,-360"/>
<text text-anchor="middle" x="386.5" y="-346.5" font-family="Helvetica,sans-Serif" font-size="10.00">CAN1_ModeChangeCallback</text>
</a>
</g>
</g>
<!-- Node3&#45;&gt;Node10 -->
<g id="edge9_Node000003_Node000010" class="edge">
<title>Node3&#45;&gt;Node10</title>
<g id="a_edge9_Node000003_Node000010"><a xlink:title=" ">
<path fill="none" stroke="#63b8ff" d="M237.8,-316.44C257.31,-320.94 280.4,-326.25 301.25,-331 310.08,-333.01 319.43,-335.13 328.56,-337.19"/>
<polygon fill="#63b8ff" stroke="#63b8ff" points="327.62,-340.8 338.14,-339.58 329.16,-333.97 327.62,-340.8"/>
</a>
</g>
</g>
<!-- Node11 -->
<g id="Node000011" class="node">
<title>Node11</title>
<g id="a_Node000011"><a xlink:href="a00399.html#ga180079a3530dfacdb86a24f764f6fc4d" target="_top" xlink:title="This function can be used to override default callback and to define custom callback for CAN1_ModeCha...">
<polygon fill="white" stroke="#666666" points="457.12,-322 315.88,-322 315.88,-290 457.12,-290 457.12,-322"/>
<text text-anchor="start" x="323.88" y="-308.5" font-family="Helvetica,sans-Serif" font-size="10.00">CAN1_ModeChangeCallback</text>
<text text-anchor="middle" x="386.5" y="-296.5" font-family="Helvetica,sans-Serif" font-size="10.00">Register</text>
</a>
</g>
</g>
<!-- Node3&#45;&gt;Node11 -->
<g id="edge10_Node000003_Node000011" class="edge">
<title>Node3&#45;&gt;Node11</title>
<g id="a_edge10_Node000003_Node000011"><a xlink:title=" ">
<path fill="none" stroke="#63b8ff" d="M264.99,-306C277.94,-306 291.5,-306 304.66,-306"/>
<polygon fill="#63b8ff" stroke="#63b8ff" points="304.6,-309.5 314.6,-306 304.6,-302.5 304.6,-309.5"/>
</a>
</g>
</g>
<!-- Node12 -->
<g id="Node000012" class="node">
<title>Node12</title>
<g id="a_Node000012"><a xlink:href="a00399.html#gad8a749c14d472ac82978c7e593d06543" target="_top" xlink:title="This is the default callback with weak attribute. The user can override and implement the default cal...">
<polygon fill="white" stroke="#666666" points="466.88,-272 306.12,-272 306.12,-252 466.88,-252 466.88,-272"/>
<text text-anchor="middle" x="386.5" y="-258.5" font-family="Helvetica,sans-Serif" font-size="10.00">CAN1_RxBufferOverFlowCallback</text>
</a>
</g>
</g>
<!-- Node3&#45;&gt;Node12 -->
<g id="edge11_Node000003_Node000012" class="edge">
<title>Node3&#45;&gt;Node12</title>
<g id="a_edge11_Node000003_Node000012"><a xlink:title=" ">
<path fill="none" stroke="#63b8ff" d="M237.8,-295.56C257.31,-291.06 280.4,-285.75 301.25,-281 310.08,-278.99 319.43,-276.87 328.56,-274.81"/>
<polygon fill="#63b8ff" stroke="#63b8ff" points="329.16,-278.03 338.14,-272.42 327.62,-271.2 329.16,-278.03"/>
</a>
</g>
</g>
<!-- Node13 -->
<g id="Node000013" class="node">
<title>Node13</title>
<g id="a_Node000013"><a xlink:href="a00399.html#ga1ce191440d01b9f65ab3c8837f6c4c5d" target="_top" xlink:title="This function can be used to override default callback and to define custom callback for CAN1_RxBuffe...">
<polygon fill="white" stroke="#666666" points="466.88,-234 306.12,-234 306.12,-202 466.88,-202 466.88,-234"/>
<text text-anchor="start" x="314.12" y="-220.5" font-family="Helvetica,sans-Serif" font-size="10.00">CAN1_RxBufferOverFlowCallback</text>
<text text-anchor="middle" x="386.5" y="-208.5" font-family="Helvetica,sans-Serif" font-size="10.00">Register</text>
</a>
</g>
</g>
<!-- Node3&#45;&gt;Node13 -->
<g id="edge12_Node000003_Node000013" class="edge">
<title>Node3&#45;&gt;Node13</title>
<g id="a_edge12_Node000003_Node000013"><a xlink:title=" ">
<path fill="none" stroke="#63b8ff" d="M247.74,-295.59C253.9,-293.27 259.88,-290.45 265.25,-287 286.52,-273.36 280.21,-256.99 301.25,-243 303.26,-241.66 305.35,-240.39 307.49,-239.19"/>
<polygon fill="#63b8ff" stroke="#63b8ff" points="308.82,-241.94 316.2,-234.33 305.69,-235.68 308.82,-241.94"/>
</a>
</g>
</g>
<!-- Node14 -->
<g id="Node000014" class="node">
<title>Node14</title>
<g id="a_Node000014"><a xlink:href="a00399.html#ga9c0579a2606bbdcf40073c96c82e3fc9" target="_top" xlink:title="This is the default callback with weak attribute. The user can override and implement the default cal...">
<polygon fill="white" stroke="#666666" points="456,-184 317,-184 317,-164 456,-164 456,-184"/>
<text text-anchor="middle" x="386.5" y="-170.5" font-family="Helvetica,sans-Serif" font-size="10.00">CAN1_SystemErrorCallback</text>
</a>
</g>
</g>
<!-- Node3&#45;&gt;Node14 -->
<g id="edge13_Node000003_Node000014" class="edge">
<title>Node3&#45;&gt;Node14</title>
<g id="a_edge13_Node000003_Node000014"><a xlink:title=" ">
<path fill="none" stroke="#63b8ff" d="M252.19,-295.68C256.92,-293.33 261.37,-290.48 265.25,-287 298.57,-257.15 267.42,-222.28 301.25,-193 303.28,-191.24 305.45,-189.63 307.71,-188.17"/>
<polygon fill="#63b8ff" stroke="#63b8ff" points="308.76,-191.03 315.88,-183.18 305.42,-184.88 308.76,-191.03"/>
</a>
</g>
</g>
<!-- Node15 -->
<g id="Node000015" class="node">
<title>Node15</title>
<g id="a_Node000015"><a xlink:href="a00399.html#ga589e67cdfd74495013704b8357df54ad" target="_top" xlink:title="This function can be used to override default callback and to define custom callback for CAN1_SystemE...">
<polygon fill="white" stroke="#666666" points="456,-146 317,-146 317,-114 456,-114 456,-146"/>
<text text-anchor="start" x="325" y="-132.5" font-family="Helvetica,sans-Serif" font-size="10.00">CAN1_SystemErrorCallback</text>
<text text-anchor="middle" x="386.5" y="-120.5" font-family="Helvetica,sans-Serif" font-size="10.00">Register</text>
</a>
</g>
</g>
<!-- Node3&#45;&gt;Node15 -->
<g id="edge14_Node000003_Node000015" class="edge">
<title>Node3&#45;&gt;Node15</title>
<g id="a_edge14_Node000003_Node000015"><a xlink:title=" ">
<path fill="none" stroke="#63b8ff" d="M253.61,-295.52C257.87,-293.2 261.82,-290.39 265.25,-287 308.47,-244.22 258.73,-198.47 301.25,-155 303.21,-153 305.32,-151.15 307.56,-149.45"/>
<polygon fill="#63b8ff" stroke="#63b8ff" points="309.17,-151.94 315.7,-143.6 305.39,-146.04 309.17,-151.94"/>
</a>
</g>
</g>
<!-- Node16 -->
<g id="Node000016" class="node">
<title>Node16</title>
<g id="a_Node000016"><a xlink:href="a00399.html#ga348dcbe373245ad35f5d4a22250ae3b8" target="_top" xlink:title="This is the default callback with weak attribute. The user can override and implement the default cal...">
<polygon fill="white" stroke="#666666" points="451.12,-96 321.88,-96 321.88,-76 451.12,-76 451.12,-96"/>
<text text-anchor="middle" x="386.5" y="-82.5" font-family="Helvetica,sans-Serif" font-size="10.00">CAN1_TxAttemptCallback</text>
</a>
</g>
</g>
<!-- Node3&#45;&gt;Node16 -->
<g id="edge15_Node000003_Node000016" class="edge">
<title>Node3&#45;&gt;Node16</title>
<g id="a_edge15_Node000003_Node000016"><a xlink:title=" ">
<path fill="none" stroke="#63b8ff" d="M254.22,-295.59C258.29,-293.25 262.03,-290.42 265.25,-287 321.76,-226.96 243.72,-164.07 301.25,-105 304.34,-101.83 307.84,-99.13 311.61,-96.85"/>
<polygon fill="#63b8ff" stroke="#63b8ff" points="313.05,-99.55 320.47,-91.99 309.95,-93.27 313.05,-99.55"/>
</a>
</g>
</g>
<!-- Node17 -->
<g id="Node000017" class="node">
<title>Node17</title>
<g id="a_Node000017"><a xlink:href="a00399.html#gaf093799d78b962becbf6810614899884" target="_top" xlink:title="This function can be used to override default callback and to define custom callback for CAN1_TxAttem...">
<polygon fill="white" stroke="#666666" points="469.12,-58 303.88,-58 303.88,-38 469.12,-38 469.12,-58"/>
<text text-anchor="middle" x="386.5" y="-44.5" font-family="Helvetica,sans-Serif" font-size="10.00">CAN1_TxAttemptCallbackRegister</text>
</a>
</g>
</g>
<!-- Node3&#45;&gt;Node17 -->
<g id="edge16_Node000003_Node000017" class="edge">
<title>Node3&#45;&gt;Node17</title>
<g id="a_edge16_Node000003_Node000017"><a xlink:title=" ">
<path fill="none" stroke="#63b8ff" d="M254.68,-295.51C258.59,-293.18 262.18,-290.37 265.25,-287 331.95,-213.74 233.31,-139.12 301.25,-67 301.95,-66.26 302.67,-65.55 303.41,-64.86"/>
<polygon fill="#63b8ff" stroke="#63b8ff" points="305.14,-67.19 311.04,-58.39 300.94,-61.58 305.14,-67.19"/>
</a>
</g>
</g>
<!-- Node19 -->
<g id="Node000019" class="node">
<title>Node19</title>
<g id="a_Node000019"><a xlink:href="a00399.html#gaedd6e334545a38cd71fe86ff4f9e78c3" target="_top" xlink:title="Get the CAN1 operation mode.">
<polygon fill="white" stroke="#666666" points="450.75,-20 322.25,-20 322.25,0 450.75,0 450.75,-20"/>
<text text-anchor="middle" x="386.5" y="-6.5" font-family="Helvetica,sans-Serif" font-size="10.00">CAN1_OperationModeGet</text>
</a>
</g>
</g>
<!-- Node18&#45;&gt;Node19 -->
<g id="edge18_Node000018_Node000019" class="edge">
<title>Node18&#45;&gt;Node19</title>
<g id="a_edge18_Node000018_Node000019"><a xlink:title=" ">
<path fill="none" stroke="#63b8ff" d="M254.68,-257.51C258.59,-255.18 262.18,-252.37 265.25,-249 331.95,-175.74 233.31,-101.12 301.25,-29 304.49,-25.56 308.21,-22.68 312.24,-20.28"/>
<polygon fill="#63b8ff" stroke="#63b8ff" points="313.65,-22.99 321.12,-15.48 310.6,-16.7 313.65,-22.99"/>
</a>
</g>
</g>
</g>
</svg>
