<?xml version="1.0" encoding="UTF-8" standalone="no"?>
<!DOCTYPE svg PUBLIC "-//W3C//DTD SVG 1.1//EN"
 "http://www.w3.org/Graphics/SVG/1.1/DTD/svg11.dtd">
<!-- Generated by graphviz version 8.1.0 (20230707.0739)
 -->
<!-- Title: CAN1_TxAttemptCallback Pages: 1 -->
<svg width="570pt" height="28pt"
 viewBox="0.00 0.00 570.00 28.00" xmlns="http://www.w3.org/2000/svg" xmlns:xlink="http://www.w3.org/1999/xlink">
<g id="graph0" class="graph" transform="scale(1 1) rotate(0) translate(4 24)">
<title>CAN1_TxAttemptCallback</title>
<!-- Node1 -->
<g id="Node000001" class="node">
<title>Node1</title>
<g id="a_Node000001"><a xlink:title="This is the default callback with weak attribute. The user can override and implement the default cal...">
<polygon fill="#999999" stroke="#666666" points="562,-20 432.75,-20 432.75,0 562,0 562,-20"/>
<text text-anchor="middle" x="497.38" y="-6.5" font-family="Helvetica,sans-Serif" font-size="10.00">CAN1_TxAttemptCallback</text>
</a>
</g>
</g>
<!-- Node2 -->
<g id="Node000002" class="node">
<title>Node2</title>
<g id="a_Node000002"><a xlink:href="a00399.html#gaa87a20920f9eeb971cc0fb144ab9f9ee" target="_top" xlink:title="This function enables the CAN1 error notification interrupt.">
<polygon fill="white" stroke="#666666" points="396.75,-20 251,-20 251,0 396.75,0 396.75,-20"/>
<text text-anchor="middle" x="323.88" y="-6.5" font-family="Helvetica,sans-Serif" font-size="10.00">CAN1_ErrorNotificationEnable</text>
</a>
</g>
</g>
<!-- Node1&#45;&gt;Node2 -->
<g id="edge1_Node000001_Node000002" class="edge">
<title>Node1&#45;&gt;Node2</title>
<g id="a_edge1_Node000001_Node000002"><a xlink:title=" ">
<path fill="none" stroke="#63b8ff" d="M421.57,-10C413.47,-10 405.23,-10 397.16,-10"/>
<polygon fill="#63b8ff" stroke="#63b8ff" points="421.51,-13.5 431.51,-10 421.51,-6.5 421.51,-13.5"/>
</a>
</g>
</g>
<!-- Node3 -->
<g id="Node000003" class="node">
<title>Node3</title>
<g id="a_Node000003"><a xlink:href="a00399.html#gadd8850a15e40f5316f9e614fd70ec956" target="_top" xlink:title="Initializes CAN1 module.">
<polygon fill="white" stroke="#666666" points="215,-20 133,-20 133,0 215,0 215,-20"/>
<text text-anchor="middle" x="174" y="-6.5" font-family="Helvetica,sans-Serif" font-size="10.00">CAN1_Initialize</text>
</a>
</g>
</g>
<!-- Node2&#45;&gt;Node3 -->
<g id="edge2_Node000002_Node000003" class="edge">
<title>Node2&#45;&gt;Node3</title>
<g id="a_edge2_Node000002_Node000003"><a xlink:title=" ">
<path fill="none" stroke="#63b8ff" d="M239.85,-10C231.35,-10 223.01,-10 215.29,-10"/>
<polygon fill="#63b8ff" stroke="#63b8ff" points="239.67,-13.5 249.67,-10 239.67,-6.5 239.67,-13.5"/>
</a>
</g>
</g>
<!-- Node4 -->
<g id="Node000004" class="node">
<title>Node4</title>
<g id="a_Node000004"><a xlink:href="a00406.html#ga5e8391114a0cf91ac20002be25e3d352" target="_top" xlink:title="Initializes the System module.">
<polygon fill="white" stroke="#666666" points="97,-20 0,-20 0,0 97,0 97,-20"/>
<text text-anchor="middle" x="48.5" y="-6.5" font-family="Helvetica,sans-Serif" font-size="10.00">SYSTEM_Initialize</text>
</a>
</g>
</g>
<!-- Node3&#45;&gt;Node4 -->
<g id="edge3_Node000003_Node000004" class="edge">
<title>Node3&#45;&gt;Node4</title>
<g id="a_edge3_Node000003_Node000004"><a xlink:title=" ">
<path fill="none" stroke="#63b8ff" d="M121.75,-10C113.67,-10 105.34,-10 97.34,-10"/>
<polygon fill="#63b8ff" stroke="#63b8ff" points="121.56,-13.5 131.56,-10 121.56,-6.5 121.56,-13.5"/>
</a>
</g>
</g>
</g>
</svg>
