<?xml version="1.0" encoding="UTF-8" standalone="no"?>
<!DOCTYPE svg PUBLIC "-//W3C//DTD SVG 1.1//EN"
 "http://www.w3.org/Graphics/SVG/1.1/DTD/svg11.dtd">
<!-- Generated by graphviz version 2.44.1 (20200629.0846)
 -->
<!-- Title: CCM_PHx Pages: 1 -->
<svg width="240pt" height="138pt"
 viewBox="0.00 0.00 240.00 138.00" xmlns="http://www.w3.org/2000/svg" xmlns:xlink="http://www.w3.org/1999/xlink">

<svg id="main" version="1.1" xmlns="http://www.w3.org/2000/svg" xmlns:xlink="http://www.w3.org/1999/xlink" xml:space="preserve">

<style type="text/css"><![CDATA[
.node, .edge {opacity: 0.7;}
.node.selected, .edge.selected {opacity: 1;}
.edge:hover path { stroke: red; }
.edge:hover polygon { stroke: red; fill: red; }
]]></style>
<script type="application/ecmascript" xlink:href="svg.min.js"/>
<svg id="graph" class="graph">
<g id="graph0" class="graph" transform="scale(1 1) rotate(0) translate(4 134)">
<title>CCM_PHx</title>
<!-- Node1 -->
<g id="Node000001" class="node">
<title>Node1</title>
<g id="a_Node000001"><a xlink:title=" ">
<polygon fill="#999999" stroke="#666666" points="62,-74 0,-74 0,-55 62,-55 62,-74"/>
<text text-anchor="middle" x="31" y="-62" font-family="Helvetica,sans-Serif" font-size="10.00">CCM_PHx</text>
</a>
</g>
</g>
<!-- Node2 -->
<g id="Node000002" class="node">
<title>Node2</title>
<g id="a_Node000002"><a xlink:href="a00407.html#ga957b002605bfb2239a26f174808b2ad8" target="_top" xlink:title="This inline function disables PWM override on PWMH output for specific PWM generator selected by the ...">
<polygon fill="white" stroke="#666666" points="232,-130 98,-130 98,-111 232,-111 232,-130"/>
<text text-anchor="middle" x="165" y="-118" font-family="Helvetica,sans-Serif" font-size="10.00">PWM_OverrideHighDisable</text>
</a>
</g>
</g>
<!-- Node1&#45;&gt;Node2 -->
<g id="edge1_Node000001_Node000002" class="edge">
<title>Node1&#45;&gt;Node2</title>
<g id="a_edge1_Node000001_Node000002"><a xlink:title=" ">
<path fill="none" stroke="#63b8ff" d="M46.13,-74.06C59.14,-82.51 79.2,-94.68 98,-102.5 102.74,-104.47 107.77,-106.3 112.85,-107.96"/>
<polygon fill="#63b8ff" stroke="#63b8ff" points="112.02,-111.37 122.61,-110.96 114.08,-104.68 112.02,-111.37"/>
</a>
</g>
</g>
<!-- Node3 -->
<g id="Node000003" class="node">
<title>Node3</title>
<g id="a_Node000003"><a xlink:href="a00407.html#ga531b59d8823e3ebda2da60f48582bcf3" target="_top" xlink:title="This inline function enables PWM override on PWMH output for specific PWM generator selected by the a...">
<polygon fill="white" stroke="#666666" points="230.5,-93 99.5,-93 99.5,-74 230.5,-74 230.5,-93"/>
<text text-anchor="middle" x="165" y="-81" font-family="Helvetica,sans-Serif" font-size="10.00">PWM_OverrideHighEnable</text>
</a>
</g>
</g>
<!-- Node1&#45;&gt;Node3 -->
<g id="edge2_Node000001_Node000003" class="edge">
<title>Node1&#45;&gt;Node3</title>
<g id="a_edge2_Node000001_Node000003"><a xlink:title=" ">
<path fill="none" stroke="#63b8ff" d="M62.28,-68.86C70.53,-70.05 79.84,-71.39 89.4,-72.76"/>
<polygon fill="#63b8ff" stroke="#63b8ff" points="89.02,-76.24 99.42,-74.2 90.02,-69.31 89.02,-76.24"/>
</a>
</g>
</g>
<!-- Node4 -->
<g id="Node000004" class="node">
<title>Node4</title>
<g id="a_Node000004"><a xlink:href="a00407.html#gabbedef830c43428e96c7d5125662a8a6" target="_top" xlink:title="This inline function disables PWM override on PWML output for specific PWM generator selected by the ...">
<polygon fill="white" stroke="#666666" points="230.5,-56 99.5,-56 99.5,-37 230.5,-37 230.5,-56"/>
<text text-anchor="middle" x="165" y="-44" font-family="Helvetica,sans-Serif" font-size="10.00">PWM_OverrideLowDisable</text>
</a>
</g>
</g>
<!-- Node1&#45;&gt;Node4 -->
<g id="edge3_Node000001_Node000004" class="edge">
<title>Node1&#45;&gt;Node4</title>
<g id="a_edge3_Node000001_Node000004"><a xlink:title=" ">
<path fill="none" stroke="#63b8ff" d="M62.28,-60.37C70.53,-59.25 79.84,-57.98 89.4,-56.67"/>
<polygon fill="#63b8ff" stroke="#63b8ff" points="89.98,-60.13 99.42,-55.31 89.03,-53.19 89.98,-60.13"/>
</a>
</g>
</g>
<!-- Node5 -->
<g id="Node000005" class="node">
<title>Node5</title>
<g id="a_Node000005"><a xlink:href="a00407.html#ga2548ca8feda75ba6ab784280679da6ae" target="_top" xlink:title="This inline function enables PWM override on PWML output for specific PWM generator selected by the a...">
<polygon fill="white" stroke="#666666" points="229.5,-19 100.5,-19 100.5,0 229.5,0 229.5,-19"/>
<text text-anchor="middle" x="165" y="-7" font-family="Helvetica,sans-Serif" font-size="10.00">PWM_OverrideLowEnable</text>
</a>
</g>
</g>
<!-- Node1&#45;&gt;Node5 -->
<g id="edge4_Node000001_Node000005" class="edge">
<title>Node1&#45;&gt;Node5</title>
<g id="a_edge4_Node000001_Node000005"><a xlink:title=" ">
<path fill="none" stroke="#63b8ff" d="M47.26,-54.92C60.34,-47.02 79.89,-35.94 98,-28.5 103.58,-26.21 109.54,-24.08 115.5,-22.14"/>
<polygon fill="#63b8ff" stroke="#63b8ff" points="116.95,-25.35 125.47,-19.05 114.88,-18.66 116.95,-25.35"/>
</a>
</g>
</g>
</g>
</svg>
</svg>

<style type='text/css'>
<![CDATA[
[data-mouse-over-selected='false'] { opacity: 0.7; }
[data-mouse-over-selected='true']  { opacity: 1.0; }
]]>
</style>
<script type="application/ecmascript"><![CDATA[
document.addEventListener('DOMContentLoaded', (event) => {
  highlightEdges();
  highlightAdjacentNodes();
});
]]></script>
</svg>
