<?xml version="1.0" encoding="UTF-8" standalone="no"?>
<!DOCTYPE svg PUBLIC "-//W3C//DTD SVG 1.1//EN"
 "http://www.w3.org/Graphics/SVG/1.1/DTD/svg11.dtd">
<!-- Generated by graphviz version 8.1.0 (20230707.0739)
 -->
<!-- Title: Application_handler_PH2 Pages: 1 -->
<svg width="613pt" height="394pt"
 viewBox="0.00 0.00 612.75 394.00" xmlns="http://www.w3.org/2000/svg" xmlns:xlink="http://www.w3.org/1999/xlink">
<g id="graph0" class="graph" transform="scale(1 1) rotate(0) translate(4 390)">
<title>Application_handler_PH2</title>
<!-- Node1 -->
<g id="Node000001" class="node">
<title>Node1</title>
<g id="a_Node000001"><a xlink:title=" ">
<polygon fill="#999999" stroke="#666666" points="124.75,-203 0,-203 0,-183 124.75,-183 124.75,-203"/>
<text text-anchor="middle" x="62.38" y="-189.5" font-family="Helvetica,sans-Serif" font-size="10.00">Application_handler_PH2</text>
</a>
</g>
</g>
<!-- Node2 -->
<g id="Node000002" class="node">
<title>Node2</title>
<g id="a_Node000002"><a xlink:href="a00365.html#a647fd6dacbfbcebe49cc34111a01493b" target="_top" xlink:title=" ">
<polygon fill="white" stroke="#666666" points="233.75,-203 160.75,-203 160.75,-183 233.75,-183 233.75,-203"/>
<text text-anchor="middle" x="197.25" y="-189.5" font-family="Helvetica,sans-Serif" font-size="10.00">Handler_PHx</text>
</a>
</g>
</g>
<!-- Node1&#45;&gt;Node2 -->
<g id="edge1_Node000001_Node000002" class="edge">
<title>Node1&#45;&gt;Node2</title>
<g id="a_edge1_Node000001_Node000002"><a xlink:title=" ">
<path fill="none" stroke="#63b8ff" d="M125.14,-193C133.34,-193 141.64,-193 149.53,-193"/>
<polygon fill="#63b8ff" stroke="#63b8ff" points="149.35,-196.5 159.35,-193 149.35,-189.5 149.35,-196.5"/>
</a>
</g>
</g>
<!-- Node3 -->
<g id="Node000003" class="node">
<title>Node3</title>
<g id="a_Node000003"><a xlink:href="a00365.html#af6c4a58221bd490ef4d2084547601a10" target="_top" xlink:title=" ">
<polygon fill="white" stroke="#666666" points="430.12,-386 275.38,-386 275.38,-366 430.12,-366 430.12,-386"/>
<text text-anchor="middle" x="352.75" y="-372.5" font-family="Helvetica,sans-Serif" font-size="10.00">Adaptive_Currentcontroller_Gain</text>
</a>
</g>
</g>
<!-- Node2&#45;&gt;Node3 -->
<g id="edge2_Node000002_Node000003" class="edge">
<title>Node2&#45;&gt;Node3</title>
<g id="a_edge2_Node000002_Node000003"><a xlink:title=" ">
<path fill="none" stroke="#63b8ff" d="M199.55,-203.36C203.77,-232.45 219.84,-315.49 269.75,-357 271.18,-358.19 272.67,-359.31 274.21,-360.36"/>
<polygon fill="#63b8ff" stroke="#63b8ff" points="272.1,-363.75 282.52,-365.67 275.57,-357.67 272.1,-363.75"/>
</a>
</g>
</g>
<!-- Node4 -->
<g id="Node000004" class="node">
<title>Node4</title>
<g id="a_Node000004"><a xlink:href="a00365.html#a51a90512029dd0d15f013ea8548c5e7c" target="_top" xlink:title=" ">
<polygon fill="white" stroke="#666666" points="396.38,-348 309.12,-348 309.12,-328 396.38,-328 396.38,-348"/>
<text text-anchor="middle" x="352.75" y="-334.5" font-family="Helvetica,sans-Serif" font-size="10.00">BurstMode_PHx</text>
</a>
</g>
</g>
<!-- Node2&#45;&gt;Node4 -->
<g id="edge3_Node000002_Node000004" class="edge">
<title>Node2&#45;&gt;Node4</title>
<g id="a_edge3_Node000002_Node000004"><a xlink:title=" ">
<path fill="none" stroke="#63b8ff" d="M201.02,-203.4C208.06,-227.73 229.03,-288.61 269.75,-319 278.09,-325.23 288.15,-329.46 298.31,-332.33"/>
<polygon fill="#63b8ff" stroke="#63b8ff" points="297.33,-335.93 307.87,-334.84 298.95,-329.12 297.33,-335.93"/>
</a>
</g>
</g>
<!-- Node7 -->
<g id="Node000007" class="node">
<title>Node7</title>
<g id="a_Node000007"><a xlink:href="a00365.html#a69847930c99b34bceb7165143cd28b92" target="_top" xlink:title=" ">
<polygon fill="white" stroke="#666666" points="383.62,-310 321.88,-310 321.88,-290 383.62,-290 383.62,-310"/>
<text text-anchor="middle" x="352.75" y="-296.5" font-family="Helvetica,sans-Serif" font-size="10.00">CCM_PHx</text>
</a>
</g>
</g>
<!-- Node2&#45;&gt;Node7 -->
<g id="edge6_Node000002_Node000007" class="edge">
<title>Node2&#45;&gt;Node7</title>
<g id="a_edge6_Node000002_Node000007"><a xlink:title=" ">
<path fill="none" stroke="#63b8ff" d="M203.57,-203.29C213.75,-221.9 237.86,-261.09 269.75,-281 281.98,-288.63 296.95,-293.2 310.75,-295.94"/>
<polygon fill="#63b8ff" stroke="#63b8ff" points="310.04,-299.54 320.48,-297.77 311.21,-292.64 310.04,-299.54"/>
</a>
</g>
</g>
<!-- Node10 -->
<g id="Node000010" class="node">
<title>Node10</title>
<g id="a_Node000010"><a xlink:href="a00365.html#a02e735cc5f9ec0075b4b0157326fd3db" target="_top" xlink:title=" ">
<polygon fill="white" stroke="#666666" points="423.38,-96 282.12,-96 282.12,-76 423.38,-76 423.38,-96"/>
<text text-anchor="middle" x="352.75" y="-82.5" font-family="Helvetica,sans-Serif" font-size="10.00">DutyCycleFeedForward_PHx</text>
</a>
</g>
</g>
<!-- Node2&#45;&gt;Node10 -->
<g id="edge11_Node000002_Node000010" class="edge">
<title>Node2&#45;&gt;Node10</title>
<g id="a_edge11_Node000002_Node000010"><a xlink:title=" ">
<path fill="none" stroke="#63b8ff" d="M204.34,-182.64C215.22,-165.05 239.69,-129.36 269.75,-110 275.78,-106.11 282.46,-102.84 289.33,-100.09"/>
<polygon fill="#63b8ff" stroke="#63b8ff" points="290.27,-103.11 298.48,-96.41 287.88,-96.53 290.27,-103.11"/>
</a>
</g>
</g>
<!-- Node11 -->
<g id="Node000011" class="node">
<title>Node11</title>
<g id="a_Node000011"><a xlink:href="a00401.html#ga37968a783e44cd80643478d2b559dbf4" target="_top" xlink:title="This inline function sets the PWM generator specific duty cycle register.">
<polygon fill="white" stroke="#666666" points="591.25,-158 485.25,-158 485.25,-138 591.25,-138 591.25,-158"/>
<text text-anchor="middle" x="538.25" y="-144.5" font-family="Helvetica,sans-Serif" font-size="10.00">PWM_DutyCycleSet</text>
</a>
</g>
</g>
<!-- Node2&#45;&gt;Node11 -->
<g id="edge12_Node000002_Node000011" class="edge">
<title>Node2&#45;&gt;Node11</title>
<g id="a_edge12_Node000002_Node000011"><a xlink:title=" ">
<path fill="none" stroke="#63b8ff" d="M208.27,-182.91C221.17,-170.71 244.9,-150.83 269.75,-143 337.56,-121.64 419.89,-127.61 475.16,-135.86"/>
<polygon fill="#63b8ff" stroke="#63b8ff" points="474.41,-139.45 484.83,-137.54 475.5,-132.53 474.41,-139.45"/>
</a>
</g>
</g>
<!-- Node12 -->
<g id="Node000012" class="node">
<title>Node12</title>
<g id="a_Node000012"><a xlink:href="a00374.html#ac4c8852561395f2969c08ff062325e03" target="_top" xlink:title=" ">
<polygon fill="white" stroke="#666666" points="424.88,-58 280.62,-58 280.62,-38 424.88,-38 424.88,-58"/>
<text text-anchor="middle" x="352.75" y="-44.5" font-family="Helvetica,sans-Serif" font-size="10.00">SMPS_Controller2P2ZUpdate</text>
</a>
</g>
</g>
<!-- Node2&#45;&gt;Node12 -->
<g id="edge13_Node000002_Node000012" class="edge">
<title>Node2&#45;&gt;Node12</title>
<g id="a_edge13_Node000002_Node000012"><a xlink:title=" ">
<path fill="none" stroke="#63b8ff" d="M201.02,-182.6C208.06,-158.27 229.03,-97.39 269.75,-67 271.46,-65.72 273.25,-64.53 275.09,-63.41"/>
<polygon fill="#63b8ff" stroke="#63b8ff" points="276.43,-66.15 283.72,-58.46 273.23,-59.92 276.43,-66.15"/>
</a>
</g>
</g>
<!-- Node13 -->
<g id="Node000013" class="node">
<title>Node13</title>
<g id="a_Node000013"><a xlink:href="a00365.html#ad3476b7cd98e6a22a65e1d89b7a59ea5" target="_top" xlink:title=" ">
<polygon fill="white" stroke="#666666" points="407.25,-234 298.25,-234 298.25,-202 407.25,-202 407.25,-234"/>
<text text-anchor="start" x="306.25" y="-220.5" font-family="Helvetica,sans-Serif" font-size="10.00">SoftstartAfterZC_PHx</text>
<text text-anchor="middle" x="352.75" y="-208.5" font-family="Helvetica,sans-Serif" font-size="10.00">_GTIMode</text>
</a>
</g>
</g>
<!-- Node2&#45;&gt;Node13 -->
<g id="edge14_Node000002_Node000013" class="edge">
<title>Node2&#45;&gt;Node13</title>
<g id="a_edge14_Node000002_Node000013"><a xlink:title=" ">
<path fill="none" stroke="#63b8ff" d="M234.24,-198.86C250.02,-201.43 269.03,-204.53 287.13,-207.47"/>
<polygon fill="#63b8ff" stroke="#63b8ff" points="286.5,-211.08 296.94,-209.24 287.63,-204.17 286.5,-211.08"/>
</a>
</g>
</g>
<!-- Node14 -->
<g id="Node000014" class="node">
<title>Node14</title>
<g id="a_Node000014"><a xlink:href="a00365.html#a3e7091905b384bca668f6f12a50834f4" target="_top" xlink:title=" ">
<polygon fill="white" stroke="#666666" points="407.25,-184 298.25,-184 298.25,-152 407.25,-152 407.25,-184"/>
<text text-anchor="start" x="306.25" y="-170.5" font-family="Helvetica,sans-Serif" font-size="10.00">SoftstartAfterZC_PHx</text>
<text text-anchor="middle" x="352.75" y="-158.5" font-family="Helvetica,sans-Serif" font-size="10.00">_PFCMode</text>
</a>
</g>
</g>
<!-- Node2&#45;&gt;Node14 -->
<g id="edge20_Node000002_Node000014" class="edge">
<title>Node2&#45;&gt;Node14</title>
<g id="a_edge20_Node000002_Node000014"><a xlink:title=" ">
<path fill="none" stroke="#63b8ff" d="M234.24,-187.14C250.02,-184.57 269.03,-181.47 287.13,-178.53"/>
<polygon fill="#63b8ff" stroke="#63b8ff" points="287.63,-181.83 296.94,-176.76 286.5,-174.92 287.63,-181.83"/>
</a>
</g>
</g>
<!-- Node15 -->
<g id="Node000015" class="node">
<title>Node15</title>
<g id="a_Node000015"><a xlink:href="a00374.html#a4fd6e889896907ceaae34b73435d5627" target="_top" xlink:title=" ">
<polygon fill="white" stroke="#666666" points="435.75,-20 269.75,-20 269.75,0 435.75,0 435.75,-20"/>
<text text-anchor="middle" x="352.75" y="-6.5" font-family="Helvetica,sans-Serif" font-size="10.00">XFT_SMPS_Controller2P2ZUpdate</text>
</a>
</g>
</g>
<!-- Node2&#45;&gt;Node15 -->
<g id="edge26_Node000002_Node000015" class="edge">
<title>Node2&#45;&gt;Node15</title>
<g id="a_edge26_Node000002_Node000015"><a xlink:title=" ">
<path fill="none" stroke="#63b8ff" d="M199.55,-182.64C203.77,-153.55 219.84,-70.51 269.75,-29 271.18,-27.81 272.67,-26.69 274.21,-25.64"/>
<polygon fill="#63b8ff" stroke="#63b8ff" points="275.57,-28.33 282.52,-20.33 272.1,-22.25 275.57,-28.33"/>
</a>
</g>
</g>
<!-- Node16 -->
<g id="Node000016" class="node">
<title>Node16</title>
<g id="a_Node000016"><a xlink:href="a00365.html#a9d01eea56aae5f1437eb541a321277cc" target="_top" xlink:title=" ">
<polygon fill="white" stroke="#666666" points="394.88,-272 310.62,-272 310.62,-252 394.88,-252 394.88,-272"/>
<text text-anchor="middle" x="352.75" y="-258.5" font-family="Helvetica,sans-Serif" font-size="10.00">ZeroCross_PHx</text>
</a>
</g>
</g>
<!-- Node2&#45;&gt;Node16 -->
<g id="edge27_Node000002_Node000016" class="edge">
<title>Node2&#45;&gt;Node16</title>
<g id="a_edge27_Node000002_Node000016"><a xlink:title=" ">
<path fill="none" stroke="#63b8ff" d="M210.03,-203.4C223.54,-214.78 246.78,-232.77 269.75,-243 279.16,-247.19 289.61,-250.52 299.81,-253.13"/>
<polygon fill="#63b8ff" stroke="#63b8ff" points="298.76,-256.72 309.29,-255.61 300.37,-249.9 298.76,-256.72"/>
</a>
</g>
</g>
<!-- Node5 -->
<g id="Node000005" class="node">
<title>Node5</title>
<g id="a_Node000005"><a xlink:href="a00401.html#ga531b59d8823e3ebda2da60f48582bcf3" target="_top" xlink:title="This inline function enables PWM override on PWMH output for specific PWM generator selected by the a...">
<polygon fill="white" stroke="#666666" points="603.62,-272 472.88,-272 472.88,-252 603.62,-252 603.62,-272"/>
<text text-anchor="middle" x="538.25" y="-258.5" font-family="Helvetica,sans-Serif" font-size="10.00">PWM_OverrideHighEnable</text>
</a>
</g>
</g>
<!-- Node4&#45;&gt;Node5 -->
<g id="edge4_Node000004_Node000005" class="edge">
<title>Node4&#45;&gt;Node5</title>
<g id="a_edge4_Node000004_Node000005"><a xlink:title=" ">
<path fill="none" stroke="#63b8ff" d="M396.8,-332.91C409.91,-330.11 423.96,-325.75 435.75,-319 455.94,-307.44 451.88,-293.11 471.75,-281 474.36,-279.41 477.1,-277.95 479.93,-276.61"/>
<polygon fill="#63b8ff" stroke="#63b8ff" points="480.93,-279.57 488.8,-272.48 478.23,-273.11 480.93,-279.57"/>
</a>
</g>
</g>
<!-- Node6 -->
<g id="Node000006" class="node">
<title>Node6</title>
<g id="a_Node000006"><a xlink:href="a00401.html#ga2548ca8feda75ba6ab784280679da6ae" target="_top" xlink:title="This inline function enables PWM override on PWML output for specific PWM generator selected by the a...">
<polygon fill="white" stroke="#666666" points="602.5,-310 474,-310 474,-290 602.5,-290 602.5,-310"/>
<text text-anchor="middle" x="538.25" y="-296.5" font-family="Helvetica,sans-Serif" font-size="10.00">PWM_OverrideLowEnable</text>
</a>
</g>
</g>
<!-- Node4&#45;&gt;Node6 -->
<g id="edge5_Node000004_Node000006" class="edge">
<title>Node4&#45;&gt;Node6</title>
<g id="a_edge5_Node000004_Node000006"><a xlink:title=" ">
<path fill="none" stroke="#63b8ff" d="M396.77,-329.09C420.42,-324.19 450.15,-318.04 476.17,-312.65"/>
<polygon fill="#63b8ff" stroke="#63b8ff" points="476.6,-315.93 485.68,-310.47 475.18,-309.07 476.6,-315.93"/>
</a>
</g>
</g>
<!-- Node7&#45;&gt;Node5 -->
<g id="edge8_Node000007_Node000005" class="edge">
<title>Node7&#45;&gt;Node5</title>
<g id="a_edge8_Node000007_Node000005"><a xlink:title=" ">
<path fill="none" stroke="#63b8ff" d="M384.05,-293.73C409,-288.56 445.17,-281.07 476.1,-274.66"/>
<polygon fill="#63b8ff" stroke="#63b8ff" points="476.71,-277.9 485.8,-272.45 475.29,-271.05 476.71,-277.9"/>
</a>
</g>
</g>
<!-- Node7&#45;&gt;Node6 -->
<g id="edge10_Node000007_Node000006" class="edge">
<title>Node7&#45;&gt;Node6</title>
<g id="a_edge10_Node000007_Node000006"><a xlink:title=" ">
<path fill="none" stroke="#63b8ff" d="M384.05,-300C405.53,-300 435.32,-300 462.93,-300"/>
<polygon fill="#63b8ff" stroke="#63b8ff" points="462.78,-303.5 472.78,-300 462.78,-296.5 462.78,-303.5"/>
</a>
</g>
</g>
<!-- Node8 -->
<g id="Node000008" class="node">
<title>Node8</title>
<g id="a_Node000008"><a xlink:href="a00401.html#ga957b002605bfb2239a26f174808b2ad8" target="_top" xlink:title="This inline function disables PWM override on PWMH output for specific PWM generator selected by the ...">
<polygon fill="white" stroke="#666666" points="604.75,-196 471.75,-196 471.75,-176 604.75,-176 604.75,-196"/>
<text text-anchor="middle" x="538.25" y="-182.5" font-family="Helvetica,sans-Serif" font-size="10.00">PWM_OverrideHighDisable</text>
</a>
</g>
</g>
<!-- Node7&#45;&gt;Node8 -->
<g id="edge7_Node000007_Node000008" class="edge">
<title>Node7&#45;&gt;Node8</title>
<g id="a_edge7_Node000007_Node000008"><a xlink:title=" ">
<path fill="none" stroke="#63b8ff" d="M383.82,-299.3C400.68,-297.48 421.18,-292.73 435.75,-281 464.86,-257.56 443.29,-229.23 471.75,-205 473.14,-203.81 474.61,-202.7 476.13,-201.66"/>
<polygon fill="#63b8ff" stroke="#63b8ff" points="477.41,-204.39 484.38,-196.41 473.95,-198.3 477.41,-204.39"/>
</a>
</g>
</g>
<!-- Node9 -->
<g id="Node000009" class="node">
<title>Node9</title>
<g id="a_Node000009"><a xlink:href="a00401.html#gabbedef830c43428e96c7d5125662a8a6" target="_top" xlink:title="This inline function disables PWM override on PWML output for specific PWM generator selected by the ...">
<polygon fill="white" stroke="#666666" points="603.62,-234 472.88,-234 472.88,-214 603.62,-214 603.62,-234"/>
<text text-anchor="middle" x="538.25" y="-220.5" font-family="Helvetica,sans-Serif" font-size="10.00">PWM_OverrideLowDisable</text>
</a>
</g>
</g>
<!-- Node7&#45;&gt;Node9 -->
<g id="edge9_Node000007_Node000009" class="edge">
<title>Node7&#45;&gt;Node9</title>
<g id="a_edge9_Node000007_Node000009"><a xlink:title=" ">
<path fill="none" stroke="#63b8ff" d="M383.74,-297.3C399.98,-294.82 419.9,-290.08 435.75,-281 455.94,-269.44 451.88,-255.11 471.75,-243 474.36,-241.41 477.1,-239.95 479.93,-238.61"/>
<polygon fill="#63b8ff" stroke="#63b8ff" points="480.93,-241.57 488.8,-234.48 478.23,-235.11 480.93,-241.57"/>
</a>
</g>
</g>
<!-- Node13&#45;&gt;Node5 -->
<g id="edge17_Node000013_Node000005" class="edge">
<title>Node13&#45;&gt;Node5</title>
<g id="a_edge17_Node000013_Node000005"><a xlink:title=" ">
<path fill="none" stroke="#63b8ff" d="M407.32,-230.84C431.08,-236.54 459,-243.24 482.85,-248.96"/>
<polygon fill="#63b8ff" stroke="#63b8ff" points="481.96,-252.58 492.5,-251.51 483.59,-245.77 481.96,-252.58"/>
</a>
</g>
</g>
<!-- Node13&#45;&gt;Node6 -->
<g id="edge19_Node000013_Node000006" class="edge">
<title>Node13&#45;&gt;Node6</title>
<g id="a_edge19_Node000013_Node000006"><a xlink:title=" ">
<path fill="none" stroke="#63b8ff" d="M407.54,-230.03C417.32,-233.41 427.14,-237.67 435.75,-243 455.53,-255.24 451.88,-268.89 471.75,-281 474.36,-282.59 477.1,-284.05 479.93,-285.39"/>
<polygon fill="#63b8ff" stroke="#63b8ff" points="478.23,-288.89 488.8,-289.52 480.93,-282.43 478.23,-288.89"/>
</a>
</g>
</g>
<!-- Node13&#45;&gt;Node8 -->
<g id="edge16_Node000013_Node000008" class="edge">
<title>Node13&#45;&gt;Node8</title>
<g id="a_edge16_Node000013_Node000008"><a xlink:title=" ">
<path fill="none" stroke="#63b8ff" d="M407.32,-208.66C425.8,-205.44 446.79,-201.78 466.43,-198.35"/>
<polygon fill="#63b8ff" stroke="#63b8ff" points="466.92,-201.64 476.17,-196.48 465.72,-194.75 466.92,-201.64"/>
</a>
</g>
</g>
<!-- Node13&#45;&gt;Node9 -->
<g id="edge18_Node000013_Node000009" class="edge">
<title>Node13&#45;&gt;Node9</title>
<g id="a_edge18_Node000013_Node000009"><a xlink:title=" ">
<path fill="none" stroke="#63b8ff" d="M407.32,-219.75C424.31,-220.31 443.42,-220.93 461.65,-221.53"/>
<polygon fill="#63b8ff" stroke="#63b8ff" points="461.45,-225.06 471.56,-221.88 461.68,-218.06 461.45,-225.06"/>
</a>
</g>
</g>
<!-- Node13&#45;&gt;Node11 -->
<g id="edge15_Node000013_Node000011" class="edge">
<title>Node13&#45;&gt;Node11</title>
<g id="a_edge15_Node000013_Node000011"><a xlink:title=" ">
<path fill="none" stroke="#63b8ff" d="M407.67,-204.34C417.24,-201.14 426.95,-197.37 435.75,-193 453.43,-184.23 454.01,-175.65 471.75,-167 475.47,-165.18 479.4,-163.51 483.42,-161.97"/>
<polygon fill="#63b8ff" stroke="#63b8ff" points="484.21,-165.05 492.48,-158.42 481.88,-158.45 484.21,-165.05"/>
</a>
</g>
</g>
<!-- Node14&#45;&gt;Node5 -->
<g id="edge23_Node000014_Node000005" class="edge">
<title>Node14&#45;&gt;Node5</title>
<g id="a_edge23_Node000014_Node000005"><a xlink:title=" ">
<path fill="none" stroke="#63b8ff" d="M407.72,-178.96C417.59,-182.45 427.4,-187.02 435.75,-193 458.01,-208.94 449.38,-227.21 471.75,-243 473.72,-244.39 475.78,-245.67 477.92,-246.87"/>
<polygon fill="#63b8ff" stroke="#63b8ff" points="476.13,-250.37 486.67,-251.52 479.15,-244.05 476.13,-250.37"/>
</a>
</g>
</g>
<!-- Node14&#45;&gt;Node6 -->
<g id="edge25_Node000014_Node000006" class="edge">
<title>Node14&#45;&gt;Node6</title>
<g id="a_edge25_Node000014_Node000006"><a xlink:title=" ">
<path fill="none" stroke="#63b8ff" d="M407.67,-176.99C417.88,-180.64 427.83,-185.78 435.75,-193 466.98,-221.47 440.33,-252.74 471.75,-281 472.96,-282.09 474.23,-283.12 475.55,-284.08"/>
<polygon fill="#63b8ff" stroke="#63b8ff" points="473.48,-287.52 483.86,-289.66 477.08,-281.52 473.48,-287.52"/>
</a>
</g>
</g>
<!-- Node14&#45;&gt;Node8 -->
<g id="edge22_Node000014_Node000008" class="edge">
<title>Node14&#45;&gt;Node8</title>
<g id="a_edge22_Node000014_Node000008"><a xlink:title=" ">
<path fill="none" stroke="#63b8ff" d="M407.32,-173.25C424.04,-174.9 442.83,-176.74 460.8,-178.5"/>
<polygon fill="#63b8ff" stroke="#63b8ff" points="460.27,-182.06 470.57,-179.56 460.96,-175.1 460.27,-182.06"/>
</a>
</g>
</g>
<!-- Node14&#45;&gt;Node9 -->
<g id="edge24_Node000014_Node000009" class="edge">
<title>Node14&#45;&gt;Node9</title>
<g id="a_edge24_Node000014_Node000009"><a xlink:title=" ">
<path fill="none" stroke="#63b8ff" d="M407.62,-184.21C417.01,-187.09 426.68,-190.1 435.75,-193 451.82,-198.13 455.65,-199.98 471.75,-205 477.62,-206.83 483.79,-208.7 489.92,-210.51"/>
<polygon fill="#63b8ff" stroke="#63b8ff" points="488.53,-214.04 499.11,-213.5 490.5,-207.33 488.53,-214.04"/>
</a>
</g>
</g>
<!-- Node14&#45;&gt;Node11 -->
<g id="edge21_Node000014_Node000011" class="edge">
<title>Node14&#45;&gt;Node11</title>
<g id="a_edge21_Node000014_Node000011"><a xlink:title=" ">
<path fill="none" stroke="#63b8ff" d="M407.32,-162.16C428.22,-159.88 452.35,-157.25 474.09,-154.88"/>
<polygon fill="#63b8ff" stroke="#63b8ff" points="474.32,-158.27 483.88,-153.71 473.56,-151.31 474.32,-158.27"/>
</a>
</g>
</g>
<!-- Node16&#45;&gt;Node5 -->
<g id="edge29_Node000016_Node000005" class="edge">
<title>Node16&#45;&gt;Node5</title>
<g id="a_edge29_Node000016_Node000005"><a xlink:title=" ">
<path fill="none" stroke="#63b8ff" d="M394.93,-262C414.63,-262 438.86,-262 461.71,-262"/>
<polygon fill="#63b8ff" stroke="#63b8ff" points="461.43,-265.5 471.43,-262 461.43,-258.5 461.43,-265.5"/>
</a>
</g>
</g>
<!-- Node16&#45;&gt;Node6 -->
<g id="edge30_Node000016_Node000006" class="edge">
<title>Node16&#45;&gt;Node6</title>
<g id="a_edge30_Node000016_Node000006"><a xlink:title=" ">
<path fill="none" stroke="#63b8ff" d="M394.93,-270.53C418.8,-275.47 449.31,-281.79 475.95,-287.31"/>
<polygon fill="#63b8ff" stroke="#63b8ff" points="475.21,-290.93 485.72,-289.54 476.63,-284.08 475.21,-290.93"/>
</a>
</g>
</g>
<!-- Node16&#45;&gt;Node11 -->
<g id="edge28_Node000016_Node000011" class="edge">
<title>Node16&#45;&gt;Node11</title>
<g id="a_edge28_Node000016_Node000011"><a xlink:title=" ">
<path fill="none" stroke="#63b8ff" d="M395.31,-259.64C409.37,-257.07 424.37,-252.17 435.75,-243 464.86,-219.56 443.29,-191.23 471.75,-167 473.14,-165.81 474.61,-164.7 476.13,-163.66"/>
<polygon fill="#63b8ff" stroke="#63b8ff" points="477.41,-166.39 484.38,-158.41 473.95,-160.3 477.41,-166.39"/>
</a>
</g>
</g>
</g>
</svg>
