<?xml version="1.0" encoding="UTF-8" standalone="no"?>
<!DOCTYPE svg PUBLIC "-//W3C//DTD SVG 1.1//EN"
 "http://www.w3.org/Graphics/SVG/1.1/DTD/svg11.dtd">
<!-- Generated by graphviz version 8.1.0 (20230707.0739)
 -->
<!-- Title: SMPS_Controller2P2ZInitialize Pages: 1 -->
<svg width="481pt" height="90pt"
 viewBox="0.00 0.00 481.25 90.00" xmlns="http://www.w3.org/2000/svg" xmlns:xlink="http://www.w3.org/1999/xlink">
<g id="graph0" class="graph" transform="scale(1 1) rotate(0) translate(4 86)">
<title>SMPS_Controller2P2ZInitialize</title>
<!-- Node1 -->
<g id="Node000001" class="node">
<title>Node1</title>
<g id="a_Node000001"><a xlink:title=" ">
<polygon fill="#999999" stroke="#666666" points="473.25,-51 324.5,-51 324.5,-31 473.25,-31 473.25,-51"/>
<text text-anchor="middle" x="398.88" y="-37.5" font-family="Helvetica,sans-Serif" font-size="10.00">SMPS_Controller2P2ZInitialize</text>
</a>
</g>
</g>
<!-- Node2 -->
<g id="Node000002" class="node">
<title>Node2</title>
<g id="a_Node000002"><a xlink:href="a00353.html#a46079d4255b0d0a571e9246e2fd8dd6f" target="_top" xlink:title=" ">
<polygon fill="white" stroke="#666666" points="288.5,-82 169,-82 169,-50 288.5,-50 288.5,-82"/>
<text text-anchor="start" x="177" y="-68.5" font-family="Helvetica,sans-Serif" font-size="10.00">CurrentController</text>
<text text-anchor="middle" x="228.75" y="-56.5" font-family="Helvetica,sans-Serif" font-size="10.00">_PwrCtrl_TPBLPFC_Init</text>
</a>
</g>
</g>
<!-- Node1&#45;&gt;Node2 -->
<g id="edge1_Node000001_Node000002" class="edge">
<title>Node1&#45;&gt;Node2</title>
<g id="a_edge1_Node000001_Node000002"><a xlink:title=" ">
<path fill="none" stroke="#63b8ff" d="M316.92,-53.04C307.46,-54.44 297.95,-55.86 288.87,-57.21"/>
<polygon fill="#63b8ff" stroke="#63b8ff" points="317.17,-56.39 326.55,-51.46 316.14,-49.47 317.17,-56.39"/>
</a>
</g>
</g>
<!-- Node4 -->
<g id="Node000004" class="node">
<title>Node4</title>
<g id="a_Node000004"><a xlink:href="a00353.html#a03f01aedf81f2d089607e8c412fce3bb" target="_top" xlink:title=" ">
<polygon fill="white" stroke="#666666" points="288.5,-32 169,-32 169,0 288.5,0 288.5,-32"/>
<text text-anchor="start" x="177" y="-18.5" font-family="Helvetica,sans-Serif" font-size="10.00">VoltageController</text>
<text text-anchor="middle" x="228.75" y="-6.5" font-family="Helvetica,sans-Serif" font-size="10.00">_PwrCtrl_TPBLPFC_Init</text>
</a>
</g>
</g>
<!-- Node1&#45;&gt;Node4 -->
<g id="edge3_Node000001_Node000004" class="edge">
<title>Node1&#45;&gt;Node4</title>
<g id="a_edge3_Node000001_Node000004"><a xlink:title=" ">
<path fill="none" stroke="#63b8ff" d="M316.92,-28.96C307.46,-27.56 297.95,-26.14 288.87,-24.79"/>
<polygon fill="#63b8ff" stroke="#63b8ff" points="316.14,-32.53 326.55,-30.54 317.17,-25.61 316.14,-32.53"/>
</a>
</g>
</g>
<!-- Node3 -->
<g id="Node000003" class="node">
<title>Node3</title>
<g id="a_Node000003"><a xlink:href="a00359.html#abecfb276359657d445e0f49eaa51166d" target="_top" xlink:title=" ">
<polygon fill="white" stroke="#666666" points="133,-51 0,-51 0,-31 133,-31 133,-51"/>
<text text-anchor="middle" x="66.5" y="-37.5" font-family="Helvetica,sans-Serif" font-size="10.00">Drv_PwrCtrl_TPBLPFC_Init</text>
</a>
</g>
</g>
<!-- Node2&#45;&gt;Node3 -->
<g id="edge2_Node000002_Node000003" class="edge">
<title>Node2&#45;&gt;Node3</title>
<g id="a_edge2_Node000002_Node000003"><a xlink:title=" ">
<path fill="none" stroke="#63b8ff" d="M157.69,-55.07C149.65,-53.82 141.47,-52.54 133.49,-51.29"/>
<polygon fill="#63b8ff" stroke="#63b8ff" points="157.11,-58.68 167.53,-56.76 158.19,-51.76 157.11,-58.68"/>
</a>
</g>
</g>
<!-- Node4&#45;&gt;Node3 -->
<g id="edge4_Node000004_Node000003" class="edge">
<title>Node4&#45;&gt;Node3</title>
<g id="a_edge4_Node000004_Node000003"><a xlink:title=" ">
<path fill="none" stroke="#63b8ff" d="M157.69,-26.93C149.65,-28.18 141.47,-29.46 133.49,-30.71"/>
<polygon fill="#63b8ff" stroke="#63b8ff" points="158.19,-30.24 167.53,-25.24 157.11,-23.32 158.19,-30.24"/>
</a>
</g>
</g>
</g>
</svg>
