<?xml version="1.0" encoding="UTF-8" standalone="no"?>
<!DOCTYPE svg PUBLIC "-//W3C//DTD SVG 1.1//EN"
 "http://www.w3.org/Graphics/SVG/1.1/DTD/svg11.dtd">
<!-- Generated by graphviz version 8.1.0 (20230707.0739)
 -->
<!-- Title: D:/Firmware/MCU16ASMPS_TestEnvironment/_deployment/dspic33ch&#45;power&#45;totem&#45;pole&#45;demonstration&#45;application&#45;single&#45;phase/dspic33ch_totem_pole_single_phase_secondary_IL.X/sources/driver/power_controller/drv_pwrctrl_app_TPBLPFC.c Pages: 1 -->
<svg width="1307pt" height="304pt"
 viewBox="0.00 0.00 1306.62 304.00" xmlns="http://www.w3.org/2000/svg" xmlns:xlink="http://www.w3.org/1999/xlink">
<g id="graph0" class="graph" transform="scale(1 1) rotate(0) translate(4 300)">
<title>D:/Firmware/MCU16ASMPS_TestEnvironment/_deployment/dspic33ch&#45;power&#45;totem&#45;pole&#45;demonstration&#45;application&#45;single&#45;phase/dspic33ch_totem_pole_single_phase_secondary_IL.X/sources/driver/power_controller/drv_pwrctrl_app_TPBLPFC.c</title>
<!-- Node1 -->
<g id="Node000001" class="node">
<title>Node1</title>
<g id="a_Node000001"><a xlink:title="This is the driver source file for the power controller app.">
<polygon fill="#999999" stroke="#666666" points="709.12,-296 492.88,-296 492.88,-204 709.12,-204 709.12,-296"/>
<text text-anchor="start" x="500.88" y="-282.5" font-family="Helvetica,sans-Serif" font-size="10.00">D:/Firmware/MCU16ASMPS</text>
<text text-anchor="start" x="500.88" y="-270.5" font-family="Helvetica,sans-Serif" font-size="10.00">_TestEnvironment/_deployment</text>
<text text-anchor="start" x="500.88" y="-258.5" font-family="Helvetica,sans-Serif" font-size="10.00">/dspic33ch&#45;power&#45;totem&#45;pole</text>
<text text-anchor="start" x="500.88" y="-246.5" font-family="Helvetica,sans-Serif" font-size="10.00">&#45;demonstration&#45;application&#45;single</text>
<text text-anchor="start" x="500.88" y="-234.5" font-family="Helvetica,sans-Serif" font-size="10.00">&#45;phase/dspic33ch_totem_pole_single</text>
<text text-anchor="start" x="500.88" y="-222.5" font-family="Helvetica,sans-Serif" font-size="10.00">_phase_secondary_IL.X/sources/driver</text>
<text text-anchor="middle" x="601" y="-210.5" font-family="Helvetica,sans-Serif" font-size="10.00">/power_controller/drv_pwrctrl_app_TPBLPFC.c</text>
</a>
</g>
</g>
<!-- Node2 -->
<g id="Node000002" class="node">
<title>Node2</title>
<g id="a_Node000002"><a xlink:title=" ">
<polygon fill="#e0e0e0" stroke="#999999" points="112,-162 0,-162 0,-142 112,-142 112,-162"/>
<text text-anchor="middle" x="56" y="-148.5" font-family="Helvetica,sans-Serif" font-size="10.00">p33CH512MP506S1.h</text>
</a>
</g>
</g>
<!-- Node1&#45;&gt;Node2 -->
<g id="edge1_Node000001_Node000002" class="edge">
<title>Node1&#45;&gt;Node2</title>
<g id="a_edge1_Node000001_Node000002"><a xlink:title=" ">
<path fill="none" stroke="#63b8ff" d="M492.48,-232.58C394.97,-217.37 248.01,-193.35 121,-168 116.08,-167.02 110.96,-165.94 105.85,-164.82"/>
<polygon fill="#63b8ff" stroke="#63b8ff" points="106.97,-161.26 96.45,-162.5 105.45,-168.09 106.97,-161.26"/>
</a>
</g>
</g>
<!-- Node3 -->
<g id="Node000003" class="node">
<title>Node3</title>
<g id="a_Node000003"><a xlink:href="a00784_source.html" target="_top" xlink:title=" ">
<polygon fill="white" stroke="#666666" points="1049.88,-168 940.12,-168 940.12,-136 1049.88,-136 1049.88,-168"/>
<text text-anchor="start" x="948.12" y="-154.5" font-family="Helvetica,sans-Serif" font-size="10.00">../../../mcc_generated</text>
<text text-anchor="middle" x="995" y="-142.5" font-family="Helvetica,sans-Serif" font-size="10.00">_files/system/pins.h</text>
</a>
</g>
</g>
<!-- Node1&#45;&gt;Node3 -->
<g id="edge2_Node000001_Node000003" class="edge">
<title>Node1&#45;&gt;Node3</title>
<g id="a_edge2_Node000001_Node000003"><a xlink:title=" ">
<path fill="none" stroke="#63b8ff" d="M709.44,-222.58C779.93,-205.4 869.51,-183.58 929.37,-168.99"/>
<polygon fill="#63b8ff" stroke="#63b8ff" points="929.93,-172.21 938.82,-166.45 928.27,-165.41 929.93,-172.21"/>
</a>
</g>
</g>
<!-- Node5 -->
<g id="Node000005" class="node">
<title>Node5</title>
<g id="a_Node000005"><a xlink:href="a00742.html" target="_top" xlink:title="This is the generated driver header file for the CMP1 driver.">
<polygon fill="white" stroke="#666666" points="239.88,-168 130.12,-168 130.12,-136 239.88,-136 239.88,-168"/>
<text text-anchor="start" x="138.12" y="-154.5" font-family="Helvetica,sans-Serif" font-size="10.00">../../../mcc_generated</text>
<text text-anchor="middle" x="185" y="-142.5" font-family="Helvetica,sans-Serif" font-size="10.00">_files/cmp/cmp1.h</text>
</a>
</g>
</g>
<!-- Node1&#45;&gt;Node5 -->
<g id="edge4_Node000001_Node000005" class="edge">
<title>Node1&#45;&gt;Node5</title>
<g id="a_edge4_Node000001_Node000005"><a xlink:title=" ">
<path fill="none" stroke="#63b8ff" d="M492.52,-223.97C415.89,-206.28 315.7,-183.16 250.85,-168.2"/>
<polygon fill="#63b8ff" stroke="#63b8ff" points="251.89,-164.61 241.36,-165.77 250.31,-171.43 251.89,-164.61"/>
</a>
</g>
</g>
<!-- Node9 -->
<g id="Node000009" class="node">
<title>Node9</title>
<g id="a_Node000009"><a xlink:href="a00356.html" target="_top" xlink:title="This is the driver header file for the power controller.">
<polygon fill="white" stroke="#666666" points="742,-162 612,-162 612,-142 742,-142 742,-162"/>
<text text-anchor="middle" x="677" y="-148.5" font-family="Helvetica,sans-Serif" font-size="10.00">drv_controller_TPBLPFC.h</text>
</a>
</g>
</g>
<!-- Node1&#45;&gt;Node9 -->
<g id="edge10_Node000001_Node000009" class="edge">
<title>Node1&#45;&gt;Node9</title>
<g id="a_edge10_Node000001_Node000009"><a xlink:title=" ">
<path fill="none" stroke="#63b8ff" d="M637,-203.53C646.2,-191.9 655.57,-180.07 662.92,-170.78"/>
<polygon fill="#63b8ff" stroke="#63b8ff" points="666.06,-173.46 669.52,-163.45 660.57,-169.11 666.06,-173.46"/>
</a>
</g>
</g>
<!-- Node15 -->
<g id="Node000015" class="node">
<title>Node15</title>
<g id="a_Node000015"><a xlink:href="a00338.html" target="_top" xlink:title="This is the typedef file for power controller.">
<polygon fill="white" stroke="#666666" points="454.88,-94 345.12,-94 345.12,-62 454.88,-62 454.88,-94"/>
<text text-anchor="start" x="353.12" y="-80.5" font-family="Helvetica,sans-Serif" font-size="10.00">../../devices/dev</text>
<text text-anchor="middle" x="400" y="-68.5" font-family="Helvetica,sans-Serif" font-size="10.00">_TPBLPFC_typedef.h</text>
</a>
</g>
</g>
<!-- Node1&#45;&gt;Node15 -->
<g id="edge18_Node000001_Node000015" class="edge">
<title>Node1&#45;&gt;Node15</title>
<g id="a_edge18_Node000001_Node000015"><a xlink:title=" ">
<path fill="none" stroke="#63b8ff" d="M549.84,-203.72C526.05,-182.87 497.28,-157.95 471,-136 457,-124.31 441.2,-111.58 428.07,-101.12"/>
<polygon fill="#63b8ff" stroke="#63b8ff" points="430.46,-97.76 420.45,-94.28 426.11,-103.24 430.46,-97.76"/>
</a>
</g>
</g>
<!-- Node16 -->
<g id="Node000016" class="node">
<title>Node16</title>
<g id="a_Node000016"><a xlink:href="a00386.html" target="_top" xlink:title="Allows the user to change the advanced operating parameters.">
<polygon fill="white" stroke="#666666" points="462.38,-162 343.62,-162 343.62,-142 462.38,-142 462.38,-162"/>
<text text-anchor="middle" x="403" y="-148.5" font-family="Helvetica,sans-Serif" font-size="10.00">PFC_frameworkSetup.h</text>
</a>
</g>
</g>
<!-- Node1&#45;&gt;Node16 -->
<g id="edge21_Node000001_Node000016" class="edge">
<title>Node1&#45;&gt;Node16</title>
<g id="a_edge21_Node000001_Node000016"><a xlink:title=" ">
<path fill="none" stroke="#63b8ff" d="M507.22,-203.53C479.98,-190.32 452.21,-176.86 432.2,-167.16"/>
<polygon fill="#63b8ff" stroke="#63b8ff" points="434.01,-163.66 423.48,-162.45 430.95,-169.96 434.01,-163.66"/>
</a>
</g>
</g>
<!-- Node19 -->
<g id="Node000019" class="node">
<title>Node19</title>
<g id="a_Node000019"><a xlink:href="a00383_source.html" target="_top" xlink:title=" ">
<polygon fill="white" stroke="#666666" points="892.38,-162 767.62,-162 767.62,-142 892.38,-142 892.38,-162"/>
<text text-anchor="middle" x="830" y="-148.5" font-family="Helvetica,sans-Serif" font-size="10.00">../../misc/MCC_add_on.h</text>
</a>
</g>
</g>
<!-- Node1&#45;&gt;Node19 -->
<g id="edge27_Node000001_Node000019" class="edge">
<title>Node1&#45;&gt;Node19</title>
<g id="a_edge27_Node000001_Node000019"><a xlink:title=" ">
<path fill="none" stroke="#63b8ff" d="M709.46,-203.53C741.54,-190.08 774.26,-176.37 797.5,-166.63"/>
<polygon fill="#63b8ff" stroke="#63b8ff" points="798.6,-169.54 806.47,-162.45 795.89,-163.08 798.6,-169.54"/>
</a>
</g>
</g>
<!-- Node20 -->
<g id="Node000020" class="node">
<title>Node20</title>
<g id="a_Node000020"><a xlink:href="a00368.html" target="_top" xlink:title="This is the driver header file for the power controller app.">
<polygon fill="white" stroke="#666666" points="1222.88,-162 1083.12,-162 1083.12,-142 1222.88,-142 1222.88,-162"/>
<text text-anchor="middle" x="1153" y="-148.5" font-family="Helvetica,sans-Serif" font-size="10.00">drv_pwrctrl_app_TPBLPFC.h</text>
</a>
</g>
</g>
<!-- Node1&#45;&gt;Node20 -->
<g id="edge29_Node000001_Node000020" class="edge">
<title>Node1&#45;&gt;Node20</title>
<g id="a_edge29_Node000001_Node000020"><a xlink:title=" ">
<path fill="none" stroke="#63b8ff" d="M709.4,-230.15C822.05,-210.56 994.66,-180.54 1087.87,-164.33"/>
<polygon fill="#63b8ff" stroke="#63b8ff" points="1088.31,-167.63 1097.56,-162.47 1087.11,-160.73 1088.31,-167.63"/>
</a>
</g>
</g>
<!-- Node4 -->
<g id="Node000004" class="node">
<title>Node4</title>
<g id="a_Node000004"><a xlink:title=" ">
<polygon fill="#e0e0e0" stroke="#999999" points="1056.38,-20 1021.62,-20 1021.62,0 1056.38,0 1056.38,-20"/>
<text text-anchor="middle" x="1039" y="-6.5" font-family="Helvetica,sans-Serif" font-size="10.00">xc.h</text>
</a>
</g>
</g>
<!-- Node3&#45;&gt;Node4 -->
<g id="edge3_Node000003_Node000004" class="edge">
<title>Node3&#45;&gt;Node4</title>
<g id="a_edge3_Node000003_Node000004"><a xlink:title=" ">
<path fill="none" stroke="#63b8ff" d="M1047.16,-135.52C1064.17,-127.72 1081.18,-116.34 1091,-100 1101.07,-83.24 1099.13,-73.79 1091,-56 1085.57,-44.11 1075.27,-34.16 1065.26,-26.67"/>
<polygon fill="#63b8ff" stroke="#63b8ff" points="1067.52,-23.28 1057.3,-20.49 1063.55,-29.05 1067.52,-23.28"/>
</a>
</g>
</g>
<!-- Node6 -->
<g id="Node000006" class="node">
<title>Node6</title>
<g id="a_Node000006"><a xlink:title=" ">
<polygon fill="#e0e0e0" stroke="#999999" points="104.25,-20 53.75,-20 53.75,0 104.25,0 104.25,-20"/>
<text text-anchor="middle" x="79" y="-6.5" font-family="Helvetica,sans-Serif" font-size="10.00">stddef.h</text>
</a>
</g>
</g>
<!-- Node5&#45;&gt;Node6 -->
<g id="edge5_Node000005_Node000006" class="edge">
<title>Node5&#45;&gt;Node6</title>
<g id="a_edge5_Node000005_Node000006"><a xlink:title=" ">
<path fill="none" stroke="#63b8ff" d="M132.01,-135.51C102.67,-125.75 70.44,-112.64 62,-100 47.92,-78.92 58.3,-49.11 67.93,-29.92"/>
<polygon fill="#63b8ff" stroke="#63b8ff" points="71.36,-31.93 73.04,-21.47 65.21,-28.6 71.36,-31.93"/>
</a>
</g>
</g>
<!-- Node7 -->
<g id="Node000007" class="node">
<title>Node7</title>
<g id="a_Node000007"><a xlink:title=" ">
<polygon fill="#e0e0e0" stroke="#999999" points="212.88,-20 157.12,-20 157.12,0 212.88,0 212.88,-20"/>
<text text-anchor="middle" x="185" y="-6.5" font-family="Helvetica,sans-Serif" font-size="10.00">stdbool.h</text>
</a>
</g>
</g>
<!-- Node5&#45;&gt;Node7 -->
<g id="edge6_Node000005_Node000007" class="edge">
<title>Node5&#45;&gt;Node7</title>
<g id="a_edge6_Node000005_Node000007"><a xlink:title=" ">
<path fill="none" stroke="#63b8ff" d="M185,-135.75C185,-110.44 185,-59.74 185,-31.39"/>
<polygon fill="#63b8ff" stroke="#63b8ff" points="188.5,-31.42 185,-21.42 181.5,-31.42 188.5,-31.42"/>
</a>
</g>
</g>
<!-- Node8 -->
<g id="Node000008" class="node">
<title>Node8</title>
<g id="a_Node000008"><a xlink:href="a00748_source.html" target="_top" xlink:title=" ">
<polygon fill="white" stroke="#666666" points="156.5,-88 71.5,-88 71.5,-68 156.5,-68 156.5,-88"/>
<text text-anchor="middle" x="114" y="-74.5" font-family="Helvetica,sans-Serif" font-size="10.00">cmp_interface.h</text>
</a>
</g>
</g>
<!-- Node5&#45;&gt;Node8 -->
<g id="edge7_Node000005_Node000008" class="edge">
<title>Node5&#45;&gt;Node8</title>
<g id="a_edge7_Node000005_Node000008"><a xlink:title=" ">
<path fill="none" stroke="#63b8ff" d="M169.94,-135.73C158.43,-124.06 142.57,-107.98 130.68,-95.92"/>
<polygon fill="#63b8ff" stroke="#63b8ff" points="133.7,-93.97 124.18,-89.31 128.71,-98.89 133.7,-93.97"/>
</a>
</g>
</g>
<!-- Node8&#45;&gt;Node6 -->
<g id="edge9_Node000008_Node000006" class="edge">
<title>Node8&#45;&gt;Node6</title>
<g id="a_edge9_Node000008_Node000006"><a xlink:title=" ">
<path fill="none" stroke="#63b8ff" d="M108.99,-67.54C103.79,-57.74 95.52,-42.16 88.99,-29.83"/>
<polygon fill="#63b8ff" stroke="#63b8ff" points="91.78,-28.63 84.01,-21.44 85.6,-31.91 91.78,-28.63"/>
</a>
</g>
</g>
<!-- Node8&#45;&gt;Node7 -->
<g id="edge8_Node000008_Node000007" class="edge">
<title>Node8&#45;&gt;Node7</title>
<g id="a_edge8_Node000008_Node000007"><a xlink:title=" ">
<path fill="none" stroke="#63b8ff" d="M124.17,-67.54C135.35,-57.15 153.52,-40.27 167.09,-27.65"/>
<polygon fill="#63b8ff" stroke="#63b8ff" points="168.9,-30.81 173.85,-21.44 164.14,-25.68 168.9,-30.81"/>
</a>
</g>
</g>
<!-- Node9&#45;&gt;Node4 -->
<g id="edge11_Node000009_Node000004" class="edge">
<title>Node9&#45;&gt;Node4</title>
<g id="a_edge11_Node000009_Node000004"><a xlink:title=" ">
<path fill="none" stroke="#63b8ff" d="M726.81,-141.53C737.42,-139.61 748.57,-137.67 759,-136 816.81,-126.73 977.11,-139.86 1020,-100 1038.68,-82.64 1041.36,-51.79 1040.79,-31.36"/>
<polygon fill="#63b8ff" stroke="#63b8ff" points="1044.23,-31.24 1040.15,-21.46 1037.24,-31.65 1044.23,-31.24"/>
</a>
</g>
</g>
<!-- Node10 -->
<g id="Node000010" class="node">
<title>Node10</title>
<g id="a_Node000010"><a xlink:href="a00374.html" target="_top" xlink:title="Generated by the Microchip Digital Compensator Design Tool (DCDT).">
<polygon fill="white" stroke="#666666" points="710.38,-88 627.62,-88 627.62,-68 710.38,-68 710.38,-88"/>
<text text-anchor="middle" x="669" y="-74.5" font-family="Helvetica,sans-Serif" font-size="10.00">smps_control.h</text>
</a>
</g>
</g>
<!-- Node9&#45;&gt;Node10 -->
<g id="edge12_Node000009_Node000010" class="edge">
<title>Node9&#45;&gt;Node10</title>
<g id="a_edge12_Node000009_Node000010"><a xlink:title=" ">
<path fill="none" stroke="#63b8ff" d="M675.95,-141.59C674.76,-130.86 672.78,-113 671.23,-99.1"/>
<polygon fill="#63b8ff" stroke="#63b8ff" points="674.6,-98.74 670.02,-89.19 667.65,-99.51 674.6,-98.74"/>
</a>
</g>
</g>
<!-- Node12 -->
<g id="Node000012" class="node">
<title>Node12</title>
<g id="a_Node000012"><a xlink:title=" ">
<polygon fill="#e0e0e0" stroke="#999999" points="859.38,-100 728.62,-100 728.62,-56 859.38,-56 859.38,-100"/>
<text text-anchor="start" x="736.62" y="-86.5" font-family="Helvetica,sans-Serif" font-size="10.00">../dcdt/icomp1lv/dcdt</text>
<text text-anchor="start" x="736.62" y="-74.5" font-family="Helvetica,sans-Serif" font-size="10.00">_generated_code/icomp1lv</text>
<text text-anchor="middle" x="794" y="-62.5" font-family="Helvetica,sans-Serif" font-size="10.00">_dcdt.h</text>
</a>
</g>
</g>
<!-- Node9&#45;&gt;Node12 -->
<g id="edge15_Node000009_Node000012" class="edge">
<title>Node9&#45;&gt;Node12</title>
<g id="a_edge15_Node000009_Node000012"><a xlink:title=" ">
<path fill="none" stroke="#63b8ff" d="M692.3,-141.59C707.01,-132.53 729.98,-118.4 750.36,-105.86"/>
<polygon fill="#63b8ff" stroke="#63b8ff" points="751.82,-108.45 758.5,-100.23 748.15,-102.49 751.82,-108.45"/>
</a>
</g>
</g>
<!-- Node13 -->
<g id="Node000013" class="node">
<title>Node13</title>
<g id="a_Node000013"><a xlink:title=" ">
<polygon fill="#e0e0e0" stroke="#999999" points="1010.88,-100 877.12,-100 877.12,-56 1010.88,-56 1010.88,-100"/>
<text text-anchor="start" x="885.12" y="-86.5" font-family="Helvetica,sans-Serif" font-size="10.00">../dcdt/icomp1hv/dcdt</text>
<text text-anchor="start" x="885.12" y="-74.5" font-family="Helvetica,sans-Serif" font-size="10.00">_generated_code/icomp1hv</text>
<text text-anchor="middle" x="944" y="-62.5" font-family="Helvetica,sans-Serif" font-size="10.00">_dcdt.h</text>
</a>
</g>
</g>
<!-- Node9&#45;&gt;Node13 -->
<g id="edge16_Node000009_Node000013" class="edge">
<title>Node9&#45;&gt;Node13</title>
<g id="a_edge16_Node000009_Node000013"><a xlink:title=" ">
<path fill="none" stroke="#63b8ff" d="M712.93,-141.5C749.24,-131.89 807.23,-116.47 866.56,-100.38"/>
<polygon fill="#63b8ff" stroke="#63b8ff" points="867.14,-103.58 875.87,-97.58 865.3,-96.82 867.14,-103.58"/>
</a>
</g>
</g>
<!-- Node14 -->
<g id="Node000014" class="node">
<title>Node14</title>
<g id="a_Node000014"><a xlink:title=" ">
<polygon fill="#e0e0e0" stroke="#999999" points="609.38,-100 472.62,-100 472.62,-56 609.38,-56 609.38,-100"/>
<text text-anchor="start" x="480.62" y="-86.5" font-family="Helvetica,sans-Serif" font-size="10.00">../dcdt/vcomp1ph/dcdt</text>
<text text-anchor="start" x="480.62" y="-74.5" font-family="Helvetica,sans-Serif" font-size="10.00">_generated_code/vcomp1ph</text>
<text text-anchor="middle" x="541" y="-62.5" font-family="Helvetica,sans-Serif" font-size="10.00">_dcdt.h</text>
</a>
</g>
</g>
<!-- Node9&#45;&gt;Node14 -->
<g id="edge17_Node000009_Node000014" class="edge">
<title>Node9&#45;&gt;Node14</title>
<g id="a_edge17_Node000009_Node000014"><a xlink:title=" ">
<path fill="none" stroke="#63b8ff" d="M659.22,-141.59C641.94,-132.44 614.9,-118.12 591.03,-105.49"/>
<polygon fill="#63b8ff" stroke="#63b8ff" points="592.86,-101.96 582.38,-100.38 589.58,-108.15 592.86,-101.96"/>
</a>
</g>
</g>
<!-- Node10&#45;&gt;Node4 -->
<g id="edge13_Node000010_Node000004" class="edge">
<title>Node10&#45;&gt;Node4</title>
<g id="a_edge13_Node000010_Node000004"><a xlink:title=" ">
<path fill="none" stroke="#63b8ff" d="M688.46,-67.64C697.81,-63.5 709.28,-58.91 720,-56 824.81,-27.51 954.16,-16.35 1010.52,-12.62"/>
<polygon fill="#63b8ff" stroke="#63b8ff" points="1010.64,-16.06 1020.4,-11.93 1010.2,-9.07 1010.64,-16.06"/>
</a>
</g>
</g>
<!-- Node11 -->
<g id="Node000011" class="node">
<title>Node11</title>
<g id="a_Node000011"><a xlink:title=" ">
<polygon fill="#e0e0e0" stroke="#999999" points="424.12,-20 375.88,-20 375.88,0 424.12,0 424.12,-20"/>
<text text-anchor="middle" x="400" y="-6.5" font-family="Helvetica,sans-Serif" font-size="10.00">stdint.h</text>
</a>
</g>
</g>
<!-- Node10&#45;&gt;Node11 -->
<g id="edge14_Node000010_Node000011" class="edge">
<title>Node10&#45;&gt;Node11</title>
<g id="a_edge14_Node000010_Node000011"><a xlink:title=" ">
<path fill="none" stroke="#63b8ff" d="M648.48,-67.52C639.3,-63.55 628.25,-59.14 618,-56 554.77,-36.64 478.68,-23.06 435.16,-16.18"/>
<polygon fill="#63b8ff" stroke="#63b8ff" points="435.99,-12.61 425.57,-14.53 434.91,-19.53 435.99,-12.61"/>
</a>
</g>
</g>
<!-- Node15&#45;&gt;Node4 -->
<g id="edge19_Node000015_Node000004" class="edge">
<title>Node15&#45;&gt;Node4</title>
<g id="a_edge19_Node000015_Node000004"><a xlink:title=" ">
<path fill="none" stroke="#63b8ff" d="M442.31,-61.55C449.47,-59.39 456.89,-57.42 464,-56 670.56,-14.65 925.94,-10.87 1010.41,-10.84"/>
<polygon fill="#63b8ff" stroke="#63b8ff" points="1010.38,-14.34 1020.38,-10.86 1010.39,-7.34 1010.38,-14.34"/>
</a>
</g>
</g>
<!-- Node15&#45;&gt;Node11 -->
<g id="edge20_Node000015_Node000011" class="edge">
<title>Node15&#45;&gt;Node11</title>
<g id="a_edge20_Node000015_Node000011"><a xlink:title=" ">
<path fill="none" stroke="#63b8ff" d="M400,-61.69C400,-52.6 400,-40.95 400,-31.12"/>
<polygon fill="#63b8ff" stroke="#63b8ff" points="403.5,-31.32 400,-21.32 396.5,-31.32 403.5,-31.32"/>
</a>
</g>
</g>
<!-- Node17 -->
<g id="Node000017" class="node">
<title>Node17</title>
<g id="a_Node000017"><a xlink:href="a00389.html" target="_top" xlink:title="Allows the user to easily change the operation modes.">
<polygon fill="white" stroke="#666666" points="327.12,-94 212.88,-94 212.88,-62 327.12,-62 327.12,-94"/>
<text text-anchor="start" x="220.88" y="-80.5" font-family="Helvetica,sans-Serif" font-size="10.00">Totempole_Application</text>
<text text-anchor="middle" x="270" y="-68.5" font-family="Helvetica,sans-Serif" font-size="10.00">_Setup.h</text>
</a>
</g>
</g>
<!-- Node16&#45;&gt;Node17 -->
<g id="edge22_Node000016_Node000017" class="edge">
<title>Node16&#45;&gt;Node17</title>
<g id="a_edge22_Node000016_Node000017"><a xlink:title=" ">
<path fill="none" stroke="#63b8ff" d="M385.61,-141.59C366.01,-130.97 333.54,-113.4 307.99,-99.57"/>
<polygon fill="#63b8ff" stroke="#63b8ff" points="310.04,-96.15 299.58,-94.47 306.71,-102.31 310.04,-96.15"/>
</a>
</g>
</g>
<!-- Node17&#45;&gt;Node4 -->
<g id="edge23_Node000017_Node000004" class="edge">
<title>Node17&#45;&gt;Node4</title>
<g id="a_edge23_Node000017_Node000004"><a xlink:title=" ">
<path fill="none" stroke="#63b8ff" d="M313.28,-61.58C320.78,-59.38 328.56,-57.4 336,-56 468.76,-31.02 895.89,-15.64 1010.48,-11.9"/>
<polygon fill="#63b8ff" stroke="#63b8ff" points="1010.28,-15.37 1020.16,-11.55 1010.05,-8.38 1010.28,-15.37"/>
</a>
</g>
</g>
<!-- Node17&#45;&gt;Node7 -->
<g id="edge25_Node000017_Node000007" class="edge">
<title>Node17&#45;&gt;Node7</title>
<g id="a_edge25_Node000017_Node000007"><a xlink:title=" ">
<path fill="none" stroke="#63b8ff" d="M250.29,-61.69C236.9,-51.3 219.23,-37.57 205.64,-27.03"/>
<polygon fill="#63b8ff" stroke="#63b8ff" points="208.04,-23.68 198,-20.32 203.75,-29.21 208.04,-23.68"/>
</a>
</g>
</g>
<!-- Node17&#45;&gt;Node11 -->
<g id="edge24_Node000017_Node000011" class="edge">
<title>Node17&#45;&gt;Node11</title>
<g id="a_edge24_Node000017_Node000011"><a xlink:title=" ">
<path fill="none" stroke="#63b8ff" d="M300.48,-61.53C322.02,-50.59 350.69,-36.04 371.72,-25.36"/>
<polygon fill="#63b8ff" stroke="#63b8ff" points="373.03,-28.11 380.37,-20.46 369.87,-21.87 373.03,-28.11"/>
</a>
</g>
</g>
<!-- Node18 -->
<g id="Node000018" class="node">
<title>Node18</title>
<g id="a_Node000018"><a xlink:title=" ">
<polygon fill="#e0e0e0" stroke="#999999" points="290,-20 250,-20 250,0 290,0 290,-20"/>
<text text-anchor="middle" x="270" y="-6.5" font-family="Helvetica,sans-Serif" font-size="10.00">dsp.h</text>
</a>
</g>
</g>
<!-- Node17&#45;&gt;Node18 -->
<g id="edge26_Node000017_Node000018" class="edge">
<title>Node17&#45;&gt;Node18</title>
<g id="a_edge26_Node000017_Node000018"><a xlink:title=" ">
<path fill="none" stroke="#63b8ff" d="M270,-61.69C270,-52.6 270,-40.95 270,-31.12"/>
<polygon fill="#63b8ff" stroke="#63b8ff" points="273.5,-31.32 270,-21.32 266.5,-31.32 273.5,-31.32"/>
</a>
</g>
</g>
<!-- Node19&#45;&gt;Node4 -->
<g id="edge28_Node000019_Node000004" class="edge">
<title>Node19&#45;&gt;Node4</title>
<g id="a_edge28_Node000019_Node000004"><a xlink:title=" ">
<path fill="none" stroke="#63b8ff" d="M888.09,-141.54C950.64,-130.77 1042.65,-112.99 1053,-100 1068.88,-80.08 1058.89,-49.49 1049.52,-29.87"/>
<polygon fill="#63b8ff" stroke="#63b8ff" points="1052.24,-28.51 1044.55,-21.23 1046.02,-31.72 1052.24,-28.51"/>
</a>
</g>
</g>
<!-- Node20&#45;&gt;Node4 -->
<g id="edge31_Node000020_Node000004" class="edge">
<title>Node20&#45;&gt;Node4</title>
<g id="a_edge31_Node000020_Node000004"><a xlink:title=" ">
<path fill="none" stroke="#63b8ff" d="M1150.58,-141.66C1145.49,-123.44 1132.16,-82.59 1109,-56 1097.32,-42.59 1080.68,-31.67 1066.56,-23.95"/>
<polygon fill="#63b8ff" stroke="#63b8ff" points="1068.31,-20.39 1057.83,-18.9 1065.09,-26.61 1068.31,-20.39"/>
</a>
</g>
</g>
<!-- Node21 -->
<g id="Node000021" class="node">
<title>Node21</title>
<g id="a_Node000021"><a xlink:title=" ">
<polygon fill="#e0e0e0" stroke="#999999" points="1298.62,-100 1181.38,-100 1181.38,-56 1298.62,-56 1298.62,-100"/>
<text text-anchor="start" x="1189.38" y="-86.5" font-family="Helvetica,sans-Serif" font-size="10.00">../sources_common</text>
<text text-anchor="start" x="1189.38" y="-74.5" font-family="Helvetica,sans-Serif" font-size="10.00">/Totempole_Application</text>
<text text-anchor="middle" x="1240" y="-62.5" font-family="Helvetica,sans-Serif" font-size="10.00">_Setup.h</text>
</a>
</g>
</g>
<!-- Node20&#45;&gt;Node21 -->
<g id="edge30_Node000020_Node000021" class="edge">
<title>Node20&#45;&gt;Node21</title>
<g id="a_edge30_Node000020_Node000021"><a xlink:title=" ">
<path fill="none" stroke="#63b8ff" d="M1164.37,-141.59C1174.92,-132.86 1191.17,-119.41 1205.9,-107.22"/>
<polygon fill="#63b8ff" stroke="#63b8ff" points="1207.88,-109.3 1213.35,-100.23 1203.41,-103.91 1207.88,-109.3"/>
</a>
</g>
</g>
</g>
</svg>
