<?xml version="1.0" encoding="UTF-8" standalone="no"?>
<!DOCTYPE svg PUBLIC "-//W3C//DTD SVG 1.1//EN"
 "http://www.w3.org/Graphics/SVG/1.1/DTD/svg11.dtd">
<!-- Generated by graphviz version 2.44.1 (20200629.0846)
 -->
<!-- Title: VACOK_Check Pages: 1 -->
<svg width="436pt" height="64pt"
 viewBox="0.00 0.00 436.00 64.00" xmlns="http://www.w3.org/2000/svg" xmlns:xlink="http://www.w3.org/1999/xlink">
<g id="graph0" class="graph" transform="scale(1 1) rotate(0) translate(4 60)">
<title>VACOK_Check</title>
<!-- Node1 -->
<g id="Node000001" class="node">
<title>Node1</title>
<g id="a_Node000001"><a xlink:title="check VACok flag(s) in fast while loop">
<polygon fill="#999999" stroke="#666666" points="84,-37 0,-37 0,-18 84,-18 84,-37"/>
<text text-anchor="middle" x="42" y="-25" font-family="Helvetica,sans-Serif" font-size="10.00">VACOK_Check</text>
</a>
</g>
</g>
<!-- Node2 -->
<g id="Node000002" class="node">
<title>Node2</title>
<g id="a_Node000002"><a xlink:href="a00365.html#a315b78111431dff7a91b13e42f9133b1" target="_top" xlink:title="stop and reset power controller">
<polygon fill="white" stroke="#666666" points="261,-37 120,-37 120,-18 261,-18 261,-37"/>
<text text-anchor="middle" x="190.5" y="-25" font-family="Helvetica,sans-Serif" font-size="10.00">Drv_PwrCtrl_TPBLPFC_Stop</text>
</a>
</g>
</g>
<!-- Node1&#45;&gt;Node2 -->
<g id="edge1_Node000001_Node000002" class="edge">
<title>Node1&#45;&gt;Node2</title>
<g id="a_edge1_Node000001_Node000002"><a xlink:title=" ">
<path fill="none" stroke="#63b8ff" d="M84.2,-27.5C92.17,-27.5 100.77,-27.5 109.49,-27.5"/>
<polygon fill="#63b8ff" stroke="#63b8ff" points="109.77,-31 119.77,-27.5 109.77,-24 109.77,-31"/>
</a>
</g>
</g>
<!-- Node3 -->
<g id="Node000003" class="node">
<title>Node3</title>
<g id="a_Node000003"><a xlink:href="a00407.html#ga531b59d8823e3ebda2da60f48582bcf3" target="_top" xlink:title="This inline function enables PWM override on PWMH output for specific PWM generator selected by the a...">
<polygon fill="white" stroke="#666666" points="428,-56 297,-56 297,-37 428,-37 428,-56"/>
<text text-anchor="middle" x="362.5" y="-44" font-family="Helvetica,sans-Serif" font-size="10.00">PWM_OverrideHighEnable</text>
</a>
</g>
</g>
<!-- Node2&#45;&gt;Node3 -->
<g id="edge2_Node000002_Node000003" class="edge">
<title>Node2&#45;&gt;Node3</title>
<g id="a_edge2_Node000002_Node000003"><a xlink:title=" ">
<path fill="none" stroke="#63b8ff" d="M261.14,-35.28C269.64,-36.23 278.35,-37.21 286.92,-38.16"/>
<polygon fill="#63b8ff" stroke="#63b8ff" points="286.57,-41.65 296.9,-39.28 287.35,-34.69 286.57,-41.65"/>
</a>
</g>
</g>
<!-- Node4 -->
<g id="Node000004" class="node">
<title>Node4</title>
<g id="a_Node000004"><a xlink:href="a00407.html#ga2548ca8feda75ba6ab784280679da6ae" target="_top" xlink:title="This inline function enables PWM override on PWML output for specific PWM generator selected by the a...">
<polygon fill="white" stroke="#666666" points="427,-19 298,-19 298,0 427,0 427,-19"/>
<text text-anchor="middle" x="362.5" y="-7" font-family="Helvetica,sans-Serif" font-size="10.00">PWM_OverrideLowEnable</text>
</a>
</g>
</g>
<!-- Node2&#45;&gt;Node4 -->
<g id="edge3_Node000002_Node000004" class="edge">
<title>Node2&#45;&gt;Node4</title>
<g id="a_edge3_Node000002_Node000004"><a xlink:title=" ">
<path fill="none" stroke="#63b8ff" d="M261.14,-20.13C270,-19.19 279.09,-18.23 288.01,-17.28"/>
<polygon fill="#63b8ff" stroke="#63b8ff" points="288.41,-20.76 297.98,-16.23 287.67,-13.8 288.41,-20.76"/>
</a>
</g>
</g>
</g>
</svg>
