<?xml version="1.0" encoding="UTF-8" standalone="no"?>
<!DOCTYPE svg PUBLIC "-//W3C//DTD SVG 1.1//EN"
 "http://www.w3.org/Graphics/SVG/1.1/DTD/svg11.dtd">
<!-- Generated by graphviz version 2.44.1 (20200629.0846)
 -->
<!-- Title: DMA_Channel_doAcMonitor Pages: 1 -->
<!--zoomable 335 -->

<svg id="main" version="1.1" xmlns="http://www.w3.org/2000/svg" xmlns:xlink="http://www.w3.org/1999/xlink" xml:space="preserve" onload="init(evt)">

<style type="text/css"><![CDATA[
.node, .edge {opacity: 0.7;}
.node.selected, .edge.selected {opacity: 1;}
.edge:hover path { stroke: red; }
.edge:hover polygon { stroke: red; fill: red; }
]]></style>

<defs>
  <circle id="rim" cx="0" cy="0" r="7"/>
  <circle id="rim2" cx="0" cy="0" r="3.5"/>
  <g id="zoomPlus">
    <use xlink:href="#rim" fill="#404040"><set attributeName="fill" to="#808080" begin="zoomplus.mouseover" end="zoomplus.mouseout"/></use>
    <path d="M-4,0h8M0,-4v8" fill="none" stroke="white" stroke-width="1.5" pointer-events="none"/>
  </g>
  <g id="zoomMin">
    <use xlink:href="#rim" fill="#404040"><set attributeName="fill" to="#808080" begin="zoomminus.mouseover" end="zoomminus.mouseout"/></use>
    <path d="M-4,0h8" fill="none" stroke="white" stroke-width="1.5" pointer-events="none"/>
  </g>
  <g id="arrowUp" transform="translate(30 24)">
    <use xlink:href="#rim"/>
    <path pointer-events="none" fill="none" stroke="white" stroke-width="1.5" d="M0,-3.0v7 M-2.5,-0.5L0,-3.0L2.5,-0.5"/>
  </g>
  <g id="arrowRight" transform="rotate(90) translate(36 -43)">
    <use xlink:href="#rim"/>
    <path pointer-events="none" fill="none" stroke="white" stroke-width="1.5" d="M0,-3.0v7 M-2.5,-0.5L0,-3.0L2.5,-0.5"/>
  </g>
  <g id="arrowDown" transform="rotate(180) translate(-30 -48)">
    <use xlink:href="#rim"/>
    <path pointer-events="none" fill="none" stroke="white" stroke-width="1.5" d="M0,-3.0v7 M-2.5,-0.5L0,-3.0L2.5,-0.5"/>
  </g>
  <g id="arrowLeft" transform="rotate(270) translate(-36 17)">
    <use xlink:href="#rim"/>
    <path pointer-events="none" fill="none" stroke="white" stroke-width="1.5" d="M0,-3.0v7 M-2.5,-0.5L0,-3.0L2.5,-0.5"/>
  </g>
  <g id="resetDef">
    <use xlink:href="#rim2" fill="#404040"><set attributeName="fill" to="#808080" begin="reset.mouseover" end="reset.mouseout"/></use>
  </g>
</defs>
<script type="application/ecmascript">
var viewWidth = 743;
var viewHeight = 335;
var sectionId = 'dynsection-1';
</script>
<script type="application/ecmascript" xlink:href="svg.min.js"/>
<svg id="graph" class="graph">
<g id="viewport">
<title>DMA_Channel_doAcMonitor</title>
<!-- Node1 -->
<g id="Node000001" class="node">
<title>Node1</title>
<g id="a_Node000001"><a xlink:title="run AC monitor for each of the 3 phases">
<polygon fill="#999999" stroke="#666666" points="139,-178.5 0,-178.5 0,-159.5 139,-159.5 139,-178.5"/>
<text text-anchor="middle" x="69.5" y="-166.5" font-family="Helvetica,sans-Serif" font-size="10.00">DMA_Channel_doAcMonitor</text>
</a>
</g>
</g>
<!-- Node2 -->
<g id="Node000002" class="node">
<title>Node2</title>
<g id="a_Node000002"><a xlink:href="a00257.html#a3a965bf809d4454e8cc529cc6c3eed03" target="_top" xlink:title=" ">
<polygon fill="white" stroke="#666666" points="283,-178.5 175,-178.5 175,-159.5 283,-159.5 283,-178.5"/>
<text text-anchor="middle" x="229" y="-166.5" font-family="Helvetica,sans-Serif" font-size="10.00">vacm_state_machine</text>
</a>
</g>
</g>
<!-- Node1&#45;&gt;Node2 -->
<g id="edge1_Node000001_Node000002" class="edge">
<title>Node1&#45;&gt;Node2</title>
<g id="a_edge1_Node000001_Node000002"><a xlink:title=" ">
<path fill="none" stroke="#63b8ff" d="M139.12,-169C147.61,-169 156.26,-169 164.66,-169"/>
<polygon fill="#63b8ff" stroke="#63b8ff" points="164.76,-172.5 174.76,-169 164.76,-165.5 164.76,-172.5"/>
</a>
</g>
</g>
<!-- Node3 -->
<g id="Node000003" class="node">
<title>Node3</title>
<g id="a_Node000003"><a xlink:href="a00257.html#a5e75808b2d04c2fa09dc36222aadeb5c" target="_top" xlink:title=" ">
<polygon fill="white" stroke="#666666" points="430.5,-326.5 327.5,-326.5 327.5,-307.5 430.5,-307.5 430.5,-326.5"/>
<text text-anchor="middle" x="379" y="-314.5" font-family="Helvetica,sans-Serif" font-size="10.00">vacm_capture_input</text>
</a>
</g>
</g>
<!-- Node2&#45;&gt;Node3 -->
<g id="edge2_Node000002_Node000003" class="edge">
<title>Node2&#45;&gt;Node3</title>
<g id="a_edge2_Node000002_Node000003"><a xlink:title=" ">
<path fill="none" stroke="#63b8ff" d="M233.96,-178.82C244.21,-203.03 274.02,-265.98 319,-299 321.04,-300.5 323.2,-301.87 325.46,-303.13"/>
<polygon fill="#63b8ff" stroke="#63b8ff" points="323.94,-306.29 334.48,-307.46 326.97,-299.98 323.94,-306.29"/>
</a>
</g>
</g>
<!-- Node4 -->
<g id="Node000004" class="node">
<title>Node4</title>
<g id="a_Node000004"><a xlink:href="a00257.html#a88354179c83ed3f823aaaab8b54def04" target="_top" xlink:title=" ">
<polygon fill="white" stroke="#666666" points="432,-252.5 326,-252.5 326,-233.5 432,-233.5 432,-252.5"/>
<text text-anchor="middle" x="379" y="-240.5" font-family="Helvetica,sans-Serif" font-size="10.00">vacm_state_ac_drop</text>
</a>
</g>
</g>
<!-- Node2&#45;&gt;Node4 -->
<g id="edge3_Node000002_Node000004" class="edge">
<title>Node2&#45;&gt;Node4</title>
<g id="a_edge3_Node000002_Node000004"><a xlink:title=" ">
<path fill="none" stroke="#63b8ff" d="M242.94,-178.7C259.73,-190.91 290.28,-211.87 319,-225 323.05,-226.85 327.35,-228.58 331.7,-230.17"/>
<polygon fill="#63b8ff" stroke="#63b8ff" points="330.65,-233.51 341.24,-233.44 332.92,-226.89 330.65,-233.51"/>
</a>
</g>
</g>
<!-- Node6 -->
<g id="Node000006" class="node">
<title>Node6</title>
<g id="a_Node000006"><a xlink:href="a00257.html#a6620ac4371af55881bc354c83de9b1a9" target="_top" xlink:title=" ">
<polygon fill="white" stroke="#666666" points="433,-67.5 325,-67.5 325,-48.5 433,-48.5 433,-67.5"/>
<text text-anchor="middle" x="379" y="-55.5" font-family="Helvetica,sans-Serif" font-size="10.00">vacm_state_ac_sync</text>
</a>
</g>
</g>
<!-- Node2&#45;&gt;Node6 -->
<g id="edge5_Node000002_Node000006" class="edge">
<title>Node2&#45;&gt;Node6</title>
<g id="a_edge5_Node000002_Node000006"><a xlink:title=" ">
<path fill="none" stroke="#63b8ff" d="M236.64,-159.28C250.01,-140.42 282.08,-98.73 319,-76 321.65,-74.37 324.46,-72.88 327.36,-71.51"/>
<polygon fill="#63b8ff" stroke="#63b8ff" points="328.94,-74.64 336.83,-67.57 326.25,-68.18 328.94,-74.64"/>
</a>
</g>
</g>
<!-- Node13 -->
<g id="Node000013" class="node">
<title>Node13</title>
<g id="a_Node000013"><a xlink:href="a00257.html#a438efdbe3c5bfcf7b66052f6e3f99fc1" target="_top" xlink:title=" ">
<polygon fill="white" stroke="#666666" points="436,-289.5 322,-289.5 322,-270.5 436,-270.5 436,-289.5"/>
<text text-anchor="middle" x="379" y="-277.5" font-family="Helvetica,sans-Serif" font-size="10.00">vacm_state_dc_detect</text>
</a>
</g>
</g>
<!-- Node2&#45;&gt;Node13 -->
<g id="edge13_Node000002_Node000013" class="edge">
<title>Node2&#45;&gt;Node13</title>
<g id="a_edge13_Node000002_Node000013"><a xlink:title=" ">
<path fill="none" stroke="#63b8ff" d="M236.64,-178.72C250.01,-197.58 282.08,-239.27 319,-262 321.65,-263.63 324.46,-265.12 327.36,-266.49"/>
<polygon fill="#63b8ff" stroke="#63b8ff" points="326.25,-269.82 336.83,-270.43 328.94,-263.36 326.25,-269.82"/>
</a>
</g>
</g>
<!-- Node15 -->
<g id="Node000015" class="node">
<title>Node15</title>
<g id="a_Node000015"><a xlink:href="a00257.html#a7b65d2b2f06bd653e747d28a897e964b" target="_top" xlink:title=" ">
<polygon fill="white" stroke="#666666" points="434.5,-215.5 323.5,-215.5 323.5,-196.5 434.5,-196.5 434.5,-215.5"/>
<text text-anchor="middle" x="379" y="-203.5" font-family="Helvetica,sans-Serif" font-size="10.00">vacm_state_dc_mode</text>
</a>
</g>
</g>
<!-- Node2&#45;&gt;Node15 -->
<g id="edge17_Node000002_Node000015" class="edge">
<title>Node2&#45;&gt;Node15</title>
<g id="a_edge17_Node000002_Node000015"><a xlink:title=" ">
<path fill="none" stroke="#63b8ff" d="M268.11,-178.53C286.94,-183.24 309.86,-188.97 329.89,-193.97"/>
<polygon fill="#63b8ff" stroke="#63b8ff" points="329.21,-197.41 339.76,-196.44 330.91,-190.62 329.21,-197.41"/>
</a>
</g>
</g>
<!-- Node16 -->
<g id="Node000016" class="node">
<title>Node16</title>
<g id="a_Node000016"><a xlink:href="a00257.html#afa82391466200dde740b703017e91eec" target="_top" xlink:title=" ">
<polygon fill="white" stroke="#666666" points="427.5,-104.5 330.5,-104.5 330.5,-85.5 427.5,-85.5 427.5,-104.5"/>
<text text-anchor="middle" x="379" y="-92.5" font-family="Helvetica,sans-Serif" font-size="10.00">vacm_state_online</text>
</a>
</g>
</g>
<!-- Node2&#45;&gt;Node16 -->
<g id="edge20_Node000002_Node000016" class="edge">
<title>Node2&#45;&gt;Node16</title>
<g id="a_edge20_Node000002_Node000016"><a xlink:title=" ">
<path fill="none" stroke="#63b8ff" d="M242.94,-159.3C259.73,-147.09 290.28,-126.13 319,-113 323.05,-111.15 327.35,-109.42 331.7,-107.83"/>
<polygon fill="#63b8ff" stroke="#63b8ff" points="332.92,-111.11 341.24,-104.56 330.65,-104.49 332.92,-111.11"/>
</a>
</g>
</g>
<!-- Node17 -->
<g id="Node000017" class="node">
<title>Node17</title>
<g id="a_Node000017"><a xlink:href="a00257.html#a190d0ac02bb30bdb63d3ddff1373a807" target="_top" xlink:title=" ">
<polygon fill="white" stroke="#666666" points="432,-178.5 326,-178.5 326,-159.5 432,-159.5 432,-178.5"/>
<text text-anchor="middle" x="379" y="-166.5" font-family="Helvetica,sans-Serif" font-size="10.00">vacm_state_standby</text>
</a>
</g>
</g>
<!-- Node2&#45;&gt;Node17 -->
<g id="edge26_Node000002_Node000017" class="edge">
<title>Node2&#45;&gt;Node17</title>
<g id="a_edge26_Node000002_Node000017"><a xlink:title=" ">
<path fill="none" stroke="#63b8ff" d="M283.01,-169C293.57,-169 304.75,-169 315.6,-169"/>
<polygon fill="#63b8ff" stroke="#63b8ff" points="315.85,-172.5 325.85,-169 315.85,-165.5 315.85,-172.5"/>
</a>
</g>
</g>
<!-- Node18 -->
<g id="Node000018" class="node">
<title>Node18</title>
<g id="a_Node000018"><a xlink:href="a00257.html#a4dbe7572d068bb830e05117273a90817" target="_top" xlink:title=" ">
<polygon fill="white" stroke="#666666" points="439,-141.5 319,-141.5 319,-122.5 439,-122.5 439,-141.5"/>
<text text-anchor="middle" x="379" y="-129.5" font-family="Helvetica,sans-Serif" font-size="10.00">vacm_state_wait_for_zc</text>
</a>
</g>
</g>
<!-- Node2&#45;&gt;Node18 -->
<g id="edge28_Node000002_Node000018" class="edge">
<title>Node2&#45;&gt;Node18</title>
<g id="a_edge28_Node000002_Node000018"><a xlink:title=" ">
<path fill="none" stroke="#63b8ff" d="M268.11,-159.47C286.94,-154.76 309.86,-149.03 329.89,-144.03"/>
<polygon fill="#63b8ff" stroke="#63b8ff" points="330.91,-147.38 339.76,-141.56 329.21,-140.59 330.91,-147.38"/>
</a>
</g>
</g>
<!-- Node19 -->
<g id="Node000019" class="node">
<title>Node19</title>
<g id="a_Node000019"><a xlink:href="a00257.html#a2cdea5653d497660110732024dff3bc2" target="_top" xlink:title=" ">
<polygon fill="white" stroke="#666666" points="439,-30 319,-30 319,0 439,0 439,-30"/>
<text text-anchor="start" x="327" y="-18" font-family="Helvetica,sans-Serif" font-size="10.00">vacm_vloop_feedforward</text>
<text text-anchor="middle" x="379" y="-7" font-family="Helvetica,sans-Serif" font-size="10.00">_update</text>
</a>
</g>
</g>
<!-- Node2&#45;&gt;Node19 -->
<g id="edge33_Node000002_Node000019" class="edge">
<title>Node2&#45;&gt;Node19</title>
<g id="a_edge33_Node000002_Node000019"><a xlink:title=" ">
<path fill="none" stroke="#63b8ff" d="M234.15,-159.42C244.84,-135.78 275.56,-74.02 319,-39 320.58,-37.72 322.24,-36.51 323.96,-35.35"/>
<polygon fill="#63b8ff" stroke="#63b8ff" points="326.12,-38.14 332.93,-30.03 322.55,-32.12 326.12,-38.14"/>
</a>
</g>
</g>
<!-- Node5 -->
<g id="Node000005" class="node">
<title>Node5</title>
<g id="a_Node000005"><a xlink:href="a00257.html#a634dc3732b7ac4380c54073b237ca710" target="_top" xlink:title=" ">
<polygon fill="white" stroke="#666666" points="610,-227 475,-227 475,-197 610,-197 610,-227"/>
<text text-anchor="start" x="483" y="-215" font-family="Helvetica,sans-Serif" font-size="10.00">vacm_reset_phase_monitor</text>
<text text-anchor="middle" x="542.5" y="-204" font-family="Helvetica,sans-Serif" font-size="10.00">_object</text>
</a>
</g>
</g>
<!-- Node4&#45;&gt;Node5 -->
<g id="edge4_Node000004_Node000005" class="edge">
<title>Node4&#45;&gt;Node5</title>
<g id="a_edge4_Node000004_Node000005"><a xlink:title=" ">
<path fill="none" stroke="#63b8ff" d="M429.77,-233.45C440.92,-231.31 453,-228.99 464.96,-226.69"/>
<polygon fill="#63b8ff" stroke="#63b8ff" points="465.79,-230.1 474.95,-224.77 464.47,-223.22 465.79,-230.1"/>
</a>
</g>
</g>
<!-- Node6&#45;&gt;Node5 -->
<g id="edge8_Node000006_Node000005" class="edge">
<title>Node6&#45;&gt;Node5</title>
<g id="a_edge8_Node000006_Node000005"><a xlink:title=" ">
<path fill="none" stroke="#63b8ff" d="M427.18,-67.63C431.52,-69.87 435.57,-72.62 439,-76 476.25,-112.7 438.69,-150.38 475,-188 475.94,-188.97 476.91,-189.9 477.93,-190.79"/>
<polygon fill="#63b8ff" stroke="#63b8ff" points="476.19,-193.85 486.33,-196.93 480.31,-188.2 476.19,-193.85"/>
</a>
</g>
</g>
<!-- Node7 -->
<g id="Node000007" class="node">
<title>Node7</title>
<g id="a_Node000007"><a xlink:href="a00257.html#a59a2d9f80fc5da34bbe8f2a364b0eb2a" target="_top" xlink:title=" ">
<polygon fill="white" stroke="#666666" points="591.5,-30.5 493.5,-30.5 493.5,-11.5 591.5,-11.5 591.5,-30.5"/>
<text text-anchor="middle" x="542.5" y="-18.5" font-family="Helvetica,sans-Serif" font-size="10.00">vacm_acok_assert</text>
</a>
</g>
</g>
<!-- Node6&#45;&gt;Node7 -->
<g id="edge6_Node000006_Node000007" class="edge">
<title>Node6&#45;&gt;Node7</title>
<g id="a_edge6_Node000006_Node000007"><a xlink:title=" ">
<path fill="none" stroke="#63b8ff" d="M421.59,-48.47C442.42,-43.7 467.84,-37.88 489.9,-32.82"/>
<polygon fill="#63b8ff" stroke="#63b8ff" points="490.8,-36.21 499.77,-30.56 489.24,-29.38 490.8,-36.21"/>
</a>
</g>
</g>
<!-- Node8 -->
<g id="Node000008" class="node">
<title>Node8</title>
<g id="a_Node000008"><a xlink:href="a00257.html#a128d766a414b6a9755b7586f37b92939" target="_top" xlink:title=" ">
<polygon fill="white" stroke="#666666" points="597.5,-104.5 487.5,-104.5 487.5,-85.5 597.5,-85.5 597.5,-104.5"/>
<text text-anchor="middle" x="542.5" y="-92.5" font-family="Helvetica,sans-Serif" font-size="10.00">vacm_polarity_update</text>
</a>
</g>
</g>
<!-- Node6&#45;&gt;Node8 -->
<g id="edge7_Node000006_Node000008" class="edge">
<title>Node6&#45;&gt;Node8</title>
<g id="a_edge7_Node000006_Node000008"><a xlink:title=" ">
<path fill="none" stroke="#63b8ff" d="M421.59,-67.53C442.42,-72.3 467.84,-78.12 489.9,-83.18"/>
<polygon fill="#63b8ff" stroke="#63b8ff" points="489.24,-86.62 499.77,-85.44 490.8,-79.79 489.24,-86.62"/>
</a>
</g>
</g>
<!-- Node9 -->
<g id="Node000009" class="node">
<title>Node9</title>
<g id="a_Node000009"><a xlink:href="a00257.html#aa3afbdf195704fcbb7fe03f05a5f1493" target="_top" xlink:title=" ">
<polygon fill="white" stroke="#666666" points="602,-67.5 483,-67.5 483,-48.5 602,-48.5 602,-67.5"/>
<text text-anchor="middle" x="542.5" y="-55.5" font-family="Helvetica,sans-Serif" font-size="10.00">vacm_timebase_update</text>
</a>
</g>
</g>
<!-- Node6&#45;&gt;Node9 -->
<g id="edge9_Node000006_Node000009" class="edge">
<title>Node6&#45;&gt;Node9</title>
<g id="a_edge9_Node000006_Node000009"><a xlink:title=" ">
<path fill="none" stroke="#63b8ff" d="M433.33,-58C445.99,-58 459.68,-58 472.92,-58"/>
<polygon fill="#63b8ff" stroke="#63b8ff" points="472.94,-61.5 482.94,-58 472.94,-54.5 472.94,-61.5"/>
</a>
</g>
</g>
<!-- Node10 -->
<g id="Node000010" class="node">
<title>Node10</title>
<g id="a_Node000010"><a xlink:href="a00257.html#a4d1cffa8629c7a211d571e6c96fe94ac" target="_top" xlink:title=" ">
<polygon fill="white" stroke="#666666" points="589.5,-178.5 495.5,-178.5 495.5,-159.5 589.5,-159.5 589.5,-178.5"/>
<text text-anchor="middle" x="542.5" y="-166.5" font-family="Helvetica,sans-Serif" font-size="10.00">vacm_vin_average</text>
</a>
</g>
</g>
<!-- Node6&#45;&gt;Node10 -->
<g id="edge10_Node000006_Node000010" class="edge">
<title>Node6&#45;&gt;Node10</title>
<g id="a_edge10_Node000006_Node000010"><a xlink:title=" ">
<path fill="none" stroke="#63b8ff" d="M425.54,-67.57C430.4,-69.81 435.02,-72.58 439,-76 467.05,-100.09 446.57,-127.36 475,-151 478.31,-153.75 482,-156.09 485.91,-158.07"/>
<polygon fill="#63b8ff" stroke="#63b8ff" points="484.75,-161.38 495.32,-162.07 487.49,-154.94 484.75,-161.38"/>
</a>
</g>
</g>
<!-- Node12 -->
<g id="Node000012" class="node">
<title>Node12</title>
<g id="a_Node000012"><a xlink:href="a00257.html#ae168f993edb4be6bef378eeb2f7d62d6" target="_top" xlink:title=" ">
<polygon fill="white" stroke="#666666" points="602,-141.5 483,-141.5 483,-122.5 602,-122.5 602,-141.5"/>
<text text-anchor="middle" x="542.5" y="-129.5" font-family="Helvetica,sans-Serif" font-size="10.00">vacm_zerocross_detect</text>
</a>
</g>
</g>
<!-- Node6&#45;&gt;Node12 -->
<g id="edge12_Node000006_Node000012" class="edge">
<title>Node6&#45;&gt;Node12</title>
<g id="a_edge12_Node000006_Node000012"><a xlink:title=" ">
<path fill="none" stroke="#63b8ff" d="M420.84,-67.5C427.15,-69.8 433.42,-72.6 439,-76 458.59,-87.95 455.31,-101.23 475,-113 478.59,-115.15 482.44,-117.06 486.41,-118.77"/>
<polygon fill="#63b8ff" stroke="#63b8ff" points="485.23,-122.07 495.82,-122.38 487.74,-115.53 485.23,-122.07"/>
</a>
</g>
</g>
<!-- Node11 -->
<g id="Node000011" class="node">
<title>Node11</title>
<g id="a_Node000011"><a xlink:href="a00257.html#aef2ab25ed304717c5d288e7053b8237f" target="_top" xlink:title=" ">
<polygon fill="white" stroke="#666666" points="735,-178.5 646,-178.5 646,-159.5 735,-159.5 735,-178.5"/>
<text text-anchor="middle" x="690.5" y="-166.5" font-family="Helvetica,sans-Serif" font-size="10.00">vacm_uv_ov_test</text>
</a>
</g>
</g>
<!-- Node10&#45;&gt;Node11 -->
<g id="edge11_Node000010_Node000011" class="edge">
<title>Node10&#45;&gt;Node11</title>
<g id="a_edge11_Node000010_Node000011"><a xlink:title=" ">
<path fill="none" stroke="#63b8ff" d="M589.7,-169C604.22,-169 620.39,-169 635.41,-169"/>
<polygon fill="#63b8ff" stroke="#63b8ff" points="635.6,-172.5 645.6,-169 635.6,-165.5 635.6,-172.5"/>
</a>
</g>
</g>
<!-- Node13&#45;&gt;Node5 -->
<g id="edge15_Node000013_Node000005" class="edge">
<title>Node13&#45;&gt;Node5</title>
<g id="a_edge15_Node000013_Node000005"><a xlink:title=" ">
<path fill="none" stroke="#63b8ff" d="M414.63,-270.43C422.71,-267.93 431.23,-265.06 439,-262 461.32,-253.21 485.48,-241.54 504.73,-231.69"/>
<polygon fill="#63b8ff" stroke="#63b8ff" points="506.49,-234.72 513.76,-227.01 503.27,-228.5 506.49,-234.72"/>
</a>
</g>
</g>
<!-- Node13&#45;&gt;Node10 -->
<g id="edge16_Node000013_Node000010" class="edge">
<title>Node13&#45;&gt;Node10</title>
<g id="a_edge16_Node000013_Node000010"><a xlink:title=" ">
<path fill="none" stroke="#63b8ff" d="M425.52,-270.41C430.39,-268.17 435.01,-265.41 439,-262 466.81,-238.24 446.98,-211.51 475,-188 478.31,-185.22 482.01,-182.85 485.91,-180.82"/>
<polygon fill="#63b8ff" stroke="#63b8ff" points="487.57,-183.92 495.32,-176.7 484.76,-177.51 487.57,-183.92"/>
</a>
</g>
</g>
<!-- Node14 -->
<g id="Node000014" class="node">
<title>Node14</title>
<g id="a_Node000014"><a xlink:href="a00257.html#a15257c326e34873ee3d4465e7837e87e" target="_top" xlink:title=" ">
<polygon fill="white" stroke="#666666" points="600.5,-289.5 484.5,-289.5 484.5,-270.5 600.5,-270.5 600.5,-289.5"/>
<text text-anchor="middle" x="542.5" y="-277.5" font-family="Helvetica,sans-Serif" font-size="10.00">vacm_dc_input_accept</text>
</a>
</g>
</g>
<!-- Node13&#45;&gt;Node14 -->
<g id="edge14_Node000013_Node000014" class="edge">
<title>Node13&#45;&gt;Node14</title>
<g id="a_edge14_Node000013_Node000014"><a xlink:title=" ">
<path fill="none" stroke="#63b8ff" d="M436.03,-280C448.4,-280 461.62,-280 474.37,-280"/>
<polygon fill="#63b8ff" stroke="#63b8ff" points="474.47,-283.5 484.47,-280 474.47,-276.5 474.47,-283.5"/>
</a>
</g>
</g>
<!-- Node15&#45;&gt;Node5 -->
<g id="edge18_Node000015_Node000005" class="edge">
<title>Node15&#45;&gt;Node5</title>
<g id="a_edge18_Node000015_Node000005"><a xlink:title=" ">
<path fill="none" stroke="#63b8ff" d="M434.68,-208.03C444.35,-208.39 454.59,-208.77 464.74,-209.15"/>
<polygon fill="#63b8ff" stroke="#63b8ff" points="464.72,-212.65 474.84,-209.52 464.98,-205.65 464.72,-212.65"/>
</a>
</g>
</g>
<!-- Node15&#45;&gt;Node10 -->
<g id="edge19_Node000015_Node000010" class="edge">
<title>Node15&#45;&gt;Node10</title>
<g id="a_edge19_Node000015_Node000010"><a xlink:title=" ">
<path fill="none" stroke="#63b8ff" d="M421.59,-196.47C442.42,-191.7 467.84,-185.88 489.9,-180.82"/>
<polygon fill="#63b8ff" stroke="#63b8ff" points="490.8,-184.21 499.77,-178.56 489.24,-177.38 490.8,-184.21"/>
</a>
</g>
</g>
<!-- Node16&#45;&gt;Node5 -->
<g id="edge22_Node000016_Node000005" class="edge">
<title>Node16&#45;&gt;Node5</title>
<g id="a_edge22_Node000016_Node000005"><a xlink:title=" ">
<path fill="none" stroke="#63b8ff" d="M425.54,-104.57C430.4,-106.81 435.02,-109.58 439,-113 467.05,-137.09 447.57,-163.21 475,-188 476.31,-189.19 477.69,-190.32 479.12,-191.39"/>
<polygon fill="#63b8ff" stroke="#63b8ff" points="477.5,-194.51 487.8,-196.97 481.28,-188.62 477.5,-194.51"/>
</a>
</g>
</g>
<!-- Node16&#45;&gt;Node8 -->
<g id="edge21_Node000016_Node000008" class="edge">
<title>Node16&#45;&gt;Node8</title>
<g id="a_edge21_Node000016_Node000008"><a xlink:title=" ">
<path fill="none" stroke="#63b8ff" d="M427.58,-95C443.15,-95 460.7,-95 477.28,-95"/>
<polygon fill="#63b8ff" stroke="#63b8ff" points="477.46,-98.5 487.46,-95 477.46,-91.5 477.46,-98.5"/>
</a>
</g>
</g>
<!-- Node16&#45;&gt;Node9 -->
<g id="edge23_Node000016_Node000009" class="edge">
<title>Node16&#45;&gt;Node9</title>
<g id="a_edge23_Node000016_Node000009"><a xlink:title=" ">
<path fill="none" stroke="#63b8ff" d="M421.59,-85.47C442.42,-80.7 467.84,-74.88 489.9,-69.82"/>
<polygon fill="#63b8ff" stroke="#63b8ff" points="490.8,-73.21 499.77,-67.56 489.24,-66.38 490.8,-73.21"/>
</a>
</g>
</g>
<!-- Node16&#45;&gt;Node10 -->
<g id="edge24_Node000016_Node000010" class="edge">
<title>Node16&#45;&gt;Node10</title>
<g id="a_edge24_Node000016_Node000010"><a xlink:title=" ">
<path fill="none" stroke="#63b8ff" d="M421.19,-104.55C427.39,-106.83 433.54,-109.62 439,-113 458.78,-125.24 455.03,-139.07 475,-151 478.43,-153.05 482.09,-154.86 485.87,-156.48"/>
<polygon fill="#63b8ff" stroke="#63b8ff" points="484.84,-159.83 495.43,-160.09 487.31,-153.28 484.84,-159.83"/>
</a>
</g>
</g>
<!-- Node16&#45;&gt;Node12 -->
<g id="edge25_Node000016_Node000012" class="edge">
<title>Node16&#45;&gt;Node12</title>
<g id="a_edge25_Node000016_Node000012"><a xlink:title=" ">
<path fill="none" stroke="#63b8ff" d="M421.59,-104.53C442.42,-109.3 467.84,-115.12 489.9,-120.18"/>
<polygon fill="#63b8ff" stroke="#63b8ff" points="489.24,-123.62 499.77,-122.44 490.8,-116.79 489.24,-123.62"/>
</a>
</g>
</g>
<!-- Node17&#45;&gt;Node10 -->
<g id="edge27_Node000017_Node000010" class="edge">
<title>Node17&#45;&gt;Node10</title>
<g id="a_edge27_Node000017_Node000010"><a xlink:title=" ">
<path fill="none" stroke="#63b8ff" d="M432.43,-169C449.21,-169 467.86,-169 484.92,-169"/>
<polygon fill="#63b8ff" stroke="#63b8ff" points="485.31,-172.5 495.31,-169 485.31,-165.5 485.31,-172.5"/>
</a>
</g>
</g>
<!-- Node18&#45;&gt;Node5 -->
<g id="edge30_Node000018_Node000005" class="edge">
<title>Node18&#45;&gt;Node5</title>
<g id="a_edge30_Node000018_Node000005"><a xlink:title=" ">
<path fill="none" stroke="#63b8ff" d="M418.97,-141.56C425.91,-144.09 432.87,-147.2 439,-151 458.5,-163.1 455.72,-175.57 475,-188 477.42,-189.56 479.95,-191.03 482.56,-192.43"/>
<polygon fill="#63b8ff" stroke="#63b8ff" points="481.12,-195.62 491.64,-196.85 484.18,-189.32 481.12,-195.62"/>
</a>
</g>
</g>
<!-- Node18&#45;&gt;Node8 -->
<g id="edge29_Node000018_Node000008" class="edge">
<title>Node18&#45;&gt;Node8</title>
<g id="a_edge29_Node000018_Node000008"><a xlink:title=" ">
<path fill="none" stroke="#63b8ff" d="M421.59,-122.47C442.42,-117.7 467.84,-111.88 489.9,-106.82"/>
<polygon fill="#63b8ff" stroke="#63b8ff" points="490.8,-110.21 499.77,-104.56 489.24,-103.38 490.8,-110.21"/>
</a>
</g>
</g>
<!-- Node18&#45;&gt;Node10 -->
<g id="edge31_Node000018_Node000010" class="edge">
<title>Node18&#45;&gt;Node10</title>
<g id="a_edge31_Node000018_Node000010"><a xlink:title=" ">
<path fill="none" stroke="#63b8ff" d="M421.59,-141.53C442.42,-146.3 467.84,-152.12 489.9,-157.18"/>
<polygon fill="#63b8ff" stroke="#63b8ff" points="489.24,-160.62 499.77,-159.44 490.8,-153.79 489.24,-160.62"/>
</a>
</g>
</g>
<!-- Node18&#45;&gt;Node12 -->
<g id="edge32_Node000018_Node000012" class="edge">
<title>Node18&#45;&gt;Node12</title>
<g id="a_edge32_Node000018_Node000012"><a xlink:title=" ">
<path fill="none" stroke="#63b8ff" d="M439.22,-132C450.11,-132 461.56,-132 472.71,-132"/>
<polygon fill="#63b8ff" stroke="#63b8ff" points="472.83,-135.5 482.83,-132 472.83,-128.5 472.83,-135.5"/>
</a>
</g>
</g>
</g>
</svg>

<g id="navigator" transform="translate(0 0)" fill="#404254">
  <rect fill="#f2f5e9" fill-opacity="0.5" stroke="#606060" stroke-width=".5" x="0" y="0" width="60" height="60"/>
  <use id="zoomplus" xlink:href="#zoomPlus" x="17" y="9" onmousedown="handleZoom(evt,'in')"/>
  <use id="zoomminus" xlink:href="#zoomMin" x="42" y="9" onmousedown="handleZoom(evt,'out')"/>
  <use id="reset" xlink:href="#resetDef" x="30" y="36" onmousedown="handleReset()"/>
   <use id="arrowup" xlink:href="#arrowUp" x="0" y="0" onmousedown="handlePan(0,-1)"/>
  <use id="arrowright" xlink:href="#arrowRight" x="0" y="0" onmousedown="handlePan(1,0)"/>
  <use id="arrowdown" xlink:href="#arrowDown" x="0" y="0" onmousedown="handlePan(0,1)"/>
  <use id="arrowleft" xlink:href="#arrowLeft" x="0" y="0" onmousedown="handlePan(-1,0)"/>
</g>
<svg viewBox="0 0 15 15" width="100%" height="30px" preserveAspectRatio="xMaxYMin meet">
 <g id="arrow_out" transform="scale(0.3 0.3)">
  <a xlink:href="a00425_ga41351a49d0335be286c2947c26d0a07c_cgraph_org.svg" target="_base">
   <rect id="button" ry="5" rx="5" y="6" x="6" height="38" width="38"
        fill="#f2f5e9" fill-opacity="0.5" stroke="#606060" stroke-width="1.0"/>
   <path id="arrow"
     d="M 11.500037,31.436501 C 11.940474,20.09759 22.043105,11.32322 32.158766,21.979434 L 37.068811,17.246167 C 37.068811,17.246167 37.088388,32 37.088388,32 L 22.160133,31.978069 C 22.160133,31.978069 26.997745,27.140456 26.997745,27.140456 C 18.528582,18.264221 13.291696,25.230495 11.500037,31.436501 z"
     style="fill:#404040;"/>
  </a>
 </g>
</svg>

<style type='text/css'>
<![CDATA[
[data-mouse-over-selected='false'] { opacity: 0.7; }
[data-mouse-over-selected='true']  { opacity: 1.0; }
]]>
</style>
<script type="application/ecmascript"><![CDATA[
document.addEventListener('DOMContentLoaded', (event) => {
  highlightEdges();
  highlightAdjacentNodes();
});
]]></script>
</svg>
