<?xml version="1.0" encoding="UTF-8" standalone="no"?>
<!DOCTYPE svg PUBLIC "-//W3C//DTD SVG 1.1//EN"
 "http://www.w3.org/Graphics/SVG/1.1/DTD/svg11.dtd">
<!-- Generated by graphviz version 2.44.1 (20200629.0846)
 -->
<!-- Title: Housekeeping_Flags_Update Pages: 1 -->
<svg width="311pt" height="101pt"
 viewBox="0.00 0.00 311.00 101.00" xmlns="http://www.w3.org/2000/svg" xmlns:xlink="http://www.w3.org/1999/xlink">
<g id="graph0" class="graph" transform="scale(1 1) rotate(0) translate(4 97)">
<title>Housekeeping_Flags_Update</title>
<!-- Node1 -->
<g id="Node000001" class="node">
<title>Node1</title>
<g id="a_Node000001"><a xlink:title="Update housekeeping flags related to PIC16s on SiC cards and PIC16 on main power board.">
<polygon fill="#999999" stroke="#666666" points="107,-61.5 0,-61.5 0,-31.5 107,-31.5 107,-61.5"/>
<text text-anchor="start" x="8" y="-49.5" font-family="Helvetica,sans-Serif" font-size="10.00">Housekeeping_Flags</text>
<text text-anchor="middle" x="53.5" y="-38.5" font-family="Helvetica,sans-Serif" font-size="10.00">_Update</text>
</a>
</g>
</g>
<!-- Node2 -->
<g id="Node000002" class="node">
<title>Node2</title>
<g id="a_Node000002"><a xlink:href="a00426.html#ga5fe2662b714b85fd1b430cf48528c656" target="_top" xlink:title="read copy of i2c_write object">
<polygon fill="white" stroke="#666666" points="285.5,-93 160.5,-93 160.5,-74 285.5,-74 285.5,-93"/>
<text text-anchor="middle" x="223" y="-81" font-family="Helvetica,sans-Serif" font-size="10.00">Drv_I2C_Get_Write_Data</text>
</a>
</g>
</g>
<!-- Node1&#45;&gt;Node2 -->
<g id="edge1_Node000001_Node000002" class="edge">
<title>Node1&#45;&gt;Node2</title>
<g id="a_edge1_Node000001_Node000002"><a xlink:title=" ">
<path fill="none" stroke="#63b8ff" d="M107.04,-58.11C126.82,-62.47 149.31,-67.44 169.12,-71.82"/>
<polygon fill="#63b8ff" stroke="#63b8ff" points="168.39,-75.24 178.91,-73.98 169.9,-68.41 168.39,-75.24"/>
</a>
</g>
</g>
<!-- Node3 -->
<g id="Node000003" class="node">
<title>Node3</title>
<g id="a_Node000003"><a xlink:href="a00427.html#gaf3fad6443af569b0da78810b219ebaaf" target="_top" xlink:title="retrieve the value of the flag &quot;selfSpi.checksum_ok&quot;">
<polygon fill="white" stroke="#666666" points="303,-56 143,-56 143,-37 303,-37 303,-56"/>
<text text-anchor="middle" x="223" y="-44" font-family="Helvetica,sans-Serif" font-size="10.00">Drv_SPI_get_ChecksumOK_Flag</text>
</a>
</g>
</g>
<!-- Node1&#45;&gt;Node3 -->
<g id="edge2_Node000001_Node000003" class="edge">
<title>Node1&#45;&gt;Node3</title>
<g id="a_edge2_Node000001_Node000003"><a xlink:title=" ">
<path fill="none" stroke="#63b8ff" d="M107.04,-46.5C115.33,-46.5 124.11,-46.5 132.96,-46.5"/>
<polygon fill="#63b8ff" stroke="#63b8ff" points="132.96,-50 142.96,-46.5 132.96,-43 132.96,-50"/>
</a>
</g>
</g>
<!-- Node4 -->
<g id="Node000004" class="node">
<title>Node4</title>
<g id="a_Node000004"><a xlink:href="a00427.html#ga0c28951a0ab80e65e5bd85682bf5920a" target="_top" xlink:title="retrieve the value of the flag &quot;selfSpi.connected&quot;">
<polygon fill="white" stroke="#666666" points="296,-19 150,-19 150,0 296,0 296,-19"/>
<text text-anchor="middle" x="223" y="-7" font-family="Helvetica,sans-Serif" font-size="10.00">Drv_SPI_get_Connected_Flag</text>
</a>
</g>
</g>
<!-- Node1&#45;&gt;Node4 -->
<g id="edge3_Node000001_Node000004" class="edge">
<title>Node1&#45;&gt;Node4</title>
<g id="a_edge3_Node000001_Node000004"><a xlink:title=" ">
<path fill="none" stroke="#63b8ff" d="M107.04,-34.89C126.82,-30.53 149.31,-25.56 169.12,-21.18"/>
<polygon fill="#63b8ff" stroke="#63b8ff" points="169.9,-24.59 178.91,-19.02 168.39,-17.76 169.9,-24.59"/>
</a>
</g>
</g>
</g>
</svg>
