<?xml version="1.0" encoding="UTF-8" standalone="no"?>
<!DOCTYPE svg PUBLIC "-//W3C//DTD SVG 1.1//EN"
 "http://www.w3.org/Graphics/SVG/1.1/DTD/svg11.dtd">
<!-- Generated by graphviz version 2.44.1 (20200629.0846)
 -->
<!-- Title: ADC1_Initialize Pages: 1 -->
<svg width="287pt" height="298pt"
 viewBox="0.00 0.00 287.00 298.00" xmlns="http://www.w3.org/2000/svg" xmlns:xlink="http://www.w3.org/1999/xlink">
<g id="graph0" class="graph" transform="scale(1 1) rotate(0) translate(4 294)">
<title>ADC1_Initialize</title>
<!-- Node1 -->
<g id="Node000001" class="node">
<title>Node1</title>
<g id="a_Node000001"><a xlink:title="Initializes ADC1 module, using the given initialization data This function must be called before any ...">
<polygon fill="#999999" stroke="#666666" points="83,-160 0,-160 0,-141 83,-141 83,-160"/>
<text text-anchor="middle" x="41.5" y="-148" font-family="Helvetica,sans-Serif" font-size="10.00">ADC1_Initialize</text>
</a>
</g>
</g>
<!-- Node2 -->
<g id="Node000002" class="node">
<title>Node2</title>
<g id="a_Node000002"><a xlink:href="a00404.html#ga9b0b6df07fa6f03a98b101045b35e39e" target="_top" xlink:title="This is the default callback function for all the analog channels. This callback is triggered once th...">
<polygon fill="white" stroke="#666666" points="259,-290 139,-290 139,-271 259,-271 259,-290"/>
<text text-anchor="middle" x="199" y="-278" font-family="Helvetica,sans-Serif" font-size="10.00">ADC1_ChannelCallback</text>
</a>
</g>
</g>
<!-- Node1&#45;&gt;Node2 -->
<g id="edge1_Node000001_Node000002" class="edge">
<title>Node1&#45;&gt;Node2</title>
<g id="a_edge1_Node000001_Node000002"><a xlink:title=" ">
<path fill="none" stroke="#63b8ff" d="M46.16,-160.1C55.03,-182.01 79.88,-235.86 119,-262.5 122.31,-264.75 125.85,-266.72 129.55,-268.45"/>
<polygon fill="#63b8ff" stroke="#63b8ff" points="128.39,-271.76 138.97,-272.27 131.02,-265.27 128.39,-271.76"/>
</a>
</g>
</g>
<!-- Node3 -->
<g id="Node000003" class="node">
<title>Node3</title>
<g id="a_Node000003"><a xlink:href="a00404.html#gaf5a05de69c2fee35a21d798c01ce3417" target="_top" xlink:title="This function can be used to override default callback ADC1_ChannelCallback and to define custom call...">
<polygon fill="white" stroke="#666666" points="277,-253 121,-253 121,-234 277,-234 277,-253"/>
<text text-anchor="middle" x="199" y="-241" font-family="Helvetica,sans-Serif" font-size="10.00">ADC1_ChannelCallbackRegister</text>
</a>
</g>
</g>
<!-- Node1&#45;&gt;Node3 -->
<g id="edge2_Node000001_Node000003" class="edge">
<title>Node1&#45;&gt;Node3</title>
<g id="a_edge2_Node000001_Node000003"><a xlink:title=" ">
<path fill="none" stroke="#63b8ff" d="M49.33,-160.02C61.44,-176.15 88.31,-208.74 119,-225.5 122.44,-227.38 126.07,-229.06 129.81,-230.57"/>
<polygon fill="#63b8ff" stroke="#63b8ff" points="128.68,-233.88 139.27,-233.97 131.04,-227.3 128.68,-233.88"/>
</a>
</g>
</g>
<!-- Node4 -->
<g id="Node000004" class="node">
<title>Node4</title>
<g id="a_Node000004"><a xlink:href="a00404.html#ga15c38c135acb0b6a4a3cd1474ce9ae9c" target="_top" xlink:title="This is the default callback with weak attribute. The user can override and implement the default cal...">
<polygon fill="white" stroke="#666666" points="261,-216 137,-216 137,-197 261,-197 261,-216"/>
<text text-anchor="middle" x="199" y="-204" font-family="Helvetica,sans-Serif" font-size="10.00">ADC1_CommonCallback</text>
</a>
</g>
</g>
<!-- Node1&#45;&gt;Node4 -->
<g id="edge3_Node000001_Node000004" class="edge">
<title>Node1&#45;&gt;Node4</title>
<g id="a_edge3_Node000001_Node000004"><a xlink:title=" ">
<path fill="none" stroke="#63b8ff" d="M59.01,-160.14C74.17,-168.64 97.49,-180.83 119,-188.5 125,-190.64 131.35,-192.59 137.74,-194.34"/>
<polygon fill="#63b8ff" stroke="#63b8ff" points="137.2,-197.82 147.76,-196.94 138.96,-191.04 137.2,-197.82"/>
</a>
</g>
</g>
<!-- Node5 -->
<g id="Node000005" class="node">
<title>Node5</title>
<g id="a_Node000005"><a xlink:href="a00404.html#gaecf43569204fdaadc281671b99322935" target="_top" xlink:title="This function can be used to override default callback and to define custom callback for ADC1 Common ...">
<polygon fill="white" stroke="#666666" points="279,-179 119,-179 119,-160 279,-160 279,-179"/>
<text text-anchor="middle" x="199" y="-167" font-family="Helvetica,sans-Serif" font-size="10.00">ADC1_CommonCallbackRegister</text>
</a>
</g>
</g>
<!-- Node1&#45;&gt;Node5 -->
<g id="edge4_Node000001_Node000005" class="edge">
<title>Node1&#45;&gt;Node5</title>
<g id="a_edge4_Node000001_Node000005"><a xlink:title=" ">
<path fill="none" stroke="#63b8ff" d="M83.36,-155.49C91.68,-156.51 100.74,-157.62 110,-158.75"/>
<polygon fill="#63b8ff" stroke="#63b8ff" points="109.75,-162.24 120.1,-159.98 110.6,-155.29 109.75,-162.24"/>
</a>
</g>
</g>
<!-- Node6 -->
<g id="Node000006" class="node">
<title>Node6</title>
<g id="a_Node000006"><a xlink:href="a00404.html#ga451e7989cdee47c83772616b964f1828" target="_top" xlink:title="Comparator callback function.">
<polygon fill="white" stroke="#666666" points="266.5,-142 131.5,-142 131.5,-123 266.5,-123 266.5,-142"/>
<text text-anchor="middle" x="199" y="-130" font-family="Helvetica,sans-Serif" font-size="10.00">ADC1_ComparatorCallback</text>
</a>
</g>
</g>
<!-- Node1&#45;&gt;Node6 -->
<g id="edge5_Node000001_Node000006" class="edge">
<title>Node1&#45;&gt;Node6</title>
<g id="a_edge5_Node000001_Node000006"><a xlink:title=" ">
<path fill="none" stroke="#63b8ff" d="M83.36,-145.77C95.04,-144.42 108.18,-142.9 121.28,-141.38"/>
<polygon fill="#63b8ff" stroke="#63b8ff" points="121.73,-144.85 131.26,-140.23 120.92,-137.9 121.73,-144.85"/>
</a>
</g>
</g>
<!-- Node7 -->
<g id="Node000007" class="node">
<title>Node7</title>
<g id="a_Node000007"><a xlink:href="a00404.html#ga80266aee20908dbc13be9199675ddef3" target="_top" xlink:title="This function can be used to override default callback and to define custom callback for ADC1_Compara...">
<polygon fill="white" stroke="#666666" points="266.5,-104.5 131.5,-104.5 131.5,-74.5 266.5,-74.5 266.5,-104.5"/>
<text text-anchor="start" x="139.5" y="-92.5" font-family="Helvetica,sans-Serif" font-size="10.00">ADC1_ComparatorCallback</text>
<text text-anchor="middle" x="199" y="-81.5" font-family="Helvetica,sans-Serif" font-size="10.00">Register</text>
</a>
</g>
</g>
<!-- Node1&#45;&gt;Node7 -->
<g id="edge6_Node000001_Node000007" class="edge">
<title>Node1&#45;&gt;Node7</title>
<g id="a_edge6_Node000001_Node000007"><a xlink:title=" ">
<path fill="none" stroke="#63b8ff" d="M61.06,-140.91C76.36,-133.21 98.77,-122.42 119,-114.5 124.89,-112.19 131.09,-109.94 137.31,-107.8"/>
<polygon fill="#63b8ff" stroke="#63b8ff" points="138.71,-111.02 147.08,-104.51 136.48,-104.38 138.71,-111.02"/>
</a>
</g>
</g>
<!-- Node8 -->
<g id="Node000008" class="node">
<title>Node8</title>
<g id="a_Node000008"><a xlink:href="a00404.html#gaf051bfe964d4b2babd517b5445d53883" target="_top" xlink:title="Enables analog and digital power for ADC1 dedicated core.">
<polygon fill="white" stroke="#666666" points="261.5,-56 136.5,-56 136.5,-37 261.5,-37 261.5,-56"/>
<text text-anchor="middle" x="199" y="-44" font-family="Helvetica,sans-Serif" font-size="10.00">ADC1_CorePowerEnable</text>
</a>
</g>
</g>
<!-- Node1&#45;&gt;Node8 -->
<g id="edge7_Node000001_Node000008" class="edge">
<title>Node1&#45;&gt;Node8</title>
<g id="a_edge7_Node000001_Node000008"><a xlink:title=" ">
<path fill="none" stroke="#63b8ff" d="M48.31,-140.88C59.59,-123.06 86.25,-85 119,-65.5 122.68,-63.31 126.6,-61.37 130.65,-59.65"/>
<polygon fill="#63b8ff" stroke="#63b8ff" points="132.15,-62.83 140.29,-56.04 129.7,-56.27 132.15,-62.83"/>
</a>
</g>
</g>
<!-- Node9 -->
<g id="Node000009" class="node">
<title>Node9</title>
<g id="a_Node000009"><a xlink:href="a00404.html#ga497308e69536136ae422cf23a5eed40c" target="_top" xlink:title="Enables power for ADC1 shared Core This function is used to set the analog and digital power for ADC1...">
<polygon fill="white" stroke="#666666" points="276.5,-19 121.5,-19 121.5,0 276.5,0 276.5,-19"/>
<text text-anchor="middle" x="199" y="-7" font-family="Helvetica,sans-Serif" font-size="10.00">ADC1_SharedCorePowerEnable</text>
</a>
</g>
</g>
<!-- Node1&#45;&gt;Node9 -->
<g id="edge8_Node000001_Node000009" class="edge">
<title>Node1&#45;&gt;Node9</title>
<g id="a_edge8_Node000001_Node000009"><a xlink:title=" ">
<path fill="none" stroke="#63b8ff" d="M45.68,-140.79C53.84,-117.48 77.8,-58.13 119,-28.5 121.69,-26.56 124.55,-24.82 127.53,-23.26"/>
<polygon fill="#63b8ff" stroke="#63b8ff" points="129.11,-26.39 136.77,-19.07 126.22,-20.01 129.11,-26.39"/>
</a>
</g>
</g>
</g>
</svg>
