<?xml version="1.0" encoding="UTF-8" standalone="no"?>
<!DOCTYPE svg PUBLIC "-//W3C//DTD SVG 1.1//EN"
 "http://www.w3.org/Graphics/SVG/1.1/DTD/svg11.dtd">
<!-- Generated by graphviz version 2.44.1 (20200629.0846)
 -->
<!-- Title: CAN_Receive_from_GUI Pages: 1 -->
<svg width="709pt" height="261pt"
 viewBox="0.00 0.00 709.00 261.00" xmlns="http://www.w3.org/2000/svg" xmlns:xlink="http://www.w3.org/1999/xlink">
<g id="graph0" class="graph" transform="scale(1 1) rotate(0) translate(4 257)">
<title>CAN_Receive_from_GUI</title>
<!-- Node1 -->
<g id="Node000001" class="node">
<title>Node1</title>
<g id="a_Node000001"><a xlink:title="received message from GUI. Send the data to the secondary core using mailbox protocol A">
<polygon fill="#999999" stroke="#666666" points="122,-142 0,-142 0,-123 122,-123 122,-142"/>
<text text-anchor="middle" x="61" y="-130" font-family="Helvetica,sans-Serif" font-size="10.00">CAN_Receive_from_GUI</text>
</a>
</g>
</g>
<!-- Node2 -->
<g id="Node000002" class="node">
<title>Node2</title>
<g id="a_Node000002"><a xlink:href="a00405.html#ga4fe1df4cd9f0ce122687dcfab0713b5b" target="_top" xlink:title="Reads the received single message object.">
<polygon fill="white" stroke="#666666" points="282,-142 201,-142 201,-123 282,-123 282,-142"/>
<text text-anchor="middle" x="241.5" y="-130" font-family="Helvetica,sans-Serif" font-size="10.00">CAN1_Receive</text>
</a>
</g>
</g>
<!-- Node1&#45;&gt;Node2 -->
<g id="edge1_Node000001_Node000002" class="edge">
<title>Node1&#45;&gt;Node2</title>
<g id="a_edge1_Node000001_Node000002"><a xlink:title=" ">
<path fill="none" stroke="#63b8ff" d="M122.43,-132.5C144.68,-132.5 169.61,-132.5 190.81,-132.5"/>
<polygon fill="#63b8ff" stroke="#63b8ff" points="190.89,-136 200.89,-132.5 190.89,-129 190.89,-136"/>
</a>
</g>
</g>
<!-- Node9 -->
<g id="Node000009" class="node">
<title>Node9</title>
<g id="a_Node000009"><a xlink:href="a00405.html#gac27e97593d8d9bd7787d116910adc40d" target="_top" xlink:title="Returns the number of CAN messages received in all the FIFO.">
<polygon fill="white" stroke="#666666" points="325,-197 158,-197 158,-178 325,-178 325,-197"/>
<text text-anchor="middle" x="241.5" y="-185" font-family="Helvetica,sans-Serif" font-size="10.00">CAN1_ReceivedMessageCountGet</text>
</a>
</g>
</g>
<!-- Node1&#45;&gt;Node9 -->
<g id="edge8_Node000001_Node000009" class="edge">
<title>Node1&#45;&gt;Node9</title>
<g id="a_edge8_Node000001_Node000009"><a xlink:title=" ">
<path fill="none" stroke="#63b8ff" d="M93.09,-142.08C122.69,-151.2 167.41,-164.98 199.83,-174.97"/>
<polygon fill="#63b8ff" stroke="#63b8ff" points="198.88,-178.34 209.47,-177.94 200.94,-171.65 198.88,-178.34"/>
</a>
</g>
</g>
<!-- Node11 -->
<g id="Node000011" class="node">
<title>Node11</title>
<g id="a_Node000011"><a xlink:href="a00421.html#gab313dfcda98b03477bba5f3812dbb3cc" target="_top" xlink:title="This routine writes data to mailbox.">
<polygon fill="white" stroke="#666666" points="311.5,-62 171.5,-62 171.5,-43 311.5,-43 311.5,-62"/>
<text text-anchor="middle" x="241.5" y="-50" font-family="Helvetica,sans-Serif" font-size="10.00">SEC_CORE1_ProtocolWrite</text>
</a>
</g>
</g>
<!-- Node1&#45;&gt;Node11 -->
<g id="edge12_Node000001_Node000011" class="edge">
<title>Node1&#45;&gt;Node11</title>
<g id="a_edge12_Node000001_Node000011"><a xlink:title=" ">
<path fill="none" stroke="#63b8ff" d="M83.53,-122.85C114.98,-108.76 173.63,-82.47 209.65,-66.33"/>
<polygon fill="#63b8ff" stroke="#63b8ff" points="211.48,-69.34 219.17,-62.06 208.61,-62.96 211.48,-69.34"/>
</a>
</g>
</g>
<!-- Node3 -->
<g id="Node000003" class="node">
<title>Node3</title>
<g id="a_Node000003"><a xlink:href="a00405.html#ga57b30800d7bd3b3c936f578ca1fd7e32" target="_top" xlink:title="This function get the FIFO user address, message depth and payload size information.">
<polygon fill="white" stroke="#666666" points="498.5,-179 393.5,-179 393.5,-160 498.5,-160 498.5,-179"/>
<text text-anchor="middle" x="446" y="-167" font-family="Helvetica,sans-Serif" font-size="10.00">CAN1_FIFO_InfoGet</text>
</a>
</g>
</g>
<!-- Node2&#45;&gt;Node3 -->
<g id="edge2_Node000002_Node000003" class="edge">
<title>Node2&#45;&gt;Node3</title>
<g id="a_edge2_Node000002_Node000003"><a xlink:title=" ">
<path fill="none" stroke="#63b8ff" d="M282.02,-139.72C310.81,-144.98 350.37,-152.21 383.3,-158.23"/>
<polygon fill="#63b8ff" stroke="#63b8ff" points="382.82,-161.7 393.29,-160.05 384.08,-154.81 382.82,-161.7"/>
</a>
</g>
</g>
<!-- Node4 -->
<g id="Node000004" class="node">
<title>Node4</title>
<g id="a_Node000004"><a xlink:href="a00405.html#gaa89329ca22f234476d55536c446b70e3" target="_top" xlink:title="This function read the message object from receive FIFO and update to the user &#160;&#160;message object point...">
<polygon fill="white" stroke="#666666" points="520,-142 372,-142 372,-123 520,-123 520,-142"/>
<text text-anchor="middle" x="446" y="-130" font-family="Helvetica,sans-Serif" font-size="10.00">CAN1_MessageReadFromFifo</text>
</a>
</g>
</g>
<!-- Node2&#45;&gt;Node4 -->
<g id="edge3_Node000002_Node000004" class="edge">
<title>Node2&#45;&gt;Node4</title>
<g id="a_edge3_Node000002_Node000004"><a xlink:title=" ">
<path fill="none" stroke="#63b8ff" d="M282.02,-132.5C304.78,-132.5 334.27,-132.5 361.89,-132.5"/>
<polygon fill="#63b8ff" stroke="#63b8ff" points="361.97,-136 371.97,-132.5 361.97,-129 361.97,-136"/>
</a>
</g>
</g>
<!-- Node6 -->
<g id="Node000006" class="node">
<title>Node6</title>
<g id="a_Node000006"><a xlink:href="a00405.html#ga0dab5f41a5a5ef032d23c2ba4890a866" target="_top" xlink:title="This function Update the receive FIFO message increment tail position.">
<polygon fill="white" stroke="#666666" points="529,-105 363,-105 363,-86 529,-86 529,-105"/>
<text text-anchor="middle" x="446" y="-93" font-family="Helvetica,sans-Serif" font-size="10.00">CAN1_RX_FIFO_IncrementMsgPtr</text>
</a>
</g>
</g>
<!-- Node2&#45;&gt;Node6 -->
<g id="edge5_Node000002_Node000006" class="edge">
<title>Node2&#45;&gt;Node6</title>
<g id="a_edge5_Node000002_Node000006"><a xlink:title=" ">
<path fill="none" stroke="#63b8ff" d="M282.02,-125.28C310.71,-120.04 350.08,-112.84 382.94,-106.84"/>
<polygon fill="#63b8ff" stroke="#63b8ff" points="383.71,-110.26 392.91,-105.02 382.45,-103.37 383.71,-110.26"/>
</a>
</g>
</g>
<!-- Node7 -->
<g id="Node000007" class="node">
<title>Node7</title>
<g id="a_Node000007"><a xlink:href="a00405.html#ga224fbf549503a57f5818cc8391105b8f" target="_top" xlink:title="This function is used to clear the CAN1 receive FIFO overflow status bit.">
<polygon fill="white" stroke="#666666" points="524,-67.5 368,-67.5 368,-37.5 524,-37.5 524,-67.5"/>
<text text-anchor="start" x="376" y="-55.5" font-family="Helvetica,sans-Serif" font-size="10.00">CAN1_RX_FIFO_OverflowStatus</text>
<text text-anchor="middle" x="446" y="-44.5" font-family="Helvetica,sans-Serif" font-size="10.00">FlagClear</text>
</a>
</g>
</g>
<!-- Node2&#45;&gt;Node7 -->
<g id="edge6_Node000002_Node000007" class="edge">
<title>Node2&#45;&gt;Node7</title>
<g id="a_edge6_Node000002_Node000007"><a xlink:title=" ">
<path fill="none" stroke="#63b8ff" d="M260.57,-122.82C283.47,-110.82 324.37,-90.28 361,-76.5 366.46,-74.45 372.17,-72.47 377.93,-70.59"/>
<polygon fill="#63b8ff" stroke="#63b8ff" points="379.17,-73.87 387.66,-67.53 377.07,-67.19 379.17,-73.87"/>
</a>
</g>
</g>
<!-- Node8 -->
<g id="Node000008" class="node">
<title>Node8</title>
<g id="a_Node000008"><a xlink:href="a00405.html#ga4a6437adcdf1917fffef4e7e5761fda1" target="_top" xlink:title="This returns the CAN1 receive FIFO status.">
<polygon fill="white" stroke="#666666" points="514,-216 378,-216 378,-197 514,-197 514,-216"/>
<text text-anchor="middle" x="446" y="-204" font-family="Helvetica,sans-Serif" font-size="10.00">CAN1_RX_FIFO_StatusGet</text>
</a>
</g>
</g>
<!-- Node2&#45;&gt;Node8 -->
<g id="edge7_Node000002_Node000008" class="edge">
<title>Node2&#45;&gt;Node8</title>
<g id="a_edge7_Node000002_Node000008"><a xlink:title=" ">
<path fill="none" stroke="#63b8ff" d="M264.74,-142.01C281.45,-149.27 304.82,-159.66 325,-169.5 341.26,-177.43 344,-182.32 361,-188.5 366.98,-190.67 373.3,-192.62 379.68,-194.36"/>
<polygon fill="#63b8ff" stroke="#63b8ff" points="379.16,-197.84 389.71,-196.92 380.89,-191.05 379.16,-197.84"/>
</a>
</g>
</g>
<!-- Node5 -->
<g id="Node000005" class="node">
<title>Node5</title>
<g id="a_Node000005"><a xlink:href="a00405.html#ga61d156b0e75424f9b630cef5c424ac13" target="_top" xlink:title="This function get the DLC enum based decimal value.">
<polygon fill="white" stroke="#666666" points="701,-142 567,-142 567,-123 701,-123 701,-142"/>
<text text-anchor="middle" x="634" y="-130" font-family="Helvetica,sans-Serif" font-size="10.00">CAN1_DlcToDataBytesGet</text>
</a>
</g>
</g>
<!-- Node4&#45;&gt;Node5 -->
<g id="edge4_Node000004_Node000005" class="edge">
<title>Node4&#45;&gt;Node5</title>
<g id="a_edge4_Node000004_Node000005"><a xlink:title=" ">
<path fill="none" stroke="#63b8ff" d="M520.25,-132.5C532.24,-132.5 544.69,-132.5 556.75,-132.5"/>
<polygon fill="#63b8ff" stroke="#63b8ff" points="556.78,-136 566.78,-132.5 556.78,-129 556.78,-136"/>
</a>
</g>
</g>
<!-- Node9&#45;&gt;Node3 -->
<g id="edge9_Node000009_Node000003" class="edge">
<title>Node9&#45;&gt;Node3</title>
<g id="a_edge9_Node000009_Node000003"><a xlink:title=" ">
<path fill="none" stroke="#63b8ff" d="M325.16,-180.15C344.63,-178.42 365.05,-176.61 383.4,-174.98"/>
<polygon fill="#63b8ff" stroke="#63b8ff" points="383.72,-178.46 393.37,-174.09 383.1,-171.49 383.72,-178.46"/>
</a>
</g>
</g>
<!-- Node9&#45;&gt;Node8 -->
<g id="edge11_Node000009_Node000008" class="edge">
<title>Node9&#45;&gt;Node8</title>
<g id="a_edge11_Node000009_Node000008"><a xlink:title=" ">
<path fill="none" stroke="#63b8ff" d="M325.16,-195.26C339.24,-196.58 353.81,-197.94 367.75,-199.25"/>
<polygon fill="#63b8ff" stroke="#63b8ff" points="367.48,-202.74 377.76,-200.19 368.13,-195.77 367.48,-202.74"/>
</a>
</g>
</g>
<!-- Node10 -->
<g id="Node000010" class="node">
<title>Node10</title>
<g id="a_Node000010"><a xlink:href="a00405.html#ga5532c9a884cedd0805a011bf8baaabdd" target="_top" xlink:title="This function get the Receiver FIFO message index value.">
<polygon fill="white" stroke="#666666" points="531,-253 361,-253 361,-234 531,-234 531,-253"/>
<text text-anchor="middle" x="446" y="-241" font-family="Helvetica,sans-Serif" font-size="10.00">CAN1_RX_FIFO_MessageIndexGet</text>
</a>
</g>
</g>
<!-- Node9&#45;&gt;Node10 -->
<g id="edge10_Node000009_Node000010" class="edge">
<title>Node9&#45;&gt;Node10</title>
<g id="a_edge10_Node000009_Node000010"><a xlink:title=" ">
<path fill="none" stroke="#63b8ff" d="M269.57,-197.03C293.44,-205.23 329.27,-217.04 361,-225.5 369.18,-227.68 377.87,-229.78 386.43,-231.73"/>
<polygon fill="#63b8ff" stroke="#63b8ff" points="385.87,-235.19 396.39,-233.94 387.38,-228.36 385.87,-235.19"/>
</a>
</g>
</g>
<!-- Node12 -->
<g id="Node000012" class="node">
<title>Node12</title>
<g id="a_Node000012"><a xlink:href="a00421.html#ga7048b9c95d3c78e856b4af93f8bac646" target="_top" xlink:title="This inline function checks whether mailbox is empty. Returns true if Protocol is empty indicating ma...">
<polygon fill="white" stroke="#666666" points="522,-19 370,-19 370,0 522,0 522,-19"/>
<text text-anchor="middle" x="446" y="-7" font-family="Helvetica,sans-Serif" font-size="10.00">SEC_CORE1_ProtocolIsEmpty</text>
</a>
</g>
</g>
<!-- Node11&#45;&gt;Node12 -->
<g id="edge13_Node000011_Node000012" class="edge">
<title>Node11&#45;&gt;Node12</title>
<g id="a_edge13_Node000011_Node000012"><a xlink:title=" ">
<path fill="none" stroke="#63b8ff" d="M287.44,-42.96C317.72,-36.53 357.85,-28 390.04,-21.17"/>
<polygon fill="#63b8ff" stroke="#63b8ff" points="391.13,-24.52 400.18,-19.02 389.68,-17.67 391.13,-24.52"/>
</a>
</g>
</g>
</g>
</svg>
