<?xml version="1.0" encoding="UTF-8" standalone="no"?>
<!DOCTYPE svg PUBLIC "-//W3C//DTD SVG 1.1//EN"
 "http://www.w3.org/Graphics/SVG/1.1/DTD/svg11.dtd">
<!-- Generated by graphviz version 8.1.0 (20230707.0739)
 -->
<!-- Title: Driver Layer Pages: 1 -->
<svg width="394pt" height="128pt"
 viewBox="0.00 0.00 393.50 128.00" xmlns="http://www.w3.org/2000/svg" xmlns:xlink="http://www.w3.org/1999/xlink">
<g id="graph0" class="graph" transform="scale(1 1) rotate(0) translate(4 124)">
<title>Driver Layer</title>
<!-- Node1 -->
<g id="Node000001" class="node">
<title>Node1</title>
<g id="a_Node000001"><a xlink:title="secondary Driver Layer">
<polygon fill="#999999" stroke="#666666" points="215.75,-70 148.75,-70 148.75,-50 215.75,-50 215.75,-70"/>
<text text-anchor="middle" x="182.25" y="-56.5" font-family="Helvetica,sans-Serif" font-size="10.00">Driver Layer</text>
</a>
</g>
</g>
<!-- Node3 -->
<g id="Node000003" class="node">
<title>Node3</title>
<g id="a_Node000003"><a xlink:href="a00423.html" target="_top" xlink:title="ADC Driver builds upon MCC driver.">
<polygon fill="white" stroke="#666666" points="351,-120 286.25,-120 286.25,-100 351,-100 351,-120"/>
<text text-anchor="middle" x="318.62" y="-106.5" font-family="Helvetica,sans-Serif" font-size="10.00">ADC driver.</text>
</a>
</g>
</g>
<!-- Node1&#45;&gt;Node3 -->
<g id="edge2" class="edge">
<title>Node1&#45;&gt;Node3</title>
<path fill="none" stroke="black" d="M213.93,-75.02C225.62,-80.44 239.15,-86.36 251.75,-91 262.7,-95.03 274.92,-98.76 285.83,-101.83"/>
<polygon fill="black" stroke="black" points="215.75,-71.54 205.21,-70.44 212.76,-77.87 215.75,-71.54"/>
</g>
<!-- Node4 -->
<g id="Node000004" class="node">
<title>Node4</title>
<g id="a_Node000004"><a xlink:href="a00424.html" target="_top" xlink:title="MSI driver.">
<polygon fill="white" stroke="#666666" points="385.5,-82 251.75,-82 251.75,-38 385.5,-38 385.5,-82"/>
<text text-anchor="start" x="259.75" y="-68.5" font-family="Helvetica,sans-Serif" font-size="10.00">MSI Driver. Commuincation</text>
<text text-anchor="start" x="259.75" y="-56.5" font-family="Helvetica,sans-Serif" font-size="10.00"> Interface between Primary</text>
<text text-anchor="middle" x="318.62" y="-44.5" font-family="Helvetica,sans-Serif" font-size="10.00"> and Secondary Cores</text>
</a>
</g>
</g>
<!-- Node1&#45;&gt;Node4 -->
<g id="edge3" class="edge">
<title>Node1&#45;&gt;Node4</title>
<path fill="none" stroke="black" d="M226.86,-60C234.73,-60 243.09,-60 251.43,-60"/>
<polygon fill="black" stroke="black" points="227.12,-56.5 217.12,-60 227.12,-63.5 227.12,-56.5"/>
</g>
<!-- Node5 -->
<g id="Node000005" class="node">
<title>Node5</title>
<g id="a_Node000005"><a xlink:href="a00426.html" target="_top" xlink:title="The Power Control layer contains the state machine managing the power converter.">
<polygon fill="white" stroke="#666666" points="357,-20 280.25,-20 280.25,0 357,0 357,-20"/>
<text text-anchor="middle" x="318.62" y="-6.5" font-family="Helvetica,sans-Serif" font-size="10.00">Power Control</text>
</a>
</g>
</g>
<!-- Node1&#45;&gt;Node5 -->
<g id="edge4" class="edge">
<title>Node1&#45;&gt;Node5</title>
<path fill="none" stroke="black" d="M213.93,-44.98C225.62,-39.56 239.15,-33.64 251.75,-29 260.8,-25.67 270.71,-22.54 280.04,-19.83"/>
<polygon fill="black" stroke="black" points="212.76,-42.13 205.21,-49.56 215.75,-48.46 212.76,-42.13"/>
</g>
<!-- Node2 -->
<g id="Node000002" class="node">
<title>Node2</title>
<g id="a_Node000002"><a xlink:href="a00394.html" target="_top" xlink:title="Functions performed by the secondary core of the dsPIC33CH.">
<polygon fill="white" stroke="#666666" points="112.75,-70 0,-70 0,-50 112.75,-50 112.75,-70"/>
<text text-anchor="middle" x="56.38" y="-56.5" font-family="Helvetica,sans-Serif" font-size="10.00">Secondary Core Layer</text>
</a>
</g>
</g>
<!-- Node2&#45;&gt;Node1 -->
<g id="edge1" class="edge">
<title>Node2&#45;&gt;Node1</title>
<path fill="none" stroke="black" d="M123.94,-60C132.44,-60 140.83,-60 148.46,-60"/>
<polygon fill="black" stroke="black" points="124.15,-56.5 114.15,-60 124.15,-63.5 124.15,-56.5"/>
</g>
</g>
</svg>
