<?xml version="1.0" encoding="UTF-8" standalone="no"?>
<!DOCTYPE svg PUBLIC "-//W3C//DTD SVG 1.1//EN"
 "http://www.w3.org/Graphics/SVG/1.1/DTD/svg11.dtd">
<!-- Generated by graphviz version 2.44.1 (20200629.0846)
 -->
<!-- Title: PWM_OverrideLowEnable Pages: 1 -->
<svg width="905pt" height="344pt"
 viewBox="0.00 0.00 905.00 344.00" xmlns="http://www.w3.org/2000/svg" xmlns:xlink="http://www.w3.org/1999/xlink">
<g id="graph0" class="graph" transform="scale(1 1) rotate(0) translate(4 340)">
<title>PWM_OverrideLowEnable</title>
<!-- Node1 -->
<g id="Node000001" class="node">
<title>Node1</title>
<g id="a_Node000001"><a xlink:title="This inline function enables PWM override on PWML output for specific PWM generator selected by the a...">
<polygon fill="#999999" stroke="#666666" points="897,-219 768,-219 768,-200 897,-200 897,-219"/>
<text text-anchor="middle" x="832.5" y="-207" font-family="Helvetica,sans-Serif" font-size="10.00">PWM_OverrideLowEnable</text>
</a>
</g>
</g>
<!-- Node2 -->
<g id="Node000002" class="node">
<title>Node2</title>
<g id="a_Node000002"><a xlink:href="a00371.html#a51a90512029dd0d15f013ea8548c5e7c" target="_top" xlink:title=" ">
<polygon fill="white" stroke="#666666" points="721,-299 633,-299 633,-280 721,-280 721,-299"/>
<text text-anchor="middle" x="677" y="-287" font-family="Helvetica,sans-Serif" font-size="10.00">BurstMode_PHx</text>
</a>
</g>
</g>
<!-- Node1&#45;&gt;Node2 -->
<g id="edge1_Node000001_Node000002" class="edge">
<title>Node1&#45;&gt;Node2</title>
<g id="a_edge1_Node000001_Node000002"><a xlink:title=" ">
<path fill="none" stroke="#63b8ff" d="M810.01,-224.97C790.41,-238.57 760.27,-258.21 732,-271.5 725.29,-274.65 717.88,-277.5 710.75,-279.96"/>
<polygon fill="#63b8ff" stroke="#63b8ff" points="812.07,-227.8 818.24,-219.19 808.04,-222.08 812.07,-227.8"/>
</a>
</g>
</g>
<!-- Node8 -->
<g id="Node000008" class="node">
<title>Node8</title>
<g id="a_Node000008"><a xlink:href="a00371.html#a69847930c99b34bceb7165143cd28b92" target="_top" xlink:title=" ">
<polygon fill="white" stroke="#666666" points="708,-262 646,-262 646,-243 708,-243 708,-262"/>
<text text-anchor="middle" x="677" y="-250" font-family="Helvetica,sans-Serif" font-size="10.00">CCM_PHx</text>
</a>
</g>
</g>
<!-- Node1&#45;&gt;Node8 -->
<g id="edge7_Node000001_Node000008" class="edge">
<title>Node1&#45;&gt;Node8</title>
<g id="a_edge7_Node000001_Node000008"><a xlink:title=" ">
<path fill="none" stroke="#63b8ff" d="M787.64,-221.79C762.17,-228.92 730.75,-237.72 708.08,-244.07"/>
<polygon fill="#63b8ff" stroke="#63b8ff" points="788.75,-225.11 797.43,-219.04 786.86,-218.37 788.75,-225.11"/>
</a>
</g>
</g>
<!-- Node9 -->
<g id="Node000009" class="node">
<title>Node9</title>
<g id="a_Node000009"><a xlink:href="a00365.html#a315b78111431dff7a91b13e42f9133b1" target="_top" xlink:title="stop and reset power controller">
<polygon fill="white" stroke="#666666" points="430,-93 289,-93 289,-74 430,-74 430,-93"/>
<text text-anchor="middle" x="359.5" y="-81" font-family="Helvetica,sans-Serif" font-size="10.00">Drv_PwrCtrl_TPBLPFC_Stop</text>
</a>
</g>
</g>
<!-- Node1&#45;&gt;Node9 -->
<g id="edge9_Node000001_Node000009" class="edge">
<title>Node1&#45;&gt;Node9</title>
<g id="a_edge9_Node000001_Node000009"><a xlink:title=" ">
<path fill="none" stroke="#63b8ff" d="M817.94,-192.21C800.53,-171.43 768.2,-137.36 732,-121.5 633.72,-78.43 507.25,-75.17 430.11,-78.24"/>
<polygon fill="#63b8ff" stroke="#63b8ff" points="815.23,-194.43 824.26,-199.97 820.65,-190 815.23,-194.43"/>
</a>
</g>
</g>
<!-- Node15 -->
<g id="Node000015" class="node">
<title>Node15</title>
<g id="a_Node000015"><a xlink:href="a00371.html#ad3476b7cd98e6a22a65e1d89b7a59ea5" target="_top" xlink:title=" ">
<polygon fill="white" stroke="#666666" points="732,-224.5 622,-224.5 622,-194.5 732,-194.5 732,-224.5"/>
<text text-anchor="start" x="630" y="-212.5" font-family="Helvetica,sans-Serif" font-size="10.00">SoftstartAfterZC_PHx</text>
<text text-anchor="middle" x="677" y="-201.5" font-family="Helvetica,sans-Serif" font-size="10.00">_GTIMode</text>
</a>
</g>
</g>
<!-- Node1&#45;&gt;Node15 -->
<g id="edge20_Node000001_Node000015" class="edge">
<title>Node1&#45;&gt;Node15</title>
<g id="a_edge20_Node000001_Node000015"><a xlink:title=" ">
<path fill="none" stroke="#63b8ff" d="M757.65,-209.5C749.02,-209.5 740.34,-209.5 732.05,-209.5"/>
<polygon fill="#63b8ff" stroke="#63b8ff" points="757.74,-213 767.74,-209.5 757.74,-206 757.74,-213"/>
</a>
</g>
</g>
<!-- Node16 -->
<g id="Node000016" class="node">
<title>Node16</title>
<g id="a_Node000016"><a xlink:href="a00371.html#a3e7091905b384bca668f6f12a50834f4" target="_top" xlink:title=" ">
<polygon fill="white" stroke="#666666" points="732,-176.5 622,-176.5 622,-146.5 732,-146.5 732,-176.5"/>
<text text-anchor="start" x="630" y="-164.5" font-family="Helvetica,sans-Serif" font-size="10.00">SoftstartAfterZC_PHx</text>
<text text-anchor="middle" x="677" y="-153.5" font-family="Helvetica,sans-Serif" font-size="10.00">_PFCMode</text>
</a>
</g>
</g>
<!-- Node1&#45;&gt;Node16 -->
<g id="edge22_Node000001_Node000016" class="edge">
<title>Node1&#45;&gt;Node16</title>
<g id="a_edge22_Node000001_Node000016"><a xlink:title=" ">
<path fill="none" stroke="#63b8ff" d="M791.11,-196.87C771.2,-190.64 747.04,-183.09 726.17,-176.56"/>
<polygon fill="#63b8ff" stroke="#63b8ff" points="790.22,-200.26 800.81,-199.9 792.31,-193.58 790.22,-200.26"/>
</a>
</g>
</g>
<!-- Node17 -->
<g id="Node000017" class="node">
<title>Node17</title>
<g id="a_Node000017"><a xlink:href="a00371.html#a3c1c3278a759d0a53b473f7ee8786d12" target="_top" xlink:title="Vout dV/dT check.">
<polygon fill="white" stroke="#666666" points="586,-147 466,-147 466,-128 586,-128 586,-147"/>
<text text-anchor="middle" x="526" y="-135" font-family="Helvetica,sans-Serif" font-size="10.00">VOUT_HystereticCheck</text>
</a>
</g>
</g>
<!-- Node1&#45;&gt;Node17 -->
<g id="edge24_Node000001_Node000017" class="edge">
<title>Node1&#45;&gt;Node17</title>
<g id="a_edge24_Node000001_Node000017"><a xlink:title=" ">
<path fill="none" stroke="#63b8ff" d="M815.04,-192.43C796.71,-174.76 765.25,-148.27 732,-137.5 684.77,-122.2 628.14,-123.58 586.38,-128"/>
<polygon fill="#63b8ff" stroke="#63b8ff" points="812.94,-195.27 822.5,-199.84 817.87,-190.31 812.94,-195.27"/>
</a>
</g>
</g>
<!-- Node18 -->
<g id="Node000018" class="node">
<title>Node18</title>
<g id="a_Node000018"><a xlink:href="a00371.html#a9d01eea56aae5f1437eb541a321277cc" target="_top" xlink:title=" ">
<polygon fill="white" stroke="#666666" points="719.5,-336 634.5,-336 634.5,-317 719.5,-317 719.5,-336"/>
<text text-anchor="middle" x="677" y="-324" font-family="Helvetica,sans-Serif" font-size="10.00">ZeroCross_PHx</text>
</a>
</g>
</g>
<!-- Node1&#45;&gt;Node18 -->
<g id="edge26_Node000001_Node000018" class="edge">
<title>Node1&#45;&gt;Node18</title>
<g id="a_edge26_Node000001_Node000018"><a xlink:title=" ">
<path fill="none" stroke="#63b8ff" d="M818,-227.28C800.43,-249.26 767.74,-286.48 732,-308.5 726.62,-311.82 720.55,-314.6 714.48,-316.91"/>
<polygon fill="#63b8ff" stroke="#63b8ff" points="820.96,-229.17 824.37,-219.14 815.45,-224.86 820.96,-229.17"/>
</a>
</g>
</g>
<!-- Node3 -->
<g id="Node000003" class="node">
<title>Node3</title>
<g id="a_Node000003"><a xlink:href="a00371.html#a647fd6dacbfbcebe49cc34111a01493b" target="_top" xlink:title=" ">
<polygon fill="white" stroke="#666666" points="563,-219 489,-219 489,-200 563,-200 563,-219"/>
<text text-anchor="middle" x="526" y="-207" font-family="Helvetica,sans-Serif" font-size="10.00">Handler_PHx</text>
</a>
</g>
</g>
<!-- Node2&#45;&gt;Node3 -->
<g id="edge2_Node000002_Node000003" class="edge">
<title>Node2&#45;&gt;Node3</title>
<g id="a_edge2_Node000002_Node000003"><a xlink:title=" ">
<path fill="none" stroke="#63b8ff" d="M633.28,-276.41C629.41,-274.88 625.6,-273.24 622,-271.5 590.43,-256.25 556.84,-232.23 539.29,-219.01"/>
<polygon fill="#63b8ff" stroke="#63b8ff" points="632.32,-279.78 642.91,-279.97 634.75,-273.22 632.32,-279.78"/>
</a>
</g>
</g>
<!-- Node4 -->
<g id="Node000004" class="node">
<title>Node4</title>
<g id="a_Node000004"><a xlink:href="a00371.html#aa7b8e2dc355948aa24cf22ca82f9e805" target="_top" xlink:title=" ">
<polygon fill="white" stroke="#666666" points="422,-167 297,-167 297,-148 422,-148 422,-167"/>
<text text-anchor="middle" x="359.5" y="-155" font-family="Helvetica,sans-Serif" font-size="10.00">Application_handler_PH1</text>
</a>
</g>
</g>
<!-- Node3&#45;&gt;Node4 -->
<g id="edge3_Node000003_Node000004" class="edge">
<title>Node3&#45;&gt;Node4</title>
<g id="a_edge3_Node000003_Node000004"><a xlink:title=" ">
<path fill="none" stroke="#63b8ff" d="M484.99,-196.85C455.95,-187.67 417.25,-175.44 390.76,-167.07"/>
<polygon fill="#63b8ff" stroke="#63b8ff" points="484.24,-200.29 494.83,-199.96 486.35,-193.61 484.24,-200.29"/>
</a>
</g>
</g>
<!-- Node6 -->
<g id="Node000006" class="node">
<title>Node6</title>
<g id="a_Node000006"><a xlink:href="a00371.html#a87fa9190951df7c866d828b8ad7b526b" target="_top" xlink:title=" ">
<polygon fill="white" stroke="#666666" points="422,-215 297,-215 297,-196 422,-196 422,-215"/>
<text text-anchor="middle" x="359.5" y="-203" font-family="Helvetica,sans-Serif" font-size="10.00">Application_handler_PH2</text>
</a>
</g>
</g>
<!-- Node3&#45;&gt;Node6 -->
<g id="edge5_Node000003_Node000006" class="edge">
<title>Node3&#45;&gt;Node6</title>
<g id="a_edge5_Node000003_Node000006"><a xlink:title=" ">
<path fill="none" stroke="#63b8ff" d="M478.88,-208.38C461.27,-207.95 440.89,-207.45 422.07,-207"/>
<polygon fill="#63b8ff" stroke="#63b8ff" points="478.82,-211.88 488.9,-208.62 478.99,-204.88 478.82,-211.88"/>
</a>
</g>
</g>
<!-- Node5 -->
<g id="Node000005" class="node">
<title>Node5</title>
<g id="a_Node000005"><a xlink:href="a00347.html#a968747854ba14331aa9f85784178d0da" target="_top" xlink:title=" ">
<polygon fill="white" stroke="#666666" points="229.5,-167 133.5,-167 133.5,-148 229.5,-148 229.5,-167"/>
<text text-anchor="middle" x="181.5" y="-155" font-family="Helvetica,sans-Serif" font-size="10.00">_ADCAN0Interrupt</text>
</a>
</g>
</g>
<!-- Node4&#45;&gt;Node5 -->
<g id="edge4_Node000004_Node000005" class="edge">
<title>Node4&#45;&gt;Node5</title>
<g id="a_edge4_Node000004_Node000005"><a xlink:title=" ">
<path fill="none" stroke="#63b8ff" d="M286.69,-157.5C267.45,-157.5 247.13,-157.5 229.6,-157.5"/>
<polygon fill="#63b8ff" stroke="#63b8ff" points="286.94,-161 296.94,-157.5 286.94,-154 286.94,-161"/>
</a>
</g>
</g>
<!-- Node7 -->
<g id="Node000007" class="node">
<title>Node7</title>
<g id="a_Node000007"><a xlink:href="a00347.html#a6ac2591aa2e32874156ad3f8bf477d2f" target="_top" xlink:title=" ">
<polygon fill="white" stroke="#666666" points="229.5,-213 133.5,-213 133.5,-194 229.5,-194 229.5,-213"/>
<text text-anchor="middle" x="181.5" y="-201" font-family="Helvetica,sans-Serif" font-size="10.00">_ADCAN1Interrupt</text>
</a>
</g>
</g>
<!-- Node6&#45;&gt;Node7 -->
<g id="edge6_Node000006_Node000007" class="edge">
<title>Node6&#45;&gt;Node7</title>
<g id="a_edge6_Node000006_Node000007"><a xlink:title=" ">
<path fill="none" stroke="#63b8ff" d="M286.69,-204.68C267.45,-204.47 247.13,-204.23 229.6,-204.04"/>
<polygon fill="#63b8ff" stroke="#63b8ff" points="286.9,-208.19 296.94,-204.8 286.98,-201.19 286.9,-208.19"/>
</a>
</g>
</g>
<!-- Node8&#45;&gt;Node3 -->
<g id="edge8_Node000008_Node000003" class="edge">
<title>Node8&#45;&gt;Node3</title>
<g id="a_edge8_Node000008_Node000003"><a xlink:title=" ">
<path fill="none" stroke="#63b8ff" d="M636.06,-240.97C612.25,-234.1 582.4,-225.49 559.96,-219.01"/>
<polygon fill="#63b8ff" stroke="#63b8ff" points="635.27,-244.39 645.85,-243.8 637.21,-237.66 635.27,-244.39"/>
</a>
</g>
</g>
<!-- Node9&#45;&gt;Node5 -->
<g id="edge10_Node000009_Node000005" class="edge">
<title>Node9&#45;&gt;Node5</title>
<g id="a_edge10_Node000009_Node000005"><a xlink:title=" ">
<path fill="none" stroke="#63b8ff" d="M334.07,-98.18C313.13,-110.29 281.87,-127.24 253,-138.5 243.79,-142.09 233.65,-145.26 223.99,-147.93"/>
<polygon fill="#63b8ff" stroke="#63b8ff" points="336.06,-101.07 342.92,-93 332.52,-95.03 336.06,-101.07"/>
</a>
</g>
</g>
<!-- Node9&#45;&gt;Node7 -->
<g id="edge11_Node000009_Node000007" class="edge">
<title>Node9&#45;&gt;Node7</title>
<g id="a_edge11_Node000009_Node000007"><a xlink:title=" ">
<path fill="none" stroke="#63b8ff" d="M337.19,-99.23C323.13,-109.87 304.51,-124.5 289,-138.5 271.97,-153.87 272.08,-162.76 253,-175.5 241.39,-183.25 227.31,-189.38 214.79,-193.91"/>
<polygon fill="#63b8ff" stroke="#63b8ff" points="339.38,-101.95 345.28,-93.15 335.18,-96.35 339.38,-101.95"/>
</a>
</g>
</g>
<!-- Node10 -->
<g id="Node000010" class="node">
<title>Node10</title>
<g id="a_Node000010"><a xlink:href="a00431.html#ga6a8f059084b08dc82c20c9d8e714152a" target="_top" xlink:title="check run bit during soft start">
<polygon fill="white" stroke="#666666" points="239.5,-130 123.5,-130 123.5,-111 239.5,-111 239.5,-130"/>
<text text-anchor="middle" x="181.5" y="-118" font-family="Helvetica,sans-Serif" font-size="10.00">SoftStart_StateHandler</text>
</a>
</g>
</g>
<!-- Node9&#45;&gt;Node10 -->
<g id="edge12_Node000009_Node000010" class="edge">
<title>Node9&#45;&gt;Node10</title>
<g id="a_edge12_Node000009_Node000010"><a xlink:title=" ">
<path fill="none" stroke="#63b8ff" d="M303.07,-95.15C278.9,-100.23 250.9,-106.12 227.98,-110.94"/>
<polygon fill="#63b8ff" stroke="#63b8ff" points="304.11,-98.51 313.18,-93.03 302.67,-91.66 304.11,-98.51"/>
</a>
</g>
</g>
<!-- Node12 -->
<g id="Node000012" class="node">
<title>Node12</title>
<g id="a_Node000012"><a xlink:href="a00431.html#ga5c3037f09ca5d5feb40ca3c3aa16dc90" target="_top" xlink:title="up and running state">
<polygon fill="white" stroke="#666666" points="253,-93 110,-93 110,-74 253,-74 253,-93"/>
<text text-anchor="middle" x="181.5" y="-81" font-family="Helvetica,sans-Serif" font-size="10.00">UpAndRunning_StateHandler</text>
</a>
</g>
</g>
<!-- Node9&#45;&gt;Node12 -->
<g id="edge14_Node000009_Node000012" class="edge">
<title>Node9&#45;&gt;Node12</title>
<g id="a_edge14_Node000009_Node000012"><a xlink:title=" ">
<path fill="none" stroke="#63b8ff" d="M278.68,-83.5C270.21,-83.5 261.64,-83.5 253.29,-83.5"/>
<polygon fill="#63b8ff" stroke="#63b8ff" points="278.94,-87 288.94,-83.5 278.94,-80 278.94,-87"/>
</a>
</g>
</g>
<!-- Node13 -->
<g id="Node000013" class="node">
<title>Node13</title>
<g id="a_Node000013"><a xlink:href="a00431.html#ga4fc797d6e302efdf04cccc92f1094252" target="_top" xlink:title="check VACok flag(s) in fast while loop">
<polygon fill="white" stroke="#666666" points="223.5,-56 139.5,-56 139.5,-37 223.5,-37 223.5,-56"/>
<text text-anchor="middle" x="181.5" y="-44" font-family="Helvetica,sans-Serif" font-size="10.00">VACOK_Check</text>
</a>
</g>
</g>
<!-- Node9&#45;&gt;Node13 -->
<g id="edge16_Node000009_Node000013" class="edge">
<title>Node9&#45;&gt;Node13</title>
<g id="a_edge16_Node000009_Node000013"><a xlink:title=" ">
<path fill="none" stroke="#63b8ff" d="M303.19,-71.87C277.48,-66.47 247.44,-60.15 223.76,-55.17"/>
<polygon fill="#63b8ff" stroke="#63b8ff" points="302.67,-75.34 313.18,-73.97 304.11,-68.49 302.67,-75.34"/>
</a>
</g>
</g>
<!-- Node14 -->
<g id="Node000014" class="node">
<title>Node14</title>
<g id="a_Node000014"><a xlink:href="a00431.html#gacc4bae28b11e678430b4ecb1b2f52144" target="_top" xlink:title="delay before relay on">
<polygon fill="white" stroke="#666666" points="248.5,-19 114.5,-19 114.5,0 248.5,0 248.5,-19"/>
<text text-anchor="middle" x="181.5" y="-7" font-family="Helvetica,sans-Serif" font-size="10.00">VoutPreLoad_StateHandler</text>
</a>
</g>
</g>
<!-- Node9&#45;&gt;Node14 -->
<g id="edge18_Node000009_Node000014" class="edge">
<title>Node9&#45;&gt;Node14</title>
<g id="a_edge18_Node000009_Node000014"><a xlink:title=" ">
<path fill="none" stroke="#63b8ff" d="M334.51,-68.64C313.62,-56.22 282.18,-38.78 253,-27.5 244.63,-24.27 235.49,-21.44 226.63,-19.05"/>
<polygon fill="#63b8ff" stroke="#63b8ff" points="332.95,-71.78 343.32,-73.95 336.56,-65.79 332.95,-71.78"/>
</a>
</g>
</g>
<!-- Node11 -->
<g id="Node000011" class="node">
<title>Node11</title>
<g id="a_Node000011"><a xlink:href="a00431.html#ga97fda594ad396d08b6a833ebb3b04538" target="_top" xlink:title="tasks run every 100us">
<polygon fill="white" stroke="#666666" points="74,-74 0,-74 0,-55 74,-55 74,-74"/>
<text text-anchor="middle" x="37" y="-62" font-family="Helvetica,sans-Serif" font-size="10.00">Tasks_100us</text>
</a>
</g>
</g>
<!-- Node10&#45;&gt;Node11 -->
<g id="edge13_Node000010_Node000011" class="edge">
<title>Node10&#45;&gt;Node11</title>
<g id="a_edge13_Node000010_Node000011"><a xlink:title=" ">
<path fill="none" stroke="#63b8ff" d="M129.66,-108.19C122.98,-106.16 116.28,-103.93 110,-101.5 90.08,-93.8 68.43,-82.2 54.13,-74.04"/>
<polygon fill="#63b8ff" stroke="#63b8ff" points="128.81,-111.58 139.39,-110.99 130.75,-104.86 128.81,-111.58"/>
</a>
</g>
</g>
<!-- Node12&#45;&gt;Node11 -->
<g id="edge15_Node000012_Node000011" class="edge">
<title>Node12&#45;&gt;Node11</title>
<g id="a_edge15_Node000012_Node000011"><a xlink:title=" ">
<path fill="none" stroke="#63b8ff" d="M99.61,-72.71C90.75,-71.53 82.09,-70.38 74.2,-69.33"/>
<polygon fill="#63b8ff" stroke="#63b8ff" points="99.29,-76.2 109.67,-74.06 100.22,-69.26 99.29,-76.2"/>
</a>
</g>
</g>
<!-- Node13&#45;&gt;Node11 -->
<g id="edge17_Node000013_Node000011" class="edge">
<title>Node13&#45;&gt;Node11</title>
<g id="a_edge17_Node000013_Node000011"><a xlink:title=" ">
<path fill="none" stroke="#63b8ff" d="M129.13,-52.99C110.97,-55.28 90.93,-57.81 74.28,-59.92"/>
<polygon fill="#63b8ff" stroke="#63b8ff" points="129.8,-56.43 139.28,-51.71 128.92,-49.49 129.8,-56.43"/>
</a>
</g>
</g>
<!-- Node14&#45;&gt;Node11 -->
<g id="edge19_Node000014_Node000011" class="edge">
<title>Node14&#45;&gt;Node11</title>
<g id="a_edge19_Node000014_Node000011"><a xlink:title=" ">
<path fill="none" stroke="#63b8ff" d="M127.03,-21.79C121.22,-23.53 115.45,-25.43 110,-27.5 90.03,-35.07 68.39,-46.7 54.1,-54.89"/>
<polygon fill="#63b8ff" stroke="#63b8ff" points="128.11,-25.13 136.77,-19.03 126.2,-18.39 128.11,-25.13"/>
</a>
</g>
</g>
<!-- Node15&#45;&gt;Node3 -->
<g id="edge21_Node000015_Node000003" class="edge">
<title>Node15&#45;&gt;Node3</title>
<g id="a_edge21_Node000015_Node000003"><a xlink:title=" ">
<path fill="none" stroke="#63b8ff" d="M611.6,-209.5C595.05,-209.5 577.82,-209.5 563.27,-209.5"/>
<polygon fill="#63b8ff" stroke="#63b8ff" points="611.79,-213 621.79,-209.5 611.79,-206 611.79,-213"/>
</a>
</g>
</g>
<!-- Node16&#45;&gt;Node3 -->
<g id="edge23_Node000016_Node000003" class="edge">
<title>Node16&#45;&gt;Node3</title>
<g id="a_edge23_Node000016_Node000003"><a xlink:title=" ">
<path fill="none" stroke="#63b8ff" d="M619.61,-179.67C598.2,-186.56 574.67,-194.14 556.69,-199.94"/>
<polygon fill="#63b8ff" stroke="#63b8ff" points="620.82,-182.95 629.26,-176.56 618.67,-176.29 620.82,-182.95"/>
</a>
</g>
</g>
<!-- Node17&#45;&gt;Node4 -->
<g id="edge25_Node000017_Node000004" class="edge">
<title>Node17&#45;&gt;Node4</title>
<g id="a_edge25_Node000017_Node000004"><a xlink:title=" ">
<path fill="none" stroke="#63b8ff" d="M455.51,-145.95C444.38,-147.3 432.94,-148.69 422.02,-150.02"/>
<polygon fill="#63b8ff" stroke="#63b8ff" points="456.11,-149.4 465.61,-144.72 455.26,-142.45 456.11,-149.4"/>
</a>
</g>
</g>
<!-- Node18&#45;&gt;Node3 -->
<g id="edge27_Node000018_Node000003" class="edge">
<title>Node18&#45;&gt;Node3</title>
<g id="a_edge27_Node000018_Node000003"><a xlink:title=" ">
<path fill="none" stroke="#63b8ff" d="M629.78,-312.83C627.08,-311.5 624.47,-310.06 622,-308.5 582.54,-283.55 547.82,-238.77 533.71,-219.15"/>
<polygon fill="#63b8ff" stroke="#63b8ff" points="628.61,-316.13 639.17,-316.91 631.4,-309.71 628.61,-316.13"/>
</a>
</g>
</g>
</g>
</svg>
