<?xml version="1.0" encoding="UTF-8" standalone="no"?>
<!DOCTYPE svg PUBLIC "-//W3C//DTD SVG 1.1//EN"
 "http://www.w3.org/Graphics/SVG/1.1/DTD/svg11.dtd">
<!-- Generated by graphviz version 8.1.0 (20230707.0739)
 -->
<!-- Title: HOUSEKEEPING_STATUS_s Pages: 1 -->
<svg width="149pt" height="220pt"
 viewBox="0.00 0.00 149.00 220.00" xmlns="http://www.w3.org/2000/svg" xmlns:xlink="http://www.w3.org/1999/xlink">
<g id="graph0" class="graph" transform="scale(1 1) rotate(0) translate(4 216)">
<title>HOUSEKEEPING_STATUS_s</title>
<!-- Node1 -->
<g id="Node000001" class="node">
<title>Node1</title>
<g id="a_Node000001"><a xlink:title=" ">
<polygon fill="#999999" stroke="none" points="141,-212 0,-212 0,0 141,0 141,-212"/>
<text text-anchor="start" x="4.88" y="-198.5" font-family="Helvetica,sans-Serif" font-size="10.00">HOUSEKEEPING_STATUS_s</text>
<text text-anchor="start" x="17" y="-182.5" font-family="Helvetica,sans-Serif" font-size="10.00">+</text>
<text text-anchor="start" x="40" y="-182.5" font-family="Helvetica,sans-Serif" font-size="10.00">sic1_5v_ok</text>
<text text-anchor="start" x="17" y="-166.5" font-family="Helvetica,sans-Serif" font-size="10.00">+</text>
<text text-anchor="start" x="40" y="-166.5" font-family="Helvetica,sans-Serif" font-size="10.00">sic2_5v_ok</text>
<text text-anchor="start" x="17" y="-150.5" font-family="Helvetica,sans-Serif" font-size="10.00">+</text>
<text text-anchor="start" x="40" y="-150.5" font-family="Helvetica,sans-Serif" font-size="10.00">sic3_5v_ok</text>
<text text-anchor="start" x="17" y="-134.5" font-family="Helvetica,sans-Serif" font-size="10.00">+</text>
<text text-anchor="start" x="40" y="-134.5" font-family="Helvetica,sans-Serif" font-size="10.00">sic4_5v_ok</text>
<text text-anchor="start" x="17" y="-118.5" font-family="Helvetica,sans-Serif" font-size="10.00">+</text>
<text text-anchor="start" x="40" y="-118.5" font-family="Helvetica,sans-Serif" font-size="10.00">sic1_comms_ok</text>
<text text-anchor="start" x="17" y="-102.5" font-family="Helvetica,sans-Serif" font-size="10.00">+</text>
<text text-anchor="start" x="40" y="-102.5" font-family="Helvetica,sans-Serif" font-size="10.00">sic2_comms_ok</text>
<text text-anchor="start" x="17" y="-86.5" font-family="Helvetica,sans-Serif" font-size="10.00">+</text>
<text text-anchor="start" x="40" y="-86.5" font-family="Helvetica,sans-Serif" font-size="10.00">sic3_comms_ok</text>
<text text-anchor="start" x="17" y="-70.5" font-family="Helvetica,sans-Serif" font-size="10.00">+</text>
<text text-anchor="start" x="40" y="-70.5" font-family="Helvetica,sans-Serif" font-size="10.00">sic4_comms_ok</text>
<text text-anchor="start" x="17" y="-54.5" font-family="Helvetica,sans-Serif" font-size="10.00">+</text>
<text text-anchor="start" x="40" y="-54.5" font-family="Helvetica,sans-Serif" font-size="10.00">aux_5v_ok</text>
<text text-anchor="start" x="17" y="-38.5" font-family="Helvetica,sans-Serif" font-size="10.00">+</text>
<text text-anchor="start" x="40" y="-38.5" font-family="Helvetica,sans-Serif" font-size="10.00">aux_12v_ok</text>
<text text-anchor="start" x="40" y="-22.5" font-family="Helvetica,sans-Serif" font-size="10.00">and 8 more...</text>
<text text-anchor="start" x="69" y="-6.5" font-family="Helvetica,sans-Serif" font-size="10.00"> </text>
<polygon fill="#666666" stroke="#666666" points="0,-194 0,-194 141,-194 141,-194 0,-194"/>
<polygon fill="#666666" stroke="#666666" points="0,-18 0,-18 38,-18 38,-18 0,-18"/>
<polygon fill="#666666" stroke="#666666" points="38,-18 38,-18 141,-18 141,-18 38,-18"/>
<polygon fill="none" stroke="#666666" points="0,0 0,-212 141,-212 141,0 0,0"/>
</a>
</g>
</g>
</g>
</svg>
