<?xml version="1.0" encoding="UTF-8" standalone="no"?>
<!DOCTYPE svg PUBLIC "-//W3C//DTD SVG 1.1//EN"
 "http://www.w3.org/Graphics/SVG/1.1/DTD/svg11.dtd">
<!-- Generated by graphviz version 8.1.0 (20230707.0739)
 -->
<!-- Title: CAN1_RX_FIFO_MSG Pages: 1 -->
<svg width="115pt" height="76pt"
 viewBox="0.00 0.00 115.00 76.00" xmlns="http://www.w3.org/2000/svg" xmlns:xlink="http://www.w3.org/1999/xlink">
<g id="graph0" class="graph" transform="scale(1 1) rotate(0) translate(4 72)">
<title>CAN1_RX_FIFO_MSG</title>
<!-- Node1 -->
<g id="Node000001" class="node">
<title>Node1</title>
<g id="a_Node000001"><a xlink:title=" ">
<polygon fill="#999999" stroke="none" points="107,-68 0,-68 0,0 107,0 107,-68"/>
<text text-anchor="start" x="4.75" y="-54.5" font-family="Helvetica,sans-Serif" font-size="10.00">CAN1_RX_FIFO_MSG</text>
<text text-anchor="start" x="14.5" y="-38.5" font-family="Helvetica,sans-Serif" font-size="10.00">+</text>
<text text-anchor="start" x="35" y="-38.5" font-family="Helvetica,sans-Serif" font-size="10.00">channel</text>
<text text-anchor="start" x="14.5" y="-22.5" font-family="Helvetica,sans-Serif" font-size="10.00">+</text>
<text text-anchor="start" x="35" y="-22.5" font-family="Helvetica,sans-Serif" font-size="10.00">headCount</text>
<text text-anchor="start" x="52" y="-6.5" font-family="Helvetica,sans-Serif" font-size="10.00"> </text>
<polygon fill="#666666" stroke="#666666" points="0,-50 0,-50 107,-50 107,-50 0,-50"/>
<polygon fill="#666666" stroke="#666666" points="0,-18 0,-18 33,-18 33,-18 0,-18"/>
<polygon fill="#666666" stroke="#666666" points="33,-18 33,-18 107,-18 107,-18 33,-18"/>
<polygon fill="none" stroke="#666666" points="0,0 0,-68 107,-68 107,0 0,0"/>
</a>
</g>
</g>
</g>
</svg>
