<?xml version="1.0" encoding="UTF-8" standalone="no"?>
<!DOCTYPE svg PUBLIC "-//W3C//DTD SVG 1.1//EN"
 "http://www.w3.org/Graphics/SVG/1.1/DTD/svg11.dtd">
<!-- Generated by graphviz version 8.1.0 (20230707.0739)
 -->
<!-- Title: PWM_DutyCycleSet Pages: 1 -->
<svg width="660pt" height="147pt"
 viewBox="0.00 0.00 660.25 147.23" xmlns="http://www.w3.org/2000/svg" xmlns:xlink="http://www.w3.org/1999/xlink">
<g id="graph0" class="graph" transform="scale(1 1) rotate(0) translate(4 143.23)">
<title>PWM_DutyCycleSet</title>
<!-- Node1 -->
<g id="Node000001" class="node">
<title>Node1</title>
<g id="a_Node000001"><a xlink:title="This inline function sets the PWM generator specific duty cycle register.">
<polygon fill="#999999" stroke="#666666" points="652.25,-89 546.25,-89 546.25,-69 652.25,-69 652.25,-89"/>
<text text-anchor="middle" x="599.25" y="-75.5" font-family="Helvetica,sans-Serif" font-size="10.00">PWM_DutyCycleSet</text>
</a>
</g>
</g>
<!-- Node2 -->
<g id="Node000002" class="node">
<title>Node2</title>
<g id="a_Node000002"><a xlink:href="a00365.html#a647fd6dacbfbcebe49cc34111a01493b" target="_top" xlink:title=" ">
<polygon fill="white" stroke="#666666" points="365.25,-89 292.25,-89 292.25,-69 365.25,-69 365.25,-89"/>
<text text-anchor="middle" x="328.75" y="-75.5" font-family="Helvetica,sans-Serif" font-size="10.00">Handler_PHx</text>
</a>
</g>
</g>
<!-- Node1&#45;&gt;Node2 -->
<g id="edge1_Node000001_Node000002" class="edge">
<title>Node1&#45;&gt;Node2</title>
<g id="a_edge1_Node000001_Node000002"><a xlink:title=" ">
<path fill="none" stroke="#63b8ff" d="M576.6,-95.56C559.6,-107.46 534.76,-122.52 510.25,-129 463.41,-141.38 447.46,-143.55 401.25,-129 376.4,-121.17 352.67,-101.29 339.77,-89.09"/>
<polygon fill="#63b8ff" stroke="#63b8ff" points="578.15,-98.04 584.2,-89.34 574.04,-92.36 578.15,-98.04"/>
</a>
</g>
</g>
<!-- Node7 -->
<g id="Node000007" class="node">
<title>Node7</title>
<g id="a_Node000007"><a xlink:href="a00365.html#ad3476b7cd98e6a22a65e1d89b7a59ea5" target="_top" xlink:title=" ">
<polygon fill="white" stroke="#666666" points="510.25,-120 401.25,-120 401.25,-88 510.25,-88 510.25,-120"/>
<text text-anchor="start" x="409.25" y="-106.5" font-family="Helvetica,sans-Serif" font-size="10.00">SoftstartAfterZC_PHx</text>
<text text-anchor="middle" x="455.75" y="-94.5" font-family="Helvetica,sans-Serif" font-size="10.00">_GTIMode</text>
</a>
</g>
</g>
<!-- Node1&#45;&gt;Node7 -->
<g id="edge6_Node000001_Node000007" class="edge">
<title>Node1&#45;&gt;Node7</title>
<g id="a_edge6_Node000001_Node000007"><a xlink:title=" ">
<path fill="none" stroke="#63b8ff" d="M535.3,-90.12C527.1,-91.57 518.75,-93.05 510.72,-94.47"/>
<polygon fill="#63b8ff" stroke="#63b8ff" points="535.72,-93.42 544.96,-88.24 534.51,-86.53 535.72,-93.42"/>
</a>
</g>
</g>
<!-- Node8 -->
<g id="Node000008" class="node">
<title>Node8</title>
<g id="a_Node000008"><a xlink:href="a00365.html#a3e7091905b384bca668f6f12a50834f4" target="_top" xlink:title=" ">
<polygon fill="white" stroke="#666666" points="510.25,-70 401.25,-70 401.25,-38 510.25,-38 510.25,-70"/>
<text text-anchor="start" x="409.25" y="-56.5" font-family="Helvetica,sans-Serif" font-size="10.00">SoftstartAfterZC_PHx</text>
<text text-anchor="middle" x="455.75" y="-44.5" font-family="Helvetica,sans-Serif" font-size="10.00">_PFCMode</text>
</a>
</g>
</g>
<!-- Node1&#45;&gt;Node8 -->
<g id="edge8_Node000001_Node000008" class="edge">
<title>Node1&#45;&gt;Node8</title>
<g id="a_edge8_Node000001_Node000008"><a xlink:title=" ">
<path fill="none" stroke="#63b8ff" d="M535.3,-67.88C527.1,-66.43 518.75,-64.95 510.72,-63.53"/>
<polygon fill="#63b8ff" stroke="#63b8ff" points="534.51,-71.47 544.96,-69.76 535.72,-64.58 534.51,-71.47"/>
</a>
</g>
</g>
<!-- Node9 -->
<g id="Node000009" class="node">
<title>Node9</title>
<g id="a_Node000009"><a xlink:href="a00365.html#a9d01eea56aae5f1437eb541a321277cc" target="_top" xlink:title=" ">
<polygon fill="white" stroke="#666666" points="497.88,-20 413.62,-20 413.62,0 497.88,0 497.88,-20"/>
<text text-anchor="middle" x="455.75" y="-6.5" font-family="Helvetica,sans-Serif" font-size="10.00">ZeroCross_PHx</text>
</a>
</g>
</g>
<!-- Node1&#45;&gt;Node9 -->
<g id="edge10_Node000001_Node000009" class="edge">
<title>Node1&#45;&gt;Node9</title>
<g id="a_edge10_Node000001_Node000009"><a xlink:title=" ">
<path fill="none" stroke="#63b8ff" d="M572.47,-62.76C555.26,-52.32 531.89,-38.9 510.25,-29 503.53,-25.93 496.15,-23.02 489.08,-20.45"/>
<polygon fill="#63b8ff" stroke="#63b8ff" points="570.49,-66.26 580.84,-68.52 574.15,-60.3 570.49,-66.26"/>
</a>
</g>
</g>
<!-- Node3 -->
<g id="Node000003" class="node">
<title>Node3</title>
<g id="a_Node000003"><a xlink:href="a00365.html#aa7b8e2dc355948aa24cf22ca82f9e805" target="_top" xlink:title=" ">
<polygon fill="white" stroke="#666666" points="256.25,-108 131.5,-108 131.5,-88 256.25,-88 256.25,-108"/>
<text text-anchor="middle" x="193.88" y="-94.5" font-family="Helvetica,sans-Serif" font-size="10.00">Application_handler_PH1</text>
</a>
</g>
</g>
<!-- Node2&#45;&gt;Node3 -->
<g id="edge2_Node000002_Node000003" class="edge">
<title>Node2&#45;&gt;Node3</title>
<g id="a_edge2_Node000002_Node000003"><a xlink:title=" ">
<path fill="none" stroke="#63b8ff" d="M281.01,-85.68C273.15,-86.81 264.89,-87.99 256.72,-89.16"/>
<polygon fill="#63b8ff" stroke="#63b8ff" points="281.39,-89.02 290.79,-84.14 280.4,-82.09 281.39,-89.02"/>
</a>
</g>
</g>
<!-- Node5 -->
<g id="Node000005" class="node">
<title>Node5</title>
<g id="a_Node000005"><a xlink:href="a00365.html#a87fa9190951df7c866d828b8ad7b526b" target="_top" xlink:title=" ">
<polygon fill="white" stroke="#666666" points="256.25,-70 131.5,-70 131.5,-50 256.25,-50 256.25,-70"/>
<text text-anchor="middle" x="193.88" y="-56.5" font-family="Helvetica,sans-Serif" font-size="10.00">Application_handler_PH2</text>
</a>
</g>
</g>
<!-- Node2&#45;&gt;Node5 -->
<g id="edge4_Node000002_Node000005" class="edge">
<title>Node2&#45;&gt;Node5</title>
<g id="a_edge4_Node000002_Node000005"><a xlink:title=" ">
<path fill="none" stroke="#63b8ff" d="M281.01,-72.32C273.15,-71.19 264.89,-70.01 256.72,-68.84"/>
<polygon fill="#63b8ff" stroke="#63b8ff" points="280.4,-75.91 290.79,-73.86 281.39,-68.98 280.4,-75.91"/>
</a>
</g>
</g>
<!-- Node4 -->
<g id="Node000004" class="node">
<title>Node4</title>
<g id="a_Node000004"><a xlink:href="a00341.html#a968747854ba14331aa9f85784178d0da" target="_top" xlink:title=" ">
<polygon fill="white" stroke="#666666" points="95.5,-108 0,-108 0,-88 95.5,-88 95.5,-108"/>
<text text-anchor="middle" x="47.75" y="-94.5" font-family="Helvetica,sans-Serif" font-size="10.00">_ADCAN0Interrupt</text>
</a>
</g>
</g>
<!-- Node3&#45;&gt;Node4 -->
<g id="edge3_Node000003_Node000004" class="edge">
<title>Node3&#45;&gt;Node4</title>
<g id="a_edge3_Node000003_Node000004"><a xlink:title=" ">
<path fill="none" stroke="#63b8ff" d="M120.35,-98C111.98,-98 103.6,-98 95.7,-98"/>
<polygon fill="#63b8ff" stroke="#63b8ff" points="120.34,-101.5 130.33,-98 120.33,-94.5 120.34,-101.5"/>
</a>
</g>
</g>
<!-- Node6 -->
<g id="Node000006" class="node">
<title>Node6</title>
<g id="a_Node000006"><a xlink:href="a00341.html#a6ac2591aa2e32874156ad3f8bf477d2f" target="_top" xlink:title=" ">
<polygon fill="white" stroke="#666666" points="95.5,-70 0,-70 0,-50 95.5,-50 95.5,-70"/>
<text text-anchor="middle" x="47.75" y="-56.5" font-family="Helvetica,sans-Serif" font-size="10.00">_ADCAN1Interrupt</text>
</a>
</g>
</g>
<!-- Node5&#45;&gt;Node6 -->
<g id="edge5_Node000005_Node000006" class="edge">
<title>Node5&#45;&gt;Node6</title>
<g id="a_edge5_Node000005_Node000006"><a xlink:title=" ">
<path fill="none" stroke="#63b8ff" d="M120.35,-60C111.98,-60 103.6,-60 95.7,-60"/>
<polygon fill="#63b8ff" stroke="#63b8ff" points="120.34,-63.5 130.33,-60 120.33,-56.5 120.34,-63.5"/>
</a>
</g>
</g>
<!-- Node7&#45;&gt;Node2 -->
<g id="edge7_Node000007_Node000002" class="edge">
<title>Node7&#45;&gt;Node2</title>
<g id="a_edge7_Node000007_Node000002"><a xlink:title=" ">
<path fill="none" stroke="#63b8ff" d="M390.5,-91.15C381.87,-89.42 373.28,-87.71 365.39,-86.13"/>
<polygon fill="#63b8ff" stroke="#63b8ff" points="389.52,-94.72 400.01,-93.25 390.89,-87.86 389.52,-94.72"/>
</a>
</g>
</g>
<!-- Node8&#45;&gt;Node2 -->
<g id="edge9_Node000008_Node000002" class="edge">
<title>Node8&#45;&gt;Node2</title>
<g id="a_edge9_Node000008_Node000002"><a xlink:title=" ">
<path fill="none" stroke="#63b8ff" d="M390.5,-66.85C381.87,-68.58 373.28,-70.29 365.39,-71.87"/>
<polygon fill="#63b8ff" stroke="#63b8ff" points="390.89,-70.14 400.01,-64.75 389.52,-63.28 390.89,-70.14"/>
</a>
</g>
</g>
<!-- Node9&#45;&gt;Node2 -->
<g id="edge11_Node000009_Node000002" class="edge">
<title>Node9&#45;&gt;Node2</title>
<g id="a_edge11_Node000009_Node000002"><a xlink:title=" ">
<path fill="none" stroke="#63b8ff" d="M410.97,-24.44C407.64,-25.87 404.36,-27.4 401.25,-29 379.17,-40.38 356.03,-57.7 342.26,-68.68"/>
<polygon fill="#63b8ff" stroke="#63b8ff" points="412.07,-27.37 420.06,-20.4 409.47,-20.87 412.07,-27.37"/>
</a>
</g>
</g>
</g>
</svg>
