<?xml version="1.0" encoding="UTF-8" standalone="no"?>
<!DOCTYPE svg PUBLIC "-//W3C//DTD SVG 1.1//EN"
 "http://www.w3.org/Graphics/SVG/1.1/DTD/svg11.dtd">
<!-- Generated by graphviz version 8.1.0 (20230707.0739)
 -->
<!-- Title: Power Control Pages: 1 -->
<svg width="361pt" height="230pt"
 viewBox="0.00 0.00 361.25 230.00" xmlns="http://www.w3.org/2000/svg" xmlns:xlink="http://www.w3.org/1999/xlink">
<g id="graph0" class="graph" transform="scale(1 1) rotate(0) translate(4 226)">
<title>Power Control</title>
<!-- Node3 -->
<g id="Node000003" class="node">
<title>Node3</title>
<g id="a_Node000003"><a xlink:href="a00427.html" target="_top" xlink:title="Power controller drv_controller.">
<polygon fill="white" stroke="#666666" points="340.88,-222 228.12,-222 228.12,-190 340.88,-190 340.88,-222"/>
<text text-anchor="start" x="236.12" y="-208.5" font-family="Helvetica,sans-Serif" font-size="10.00">Power Controller driver</text>
<text text-anchor="middle" x="284.5" y="-196.5" font-family="Helvetica,sans-Serif" font-size="10.00"> files</text>
</a>
</g>
</g>
<!-- Node5 -->
<g id="Node000005" class="node">
<title>Node5</title>
<g id="a_Node000005"><a xlink:href="a00429.html" target="_top" xlink:title="Power controller Application Handler.">
<polygon fill="white" stroke="#666666" points="332.25,-172 236.75,-172 236.75,-152 332.25,-152 332.25,-172"/>
<text text-anchor="middle" x="284.5" y="-158.5" font-family="Helvetica,sans-Serif" font-size="10.00">Power Control app</text>
</a>
</g>
</g>
<!-- Node4 -->
<g id="Node000004" class="node">
<title>Node4</title>
<g id="a_Node000004"><a xlink:href="a00428.html" target="_top" xlink:title="Power controller misc app.">
<polygon fill="white" stroke="#666666" points="344.25,-134 224.75,-134 224.75,-114 344.25,-114 344.25,-134"/>
<text text-anchor="middle" x="284.5" y="-120.5" font-family="Helvetica,sans-Serif" font-size="10.00">Power Control misc app</text>
</a>
</g>
</g>
<!-- Node6 -->
<g id="Node000006" class="node">
<title>Node6</title>
<g id="a_Node000006"><a xlink:href="a00430.html" target="_top" xlink:title="Power controller Exposing DCDT assembly functionality to the C code.">
<polygon fill="white" stroke="#666666" points="353.25,-96 215.75,-96 215.75,-76 353.25,-76 353.25,-96"/>
<text text-anchor="middle" x="284.5" y="-82.5" font-family="Helvetica,sans-Serif" font-size="10.00">Power Control Compensator</text>
</a>
</g>
</g>
<!-- Node7 -->
<g id="Node000007" class="node">
<title>Node7</title>
<g id="a_Node000007"><a xlink:href="a00431.html" target="_top" xlink:title="Power controller type defintion.">
<polygon fill="white" stroke="#666666" points="340.12,-58 228.88,-58 228.88,-38 340.12,-38 340.12,-58"/>
<text text-anchor="middle" x="284.5" y="-44.5" font-family="Helvetica,sans-Serif" font-size="10.00">Power Control typedef</text>
</a>
</g>
</g>
<!-- Node8 -->
<g id="Node000008" class="node">
<title>Node8</title>
<g id="a_Node000008"><a xlink:href="a00432.html" target="_top" xlink:title="Contains the control loop configuration and initialization functions.">
<polygon fill="white" stroke="#666666" points="349.5,-20 219.5,-20 219.5,0 349.5,0 349.5,-20"/>
<text text-anchor="middle" x="284.5" y="-6.5" font-family="Helvetica,sans-Serif" font-size="10.00">Control Loop Configuration</text>
</a>
</g>
</g>
<!-- Node2 -->
<g id="Node000002" class="node">
<title>Node2</title>
<g id="a_Node000002"><a xlink:href="a00422.html" target="_top" xlink:title="secondary Driver Layer">
<polygon fill="white" stroke="#666666" points="67,-115 0,-115 0,-95 67,-95 67,-115"/>
<text text-anchor="middle" x="33.5" y="-101.5" font-family="Helvetica,sans-Serif" font-size="10.00">Driver Layer</text>
</a>
</g>
</g>
<!-- Node1 -->
<g id="Node000001" class="node">
<title>Node1</title>
<g id="a_Node000001"><a xlink:title="The Power Control layer contains the state machine managing the power converter.">
<polygon fill="#999999" stroke="#666666" points="179.75,-115 103,-115 103,-95 179.75,-95 179.75,-115"/>
<text text-anchor="middle" x="141.38" y="-101.5" font-family="Helvetica,sans-Serif" font-size="10.00">Power Control</text>
</a>
</g>
</g>
<!-- Node2&#45;&gt;Node1 -->
<g id="edge1" class="edge">
<title>Node2&#45;&gt;Node1</title>
<path fill="none" stroke="black" d="M78.22,-105C86.34,-105 94.75,-105 102.67,-105"/>
<polygon fill="black" stroke="black" points="78.42,-101.5 68.42,-105 78.42,-108.5 78.42,-101.5"/>
</g>
<!-- Node1&#45;&gt;Node3 -->
<g id="edge2" class="edge">
<title>Node1&#45;&gt;Node3</title>
<path fill="none" stroke="black" d="M156.44,-123.82C170,-140.8 191.91,-165.44 215.75,-181 220.68,-184.22 226.09,-187.1 231.63,-189.66"/>
<polygon fill="black" stroke="black" points="158.71,-122.03 149.82,-116.28 153.18,-126.32 158.71,-122.03"/>
</g>
<!-- Node1&#45;&gt;Node5 -->
<g id="edge4" class="edge">
<title>Node1&#45;&gt;Node5</title>
<path fill="none" stroke="black" d="M169.25,-120.6C182.87,-128.07 199.86,-136.73 215.75,-143 223.82,-146.18 232.62,-149.06 241.13,-151.56"/>
<polygon fill="black" stroke="black" points="171.42,-117.25 160.99,-115.42 168.01,-123.36 171.42,-117.25"/>
</g>
<!-- Node1&#45;&gt;Node4 -->
<g id="edge3" class="edge">
<title>Node1&#45;&gt;Node4</title>
<path fill="none" stroke="black" d="M191.04,-111.55C201.76,-112.99 213.22,-114.54 224.3,-116.03"/>
<polygon fill="black" stroke="black" points="191.57,-107.96 181.19,-110.09 190.64,-114.89 191.57,-107.96"/>
</g>
<!-- Node1&#45;&gt;Node6 -->
<g id="edge5" class="edge">
<title>Node1&#45;&gt;Node6</title>
<path fill="none" stroke="black" d="M190.99,-98.45C198.85,-97.4 207.12,-96.28 215.34,-95.18"/>
<polygon fill="black" stroke="black" points="190.64,-95.11 181.19,-99.91 191.57,-102.04 190.64,-95.11"/>
</g>
<!-- Node1&#45;&gt;Node7 -->
<g id="edge6" class="edge">
<title>Node1&#45;&gt;Node7</title>
<path fill="none" stroke="black" d="M169.25,-89.4C182.87,-81.93 199.86,-73.27 215.75,-67 223.82,-63.82 232.62,-60.94 241.13,-58.44"/>
<polygon fill="black" stroke="black" points="168.01,-86.64 160.99,-94.58 171.42,-92.75 168.01,-86.64"/>
</g>
<!-- Node1&#45;&gt;Node8 -->
<g id="edge7" class="edge">
<title>Node1&#45;&gt;Node8</title>
<path fill="none" stroke="black" d="M155.95,-86.01C169.28,-68.71 191.17,-43.67 215.75,-29 221.52,-25.56 227.94,-22.71 234.46,-20.38"/>
<polygon fill="black" stroke="black" points="152.63,-83.61 149.45,-93.72 158.24,-87.8 152.63,-83.61"/>
</g>
</g>
</svg>
