<?xml version="1.0" encoding="UTF-8" standalone="no"?>
<!DOCTYPE svg PUBLIC "-//W3C//DTD SVG 1.1//EN"
 "http://www.w3.org/Graphics/SVG/1.1/DTD/svg11.dtd">
<!-- Generated by graphviz version 8.1.0 (20230707.0739)
 -->
<!-- Title: PWM_Initialize Pages: 1 -->
<svg width="297pt" height="116pt"
 viewBox="0.00 0.00 296.50 116.00" xmlns="http://www.w3.org/2000/svg" xmlns:xlink="http://www.w3.org/1999/xlink">
<g id="graph0" class="graph" transform="scale(1 1) rotate(0) translate(4 112)">
<title>PWM_Initialize</title>
<!-- Node1 -->
<g id="Node000001" class="node">
<title>Node1</title>
<g id="a_Node000001"><a xlink:title="Initializes PWM module, using the given initialization data.">
<polygon fill="#999999" stroke="#666666" points="81.25,-70 0,-70 0,-50 81.25,-50 81.25,-70"/>
<text text-anchor="middle" x="40.62" y="-56.5" font-family="Helvetica,sans-Serif" font-size="10.00">PWM_Initialize</text>
</a>
</g>
</g>
<!-- Node2 -->
<g id="Node000002" class="node">
<title>Node2</title>
<g id="a_Node000002"><a xlink:href="a00408.html#ga0153c20a7c603596e5722a8b45571d4a" target="_top" xlink:title="Returns Auxiliary PLL status.">
<polygon fill="white" stroke="#666666" points="276.88,-108 128.88,-108 128.88,-88 276.88,-88 276.88,-108"/>
<text text-anchor="middle" x="202.88" y="-94.5" font-family="Helvetica,sans-Serif" font-size="10.00">CLOCK_AuxPllLockStatusGet</text>
</a>
</g>
</g>
<!-- Node1&#45;&gt;Node2 -->
<g id="edge1_Node000001_Node000002" class="edge">
<title>Node1&#45;&gt;Node2</title>
<g id="a_edge1_Node000001_Node000002"><a xlink:title=" ">
<path fill="none" stroke="#63b8ff" d="M81.61,-70.25C93.1,-73.14 105.66,-76.24 117.25,-79 125.79,-81.03 134.83,-83.12 143.7,-85.14"/>
<polygon fill="#63b8ff" stroke="#63b8ff" points="142.86,-88.77 153.38,-87.56 144.4,-81.94 142.86,-88.77"/>
</a>
</g>
</g>
<!-- Node3 -->
<g id="Node000003" class="node">
<title>Node3</title>
<g id="a_Node000003"><a xlink:href="a00401.html#ga3bd2ebdd8c0f5cbd912d441ad8bf0253" target="_top" xlink:title="This is the default callback with weak attribute. The user can override and implement the default cal...">
<polygon fill="white" stroke="#666666" points="288.5,-70 117.25,-70 117.25,-50 288.5,-50 288.5,-70"/>
<text text-anchor="middle" x="202.88" y="-56.5" font-family="Helvetica,sans-Serif" font-size="10.00">PWM_GeneratorEOCEventCallback</text>
</a>
</g>
</g>
<!-- Node1&#45;&gt;Node3 -->
<g id="edge2_Node000001_Node000003" class="edge">
<title>Node1&#45;&gt;Node3</title>
<g id="a_edge2_Node000001_Node000003"><a xlink:title=" ">
<path fill="none" stroke="#63b8ff" d="M81.65,-60C89.28,-60 97.56,-60 106.08,-60"/>
<polygon fill="#63b8ff" stroke="#63b8ff" points="105.98,-63.5 115.98,-60 105.98,-56.5 105.98,-63.5"/>
</a>
</g>
</g>
<!-- Node4 -->
<g id="Node000004" class="node">
<title>Node4</title>
<g id="a_Node000004"><a xlink:href="a00401.html#gafb860e72fa5f565c22ceb026b37eb901" target="_top" xlink:title="This function can be used to override default callback PWM_GeneratorEOCEventCallback and to define cu...">
<polygon fill="white" stroke="#666666" points="288.5,-32 117.25,-32 117.25,0 288.5,0 288.5,-32"/>
<text text-anchor="start" x="125.25" y="-18.5" font-family="Helvetica,sans-Serif" font-size="10.00">PWM_GeneratorEOCEventCallback</text>
<text text-anchor="middle" x="202.88" y="-6.5" font-family="Helvetica,sans-Serif" font-size="10.00">Register</text>
</a>
</g>
</g>
<!-- Node1&#45;&gt;Node4 -->
<g id="edge3_Node000001_Node000004" class="edge">
<title>Node1&#45;&gt;Node4</title>
<g id="a_edge3_Node000001_Node000004"><a xlink:title=" ">
<path fill="none" stroke="#63b8ff" d="M79.6,-49.57C95.15,-45.3 113.67,-40.22 131.52,-35.32"/>
<polygon fill="#63b8ff" stroke="#63b8ff" points="132.22,-38.48 140.93,-32.46 130.36,-31.73 132.22,-38.48"/>
</a>
</g>
</g>
</g>
</svg>
