<?xml version="1.0" encoding="UTF-8" standalone="no"?>
<!DOCTYPE svg PUBLIC "-//W3C//DTD SVG 1.1//EN"
 "http://www.w3.org/Graphics/SVG/1.1/DTD/svg11.dtd">
<!-- Generated by graphviz version 2.44.1 (20200629.0846)
 -->
<!-- Title: TRAPS_halt_on_error Pages: 1 -->
<svg width="236pt" height="212pt"
 viewBox="0.00 0.00 236.00 212.00" xmlns="http://www.w3.org/2000/svg" xmlns:xlink="http://www.w3.org/1999/xlink">
<g id="graph0" class="graph" transform="scale(1 1) rotate(0) translate(4 208)">
<title>TRAPS_halt_on_error</title>
<!-- Node1 -->
<g id="Node000001" class="node">
<title>Node1</title>
<g id="a_Node000001"><a xlink:title="Stores the trap error code and waits forever. This is a weak attribute function. The user can overrid...">
<polygon fill="#999999" stroke="#666666" points="228,-111 118,-111 118,-92 228,-92 228,-111"/>
<text text-anchor="middle" x="173" y="-99" font-family="Helvetica,sans-Serif" font-size="10.00">TRAPS_halt_on_error</text>
</a>
</g>
</g>
<!-- Node2 -->
<g id="Node000002" class="node">
<title>Node2</title>
<g id="a_Node000002"><a xlink:href="a00847.html#a369f76085b5e8862ed6c95ebc4196240" target="_top" xlink:title=" ">
<polygon fill="white" stroke="#666666" points="80.5,-204 1.5,-204 1.5,-185 80.5,-185 80.5,-204"/>
<text text-anchor="middle" x="41" y="-192" font-family="Helvetica,sans-Serif" font-size="10.00">_AddressError</text>
</a>
</g>
</g>
<!-- Node1&#45;&gt;Node2 -->
<g id="edge1_Node000001_Node000002" class="edge">
<title>Node1&#45;&gt;Node2</title>
<g id="a_edge1_Node000001_Node000002"><a xlink:title=" ">
<path fill="none" stroke="#63b8ff" d="M154.55,-118.53C137.19,-134.85 109.27,-159.45 82,-176.5 77.09,-179.57 71.57,-182.4 66.24,-184.87"/>
<polygon fill="#63b8ff" stroke="#63b8ff" points="157.36,-120.69 162.18,-111.25 152.53,-115.62 157.36,-120.69"/>
</a>
</g>
</g>
<!-- Node3 -->
<g id="Node000003" class="node">
<title>Node3</title>
<g id="a_Node000003"><a xlink:href="a00847.html#adbfe1bbe232090a223197057a768befb" target="_top" xlink:title=" ">
<polygon fill="white" stroke="#666666" points="82,-167 0,-167 0,-148 82,-148 82,-167"/>
<text text-anchor="middle" x="41" y="-155" font-family="Helvetica,sans-Serif" font-size="10.00">_HardTrapError</text>
</a>
</g>
</g>
<!-- Node1&#45;&gt;Node3 -->
<g id="edge2_Node000001_Node000003" class="edge">
<title>Node1&#45;&gt;Node3</title>
<g id="a_edge2_Node000001_Node000003"><a xlink:title=" ">
<path fill="none" stroke="#63b8ff" d="M140.39,-115.12C116.75,-125.3 85.01,-138.97 64.06,-148"/>
<polygon fill="#63b8ff" stroke="#63b8ff" points="141.85,-118.3 149.65,-111.13 139.08,-111.87 141.85,-118.3"/>
</a>
</g>
</g>
<!-- Node4 -->
<g id="Node000004" class="node">
<title>Node4</title>
<g id="a_Node000004"><a xlink:href="a00847.html#a2017082168ce25fa118fc65101c58620" target="_top" xlink:title=" ">
<polygon fill="white" stroke="#666666" points="73.5,-130 8.5,-130 8.5,-111 73.5,-111 73.5,-130"/>
<text text-anchor="middle" x="41" y="-118" font-family="Helvetica,sans-Serif" font-size="10.00">_MathError</text>
</a>
</g>
</g>
<!-- Node1&#45;&gt;Node4 -->
<g id="edge3_Node000001_Node000004" class="edge">
<title>Node1&#45;&gt;Node4</title>
<g id="a_edge3_Node000001_Node000004"><a xlink:title=" ">
<path fill="none" stroke="#63b8ff" d="M108.03,-110.85C96.1,-112.59 84.13,-114.34 73.72,-115.86"/>
<polygon fill="#63b8ff" stroke="#63b8ff" points="108.61,-114.3 118,-109.39 107.6,-107.38 108.61,-114.3"/>
</a>
</g>
</g>
<!-- Node5 -->
<g id="Node000005" class="node">
<title>Node5</title>
<g id="a_Node000005"><a xlink:href="a00847.html#ae50a96c4daa59acda66ca62e59b2a9a9" target="_top" xlink:title=" ">
<polygon fill="white" stroke="#666666" points="80.5,-93 1.5,-93 1.5,-74 80.5,-74 80.5,-93"/>
<text text-anchor="middle" x="41" y="-81" font-family="Helvetica,sans-Serif" font-size="10.00">_OscillatorFail</text>
</a>
</g>
</g>
<!-- Node1&#45;&gt;Node5 -->
<g id="edge4_Node000001_Node000005" class="edge">
<title>Node1&#45;&gt;Node5</title>
<g id="a_edge4_Node000001_Node000005"><a xlink:title=" ">
<path fill="none" stroke="#63b8ff" d="M107.91,-92.63C98.57,-91.33 89.2,-90.04 80.58,-88.84"/>
<polygon fill="#63b8ff" stroke="#63b8ff" points="107.61,-96.12 118,-94.02 108.57,-89.18 107.61,-96.12"/>
</a>
</g>
</g>
<!-- Node6 -->
<g id="Node000006" class="node">
<title>Node6</title>
<g id="a_Node000006"><a xlink:href="a00847.html#acf6324ef35ef0cdd3aa63c1f195ba553" target="_top" xlink:title=" ">
<polygon fill="white" stroke="#666666" points="80.5,-56 1.5,-56 1.5,-37 80.5,-37 80.5,-56"/>
<text text-anchor="middle" x="41" y="-44" font-family="Helvetica,sans-Serif" font-size="10.00">_SoftTrapError</text>
</a>
</g>
</g>
<!-- Node1&#45;&gt;Node6 -->
<g id="edge5_Node000001_Node000006" class="edge">
<title>Node1&#45;&gt;Node6</title>
<g id="a_edge5_Node000001_Node000006"><a xlink:title=" ">
<path fill="none" stroke="#63b8ff" d="M139.89,-87.91C116.59,-78.06 85.63,-64.96 64.82,-56.16"/>
<polygon fill="#63b8ff" stroke="#63b8ff" points="138.78,-91.25 149.36,-91.92 141.51,-84.8 138.78,-91.25"/>
</a>
</g>
</g>
<!-- Node7 -->
<g id="Node000007" class="node">
<title>Node7</title>
<g id="a_Node000007"><a xlink:href="a00847.html#a2bb82ba68a7d3e7a3384ae5b6d2c5205" target="_top" xlink:title=" ">
<polygon fill="white" stroke="#666666" points="75,-19 7,-19 7,0 75,0 75,-19"/>
<text text-anchor="middle" x="41" y="-7" font-family="Helvetica,sans-Serif" font-size="10.00">_StackError</text>
</a>
</g>
</g>
<!-- Node1&#45;&gt;Node7 -->
<g id="edge6_Node000001_Node000007" class="edge">
<title>Node1&#45;&gt;Node7</title>
<g id="a_edge6_Node000001_Node000007"><a xlink:title=" ">
<path fill="none" stroke="#63b8ff" d="M154.11,-84.83C136.61,-69.06 108.77,-45.37 82,-28.5 76.54,-25.06 70.35,-21.83 64.51,-19.04"/>
<polygon fill="#63b8ff" stroke="#63b8ff" points="152.07,-87.71 161.82,-91.87 156.79,-82.54 152.07,-87.71"/>
</a>
</g>
</g>
</g>
</svg>
