<?xml version="1.0" encoding="UTF-8" standalone="no"?>
<!DOCTYPE svg PUBLIC "-//W3C//DTD SVG 1.1//EN"
 "http://www.w3.org/Graphics/SVG/1.1/DTD/svg11.dtd">
<!-- Generated by graphviz version 2.44.1 (20200629.0846)
 -->
<!-- Title: SEC_CORE1_ProtocolWrite Pages: 1 -->
<svg width="478pt" height="76pt"
 viewBox="0.00 0.00 478.00 75.50" xmlns="http://www.w3.org/2000/svg" xmlns:xlink="http://www.w3.org/1999/xlink">
<g id="graph0" class="graph" transform="scale(1 1) rotate(0) translate(4 71.5)">
<title>SEC_CORE1_ProtocolWrite</title>
<!-- Node1 -->
<g id="Node000001" class="node">
<title>Node1</title>
<g id="a_Node000001"><a xlink:title="This routine writes data to mailbox.">
<polygon fill="#999999" stroke="#666666" points="470,-45.5 330,-45.5 330,-26.5 470,-26.5 470,-45.5"/>
<text text-anchor="middle" x="400" y="-33.5" font-family="Helvetica,sans-Serif" font-size="10.00">SEC_CORE1_ProtocolWrite</text>
</a>
</g>
</g>
<!-- Node2 -->
<g id="Node000002" class="node">
<title>Node2</title>
<g id="a_Node000002"><a xlink:href="a00424.html#ga77b41fe067ba8e8d666827b686e52cff" target="_top" xlink:title="received message from GUI. Send the data to the secondary core using mailbox protocol A">
<polygon fill="white" stroke="#666666" points="284,-67.5 162,-67.5 162,-48.5 284,-48.5 284,-67.5"/>
<text text-anchor="middle" x="223" y="-55.5" font-family="Helvetica,sans-Serif" font-size="10.00">CAN_Receive_from_GUI</text>
</a>
</g>
</g>
<!-- Node1&#45;&gt;Node2 -->
<g id="edge1_Node000001_Node000002" class="edge">
<title>Node1&#45;&gt;Node2</title>
<g id="a_edge1_Node000001_Node000002"><a xlink:title=" ">
<path fill="none" stroke="#63b8ff" d="M319.84,-45.95C307.86,-47.46 295.66,-48.99 284.17,-50.44"/>
<polygon fill="#63b8ff" stroke="#63b8ff" points="320.35,-49.42 329.84,-44.69 319.48,-42.47 320.35,-49.42"/>
</a>
</g>
</g>
<!-- Node4 -->
<g id="Node000004" class="node">
<title>Node4</title>
<g id="a_Node000004"><a xlink:href="a00233.html#adac725c6b0d49af14421e9812a0f58bb" target="_top" xlink:title=" ">
<polygon fill="white" stroke="#666666" points="294,-30 152,-30 152,0 294,0 294,-30"/>
<text text-anchor="start" x="160" y="-18" font-family="Helvetica,sans-Serif" font-size="10.00">DMA_Channel_updateStatus</text>
<text text-anchor="middle" x="223" y="-7" font-family="Helvetica,sans-Serif" font-size="10.00">AndSendData</text>
</a>
</g>
</g>
<!-- Node1&#45;&gt;Node4 -->
<g id="edge3_Node000001_Node000004" class="edge">
<title>Node1&#45;&gt;Node4</title>
<g id="a_edge3_Node000001_Node000004"><a xlink:title=" ">
<path fill="none" stroke="#63b8ff" d="M319.83,-26.5C311.25,-25.47 302.56,-24.43 294.1,-23.41"/>
<polygon fill="#63b8ff" stroke="#63b8ff" points="319.49,-29.98 329.84,-27.7 320.32,-23.03 319.49,-29.98"/>
</a>
</g>
</g>
<!-- Node3 -->
<g id="Node000003" class="node">
<title>Node3</title>
<g id="a_Node000003"><a xlink:href="a00431.html#ga97fda594ad396d08b6a833ebb3b04538" target="_top" xlink:title="tasks run every 100us">
<polygon fill="white" stroke="#666666" points="95,-67.5 21,-67.5 21,-48.5 95,-48.5 95,-67.5"/>
<text text-anchor="middle" x="58" y="-55.5" font-family="Helvetica,sans-Serif" font-size="10.00">Tasks_100us</text>
</a>
</g>
</g>
<!-- Node2&#45;&gt;Node3 -->
<g id="edge2_Node000002_Node000003" class="edge">
<title>Node2&#45;&gt;Node3</title>
<g id="a_edge2_Node000002_Node000003"><a xlink:title=" ">
<path fill="none" stroke="#63b8ff" d="M151.71,-58C132.27,-58 111.96,-58 95.33,-58"/>
<polygon fill="#63b8ff" stroke="#63b8ff" points="151.77,-61.5 161.77,-58 151.77,-54.5 151.77,-61.5"/>
</a>
</g>
</g>
<!-- Node5 -->
<g id="Node000005" class="node">
<title>Node5</title>
<g id="a_Node000005"><a xlink:href="a00418.html#ga9f16d166d637fd9005839b1e1822dc63" target="_top" xlink:title="This is the default callback with weak attribute. The user can override and implement the default cal...">
<polygon fill="white" stroke="#666666" points="116,-24.5 0,-24.5 0,-5.5 116,-5.5 116,-24.5"/>
<text text-anchor="middle" x="58" y="-12.5" font-family="Helvetica,sans-Serif" font-size="10.00">DMA_ChannelCallback</text>
</a>
</g>
</g>
<!-- Node4&#45;&gt;Node5 -->
<g id="edge4_Node000004_Node000005" class="edge">
<title>Node4&#45;&gt;Node5</title>
<g id="a_edge4_Node000004_Node000005"><a xlink:title=" ">
<path fill="none" stroke="#63b8ff" d="M141.75,-15C133.06,-15 124.34,-15 116,-15"/>
<polygon fill="#63b8ff" stroke="#63b8ff" points="141.93,-18.5 151.93,-15 141.93,-11.5 141.93,-18.5"/>
</a>
</g>
</g>
</g>
</svg>
