<?xml version="1.0" encoding="UTF-8" standalone="no"?>
<!DOCTYPE svg PUBLIC "-//W3C//DTD SVG 1.1//EN"
 "http://www.w3.org/Graphics/SVG/1.1/DTD/svg11.dtd">
<!-- Generated by graphviz version 8.1.0 (20230707.0739)
 -->
<!-- Title: Driver Layer Pages: 1 -->
<svg width="319pt" height="180pt"
 viewBox="0.00 0.00 318.50 180.00" xmlns="http://www.w3.org/2000/svg" xmlns:xlink="http://www.w3.org/1999/xlink">

<svg id="main" version="1.1" xmlns="http://www.w3.org/2000/svg" xmlns:xlink="http://www.w3.org/1999/xlink" xml:space="preserve" onload="init(evt)">
<style type="text/css"><![CDATA[
.node, .edge {opacity: 0.7;}
.node.selected, .edge.selected {opacity: 1;}
.edge:hover path { stroke: red; }
.edge:hover polygon { stroke: red; fill: red; }
]]></style>
<script type="application/ecmascript" xlink:href="svg.min.js"/>
<svg id="graph" class="graph">
<g id="graph0" class="graph" transform="scale(1 1) rotate(0) translate(4 176)">
<title>Driver Layer</title>
<!-- Node1 -->
<g id="Node000001" class="node">
<title>Node1</title>
<g id="a_Node000001"><a xlink:title="Primary Driver Layer.">
<polygon fill="#999999" stroke="#666666" points="203,-96 136,-96 136,-76 203,-76 203,-96"/>
<text text-anchor="middle" x="169.5" y="-82.5" font-family="Helvetica,sans-Serif" font-size="10.00">Driver Layer</text>
</a>
</g>
</g>
<!-- Node4 -->
<g id="Node000004" class="node">
<title>Node4</title>
<g id="a_Node000004"><a xlink:href="a00418.html" target="_top" xlink:title="CAN&#45;FD Driver to commuincate to Power Board Visualizer.">
<polygon fill="white" stroke="#666666" points="306.38,-172 243.12,-172 243.12,-152 306.38,-152 306.38,-172"/>
<text text-anchor="middle" x="274.75" y="-158.5" font-family="Helvetica,sans-Serif" font-size="10.00">CAN Driver</text>
</a>
</g>
</g>
<!-- Node1&#45;&gt;Node4 -->
<g id="edge3" class="edge">
<title>Node1&#45;&gt;Node4</title>
<path fill="none" stroke="black" d="M189.55,-103.56C202.87,-115.41 221.37,-131.01 239,-143 243.43,-146.02 248.39,-148.96 253.14,-151.59"/>
<polygon fill="black" stroke="black" points="192.37,-101.49 182.6,-97.39 187.68,-106.69 192.37,-101.49"/>
</g>
<!-- Node5 -->
<g id="Node000005" class="node">
<title>Node5</title>
<g id="a_Node000005"><a xlink:href="a00419.html" target="_top" xlink:title="builds upon MCC DMA">
<polygon fill="white" stroke="#666666" points="307.12,-134 242.38,-134 242.38,-114 307.12,-114 307.12,-134"/>
<text text-anchor="middle" x="274.75" y="-120.5" font-family="Helvetica,sans-Serif" font-size="10.00">DMA Driver</text>
</a>
</g>
</g>
<!-- Node1&#45;&gt;Node5 -->
<g id="edge4" class="edge">
<title>Node1&#45;&gt;Node5</title>
<path fill="none" stroke="black" d="M209.2,-100.24C221.2,-104.66 234.19,-109.44 245.36,-113.55"/>
<polygon fill="black" stroke="black" points="210.58,-96.65 199.99,-96.48 208.16,-103.22 210.58,-96.65"/>
</g>
<!-- Node6 -->
<g id="Node000006" class="node">
<title>Node6</title>
<g id="a_Node000006"><a xlink:href="a00420.html" target="_top" xlink:title="builds upon MCC I2C">
<polygon fill="white" stroke="#666666" points="303.38,-96 246.12,-96 246.12,-76 303.38,-76 303.38,-96"/>
<text text-anchor="middle" x="274.75" y="-82.5" font-family="Helvetica,sans-Serif" font-size="10.00">I2C Driver</text>
</a>
</g>
</g>
<!-- Node1&#45;&gt;Node6 -->
<g id="edge5" class="edge">
<title>Node1&#45;&gt;Node6</title>
<path fill="none" stroke="black" d="M214.37,-86C225.07,-86 236.24,-86 245.96,-86"/>
<polygon fill="black" stroke="black" points="214.45,-82.5 204.45,-86 214.45,-89.5 214.45,-82.5"/>
</g>
<!-- Node7 -->
<g id="Node000007" class="node">
<title>Node7</title>
<g id="a_Node000007"><a xlink:href="a00421.html" target="_top" xlink:title="builds upon MCC SPI">
<polygon fill="white" stroke="#666666" points="304.12,-58 245.38,-58 245.38,-38 304.12,-38 304.12,-58"/>
<text text-anchor="middle" x="274.75" y="-44.5" font-family="Helvetica,sans-Serif" font-size="10.00">SPI Driver</text>
</a>
</g>
</g>
<!-- Node1&#45;&gt;Node7 -->
<g id="edge6" class="edge">
<title>Node1&#45;&gt;Node7</title>
<path fill="none" stroke="black" d="M209.2,-71.76C221.2,-67.34 234.19,-62.56 245.36,-58.45"/>
<polygon fill="black" stroke="black" points="208.16,-68.78 199.99,-75.52 210.58,-75.35 208.16,-68.78"/>
</g>
<!-- Node3 -->
<g id="Node000003" class="node">
<title>Node3</title>
<g id="a_Node000003"><a xlink:href="a00417.html" target="_top" xlink:title="Driver for Isolated AC Voltage Acquistion Board.">
<polygon fill="white" stroke="#666666" points="310.5,-20 239,-20 239,0 310.5,0 310.5,-20"/>
<text text-anchor="middle" x="274.75" y="-6.5" font-family="Helvetica,sans-Serif" font-size="10.00">VAC Monitor</text>
</a>
</g>
</g>
<!-- Node1&#45;&gt;Node3 -->
<g id="edge2" class="edge">
<title>Node1&#45;&gt;Node3</title>
<path fill="none" stroke="black" d="M189.55,-68.44C202.87,-56.59 221.37,-40.99 239,-29 243.43,-25.98 248.39,-23.04 253.14,-20.41"/>
<polygon fill="black" stroke="black" points="187.68,-65.31 182.6,-74.61 192.37,-70.51 187.68,-65.31"/>
</g>
<!-- Node2 -->
<g id="Node000002" class="node">
<title>Node2</title>
<g id="a_Node000002"><a xlink:href="a00393.html" target="_top" xlink:title="Functions performed by the primary core of the dsPIC33CH.">
<polygon fill="white" stroke="#666666" points="100,-96 0,-96 0,-76 100,-76 100,-96"/>
<text text-anchor="middle" x="50" y="-82.5" font-family="Helvetica,sans-Serif" font-size="10.00">Primary Core Layer</text>
</a>
</g>
</g>
<!-- Node2&#45;&gt;Node1 -->
<g id="edge1" class="edge">
<title>Node2&#45;&gt;Node1</title>
<path fill="none" stroke="black" d="M111.47,-86C119.85,-86 128.18,-86 135.78,-86"/>
<polygon fill="black" stroke="black" points="111.49,-82.5 101.49,-86 111.49,-89.5 111.49,-82.5"/>
</g>
</g>
</svg>
</svg>

<style type='text/css'>
<![CDATA[
[data-mouse-over-selected='false'] { opacity: 0.7; }
[data-mouse-over-selected='true']  { opacity: 1.0; }
]]>
</style>
<script type="application/ecmascript"><![CDATA[
document.addEventListener('DOMContentLoaded', (event) => {
  highlightEdges();
  highlightAdjacentNodes();
});
]]></script>
</svg>
