<?xml version="1.0" encoding="UTF-8" standalone="no"?>
<!DOCTYPE svg PUBLIC "-//W3C//DTD SVG 1.1//EN"
 "http://www.w3.org/Graphics/SVG/1.1/DTD/svg11.dtd">
<!-- Generated by graphviz version 2.44.1 (20200629.0846)
 -->
<!-- Title: RESET_CauseHandler Pages: 1 -->
<svg width="322pt" height="310pt"
 viewBox="0.00 0.00 322.00 310.00" xmlns="http://www.w3.org/2000/svg" xmlns:xlink="http://www.w3.org/1999/xlink">

<svg id="main" version="1.1" xmlns="http://www.w3.org/2000/svg" xmlns:xlink="http://www.w3.org/1999/xlink" xml:space="preserve">

<style type="text/css"><![CDATA[
.node, .edge {opacity: 0.7;}
.node.selected, .edge.selected {opacity: 1;}
.edge:hover path { stroke: red; }
.edge:hover polygon { stroke: red; fill: red; }
]]></style>
<script type="application/ecmascript" xlink:href="svg.min.js"/>
<svg id="graph" class="graph">
<g id="graph0" class="graph" transform="scale(1 1) rotate(0) translate(4 306)">
<title>RESET_CauseHandler</title>
<!-- Node1 -->
<g id="Node000001" class="node">
<title>Node1</title>
<g id="a_Node000001"><a xlink:title="It handles the reset cause by clearing the cause register values. This is a weak attribute function....">
<polygon fill="#999999" stroke="#666666" points="115,-160 0,-160 0,-141 115,-141 115,-160"/>
<text text-anchor="middle" x="57.5" y="-148" font-family="Helvetica,sans-Serif" font-size="10.00">RESET_CauseHandler</text>
</a>
</g>
</g>
<!-- Node2 -->
<g id="Node000002" class="node">
<title>Node2</title>
<g id="a_Node000002"><a xlink:href="a00413.html#ga0174a76fda8d92f242395a797470b7b1" target="_top" xlink:title="RESET cause from Clear">
<polygon fill="white" stroke="#666666" points="284.5,-302 180.5,-302 180.5,-283 284.5,-283 284.5,-302"/>
<text text-anchor="middle" x="232.5" y="-290" font-family="Helvetica,sans-Serif" font-size="10.00">RESET_CauseClear</text>
</a>
</g>
</g>
<!-- Node1&#45;&gt;Node2 -->
<g id="edge1_Node000001_Node000002" class="edge">
<title>Node1&#45;&gt;Node2</title>
<g id="a_edge1_Node000001_Node000002"><a xlink:title=" ">
<path fill="none" stroke="#63b8ff" d="M62.91,-160.32C74.04,-183.87 105.6,-243.83 151,-273.5 157.03,-277.44 163.79,-280.57 170.77,-283.05"/>
<polygon fill="#63b8ff" stroke="#63b8ff" points="169.77,-286.4 180.36,-286.05 171.85,-279.72 169.77,-286.4"/>
</a>
</g>
</g>
<!-- Node3 -->
<g id="Node000003" class="node">
<title>Node3</title>
<g id="a_Node000003"><a xlink:href="a00413.html#gad6caf79bbee9b33bf903c186fd824059" target="_top" xlink:title="RESET cause from Configuration Mismatch">
<polygon fill="white" stroke="#666666" points="313,-264.5 152,-264.5 152,-234.5 313,-234.5 313,-264.5"/>
<text text-anchor="start" x="160" y="-252.5" font-family="Helvetica,sans-Serif" font-size="10.00">RESET_CauseFromConfiguration</text>
<text text-anchor="middle" x="232.5" y="-241.5" font-family="Helvetica,sans-Serif" font-size="10.00">Mismatch</text>
</a>
</g>
</g>
<!-- Node1&#45;&gt;Node3 -->
<g id="edge2_Node000001_Node000003" class="edge">
<title>Node1&#45;&gt;Node3</title>
<g id="a_edge2_Node000001_Node000003"><a xlink:title=" ">
<path fill="none" stroke="#63b8ff" d="M67.84,-160.23C83.57,-176.09 116.99,-207.55 151,-225.5 154.53,-227.36 158.22,-229.1 162,-230.72"/>
<polygon fill="#63b8ff" stroke="#63b8ff" points="160.95,-234.07 171.54,-234.5 163.53,-227.56 160.95,-234.07"/>
</a>
</g>
</g>
<!-- Node4 -->
<g id="Node000004" class="node">
<title>Node4</title>
<g id="a_Node000004"><a xlink:href="a00413.html#ga32b316332402fc7d3660d63a7fff528f" target="_top" xlink:title="RESET cause from External">
<polygon fill="white" stroke="#666666" points="302.5,-216 162.5,-216 162.5,-197 302.5,-197 302.5,-216"/>
<text text-anchor="middle" x="232.5" y="-204" font-family="Helvetica,sans-Serif" font-size="10.00">RESET_CauseFromExternal</text>
</a>
</g>
</g>
<!-- Node1&#45;&gt;Node4 -->
<g id="edge3_Node000001_Node000004" class="edge">
<title>Node1&#45;&gt;Node4</title>
<g id="a_edge3_Node000001_Node000004"><a xlink:title=" ">
<path fill="none" stroke="#63b8ff" d="M79.07,-160.13C97.57,-168.51 125.66,-180.53 151,-188.5 157.95,-190.69 165.32,-192.72 172.66,-194.56"/>
<polygon fill="#63b8ff" stroke="#63b8ff" points="172.08,-198.02 182.62,-196.97 173.72,-191.22 172.08,-198.02"/>
</a>
</g>
</g>
<!-- Node5 -->
<g id="Node000005" class="node">
<title>Node5</title>
<g id="a_Node000005"><a xlink:href="a00413.html#gae9bed7f7c62488a1a1e1aa053665a46d" target="_top" xlink:title="RESET cause from Illegal Opcode">
<polygon fill="white" stroke="#666666" points="314,-179 151,-179 151,-160 314,-160 314,-179"/>
<text text-anchor="middle" x="232.5" y="-167" font-family="Helvetica,sans-Serif" font-size="10.00">RESET_CauseFromIllegalOpcode</text>
</a>
</g>
</g>
<!-- Node1&#45;&gt;Node5 -->
<g id="edge4_Node000001_Node000005" class="edge">
<title>Node1&#45;&gt;Node5</title>
<g id="a_edge4_Node000001_Node000005"><a xlink:title=" ">
<path fill="none" stroke="#63b8ff" d="M115.15,-156.72C123.36,-157.62 131.99,-158.57 140.67,-159.52"/>
<polygon fill="#63b8ff" stroke="#63b8ff" points="140.55,-163.03 150.87,-160.64 141.31,-156.07 140.55,-163.03"/>
</a>
</g>
</g>
<!-- Node6 -->
<g id="Node000006" class="node">
<title>Node6</title>
<g id="a_Node000006"><a xlink:href="a00413.html#ga7f962e95fa6bd2864091df4cf882eee7" target="_top" xlink:title="RESET cause from Software">
<polygon fill="white" stroke="#666666" points="303.5,-142 161.5,-142 161.5,-123 303.5,-123 303.5,-142"/>
<text text-anchor="middle" x="232.5" y="-130" font-family="Helvetica,sans-Serif" font-size="10.00">RESET_CauseFromSoftware</text>
</a>
</g>
</g>
<!-- Node1&#45;&gt;Node6 -->
<g id="edge5_Node000001_Node000006" class="edge">
<title>Node1&#45;&gt;Node6</title>
<g id="a_edge5_Node000001_Node000006"><a xlink:title=" ">
<path fill="none" stroke="#63b8ff" d="M115.15,-144.61C126.69,-143.4 139.05,-142.12 151.24,-140.85"/>
<polygon fill="#63b8ff" stroke="#63b8ff" points="151.84,-144.31 161.42,-139.79 151.11,-137.35 151.84,-144.31"/>
</a>
</g>
</g>
<!-- Node7 -->
<g id="Node000007" class="node">
<title>Node7</title>
<g id="a_Node000007"><a xlink:href="a00413.html#ga36c739c4dcee0f773bc467be47c87722" target="_top" xlink:title="RESET cause from trap.">
<polygon fill="white" stroke="#666666" points="294,-105 171,-105 171,-86 294,-86 294,-105"/>
<text text-anchor="middle" x="232.5" y="-93" font-family="Helvetica,sans-Serif" font-size="10.00">RESET_CauseFromTrap</text>
</a>
</g>
</g>
<!-- Node1&#45;&gt;Node7 -->
<g id="edge6_Node000001_Node000007" class="edge">
<title>Node1&#45;&gt;Node7</title>
<g id="a_edge6_Node000001_Node000007"><a xlink:title=" ">
<path fill="none" stroke="#63b8ff" d="M80.62,-140.89C99.17,-133.07 126.48,-122.12 151,-114.5 159.08,-111.99 167.71,-109.62 176.2,-107.48"/>
<polygon fill="#63b8ff" stroke="#63b8ff" points="177.19,-110.84 186.07,-105.06 175.52,-104.04 177.19,-110.84"/>
</a>
</g>
</g>
<!-- Node8 -->
<g id="Node000008" class="node">
<title>Node8</title>
<g id="a_Node000008"><a xlink:href="a00413.html#ga6283f56ec3cae6da1145799ddcc9b44a" target="_top" xlink:title="RESET cause from Watchdog Time">
<polygon fill="white" stroke="#666666" points="307,-67.5 158,-67.5 158,-37.5 307,-37.5 307,-67.5"/>
<text text-anchor="start" x="166" y="-55.5" font-family="Helvetica,sans-Serif" font-size="10.00">RESET_CauseFromWatchdog</text>
<text text-anchor="middle" x="232.5" y="-44.5" font-family="Helvetica,sans-Serif" font-size="10.00">Timer</text>
</a>
</g>
</g>
<!-- Node1&#45;&gt;Node8 -->
<g id="edge7_Node000001_Node000008" class="edge">
<title>Node1&#45;&gt;Node8</title>
<g id="a_edge7_Node000001_Node000008"><a xlink:title=" ">
<path fill="none" stroke="#63b8ff" d="M68.17,-140.84C84.12,-125.4 117.51,-95.13 151,-77.5 155.23,-75.27 159.69,-73.21 164.25,-71.3"/>
<polygon fill="#63b8ff" stroke="#63b8ff" points="165.68,-74.5 173.72,-67.6 163.13,-67.98 165.68,-74.5"/>
</a>
</g>
</g>
<!-- Node9 -->
<g id="Node000009" class="node">
<title>Node9</title>
<g id="a_Node000009"><a xlink:href="a00413.html#gaa218141dacf762880dc162a2f499657c" target="_top" xlink:title="Returns the cause of previous reset.">
<polygon fill="white" stroke="#666666" points="281.5,-19 183.5,-19 183.5,0 281.5,0 281.5,-19"/>
<text text-anchor="middle" x="232.5" y="-7" font-family="Helvetica,sans-Serif" font-size="10.00">RESET_CauseGet</text>
</a>
</g>
</g>
<!-- Node1&#45;&gt;Node9 -->
<g id="edge8_Node000001_Node000009" class="edge">
<title>Node1&#45;&gt;Node9</title>
<g id="a_edge8_Node000001_Node000009"><a xlink:title=" ">
<path fill="none" stroke="#63b8ff" d="M62.94,-140.76C74.11,-117.4 105.78,-57.93 151,-28.5 157.85,-24.05 165.62,-20.63 173.58,-18.02"/>
<polygon fill="#63b8ff" stroke="#63b8ff" points="174.68,-21.34 183.32,-15.21 172.75,-14.62 174.68,-21.34"/>
</a>
</g>
</g>
</g>
</svg>
</svg>

<style type='text/css'>
<![CDATA[
[data-mouse-over-selected='false'] { opacity: 0.7; }
[data-mouse-over-selected='true']  { opacity: 1.0; }
]]>
</style>
<script type="application/ecmascript"><![CDATA[
document.addEventListener('DOMContentLoaded', (event) => {
  highlightEdges();
  highlightAdjacentNodes();
});
]]></script>
</svg>
