<?xml version="1.0" encoding="UTF-8" standalone="no"?>
<!DOCTYPE svg PUBLIC "-//W3C//DTD SVG 1.1//EN"
 "http://www.w3.org/Graphics/SVG/1.1/DTD/svg11.dtd">
<!-- Generated by graphviz version 8.1.0 (20230707.0739)
 -->
<!-- Title: CAN_MSG_FIELD Pages: 1 -->
<svg width="98pt" height="124pt"
 viewBox="0.00 0.00 98.00 124.00" xmlns="http://www.w3.org/2000/svg" xmlns:xlink="http://www.w3.org/1999/xlink">
<g id="graph0" class="graph" transform="scale(1 1) rotate(0) translate(4 120)">
<title>CAN_MSG_FIELD</title>
<!-- Node1 -->
<g id="Node000001" class="node">
<title>Node1</title>
<g id="a_Node000001"><a xlink:title="This data structure used to configure the message fields. Some of the fields formatType and brs data ...">
<polygon fill="#999999" stroke="none" points="90,-116 0,-116 0,0 90,0 90,-116"/>
<text text-anchor="start" x="4.88" y="-102.5" font-family="Helvetica,sans-Serif" font-size="10.00">CAN_MSG_FIELD</text>
<text text-anchor="start" x="10" y="-86.5" font-family="Helvetica,sans-Serif" font-size="10.00">+</text>
<text text-anchor="start" x="26" y="-86.5" font-family="Helvetica,sans-Serif" font-size="10.00">idType</text>
<text text-anchor="start" x="10" y="-70.5" font-family="Helvetica,sans-Serif" font-size="10.00">+</text>
<text text-anchor="start" x="26" y="-70.5" font-family="Helvetica,sans-Serif" font-size="10.00">frameType</text>
<text text-anchor="start" x="10" y="-54.5" font-family="Helvetica,sans-Serif" font-size="10.00">+</text>
<text text-anchor="start" x="26" y="-54.5" font-family="Helvetica,sans-Serif" font-size="10.00">dlc</text>
<text text-anchor="start" x="10" y="-38.5" font-family="Helvetica,sans-Serif" font-size="10.00">+</text>
<text text-anchor="start" x="26" y="-38.5" font-family="Helvetica,sans-Serif" font-size="10.00">formatType</text>
<text text-anchor="start" x="10" y="-22.5" font-family="Helvetica,sans-Serif" font-size="10.00">+</text>
<text text-anchor="start" x="26" y="-22.5" font-family="Helvetica,sans-Serif" font-size="10.00">brs</text>
<text text-anchor="start" x="43.5" y="-6.5" font-family="Helvetica,sans-Serif" font-size="10.00"> </text>
<polygon fill="#666666" stroke="#666666" points="0,-98 0,-98 90,-98 90,-98 0,-98"/>
<polygon fill="#666666" stroke="#666666" points="0,-18 0,-18 24,-18 24,-18 0,-18"/>
<polygon fill="#666666" stroke="#666666" points="24,-18 24,-18 90,-18 90,-18 24,-18"/>
<polygon fill="none" stroke="#666666" points="0,0 0,-116 90,-116 90,0 0,0"/>
</a>
</g>
</g>
</g>
</svg>
