<?xml version="1.0" encoding="UTF-8" standalone="no"?>
<!DOCTYPE svg PUBLIC "-//W3C//DTD SVG 1.1//EN"
 "http://www.w3.org/Graphics/SVG/1.1/DTD/svg11.dtd">
<!-- Generated by graphviz version 8.1.0 (20230707.0739)
 -->
<!-- Title: PWM_GeneratorEOCEventCallback Pages: 1 -->
<svg width="430pt" height="28pt"
 viewBox="0.00 0.00 429.50 28.00" xmlns="http://www.w3.org/2000/svg" xmlns:xlink="http://www.w3.org/1999/xlink">
<g id="graph0" class="graph" transform="scale(1 1) rotate(0) translate(4 24)">
<title>PWM_GeneratorEOCEventCallback</title>
<!-- Node1 -->
<g id="Node000001" class="node">
<title>Node1</title>
<g id="a_Node000001"><a xlink:title="This is the default callback with weak attribute. The user can override and implement the default cal...">
<polygon fill="#999999" stroke="#666666" points="421.5,-20 250.25,-20 250.25,0 421.5,0 421.5,-20"/>
<text text-anchor="middle" x="335.88" y="-6.5" font-family="Helvetica,sans-Serif" font-size="10.00">PWM_GeneratorEOCEventCallback</text>
</a>
</g>
</g>
<!-- Node2 -->
<g id="Node000002" class="node">
<title>Node2</title>
<g id="a_Node000002"><a xlink:href="a00401.html#ga2cdee1aefacc04ad6ed59618550226d0" target="_top" xlink:title="Initializes PWM module, using the given initialization data.">
<polygon fill="white" stroke="#666666" points="214.25,-20 133,-20 133,0 214.25,0 214.25,-20"/>
<text text-anchor="middle" x="173.62" y="-6.5" font-family="Helvetica,sans-Serif" font-size="10.00">PWM_Initialize</text>
</a>
</g>
</g>
<!-- Node1&#45;&gt;Node2 -->
<g id="edge1_Node000001_Node000002" class="edge">
<title>Node1&#45;&gt;Node2</title>
<g id="a_edge1_Node000001_Node000002"><a xlink:title=" ">
<path fill="none" stroke="#63b8ff" d="M239.16,-10C230.64,-10 222.36,-10 214.73,-10"/>
<polygon fill="#63b8ff" stroke="#63b8ff" points="239.06,-13.5 249.06,-10 239.06,-6.5 239.06,-13.5"/>
</a>
</g>
</g>
<!-- Node3 -->
<g id="Node000003" class="node">
<title>Node3</title>
<g id="a_Node000003"><a xlink:href="a00406.html#ga5e8391114a0cf91ac20002be25e3d352" target="_top" xlink:title="Initializes the System module.">
<polygon fill="white" stroke="#666666" points="97,-20 0,-20 0,0 97,0 97,-20"/>
<text text-anchor="middle" x="48.5" y="-6.5" font-family="Helvetica,sans-Serif" font-size="10.00">SYSTEM_Initialize</text>
</a>
</g>
</g>
<!-- Node2&#45;&gt;Node3 -->
<g id="edge2_Node000002_Node000003" class="edge">
<title>Node2&#45;&gt;Node3</title>
<g id="a_edge2_Node000002_Node000003"><a xlink:title=" ">
<path fill="none" stroke="#63b8ff" d="M121.85,-10C113.77,-10 105.44,-10 97.43,-10"/>
<polygon fill="#63b8ff" stroke="#63b8ff" points="121.65,-13.5 131.65,-10 121.65,-6.5 121.65,-13.5"/>
</a>
</g>
</g>
</g>
</svg>
