<?xml version="1.0" encoding="UTF-8" standalone="no"?>
<!DOCTYPE svg PUBLIC "-//W3C//DTD SVG 1.1//EN"
 "http://www.w3.org/Graphics/SVG/1.1/DTD/svg11.dtd">
<!-- Generated by graphviz version 2.44.1 (20200629.0846)
 -->
<!-- Title: CAN1_Transmit Pages: 1 -->
<svg width="451pt" height="212pt"
 viewBox="0.00 0.00 451.00 211.55" xmlns="http://www.w3.org/2000/svg" xmlns:xlink="http://www.w3.org/1999/xlink">

<svg id="main" version="1.1" xmlns="http://www.w3.org/2000/svg" xmlns:xlink="http://www.w3.org/1999/xlink" xml:space="preserve">

<style type="text/css"><![CDATA[
.node, .edge {opacity: 0.7;}
.node.selected, .edge.selected {opacity: 1;}
.edge:hover path { stroke: red; }
.edge:hover polygon { stroke: red; fill: red; }
]]></style>
<script type="application/ecmascript" xlink:href="svg.min.js"/>
<svg id="graph" class="graph">
<g id="graph0" class="graph" transform="scale(1 1) rotate(0) translate(4 207.55)">
<title>CAN1_Transmit</title>
<!-- Node1 -->
<g id="Node000001" class="node">
<title>Node1</title>
<g id="a_Node000001"><a xlink:title="Writes the CAN message object to specified transmit FIFO channel.">
<polygon fill="#999999" stroke="#666666" points="85,-122.5 0,-122.5 0,-103.5 85,-103.5 85,-122.5"/>
<text text-anchor="middle" x="42.5" y="-110.5" font-family="Helvetica,sans-Serif" font-size="10.00">CAN1_Transmit</text>
</a>
</g>
</g>
<!-- Node2 -->
<g id="Node000002" class="node">
<title>Node2</title>
<g id="a_Node000002"><a xlink:href="a00405.html#ga61d156b0e75424f9b630cef5c424ac13" target="_top" xlink:title="This function get the DLC enum based decimal value.">
<polygon fill="white" stroke="#666666" points="443,-178.5 309,-178.5 309,-159.5 443,-159.5 443,-178.5"/>
<text text-anchor="middle" x="376" y="-166.5" font-family="Helvetica,sans-Serif" font-size="10.00">CAN1_DlcToDataBytesGet</text>
</a>
</g>
</g>
<!-- Node1&#45;&gt;Node2 -->
<g id="edge1_Node000001_Node000002" class="edge">
<title>Node1&#45;&gt;Node2</title>
<g id="a_edge1_Node000001_Node000002"><a xlink:title=" ">
<path fill="none" stroke="#63b8ff" d="M49.72,-122.72C61.31,-139.81 88.02,-174.66 121,-188 193.82,-217.47 287.9,-196.89 338.66,-181.53"/>
<polygon fill="#63b8ff" stroke="#63b8ff" points="339.71,-184.87 348.21,-178.54 337.62,-178.18 339.71,-184.87"/>
</a>
</g>
</g>
<!-- Node3 -->
<g id="Node000003" class="node">
<title>Node3</title>
<g id="a_Node000003"><a xlink:href="a00405.html#ga57b30800d7bd3b3c936f578ca1fd7e32" target="_top" xlink:title="This function get the FIFO user address, message depth and payload size information.">
<polygon fill="white" stroke="#666666" points="249.5,-178.5 144.5,-178.5 144.5,-159.5 249.5,-159.5 249.5,-178.5"/>
<text text-anchor="middle" x="197" y="-166.5" font-family="Helvetica,sans-Serif" font-size="10.00">CAN1_FIFO_InfoGet</text>
</a>
</g>
</g>
<!-- Node1&#45;&gt;Node3 -->
<g id="edge2_Node000001_Node000003" class="edge">
<title>Node1&#45;&gt;Node3</title>
<g id="a_edge2_Node000001_Node000003"><a xlink:title=" ">
<path fill="none" stroke="#63b8ff" d="M60.27,-122.57C75.65,-131.02 99.29,-143.18 121,-151 126.87,-153.11 133.09,-155.06 139.33,-156.82"/>
<polygon fill="#63b8ff" stroke="#63b8ff" points="138.56,-160.23 149.12,-159.43 140.36,-153.47 138.56,-160.23"/>
</a>
</g>
</g>
<!-- Node4 -->
<g id="Node000004" class="node">
<title>Node4</title>
<g id="a_Node000004"><a xlink:href="a00405.html#ga0980f888cad241edaa859783bb4a89d7" target="_top" xlink:title="This function Read the message object from user input and update to the CAN1 TX FIFO.">
<polygon fill="white" stroke="#666666" points="265.5,-141.5 128.5,-141.5 128.5,-122.5 265.5,-122.5 265.5,-141.5"/>
<text text-anchor="middle" x="197" y="-129.5" font-family="Helvetica,sans-Serif" font-size="10.00">CAN1_MessageWriteToFifo</text>
</a>
</g>
</g>
<!-- Node1&#45;&gt;Node4 -->
<g id="edge3_Node000001_Node000004" class="edge">
<title>Node1&#45;&gt;Node4</title>
<g id="a_edge3_Node000001_Node000004"><a xlink:title=" ">
<path fill="none" stroke="#63b8ff" d="M85.17,-118.19C95.47,-119.48 106.84,-120.89 118.25,-122.31"/>
<polygon fill="#63b8ff" stroke="#63b8ff" points="117.91,-125.8 128.26,-123.56 118.77,-118.85 117.91,-125.8"/>
</a>
</g>
</g>
<!-- Node5 -->
<g id="Node000005" class="node">
<title>Node5</title>
<g id="a_Node000005"><a xlink:href="a00405.html#gaedd6e334545a38cd71fe86ff4f9e78c3" target="_top" xlink:title="Get the CAN1 operation mode.">
<polygon fill="white" stroke="#666666" points="261.5,-104.5 132.5,-104.5 132.5,-85.5 261.5,-85.5 261.5,-104.5"/>
<text text-anchor="middle" x="197" y="-92.5" font-family="Helvetica,sans-Serif" font-size="10.00">CAN1_OperationModeGet</text>
</a>
</g>
</g>
<!-- Node1&#45;&gt;Node5 -->
<g id="edge5_Node000001_Node000005" class="edge">
<title>Node1&#45;&gt;Node5</title>
<g id="a_edge5_Node000001_Node000005"><a xlink:title=" ">
<path fill="none" stroke="#63b8ff" d="M85.17,-108.08C96.65,-106.73 109.46,-105.21 122.18,-103.71"/>
<polygon fill="#63b8ff" stroke="#63b8ff" points="122.81,-107.16 132.33,-102.51 121.99,-100.21 122.81,-107.16"/>
</a>
</g>
</g>
<!-- Node6 -->
<g id="Node000006" class="node">
<title>Node6</title>
<g id="a_Node000006"><a xlink:href="a00405.html#ga1d293f033f5d27b360cf00d4644c63eb" target="_top" xlink:title="Returns the CAN1 transmitter FIFO status.">
<polygon fill="white" stroke="#666666" points="272.5,-67.5 121.5,-67.5 121.5,-48.5 272.5,-48.5 272.5,-67.5"/>
<text text-anchor="middle" x="197" y="-55.5" font-family="Helvetica,sans-Serif" font-size="10.00">CAN1_TransmitFIFOStatusGet</text>
</a>
</g>
</g>
<!-- Node1&#45;&gt;Node6 -->
<g id="edge6_Node000001_Node000006" class="edge">
<title>Node1&#45;&gt;Node6</title>
<g id="a_edge6_Node000001_Node000006"><a xlink:title=" ">
<path fill="none" stroke="#63b8ff" d="M61.57,-103.43C77.03,-95.53 100.03,-84.45 121,-77 127.87,-74.56 135.21,-72.3 142.5,-70.25"/>
<polygon fill="#63b8ff" stroke="#63b8ff" points="143.61,-73.57 152.36,-67.59 141.79,-66.81 143.61,-73.57"/>
</a>
</g>
</g>
<!-- Node7 -->
<g id="Node000007" class="node">
<title>Node7</title>
<g id="a_Node000007"><a xlink:href="a00405.html#gaedb86f6e4e8ac0efba711d7f3d7b688c" target="_top" xlink:title="This function enables The FIFO transmit message send request bit.">
<polygon fill="white" stroke="#666666" points="273,-30 121,-30 121,0 273,0 273,-30"/>
<text text-anchor="start" x="129" y="-18" font-family="Helvetica,sans-Serif" font-size="10.00">CAN1_TX_FIFO_MessageSend</text>
<text text-anchor="middle" x="197" y="-7" font-family="Helvetica,sans-Serif" font-size="10.00">Request</text>
</a>
</g>
</g>
<!-- Node1&#45;&gt;Node7 -->
<g id="edge7_Node000001_Node000007" class="edge">
<title>Node1&#45;&gt;Node7</title>
<g id="a_edge7_Node000001_Node000007"><a xlink:title=" ">
<path fill="none" stroke="#63b8ff" d="M51.51,-103.06C64.54,-87.53 91.81,-57.45 121,-40 124.58,-37.86 128.36,-35.88 132.26,-34.04"/>
<polygon fill="#63b8ff" stroke="#63b8ff" points="133.71,-37.23 141.49,-30.03 130.92,-30.81 133.71,-37.23"/>
</a>
</g>
</g>
<!-- Node4&#45;&gt;Node2 -->
<g id="edge4_Node000004_Node000002" class="edge">
<title>Node4&#45;&gt;Node2</title>
<g id="a_edge4_Node000004_Node000002"><a xlink:title=" ">
<path fill="none" stroke="#63b8ff" d="M243.58,-141.53C266.72,-146.36 295.02,-152.28 319.42,-157.38"/>
<polygon fill="#63b8ff" stroke="#63b8ff" points="318.76,-160.82 329.27,-159.44 320.19,-153.97 318.76,-160.82"/>
</a>
</g>
</g>
</g>
</svg>
</svg>

<style type='text/css'>
<![CDATA[
[data-mouse-over-selected='false'] { opacity: 0.7; }
[data-mouse-over-selected='true']  { opacity: 1.0; }
]]>
</style>
<script type="application/ecmascript"><![CDATA[
document.addEventListener('DOMContentLoaded', (event) => {
  highlightEdges();
  highlightAdjacentNodes();
});
]]></script>
</svg>
