<?xml version="1.0" encoding="UTF-8" standalone="no"?>
<!DOCTYPE svg PUBLIC "-//W3C//DTD SVG 1.1//EN"
 "http://www.w3.org/Graphics/SVG/1.1/DTD/svg11.dtd">
<!-- Generated by graphviz version 2.44.1 (20200629.0846)
 -->
<!-- Title: CAN1_Initialize Pages: 1 -->
<svg width="482pt" height="605pt"
 viewBox="0.00 0.00 482.00 605.00" xmlns="http://www.w3.org/2000/svg" xmlns:xlink="http://www.w3.org/1999/xlink">
<g id="graph0" class="graph" transform="scale(1 1) rotate(0) translate(4 601)">
<title>CAN1_Initialize</title>
<!-- Node1 -->
<g id="Node000001" class="node">
<title>Node1</title>
<g id="a_Node000001"><a xlink:title="Initializes CAN1 module.">
<polygon fill="#999999" stroke="#666666" points="83,-234 0,-234 0,-215 83,-215 83,-234"/>
<text text-anchor="middle" x="41.5" y="-222" font-family="Helvetica,sans-Serif" font-size="10.00">CAN1_Initialize</text>
</a>
</g>
</g>
<!-- Node2 -->
<g id="Node000002" class="node">
<title>Node2</title>
<g id="a_Node000002"><a xlink:href="a00405.html#gabad0a60bbd68c053885720c843f72ed5" target="_top" xlink:title="This function configure the CAN1 bit rate settings.">
<polygon fill="white" stroke="#666666" points="261,-345 125,-345 125,-326 261,-326 261,-345"/>
<text text-anchor="middle" x="193" y="-333" font-family="Helvetica,sans-Serif" font-size="10.00">CAN1_BitRateConfiguration</text>
</a>
</g>
</g>
<!-- Node1&#45;&gt;Node2 -->
<g id="edge1_Node000001_Node000002" class="edge">
<title>Node1&#45;&gt;Node2</title>
<g id="a_edge1_Node000001_Node000002"><a xlink:title=" ">
<path fill="none" stroke="#63b8ff" d="M47.58,-234.12C58.17,-253.19 84.5,-295.77 119,-317.5 121.62,-319.15 124.38,-320.65 127.24,-322.01"/>
<polygon fill="#63b8ff" stroke="#63b8ff" points="126.04,-325.3 136.61,-325.91 128.73,-318.84 126.04,-325.3"/>
</a>
</g>
</g>
<!-- Node3 -->
<g id="Node000003" class="node">
<title>Node3</title>
<g id="a_Node000003"><a xlink:href="a00405.html#gaa87a20920f9eeb971cc0fb144ab9f9ee" target="_top" xlink:title="This function enables the CAN1 error notification interrupt.">
<polygon fill="white" stroke="#666666" points="266,-308 120,-308 120,-289 266,-289 266,-308"/>
<text text-anchor="middle" x="193" y="-296" font-family="Helvetica,sans-Serif" font-size="10.00">CAN1_ErrorNotificationEnable</text>
</a>
</g>
</g>
<!-- Node1&#45;&gt;Node3 -->
<g id="edge2_Node000001_Node000003" class="edge">
<title>Node1&#45;&gt;Node3</title>
<g id="a_edge2_Node000001_Node000003"><a xlink:title=" ">
<path fill="none" stroke="#63b8ff" d="M53.03,-234.33C67.03,-246.87 93.05,-268.38 119,-280.5 123.28,-282.5 127.82,-284.29 132.44,-285.9"/>
<polygon fill="#63b8ff" stroke="#63b8ff" points="131.43,-289.25 142.02,-288.94 133.55,-282.58 131.43,-289.25"/>
</a>
</g>
</g>
<!-- Node18 -->
<g id="Node000018" class="node">
<title>Node18</title>
<g id="a_Node000018"><a xlink:href="a00405.html#gaf5fa07221c88fc4aadfb447301ebfb0e" target="_top" xlink:title="Sets the CAN1 operation mode.">
<polygon fill="white" stroke="#666666" points="257,-271 129,-271 129,-252 257,-252 257,-271"/>
<text text-anchor="middle" x="193" y="-259" font-family="Helvetica,sans-Serif" font-size="10.00">CAN1_OperationModeSet</text>
</a>
</g>
</g>
<!-- Node1&#45;&gt;Node18 -->
<g id="edge17_Node000001_Node000018" class="edge">
<title>Node1&#45;&gt;Node18</title>
<g id="a_edge17_Node000001_Node000018"><a xlink:title=" ">
<path fill="none" stroke="#63b8ff" d="M81.02,-234.08C93.17,-237.1 106.65,-240.44 119,-243.5 126.93,-245.46 135.34,-247.54 143.53,-249.56"/>
<polygon fill="#63b8ff" stroke="#63b8ff" points="142.81,-252.99 153.35,-251.98 144.48,-246.19 142.81,-252.99"/>
</a>
</g>
</g>
<!-- Node20 -->
<g id="Node000020" class="node">
<title>Node20</title>
<g id="a_Node000020"><a xlink:href="a00405.html#ga705b1008d63bc7a6f8355bef60566883" target="_top" xlink:title="This function configure the CAN1 receive FIFO settings.">
<polygon fill="white" stroke="#666666" points="267,-234 119,-234 119,-215 267,-215 267,-234"/>
<text text-anchor="middle" x="193" y="-222" font-family="Helvetica,sans-Serif" font-size="10.00">CAN1_RX_FIFO_Configuration</text>
</a>
</g>
</g>
<!-- Node1&#45;&gt;Node20 -->
<g id="edge19_Node000001_Node000020" class="edge">
<title>Node1&#45;&gt;Node20</title>
<g id="a_edge19_Node000001_Node000020"><a xlink:title=" ">
<path fill="none" stroke="#63b8ff" d="M83.35,-224.5C91.24,-224.5 99.77,-224.5 108.47,-224.5"/>
<polygon fill="#63b8ff" stroke="#63b8ff" points="108.71,-228 118.71,-224.5 108.71,-221 108.71,-228"/>
</a>
</g>
</g>
<!-- Node21 -->
<g id="Node000021" class="node">
<title>Node21</title>
<g id="a_Node000021"><a xlink:href="a00405.html#ga730492bf1df406365f732c477bcd8ef0" target="_top" xlink:title="This function configure the CAN1 filter and mask settings.">
<polygon fill="white" stroke="#666666" points="261.5,-196.5 124.5,-196.5 124.5,-166.5 261.5,-166.5 261.5,-196.5"/>
<text text-anchor="start" x="132.5" y="-184.5" font-family="Helvetica,sans-Serif" font-size="10.00">CAN1_RX_FIFO_FilterMask</text>
<text text-anchor="middle" x="193" y="-173.5" font-family="Helvetica,sans-Serif" font-size="10.00">Configuration</text>
</a>
</g>
</g>
<!-- Node1&#45;&gt;Node21 -->
<g id="edge20_Node000001_Node000021" class="edge">
<title>Node1&#45;&gt;Node21</title>
<g id="a_edge20_Node000001_Node000021"><a xlink:title=" ">
<path fill="none" stroke="#63b8ff" d="M75.68,-214.96C91.72,-210.34 111.51,-204.65 130.19,-199.28"/>
<polygon fill="#63b8ff" stroke="#63b8ff" points="131.18,-202.63 139.83,-196.51 129.25,-195.91 131.18,-202.63"/>
</a>
</g>
</g>
<!-- Node22 -->
<g id="Node000022" class="node">
<title>Node22</title>
<g id="a_Node000022"><a xlink:href="a00405.html#ga226812033c0e8cbd56c917ddd880c4dd" target="_top" xlink:title="This function reset the CAN1 receive message head count.">
<polygon fill="white" stroke="#666666" points="259,-148 127,-148 127,-129 259,-129 259,-148"/>
<text text-anchor="middle" x="193" y="-136" font-family="Helvetica,sans-Serif" font-size="10.00">CAN1_RX_FIFO_ResetInfo</text>
</a>
</g>
</g>
<!-- Node1&#45;&gt;Node22 -->
<g id="edge21_Node000001_Node000022" class="edge">
<title>Node1&#45;&gt;Node22</title>
<g id="a_edge21_Node000001_Node000022"><a xlink:title=" ">
<path fill="none" stroke="#63b8ff" d="M50.86,-214.71C63.92,-200.06 90.6,-172.54 119,-157.5 123.33,-155.21 127.95,-153.18 132.69,-151.39"/>
<polygon fill="#63b8ff" stroke="#63b8ff" points="134.19,-154.57 142.52,-148.03 131.93,-147.95 134.19,-154.57"/>
</a>
</g>
</g>
<!-- Node23 -->
<g id="Node000023" class="node">
<title>Node23</title>
<g id="a_Node000023"><a xlink:href="a00405.html#ga6fa4d488931d7c9ae4c2ef0d8898d202" target="_top" xlink:title="This function configure the CAN1 transmit FIFO settings.">
<polygon fill="white" stroke="#666666" points="266,-111 120,-111 120,-92 266,-92 266,-111"/>
<text text-anchor="middle" x="193" y="-99" font-family="Helvetica,sans-Serif" font-size="10.00">CAN1_TX_FIFO_Configuration</text>
</a>
</g>
</g>
<!-- Node1&#45;&gt;Node23 -->
<g id="edge22_Node000001_Node000023" class="edge">
<title>Node1&#45;&gt;Node23</title>
<g id="a_edge22_Node000001_Node000023"><a xlink:title=" ">
<path fill="none" stroke="#63b8ff" d="M46.84,-214.74C56.59,-194 82.26,-145.4 119,-120.5 122.05,-118.43 125.32,-116.59 128.71,-114.95"/>
<polygon fill="#63b8ff" stroke="#63b8ff" points="130.08,-118.17 137.93,-111.05 127.36,-111.72 130.08,-118.17"/>
</a>
</g>
</g>
<!-- Node4 -->
<g id="Node000004" class="node">
<title>Node4</title>
<g id="a_Node000004"><a xlink:href="a00405.html#gacbe5d017b9015e9756ea3530da8cc8db" target="_top" xlink:title="This is the default callback with weak attribute. The user can override and implement the default cal...">
<polygon fill="white" stroke="#666666" points="450,-597 327,-597 327,-578 450,-578 450,-597"/>
<text text-anchor="middle" x="388.5" y="-585" font-family="Helvetica,sans-Serif" font-size="10.00">CAN1_BusErrorCallback</text>
</a>
</g>
</g>
<!-- Node3&#45;&gt;Node4 -->
<g id="edge3_Node000003_Node000004" class="edge">
<title>Node3&#45;&gt;Node4</title>
<g id="a_edge3_Node000003_Node000004"><a xlink:title=" ">
<path fill="none" stroke="#63b8ff" d="M255.1,-308.1C259.54,-310.6 263.6,-313.69 267,-317.5 342.37,-401.88 225.77,-486.83 303,-569.5 307.13,-573.92 312.06,-577.4 317.44,-580.12"/>
<polygon fill="#63b8ff" stroke="#63b8ff" points="316.25,-583.42 326.83,-584.01 318.93,-576.95 316.25,-583.42"/>
</a>
</g>
</g>
<!-- Node5 -->
<g id="Node000005" class="node">
<title>Node5</title>
<g id="a_Node000005"><a xlink:href="a00405.html#ga55e70b90188be64bc08f86ac9d0d7566" target="_top" xlink:title="This function can be used to override default callback and to define custom callback for CAN1_BusErro...">
<polygon fill="white" stroke="#666666" points="468,-560 309,-560 309,-541 468,-541 468,-560"/>
<text text-anchor="middle" x="388.5" y="-548" font-family="Helvetica,sans-Serif" font-size="10.00">CAN1_BusErrorCallbackRegister</text>
</a>
</g>
</g>
<!-- Node3&#45;&gt;Node5 -->
<g id="edge4_Node000003_Node000005" class="edge">
<title>Node3&#45;&gt;Node5</title>
<g id="a_edge4_Node000003_Node000005"><a xlink:title=" ">
<path fill="none" stroke="#63b8ff" d="M255,-308.19C259.46,-310.67 263.55,-313.73 267,-317.5 332.4,-388.98 236.01,-462.5 303,-532.5 303.78,-533.31 304.58,-534.09 305.41,-534.84"/>
<polygon fill="#63b8ff" stroke="#63b8ff" points="303.36,-537.67 313.48,-540.78 307.51,-532.04 303.36,-537.67"/>
</a>
</g>
</g>
<!-- Node6 -->
<g id="Node000006" class="node">
<title>Node6</title>
<g id="a_Node000006"><a xlink:href="a00405.html#ga63ae61e90d5f2b4353ff69c3d774cd69" target="_top" xlink:title="This is the default callback with weak attribute. The user can override and implement the default cal...">
<polygon fill="white" stroke="#666666" points="474,-523 303,-523 303,-504 474,-504 474,-523"/>
<text text-anchor="middle" x="388.5" y="-511" font-family="Helvetica,sans-Serif" font-size="10.00">CAN1_BusWakeUpActivityCallback</text>
</a>
</g>
</g>
<!-- Node3&#45;&gt;Node6 -->
<g id="edge5_Node000003_Node000006" class="edge">
<title>Node3&#45;&gt;Node6</title>
<g id="a_edge5_Node000003_Node000006"><a xlink:title=" ">
<path fill="none" stroke="#63b8ff" d="M254.52,-308.13C259.14,-310.62 263.4,-313.7 267,-317.5 322.21,-375.78 246.82,-437.16 303,-494.5 304.27,-495.79 305.6,-497.01 306.99,-498.14"/>
<polygon fill="#63b8ff" stroke="#63b8ff" points="305.29,-501.21 315.54,-503.87 309.18,-495.4 305.29,-501.21"/>
</a>
</g>
</g>
<!-- Node7 -->
<g id="Node000007" class="node">
<title>Node7</title>
<g id="a_Node000007"><a xlink:href="a00405.html#gae58473b24d41be10392bd3cd5703b278" target="_top" xlink:title="This function can be used to override default callback and to define custom callback for CAN1_BusWake...">
<polygon fill="white" stroke="#666666" points="474,-485.5 303,-485.5 303,-455.5 474,-455.5 474,-485.5"/>
<text text-anchor="start" x="311" y="-473.5" font-family="Helvetica,sans-Serif" font-size="10.00">CAN1_BusWakeUpActivityCallback</text>
<text text-anchor="middle" x="388.5" y="-462.5" font-family="Helvetica,sans-Serif" font-size="10.00">Register</text>
</a>
</g>
</g>
<!-- Node3&#45;&gt;Node7 -->
<g id="edge6_Node000003_Node000007" class="edge">
<title>Node3&#45;&gt;Node7</title>
<g id="a_edge6_Node000003_Node000007"><a xlink:title=" ">
<path fill="none" stroke="#63b8ff" d="M253.53,-308.05C258.48,-310.54 263.08,-313.64 267,-317.5 309.46,-359.22 261.01,-404.31 303,-446.5 304.08,-447.58 305.2,-448.61 306.36,-449.6"/>
<polygon fill="#63b8ff" stroke="#63b8ff" points="304.37,-452.49 314.54,-455.48 308.46,-446.8 304.37,-452.49"/>
</a>
</g>
</g>
<!-- Node8 -->
<g id="Node000008" class="node">
<title>Node8</title>
<g id="a_Node000008"><a xlink:href="a00405.html#ga9fd5634a4a1d0a49935799d20133a5b3" target="_top" xlink:title="This is the default callback with weak attribute. The user can override and implement the default cal...">
<polygon fill="white" stroke="#666666" points="464,-437 313,-437 313,-418 464,-418 464,-437"/>
<text text-anchor="middle" x="388.5" y="-425" font-family="Helvetica,sans-Serif" font-size="10.00">CAN1_InvalidMessageCallback</text>
</a>
</g>
</g>
<!-- Node3&#45;&gt;Node8 -->
<g id="edge7_Node000003_Node000008" class="edge">
<title>Node3&#45;&gt;Node8</title>
<g id="a_edge7_Node000003_Node000008"><a xlink:title=" ">
<path fill="none" stroke="#63b8ff" d="M252.39,-308.15C257.7,-310.61 262.68,-313.68 267,-317.5 299.57,-346.32 269.95,-380.23 303,-408.5 304.81,-410.05 306.72,-411.48 308.71,-412.8"/>
<polygon fill="#63b8ff" stroke="#63b8ff" points="307.45,-416.1 317.89,-417.91 310.85,-409.99 307.45,-416.1"/>
</a>
</g>
</g>
<!-- Node9 -->
<g id="Node000009" class="node">
<title>Node9</title>
<g id="a_Node000009"><a xlink:href="a00405.html#gadf09a964fe2b5f408d5467bf0a195e7e" target="_top" xlink:title="This function can be used to override default callback and to define custom callback for CAN1_Invalid...">
<polygon fill="white" stroke="#666666" points="464,-399.5 313,-399.5 313,-369.5 464,-369.5 464,-399.5"/>
<text text-anchor="start" x="321" y="-387.5" font-family="Helvetica,sans-Serif" font-size="10.00">CAN1_InvalidMessageCallback</text>
<text text-anchor="middle" x="388.5" y="-376.5" font-family="Helvetica,sans-Serif" font-size="10.00">Register</text>
</a>
</g>
</g>
<!-- Node3&#45;&gt;Node9 -->
<g id="edge8_Node000003_Node000009" class="edge">
<title>Node3&#45;&gt;Node9</title>
<g id="a_edge8_Node000003_Node000009"><a xlink:title=" ">
<path fill="none" stroke="#63b8ff" d="M247.08,-308.12C254.07,-310.57 260.91,-313.65 267,-317.5 288.06,-330.83 282.09,-346.94 303,-360.5 305.46,-362.09 308.03,-363.58 310.67,-364.98"/>
<polygon fill="#63b8ff" stroke="#63b8ff" points="309.37,-368.24 319.91,-369.35 312.37,-361.91 309.37,-368.24"/>
</a>
</g>
</g>
<!-- Node10 -->
<g id="Node000010" class="node">
<title>Node10</title>
<g id="a_Node000010"><a xlink:href="a00405.html#ga9f3a8787946348d5982bd754b1907ec2" target="_top" xlink:title="This is the default callback with weak attribute. The user can override and implement the default cal...">
<polygon fill="white" stroke="#666666" points="459.5,-351 317.5,-351 317.5,-332 459.5,-332 459.5,-351"/>
<text text-anchor="middle" x="388.5" y="-339" font-family="Helvetica,sans-Serif" font-size="10.00">CAN1_ModeChangeCallback</text>
</a>
</g>
</g>
<!-- Node3&#45;&gt;Node10 -->
<g id="edge9_Node000003_Node000010" class="edge">
<title>Node3&#45;&gt;Node10</title>
<g id="a_edge9_Node000003_Node000010"><a xlink:title=" ">
<path fill="none" stroke="#63b8ff" d="M236.94,-308.04C265.75,-314.45 303.9,-322.92 334.58,-329.74"/>
<polygon fill="#63b8ff" stroke="#63b8ff" points="334.15,-333.23 344.68,-331.98 335.67,-326.4 334.15,-333.23"/>
</a>
</g>
</g>
<!-- Node11 -->
<g id="Node000011" class="node">
<title>Node11</title>
<g id="a_Node000011"><a xlink:href="a00405.html#ga180079a3530dfacdb86a24f764f6fc4d" target="_top" xlink:title="This function can be used to override default callback and to define custom callback for CAN1_ModeCha...">
<polygon fill="white" stroke="#666666" points="459.5,-313.5 317.5,-313.5 317.5,-283.5 459.5,-283.5 459.5,-313.5"/>
<text text-anchor="start" x="325.5" y="-301.5" font-family="Helvetica,sans-Serif" font-size="10.00">CAN1_ModeChangeCallback</text>
<text text-anchor="middle" x="388.5" y="-290.5" font-family="Helvetica,sans-Serif" font-size="10.00">Register</text>
</a>
</g>
</g>
<!-- Node3&#45;&gt;Node11 -->
<g id="edge10_Node000003_Node000011" class="edge">
<title>Node3&#45;&gt;Node11</title>
<g id="a_edge10_Node000003_Node000011"><a xlink:title=" ">
<path fill="none" stroke="#63b8ff" d="M266.05,-298.5C279.41,-298.5 293.44,-298.5 307.03,-298.5"/>
<polygon fill="#63b8ff" stroke="#63b8ff" points="307.32,-302 317.32,-298.5 307.32,-295 307.32,-302"/>
</a>
</g>
</g>
<!-- Node12 -->
<g id="Node000012" class="node">
<title>Node12</title>
<g id="a_Node000012"><a xlink:href="a00405.html#gad8a749c14d472ac82978c7e593d06543" target="_top" xlink:title="This is the default callback with weak attribute. The user can override and implement the default cal...">
<polygon fill="white" stroke="#666666" points="469,-265 308,-265 308,-246 469,-246 469,-265"/>
<text text-anchor="middle" x="388.5" y="-253" font-family="Helvetica,sans-Serif" font-size="10.00">CAN1_RxBufferOverFlowCallback</text>
</a>
</g>
</g>
<!-- Node3&#45;&gt;Node12 -->
<g id="edge11_Node000003_Node000012" class="edge">
<title>Node3&#45;&gt;Node12</title>
<g id="a_edge11_Node000003_Node000012"><a xlink:title=" ">
<path fill="none" stroke="#63b8ff" d="M236.94,-288.96C265.75,-282.55 303.9,-274.08 334.58,-267.26"/>
<polygon fill="#63b8ff" stroke="#63b8ff" points="335.67,-270.6 344.68,-265.02 334.15,-263.77 335.67,-270.6"/>
</a>
</g>
</g>
<!-- Node13 -->
<g id="Node000013" class="node">
<title>Node13</title>
<g id="a_Node000013"><a xlink:href="a00405.html#ga1ce191440d01b9f65ab3c8837f6c4c5d" target="_top" xlink:title="This function can be used to override default callback and to define custom callback for CAN1_RxBuffe...">
<polygon fill="white" stroke="#666666" points="469,-227.5 308,-227.5 308,-197.5 469,-197.5 469,-227.5"/>
<text text-anchor="start" x="316" y="-215.5" font-family="Helvetica,sans-Serif" font-size="10.00">CAN1_RxBufferOverFlowCallback</text>
<text text-anchor="middle" x="388.5" y="-204.5" font-family="Helvetica,sans-Serif" font-size="10.00">Register</text>
</a>
</g>
</g>
<!-- Node3&#45;&gt;Node13 -->
<g id="edge12_Node000003_Node000013" class="edge">
<title>Node3&#45;&gt;Node13</title>
<g id="a_edge12_Node000003_Node000013"><a xlink:title=" ">
<path fill="none" stroke="#63b8ff" d="M249.36,-288.87C255.55,-286.63 261.57,-283.89 267,-280.5 288.15,-267.31 282.16,-251.17 303,-237.5 306.13,-235.45 309.42,-233.56 312.84,-231.83"/>
<polygon fill="#63b8ff" stroke="#63b8ff" points="314.46,-234.93 322.08,-227.57 311.53,-228.57 314.46,-234.93"/>
</a>
</g>
</g>
<!-- Node14 -->
<g id="Node000014" class="node">
<title>Node14</title>
<g id="a_Node000014"><a xlink:href="a00405.html#ga9c0579a2606bbdcf40073c96c82e3fc9" target="_top" xlink:title="This is the default callback with weak attribute. The user can override and implement the default cal...">
<polygon fill="white" stroke="#666666" points="458.5,-179 318.5,-179 318.5,-160 458.5,-160 458.5,-179"/>
<text text-anchor="middle" x="388.5" y="-167" font-family="Helvetica,sans-Serif" font-size="10.00">CAN1_SystemErrorCallback</text>
</a>
</g>
</g>
<!-- Node3&#45;&gt;Node14 -->
<g id="edge13_Node000003_Node000014" class="edge">
<title>Node3&#45;&gt;Node14</title>
<g id="a_edge13_Node000003_Node000014"><a xlink:title=" ">
<path fill="none" stroke="#63b8ff" d="M254.18,-288.86C258.82,-286.61 263.17,-283.86 267,-280.5 300.02,-251.56 269.69,-217.1 303,-188.5 305,-186.79 307.11,-185.22 309.33,-183.78"/>
<polygon fill="#63b8ff" stroke="#63b8ff" points="311.19,-186.75 318.29,-178.89 307.84,-180.61 311.19,-186.75"/>
</a>
</g>
</g>
<!-- Node15 -->
<g id="Node000015" class="node">
<title>Node15</title>
<g id="a_Node000015"><a xlink:href="a00405.html#ga589e67cdfd74495013704b8357df54ad" target="_top" xlink:title="This function can be used to override default callback and to define custom callback for CAN1_SystemE...">
<polygon fill="white" stroke="#666666" points="458.5,-141.5 318.5,-141.5 318.5,-111.5 458.5,-111.5 458.5,-141.5"/>
<text text-anchor="start" x="326.5" y="-129.5" font-family="Helvetica,sans-Serif" font-size="10.00">CAN1_SystemErrorCallback</text>
<text text-anchor="middle" x="388.5" y="-118.5" font-family="Helvetica,sans-Serif" font-size="10.00">Register</text>
</a>
</g>
</g>
<!-- Node3&#45;&gt;Node15 -->
<g id="edge14_Node000003_Node000015" class="edge">
<title>Node3&#45;&gt;Node15</title>
<g id="a_edge14_Node000003_Node000015"><a xlink:title=" ">
<path fill="none" stroke="#63b8ff" d="M255.26,-288.9C259.54,-286.63 263.53,-283.86 267,-280.5 309.72,-239.05 261.24,-193.91 303,-151.5 305.06,-149.4 307.29,-147.48 309.65,-145.72"/>
<polygon fill="#63b8ff" stroke="#63b8ff" points="311.57,-148.65 318.12,-140.32 307.81,-142.75 311.57,-148.65"/>
</a>
</g>
</g>
<!-- Node16 -->
<g id="Node000016" class="node">
<title>Node16</title>
<g id="a_Node000016"><a xlink:href="a00405.html#ga348dcbe373245ad35f5d4a22250ae3b8" target="_top" xlink:title="This is the default callback with weak attribute. The user can override and implement the default cal...">
<polygon fill="white" stroke="#666666" points="453.5,-93 323.5,-93 323.5,-74 453.5,-74 453.5,-93"/>
<text text-anchor="middle" x="388.5" y="-81" font-family="Helvetica,sans-Serif" font-size="10.00">CAN1_TxAttemptCallback</text>
</a>
</g>
</g>
<!-- Node3&#45;&gt;Node16 -->
<g id="edge15_Node000003_Node000016" class="edge">
<title>Node3&#45;&gt;Node16</title>
<g id="a_edge15_Node000003_Node000016"><a xlink:title=" ">
<path fill="none" stroke="#63b8ff" d="M255.87,-288.98C259.97,-286.69 263.75,-283.89 267,-280.5 322.86,-222.24 246.55,-160.19 303,-102.5 306.28,-99.15 310.02,-96.33 314.06,-93.96"/>
<polygon fill="#63b8ff" stroke="#63b8ff" points="315.83,-96.99 323.3,-89.48 312.78,-90.69 315.83,-96.99"/>
</a>
</g>
</g>
<!-- Node17 -->
<g id="Node000017" class="node">
<title>Node17</title>
<g id="a_Node000017"><a xlink:href="a00405.html#gaf093799d78b962becbf6810614899884" target="_top" xlink:title="This function can be used to override default callback and to define custom callback for CAN1_TxAttem...">
<polygon fill="white" stroke="#666666" points="471.5,-56 305.5,-56 305.5,-37 471.5,-37 471.5,-56"/>
<text text-anchor="middle" x="388.5" y="-44" font-family="Helvetica,sans-Serif" font-size="10.00">CAN1_TxAttemptCallbackRegister</text>
</a>
</g>
</g>
<!-- Node3&#45;&gt;Node17 -->
<g id="edge16_Node000003_Node000017" class="edge">
<title>Node3&#45;&gt;Node17</title>
<g id="a_edge16_Node000003_Node000017"><a xlink:title=" ">
<path fill="none" stroke="#63b8ff" d="M256.34,-288.91C260.27,-286.62 263.89,-283.85 267,-280.5 332.86,-209.44 236.41,-135.88 303,-65.5 304.1,-64.34 305.25,-63.24 306.45,-62.21"/>
<polygon fill="#63b8ff" stroke="#63b8ff" points="308.83,-64.81 315,-56.21 304.81,-59.08 308.83,-64.81"/>
</a>
</g>
</g>
<!-- Node19 -->
<g id="Node000019" class="node">
<title>Node19</title>
<g id="a_Node000019"><a xlink:href="a00405.html#gaedd6e334545a38cd71fe86ff4f9e78c3" target="_top" xlink:title="Get the CAN1 operation mode.">
<polygon fill="white" stroke="#666666" points="453,-19 324,-19 324,0 453,0 453,-19"/>
<text text-anchor="middle" x="388.5" y="-7" font-family="Helvetica,sans-Serif" font-size="10.00">CAN1_OperationModeGet</text>
</a>
</g>
</g>
<!-- Node18&#45;&gt;Node19 -->
<g id="edge18_Node000018_Node000019" class="edge">
<title>Node18&#45;&gt;Node19</title>
<g id="a_edge18_Node000018_Node000019"><a xlink:title=" ">
<path fill="none" stroke="#63b8ff" d="M256.34,-251.91C260.28,-249.62 263.9,-246.85 267,-243.5 333.13,-172.1 235.74,-97.84 303,-27.5 306.45,-23.9 310.42,-20.92 314.73,-18.48"/>
<polygon fill="#63b8ff" stroke="#63b8ff" points="316.4,-21.57 323.99,-14.18 313.45,-15.22 316.4,-21.57"/>
</a>
</g>
</g>
</g>
</svg>
