<?xml version="1.0" encoding="UTF-8" standalone="no"?>
<!DOCTYPE svg PUBLIC "-//W3C//DTD SVG 1.1//EN"
 "http://www.w3.org/Graphics/SVG/1.1/DTD/svg11.dtd">
<!-- Generated by graphviz version 8.1.0 (20230707.0739)
 -->
<!-- Title: TRAPS_halt_on_error Pages: 1 -->
<svg width="235pt" height="218pt"
 viewBox="0.00 0.00 235.00 218.00" xmlns="http://www.w3.org/2000/svg" xmlns:xlink="http://www.w3.org/1999/xlink">

<svg id="main" version="1.1" xmlns="http://www.w3.org/2000/svg" xmlns:xlink="http://www.w3.org/1999/xlink" xml:space="preserve" onload="init(evt)">
<style type="text/css"><![CDATA[
.node, .edge {opacity: 0.7;}
.node.selected, .edge.selected {opacity: 1;}
.edge:hover path { stroke: red; }
.edge:hover polygon { stroke: red; fill: red; }
]]></style>
<script type="application/ecmascript" xlink:href="svg.min.js"/>
<svg id="graph" class="graph">
<g id="graph0" class="graph" transform="scale(1 1) rotate(0) translate(4 214)">
<title>TRAPS_halt_on_error</title>
<!-- Node1 -->
<g id="Node000001" class="node">
<title>Node1</title>
<g id="a_Node000001"><a xlink:title="Stores the trap error code and waits forever. This is a weak attribute function. The user can overrid...">
<polygon fill="#999999" stroke="#666666" points="227,-115 117.25,-115 117.25,-95 227,-95 227,-115"/>
<text text-anchor="middle" x="172.12" y="-101.5" font-family="Helvetica,sans-Serif" font-size="10.00">TRAPS_halt_on_error</text>
</a>
</g>
</g>
<!-- Node2 -->
<g id="Node000002" class="node">
<title>Node2</title>
<g id="a_Node000002"><a xlink:href="a00841.html#a369f76085b5e8862ed6c95ebc4196240" target="_top" xlink:title=" ">
<polygon fill="white" stroke="#666666" points="79.75,-210 1.5,-210 1.5,-190 79.75,-190 79.75,-210"/>
<text text-anchor="middle" x="40.62" y="-196.5" font-family="Helvetica,sans-Serif" font-size="10.00">_AddressError</text>
</a>
</g>
</g>
<!-- Node1&#45;&gt;Node2 -->
<g id="edge1_Node000001_Node000002" class="edge">
<title>Node1&#45;&gt;Node2</title>
<g id="a_edge1_Node000001_Node000002"><a xlink:title=" ">
<path fill="none" stroke="#63b8ff" d="M153.08,-122.67C135.67,-139.12 108.08,-163.63 81.25,-181 76.38,-184.15 70.91,-187.11 65.63,-189.7"/>
<polygon fill="#63b8ff" stroke="#63b8ff" points="154.96,-125.76 159.76,-116.31 150.12,-120.7 154.96,-125.76"/>
</a>
</g>
</g>
<!-- Node3 -->
<g id="Node000003" class="node">
<title>Node3</title>
<g id="a_Node000003"><a xlink:href="a00841.html#adbfe1bbe232090a223197057a768befb" target="_top" xlink:title=" ">
<polygon fill="white" stroke="#666666" points="81.25,-172 0,-172 0,-152 81.25,-152 81.25,-172"/>
<text text-anchor="middle" x="40.62" y="-158.5" font-family="Helvetica,sans-Serif" font-size="10.00">_HardTrapError</text>
</a>
</g>
</g>
<!-- Node1&#45;&gt;Node3 -->
<g id="edge2_Node000001_Node000003" class="edge">
<title>Node1&#45;&gt;Node3</title>
<g id="a_edge2_Node000001_Node000003"><a xlink:title=" ">
<path fill="none" stroke="#63b8ff" d="M137.48,-119.81C114.8,-129.79 85.44,-142.71 65.23,-151.61"/>
<polygon fill="#63b8ff" stroke="#63b8ff" points="138.63,-122.69 146.37,-115.45 135.81,-116.28 138.63,-122.69"/>
</a>
</g>
</g>
<!-- Node4 -->
<g id="Node000004" class="node">
<title>Node4</title>
<g id="a_Node000004"><a xlink:href="a00841.html#a2017082168ce25fa118fc65101c58620" target="_top" xlink:title=" ">
<polygon fill="white" stroke="#666666" points="72.62,-134 8.62,-134 8.62,-114 72.62,-114 72.62,-134"/>
<text text-anchor="middle" x="40.62" y="-120.5" font-family="Helvetica,sans-Serif" font-size="10.00">_MathError</text>
</a>
</g>
</g>
<!-- Node1&#45;&gt;Node4 -->
<g id="edge3_Node000001_Node000004" class="edge">
<title>Node1&#45;&gt;Node4</title>
<g id="a_edge3_Node000001_Node000004"><a xlink:title=" ">
<path fill="none" stroke="#63b8ff" d="M106.34,-114.5C94.74,-116.21 83.14,-117.91 73.04,-119.39"/>
<polygon fill="#63b8ff" stroke="#63b8ff" points="106.57,-117.86 115.96,-112.95 105.55,-110.94 106.57,-117.86"/>
</a>
</g>
</g>
<!-- Node5 -->
<g id="Node000005" class="node">
<title>Node5</title>
<g id="a_Node000005"><a xlink:href="a00841.html#ae50a96c4daa59acda66ca62e59b2a9a9" target="_top" xlink:title=" ">
<polygon fill="white" stroke="#666666" points="79.75,-96 1.5,-96 1.5,-76 79.75,-76 79.75,-96"/>
<text text-anchor="middle" x="40.62" y="-82.5" font-family="Helvetica,sans-Serif" font-size="10.00">_OscillatorFail</text>
</a>
</g>
</g>
<!-- Node1&#45;&gt;Node5 -->
<g id="edge4_Node000001_Node000005" class="edge">
<title>Node1&#45;&gt;Node5</title>
<g id="a_edge4_Node000001_Node000005"><a xlink:title=" ">
<path fill="none" stroke="#63b8ff" d="M106.17,-95.47C97.29,-94.17 88.42,-92.87 80.22,-91.66"/>
<polygon fill="#63b8ff" stroke="#63b8ff" points="105.55,-99.06 115.96,-97.05 106.57,-92.14 105.55,-99.06"/>
</a>
</g>
</g>
<!-- Node6 -->
<g id="Node000006" class="node">
<title>Node6</title>
<g id="a_Node000006"><a xlink:href="a00841.html#acf6324ef35ef0cdd3aa63c1f195ba553" target="_top" xlink:title=" ">
<polygon fill="white" stroke="#666666" points="79.75,-58 1.5,-58 1.5,-38 79.75,-38 79.75,-58"/>
<text text-anchor="middle" x="40.62" y="-44.5" font-family="Helvetica,sans-Serif" font-size="10.00">_SoftTrapError</text>
</a>
</g>
</g>
<!-- Node1&#45;&gt;Node6 -->
<g id="edge5_Node000001_Node000006" class="edge">
<title>Node1&#45;&gt;Node6</title>
<g id="a_edge5_Node000001_Node000006"><a xlink:title=" ">
<path fill="none" stroke="#63b8ff" d="M137.48,-90.19C114.8,-80.21 85.44,-67.29 65.23,-58.39"/>
<polygon fill="#63b8ff" stroke="#63b8ff" points="135.81,-93.72 146.37,-94.55 138.63,-87.31 135.81,-93.72"/>
</a>
</g>
</g>
<!-- Node7 -->
<g id="Node000007" class="node">
<title>Node7</title>
<g id="a_Node000007"><a xlink:href="a00841.html#a2bb82ba68a7d3e7a3384ae5b6d2c5205" target="_top" xlink:title=" ">
<polygon fill="white" stroke="#666666" points="74.5,-20 6.75,-20 6.75,0 74.5,0 74.5,-20"/>
<text text-anchor="middle" x="40.62" y="-6.5" font-family="Helvetica,sans-Serif" font-size="10.00">_StackError</text>
</a>
</g>
</g>
<!-- Node1&#45;&gt;Node7 -->
<g id="edge6_Node000001_Node000007" class="edge">
<title>Node1&#45;&gt;Node7</title>
<g id="a_edge6_Node000001_Node000007"><a xlink:title=" ">
<path fill="none" stroke="#63b8ff" d="M153.08,-87.33C135.67,-70.88 108.08,-46.37 81.25,-29 76.38,-25.85 70.91,-22.89 65.63,-20.3"/>
<polygon fill="#63b8ff" stroke="#63b8ff" points="150.12,-89.3 159.76,-93.69 154.96,-84.24 150.12,-89.3"/>
</a>
</g>
</g>
</g>
</svg>
</svg>

<style type='text/css'>
<![CDATA[
[data-mouse-over-selected='false'] { opacity: 0.7; }
[data-mouse-over-selected='true']  { opacity: 1.0; }
]]>
</style>
<script type="application/ecmascript"><![CDATA[
document.addEventListener('DOMContentLoaded', (event) => {
  highlightEdges();
  highlightAdjacentNodes();
});
]]></script>
</svg>
