<?xml version="1.0" encoding="UTF-8" standalone="no"?>
<!DOCTYPE svg PUBLIC "-//W3C//DTD SVG 1.1//EN"
 "http://www.w3.org/Graphics/SVG/1.1/DTD/svg11.dtd">
<!-- Generated by graphviz version 2.44.1 (20200629.0846)
 -->
<!-- Title: SCCP2_Timer_Initialize Pages: 1 -->
<svg width="318pt" height="76pt"
 viewBox="0.00 0.00 318.00 75.50" xmlns="http://www.w3.org/2000/svg" xmlns:xlink="http://www.w3.org/1999/xlink">
<g id="graph0" class="graph" transform="scale(1 1) rotate(0) translate(4 71.5)">
<title>SCCP2_Timer_Initialize</title>
<!-- Node1 -->
<g id="Node000001" class="node">
<title>Node1</title>
<g id="a_Node000001"><a xlink:title="Initializes the SCCP2 module.">
<polygon fill="#999999" stroke="#666666" points="119,-45.5 0,-45.5 0,-26.5 119,-26.5 119,-45.5"/>
<text text-anchor="middle" x="59.5" y="-33.5" font-family="Helvetica,sans-Serif" font-size="10.00">SCCP2_Timer_Initialize</text>
</a>
</g>
</g>
<!-- Node2 -->
<g id="Node000002" class="node">
<title>Node2</title>
<g id="a_Node000002"><a xlink:href="a00416.html#gaa6c785187e0beb7a4d612bec1ade2dc2" target="_top" xlink:title="This is the default callback with weak attribute. The user can override and implement the default cal...">
<polygon fill="white" stroke="#666666" points="295.5,-67.5 169.5,-67.5 169.5,-48.5 295.5,-48.5 295.5,-67.5"/>
<text text-anchor="middle" x="232.5" y="-55.5" font-family="Helvetica,sans-Serif" font-size="10.00">SCCP2_TimeoutCallback</text>
</a>
</g>
</g>
<!-- Node1&#45;&gt;Node2 -->
<g id="edge1_Node000001_Node000002" class="edge">
<title>Node1&#45;&gt;Node2</title>
<g id="a_edge1_Node000001_Node000002"><a xlink:title=" ">
<path fill="none" stroke="#63b8ff" d="M119.35,-43.57C132.21,-45.23 145.96,-46.99 159.27,-48.71"/>
<polygon fill="#63b8ff" stroke="#63b8ff" points="158.97,-52.2 169.34,-50 159.86,-45.25 158.97,-52.2"/>
</a>
</g>
</g>
<!-- Node3 -->
<g id="Node000003" class="node">
<title>Node3</title>
<g id="a_Node000003"><a xlink:href="a00416.html#ga6a01d4b9493f6a01fd6e3bf28e09245f" target="_top" xlink:title="This function can be used to override default callback and to define custom callback for SCCP2 Timeou...">
<polygon fill="white" stroke="#666666" points="310,-30 155,-30 155,0 310,0 310,-30"/>
<text text-anchor="start" x="163" y="-18" font-family="Helvetica,sans-Serif" font-size="10.00">SCCP2_Timer_TimeoutCallback</text>
<text text-anchor="middle" x="232.5" y="-7" font-family="Helvetica,sans-Serif" font-size="10.00">Register</text>
</a>
</g>
</g>
<!-- Node1&#45;&gt;Node3 -->
<g id="edge2_Node000001_Node000003" class="edge">
<title>Node1&#45;&gt;Node3</title>
<g id="a_edge2_Node000001_Node000003"><a xlink:title=" ">
<path fill="none" stroke="#63b8ff" d="M119.35,-28.77C127.54,-27.77 136.1,-26.72 144.67,-25.66"/>
<polygon fill="#63b8ff" stroke="#63b8ff" points="145.23,-29.12 154.73,-24.43 144.37,-22.17 145.23,-29.12"/>
</a>
</g>
</g>
</g>
</svg>
