<?xml version="1.0" encoding="UTF-8" standalone="no"?>
<!DOCTYPE svg PUBLIC "-//W3C//DTD SVG 1.1//EN"
 "http://www.w3.org/Graphics/SVG/1.1/DTD/svg11.dtd">
<!-- Generated by graphviz version 2.44.1 (20200629.0846)
 -->
<!-- Title: Driver Layer Pages: 1 -->
<svg width="321pt" height="175pt"
 viewBox="0.00 0.00 321.00 175.00" xmlns="http://www.w3.org/2000/svg" xmlns:xlink="http://www.w3.org/1999/xlink">

<svg id="main" version="1.1" xmlns="http://www.w3.org/2000/svg" xmlns:xlink="http://www.w3.org/1999/xlink" xml:space="preserve">

<style type="text/css"><![CDATA[
.node, .edge {opacity: 0.7;}
.node.selected, .edge.selected {opacity: 1;}
.edge:hover path { stroke: red; }
.edge:hover polygon { stroke: red; fill: red; }
]]></style>
<script type="application/ecmascript" xlink:href="svg.min.js"/>
<svg id="graph" class="graph">
<g id="graph0" class="graph" transform="scale(1 1) rotate(0) translate(4 171)">
<title>Driver Layer</title>
<!-- Node1 -->
<g id="Node000001" class="node">
<title>Node1</title>
<g id="a_Node000001"><a xlink:title="Primary Driver Layer.">
<polygon fill="#999999" stroke="#666666" points="205,-93 137,-93 137,-74 205,-74 205,-93"/>
<text text-anchor="middle" x="171" y="-81" font-family="Helvetica,sans-Serif" font-size="10.00">Driver Layer</text>
</a>
</g>
</g>
<!-- Node4 -->
<g id="Node000004" class="node">
<title>Node4</title>
<g id="a_Node000004"><a xlink:href="a00424.html" target="_top" xlink:title="CAN&#45;FD Driver to commuincate to Power Board Visualizer.">
<polygon fill="white" stroke="#666666" points="309,-167 245,-167 245,-148 309,-148 309,-167"/>
<text text-anchor="middle" x="277" y="-155" font-family="Helvetica,sans-Serif" font-size="10.00">CAN Driver</text>
</a>
</g>
</g>
<!-- Node1&#45;&gt;Node4 -->
<g id="edge3" class="edge">
<title>Node1&#45;&gt;Node4</title>
<path fill="none" stroke="black" d="M190.3,-100.1C203.76,-111.88 222.81,-127.63 241,-139.5 245.58,-142.49 250.71,-145.37 255.61,-147.91"/>
<polygon fill="black" stroke="black" points="192.5,-97.38 182.69,-93.36 187.85,-102.61 192.5,-97.38"/>
</g>
<!-- Node5 -->
<g id="Node000005" class="node">
<title>Node5</title>
<g id="a_Node000005"><a xlink:href="a00425.html" target="_top" xlink:title="builds upon MCC DMA">
<polygon fill="white" stroke="#666666" points="309.5,-130 244.5,-130 244.5,-111 309.5,-111 309.5,-130"/>
<text text-anchor="middle" x="277" y="-118" font-family="Helvetica,sans-Serif" font-size="10.00">DMA Driver</text>
</a>
</g>
</g>
<!-- Node1&#45;&gt;Node5 -->
<g id="edge4" class="edge">
<title>Node1&#45;&gt;Node5</title>
<path fill="none" stroke="black" d="M208.59,-96.52C221.87,-101.24 236.63,-106.49 248.95,-110.88"/>
<polygon fill="black" stroke="black" points="209.38,-93.08 198.78,-93.03 207.03,-99.68 209.38,-93.08"/>
</g>
<!-- Node6 -->
<g id="Node000006" class="node">
<title>Node6</title>
<g id="a_Node000006"><a xlink:href="a00426.html" target="_top" xlink:title="builds upon MCC I2C">
<polygon fill="white" stroke="#666666" points="306,-93 248,-93 248,-74 306,-74 306,-93"/>
<text text-anchor="middle" x="277" y="-81" font-family="Helvetica,sans-Serif" font-size="10.00">I2C Driver</text>
</a>
</g>
</g>
<!-- Node1&#45;&gt;Node6 -->
<g id="edge5" class="edge">
<title>Node1&#45;&gt;Node6</title>
<path fill="none" stroke="black" d="M215.41,-83.5C226.31,-83.5 237.72,-83.5 247.66,-83.5"/>
<polygon fill="black" stroke="black" points="215.19,-80 205.19,-83.5 215.19,-87 215.19,-80"/>
</g>
<!-- Node7 -->
<g id="Node000007" class="node">
<title>Node7</title>
<g id="a_Node000007"><a xlink:href="a00427.html" target="_top" xlink:title="builds upon MCC SPI">
<polygon fill="white" stroke="#666666" points="306.5,-56 247.5,-56 247.5,-37 306.5,-37 306.5,-56"/>
<text text-anchor="middle" x="277" y="-44" font-family="Helvetica,sans-Serif" font-size="10.00">SPI Driver</text>
</a>
</g>
</g>
<!-- Node1&#45;&gt;Node7 -->
<g id="edge6" class="edge">
<title>Node1&#45;&gt;Node7</title>
<path fill="none" stroke="black" d="M208.59,-70.48C221.87,-65.76 236.63,-60.51 248.95,-56.12"/>
<polygon fill="black" stroke="black" points="207.03,-67.32 198.78,-73.97 209.38,-73.92 207.03,-67.32"/>
</g>
<!-- Node3 -->
<g id="Node000003" class="node">
<title>Node3</title>
<g id="a_Node000003"><a xlink:href="a00423.html" target="_top" xlink:title="Driver for Isolated AC Voltage Acquistion Board.">
<polygon fill="white" stroke="#666666" points="313,-19 241,-19 241,0 313,0 313,-19"/>
<text text-anchor="middle" x="277" y="-7" font-family="Helvetica,sans-Serif" font-size="10.00">VAC Monitor</text>
</a>
</g>
</g>
<!-- Node1&#45;&gt;Node3 -->
<g id="edge2" class="edge">
<title>Node1&#45;&gt;Node3</title>
<path fill="none" stroke="black" d="M190.3,-66.9C203.76,-55.12 222.81,-39.37 241,-27.5 245.58,-24.51 250.71,-21.63 255.61,-19.09"/>
<polygon fill="black" stroke="black" points="187.85,-64.39 182.69,-73.64 192.5,-69.62 187.85,-64.39"/>
</g>
<!-- Node2 -->
<g id="Node000002" class="node">
<title>Node2</title>
<g id="a_Node000002"><a xlink:href="a00399.html" target="_top" xlink:title="Functions performed by the primary core of the dsPIC33CH.">
<polygon fill="white" stroke="#666666" points="101,-93 0,-93 0,-74 101,-74 101,-93"/>
<text text-anchor="middle" x="50.5" y="-81" font-family="Helvetica,sans-Serif" font-size="10.00">Primary Core Layer</text>
</a>
</g>
</g>
<!-- Node2&#45;&gt;Node1 -->
<g id="edge1" class="edge">
<title>Node2&#45;&gt;Node1</title>
<path fill="none" stroke="black" d="M111.32,-83.5C120.09,-83.5 128.83,-83.5 136.8,-83.5"/>
<polygon fill="black" stroke="black" points="111.07,-80 101.07,-83.5 111.07,-87 111.07,-80"/>
</g>
</g>
</svg>
</svg>

<style type='text/css'>
<![CDATA[
[data-mouse-over-selected='false'] { opacity: 0.7; }
[data-mouse-over-selected='true']  { opacity: 1.0; }
]]>
</style>
<script type="application/ecmascript"><![CDATA[
document.addEventListener('DOMContentLoaded', (event) => {
  highlightEdges();
  highlightAdjacentNodes();
});
]]></script>
</svg>
