<?xml version="1.0" encoding="UTF-8" standalone="no"?>
<!DOCTYPE svg PUBLIC "-//W3C//DTD SVG 1.1//EN"
 "http://www.w3.org/Graphics/SVG/1.1/DTD/svg11.dtd">
<!-- Generated by graphviz version 2.44.1 (20200629.0846)
 -->
<!-- Title: Drv_SPI_Timeout Pages: 1 -->
<svg width="562pt" height="138pt"
 viewBox="0.00 0.00 562.00 138.00" xmlns="http://www.w3.org/2000/svg" xmlns:xlink="http://www.w3.org/1999/xlink">
<g id="graph0" class="graph" transform="scale(1 1) rotate(0) translate(4 134)">
<title>Drv_SPI_Timeout</title>
<!-- Node1 -->
<g id="Node000001" class="node">
<title>Node1</title>
<g id="a_Node000001"><a xlink:title="check for SPI timeout">
<polygon fill="#999999" stroke="#666666" points="91,-74 0,-74 0,-55 91,-55 91,-74"/>
<text text-anchor="middle" x="45.5" y="-62" font-family="Helvetica,sans-Serif" font-size="10.00">Drv_SPI_Timeout</text>
</a>
</g>
</g>
<!-- Node2 -->
<g id="Node000002" class="node">
<title>Node2</title>
<g id="a_Node000002"><a xlink:href="a00427.html#ga145f1f1255a7289b74ff5907798d21fa" target="_top" xlink:title="synchronize to SPI bus">
<polygon fill="white" stroke="#666666" points="219,-74 127,-74 127,-55 219,-55 219,-74"/>
<text text-anchor="middle" x="173" y="-62" font-family="Helvetica,sans-Serif" font-size="10.00">SPI_Synchronize</text>
</a>
</g>
</g>
<!-- Node1&#45;&gt;Node2 -->
<g id="edge1_Node000001_Node000002" class="edge">
<title>Node1&#45;&gt;Node2</title>
<g id="a_edge1_Node000001_Node000002"><a xlink:title=" ">
<path fill="none" stroke="#63b8ff" d="M91.1,-64.5C99.31,-64.5 107.98,-64.5 116.47,-64.5"/>
<polygon fill="#63b8ff" stroke="#63b8ff" points="116.7,-68 126.7,-64.5 116.7,-61 116.7,-68"/>
</a>
</g>
</g>
<!-- Node3 -->
<g id="Node000003" class="node">
<title>Node3</title>
<g id="a_Node000003"><a xlink:href="a00418.html#gab59dab7bbec7ad0589d0fa8f57769a94" target="_top" xlink:title="This inline function disables the DMA channel.">
<polygon fill="white" stroke="#666666" points="366,-130 255,-130 255,-111 366,-111 366,-130"/>
<text text-anchor="middle" x="310.5" y="-118" font-family="Helvetica,sans-Serif" font-size="10.00">DMA_ChannelDisable</text>
</a>
</g>
</g>
<!-- Node2&#45;&gt;Node3 -->
<g id="edge2_Node000002_Node000003" class="edge">
<title>Node2&#45;&gt;Node3</title>
<g id="a_edge2_Node000002_Node000003"><a xlink:title=" ">
<path fill="none" stroke="#63b8ff" d="M192.7,-74.06C208.94,-82.16 233.21,-93.83 255,-102.5 259.45,-104.27 264.16,-106.01 268.86,-107.67"/>
<polygon fill="#63b8ff" stroke="#63b8ff" points="267.83,-111.02 278.43,-110.95 270.1,-104.4 267.83,-111.02"/>
</a>
</g>
</g>
<!-- Node4 -->
<g id="Node000004" class="node">
<title>Node4</title>
<g id="a_Node000004"><a xlink:href="a00418.html#gad10f447e17425a18eac1b5186e2e8699" target="_top" xlink:title="This inline function enables the DMA channel.">
<polygon fill="white" stroke="#666666" points="365,-93 256,-93 256,-74 365,-74 365,-93"/>
<text text-anchor="middle" x="310.5" y="-81" font-family="Helvetica,sans-Serif" font-size="10.00">DMA_ChannelEnable</text>
</a>
</g>
</g>
<!-- Node2&#45;&gt;Node4 -->
<g id="edge3_Node000002_Node000004" class="edge">
<title>Node2&#45;&gt;Node4</title>
<g id="a_edge3_Node000002_Node000004"><a xlink:title=" ">
<path fill="none" stroke="#63b8ff" d="M219.12,-70.83C227.62,-72.02 236.66,-73.29 245.61,-74.54"/>
<polygon fill="#63b8ff" stroke="#63b8ff" points="245.25,-78.03 255.64,-75.95 246.23,-71.09 245.25,-78.03"/>
</a>
</g>
</g>
<!-- Node5 -->
<g id="Node000005" class="node">
<title>Node5</title>
<g id="a_Node000005"><a xlink:href="a00418.html#ga3950883876bea54b441aaf14ff17d47e" target="_top" xlink:title="Initializes the DMA module.">
<polygon fill="white" stroke="#666666" points="350,-56 271,-56 271,-37 350,-37 350,-56"/>
<text text-anchor="middle" x="310.5" y="-44" font-family="Helvetica,sans-Serif" font-size="10.00">DMA_Initialize</text>
</a>
</g>
</g>
<!-- Node2&#45;&gt;Node5 -->
<g id="edge4_Node000002_Node000005" class="edge">
<title>Node2&#45;&gt;Node5</title>
<g id="a_edge4_Node000002_Node000005"><a xlink:title=" ">
<path fill="none" stroke="#63b8ff" d="M219.12,-58.51C232.49,-56.73 247.2,-54.78 260.79,-52.97"/>
<polygon fill="#63b8ff" stroke="#63b8ff" points="261.47,-56.41 270.92,-51.62 260.55,-49.47 261.47,-56.41"/>
</a>
</g>
</g>
<!-- Node8 -->
<g id="Node000008" class="node">
<title>Node8</title>
<g id="a_Node000008"><a xlink:href="a00419.html#ga0607cad7a6b302950091fea719146a54" target="_top" xlink:title="Initializes SPI1 module, using the given initialization data. This function must be called before any...">
<polygon fill="white" stroke="#666666" points="349.5,-19 271.5,-19 271.5,0 349.5,0 349.5,-19"/>
<text text-anchor="middle" x="310.5" y="-7" font-family="Helvetica,sans-Serif" font-size="10.00">SPI1_Initialize</text>
</a>
</g>
</g>
<!-- Node2&#45;&gt;Node8 -->
<g id="edge7_Node000002_Node000008" class="edge">
<title>Node2&#45;&gt;Node8</title>
<g id="a_edge7_Node000002_Node000008"><a xlink:title=" ">
<path fill="none" stroke="#63b8ff" d="M194.44,-54.85C210.7,-47.31 234.11,-36.77 255,-28.5 260.18,-26.45 265.69,-24.39 271.13,-22.43"/>
<polygon fill="#63b8ff" stroke="#63b8ff" points="272.51,-25.65 280.77,-19.02 270.17,-19.05 272.51,-25.65"/>
</a>
</g>
</g>
<!-- Node6 -->
<g id="Node000006" class="node">
<title>Node6</title>
<g id="a_Node000006"><a xlink:href="a00418.html#ga9f16d166d637fd9005839b1e1822dc63" target="_top" xlink:title="This is the default callback with weak attribute. The user can override and implement the default cal...">
<polygon fill="white" stroke="#666666" points="536,-74 420,-74 420,-55 536,-55 536,-74"/>
<text text-anchor="middle" x="478" y="-62" font-family="Helvetica,sans-Serif" font-size="10.00">DMA_ChannelCallback</text>
</a>
</g>
</g>
<!-- Node5&#45;&gt;Node6 -->
<g id="edge5_Node000005_Node000006" class="edge">
<title>Node5&#45;&gt;Node6</title>
<g id="a_edge5_Node000005_Node000006"><a xlink:title=" ">
<path fill="none" stroke="#63b8ff" d="M350.3,-50.72C368.04,-52.65 389.57,-54.99 409.81,-57.19"/>
<polygon fill="#63b8ff" stroke="#63b8ff" points="409.61,-60.69 419.93,-58.29 410.37,-53.73 409.61,-60.69"/>
</a>
</g>
</g>
<!-- Node7 -->
<g id="Node000007" class="node">
<title>Node7</title>
<g id="a_Node000007"><a xlink:href="a00418.html#gab9190941904dd0add59b63f1e774fb2c" target="_top" xlink:title="This function can be used to override default callback and to define custom callback for DMA Channel ...">
<polygon fill="white" stroke="#666666" points="554,-37 402,-37 402,-18 554,-18 554,-37"/>
<text text-anchor="middle" x="478" y="-25" font-family="Helvetica,sans-Serif" font-size="10.00">DMA_ChannelCallbackRegister</text>
</a>
</g>
</g>
<!-- Node5&#45;&gt;Node7 -->
<g id="edge6_Node000005_Node000007" class="edge">
<title>Node5&#45;&gt;Node7</title>
<g id="a_edge6_Node000005_Node000007"><a xlink:title=" ">
<path fill="none" stroke="#63b8ff" d="M350.3,-42.05C362.8,-40.61 377.18,-38.96 391.67,-37.3"/>
<polygon fill="#63b8ff" stroke="#63b8ff" points="392.16,-40.76 401.69,-36.15 391.36,-33.81 392.16,-40.76"/>
</a>
</g>
</g>
</g>
</svg>
