<?xml version="1.0" encoding="UTF-8" standalone="no"?>
<!DOCTYPE svg PUBLIC "-//W3C//DTD SVG 1.1//EN"
 "http://www.w3.org/Graphics/SVG/1.1/DTD/svg11.dtd">
<!-- Generated by graphviz version 8.1.0 (20230707.0739)
 -->
<!-- Title: PWM_OverrideLowDisable Pages: 1 -->
<svg width="685pt" height="128pt"
 viewBox="0.00 0.00 685.00 128.00" xmlns="http://www.w3.org/2000/svg" xmlns:xlink="http://www.w3.org/1999/xlink">
<g id="graph0" class="graph" transform="scale(1 1) rotate(0) translate(4 124)">
<title>PWM_OverrideLowDisable</title>
<!-- Node1 -->
<g id="Node000001" class="node">
<title>Node1</title>
<g id="a_Node000001"><a xlink:title="This inline function disables PWM override on PWML output for specific PWM generator selected by the ...">
<polygon fill="#999999" stroke="#666666" points="677,-76 546.25,-76 546.25,-56 677,-56 677,-76"/>
<text text-anchor="middle" x="611.62" y="-62.5" font-family="Helvetica,sans-Serif" font-size="10.00">PWM_OverrideLowDisable</text>
</a>
</g>
</g>
<!-- Node2 -->
<g id="Node000002" class="node">
<title>Node2</title>
<g id="a_Node000002"><a xlink:href="a00365.html#a69847930c99b34bceb7165143cd28b92" target="_top" xlink:title=" ">
<polygon fill="white" stroke="#666666" points="486.62,-120 424.88,-120 424.88,-100 486.62,-100 486.62,-120"/>
<text text-anchor="middle" x="455.75" y="-106.5" font-family="Helvetica,sans-Serif" font-size="10.00">CCM_PHx</text>
</a>
</g>
</g>
<!-- Node1&#45;&gt;Node2 -->
<g id="edge1_Node000001_Node000002" class="edge">
<title>Node1&#45;&gt;Node2</title>
<g id="a_edge1_Node000001_Node000002"><a xlink:title=" ">
<path fill="none" stroke="#63b8ff" d="M563.81,-79.39C538.86,-86.52 508.88,-95.09 487.01,-101.35"/>
<polygon fill="#63b8ff" stroke="#63b8ff" points="564.51,-82.54 573.16,-76.43 562.58,-75.81 564.51,-82.54"/>
</a>
</g>
</g>
<!-- Node8 -->
<g id="Node000008" class="node">
<title>Node8</title>
<g id="a_Node000008"><a xlink:href="a00365.html#ad3476b7cd98e6a22a65e1d89b7a59ea5" target="_top" xlink:title=" ">
<polygon fill="white" stroke="#666666" points="510.25,-82 401.25,-82 401.25,-50 510.25,-50 510.25,-82"/>
<text text-anchor="start" x="409.25" y="-68.5" font-family="Helvetica,sans-Serif" font-size="10.00">SoftstartAfterZC_PHx</text>
<text text-anchor="middle" x="455.75" y="-56.5" font-family="Helvetica,sans-Serif" font-size="10.00">_GTIMode</text>
</a>
</g>
</g>
<!-- Node1&#45;&gt;Node8 -->
<g id="edge7_Node000001_Node000008" class="edge">
<title>Node1&#45;&gt;Node8</title>
<g id="a_edge7_Node000001_Node000008"><a xlink:title=" ">
<path fill="none" stroke="#63b8ff" d="M534.93,-66C526.61,-66 518.28,-66 510.31,-66"/>
<polygon fill="#63b8ff" stroke="#63b8ff" points="534.81,-69.5 544.81,-66 534.81,-62.5 534.81,-69.5"/>
</a>
</g>
</g>
<!-- Node9 -->
<g id="Node000009" class="node">
<title>Node9</title>
<g id="a_Node000009"><a xlink:href="a00365.html#a3e7091905b384bca668f6f12a50834f4" target="_top" xlink:title=" ">
<polygon fill="white" stroke="#666666" points="510.25,-32 401.25,-32 401.25,0 510.25,0 510.25,-32"/>
<text text-anchor="start" x="409.25" y="-18.5" font-family="Helvetica,sans-Serif" font-size="10.00">SoftstartAfterZC_PHx</text>
<text text-anchor="middle" x="455.75" y="-6.5" font-family="Helvetica,sans-Serif" font-size="10.00">_PFCMode</text>
</a>
</g>
</g>
<!-- Node1&#45;&gt;Node9 -->
<g id="edge9_Node000001_Node000009" class="edge">
<title>Node1&#45;&gt;Node9</title>
<g id="a_edge9_Node000001_Node000009"><a xlink:title=" ">
<path fill="none" stroke="#63b8ff" d="M568.04,-52.16C549.27,-46.06 527.06,-38.85 507.44,-32.47"/>
<polygon fill="#63b8ff" stroke="#63b8ff" points="566.78,-55.76 577.37,-55.52 568.94,-49.1 566.78,-55.76"/>
</a>
</g>
</g>
<!-- Node3 -->
<g id="Node000003" class="node">
<title>Node3</title>
<g id="a_Node000003"><a xlink:href="a00365.html#a647fd6dacbfbcebe49cc34111a01493b" target="_top" xlink:title=" ">
<polygon fill="white" stroke="#666666" points="365.25,-76 292.25,-76 292.25,-56 365.25,-56 365.25,-76"/>
<text text-anchor="middle" x="328.75" y="-62.5" font-family="Helvetica,sans-Serif" font-size="10.00">Handler_PHx</text>
</a>
</g>
</g>
<!-- Node2&#45;&gt;Node3 -->
<g id="edge2_Node000002_Node000003" class="edge">
<title>Node2&#45;&gt;Node3</title>
<g id="a_edge2_Node000002_Node000003"><a xlink:title=" ">
<path fill="none" stroke="#63b8ff" d="M414.87,-95.96C396.79,-89.6 375.78,-82.2 359.16,-76.35"/>
<polygon fill="#63b8ff" stroke="#63b8ff" points="413.53,-99.55 424.13,-99.57 415.86,-92.95 413.53,-99.55"/>
</a>
</g>
</g>
<!-- Node4 -->
<g id="Node000004" class="node">
<title>Node4</title>
<g id="a_Node000004"><a xlink:href="a00365.html#aa7b8e2dc355948aa24cf22ca82f9e805" target="_top" xlink:title=" ">
<polygon fill="white" stroke="#666666" points="256.25,-95 131.5,-95 131.5,-75 256.25,-75 256.25,-95"/>
<text text-anchor="middle" x="193.88" y="-81.5" font-family="Helvetica,sans-Serif" font-size="10.00">Application_handler_PH1</text>
</a>
</g>
</g>
<!-- Node3&#45;&gt;Node4 -->
<g id="edge3_Node000003_Node000004" class="edge">
<title>Node3&#45;&gt;Node4</title>
<g id="a_edge3_Node000003_Node000004"><a xlink:title=" ">
<path fill="none" stroke="#63b8ff" d="M281.01,-72.68C273.15,-73.81 264.89,-74.99 256.72,-76.16"/>
<polygon fill="#63b8ff" stroke="#63b8ff" points="281.39,-76.02 290.79,-71.14 280.4,-69.09 281.39,-76.02"/>
</a>
</g>
</g>
<!-- Node6 -->
<g id="Node000006" class="node">
<title>Node6</title>
<g id="a_Node000006"><a xlink:href="a00365.html#a87fa9190951df7c866d828b8ad7b526b" target="_top" xlink:title=" ">
<polygon fill="white" stroke="#666666" points="256.25,-57 131.5,-57 131.5,-37 256.25,-37 256.25,-57"/>
<text text-anchor="middle" x="193.88" y="-43.5" font-family="Helvetica,sans-Serif" font-size="10.00">Application_handler_PH2</text>
</a>
</g>
</g>
<!-- Node3&#45;&gt;Node6 -->
<g id="edge5_Node000003_Node000006" class="edge">
<title>Node3&#45;&gt;Node6</title>
<g id="a_edge5_Node000003_Node000006"><a xlink:title=" ">
<path fill="none" stroke="#63b8ff" d="M281.01,-59.32C273.15,-58.19 264.89,-57.01 256.72,-55.84"/>
<polygon fill="#63b8ff" stroke="#63b8ff" points="280.4,-62.91 290.79,-60.86 281.39,-55.98 280.4,-62.91"/>
</a>
</g>
</g>
<!-- Node5 -->
<g id="Node000005" class="node">
<title>Node5</title>
<g id="a_Node000005"><a xlink:href="a00341.html#a968747854ba14331aa9f85784178d0da" target="_top" xlink:title=" ">
<polygon fill="white" stroke="#666666" points="95.5,-95 0,-95 0,-75 95.5,-75 95.5,-95"/>
<text text-anchor="middle" x="47.75" y="-81.5" font-family="Helvetica,sans-Serif" font-size="10.00">_ADCAN0Interrupt</text>
</a>
</g>
</g>
<!-- Node4&#45;&gt;Node5 -->
<g id="edge4_Node000004_Node000005" class="edge">
<title>Node4&#45;&gt;Node5</title>
<g id="a_edge4_Node000004_Node000005"><a xlink:title=" ">
<path fill="none" stroke="#63b8ff" d="M120.35,-85C111.98,-85 103.6,-85 95.7,-85"/>
<polygon fill="#63b8ff" stroke="#63b8ff" points="120.34,-88.5 130.33,-85 120.33,-81.5 120.34,-88.5"/>
</a>
</g>
</g>
<!-- Node7 -->
<g id="Node000007" class="node">
<title>Node7</title>
<g id="a_Node000007"><a xlink:href="a00341.html#a6ac2591aa2e32874156ad3f8bf477d2f" target="_top" xlink:title=" ">
<polygon fill="white" stroke="#666666" points="95.5,-57 0,-57 0,-37 95.5,-37 95.5,-57"/>
<text text-anchor="middle" x="47.75" y="-43.5" font-family="Helvetica,sans-Serif" font-size="10.00">_ADCAN1Interrupt</text>
</a>
</g>
</g>
<!-- Node6&#45;&gt;Node7 -->
<g id="edge6_Node000006_Node000007" class="edge">
<title>Node6&#45;&gt;Node7</title>
<g id="a_edge6_Node000006_Node000007"><a xlink:title=" ">
<path fill="none" stroke="#63b8ff" d="M120.35,-47C111.98,-47 103.6,-47 95.7,-47"/>
<polygon fill="#63b8ff" stroke="#63b8ff" points="120.34,-50.5 130.33,-47 120.33,-43.5 120.34,-50.5"/>
</a>
</g>
</g>
<!-- Node8&#45;&gt;Node3 -->
<g id="edge8_Node000008_Node000003" class="edge">
<title>Node8&#45;&gt;Node3</title>
<g id="a_edge8_Node000008_Node000003"><a xlink:title=" ">
<path fill="none" stroke="#63b8ff" d="M390.22,-66C381.68,-66 373.19,-66 365.39,-66"/>
<polygon fill="#63b8ff" stroke="#63b8ff" points="390.01,-69.5 400.01,-66 390.01,-62.5 390.01,-69.5"/>
</a>
</g>
</g>
<!-- Node9&#45;&gt;Node3 -->
<g id="edge10_Node000009_Node000003" class="edge">
<title>Node9&#45;&gt;Node3</title>
<g id="a_edge10_Node000009_Node000003"><a xlink:title=" ">
<path fill="none" stroke="#63b8ff" d="M403.75,-36.4C387.29,-42.99 369.72,-50.01 355.83,-55.57"/>
<polygon fill="#63b8ff" stroke="#63b8ff" points="404.84,-39.34 412.82,-32.37 402.24,-32.84 404.84,-39.34"/>
</a>
</g>
</g>
</g>
</svg>
