<?xml version="1.0" encoding="UTF-8" standalone="no"?>
<!DOCTYPE svg PUBLIC "-//W3C//DTD SVG 1.1//EN"
 "http://www.w3.org/Graphics/SVG/1.1/DTD/svg11.dtd">
<!-- Generated by graphviz version 2.44.1 (20200629.0846)
 -->
<!-- Title: PWM_DutyCycleSet Pages: 1 -->
<svg width="664pt" height="142pt"
 viewBox="0.00 0.00 664.00 142.46" xmlns="http://www.w3.org/2000/svg" xmlns:xlink="http://www.w3.org/1999/xlink">
<g id="graph0" class="graph" transform="scale(1 1) rotate(0) translate(4 138.46)">
<title>PWM_DutyCycleSet</title>
<!-- Node1 -->
<g id="Node000001" class="node">
<title>Node1</title>
<g id="a_Node000001"><a xlink:title="This inline function sets the PWM generator specific duty cycle register.">
<polygon fill="#999999" stroke="#666666" points="656,-86 549,-86 549,-67 656,-67 656,-86"/>
<text text-anchor="middle" x="602.5" y="-74" font-family="Helvetica,sans-Serif" font-size="10.00">PWM_DutyCycleSet</text>
</a>
</g>
</g>
<!-- Node2 -->
<g id="Node000002" class="node">
<title>Node2</title>
<g id="a_Node000002"><a xlink:href="a00371.html#a647fd6dacbfbcebe49cc34111a01493b" target="_top" xlink:title=" ">
<polygon fill="white" stroke="#666666" points="367,-86 293,-86 293,-67 367,-67 367,-86"/>
<text text-anchor="middle" x="330" y="-74" font-family="Helvetica,sans-Serif" font-size="10.00">Handler_PHx</text>
</a>
</g>
</g>
<!-- Node1&#45;&gt;Node2 -->
<g id="edge1_Node000001_Node000002" class="edge">
<title>Node1&#45;&gt;Node2</title>
<g id="a_edge1_Node000001_Node000002"><a xlink:title=" ">
<path fill="none" stroke="#63b8ff" d="M580.21,-92C563.03,-103.5 537.73,-118.23 513,-124.5 465.61,-136.52 449.79,-138.67 403,-124.5 378.27,-117.01 354.27,-97.92 341.18,-86.19"/>
<polygon fill="#63b8ff" stroke="#63b8ff" points="582.63,-94.59 588.87,-86.02 578.65,-88.83 582.63,-94.59"/>
</a>
</g>
</g>
<!-- Node7 -->
<g id="Node000007" class="node">
<title>Node7</title>
<g id="a_Node000007"><a xlink:href="a00371.html#ad3476b7cd98e6a22a65e1d89b7a59ea5" target="_top" xlink:title=" ">
<polygon fill="white" stroke="#666666" points="513,-115.5 403,-115.5 403,-85.5 513,-85.5 513,-115.5"/>
<text text-anchor="start" x="411" y="-103.5" font-family="Helvetica,sans-Serif" font-size="10.00">SoftstartAfterZC_PHx</text>
<text text-anchor="middle" x="458" y="-92.5" font-family="Helvetica,sans-Serif" font-size="10.00">_GTIMode</text>
</a>
</g>
</g>
<!-- Node1&#45;&gt;Node7 -->
<g id="edge6_Node000001_Node000007" class="edge">
<title>Node1&#45;&gt;Node7</title>
<g id="a_edge6_Node000001_Node000007"><a xlink:title=" ">
<path fill="none" stroke="#63b8ff" d="M538.94,-87.04C530.41,-88.47 521.71,-89.94 513.35,-91.35"/>
<polygon fill="#63b8ff" stroke="#63b8ff" points="539.56,-90.48 548.84,-85.37 538.4,-83.58 539.56,-90.48"/>
</a>
</g>
</g>
<!-- Node8 -->
<g id="Node000008" class="node">
<title>Node8</title>
<g id="a_Node000008"><a xlink:href="a00371.html#a3e7091905b384bca668f6f12a50834f4" target="_top" xlink:title=" ">
<polygon fill="white" stroke="#666666" points="513,-67.5 403,-67.5 403,-37.5 513,-37.5 513,-67.5"/>
<text text-anchor="start" x="411" y="-55.5" font-family="Helvetica,sans-Serif" font-size="10.00">SoftstartAfterZC_PHx</text>
<text text-anchor="middle" x="458" y="-44.5" font-family="Helvetica,sans-Serif" font-size="10.00">_PFCMode</text>
</a>
</g>
</g>
<!-- Node1&#45;&gt;Node8 -->
<g id="edge8_Node000001_Node000008" class="edge">
<title>Node1&#45;&gt;Node8</title>
<g id="a_edge8_Node000001_Node000008"><a xlink:title=" ">
<path fill="none" stroke="#63b8ff" d="M538.94,-65.96C530.41,-64.53 521.71,-63.06 513.35,-61.65"/>
<polygon fill="#63b8ff" stroke="#63b8ff" points="538.4,-69.42 548.84,-67.63 539.56,-62.52 538.4,-69.42"/>
</a>
</g>
</g>
<!-- Node9 -->
<g id="Node000009" class="node">
<title>Node9</title>
<g id="a_Node000009"><a xlink:href="a00371.html#a9d01eea56aae5f1437eb541a321277cc" target="_top" xlink:title=" ">
<polygon fill="white" stroke="#666666" points="500.5,-19 415.5,-19 415.5,0 500.5,0 500.5,-19"/>
<text text-anchor="middle" x="458" y="-7" font-family="Helvetica,sans-Serif" font-size="10.00">ZeroCross_PHx</text>
</a>
</g>
</g>
<!-- Node1&#45;&gt;Node9 -->
<g id="edge10_Node000001_Node000009" class="edge">
<title>Node1&#45;&gt;Node9</title>
<g id="a_edge10_Node000001_Node000009"><a xlink:title=" ">
<path fill="none" stroke="#63b8ff" d="M576.62,-61.62C559.17,-51.54 535.11,-38.31 513,-28.5 505.28,-25.07 496.73,-21.83 488.76,-19.02"/>
<polygon fill="#63b8ff" stroke="#63b8ff" points="575.18,-64.84 585.58,-66.86 578.71,-58.79 575.18,-64.84"/>
</a>
</g>
</g>
<!-- Node3 -->
<g id="Node000003" class="node">
<title>Node3</title>
<g id="a_Node000003"><a xlink:href="a00371.html#aa7b8e2dc355948aa24cf22ca82f9e805" target="_top" xlink:title=" ">
<polygon fill="white" stroke="#666666" points="257,-105 132,-105 132,-86 257,-86 257,-105"/>
<text text-anchor="middle" x="194.5" y="-93" font-family="Helvetica,sans-Serif" font-size="10.00">Application_handler_PH1</text>
</a>
</g>
</g>
<!-- Node2&#45;&gt;Node3 -->
<g id="edge2_Node000002_Node000003" class="edge">
<title>Node2&#45;&gt;Node3</title>
<g id="a_edge2_Node000002_Node000003"><a xlink:title=" ">
<path fill="none" stroke="#63b8ff" d="M282.7,-83.09C274.45,-84.26 265.73,-85.51 257.12,-86.73"/>
<polygon fill="#63b8ff" stroke="#63b8ff" points="283.47,-86.52 292.87,-81.64 282.48,-79.59 283.47,-86.52"/>
</a>
</g>
</g>
<!-- Node5 -->
<g id="Node000005" class="node">
<title>Node5</title>
<g id="a_Node000005"><a xlink:href="a00371.html#a87fa9190951df7c866d828b8ad7b526b" target="_top" xlink:title=" ">
<polygon fill="white" stroke="#666666" points="257,-68 132,-68 132,-49 257,-49 257,-68"/>
<text text-anchor="middle" x="194.5" y="-56" font-family="Helvetica,sans-Serif" font-size="10.00">Application_handler_PH2</text>
</a>
</g>
</g>
<!-- Node2&#45;&gt;Node5 -->
<g id="edge4_Node000002_Node000005" class="edge">
<title>Node2&#45;&gt;Node5</title>
<g id="a_edge4_Node000002_Node000005"><a xlink:title=" ">
<path fill="none" stroke="#63b8ff" d="M282.7,-70.26C274.45,-69.14 265.73,-67.97 257.12,-66.81"/>
<polygon fill="#63b8ff" stroke="#63b8ff" points="282.49,-73.76 292.87,-71.63 283.43,-66.82 282.49,-73.76"/>
</a>
</g>
</g>
<!-- Node4 -->
<g id="Node000004" class="node">
<title>Node4</title>
<g id="a_Node000004"><a xlink:href="a00347.html#a968747854ba14331aa9f85784178d0da" target="_top" xlink:title=" ">
<polygon fill="white" stroke="#666666" points="96,-105 0,-105 0,-86 96,-86 96,-105"/>
<text text-anchor="middle" x="48" y="-93" font-family="Helvetica,sans-Serif" font-size="10.00">_ADCAN0Interrupt</text>
</a>
</g>
</g>
<!-- Node3&#45;&gt;Node4 -->
<g id="edge3_Node000003_Node000004" class="edge">
<title>Node3&#45;&gt;Node4</title>
<g id="a_edge3_Node000003_Node000004"><a xlink:title=" ">
<path fill="none" stroke="#63b8ff" d="M121.64,-95.5C112.96,-95.5 104.26,-95.5 96.07,-95.5"/>
<polygon fill="#63b8ff" stroke="#63b8ff" points="121.8,-99 131.8,-95.5 121.8,-92 121.8,-99"/>
</a>
</g>
</g>
<!-- Node6 -->
<g id="Node000006" class="node">
<title>Node6</title>
<g id="a_Node000006"><a xlink:href="a00347.html#a6ac2591aa2e32874156ad3f8bf477d2f" target="_top" xlink:title=" ">
<polygon fill="white" stroke="#666666" points="96,-68 0,-68 0,-49 96,-49 96,-68"/>
<text text-anchor="middle" x="48" y="-56" font-family="Helvetica,sans-Serif" font-size="10.00">_ADCAN1Interrupt</text>
</a>
</g>
</g>
<!-- Node5&#45;&gt;Node6 -->
<g id="edge5_Node000005_Node000006" class="edge">
<title>Node5&#45;&gt;Node6</title>
<g id="a_edge5_Node000005_Node000006"><a xlink:title=" ">
<path fill="none" stroke="#63b8ff" d="M121.64,-58.5C112.96,-58.5 104.26,-58.5 96.07,-58.5"/>
<polygon fill="#63b8ff" stroke="#63b8ff" points="121.8,-62 131.8,-58.5 121.8,-55 121.8,-62"/>
</a>
</g>
</g>
<!-- Node7&#45;&gt;Node2 -->
<g id="edge7_Node000007_Node000002" class="edge">
<title>Node7&#45;&gt;Node2</title>
<g id="a_edge7_Node000007_Node000002"><a xlink:title=" ">
<path fill="none" stroke="#63b8ff" d="M392.92,-88.29C384.12,-86.62 375.35,-84.95 367.3,-83.41"/>
<polygon fill="#63b8ff" stroke="#63b8ff" points="392.36,-91.75 402.83,-90.18 393.66,-84.87 392.36,-91.75"/>
</a>
</g>
</g>
<!-- Node8&#45;&gt;Node2 -->
<g id="edge9_Node000008_Node000002" class="edge">
<title>Node8&#45;&gt;Node2</title>
<g id="a_edge9_Node000008_Node000002"><a xlink:title=" ">
<path fill="none" stroke="#63b8ff" d="M392.92,-64.71C384.12,-66.38 375.35,-68.05 367.3,-69.59"/>
<polygon fill="#63b8ff" stroke="#63b8ff" points="393.66,-68.13 402.83,-62.82 392.36,-61.25 393.66,-68.13"/>
</a>
</g>
</g>
<!-- Node9&#45;&gt;Node2 -->
<g id="edge11_Node000009_Node000002" class="edge">
<title>Node9&#45;&gt;Node2</title>
<g id="a_edge11_Node000009_Node000002"><a xlink:title=" ">
<path fill="none" stroke="#63b8ff" d="M415.93,-22.73C411.5,-24.51 407.11,-26.45 403,-28.5 380.82,-39.57 357.32,-56.31 343.42,-66.81"/>
<polygon fill="#63b8ff" stroke="#63b8ff" points="417.5,-25.88 425.61,-19.06 415.02,-19.33 417.5,-25.88"/>
</a>
</g>
</g>
</g>
</svg>
