<?xml version="1.0" encoding="UTF-8" standalone="no"?>
<!DOCTYPE svg PUBLIC "-//W3C//DTD SVG 1.1//EN"
 "http://www.w3.org/Graphics/SVG/1.1/DTD/svg11.dtd">
<!-- Generated by graphviz version 2.44.1 (20200629.0846)
 -->
<!-- Title: CAN1_TransmitFIFOStatusGet Pages: 1 -->
<svg width="541pt" height="27pt"
 viewBox="0.00 0.00 541.00 27.00" xmlns="http://www.w3.org/2000/svg" xmlns:xlink="http://www.w3.org/1999/xlink">
<g id="graph0" class="graph" transform="scale(1 1) rotate(0) translate(4 23)">
<title>CAN1_TransmitFIFOStatusGet</title>
<!-- Node1 -->
<g id="Node000001" class="node">
<title>Node1</title>
<g id="a_Node000001"><a xlink:title="Returns the CAN1 transmitter FIFO status.">
<polygon fill="#999999" stroke="#666666" points="533,-19 382,-19 382,0 533,0 533,-19"/>
<text text-anchor="middle" x="457.5" y="-7" font-family="Helvetica,sans-Serif" font-size="10.00">CAN1_TransmitFIFOStatusGet</text>
</a>
</g>
</g>
<!-- Node2 -->
<g id="Node000002" class="node">
<title>Node2</title>
<g id="a_Node000002"><a xlink:href="a00405.html#gad99c960d1ed589ce80aca873a90e068e" target="_top" xlink:title="Writes the CAN message object to specified transmit FIFO channel.">
<polygon fill="white" stroke="#666666" points="346,-19 261,-19 261,0 346,0 346,-19"/>
<text text-anchor="middle" x="303.5" y="-7" font-family="Helvetica,sans-Serif" font-size="10.00">CAN1_Transmit</text>
</a>
</g>
</g>
<!-- Node1&#45;&gt;Node2 -->
<g id="edge1_Node000001_Node000002" class="edge">
<title>Node1&#45;&gt;Node2</title>
<g id="a_edge1_Node000001_Node000002"><a xlink:title=" ">
<path fill="none" stroke="#63b8ff" d="M371.75,-9.5C362.86,-9.5 354.12,-9.5 346.05,-9.5"/>
<polygon fill="#63b8ff" stroke="#63b8ff" points="371.84,-13 381.84,-9.5 371.84,-6 371.84,-13"/>
</a>
</g>
</g>
<!-- Node3 -->
<g id="Node000003" class="node">
<title>Node3</title>
<g id="a_Node000003"><a xlink:href="a00424.html#ga9511f6338931225152a644cd0b011f66" target="_top" xlink:title="send frame to GUI when the FIFO from secondary to primary has been filled">
<polygon fill="white" stroke="#666666" points="225,-19 110,-19 110,0 225,0 225,-19"/>
<text text-anchor="middle" x="167.5" y="-7" font-family="Helvetica,sans-Serif" font-size="10.00">CAN_Transmit_to_GUI</text>
</a>
</g>
</g>
<!-- Node2&#45;&gt;Node3 -->
<g id="edge2_Node000002_Node000003" class="edge">
<title>Node2&#45;&gt;Node3</title>
<g id="a_edge2_Node000002_Node000003"><a xlink:title=" ">
<path fill="none" stroke="#63b8ff" d="M250.59,-9.5C242.34,-9.5 233.76,-9.5 225.4,-9.5"/>
<polygon fill="#63b8ff" stroke="#63b8ff" points="250.84,-13 260.84,-9.5 250.84,-6 250.84,-13"/>
</a>
</g>
</g>
<!-- Node4 -->
<g id="Node000004" class="node">
<title>Node4</title>
<g id="a_Node000004"><a xlink:href="a00431.html#ga97fda594ad396d08b6a833ebb3b04538" target="_top" xlink:title="tasks run every 100us">
<polygon fill="white" stroke="#666666" points="74,-19 0,-19 0,0 74,0 74,-19"/>
<text text-anchor="middle" x="37" y="-7" font-family="Helvetica,sans-Serif" font-size="10.00">Tasks_100us</text>
</a>
</g>
</g>
<!-- Node3&#45;&gt;Node4 -->
<g id="edge3_Node000003_Node000004" class="edge">
<title>Node3&#45;&gt;Node4</title>
<g id="a_edge3_Node000003_Node000004"><a xlink:title=" ">
<path fill="none" stroke="#63b8ff" d="M99.51,-9.5C90.76,-9.5 82.08,-9.5 74.13,-9.5"/>
<polygon fill="#63b8ff" stroke="#63b8ff" points="99.76,-13 109.76,-9.5 99.76,-6 99.76,-13"/>
</a>
</g>
</g>
</g>
</svg>
