<?xml version="1.0" encoding="UTF-8" standalone="no"?>
<!DOCTYPE svg PUBLIC "-//W3C//DTD SVG 1.1//EN"
 "http://www.w3.org/Graphics/SVG/1.1/DTD/svg11.dtd">
<!-- Generated by graphviz version 2.44.1 (20200629.0846)
 -->
<!-- Title: CAN1_RX_FIFO_IncrementMsgPtr Pages: 1 -->
<svg width="615pt" height="64pt"
 viewBox="0.00 0.00 615.00 64.00" xmlns="http://www.w3.org/2000/svg" xmlns:xlink="http://www.w3.org/1999/xlink">
<g id="graph0" class="graph" transform="scale(1 1) rotate(0) translate(4 60)">
<title>CAN1_RX_FIFO_IncrementMsgPtr</title>
<!-- Node1 -->
<g id="Node000001" class="node">
<title>Node1</title>
<g id="a_Node000001"><a xlink:title="This function Update the receive FIFO message increment tail position.">
<polygon fill="#999999" stroke="#666666" points="607,-37 441,-37 441,-18 607,-18 607,-37"/>
<text text-anchor="middle" x="524" y="-25" font-family="Helvetica,sans-Serif" font-size="10.00">CAN1_RX_FIFO_IncrementMsgPtr</text>
</a>
</g>
</g>
<!-- Node2 -->
<g id="Node000002" class="node">
<title>Node2</title>
<g id="a_Node000002"><a xlink:href="a00405.html#ga4fe1df4cd9f0ce122687dcfab0713b5b" target="_top" xlink:title="Reads the received single message object.">
<polygon fill="white" stroke="#666666" points="377,-56 296,-56 296,-37 377,-37 377,-56"/>
<text text-anchor="middle" x="336.5" y="-44" font-family="Helvetica,sans-Serif" font-size="10.00">CAN1_Receive</text>
</a>
</g>
</g>
<!-- Node1&#45;&gt;Node2 -->
<g id="edge1_Node000001_Node000002" class="edge">
<title>Node1&#45;&gt;Node2</title>
<g id="a_edge1_Node000001_Node000002"><a xlink:title=" ">
<path fill="none" stroke="#63b8ff" d="M430.69,-36.95C411.85,-38.88 392.99,-40.82 377.21,-42.43"/>
<polygon fill="#63b8ff" stroke="#63b8ff" points="431.24,-40.42 440.83,-35.92 430.52,-33.45 431.24,-40.42"/>
</a>
</g>
</g>
<!-- Node5 -->
<g id="Node000005" class="node">
<title>Node5</title>
<g id="a_Node000005"><a xlink:href="a00405.html#ga2c655a58965fff8578916b59bed47297" target="_top" xlink:title="Reads the received single message object from the CAN1 receive FIFO.">
<polygon fill="white" stroke="#666666" points="405,-19 268,-19 268,0 405,0 405,-19"/>
<text text-anchor="middle" x="336.5" y="-7" font-family="Helvetica,sans-Serif" font-size="10.00">CAN1_ReceiveMessageGet</text>
</a>
</g>
</g>
<!-- Node1&#45;&gt;Node5 -->
<g id="edge4_Node000001_Node000005" class="edge">
<title>Node1&#45;&gt;Node5</title>
<g id="a_edge4_Node000001_Node000005"><a xlink:title=" ">
<path fill="none" stroke="#63b8ff" d="M430.73,-18.55C422.11,-17.71 413.49,-16.87 405.16,-16.07"/>
<polygon fill="#63b8ff" stroke="#63b8ff" points="430.54,-22.04 440.83,-19.53 431.21,-15.08 430.54,-22.04"/>
</a>
</g>
</g>
<!-- Node3 -->
<g id="Node000003" class="node">
<title>Node3</title>
<g id="a_Node000003"><a xlink:href="a00424.html#ga77b41fe067ba8e8d666827b686e52cff" target="_top" xlink:title="received message from GUI. Send the data to the secondary core using mailbox protocol A">
<polygon fill="white" stroke="#666666" points="232,-56 110,-56 110,-37 232,-37 232,-56"/>
<text text-anchor="middle" x="171" y="-44" font-family="Helvetica,sans-Serif" font-size="10.00">CAN_Receive_from_GUI</text>
</a>
</g>
</g>
<!-- Node2&#45;&gt;Node3 -->
<g id="edge2_Node000002_Node000003" class="edge">
<title>Node2&#45;&gt;Node3</title>
<g id="a_edge2_Node000002_Node000003"><a xlink:title=" ">
<path fill="none" stroke="#63b8ff" d="M285.74,-46.5C268.88,-46.5 249.86,-46.5 232.28,-46.5"/>
<polygon fill="#63b8ff" stroke="#63b8ff" points="285.92,-50 295.92,-46.5 285.92,-43 285.92,-50"/>
</a>
</g>
</g>
<!-- Node4 -->
<g id="Node000004" class="node">
<title>Node4</title>
<g id="a_Node000004"><a xlink:href="a00431.html#ga97fda594ad396d08b6a833ebb3b04538" target="_top" xlink:title="tasks run every 100us">
<polygon fill="white" stroke="#666666" points="74,-56 0,-56 0,-37 74,-37 74,-56"/>
<text text-anchor="middle" x="37" y="-44" font-family="Helvetica,sans-Serif" font-size="10.00">Tasks_100us</text>
</a>
</g>
</g>
<!-- Node3&#45;&gt;Node4 -->
<g id="edge3_Node000003_Node000004" class="edge">
<title>Node3&#45;&gt;Node4</title>
<g id="a_edge3_Node000003_Node000004"><a xlink:title=" ">
<path fill="none" stroke="#63b8ff" d="M99.56,-46.5C90.85,-46.5 82.24,-46.5 74.34,-46.5"/>
<polygon fill="#63b8ff" stroke="#63b8ff" points="99.79,-50 109.79,-46.5 99.79,-43 99.79,-50"/>
</a>
</g>
</g>
</g>
</svg>
