<?xml version="1.0" encoding="UTF-8" standalone="no"?>
<!DOCTYPE svg PUBLIC "-//W3C//DTD SVG 1.1//EN"
 "http://www.w3.org/Graphics/SVG/1.1/DTD/svg11.dtd">
<!-- Generated by graphviz version 2.44.1 (20200629.0846)
 -->
<!-- Title: Drv_I2C_Get_Write_Data Pages: 1 -->
<svg width="537pt" height="54pt"
 viewBox="0.00 0.00 537.00 53.50" xmlns="http://www.w3.org/2000/svg" xmlns:xlink="http://www.w3.org/1999/xlink">
<g id="graph0" class="graph" transform="scale(1 1) rotate(0) translate(4 49.5)">
<title>Drv_I2C_Get_Write_Data</title>
<!-- Node1 -->
<g id="Node000001" class="node">
<title>Node1</title>
<g id="a_Node000001"><a xlink:title="read copy of i2c_write object">
<polygon fill="#999999" stroke="#666666" points="529,-45.5 404,-45.5 404,-26.5 529,-26.5 529,-45.5"/>
<text text-anchor="middle" x="466.5" y="-33.5" font-family="Helvetica,sans-Serif" font-size="10.00">Drv_I2C_Get_Write_Data</text>
</a>
</g>
</g>
<!-- Node2 -->
<g id="Node000002" class="node">
<title>Node2</title>
<g id="a_Node000002"><a xlink:href="a00424.html#ga9511f6338931225152a644cd0b011f66" target="_top" xlink:title="send frame to GUI when the FIFO from secondary to primary has been filled">
<polygon fill="white" stroke="#666666" points="225,-45.5 110,-45.5 110,-26.5 225,-26.5 225,-45.5"/>
<text text-anchor="middle" x="167.5" y="-33.5" font-family="Helvetica,sans-Serif" font-size="10.00">CAN_Transmit_to_GUI</text>
</a>
</g>
</g>
<!-- Node1&#45;&gt;Node2 -->
<g id="edge1_Node000001_Node000002" class="edge">
<title>Node1&#45;&gt;Node2</title>
<g id="a_edge1_Node000001_Node000002"><a xlink:title=" ">
<path fill="none" stroke="#63b8ff" d="M393.75,-38.46C385.07,-38.68 376.34,-38.87 368,-39 320.45,-39.73 308.55,-39.77 261,-39 249.43,-38.81 237.06,-38.49 225.24,-38.13"/>
<polygon fill="#63b8ff" stroke="#63b8ff" points="393.97,-41.95 403.87,-38.18 393.78,-34.96 393.97,-41.95"/>
</a>
</g>
</g>
<!-- Node4 -->
<g id="Node000004" class="node">
<title>Node4</title>
<g id="a_Node000004"><a xlink:href="a00424.html#ga9547e1b813e407c1cedf72e3b4744ea0" target="_top" xlink:title="Update housekeeping flags related to PIC16s on SiC cards and PIC16 on main power board.">
<polygon fill="white" stroke="#666666" points="368,-30 261,-30 261,0 368,0 368,-30"/>
<text text-anchor="start" x="269" y="-18" font-family="Helvetica,sans-Serif" font-size="10.00">Housekeeping_Flags</text>
<text text-anchor="middle" x="314.5" y="-7" font-family="Helvetica,sans-Serif" font-size="10.00">_Update</text>
</a>
</g>
</g>
<!-- Node1&#45;&gt;Node4 -->
<g id="edge3_Node000001_Node000004" class="edge">
<title>Node1&#45;&gt;Node4</title>
<g id="a_edge3_Node000001_Node000004"><a xlink:title=" ">
<path fill="none" stroke="#63b8ff" d="M393.6,-25.93C385.02,-24.73 376.39,-23.52 368.15,-22.37"/>
<polygon fill="#63b8ff" stroke="#63b8ff" points="393.23,-29.42 403.62,-27.34 394.21,-22.48 393.23,-29.42"/>
</a>
</g>
</g>
<!-- Node3 -->
<g id="Node000003" class="node">
<title>Node3</title>
<g id="a_Node000003"><a xlink:href="a00431.html#ga97fda594ad396d08b6a833ebb3b04538" target="_top" xlink:title="tasks run every 100us">
<polygon fill="white" stroke="#666666" points="74,-45.5 0,-45.5 0,-26.5 74,-26.5 74,-45.5"/>
<text text-anchor="middle" x="37" y="-33.5" font-family="Helvetica,sans-Serif" font-size="10.00">Tasks_100us</text>
</a>
</g>
</g>
<!-- Node2&#45;&gt;Node3 -->
<g id="edge2_Node000002_Node000003" class="edge">
<title>Node2&#45;&gt;Node3</title>
<g id="a_edge2_Node000002_Node000003"><a xlink:title=" ">
<path fill="none" stroke="#63b8ff" d="M99.51,-36C90.76,-36 82.08,-36 74.13,-36"/>
<polygon fill="#63b8ff" stroke="#63b8ff" points="99.76,-39.5 109.76,-36 99.76,-32.5 99.76,-39.5"/>
</a>
</g>
</g>
<!-- Node4&#45;&gt;Node2 -->
<g id="edge4_Node000004_Node000002" class="edge">
<title>Node4&#45;&gt;Node2</title>
<g id="a_edge4_Node000004_Node000002"><a xlink:title=" ">
<path fill="none" stroke="#63b8ff" d="M250.62,-24.11C242.23,-25.32 233.66,-26.56 225.38,-27.76"/>
<polygon fill="#63b8ff" stroke="#63b8ff" points="251.35,-27.54 260.74,-22.64 250.34,-20.61 251.35,-27.54"/>
</a>
</g>
</g>
</g>
</svg>
