<?xml version="1.0" encoding="UTF-8" standalone="no"?>
<!DOCTYPE svg PUBLIC "-//W3C//DTD SVG 1.1//EN"
 "http://www.w3.org/Graphics/SVG/1.1/DTD/svg11.dtd">
<!-- Generated by graphviz version 2.44.1 (20200629.0846)
 -->
<!-- Title: CAN_Transmit_to_GUI Pages: 1 -->
<!--zoomable 323 -->

<svg id="main" version="1.1" xmlns="http://www.w3.org/2000/svg" xmlns:xlink="http://www.w3.org/1999/xlink" xml:space="preserve" onload="init(evt)">

<style type="text/css"><![CDATA[
.node, .edge {opacity: 0.7;}
.node.selected, .edge.selected {opacity: 1;}
.edge:hover path { stroke: red; }
.edge:hover polygon { stroke: red; fill: red; }
]]></style>

<defs>
  <circle id="rim" cx="0" cy="0" r="7"/>
  <circle id="rim2" cx="0" cy="0" r="3.5"/>
  <g id="zoomPlus">
    <use xlink:href="#rim" fill="#404040"><set attributeName="fill" to="#808080" begin="zoomplus.mouseover" end="zoomplus.mouseout"/></use>
    <path d="M-4,0h8M0,-4v8" fill="none" stroke="white" stroke-width="1.5" pointer-events="none"/>
  </g>
  <g id="zoomMin">
    <use xlink:href="#rim" fill="#404040"><set attributeName="fill" to="#808080" begin="zoomminus.mouseover" end="zoomminus.mouseout"/></use>
    <path d="M-4,0h8" fill="none" stroke="white" stroke-width="1.5" pointer-events="none"/>
  </g>
  <g id="arrowUp" transform="translate(30 24)">
    <use xlink:href="#rim"/>
    <path pointer-events="none" fill="none" stroke="white" stroke-width="1.5" d="M0,-3.0v7 M-2.5,-0.5L0,-3.0L2.5,-0.5"/>
  </g>
  <g id="arrowRight" transform="rotate(90) translate(36 -43)">
    <use xlink:href="#rim"/>
    <path pointer-events="none" fill="none" stroke="white" stroke-width="1.5" d="M0,-3.0v7 M-2.5,-0.5L0,-3.0L2.5,-0.5"/>
  </g>
  <g id="arrowDown" transform="rotate(180) translate(-30 -48)">
    <use xlink:href="#rim"/>
    <path pointer-events="none" fill="none" stroke="white" stroke-width="1.5" d="M0,-3.0v7 M-2.5,-0.5L0,-3.0L2.5,-0.5"/>
  </g>
  <g id="arrowLeft" transform="rotate(270) translate(-36 17)">
    <use xlink:href="#rim"/>
    <path pointer-events="none" fill="none" stroke="white" stroke-width="1.5" d="M0,-3.0v7 M-2.5,-0.5L0,-3.0L2.5,-0.5"/>
  </g>
  <g id="resetDef">
    <use xlink:href="#rim2" fill="#404040"><set attributeName="fill" to="#808080" begin="reset.mouseover" end="reset.mouseout"/></use>
  </g>
</defs>
<script type="application/ecmascript">
var viewWidth = 656;
var viewHeight = 323;
var sectionId = 'dynsection-3';
</script>
<script type="application/ecmascript" xlink:href="svg.min.js"/>
<svg id="graph" class="graph">
<g id="viewport">
<title>CAN_Transmit_to_GUI</title>
<!-- Node1 -->
<g id="Node000001" class="node">
<title>Node1</title>
<g id="a_Node000001"><a xlink:title="send frame to GUI when the FIFO from secondary to primary has been filled">
<polygon fill="#999999" stroke="#666666" points="115,-137 0,-137 0,-118 115,-118 115,-137"/>
<text text-anchor="middle" x="57.5" y="-125" font-family="Helvetica,sans-Serif" font-size="10.00">CAN_Transmit_to_GUI</text>
</a>
</g>
</g>
<!-- Node2 -->
<g id="Node000002" class="node">
<title>Node2</title>
<g id="a_Node000002"><a xlink:href="a00405.html#gad99c960d1ed589ce80aca873a90e068e" target="_top" xlink:title="Writes the CAN message object to specified transmit FIFO channel.">
<polygon fill="white" stroke="#666666" points="259,-216 174,-216 174,-197 259,-197 259,-216"/>
<text text-anchor="middle" x="216.5" y="-204" font-family="Helvetica,sans-Serif" font-size="10.00">CAN1_Transmit</text>
</a>
</g>
</g>
<!-- Node1&#45;&gt;Node2 -->
<g id="edge1_Node000001_Node000002" class="edge">
<title>Node1&#45;&gt;Node2</title>
<g id="a_edge1_Node000001_Node000002"><a xlink:title=" ">
<path fill="none" stroke="#63b8ff" d="M72.42,-137.16C90.1,-149.13 121.83,-169.65 151,-183.5 158.72,-187.17 167.19,-190.59 175.38,-193.61"/>
<polygon fill="#63b8ff" stroke="#63b8ff" points="174.21,-196.91 184.8,-196.97 176.56,-190.32 174.21,-196.91"/>
</a>
</g>
</g>
<!-- Node9 -->
<g id="Node000009" class="node">
<title>Node9</title>
<g id="a_Node000009"><a xlink:href="a00425.html#gaf058b1be15bd59ec5d57d06d1657b5e8" target="_top" xlink:title="API function to get core buffer.">
<polygon fill="white" stroke="#666666" points="280.5,-174 152.5,-174 152.5,-155 280.5,-155 280.5,-174"/>
<text text-anchor="middle" x="216.5" y="-162" font-family="Helvetica,sans-Serif" font-size="10.00">DRV_DMA_getCoreBuffer</text>
</a>
</g>
</g>
<!-- Node1&#45;&gt;Node9 -->
<g id="edge9_Node000001_Node000009" class="edge">
<title>Node1&#45;&gt;Node9</title>
<g id="a_edge9_Node000001_Node000009"><a xlink:title=" ">
<path fill="none" stroke="#63b8ff" d="M98.93,-137.03C119.09,-141.78 143.67,-147.57 165.05,-152.61"/>
<polygon fill="#63b8ff" stroke="#63b8ff" points="164.4,-156.05 174.93,-154.94 166,-149.24 164.4,-156.05"/>
</a>
</g>
</g>
<!-- Node10 -->
<g id="Node000010" class="node">
<title>Node10</title>
<g id="a_Node000010"><a xlink:href="a00233.html#a5852ed0c8edfa25272ab834b747611ba" target="_top" xlink:title=" ">
<polygon fill="white" stroke="#666666" points="282,-137 151,-137 151,-118 282,-118 282,-137"/>
<text text-anchor="middle" x="216.5" y="-125" font-family="Helvetica,sans-Serif" font-size="10.00">DRV_DMA_getVinAverage</text>
</a>
</g>
</g>
<!-- Node1&#45;&gt;Node10 -->
<g id="edge10_Node000001_Node000010" class="edge">
<title>Node1&#45;&gt;Node10</title>
<g id="a_edge10_Node000001_Node000010"><a xlink:title=" ">
<path fill="none" stroke="#63b8ff" d="M115.18,-127.5C123.51,-127.5 132.2,-127.5 140.83,-127.5"/>
<polygon fill="#63b8ff" stroke="#63b8ff" points="140.91,-131 150.91,-127.5 140.91,-124 140.91,-131"/>
</a>
</g>
</g>
<!-- Node11 -->
<g id="Node000011" class="node">
<title>Node11</title>
<g id="a_Node000011"><a xlink:href="a00426.html#ga5fe2662b714b85fd1b430cf48528c656" target="_top" xlink:title="read copy of i2c_write object">
<polygon fill="white" stroke="#666666" points="460.5,-93 335.5,-93 335.5,-74 460.5,-74 460.5,-93"/>
<text text-anchor="middle" x="398" y="-81" font-family="Helvetica,sans-Serif" font-size="10.00">Drv_I2C_Get_Write_Data</text>
</a>
</g>
</g>
<!-- Node1&#45;&gt;Node11 -->
<g id="edge11_Node000001_Node000011" class="edge">
<title>Node1&#45;&gt;Node11</title>
<g id="a_edge11_Node000001_Node000011"><a xlink:title=" ">
<path fill="none" stroke="#63b8ff" d="M103.53,-117.92C118.58,-114.94 135.47,-111.83 151,-109.5 209.39,-100.75 276,-93.9 325.18,-89.43"/>
<polygon fill="#63b8ff" stroke="#63b8ff" points="325.75,-92.9 335.4,-88.52 325.12,-85.92 325.75,-92.9"/>
</a>
</g>
</g>
<!-- Node12 -->
<g id="Node000012" class="node">
<title>Node12</title>
<g id="a_Node000012"><a xlink:href="a00424.html#ga9547e1b813e407c1cedf72e3b4744ea0" target="_top" xlink:title="Update housekeeping flags related to PIC16s on SiC cards and PIC16 on main power board.">
<polygon fill="white" stroke="#666666" points="270,-61.5 163,-61.5 163,-31.5 270,-31.5 270,-61.5"/>
<text text-anchor="start" x="171" y="-49.5" font-family="Helvetica,sans-Serif" font-size="10.00">Housekeeping_Flags</text>
<text text-anchor="middle" x="216.5" y="-38.5" font-family="Helvetica,sans-Serif" font-size="10.00">_Update</text>
</a>
</g>
</g>
<!-- Node1&#45;&gt;Node12 -->
<g id="edge12_Node000001_Node000012" class="edge">
<title>Node1&#45;&gt;Node12</title>
<g id="a_edge12_Node000001_Node000012"><a xlink:title=" ">
<path fill="none" stroke="#63b8ff" d="M74.64,-117.85C92.91,-107.05 123.7,-89.28 151,-75.5 157.48,-72.23 164.41,-68.92 171.23,-65.77"/>
<polygon fill="#63b8ff" stroke="#63b8ff" points="172.77,-68.92 180.42,-61.59 169.87,-62.55 172.77,-68.92"/>
</a>
</g>
</g>
<!-- Node3 -->
<g id="Node000003" class="node">
<title>Node3</title>
<g id="a_Node000003"><a xlink:href="a00405.html#ga61d156b0e75424f9b630cef5c424ac13" target="_top" xlink:title="This function get the DLC enum based decimal value.">
<polygon fill="white" stroke="#666666" points="648,-290 514,-290 514,-271 648,-271 648,-290"/>
<text text-anchor="middle" x="581" y="-278" font-family="Helvetica,sans-Serif" font-size="10.00">CAN1_DlcToDataBytesGet</text>
</a>
</g>
</g>
<!-- Node2&#45;&gt;Node3 -->
<g id="edge2_Node000002_Node000003" class="edge">
<title>Node2&#45;&gt;Node3</title>
<g id="a_edge2_Node000002_Node000003"><a xlink:title=" ">
<path fill="none" stroke="#63b8ff" d="M223.89,-216.01C238.02,-236.09 274.17,-282.33 318,-299.5 393.44,-329.05 490.35,-308.44 542.6,-293.05"/>
<polygon fill="#63b8ff" stroke="#63b8ff" points="543.89,-296.32 552.44,-290.06 541.85,-289.62 543.89,-296.32"/>
</a>
</g>
</g>
<!-- Node4 -->
<g id="Node000004" class="node">
<title>Node4</title>
<g id="a_Node000004"><a xlink:href="a00405.html#ga57b30800d7bd3b3c936f578ca1fd7e32" target="_top" xlink:title="This function get the FIFO user address, message depth and payload size information.">
<polygon fill="white" stroke="#666666" points="450.5,-290 345.5,-290 345.5,-271 450.5,-271 450.5,-290"/>
<text text-anchor="middle" x="398" y="-278" font-family="Helvetica,sans-Serif" font-size="10.00">CAN1_FIFO_InfoGet</text>
</a>
</g>
</g>
<!-- Node2&#45;&gt;Node4 -->
<g id="edge3_Node000002_Node000004" class="edge">
<title>Node2&#45;&gt;Node4</title>
<g id="a_edge3_Node000002_Node000004"><a xlink:title=" ">
<path fill="none" stroke="#63b8ff" d="M231.52,-216.01C250.38,-228.41 285.36,-249.98 318,-262.5 323.55,-264.63 329.43,-266.55 335.36,-268.26"/>
<polygon fill="#63b8ff" stroke="#63b8ff" points="334.8,-271.74 345.37,-270.97 336.63,-264.98 334.8,-271.74"/>
</a>
</g>
</g>
<!-- Node5 -->
<g id="Node000005" class="node">
<title>Node5</title>
<g id="a_Node000005"><a xlink:href="a00405.html#ga0980f888cad241edaa859783bb4a89d7" target="_top" xlink:title="This function Read the message object from user input and update to the CAN1 TX FIFO.">
<polygon fill="white" stroke="#666666" points="466.5,-253 329.5,-253 329.5,-234 466.5,-234 466.5,-253"/>
<text text-anchor="middle" x="398" y="-241" font-family="Helvetica,sans-Serif" font-size="10.00">CAN1_MessageWriteToFifo</text>
</a>
</g>
</g>
<!-- Node2&#45;&gt;Node5 -->
<g id="edge4_Node000002_Node000005" class="edge">
<title>Node2&#45;&gt;Node5</title>
<g id="a_edge4_Node000002_Node000005"><a xlink:title=" ">
<path fill="none" stroke="#63b8ff" d="M259.13,-215.08C283.47,-220.1 314.51,-226.5 340.97,-231.95"/>
<polygon fill="#63b8ff" stroke="#63b8ff" points="340.36,-235.4 350.86,-233.99 341.77,-228.54 340.36,-235.4"/>
</a>
</g>
</g>
<!-- Node6 -->
<g id="Node000006" class="node">
<title>Node6</title>
<g id="a_Node000006"><a xlink:href="a00405.html#gaedd6e334545a38cd71fe86ff4f9e78c3" target="_top" xlink:title="Get the CAN1 operation mode.">
<polygon fill="white" stroke="#666666" points="462.5,-216 333.5,-216 333.5,-197 462.5,-197 462.5,-216"/>
<text text-anchor="middle" x="398" y="-204" font-family="Helvetica,sans-Serif" font-size="10.00">CAN1_OperationModeGet</text>
</a>
</g>
</g>
<!-- Node2&#45;&gt;Node6 -->
<g id="edge6_Node000002_Node000006" class="edge">
<title>Node2&#45;&gt;Node6</title>
<g id="a_edge6_Node000002_Node000006"><a xlink:title=" ">
<path fill="none" stroke="#63b8ff" d="M259.13,-206.5C278.18,-206.5 301.32,-206.5 323.17,-206.5"/>
<polygon fill="#63b8ff" stroke="#63b8ff" points="323.43,-210 333.43,-206.5 323.43,-203 323.43,-210"/>
</a>
</g>
</g>
<!-- Node7 -->
<g id="Node000007" class="node">
<title>Node7</title>
<g id="a_Node000007"><a xlink:href="a00405.html#ga1d293f033f5d27b360cf00d4644c63eb" target="_top" xlink:title="Returns the CAN1 transmitter FIFO status.">
<polygon fill="white" stroke="#666666" points="473.5,-179 322.5,-179 322.5,-160 473.5,-160 473.5,-179"/>
<text text-anchor="middle" x="398" y="-167" font-family="Helvetica,sans-Serif" font-size="10.00">CAN1_TransmitFIFOStatusGet</text>
</a>
</g>
</g>
<!-- Node2&#45;&gt;Node7 -->
<g id="edge7_Node000002_Node000007" class="edge">
<title>Node2&#45;&gt;Node7</title>
<g id="a_edge7_Node000002_Node000007"><a xlink:title=" ">
<path fill="none" stroke="#63b8ff" d="M259.13,-197.92C283.47,-192.9 314.51,-186.5 340.97,-181.05"/>
<polygon fill="#63b8ff" stroke="#63b8ff" points="341.77,-184.46 350.86,-179.01 340.36,-177.6 341.77,-184.46"/>
</a>
</g>
</g>
<!-- Node8 -->
<g id="Node000008" class="node">
<title>Node8</title>
<g id="a_Node000008"><a xlink:href="a00405.html#gaedb86f6e4e8ac0efba711d7f3d7b688c" target="_top" xlink:title="This function enables The FIFO transmit message send request bit.">
<polygon fill="white" stroke="#666666" points="474,-141.5 322,-141.5 322,-111.5 474,-111.5 474,-141.5"/>
<text text-anchor="start" x="330" y="-129.5" font-family="Helvetica,sans-Serif" font-size="10.00">CAN1_TX_FIFO_MessageSend</text>
<text text-anchor="middle" x="398" y="-118.5" font-family="Helvetica,sans-Serif" font-size="10.00">Request</text>
</a>
</g>
</g>
<!-- Node2&#45;&gt;Node8 -->
<g id="edge8_Node000002_Node000008" class="edge">
<title>Node2&#45;&gt;Node8</title>
<g id="a_edge8_Node000002_Node000008"><a xlink:title=" ">
<path fill="none" stroke="#63b8ff" d="M252.08,-196.91C262.09,-193.41 272.79,-188.95 282,-183.5 300.42,-172.59 299.39,-162.07 318,-151.5 321.73,-149.38 325.66,-147.42 329.7,-145.6"/>
<polygon fill="#63b8ff" stroke="#63b8ff" points="331.37,-148.7 339.26,-141.63 328.68,-142.23 331.37,-148.7"/>
</a>
</g>
</g>
<!-- Node5&#45;&gt;Node3 -->
<g id="edge5_Node000005_Node000003" class="edge">
<title>Node5&#45;&gt;Node3</title>
<g id="a_edge5_Node000005_Node000003"><a xlink:title=" ">
<path fill="none" stroke="#63b8ff" d="M445.61,-253.03C469.27,-257.86 498.21,-263.78 523.17,-268.88"/>
<polygon fill="#63b8ff" stroke="#63b8ff" points="522.73,-272.37 533.23,-270.94 524.14,-265.51 522.73,-272.37"/>
</a>
</g>
</g>
<!-- Node12&#45;&gt;Node11 -->
<g id="edge13_Node000012_Node000011" class="edge">
<title>Node12&#45;&gt;Node11</title>
<g id="a_edge13_Node000012_Node000011"><a xlink:title=" ">
<path fill="none" stroke="#63b8ff" d="M270.39,-57.4C292.54,-61.97 318.31,-67.28 340.81,-71.92"/>
<polygon fill="#63b8ff" stroke="#63b8ff" points="340.38,-75.4 350.88,-73.99 341.8,-68.55 340.38,-75.4"/>
</a>
</g>
</g>
<!-- Node13 -->
<g id="Node000013" class="node">
<title>Node13</title>
<g id="a_Node000013"><a xlink:href="a00427.html#gaf3fad6443af569b0da78810b219ebaaf" target="_top" xlink:title="retrieve the value of the flag &quot;selfSpi.checksum_ok&quot;">
<polygon fill="white" stroke="#666666" points="478,-56 318,-56 318,-37 478,-37 478,-56"/>
<text text-anchor="middle" x="398" y="-44" font-family="Helvetica,sans-Serif" font-size="10.00">Drv_SPI_get_ChecksumOK_Flag</text>
</a>
</g>
</g>
<!-- Node12&#45;&gt;Node13 -->
<g id="edge14_Node000012_Node000013" class="edge">
<title>Node12&#45;&gt;Node13</title>
<g id="a_edge14_Node000012_Node000013"><a xlink:title=" ">
<path fill="none" stroke="#63b8ff" d="M270.39,-46.5C282.14,-46.5 294.91,-46.5 307.67,-46.5"/>
<polygon fill="#63b8ff" stroke="#63b8ff" points="307.88,-50 317.88,-46.5 307.88,-43 307.88,-50"/>
</a>
</g>
</g>
<!-- Node14 -->
<g id="Node000014" class="node">
<title>Node14</title>
<g id="a_Node000014"><a xlink:href="a00427.html#ga0c28951a0ab80e65e5bd85682bf5920a" target="_top" xlink:title="retrieve the value of the flag &quot;selfSpi.connected&quot;">
<polygon fill="white" stroke="#666666" points="471,-19 325,-19 325,0 471,0 471,-19"/>
<text text-anchor="middle" x="398" y="-7" font-family="Helvetica,sans-Serif" font-size="10.00">Drv_SPI_get_Connected_Flag</text>
</a>
</g>
</g>
<!-- Node12&#45;&gt;Node14 -->
<g id="edge15_Node000012_Node000014" class="edge">
<title>Node12&#45;&gt;Node14</title>
<g id="a_edge15_Node000012_Node000014"><a xlink:title=" ">
<path fill="none" stroke="#63b8ff" d="M270.39,-35.6C292.54,-31.03 318.31,-25.72 340.81,-21.08"/>
<polygon fill="#63b8ff" stroke="#63b8ff" points="341.8,-24.45 350.88,-19.01 340.38,-17.6 341.8,-24.45"/>
</a>
</g>
</g>
</g>
</svg>

<g id="navigator" transform="translate(0 0)" fill="#404254">
  <rect fill="#f2f5e9" fill-opacity="0.5" stroke="#606060" stroke-width=".5" x="0" y="0" width="60" height="60"/>
  <use id="zoomplus" xlink:href="#zoomPlus" x="17" y="9" onmousedown="handleZoom(evt,'in')"/>
  <use id="zoomminus" xlink:href="#zoomMin" x="42" y="9" onmousedown="handleZoom(evt,'out')"/>
  <use id="reset" xlink:href="#resetDef" x="30" y="36" onmousedown="handleReset()"/>
   <use id="arrowup" xlink:href="#arrowUp" x="0" y="0" onmousedown="handlePan(0,-1)"/>
  <use id="arrowright" xlink:href="#arrowRight" x="0" y="0" onmousedown="handlePan(1,0)"/>
  <use id="arrowdown" xlink:href="#arrowDown" x="0" y="0" onmousedown="handlePan(0,1)"/>
  <use id="arrowleft" xlink:href="#arrowLeft" x="0" y="0" onmousedown="handlePan(-1,0)"/>
</g>
<svg viewBox="0 0 15 15" width="100%" height="30px" preserveAspectRatio="xMaxYMin meet">
 <g id="arrow_out" transform="scale(0.3 0.3)">
  <a xlink:href="a00424_ga9511f6338931225152a644cd0b011f66_cgraph_org.svg" target="_base">
   <rect id="button" ry="5" rx="5" y="6" x="6" height="38" width="38"
        fill="#f2f5e9" fill-opacity="0.5" stroke="#606060" stroke-width="1.0"/>
   <path id="arrow"
     d="M 11.500037,31.436501 C 11.940474,20.09759 22.043105,11.32322 32.158766,21.979434 L 37.068811,17.246167 C 37.068811,17.246167 37.088388,32 37.088388,32 L 22.160133,31.978069 C 22.160133,31.978069 26.997745,27.140456 26.997745,27.140456 C 18.528582,18.264221 13.291696,25.230495 11.500037,31.436501 z"
     style="fill:#404040;"/>
  </a>
 </g>
</svg>

<style type='text/css'>
<![CDATA[
[data-mouse-over-selected='false'] { opacity: 0.7; }
[data-mouse-over-selected='true']  { opacity: 1.0; }
]]>
</style>
<script type="application/ecmascript"><![CDATA[
document.addEventListener('DOMContentLoaded', (event) => {
  highlightEdges();
  highlightAdjacentNodes();
});
]]></script>
</svg>
