<?xml version="1.0" encoding="UTF-8" standalone="no"?>
<!DOCTYPE svg PUBLIC "-//W3C//DTD SVG 1.1//EN"
 "http://www.w3.org/Graphics/SVG/1.1/DTD/svg11.dtd">
<!-- Generated by graphviz version 2.44.1 (20200629.0846)
 -->
<!-- Title: INTERRUPT_GlobalDisable Pages: 1 -->
<svg width="443pt" height="64pt"
 viewBox="0.00 0.00 443.00 64.00" xmlns="http://www.w3.org/2000/svg" xmlns:xlink="http://www.w3.org/1999/xlink">
<g id="graph0" class="graph" transform="scale(1 1) rotate(0) translate(4 60)">
<title>INTERRUPT_GlobalDisable</title>
<!-- Node1 -->
<g id="Node000001" class="node">
<title>Node1</title>
<g id="a_Node000001"><a xlink:title="Disables the global interrupt bit.">
<polygon fill="#999999" stroke="#666666" points="435,-37 300,-37 300,-18 435,-18 435,-37"/>
<text text-anchor="middle" x="367.5" y="-25" font-family="Helvetica,sans-Serif" font-size="10.00">INTERRUPT_GlobalDisable</text>
</a>
</g>
</g>
<!-- Node2 -->
<g id="Node000002" class="node">
<title>Node2</title>
<g id="a_Node000002"><a xlink:href="a00408.html#ga1bc5134c539119189fc912e50bb40f0c" target="_top" xlink:title="Initializes the DMT module.">
<polygon fill="white" stroke="#666666" points="237.5,-56 160.5,-56 160.5,-37 237.5,-37 237.5,-56"/>
<text text-anchor="middle" x="199" y="-44" font-family="Helvetica,sans-Serif" font-size="10.00">DMT_Initialize</text>
</a>
</g>
</g>
<!-- Node1&#45;&gt;Node2 -->
<g id="edge1_Node000001_Node000002" class="edge">
<title>Node1&#45;&gt;Node2</title>
<g id="a_edge1_Node000001_Node000002"><a xlink:title=" ">
<path fill="none" stroke="#63b8ff" d="M289.73,-36.26C271.59,-38.33 253.05,-40.45 237.56,-42.21"/>
<polygon fill="#63b8ff" stroke="#63b8ff" points="290.2,-39.73 299.74,-35.12 289.41,-32.77 290.2,-39.73"/>
</a>
</g>
</g>
<!-- Node4 -->
<g id="Node000004" class="node">
<title>Node4</title>
<g id="a_Node000004"><a xlink:href="a00431.html#gab00b4f4c807e319cfd81191aa20a0cc9" target="_top" xlink:title="initialize control loops">
<polygon fill="white" stroke="#666666" points="264,-19 134,-19 134,0 264,0 264,-19"/>
<text text-anchor="middle" x="199" y="-7" font-family="Helvetica,sans-Serif" font-size="10.00">StartControl_StateHandler</text>
</a>
</g>
</g>
<!-- Node1&#45;&gt;Node4 -->
<g id="edge3_Node000001_Node000004" class="edge">
<title>Node1&#45;&gt;Node4</title>
<g id="a_edge3_Node000001_Node000004"><a xlink:title=" ">
<path fill="none" stroke="#63b8ff" d="M289.73,-19.2C281.15,-18.27 272.47,-17.33 264.07,-16.43"/>
<polygon fill="#63b8ff" stroke="#63b8ff" points="289.42,-22.69 299.74,-20.28 290.17,-15.73 289.42,-22.69"/>
</a>
</g>
</g>
<!-- Node3 -->
<g id="Node000003" class="node">
<title>Node3</title>
<g id="a_Node000003"><a xlink:href="a00412.html#ga5e8391114a0cf91ac20002be25e3d352" target="_top" xlink:title="Initializes the System module.">
<polygon fill="white" stroke="#666666" points="98,-56 0,-56 0,-37 98,-37 98,-56"/>
<text text-anchor="middle" x="49" y="-44" font-family="Helvetica,sans-Serif" font-size="10.00">SYSTEM_Initialize</text>
</a>
</g>
</g>
<!-- Node2&#45;&gt;Node3 -->
<g id="edge2_Node000002_Node000003" class="edge">
<title>Node2&#45;&gt;Node3</title>
<g id="a_edge2_Node000002_Node000003"><a xlink:title=" ">
<path fill="none" stroke="#63b8ff" d="M150.17,-46.5C133.48,-46.5 114.74,-46.5 98.03,-46.5"/>
<polygon fill="#63b8ff" stroke="#63b8ff" points="150.27,-50 160.27,-46.5 150.27,-43 150.27,-50"/>
</a>
</g>
</g>
<!-- Node5 -->
<g id="Node000005" class="node">
<title>Node5</title>
<g id="a_Node000005"><a xlink:href="a00431.html#ga97fda594ad396d08b6a833ebb3b04538" target="_top" xlink:title="tasks run every 100us">
<polygon fill="white" stroke="#666666" points="86,-19 12,-19 12,0 86,0 86,-19"/>
<text text-anchor="middle" x="49" y="-7" font-family="Helvetica,sans-Serif" font-size="10.00">Tasks_100us</text>
</a>
</g>
</g>
<!-- Node4&#45;&gt;Node5 -->
<g id="edge4_Node000004_Node000005" class="edge">
<title>Node4&#45;&gt;Node5</title>
<g id="a_edge4_Node000004_Node000005"><a xlink:title=" ">
<path fill="none" stroke="#63b8ff" d="M123.89,-9.5C110.71,-9.5 97.54,-9.5 86.04,-9.5"/>
<polygon fill="#63b8ff" stroke="#63b8ff" points="123.95,-13 133.95,-9.5 123.95,-6 123.95,-13"/>
</a>
</g>
</g>
</g>
</svg>
