<?xml version="1.0" encoding="UTF-8" standalone="no"?>
<!DOCTYPE svg PUBLIC "-//W3C//DTD SVG 1.1//EN"
 "http://www.w3.org/Graphics/SVG/1.1/DTD/svg11.dtd">
<!-- Generated by graphviz version 8.1.0 (20230707.0739)
 -->
<!-- Title: RESET_CauseHandler Pages: 1 -->
<svg width="321pt" height="318pt"
 viewBox="0.00 0.00 320.50 318.00" xmlns="http://www.w3.org/2000/svg" xmlns:xlink="http://www.w3.org/1999/xlink">

<svg id="main" version="1.1" xmlns="http://www.w3.org/2000/svg" xmlns:xlink="http://www.w3.org/1999/xlink" xml:space="preserve" onload="init(evt)">
<style type="text/css"><![CDATA[
.node, .edge {opacity: 0.7;}
.node.selected, .edge.selected {opacity: 1;}
.edge:hover path { stroke: red; }
.edge:hover polygon { stroke: red; fill: red; }
]]></style>
<script type="application/ecmascript" xlink:href="svg.min.js"/>
<svg id="graph" class="graph">
<g id="graph0" class="graph" transform="scale(1 1) rotate(0) translate(4 314)">
<title>RESET_CauseHandler</title>
<!-- Node1 -->
<g id="Node000001" class="node">
<title>Node1</title>
<g id="a_Node000001"><a xlink:title="It handles the reset cause by clearing the cause register values. This is a weak attribute function....">
<polygon fill="#999999" stroke="#666666" points="114.25,-165 0,-165 0,-145 114.25,-145 114.25,-165"/>
<text text-anchor="middle" x="57.12" y="-151.5" font-family="Helvetica,sans-Serif" font-size="10.00">RESET_CauseHandler</text>
</a>
</g>
</g>
<!-- Node2 -->
<g id="Node000002" class="node">
<title>Node2</title>
<g id="a_Node000002"><a xlink:href="a00407.html#ga0174a76fda8d92f242395a797470b7b1" target="_top" xlink:title="RESET cause from Clear">
<polygon fill="white" stroke="#666666" points="283.25,-310 179.5,-310 179.5,-290 283.25,-290 283.25,-310"/>
<text text-anchor="middle" x="231.38" y="-296.5" font-family="Helvetica,sans-Serif" font-size="10.00">RESET_CauseClear</text>
</a>
</g>
</g>
<!-- Node1&#45;&gt;Node2 -->
<g id="edge1_Node000001_Node000002" class="edge">
<title>Node1&#45;&gt;Node2</title>
<g id="a_edge1_Node000001_Node000002"><a xlink:title=" ">
<path fill="none" stroke="#63b8ff" d="M62.61,-165.41C73.65,-189.78 104.65,-250.72 150.25,-281 156.09,-284.88 162.64,-287.97 169.4,-290.43"/>
<polygon fill="#63b8ff" stroke="#63b8ff" points="167.82,-293.92 178.41,-293.6 169.93,-287.24 167.82,-293.92"/>
</a>
</g>
</g>
<!-- Node3 -->
<g id="Node000003" class="node">
<title>Node3</title>
<g id="a_Node000003"><a xlink:href="a00407.html#gad6caf79bbee9b33bf903c186fd824059" target="_top" xlink:title="RESET cause from Configuration Mismatch">
<polygon fill="white" stroke="#666666" points="311.38,-272 151.38,-272 151.38,-240 311.38,-240 311.38,-272"/>
<text text-anchor="start" x="159.38" y="-258.5" font-family="Helvetica,sans-Serif" font-size="10.00">RESET_CauseFromConfiguration</text>
<text text-anchor="middle" x="231.38" y="-246.5" font-family="Helvetica,sans-Serif" font-size="10.00">Mismatch</text>
</a>
</g>
</g>
<!-- Node1&#45;&gt;Node3 -->
<g id="edge2_Node000001_Node000003" class="edge">
<title>Node1&#45;&gt;Node3</title>
<g id="a_edge2_Node000001_Node000003"><a xlink:title=" ">
<path fill="none" stroke="#63b8ff" d="M67.93,-165.34C83.79,-181.52 116.7,-212.84 150.25,-231 153.11,-232.55 156.07,-234.01 159.11,-235.4"/>
<polygon fill="#63b8ff" stroke="#63b8ff" points="157.41,-238.9 167.98,-239.57 160.13,-232.46 157.41,-238.9"/>
</a>
</g>
</g>
<!-- Node4 -->
<g id="Node000004" class="node">
<title>Node4</title>
<g id="a_Node000004"><a xlink:href="a00407.html#ga32b316332402fc7d3660d63a7fff528f" target="_top" xlink:title="RESET cause from External">
<polygon fill="white" stroke="#666666" points="301.25,-222 161.5,-222 161.5,-202 301.25,-202 301.25,-222"/>
<text text-anchor="middle" x="231.38" y="-208.5" font-family="Helvetica,sans-Serif" font-size="10.00">RESET_CauseFromExternal</text>
</a>
</g>
</g>
<!-- Node1&#45;&gt;Node4 -->
<g id="edge3_Node000001_Node000004" class="edge">
<title>Node1&#45;&gt;Node4</title>
<g id="a_edge3_Node000001_Node000004"><a xlink:title=" ">
<path fill="none" stroke="#63b8ff" d="M80.47,-165.39C98.9,-173.67 125.88,-185.14 150.25,-193 156.68,-195.07 163.46,-197.03 170.26,-198.84"/>
<polygon fill="#63b8ff" stroke="#63b8ff" points="169.33,-202.47 179.88,-201.56 171.06,-195.69 169.33,-202.47"/>
</a>
</g>
</g>
<!-- Node5 -->
<g id="Node000005" class="node">
<title>Node5</title>
<g id="a_Node000005"><a xlink:href="a00407.html#gae9bed7f7c62488a1a1e1aa053665a46d" target="_top" xlink:title="RESET cause from Illegal Opcode">
<polygon fill="white" stroke="#666666" points="312.5,-184 150.25,-184 150.25,-164 312.5,-164 312.5,-184"/>
<text text-anchor="middle" x="231.38" y="-170.5" font-family="Helvetica,sans-Serif" font-size="10.00">RESET_CauseFromIllegalOpcode</text>
</a>
</g>
</g>
<!-- Node1&#45;&gt;Node5 -->
<g id="edge4_Node000001_Node000005" class="edge">
<title>Node1&#45;&gt;Node5</title>
<g id="a_edge4_Node000001_Node000005"><a xlink:title=" ">
<path fill="none" stroke="#63b8ff" d="M114.53,-161.22C122.37,-162.09 130.59,-162.99 138.88,-163.91"/>
<polygon fill="#63b8ff" stroke="#63b8ff" points="138.46,-167.49 148.79,-165.11 139.23,-160.54 138.46,-167.49"/>
</a>
</g>
</g>
<!-- Node6 -->
<g id="Node000006" class="node">
<title>Node6</title>
<g id="a_Node000006"><a xlink:href="a00407.html#ga7f962e95fa6bd2864091df4cf882eee7" target="_top" xlink:title="RESET cause from Software">
<polygon fill="white" stroke="#666666" points="302,-146 160.75,-146 160.75,-126 302,-126 302,-146"/>
<text text-anchor="middle" x="231.38" y="-132.5" font-family="Helvetica,sans-Serif" font-size="10.00">RESET_CauseFromSoftware</text>
</a>
</g>
</g>
<!-- Node1&#45;&gt;Node6 -->
<g id="edge5_Node000001_Node000006" class="edge">
<title>Node1&#45;&gt;Node6</title>
<g id="a_edge5_Node000001_Node000006"><a xlink:title=" ">
<path fill="none" stroke="#63b8ff" d="M114.53,-148.78C125.72,-147.54 137.68,-146.23 149.5,-144.92"/>
<polygon fill="#63b8ff" stroke="#63b8ff" points="149.74,-148.31 159.29,-143.73 148.97,-141.35 149.74,-148.31"/>
</a>
</g>
</g>
<!-- Node7 -->
<g id="Node000007" class="node">
<title>Node7</title>
<g id="a_Node000007"><a xlink:href="a00407.html#ga36c739c4dcee0f773bc467be47c87722" target="_top" xlink:title="RESET cause from trap.">
<polygon fill="white" stroke="#666666" points="292.62,-108 170.12,-108 170.12,-88 292.62,-88 292.62,-108"/>
<text text-anchor="middle" x="231.38" y="-94.5" font-family="Helvetica,sans-Serif" font-size="10.00">RESET_CauseFromTrap</text>
</a>
</g>
</g>
<!-- Node1&#45;&gt;Node7 -->
<g id="edge6_Node000001_Node000007" class="edge">
<title>Node1&#45;&gt;Node7</title>
<g id="a_edge6_Node000001_Node000007"><a xlink:title=" ">
<path fill="none" stroke="#63b8ff" d="M80.47,-144.61C98.9,-136.33 125.88,-124.86 150.25,-117 156.68,-114.93 163.46,-112.97 170.26,-111.16"/>
<polygon fill="#63b8ff" stroke="#63b8ff" points="171.06,-114.31 179.88,-108.44 169.33,-107.53 171.06,-114.31"/>
</a>
</g>
</g>
<!-- Node8 -->
<g id="Node000008" class="node">
<title>Node8</title>
<g id="a_Node000008"><a xlink:href="a00407.html#ga6283f56ec3cae6da1145799ddcc9b44a" target="_top" xlink:title="RESET cause from Watchdog Time">
<polygon fill="white" stroke="#666666" points="305.38,-70 157.38,-70 157.38,-38 305.38,-38 305.38,-70"/>
<text text-anchor="start" x="165.38" y="-56.5" font-family="Helvetica,sans-Serif" font-size="10.00">RESET_CauseFromWatchdog</text>
<text text-anchor="middle" x="231.38" y="-44.5" font-family="Helvetica,sans-Serif" font-size="10.00">Timer</text>
</a>
</g>
</g>
<!-- Node1&#45;&gt;Node8 -->
<g id="edge7_Node000001_Node000008" class="edge">
<title>Node1&#45;&gt;Node8</title>
<g id="a_edge7_Node000001_Node000008"><a xlink:title=" ">
<path fill="none" stroke="#63b8ff" d="M67.93,-144.66C83.79,-128.48 116.7,-97.16 150.25,-79 153.11,-77.45 156.07,-75.99 159.11,-74.6"/>
<polygon fill="#63b8ff" stroke="#63b8ff" points="160.13,-77.54 167.98,-70.43 157.41,-71.1 160.13,-77.54"/>
</a>
</g>
</g>
<!-- Node9 -->
<g id="Node000009" class="node">
<title>Node9</title>
<g id="a_Node000009"><a xlink:href="a00407.html#gaa218141dacf762880dc162a2f499657c" target="_top" xlink:title="Returns the cause of previous reset.">
<polygon fill="white" stroke="#666666" points="279.88,-20 182.88,-20 182.88,0 279.88,0 279.88,-20"/>
<text text-anchor="middle" x="231.38" y="-6.5" font-family="Helvetica,sans-Serif" font-size="10.00">RESET_CauseGet</text>
</a>
</g>
</g>
<!-- Node1&#45;&gt;Node9 -->
<g id="edge8_Node000001_Node000009" class="edge">
<title>Node1&#45;&gt;Node9</title>
<g id="a_edge8_Node000001_Node000009"><a xlink:title=" ">
<path fill="none" stroke="#63b8ff" d="M62.61,-144.59C73.65,-120.22 104.65,-59.28 150.25,-29 156.96,-24.55 164.59,-21.13 172.42,-18.52"/>
<polygon fill="#63b8ff" stroke="#63b8ff" points="173.13,-21.66 181.76,-15.52 171.18,-14.94 173.13,-21.66"/>
</a>
</g>
</g>
</g>
</svg>
</svg>

<style type='text/css'>
<![CDATA[
[data-mouse-over-selected='false'] { opacity: 0.7; }
[data-mouse-over-selected='true']  { opacity: 1.0; }
]]>
</style>
<script type="application/ecmascript"><![CDATA[
document.addEventListener('DOMContentLoaded', (event) => {
  highlightEdges();
  highlightAdjacentNodes();
});
]]></script>
</svg>
