<?xml version="1.0" encoding="UTF-8" standalone="no"?>
<!DOCTYPE svg PUBLIC "-//W3C//DTD SVG 1.1//EN"
 "http://www.w3.org/Graphics/SVG/1.1/DTD/svg11.dtd">
<!-- Generated by graphviz version 8.1.0 (20230707.0739)
 -->
<!-- Title: TMR1_Initialize Pages: 1 -->
<svg width="281pt" height="104pt"
 viewBox="0.00 0.00 280.75 104.00" xmlns="http://www.w3.org/2000/svg" xmlns:xlink="http://www.w3.org/1999/xlink">
<g id="graph0" class="graph" transform="scale(1 1) rotate(0) translate(4 100)">
<title>TMR1_Initialize</title>
<!-- Node1 -->
<g id="Node000001" class="node">
<title>Node1</title>
<g id="a_Node000001"><a xlink:title="Initializes the TMR1 module.">
<polygon fill="#999999" stroke="#666666" points="82,-58 0,-58 0,-38 82,-38 82,-58"/>
<text text-anchor="middle" x="41" y="-44.5" font-family="Helvetica,sans-Serif" font-size="10.00">TMR1_Initialize</text>
</a>
</g>
</g>
<!-- Node2 -->
<g id="Node000002" class="node">
<title>Node2</title>
<g id="a_Node000002"><a xlink:href="a00410.html#gafed3745413684e23104d29539be4f2e5" target="_top" xlink:title="Starts the timer.">
<polygon fill="white" stroke="#666666" points="229.25,-96 161.5,-96 161.5,-76 229.25,-76 229.25,-96"/>
<text text-anchor="middle" x="195.38" y="-82.5" font-family="Helvetica,sans-Serif" font-size="10.00">TMR1_Start</text>
</a>
</g>
</g>
<!-- Node1&#45;&gt;Node2 -->
<g id="edge1_Node000001_Node000002" class="edge">
<title>Node1&#45;&gt;Node2</title>
<g id="a_edge1_Node000001_Node000002"><a xlink:title=" ">
<path fill="none" stroke="#63b8ff" d="M82.23,-58.07C93.78,-60.95 106.39,-64.1 118,-67 128.64,-69.65 140.11,-72.51 150.85,-75.18"/>
<polygon fill="#63b8ff" stroke="#63b8ff" points="149.74,-78.76 160.29,-77.78 151.43,-71.97 149.74,-78.76"/>
</a>
</g>
</g>
<!-- Node3 -->
<g id="Node000003" class="node">
<title>Node3</title>
<g id="a_Node000003"><a xlink:href="a00410.html#ga68e2de2fe38060ac6e5538406974ed3d" target="_top" xlink:title="This is the default callback with weak attribute. The user can override and implement the default cal...">
<polygon fill="white" stroke="#666666" points="254.75,-58 136,-58 136,-38 254.75,-38 254.75,-58"/>
<text text-anchor="middle" x="195.38" y="-44.5" font-family="Helvetica,sans-Serif" font-size="10.00">TMR1_TimeoutCallback</text>
</a>
</g>
</g>
<!-- Node1&#45;&gt;Node3 -->
<g id="edge2_Node000001_Node000003" class="edge">
<title>Node1&#45;&gt;Node3</title>
<g id="a_edge2_Node000001_Node000003"><a xlink:title=" ">
<path fill="none" stroke="#63b8ff" d="M82.43,-48C95.43,-48 110.22,-48 124.7,-48"/>
<polygon fill="#63b8ff" stroke="#63b8ff" points="124.68,-51.5 134.68,-48 124.68,-44.5 124.68,-51.5"/>
</a>
</g>
</g>
<!-- Node4 -->
<g id="Node000004" class="node">
<title>Node4</title>
<g id="a_Node000004"><a xlink:href="a00410.html#gacf9de8f06456af5b10227545089697ff" target="_top" xlink:title="This function can be used to override default callback and to define custom callback for TMR1 Timeout...">
<polygon fill="white" stroke="#666666" points="272.75,-20 118,-20 118,0 272.75,0 272.75,-20"/>
<text text-anchor="middle" x="195.38" y="-6.5" font-family="Helvetica,sans-Serif" font-size="10.00">TMR1_TimeoutCallbackRegister</text>
</a>
</g>
</g>
<!-- Node1&#45;&gt;Node4 -->
<g id="edge3_Node000001_Node000004" class="edge">
<title>Node1&#45;&gt;Node4</title>
<g id="a_edge3_Node000001_Node000004"><a xlink:title=" ">
<path fill="none" stroke="#63b8ff" d="M82.23,-37.93C93.78,-35.05 106.39,-31.9 118,-29 125.66,-27.09 133.74,-25.08 141.68,-23.1"/>
<polygon fill="#63b8ff" stroke="#63b8ff" points="142.5,-26.26 151.35,-20.44 140.8,-19.46 142.5,-26.26"/>
</a>
</g>
</g>
</g>
</svg>
