<?xml version="1.0" encoding="UTF-8" standalone="no"?>
<!DOCTYPE svg PUBLIC "-//W3C//DTD SVG 1.1//EN"
 "http://www.w3.org/Graphics/SVG/1.1/DTD/svg11.dtd">
<!-- Generated by graphviz version 2.44.1 (20200629.0846)
 -->
<!-- Title: Tasks_100us Pages: 1 -->
<svg width="837pt" height="719pt"
 viewBox="0.00 0.00 837.00 719.00" xmlns="http://www.w3.org/2000/svg" xmlns:xlink="http://www.w3.org/1999/xlink">
<g id="graph0" class="graph" transform="scale(1 1) rotate(0) translate(4 715)">
<title>Tasks_100us</title>
<!-- Node1 -->
<g id="Node000001" class="node">
<title>Node1</title>
<g id="a_Node000001"><a xlink:title="tasks run every 100us">
<polygon fill="#999999" stroke="#666666" points="74,-285 0,-285 0,-266 74,-266 74,-285"/>
<text text-anchor="middle" x="37" y="-273" font-family="Helvetica,sans-Serif" font-size="10.00">Tasks_100us</text>
</a>
</g>
</g>
<!-- Node2 -->
<g id="Node000002" class="node">
<title>Node2</title>
<g id="a_Node000002"><a xlink:href="a00424.html#ga77b41fe067ba8e8d666827b686e52cff" target="_top" xlink:title="received message from GUI. Send the data to the secondary core using mailbox protocol A">
<polygon fill="white" stroke="#666666" points="232,-504 110,-504 110,-485 232,-485 232,-504"/>
<text text-anchor="middle" x="171" y="-492" font-family="Helvetica,sans-Serif" font-size="10.00">CAN_Receive_from_GUI</text>
</a>
</g>
</g>
<!-- Node1&#45;&gt;Node2 -->
<g id="edge1_Node000001_Node000002" class="edge">
<title>Node1&#45;&gt;Node2</title>
<g id="a_edge1_Node000001_Node000002"><a xlink:title=" ">
<path fill="none" stroke="#63b8ff" d="M43.84,-285.19C64.2,-318.97 132.24,-431.86 159.03,-476.3"/>
<polygon fill="#63b8ff" stroke="#63b8ff" points="156.07,-478.16 164.23,-484.92 162.06,-474.55 156.07,-478.16"/>
</a>
</g>
</g>
<!-- Node14 -->
<g id="Node000014" class="node">
<title>Node14</title>
<g id="a_Node000014"><a xlink:href="a00424.html#ga9511f6338931225152a644cd0b011f66" target="_top" xlink:title="send frame to GUI when the FIFO from secondary to primary has been filled">
<polygon fill="white" stroke="#666666" points="228.5,-285 113.5,-285 113.5,-266 228.5,-266 228.5,-285"/>
<text text-anchor="middle" x="171" y="-273" font-family="Helvetica,sans-Serif" font-size="10.00">CAN_Transmit_to_GUI</text>
</a>
</g>
</g>
<!-- Node1&#45;&gt;Node14 -->
<g id="edge15_Node000001_Node000014" class="edge">
<title>Node1&#45;&gt;Node14</title>
<g id="a_edge15_Node000001_Node000014"><a xlink:title=" ">
<path fill="none" stroke="#63b8ff" d="M74.07,-275.5C83.17,-275.5 93.24,-275.5 103.33,-275.5"/>
<polygon fill="#63b8ff" stroke="#63b8ff" points="103.39,-279 113.39,-275.5 103.39,-272 103.39,-279"/>
</a>
</g>
</g>
<!-- Node26 -->
<g id="Node000026" class="node">
<title>Node26</title>
<g id="a_Node000026"><a xlink:href="a00427.html#ga931d1aef6dcb7d881ab27cf66cd94d00" target="_top" xlink:title="check for SPI timeout">
<polygon fill="white" stroke="#666666" points="216.5,-171 125.5,-171 125.5,-152 216.5,-152 216.5,-171"/>
<text text-anchor="middle" x="171" y="-159" font-family="Helvetica,sans-Serif" font-size="10.00">Drv_SPI_Timeout</text>
</a>
</g>
</g>
<!-- Node1&#45;&gt;Node26 -->
<g id="edge31_Node000001_Node000026" class="edge">
<title>Node1&#45;&gt;Node26</title>
<g id="a_edge31_Node000001_Node000026"><a xlink:title=" ">
<path fill="none" stroke="#63b8ff" d="M49.25,-265.78C71.85,-246.26 122.98,-202.11 150.91,-177.99"/>
<polygon fill="#63b8ff" stroke="#63b8ff" points="153.49,-180.38 158.77,-171.19 148.92,-175.08 153.49,-180.38"/>
</a>
</g>
</g>
<!-- Node3 -->
<g id="Node000003" class="node">
<title>Node3</title>
<g id="a_Node000003"><a xlink:href="a00405.html#ga4fe1df4cd9f0ce122687dcfab0713b5b" target="_top" xlink:title="Reads the received single message object.">
<polygon fill="white" stroke="#666666" points="392,-609 311,-609 311,-590 392,-590 392,-609"/>
<text text-anchor="middle" x="351.5" y="-597" font-family="Helvetica,sans-Serif" font-size="10.00">CAN1_Receive</text>
</a>
</g>
</g>
<!-- Node2&#45;&gt;Node3 -->
<g id="edge2_Node000002_Node000003" class="edge">
<title>Node2&#45;&gt;Node3</title>
<g id="a_edge2_Node000002_Node000003"><a xlink:title=" ">
<path fill="none" stroke="#63b8ff" d="M188.16,-504C219.41,-522.39 288.32,-562.92 325.52,-584.81"/>
<polygon fill="#63b8ff" stroke="#63b8ff" points="323.86,-587.89 334.25,-589.94 327.41,-581.86 323.86,-587.89"/>
</a>
</g>
</g>
<!-- Node10 -->
<g id="Node000010" class="node">
<title>Node10</title>
<g id="a_Node000010"><a xlink:href="a00405.html#gac27e97593d8d9bd7787d116910adc40d" target="_top" xlink:title="Returns the number of CAN messages received in all the FIFO.">
<polygon fill="white" stroke="#666666" points="435,-532 268,-532 268,-513 435,-513 435,-532"/>
<text text-anchor="middle" x="351.5" y="-520" font-family="Helvetica,sans-Serif" font-size="10.00">CAN1_ReceivedMessageCountGet</text>
</a>
</g>
</g>
<!-- Node2&#45;&gt;Node10 -->
<g id="edge9_Node000002_Node000010" class="edge">
<title>Node2&#45;&gt;Node10</title>
<g id="a_edge9_Node000002_Node000010"><a xlink:title=" ">
<path fill="none" stroke="#63b8ff" d="M232.43,-503.98C247.61,-506.36 264.04,-508.94 279.68,-511.39"/>
<polygon fill="#63b8ff" stroke="#63b8ff" points="279.41,-514.89 289.83,-512.98 280.49,-507.98 279.41,-514.89"/>
</a>
</g>
</g>
<!-- Node12 -->
<g id="Node000012" class="node">
<title>Node12</title>
<g id="a_Node000012"><a xlink:href="a00421.html#gab313dfcda98b03477bba5f3812dbb3cc" target="_top" xlink:title="This routine writes data to mailbox.">
<polygon fill="white" stroke="#666666" points="421.5,-486 281.5,-486 281.5,-467 421.5,-467 421.5,-486"/>
<text text-anchor="middle" x="351.5" y="-474" font-family="Helvetica,sans-Serif" font-size="10.00">SEC_CORE1_ProtocolWrite</text>
</a>
</g>
</g>
<!-- Node2&#45;&gt;Node12 -->
<g id="edge13_Node000002_Node000012" class="edge">
<title>Node2&#45;&gt;Node12</title>
<g id="a_edge13_Node000002_Node000012"><a xlink:title=" ">
<path fill="none" stroke="#63b8ff" d="M232.43,-488.41C244.8,-487.16 258,-485.83 270.92,-484.52"/>
<polygon fill="#63b8ff" stroke="#63b8ff" points="271.61,-487.97 281.21,-483.49 270.91,-481.01 271.61,-487.97"/>
</a>
</g>
</g>
<!-- Node4 -->
<g id="Node000004" class="node">
<title>Node4</title>
<g id="a_Node000004"><a xlink:href="a00405.html#ga57b30800d7bd3b3c936f578ca1fd7e32" target="_top" xlink:title="This function get the FIFO user address, message depth and payload size information.">
<polygon fill="white" stroke="#666666" points="608.5,-551 503.5,-551 503.5,-532 608.5,-532 608.5,-551"/>
<text text-anchor="middle" x="556" y="-539" font-family="Helvetica,sans-Serif" font-size="10.00">CAN1_FIFO_InfoGet</text>
</a>
</g>
</g>
<!-- Node3&#45;&gt;Node4 -->
<g id="edge3_Node000003_Node000004" class="edge">
<title>Node3&#45;&gt;Node4</title>
<g id="a_edge3_Node000003_Node000004"><a xlink:title=" ">
<path fill="none" stroke="#63b8ff" d="M379.1,-589.94C402.97,-581.55 439.06,-569.35 471,-560.5 480.09,-557.98 489.8,-555.55 499.28,-553.32"/>
<polygon fill="#63b8ff" stroke="#63b8ff" points="500.07,-556.73 509.03,-551.07 498.5,-549.91 500.07,-556.73"/>
</a>
</g>
</g>
<!-- Node5 -->
<g id="Node000005" class="node">
<title>Node5</title>
<g id="a_Node000005"><a xlink:href="a00405.html#gaa89329ca22f234476d55536c446b70e3" target="_top" xlink:title="This function read the message object from receive FIFO and update to the user &#160;&#160;message object point...">
<polygon fill="white" stroke="#666666" points="630,-711 482,-711 482,-692 630,-692 630,-711"/>
<text text-anchor="middle" x="556" y="-699" font-family="Helvetica,sans-Serif" font-size="10.00">CAN1_MessageReadFromFifo</text>
</a>
</g>
</g>
<!-- Node3&#45;&gt;Node5 -->
<g id="edge4_Node000003_Node000005" class="edge">
<title>Node3&#45;&gt;Node5</title>
<g id="a_edge4_Node000003_Node000005"><a xlink:title=" ">
<path fill="none" stroke="#63b8ff" d="M363.01,-609.25C382.64,-626.9 426.9,-664.13 471,-683.5 475.74,-685.58 480.75,-687.43 485.85,-689.07"/>
<polygon fill="#63b8ff" stroke="#63b8ff" points="485.17,-692.52 495.75,-691.98 487.14,-685.8 485.17,-692.52"/>
</a>
</g>
</g>
<!-- Node7 -->
<g id="Node000007" class="node">
<title>Node7</title>
<g id="a_Node000007"><a xlink:href="a00405.html#ga0dab5f41a5a5ef032d23c2ba4890a866" target="_top" xlink:title="This function Update the receive FIFO message increment tail position.">
<polygon fill="white" stroke="#666666" points="639,-674 473,-674 473,-655 639,-655 639,-674"/>
<text text-anchor="middle" x="556" y="-662" font-family="Helvetica,sans-Serif" font-size="10.00">CAN1_RX_FIFO_IncrementMsgPtr</text>
</a>
</g>
</g>
<!-- Node3&#45;&gt;Node7 -->
<g id="edge6_Node000003_Node000007" class="edge">
<title>Node3&#45;&gt;Node7</title>
<g id="a_edge6_Node000003_Node000007"><a xlink:title=" ">
<path fill="none" stroke="#63b8ff" d="M374.43,-609.14C397.96,-619.22 436.6,-634.99 471,-645.5 479.42,-648.07 488.4,-650.46 497.25,-652.62"/>
<polygon fill="#63b8ff" stroke="#63b8ff" points="496.61,-656.07 507.14,-654.96 498.22,-649.26 496.61,-656.07"/>
</a>
</g>
</g>
<!-- Node8 -->
<g id="Node000008" class="node">
<title>Node8</title>
<g id="a_Node000008"><a xlink:href="a00405.html#ga224fbf549503a57f5818cc8391105b8f" target="_top" xlink:title="This function is used to clear the CAN1 receive FIFO overflow status bit.">
<polygon fill="white" stroke="#666666" points="634,-636.5 478,-636.5 478,-606.5 634,-606.5 634,-636.5"/>
<text text-anchor="start" x="486" y="-624.5" font-family="Helvetica,sans-Serif" font-size="10.00">CAN1_RX_FIFO_OverflowStatus</text>
<text text-anchor="middle" x="556" y="-613.5" font-family="Helvetica,sans-Serif" font-size="10.00">FlagClear</text>
</a>
</g>
</g>
<!-- Node3&#45;&gt;Node8 -->
<g id="edge7_Node000003_Node000008" class="edge">
<title>Node3&#45;&gt;Node8</title>
<g id="a_edge7_Node000003_Node000008"><a xlink:title=" ">
<path fill="none" stroke="#63b8ff" d="M392.02,-603.79C413.66,-606.14 441.38,-609.16 467.8,-612.03"/>
<polygon fill="#63b8ff" stroke="#63b8ff" points="467.52,-615.52 477.84,-613.12 468.28,-608.56 467.52,-615.52"/>
</a>
</g>
</g>
<!-- Node9 -->
<g id="Node000009" class="node">
<title>Node9</title>
<g id="a_Node000009"><a xlink:href="a00405.html#ga4a6437adcdf1917fffef4e7e5761fda1" target="_top" xlink:title="This returns the CAN1 receive FIFO status.">
<polygon fill="white" stroke="#666666" points="624,-588 488,-588 488,-569 624,-569 624,-588"/>
<text text-anchor="middle" x="556" y="-576" font-family="Helvetica,sans-Serif" font-size="10.00">CAN1_RX_FIFO_StatusGet</text>
</a>
</g>
</g>
<!-- Node3&#45;&gt;Node9 -->
<g id="edge8_Node000003_Node000009" class="edge">
<title>Node3&#45;&gt;Node9</title>
<g id="a_edge8_Node000003_Node000009"><a xlink:title=" ">
<path fill="none" stroke="#63b8ff" d="M392.02,-595.4C416.32,-592.88 448.29,-589.57 477.47,-586.54"/>
<polygon fill="#63b8ff" stroke="#63b8ff" points="478.08,-590 487.66,-585.48 477.36,-583.03 478.08,-590"/>
</a>
</g>
</g>
<!-- Node6 -->
<g id="Node000006" class="node">
<title>Node6</title>
<g id="a_Node000006"><a xlink:href="a00405.html#ga61d156b0e75424f9b630cef5c424ac13" target="_top" xlink:title="This function get the DLC enum based decimal value.">
<polygon fill="white" stroke="#666666" points="820,-439 686,-439 686,-420 820,-420 820,-439"/>
<text text-anchor="middle" x="753" y="-427" font-family="Helvetica,sans-Serif" font-size="10.00">CAN1_DlcToDataBytesGet</text>
</a>
</g>
</g>
<!-- Node5&#45;&gt;Node6 -->
<g id="edge5_Node000005_Node000006" class="edge">
<title>Node5&#45;&gt;Node6</title>
<g id="a_edge5_Node000005_Node000006"><a xlink:title=" ">
<path fill="none" stroke="#63b8ff" d="M627.27,-691.99C632.19,-689.69 636.84,-686.9 641,-683.5 716.91,-621.49 742.29,-497.38 749.5,-449.23"/>
<polygon fill="#63b8ff" stroke="#63b8ff" points="752.98,-449.57 750.9,-439.18 746.05,-448.6 752.98,-449.57"/>
</a>
</g>
</g>
<!-- Node10&#45;&gt;Node4 -->
<g id="edge10_Node000010_Node000004" class="edge">
<title>Node10&#45;&gt;Node4</title>
<g id="a_edge10_Node000010_Node000004"><a xlink:title=" ">
<path fill="none" stroke="#63b8ff" d="M435.16,-530.26C454.63,-532.08 475.05,-534 493.4,-535.72"/>
<polygon fill="#63b8ff" stroke="#63b8ff" points="493.08,-539.21 503.37,-536.66 493.74,-532.24 493.08,-539.21"/>
</a>
</g>
</g>
<!-- Node10&#45;&gt;Node9 -->
<g id="edge12_Node000010_Node000009" class="edge">
<title>Node10&#45;&gt;Node9</title>
<g id="a_edge12_Node000010_Node000009"><a xlink:title=" ">
<path fill="none" stroke="#63b8ff" d="M379.57,-532.03C403.44,-540.23 439.27,-552.04 471,-560.5 479.18,-562.68 487.87,-564.78 496.43,-566.73"/>
<polygon fill="#63b8ff" stroke="#63b8ff" points="495.87,-570.19 506.39,-568.94 497.38,-563.36 495.87,-570.19"/>
</a>
</g>
</g>
<!-- Node11 -->
<g id="Node000011" class="node">
<title>Node11</title>
<g id="a_Node000011"><a xlink:href="a00405.html#ga5532c9a884cedd0805a011bf8baaabdd" target="_top" xlink:title="This function get the Receiver FIFO message index value.">
<polygon fill="white" stroke="#666666" points="641,-514 471,-514 471,-495 641,-495 641,-514"/>
<text text-anchor="middle" x="556" y="-502" font-family="Helvetica,sans-Serif" font-size="10.00">CAN1_RX_FIFO_MessageIndexGet</text>
</a>
</g>
</g>
<!-- Node10&#45;&gt;Node11 -->
<g id="edge11_Node000010_Node000011" class="edge">
<title>Node10&#45;&gt;Node11</title>
<g id="a_edge11_Node000010_Node000011"><a xlink:title=" ">
<path fill="none" stroke="#63b8ff" d="M435.16,-515.15C443.65,-514.4 452.32,-513.63 460.92,-512.86"/>
<polygon fill="#63b8ff" stroke="#63b8ff" points="461.31,-516.34 470.97,-511.97 460.69,-509.37 461.31,-516.34"/>
</a>
</g>
</g>
<!-- Node13 -->
<g id="Node000013" class="node">
<title>Node13</title>
<g id="a_Node000013"><a xlink:href="a00421.html#ga7048b9c95d3c78e856b4af93f8bac646" target="_top" xlink:title="This inline function checks whether mailbox is empty. Returns true if Protocol is empty indicating ma...">
<polygon fill="white" stroke="#666666" points="632,-477 480,-477 480,-458 632,-458 632,-477"/>
<text text-anchor="middle" x="556" y="-465" font-family="Helvetica,sans-Serif" font-size="10.00">SEC_CORE1_ProtocolIsEmpty</text>
</a>
</g>
</g>
<!-- Node12&#45;&gt;Node13 -->
<g id="edge14_Node000012_Node000013" class="edge">
<title>Node12&#45;&gt;Node13</title>
<g id="a_edge14_Node000012_Node000013"><a xlink:title=" ">
<path fill="none" stroke="#63b8ff" d="M421.62,-473.43C437.04,-472.74 453.56,-472.01 469.54,-471.3"/>
<polygon fill="#63b8ff" stroke="#63b8ff" points="470.12,-474.78 479.95,-470.84 469.81,-467.78 470.12,-474.78"/>
</a>
</g>
</g>
<!-- Node15 -->
<g id="Node000015" class="node">
<title>Node15</title>
<g id="a_Node000015"><a xlink:href="a00405.html#gad99c960d1ed589ce80aca873a90e068e" target="_top" xlink:title="Writes the CAN message object to specified transmit FIFO channel.">
<polygon fill="white" stroke="#666666" points="394,-364 309,-364 309,-345 394,-345 394,-364"/>
<text text-anchor="middle" x="351.5" y="-352" font-family="Helvetica,sans-Serif" font-size="10.00">CAN1_Transmit</text>
</a>
</g>
</g>
<!-- Node14&#45;&gt;Node15 -->
<g id="edge16_Node000014_Node000015" class="edge">
<title>Node14&#45;&gt;Node15</title>
<g id="a_edge16_Node000014_Node000015"><a xlink:title=" ">
<path fill="none" stroke="#63b8ff" d="M185.72,-285.03C203.84,-297.25 237.08,-318.43 268,-331.5 277.76,-335.62 288.47,-339.23 298.85,-342.3"/>
<polygon fill="#63b8ff" stroke="#63b8ff" points="298.09,-345.72 308.67,-345.06 299.99,-338.98 298.09,-345.72"/>
</a>
</g>
</g>
<!-- Node20 -->
<g id="Node000020" class="node">
<title>Node20</title>
<g id="a_Node000020"><a xlink:href="a00425.html#gaf058b1be15bd59ec5d57d06d1657b5e8" target="_top" xlink:title="API function to get core buffer.">
<polygon fill="white" stroke="#666666" points="415.5,-322 287.5,-322 287.5,-303 415.5,-303 415.5,-322"/>
<text text-anchor="middle" x="351.5" y="-310" font-family="Helvetica,sans-Serif" font-size="10.00">DRV_DMA_getCoreBuffer</text>
</a>
</g>
</g>
<!-- Node14&#45;&gt;Node20 -->
<g id="edge24_Node000014_Node000020" class="edge">
<title>Node14&#45;&gt;Node20</title>
<g id="a_edge24_Node000014_Node000020"><a xlink:title=" ">
<path fill="none" stroke="#63b8ff" d="M217.97,-285.03C241.3,-289.86 269.84,-295.78 294.45,-300.88"/>
<polygon fill="#63b8ff" stroke="#63b8ff" points="293.88,-304.34 304.38,-302.94 295.3,-297.48 293.88,-304.34"/>
</a>
</g>
</g>
<!-- Node21 -->
<g id="Node000021" class="node">
<title>Node21</title>
<g id="a_Node000021"><a xlink:href="a00233.html#a5852ed0c8edfa25272ab834b747611ba" target="_top" xlink:title=" ">
<polygon fill="white" stroke="#666666" points="417,-285 286,-285 286,-266 417,-266 417,-285"/>
<text text-anchor="middle" x="351.5" y="-273" font-family="Helvetica,sans-Serif" font-size="10.00">DRV_DMA_getVinAverage</text>
</a>
</g>
</g>
<!-- Node14&#45;&gt;Node21 -->
<g id="edge25_Node000014_Node000021" class="edge">
<title>Node14&#45;&gt;Node21</title>
<g id="a_edge25_Node000014_Node000021"><a xlink:title=" ">
<path fill="none" stroke="#63b8ff" d="M228.97,-275.5C243.78,-275.5 259.97,-275.5 275.56,-275.5"/>
<polygon fill="#63b8ff" stroke="#63b8ff" points="275.69,-279 285.69,-275.5 275.69,-272 275.69,-279"/>
</a>
</g>
</g>
<!-- Node22 -->
<g id="Node000022" class="node">
<title>Node22</title>
<g id="a_Node000022"><a xlink:href="a00426.html#ga5fe2662b714b85fd1b430cf48528c656" target="_top" xlink:title="read copy of i2c_write object">
<polygon fill="white" stroke="#666666" points="618.5,-241 493.5,-241 493.5,-222 618.5,-222 618.5,-241"/>
<text text-anchor="middle" x="556" y="-229" font-family="Helvetica,sans-Serif" font-size="10.00">Drv_I2C_Get_Write_Data</text>
</a>
</g>
</g>
<!-- Node14&#45;&gt;Node22 -->
<g id="edge26_Node000014_Node000022" class="edge">
<title>Node14&#45;&gt;Node22</title>
<g id="a_edge26_Node000014_Node000022"><a xlink:title=" ">
<path fill="none" stroke="#63b8ff" d="M218.24,-265.91C233.98,-262.89 251.71,-259.76 268,-257.5 340.93,-247.38 424.85,-240.31 483.03,-236.12"/>
<polygon fill="#63b8ff" stroke="#63b8ff" points="483.5,-239.59 493.22,-235.39 483,-232.61 483.5,-239.59"/>
</a>
</g>
</g>
<!-- Node23 -->
<g id="Node000023" class="node">
<title>Node23</title>
<g id="a_Node000023"><a xlink:href="a00424.html#ga9547e1b813e407c1cedf72e3b4744ea0" target="_top" xlink:title="Update housekeeping flags related to PIC16s on SiC cards and PIC16 on main power board.">
<polygon fill="white" stroke="#666666" points="405,-209.5 298,-209.5 298,-179.5 405,-179.5 405,-209.5"/>
<text text-anchor="start" x="306" y="-197.5" font-family="Helvetica,sans-Serif" font-size="10.00">Housekeeping_Flags</text>
<text text-anchor="middle" x="351.5" y="-186.5" font-family="Helvetica,sans-Serif" font-size="10.00">_Update</text>
</a>
</g>
</g>
<!-- Node14&#45;&gt;Node23 -->
<g id="edge27_Node000014_Node000023" class="edge">
<title>Node14&#45;&gt;Node23</title>
<g id="a_edge27_Node000014_Node000023"><a xlink:title=" ">
<path fill="none" stroke="#63b8ff" d="M187.91,-265.87C206.64,-254.77 238.89,-236.4 268,-223.5 276.26,-219.84 285.13,-216.32 293.89,-213.06"/>
<polygon fill="#63b8ff" stroke="#63b8ff" points="295.11,-216.34 303.31,-209.64 292.72,-209.76 295.11,-216.34"/>
</a>
</g>
</g>
<!-- Node15&#45;&gt;Node4 -->
<g id="edge18_Node000015_Node000004" class="edge">
<title>Node15&#45;&gt;Node4</title>
<g id="a_edge18_Node000015_Node000004"><a xlink:title=" ">
<path fill="none" stroke="#63b8ff" d="M361.03,-364.13C376.67,-382.01 410.58,-421.88 435,-458.5 453.32,-485.97 444.47,-503.83 471,-523.5 477.64,-528.43 485.35,-532.06 493.35,-534.74"/>
<polygon fill="#63b8ff" stroke="#63b8ff" points="492.62,-538.17 503.2,-537.54 494.54,-531.44 492.62,-538.17"/>
</a>
</g>
</g>
<!-- Node15&#45;&gt;Node6 -->
<g id="edge17_Node000015_Node000006" class="edge">
<title>Node15&#45;&gt;Node6</title>
<g id="a_edge17_Node000015_Node000006"><a xlink:title=" ">
<path fill="none" stroke="#63b8ff" d="M367.88,-364.09C389.82,-377.21 431.8,-400.3 471,-410.5 538.74,-428.12 618.59,-431.98 675.82,-431.95"/>
<polygon fill="#63b8ff" stroke="#63b8ff" points="675.9,-435.45 685.88,-431.91 675.87,-428.45 675.9,-435.45"/>
</a>
</g>
</g>
<!-- Node16 -->
<g id="Node000016" class="node">
<title>Node16</title>
<g id="a_Node000016"><a xlink:href="a00405.html#ga0980f888cad241edaa859783bb4a89d7" target="_top" xlink:title="This function Read the message object from user input and update to the CAN1 TX FIFO.">
<polygon fill="white" stroke="#666666" points="624.5,-401 487.5,-401 487.5,-382 624.5,-382 624.5,-401"/>
<text text-anchor="middle" x="556" y="-389" font-family="Helvetica,sans-Serif" font-size="10.00">CAN1_MessageWriteToFifo</text>
</a>
</g>
</g>
<!-- Node15&#45;&gt;Node16 -->
<g id="edge19_Node000015_Node000016" class="edge">
<title>Node15&#45;&gt;Node16</title>
<g id="a_edge19_Node000015_Node000016"><a xlink:title=" ">
<path fill="none" stroke="#63b8ff" d="M394.46,-362.17C422.79,-367.34 460.68,-374.27 492.53,-380.09"/>
<polygon fill="#63b8ff" stroke="#63b8ff" points="492.18,-383.58 502.64,-381.93 493.44,-376.69 492.18,-383.58"/>
</a>
</g>
</g>
<!-- Node17 -->
<g id="Node000017" class="node">
<title>Node17</title>
<g id="a_Node000017"><a xlink:href="a00405.html#gaedd6e334545a38cd71fe86ff4f9e78c3" target="_top" xlink:title="Get the CAN1 operation mode.">
<polygon fill="white" stroke="#666666" points="620.5,-364 491.5,-364 491.5,-345 620.5,-345 620.5,-364"/>
<text text-anchor="middle" x="556" y="-352" font-family="Helvetica,sans-Serif" font-size="10.00">CAN1_OperationModeGet</text>
</a>
</g>
</g>
<!-- Node15&#45;&gt;Node17 -->
<g id="edge21_Node000015_Node000017" class="edge">
<title>Node15&#45;&gt;Node17</title>
<g id="a_edge21_Node000015_Node000017"><a xlink:title=" ">
<path fill="none" stroke="#63b8ff" d="M394.46,-354.5C419.43,-354.5 451.84,-354.5 480.99,-354.5"/>
<polygon fill="#63b8ff" stroke="#63b8ff" points="481.15,-358 491.15,-354.5 481.15,-351 481.15,-358"/>
</a>
</g>
</g>
<!-- Node18 -->
<g id="Node000018" class="node">
<title>Node18</title>
<g id="a_Node000018"><a xlink:href="a00405.html#ga1d293f033f5d27b360cf00d4644c63eb" target="_top" xlink:title="Returns the CAN1 transmitter FIFO status.">
<polygon fill="white" stroke="#666666" points="631.5,-327 480.5,-327 480.5,-308 631.5,-308 631.5,-327"/>
<text text-anchor="middle" x="556" y="-315" font-family="Helvetica,sans-Serif" font-size="10.00">CAN1_TransmitFIFOStatusGet</text>
</a>
</g>
</g>
<!-- Node15&#45;&gt;Node18 -->
<g id="edge22_Node000015_Node000018" class="edge">
<title>Node15&#45;&gt;Node18</title>
<g id="a_edge22_Node000015_Node000018"><a xlink:title=" ">
<path fill="none" stroke="#63b8ff" d="M394.46,-346.83C422.79,-341.66 460.68,-334.73 492.53,-328.91"/>
<polygon fill="#63b8ff" stroke="#63b8ff" points="493.44,-332.31 502.64,-327.07 492.18,-325.42 493.44,-332.31"/>
</a>
</g>
</g>
<!-- Node19 -->
<g id="Node000019" class="node">
<title>Node19</title>
<g id="a_Node000019"><a xlink:href="a00405.html#gaedb86f6e4e8ac0efba711d7f3d7b688c" target="_top" xlink:title="This function enables The FIFO transmit message send request bit.">
<polygon fill="white" stroke="#666666" points="632,-289.5 480,-289.5 480,-259.5 632,-259.5 632,-289.5"/>
<text text-anchor="start" x="488" y="-277.5" font-family="Helvetica,sans-Serif" font-size="10.00">CAN1_TX_FIFO_MessageSend</text>
<text text-anchor="middle" x="556" y="-266.5" font-family="Helvetica,sans-Serif" font-size="10.00">Request</text>
</a>
</g>
</g>
<!-- Node15&#45;&gt;Node19 -->
<g id="edge23_Node000015_Node000019" class="edge">
<title>Node15&#45;&gt;Node19</title>
<g id="a_edge23_Node000015_Node000019"><a xlink:title=" ">
<path fill="none" stroke="#63b8ff" d="M394.21,-346.79C407.73,-343.28 422.47,-338.33 435,-331.5 453.79,-321.25 452.3,-309.91 471,-299.5 474.92,-297.32 479.05,-295.31 483.29,-293.46"/>
<polygon fill="#63b8ff" stroke="#63b8ff" points="484.75,-296.64 492.72,-289.66 482.13,-290.15 484.75,-296.64"/>
</a>
</g>
</g>
<!-- Node16&#45;&gt;Node6 -->
<g id="edge20_Node000016_Node000006" class="edge">
<title>Node16&#45;&gt;Node6</title>
<g id="a_edge20_Node000016_Node000006"><a xlink:title=" ">
<path fill="none" stroke="#63b8ff" d="M605.96,-401.04C632.38,-406.19 665.19,-412.58 693.02,-418.01"/>
<polygon fill="#63b8ff" stroke="#63b8ff" points="692.54,-421.48 703.02,-419.96 693.88,-414.61 692.54,-421.48"/>
</a>
</g>
</g>
<!-- Node23&#45;&gt;Node22 -->
<g id="edge28_Node000023_Node000022" class="edge">
<title>Node23&#45;&gt;Node22</title>
<g id="a_edge28_Node000023_Node000022"><a xlink:title=" ">
<path fill="none" stroke="#63b8ff" d="M405.18,-204.12C432,-209.03 464.78,-215.02 492.84,-220.14"/>
<polygon fill="#63b8ff" stroke="#63b8ff" points="492.47,-223.63 502.94,-221.99 493.73,-216.75 492.47,-223.63"/>
</a>
</g>
</g>
<!-- Node24 -->
<g id="Node000024" class="node">
<title>Node24</title>
<g id="a_Node000024"><a xlink:href="a00427.html#gaf3fad6443af569b0da78810b219ebaaf" target="_top" xlink:title="retrieve the value of the flag &quot;selfSpi.checksum_ok&quot;">
<polygon fill="white" stroke="#666666" points="636,-204 476,-204 476,-185 636,-185 636,-204"/>
<text text-anchor="middle" x="556" y="-192" font-family="Helvetica,sans-Serif" font-size="10.00">Drv_SPI_get_ChecksumOK_Flag</text>
</a>
</g>
</g>
<!-- Node23&#45;&gt;Node24 -->
<g id="edge29_Node000023_Node000024" class="edge">
<title>Node23&#45;&gt;Node24</title>
<g id="a_edge29_Node000023_Node000024"><a xlink:title=" ">
<path fill="none" stroke="#63b8ff" d="M405.18,-194.5C423.71,-194.5 445.08,-194.5 465.78,-194.5"/>
<polygon fill="#63b8ff" stroke="#63b8ff" points="465.87,-198 475.87,-194.5 465.87,-191 465.87,-198"/>
</a>
</g>
</g>
<!-- Node25 -->
<g id="Node000025" class="node">
<title>Node25</title>
<g id="a_Node000025"><a xlink:href="a00427.html#ga0c28951a0ab80e65e5bd85682bf5920a" target="_top" xlink:title="retrieve the value of the flag &quot;selfSpi.connected&quot;">
<polygon fill="white" stroke="#666666" points="629,-167 483,-167 483,-148 629,-148 629,-167"/>
<text text-anchor="middle" x="556" y="-155" font-family="Helvetica,sans-Serif" font-size="10.00">Drv_SPI_get_Connected_Flag</text>
</a>
</g>
</g>
<!-- Node23&#45;&gt;Node25 -->
<g id="edge30_Node000023_Node000025" class="edge">
<title>Node23&#45;&gt;Node25</title>
<g id="a_edge30_Node000023_Node000025"><a xlink:title=" ">
<path fill="none" stroke="#63b8ff" d="M405.18,-184.88C432,-179.97 464.78,-173.98 492.84,-168.86"/>
<polygon fill="#63b8ff" stroke="#63b8ff" points="493.73,-172.25 502.94,-167.01 492.47,-165.37 493.73,-172.25"/>
</a>
</g>
</g>
<!-- Node27 -->
<g id="Node000027" class="node">
<title>Node27</title>
<g id="a_Node000027"><a xlink:href="a00427.html#ga145f1f1255a7289b74ff5907798d21fa" target="_top" xlink:title="synchronize to SPI bus">
<polygon fill="white" stroke="#666666" points="397.5,-93 305.5,-93 305.5,-74 397.5,-74 397.5,-93"/>
<text text-anchor="middle" x="351.5" y="-81" font-family="Helvetica,sans-Serif" font-size="10.00">SPI_Synchronize</text>
</a>
</g>
</g>
<!-- Node26&#45;&gt;Node27 -->
<g id="edge32_Node000026_Node000027" class="edge">
<title>Node26&#45;&gt;Node27</title>
<g id="a_edge32_Node000026_Node000027"><a xlink:title=" ">
<path fill="none" stroke="#63b8ff" d="M193.89,-151.94C225.29,-138.21 283.28,-112.87 319.21,-97.17"/>
<polygon fill="#63b8ff" stroke="#63b8ff" points="320.95,-100.23 328.71,-93.02 318.15,-93.82 320.95,-100.23"/>
</a>
</g>
</g>
<!-- Node28 -->
<g id="Node000028" class="node">
<title>Node28</title>
<g id="a_Node000028"><a xlink:href="a00418.html#gab59dab7bbec7ad0589d0fa8f57769a94" target="_top" xlink:title="This inline function disables the DMA channel.">
<polygon fill="white" stroke="#666666" points="611.5,-130 500.5,-130 500.5,-111 611.5,-111 611.5,-130"/>
<text text-anchor="middle" x="556" y="-118" font-family="Helvetica,sans-Serif" font-size="10.00">DMA_ChannelDisable</text>
</a>
</g>
</g>
<!-- Node27&#45;&gt;Node28 -->
<g id="edge33_Node000027_Node000028" class="edge">
<title>Node27&#45;&gt;Node28</title>
<g id="a_edge33_Node000027_Node000028"><a xlink:title=" ">
<path fill="none" stroke="#63b8ff" d="M397.69,-91.76C425.65,-96.87 461.95,-103.5 492.62,-109.1"/>
<polygon fill="#63b8ff" stroke="#63b8ff" points="492.33,-112.61 502.79,-110.96 493.58,-105.72 492.33,-112.61"/>
</a>
</g>
</g>
<!-- Node29 -->
<g id="Node000029" class="node">
<title>Node29</title>
<g id="a_Node000029"><a xlink:href="a00418.html#gad10f447e17425a18eac1b5186e2e8699" target="_top" xlink:title="This inline function enables the DMA channel.">
<polygon fill="white" stroke="#666666" points="610.5,-93 501.5,-93 501.5,-74 610.5,-74 610.5,-93"/>
<text text-anchor="middle" x="556" y="-81" font-family="Helvetica,sans-Serif" font-size="10.00">DMA_ChannelEnable</text>
</a>
</g>
</g>
<!-- Node27&#45;&gt;Node29 -->
<g id="edge34_Node000027_Node000029" class="edge">
<title>Node27&#45;&gt;Node29</title>
<g id="a_edge34_Node000027_Node000029"><a xlink:title=" ">
<path fill="none" stroke="#63b8ff" d="M397.69,-83.5C425.24,-83.5 460.86,-83.5 491.24,-83.5"/>
<polygon fill="#63b8ff" stroke="#63b8ff" points="491.32,-87 501.32,-83.5 491.32,-80 491.32,-87"/>
</a>
</g>
</g>
<!-- Node30 -->
<g id="Node000030" class="node">
<title>Node30</title>
<g id="a_Node000030"><a xlink:href="a00418.html#ga3950883876bea54b441aaf14ff17d47e" target="_top" xlink:title="Initializes the DMA module.">
<polygon fill="white" stroke="#666666" points="595.5,-56 516.5,-56 516.5,-37 595.5,-37 595.5,-56"/>
<text text-anchor="middle" x="556" y="-44" font-family="Helvetica,sans-Serif" font-size="10.00">DMA_Initialize</text>
</a>
</g>
</g>
<!-- Node27&#45;&gt;Node30 -->
<g id="edge35_Node000027_Node000030" class="edge">
<title>Node27&#45;&gt;Node30</title>
<g id="a_edge35_Node000027_Node000030"><a xlink:title=" ">
<path fill="none" stroke="#63b8ff" d="M397.69,-75.24C430.02,-69.34 473.47,-61.4 506.52,-55.36"/>
<polygon fill="#63b8ff" stroke="#63b8ff" points="507.21,-58.79 516.42,-53.55 505.95,-51.9 507.21,-58.79"/>
</a>
</g>
</g>
<!-- Node33 -->
<g id="Node000033" class="node">
<title>Node33</title>
<g id="a_Node000033"><a xlink:href="a00419.html#ga0607cad7a6b302950091fea719146a54" target="_top" xlink:title="Initializes SPI1 module, using the given initialization data. This function must be called before any...">
<polygon fill="white" stroke="#666666" points="595,-19 517,-19 517,0 595,0 595,-19"/>
<text text-anchor="middle" x="556" y="-7" font-family="Helvetica,sans-Serif" font-size="10.00">SPI1_Initialize</text>
</a>
</g>
</g>
<!-- Node27&#45;&gt;Node33 -->
<g id="edge38_Node000027_Node000033" class="edge">
<title>Node27&#45;&gt;Node33</title>
<g id="a_edge38_Node000027_Node000033"><a xlink:title=" ">
<path fill="none" stroke="#63b8ff" d="M370.08,-73.9C392.8,-61.83 433.86,-41.16 471,-28.5 482.5,-24.58 495.16,-21.24 507.09,-18.49"/>
<polygon fill="#63b8ff" stroke="#63b8ff" points="507.88,-21.9 516.89,-16.33 506.37,-15.07 507.88,-21.9"/>
</a>
</g>
</g>
<!-- Node31 -->
<g id="Node000031" class="node">
<title>Node31</title>
<g id="a_Node000031"><a xlink:href="a00418.html#ga9f16d166d637fd9005839b1e1822dc63" target="_top" xlink:title="This is the default callback with weak attribute. The user can override and implement the default cal...">
<polygon fill="white" stroke="#666666" points="811,-75 695,-75 695,-56 811,-56 811,-75"/>
<text text-anchor="middle" x="753" y="-63" font-family="Helvetica,sans-Serif" font-size="10.00">DMA_ChannelCallback</text>
</a>
</g>
</g>
<!-- Node30&#45;&gt;Node31 -->
<g id="edge36_Node000030_Node000031" class="edge">
<title>Node30&#45;&gt;Node31</title>
<g id="a_edge36_Node000030_Node000031"><a xlink:title=" ">
<path fill="none" stroke="#63b8ff" d="M595.53,-50.25C620.84,-52.72 654.66,-56.02 684.38,-58.91"/>
<polygon fill="#63b8ff" stroke="#63b8ff" points="684.41,-62.43 694.7,-59.92 685.08,-55.46 684.41,-62.43"/>
</a>
</g>
</g>
<!-- Node32 -->
<g id="Node000032" class="node">
<title>Node32</title>
<g id="a_Node000032"><a xlink:href="a00418.html#gab9190941904dd0add59b63f1e774fb2c" target="_top" xlink:title="This function can be used to override default callback and to define custom callback for DMA Channel ...">
<polygon fill="white" stroke="#666666" points="829,-38 677,-38 677,-19 829,-19 829,-38"/>
<text text-anchor="middle" x="753" y="-26" font-family="Helvetica,sans-Serif" font-size="10.00">DMA_ChannelCallbackRegister</text>
</a>
</g>
</g>
<!-- Node30&#45;&gt;Node32 -->
<g id="edge37_Node000030_Node000032" class="edge">
<title>Node30&#45;&gt;Node32</title>
<g id="a_edge37_Node000030_Node000032"><a xlink:title=" ">
<path fill="none" stroke="#63b8ff" d="M595.53,-42.94C615.91,-41.06 641.81,-38.67 666.65,-36.38"/>
<polygon fill="#63b8ff" stroke="#63b8ff" points="667.2,-39.84 676.83,-35.44 666.55,-32.87 667.2,-39.84"/>
</a>
</g>
</g>
</g>
</svg>
