<?xml version="1.0" encoding="UTF-8" standalone="no"?>
<!DOCTYPE svg PUBLIC "-//W3C//DTD SVG 1.1//EN"
 "http://www.w3.org/Graphics/SVG/1.1/DTD/svg11.dtd">
<!-- Generated by graphviz version 2.44.1 (20200629.0846)
 -->
<!-- Title: CAN1_Receive Pages: 1 -->
<svg width="461pt" height="187pt"
 viewBox="0.00 0.00 461.00 187.00" xmlns="http://www.w3.org/2000/svg" xmlns:xlink="http://www.w3.org/1999/xlink">

<svg id="main" version="1.1" xmlns="http://www.w3.org/2000/svg" xmlns:xlink="http://www.w3.org/1999/xlink" xml:space="preserve">

<style type="text/css"><![CDATA[
.node, .edge {opacity: 0.7;}
.node.selected, .edge.selected {opacity: 1;}
.edge:hover path { stroke: red; }
.edge:hover polygon { stroke: red; fill: red; }
]]></style>
<script type="application/ecmascript" xlink:href="svg.min.js"/>
<svg id="graph" class="graph">
<g id="graph0" class="graph" transform="scale(1 1) rotate(0) translate(4 183)">
<title>CAN1_Receive</title>
<!-- Node1 -->
<g id="Node000001" class="node">
<title>Node1</title>
<g id="a_Node000001"><a xlink:title="Reads the received single message object.">
<polygon fill="#999999" stroke="#666666" points="81,-105 0,-105 0,-86 81,-86 81,-105"/>
<text text-anchor="middle" x="40.5" y="-93" font-family="Helvetica,sans-Serif" font-size="10.00">CAN1_Receive</text>
</a>
</g>
</g>
<!-- Node2 -->
<g id="Node000002" class="node">
<title>Node2</title>
<g id="a_Node000002"><a xlink:href="a00405.html#ga57b30800d7bd3b3c936f578ca1fd7e32" target="_top" xlink:title="This function get the FIFO user address, message depth and payload size information.">
<polygon fill="white" stroke="#666666" points="252.5,-179 147.5,-179 147.5,-160 252.5,-160 252.5,-179"/>
<text text-anchor="middle" x="200" y="-167" font-family="Helvetica,sans-Serif" font-size="10.00">CAN1_FIFO_InfoGet</text>
</a>
</g>
</g>
<!-- Node1&#45;&gt;Node2 -->
<g id="edge1_Node000001_Node000002" class="edge">
<title>Node1&#45;&gt;Node2</title>
<g id="a_edge1_Node000001_Node000002"><a xlink:title=" ">
<path fill="none" stroke="#63b8ff" d="M51.35,-105C64.98,-117.59 90.86,-139.6 117,-151.5 123.33,-154.38 130.15,-156.81 137.05,-158.86"/>
<polygon fill="#63b8ff" stroke="#63b8ff" points="136.61,-162.37 147.18,-161.6 138.44,-155.61 136.61,-162.37"/>
</a>
</g>
</g>
<!-- Node3 -->
<g id="Node000003" class="node">
<title>Node3</title>
<g id="a_Node000003"><a xlink:href="a00405.html#gaa89329ca22f234476d55536c446b70e3" target="_top" xlink:title="This function read the message object from receive FIFO and update to the user &#160;&#160;message object point...">
<polygon fill="white" stroke="#666666" points="274,-142 126,-142 126,-123 274,-123 274,-142"/>
<text text-anchor="middle" x="200" y="-130" font-family="Helvetica,sans-Serif" font-size="10.00">CAN1_MessageReadFromFifo</text>
</a>
</g>
</g>
<!-- Node1&#45;&gt;Node3 -->
<g id="edge2_Node000001_Node000003" class="edge">
<title>Node1&#45;&gt;Node3</title>
<g id="a_edge2_Node000001_Node000003"><a xlink:title=" ">
<path fill="none" stroke="#63b8ff" d="M78.31,-105C90.6,-108.11 104.37,-111.53 117,-114.5 125.86,-116.59 135.27,-118.72 144.44,-120.77"/>
<polygon fill="#63b8ff" stroke="#63b8ff" points="143.74,-124.2 154.26,-122.94 145.25,-117.36 143.74,-124.2"/>
</a>
</g>
</g>
<!-- Node5 -->
<g id="Node000005" class="node">
<title>Node5</title>
<g id="a_Node000005"><a xlink:href="a00405.html#ga0dab5f41a5a5ef032d23c2ba4890a866" target="_top" xlink:title="This function Update the receive FIFO message increment tail position.">
<polygon fill="white" stroke="#666666" points="283,-105 117,-105 117,-86 283,-86 283,-105"/>
<text text-anchor="middle" x="200" y="-93" font-family="Helvetica,sans-Serif" font-size="10.00">CAN1_RX_FIFO_IncrementMsgPtr</text>
</a>
</g>
</g>
<!-- Node1&#45;&gt;Node5 -->
<g id="edge4_Node000001_Node000005" class="edge">
<title>Node1&#45;&gt;Node5</title>
<g id="a_edge4_Node000001_Node000005"><a xlink:title=" ">
<path fill="none" stroke="#63b8ff" d="M81.24,-95.5C89.19,-95.5 97.84,-95.5 106.73,-95.5"/>
<polygon fill="#63b8ff" stroke="#63b8ff" points="106.85,-99 116.85,-95.5 106.85,-92 106.85,-99"/>
</a>
</g>
</g>
<!-- Node6 -->
<g id="Node000006" class="node">
<title>Node6</title>
<g id="a_Node000006"><a xlink:href="a00405.html#ga224fbf549503a57f5818cc8391105b8f" target="_top" xlink:title="This function is used to clear the CAN1 receive FIFO overflow status bit.">
<polygon fill="white" stroke="#666666" points="278,-67.5 122,-67.5 122,-37.5 278,-37.5 278,-67.5"/>
<text text-anchor="start" x="130" y="-55.5" font-family="Helvetica,sans-Serif" font-size="10.00">CAN1_RX_FIFO_OverflowStatus</text>
<text text-anchor="middle" x="200" y="-44.5" font-family="Helvetica,sans-Serif" font-size="10.00">FlagClear</text>
</a>
</g>
</g>
<!-- Node1&#45;&gt;Node6 -->
<g id="edge5_Node000001_Node000006" class="edge">
<title>Node1&#45;&gt;Node6</title>
<g id="a_edge5_Node000001_Node000006"><a xlink:title=" ">
<path fill="none" stroke="#63b8ff" d="M76.45,-85.96C93.43,-81.32 114.39,-75.6 134.15,-70.21"/>
<polygon fill="#63b8ff" stroke="#63b8ff" points="135.31,-73.52 144.04,-67.51 133.47,-66.76 135.31,-73.52"/>
</a>
</g>
</g>
<!-- Node7 -->
<g id="Node000007" class="node">
<title>Node7</title>
<g id="a_Node000007"><a xlink:href="a00405.html#ga4a6437adcdf1917fffef4e7e5761fda1" target="_top" xlink:title="This returns the CAN1 receive FIFO status.">
<polygon fill="white" stroke="#666666" points="268,-19 132,-19 132,0 268,0 268,-19"/>
<text text-anchor="middle" x="200" y="-7" font-family="Helvetica,sans-Serif" font-size="10.00">CAN1_RX_FIFO_StatusGet</text>
</a>
</g>
</g>
<!-- Node1&#45;&gt;Node7 -->
<g id="edge6_Node000001_Node000007" class="edge">
<title>Node1&#45;&gt;Node7</title>
<g id="a_edge6_Node000001_Node000007"><a xlink:title=" ">
<path fill="none" stroke="#63b8ff" d="M49.67,-85.61C62.46,-70.83 88.66,-43.14 117,-28.5 121.59,-26.13 126.47,-24.05 131.49,-22.23"/>
<polygon fill="#63b8ff" stroke="#63b8ff" points="132.82,-25.48 141.23,-19.04 130.64,-18.82 132.82,-25.48"/>
</a>
</g>
</g>
<!-- Node4 -->
<g id="Node000004" class="node">
<title>Node4</title>
<g id="a_Node000004"><a xlink:href="a00405.html#ga61d156b0e75424f9b630cef5c424ac13" target="_top" xlink:title="This function get the DLC enum based decimal value.">
<polygon fill="white" stroke="#666666" points="453,-142 319,-142 319,-123 453,-123 453,-142"/>
<text text-anchor="middle" x="386" y="-130" font-family="Helvetica,sans-Serif" font-size="10.00">CAN1_DlcToDataBytesGet</text>
</a>
</g>
</g>
<!-- Node3&#45;&gt;Node4 -->
<g id="edge3_Node000003_Node000004" class="edge">
<title>Node3&#45;&gt;Node4</title>
<g id="a_edge3_Node000003_Node000004"><a xlink:title=" ">
<path fill="none" stroke="#63b8ff" d="M274.25,-132.5C285.53,-132.5 297.2,-132.5 308.55,-132.5"/>
<polygon fill="#63b8ff" stroke="#63b8ff" points="308.86,-136 318.86,-132.5 308.86,-129 308.86,-136"/>
</a>
</g>
</g>
</g>
</svg>
</svg>

<style type='text/css'>
<![CDATA[
[data-mouse-over-selected='false'] { opacity: 0.7; }
[data-mouse-over-selected='true']  { opacity: 1.0; }
]]>
</style>
<script type="application/ecmascript"><![CDATA[
document.addEventListener('DOMContentLoaded', (event) => {
  highlightEdges();
  highlightAdjacentNodes();
});
]]></script>
</svg>
