<?xml version="1.0" encoding="UTF-8" standalone="no"?>
<!DOCTYPE svg PUBLIC "-//W3C//DTD SVG 1.1//EN"
 "http://www.w3.org/Graphics/SVG/1.1/DTD/svg11.dtd">
<!-- Generated by graphviz version 8.1.0 (20230707.0739)
 -->
<!-- Title: PWM_OverrideLowEnable Pages: 1 -->
<svg width="745pt" height="255pt"
 viewBox="0.00 0.00 745.00 254.96" xmlns="http://www.w3.org/2000/svg" xmlns:xlink="http://www.w3.org/1999/xlink">
<g id="graph0" class="graph" transform="scale(1 1) rotate(0) translate(4 250.96)">
<title>PWM_OverrideLowEnable</title>
<!-- Node1 -->
<g id="Node000001" class="node">
<title>Node1</title>
<g id="a_Node000001"><a xlink:title="This inline function enables PWM override on PWML output for specific PWM generator selected by the a...">
<polygon fill="#999999" stroke="#666666" points="737,-123.12 608.5,-123.12 608.5,-103.12 737,-103.12 737,-123.12"/>
<text text-anchor="middle" x="672.75" y="-109.62" font-family="Helvetica,sans-Serif" font-size="10.00">PWM_OverrideLowEnable</text>
</a>
</g>
</g>
<!-- Node2 -->
<g id="Node000002" class="node">
<title>Node2</title>
<g id="a_Node000002"><a xlink:href="a00365.html#a51a90512029dd0d15f013ea8548c5e7c" target="_top" xlink:title=" ">
<polygon fill="white" stroke="#666666" points="561.62,-41.12 474.38,-41.12 474.38,-21.12 561.62,-21.12 561.62,-41.12"/>
<text text-anchor="middle" x="518" y="-27.62" font-family="Helvetica,sans-Serif" font-size="10.00">BurstMode_PHx</text>
</a>
</g>
</g>
<!-- Node1&#45;&gt;Node2 -->
<g id="edge1_Node000001_Node000002" class="edge">
<title>Node1&#45;&gt;Node2</title>
<g id="a_edge1_Node000001_Node000002"><a xlink:title=" ">
<path fill="none" stroke="#63b8ff" d="M648.76,-96.43C629.18,-82.74 599.93,-63.49 572.5,-50.12 566.03,-46.97 558.9,-44.07 552.01,-41.54"/>
<polygon fill="#63b8ff" stroke="#63b8ff" points="646.37,-99.74 656.55,-102.66 650.42,-94.02 646.37,-99.74"/>
</a>
</g>
</g>
<!-- Node8 -->
<g id="Node000008" class="node">
<title>Node8</title>
<g id="a_Node000008"><a xlink:href="a00365.html#a69847930c99b34bceb7165143cd28b92" target="_top" xlink:title=" ">
<polygon fill="white" stroke="#666666" points="548.88,-217.12 487.12,-217.12 487.12,-197.12 548.88,-197.12 548.88,-217.12"/>
<text text-anchor="middle" x="518" y="-203.62" font-family="Helvetica,sans-Serif" font-size="10.00">CCM_PHx</text>
</a>
</g>
</g>
<!-- Node1&#45;&gt;Node8 -->
<g id="edge7_Node000001_Node000008" class="edge">
<title>Node1&#45;&gt;Node8</title>
<g id="a_edge7_Node000001_Node000008"><a xlink:title=" ">
<path fill="none" stroke="#63b8ff" d="M652.45,-130.57C633.3,-147.17 602.54,-171.94 572.5,-188.12 565.21,-192.05 556.95,-195.45 549.13,-198.24"/>
<polygon fill="#63b8ff" stroke="#63b8ff" points="654.44,-133.61 659.63,-124.37 649.81,-128.35 654.44,-133.61"/>
</a>
</g>
</g>
<!-- Node9 -->
<g id="Node000009" class="node">
<title>Node9</title>
<g id="a_Node000009"><a xlink:href="a00359.html#a315b78111431dff7a91b13e42f9133b1" target="_top" xlink:title=" ">
<polygon fill="white" stroke="#666666" points="272,-180.12 131.5,-180.12 131.5,-160.12 272,-160.12 272,-180.12"/>
<text text-anchor="middle" x="201.75" y="-166.62" font-family="Helvetica,sans-Serif" font-size="10.00">Drv_PwrCtrl_TPBLPFC_Stop</text>
</a>
</g>
</g>
<!-- Node1&#45;&gt;Node9 -->
<g id="edge9_Node000001_Node000009" class="edge">
<title>Node1&#45;&gt;Node9</title>
<g id="a_edge9_Node000001_Node000009"><a xlink:title=" ">
<path fill="none" stroke="#63b8ff" d="M661.37,-133.12C646.09,-160.11 614.71,-207.02 572.5,-226.12 448.59,-282.21 279.86,-209 222.65,-180.55"/>
<polygon fill="#63b8ff" stroke="#63b8ff" points="664.88,-134.99 666.6,-124.53 658.74,-131.64 664.88,-134.99"/>
</a>
</g>
</g>
<!-- Node10 -->
<g id="Node000010" class="node">
<title>Node10</title>
<g id="a_Node000010"><a xlink:href="a00365.html#ad3476b7cd98e6a22a65e1d89b7a59ea5" target="_top" xlink:title=" ">
<polygon fill="white" stroke="#666666" points="572.5,-179.12 463.5,-179.12 463.5,-147.12 572.5,-147.12 572.5,-179.12"/>
<text text-anchor="start" x="471.5" y="-165.62" font-family="Helvetica,sans-Serif" font-size="10.00">SoftstartAfterZC_PHx</text>
<text text-anchor="middle" x="518" y="-153.62" font-family="Helvetica,sans-Serif" font-size="10.00">_GTIMode</text>
</a>
</g>
</g>
<!-- Node1&#45;&gt;Node10 -->
<g id="edge12_Node000001_Node000010" class="edge">
<title>Node1&#45;&gt;Node10</title>
<g id="a_edge12_Node000001_Node000010"><a xlink:title=" ">
<path fill="none" stroke="#63b8ff" d="M629.48,-126.96C610.84,-133.06 588.8,-140.28 569.32,-146.65"/>
<polygon fill="#63b8ff" stroke="#63b8ff" points="630.31,-130.04 638.73,-123.61 628.14,-123.39 630.31,-130.04"/>
</a>
</g>
</g>
<!-- Node11 -->
<g id="Node000011" class="node">
<title>Node11</title>
<g id="a_Node000011"><a xlink:href="a00365.html#a3e7091905b384bca668f6f12a50834f4" target="_top" xlink:title=" ">
<polygon fill="white" stroke="#666666" points="572.5,-129.12 463.5,-129.12 463.5,-97.12 572.5,-97.12 572.5,-129.12"/>
<text text-anchor="start" x="471.5" y="-115.62" font-family="Helvetica,sans-Serif" font-size="10.00">SoftstartAfterZC_PHx</text>
<text text-anchor="middle" x="518" y="-103.62" font-family="Helvetica,sans-Serif" font-size="10.00">_PFCMode</text>
</a>
</g>
</g>
<!-- Node1&#45;&gt;Node11 -->
<g id="edge14_Node000001_Node000011" class="edge">
<title>Node1&#45;&gt;Node11</title>
<g id="a_edge14_Node000001_Node000011"><a xlink:title=" ">
<path fill="none" stroke="#63b8ff" d="M597.42,-113.12C589.11,-113.12 580.77,-113.12 572.79,-113.12"/>
<polygon fill="#63b8ff" stroke="#63b8ff" points="597.3,-116.62 607.3,-113.12 597.3,-109.62 597.3,-116.62"/>
</a>
</g>
</g>
<!-- Node12 -->
<g id="Node000012" class="node">
<title>Node12</title>
<g id="a_Node000012"><a xlink:href="a00365.html#a3c1c3278a759d0a53b473f7ee8786d12" target="_top" xlink:title=" ">
<polygon fill="white" stroke="#666666" points="427.5,-44.12 308,-44.12 308,-24.12 427.5,-24.12 427.5,-44.12"/>
<text text-anchor="middle" x="367.75" y="-30.62" font-family="Helvetica,sans-Serif" font-size="10.00">VOUT_HystereticCheck</text>
</a>
</g>
</g>
<!-- Node1&#45;&gt;Node12 -->
<g id="edge16_Node000001_Node000012" class="edge">
<title>Node1&#45;&gt;Node12</title>
<g id="a_edge16_Node000001_Node000012"><a xlink:title=" ">
<path fill="none" stroke="#63b8ff" d="M659.87,-93.78C643.63,-69.39 611.95,-28.67 572.5,-12.12 512.46,13.05 434.14,-9.01 394.36,-23.64"/>
<polygon fill="#63b8ff" stroke="#63b8ff" points="657.33,-95.3 665.69,-101.82 663.22,-91.52 657.33,-95.3"/>
</a>
</g>
</g>
<!-- Node13 -->
<g id="Node000013" class="node">
<title>Node13</title>
<g id="a_Node000013"><a xlink:href="a00365.html#a9d01eea56aae5f1437eb541a321277cc" target="_top" xlink:title=" ">
<polygon fill="white" stroke="#666666" points="560.12,-79.12 475.88,-79.12 475.88,-59.12 560.12,-59.12 560.12,-79.12"/>
<text text-anchor="middle" x="518" y="-65.62" font-family="Helvetica,sans-Serif" font-size="10.00">ZeroCross_PHx</text>
</a>
</g>
</g>
<!-- Node1&#45;&gt;Node13 -->
<g id="edge18_Node000001_Node000013" class="edge">
<title>Node1&#45;&gt;Node13</title>
<g id="a_edge18_Node000001_Node000013"><a xlink:title=" ">
<path fill="none" stroke="#63b8ff" d="M625.21,-99.72C602.73,-93.24 576.15,-85.59 555.2,-79.55"/>
<polygon fill="#63b8ff" stroke="#63b8ff" points="623.97,-103.29 634.55,-102.7 625.91,-96.57 623.97,-103.29"/>
</a>
</g>
</g>
<!-- Node3 -->
<g id="Node000003" class="node">
<title>Node3</title>
<g id="a_Node000003"><a xlink:href="a00365.html#a647fd6dacbfbcebe49cc34111a01493b" target="_top" xlink:title=" ">
<polygon fill="white" stroke="#666666" points="404.25,-123.12 331.25,-123.12 331.25,-103.12 404.25,-103.12 404.25,-123.12"/>
<text text-anchor="middle" x="367.75" y="-109.62" font-family="Helvetica,sans-Serif" font-size="10.00">Handler_PHx</text>
</a>
</g>
</g>
<!-- Node2&#45;&gt;Node3 -->
<g id="edge2_Node000002_Node000003" class="edge">
<title>Node2&#45;&gt;Node3</title>
<g id="a_edge2_Node000002_Node000003"><a xlink:title=" ">
<path fill="none" stroke="#63b8ff" d="M473.73,-45.45C470.22,-46.92 466.77,-48.49 463.5,-50.12 432.59,-65.6 399.66,-89.36 381.92,-102.84"/>
<polygon fill="#63b8ff" stroke="#63b8ff" points="474.63,-48.46 482.65,-41.54 472.06,-41.95 474.63,-48.46"/>
</a>
</g>
</g>
<!-- Node4 -->
<g id="Node000004" class="node">
<title>Node4</title>
<g id="a_Node000004"><a xlink:href="a00365.html#aa7b8e2dc355948aa24cf22ca82f9e805" target="_top" xlink:title=" ">
<polygon fill="white" stroke="#666666" points="264.12,-104.12 139.38,-104.12 139.38,-84.12 264.12,-84.12 264.12,-104.12"/>
<text text-anchor="middle" x="201.75" y="-90.62" font-family="Helvetica,sans-Serif" font-size="10.00">Application_handler_PH1</text>
</a>
</g>
</g>
<!-- Node3&#45;&gt;Node4 -->
<g id="edge3_Node000003_Node000004" class="edge">
<title>Node3&#45;&gt;Node4</title>
<g id="a_edge3_Node000003_Node000004"><a xlink:title=" ">
<path fill="none" stroke="#63b8ff" d="M319.84,-107.69C302.59,-105.69 282.8,-103.4 264.45,-101.27"/>
<polygon fill="#63b8ff" stroke="#63b8ff" points="319.42,-111.28 329.76,-108.96 320.23,-104.33 319.42,-111.28"/>
</a>
</g>
</g>
<!-- Node6 -->
<g id="Node000006" class="node">
<title>Node6</title>
<g id="a_Node000006"><a xlink:href="a00365.html#a87fa9190951df7c866d828b8ad7b526b" target="_top" xlink:title=" ">
<polygon fill="white" stroke="#666666" points="264.12,-142.12 139.38,-142.12 139.38,-122.12 264.12,-122.12 264.12,-142.12"/>
<text text-anchor="middle" x="201.75" y="-128.62" font-family="Helvetica,sans-Serif" font-size="10.00">Application_handler_PH2</text>
</a>
</g>
</g>
<!-- Node3&#45;&gt;Node6 -->
<g id="edge5_Node000003_Node000006" class="edge">
<title>Node3&#45;&gt;Node6</title>
<g id="a_edge5_Node000003_Node000006"><a xlink:title=" ">
<path fill="none" stroke="#63b8ff" d="M319.84,-118.56C302.59,-120.56 282.8,-122.85 264.45,-124.98"/>
<polygon fill="#63b8ff" stroke="#63b8ff" points="320.23,-121.92 329.76,-117.29 319.42,-114.97 320.23,-121.92"/>
</a>
</g>
</g>
<!-- Node5 -->
<g id="Node000005" class="node">
<title>Node5</title>
<g id="a_Node000005"><a xlink:href="a00341.html#a968747854ba14331aa9f85784178d0da" target="_top" xlink:title=" ">
<polygon fill="white" stroke="#666666" points="95.5,-123.12 0,-123.12 0,-103.12 95.5,-103.12 95.5,-123.12"/>
<text text-anchor="middle" x="47.75" y="-109.62" font-family="Helvetica,sans-Serif" font-size="10.00">_ADCAN0Interrupt</text>
</a>
</g>
</g>
<!-- Node4&#45;&gt;Node5 -->
<g id="edge4_Node000004_Node000005" class="edge">
<title>Node4&#45;&gt;Node5</title>
<g id="a_edge4_Node000004_Node000005"><a xlink:title=" ">
<path fill="none" stroke="#63b8ff" d="M128.32,-103.18C117.2,-104.57 105.97,-105.97 95.6,-107.27"/>
<polygon fill="#63b8ff" stroke="#63b8ff" points="128.44,-106.57 137.93,-101.85 127.57,-99.62 128.44,-106.57"/>
</a>
</g>
</g>
<!-- Node7 -->
<g id="Node000007" class="node">
<title>Node7</title>
<g id="a_Node000007"><a xlink:href="a00341.html#a6ac2591aa2e32874156ad3f8bf477d2f" target="_top" xlink:title=" ">
<polygon fill="white" stroke="#666666" points="95.5,-170.12 0,-170.12 0,-150.12 95.5,-150.12 95.5,-170.12"/>
<text text-anchor="middle" x="47.75" y="-156.62" font-family="Helvetica,sans-Serif" font-size="10.00">_ADCAN1Interrupt</text>
</a>
</g>
</g>
<!-- Node6&#45;&gt;Node7 -->
<g id="edge6_Node000006_Node000007" class="edge">
<title>Node6&#45;&gt;Node7</title>
<g id="a_edge6_Node000006_Node000007"><a xlink:title=" ">
<path fill="none" stroke="#63b8ff" d="M133.6,-144.5C120.9,-146.83 107.87,-149.23 95.95,-151.43"/>
<polygon fill="#63b8ff" stroke="#63b8ff" points="133.95,-147.8 143.15,-142.55 132.68,-140.92 133.95,-147.8"/>
</a>
</g>
</g>
<!-- Node8&#45;&gt;Node3 -->
<g id="edge8_Node000008_Node000003" class="edge">
<title>Node8&#45;&gt;Node3</title>
<g id="a_edge8_Node000008_Node000003"><a xlink:title=" ">
<path fill="none" stroke="#63b8ff" d="M476.79,-194.48C472.21,-192.56 467.69,-190.44 463.5,-188.12 429.91,-169.54 395.92,-139.2 379.27,-123.41"/>
<polygon fill="#63b8ff" stroke="#63b8ff" points="475.22,-198.01 485.81,-198.35 477.74,-191.48 475.22,-198.01"/>
</a>
</g>
</g>
<!-- Node9&#45;&gt;Node5 -->
<g id="edge10_Node000009_Node000005" class="edge">
<title>Node9&#45;&gt;Node5</title>
<g id="a_edge10_Node000009_Node000005"><a xlink:title=" ">
<path fill="none" stroke="#63b8ff" d="M148.14,-156.66C142.48,-154.93 136.84,-153.07 131.5,-151.12 109.66,-143.18 85.62,-131.83 69.1,-123.6"/>
<polygon fill="#63b8ff" stroke="#63b8ff" points="146.71,-160.18 157.29,-159.65 148.69,-153.47 146.71,-160.18"/>
</a>
</g>
</g>
<!-- Node9&#45;&gt;Node7 -->
<g id="edge11_Node000009_Node000007" class="edge">
<title>Node9&#45;&gt;Node7</title>
<g id="a_edge11_Node000009_Node000007"><a xlink:title=" ">
<path fill="none" stroke="#63b8ff" d="M120.66,-164.86C112.16,-164.3 103.73,-163.74 95.8,-163.22"/>
<polygon fill="#63b8ff" stroke="#63b8ff" points="120.21,-168.4 130.42,-165.56 120.67,-161.41 120.21,-168.4"/>
</a>
</g>
</g>
<!-- Node10&#45;&gt;Node3 -->
<g id="edge13_Node000010_Node000003" class="edge">
<title>Node10&#45;&gt;Node3</title>
<g id="a_edge13_Node000010_Node000003"><a xlink:title=" ">
<path fill="none" stroke="#63b8ff" d="M458.17,-143.28C438.17,-136.54 416.62,-129.27 399.68,-123.56"/>
<polygon fill="#63b8ff" stroke="#63b8ff" points="456.86,-146.87 467.46,-146.75 459.1,-140.24 456.86,-146.87"/>
</a>
</g>
</g>
<!-- Node11&#45;&gt;Node3 -->
<g id="edge15_Node000011_Node000003" class="edge">
<title>Node11&#45;&gt;Node3</title>
<g id="a_edge15_Node000011_Node000003"><a xlink:title=" ">
<path fill="none" stroke="#63b8ff" d="M452.37,-113.12C435.9,-113.12 418.8,-113.12 404.39,-113.12"/>
<polygon fill="#63b8ff" stroke="#63b8ff" points="452.06,-116.62 462.06,-113.12 452.06,-109.62 452.06,-116.62"/>
</a>
</g>
</g>
<!-- Node12&#45;&gt;Node4 -->
<g id="edge17_Node000012_Node000004" class="edge">
<title>Node12&#45;&gt;Node4</title>
<g id="a_edge17_Node000012_Node000004"><a xlink:title=" ">
<path fill="none" stroke="#63b8ff" d="M328.16,-48.24C298.47,-59.11 258.09,-73.88 231.26,-83.69"/>
<polygon fill="#63b8ff" stroke="#63b8ff" points="328.99,-51.3 337.18,-44.58 326.59,-44.73 328.99,-51.3"/>
</a>
</g>
</g>
<!-- Node13&#45;&gt;Node3 -->
<g id="edge19_Node000013_Node000003" class="edge">
<title>Node13&#45;&gt;Node3</title>
<g id="a_edge19_Node000013_Node000003"><a xlink:title=" ">
<path fill="none" stroke="#63b8ff" d="M471.54,-82.62C449.78,-89.08 424.12,-96.69 403.89,-102.7"/>
<polygon fill="#63b8ff" stroke="#63b8ff" points="472.28,-85.75 480.87,-79.55 470.28,-79.04 472.28,-85.75"/>
</a>
</g>
</g>
</g>
</svg>
