<?xml version="1.0" encoding="UTF-8" standalone="no"?>
<!DOCTYPE svg PUBLIC "-//W3C//DTD SVG 1.1//EN"
 "http://www.w3.org/Graphics/SVG/1.1/DTD/svg11.dtd">
<!-- Generated by graphviz version 2.44.1 (20200629.0846)
 -->
<!-- Title: DMA_ChannelEnable Pages: 1 -->
<svg width="506pt" height="64pt"
 viewBox="0.00 0.00 506.00 64.00" xmlns="http://www.w3.org/2000/svg" xmlns:xlink="http://www.w3.org/1999/xlink">
<g id="graph0" class="graph" transform="scale(1 1) rotate(0) translate(4 60)">
<title>DMA_ChannelEnable</title>
<!-- Node1 -->
<g id="Node000001" class="node">
<title>Node1</title>
<g id="a_Node000001"><a xlink:title="This inline function enables the DMA channel.">
<polygon fill="#999999" stroke="#666666" points="498,-37 389,-37 389,-18 498,-18 498,-37"/>
<text text-anchor="middle" x="443.5" y="-25" font-family="Helvetica,sans-Serif" font-size="10.00">DMA_ChannelEnable</text>
</a>
</g>
</g>
<!-- Node2 -->
<g id="Node000002" class="node">
<title>Node2</title>
<g id="a_Node000002"><a xlink:href="a00418.html#ga9f16d166d637fd9005839b1e1822dc63" target="_top" xlink:title="This is the default callback with weak attribute. The user can override and implement the default cal...">
<polygon fill="white" stroke="#666666" points="353,-56 237,-56 237,-37 353,-37 353,-56"/>
<text text-anchor="middle" x="295" y="-44" font-family="Helvetica,sans-Serif" font-size="10.00">DMA_ChannelCallback</text>
</a>
</g>
</g>
<!-- Node1&#45;&gt;Node2 -->
<g id="edge1_Node000001_Node000002" class="edge">
<title>Node1&#45;&gt;Node2</title>
<g id="a_edge1_Node000001_Node000002"><a xlink:title=" ">
<path fill="none" stroke="#63b8ff" d="M378.86,-35.75C370.31,-36.86 361.59,-37.99 353.16,-39.09"/>
<polygon fill="#63b8ff" stroke="#63b8ff" points="379.31,-39.22 388.78,-34.47 378.41,-32.28 379.31,-39.22"/>
</a>
</g>
</g>
<!-- Node3 -->
<g id="Node000003" class="node">
<title>Node3</title>
<g id="a_Node000003"><a xlink:href="a00427.html#ga145f1f1255a7289b74ff5907798d21fa" target="_top" xlink:title="synchronize to SPI bus">
<polygon fill="white" stroke="#666666" points="341,-19 249,-19 249,0 341,0 341,-19"/>
<text text-anchor="middle" x="295" y="-7" font-family="Helvetica,sans-Serif" font-size="10.00">SPI_Synchronize</text>
</a>
</g>
</g>
<!-- Node1&#45;&gt;Node3 -->
<g id="edge2_Node000001_Node000003" class="edge">
<title>Node1&#45;&gt;Node3</title>
<g id="a_edge2_Node000001_Node000003"><a xlink:title=" ">
<path fill="none" stroke="#63b8ff" d="M378.72,-19.66C366.03,-18.1 352.95,-16.5 341.05,-15.04"/>
<polygon fill="#63b8ff" stroke="#63b8ff" points="378.43,-23.15 388.78,-20.9 379.28,-16.21 378.43,-23.15"/>
</a>
</g>
</g>
<!-- Node4 -->
<g id="Node000004" class="node">
<title>Node4</title>
<g id="a_Node000004"><a xlink:href="a00427.html#ga931d1aef6dcb7d881ab27cf66cd94d00" target="_top" xlink:title="check for SPI timeout">
<polygon fill="white" stroke="#666666" points="201,-19 110,-19 110,0 201,0 201,-19"/>
<text text-anchor="middle" x="155.5" y="-7" font-family="Helvetica,sans-Serif" font-size="10.00">Drv_SPI_Timeout</text>
</a>
</g>
</g>
<!-- Node3&#45;&gt;Node4 -->
<g id="edge3_Node000003_Node000004" class="edge">
<title>Node3&#45;&gt;Node4</title>
<g id="a_edge3_Node000003_Node000004"><a xlink:title=" ">
<path fill="none" stroke="#63b8ff" d="M238.68,-9.5C226.21,-9.5 213.12,-9.5 201.15,-9.5"/>
<polygon fill="#63b8ff" stroke="#63b8ff" points="238.98,-13 248.98,-9.5 238.98,-6 238.98,-13"/>
</a>
</g>
</g>
<!-- Node5 -->
<g id="Node000005" class="node">
<title>Node5</title>
<g id="a_Node000005"><a xlink:href="a00431.html#ga97fda594ad396d08b6a833ebb3b04538" target="_top" xlink:title="tasks run every 100us">
<polygon fill="white" stroke="#666666" points="74,-19 0,-19 0,0 74,0 74,-19"/>
<text text-anchor="middle" x="37" y="-7" font-family="Helvetica,sans-Serif" font-size="10.00">Tasks_100us</text>
</a>
</g>
</g>
<!-- Node4&#45;&gt;Node5 -->
<g id="edge4_Node000004_Node000005" class="edge">
<title>Node4&#45;&gt;Node5</title>
<g id="a_edge4_Node000004_Node000005"><a xlink:title=" ">
<path fill="none" stroke="#63b8ff" d="M99.69,-9.5C91,-9.5 82.22,-9.5 74.1,-9.5"/>
<polygon fill="#63b8ff" stroke="#63b8ff" points="99.79,-13 109.79,-9.5 99.79,-6 99.79,-13"/>
</a>
</g>
</g>
</g>
</svg>
