<?xml version="1.0" encoding="UTF-8" standalone="no"?>
<!DOCTYPE svg PUBLIC "-//W3C//DTD SVG 1.1//EN"
 "http://www.w3.org/Graphics/SVG/1.1/DTD/svg11.dtd">
<!-- Generated by graphviz version 2.44.1 (20200629.0846)
 -->
<!-- Title: CAN1_DlcToDataBytesGet Pages: 1 -->
<svg width="767pt" height="101pt"
 viewBox="0.00 0.00 767.00 101.00" xmlns="http://www.w3.org/2000/svg" xmlns:xlink="http://www.w3.org/1999/xlink">
<g id="graph0" class="graph" transform="scale(1 1) rotate(0) translate(4 97)">
<title>CAN1_DlcToDataBytesGet</title>
<!-- Node1 -->
<g id="Node000001" class="node">
<title>Node1</title>
<g id="a_Node000001"><a xlink:title="This function get the DLC enum based decimal value.">
<polygon fill="#999999" stroke="#666666" points="759,-38 625,-38 625,-19 759,-19 759,-38"/>
<text text-anchor="middle" x="692" y="-26" font-family="Helvetica,sans-Serif" font-size="10.00">CAN1_DlcToDataBytesGet</text>
</a>
</g>
</g>
<!-- Node2 -->
<g id="Node000002" class="node">
<title>Node2</title>
<g id="a_Node000002"><a xlink:href="a00405.html#gaa89329ca22f234476d55536c446b70e3" target="_top" xlink:title="This function read the message object from receive FIFO and update to the user &#160;&#160;message object point...">
<polygon fill="white" stroke="#666666" points="589,-75 441,-75 441,-56 589,-56 589,-75"/>
<text text-anchor="middle" x="515" y="-63" font-family="Helvetica,sans-Serif" font-size="10.00">CAN1_MessageReadFromFifo</text>
</a>
</g>
</g>
<!-- Node1&#45;&gt;Node2 -->
<g id="edge1_Node000001_Node000002" class="edge">
<title>Node1&#45;&gt;Node2</title>
<g id="a_edge1_Node000001_Node000002"><a xlink:title=" ">
<path fill="none" stroke="#63b8ff" d="M635.89,-40.15C611.85,-45.23 584.01,-51.12 561.22,-55.94"/>
<polygon fill="#63b8ff" stroke="#63b8ff" points="636.87,-43.52 645.93,-38.03 635.43,-36.67 636.87,-43.52"/>
</a>
</g>
</g>
<!-- Node7 -->
<g id="Node000007" class="node">
<title>Node7</title>
<g id="a_Node000007"><a xlink:href="a00405.html#ga0980f888cad241edaa859783bb4a89d7" target="_top" xlink:title="This function Read the message object from user input and update to the CAN1 TX FIFO.">
<polygon fill="white" stroke="#666666" points="583.5,-38 446.5,-38 446.5,-19 583.5,-19 583.5,-38"/>
<text text-anchor="middle" x="515" y="-26" font-family="Helvetica,sans-Serif" font-size="10.00">CAN1_MessageWriteToFifo</text>
</a>
</g>
</g>
<!-- Node1&#45;&gt;Node7 -->
<g id="edge6_Node000001_Node000007" class="edge">
<title>Node1&#45;&gt;Node7</title>
<g id="a_edge6_Node000001_Node000007"><a xlink:title=" ">
<path fill="none" stroke="#63b8ff" d="M614.64,-28.5C604.34,-28.5 593.84,-28.5 583.71,-28.5"/>
<polygon fill="#63b8ff" stroke="#63b8ff" points="614.84,-32 624.84,-28.5 614.84,-25 614.84,-32"/>
</a>
</g>
</g>
<!-- Node8 -->
<g id="Node000008" class="node">
<title>Node8</title>
<g id="a_Node000008"><a xlink:href="a00405.html#gad99c960d1ed589ce80aca873a90e068e" target="_top" xlink:title="Writes the CAN message object to specified transmit FIFO channel.">
<polygon fill="white" stroke="#666666" points="379,-19 294,-19 294,0 379,0 379,-19"/>
<text text-anchor="middle" x="336.5" y="-7" font-family="Helvetica,sans-Serif" font-size="10.00">CAN1_Transmit</text>
</a>
</g>
</g>
<!-- Node1&#45;&gt;Node8 -->
<g id="edge10_Node000001_Node000008" class="edge">
<title>Node1&#45;&gt;Node8</title>
<g id="a_edge10_Node000001_Node000008"><a xlink:title=" ">
<path fill="none" stroke="#63b8ff" d="M639.3,-16.96C623.27,-13.9 605.48,-11.02 589,-9.5 515.52,-2.71 429.45,-4.89 379.44,-7.15"/>
<polygon fill="#63b8ff" stroke="#63b8ff" points="639.07,-20.48 649.56,-18.99 640.43,-13.62 639.07,-20.48"/>
</a>
</g>
</g>
<!-- Node3 -->
<g id="Node000003" class="node">
<title>Node3</title>
<g id="a_Node000003"><a xlink:href="a00405.html#ga4fe1df4cd9f0ce122687dcfab0713b5b" target="_top" xlink:title="Reads the received single message object.">
<polygon fill="white" stroke="#666666" points="377,-93 296,-93 296,-74 377,-74 377,-93"/>
<text text-anchor="middle" x="336.5" y="-81" font-family="Helvetica,sans-Serif" font-size="10.00">CAN1_Receive</text>
</a>
</g>
</g>
<!-- Node2&#45;&gt;Node3 -->
<g id="edge2_Node000002_Node000003" class="edge">
<title>Node2&#45;&gt;Node3</title>
<g id="a_edge2_Node000002_Node000003"><a xlink:title=" ">
<path fill="none" stroke="#63b8ff" d="M430.9,-73.97C412.19,-75.88 393.17,-77.82 377.22,-79.45"/>
<polygon fill="#63b8ff" stroke="#63b8ff" points="431.34,-77.45 440.94,-72.95 430.63,-70.48 431.34,-77.45"/>
</a>
</g>
</g>
<!-- Node6 -->
<g id="Node000006" class="node">
<title>Node6</title>
<g id="a_Node000006"><a xlink:href="a00405.html#ga2c655a58965fff8578916b59bed47297" target="_top" xlink:title="Reads the received single message object from the CAN1 receive FIFO.">
<polygon fill="white" stroke="#666666" points="405,-56 268,-56 268,-37 405,-37 405,-56"/>
<text text-anchor="middle" x="336.5" y="-44" font-family="Helvetica,sans-Serif" font-size="10.00">CAN1_ReceiveMessageGet</text>
</a>
</g>
</g>
<!-- Node2&#45;&gt;Node6 -->
<g id="edge5_Node000002_Node000006" class="edge">
<title>Node2&#45;&gt;Node6</title>
<g id="a_edge5_Node000002_Node000006"><a xlink:title=" ">
<path fill="none" stroke="#63b8ff" d="M430.86,-56.55C422.24,-55.62 413.55,-54.69 405.13,-53.78"/>
<polygon fill="#63b8ff" stroke="#63b8ff" points="430.62,-60.04 440.94,-57.63 431.37,-53.08 430.62,-60.04"/>
</a>
</g>
</g>
<!-- Node4 -->
<g id="Node000004" class="node">
<title>Node4</title>
<g id="a_Node000004"><a xlink:href="a00424.html#ga77b41fe067ba8e8d666827b686e52cff" target="_top" xlink:title="received message from GUI. Send the data to the secondary core using mailbox protocol A">
<polygon fill="white" stroke="#666666" points="232,-83 110,-83 110,-64 232,-64 232,-83"/>
<text text-anchor="middle" x="171" y="-71" font-family="Helvetica,sans-Serif" font-size="10.00">CAN_Receive_from_GUI</text>
</a>
</g>
</g>
<!-- Node3&#45;&gt;Node4 -->
<g id="edge3_Node000003_Node000004" class="edge">
<title>Node3&#45;&gt;Node4</title>
<g id="a_edge3_Node000003_Node000004"><a xlink:title=" ">
<path fill="none" stroke="#63b8ff" d="M285.74,-80.46C268.88,-79.43 249.86,-78.26 232.28,-77.19"/>
<polygon fill="#63b8ff" stroke="#63b8ff" points="285.73,-83.96 295.92,-81.08 286.15,-76.98 285.73,-83.96"/>
</a>
</g>
</g>
<!-- Node5 -->
<g id="Node000005" class="node">
<title>Node5</title>
<g id="a_Node000005"><a xlink:href="a00431.html#ga97fda594ad396d08b6a833ebb3b04538" target="_top" xlink:title="tasks run every 100us">
<polygon fill="white" stroke="#666666" points="74,-55 0,-55 0,-36 74,-36 74,-55"/>
<text text-anchor="middle" x="37" y="-43" font-family="Helvetica,sans-Serif" font-size="10.00">Tasks_100us</text>
</a>
</g>
</g>
<!-- Node4&#45;&gt;Node5 -->
<g id="edge4_Node000004_Node000005" class="edge">
<title>Node4&#45;&gt;Node5</title>
<g id="a_edge4_Node000004_Node000005"><a xlink:title=" ">
<path fill="none" stroke="#63b8ff" d="M115.04,-61.84C101.23,-58.91 86.75,-55.84 74.12,-53.16"/>
<polygon fill="#63b8ff" stroke="#63b8ff" points="114.43,-65.29 124.94,-63.94 115.89,-58.44 114.43,-65.29"/>
</a>
</g>
</g>
<!-- Node7&#45;&gt;Node8 -->
<g id="edge7_Node000007_Node000008" class="edge">
<title>Node7&#45;&gt;Node8</title>
<g id="a_edge7_Node000007_Node000008"><a xlink:title=" ">
<path fill="none" stroke="#63b8ff" d="M436.07,-20.11C416.42,-18 396.08,-15.81 379.01,-13.97"/>
<polygon fill="#63b8ff" stroke="#63b8ff" points="435.95,-23.62 446.27,-21.21 436.7,-16.66 435.95,-23.62"/>
</a>
</g>
</g>
<!-- Node9 -->
<g id="Node000009" class="node">
<title>Node9</title>
<g id="a_Node000009"><a xlink:href="a00424.html#ga9511f6338931225152a644cd0b011f66" target="_top" xlink:title="send frame to GUI when the FIFO from secondary to primary has been filled">
<polygon fill="white" stroke="#666666" points="228.5,-37 113.5,-37 113.5,-18 228.5,-18 228.5,-37"/>
<text text-anchor="middle" x="171" y="-25" font-family="Helvetica,sans-Serif" font-size="10.00">CAN_Transmit_to_GUI</text>
</a>
</g>
</g>
<!-- Node8&#45;&gt;Node9 -->
<g id="edge8_Node000008_Node000009" class="edge">
<title>Node8&#45;&gt;Node9</title>
<g id="a_edge8_Node000008_Node000009"><a xlink:title=" ">
<path fill="none" stroke="#63b8ff" d="M283.78,-15.19C266.26,-17.12 246.61,-19.29 228.72,-21.26"/>
<polygon fill="#63b8ff" stroke="#63b8ff" points="284.26,-18.66 293.82,-14.09 283.5,-11.7 284.26,-18.66"/>
</a>
</g>
</g>
<!-- Node9&#45;&gt;Node5 -->
<g id="edge9_Node000009_Node000005" class="edge">
<title>Node9&#45;&gt;Node5</title>
<g id="a_edge9_Node000009_Node000005"><a xlink:title=" ">
<path fill="none" stroke="#63b8ff" d="M103.24,-36.6C93.19,-37.97 83.17,-39.34 74.1,-40.58"/>
<polygon fill="#63b8ff" stroke="#63b8ff" points="103.82,-40.06 113.25,-35.24 102.87,-33.12 103.82,-40.06"/>
</a>
</g>
</g>
</g>
</svg>
