<?xml version="1.0" encoding="UTF-8" standalone="no"?>
<!DOCTYPE svg PUBLIC "-//W3C//DTD SVG 1.1//EN"
 "http://www.w3.org/Graphics/SVG/1.1/DTD/svg11.dtd">
<!-- Generated by graphviz version 2.44.1 (20200629.0846)
 -->
<!-- Title: DMA_ChannelCallbackRegister Pages: 1 -->
<svg width="646pt" height="64pt"
 viewBox="0.00 0.00 646.00 64.00" xmlns="http://www.w3.org/2000/svg" xmlns:xlink="http://www.w3.org/1999/xlink">
<g id="graph0" class="graph" transform="scale(1 1) rotate(0) translate(4 60)">
<title>DMA_ChannelCallbackRegister</title>
<!-- Node1 -->
<g id="Node000001" class="node">
<title>Node1</title>
<g id="a_Node000001"><a xlink:title="This function can be used to override default callback and to define custom callback for DMA Channel ...">
<polygon fill="#999999" stroke="#666666" points="638,-37 486,-37 486,-18 638,-18 638,-37"/>
<text text-anchor="middle" x="562" y="-25" font-family="Helvetica,sans-Serif" font-size="10.00">DMA_ChannelCallbackRegister</text>
</a>
</g>
</g>
<!-- Node2 -->
<g id="Node000002" class="node">
<title>Node2</title>
<g id="a_Node000002"><a xlink:href="a00418.html#ga3950883876bea54b441aaf14ff17d47e" target="_top" xlink:title="Initializes the DMA module.">
<polygon fill="white" stroke="#666666" points="450,-37 371,-37 371,-18 450,-18 450,-37"/>
<text text-anchor="middle" x="410.5" y="-25" font-family="Helvetica,sans-Serif" font-size="10.00">DMA_Initialize</text>
</a>
</g>
</g>
<!-- Node1&#45;&gt;Node2 -->
<g id="edge1_Node000001_Node000002" class="edge">
<title>Node1&#45;&gt;Node2</title>
<g id="a_edge1_Node000001_Node000002"><a xlink:title=" ">
<path fill="none" stroke="#63b8ff" d="M475.7,-27.5C466.8,-27.5 458.1,-27.5 450.13,-27.5"/>
<polygon fill="#63b8ff" stroke="#63b8ff" points="475.81,-31 485.81,-27.5 475.81,-24 475.81,-31"/>
</a>
</g>
</g>
<!-- Node3 -->
<g id="Node000003" class="node">
<title>Node3</title>
<g id="a_Node000003"><a xlink:href="a00427.html#ga145f1f1255a7289b74ff5907798d21fa" target="_top" xlink:title="synchronize to SPI bus">
<polygon fill="white" stroke="#666666" points="332,-56 240,-56 240,-37 332,-37 332,-56"/>
<text text-anchor="middle" x="286" y="-44" font-family="Helvetica,sans-Serif" font-size="10.00">SPI_Synchronize</text>
</a>
</g>
</g>
<!-- Node2&#45;&gt;Node3 -->
<g id="edge2_Node000002_Node000003" class="edge">
<title>Node2&#45;&gt;Node3</title>
<g id="a_edge2_Node000002_Node000003"><a xlink:title=" ">
<path fill="none" stroke="#63b8ff" d="M360.77,-35.06C351.4,-36.51 341.62,-38.03 332.35,-39.47"/>
<polygon fill="#63b8ff" stroke="#63b8ff" points="361.39,-38.5 370.74,-33.51 360.32,-31.59 361.39,-38.5"/>
</a>
</g>
</g>
<!-- Node6 -->
<g id="Node000006" class="node">
<title>Node6</title>
<g id="a_Node000006"><a xlink:href="a00412.html#ga5e8391114a0cf91ac20002be25e3d352" target="_top" xlink:title="Initializes the System module.">
<polygon fill="white" stroke="#666666" points="335,-19 237,-19 237,0 335,0 335,-19"/>
<text text-anchor="middle" x="286" y="-7" font-family="Helvetica,sans-Serif" font-size="10.00">SYSTEM_Initialize</text>
</a>
</g>
</g>
<!-- Node2&#45;&gt;Node6 -->
<g id="edge5_Node000002_Node000006" class="edge">
<title>Node2&#45;&gt;Node6</title>
<g id="a_edge5_Node000002_Node000006"><a xlink:title=" ">
<path fill="none" stroke="#63b8ff" d="M360.77,-20.34C352.42,-19.11 343.75,-17.84 335.42,-16.61"/>
<polygon fill="#63b8ff" stroke="#63b8ff" points="360.34,-23.81 370.74,-21.8 361.36,-16.89 360.34,-23.81"/>
</a>
</g>
</g>
<!-- Node4 -->
<g id="Node000004" class="node">
<title>Node4</title>
<g id="a_Node000004"><a xlink:href="a00427.html#ga931d1aef6dcb7d881ab27cf66cd94d00" target="_top" xlink:title="check for SPI timeout">
<polygon fill="white" stroke="#666666" points="201,-56 110,-56 110,-37 201,-37 201,-56"/>
<text text-anchor="middle" x="155.5" y="-44" font-family="Helvetica,sans-Serif" font-size="10.00">Drv_SPI_Timeout</text>
</a>
</g>
</g>
<!-- Node3&#45;&gt;Node4 -->
<g id="edge3_Node000003_Node000004" class="edge">
<title>Node3&#45;&gt;Node4</title>
<g id="a_edge3_Node000003_Node000004"><a xlink:title=" ">
<path fill="none" stroke="#63b8ff" d="M229.61,-46.5C220.19,-46.5 210.51,-46.5 201.4,-46.5"/>
<polygon fill="#63b8ff" stroke="#63b8ff" points="229.7,-50 239.7,-46.5 229.7,-43 229.7,-50"/>
</a>
</g>
</g>
<!-- Node5 -->
<g id="Node000005" class="node">
<title>Node5</title>
<g id="a_Node000005"><a xlink:href="a00431.html#ga97fda594ad396d08b6a833ebb3b04538" target="_top" xlink:title="tasks run every 100us">
<polygon fill="white" stroke="#666666" points="74,-56 0,-56 0,-37 74,-37 74,-56"/>
<text text-anchor="middle" x="37" y="-44" font-family="Helvetica,sans-Serif" font-size="10.00">Tasks_100us</text>
</a>
</g>
</g>
<!-- Node4&#45;&gt;Node5 -->
<g id="edge4_Node000004_Node000005" class="edge">
<title>Node4&#45;&gt;Node5</title>
<g id="a_edge4_Node000004_Node000005"><a xlink:title=" ">
<path fill="none" stroke="#63b8ff" d="M99.69,-46.5C91,-46.5 82.22,-46.5 74.1,-46.5"/>
<polygon fill="#63b8ff" stroke="#63b8ff" points="99.79,-50 109.79,-46.5 99.79,-43 99.79,-50"/>
</a>
</g>
</g>
</g>
</svg>
