<?xml version="1.0" encoding="UTF-8" standalone="no"?>
<!DOCTYPE svg PUBLIC "-//W3C//DTD SVG 1.1//EN"
 "http://www.w3.org/Graphics/SVG/1.1/DTD/svg11.dtd">
<!-- Generated by graphviz version 8.1.0 (20230707.0739)
 -->
<!-- Title: DMA_ChannelDisable Pages: 1 -->
<svg width="372pt" height="28pt"
 viewBox="0.00 0.00 371.75 28.00" xmlns="http://www.w3.org/2000/svg" xmlns:xlink="http://www.w3.org/1999/xlink">
<g id="graph0" class="graph" transform="scale(1 1) rotate(0) translate(4 24)">
<title>DMA_ChannelDisable</title>
<!-- Node1 -->
<g id="Node000001" class="node">
<title>Node1</title>
<g id="a_Node000001"><a xlink:title="This inline function disables the DMA channel.">
<polygon fill="#999999" stroke="#666666" points="363.75,-20 253.25,-20 253.25,0 363.75,0 363.75,-20"/>
<text text-anchor="middle" x="308.5" y="-6.5" font-family="Helvetica,sans-Serif" font-size="10.00">DMA_ChannelDisable</text>
</a>
</g>
</g>
<!-- Node2 -->
<g id="Node000002" class="node">
<title>Node2</title>
<g id="a_Node000002"><a xlink:href="a00251.html#a145f1f1255a7289b74ff5907798d21fa" target="_top" xlink:title=" ">
<polygon fill="white" stroke="#666666" points="217.25,-20 126.25,-20 126.25,0 217.25,0 217.25,-20"/>
<text text-anchor="middle" x="171.75" y="-6.5" font-family="Helvetica,sans-Serif" font-size="10.00">SPI_Synchronize</text>
</a>
</g>
</g>
<!-- Node1&#45;&gt;Node2 -->
<g id="edge1_Node000001_Node000002" class="edge">
<title>Node1&#45;&gt;Node2</title>
<g id="a_edge1_Node000001_Node000002"><a xlink:title=" ">
<path fill="none" stroke="#63b8ff" d="M242.15,-10C233.79,-10 225.39,-10 217.45,-10"/>
<polygon fill="#63b8ff" stroke="#63b8ff" points="242.08,-13.5 252.08,-10 242.08,-6.5 242.08,-13.5"/>
</a>
</g>
</g>
<!-- Node3 -->
<g id="Node000003" class="node">
<title>Node3</title>
<g id="a_Node000003"><a xlink:href="a00251.html#a931d1aef6dcb7d881ab27cf66cd94d00" target="_top" xlink:title=" ">
<polygon fill="white" stroke="#666666" points="90.25,-20 0,-20 0,0 90.25,0 90.25,-20"/>
<text text-anchor="middle" x="45.12" y="-6.5" font-family="Helvetica,sans-Serif" font-size="10.00">Drv_SPI_Timeout</text>
</a>
</g>
</g>
<!-- Node2&#45;&gt;Node3 -->
<g id="edge2_Node000002_Node000003" class="edge">
<title>Node2&#45;&gt;Node3</title>
<g id="a_edge2_Node000002_Node000003"><a xlink:title=" ">
<path fill="none" stroke="#63b8ff" d="M114.84,-10C106.73,-10 98.48,-10 90.63,-10"/>
<polygon fill="#63b8ff" stroke="#63b8ff" points="114.76,-13.5 124.76,-10 114.76,-6.5 114.76,-13.5"/>
</a>
</g>
</g>
</g>
</svg>
