<?xml version="1.0" encoding="UTF-8" standalone="no"?>
<!DOCTYPE svg PUBLIC "-//W3C//DTD SVG 1.1//EN"
 "http://www.w3.org/Graphics/SVG/1.1/DTD/svg11.dtd">
<!-- Generated by graphviz version 8.1.0 (20230707.0739)
 -->
<!-- Title: DRV_DMA_DATA_s Pages: 1 -->
<svg width="575pt" height="629pt"
 viewBox="0.00 0.00 575.00 629.00" xmlns="http://www.w3.org/2000/svg" xmlns:xlink="http://www.w3.org/1999/xlink">
<g id="graph0" class="graph" transform="scale(1 1) rotate(0) translate(4 625)">
<title>DRV_DMA_DATA_s</title>
<!-- Node1 -->
<g id="Node000001" class="node">
<title>Node1</title>
<g id="a_Node000001"><a xlink:title=" ">
<polygon fill="#999999" stroke="none" points="312.5,-148 214.5,-148 214.5,0 312.5,0 312.5,-148"/>
<text text-anchor="start" x="219.25" y="-134.5" font-family="Helvetica,sans-Serif" font-size="10.00">DRV_DMA_DATA_s</text>
<text text-anchor="start" x="222" y="-118.5" font-family="Helvetica,sans-Serif" font-size="10.00">+</text>
<text text-anchor="start" x="235.5" y="-118.5" font-family="Helvetica,sans-Serif" font-size="10.00">vinAdcBuf1</text>
<text text-anchor="start" x="222" y="-102.5" font-family="Helvetica,sans-Serif" font-size="10.00">+</text>
<text text-anchor="start" x="235.5" y="-102.5" font-family="Helvetica,sans-Serif" font-size="10.00">vinAdcBuf2</text>
<text text-anchor="start" x="222" y="-86.5" font-family="Helvetica,sans-Serif" font-size="10.00">+</text>
<text text-anchor="start" x="235.5" y="-86.5" font-family="Helvetica,sans-Serif" font-size="10.00">vinAdcBuf3</text>
<text text-anchor="start" x="222" y="-70.5" font-family="Helvetica,sans-Serif" font-size="10.00">+</text>
<text text-anchor="start" x="235.5" y="-70.5" font-family="Helvetica,sans-Serif" font-size="10.00">vacOpAmpBias</text>
<text text-anchor="start" x="222" y="-54.5" font-family="Helvetica,sans-Serif" font-size="10.00">+</text>
<text text-anchor="start" x="235.5" y="-54.5" font-family="Helvetica,sans-Serif" font-size="10.00">coreBuffers</text>
<text text-anchor="start" x="222" y="-38.5" font-family="Helvetica,sans-Serif" font-size="10.00">+</text>
<text text-anchor="start" x="235.5" y="-38.5" font-family="Helvetica,sans-Serif" font-size="10.00">vinAdcRaw</text>
<text text-anchor="start" x="222" y="-22.5" font-family="Helvetica,sans-Serif" font-size="10.00">+</text>
<text text-anchor="start" x="235.5" y="-22.5" font-family="Helvetica,sans-Serif" font-size="10.00">state</text>
<text text-anchor="start" x="262" y="-6.5" font-family="Helvetica,sans-Serif" font-size="10.00"> </text>
<polygon fill="#666666" stroke="#666666" points="214.5,-130 214.5,-130 312.5,-130 312.5,-130 214.5,-130"/>
<polygon fill="#666666" stroke="#666666" points="214.5,-18 214.5,-18 233.5,-18 233.5,-18 214.5,-18"/>
<polygon fill="#666666" stroke="#666666" points="233.5,-18 233.5,-18 312.5,-18 312.5,-18 233.5,-18"/>
<polygon fill="none" stroke="#666666" points="214.5,0 214.5,-148 312.5,-148 312.5,0 214.5,0"/>
</a>
</g>
</g>
<!-- Node2 -->
<g id="Node000002" class="node">
<title>Node2</title>
<g id="a_Node000002"><a xlink:href="a00593.html" target="_top" xlink:title="Main AC Monitor data object data type declaration.">
<polygon fill="white" stroke="none" points="288,-272 239,-272 239,-220 288,-220 288,-272"/>
<text text-anchor="start" x="244" y="-258.5" font-family="Helvetica,sans-Serif" font-size="10.00">VACM_s</text>
<text text-anchor="start" x="245.5" y="-242.5" font-family="Helvetica,sans-Serif" font-size="10.00">+</text>
<text text-anchor="start" x="258" y="-242.5" font-family="Helvetica,sans-Serif" font-size="10.00">state</text>
<text text-anchor="start" x="262" y="-226.5" font-family="Helvetica,sans-Serif" font-size="10.00"> </text>
<polygon fill="#666666" stroke="#666666" points="239,-254 239,-254 288,-254 288,-254 239,-254"/>
<polygon fill="#666666" stroke="#666666" points="239,-238 239,-238 256,-238 256,-238 239,-238"/>
<polygon fill="#666666" stroke="#666666" points="256,-238 256,-238 288,-238 288,-238 256,-238"/>
<polygon fill="none" stroke="#666666" points="239,-220 239,-272 288,-272 288,-220 239,-220"/>
</a>
</g>
</g>
<!-- Node2&#45;&gt;Node1 -->
<g id="edge1_Node000001_Node000002" class="edge">
<title>Node2&#45;&gt;Node1</title>
<g id="a_edge1_Node000001_Node000002"><a xlink:title=" ">
<path fill="none" stroke="#63b8ff" d="M263.5,-220.28C263.5,-204.35 263.5,-182.59 263.5,-160.76"/>
<polygon fill="none" stroke="#63b8ff" points="263.5,-160.85 259.5,-154.85 263.5,-148.85 267.5,-154.85 263.5,-160.85"/>
</a>
</g>
<text text-anchor="middle" x="283.75" y="-192.5" font-family="Helvetica,sans-Serif" font-size="10.00" fill="grey"> +phase1</text>
<text text-anchor="middle" x="283.75" y="-180.5" font-family="Helvetica,sans-Serif" font-size="10.00" fill="grey">+phase2</text>
<text text-anchor="middle" x="283.75" y="-168.5" font-family="Helvetica,sans-Serif" font-size="10.00" fill="grey">+phase3</text>
</g>
<!-- Node3 -->
<g id="Node000003" class="node">
<title>Node3</title>
<g id="a_Node000003"><a xlink:href="a00557.html" target="_top" xlink:title="ADD_SHORT_DESCRIPTION.">
<polygon fill="white" stroke="none" points="91,-532 0,-532 0,-320 91,-320 91,-532"/>
<text text-anchor="start" x="4.62" y="-518.5" font-family="Helvetica,sans-Serif" font-size="10.00">VACM_STATUS_s</text>
<text text-anchor="start" x="8" y="-502.5" font-family="Helvetica,sans-Serif" font-size="10.00">+</text>
<text text-anchor="start" x="22" y="-502.5" font-family="Helvetica,sans-Serif" font-size="10.00">ac_drop</text>
<text text-anchor="start" x="8" y="-486.5" font-family="Helvetica,sans-Serif" font-size="10.00">+</text>
<text text-anchor="start" x="22" y="-486.5" font-family="Helvetica,sans-Serif" font-size="10.00">dc_mode</text>
<text text-anchor="start" x="8" y="-470.5" font-family="Helvetica,sans-Serif" font-size="10.00">+</text>
<text text-anchor="start" x="22" y="-470.5" font-family="Helvetica,sans-Serif" font-size="10.00">ac_ok</text>
<text text-anchor="start" x="8" y="-454.5" font-family="Helvetica,sans-Serif" font-size="10.00">+</text>
<text text-anchor="start" x="22" y="-454.5" font-family="Helvetica,sans-Serif" font-size="10.00">zero_cross</text>
<text text-anchor="start" x="8" y="-438.5" font-family="Helvetica,sans-Serif" font-size="10.00">+</text>
<text text-anchor="start" x="22" y="-438.5" font-family="Helvetica,sans-Serif" font-size="10.00">polarity_pos</text>
<text text-anchor="start" x="8" y="-422.5" font-family="Helvetica,sans-Serif" font-size="10.00">+</text>
<text text-anchor="start" x="22" y="-422.5" font-family="Helvetica,sans-Serif" font-size="10.00">end_of_cycle</text>
<text text-anchor="start" x="8" y="-406.5" font-family="Helvetica,sans-Serif" font-size="10.00">+</text>
<text text-anchor="start" x="22" y="-406.5" font-family="Helvetica,sans-Serif" font-size="10.00">slope_pos</text>
<text text-anchor="start" x="8" y="-390.5" font-family="Helvetica,sans-Serif" font-size="10.00">+</text>
<text text-anchor="start" x="22" y="-390.5" font-family="Helvetica,sans-Serif" font-size="10.00">__pad0__</text>
<text text-anchor="start" x="8" y="-374.5" font-family="Helvetica,sans-Serif" font-size="10.00">+</text>
<text text-anchor="start" x="22" y="-374.5" font-family="Helvetica,sans-Serif" font-size="10.00">__pad1__</text>
<text text-anchor="start" x="8" y="-358.5" font-family="Helvetica,sans-Serif" font-size="10.00">+</text>
<text text-anchor="start" x="22" y="-358.5" font-family="Helvetica,sans-Serif" font-size="10.00">__pad2__</text>
<text text-anchor="start" x="22" y="-342.5" font-family="Helvetica,sans-Serif" font-size="10.00">and 9 more...</text>
<text text-anchor="start" x="44" y="-326.5" font-family="Helvetica,sans-Serif" font-size="10.00"> </text>
<polygon fill="#666666" stroke="#666666" points="0,-514 0,-514 91,-514 91,-514 0,-514"/>
<polygon fill="#666666" stroke="#666666" points="0,-338 0,-338 20,-338 20,-338 0,-338"/>
<polygon fill="#666666" stroke="#666666" points="20,-338 20,-338 91,-338 91,-338 20,-338"/>
<polygon fill="none" stroke="#666666" points="0,-320 0,-532 91,-532 91,-320 0,-320"/>
</a>
</g>
</g>
<!-- Node3&#45;&gt;Node2 -->
<g id="edge2_Node000002_Node000003" class="edge">
<title>Node3&#45;&gt;Node2</title>
<g id="a_edge2_Node000002_Node000003"><a xlink:title=" ">
<path fill="none" stroke="#63b8ff" d="M90.68,-330.45C93.78,-326.75 97.05,-323.24 100.5,-320 136.51,-286.14 190.88,-266.14 226.78,-255.87"/>
<polygon fill="none" stroke="#63b8ff" points="226.66,-255.91 231.4,-250.47 238.24,-252.76 233.5,-258.19 226.66,-255.91"/>
</a>
</g>
<text text-anchor="middle" x="158.5" y="-292.5" font-family="Helvetica,sans-Serif" font-size="10.00" fill="grey"> +status</text>
</g>
<!-- Node4 -->
<g id="Node000004" class="node">
<title>Node4</title>
<g id="a_Node000004"><a xlink:title=" ">
<polygon fill="white" stroke="none" points="241.5,-621 129.5,-621 129.5,-569 241.5,-569 241.5,-621"/>
<text text-anchor="start" x="134.5" y="-607.5" font-family="Helvetica,sans-Serif" font-size="10.00">PARENT_STRUCTURE</text>
<text text-anchor="start" x="184" y="-591.5" font-family="Helvetica,sans-Serif" font-size="10.00"> </text>
<text text-anchor="start" x="184" y="-575.5" font-family="Helvetica,sans-Serif" font-size="10.00"> </text>
<polygon fill="#666666" stroke="#666666" points="129.5,-603 129.5,-603 241.5,-603 241.5,-603 129.5,-603"/>
<polygon fill="#666666" stroke="#666666" points="129.5,-587 129.5,-587 241.5,-587 241.5,-587 129.5,-587"/>
<polygon fill="none" stroke="#666666" points="129.5,-569 129.5,-621 241.5,-621 241.5,-569 129.5,-569"/>
</a>
</g>
</g>
<!-- Node4&#45;&gt;Node3 -->
<g id="edge3_Node000003_Node000004" class="edge">
<title>Node4&#45;&gt;Node3</title>
<g id="a_edge3_Node000003_Node000004"><a xlink:title=" ">
<path fill="none" stroke="#63b8ff" d="M134.67,-562.76C122.54,-553.8 110.29,-543.35 100.5,-532 97.14,-528.1 93.91,-523.97 90.82,-519.67"/>
<polygon fill="none" stroke="#63b8ff" points="132.26,-566.05 142.44,-569 136.32,-560.35 132.26,-566.05"/>
</a>
</g>
</g>
<!-- Node5 -->
<g id="Node000005" class="node">
<title>Node5</title>
<g id="a_Node000005"><a xlink:href="a00569.html" target="_top" xlink:title="ADD_SHORT_DESCRIPTION.">
<polygon fill="white" stroke="none" points="193.5,-532 109.5,-532 109.5,-320 193.5,-320 193.5,-532"/>
<text text-anchor="start" x="114.38" y="-518.5" font-family="Helvetica,sans-Serif" font-size="10.00">VACM_FAULT_s</text>
<text text-anchor="start" x="115.5" y="-502.5" font-family="Helvetica,sans-Serif" font-size="10.00">+</text>
<text text-anchor="start" x="127.5" y="-502.5" font-family="Helvetica,sans-Serif" font-size="10.00">ov</text>
<text text-anchor="start" x="115.5" y="-486.5" font-family="Helvetica,sans-Serif" font-size="10.00">+</text>
<text text-anchor="start" x="127.5" y="-486.5" font-family="Helvetica,sans-Serif" font-size="10.00">uv</text>
<text text-anchor="start" x="115.5" y="-470.5" font-family="Helvetica,sans-Serif" font-size="10.00">+</text>
<text text-anchor="start" x="127.5" y="-470.5" font-family="Helvetica,sans-Serif" font-size="10.00">fmin</text>
<text text-anchor="start" x="115.5" y="-454.5" font-family="Helvetica,sans-Serif" font-size="10.00">+</text>
<text text-anchor="start" x="127.5" y="-454.5" font-family="Helvetica,sans-Serif" font-size="10.00">fmax</text>
<text text-anchor="start" x="115.5" y="-438.5" font-family="Helvetica,sans-Serif" font-size="10.00">+</text>
<text text-anchor="start" x="127.5" y="-438.5" font-family="Helvetica,sans-Serif" font-size="10.00">zc_timeout</text>
<text text-anchor="start" x="115.5" y="-422.5" font-family="Helvetica,sans-Serif" font-size="10.00">+</text>
<text text-anchor="start" x="127.5" y="-422.5" font-family="Helvetica,sans-Serif" font-size="10.00">__pad0__</text>
<text text-anchor="start" x="115.5" y="-406.5" font-family="Helvetica,sans-Serif" font-size="10.00">+</text>
<text text-anchor="start" x="127.5" y="-406.5" font-family="Helvetica,sans-Serif" font-size="10.00">__pad1__</text>
<text text-anchor="start" x="115.5" y="-390.5" font-family="Helvetica,sans-Serif" font-size="10.00">+</text>
<text text-anchor="start" x="127.5" y="-390.5" font-family="Helvetica,sans-Serif" font-size="10.00">__pad2__</text>
<text text-anchor="start" x="115.5" y="-374.5" font-family="Helvetica,sans-Serif" font-size="10.00">+</text>
<text text-anchor="start" x="127.5" y="-374.5" font-family="Helvetica,sans-Serif" font-size="10.00">__pad3__</text>
<text text-anchor="start" x="115.5" y="-358.5" font-family="Helvetica,sans-Serif" font-size="10.00">+</text>
<text text-anchor="start" x="127.5" y="-358.5" font-family="Helvetica,sans-Serif" font-size="10.00">__pad4__</text>
<text text-anchor="start" x="127.5" y="-342.5" font-family="Helvetica,sans-Serif" font-size="10.00">and 9 more...</text>
<text text-anchor="start" x="150" y="-326.5" font-family="Helvetica,sans-Serif" font-size="10.00"> </text>
<polygon fill="#666666" stroke="#666666" points="109.5,-514 109.5,-514 193.5,-514 193.5,-514 109.5,-514"/>
<polygon fill="#666666" stroke="#666666" points="109.5,-338 109.5,-338 125.5,-338 125.5,-338 109.5,-338"/>
<polygon fill="#666666" stroke="#666666" points="125.5,-338 125.5,-338 193.5,-338 193.5,-338 125.5,-338"/>
<polygon fill="none" stroke="#666666" points="109.5,-320 109.5,-532 193.5,-532 193.5,-320 109.5,-320"/>
</a>
</g>
</g>
<!-- Node4&#45;&gt;Node5 -->
<g id="edge5_Node000005_Node000004" class="edge">
<title>Node4&#45;&gt;Node5</title>
<g id="a_edge5_Node000005_Node000004"><a xlink:title=" ">
<path fill="none" stroke="#63b8ff" d="M178.33,-558.8C176.66,-550.59 174.8,-541.42 172.85,-531.86"/>
<polygon fill="none" stroke="#63b8ff" points="175.06,-559.26 180.48,-568.36 181.92,-557.86 175.06,-559.26"/>
</a>
</g>
</g>
<!-- Node6 -->
<g id="Node000006" class="node">
<title>Node6</title>
<g id="a_Node000006"><a xlink:href="a00589.html" target="_top" xlink:title="ADD_SHORT_DESCRIPTION.">
<polygon fill="white" stroke="none" points="315.5,-508 211.5,-508 211.5,-344 315.5,-344 315.5,-508"/>
<text text-anchor="start" x="216.62" y="-494.5" font-family="Helvetica,sans-Serif" font-size="10.00">VACM_TIMEBASE_s</text>
<text text-anchor="start" x="215.5" y="-478.5" font-family="Helvetica,sans-Serif" font-size="10.00">+</text>
<text text-anchor="start" x="225.5" y="-478.5" font-family="Helvetica,sans-Serif" font-size="10.00">half_cycle</text>
<text text-anchor="start" x="215.5" y="-462.5" font-family="Helvetica,sans-Serif" font-size="10.00">+</text>
<text text-anchor="start" x="225.5" y="-462.5" font-family="Helvetica,sans-Serif" font-size="10.00">half_cycle_timer</text>
<text text-anchor="start" x="215.5" y="-446.5" font-family="Helvetica,sans-Serif" font-size="10.00">+</text>
<text text-anchor="start" x="225.5" y="-446.5" font-family="Helvetica,sans-Serif" font-size="10.00">startup_counter</text>
<text text-anchor="start" x="215.5" y="-430.5" font-family="Helvetica,sans-Serif" font-size="10.00">+</text>
<text text-anchor="start" x="225.5" y="-430.5" font-family="Helvetica,sans-Serif" font-size="10.00">zero_cross_timer</text>
<text text-anchor="start" x="215.5" y="-414.5" font-family="Helvetica,sans-Serif" font-size="10.00">+</text>
<text text-anchor="start" x="225.5" y="-414.5" font-family="Helvetica,sans-Serif" font-size="10.00">ac_drop_timer</text>
<text text-anchor="start" x="215.5" y="-398.5" font-family="Helvetica,sans-Serif" font-size="10.00">+</text>
<text text-anchor="start" x="225.5" y="-398.5" font-family="Helvetica,sans-Serif" font-size="10.00">vin_present_counter</text>
<text text-anchor="start" x="215.5" y="-382.5" font-family="Helvetica,sans-Serif" font-size="10.00">+</text>
<text text-anchor="start" x="225.5" y="-382.5" font-family="Helvetica,sans-Serif" font-size="10.00">dc_present_counter</text>
<text text-anchor="start" x="215.5" y="-366.5" font-family="Helvetica,sans-Serif" font-size="10.00">+</text>
<text text-anchor="start" x="225.5" y="-366.5" font-family="Helvetica,sans-Serif" font-size="10.00">dc_loss_counter</text>
<text text-anchor="start" x="262" y="-350.5" font-family="Helvetica,sans-Serif" font-size="10.00"> </text>
<polygon fill="#666666" stroke="#666666" points="211.5,-490 211.5,-490 315.5,-490 315.5,-490 211.5,-490"/>
<polygon fill="#666666" stroke="#666666" points="211.5,-362 211.5,-362 223.5,-362 223.5,-362 211.5,-362"/>
<polygon fill="#666666" stroke="#666666" points="223.5,-362 223.5,-362 315.5,-362 315.5,-362 223.5,-362"/>
<polygon fill="none" stroke="#666666" points="211.5,-344 211.5,-508 315.5,-508 315.5,-344 211.5,-344"/>
</a>
</g>
</g>
<!-- Node4&#45;&gt;Node6 -->
<g id="edge7_Node000006_Node000004" class="edge">
<title>Node4&#45;&gt;Node6</title>
<g id="a_edge7_Node000006_Node000004"><a xlink:title=" ">
<path fill="none" stroke="#63b8ff" d="M201.61,-559.51C208.63,-544.47 217.19,-526.14 225.68,-507.97"/>
<polygon fill="none" stroke="#63b8ff" points="198.07,-557.82 197.01,-568.36 204.41,-560.78 198.07,-557.82"/>
</a>
</g>
</g>
<!-- Node7 -->
<g id="Node000007" class="node">
<title>Node7</title>
<g id="a_Node000007"><a xlink:href="a00581.html" target="_top" xlink:title="ADD_SHORT_DESCRIPTION.">
<polygon fill="white" stroke="none" points="403.5,-516 333.5,-516 333.5,-336 403.5,-336 403.5,-516"/>
<text text-anchor="start" x="338.5" y="-502.5" font-family="Helvetica,sans-Serif" font-size="10.00">VACM_VIN_s</text>
<text text-anchor="start" x="339" y="-486.5" font-family="Helvetica,sans-Serif" font-size="10.00">+</text>
<text text-anchor="start" x="350.5" y="-486.5" font-family="Helvetica,sans-Serif" font-size="10.00">ptr_adcbuf</text>
<text text-anchor="start" x="339" y="-470.5" font-family="Helvetica,sans-Serif" font-size="10.00">+</text>
<text text-anchor="start" x="350.5" y="-470.5" font-family="Helvetica,sans-Serif" font-size="10.00">raw</text>
<text text-anchor="start" x="339" y="-454.5" font-family="Helvetica,sans-Serif" font-size="10.00">+</text>
<text text-anchor="start" x="350.5" y="-454.5" font-family="Helvetica,sans-Serif" font-size="10.00">raw_prev</text>
<text text-anchor="start" x="339" y="-438.5" font-family="Helvetica,sans-Serif" font-size="10.00">+</text>
<text text-anchor="start" x="350.5" y="-438.5" font-family="Helvetica,sans-Serif" font-size="10.00">rectified</text>
<text text-anchor="start" x="339" y="-422.5" font-family="Helvetica,sans-Serif" font-size="10.00">+</text>
<text text-anchor="start" x="350.5" y="-422.5" font-family="Helvetica,sans-Serif" font-size="10.00">ptr_offset</text>
<text text-anchor="start" x="339" y="-406.5" font-family="Helvetica,sans-Serif" font-size="10.00">+</text>
<text text-anchor="start" x="350.5" y="-406.5" font-family="Helvetica,sans-Serif" font-size="10.00">avg</text>
<text text-anchor="start" x="339" y="-390.5" font-family="Helvetica,sans-Serif" font-size="10.00">+</text>
<text text-anchor="start" x="350.5" y="-390.5" font-family="Helvetica,sans-Serif" font-size="10.00">avg_prev</text>
<text text-anchor="start" x="339" y="-374.5" font-family="Helvetica,sans-Serif" font-size="10.00">+</text>
<text text-anchor="start" x="350.5" y="-374.5" font-family="Helvetica,sans-Serif" font-size="10.00">avg_sqrd</text>
<text text-anchor="start" x="339" y="-358.5" font-family="Helvetica,sans-Serif" font-size="10.00">+</text>
<text text-anchor="start" x="350.5" y="-358.5" font-family="Helvetica,sans-Serif" font-size="10.00">vloop_ff</text>
<text text-anchor="start" x="367" y="-342.5" font-family="Helvetica,sans-Serif" font-size="10.00"> </text>
<polygon fill="#666666" stroke="#666666" points="333.5,-498 333.5,-498 403.5,-498 403.5,-498 333.5,-498"/>
<polygon fill="#666666" stroke="#666666" points="333.5,-354 333.5,-354 348.5,-354 348.5,-354 333.5,-354"/>
<polygon fill="#666666" stroke="#666666" points="348.5,-354 348.5,-354 403.5,-354 403.5,-354 348.5,-354"/>
<polygon fill="none" stroke="#666666" points="333.5,-336 333.5,-516 403.5,-516 403.5,-336 333.5,-336"/>
</a>
</g>
</g>
<!-- Node4&#45;&gt;Node7 -->
<g id="edge9_Node000007_Node000004" class="edge">
<title>Node4&#45;&gt;Node7</title>
<g id="a_edge9_Node000007_Node000004"><a xlink:title=" ">
<path fill="none" stroke="#63b8ff" d="M251.7,-576.05C277.09,-566.43 304.69,-552.26 324.5,-532 329.27,-527.12 333.55,-521.65 337.39,-515.84"/>
<polygon fill="none" stroke="#63b8ff" points="250.58,-573.09 242.36,-579.77 252.96,-579.68 250.58,-573.09"/>
</a>
</g>
</g>
<!-- Node5&#45;&gt;Node2 -->
<g id="edge4_Node000002_Node000005" class="edge">
<title>Node5&#45;&gt;Node2</title>
<g id="a_edge4_Node000002_Node000005"><a xlink:title=" ">
<path fill="none" stroke="#63b8ff" d="M193.47,-334.83C196.4,-329.74 199.42,-324.76 202.5,-320 211.03,-306.81 221.65,-293.34 231.62,-281.62"/>
<polygon fill="none" stroke="#63b8ff" points="231.68,-281.56 232.6,-274.4 239.56,-272.51 238.63,-279.66 231.68,-281.56"/>
</a>
</g>
<text text-anchor="middle" x="238" y="-292.5" font-family="Helvetica,sans-Serif" font-size="10.00" fill="grey"> +fault</text>
</g>
<!-- Node6&#45;&gt;Node2 -->
<g id="edge6_Node000002_Node000006" class="edge">
<title>Node6&#45;&gt;Node2</title>
<g id="a_edge6_Node000002_Node000006"><a xlink:title=" ">
<path fill="none" stroke="#63b8ff" d="M263.5,-344.07C263.5,-323.35 263.5,-302.03 263.5,-284.68"/>
<polygon fill="none" stroke="#63b8ff" points="263.5,-284.59 259.5,-278.59 263.5,-272.59 267.5,-278.59 263.5,-284.59"/>
</a>
</g>
<text text-anchor="middle" x="287.88" y="-292.5" font-family="Helvetica,sans-Serif" font-size="10.00" fill="grey"> +timebase</text>
</g>
<!-- Node7&#45;&gt;Node2 -->
<g id="edge8_Node000002_Node000007" class="edge">
<title>Node7&#45;&gt;Node2</title>
<g id="a_edge8_Node000002_Node000007"><a xlink:title=" ">
<path fill="none" stroke="#63b8ff" d="M341.95,-336.22C335.04,-320.05 326.61,-303.92 316.5,-290 311.31,-282.85 304.64,-276.22 297.8,-270.41"/>
<polygon fill="none" stroke="#63b8ff" points="297.93,-270.51 290.74,-269.93 288.51,-263.08 295.7,-263.66 297.93,-270.51"/>
</a>
</g>
<text text-anchor="middle" x="332.62" y="-292.5" font-family="Helvetica,sans-Serif" font-size="10.00" fill="grey"> +vin</text>
</g>
<!-- Node8 -->
<g id="Node000008" class="node">
<title>Node8</title>
<g id="a_Node000008"><a xlink:href="a00585.html" target="_top" xlink:title=" ">
<polygon fill="white" stroke="none" points="567,-468 422,-468 422,-384 567,-384 567,-468"/>
<text text-anchor="start" x="427" y="-454.5" font-family="Helvetica,sans-Serif" font-size="10.00">VACM_AVGCALC_BUFFER_s</text>
<text text-anchor="start" x="443" y="-438.5" font-family="Helvetica,sans-Serif" font-size="10.00">+</text>
<text text-anchor="start" x="470" y="-438.5" font-family="Helvetica,sans-Serif" font-size="10.00">counter</text>
<text text-anchor="start" x="443" y="-422.5" font-family="Helvetica,sans-Serif" font-size="10.00">+</text>
<text text-anchor="start" x="470" y="-422.5" font-family="Helvetica,sans-Serif" font-size="10.00">counter_reset</text>
<text text-anchor="start" x="443" y="-406.5" font-family="Helvetica,sans-Serif" font-size="10.00">+</text>
<text text-anchor="start" x="470" y="-406.5" font-family="Helvetica,sans-Serif" font-size="10.00">acc</text>
<text text-anchor="start" x="493" y="-390.5" font-family="Helvetica,sans-Serif" font-size="10.00"> </text>
<polygon fill="#666666" stroke="#666666" points="422,-450 422,-450 567,-450 567,-450 422,-450"/>
<polygon fill="#666666" stroke="#666666" points="422,-402 422,-402 468,-402 468,-402 422,-402"/>
<polygon fill="#666666" stroke="#666666" points="468,-402 468,-402 567,-402 567,-402 468,-402"/>
<polygon fill="none" stroke="#666666" points="422,-384 422,-468 567,-468 567,-384 422,-384"/>
</a>
</g>
</g>
<!-- Node8&#45;&gt;Node2 -->
<g id="edge10_Node000002_Node000008" class="edge">
<title>Node8&#45;&gt;Node2</title>
<g id="a_edge10_Node000002_Node000008"><a xlink:title=" ">
<path fill="none" stroke="#63b8ff" d="M469.16,-384.2C454.54,-363.07 434.68,-338 412.5,-320 378.24,-292.2 331.64,-271.53 299.73,-259.42"/>
<polygon fill="none" stroke="#63b8ff" points="299.96,-259.5 292.95,-261.18 288.7,-255.36 295.72,-253.68 299.96,-259.5"/>
</a>
</g>
<text text-anchor="middle" x="421.38" y="-292.5" font-family="Helvetica,sans-Serif" font-size="10.00" fill="grey"> +avgcalc_buffer</text>
</g>
</g>
</svg>
