<?xml version="1.0" encoding="UTF-8" standalone="no"?>
<!DOCTYPE svg PUBLIC "-//W3C//DTD SVG 1.1//EN"
 "http://www.w3.org/Graphics/SVG/1.1/DTD/svg11.dtd">
<!-- Generated by graphviz version 2.44.1 (20200629.0846)
 -->
<!-- Title: Power Control Pages: 1 -->
<svg width="363pt" height="224pt"
 viewBox="0.00 0.00 363.00 223.50" xmlns="http://www.w3.org/2000/svg" xmlns:xlink="http://www.w3.org/1999/xlink">
<g id="graph0" class="graph" transform="scale(1 1) rotate(0) translate(4 219.5)">
<title>Power Control</title>
<!-- Node3 -->
<g id="Node000003" class="node">
<title>Node3</title>
<g id="a_Node000003"><a xlink:href="a00433.html" target="_top" xlink:title="Power controller drv_controller.">
<polygon fill="white" stroke="#666666" points="342.5,-215.5 229.5,-215.5 229.5,-185.5 342.5,-185.5 342.5,-215.5"/>
<text text-anchor="start" x="237.5" y="-203.5" font-family="Helvetica,sans-Serif" font-size="10.00">Power Controller driver</text>
<text text-anchor="middle" x="286" y="-192.5" font-family="Helvetica,sans-Serif" font-size="10.00"> files</text>
</a>
</g>
</g>
<!-- Node5 -->
<g id="Node000005" class="node">
<title>Node5</title>
<g id="a_Node000005"><a xlink:href="a00435.html" target="_top" xlink:title="Power controller Application Handler.">
<polygon fill="white" stroke="#666666" points="334,-167 238,-167 238,-148 334,-148 334,-167"/>
<text text-anchor="middle" x="286" y="-155" font-family="Helvetica,sans-Serif" font-size="10.00">Power Control app</text>
</a>
</g>
</g>
<!-- Node4 -->
<g id="Node000004" class="node">
<title>Node4</title>
<g id="a_Node000004"><a xlink:href="a00434.html" target="_top" xlink:title="Power controller misc app.">
<polygon fill="white" stroke="#666666" points="346,-130 226,-130 226,-111 346,-111 346,-130"/>
<text text-anchor="middle" x="286" y="-118" font-family="Helvetica,sans-Serif" font-size="10.00">Power Control misc app</text>
</a>
</g>
</g>
<!-- Node6 -->
<g id="Node000006" class="node">
<title>Node6</title>
<g id="a_Node000006"><a xlink:href="a00436.html" target="_top" xlink:title="Power controller Exposing DCDT assembly functionality to the C code.">
<polygon fill="white" stroke="#666666" points="355,-93 217,-93 217,-74 355,-74 355,-93"/>
<text text-anchor="middle" x="286" y="-81" font-family="Helvetica,sans-Serif" font-size="10.00">Power Control Compensator</text>
</a>
</g>
</g>
<!-- Node7 -->
<g id="Node000007" class="node">
<title>Node7</title>
<g id="a_Node000007"><a xlink:href="a00437.html" target="_top" xlink:title="Power controller type defintion.">
<polygon fill="white" stroke="#666666" points="342,-56 230,-56 230,-37 342,-37 342,-56"/>
<text text-anchor="middle" x="286" y="-44" font-family="Helvetica,sans-Serif" font-size="10.00">Power Control typedef</text>
</a>
</g>
</g>
<!-- Node8 -->
<g id="Node000008" class="node">
<title>Node8</title>
<g id="a_Node000008"><a xlink:href="a00438.html" target="_top" xlink:title="Contains the control loop configuration and initialization functions.">
<polygon fill="white" stroke="#666666" points="351.5,-19 220.5,-19 220.5,0 351.5,0 351.5,-19"/>
<text text-anchor="middle" x="286" y="-7" font-family="Helvetica,sans-Serif" font-size="10.00">Control Loop Configuration</text>
</a>
</g>
</g>
<!-- Node2 -->
<g id="Node000002" class="node">
<title>Node2</title>
<g id="a_Node000002"><a xlink:href="a00428.html" target="_top" xlink:title="secondary Driver Layer">
<polygon fill="white" stroke="#666666" points="68,-111 0,-111 0,-92 68,-92 68,-111"/>
<text text-anchor="middle" x="34" y="-99" font-family="Helvetica,sans-Serif" font-size="10.00">Driver Layer</text>
</a>
</g>
</g>
<!-- Node1 -->
<g id="Node000001" class="node">
<title>Node1</title>
<g id="a_Node000001"><a xlink:title="The Power Control layer contains the state machine managing the power converter.">
<polygon fill="#999999" stroke="#666666" points="181,-111 104,-111 104,-92 181,-92 181,-111"/>
<text text-anchor="middle" x="142.5" y="-99" font-family="Helvetica,sans-Serif" font-size="10.00">Power Control</text>
</a>
</g>
</g>
<!-- Node2&#45;&gt;Node1 -->
<g id="edge1" class="edge">
<title>Node2&#45;&gt;Node1</title>
<path fill="none" stroke="black" d="M78.26,-101.5C86.77,-101.5 95.64,-101.5 103.95,-101.5"/>
<polygon fill="black" stroke="black" points="78.11,-98 68.11,-101.5 78.11,-105 78.11,-98"/>
</g>
<!-- Node1&#45;&gt;Node3 -->
<g id="edge2" class="edge">
<title>Node1&#45;&gt;Node3</title>
<path fill="none" stroke="black" d="M156.79,-119.13C170.29,-135.96 192.65,-160.98 217,-176.5 222.28,-179.86 228.09,-182.83 234.02,-185.42"/>
<polygon fill="black" stroke="black" points="159.48,-116.89 150.57,-111.17 153.97,-121.2 159.48,-116.89"/>
</g>
<!-- Node1&#45;&gt;Node5 -->
<g id="edge4" class="edge">
<title>Node1&#45;&gt;Node5</title>
<path fill="none" stroke="black" d="M168.34,-116.07C182.29,-123.81 200.23,-133.03 217,-139.5 225.32,-142.71 234.42,-145.55 243.19,-147.97"/>
<polygon fill="black" stroke="black" points="169.8,-112.88 159.38,-111 166.36,-118.97 169.8,-112.88"/>
</g>
<!-- Node1&#45;&gt;Node4 -->
<g id="edge3" class="edge">
<title>Node1&#45;&gt;Node4</title>
<path fill="none" stroke="black" d="M191.04,-107.88C202.23,-109.39 214.28,-111 225.91,-112.57"/>
<polygon fill="black" stroke="black" points="191.42,-104.4 181.05,-106.54 190.49,-111.34 191.42,-104.4"/>
</g>
<!-- Node1&#45;&gt;Node6 -->
<g id="edge5" class="edge">
<title>Node1&#45;&gt;Node6</title>
<path fill="none" stroke="black" d="M191.22,-95.43C199.48,-94.38 208.22,-93.27 216.9,-92.16"/>
<polygon fill="black" stroke="black" points="190.53,-91.99 181.05,-96.72 191.41,-98.93 190.53,-91.99"/>
</g>
<!-- Node1&#45;&gt;Node7 -->
<g id="edge6" class="edge">
<title>Node1&#45;&gt;Node7</title>
<path fill="none" stroke="black" d="M168.93,-87.05C182.82,-79.59 200.5,-70.76 217,-64.5 225.34,-61.34 234.45,-58.52 243.21,-56.1"/>
<polygon fill="black" stroke="black" points="167.07,-84.08 159.98,-91.96 170.43,-90.22 167.07,-84.08"/>
</g>
<!-- Node1&#45;&gt;Node8 -->
<g id="edge7" class="edge">
<title>Node1&#45;&gt;Node8</title>
<path fill="none" stroke="black" d="M156.36,-83.96C169.69,-67.03 192.03,-41.92 217,-27.5 222.92,-24.08 229.51,-21.29 236.18,-19.03"/>
<polygon fill="black" stroke="black" points="153.54,-81.89 150.25,-91.96 159.1,-86.14 153.54,-81.89"/>
</g>
</g>
</svg>
