<?xml version="1.0" encoding="UTF-8" standalone="no"?>
<!DOCTYPE svg PUBLIC "-//W3C//DTD SVG 1.1//EN"
 "http://www.w3.org/Graphics/SVG/1.1/DTD/svg11.dtd">
<!-- Generated by graphviz version 2.44.1 (20200629.0846)
 -->
<!-- Title: PWM_OverrideLowDisable Pages: 1 -->
<svg width="688pt" height="124pt"
 viewBox="0.00 0.00 688.00 123.50" xmlns="http://www.w3.org/2000/svg" xmlns:xlink="http://www.w3.org/1999/xlink">
<g id="graph0" class="graph" transform="scale(1 1) rotate(0) translate(4 119.5)">
<title>PWM_OverrideLowDisable</title>
<!-- Node1 -->
<g id="Node000001" class="node">
<title>Node1</title>
<g id="a_Node000001"><a xlink:title="This inline function disables PWM override on PWML output for specific PWM generator selected by the ...">
<polygon fill="#999999" stroke="#666666" points="680,-72.5 549,-72.5 549,-53.5 680,-53.5 680,-72.5"/>
<text text-anchor="middle" x="614.5" y="-60.5" font-family="Helvetica,sans-Serif" font-size="10.00">PWM_OverrideLowDisable</text>
</a>
</g>
</g>
<!-- Node2 -->
<g id="Node000002" class="node">
<title>Node2</title>
<g id="a_Node000002"><a xlink:href="a00371.html#a69847930c99b34bceb7165143cd28b92" target="_top" xlink:title=" ">
<polygon fill="white" stroke="#666666" points="489,-115.5 427,-115.5 427,-96.5 489,-96.5 489,-115.5"/>
<text text-anchor="middle" x="458" y="-103.5" font-family="Helvetica,sans-Serif" font-size="10.00">CCM_PHx</text>
</a>
</g>
</g>
<!-- Node1&#45;&gt;Node2 -->
<g id="edge1_Node000001_Node000002" class="edge">
<title>Node1&#45;&gt;Node2</title>
<g id="a_edge1_Node000001_Node000002"><a xlink:title=" ">
<path fill="none" stroke="#63b8ff" d="M569.32,-75.3C543.6,-82.45 511.84,-91.29 489.02,-97.65"/>
<polygon fill="#63b8ff" stroke="#63b8ff" points="570.52,-78.6 579.21,-72.54 568.64,-71.85 570.52,-78.6"/>
</a>
</g>
</g>
<!-- Node8 -->
<g id="Node000008" class="node">
<title>Node8</title>
<g id="a_Node000008"><a xlink:href="a00371.html#ad3476b7cd98e6a22a65e1d89b7a59ea5" target="_top" xlink:title=" ">
<polygon fill="white" stroke="#666666" points="513,-78 403,-78 403,-48 513,-48 513,-78"/>
<text text-anchor="start" x="411" y="-66" font-family="Helvetica,sans-Serif" font-size="10.00">SoftstartAfterZC_PHx</text>
<text text-anchor="middle" x="458" y="-55" font-family="Helvetica,sans-Serif" font-size="10.00">_GTIMode</text>
</a>
</g>
</g>
<!-- Node1&#45;&gt;Node8 -->
<g id="edge7_Node000001_Node000008" class="edge">
<title>Node1&#45;&gt;Node8</title>
<g id="a_edge7_Node000001_Node000008"><a xlink:title=" ">
<path fill="none" stroke="#63b8ff" d="M538.76,-63C530.1,-63 521.4,-63 513.09,-63"/>
<polygon fill="#63b8ff" stroke="#63b8ff" points="538.87,-66.5 548.87,-63 538.87,-59.5 538.87,-66.5"/>
</a>
</g>
</g>
<!-- Node9 -->
<g id="Node000009" class="node">
<title>Node9</title>
<g id="a_Node000009"><a xlink:href="a00371.html#a3e7091905b384bca668f6f12a50834f4" target="_top" xlink:title=" ">
<polygon fill="white" stroke="#666666" points="513,-30 403,-30 403,0 513,0 513,-30"/>
<text text-anchor="start" x="411" y="-18" font-family="Helvetica,sans-Serif" font-size="10.00">SoftstartAfterZC_PHx</text>
<text text-anchor="middle" x="458" y="-7" font-family="Helvetica,sans-Serif" font-size="10.00">_PFCMode</text>
</a>
</g>
</g>
<!-- Node1&#45;&gt;Node9 -->
<g id="edge9_Node000001_Node000009" class="edge">
<title>Node1&#45;&gt;Node9</title>
<g id="a_edge9_Node000001_Node000009"><a xlink:title=" ">
<path fill="none" stroke="#63b8ff" d="M572.85,-50.37C552.81,-44.14 528.49,-36.59 507.48,-30.06"/>
<polygon fill="#63b8ff" stroke="#63b8ff" points="572.02,-53.78 582.61,-53.4 574.09,-47.09 572.02,-53.78"/>
</a>
</g>
</g>
<!-- Node3 -->
<g id="Node000003" class="node">
<title>Node3</title>
<g id="a_Node000003"><a xlink:href="a00371.html#a647fd6dacbfbcebe49cc34111a01493b" target="_top" xlink:title=" ">
<polygon fill="white" stroke="#666666" points="367,-72.5 293,-72.5 293,-53.5 367,-53.5 367,-72.5"/>
<text text-anchor="middle" x="330" y="-60.5" font-family="Helvetica,sans-Serif" font-size="10.00">Handler_PHx</text>
</a>
</g>
</g>
<!-- Node2&#45;&gt;Node3 -->
<g id="edge2_Node000002_Node000003" class="edge">
<title>Node2&#45;&gt;Node3</title>
<g id="a_edge2_Node000002_Node000003"><a xlink:title=" ">
<path fill="none" stroke="#63b8ff" d="M419.56,-93.22C400.1,-86.58 376.73,-78.61 358.89,-72.52"/>
<polygon fill="#63b8ff" stroke="#63b8ff" points="418.44,-96.54 429.04,-96.46 420.7,-89.91 418.44,-96.54"/>
</a>
</g>
</g>
<!-- Node4 -->
<g id="Node000004" class="node">
<title>Node4</title>
<g id="a_Node000004"><a xlink:href="a00371.html#aa7b8e2dc355948aa24cf22ca82f9e805" target="_top" xlink:title=" ">
<polygon fill="white" stroke="#666666" points="257,-91.5 132,-91.5 132,-72.5 257,-72.5 257,-91.5"/>
<text text-anchor="middle" x="194.5" y="-79.5" font-family="Helvetica,sans-Serif" font-size="10.00">Application_handler_PH1</text>
</a>
</g>
</g>
<!-- Node3&#45;&gt;Node4 -->
<g id="edge3_Node000003_Node000004" class="edge">
<title>Node3&#45;&gt;Node4</title>
<g id="a_edge3_Node000003_Node000004"><a xlink:title=" ">
<path fill="none" stroke="#63b8ff" d="M282.7,-69.59C274.45,-70.76 265.73,-72.01 257.12,-73.23"/>
<polygon fill="#63b8ff" stroke="#63b8ff" points="283.47,-73.02 292.87,-68.14 282.48,-66.09 283.47,-73.02"/>
</a>
</g>
</g>
<!-- Node6 -->
<g id="Node000006" class="node">
<title>Node6</title>
<g id="a_Node000006"><a xlink:href="a00371.html#a87fa9190951df7c866d828b8ad7b526b" target="_top" xlink:title=" ">
<polygon fill="white" stroke="#666666" points="257,-54.5 132,-54.5 132,-35.5 257,-35.5 257,-54.5"/>
<text text-anchor="middle" x="194.5" y="-42.5" font-family="Helvetica,sans-Serif" font-size="10.00">Application_handler_PH2</text>
</a>
</g>
</g>
<!-- Node3&#45;&gt;Node6 -->
<g id="edge5_Node000003_Node000006" class="edge">
<title>Node3&#45;&gt;Node6</title>
<g id="a_edge5_Node000003_Node000006"><a xlink:title=" ">
<path fill="none" stroke="#63b8ff" d="M282.7,-56.76C274.45,-55.64 265.73,-54.47 257.12,-53.31"/>
<polygon fill="#63b8ff" stroke="#63b8ff" points="282.49,-60.26 292.87,-58.13 283.43,-53.32 282.49,-60.26"/>
</a>
</g>
</g>
<!-- Node5 -->
<g id="Node000005" class="node">
<title>Node5</title>
<g id="a_Node000005"><a xlink:href="a00347.html#a968747854ba14331aa9f85784178d0da" target="_top" xlink:title=" ">
<polygon fill="white" stroke="#666666" points="96,-91.5 0,-91.5 0,-72.5 96,-72.5 96,-91.5"/>
<text text-anchor="middle" x="48" y="-79.5" font-family="Helvetica,sans-Serif" font-size="10.00">_ADCAN0Interrupt</text>
</a>
</g>
</g>
<!-- Node4&#45;&gt;Node5 -->
<g id="edge4_Node000004_Node000005" class="edge">
<title>Node4&#45;&gt;Node5</title>
<g id="a_edge4_Node000004_Node000005"><a xlink:title=" ">
<path fill="none" stroke="#63b8ff" d="M121.64,-82C112.96,-82 104.26,-82 96.07,-82"/>
<polygon fill="#63b8ff" stroke="#63b8ff" points="121.8,-85.5 131.8,-82 121.8,-78.5 121.8,-85.5"/>
</a>
</g>
</g>
<!-- Node7 -->
<g id="Node000007" class="node">
<title>Node7</title>
<g id="a_Node000007"><a xlink:href="a00347.html#a6ac2591aa2e32874156ad3f8bf477d2f" target="_top" xlink:title=" ">
<polygon fill="white" stroke="#666666" points="96,-54.5 0,-54.5 0,-35.5 96,-35.5 96,-54.5"/>
<text text-anchor="middle" x="48" y="-42.5" font-family="Helvetica,sans-Serif" font-size="10.00">_ADCAN1Interrupt</text>
</a>
</g>
</g>
<!-- Node6&#45;&gt;Node7 -->
<g id="edge6_Node000006_Node000007" class="edge">
<title>Node6&#45;&gt;Node7</title>
<g id="a_edge6_Node000006_Node000007"><a xlink:title=" ">
<path fill="none" stroke="#63b8ff" d="M121.64,-45C112.96,-45 104.26,-45 96.07,-45"/>
<polygon fill="#63b8ff" stroke="#63b8ff" points="121.8,-48.5 131.8,-45 121.8,-41.5 121.8,-48.5"/>
</a>
</g>
</g>
<!-- Node8&#45;&gt;Node3 -->
<g id="edge8_Node000008_Node000003" class="edge">
<title>Node8&#45;&gt;Node3</title>
<g id="a_edge8_Node000008_Node000003"><a xlink:title=" ">
<path fill="none" stroke="#63b8ff" d="M392.64,-63C383.94,-63 375.27,-63 367.3,-63"/>
<polygon fill="#63b8ff" stroke="#63b8ff" points="392.83,-66.5 402.83,-63 392.83,-59.5 392.83,-66.5"/>
</a>
</g>
</g>
<!-- Node9&#45;&gt;Node3 -->
<g id="edge10_Node000009_Node000003" class="edge">
<title>Node9&#45;&gt;Node3</title>
<g id="a_edge10_Node000009_Node000003"><a xlink:title=" ">
<path fill="none" stroke="#63b8ff" d="M407.84,-33.73C390.14,-40.47 370.9,-47.8 356.11,-53.44"/>
<polygon fill="#63b8ff" stroke="#63b8ff" points="409.38,-36.89 417.48,-30.06 406.89,-30.35 409.38,-36.89"/>
</a>
</g>
</g>
</g>
</svg>
