<?xml version="1.0" encoding="UTF-8" standalone="no"?>
<!DOCTYPE svg PUBLIC "-//W3C//DTD SVG 1.1//EN"
 "http://www.w3.org/Graphics/SVG/1.1/DTD/svg11.dtd">
<!-- Generated by graphviz version 2.44.1 (20200629.0846)
 -->
<!-- Title: MPLABX MCC Melody Code Generator Pages: 1 -->
<!--zoomable 656 -->

<svg id="main" version="1.1" xmlns="http://www.w3.org/2000/svg" xmlns:xlink="http://www.w3.org/1999/xlink" xml:space="preserve" onload="init(evt)">

<style type="text/css"><![CDATA[
.node, .edge {opacity: 0.7;}
.node.selected, .edge.selected {opacity: 1;}
.edge:hover path { stroke: red; }
.edge:hover polygon { stroke: red; fill: red; }
]]></style>

<defs>
  <circle id="rim" cx="0" cy="0" r="7"/>
  <circle id="rim2" cx="0" cy="0" r="3.5"/>
  <g id="zoomPlus">
    <use xlink:href="#rim" fill="#404040"><set attributeName="fill" to="#808080" begin="zoomplus.mouseover" end="zoomplus.mouseout"/></use>
    <path d="M-4,0h8M0,-4v8" fill="none" stroke="white" stroke-width="1.5" pointer-events="none"/>
  </g>
  <g id="zoomMin">
    <use xlink:href="#rim" fill="#404040"><set attributeName="fill" to="#808080" begin="zoomminus.mouseover" end="zoomminus.mouseout"/></use>
    <path d="M-4,0h8" fill="none" stroke="white" stroke-width="1.5" pointer-events="none"/>
  </g>
  <g id="arrowUp" transform="translate(30 24)">
    <use xlink:href="#rim"/>
    <path pointer-events="none" fill="none" stroke="white" stroke-width="1.5" d="M0,-3.0v7 M-2.5,-0.5L0,-3.0L2.5,-0.5"/>
  </g>
  <g id="arrowRight" transform="rotate(90) translate(36 -43)">
    <use xlink:href="#rim"/>
    <path pointer-events="none" fill="none" stroke="white" stroke-width="1.5" d="M0,-3.0v7 M-2.5,-0.5L0,-3.0L2.5,-0.5"/>
  </g>
  <g id="arrowDown" transform="rotate(180) translate(-30 -48)">
    <use xlink:href="#rim"/>
    <path pointer-events="none" fill="none" stroke="white" stroke-width="1.5" d="M0,-3.0v7 M-2.5,-0.5L0,-3.0L2.5,-0.5"/>
  </g>
  <g id="arrowLeft" transform="rotate(270) translate(-36 17)">
    <use xlink:href="#rim"/>
    <path pointer-events="none" fill="none" stroke="white" stroke-width="1.5" d="M0,-3.0v7 M-2.5,-0.5L0,-3.0L2.5,-0.5"/>
  </g>
  <g id="resetDef">
    <use xlink:href="#rim2" fill="#404040"><set attributeName="fill" to="#808080" begin="reset.mouseover" end="reset.mouseout"/></use>
  </g>
</defs>
<script type="application/ecmascript">
var viewWidth = 269;
var viewHeight = 656;
var sectionId = 'dynsection-0';
</script>
<script type="application/ecmascript" xlink:href="svg.min.js"/>
<svg id="graph" class="graph">
<g id="viewport">
<title>MPLABX MCC Melody Code Generator</title>
<!-- Node2 -->
<g id="Node000002" class="node">
<title>Node2</title>
<g id="a_Node000002"><a xlink:href="a00404.html" target="_top" xlink:title="High&#45;Speed, 12&#45;Bit Multiple SARs Analog&#45;to&#45;Digital Converter driver using dsPIC MCUs.">
<polygon fill="white" stroke="#666666" points="259.5,-648 152.5,-648 152.5,-629 259.5,-629 259.5,-648"/>
<text text-anchor="middle" x="206" y="-636" font-family="Helvetica,sans-Serif" font-size="10.00">ADC Multicore Driver</text>
</a>
</g>
</g>
<!-- Node3 -->
<g id="Node000003" class="node">
<title>Node3</title>
<g id="a_Node000003"><a xlink:href="a00405.html" target="_top" xlink:title="CAN FD Driver using dsPIC MCUs.">
<polygon fill="white" stroke="#666666" points="246,-611 166,-611 166,-592 246,-592 246,-611"/>
<text text-anchor="middle" x="206" y="-599" font-family="Helvetica,sans-Serif" font-size="10.00">CAN FD Driver</text>
</a>
</g>
</g>
<!-- Node12 -->
<g id="Node000012" class="node">
<title>Node12</title>
<g id="a_Node000012"><a xlink:href="a00414.html" target="_top" xlink:title="Clock configurator driver for System and Peripheral Clock using dsPIC MCUs.">
<polygon fill="white" stroke="#666666" points="240,-574 172,-574 172,-555 240,-555 240,-574"/>
<text text-anchor="middle" x="206" y="-562" font-family="Helvetica,sans-Serif" font-size="10.00">Clock Driver</text>
</a>
</g>
</g>
<!-- Node4 -->
<g id="Node000004" class="node">
<title>Node4</title>
<g id="a_Node000004"><a xlink:href="a00406.html" target="_top" xlink:title="High Speed Analog Comparator with Slope Compensation DAC driver using dsPIC MCUs.">
<polygon fill="white" stroke="#666666" points="250.5,-537 161.5,-537 161.5,-518 250.5,-518 250.5,-537"/>
<text text-anchor="middle" x="206" y="-525" font-family="Helvetica,sans-Serif" font-size="10.00">CMP DAC Driver</text>
</a>
</g>
</g>
<!-- Node16 -->
<g id="Node000016" class="node">
<title>Node16</title>
<g id="a_Node000016"><a xlink:href="a00418.html" target="_top" xlink:title="Direct Memory Access driver to service high data throughput peripherals allowing them to access data ...">
<polygon fill="white" stroke="#666666" points="238.5,-500 173.5,-500 173.5,-481 238.5,-481 238.5,-500"/>
<text text-anchor="middle" x="206" y="-488" font-family="Helvetica,sans-Serif" font-size="10.00">DMA Driver</text>
</a>
</g>
</g>
<!-- Node6 -->
<g id="Node000006" class="node">
<title>Node6</title>
<g id="a_Node000006"><a xlink:href="a00408.html" target="_top" xlink:title="Deadman Timer (DMT) driver using dsPIC MCUs. The functionality is to interrupt the processor in the e...">
<polygon fill="white" stroke="#666666" points="238,-463 174,-463 174,-444 238,-444 238,-463"/>
<text text-anchor="middle" x="206" y="-451" font-family="Helvetica,sans-Serif" font-size="10.00">DMT Driver</text>
</a>
</g>
</g>
<!-- Node7 -->
<g id="Node000007" class="node">
<title>Node7</title>
<g id="a_Node000007"><a xlink:href="a00409.html" target="_top" xlink:title="Interrupt Priority configuration driver using dsPIC MCUs.">
<polygon fill="white" stroke="#666666" points="245.5,-426 166.5,-426 166.5,-407 245.5,-407 245.5,-426"/>
<text text-anchor="middle" x="206" y="-414" font-family="Helvetica,sans-Serif" font-size="10.00">Interrupt Driver</text>
</a>
</g>
</g>
<!-- Node18 -->
<g id="Node000018" class="node">
<title>Node18</title>
<g id="a_Node000018"><a xlink:href="a00420.html" target="_top" xlink:title="This is the generated driver interface file for the MAIN_CORE driver.">
<polygon fill="white" stroke="#666666" points="248.5,-389 163.5,-389 163.5,-370 248.5,-370 248.5,-389"/>
<text text-anchor="middle" x="206" y="-377" font-family="Helvetica,sans-Serif" font-size="10.00">MSI&#45;Main Driver</text>
</a>
</g>
</g>
<!-- Node1 -->
<g id="Node000001" class="node">
<title>Node1</title>
<g id="a_Node000001"><a xlink:title="Contains all the module generated by MCC for this application.">
<polygon fill="#999999" stroke="#666666" points="115,-338.5 0,-338.5 0,-308.5 115,-308.5 115,-338.5"/>
<text text-anchor="start" x="8" y="-326.5" font-family="Helvetica,sans-Serif" font-size="10.00">MPLABX MCC Melody</text>
<text text-anchor="middle" x="57.5" y="-315.5" font-family="Helvetica,sans-Serif" font-size="10.00"> Code Generator</text>
</a>
</g>
</g>
<!-- Node1&#45;&gt;Node2 -->
<g id="edge1" class="edge">
<title>Node1&#45;&gt;Node2</title>
<path fill="none" stroke="black" d="M58.98,-348.71C61.44,-405.27 75.33,-543.31 151,-620.5 154.32,-623.89 158.29,-626.64 162.56,-628.87"/>
<polygon fill="black" stroke="black" points="62.47,-348.4 58.63,-338.53 55.48,-348.65 62.47,-348.4"/>
</g>
<!-- Node1&#45;&gt;Node3 -->
<g id="edge2" class="edge">
<title>Node1&#45;&gt;Node3</title>
<path fill="none" stroke="black" d="M60.3,-348.73C65.32,-400.15 83.9,-517.73 151,-583.5 155.23,-587.65 160.45,-590.84 165.95,-593.3"/>
<polygon fill="black" stroke="black" points="63.77,-348.18 59.4,-338.53 56.79,-348.8 63.77,-348.18"/>
</g>
<!-- Node1&#45;&gt;Node12 -->
<g id="edge11" class="edge">
<title>Node1&#45;&gt;Node12</title>
<path fill="none" stroke="black" d="M62.01,-348.65C69.71,-394.49 92.35,-491.9 151,-546.5 156.79,-551.89 164.23,-555.66 171.73,-558.31"/>
<polygon fill="black" stroke="black" points="65.45,-348 60.43,-338.67 58.54,-349.1 65.45,-348"/>
</g>
<!-- Node1&#45;&gt;Node4 -->
<g id="edge3" class="edge">
<title>Node1&#45;&gt;Node4</title>
<path fill="none" stroke="black" d="M64.35,-348.66C74.88,-388.44 100.76,-465.83 151,-509.5 154.95,-512.94 159.58,-515.72 164.44,-517.98"/>
<polygon fill="black" stroke="black" points="67.68,-347.55 61.83,-338.72 60.9,-349.27 67.68,-347.55"/>
</g>
<!-- Node1&#45;&gt;Node16 -->
<g id="edge15" class="edge">
<title>Node1&#45;&gt;Node16</title>
<path fill="none" stroke="black" d="M67.47,-347.92C80.77,-380.84 108.77,-439.15 151,-472.5 157.51,-477.64 165.57,-481.35 173.45,-484.01"/>
<polygon fill="black" stroke="black" points="70.72,-346.62 63.82,-338.58 64.2,-349.17 70.72,-346.62"/>
</g>
<!-- Node1&#45;&gt;Node6 -->
<g id="edge5" class="edge">
<title>Node1&#45;&gt;Node6</title>
<path fill="none" stroke="black" d="M72.57,-347.49C88.57,-372.78 116.92,-412.13 151,-435.5 157.85,-440.19 166.01,-443.75 173.9,-446.4"/>
<polygon fill="black" stroke="black" points="75.48,-345.54 67.25,-338.87 69.52,-349.22 75.48,-345.54"/>
</g>
<!-- Node1&#45;&gt;Node7 -->
<g id="edge6" class="edge">
<title>Node1&#45;&gt;Node7</title>
<path fill="none" stroke="black" d="M81.15,-345.8C98.91,-362.26 124.9,-384.19 151,-398.5 156.98,-401.78 163.66,-404.6 170.22,-406.97"/>
<polygon fill="black" stroke="black" points="83.27,-342.99 73.6,-338.67 78.47,-348.08 83.27,-342.99"/>
</g>
<!-- Node1&#45;&gt;Node18 -->
<g id="edge17" class="edge">
<title>Node1&#45;&gt;Node18</title>
<path fill="none" stroke="black" d="M103.05,-342.52C118.18,-348.79 135.25,-355.65 151,-361.5 158.78,-364.39 167.27,-367.32 175.16,-369.96"/>
<polygon fill="black" stroke="black" points="103.99,-339.12 93.42,-338.5 101.3,-345.58 103.99,-339.12"/>
</g>
<!-- Node9 -->
<g id="Node000009" class="node">
<title>Node9</title>
<g id="a_Node000009"><a xlink:href="a00411.html" target="_top" xlink:title="The Pin Driver directs the operation and function of the selected device pins using dsPIC MCUs.">
<polygon fill="white" stroke="#666666" points="237.5,-352 174.5,-352 174.5,-333 237.5,-333 237.5,-352"/>
<text text-anchor="middle" x="206" y="-340" font-family="Helvetica,sans-Serif" font-size="10.00">Pins Driver</text>
</a>
</g>
</g>
<!-- Node1&#45;&gt;Node9 -->
<g id="edge8" class="edge">
<title>Node1&#45;&gt;Node9</title>
<path fill="none" stroke="black" d="M125.16,-332.15C142.33,-334.37 159.98,-336.66 174.3,-338.52"/>
<polygon fill="black" stroke="black" points="125.51,-328.66 115.14,-330.85 124.61,-335.6 125.51,-328.66"/>
</g>
<!-- Node5 -->
<g id="Node000005" class="node">
<title>Node5</title>
<g id="a_Node000005"><a xlink:href="a00407.html" target="_top" xlink:title="High&#45;Resolution Pulse&#45;Width Modulated (PWM) with Fine Edge Placement using dsPIC MCUs.">
<polygon fill="white" stroke="#666666" points="248.5,-315 163.5,-315 163.5,-296 248.5,-296 248.5,-315"/>
<text text-anchor="middle" x="206" y="-303" font-family="Helvetica,sans-Serif" font-size="10.00">PWM HS Driver</text>
</a>
</g>
</g>
<!-- Node1&#45;&gt;Node5 -->
<g id="edge4" class="edge">
<title>Node1&#45;&gt;Node5</title>
<path fill="none" stroke="black" d="M125.35,-315.29C138.18,-313.71 151.28,-312.1 163.05,-310.65"/>
<polygon fill="black" stroke="black" points="124.64,-311.85 115.14,-316.54 125.49,-318.8 124.64,-311.85"/>
</g>
<!-- Node11 -->
<g id="Node000011" class="node">
<title>Node11</title>
<g id="a_Node000011"><a xlink:href="a00413.html" target="_top" xlink:title="Reset driver using dsPIC MCUs.">
<polygon fill="white" stroke="#666666" points="240.5,-278 171.5,-278 171.5,-259 240.5,-259 240.5,-278"/>
<text text-anchor="middle" x="206" y="-266" font-family="Helvetica,sans-Serif" font-size="10.00">Reset Driver</text>
</a>
</g>
</g>
<!-- Node1&#45;&gt;Node11 -->
<g id="edge10" class="edge">
<title>Node1&#45;&gt;Node11</title>
<path fill="none" stroke="black" d="M106.31,-304.55C120.64,-298.96 136.43,-292.9 151,-287.5 159.48,-284.36 168.76,-281.05 177.19,-278.09"/>
<polygon fill="black" stroke="black" points="104.68,-301.43 96.65,-308.33 107.23,-307.95 104.68,-301.43"/>
</g>
<!-- Node19 -->
<g id="Node000019" class="node">
<title>Node19</title>
<g id="a_Node000019"><a xlink:href="a00421.html" target="_top" xlink:title="This is the generated driver interface file for SEC_CORE driver.">
<polygon fill="white" stroke="#666666" points="261,-241 151,-241 151,-222 261,-222 261,-241"/>
<text text-anchor="middle" x="206" y="-229" font-family="Helvetica,sans-Serif" font-size="10.00">MSI&#45;Secondary Driver</text>
</a>
</g>
</g>
<!-- Node1&#45;&gt;Node19 -->
<g id="edge18" class="edge">
<title>Node1&#45;&gt;Node19</title>
<path fill="none" stroke="black" d="M81.97,-301.37C99.8,-285.5 125.51,-264.53 151,-250.5 157.62,-246.86 165.06,-243.7 172.27,-241.07"/>
<polygon fill="black" stroke="black" points="79.43,-298.95 74.37,-308.26 84.13,-304.14 79.43,-298.95"/>
</g>
<!-- Node17 -->
<g id="Node000017" class="node">
<title>Node17</title>
<g id="a_Node000017"><a xlink:href="a00419.html" target="_top" xlink:title="Serial Peripheral Interface (SPI) CLIENT Driver using dsPIC MCUs.">
<polygon fill="white" stroke="#666666" points="249.5,-204 162.5,-204 162.5,-185 249.5,-185 249.5,-204"/>
<text text-anchor="middle" x="206" y="-192" font-family="Helvetica,sans-Serif" font-size="10.00">SPI Client Driver</text>
</a>
</g>
</g>
<!-- Node1&#45;&gt;Node17 -->
<g id="edge16" class="edge">
<title>Node1&#45;&gt;Node17</title>
<path fill="none" stroke="black" d="M72.75,-300.05C88.89,-275.31 117.37,-236.76 151,-213.5 156.48,-209.71 162.79,-206.61 169.12,-204.08"/>
<polygon fill="black" stroke="black" points="69.8,-298.17 67.37,-308.49 75.7,-301.93 69.8,-298.17"/>
</g>
<!-- Node10 -->
<g id="Node000010" class="node">
<title>Node10</title>
<g id="a_Node000010"><a xlink:href="a00412.html" target="_top" xlink:title="System driver using dsPIC MCUs.">
<polygon fill="white" stroke="#666666" points="244.5,-167 167.5,-167 167.5,-148 244.5,-148 244.5,-167"/>
<text text-anchor="middle" x="206" y="-155" font-family="Helvetica,sans-Serif" font-size="10.00">System Driver</text>
</a>
</g>
</g>
<!-- Node1&#45;&gt;Node10 -->
<g id="edge9" class="edge">
<title>Node1&#45;&gt;Node10</title>
<path fill="none" stroke="black" d="M68.02,-298.58C81.66,-266.06 109.75,-209.43 151,-176.5 155.82,-172.66 161.47,-169.56 167.26,-167.07"/>
<polygon fill="black" stroke="black" points="64.62,-297.65 64.1,-308.23 71.11,-300.28 64.62,-297.65"/>
</g>
<!-- Node14 -->
<g id="Node000014" class="node">
<title>Node14</title>
<g id="a_Node000014"><a xlink:href="a00416.html" target="_top" xlink:title="Timer Driver is a 16&#45;bit timer or 32&#45;bit timer that can operate as a free&#45;running interval timer usin...">
<polygon fill="white" stroke="#666666" points="240,-130 172,-130 172,-111 240,-111 240,-130"/>
<text text-anchor="middle" x="206" y="-118" font-family="Helvetica,sans-Serif" font-size="10.00">Timer Driver</text>
</a>
</g>
</g>
<!-- Node1&#45;&gt;Node14 -->
<g id="edge13" class="edge">
<title>Node1&#45;&gt;Node14</title>
<path fill="none" stroke="black" d="M64.59,-298.41C75.4,-259.1 101.58,-182.99 151,-139.5 156.97,-134.25 164.48,-130.42 171.99,-127.65"/>
<polygon fill="black" stroke="black" points="61.17,-297.68 62,-308.24 67.94,-299.47 61.17,-297.68"/>
</g>
<!-- Node13 -->
<g id="Node000013" class="node">
<title>Node13</title>
<g id="a_Node000013"><a xlink:href="a00415.html" target="_top" xlink:title="Traps driver with handler for all types of traps using dsPIC MCUs.">
<polygon fill="white" stroke="#666666" points="240,-93 172,-93 172,-74 240,-74 240,-93"/>
<text text-anchor="middle" x="206" y="-81" font-family="Helvetica,sans-Serif" font-size="10.00">Traps Driver</text>
</a>
</g>
</g>
<!-- Node1&#45;&gt;Node13 -->
<g id="edge12" class="edge">
<title>Node1&#45;&gt;Node13</title>
<path fill="none" stroke="black" d="M62.22,-298.33C70.24,-252.92 93.31,-156.94 151,-102.5 156.78,-97.04 164.22,-93.14 171.72,-90.36"/>
<polygon fill="black" stroke="black" points="58.76,-297.79 60.58,-308.23 65.67,-298.94 58.76,-297.79"/>
</g>
<!-- Node15 -->
<g id="Node000015" class="node">
<title>Node15</title>
<g id="a_Node000015"><a xlink:href="a00417.html" target="_top" xlink:title="Universal Asynchronous Receiver Transmitter driver using dsPIC MCUs.">
<polygon fill="white" stroke="#666666" points="240.5,-56 171.5,-56 171.5,-37 240.5,-37 240.5,-56"/>
<text text-anchor="middle" x="206" y="-44" font-family="Helvetica,sans-Serif" font-size="10.00">UART Driver</text>
</a>
</g>
</g>
<!-- Node1&#45;&gt;Node15 -->
<g id="edge14" class="edge">
<title>Node1&#45;&gt;Node15</title>
<path fill="none" stroke="black" d="M60.49,-298.18C65.84,-247.13 84.98,-131.13 151,-65.5 156.57,-59.96 163.84,-56.04 171.24,-53.25"/>
<polygon fill="black" stroke="black" points="56.99,-298.04 59.52,-308.33 63.96,-298.7 56.99,-298.04"/>
</g>
<!-- Node8 -->
<g id="Node000008" class="node">
<title>Node8</title>
<g id="a_Node000008"><a xlink:href="a00410.html" target="_top" xlink:title="Watchdog Timer Driver using dsPIC MCUs.">
<polygon fill="white" stroke="#666666" points="238.5,-19 173.5,-19 173.5,0 238.5,0 238.5,-19"/>
<text text-anchor="middle" x="206" y="-7" font-family="Helvetica,sans-Serif" font-size="10.00">WDT Driver</text>
</a>
</g>
</g>
<!-- Node1&#45;&gt;Node8 -->
<g id="edge7" class="edge">
<title>Node1&#45;&gt;Node8</title>
<path fill="none" stroke="black" d="M59.15,-298.15C61.96,-241.9 76.53,-105.58 151,-28.5 157.01,-22.28 165.17,-18.1 173.33,-15.28"/>
<polygon fill="black" stroke="black" points="55.65,-298.15 58.73,-308.29 62.64,-298.44 55.65,-298.15"/>
</g>
</g>
</svg>

<g id="navigator" transform="translate(0 0)" fill="#404254">
  <rect fill="#f2f5e9" fill-opacity="0.5" stroke="#606060" stroke-width=".5" x="0" y="0" width="60" height="60"/>
  <use id="zoomplus" xlink:href="#zoomPlus" x="17" y="9" onmousedown="handleZoom(evt,'in')"/>
  <use id="zoomminus" xlink:href="#zoomMin" x="42" y="9" onmousedown="handleZoom(evt,'out')"/>
  <use id="reset" xlink:href="#resetDef" x="30" y="36" onmousedown="handleReset()"/>
   <use id="arrowup" xlink:href="#arrowUp" x="0" y="0" onmousedown="handlePan(0,-1)"/>
  <use id="arrowright" xlink:href="#arrowRight" x="0" y="0" onmousedown="handlePan(1,0)"/>
  <use id="arrowdown" xlink:href="#arrowDown" x="0" y="0" onmousedown="handlePan(0,1)"/>
  <use id="arrowleft" xlink:href="#arrowLeft" x="0" y="0" onmousedown="handlePan(-1,0)"/>
</g>
<svg viewBox="0 0 15 15" width="100%" height="30px" preserveAspectRatio="xMaxYMin meet">
 <g id="arrow_out" transform="scale(0.3 0.3)">
  <a xlink:href="a00401_org.svg" target="_base">
   <rect id="button" ry="5" rx="5" y="6" x="6" height="38" width="38"
        fill="#f2f5e9" fill-opacity="0.5" stroke="#606060" stroke-width="1.0"/>
   <path id="arrow"
     d="M 11.500037,31.436501 C 11.940474,20.09759 22.043105,11.32322 32.158766,21.979434 L 37.068811,17.246167 C 37.068811,17.246167 37.088388,32 37.088388,32 L 22.160133,31.978069 C 22.160133,31.978069 26.997745,27.140456 26.997745,27.140456 C 18.528582,18.264221 13.291696,25.230495 11.500037,31.436501 z"
     style="fill:#404040;"/>
  </a>
 </g>
</svg>

<style type='text/css'>
<![CDATA[
[data-mouse-over-selected='false'] { opacity: 0.7; }
[data-mouse-over-selected='true']  { opacity: 1.0; }
]]>
</style>
<script type="application/ecmascript"><![CDATA[
document.addEventListener('DOMContentLoaded', (event) => {
  highlightEdges();
  highlightAdjacentNodes();
});
]]></script>
</svg>
