<?xml version="1.0" encoding="UTF-8" standalone="no"?>
<!DOCTYPE svg PUBLIC "-//W3C//DTD SVG 1.1//EN"
 "http://www.w3.org/Graphics/SVG/1.1/DTD/svg11.dtd">
<!-- Generated by graphviz version 2.44.1 (20200629.0846)
 -->
<!-- Title: Driver Layer Pages: 1 -->
<svg width="395pt" height="123pt"
 viewBox="0.00 0.00 395.00 123.00" xmlns="http://www.w3.org/2000/svg" xmlns:xlink="http://www.w3.org/1999/xlink">
<g id="graph0" class="graph" transform="scale(1 1) rotate(0) translate(4 119)">
<title>Driver Layer</title>
<!-- Node1 -->
<g id="Node000001" class="node">
<title>Node1</title>
<g id="a_Node000001"><a xlink:title="secondary Driver Layer">
<polygon fill="#999999" stroke="#666666" points="217,-67 149,-67 149,-48 217,-48 217,-67"/>
<text text-anchor="middle" x="183" y="-55" font-family="Helvetica,sans-Serif" font-size="10.00">Driver Layer</text>
</a>
</g>
</g>
<!-- Node3 -->
<g id="Node000003" class="node">
<title>Node3</title>
<g id="a_Node000003"><a xlink:href="a00429.html" target="_top" xlink:title="ADC Driver builds upon MCC driver.">
<polygon fill="white" stroke="#666666" points="352.5,-115 287.5,-115 287.5,-96 352.5,-96 352.5,-115"/>
<text text-anchor="middle" x="320" y="-103" font-family="Helvetica,sans-Serif" font-size="10.00">ADC driver.</text>
</a>
</g>
</g>
<!-- Node1&#45;&gt;Node3 -->
<g id="edge2" class="edge">
<title>Node1&#45;&gt;Node3</title>
<path fill="none" stroke="black" d="M213.14,-71.28C225.3,-76.74 239.68,-82.82 253,-87.5 264.09,-91.4 276.48,-94.98 287.49,-97.9"/>
<polygon fill="black" stroke="black" points="214.47,-68.04 203.92,-67.07 211.57,-74.41 214.47,-68.04"/>
</g>
<!-- Node4 -->
<g id="Node000004" class="node">
<title>Node4</title>
<g id="a_Node000004"><a xlink:href="a00430.html" target="_top" xlink:title="MSI driver.">
<polygon fill="white" stroke="#666666" points="387,-78 253,-78 253,-37 387,-37 387,-78"/>
<text text-anchor="start" x="261" y="-66" font-family="Helvetica,sans-Serif" font-size="10.00">MSI Driver. Commuincation</text>
<text text-anchor="start" x="261" y="-55" font-family="Helvetica,sans-Serif" font-size="10.00"> Interface between Primary</text>
<text text-anchor="middle" x="320" y="-44" font-family="Helvetica,sans-Serif" font-size="10.00"> and Secondary Cores</text>
</a>
</g>
</g>
<!-- Node1&#45;&gt;Node4 -->
<g id="edge3" class="edge">
<title>Node1&#45;&gt;Node4</title>
<path fill="none" stroke="black" d="M227.07,-57.5C235.28,-57.5 244.04,-57.5 252.77,-57.5"/>
<polygon fill="black" stroke="black" points="227.02,-54 217.02,-57.5 227.02,-61 227.02,-54"/>
</g>
<!-- Node5 -->
<g id="Node000005" class="node">
<title>Node5</title>
<g id="a_Node000005"><a xlink:href="a00432.html" target="_top" xlink:title="The Power Control layer contains the state machine managing the power converter.">
<polygon fill="white" stroke="#666666" points="358.5,-19 281.5,-19 281.5,0 358.5,0 358.5,-19"/>
<text text-anchor="middle" x="320" y="-7" font-family="Helvetica,sans-Serif" font-size="10.00">Power Control</text>
</a>
</g>
</g>
<!-- Node1&#45;&gt;Node5 -->
<g id="edge4" class="edge">
<title>Node1&#45;&gt;Node5</title>
<path fill="none" stroke="black" d="M213.14,-43.72C225.3,-38.26 239.68,-32.18 253,-27.5 262.08,-24.31 272.02,-21.33 281.36,-18.76"/>
<polygon fill="black" stroke="black" points="211.57,-40.59 203.92,-47.93 214.47,-46.96 211.57,-40.59"/>
</g>
<!-- Node2 -->
<g id="Node000002" class="node">
<title>Node2</title>
<g id="a_Node000002"><a xlink:href="a00400.html" target="_top" xlink:title="Functions performed by the secondary core of the dsPIC33CH.">
<polygon fill="white" stroke="#666666" points="113,-67 0,-67 0,-48 113,-48 113,-67"/>
<text text-anchor="middle" x="56.5" y="-55" font-family="Helvetica,sans-Serif" font-size="10.00">Secondary Core Layer</text>
</a>
</g>
</g>
<!-- Node2&#45;&gt;Node1 -->
<g id="edge1" class="edge">
<title>Node2&#45;&gt;Node1</title>
<path fill="none" stroke="black" d="M123.22,-57.5C132.09,-57.5 140.87,-57.5 148.84,-57.5"/>
<polygon fill="black" stroke="black" points="123.2,-54 113.2,-57.5 123.2,-61 123.2,-54"/>
</g>
</g>
</svg>
