<?xml version="1.0" encoding="UTF-8" standalone="no"?>
<!DOCTYPE svg PUBLIC "-//W3C//DTD SVG 1.1//EN"
 "http://www.w3.org/Graphics/SVG/1.1/DTD/svg11.dtd">
<!-- Generated by graphviz version 8.1.0 (20230707.0739)
 -->
<!-- Title: Power Control Compensator Pages: 1 -->
<svg width="492pt" height="30pt"
 viewBox="0.00 0.00 492.00 30.00" xmlns="http://www.w3.org/2000/svg" xmlns:xlink="http://www.w3.org/1999/xlink">
<g id="graph0" class="graph" transform="scale(1 1) rotate(0) translate(4 26)">
<title>Power Control Compensator</title>
<!-- Node1 -->
<g id="Node000001" class="node">
<title>Node1</title>
<g id="a_Node000001"><a xlink:title="Power controller Exposing DCDT assembly functionality to the C code.">
<polygon fill="#999999" stroke="#666666" points="251.25,-20 113.75,-20 113.75,0 251.25,0 251.25,-20"/>
<text text-anchor="middle" x="182.5" y="-6.5" font-family="Helvetica,sans-Serif" font-size="10.00">Power Control Compensator</text>
</a>
</g>
</g>
<!-- Node3 -->
<g id="Node000003" class="node">
<title>Node3</title>
<g id="a_Node000003"><a xlink:href="a00432.html" target="_top" xlink:title="Contains the control loop configuration and initialization functions.">
<polygon fill="white" stroke="#666666" points="484,-20 354,-20 354,0 484,0 484,-20"/>
<text text-anchor="middle" x="419" y="-6.5" font-family="Helvetica,sans-Serif" font-size="10.00">Control Loop Configuration</text>
</a>
</g>
</g>
<!-- Node1&#45;&gt;Node3 -->
<g id="edge2" class="edge">
<title>Node1&#45;&gt;Node3</title>
<path fill="none" stroke="darkgreen" stroke-dasharray="5,2" d="M251.64,-10C283.83,-10 322.04,-10 353.71,-10"/>
<text text-anchor="middle" x="302.62" y="-12.5" font-family="Helvetica,sans-Serif" font-size="10.00">smps_control.h</text>
</g>
<!-- Node2 -->
<g id="Node000002" class="node">
<title>Node2</title>
<g id="a_Node000002"><a xlink:href="a00426.html" target="_top" xlink:title="The Power Control layer contains the state machine managing the power converter.">
<polygon fill="white" stroke="#666666" points="76.75,-20 0,-20 0,0 76.75,0 76.75,-20"/>
<text text-anchor="middle" x="38.38" y="-6.5" font-family="Helvetica,sans-Serif" font-size="10.00">Power Control</text>
</a>
</g>
</g>
<!-- Node2&#45;&gt;Node1 -->
<g id="edge1" class="edge">
<title>Node2&#45;&gt;Node1</title>
<path fill="none" stroke="black" d="M87.94,-10C96.14,-10 104.79,-10 113.37,-10"/>
<polygon fill="black" stroke="black" points="88.09,-6.5 78.09,-10 88.09,-13.5 88.09,-6.5"/>
</g>
</g>
</svg>
