<?xml version="1.0" encoding="UTF-8" standalone="no"?>
<!DOCTYPE svg PUBLIC "-//W3C//DTD SVG 1.1//EN"
 "http://www.w3.org/Graphics/SVG/1.1/DTD/svg11.dtd">
<!-- Generated by graphviz version 2.44.1 (20200629.0846)
 -->
<!-- Title: ADC1_ComparatorCallbackRegister Pages: 1 -->
<svg width="396pt" height="38pt"
 viewBox="0.00 0.00 396.00 38.00" xmlns="http://www.w3.org/2000/svg" xmlns:xlink="http://www.w3.org/1999/xlink">
<g id="graph0" class="graph" transform="scale(1 1) rotate(0) translate(4 34)">
<title>ADC1_ComparatorCallbackRegister</title>
<!-- Node1 -->
<g id="Node000001" class="node">
<title>Node1</title>
<g id="a_Node000001"><a xlink:title="This function can be used to override default callback and to define custom callback for ADC1_Compara...">
<polygon fill="#999999" stroke="#666666" points="388,-30 253,-30 253,0 388,0 388,-30"/>
<text text-anchor="start" x="261" y="-18" font-family="Helvetica,sans-Serif" font-size="10.00">ADC1_ComparatorCallback</text>
<text text-anchor="middle" x="320.5" y="-7" font-family="Helvetica,sans-Serif" font-size="10.00">Register</text>
</a>
</g>
</g>
<!-- Node2 -->
<g id="Node000002" class="node">
<title>Node2</title>
<g id="a_Node000002"><a xlink:href="a00404.html#gad272fc3ade4d66bfb9580444418b97ee" target="_top" xlink:title="Initializes ADC1 module, using the given initialization data This function must be called before any ...">
<polygon fill="white" stroke="#666666" points="217,-24.5 134,-24.5 134,-5.5 217,-5.5 217,-24.5"/>
<text text-anchor="middle" x="175.5" y="-12.5" font-family="Helvetica,sans-Serif" font-size="10.00">ADC1_Initialize</text>
</a>
</g>
</g>
<!-- Node1&#45;&gt;Node2 -->
<g id="edge1_Node000001_Node000002" class="edge">
<title>Node1&#45;&gt;Node2</title>
<g id="a_edge1_Node000001_Node000002"><a xlink:title=" ">
<path fill="none" stroke="#63b8ff" d="M242.41,-15C233.75,-15 225.19,-15 217.26,-15"/>
<polygon fill="#63b8ff" stroke="#63b8ff" points="242.61,-18.5 252.61,-15 242.61,-11.5 242.61,-18.5"/>
</a>
</g>
</g>
<!-- Node3 -->
<g id="Node000003" class="node">
<title>Node3</title>
<g id="a_Node000003"><a xlink:href="a00412.html#ga5e8391114a0cf91ac20002be25e3d352" target="_top" xlink:title="Initializes the System module.">
<polygon fill="white" stroke="#666666" points="98,-24.5 0,-24.5 0,-5.5 98,-5.5 98,-24.5"/>
<text text-anchor="middle" x="49" y="-12.5" font-family="Helvetica,sans-Serif" font-size="10.00">SYSTEM_Initialize</text>
</a>
</g>
</g>
<!-- Node2&#45;&gt;Node3 -->
<g id="edge2_Node000002_Node000003" class="edge">
<title>Node2&#45;&gt;Node3</title>
<g id="a_edge2_Node000002_Node000003"><a xlink:title=" ">
<path fill="none" stroke="#63b8ff" d="M123.67,-15C115.26,-15 106.56,-15 98.22,-15"/>
<polygon fill="#63b8ff" stroke="#63b8ff" points="123.73,-18.5 133.73,-15 123.73,-11.5 123.73,-18.5"/>
</a>
</g>
</g>
</g>
</svg>
