<?xml version="1.0" encoding="UTF-8" standalone="no"?>
<!DOCTYPE svg PUBLIC "-//W3C//DTD SVG 1.1//EN"
 "http://www.w3.org/Graphics/SVG/1.1/DTD/svg11.dtd">
<!-- Generated by graphviz version 2.44.1 (20200629.0846)
 -->
<!-- Title: TMR1_TimeoutCallback Pages: 1 -->
<svg width="380pt" height="27pt"
 viewBox="0.00 0.00 380.00 27.00" xmlns="http://www.w3.org/2000/svg" xmlns:xlink="http://www.w3.org/1999/xlink">
<g id="graph0" class="graph" transform="scale(1 1) rotate(0) translate(4 23)">
<title>TMR1_TimeoutCallback</title>
<!-- Node1 -->
<g id="Node000001" class="node">
<title>Node1</title>
<g id="a_Node000001"><a xlink:title="This is the default callback with weak attribute. The user can override and implement the default cal...">
<polygon fill="#999999" stroke="#666666" points="372,-19 253,-19 253,0 372,0 372,-19"/>
<text text-anchor="middle" x="312.5" y="-7" font-family="Helvetica,sans-Serif" font-size="10.00">TMR1_TimeoutCallback</text>
</a>
</g>
</g>
<!-- Node2 -->
<g id="Node000002" class="node">
<title>Node2</title>
<g id="a_Node000002"><a xlink:href="a00416.html#gaeca9435d024c8eeada966c9dffbb8427" target="_top" xlink:title="Initializes the TMR1 module.">
<polygon fill="white" stroke="#666666" points="217,-19 134,-19 134,0 217,0 217,-19"/>
<text text-anchor="middle" x="175.5" y="-7" font-family="Helvetica,sans-Serif" font-size="10.00">TMR1_Initialize</text>
</a>
</g>
</g>
<!-- Node1&#45;&gt;Node2 -->
<g id="edge1_Node000001_Node000002" class="edge">
<title>Node1&#45;&gt;Node2</title>
<g id="a_edge1_Node000001_Node000002"><a xlink:title=" ">
<path fill="none" stroke="#63b8ff" d="M242.55,-9.5C233.91,-9.5 225.3,-9.5 217.29,-9.5"/>
<polygon fill="#63b8ff" stroke="#63b8ff" points="242.68,-13 252.68,-9.5 242.68,-6 242.68,-13"/>
</a>
</g>
</g>
<!-- Node3 -->
<g id="Node000003" class="node">
<title>Node3</title>
<g id="a_Node000003"><a xlink:href="a00412.html#ga5e8391114a0cf91ac20002be25e3d352" target="_top" xlink:title="Initializes the System module.">
<polygon fill="white" stroke="#666666" points="98,-19 0,-19 0,0 98,0 98,-19"/>
<text text-anchor="middle" x="49" y="-7" font-family="Helvetica,sans-Serif" font-size="10.00">SYSTEM_Initialize</text>
</a>
</g>
</g>
<!-- Node2&#45;&gt;Node3 -->
<g id="edge2_Node000002_Node000003" class="edge">
<title>Node2&#45;&gt;Node3</title>
<g id="a_edge2_Node000002_Node000003"><a xlink:title=" ">
<path fill="none" stroke="#63b8ff" d="M123.67,-9.5C115.26,-9.5 106.56,-9.5 98.22,-9.5"/>
<polygon fill="#63b8ff" stroke="#63b8ff" points="123.73,-13 133.73,-9.5 123.73,-6 123.73,-13"/>
</a>
</g>
</g>
</g>
</svg>
