<?xml version="1.0" encoding="UTF-8" standalone="no"?>
<!DOCTYPE svg PUBLIC "-//W3C//DTD SVG 1.1//EN"
 "http://www.w3.org/Graphics/SVG/1.1/DTD/svg11.dtd">
<!-- Generated by graphviz version 2.44.1 (20200629.0846)
 -->
<!-- Title: INTERRUPT_GlobalEnable Pages: 1 -->
<svg width="441pt" height="103pt"
 viewBox="0.00 0.00 441.00 103.00" xmlns="http://www.w3.org/2000/svg" xmlns:xlink="http://www.w3.org/1999/xlink">

<svg id="main" version="1.1" xmlns="http://www.w3.org/2000/svg" xmlns:xlink="http://www.w3.org/1999/xlink" xml:space="preserve">

<style type="text/css"><![CDATA[
.node, .edge {opacity: 0.7;}
.node.selected, .edge.selected {opacity: 1;}
.edge:hover path { stroke: red; }
.edge:hover polygon { stroke: red; fill: red; }
]]></style>
<script type="application/ecmascript" xlink:href="svg.min.js"/>
<svg id="graph" class="graph">
<g id="graph0" class="graph" transform="scale(1 1) rotate(0) translate(4 99)">
<title>INTERRUPT_GlobalEnable</title>
<!-- Node1 -->
<g id="Node000001" class="node">
<title>Node1</title>
<g id="a_Node000001"><a xlink:title="Enables the global interrupt bit.">
<polygon fill="#999999" stroke="#666666" points="433,-57 300,-57 300,-38 433,-38 433,-57"/>
<text text-anchor="middle" x="366.5" y="-45" font-family="Helvetica,sans-Serif" font-size="10.00">INTERRUPT_GlobalEnable</text>
</a>
</g>
</g>
<!-- Node2 -->
<g id="Node000002" class="node">
<title>Node2</title>
<g id="a_Node000002"><a xlink:href="a00408.html#ga1bc5134c539119189fc912e50bb40f0c" target="_top" xlink:title="Initializes the DMT module.">
<polygon fill="white" stroke="#666666" points="237.5,-95 160.5,-95 160.5,-76 237.5,-76 237.5,-95"/>
<text text-anchor="middle" x="199" y="-83" font-family="Helvetica,sans-Serif" font-size="10.00">DMT_Initialize</text>
</a>
</g>
</g>
<!-- Node1&#45;&gt;Node2 -->
<g id="edge1_Node000001_Node000002" class="edge">
<title>Node1&#45;&gt;Node2</title>
<g id="a_edge1_Node000001_Node000002"><a xlink:title=" ">
<path fill="none" stroke="#63b8ff" d="M313.8,-59.37C289.09,-65.04 260.06,-71.71 237.51,-76.89"/>
<polygon fill="#63b8ff" stroke="#63b8ff" points="314.77,-62.74 323.74,-57.09 313.21,-55.92 314.77,-62.74"/>
</a>
</g>
</g>
<!-- Node3 -->
<g id="Node000003" class="node">
<title>Node3</title>
<g id="a_Node000003"><a xlink:href="a00412.html#ga5e8391114a0cf91ac20002be25e3d352" target="_top" xlink:title="Initializes the System module.">
<polygon fill="white" stroke="#666666" points="98,-76 0,-76 0,-57 98,-57 98,-76"/>
<text text-anchor="middle" x="49" y="-64" font-family="Helvetica,sans-Serif" font-size="10.00">SYSTEM_Initialize</text>
</a>
</g>
</g>
<!-- Node1&#45;&gt;Node3 -->
<g id="edge5_Node000001_Node000003" class="edge">
<title>Node1&#45;&gt;Node3</title>
<g id="a_edge5_Node000001_Node000003"><a xlink:title=" ">
<path fill="none" stroke="#63b8ff" d="M289.64,-52.07C230.13,-55.65 149.11,-60.53 98.18,-63.6"/>
<polygon fill="#63b8ff" stroke="#63b8ff" points="289.97,-55.55 299.74,-51.46 289.55,-48.57 289.97,-55.55"/>
</a>
</g>
</g>
<!-- Node4 -->
<g id="Node000004" class="node">
<title>Node4</title>
<g id="a_Node000004"><a xlink:href="a00431.html#gab00b4f4c807e319cfd81191aa20a0cc9" target="_top" xlink:title="initialize control loops">
<polygon fill="white" stroke="#666666" points="264,-19 134,-19 134,0 264,0 264,-19"/>
<text text-anchor="middle" x="199" y="-7" font-family="Helvetica,sans-Serif" font-size="10.00">StartControl_StateHandler</text>
</a>
</g>
</g>
<!-- Node1&#45;&gt;Node4 -->
<g id="edge3_Node000001_Node000004" class="edge">
<title>Node1&#45;&gt;Node4</title>
<g id="a_edge3_Node000001_Node000004"><a xlink:title=" ">
<path fill="none" stroke="#63b8ff" d="M313.69,-35.6C290.43,-30.26 263.35,-24.05 241.46,-19.02"/>
<polygon fill="#63b8ff" stroke="#63b8ff" points="313.21,-39.08 323.74,-37.91 314.77,-32.26 313.21,-39.08"/>
</a>
</g>
</g>
<!-- Node2&#45;&gt;Node3 -->
<g id="edge2_Node000002_Node000003" class="edge">
<title>Node2&#45;&gt;Node3</title>
<g id="a_edge2_Node000002_Node000003"><a xlink:title=" ">
<path fill="none" stroke="#63b8ff" d="M150.17,-79.36C133.48,-77.22 114.74,-74.81 98.03,-72.67"/>
<polygon fill="#63b8ff" stroke="#63b8ff" points="149.91,-82.85 160.27,-80.66 150.8,-75.91 149.91,-82.85"/>
</a>
</g>
</g>
<!-- Node5 -->
<g id="Node000005" class="node">
<title>Node5</title>
<g id="a_Node000005"><a xlink:href="a00431.html#ga97fda594ad396d08b6a833ebb3b04538" target="_top" xlink:title="tasks run every 100us">
<polygon fill="white" stroke="#666666" points="86,-19 12,-19 12,0 86,0 86,-19"/>
<text text-anchor="middle" x="49" y="-7" font-family="Helvetica,sans-Serif" font-size="10.00">Tasks_100us</text>
</a>
</g>
</g>
<!-- Node4&#45;&gt;Node5 -->
<g id="edge4_Node000004_Node000005" class="edge">
<title>Node4&#45;&gt;Node5</title>
<g id="a_edge4_Node000004_Node000005"><a xlink:title=" ">
<path fill="none" stroke="#63b8ff" d="M123.89,-9.5C110.71,-9.5 97.54,-9.5 86.04,-9.5"/>
<polygon fill="#63b8ff" stroke="#63b8ff" points="123.95,-13 133.95,-9.5 123.95,-6 123.95,-13"/>
</a>
</g>
</g>
</g>
</svg>
</svg>

<style type='text/css'>
<![CDATA[
[data-mouse-over-selected='false'] { opacity: 0.7; }
[data-mouse-over-selected='true']  { opacity: 1.0; }
]]>
</style>
<script type="application/ecmascript"><![CDATA[
document.addEventListener('DOMContentLoaded', (event) => {
  highlightEdges();
  highlightAdjacentNodes();
});
]]></script>
</svg>
