<?xml version="1.0" encoding="UTF-8" standalone="no"?>
<!DOCTYPE svg PUBLIC "-//W3C//DTD SVG 1.1//EN"
 "http://www.w3.org/Graphics/SVG/1.1/DTD/svg11.dtd">
<!-- Generated by graphviz version 8.1.0 (20230707.0739)
 -->
<!-- Title: PWM_OverrideHighEnable Pages: 1 -->
<svg width="747pt" height="255pt"
 viewBox="0.00 0.00 747.25 254.68" xmlns="http://www.w3.org/2000/svg" xmlns:xlink="http://www.w3.org/1999/xlink">
<g id="graph0" class="graph" transform="scale(1 1) rotate(0) translate(4 250.68)">
<title>PWM_OverrideHighEnable</title>
<!-- Node1 -->
<g id="Node000001" class="node">
<title>Node1</title>
<g id="a_Node000001"><a xlink:title="This inline function enables PWM override on PWMH output for specific PWM generator selected by the a...">
<polygon fill="#999999" stroke="#666666" points="739.25,-123.02 608.5,-123.02 608.5,-103.02 739.25,-103.02 739.25,-123.02"/>
<text text-anchor="middle" x="673.88" y="-109.52" font-family="Helvetica,sans-Serif" font-size="10.00">PWM_OverrideHighEnable</text>
</a>
</g>
</g>
<!-- Node2 -->
<g id="Node000002" class="node">
<title>Node2</title>
<g id="a_Node000002"><a xlink:href="a00365.html#a51a90512029dd0d15f013ea8548c5e7c" target="_top" xlink:title=" ">
<polygon fill="white" stroke="#666666" points="561.62,-41.02 474.38,-41.02 474.38,-21.02 561.62,-21.02 561.62,-41.02"/>
<text text-anchor="middle" x="518" y="-27.52" font-family="Helvetica,sans-Serif" font-size="10.00">BurstMode_PHx</text>
</a>
</g>
</g>
<!-- Node1&#45;&gt;Node2 -->
<g id="edge1_Node000001_Node000002" class="edge">
<title>Node1&#45;&gt;Node2</title>
<g id="a_edge1_Node000001_Node000002"><a xlink:title=" ">
<path fill="none" stroke="#63b8ff" d="M649.6,-96.35C629.78,-82.67 600.19,-63.43 572.5,-50.02 566.02,-46.89 558.89,-44 552,-41.46"/>
<polygon fill="#63b8ff" stroke="#63b8ff" points="647.29,-99.71 657.49,-102.57 651.31,-93.97 647.29,-99.71"/>
</a>
</g>
</g>
<!-- Node8 -->
<g id="Node000008" class="node">
<title>Node8</title>
<g id="a_Node000008"><a xlink:href="a00365.html#a69847930c99b34bceb7165143cd28b92" target="_top" xlink:title=" ">
<polygon fill="white" stroke="#666666" points="548.88,-217.02 487.12,-217.02 487.12,-197.02 548.88,-197.02 548.88,-217.02"/>
<text text-anchor="middle" x="518" y="-203.52" font-family="Helvetica,sans-Serif" font-size="10.00">CCM_PHx</text>
</a>
</g>
</g>
<!-- Node1&#45;&gt;Node8 -->
<g id="edge7_Node000001_Node000008" class="edge">
<title>Node1&#45;&gt;Node8</title>
<g id="a_edge7_Node000001_Node000008"><a xlink:title=" ">
<path fill="none" stroke="#63b8ff" d="M653.27,-130.5C633.87,-147.09 602.77,-171.82 572.5,-188.02 565.2,-191.93 556.93,-195.32 549.11,-198.11"/>
<polygon fill="#63b8ff" stroke="#63b8ff" points="655.06,-132.72 660.31,-123.52 650.47,-127.43 655.06,-132.72"/>
</a>
</g>
</g>
<!-- Node9 -->
<g id="Node000009" class="node">
<title>Node9</title>
<g id="a_Node000009"><a xlink:href="a00359.html#a315b78111431dff7a91b13e42f9133b1" target="_top" xlink:title=" ">
<polygon fill="white" stroke="#666666" points="272,-180.02 131.5,-180.02 131.5,-160.02 272,-160.02 272,-180.02"/>
<text text-anchor="middle" x="201.75" y="-166.52" font-family="Helvetica,sans-Serif" font-size="10.00">Drv_PwrCtrl_TPBLPFC_Stop</text>
</a>
</g>
</g>
<!-- Node1&#45;&gt;Node9 -->
<g id="edge9_Node000001_Node000009" class="edge">
<title>Node1&#45;&gt;Node9</title>
<g id="a_edge9_Node000001_Node000009"><a xlink:title=" ">
<path fill="none" stroke="#63b8ff" d="M662.32,-133.02C646.79,-160.02 614.97,-206.94 572.5,-226.02 448.43,-281.76 279.8,-208.77 222.64,-180.41"/>
<polygon fill="#63b8ff" stroke="#63b8ff" points="665.85,-134.88 667.63,-124.44 659.72,-131.49 665.85,-134.88"/>
</a>
</g>
</g>
<!-- Node10 -->
<g id="Node000010" class="node">
<title>Node10</title>
<g id="a_Node000010"><a xlink:href="a00365.html#ad3476b7cd98e6a22a65e1d89b7a59ea5" target="_top" xlink:title=" ">
<polygon fill="white" stroke="#666666" points="572.5,-179.02 463.5,-179.02 463.5,-147.02 572.5,-147.02 572.5,-179.02"/>
<text text-anchor="start" x="471.5" y="-165.52" font-family="Helvetica,sans-Serif" font-size="10.00">SoftstartAfterZC_PHx</text>
<text text-anchor="middle" x="518" y="-153.52" font-family="Helvetica,sans-Serif" font-size="10.00">_GTIMode</text>
</a>
</g>
</g>
<!-- Node1&#45;&gt;Node10 -->
<g id="edge12_Node000001_Node000010" class="edge">
<title>Node1&#45;&gt;Node10</title>
<g id="a_edge12_Node000001_Node000010"><a xlink:title=" ">
<path fill="none" stroke="#63b8ff" d="M630.29,-126.86C611.52,-132.96 589.31,-140.18 569.69,-146.55"/>
<polygon fill="#63b8ff" stroke="#63b8ff" points="631.19,-129.92 639.62,-123.5 629.03,-123.27 631.19,-129.92"/>
</a>
</g>
</g>
<!-- Node11 -->
<g id="Node000011" class="node">
<title>Node11</title>
<g id="a_Node000011"><a xlink:href="a00365.html#a3e7091905b384bca668f6f12a50834f4" target="_top" xlink:title=" ">
<polygon fill="white" stroke="#666666" points="572.5,-129.02 463.5,-129.02 463.5,-97.02 572.5,-97.02 572.5,-129.02"/>
<text text-anchor="start" x="471.5" y="-115.52" font-family="Helvetica,sans-Serif" font-size="10.00">SoftstartAfterZC_PHx</text>
<text text-anchor="middle" x="518" y="-103.52" font-family="Helvetica,sans-Serif" font-size="10.00">_PFCMode</text>
</a>
</g>
</g>
<!-- Node1&#45;&gt;Node11 -->
<g id="edge14_Node000001_Node000011" class="edge">
<title>Node1&#45;&gt;Node11</title>
<g id="a_edge14_Node000001_Node000011"><a xlink:title=" ">
<path fill="none" stroke="#63b8ff" d="M597.18,-113.02C588.86,-113.02 580.53,-113.02 572.56,-113.02"/>
<polygon fill="#63b8ff" stroke="#63b8ff" points="597.06,-116.52 607.06,-113.02 597.06,-109.52 597.06,-116.52"/>
</a>
</g>
</g>
<!-- Node12 -->
<g id="Node000012" class="node">
<title>Node12</title>
<g id="a_Node000012"><a xlink:href="a00365.html#a3c1c3278a759d0a53b473f7ee8786d12" target="_top" xlink:title=" ">
<polygon fill="white" stroke="#666666" points="427.5,-44.02 308,-44.02 308,-24.02 427.5,-24.02 427.5,-44.02"/>
<text text-anchor="middle" x="367.75" y="-30.52" font-family="Helvetica,sans-Serif" font-size="10.00">VOUT_HystereticCheck</text>
</a>
</g>
</g>
<!-- Node1&#45;&gt;Node12 -->
<g id="edge16_Node000001_Node000012" class="edge">
<title>Node1&#45;&gt;Node12</title>
<g id="a_edge16_Node000001_Node000012"><a xlink:title=" ">
<path fill="none" stroke="#63b8ff" d="M660.81,-93.67C644.32,-69.28 612.22,-28.55 572.5,-12.02 512.39,12.99 434.1,-9 394.34,-23.58"/>
<polygon fill="#63b8ff" stroke="#63b8ff" points="658.32,-95.25 666.71,-101.71 664.18,-91.43 658.32,-95.25"/>
</a>
</g>
</g>
<!-- Node13 -->
<g id="Node000013" class="node">
<title>Node13</title>
<g id="a_Node000013"><a xlink:href="a00365.html#a9d01eea56aae5f1437eb541a321277cc" target="_top" xlink:title=" ">
<polygon fill="white" stroke="#666666" points="560.12,-79.02 475.88,-79.02 475.88,-59.02 560.12,-59.02 560.12,-79.02"/>
<text text-anchor="middle" x="518" y="-65.52" font-family="Helvetica,sans-Serif" font-size="10.00">ZeroCross_PHx</text>
</a>
</g>
</g>
<!-- Node1&#45;&gt;Node13 -->
<g id="edge18_Node000001_Node000013" class="edge">
<title>Node1&#45;&gt;Node13</title>
<g id="a_edge18_Node000001_Node000013"><a xlink:title=" ">
<path fill="none" stroke="#63b8ff" d="M626,-99.62C603.35,-93.14 576.57,-85.49 555.47,-79.45"/>
<polygon fill="#63b8ff" stroke="#63b8ff" points="624.83,-103.21 635.41,-102.6 626.76,-96.48 624.83,-103.21"/>
</a>
</g>
</g>
<!-- Node3 -->
<g id="Node000003" class="node">
<title>Node3</title>
<g id="a_Node000003"><a xlink:href="a00365.html#a647fd6dacbfbcebe49cc34111a01493b" target="_top" xlink:title=" ">
<polygon fill="white" stroke="#666666" points="404.25,-123.02 331.25,-123.02 331.25,-103.02 404.25,-103.02 404.25,-123.02"/>
<text text-anchor="middle" x="367.75" y="-109.52" font-family="Helvetica,sans-Serif" font-size="10.00">Handler_PHx</text>
</a>
</g>
</g>
<!-- Node2&#45;&gt;Node3 -->
<g id="edge2_Node000002_Node000003" class="edge">
<title>Node2&#45;&gt;Node3</title>
<g id="a_edge2_Node000002_Node000003"><a xlink:title=" ">
<path fill="none" stroke="#63b8ff" d="M473.73,-45.35C470.22,-46.82 466.77,-48.39 463.5,-50.02 432.59,-65.49 399.66,-89.25 381.92,-102.74"/>
<polygon fill="#63b8ff" stroke="#63b8ff" points="474.63,-48.36 482.65,-41.44 472.06,-41.85 474.63,-48.36"/>
</a>
</g>
</g>
<!-- Node4 -->
<g id="Node000004" class="node">
<title>Node4</title>
<g id="a_Node000004"><a xlink:href="a00365.html#aa7b8e2dc355948aa24cf22ca82f9e805" target="_top" xlink:title=" ">
<polygon fill="white" stroke="#666666" points="264.12,-104.02 139.38,-104.02 139.38,-84.02 264.12,-84.02 264.12,-104.02"/>
<text text-anchor="middle" x="201.75" y="-90.52" font-family="Helvetica,sans-Serif" font-size="10.00">Application_handler_PH1</text>
</a>
</g>
</g>
<!-- Node3&#45;&gt;Node4 -->
<g id="edge3_Node000003_Node000004" class="edge">
<title>Node3&#45;&gt;Node4</title>
<g id="a_edge3_Node000003_Node000004"><a xlink:title=" ">
<path fill="none" stroke="#63b8ff" d="M319.84,-107.59C302.59,-105.59 282.8,-103.3 264.45,-101.17"/>
<polygon fill="#63b8ff" stroke="#63b8ff" points="319.42,-111.18 329.76,-108.85 320.23,-104.23 319.42,-111.18"/>
</a>
</g>
</g>
<!-- Node6 -->
<g id="Node000006" class="node">
<title>Node6</title>
<g id="a_Node000006"><a xlink:href="a00365.html#a87fa9190951df7c866d828b8ad7b526b" target="_top" xlink:title=" ">
<polygon fill="white" stroke="#666666" points="264.12,-142.02 139.38,-142.02 139.38,-122.02 264.12,-122.02 264.12,-142.02"/>
<text text-anchor="middle" x="201.75" y="-128.52" font-family="Helvetica,sans-Serif" font-size="10.00">Application_handler_PH2</text>
</a>
</g>
</g>
<!-- Node3&#45;&gt;Node6 -->
<g id="edge5_Node000003_Node000006" class="edge">
<title>Node3&#45;&gt;Node6</title>
<g id="a_edge5_Node000003_Node000006"><a xlink:title=" ">
<path fill="none" stroke="#63b8ff" d="M319.84,-118.46C302.59,-120.46 282.8,-122.75 264.45,-124.87"/>
<polygon fill="#63b8ff" stroke="#63b8ff" points="320.23,-121.82 329.76,-117.19 319.42,-114.87 320.23,-121.82"/>
</a>
</g>
</g>
<!-- Node5 -->
<g id="Node000005" class="node">
<title>Node5</title>
<g id="a_Node000005"><a xlink:href="a00341.html#a968747854ba14331aa9f85784178d0da" target="_top" xlink:title=" ">
<polygon fill="white" stroke="#666666" points="95.5,-123.02 0,-123.02 0,-103.02 95.5,-103.02 95.5,-123.02"/>
<text text-anchor="middle" x="47.75" y="-109.52" font-family="Helvetica,sans-Serif" font-size="10.00">_ADCAN0Interrupt</text>
</a>
</g>
</g>
<!-- Node4&#45;&gt;Node5 -->
<g id="edge4_Node000004_Node000005" class="edge">
<title>Node4&#45;&gt;Node5</title>
<g id="a_edge4_Node000004_Node000005"><a xlink:title=" ">
<path fill="none" stroke="#63b8ff" d="M128.32,-103.08C117.2,-104.47 105.97,-105.87 95.6,-107.17"/>
<polygon fill="#63b8ff" stroke="#63b8ff" points="128.44,-106.46 137.93,-101.75 127.57,-99.52 128.44,-106.46"/>
</a>
</g>
</g>
<!-- Node7 -->
<g id="Node000007" class="node">
<title>Node7</title>
<g id="a_Node000007"><a xlink:href="a00341.html#a6ac2591aa2e32874156ad3f8bf477d2f" target="_top" xlink:title=" ">
<polygon fill="white" stroke="#666666" points="95.5,-170.02 0,-170.02 0,-150.02 95.5,-150.02 95.5,-170.02"/>
<text text-anchor="middle" x="47.75" y="-156.52" font-family="Helvetica,sans-Serif" font-size="10.00">_ADCAN1Interrupt</text>
</a>
</g>
</g>
<!-- Node6&#45;&gt;Node7 -->
<g id="edge6_Node000006_Node000007" class="edge">
<title>Node6&#45;&gt;Node7</title>
<g id="a_edge6_Node000006_Node000007"><a xlink:title=" ">
<path fill="none" stroke="#63b8ff" d="M133.6,-144.39C120.9,-146.73 107.87,-149.13 95.95,-151.33"/>
<polygon fill="#63b8ff" stroke="#63b8ff" points="133.95,-147.7 143.15,-142.45 132.68,-140.82 133.95,-147.7"/>
</a>
</g>
</g>
<!-- Node8&#45;&gt;Node3 -->
<g id="edge8_Node000008_Node000003" class="edge">
<title>Node8&#45;&gt;Node3</title>
<g id="a_edge8_Node000008_Node000003"><a xlink:title=" ">
<path fill="none" stroke="#63b8ff" d="M476.79,-194.38C472.21,-192.46 467.69,-190.34 463.5,-188.02 429.91,-169.43 395.92,-139.1 379.27,-123.31"/>
<polygon fill="#63b8ff" stroke="#63b8ff" points="475.22,-197.91 485.81,-198.25 477.74,-191.38 475.22,-197.91"/>
</a>
</g>
</g>
<!-- Node9&#45;&gt;Node5 -->
<g id="edge10_Node000009_Node000005" class="edge">
<title>Node9&#45;&gt;Node5</title>
<g id="a_edge10_Node000009_Node000005"><a xlink:title=" ">
<path fill="none" stroke="#63b8ff" d="M148.14,-156.56C142.48,-154.82 136.84,-152.97 131.5,-151.02 109.66,-143.07 85.62,-131.72 69.1,-123.5"/>
<polygon fill="#63b8ff" stroke="#63b8ff" points="146.71,-160.08 157.29,-159.55 148.69,-153.37 146.71,-160.08"/>
</a>
</g>
</g>
<!-- Node9&#45;&gt;Node7 -->
<g id="edge11_Node000009_Node000007" class="edge">
<title>Node9&#45;&gt;Node7</title>
<g id="a_edge11_Node000009_Node000007"><a xlink:title=" ">
<path fill="none" stroke="#63b8ff" d="M120.66,-164.75C112.16,-164.19 103.73,-163.64 95.8,-163.12"/>
<polygon fill="#63b8ff" stroke="#63b8ff" points="120.21,-168.3 130.42,-165.46 120.67,-161.31 120.21,-168.3"/>
</a>
</g>
</g>
<!-- Node10&#45;&gt;Node3 -->
<g id="edge13_Node000010_Node000003" class="edge">
<title>Node10&#45;&gt;Node3</title>
<g id="a_edge13_Node000010_Node000003"><a xlink:title=" ">
<path fill="none" stroke="#63b8ff" d="M458.17,-143.18C438.17,-136.44 416.62,-129.17 399.68,-123.46"/>
<polygon fill="#63b8ff" stroke="#63b8ff" points="456.86,-146.77 467.46,-146.65 459.1,-140.14 456.86,-146.77"/>
</a>
</g>
</g>
<!-- Node11&#45;&gt;Node3 -->
<g id="edge15_Node000011_Node000003" class="edge">
<title>Node11&#45;&gt;Node3</title>
<g id="a_edge15_Node000011_Node000003"><a xlink:title=" ">
<path fill="none" stroke="#63b8ff" d="M452.37,-113.02C435.9,-113.02 418.8,-113.02 404.39,-113.02"/>
<polygon fill="#63b8ff" stroke="#63b8ff" points="452.06,-116.52 462.06,-113.02 452.06,-109.52 452.06,-116.52"/>
</a>
</g>
</g>
<!-- Node12&#45;&gt;Node4 -->
<g id="edge17_Node000012_Node000004" class="edge">
<title>Node12&#45;&gt;Node4</title>
<g id="a_edge17_Node000012_Node000004"><a xlink:title=" ">
<path fill="none" stroke="#63b8ff" d="M328.16,-48.14C298.47,-59.01 258.09,-73.78 231.26,-83.59"/>
<polygon fill="#63b8ff" stroke="#63b8ff" points="328.99,-51.2 337.18,-44.47 326.59,-44.62 328.99,-51.2"/>
</a>
</g>
</g>
<!-- Node13&#45;&gt;Node3 -->
<g id="edge19_Node000013_Node000003" class="edge">
<title>Node13&#45;&gt;Node3</title>
<g id="a_edge19_Node000013_Node000003"><a xlink:title=" ">
<path fill="none" stroke="#63b8ff" d="M471.54,-82.52C449.78,-88.97 424.12,-96.59 403.89,-102.59"/>
<polygon fill="#63b8ff" stroke="#63b8ff" points="472.28,-85.65 480.87,-79.45 470.28,-78.94 472.28,-85.65"/>
</a>
</g>
</g>
</g>
</svg>
