<?xml version="1.0" encoding="UTF-8" standalone="no"?>
<!DOCTYPE svg PUBLIC "-//W3C//DTD SVG 1.1//EN"
 "http://www.w3.org/Graphics/SVG/1.1/DTD/svg11.dtd">
<!-- Generated by graphviz version 2.44.1 (20200629.0846)
 -->
<!-- Title: StartControl_StateHandler Pages: 1 -->
<svg width="323pt" height="101pt"
 viewBox="0.00 0.00 323.00 101.00" xmlns="http://www.w3.org/2000/svg" xmlns:xlink="http://www.w3.org/1999/xlink">
<g id="graph0" class="graph" transform="scale(1 1) rotate(0) translate(4 97)">
<title>StartControl_StateHandler</title>
<!-- Node1 -->
<g id="Node000001" class="node">
<title>Node1</title>
<g id="a_Node000001"><a xlink:title="initialize control loops">
<polygon fill="#999999" stroke="#666666" points="130,-56 0,-56 0,-37 130,-37 130,-56"/>
<text text-anchor="middle" x="65" y="-44" font-family="Helvetica,sans-Serif" font-size="10.00">StartControl_StateHandler</text>
</a>
</g>
</g>
<!-- Node2 -->
<g id="Node000002" class="node">
<title>Node2</title>
<g id="a_Node000002"><a xlink:href="a00409.html#gac2f23c6185e515ff80fb2f2549b0f10d" target="_top" xlink:title="Disables the global interrupt bit.">
<polygon fill="white" stroke="#666666" points="308,-93 173,-93 173,-74 308,-74 308,-93"/>
<text text-anchor="middle" x="240.5" y="-81" font-family="Helvetica,sans-Serif" font-size="10.00">INTERRUPT_GlobalDisable</text>
</a>
</g>
</g>
<!-- Node1&#45;&gt;Node2 -->
<g id="edge1_Node000001_Node000002" class="edge">
<title>Node1&#45;&gt;Node2</title>
<g id="a_edge1_Node000001_Node000002"><a xlink:title=" ">
<path fill="none" stroke="#63b8ff" d="M110.68,-56.03C133.26,-60.84 160.85,-66.73 184.7,-71.81"/>
<polygon fill="#63b8ff" stroke="#63b8ff" points="184.16,-75.28 194.67,-73.94 185.62,-68.43 184.16,-75.28"/>
</a>
</g>
</g>
<!-- Node3 -->
<g id="Node000003" class="node">
<title>Node3</title>
<g id="a_Node000003"><a xlink:href="a00409.html#ga0e88e5f65ed34a762b4f9059e2a033ed" target="_top" xlink:title="Enables the global interrupt bit.">
<polygon fill="white" stroke="#666666" points="307,-56 174,-56 174,-37 307,-37 307,-56"/>
<text text-anchor="middle" x="240.5" y="-44" font-family="Helvetica,sans-Serif" font-size="10.00">INTERRUPT_GlobalEnable</text>
</a>
</g>
</g>
<!-- Node1&#45;&gt;Node3 -->
<g id="edge2_Node000001_Node000003" class="edge">
<title>Node1&#45;&gt;Node3</title>
<g id="a_edge2_Node000001_Node000003"><a xlink:title=" ">
<path fill="none" stroke="#63b8ff" d="M130.11,-46.5C141.05,-46.5 152.5,-46.5 163.71,-46.5"/>
<polygon fill="#63b8ff" stroke="#63b8ff" points="163.91,-50 173.91,-46.5 163.91,-43 163.91,-50"/>
</a>
</g>
</g>
<!-- Node4 -->
<g id="Node000004" class="node">
<title>Node4</title>
<g id="a_Node000004"><a xlink:href="a00380.html#a8d0d916c7a3ca172408fcded86a6baa2" target="_top" xlink:title=" ">
<polygon fill="white" stroke="#666666" points="315,-19 166,-19 166,0 315,0 315,-19"/>
<text text-anchor="middle" x="240.5" y="-7" font-family="Helvetica,sans-Serif" font-size="10.00">SMPS_Controller2P2ZInitialize</text>
</a>
</g>
</g>
<!-- Node1&#45;&gt;Node4 -->
<g id="edge3_Node000001_Node000004" class="edge">
<title>Node1&#45;&gt;Node4</title>
<g id="a_edge3_Node000001_Node000004"><a xlink:title=" ">
<path fill="none" stroke="#63b8ff" d="M110.68,-36.97C133.26,-32.16 160.85,-26.27 184.7,-21.19"/>
<polygon fill="#63b8ff" stroke="#63b8ff" points="185.62,-24.57 194.67,-19.06 184.16,-17.72 185.62,-24.57"/>
</a>
</g>
</g>
</g>
</svg>
