<?xml version="1.0" encoding="UTF-8" standalone="no"?>
<!DOCTYPE svg PUBLIC "-//W3C//DTD SVG 1.1//EN"
 "http://www.w3.org/Graphics/SVG/1.1/DTD/svg11.dtd">
<!-- Generated by graphviz version 8.1.0 (20230707.0739)
 -->
<!-- Title: SPI1_CLIENT_CONFIG Pages: 1 -->
<svg width="119pt" height="60pt"
 viewBox="0.00 0.00 119.00 60.00" xmlns="http://www.w3.org/2000/svg" xmlns:xlink="http://www.w3.org/1999/xlink">
<g id="graph0" class="graph" transform="scale(1 1) rotate(0) translate(4 56)">
<title>SPI1_CLIENT_CONFIG</title>
<!-- Node1 -->
<g id="Node000001" class="node">
<title>Node1</title>
<g id="a_Node000001"><a xlink:title=" ">
<polygon fill="#999999" stroke="none" points="111,-52 0,-52 0,0 111,0 111,-52"/>
<text text-anchor="start" x="4.88" y="-38.5" font-family="Helvetica,sans-Serif" font-size="10.00">SPI1_CLIENT_CONFIG</text>
<text text-anchor="start" x="9.5" y="-22.5" font-family="Helvetica,sans-Serif" font-size="10.00">+</text>
<text text-anchor="start" x="25" y="-22.5" font-family="Helvetica,sans-Serif" font-size="10.00">controlRegister1</text>
<text text-anchor="start" x="54" y="-6.5" font-family="Helvetica,sans-Serif" font-size="10.00"> </text>
<polygon fill="#666666" stroke="#666666" points="0,-34 0,-34 111,-34 111,-34 0,-34"/>
<polygon fill="#666666" stroke="#666666" points="0,-18 0,-18 23,-18 23,-18 0,-18"/>
<polygon fill="#666666" stroke="#666666" points="23,-18 23,-18 111,-18 111,-18 23,-18"/>
<polygon fill="none" stroke="#666666" points="0,0 0,-52 111,-52 111,0 0,0"/>
</a>
</g>
</g>
</g>
</svg>
