<?xml version="1.0" encoding="UTF-8" standalone="no"?>
<!DOCTYPE svg PUBLIC "-//W3C//DTD SVG 1.1//EN"
 "http://www.w3.org/Graphics/SVG/1.1/DTD/svg11.dtd">
<!-- Generated by graphviz version 8.1.0 (20230707.0739)
 -->
<!-- Title: DMT_Initialize Pages: 1 -->
<svg width="260pt" height="180pt"
 viewBox="0.00 0.00 259.75 180.00" xmlns="http://www.w3.org/2000/svg" xmlns:xlink="http://www.w3.org/1999/xlink">

<svg id="main" version="1.1" xmlns="http://www.w3.org/2000/svg" xmlns:xlink="http://www.w3.org/1999/xlink" xml:space="preserve" onload="init(evt)">
<style type="text/css"><![CDATA[
.node, .edge {opacity: 0.7;}
.node.selected, .edge.selected {opacity: 1;}
.edge:hover path { stroke: red; }
.edge:hover polygon { stroke: red; fill: red; }
]]></style>
<script type="application/ecmascript" xlink:href="svg.min.js"/>
<svg id="graph" class="graph">
<g id="graph0" class="graph" transform="scale(1 1) rotate(0) translate(4 176)">
<title>DMT_Initialize</title>
<!-- Node1 -->
<g id="Node000001" class="node">
<title>Node1</title>
<g id="a_Node000001"><a xlink:title="Initializes the DMT module.">
<polygon fill="#999999" stroke="#666666" points="76.75,-96 0,-96 0,-76 76.75,-76 76.75,-96"/>
<text text-anchor="middle" x="38.38" y="-82.5" font-family="Helvetica,sans-Serif" font-size="10.00">DMT_Initialize</text>
</a>
</g>
</g>
<!-- Node2 -->
<g id="Node000002" class="node">
<title>Node2</title>
<g id="a_Node000002"><a xlink:href="a00805.html#aebd96a4ba3fa41218490c57dca28e720" target="_top" xlink:title=" ">
<polygon fill="white" stroke="#666666" points="222.12,-172 142.38,-172 142.38,-152 222.12,-152 222.12,-172"/>
<text text-anchor="middle" x="182.25" y="-158.5" font-family="Helvetica,sans-Serif" font-size="10.00">DMT_Calibrate</text>
</a>
</g>
</g>
<!-- Node1&#45;&gt;Node2 -->
<g id="edge1_Node000001_Node000002" class="edge">
<title>Node1&#45;&gt;Node2</title>
<g id="a_edge1_Node000001_Node000002"><a xlink:title=" ">
<path fill="none" stroke="#63b8ff" d="M49.88,-96.36C63.36,-109.1 87.96,-130.55 112.75,-143 118.76,-146.02 125.31,-148.61 131.9,-150.82"/>
<polygon fill="#63b8ff" stroke="#63b8ff" points="130.64,-154.4 141.22,-154 132.69,-147.71 130.64,-154.4"/>
</a>
</g>
</g>
<!-- Node3 -->
<g id="Node000003" class="node">
<title>Node3</title>
<g id="a_Node000003"><a xlink:href="a00402.html#ga0c26f1adfdfa77d4ff761acc1e89be67" target="_top" xlink:title="This is the default callback with weak attribute. The user can override and implement the default cal...">
<polygon fill="white" stroke="#666666" points="233.75,-134 130.75,-134 130.75,-114 233.75,-114 233.75,-134"/>
<text text-anchor="middle" x="182.25" y="-120.5" font-family="Helvetica,sans-Serif" font-size="10.00">DMT_EventCallback</text>
</a>
</g>
</g>
<!-- Node1&#45;&gt;Node3 -->
<g id="edge2_Node000001_Node000003" class="edge">
<title>Node1&#45;&gt;Node3</title>
<g id="a_edge2_Node000001_Node000003"><a xlink:title=" ">
<path fill="none" stroke="#63b8ff" d="M77.02,-96.08C93.83,-100.58 113.85,-105.95 131.84,-110.76"/>
<polygon fill="#63b8ff" stroke="#63b8ff" points="130.87,-114.4 141.44,-113.6 132.68,-107.64 130.87,-114.4"/>
</a>
</g>
</g>
<!-- Node4 -->
<g id="Node000004" class="node">
<title>Node4</title>
<g id="a_Node000004"><a xlink:href="a00402.html#ga96ee14343231d4dd8fd27dd480a0f5c3" target="_top" xlink:title="This function can be used to override default callback and to define custom callback for DMT Event ev...">
<polygon fill="white" stroke="#666666" points="251.75,-96 112.75,-96 112.75,-76 251.75,-76 251.75,-96"/>
<text text-anchor="middle" x="182.25" y="-82.5" font-family="Helvetica,sans-Serif" font-size="10.00">DMT_EventCallbackRegister</text>
</a>
</g>
</g>
<!-- Node1&#45;&gt;Node4 -->
<g id="edge3_Node000001_Node000004" class="edge">
<title>Node1&#45;&gt;Node4</title>
<g id="a_edge3_Node000001_Node000004"><a xlink:title=" ">
<path fill="none" stroke="#63b8ff" d="M77.02,-86C84.7,-86 93.05,-86 101.57,-86"/>
<polygon fill="#63b8ff" stroke="#63b8ff" points="101.42,-89.5 111.42,-86 101.42,-82.5 101.42,-89.5"/>
</a>
</g>
</g>
<!-- Node5 -->
<g id="Node000005" class="node">
<title>Node5</title>
<g id="a_Node000005"><a xlink:href="a00403.html#gac2f23c6185e515ff80fb2f2549b0f10d" target="_top" xlink:title="Disables the global interrupt bit.">
<polygon fill="white" stroke="#666666" points="249.5,-58 115,-58 115,-38 249.5,-38 249.5,-58"/>
<text text-anchor="middle" x="182.25" y="-44.5" font-family="Helvetica,sans-Serif" font-size="10.00">INTERRUPT_GlobalDisable</text>
</a>
</g>
</g>
<!-- Node1&#45;&gt;Node5 -->
<g id="edge4_Node000001_Node000005" class="edge">
<title>Node1&#45;&gt;Node5</title>
<g id="a_edge4_Node000001_Node000005"><a xlink:title=" ">
<path fill="none" stroke="#63b8ff" d="M77.02,-75.92C93.83,-71.42 113.85,-66.05 131.84,-61.24"/>
<polygon fill="#63b8ff" stroke="#63b8ff" points="132.68,-64.36 141.44,-58.4 130.87,-57.6 132.68,-64.36"/>
</a>
</g>
</g>
<!-- Node6 -->
<g id="Node000006" class="node">
<title>Node6</title>
<g id="a_Node000006"><a xlink:href="a00403.html#ga0e88e5f65ed34a762b4f9059e2a033ed" target="_top" xlink:title="Enables the global interrupt bit.">
<polygon fill="white" stroke="#666666" points="248.38,-20 116.12,-20 116.12,0 248.38,0 248.38,-20"/>
<text text-anchor="middle" x="182.25" y="-6.5" font-family="Helvetica,sans-Serif" font-size="10.00">INTERRUPT_GlobalEnable</text>
</a>
</g>
</g>
<!-- Node1&#45;&gt;Node6 -->
<g id="edge5_Node000001_Node000006" class="edge">
<title>Node1&#45;&gt;Node6</title>
<g id="a_edge5_Node000001_Node000006"><a xlink:title=" ">
<path fill="none" stroke="#63b8ff" d="M49.88,-75.64C63.36,-62.9 87.96,-41.45 112.75,-29 116.32,-27.2 120.09,-25.56 123.94,-24.06"/>
<polygon fill="#63b8ff" stroke="#63b8ff" points="125.02,-27.03 133.27,-20.4 122.68,-20.44 125.02,-27.03"/>
</a>
</g>
</g>
</g>
</svg>
</svg>

<style type='text/css'>
<![CDATA[
[data-mouse-over-selected='false'] { opacity: 0.7; }
[data-mouse-over-selected='true']  { opacity: 1.0; }
]]>
</style>
<script type="application/ecmascript"><![CDATA[
document.addEventListener('DOMContentLoaded', (event) => {
  highlightEdges();
  highlightAdjacentNodes();
});
]]></script>
</svg>
