<?xml version="1.0" encoding="UTF-8" standalone="no"?>
<!DOCTYPE svg PUBLIC "-//W3C//DTD SVG 1.1//EN"
 "http://www.w3.org/Graphics/SVG/1.1/DTD/svg11.dtd">
<!-- Generated by graphviz version 2.44.1 (20200629.0846)
 -->
<!-- Title: DAC_DC_INTERFACE Pages: 1 -->
<svg width="117pt" height="87pt"
 viewBox="0.00 0.00 117.00 87.00" xmlns="http://www.w3.org/2000/svg" xmlns:xlink="http://www.w3.org/1999/xlink">
<g id="graph0" class="graph" transform="scale(1 1) rotate(0) translate(4 83)">
<title>DAC_DC_INTERFACE</title>
<!-- Node1 -->
<g id="Node000001" class="node">
<title>Node1</title>
<g id="a_Node000001"><a xlink:title="Structure containing the function pointers of DAC driver in DC mode.">
<polygon fill="#999999" stroke="transparent" points="109,-79 0,-79 0,0 109,0 109,-79"/>
<text text-anchor="start" x="5.5" y="-66.5" font-family="Helvetica,sans-Serif" font-size="10.00">DAC_DC_INTERFACE</text>
<text text-anchor="start" x="16" y="-51.5" font-family="Helvetica,sans-Serif" font-size="10.00">+</text>
<text text-anchor="start" x="38.5" y="-51.5" font-family="Helvetica,sans-Serif" font-size="10.00">Enable</text>
<text text-anchor="start" x="16" y="-36.5" font-family="Helvetica,sans-Serif" font-size="10.00">+</text>
<text text-anchor="start" x="38.5" y="-36.5" font-family="Helvetica,sans-Serif" font-size="10.00">Disable</text>
<text text-anchor="start" x="16" y="-21.5" font-family="Helvetica,sans-Serif" font-size="10.00">+</text>
<text text-anchor="start" x="38.5" y="-21.5" font-family="Helvetica,sans-Serif" font-size="10.00">DataWrite</text>
<text text-anchor="start" x="53" y="-6.5" font-family="Helvetica,sans-Serif" font-size="10.00"> </text>
<polygon fill="#666666" stroke="#666666" points="0.5,-61.5 0.5,-61.5 109.5,-61.5 109.5,-61.5 0.5,-61.5"/>
<polygon fill="#666666" stroke="#666666" points="0.5,-16.5 0.5,-16.5 36.5,-16.5 36.5,-16.5 0.5,-16.5"/>
<polygon fill="#666666" stroke="#666666" points="36.5,-16.5 36.5,-16.5 109.5,-16.5 109.5,-16.5 36.5,-16.5"/>
<polygon fill="none" stroke="#666666" points="0,0 0,-79 109,-79 109,0 0,0"/>
</a>
</g>
</g>
</g>
</svg>
