<?xml version="1.0" encoding="UTF-8" standalone="no"?>
<!DOCTYPE svg PUBLIC "-//W3C//DTD SVG 1.1//EN"
 "http://www.w3.org/Graphics/SVG/1.1/DTD/svg11.dtd">
<!-- Generated by graphviz version 2.44.1 (20200629.0846)
 -->
<!-- Title: PWM_DutyCycleSet Pages: 1 -->
<!--zoomable 142 -->

<svg id="main" version="1.1" xmlns="http://www.w3.org/2000/svg" xmlns:xlink="http://www.w3.org/1999/xlink" xml:space="preserve" onload="init(evt)">

<style type="text/css"><![CDATA[
.node, .edge {opacity: 0.7;}
.node.selected, .edge.selected {opacity: 1;}
.edge:hover path { stroke: red; }
.edge:hover polygon { stroke: red; fill: red; }
]]></style>

<defs>
  <circle id="rim" cx="0" cy="0" r="7"/>
  <circle id="rim2" cx="0" cy="0" r="3.5"/>
  <g id="zoomPlus">
    <use xlink:href="#rim" fill="#404040"><set attributeName="fill" to="#808080" begin="zoomplus.mouseover" end="zoomplus.mouseout"/></use>
    <path d="M-4,0h8M0,-4v8" fill="none" stroke="white" stroke-width="1.5" pointer-events="none"/>
  </g>
  <g id="zoomMin">
    <use xlink:href="#rim" fill="#404040"><set attributeName="fill" to="#808080" begin="zoomminus.mouseover" end="zoomminus.mouseout"/></use>
    <path d="M-4,0h8" fill="none" stroke="white" stroke-width="1.5" pointer-events="none"/>
  </g>
  <g id="arrowUp" transform="translate(30 24)">
    <use xlink:href="#rim"/>
    <path pointer-events="none" fill="none" stroke="white" stroke-width="1.5" d="M0,-3.0v7 M-2.5,-0.5L0,-3.0L2.5,-0.5"/>
  </g>
  <g id="arrowRight" transform="rotate(90) translate(36 -43)">
    <use xlink:href="#rim"/>
    <path pointer-events="none" fill="none" stroke="white" stroke-width="1.5" d="M0,-3.0v7 M-2.5,-0.5L0,-3.0L2.5,-0.5"/>
  </g>
  <g id="arrowDown" transform="rotate(180) translate(-30 -48)">
    <use xlink:href="#rim"/>
    <path pointer-events="none" fill="none" stroke="white" stroke-width="1.5" d="M0,-3.0v7 M-2.5,-0.5L0,-3.0L2.5,-0.5"/>
  </g>
  <g id="arrowLeft" transform="rotate(270) translate(-36 17)">
    <use xlink:href="#rim"/>
    <path pointer-events="none" fill="none" stroke="white" stroke-width="1.5" d="M0,-3.0v7 M-2.5,-0.5L0,-3.0L2.5,-0.5"/>
  </g>
  <g id="resetDef">
    <use xlink:href="#rim2" fill="#404040"><set attributeName="fill" to="#808080" begin="reset.mouseover" end="reset.mouseout"/></use>
  </g>
</defs>
<script type="application/ecmascript">
var viewWidth = 664;
var viewHeight = 142;
var sectionId = 'dynsection-5';
</script>
<script type="application/ecmascript" xlink:href="svg.min.js"/>
<svg id="graph" class="graph">
<g id="viewport">
<title>PWM_DutyCycleSet</title>
<!-- Node1 -->
<g id="Node000001" class="node">
<title>Node1</title>
<g id="a_Node000001"><a xlink:title="This inline function sets the PWM generator specific duty cycle register.">
<polygon fill="#999999" stroke="#666666" points="656,-86 549,-86 549,-67 656,-67 656,-86"/>
<text text-anchor="middle" x="602.5" y="-74" font-family="Helvetica,sans-Serif" font-size="10.00">PWM_DutyCycleSet</text>
</a>
</g>
</g>
<!-- Node2 -->
<g id="Node000002" class="node">
<title>Node2</title>
<g id="a_Node000002"><a xlink:href="a00371.html#a647fd6dacbfbcebe49cc34111a01493b" target="_top" xlink:title=" ">
<polygon fill="white" stroke="#666666" points="367,-86 293,-86 293,-67 367,-67 367,-86"/>
<text text-anchor="middle" x="330" y="-74" font-family="Helvetica,sans-Serif" font-size="10.00">Handler_PHx</text>
</a>
</g>
</g>
<!-- Node1&#45;&gt;Node2 -->
<g id="edge1_Node000001_Node000002" class="edge">
<title>Node1&#45;&gt;Node2</title>
<g id="a_edge1_Node000001_Node000002"><a xlink:title=" ">
<path fill="none" stroke="#63b8ff" d="M580.21,-92C563.03,-103.5 537.73,-118.23 513,-124.5 465.61,-136.52 449.79,-138.67 403,-124.5 378.27,-117.01 354.27,-97.92 341.18,-86.19"/>
<polygon fill="#63b8ff" stroke="#63b8ff" points="582.63,-94.59 588.87,-86.02 578.65,-88.83 582.63,-94.59"/>
</a>
</g>
</g>
<!-- Node7 -->
<g id="Node000007" class="node">
<title>Node7</title>
<g id="a_Node000007"><a xlink:href="a00371.html#ad3476b7cd98e6a22a65e1d89b7a59ea5" target="_top" xlink:title=" ">
<polygon fill="white" stroke="#666666" points="513,-115.5 403,-115.5 403,-85.5 513,-85.5 513,-115.5"/>
<text text-anchor="start" x="411" y="-103.5" font-family="Helvetica,sans-Serif" font-size="10.00">SoftstartAfterZC_PHx</text>
<text text-anchor="middle" x="458" y="-92.5" font-family="Helvetica,sans-Serif" font-size="10.00">_GTIMode</text>
</a>
</g>
</g>
<!-- Node1&#45;&gt;Node7 -->
<g id="edge6_Node000001_Node000007" class="edge">
<title>Node1&#45;&gt;Node7</title>
<g id="a_edge6_Node000001_Node000007"><a xlink:title=" ">
<path fill="none" stroke="#63b8ff" d="M538.94,-87.04C530.41,-88.47 521.71,-89.94 513.35,-91.35"/>
<polygon fill="#63b8ff" stroke="#63b8ff" points="539.56,-90.48 548.84,-85.37 538.4,-83.58 539.56,-90.48"/>
</a>
</g>
</g>
<!-- Node8 -->
<g id="Node000008" class="node">
<title>Node8</title>
<g id="a_Node000008"><a xlink:href="a00371.html#a3e7091905b384bca668f6f12a50834f4" target="_top" xlink:title=" ">
<polygon fill="white" stroke="#666666" points="513,-67.5 403,-67.5 403,-37.5 513,-37.5 513,-67.5"/>
<text text-anchor="start" x="411" y="-55.5" font-family="Helvetica,sans-Serif" font-size="10.00">SoftstartAfterZC_PHx</text>
<text text-anchor="middle" x="458" y="-44.5" font-family="Helvetica,sans-Serif" font-size="10.00">_PFCMode</text>
</a>
</g>
</g>
<!-- Node1&#45;&gt;Node8 -->
<g id="edge8_Node000001_Node000008" class="edge">
<title>Node1&#45;&gt;Node8</title>
<g id="a_edge8_Node000001_Node000008"><a xlink:title=" ">
<path fill="none" stroke="#63b8ff" d="M538.94,-65.96C530.41,-64.53 521.71,-63.06 513.35,-61.65"/>
<polygon fill="#63b8ff" stroke="#63b8ff" points="538.4,-69.42 548.84,-67.63 539.56,-62.52 538.4,-69.42"/>
</a>
</g>
</g>
<!-- Node9 -->
<g id="Node000009" class="node">
<title>Node9</title>
<g id="a_Node000009"><a xlink:href="a00371.html#a9d01eea56aae5f1437eb541a321277cc" target="_top" xlink:title=" ">
<polygon fill="white" stroke="#666666" points="500.5,-19 415.5,-19 415.5,0 500.5,0 500.5,-19"/>
<text text-anchor="middle" x="458" y="-7" font-family="Helvetica,sans-Serif" font-size="10.00">ZeroCross_PHx</text>
</a>
</g>
</g>
<!-- Node1&#45;&gt;Node9 -->
<g id="edge10_Node000001_Node000009" class="edge">
<title>Node1&#45;&gt;Node9</title>
<g id="a_edge10_Node000001_Node000009"><a xlink:title=" ">
<path fill="none" stroke="#63b8ff" d="M576.62,-61.62C559.17,-51.54 535.11,-38.31 513,-28.5 505.28,-25.07 496.73,-21.83 488.76,-19.02"/>
<polygon fill="#63b8ff" stroke="#63b8ff" points="575.18,-64.84 585.58,-66.86 578.71,-58.79 575.18,-64.84"/>
</a>
</g>
</g>
<!-- Node3 -->
<g id="Node000003" class="node">
<title>Node3</title>
<g id="a_Node000003"><a xlink:href="a00371.html#aa7b8e2dc355948aa24cf22ca82f9e805" target="_top" xlink:title=" ">
<polygon fill="white" stroke="#666666" points="257,-105 132,-105 132,-86 257,-86 257,-105"/>
<text text-anchor="middle" x="194.5" y="-93" font-family="Helvetica,sans-Serif" font-size="10.00">Application_handler_PH1</text>
</a>
</g>
</g>
<!-- Node2&#45;&gt;Node3 -->
<g id="edge2_Node000002_Node000003" class="edge">
<title>Node2&#45;&gt;Node3</title>
<g id="a_edge2_Node000002_Node000003"><a xlink:title=" ">
<path fill="none" stroke="#63b8ff" d="M282.7,-83.09C274.45,-84.26 265.73,-85.51 257.12,-86.73"/>
<polygon fill="#63b8ff" stroke="#63b8ff" points="283.47,-86.52 292.87,-81.64 282.48,-79.59 283.47,-86.52"/>
</a>
</g>
</g>
<!-- Node5 -->
<g id="Node000005" class="node">
<title>Node5</title>
<g id="a_Node000005"><a xlink:href="a00371.html#a87fa9190951df7c866d828b8ad7b526b" target="_top" xlink:title=" ">
<polygon fill="white" stroke="#666666" points="257,-68 132,-68 132,-49 257,-49 257,-68"/>
<text text-anchor="middle" x="194.5" y="-56" font-family="Helvetica,sans-Serif" font-size="10.00">Application_handler_PH2</text>
</a>
</g>
</g>
<!-- Node2&#45;&gt;Node5 -->
<g id="edge4_Node000002_Node000005" class="edge">
<title>Node2&#45;&gt;Node5</title>
<g id="a_edge4_Node000002_Node000005"><a xlink:title=" ">
<path fill="none" stroke="#63b8ff" d="M282.7,-70.26C274.45,-69.14 265.73,-67.97 257.12,-66.81"/>
<polygon fill="#63b8ff" stroke="#63b8ff" points="282.49,-73.76 292.87,-71.63 283.43,-66.82 282.49,-73.76"/>
</a>
</g>
</g>
<!-- Node4 -->
<g id="Node000004" class="node">
<title>Node4</title>
<g id="a_Node000004"><a xlink:href="a00347.html#a968747854ba14331aa9f85784178d0da" target="_top" xlink:title=" ">
<polygon fill="white" stroke="#666666" points="96,-105 0,-105 0,-86 96,-86 96,-105"/>
<text text-anchor="middle" x="48" y="-93" font-family="Helvetica,sans-Serif" font-size="10.00">_ADCAN0Interrupt</text>
</a>
</g>
</g>
<!-- Node3&#45;&gt;Node4 -->
<g id="edge3_Node000003_Node000004" class="edge">
<title>Node3&#45;&gt;Node4</title>
<g id="a_edge3_Node000003_Node000004"><a xlink:title=" ">
<path fill="none" stroke="#63b8ff" d="M121.64,-95.5C112.96,-95.5 104.26,-95.5 96.07,-95.5"/>
<polygon fill="#63b8ff" stroke="#63b8ff" points="121.8,-99 131.8,-95.5 121.8,-92 121.8,-99"/>
</a>
</g>
</g>
<!-- Node6 -->
<g id="Node000006" class="node">
<title>Node6</title>
<g id="a_Node000006"><a xlink:href="a00347.html#a6ac2591aa2e32874156ad3f8bf477d2f" target="_top" xlink:title=" ">
<polygon fill="white" stroke="#666666" points="96,-68 0,-68 0,-49 96,-49 96,-68"/>
<text text-anchor="middle" x="48" y="-56" font-family="Helvetica,sans-Serif" font-size="10.00">_ADCAN1Interrupt</text>
</a>
</g>
</g>
<!-- Node5&#45;&gt;Node6 -->
<g id="edge5_Node000005_Node000006" class="edge">
<title>Node5&#45;&gt;Node6</title>
<g id="a_edge5_Node000005_Node000006"><a xlink:title=" ">
<path fill="none" stroke="#63b8ff" d="M121.64,-58.5C112.96,-58.5 104.26,-58.5 96.07,-58.5"/>
<polygon fill="#63b8ff" stroke="#63b8ff" points="121.8,-62 131.8,-58.5 121.8,-55 121.8,-62"/>
</a>
</g>
</g>
<!-- Node7&#45;&gt;Node2 -->
<g id="edge7_Node000007_Node000002" class="edge">
<title>Node7&#45;&gt;Node2</title>
<g id="a_edge7_Node000007_Node000002"><a xlink:title=" ">
<path fill="none" stroke="#63b8ff" d="M392.92,-88.29C384.12,-86.62 375.35,-84.95 367.3,-83.41"/>
<polygon fill="#63b8ff" stroke="#63b8ff" points="392.36,-91.75 402.83,-90.18 393.66,-84.87 392.36,-91.75"/>
</a>
</g>
</g>
<!-- Node8&#45;&gt;Node2 -->
<g id="edge9_Node000008_Node000002" class="edge">
<title>Node8&#45;&gt;Node2</title>
<g id="a_edge9_Node000008_Node000002"><a xlink:title=" ">
<path fill="none" stroke="#63b8ff" d="M392.92,-64.71C384.12,-66.38 375.35,-68.05 367.3,-69.59"/>
<polygon fill="#63b8ff" stroke="#63b8ff" points="393.66,-68.13 402.83,-62.82 392.36,-61.25 393.66,-68.13"/>
</a>
</g>
</g>
<!-- Node9&#45;&gt;Node2 -->
<g id="edge11_Node000009_Node000002" class="edge">
<title>Node9&#45;&gt;Node2</title>
<g id="a_edge11_Node000009_Node000002"><a xlink:title=" ">
<path fill="none" stroke="#63b8ff" d="M415.93,-22.73C411.5,-24.51 407.11,-26.45 403,-28.5 380.82,-39.57 357.32,-56.31 343.42,-66.81"/>
<polygon fill="#63b8ff" stroke="#63b8ff" points="417.5,-25.88 425.61,-19.06 415.02,-19.33 417.5,-25.88"/>
</a>
</g>
</g>
</g>
</svg>

<g id="navigator" transform="translate(0 0)" fill="#404254">
  <rect fill="#f2f5e9" fill-opacity="0.5" stroke="#606060" stroke-width=".5" x="0" y="0" width="60" height="60"/>
  <use id="zoomplus" xlink:href="#zoomPlus" x="17" y="9" onmousedown="handleZoom(evt,'in')"/>
  <use id="zoomminus" xlink:href="#zoomMin" x="42" y="9" onmousedown="handleZoom(evt,'out')"/>
  <use id="reset" xlink:href="#resetDef" x="30" y="36" onmousedown="handleReset()"/>
   <use id="arrowup" xlink:href="#arrowUp" x="0" y="0" onmousedown="handlePan(0,-1)"/>
  <use id="arrowright" xlink:href="#arrowRight" x="0" y="0" onmousedown="handlePan(1,0)"/>
  <use id="arrowdown" xlink:href="#arrowDown" x="0" y="0" onmousedown="handlePan(0,1)"/>
  <use id="arrowleft" xlink:href="#arrowLeft" x="0" y="0" onmousedown="handlePan(-1,0)"/>
</g>
<svg viewBox="0 0 15 15" width="100%" height="30px" preserveAspectRatio="xMaxYMin meet">
 <g id="arrow_out" transform="scale(0.3 0.3)">
  <a xlink:href="a00407_ga37968a783e44cd80643478d2b559dbf4_icgraph_org.svg" target="_base">
   <rect id="button" ry="5" rx="5" y="6" x="6" height="38" width="38"
        fill="#f2f5e9" fill-opacity="0.5" stroke="#606060" stroke-width="1.0"/>
   <path id="arrow"
     d="M 11.500037,31.436501 C 11.940474,20.09759 22.043105,11.32322 32.158766,21.979434 L 37.068811,17.246167 C 37.068811,17.246167 37.088388,32 37.088388,32 L 22.160133,31.978069 C 22.160133,31.978069 26.997745,27.140456 26.997745,27.140456 C 18.528582,18.264221 13.291696,25.230495 11.500037,31.436501 z"
     style="fill:#404040;"/>
  </a>
 </g>
</svg>

<style type='text/css'>
<![CDATA[
[data-mouse-over-selected='false'] { opacity: 0.7; }
[data-mouse-over-selected='true']  { opacity: 1.0; }
]]>
</style>
<script type="application/ecmascript"><![CDATA[
document.addEventListener('DOMContentLoaded', (event) => {
  highlightEdges();
  highlightAdjacentNodes();
});
]]></script>
</svg>
