<?xml version="1.0" encoding="UTF-8" standalone="no"?>
<!DOCTYPE svg PUBLIC "-//W3C//DTD SVG 1.1//EN"
 "http://www.w3.org/Graphics/SVG/1.1/DTD/svg11.dtd">
<!-- Generated by graphviz version 2.44.1 (20200629.0846)
 -->
<!-- Title: CAN1_BusErrorCallbackRegister Pages: 1 -->
<svg width="602pt" height="27pt"
 viewBox="0.00 0.00 602.00 27.00" xmlns="http://www.w3.org/2000/svg" xmlns:xlink="http://www.w3.org/1999/xlink">
<g id="graph0" class="graph" transform="scale(1 1) rotate(0) translate(4 23)">
<title>CAN1_BusErrorCallbackRegister</title>
<!-- Node1 -->
<g id="Node000001" class="node">
<title>Node1</title>
<g id="a_Node000001"><a xlink:title="This function can be used to override default callback and to define custom callback for CAN1_BusErro...">
<polygon fill="#999999" stroke="#666666" points="594,-19 435,-19 435,0 594,0 594,-19"/>
<text text-anchor="middle" x="514.5" y="-7" font-family="Helvetica,sans-Serif" font-size="10.00">CAN1_BusErrorCallbackRegister</text>
</a>
</g>
</g>
<!-- Node2 -->
<g id="Node000002" class="node">
<title>Node2</title>
<g id="a_Node000002"><a xlink:href="a00405.html#gaa87a20920f9eeb971cc0fb144ab9f9ee" target="_top" xlink:title="This function enables the CAN1 error notification interrupt.">
<polygon fill="white" stroke="#666666" points="399,-19 253,-19 253,0 399,0 399,-19"/>
<text text-anchor="middle" x="326" y="-7" font-family="Helvetica,sans-Serif" font-size="10.00">CAN1_ErrorNotificationEnable</text>
</a>
</g>
</g>
<!-- Node1&#45;&gt;Node2 -->
<g id="edge1_Node000001_Node000002" class="edge">
<title>Node1&#45;&gt;Node2</title>
<g id="a_edge1_Node000001_Node000002"><a xlink:title=" ">
<path fill="none" stroke="#63b8ff" d="M424.89,-9.5C416.29,-9.5 407.64,-9.5 399.23,-9.5"/>
<polygon fill="#63b8ff" stroke="#63b8ff" points="424.95,-13 434.95,-9.5 424.95,-6 424.95,-13"/>
</a>
</g>
</g>
<!-- Node3 -->
<g id="Node000003" class="node">
<title>Node3</title>
<g id="a_Node000003"><a xlink:href="a00405.html#gadd8850a15e40f5316f9e614fd70ec956" target="_top" xlink:title="Initializes CAN1 module.">
<polygon fill="white" stroke="#666666" points="217,-19 134,-19 134,0 217,0 217,-19"/>
<text text-anchor="middle" x="175.5" y="-7" font-family="Helvetica,sans-Serif" font-size="10.00">CAN1_Initialize</text>
</a>
</g>
</g>
<!-- Node2&#45;&gt;Node3 -->
<g id="edge2_Node000002_Node000003" class="edge">
<title>Node2&#45;&gt;Node3</title>
<g id="a_edge2_Node000002_Node000003"><a xlink:title=" ">
<path fill="none" stroke="#63b8ff" d="M242.87,-9.5C234,-9.5 225.28,-9.5 217.23,-9.5"/>
<polygon fill="#63b8ff" stroke="#63b8ff" points="242.93,-13 252.93,-9.5 242.92,-6 242.93,-13"/>
</a>
</g>
</g>
<!-- Node4 -->
<g id="Node000004" class="node">
<title>Node4</title>
<g id="a_Node000004"><a xlink:href="a00412.html#ga5e8391114a0cf91ac20002be25e3d352" target="_top" xlink:title="Initializes the System module.">
<polygon fill="white" stroke="#666666" points="98,-19 0,-19 0,0 98,0 98,-19"/>
<text text-anchor="middle" x="49" y="-7" font-family="Helvetica,sans-Serif" font-size="10.00">SYSTEM_Initialize</text>
</a>
</g>
</g>
<!-- Node3&#45;&gt;Node4 -->
<g id="edge3_Node000003_Node000004" class="edge">
<title>Node3&#45;&gt;Node4</title>
<g id="a_edge3_Node000003_Node000004"><a xlink:title=" ">
<path fill="none" stroke="#63b8ff" d="M123.67,-9.5C115.26,-9.5 106.56,-9.5 98.22,-9.5"/>
<polygon fill="#63b8ff" stroke="#63b8ff" points="123.73,-13 133.73,-9.5 123.73,-6 123.73,-13"/>
</a>
</g>
</g>
</g>
</svg>
