<?xml version="1.0" encoding="UTF-8" standalone="no"?>
<!DOCTYPE svg PUBLIC "-//W3C//DTD SVG 1.1//EN"
 "http://www.w3.org/Graphics/SVG/1.1/DTD/svg11.dtd">
<!-- Generated by graphviz version 2.44.1 (20200629.0846)
 -->
<!-- Title: CAN_MSG_OBJ Pages: 1 -->
<svg width="99pt" height="228pt"
 viewBox="0.00 0.00 99.00 228.00" xmlns="http://www.w3.org/2000/svg" xmlns:xlink="http://www.w3.org/1999/xlink">
<g id="graph0" class="graph" transform="scale(1 1) rotate(0) translate(4 224)">
<title>CAN_MSG_OBJ</title>
<!-- Node1 -->
<g id="Node000001" class="node">
<title>Node1</title>
<g id="a_Node000001"><a xlink:title="This data structure used to configure the CAN FD message object.">
<polygon fill="#999999" stroke="transparent" points="87,-64 4,-64 4,0 87,0 87,-64"/>
<text text-anchor="start" x="9.5" y="-52" font-family="Helvetica,sans-Serif" font-size="10.00">CAN_MSG_OBJ</text>
<text text-anchor="start" x="17.5" y="-37" font-family="Helvetica,sans-Serif" font-size="10.00">+</text>
<text text-anchor="start" x="37.5" y="-37" font-family="Helvetica,sans-Serif" font-size="10.00">msgId</text>
<text text-anchor="start" x="17.5" y="-22" font-family="Helvetica,sans-Serif" font-size="10.00">+</text>
<text text-anchor="start" x="37.5" y="-22" font-family="Helvetica,sans-Serif" font-size="10.00">data</text>
<text text-anchor="start" x="44" y="-7" font-family="Helvetica,sans-Serif" font-size="10.00"> </text>
<polygon fill="#666666" stroke="#666666" points="4.5,-47 4.5,-47 87.5,-47 87.5,-47 4.5,-47"/>
<polygon fill="#666666" stroke="#666666" points="4.5,-17 4.5,-17 35.5,-17 35.5,-17 4.5,-17"/>
<polygon fill="#666666" stroke="#666666" points="35.5,-17 35.5,-17 87.5,-17 87.5,-17 35.5,-17"/>
<polygon fill="none" stroke="#666666" points="4,0 4,-64 87,-64 87,0 4,0"/>
</a>
</g>
</g>
<!-- Node2 -->
<g id="Node000002" class="node">
<title>Node2</title>
<g id="a_Node000002"><a xlink:href="a00447.html" target="_top" xlink:title="This data structure used to configure the message fields. Some of the fields formatType and brs data ...">
<polygon fill="white" stroke="transparent" points="91,-220 0,-220 0,-111 91,-111 91,-220"/>
<text text-anchor="start" x="5.5" y="-207.5" font-family="Helvetica,sans-Serif" font-size="10.00">CAN_MSG_FIELD</text>
<text text-anchor="start" x="10" y="-192.5" font-family="Helvetica,sans-Serif" font-size="10.00">+</text>
<text text-anchor="start" x="26.5" y="-192.5" font-family="Helvetica,sans-Serif" font-size="10.00">idType</text>
<text text-anchor="start" x="10" y="-177.5" font-family="Helvetica,sans-Serif" font-size="10.00">+</text>
<text text-anchor="start" x="26.5" y="-177.5" font-family="Helvetica,sans-Serif" font-size="10.00">frameType</text>
<text text-anchor="start" x="10" y="-162.5" font-family="Helvetica,sans-Serif" font-size="10.00">+</text>
<text text-anchor="start" x="26.5" y="-162.5" font-family="Helvetica,sans-Serif" font-size="10.00">dlc</text>
<text text-anchor="start" x="10" y="-147.5" font-family="Helvetica,sans-Serif" font-size="10.00">+</text>
<text text-anchor="start" x="26.5" y="-147.5" font-family="Helvetica,sans-Serif" font-size="10.00">formatType</text>
<text text-anchor="start" x="10" y="-132.5" font-family="Helvetica,sans-Serif" font-size="10.00">+</text>
<text text-anchor="start" x="26.5" y="-132.5" font-family="Helvetica,sans-Serif" font-size="10.00">brs</text>
<text text-anchor="start" x="44" y="-117.5" font-family="Helvetica,sans-Serif" font-size="10.00"> </text>
<polygon fill="#666666" stroke="#666666" points="0.5,-202.5 0.5,-202.5 91.5,-202.5 91.5,-202.5 0.5,-202.5"/>
<polygon fill="#666666" stroke="#666666" points="0.5,-127.5 0.5,-127.5 24.5,-127.5 24.5,-127.5 0.5,-127.5"/>
<polygon fill="#666666" stroke="#666666" points="24.5,-127.5 24.5,-127.5 91.5,-127.5 91.5,-127.5 24.5,-127.5"/>
<polygon fill="none" stroke="#666666" points="0,-111 0,-220 91,-220 91,-111 0,-111"/>
</a>
</g>
</g>
<!-- Node2&#45;&gt;Node1 -->
<g id="edge1_Node000001_Node000002" class="edge">
<title>Node2&#45;&gt;Node1</title>
<g id="a_edge1_Node000001_Node000002"><a xlink:title=" ">
<path fill="none" stroke="#63b8ff" d="M45.5,-110.63C45.5,-99.32 45.5,-87.51 45.5,-76.63"/>
<polygon fill="none" stroke="#63b8ff" points="45.5,-76.35 41.5,-70.35 45.5,-64.35 49.5,-70.35 45.5,-76.35"/>
</a>
</g>
<text text-anchor="middle" x="59" y="-85" font-family="Helvetica,sans-Serif" font-size="10.00" fill="grey"> +field</text>
</g>
</g>
</svg>
