<?xml version="1.0" encoding="UTF-8" standalone="no"?>
<!DOCTYPE svg PUBLIC "-//W3C//DTD SVG 1.1//EN"
 "http://www.w3.org/Graphics/SVG/1.1/DTD/svg11.dtd">
<!-- Generated by graphviz version 2.44.1 (20200629.0846)
 -->
<!-- Title: DMT_Initialize Pages: 1 -->
<svg width="261pt" height="175pt"
 viewBox="0.00 0.00 261.00 175.00" xmlns="http://www.w3.org/2000/svg" xmlns:xlink="http://www.w3.org/1999/xlink">
<g id="graph0" class="graph" transform="scale(1 1) rotate(0) translate(4 171)">
<title>DMT_Initialize</title>
<!-- Node1 -->
<g id="Node000001" class="node">
<title>Node1</title>
<g id="a_Node000001"><a xlink:title="Initializes the DMT module.">
<polygon fill="#999999" stroke="#666666" points="77,-93 0,-93 0,-74 77,-74 77,-93"/>
<text text-anchor="middle" x="38.5" y="-81" font-family="Helvetica,sans-Serif" font-size="10.00">DMT_Initialize</text>
</a>
</g>
</g>
<!-- Node2 -->
<g id="Node000002" class="node">
<title>Node2</title>
<g id="a_Node000002"><a xlink:href="a00811.html#aebd96a4ba3fa41218490c57dca28e720" target="_top" xlink:title=" ">
<polygon fill="white" stroke="#666666" points="223,-167 143,-167 143,-148 223,-148 223,-167"/>
<text text-anchor="middle" x="183" y="-155" font-family="Helvetica,sans-Serif" font-size="10.00">DMT_Calibrate</text>
</a>
</g>
</g>
<!-- Node1&#45;&gt;Node2 -->
<g id="edge1_Node000001_Node000002" class="edge">
<title>Node1&#45;&gt;Node2</title>
<g id="a_edge1_Node000001_Node000002"><a xlink:title=" ">
<path fill="none" stroke="#63b8ff" d="M49.57,-93.29C62.97,-105.8 87.9,-127.28 113,-139.5 119.21,-142.52 125.98,-145.08 132.79,-147.24"/>
<polygon fill="#63b8ff" stroke="#63b8ff" points="132.13,-150.69 142.71,-150.11 134.08,-143.97 132.13,-150.69"/>
</a>
</g>
</g>
<!-- Node3 -->
<g id="Node000003" class="node">
<title>Node3</title>
<g id="a_Node000003"><a xlink:href="a00408.html#ga0c26f1adfdfa77d4ff761acc1e89be67" target="_top" xlink:title="This is the default callback with weak attribute. The user can override and implement the default cal...">
<polygon fill="white" stroke="#666666" points="235,-130 131,-130 131,-111 235,-111 235,-130"/>
<text text-anchor="middle" x="183" y="-118" font-family="Helvetica,sans-Serif" font-size="10.00">DMT_EventCallback</text>
</a>
</g>
</g>
<!-- Node1&#45;&gt;Node3 -->
<g id="edge2_Node000001_Node000003" class="edge">
<title>Node1&#45;&gt;Node3</title>
<g id="a_edge2_Node000001_Node000003"><a xlink:title=" ">
<path fill="none" stroke="#63b8ff" d="M76.2,-93.03C94.17,-97.7 116.02,-103.37 135.19,-108.35"/>
<polygon fill="#63b8ff" stroke="#63b8ff" points="134.37,-111.75 144.93,-110.88 136.13,-104.97 134.37,-111.75"/>
</a>
</g>
</g>
<!-- Node4 -->
<g id="Node000004" class="node">
<title>Node4</title>
<g id="a_Node000004"><a xlink:href="a00408.html#ga96ee14343231d4dd8fd27dd480a0f5c3" target="_top" xlink:title="This function can be used to override default callback and to define custom callback for DMT Event ev...">
<polygon fill="white" stroke="#666666" points="253,-93 113,-93 113,-74 253,-74 253,-93"/>
<text text-anchor="middle" x="183" y="-81" font-family="Helvetica,sans-Serif" font-size="10.00">DMT_EventCallbackRegister</text>
</a>
</g>
</g>
<!-- Node1&#45;&gt;Node4 -->
<g id="edge3_Node000001_Node000004" class="edge">
<title>Node1&#45;&gt;Node4</title>
<g id="a_edge3_Node000001_Node000004"><a xlink:title=" ">
<path fill="none" stroke="#63b8ff" d="M77.31,-83.5C85.28,-83.5 93.97,-83.5 102.82,-83.5"/>
<polygon fill="#63b8ff" stroke="#63b8ff" points="102.86,-87 112.86,-83.5 102.86,-80 102.86,-87"/>
</a>
</g>
</g>
<!-- Node5 -->
<g id="Node000005" class="node">
<title>Node5</title>
<g id="a_Node000005"><a xlink:href="a00409.html#gac2f23c6185e515ff80fb2f2549b0f10d" target="_top" xlink:title="Disables the global interrupt bit.">
<polygon fill="white" stroke="#666666" points="250.5,-56 115.5,-56 115.5,-37 250.5,-37 250.5,-56"/>
<text text-anchor="middle" x="183" y="-44" font-family="Helvetica,sans-Serif" font-size="10.00">INTERRUPT_GlobalDisable</text>
</a>
</g>
</g>
<!-- Node1&#45;&gt;Node5 -->
<g id="edge4_Node000001_Node000005" class="edge">
<title>Node1&#45;&gt;Node5</title>
<g id="a_edge4_Node000001_Node000005"><a xlink:title=" ">
<path fill="none" stroke="#63b8ff" d="M76.2,-73.97C94.17,-69.3 116.02,-63.63 135.19,-58.65"/>
<polygon fill="#63b8ff" stroke="#63b8ff" points="136.13,-62.03 144.93,-56.12 134.37,-55.25 136.13,-62.03"/>
</a>
</g>
</g>
<!-- Node6 -->
<g id="Node000006" class="node">
<title>Node6</title>
<g id="a_Node000006"><a xlink:href="a00409.html#ga0e88e5f65ed34a762b4f9059e2a033ed" target="_top" xlink:title="Enables the global interrupt bit.">
<polygon fill="white" stroke="#666666" points="249.5,-19 116.5,-19 116.5,0 249.5,0 249.5,-19"/>
<text text-anchor="middle" x="183" y="-7" font-family="Helvetica,sans-Serif" font-size="10.00">INTERRUPT_GlobalEnable</text>
</a>
</g>
</g>
<!-- Node1&#45;&gt;Node6 -->
<g id="edge5_Node000001_Node000006" class="edge">
<title>Node1&#45;&gt;Node6</title>
<g id="a_edge5_Node000001_Node000006"><a xlink:title=" ">
<path fill="none" stroke="#63b8ff" d="M49.63,-73.94C63.09,-61.72 88.1,-40.7 113,-28.5 117.69,-26.2 122.7,-24.15 127.8,-22.31"/>
<polygon fill="#63b8ff" stroke="#63b8ff" points="129.26,-25.52 137.66,-19.07 127.07,-18.87 129.26,-25.52"/>
</a>
</g>
</g>
</g>
</svg>
