<?xml version="1.0" encoding="UTF-8" standalone="no"?>
<!DOCTYPE svg PUBLIC "-//W3C//DTD SVG 1.1//EN"
 "http://www.w3.org/Graphics/SVG/1.1/DTD/svg11.dtd">
<!-- Generated by graphviz version 2.44.1 (20200629.0846)
 -->
<!-- Title: DMA_Initialize Pages: 1 -->
<svg width="275pt" height="64pt"
 viewBox="0.00 0.00 275.00 64.00" xmlns="http://www.w3.org/2000/svg" xmlns:xlink="http://www.w3.org/1999/xlink">
<g id="graph0" class="graph" transform="scale(1 1) rotate(0) translate(4 60)">
<title>DMA_Initialize</title>
<!-- Node1 -->
<g id="Node000001" class="node">
<title>Node1</title>
<g id="a_Node000001"><a xlink:title="Initializes the DMA module.">
<polygon fill="#999999" stroke="#666666" points="79,-37 0,-37 0,-18 79,-18 79,-37"/>
<text text-anchor="middle" x="39.5" y="-25" font-family="Helvetica,sans-Serif" font-size="10.00">DMA_Initialize</text>
</a>
</g>
</g>
<!-- Node2 -->
<g id="Node000002" class="node">
<title>Node2</title>
<g id="a_Node000002"><a xlink:href="a00418.html#ga9f16d166d637fd9005839b1e1822dc63" target="_top" xlink:title="This is the default callback with weak attribute. The user can override and implement the default cal...">
<polygon fill="white" stroke="#666666" points="249,-56 133,-56 133,-37 249,-37 249,-56"/>
<text text-anchor="middle" x="191" y="-44" font-family="Helvetica,sans-Serif" font-size="10.00">DMA_ChannelCallback</text>
</a>
</g>
</g>
<!-- Node1&#45;&gt;Node2 -->
<g id="edge1_Node000001_Node000002" class="edge">
<title>Node1&#45;&gt;Node2</title>
<g id="a_edge1_Node000001_Node000002"><a xlink:title=" ">
<path fill="none" stroke="#63b8ff" d="M79.39,-32.44C92.6,-34.12 107.78,-36.05 122.57,-37.93"/>
<polygon fill="#63b8ff" stroke="#63b8ff" points="122.36,-41.43 132.72,-39.22 123.24,-34.49 122.36,-41.43"/>
</a>
</g>
</g>
<!-- Node3 -->
<g id="Node000003" class="node">
<title>Node3</title>
<g id="a_Node000003"><a xlink:href="a00418.html#gab9190941904dd0add59b63f1e774fb2c" target="_top" xlink:title="This function can be used to override default callback and to define custom callback for DMA Channel ...">
<polygon fill="white" stroke="#666666" points="267,-19 115,-19 115,0 267,0 267,-19"/>
<text text-anchor="middle" x="191" y="-7" font-family="Helvetica,sans-Serif" font-size="10.00">DMA_ChannelCallbackRegister</text>
</a>
</g>
</g>
<!-- Node1&#45;&gt;Node3 -->
<g id="edge2_Node000001_Node000003" class="edge">
<title>Node1&#45;&gt;Node3</title>
<g id="a_edge2_Node000001_Node000003"><a xlink:title=" ">
<path fill="none" stroke="#63b8ff" d="M79.39,-22.82C87.31,-21.86 95.93,-20.83 104.76,-19.76"/>
<polygon fill="#63b8ff" stroke="#63b8ff" points="105.27,-23.23 114.78,-18.56 104.43,-16.28 105.27,-23.23"/>
</a>
</g>
</g>
</g>
</svg>
