<?xml version="1.0" encoding="UTF-8" standalone="no"?>
<!DOCTYPE svg PUBLIC "-//W3C//DTD SVG 1.1//EN"
 "http://www.w3.org/Graphics/SVG/1.1/DTD/svg11.dtd">
<!-- Generated by graphviz version 2.44.1 (20200629.0846)
 -->
<!-- Title: MAIN_CORE_ProtocolRead Pages: 1 -->
<svg width="405pt" height="64pt"
 viewBox="0.00 0.00 405.00 64.00" xmlns="http://www.w3.org/2000/svg" xmlns:xlink="http://www.w3.org/1999/xlink">
<g id="graph0" class="graph" transform="scale(1 1) rotate(0) translate(4 60)">
<title>MAIN_CORE_ProtocolRead</title>
<!-- Node1 -->
<g id="Node000001" class="node">
<title>Node1</title>
<g id="a_Node000001"><a xlink:title="This routine reads data from mailbox.">
<polygon fill="#999999" stroke="#666666" points="397,-37 260,-37 260,-18 397,-18 397,-37"/>
<text text-anchor="middle" x="328.5" y="-25" font-family="Helvetica,sans-Serif" font-size="10.00">MAIN_CORE_ProtocolRead</text>
</a>
</g>
</g>
<!-- Node2 -->
<g id="Node000002" class="node">
<title>Node2</title>
<g id="a_Node000002"><a xlink:href="a00347.html#a968747854ba14331aa9f85784178d0da" target="_top" xlink:title=" ">
<polygon fill="white" stroke="#666666" points="215,-56 119,-56 119,-37 215,-37 215,-56"/>
<text text-anchor="middle" x="167" y="-44" font-family="Helvetica,sans-Serif" font-size="10.00">_ADCAN0Interrupt</text>
</a>
</g>
</g>
<!-- Node1&#45;&gt;Node2 -->
<g id="edge1_Node000001_Node000002" class="edge">
<title>Node1&#45;&gt;Node2</title>
<g id="a_edge1_Node000001_Node000002"><a xlink:title=" ">
<path fill="none" stroke="#63b8ff" d="M249.64,-36.78C237.96,-38.17 226.23,-39.56 215.45,-40.85"/>
<polygon fill="#63b8ff" stroke="#63b8ff" points="250.34,-40.22 259.86,-35.56 249.51,-33.27 250.34,-40.22"/>
</a>
</g>
</g>
<!-- Node3 -->
<g id="Node000003" class="node">
<title>Node3</title>
<g id="a_Node000003"><a xlink:href="a00353.html#a1bd6d0d68ef0567dc026119f2dec1c03" target="_top" xlink:title="M&#45;&gt;S protocolA mailbox, receive mailbox A.">
<polygon fill="white" stroke="#666666" points="224,-19 110,-19 110,0 224,0 224,-19"/>
<text text-anchor="middle" x="167" y="-7" font-family="Helvetica,sans-Serif" font-size="10.00">ReceiveMSIAMessage</text>
</a>
</g>
</g>
<!-- Node1&#45;&gt;Node3 -->
<g id="edge2_Node000001_Node000003" class="edge">
<title>Node1&#45;&gt;Node3</title>
<g id="a_edge2_Node000001_Node000003"><a xlink:title=" ">
<path fill="none" stroke="#63b8ff" d="M249.77,-18.73C241.13,-17.75 232.47,-16.78 224.18,-15.84"/>
<polygon fill="#63b8ff" stroke="#63b8ff" points="249.53,-22.22 259.86,-19.87 250.31,-15.27 249.53,-22.22"/>
</a>
</g>
</g>
<!-- Node4 -->
<g id="Node000004" class="node">
<title>Node4</title>
<g id="a_Node000004"><a xlink:href="a00431.html#ga97fda594ad396d08b6a833ebb3b04538" target="_top" xlink:title="tasks run every 100us">
<polygon fill="white" stroke="#666666" points="74,-19 0,-19 0,0 74,0 74,-19"/>
<text text-anchor="middle" x="37" y="-7" font-family="Helvetica,sans-Serif" font-size="10.00">Tasks_100us</text>
</a>
</g>
</g>
<!-- Node3&#45;&gt;Node4 -->
<g id="edge3_Node000003_Node000004" class="edge">
<title>Node3&#45;&gt;Node4</title>
<g id="a_edge3_Node000003_Node000004"><a xlink:title=" ">
<path fill="none" stroke="#63b8ff" d="M99.6,-9.5C90.86,-9.5 82.18,-9.5 74.21,-9.5"/>
<polygon fill="#63b8ff" stroke="#63b8ff" points="99.86,-13 109.86,-9.5 99.86,-6 99.86,-13"/>
</a>
</g>
</g>
</g>
</svg>
