<?xml version="1.0" encoding="UTF-8" standalone="no"?>
<!DOCTYPE svg PUBLIC "-//W3C//DTD SVG 1.1//EN"
 "http://www.w3.org/Graphics/SVG/1.1/DTD/svg11.dtd">
<!-- Generated by graphviz version 2.44.1 (20200629.0846)
 -->
<!-- Title: SPI_Synchronize Pages: 1 -->
<svg width="435pt" height="138pt"
 viewBox="0.00 0.00 435.00 138.00" xmlns="http://www.w3.org/2000/svg" xmlns:xlink="http://www.w3.org/1999/xlink">
<g id="graph0" class="graph" transform="scale(1 1) rotate(0) translate(4 134)">
<title>SPI_Synchronize</title>
<!-- Node1 -->
<g id="Node000001" class="node">
<title>Node1</title>
<g id="a_Node000001"><a xlink:title="synchronize to SPI bus">
<polygon fill="#999999" stroke="#666666" points="92,-74 0,-74 0,-55 92,-55 92,-74"/>
<text text-anchor="middle" x="46" y="-62" font-family="Helvetica,sans-Serif" font-size="10.00">SPI_Synchronize</text>
</a>
</g>
</g>
<!-- Node2 -->
<g id="Node000002" class="node">
<title>Node2</title>
<g id="a_Node000002"><a xlink:href="a00418.html#gab59dab7bbec7ad0589d0fa8f57769a94" target="_top" xlink:title="This inline function disables the DMA channel.">
<polygon fill="white" stroke="#666666" points="239,-130 128,-130 128,-111 239,-111 239,-130"/>
<text text-anchor="middle" x="183.5" y="-118" font-family="Helvetica,sans-Serif" font-size="10.00">DMA_ChannelDisable</text>
</a>
</g>
</g>
<!-- Node1&#45;&gt;Node2 -->
<g id="edge1_Node000001_Node000002" class="edge">
<title>Node1&#45;&gt;Node2</title>
<g id="a_edge1_Node000001_Node000002"><a xlink:title=" ">
<path fill="none" stroke="#63b8ff" d="M65.7,-74.06C81.94,-82.16 106.21,-93.83 128,-102.5 132.45,-104.27 137.16,-106.01 141.86,-107.67"/>
<polygon fill="#63b8ff" stroke="#63b8ff" points="140.83,-111.02 151.43,-110.95 143.1,-104.4 140.83,-111.02"/>
</a>
</g>
</g>
<!-- Node3 -->
<g id="Node000003" class="node">
<title>Node3</title>
<g id="a_Node000003"><a xlink:href="a00418.html#gad10f447e17425a18eac1b5186e2e8699" target="_top" xlink:title="This inline function enables the DMA channel.">
<polygon fill="white" stroke="#666666" points="238,-93 129,-93 129,-74 238,-74 238,-93"/>
<text text-anchor="middle" x="183.5" y="-81" font-family="Helvetica,sans-Serif" font-size="10.00">DMA_ChannelEnable</text>
</a>
</g>
</g>
<!-- Node1&#45;&gt;Node3 -->
<g id="edge2_Node000001_Node000003" class="edge">
<title>Node1&#45;&gt;Node3</title>
<g id="a_edge2_Node000001_Node000003"><a xlink:title=" ">
<path fill="none" stroke="#63b8ff" d="M92.12,-70.83C100.62,-72.02 109.66,-73.29 118.61,-74.54"/>
<polygon fill="#63b8ff" stroke="#63b8ff" points="118.25,-78.03 128.64,-75.95 119.23,-71.09 118.25,-78.03"/>
</a>
</g>
</g>
<!-- Node4 -->
<g id="Node000004" class="node">
<title>Node4</title>
<g id="a_Node000004"><a xlink:href="a00418.html#ga3950883876bea54b441aaf14ff17d47e" target="_top" xlink:title="Initializes the DMA module.">
<polygon fill="white" stroke="#666666" points="223,-56 144,-56 144,-37 223,-37 223,-56"/>
<text text-anchor="middle" x="183.5" y="-44" font-family="Helvetica,sans-Serif" font-size="10.00">DMA_Initialize</text>
</a>
</g>
</g>
<!-- Node1&#45;&gt;Node4 -->
<g id="edge3_Node000001_Node000004" class="edge">
<title>Node1&#45;&gt;Node4</title>
<g id="a_edge3_Node000001_Node000004"><a xlink:title=" ">
<path fill="none" stroke="#63b8ff" d="M92.12,-58.51C105.49,-56.73 120.2,-54.78 133.79,-52.97"/>
<polygon fill="#63b8ff" stroke="#63b8ff" points="134.47,-56.41 143.92,-51.62 133.55,-49.47 134.47,-56.41"/>
</a>
</g>
</g>
<!-- Node7 -->
<g id="Node000007" class="node">
<title>Node7</title>
<g id="a_Node000007"><a xlink:href="a00419.html#ga0607cad7a6b302950091fea719146a54" target="_top" xlink:title="Initializes SPI1 module, using the given initialization data. This function must be called before any...">
<polygon fill="white" stroke="#666666" points="222.5,-19 144.5,-19 144.5,0 222.5,0 222.5,-19"/>
<text text-anchor="middle" x="183.5" y="-7" font-family="Helvetica,sans-Serif" font-size="10.00">SPI1_Initialize</text>
</a>
</g>
</g>
<!-- Node1&#45;&gt;Node7 -->
<g id="edge6_Node000001_Node000007" class="edge">
<title>Node1&#45;&gt;Node7</title>
<g id="a_edge6_Node000001_Node000007"><a xlink:title=" ">
<path fill="none" stroke="#63b8ff" d="M67.44,-54.85C83.7,-47.31 107.11,-36.77 128,-28.5 133.18,-26.45 138.69,-24.39 144.13,-22.43"/>
<polygon fill="#63b8ff" stroke="#63b8ff" points="145.51,-25.65 153.77,-19.02 143.17,-19.05 145.51,-25.65"/>
</a>
</g>
</g>
<!-- Node5 -->
<g id="Node000005" class="node">
<title>Node5</title>
<g id="a_Node000005"><a xlink:href="a00418.html#ga9f16d166d637fd9005839b1e1822dc63" target="_top" xlink:title="This is the default callback with weak attribute. The user can override and implement the default cal...">
<polygon fill="white" stroke="#666666" points="409,-74 293,-74 293,-55 409,-55 409,-74"/>
<text text-anchor="middle" x="351" y="-62" font-family="Helvetica,sans-Serif" font-size="10.00">DMA_ChannelCallback</text>
</a>
</g>
</g>
<!-- Node4&#45;&gt;Node5 -->
<g id="edge4_Node000004_Node000005" class="edge">
<title>Node4&#45;&gt;Node5</title>
<g id="a_edge4_Node000004_Node000005"><a xlink:title=" ">
<path fill="none" stroke="#63b8ff" d="M223.3,-50.72C241.04,-52.65 262.57,-54.99 282.81,-57.19"/>
<polygon fill="#63b8ff" stroke="#63b8ff" points="282.61,-60.69 292.93,-58.29 283.37,-53.73 282.61,-60.69"/>
</a>
</g>
</g>
<!-- Node6 -->
<g id="Node000006" class="node">
<title>Node6</title>
<g id="a_Node000006"><a xlink:href="a00418.html#gab9190941904dd0add59b63f1e774fb2c" target="_top" xlink:title="This function can be used to override default callback and to define custom callback for DMA Channel ...">
<polygon fill="white" stroke="#666666" points="427,-37 275,-37 275,-18 427,-18 427,-37"/>
<text text-anchor="middle" x="351" y="-25" font-family="Helvetica,sans-Serif" font-size="10.00">DMA_ChannelCallbackRegister</text>
</a>
</g>
</g>
<!-- Node4&#45;&gt;Node6 -->
<g id="edge5_Node000004_Node000006" class="edge">
<title>Node4&#45;&gt;Node6</title>
<g id="a_edge5_Node000004_Node000006"><a xlink:title=" ">
<path fill="none" stroke="#63b8ff" d="M223.3,-42.05C235.8,-40.61 250.18,-38.96 264.67,-37.3"/>
<polygon fill="#63b8ff" stroke="#63b8ff" points="265.16,-40.76 274.69,-36.15 264.36,-33.81 265.16,-40.76"/>
</a>
</g>
</g>
</g>
</svg>
