<?xml version="1.0" encoding="UTF-8" standalone="no"?>
<!DOCTYPE svg PUBLIC "-//W3C//DTD SVG 1.1//EN"
 "http://www.w3.org/Graphics/SVG/1.1/DTD/svg11.dtd">
<!-- Generated by graphviz version 8.1.0 (20230707.0739)
 -->
<!-- Title: CAN_MSG_OBJ Pages: 1 -->
<svg width="98pt" height="240pt"
 viewBox="0.00 0.00 98.00 240.00" xmlns="http://www.w3.org/2000/svg" xmlns:xlink="http://www.w3.org/1999/xlink">

<svg id="main" version="1.1" xmlns="http://www.w3.org/2000/svg" xmlns:xlink="http://www.w3.org/1999/xlink" xml:space="preserve" onload="init(evt)">
<style type="text/css"><![CDATA[
.node, .edge {opacity: 0.7;}
.node.selected, .edge.selected {opacity: 1;}
.edge:hover path { stroke: red; }
.edge:hover polygon { stroke: red; fill: red; }
]]></style>
<script type="application/ecmascript" xlink:href="svg.min.js"/>
<svg id="graph" class="graph">
<g id="graph0" class="graph" transform="scale(1 1) rotate(0) translate(4 236)">
<title>CAN_MSG_OBJ</title>
<!-- Node1 -->
<g id="Node000001" class="node">
<title>Node1</title>
<g id="a_Node000001"><a xlink:title="This data structure used to configure the CAN FD message object.">
<polygon fill="#999999" stroke="none" points="86,-68 4,-68 4,0 86,0 86,-68"/>
<text text-anchor="start" x="9" y="-54.5" font-family="Helvetica,sans-Serif" font-size="10.00">CAN_MSG_OBJ</text>
<text text-anchor="start" x="17.5" y="-38.5" font-family="Helvetica,sans-Serif" font-size="10.00">+</text>
<text text-anchor="start" x="37" y="-38.5" font-family="Helvetica,sans-Serif" font-size="10.00">msgId</text>
<text text-anchor="start" x="17.5" y="-22.5" font-family="Helvetica,sans-Serif" font-size="10.00">+</text>
<text text-anchor="start" x="37" y="-22.5" font-family="Helvetica,sans-Serif" font-size="10.00">data</text>
<text text-anchor="start" x="43.5" y="-6.5" font-family="Helvetica,sans-Serif" font-size="10.00"> </text>
<polygon fill="#666666" stroke="#666666" points="4,-50 4,-50 86,-50 86,-50 4,-50"/>
<polygon fill="#666666" stroke="#666666" points="4,-18 4,-18 35,-18 35,-18 4,-18"/>
<polygon fill="#666666" stroke="#666666" points="35,-18 35,-18 86,-18 86,-18 35,-18"/>
<polygon fill="none" stroke="#666666" points="4,0 4,-68 86,-68 86,0 4,0"/>
</a>
</g>
</g>
<!-- Node2 -->
<g id="Node000002" class="node">
<title>Node2</title>
<g id="a_Node000002"><a xlink:href="a00441.html" target="_top" xlink:title="This data structure used to configure the message fields. Some of the fields formatType and brs data ...">
<polygon fill="white" stroke="none" points="90,-232 0,-232 0,-116 90,-116 90,-232"/>
<text text-anchor="start" x="4.88" y="-218.5" font-family="Helvetica,sans-Serif" font-size="10.00">CAN_MSG_FIELD</text>
<text text-anchor="start" x="10" y="-202.5" font-family="Helvetica,sans-Serif" font-size="10.00">+</text>
<text text-anchor="start" x="26" y="-202.5" font-family="Helvetica,sans-Serif" font-size="10.00">idType</text>
<text text-anchor="start" x="10" y="-186.5" font-family="Helvetica,sans-Serif" font-size="10.00">+</text>
<text text-anchor="start" x="26" y="-186.5" font-family="Helvetica,sans-Serif" font-size="10.00">frameType</text>
<text text-anchor="start" x="10" y="-170.5" font-family="Helvetica,sans-Serif" font-size="10.00">+</text>
<text text-anchor="start" x="26" y="-170.5" font-family="Helvetica,sans-Serif" font-size="10.00">dlc</text>
<text text-anchor="start" x="10" y="-154.5" font-family="Helvetica,sans-Serif" font-size="10.00">+</text>
<text text-anchor="start" x="26" y="-154.5" font-family="Helvetica,sans-Serif" font-size="10.00">formatType</text>
<text text-anchor="start" x="10" y="-138.5" font-family="Helvetica,sans-Serif" font-size="10.00">+</text>
<text text-anchor="start" x="26" y="-138.5" font-family="Helvetica,sans-Serif" font-size="10.00">brs</text>
<text text-anchor="start" x="43.5" y="-122.5" font-family="Helvetica,sans-Serif" font-size="10.00"> </text>
<polygon fill="#666666" stroke="#666666" points="0,-214 0,-214 90,-214 90,-214 0,-214"/>
<polygon fill="#666666" stroke="#666666" points="0,-134 0,-134 24,-134 24,-134 0,-134"/>
<polygon fill="#666666" stroke="#666666" points="24,-134 24,-134 90,-134 90,-134 24,-134"/>
<polygon fill="none" stroke="#666666" points="0,-116 0,-232 90,-232 90,-116 0,-116"/>
</a>
</g>
</g>
<!-- Node2&#45;&gt;Node1 -->
<g id="edge1_Node000001_Node000002" class="edge">
<title>Node2&#45;&gt;Node1</title>
<g id="a_edge1_Node000001_Node000002"><a xlink:title=" ">
<path fill="none" stroke="#63b8ff" d="M45,-116.07C45,-104.23 45,-91.89 45,-80.52"/>
<polygon fill="none" stroke="#63b8ff" points="45,-80.6 41,-74.6 45,-68.6 49,-74.6 45,-80.6"/>
</a>
</g>
<text text-anchor="middle" x="58.12" y="-88.5" font-family="Helvetica,sans-Serif" font-size="10.00" fill="grey"> +field</text>
</g>
</g>
</svg>
</svg>

<style type='text/css'>
<![CDATA[
[data-mouse-over-selected='false'] { opacity: 0.7; }
[data-mouse-over-selected='true']  { opacity: 1.0; }
]]>
</style>
<script type="application/ecmascript"><![CDATA[
document.addEventListener('DOMContentLoaded', (event) => {
  highlightEdges();
  highlightAdjacentNodes();
});
]]></script>
</svg>
