<?xml version="1.0" encoding="UTF-8" standalone="no"?>
<!DOCTYPE svg PUBLIC "-//W3C//DTD SVG 1.1//EN"
 "http://www.w3.org/Graphics/SVG/1.1/DTD/svg11.dtd">
<!-- Generated by graphviz version 2.44.1 (20200629.0846)
 -->
<!-- Title: SEC_CORE_INTERFACE Pages: 1 -->
<svg width="169pt" height="218pt"
 viewBox="0.00 0.00 169.00 218.00" xmlns="http://www.w3.org/2000/svg" xmlns:xlink="http://www.w3.org/1999/xlink">
<g id="graph0" class="graph" transform="scale(1 1) rotate(0) translate(4 214)">
<title>SEC_CORE_INTERFACE</title>
<!-- Node1 -->
<g id="Node000001" class="node">
<title>Node1</title>
<g id="a_Node000001"><a xlink:title="Structure containing the function pointers of SEC_CORE driver.">
<polygon fill="#999999" stroke="transparent" points="161,-210 0,-210 0,0 161,0 161,-210"/>
<text text-anchor="start" x="24.5" y="-198" font-family="Helvetica,sans-Serif" font-size="10.00">SEC_CORE_INTERFACE</text>
<text text-anchor="start" x="4.5" y="-183" font-family="Helvetica,sans-Serif" font-size="10.00">+</text>
<text text-anchor="start" x="15.5" y="-183" font-family="Helvetica,sans-Serif" font-size="10.00">Initialize</text>
<text text-anchor="start" x="4.5" y="-168" font-family="Helvetica,sans-Serif" font-size="10.00">+</text>
<text text-anchor="start" x="15.5" y="-168" font-family="Helvetica,sans-Serif" font-size="10.00">Deinitialize</text>
<text text-anchor="start" x="4.5" y="-153" font-family="Helvetica,sans-Serif" font-size="10.00">+</text>
<text text-anchor="start" x="15.5" y="-153" font-family="Helvetica,sans-Serif" font-size="10.00">Program</text>
<text text-anchor="start" x="4.5" y="-138" font-family="Helvetica,sans-Serif" font-size="10.00">+</text>
<text text-anchor="start" x="15.5" y="-138" font-family="Helvetica,sans-Serif" font-size="10.00">Start</text>
<text text-anchor="start" x="4.5" y="-123" font-family="Helvetica,sans-Serif" font-size="10.00">+</text>
<text text-anchor="start" x="15.5" y="-123" font-family="Helvetica,sans-Serif" font-size="10.00">InterruptRequestGenerate</text>
<text text-anchor="start" x="4.5" y="-108" font-family="Helvetica,sans-Serif" font-size="10.00">+</text>
<text text-anchor="start" x="15.5" y="-108" font-family="Helvetica,sans-Serif" font-size="10.00">IsInterruptRequestAcknowledged</text>
<text text-anchor="start" x="4.5" y="-93" font-family="Helvetica,sans-Serif" font-size="10.00">+</text>
<text text-anchor="start" x="15.5" y="-93" font-family="Helvetica,sans-Serif" font-size="10.00">InterruptRequestComplete</text>
<text text-anchor="start" x="4.5" y="-78" font-family="Helvetica,sans-Serif" font-size="10.00">+</text>
<text text-anchor="start" x="15.5" y="-78" font-family="Helvetica,sans-Serif" font-size="10.00">IsInterruptRequested</text>
<text text-anchor="start" x="4.5" y="-63" font-family="Helvetica,sans-Serif" font-size="10.00">+</text>
<text text-anchor="start" x="15.5" y="-63" font-family="Helvetica,sans-Serif" font-size="10.00">InterruptRequestAcknowledge</text>
<text text-anchor="start" x="4.5" y="-48" font-family="Helvetica,sans-Serif" font-size="10.00">+</text>
<text text-anchor="start" x="15.5" y="-48" font-family="Helvetica,sans-Serif" font-size="10.00">InterruptRequestAcknowledge</text>
<text text-anchor="start" x="15.5" y="-37" font-family="Helvetica,sans-Serif" font-size="10.00">Complete</text>
<text text-anchor="start" x="15.5" y="-22" font-family="Helvetica,sans-Serif" font-size="10.00">and 24 more...</text>
<text text-anchor="start" x="79" y="-7" font-family="Helvetica,sans-Serif" font-size="10.00"> </text>
<polygon fill="#666666" stroke="#666666" points="0.5,-193 0.5,-193 161.5,-193 161.5,-193 0.5,-193"/>
<polygon fill="#666666" stroke="#666666" points="0.5,-17 0.5,-17 13.5,-17 13.5,-17 0.5,-17"/>
<polygon fill="#666666" stroke="#666666" points="13.5,-17 13.5,-17 161.5,-17 161.5,-17 13.5,-17"/>
<polygon fill="none" stroke="#666666" points="0,0 0,-210 161,-210 161,0 0,0"/>
</a>
</g>
</g>
</g>
</svg>
