<?xml version="1.0" encoding="UTF-8" standalone="no"?>
<!DOCTYPE svg PUBLIC "-//W3C//DTD SVG 1.1//EN"
 "http://www.w3.org/Graphics/SVG/1.1/DTD/svg11.dtd">
<!-- Generated by graphviz version 2.44.1 (20200629.0846)
 -->
<!-- Title: CAN1_ReceiveMessageGet Pages: 1 -->
<svg width="517pt" height="224pt"
 viewBox="0.00 0.00 517.00 224.00" xmlns="http://www.w3.org/2000/svg" xmlns:xlink="http://www.w3.org/1999/xlink">
<g id="graph0" class="graph" transform="scale(1 1) rotate(0) translate(4 220)">
<title>CAN1_ReceiveMessageGet</title>
<!-- Node1 -->
<g id="Node000001" class="node">
<title>Node1</title>
<g id="a_Node000001"><a xlink:title="Reads the received single message object from the CAN1 receive FIFO.">
<polygon fill="#999999" stroke="#666666" points="137,-120 0,-120 0,-101 137,-101 137,-120"/>
<text text-anchor="middle" x="68.5" y="-108" font-family="Helvetica,sans-Serif" font-size="10.00">CAN1_ReceiveMessageGet</text>
</a>
</g>
</g>
<!-- Node2 -->
<g id="Node000002" class="node">
<title>Node2</title>
<g id="a_Node000002"><a xlink:href="a00405.html#ga57b30800d7bd3b3c936f578ca1fd7e32" target="_top" xlink:title="This function get the FIFO user address, message depth and payload size information.">
<polygon fill="white" stroke="#666666" points="308.5,-216 203.5,-216 203.5,-197 308.5,-197 308.5,-216"/>
<text text-anchor="middle" x="256" y="-204" font-family="Helvetica,sans-Serif" font-size="10.00">CAN1_FIFO_InfoGet</text>
</a>
</g>
</g>
<!-- Node1&#45;&gt;Node2 -->
<g id="edge1_Node000001_Node000002" class="edge">
<title>Node1&#45;&gt;Node2</title>
<g id="a_edge1_Node000001_Node000002"><a xlink:title=" ">
<path fill="none" stroke="#63b8ff" d="M79.12,-120.08C96.36,-136.69 134.36,-170.74 173,-188.5 179.32,-191.4 186.13,-193.85 193.03,-195.91"/>
<polygon fill="#63b8ff" stroke="#63b8ff" points="192.59,-199.42 203.15,-198.66 194.42,-192.66 192.59,-199.42"/>
</a>
</g>
</g>
<!-- Node3 -->
<g id="Node000003" class="node">
<title>Node3</title>
<g id="a_Node000003"><a xlink:href="a00405.html#gaa89329ca22f234476d55536c446b70e3" target="_top" xlink:title="This function read the message object from receive FIFO and update to the user &#160;&#160;message object point...">
<polygon fill="white" stroke="#666666" points="330,-179 182,-179 182,-160 330,-160 330,-179"/>
<text text-anchor="middle" x="256" y="-167" font-family="Helvetica,sans-Serif" font-size="10.00">CAN1_MessageReadFromFifo</text>
</a>
</g>
</g>
<!-- Node1&#45;&gt;Node3 -->
<g id="edge2_Node000001_Node000003" class="edge">
<title>Node1&#45;&gt;Node3</title>
<g id="a_edge2_Node000001_Node000003"><a xlink:title=" ">
<path fill="none" stroke="#63b8ff" d="M90.55,-120C111.22,-129.05 143.8,-142.57 173,-151.5 180.17,-153.69 187.77,-155.73 195.34,-157.59"/>
<polygon fill="#63b8ff" stroke="#63b8ff" points="194.7,-161.03 205.23,-159.92 196.31,-154.22 194.7,-161.03"/>
</a>
</g>
</g>
<!-- Node5 -->
<g id="Node000005" class="node">
<title>Node5</title>
<g id="a_Node000005"><a xlink:href="a00405.html#ga0dab5f41a5a5ef032d23c2ba4890a866" target="_top" xlink:title="This function Update the receive FIFO message increment tail position.">
<polygon fill="white" stroke="#666666" points="339,-142 173,-142 173,-123 339,-123 339,-142"/>
<text text-anchor="middle" x="256" y="-130" font-family="Helvetica,sans-Serif" font-size="10.00">CAN1_RX_FIFO_IncrementMsgPtr</text>
</a>
</g>
</g>
<!-- Node1&#45;&gt;Node5 -->
<g id="edge4_Node000001_Node000005" class="edge">
<title>Node1&#45;&gt;Node5</title>
<g id="a_edge4_Node000001_Node000005"><a xlink:title=" ">
<path fill="none" stroke="#63b8ff" d="M137.26,-118.54C146.23,-119.6 155.53,-120.7 164.8,-121.8"/>
<polygon fill="#63b8ff" stroke="#63b8ff" points="164.49,-125.29 174.83,-122.99 165.31,-118.34 164.49,-125.29"/>
</a>
</g>
</g>
<!-- Node6 -->
<g id="Node000006" class="node">
<title>Node6</title>
<g id="a_Node000006"><a xlink:href="a00405.html#ga224fbf549503a57f5818cc8391105b8f" target="_top" xlink:title="This function is used to clear the CAN1 receive FIFO overflow status bit.">
<polygon fill="white" stroke="#666666" points="334,-104.5 178,-104.5 178,-74.5 334,-74.5 334,-104.5"/>
<text text-anchor="start" x="186" y="-92.5" font-family="Helvetica,sans-Serif" font-size="10.00">CAN1_RX_FIFO_OverflowStatus</text>
<text text-anchor="middle" x="256" y="-81.5" font-family="Helvetica,sans-Serif" font-size="10.00">FlagClear</text>
</a>
</g>
</g>
<!-- Node1&#45;&gt;Node6 -->
<g id="edge5_Node000001_Node000006" class="edge">
<title>Node1&#45;&gt;Node6</title>
<g id="a_edge5_Node000001_Node000006"><a xlink:title=" ">
<path fill="none" stroke="#63b8ff" d="M137.26,-102.83C147.12,-101.71 157.38,-100.55 167.56,-99.4"/>
<polygon fill="#63b8ff" stroke="#63b8ff" points="168.15,-102.85 177.69,-98.25 167.36,-95.9 168.15,-102.85"/>
</a>
</g>
</g>
<!-- Node7 -->
<g id="Node000007" class="node">
<title>Node7</title>
<g id="a_Node000007"><a xlink:href="a00405.html#ga4a6437adcdf1917fffef4e7e5761fda1" target="_top" xlink:title="This returns the CAN1 receive FIFO status.">
<polygon fill="white" stroke="#666666" points="324,-56 188,-56 188,-37 324,-37 324,-56"/>
<text text-anchor="middle" x="256" y="-44" font-family="Helvetica,sans-Serif" font-size="10.00">CAN1_RX_FIFO_StatusGet</text>
</a>
</g>
</g>
<!-- Node1&#45;&gt;Node7 -->
<g id="edge6_Node000001_Node000007" class="edge">
<title>Node1&#45;&gt;Node7</title>
<g id="a_edge6_Node000001_Node000007"><a xlink:title=" ">
<path fill="none" stroke="#63b8ff" d="M88.55,-100.96C109.01,-91.02 142.67,-75.51 173,-65.5 180.69,-62.96 188.9,-60.63 197.04,-58.53"/>
<polygon fill="#63b8ff" stroke="#63b8ff" points="198.03,-61.9 206.9,-56.1 196.35,-55.1 198.03,-61.9"/>
</a>
</g>
</g>
<!-- Node8 -->
<g id="Node000008" class="node">
<title>Node8</title>
<g id="a_Node000008"><a xlink:href="a00405.html#gaa1a63eced76d657863054390e3ae6df3" target="_top" xlink:title="This function Search the CAN1 receive FIFO channel index.">
<polygon fill="white" stroke="#666666" points="309,-19 203,-19 203,0 309,0 309,-19"/>
<text text-anchor="middle" x="256" y="-7" font-family="Helvetica,sans-Serif" font-size="10.00">CAN1_RxFifoSearch</text>
</a>
</g>
</g>
<!-- Node1&#45;&gt;Node8 -->
<g id="edge7_Node000001_Node000008" class="edge">
<title>Node1&#45;&gt;Node8</title>
<g id="a_edge7_Node000001_Node000008"><a xlink:title=" ">
<path fill="none" stroke="#63b8ff" d="M78.77,-100.73C95.75,-83.41 133.76,-47.4 173,-28.5 179.19,-25.52 185.88,-22.99 192.66,-20.85"/>
<polygon fill="#63b8ff" stroke="#63b8ff" points="193.99,-24.11 202.64,-17.99 192.06,-17.38 193.99,-24.11"/>
</a>
</g>
</g>
<!-- Node4 -->
<g id="Node000004" class="node">
<title>Node4</title>
<g id="a_Node000004"><a xlink:href="a00405.html#ga61d156b0e75424f9b630cef5c424ac13" target="_top" xlink:title="This function get the DLC enum based decimal value.">
<polygon fill="white" stroke="#666666" points="509,-179 375,-179 375,-160 509,-160 509,-179"/>
<text text-anchor="middle" x="442" y="-167" font-family="Helvetica,sans-Serif" font-size="10.00">CAN1_DlcToDataBytesGet</text>
</a>
</g>
</g>
<!-- Node3&#45;&gt;Node4 -->
<g id="edge3_Node000003_Node000004" class="edge">
<title>Node3&#45;&gt;Node4</title>
<g id="a_edge3_Node000003_Node000004"><a xlink:title=" ">
<path fill="none" stroke="#63b8ff" d="M330.25,-169.5C341.53,-169.5 353.2,-169.5 364.55,-169.5"/>
<polygon fill="#63b8ff" stroke="#63b8ff" points="364.86,-173 374.86,-169.5 364.86,-166 364.86,-173"/>
</a>
</g>
</g>
</g>
</svg>
