<?xml version="1.0" encoding="UTF-8" standalone="no"?>
<!DOCTYPE svg PUBLIC "-//W3C//DTD SVG 1.1//EN"
 "http://www.w3.org/Graphics/SVG/1.1/DTD/svg11.dtd">
<!-- Generated by graphviz version 2.44.1 (20200629.0846)
 -->
<!-- Title: CAN1_ErrorNotificationEnable Pages: 1 -->
<svg width="361pt" height="568pt"
 viewBox="0.00 0.00 361.00 568.00" xmlns="http://www.w3.org/2000/svg" xmlns:xlink="http://www.w3.org/1999/xlink">
<g id="graph0" class="graph" transform="scale(1 1) rotate(0) translate(4 564)">
<title>CAN1_ErrorNotificationEnable</title>
<!-- Node1 -->
<g id="Node000001" class="node">
<title>Node1</title>
<g id="a_Node000001"><a xlink:title="This function enables the CAN1 error notification interrupt.">
<polygon fill="#999999" stroke="#666666" points="146,-292 0,-292 0,-273 146,-273 146,-292"/>
<text text-anchor="middle" x="73" y="-280" font-family="Helvetica,sans-Serif" font-size="10.00">CAN1_ErrorNotificationEnable</text>
</a>
</g>
</g>
<!-- Node2 -->
<g id="Node000002" class="node">
<title>Node2</title>
<g id="a_Node000002"><a xlink:href="a00405.html#gacbe5d017b9015e9756ea3530da8cc8db" target="_top" xlink:title="This is the default callback with weak attribute. The user can override and implement the default cal...">
<polygon fill="white" stroke="#666666" points="329,-560 206,-560 206,-541 329,-541 329,-560"/>
<text text-anchor="middle" x="267.5" y="-548" font-family="Helvetica,sans-Serif" font-size="10.00">CAN1_BusErrorCallback</text>
</a>
</g>
</g>
<!-- Node1&#45;&gt;Node2 -->
<g id="edge1_Node000001_Node000002" class="edge">
<title>Node1&#45;&gt;Node2</title>
<g id="a_edge1_Node000001_Node000002"><a xlink:title=" ">
<path fill="none" stroke="#63b8ff" d="M75.03,-292.03C79.61,-329.33 101.54,-466.58 182,-532.5 186.35,-536.06 191.24,-538.97 196.42,-541.34"/>
<polygon fill="#63b8ff" stroke="#63b8ff" points="195.4,-544.7 205.99,-545.03 197.92,-538.17 195.4,-544.7"/>
</a>
</g>
</g>
<!-- Node3 -->
<g id="Node000003" class="node">
<title>Node3</title>
<g id="a_Node000003"><a xlink:href="a00405.html#ga55e70b90188be64bc08f86ac9d0d7566" target="_top" xlink:title="This function can be used to override default callback and to define custom callback for CAN1_BusErro...">
<polygon fill="white" stroke="#666666" points="347,-523 188,-523 188,-504 347,-504 347,-523"/>
<text text-anchor="middle" x="267.5" y="-511" font-family="Helvetica,sans-Serif" font-size="10.00">CAN1_BusErrorCallbackRegister</text>
</a>
</g>
</g>
<!-- Node1&#45;&gt;Node3 -->
<g id="edge2_Node000001_Node000003" class="edge">
<title>Node1&#45;&gt;Node3</title>
<g id="a_edge2_Node000001_Node000003"><a xlink:title=" ">
<path fill="none" stroke="#63b8ff" d="M75.79,-292C82.67,-325.74 110.69,-440.64 182,-495.5 183.65,-496.77 185.37,-497.95 187.14,-499.06"/>
<polygon fill="#63b8ff" stroke="#63b8ff" points="185.96,-502.39 196.44,-503.95 189.22,-496.2 185.96,-502.39"/>
</a>
</g>
</g>
<!-- Node4 -->
<g id="Node000004" class="node">
<title>Node4</title>
<g id="a_Node000004"><a xlink:href="a00405.html#ga63ae61e90d5f2b4353ff69c3d774cd69" target="_top" xlink:title="This is the default callback with weak attribute. The user can override and implement the default cal...">
<polygon fill="white" stroke="#666666" points="353,-486 182,-486 182,-467 353,-467 353,-486"/>
<text text-anchor="middle" x="267.5" y="-474" font-family="Helvetica,sans-Serif" font-size="10.00">CAN1_BusWakeUpActivityCallback</text>
</a>
</g>
</g>
<!-- Node1&#45;&gt;Node4 -->
<g id="edge3_Node000001_Node000004" class="edge">
<title>Node1&#45;&gt;Node4</title>
<g id="a_edge3_Node000001_Node000004"><a xlink:title=" ">
<path fill="none" stroke="#63b8ff" d="M77.01,-292.34C86.75,-322.38 120.38,-413.55 182,-457.5 184.69,-459.42 187.55,-461.15 190.52,-462.71"/>
<polygon fill="#63b8ff" stroke="#63b8ff" points="189.16,-465.94 199.71,-466.89 192.06,-459.57 189.16,-465.94"/>
</a>
</g>
</g>
<!-- Node5 -->
<g id="Node000005" class="node">
<title>Node5</title>
<g id="a_Node000005"><a xlink:href="a00405.html#gae58473b24d41be10392bd3cd5703b278" target="_top" xlink:title="This function can be used to override default callback and to define custom callback for CAN1_BusWake...">
<polygon fill="white" stroke="#666666" points="353,-448.5 182,-448.5 182,-418.5 353,-418.5 353,-448.5"/>
<text text-anchor="start" x="190" y="-436.5" font-family="Helvetica,sans-Serif" font-size="10.00">CAN1_BusWakeUpActivityCallback</text>
<text text-anchor="middle" x="267.5" y="-425.5" font-family="Helvetica,sans-Serif" font-size="10.00">Register</text>
</a>
</g>
</g>
<!-- Node1&#45;&gt;Node5 -->
<g id="edge4_Node000001_Node000005" class="edge">
<title>Node1&#45;&gt;Node5</title>
<g id="a_edge4_Node000001_Node000005"><a xlink:title=" ">
<path fill="none" stroke="#63b8ff" d="M79.41,-292.14C93.24,-315.88 132.34,-377.57 182,-409.5 184.61,-411.18 187.34,-412.74 190.15,-414.2"/>
<polygon fill="#63b8ff" stroke="#63b8ff" points="188.83,-417.44 199.37,-418.49 191.78,-411.1 188.83,-417.44"/>
</a>
</g>
</g>
<!-- Node6 -->
<g id="Node000006" class="node">
<title>Node6</title>
<g id="a_Node000006"><a xlink:href="a00405.html#ga9fd5634a4a1d0a49935799d20133a5b3" target="_top" xlink:title="This is the default callback with weak attribute. The user can override and implement the default cal...">
<polygon fill="white" stroke="#666666" points="343,-400 192,-400 192,-381 343,-381 343,-400"/>
<text text-anchor="middle" x="267.5" y="-388" font-family="Helvetica,sans-Serif" font-size="10.00">CAN1_InvalidMessageCallback</text>
</a>
</g>
</g>
<!-- Node1&#45;&gt;Node6 -->
<g id="edge5_Node000001_Node000006" class="edge">
<title>Node1&#45;&gt;Node6</title>
<g id="a_edge5_Node000001_Node000006"><a xlink:title=" ">
<path fill="none" stroke="#63b8ff" d="M82.75,-292.27C99.89,-310.77 139.88,-350.88 182,-371.5 186.98,-373.94 192.28,-376.07 197.7,-377.93"/>
<polygon fill="#63b8ff" stroke="#63b8ff" points="196.96,-381.36 207.55,-380.99 199.04,-374.68 196.96,-381.36"/>
</a>
</g>
</g>
<!-- Node7 -->
<g id="Node000007" class="node">
<title>Node7</title>
<g id="a_Node000007"><a xlink:href="a00405.html#gadf09a964fe2b5f408d5467bf0a195e7e" target="_top" xlink:title="This function can be used to override default callback and to define custom callback for CAN1_Invalid...">
<polygon fill="white" stroke="#666666" points="343,-362.5 192,-362.5 192,-332.5 343,-332.5 343,-362.5"/>
<text text-anchor="start" x="200" y="-350.5" font-family="Helvetica,sans-Serif" font-size="10.00">CAN1_InvalidMessageCallback</text>
<text text-anchor="middle" x="267.5" y="-339.5" font-family="Helvetica,sans-Serif" font-size="10.00">Register</text>
</a>
</g>
</g>
<!-- Node1&#45;&gt;Node7 -->
<g id="edge6_Node000001_Node000007" class="edge">
<title>Node1&#45;&gt;Node7</title>
<g id="a_edge6_Node000001_Node000007"><a xlink:title=" ">
<path fill="none" stroke="#63b8ff" d="M97.39,-292.05C119.12,-300.76 152.49,-313.73 182,-323.5 188.08,-325.51 194.44,-327.51 200.82,-329.45"/>
<polygon fill="#63b8ff" stroke="#63b8ff" points="200.26,-332.93 210.84,-332.43 202.25,-326.22 200.26,-332.93"/>
</a>
</g>
</g>
<!-- Node8 -->
<g id="Node000008" class="node">
<title>Node8</title>
<g id="a_Node000008"><a xlink:href="a00405.html#ga9f3a8787946348d5982bd754b1907ec2" target="_top" xlink:title="This is the default callback with weak attribute. The user can override and implement the default cal...">
<polygon fill="white" stroke="#666666" points="338.5,-314 196.5,-314 196.5,-295 338.5,-295 338.5,-314"/>
<text text-anchor="middle" x="267.5" y="-302" font-family="Helvetica,sans-Serif" font-size="10.00">CAN1_ModeChangeCallback</text>
</a>
</g>
</g>
<!-- Node1&#45;&gt;Node8 -->
<g id="edge7_Node000001_Node000008" class="edge">
<title>Node1&#45;&gt;Node8</title>
<g id="a_edge7_Node000001_Node000008"><a xlink:title=" ">
<path fill="none" stroke="#63b8ff" d="M146.23,-290.75C159.32,-292.25 173.05,-293.82 186.35,-295.34"/>
<polygon fill="#63b8ff" stroke="#63b8ff" points="186.09,-298.83 196.42,-296.49 186.88,-291.88 186.09,-298.83"/>
</a>
</g>
</g>
<!-- Node9 -->
<g id="Node000009" class="node">
<title>Node9</title>
<g id="a_Node000009"><a xlink:href="a00405.html#ga180079a3530dfacdb86a24f764f6fc4d" target="_top" xlink:title="This function can be used to override default callback and to define custom callback for CAN1_ModeCha...">
<polygon fill="white" stroke="#666666" points="338.5,-276.5 196.5,-276.5 196.5,-246.5 338.5,-246.5 338.5,-276.5"/>
<text text-anchor="start" x="204.5" y="-264.5" font-family="Helvetica,sans-Serif" font-size="10.00">CAN1_ModeChangeCallback</text>
<text text-anchor="middle" x="267.5" y="-253.5" font-family="Helvetica,sans-Serif" font-size="10.00">Register</text>
</a>
</g>
</g>
<!-- Node1&#45;&gt;Node9 -->
<g id="edge8_Node000001_Node000009" class="edge">
<title>Node1&#45;&gt;Node9</title>
<g id="a_edge8_Node000001_Node000009"><a xlink:title=" ">
<path fill="none" stroke="#63b8ff" d="M146.23,-274.62C159.32,-273.19 173.05,-271.7 186.35,-270.24"/>
<polygon fill="#63b8ff" stroke="#63b8ff" points="186.86,-273.71 196.42,-269.14 186.1,-266.75 186.86,-273.71"/>
</a>
</g>
</g>
<!-- Node10 -->
<g id="Node000010" class="node">
<title>Node10</title>
<g id="a_Node000010"><a xlink:href="a00405.html#gad8a749c14d472ac82978c7e593d06543" target="_top" xlink:title="This is the default callback with weak attribute. The user can override and implement the default cal...">
<polygon fill="white" stroke="#666666" points="348,-228 187,-228 187,-209 348,-209 348,-228"/>
<text text-anchor="middle" x="267.5" y="-216" font-family="Helvetica,sans-Serif" font-size="10.00">CAN1_RxBufferOverFlowCallback</text>
</a>
</g>
</g>
<!-- Node1&#45;&gt;Node10 -->
<g id="edge9_Node000001_Node000010" class="edge">
<title>Node1&#45;&gt;Node10</title>
<g id="a_edge9_Node000001_Node000010"><a xlink:title=" ">
<path fill="none" stroke="#63b8ff" d="M93.91,-272.97C115.29,-263.04 150.45,-247.54 182,-237.5 190.14,-234.91 198.82,-232.54 207.41,-230.41"/>
<polygon fill="#63b8ff" stroke="#63b8ff" points="208.49,-233.75 217.41,-228.02 206.87,-226.94 208.49,-233.75"/>
</a>
</g>
</g>
<!-- Node11 -->
<g id="Node000011" class="node">
<title>Node11</title>
<g id="a_Node000011"><a xlink:href="a00405.html#ga1ce191440d01b9f65ab3c8837f6c4c5d" target="_top" xlink:title="This function can be used to override default callback and to define custom callback for CAN1_RxBuffe...">
<polygon fill="white" stroke="#666666" points="348,-190.5 187,-190.5 187,-160.5 348,-160.5 348,-190.5"/>
<text text-anchor="start" x="195" y="-178.5" font-family="Helvetica,sans-Serif" font-size="10.00">CAN1_RxBufferOverFlowCallback</text>
<text text-anchor="middle" x="267.5" y="-167.5" font-family="Helvetica,sans-Serif" font-size="10.00">Register</text>
</a>
</g>
</g>
<!-- Node1&#45;&gt;Node11 -->
<g id="edge10_Node000001_Node000011" class="edge">
<title>Node1&#45;&gt;Node11</title>
<g id="a_edge10_Node000001_Node000011"><a xlink:title=" ">
<path fill="none" stroke="#63b8ff" d="M83.88,-272.99C101.93,-256.08 142.09,-220.7 182,-200.5 186.57,-198.18 191.4,-196.05 196.33,-194.08"/>
<polygon fill="#63b8ff" stroke="#63b8ff" points="197.76,-197.28 205.91,-190.51 195.32,-190.72 197.76,-197.28"/>
</a>
</g>
</g>
<!-- Node12 -->
<g id="Node000012" class="node">
<title>Node12</title>
<g id="a_Node000012"><a xlink:href="a00405.html#ga9c0579a2606bbdcf40073c96c82e3fc9" target="_top" xlink:title="This is the default callback with weak attribute. The user can override and implement the default cal...">
<polygon fill="white" stroke="#666666" points="337.5,-142 197.5,-142 197.5,-123 337.5,-123 337.5,-142"/>
<text text-anchor="middle" x="267.5" y="-130" font-family="Helvetica,sans-Serif" font-size="10.00">CAN1_SystemErrorCallback</text>
</a>
</g>
</g>
<!-- Node1&#45;&gt;Node12 -->
<g id="edge11_Node000001_Node000012" class="edge">
<title>Node1&#45;&gt;Node12</title>
<g id="a_edge11_Node000001_Node000012"><a xlink:title=" ">
<path fill="none" stroke="#63b8ff" d="M79.02,-272.74C92.24,-248.11 130.53,-183.15 182,-151.5 185.43,-149.39 189.07,-147.51 192.84,-145.84"/>
<polygon fill="#63b8ff" stroke="#63b8ff" points="194.37,-149 202.41,-142.11 191.82,-142.48 194.37,-149"/>
</a>
</g>
</g>
<!-- Node13 -->
<g id="Node000013" class="node">
<title>Node13</title>
<g id="a_Node000013"><a xlink:href="a00405.html#ga589e67cdfd74495013704b8357df54ad" target="_top" xlink:title="This function can be used to override default callback and to define custom callback for CAN1_SystemE...">
<polygon fill="white" stroke="#666666" points="337.5,-104.5 197.5,-104.5 197.5,-74.5 337.5,-74.5 337.5,-104.5"/>
<text text-anchor="start" x="205.5" y="-92.5" font-family="Helvetica,sans-Serif" font-size="10.00">CAN1_SystemErrorCallback</text>
<text text-anchor="middle" x="267.5" y="-81.5" font-family="Helvetica,sans-Serif" font-size="10.00">Register</text>
</a>
</g>
</g>
<!-- Node1&#45;&gt;Node13 -->
<g id="edge12_Node000001_Node000013" class="edge">
<title>Node1&#45;&gt;Node13</title>
<g id="a_edge12_Node000001_Node000013"><a xlink:title=" ">
<path fill="none" stroke="#63b8ff" d="M77.41,-272.82C88.06,-244.06 123.47,-158.4 182,-114.5 184.49,-112.63 187.12,-110.9 189.85,-109.3"/>
<polygon fill="#63b8ff" stroke="#63b8ff" points="191.6,-112.34 198.85,-104.62 188.37,-106.13 191.6,-112.34"/>
</a>
</g>
</g>
<!-- Node14 -->
<g id="Node000014" class="node">
<title>Node14</title>
<g id="a_Node000014"><a xlink:href="a00405.html#ga348dcbe373245ad35f5d4a22250ae3b8" target="_top" xlink:title="This is the default callback with weak attribute. The user can override and implement the default cal...">
<polygon fill="white" stroke="#666666" points="332.5,-56 202.5,-56 202.5,-37 332.5,-37 332.5,-56"/>
<text text-anchor="middle" x="267.5" y="-44" font-family="Helvetica,sans-Serif" font-size="10.00">CAN1_TxAttemptCallback</text>
</a>
</g>
</g>
<!-- Node1&#45;&gt;Node14 -->
<g id="edge13_Node000001_Node000014" class="edge">
<title>Node1&#45;&gt;Node14</title>
<g id="a_edge13_Node000001_Node000014"><a xlink:title=" ">
<path fill="none" stroke="#63b8ff" d="M75.75,-272.85C82.51,-238.59 110.15,-121.85 182,-65.5 185.39,-62.84 189.09,-60.53 192.97,-58.54"/>
<polygon fill="#63b8ff" stroke="#63b8ff" points="194.58,-61.66 202.33,-54.43 191.77,-55.25 194.58,-61.66"/>
</a>
</g>
</g>
<!-- Node15 -->
<g id="Node000015" class="node">
<title>Node15</title>
<g id="a_Node000015"><a xlink:href="a00405.html#gaf093799d78b962becbf6810614899884" target="_top" xlink:title="This function can be used to override default callback and to define custom callback for CAN1_TxAttem...">
<polygon fill="white" stroke="#666666" points="350.5,-19 184.5,-19 184.5,0 350.5,0 350.5,-19"/>
<text text-anchor="middle" x="267.5" y="-7" font-family="Helvetica,sans-Serif" font-size="10.00">CAN1_TxAttemptCallbackRegister</text>
</a>
</g>
</g>
<!-- Node1&#45;&gt;Node15 -->
<g id="edge14_Node000001_Node000015" class="edge">
<title>Node1&#45;&gt;Node15</title>
<g id="a_edge14_Node000001_Node000015"><a xlink:title=" ">
<path fill="none" stroke="#63b8ff" d="M75,-272.85C79.47,-235.07 101.03,-96.01 182,-28.5 184.02,-26.81 186.16,-25.27 188.39,-23.86"/>
<polygon fill="#63b8ff" stroke="#63b8ff" points="190.25,-26.83 197.41,-19.03 186.94,-20.66 190.25,-26.83"/>
</a>
</g>
</g>
</g>
</svg>
