<?xml version="1.0" encoding="UTF-8" standalone="no"?>
<!DOCTYPE svg PUBLIC "-//W3C//DTD SVG 1.1//EN"
 "http://www.w3.org/Graphics/SVG/1.1/DTD/svg11.dtd">
<!-- Generated by graphviz version 2.44.1 (20200629.0846)
 -->
<!-- Title: CLOCK_AuxPllLockStatusGet Pages: 1 -->
<svg width="409pt" height="27pt"
 viewBox="0.00 0.00 409.00 27.00" xmlns="http://www.w3.org/2000/svg" xmlns:xlink="http://www.w3.org/1999/xlink">
<g id="graph0" class="graph" transform="scale(1 1) rotate(0) translate(4 23)">
<title>CLOCK_AuxPllLockStatusGet</title>
<!-- Node1 -->
<g id="Node000001" class="node">
<title>Node1</title>
<g id="a_Node000001"><a xlink:title="Returns Auxiliary PLL status.">
<polygon fill="#999999" stroke="#666666" points="401,-19 252,-19 252,0 401,0 401,-19"/>
<text text-anchor="middle" x="326.5" y="-7" font-family="Helvetica,sans-Serif" font-size="10.00">CLOCK_AuxPllLockStatusGet</text>
</a>
</g>
</g>
<!-- Node2 -->
<g id="Node000002" class="node">
<title>Node2</title>
<g id="a_Node000002"><a xlink:href="a00407.html#ga2cdee1aefacc04ad6ed59618550226d0" target="_top" xlink:title="Initializes PWM module, using the given initialization data.">
<polygon fill="white" stroke="#666666" points="216,-19 134,-19 134,0 216,0 216,-19"/>
<text text-anchor="middle" x="175" y="-7" font-family="Helvetica,sans-Serif" font-size="10.00">PWM_Initialize</text>
</a>
</g>
</g>
<!-- Node1&#45;&gt;Node2 -->
<g id="edge1_Node000001_Node000002" class="edge">
<title>Node1&#45;&gt;Node2</title>
<g id="a_edge1_Node000001_Node000002"><a xlink:title=" ">
<path fill="none" stroke="#63b8ff" d="M241.34,-9.5C232.63,-9.5 224.09,-9.5 216.2,-9.5"/>
<polygon fill="#63b8ff" stroke="#63b8ff" points="241.63,-13 251.63,-9.5 241.63,-6 241.63,-13"/>
</a>
</g>
</g>
<!-- Node3 -->
<g id="Node000003" class="node">
<title>Node3</title>
<g id="a_Node000003"><a xlink:href="a00412.html#ga5e8391114a0cf91ac20002be25e3d352" target="_top" xlink:title="Initializes the System module.">
<polygon fill="white" stroke="#666666" points="98,-19 0,-19 0,0 98,0 98,-19"/>
<text text-anchor="middle" x="49" y="-7" font-family="Helvetica,sans-Serif" font-size="10.00">SYSTEM_Initialize</text>
</a>
</g>
</g>
<!-- Node2&#45;&gt;Node3 -->
<g id="edge2_Node000002_Node000003" class="edge">
<title>Node2&#45;&gt;Node3</title>
<g id="a_edge2_Node000002_Node000003"><a xlink:title=" ">
<path fill="none" stroke="#63b8ff" d="M123.69,-9.5C115.3,-9.5 106.61,-9.5 98.27,-9.5"/>
<polygon fill="#63b8ff" stroke="#63b8ff" points="123.74,-13 133.74,-9.5 123.74,-6 123.74,-13"/>
</a>
</g>
</g>
</g>
</svg>
