<?xml version="1.0" encoding="UTF-8" standalone="no"?>
<!DOCTYPE svg PUBLIC "-//W3C//DTD SVG 1.1//EN"
 "http://www.w3.org/Graphics/SVG/1.1/DTD/svg11.dtd">
<!-- Generated by graphviz version 8.1.0 (20230707.0739)
 -->
<!-- Title: VACM_VIN_s Pages: 1 -->
<svg width="120pt" height="276pt"
 viewBox="0.00 0.00 120.00 276.00" xmlns="http://www.w3.org/2000/svg" xmlns:xlink="http://www.w3.org/1999/xlink">

<svg id="main" version="1.1" xmlns="http://www.w3.org/2000/svg" xmlns:xlink="http://www.w3.org/1999/xlink" xml:space="preserve" onload="init(evt)">
<style type="text/css"><![CDATA[
.node, .edge {opacity: 0.7;}
.node.selected, .edge.selected {opacity: 1;}
.edge:hover path { stroke: red; }
.edge:hover polygon { stroke: red; fill: red; }
]]></style>
<script type="application/ecmascript" xlink:href="svg.min.js"/>
<svg id="graph" class="graph">
<g id="graph0" class="graph" transform="scale(1 1) rotate(0) translate(4 272)">
<title>VACM_VIN_s</title>
<!-- Node1 -->
<g id="Node000001" class="node">
<title>Node1</title>
<g id="a_Node000001"><a xlink:title="ADD_SHORT_DESCRIPTION.">
<polygon fill="#999999" stroke="none" points="91,-180 21,-180 21,0 91,0 91,-180"/>
<text text-anchor="start" x="26" y="-166.5" font-family="Helvetica,sans-Serif" font-size="10.00">VACM_VIN_s</text>
<text text-anchor="start" x="26.5" y="-150.5" font-family="Helvetica,sans-Serif" font-size="10.00">+</text>
<text text-anchor="start" x="38" y="-150.5" font-family="Helvetica,sans-Serif" font-size="10.00">ptr_adcbuf</text>
<text text-anchor="start" x="26.5" y="-134.5" font-family="Helvetica,sans-Serif" font-size="10.00">+</text>
<text text-anchor="start" x="38" y="-134.5" font-family="Helvetica,sans-Serif" font-size="10.00">raw</text>
<text text-anchor="start" x="26.5" y="-118.5" font-family="Helvetica,sans-Serif" font-size="10.00">+</text>
<text text-anchor="start" x="38" y="-118.5" font-family="Helvetica,sans-Serif" font-size="10.00">raw_prev</text>
<text text-anchor="start" x="26.5" y="-102.5" font-family="Helvetica,sans-Serif" font-size="10.00">+</text>
<text text-anchor="start" x="38" y="-102.5" font-family="Helvetica,sans-Serif" font-size="10.00">rectified</text>
<text text-anchor="start" x="26.5" y="-86.5" font-family="Helvetica,sans-Serif" font-size="10.00">+</text>
<text text-anchor="start" x="38" y="-86.5" font-family="Helvetica,sans-Serif" font-size="10.00">ptr_offset</text>
<text text-anchor="start" x="26.5" y="-70.5" font-family="Helvetica,sans-Serif" font-size="10.00">+</text>
<text text-anchor="start" x="38" y="-70.5" font-family="Helvetica,sans-Serif" font-size="10.00">avg</text>
<text text-anchor="start" x="26.5" y="-54.5" font-family="Helvetica,sans-Serif" font-size="10.00">+</text>
<text text-anchor="start" x="38" y="-54.5" font-family="Helvetica,sans-Serif" font-size="10.00">avg_prev</text>
<text text-anchor="start" x="26.5" y="-38.5" font-family="Helvetica,sans-Serif" font-size="10.00">+</text>
<text text-anchor="start" x="38" y="-38.5" font-family="Helvetica,sans-Serif" font-size="10.00">avg_sqrd</text>
<text text-anchor="start" x="26.5" y="-22.5" font-family="Helvetica,sans-Serif" font-size="10.00">+</text>
<text text-anchor="start" x="38" y="-22.5" font-family="Helvetica,sans-Serif" font-size="10.00">vloop_ff</text>
<text text-anchor="start" x="54.5" y="-6.5" font-family="Helvetica,sans-Serif" font-size="10.00"> </text>
<polygon fill="#666666" stroke="#666666" points="21,-162 21,-162 91,-162 91,-162 21,-162"/>
<polygon fill="#666666" stroke="#666666" points="21,-18 21,-18 36,-18 36,-18 21,-18"/>
<polygon fill="#666666" stroke="#666666" points="36,-18 36,-18 91,-18 91,-18 36,-18"/>
<polygon fill="none" stroke="#666666" points="21,0 21,-180 91,-180 91,0 21,0"/>
</a>
</g>
</g>
<!-- Node2 -->
<g id="Node000002" class="node">
<title>Node2</title>
<g id="a_Node000002"><a xlink:title=" ">
<polygon fill="white" stroke="none" points="112,-268 0,-268 0,-216 112,-216 112,-268"/>
<text text-anchor="start" x="5" y="-254.5" font-family="Helvetica,sans-Serif" font-size="10.00">PARENT_STRUCTURE</text>
<text text-anchor="start" x="54.5" y="-238.5" font-family="Helvetica,sans-Serif" font-size="10.00"> </text>
<text text-anchor="start" x="54.5" y="-222.5" font-family="Helvetica,sans-Serif" font-size="10.00"> </text>
<polygon fill="#666666" stroke="#666666" points="0,-250 0,-250 112,-250 112,-250 0,-250"/>
<polygon fill="#666666" stroke="#666666" points="0,-234 0,-234 112,-234 112,-234 0,-234"/>
<polygon fill="none" stroke="#666666" points="0,-216 0,-268 112,-268 112,-216 0,-216"/>
</a>
</g>
</g>
<!-- Node2&#45;&gt;Node1 -->
<g id="edge1_Node000001_Node000002" class="edge">
<title>Node2&#45;&gt;Node1</title>
<g id="a_edge1_Node000001_Node000002"><a xlink:title=" ">
<path fill="none" stroke="#63b8ff" d="M56,-205.38C56,-197.54 56,-188.89 56,-179.98"/>
<polygon fill="none" stroke="#63b8ff" points="52.5,-205.23 56,-215.23 59.5,-205.23 52.5,-205.23"/>
</a>
</g>
</g>
</g>
</svg>
</svg>

<style type='text/css'>
<![CDATA[
[data-mouse-over-selected='false'] { opacity: 0.7; }
[data-mouse-over-selected='true']  { opacity: 1.0; }
]]>
</style>
<script type="application/ecmascript"><![CDATA[
document.addEventListener('DOMContentLoaded', (event) => {
  highlightEdges();
  highlightAdjacentNodes();
});
]]></script>
</svg>
