<?xml version="1.0" encoding="UTF-8" standalone="no"?>
<!DOCTYPE svg PUBLIC "-//W3C//DTD SVG 1.1//EN"
 "http://www.w3.org/Graphics/SVG/1.1/DTD/svg11.dtd">
<!-- Generated by graphviz version 2.44.1 (20200629.0846)
 -->
<!-- Title: VACM_TIMEBASE_s Pages: 1 -->
<svg width="121pt" height="247pt"
 viewBox="0.00 0.00 121.00 247.00" xmlns="http://www.w3.org/2000/svg" xmlns:xlink="http://www.w3.org/1999/xlink">
<g id="graph0" class="graph" transform="scale(1 1) rotate(0) translate(4 243)">
<title>VACM_TIMEBASE_s</title>
<!-- Node1 -->
<g id="Node000001" class="node">
<title>Node1</title>
<g id="a_Node000001"><a xlink:title="ADD_SHORT_DESCRIPTION.">
<polygon fill="#999999" stroke="transparent" points="109.5,-154 3.5,-154 3.5,0 109.5,0 109.5,-154"/>
<text text-anchor="start" x="9.5" y="-142" font-family="Helvetica,sans-Serif" font-size="10.00">VACM_TIMEBASE_s</text>
<text text-anchor="start" x="7.5" y="-127" font-family="Helvetica,sans-Serif" font-size="10.00">+</text>
<text text-anchor="start" x="18.5" y="-127" font-family="Helvetica,sans-Serif" font-size="10.00">half_cycle</text>
<text text-anchor="start" x="7.5" y="-112" font-family="Helvetica,sans-Serif" font-size="10.00">+</text>
<text text-anchor="start" x="18.5" y="-112" font-family="Helvetica,sans-Serif" font-size="10.00">half_cycle_timer</text>
<text text-anchor="start" x="7.5" y="-97" font-family="Helvetica,sans-Serif" font-size="10.00">+</text>
<text text-anchor="start" x="18.5" y="-97" font-family="Helvetica,sans-Serif" font-size="10.00">startup_counter</text>
<text text-anchor="start" x="7.5" y="-82" font-family="Helvetica,sans-Serif" font-size="10.00">+</text>
<text text-anchor="start" x="18.5" y="-82" font-family="Helvetica,sans-Serif" font-size="10.00">zero_cross_timer</text>
<text text-anchor="start" x="7.5" y="-67" font-family="Helvetica,sans-Serif" font-size="10.00">+</text>
<text text-anchor="start" x="18.5" y="-67" font-family="Helvetica,sans-Serif" font-size="10.00">ac_drop_timer</text>
<text text-anchor="start" x="7.5" y="-52" font-family="Helvetica,sans-Serif" font-size="10.00">+</text>
<text text-anchor="start" x="18.5" y="-52" font-family="Helvetica,sans-Serif" font-size="10.00">vin_present_counter</text>
<text text-anchor="start" x="7.5" y="-37" font-family="Helvetica,sans-Serif" font-size="10.00">+</text>
<text text-anchor="start" x="18.5" y="-37" font-family="Helvetica,sans-Serif" font-size="10.00">dc_present_counter</text>
<text text-anchor="start" x="7.5" y="-22" font-family="Helvetica,sans-Serif" font-size="10.00">+</text>
<text text-anchor="start" x="18.5" y="-22" font-family="Helvetica,sans-Serif" font-size="10.00">dc_loss_counter</text>
<text text-anchor="start" x="54.5" y="-7" font-family="Helvetica,sans-Serif" font-size="10.00"> </text>
<polygon fill="#666666" stroke="#666666" points="3.5,-137 3.5,-137 109.5,-137 109.5,-137 3.5,-137"/>
<polygon fill="#666666" stroke="#666666" points="3.5,-17 3.5,-17 16.5,-17 16.5,-17 3.5,-17"/>
<polygon fill="#666666" stroke="#666666" points="16.5,-17 16.5,-17 109.5,-17 109.5,-17 16.5,-17"/>
<polygon fill="none" stroke="#666666" points="3.5,0 3.5,-154 109.5,-154 109.5,0 3.5,0"/>
</a>
</g>
</g>
<!-- Node2 -->
<g id="Node000002" class="node">
<title>Node2</title>
<g id="a_Node000002"><a xlink:title=" ">
<polygon fill="white" stroke="transparent" points="113,-239 0,-239 0,-190 113,-190 113,-239"/>
<text text-anchor="start" x="5.5" y="-226.5" font-family="Helvetica,sans-Serif" font-size="10.00">PARENT_STRUCTURE</text>
<text text-anchor="start" x="55" y="-211.5" font-family="Helvetica,sans-Serif" font-size="10.00"> </text>
<text text-anchor="start" x="55" y="-196.5" font-family="Helvetica,sans-Serif" font-size="10.00"> </text>
<polygon fill="#666666" stroke="#666666" points="0.5,-221.5 0.5,-221.5 113.5,-221.5 113.5,-221.5 0.5,-221.5"/>
<polygon fill="#666666" stroke="#666666" points="0.5,-206.5 0.5,-206.5 113.5,-206.5 113.5,-206.5 0.5,-206.5"/>
<polygon fill="none" stroke="#666666" points="0,-190 0,-239 113,-239 113,-190 0,-190"/>
</a>
</g>
</g>
<!-- Node2&#45;&gt;Node1 -->
<g id="edge1_Node000001_Node000002" class="edge">
<title>Node2&#45;&gt;Node1</title>
<g id="a_edge1_Node000001_Node000002"><a xlink:title=" ">
<path fill="none" stroke="#63b8ff" d="M56.5,-179.66C56.5,-171.74 56.5,-162.97 56.5,-154.01"/>
<polygon fill="none" stroke="#63b8ff" points="53,-179.9 56.5,-189.9 60,-179.9 53,-179.9"/>
</a>
</g>
</g>
</g>
</svg>
