<?xml version="1.0" encoding="UTF-8" standalone="no"?>
<!DOCTYPE svg PUBLIC "-//W3C//DTD SVG 1.1//EN"
 "http://www.w3.org/Graphics/SVG/1.1/DTD/svg11.dtd">
<!-- Generated by graphviz version 2.44.1 (20200629.0846)
 -->
<!-- Title: DRV_DMA_DATA_s Pages: 1 -->
<svg width="582pt" height="597pt"
 viewBox="0.00 0.00 582.00 597.00" xmlns="http://www.w3.org/2000/svg" xmlns:xlink="http://www.w3.org/1999/xlink">
<g id="graph0" class="graph" transform="scale(1 1) rotate(0) translate(4 593)">
<title>DRV_DMA_DATA_s</title>
<!-- Node1 -->
<g id="Node000001" class="node">
<title>Node1</title>
<g id="a_Node000001"><a xlink:title=" ">
<polygon fill="#999999" stroke="transparent" points="316.5,-139 217.5,-139 217.5,0 316.5,0 316.5,-139"/>
<text text-anchor="start" x="223" y="-126.5" font-family="Helvetica,sans-Serif" font-size="10.00">DRV_DMA_DATA_s</text>
<text text-anchor="start" x="225" y="-111.5" font-family="Helvetica,sans-Serif" font-size="10.00">+</text>
<text text-anchor="start" x="239" y="-111.5" font-family="Helvetica,sans-Serif" font-size="10.00">vinAdcBuf1</text>
<text text-anchor="start" x="225" y="-96.5" font-family="Helvetica,sans-Serif" font-size="10.00">+</text>
<text text-anchor="start" x="239" y="-96.5" font-family="Helvetica,sans-Serif" font-size="10.00">vinAdcBuf2</text>
<text text-anchor="start" x="225" y="-81.5" font-family="Helvetica,sans-Serif" font-size="10.00">+</text>
<text text-anchor="start" x="239" y="-81.5" font-family="Helvetica,sans-Serif" font-size="10.00">vinAdcBuf3</text>
<text text-anchor="start" x="225" y="-66.5" font-family="Helvetica,sans-Serif" font-size="10.00">+</text>
<text text-anchor="start" x="239" y="-66.5" font-family="Helvetica,sans-Serif" font-size="10.00">vacOpAmpBias</text>
<text text-anchor="start" x="225" y="-51.5" font-family="Helvetica,sans-Serif" font-size="10.00">+</text>
<text text-anchor="start" x="239" y="-51.5" font-family="Helvetica,sans-Serif" font-size="10.00">coreBuffers</text>
<text text-anchor="start" x="225" y="-36.5" font-family="Helvetica,sans-Serif" font-size="10.00">+</text>
<text text-anchor="start" x="239" y="-36.5" font-family="Helvetica,sans-Serif" font-size="10.00">vinAdcRaw</text>
<text text-anchor="start" x="225" y="-21.5" font-family="Helvetica,sans-Serif" font-size="10.00">+</text>
<text text-anchor="start" x="239" y="-21.5" font-family="Helvetica,sans-Serif" font-size="10.00">state</text>
<text text-anchor="start" x="265.5" y="-6.5" font-family="Helvetica,sans-Serif" font-size="10.00"> </text>
<polygon fill="#666666" stroke="#666666" points="218,-121.5 218,-121.5 317,-121.5 317,-121.5 218,-121.5"/>
<polygon fill="#666666" stroke="#666666" points="218,-16.5 218,-16.5 237,-16.5 237,-16.5 218,-16.5"/>
<polygon fill="#666666" stroke="#666666" points="237,-16.5 237,-16.5 317,-16.5 317,-16.5 237,-16.5"/>
<polygon fill="none" stroke="#666666" points="217.5,0 217.5,-139 316.5,-139 316.5,0 217.5,0"/>
</a>
</g>
</g>
<!-- Node2 -->
<g id="Node000002" class="node">
<title>Node2</title>
<g id="a_Node000002"><a xlink:href="a00599.html" target="_top" xlink:title="Main AC Monitor data object data type declaration.">
<polygon fill="white" stroke="transparent" points="292,-257 242,-257 242,-208 292,-208 292,-257"/>
<text text-anchor="start" x="247" y="-244.5" font-family="Helvetica,sans-Serif" font-size="10.00">VACM_s</text>
<text text-anchor="start" x="248" y="-229.5" font-family="Helvetica,sans-Serif" font-size="10.00">+</text>
<text text-anchor="start" x="261" y="-229.5" font-family="Helvetica,sans-Serif" font-size="10.00">state</text>
<text text-anchor="start" x="265" y="-214.5" font-family="Helvetica,sans-Serif" font-size="10.00"> </text>
<polygon fill="#666666" stroke="#666666" points="242,-239.5 242,-239.5 292,-239.5 292,-239.5 242,-239.5"/>
<polygon fill="#666666" stroke="#666666" points="242,-224.5 242,-224.5 259,-224.5 259,-224.5 242,-224.5"/>
<polygon fill="#666666" stroke="#666666" points="259,-224.5 259,-224.5 292,-224.5 292,-224.5 259,-224.5"/>
<polygon fill="none" stroke="#666666" points="242,-208 242,-257 292,-257 292,-208 242,-208"/>
</a>
</g>
</g>
<!-- Node2&#45;&gt;Node1 -->
<g id="edge1_Node000001_Node000002" class="edge">
<title>Node2&#45;&gt;Node1</title>
<g id="a_edge1_Node000001_Node000002"><a xlink:title=" ">
<path fill="none" stroke="#63b8ff" d="M267,-207.74C267,-192.61 267,-172.03 267,-151.41"/>
<polygon fill="none" stroke="#63b8ff" points="267,-151.31 263,-145.31 267,-139.31 271,-145.31 267,-151.31"/>
</a>
</g>
<text text-anchor="middle" x="287.5" y="-182" font-family="Helvetica,sans-Serif" font-size="10.00" fill="grey"> +phase1</text>
<text text-anchor="middle" x="287.5" y="-171" font-family="Helvetica,sans-Serif" font-size="10.00" fill="grey">+phase2</text>
<text text-anchor="middle" x="287.5" y="-160" font-family="Helvetica,sans-Serif" font-size="10.00" fill="grey">+phase3</text>
</g>
<!-- Node3 -->
<g id="Node000003" class="node">
<title>Node3</title>
<g id="a_Node000003"><a xlink:href="a00563.html" target="_top" xlink:title="ADD_SHORT_DESCRIPTION.">
<polygon fill="white" stroke="transparent" points="92,-503 0,-503 0,-304 92,-304 92,-503"/>
<text text-anchor="start" x="5" y="-490.5" font-family="Helvetica,sans-Serif" font-size="10.00">VACM_STATUS_s</text>
<text text-anchor="start" x="7.5" y="-475.5" font-family="Helvetica,sans-Serif" font-size="10.00">+</text>
<text text-anchor="start" x="22" y="-475.5" font-family="Helvetica,sans-Serif" font-size="10.00">ac_drop</text>
<text text-anchor="start" x="7.5" y="-460.5" font-family="Helvetica,sans-Serif" font-size="10.00">+</text>
<text text-anchor="start" x="22" y="-460.5" font-family="Helvetica,sans-Serif" font-size="10.00">dc_mode</text>
<text text-anchor="start" x="7.5" y="-445.5" font-family="Helvetica,sans-Serif" font-size="10.00">+</text>
<text text-anchor="start" x="22" y="-445.5" font-family="Helvetica,sans-Serif" font-size="10.00">ac_ok</text>
<text text-anchor="start" x="7.5" y="-430.5" font-family="Helvetica,sans-Serif" font-size="10.00">+</text>
<text text-anchor="start" x="22" y="-430.5" font-family="Helvetica,sans-Serif" font-size="10.00">zero_cross</text>
<text text-anchor="start" x="7.5" y="-415.5" font-family="Helvetica,sans-Serif" font-size="10.00">+</text>
<text text-anchor="start" x="22" y="-415.5" font-family="Helvetica,sans-Serif" font-size="10.00">polarity_pos</text>
<text text-anchor="start" x="7.5" y="-400.5" font-family="Helvetica,sans-Serif" font-size="10.00">+</text>
<text text-anchor="start" x="22" y="-400.5" font-family="Helvetica,sans-Serif" font-size="10.00">end_of_cycle</text>
<text text-anchor="start" x="7.5" y="-385.5" font-family="Helvetica,sans-Serif" font-size="10.00">+</text>
<text text-anchor="start" x="22" y="-385.5" font-family="Helvetica,sans-Serif" font-size="10.00">slope_pos</text>
<text text-anchor="start" x="7.5" y="-370.5" font-family="Helvetica,sans-Serif" font-size="10.00">+</text>
<text text-anchor="start" x="22" y="-370.5" font-family="Helvetica,sans-Serif" font-size="10.00">__pad0__</text>
<text text-anchor="start" x="7.5" y="-355.5" font-family="Helvetica,sans-Serif" font-size="10.00">+</text>
<text text-anchor="start" x="22" y="-355.5" font-family="Helvetica,sans-Serif" font-size="10.00">__pad1__</text>
<text text-anchor="start" x="7.5" y="-340.5" font-family="Helvetica,sans-Serif" font-size="10.00">+</text>
<text text-anchor="start" x="22" y="-340.5" font-family="Helvetica,sans-Serif" font-size="10.00">__pad2__</text>
<text text-anchor="start" x="22" y="-325.5" font-family="Helvetica,sans-Serif" font-size="10.00">and 9 more...</text>
<text text-anchor="start" x="44" y="-310.5" font-family="Helvetica,sans-Serif" font-size="10.00"> </text>
<polygon fill="#666666" stroke="#666666" points="0,-485.5 0,-485.5 92,-485.5 92,-485.5 0,-485.5"/>
<polygon fill="#666666" stroke="#666666" points="0,-320.5 0,-320.5 20,-320.5 20,-320.5 0,-320.5"/>
<polygon fill="#666666" stroke="#666666" points="20,-320.5 20,-320.5 92,-320.5 92,-320.5 20,-320.5"/>
<polygon fill="none" stroke="#666666" points="0,-304 0,-503 92,-503 92,-304 0,-304"/>
</a>
</g>
</g>
<!-- Node3&#45;&gt;Node2 -->
<g id="edge2_Node000002_Node000003" class="edge">
<title>Node3&#45;&gt;Node2</title>
<g id="a_edge2_Node000002_Node000003"><a xlink:title=" ">
<path fill="none" stroke="#63b8ff" d="M92.21,-312.83C95.01,-309.71 97.94,-306.75 101,-304 138.1,-270.69 193.27,-251.55 229.67,-241.83"/>
<polygon fill="none" stroke="#63b8ff" points="230.08,-241.73 234.91,-236.37 241.71,-238.78 236.88,-244.13 230.08,-241.73"/>
</a>
</g>
<text text-anchor="middle" x="160.5" y="-278" font-family="Helvetica,sans-Serif" font-size="10.00" fill="grey"> +status</text>
</g>
<!-- Node4 -->
<g id="Node000004" class="node">
<title>Node4</title>
<g id="a_Node000004"><a xlink:title=" ">
<polygon fill="white" stroke="transparent" points="243.5,-589 130.5,-589 130.5,-540 243.5,-540 243.5,-589"/>
<text text-anchor="start" x="136" y="-576.5" font-family="Helvetica,sans-Serif" font-size="10.00">PARENT_STRUCTURE</text>
<text text-anchor="start" x="185.5" y="-561.5" font-family="Helvetica,sans-Serif" font-size="10.00"> </text>
<text text-anchor="start" x="185.5" y="-546.5" font-family="Helvetica,sans-Serif" font-size="10.00"> </text>
<polygon fill="#666666" stroke="#666666" points="131,-571.5 131,-571.5 244,-571.5 244,-571.5 131,-571.5"/>
<polygon fill="#666666" stroke="#666666" points="131,-556.5 131,-556.5 244,-556.5 244,-556.5 131,-556.5"/>
<polygon fill="none" stroke="#666666" points="130.5,-540 130.5,-589 243.5,-589 243.5,-540 130.5,-540"/>
</a>
</g>
</g>
<!-- Node4&#45;&gt;Node3 -->
<g id="edge3_Node000003_Node000004" class="edge">
<title>Node4&#45;&gt;Node3</title>
<g id="a_edge3_Node000003_Node000004"><a xlink:title=" ">
<path fill="none" stroke="#63b8ff" d="M137.19,-534.11C124.45,-525.15 111.43,-514.57 101,-503 97.98,-499.65 95.07,-496.11 92.25,-492.44"/>
<polygon fill="none" stroke="#63b8ff" points="135.25,-537.02 145.49,-539.76 139.19,-531.24 135.25,-537.02"/>
</a>
</g>
</g>
<!-- Node5 -->
<g id="Node000005" class="node">
<title>Node5</title>
<g id="a_Node000005"><a xlink:href="a00575.html" target="_top" xlink:title="ADD_SHORT_DESCRIPTION.">
<polygon fill="white" stroke="transparent" points="195.5,-503 110.5,-503 110.5,-304 195.5,-304 195.5,-503"/>
<text text-anchor="start" x="116" y="-490.5" font-family="Helvetica,sans-Serif" font-size="10.00">VACM_FAULT_s</text>
<text text-anchor="start" x="117" y="-475.5" font-family="Helvetica,sans-Serif" font-size="10.00">+</text>
<text text-anchor="start" x="130" y="-475.5" font-family="Helvetica,sans-Serif" font-size="10.00">ov</text>
<text text-anchor="start" x="117" y="-460.5" font-family="Helvetica,sans-Serif" font-size="10.00">+</text>
<text text-anchor="start" x="130" y="-460.5" font-family="Helvetica,sans-Serif" font-size="10.00">uv</text>
<text text-anchor="start" x="117" y="-445.5" font-family="Helvetica,sans-Serif" font-size="10.00">+</text>
<text text-anchor="start" x="130" y="-445.5" font-family="Helvetica,sans-Serif" font-size="10.00">fmin</text>
<text text-anchor="start" x="117" y="-430.5" font-family="Helvetica,sans-Serif" font-size="10.00">+</text>
<text text-anchor="start" x="130" y="-430.5" font-family="Helvetica,sans-Serif" font-size="10.00">fmax</text>
<text text-anchor="start" x="117" y="-415.5" font-family="Helvetica,sans-Serif" font-size="10.00">+</text>
<text text-anchor="start" x="130" y="-415.5" font-family="Helvetica,sans-Serif" font-size="10.00">zc_timeout</text>
<text text-anchor="start" x="117" y="-400.5" font-family="Helvetica,sans-Serif" font-size="10.00">+</text>
<text text-anchor="start" x="130" y="-400.5" font-family="Helvetica,sans-Serif" font-size="10.00">__pad0__</text>
<text text-anchor="start" x="117" y="-385.5" font-family="Helvetica,sans-Serif" font-size="10.00">+</text>
<text text-anchor="start" x="130" y="-385.5" font-family="Helvetica,sans-Serif" font-size="10.00">__pad1__</text>
<text text-anchor="start" x="117" y="-370.5" font-family="Helvetica,sans-Serif" font-size="10.00">+</text>
<text text-anchor="start" x="130" y="-370.5" font-family="Helvetica,sans-Serif" font-size="10.00">__pad2__</text>
<text text-anchor="start" x="117" y="-355.5" font-family="Helvetica,sans-Serif" font-size="10.00">+</text>
<text text-anchor="start" x="130" y="-355.5" font-family="Helvetica,sans-Serif" font-size="10.00">__pad3__</text>
<text text-anchor="start" x="117" y="-340.5" font-family="Helvetica,sans-Serif" font-size="10.00">+</text>
<text text-anchor="start" x="130" y="-340.5" font-family="Helvetica,sans-Serif" font-size="10.00">__pad4__</text>
<text text-anchor="start" x="130" y="-325.5" font-family="Helvetica,sans-Serif" font-size="10.00">and 9 more...</text>
<text text-anchor="start" x="151.5" y="-310.5" font-family="Helvetica,sans-Serif" font-size="10.00"> </text>
<polygon fill="#666666" stroke="#666666" points="111,-485.5 111,-485.5 196,-485.5 196,-485.5 111,-485.5"/>
<polygon fill="#666666" stroke="#666666" points="111,-320.5 111,-320.5 128,-320.5 128,-320.5 111,-320.5"/>
<polygon fill="#666666" stroke="#666666" points="128,-320.5 128,-320.5 196,-320.5 196,-320.5 128,-320.5"/>
<polygon fill="none" stroke="#666666" points="110.5,-304 110.5,-503 195.5,-503 195.5,-304 110.5,-304"/>
</a>
</g>
</g>
<!-- Node4&#45;&gt;Node5 -->
<g id="edge5_Node000005_Node000004" class="edge">
<title>Node4&#45;&gt;Node5</title>
<g id="a_edge5_Node000005_Node000004"><a xlink:title=" ">
<path fill="none" stroke="#63b8ff" d="M179.77,-529.71C178.05,-521.67 176.13,-512.67 174.13,-503.3"/>
<polygon fill="none" stroke="#63b8ff" points="176.4,-530.65 181.91,-539.7 183.24,-529.19 176.4,-530.65"/>
</a>
</g>
</g>
<!-- Node6 -->
<g id="Node000006" class="node">
<title>Node6</title>
<g id="a_Node000006"><a xlink:href="a00595.html" target="_top" xlink:title="ADD_SHORT_DESCRIPTION.">
<polygon fill="white" stroke="transparent" points="320,-480.5 214,-480.5 214,-326.5 320,-326.5 320,-480.5"/>
<text text-anchor="start" x="220" y="-468.5" font-family="Helvetica,sans-Serif" font-size="10.00">VACM_TIMEBASE_s</text>
<text text-anchor="start" x="218" y="-453.5" font-family="Helvetica,sans-Serif" font-size="10.00">+</text>
<text text-anchor="start" x="229" y="-453.5" font-family="Helvetica,sans-Serif" font-size="10.00">half_cycle</text>
<text text-anchor="start" x="218" y="-438.5" font-family="Helvetica,sans-Serif" font-size="10.00">+</text>
<text text-anchor="start" x="229" y="-438.5" font-family="Helvetica,sans-Serif" font-size="10.00">half_cycle_timer</text>
<text text-anchor="start" x="218" y="-423.5" font-family="Helvetica,sans-Serif" font-size="10.00">+</text>
<text text-anchor="start" x="229" y="-423.5" font-family="Helvetica,sans-Serif" font-size="10.00">startup_counter</text>
<text text-anchor="start" x="218" y="-408.5" font-family="Helvetica,sans-Serif" font-size="10.00">+</text>
<text text-anchor="start" x="229" y="-408.5" font-family="Helvetica,sans-Serif" font-size="10.00">zero_cross_timer</text>
<text text-anchor="start" x="218" y="-393.5" font-family="Helvetica,sans-Serif" font-size="10.00">+</text>
<text text-anchor="start" x="229" y="-393.5" font-family="Helvetica,sans-Serif" font-size="10.00">ac_drop_timer</text>
<text text-anchor="start" x="218" y="-378.5" font-family="Helvetica,sans-Serif" font-size="10.00">+</text>
<text text-anchor="start" x="229" y="-378.5" font-family="Helvetica,sans-Serif" font-size="10.00">vin_present_counter</text>
<text text-anchor="start" x="218" y="-363.5" font-family="Helvetica,sans-Serif" font-size="10.00">+</text>
<text text-anchor="start" x="229" y="-363.5" font-family="Helvetica,sans-Serif" font-size="10.00">dc_present_counter</text>
<text text-anchor="start" x="218" y="-348.5" font-family="Helvetica,sans-Serif" font-size="10.00">+</text>
<text text-anchor="start" x="229" y="-348.5" font-family="Helvetica,sans-Serif" font-size="10.00">dc_loss_counter</text>
<text text-anchor="start" x="265" y="-333.5" font-family="Helvetica,sans-Serif" font-size="10.00"> </text>
<polygon fill="#666666" stroke="#666666" points="214,-463.5 214,-463.5 320,-463.5 320,-463.5 214,-463.5"/>
<polygon fill="#666666" stroke="#666666" points="214,-343.5 214,-343.5 227,-343.5 227,-343.5 214,-343.5"/>
<polygon fill="#666666" stroke="#666666" points="227,-343.5 227,-343.5 320,-343.5 320,-343.5 227,-343.5"/>
<polygon fill="none" stroke="#666666" points="214,-326.5 214,-480.5 320,-480.5 320,-326.5 214,-326.5"/>
</a>
</g>
</g>
<!-- Node4&#45;&gt;Node6 -->
<g id="edge7_Node000006_Node000004" class="edge">
<title>Node4&#45;&gt;Node6</title>
<g id="a_edge7_Node000006_Node000004"><a xlink:title=" ">
<path fill="none" stroke="#63b8ff" d="M203.55,-530.61C210.89,-516.02 219.86,-498.19 228.72,-480.59"/>
<polygon fill="none" stroke="#63b8ff" points="200.34,-529.19 198.98,-539.7 206.6,-532.34 200.34,-529.19"/>
</a>
</g>
</g>
<!-- Node7 -->
<g id="Node000007" class="node">
<title>Node7</title>
<g id="a_Node000007"><a xlink:href="a00587.html" target="_top" xlink:title="ADD_SHORT_DESCRIPTION.">
<polygon fill="white" stroke="transparent" points="409.5,-488 338.5,-488 338.5,-319 409.5,-319 409.5,-488"/>
<text text-anchor="start" x="344" y="-475.5" font-family="Helvetica,sans-Serif" font-size="10.00">VACM_VIN_s</text>
<text text-anchor="start" x="344.5" y="-460.5" font-family="Helvetica,sans-Serif" font-size="10.00">+</text>
<text text-anchor="start" x="357" y="-460.5" font-family="Helvetica,sans-Serif" font-size="10.00">ptr_adcbuf</text>
<text text-anchor="start" x="344.5" y="-445.5" font-family="Helvetica,sans-Serif" font-size="10.00">+</text>
<text text-anchor="start" x="357" y="-445.5" font-family="Helvetica,sans-Serif" font-size="10.00">raw</text>
<text text-anchor="start" x="344.5" y="-430.5" font-family="Helvetica,sans-Serif" font-size="10.00">+</text>
<text text-anchor="start" x="357" y="-430.5" font-family="Helvetica,sans-Serif" font-size="10.00">raw_prev</text>
<text text-anchor="start" x="344.5" y="-415.5" font-family="Helvetica,sans-Serif" font-size="10.00">+</text>
<text text-anchor="start" x="357" y="-415.5" font-family="Helvetica,sans-Serif" font-size="10.00">rectified</text>
<text text-anchor="start" x="344.5" y="-400.5" font-family="Helvetica,sans-Serif" font-size="10.00">+</text>
<text text-anchor="start" x="357" y="-400.5" font-family="Helvetica,sans-Serif" font-size="10.00">ptr_offset</text>
<text text-anchor="start" x="344.5" y="-385.5" font-family="Helvetica,sans-Serif" font-size="10.00">+</text>
<text text-anchor="start" x="357" y="-385.5" font-family="Helvetica,sans-Serif" font-size="10.00">avg</text>
<text text-anchor="start" x="344.5" y="-370.5" font-family="Helvetica,sans-Serif" font-size="10.00">+</text>
<text text-anchor="start" x="357" y="-370.5" font-family="Helvetica,sans-Serif" font-size="10.00">avg_prev</text>
<text text-anchor="start" x="344.5" y="-355.5" font-family="Helvetica,sans-Serif" font-size="10.00">+</text>
<text text-anchor="start" x="357" y="-355.5" font-family="Helvetica,sans-Serif" font-size="10.00">avg_sqrd</text>
<text text-anchor="start" x="344.5" y="-340.5" font-family="Helvetica,sans-Serif" font-size="10.00">+</text>
<text text-anchor="start" x="357" y="-340.5" font-family="Helvetica,sans-Serif" font-size="10.00">vloop_ff</text>
<text text-anchor="start" x="372.5" y="-325.5" font-family="Helvetica,sans-Serif" font-size="10.00"> </text>
<polygon fill="#666666" stroke="#666666" points="339,-470.5 339,-470.5 410,-470.5 410,-470.5 339,-470.5"/>
<polygon fill="#666666" stroke="#666666" points="339,-335.5 339,-335.5 355,-335.5 355,-335.5 339,-335.5"/>
<polygon fill="#666666" stroke="#666666" points="355,-335.5 355,-335.5 410,-335.5 410,-335.5 355,-335.5"/>
<polygon fill="none" stroke="#666666" points="338.5,-319 338.5,-488 409.5,-488 409.5,-319 338.5,-319"/>
</a>
</g>
</g>
<!-- Node4&#45;&gt;Node7 -->
<g id="edge9_Node000007_Node000004" class="edge">
<title>Node4&#45;&gt;Node7</title>
<g id="a_edge9_Node000007_Node000004"><a xlink:title=" ">
<path fill="none" stroke="#63b8ff" d="M253.25,-546.64C279.42,-537.29 308.15,-523.32 329,-503 333.58,-498.54 337.73,-493.52 341.5,-488.18"/>
<polygon fill="none" stroke="#63b8ff" points="252.08,-543.34 243.74,-549.88 254.34,-549.97 252.08,-543.34"/>
</a>
</g>
</g>
<!-- Node5&#45;&gt;Node2 -->
<g id="edge4_Node000002_Node000005" class="edge">
<title>Node5&#45;&gt;Node2</title>
<g id="a_edge4_Node000002_Node000005"><a xlink:title=" ">
<path fill="none" stroke="#63b8ff" d="M195.64,-318.4C198.69,-313.45 201.82,-308.62 205,-304 213.96,-291 225.02,-277.74 235.3,-266.29"/>
<polygon fill="none" stroke="#63b8ff" points="235.59,-265.97 236.69,-258.85 243.7,-257.13 242.59,-264.25 235.59,-265.97"/>
</a>
</g>
<text text-anchor="middle" x="242" y="-278" font-family="Helvetica,sans-Serif" font-size="10.00" fill="grey"> +fault</text>
</g>
<!-- Node6&#45;&gt;Node2 -->
<g id="edge6_Node000002_Node000006" class="edge">
<title>Node6&#45;&gt;Node2</title>
<g id="a_edge6_Node000002_Node000006"><a xlink:title=" ">
<path fill="none" stroke="#63b8ff" d="M267,-326.4C267,-306.63 267,-286.24 267,-269.62"/>
<polygon fill="none" stroke="#63b8ff" points="267,-269.18 263,-263.18 267,-257.18 271,-263.18 267,-269.18"/>
</a>
</g>
<text text-anchor="middle" x="291.5" y="-278" font-family="Helvetica,sans-Serif" font-size="10.00" fill="grey"> +timebase</text>
</g>
<!-- Node7&#45;&gt;Node2 -->
<g id="edge8_Node000002_Node000007" class="edge">
<title>Node7&#45;&gt;Node2</title>
<g id="a_edge8_Node000002_Node000007"><a xlink:title=" ">
<path fill="none" stroke="#63b8ff" d="M345.8,-318.87C338.66,-303.5 330.09,-288.17 320,-275 314.89,-268.33 308.47,-262.13 301.88,-256.67"/>
<polygon fill="none" stroke="#63b8ff" points="301.73,-256.56 294.54,-256.05 292.24,-249.22 299.43,-249.72 301.73,-256.56"/>
</a>
</g>
<text text-anchor="middle" x="336.5" y="-278" font-family="Helvetica,sans-Serif" font-size="10.00" fill="grey"> +vin</text>
</g>
<!-- Node8 -->
<g id="Node000008" class="node">
<title>Node8</title>
<g id="a_Node000008"><a xlink:href="a00591.html" target="_top" xlink:title=" ">
<polygon fill="white" stroke="transparent" points="574,-443 428,-443 428,-364 574,-364 574,-443"/>
<text text-anchor="start" x="433" y="-430.5" font-family="Helvetica,sans-Serif" font-size="10.00">VACM_AVGCALC_BUFFER_s</text>
<text text-anchor="start" x="448.5" y="-415.5" font-family="Helvetica,sans-Serif" font-size="10.00">+</text>
<text text-anchor="start" x="476" y="-415.5" font-family="Helvetica,sans-Serif" font-size="10.00">counter</text>
<text text-anchor="start" x="448.5" y="-400.5" font-family="Helvetica,sans-Serif" font-size="10.00">+</text>
<text text-anchor="start" x="476" y="-400.5" font-family="Helvetica,sans-Serif" font-size="10.00">counter_reset</text>
<text text-anchor="start" x="448.5" y="-385.5" font-family="Helvetica,sans-Serif" font-size="10.00">+</text>
<text text-anchor="start" x="476" y="-385.5" font-family="Helvetica,sans-Serif" font-size="10.00">acc</text>
<text text-anchor="start" x="499" y="-370.5" font-family="Helvetica,sans-Serif" font-size="10.00"> </text>
<polygon fill="#666666" stroke="#666666" points="428,-425.5 428,-425.5 574,-425.5 574,-425.5 428,-425.5"/>
<polygon fill="#666666" stroke="#666666" points="428,-380.5 428,-380.5 474,-380.5 474,-380.5 428,-380.5"/>
<polygon fill="#666666" stroke="#666666" points="474,-380.5 474,-380.5 574,-380.5 574,-380.5 474,-380.5"/>
<polygon fill="none" stroke="#666666" points="428,-364 428,-443 574,-443 574,-364 428,-364"/>
</a>
</g>
</g>
<!-- Node8&#45;&gt;Node2 -->
<g id="edge10_Node000002_Node000008" class="edge">
<title>Node8&#45;&gt;Node2</title>
<g id="a_edge10_Node000002_Node000008"><a xlink:title=" ">
<path fill="none" stroke="#63b8ff" d="M475.17,-363.87C460.47,-344.07 440.7,-320.68 419,-304 383.73,-276.88 336.34,-257 303.91,-245.39"/>
<polygon fill="none" stroke="#63b8ff" points="303.6,-245.28 296.62,-247.09 292.27,-241.35 299.25,-239.54 303.6,-245.28"/>
</a>
</g>
<text text-anchor="middle" x="423" y="-278" font-family="Helvetica,sans-Serif" font-size="10.00" fill="grey"> +avgcalc_buffer</text>
</g>
</g>
</svg>
