<?xml version="1.0" encoding="UTF-8" standalone="no"?>
<!DOCTYPE svg PUBLIC "-//W3C//DTD SVG 1.1//EN"
 "http://www.w3.org/Graphics/SVG/1.1/DTD/svg11.dtd">
<!-- Generated by graphviz version 8.1.0 (20230707.0739)
 -->
<!-- Title: I2C_s Pages: 1 -->
<svg width="265pt" height="528pt"
 viewBox="0.00 0.00 265.00 528.00" xmlns="http://www.w3.org/2000/svg" xmlns:xlink="http://www.w3.org/1999/xlink">
<g id="graph0" class="graph" transform="scale(1 1) rotate(0) translate(4 524)">
<title>I2C_s</title>
<!-- Node1 -->
<g id="Node000001" class="node">
<title>Node1</title>
<g id="a_Node000001"><a xlink:title=" ">
<polygon fill="#999999" stroke="none" points="111,-68 24,-68 24,0 111,0 111,-68"/>
<text text-anchor="start" x="55.12" y="-54.5" font-family="Helvetica,sans-Serif" font-size="10.00">I2C_s</text>
<text text-anchor="start" x="28" y="-38.5" font-family="Helvetica,sans-Serif" font-size="10.00">+</text>
<text text-anchor="start" x="38" y="-38.5" font-family="Helvetica,sans-Serif" font-size="10.00">crc</text>
<text text-anchor="start" x="28" y="-22.5" font-family="Helvetica,sans-Serif" font-size="10.00">+</text>
<text text-anchor="start" x="38" y="-22.5" font-family="Helvetica,sans-Serif" font-size="10.00">timeout_counter</text>
<text text-anchor="start" x="66" y="-6.5" font-family="Helvetica,sans-Serif" font-size="10.00"> </text>
<polygon fill="#666666" stroke="#666666" points="24,-50 24,-50 111,-50 111,-50 24,-50"/>
<polygon fill="#666666" stroke="#666666" points="24,-18 24,-18 36,-18 36,-18 24,-18"/>
<polygon fill="#666666" stroke="#666666" points="36,-18 36,-18 111,-18 111,-18 36,-18"/>
<polygon fill="none" stroke="#666666" points="24,0 24,-68 111,-68 111,0 24,0"/>
</a>
</g>
</g>
<!-- Node2 -->
<g id="Node000002" class="node">
<title>Node2</title>
<g id="a_Node000002"><a xlink:href="a00501.html" target="_top" xlink:title=" ">
<polygon fill="white" stroke="none" points="77,-302 0,-302 0,-138 77,-138 77,-302"/>
<text text-anchor="start" x="4.75" y="-288.5" font-family="Helvetica,sans-Serif" font-size="10.00">I2C_STATUS_s</text>
<text text-anchor="start" x="9" y="-272.5" font-family="Helvetica,sans-Serif" font-size="10.00">+</text>
<text text-anchor="start" x="24" y="-272.5" font-family="Helvetica,sans-Serif" font-size="10.00">cmd_ok</text>
<text text-anchor="start" x="9" y="-256.5" font-family="Helvetica,sans-Serif" font-size="10.00">+</text>
<text text-anchor="start" x="24" y="-256.5" font-family="Helvetica,sans-Serif" font-size="10.00">pec_ok</text>
<text text-anchor="start" x="9" y="-240.5" font-family="Helvetica,sans-Serif" font-size="10.00">+</text>
<text text-anchor="start" x="24" y="-240.5" font-family="Helvetica,sans-Serif" font-size="10.00">done</text>
<text text-anchor="start" x="9" y="-224.5" font-family="Helvetica,sans-Serif" font-size="10.00">+</text>
<text text-anchor="start" x="24" y="-224.5" font-family="Helvetica,sans-Serif" font-size="10.00">timeout</text>
<text text-anchor="start" x="9" y="-208.5" font-family="Helvetica,sans-Serif" font-size="10.00">+</text>
<text text-anchor="start" x="24" y="-208.5" font-family="Helvetica,sans-Serif" font-size="10.00">unsigned</text>
<text text-anchor="start" x="9" y="-192.5" font-family="Helvetica,sans-Serif" font-size="10.00">+</text>
<text text-anchor="start" x="24" y="-192.5" font-family="Helvetica,sans-Serif" font-size="10.00">bits</text>
<text text-anchor="start" x="9" y="-176.5" font-family="Helvetica,sans-Serif" font-size="10.00">+</text>
<text text-anchor="start" x="24" y="-176.5" font-family="Helvetica,sans-Serif" font-size="10.00">value</text>
<text text-anchor="start" x="9" y="-160.5" font-family="Helvetica,sans-Serif" font-size="10.00">+</text>
<text text-anchor="start" x="24" y="-160.5" font-family="Helvetica,sans-Serif" font-size="10.00">@4</text>
<text text-anchor="start" x="37" y="-144.5" font-family="Helvetica,sans-Serif" font-size="10.00"> </text>
<polygon fill="#666666" stroke="#666666" points="0,-284 0,-284 77,-284 77,-284 0,-284"/>
<polygon fill="#666666" stroke="#666666" points="0,-156 0,-156 22,-156 22,-156 0,-156"/>
<polygon fill="#666666" stroke="#666666" points="22,-156 22,-156 77,-156 77,-156 22,-156"/>
<polygon fill="none" stroke="#666666" points="0,-138 0,-302 77,-302 77,-138 0,-138"/>
</a>
</g>
</g>
<!-- Node2&#45;&gt;Node1 -->
<g id="edge1_Node000001_Node000002" class="edge">
<title>Node2&#45;&gt;Node1</title>
<g id="a_edge1_Node000001_Node000002"><a xlink:title=" ">
<path fill="none" stroke="#63b8ff" d="M51.26,-138.03C54.39,-118.2 57.62,-97.69 60.37,-80.23"/>
<polygon fill="none" stroke="#63b8ff" points="60.36,-80.29 57.35,-73.74 62.23,-68.43 65.25,-74.98 60.36,-80.29"/>
</a>
</g>
<text text-anchor="middle" x="77.5" y="-88.5" font-family="Helvetica,sans-Serif" font-size="10.00" fill="grey"> +status</text>
</g>
<!-- Node3 -->
<g id="Node000003" class="node">
<title>Node3</title>
<g id="a_Node000003"><a xlink:href="a00537.html" target="_top" xlink:title=" ">
<polygon fill="white" stroke="none" points="207.5,-324 95.5,-324 95.5,-116 207.5,-116 207.5,-324"/>
<text text-anchor="start" x="100.5" y="-310.5" font-family="Helvetica,sans-Serif" font-size="10.00">SIC_CLIENT_RECEIVE</text>
<text text-anchor="start" x="126.38" y="-298.5" font-family="Helvetica,sans-Serif" font-size="10.00">_FRAME_s</text>
<text text-anchor="start" x="109" y="-282.5" font-family="Helvetica,sans-Serif" font-size="10.00">+</text>
<text text-anchor="start" x="128.5" y="-282.5" font-family="Helvetica,sans-Serif" font-size="10.00">command_id</text>
<text text-anchor="start" x="109" y="-266.5" font-family="Helvetica,sans-Serif" font-size="10.00">+</text>
<text text-anchor="start" x="128.5" y="-266.5" font-family="Helvetica,sans-Serif" font-size="10.00">temp_sic1</text>
<text text-anchor="start" x="109" y="-250.5" font-family="Helvetica,sans-Serif" font-size="10.00">+</text>
<text text-anchor="start" x="128.5" y="-250.5" font-family="Helvetica,sans-Serif" font-size="10.00">temp_sic2</text>
<text text-anchor="start" x="109" y="-234.5" font-family="Helvetica,sans-Serif" font-size="10.00">+</text>
<text text-anchor="start" x="128.5" y="-234.5" font-family="Helvetica,sans-Serif" font-size="10.00">temp_sic3</text>
<text text-anchor="start" x="109" y="-218.5" font-family="Helvetica,sans-Serif" font-size="10.00">+</text>
<text text-anchor="start" x="128.5" y="-218.5" font-family="Helvetica,sans-Serif" font-size="10.00">temp_sic4</text>
<text text-anchor="start" x="109" y="-202.5" font-family="Helvetica,sans-Serif" font-size="10.00">+</text>
<text text-anchor="start" x="128.5" y="-202.5" font-family="Helvetica,sans-Serif" font-size="10.00">fan_duty</text>
<text text-anchor="start" x="109" y="-186.5" font-family="Helvetica,sans-Serif" font-size="10.00">+</text>
<text text-anchor="start" x="128.5" y="-186.5" font-family="Helvetica,sans-Serif" font-size="10.00">crc_rx</text>
<text text-anchor="start" x="109" y="-170.5" font-family="Helvetica,sans-Serif" font-size="10.00">+</text>
<text text-anchor="start" x="128.5" y="-170.5" font-family="Helvetica,sans-Serif" font-size="10.00">bytes</text>
<text text-anchor="start" x="109" y="-154.5" font-family="Helvetica,sans-Serif" font-size="10.00">+</text>
<text text-anchor="start" x="128.5" y="-154.5" font-family="Helvetica,sans-Serif" font-size="10.00">array</text>
<text text-anchor="start" x="109" y="-138.5" font-family="Helvetica,sans-Serif" font-size="10.00">+</text>
<text text-anchor="start" x="128.5" y="-138.5" font-family="Helvetica,sans-Serif" font-size="10.00">@13</text>
<text text-anchor="start" x="150" y="-122.5" font-family="Helvetica,sans-Serif" font-size="10.00"> </text>
<polygon fill="#666666" stroke="#666666" points="95.5,-294 95.5,-294 207.5,-294 207.5,-294 95.5,-294"/>
<polygon fill="#666666" stroke="#666666" points="95.5,-134 95.5,-134 126.5,-134 126.5,-134 95.5,-134"/>
<polygon fill="#666666" stroke="#666666" points="126.5,-134 126.5,-134 207.5,-134 207.5,-134 126.5,-134"/>
<polygon fill="none" stroke="#666666" points="95.5,-116 95.5,-324 207.5,-324 207.5,-116 95.5,-116"/>
</a>
</g>
</g>
<!-- Node3&#45;&gt;Node1 -->
<g id="edge2_Node000001_Node000003" class="edge">
<title>Node3&#45;&gt;Node1</title>
<g id="a_edge2_Node000001_Node000003"><a xlink:title=" ">
<path fill="none" stroke="#63b8ff" d="M113.52,-116.13C109.05,-105.83 104.35,-95.63 99.5,-86 98.37,-83.76 97.17,-81.49 95.93,-79.22"/>
<polygon fill="none" stroke="#63b8ff" points="95.87,-79.12 89.41,-75.93 89.87,-68.73 96.34,-71.93 95.87,-79.12"/>
</a>
</g>
<text text-anchor="middle" x="122" y="-88.5" font-family="Helvetica,sans-Serif" font-size="10.00" fill="grey"> +frame</text>
</g>
<!-- Node4 -->
<g id="Node000004" class="node">
<title>Node4</title>
<g id="a_Node000004"><a xlink:href="a00513.html" target="_top" xlink:title=" ">
<polygon fill="white" stroke="none" points="137,-520 64,-520 64,-372 137,-372 137,-520"/>
<text text-anchor="start" x="68.62" y="-506.5" font-family="Helvetica,sans-Serif" font-size="10.00">SIC_FLAGS_s</text>
<text text-anchor="start" x="76.5" y="-490.5" font-family="Helvetica,sans-Serif" font-size="10.00">+</text>
<text text-anchor="start" x="95" y="-490.5" font-family="Helvetica,sans-Serif" font-size="10.00">sic1</text>
<text text-anchor="start" x="76.5" y="-474.5" font-family="Helvetica,sans-Serif" font-size="10.00">+</text>
<text text-anchor="start" x="95" y="-474.5" font-family="Helvetica,sans-Serif" font-size="10.00">sic2</text>
<text text-anchor="start" x="76.5" y="-458.5" font-family="Helvetica,sans-Serif" font-size="10.00">+</text>
<text text-anchor="start" x="95" y="-458.5" font-family="Helvetica,sans-Serif" font-size="10.00">sic3</text>
<text text-anchor="start" x="76.5" y="-442.5" font-family="Helvetica,sans-Serif" font-size="10.00">+</text>
<text text-anchor="start" x="95" y="-442.5" font-family="Helvetica,sans-Serif" font-size="10.00">sic4</text>
<text text-anchor="start" x="76.5" y="-426.5" font-family="Helvetica,sans-Serif" font-size="10.00">+</text>
<text text-anchor="start" x="95" y="-426.5" font-family="Helvetica,sans-Serif" font-size="10.00">bits</text>
<text text-anchor="start" x="76.5" y="-410.5" font-family="Helvetica,sans-Serif" font-size="10.00">+</text>
<text text-anchor="start" x="95" y="-410.5" font-family="Helvetica,sans-Serif" font-size="10.00">value</text>
<text text-anchor="start" x="76.5" y="-394.5" font-family="Helvetica,sans-Serif" font-size="10.00">+</text>
<text text-anchor="start" x="95" y="-394.5" font-family="Helvetica,sans-Serif" font-size="10.00">@7</text>
<text text-anchor="start" x="99" y="-378.5" font-family="Helvetica,sans-Serif" font-size="10.00"> </text>
<polygon fill="#666666" stroke="#666666" points="64,-502 64,-502 137,-502 137,-502 64,-502"/>
<polygon fill="#666666" stroke="#666666" points="64,-390 64,-390 93,-390 93,-390 64,-390"/>
<polygon fill="#666666" stroke="#666666" points="93,-390 93,-390 137,-390 137,-390 93,-390"/>
<polygon fill="none" stroke="#666666" points="64,-372 64,-520 137,-520 137,-372 64,-372"/>
</a>
</g>
</g>
<!-- Node4&#45;&gt;Node3 -->
<g id="edge3_Node000003_Node000004" class="edge">
<title>Node4&#45;&gt;Node3</title>
<g id="a_edge3_Node000003_Node000004"><a xlink:title=" ">
<path fill="none" stroke="#63b8ff" d="M98.18,-372.04C98.84,-361.89 100.03,-351.64 102,-342 102.38,-340.12 102.79,-338.24 103.23,-336.35"/>
<polygon fill="none" stroke="#63b8ff" points="103.24,-336.32 100.87,-329.51 106.25,-324.71 108.62,-331.52 103.24,-336.32"/>
</a>
</g>
<text text-anchor="middle" x="142.25" y="-344.5" font-family="Helvetica,sans-Serif" font-size="10.00" fill="grey"> +sic_status_flags</text>
</g>
<!-- Node5 -->
<g id="Node000005" class="node">
<title>Node5</title>
<g id="a_Node000005"><a xlink:href="a00525.html" target="_top" xlink:title=" ">
<polygon fill="white" stroke="none" points="241.5,-520 165.5,-520 165.5,-372 241.5,-372 241.5,-520"/>
<text text-anchor="start" x="170.12" y="-506.5" font-family="Helvetica,sans-Serif" font-size="10.00">AUX_FLAGS_s</text>
<text text-anchor="start" x="176.5" y="-490.5" font-family="Helvetica,sans-Serif" font-size="10.00">+</text>
<text text-anchor="start" x="193.5" y="-490.5" font-family="Helvetica,sans-Serif" font-size="10.00">_5v</text>
<text text-anchor="start" x="176.5" y="-474.5" font-family="Helvetica,sans-Serif" font-size="10.00">+</text>
<text text-anchor="start" x="193.5" y="-474.5" font-family="Helvetica,sans-Serif" font-size="10.00">_12v</text>
<text text-anchor="start" x="176.5" y="-458.5" font-family="Helvetica,sans-Serif" font-size="10.00">+</text>
<text text-anchor="start" x="193.5" y="-458.5" font-family="Helvetica,sans-Serif" font-size="10.00">_24v</text>
<text text-anchor="start" x="176.5" y="-442.5" font-family="Helvetica,sans-Serif" font-size="10.00">+</text>
<text text-anchor="start" x="193.5" y="-442.5" font-family="Helvetica,sans-Serif" font-size="10.00">uint8_t</text>
<text text-anchor="start" x="176.5" y="-426.5" font-family="Helvetica,sans-Serif" font-size="10.00">+</text>
<text text-anchor="start" x="193.5" y="-426.5" font-family="Helvetica,sans-Serif" font-size="10.00">bits</text>
<text text-anchor="start" x="176.5" y="-410.5" font-family="Helvetica,sans-Serif" font-size="10.00">+</text>
<text text-anchor="start" x="193.5" y="-410.5" font-family="Helvetica,sans-Serif" font-size="10.00">value</text>
<text text-anchor="start" x="176.5" y="-394.5" font-family="Helvetica,sans-Serif" font-size="10.00">+</text>
<text text-anchor="start" x="193.5" y="-394.5" font-family="Helvetica,sans-Serif" font-size="10.00">@10</text>
<text text-anchor="start" x="202" y="-378.5" font-family="Helvetica,sans-Serif" font-size="10.00"> </text>
<polygon fill="#666666" stroke="#666666" points="165.5,-502 165.5,-502 241.5,-502 241.5,-502 165.5,-502"/>
<polygon fill="#666666" stroke="#666666" points="165.5,-390 165.5,-390 191.5,-390 191.5,-390 165.5,-390"/>
<polygon fill="#666666" stroke="#666666" points="191.5,-390 191.5,-390 241.5,-390 241.5,-390 191.5,-390"/>
<polygon fill="none" stroke="#666666" points="165.5,-372 165.5,-520 241.5,-520 241.5,-372 165.5,-372"/>
</a>
</g>
</g>
<!-- Node5&#45;&gt;Node3 -->
<g id="edge4_Node000003_Node000005" class="edge">
<title>Node5&#45;&gt;Node3</title>
<g id="a_edge4_Node000003_Node000005"><a xlink:title=" ">
<path fill="none" stroke="#63b8ff" d="M188.23,-372.07C186.02,-361.95 183.74,-351.71 181.5,-342 181.07,-340.15 180.64,-338.29 180.21,-336.42"/>
<polygon fill="none" stroke="#63b8ff" points="180.22,-336.48 174.95,-331.56 177.47,-324.8 182.74,-329.72 180.22,-336.48"/>
</a>
</g>
<text text-anchor="middle" x="220.25" y="-344.5" font-family="Helvetica,sans-Serif" font-size="10.00" fill="grey"> +aux_fault_flags</text>
</g>
</g>
</svg>
