<?xml version="1.0" encoding="UTF-8" standalone="no"?>
<!DOCTYPE svg PUBLIC "-//W3C//DTD SVG 1.1//EN"
 "http://www.w3.org/Graphics/SVG/1.1/DTD/svg11.dtd">
<!-- Generated by graphviz version 2.44.1 (20200629.0846)
 -->
<!-- Title: VACM_s Pages: 1 -->
<!--zoomable 389 -->

<svg id="main" version="1.1" xmlns="http://www.w3.org/2000/svg" xmlns:xlink="http://www.w3.org/1999/xlink" xml:space="preserve" onload="init(evt)">

<style type="text/css"><![CDATA[
.node, .edge {opacity: 0.7;}
.node.selected, .edge.selected {opacity: 1;}
.edge:hover path { stroke: red; }
.edge:hover polygon { stroke: red; fill: red; }
]]></style>

<defs>
  <circle id="rim" cx="0" cy="0" r="7"/>
  <circle id="rim2" cx="0" cy="0" r="3.5"/>
  <g id="zoomPlus">
    <use xlink:href="#rim" fill="#404040"><set attributeName="fill" to="#808080" begin="zoomplus.mouseover" end="zoomplus.mouseout"/></use>
    <path d="M-4,0h8M0,-4v8" fill="none" stroke="white" stroke-width="1.5" pointer-events="none"/>
  </g>
  <g id="zoomMin">
    <use xlink:href="#rim" fill="#404040"><set attributeName="fill" to="#808080" begin="zoomminus.mouseover" end="zoomminus.mouseout"/></use>
    <path d="M-4,0h8" fill="none" stroke="white" stroke-width="1.5" pointer-events="none"/>
  </g>
  <g id="arrowUp" transform="translate(30 24)">
    <use xlink:href="#rim"/>
    <path pointer-events="none" fill="none" stroke="white" stroke-width="1.5" d="M0,-3.0v7 M-2.5,-0.5L0,-3.0L2.5,-0.5"/>
  </g>
  <g id="arrowRight" transform="rotate(90) translate(36 -43)">
    <use xlink:href="#rim"/>
    <path pointer-events="none" fill="none" stroke="white" stroke-width="1.5" d="M0,-3.0v7 M-2.5,-0.5L0,-3.0L2.5,-0.5"/>
  </g>
  <g id="arrowDown" transform="rotate(180) translate(-30 -48)">
    <use xlink:href="#rim"/>
    <path pointer-events="none" fill="none" stroke="white" stroke-width="1.5" d="M0,-3.0v7 M-2.5,-0.5L0,-3.0L2.5,-0.5"/>
  </g>
  <g id="arrowLeft" transform="rotate(270) translate(-36 17)">
    <use xlink:href="#rim"/>
    <path pointer-events="none" fill="none" stroke="white" stroke-width="1.5" d="M0,-3.0v7 M-2.5,-0.5L0,-3.0L2.5,-0.5"/>
  </g>
  <g id="resetDef">
    <use xlink:href="#rim2" fill="#404040"><set attributeName="fill" to="#808080" begin="reset.mouseover" end="reset.mouseout"/></use>
  </g>
</defs>
<script type="application/ecmascript">
var viewWidth = 582;
var viewHeight = 389;
var sectionId = 'dynsection-0';
</script>
<script type="application/ecmascript" xlink:href="svg.min.js"/>
<svg id="graph" class="graph">
<g id="viewport">
<title>VACM_s</title>
<!-- Node1 -->
<g id="Node000001" class="node">
<title>Node1</title>
<g id="a_Node000001"><a xlink:title="Main AC Monitor data object data type declaration.">
<polygon fill="#999999" stroke="transparent" points="292,-49 242,-49 242,0 292,0 292,-49"/>
<text text-anchor="start" x="247" y="-36.5" font-family="Helvetica,sans-Serif" font-size="10.00">VACM_s</text>
<text text-anchor="start" x="248" y="-21.5" font-family="Helvetica,sans-Serif" font-size="10.00">+</text>
<text text-anchor="start" x="261" y="-21.5" font-family="Helvetica,sans-Serif" font-size="10.00">state</text>
<text text-anchor="start" x="265" y="-6.5" font-family="Helvetica,sans-Serif" font-size="10.00"> </text>
<polygon fill="#666666" stroke="#666666" points="242,-31.5 242,-31.5 292,-31.5 292,-31.5 242,-31.5"/>
<polygon fill="#666666" stroke="#666666" points="242,-16.5 242,-16.5 259,-16.5 259,-16.5 242,-16.5"/>
<polygon fill="#666666" stroke="#666666" points="259,-16.5 259,-16.5 292,-16.5 292,-16.5 259,-16.5"/>
<polygon fill="none" stroke="#666666" points="242,0 242,-49 292,-49 292,0 242,0"/>
</a>
</g>
</g>
<!-- Node2 -->
<g id="Node000002" class="node">
<title>Node2</title>
<g id="a_Node000002"><a xlink:href="a00563.html" target="_top" xlink:title="ADD_SHORT_DESCRIPTION.">
<polygon fill="white" stroke="transparent" points="92,-295 0,-295 0,-96 92,-96 92,-295"/>
<text text-anchor="start" x="5" y="-282.5" font-family="Helvetica,sans-Serif" font-size="10.00">VACM_STATUS_s</text>
<text text-anchor="start" x="7.5" y="-267.5" font-family="Helvetica,sans-Serif" font-size="10.00">+</text>
<text text-anchor="start" x="22" y="-267.5" font-family="Helvetica,sans-Serif" font-size="10.00">ac_drop</text>
<text text-anchor="start" x="7.5" y="-252.5" font-family="Helvetica,sans-Serif" font-size="10.00">+</text>
<text text-anchor="start" x="22" y="-252.5" font-family="Helvetica,sans-Serif" font-size="10.00">dc_mode</text>
<text text-anchor="start" x="7.5" y="-237.5" font-family="Helvetica,sans-Serif" font-size="10.00">+</text>
<text text-anchor="start" x="22" y="-237.5" font-family="Helvetica,sans-Serif" font-size="10.00">ac_ok</text>
<text text-anchor="start" x="7.5" y="-222.5" font-family="Helvetica,sans-Serif" font-size="10.00">+</text>
<text text-anchor="start" x="22" y="-222.5" font-family="Helvetica,sans-Serif" font-size="10.00">zero_cross</text>
<text text-anchor="start" x="7.5" y="-207.5" font-family="Helvetica,sans-Serif" font-size="10.00">+</text>
<text text-anchor="start" x="22" y="-207.5" font-family="Helvetica,sans-Serif" font-size="10.00">polarity_pos</text>
<text text-anchor="start" x="7.5" y="-192.5" font-family="Helvetica,sans-Serif" font-size="10.00">+</text>
<text text-anchor="start" x="22" y="-192.5" font-family="Helvetica,sans-Serif" font-size="10.00">end_of_cycle</text>
<text text-anchor="start" x="7.5" y="-177.5" font-family="Helvetica,sans-Serif" font-size="10.00">+</text>
<text text-anchor="start" x="22" y="-177.5" font-family="Helvetica,sans-Serif" font-size="10.00">slope_pos</text>
<text text-anchor="start" x="7.5" y="-162.5" font-family="Helvetica,sans-Serif" font-size="10.00">+</text>
<text text-anchor="start" x="22" y="-162.5" font-family="Helvetica,sans-Serif" font-size="10.00">__pad0__</text>
<text text-anchor="start" x="7.5" y="-147.5" font-family="Helvetica,sans-Serif" font-size="10.00">+</text>
<text text-anchor="start" x="22" y="-147.5" font-family="Helvetica,sans-Serif" font-size="10.00">__pad1__</text>
<text text-anchor="start" x="7.5" y="-132.5" font-family="Helvetica,sans-Serif" font-size="10.00">+</text>
<text text-anchor="start" x="22" y="-132.5" font-family="Helvetica,sans-Serif" font-size="10.00">__pad2__</text>
<text text-anchor="start" x="22" y="-117.5" font-family="Helvetica,sans-Serif" font-size="10.00">and 9 more...</text>
<text text-anchor="start" x="44" y="-102.5" font-family="Helvetica,sans-Serif" font-size="10.00"> </text>
<polygon fill="#666666" stroke="#666666" points="0,-277.5 0,-277.5 92,-277.5 92,-277.5 0,-277.5"/>
<polygon fill="#666666" stroke="#666666" points="0,-112.5 0,-112.5 20,-112.5 20,-112.5 0,-112.5"/>
<polygon fill="#666666" stroke="#666666" points="20,-112.5 20,-112.5 92,-112.5 92,-112.5 20,-112.5"/>
<polygon fill="none" stroke="#666666" points="0,-96 0,-295 92,-295 92,-96 0,-96"/>
</a>
</g>
</g>
<!-- Node2&#45;&gt;Node1 -->
<g id="edge1_Node000001_Node000002" class="edge">
<title>Node2&#45;&gt;Node1</title>
<g id="a_edge1_Node000001_Node000002"><a xlink:title=" ">
<path fill="none" stroke="#63b8ff" d="M92.21,-104.83C95.01,-101.71 97.94,-98.75 101,-96 138.1,-62.69 193.27,-43.55 229.67,-33.83"/>
<polygon fill="none" stroke="#63b8ff" points="230.08,-33.73 234.91,-28.37 241.71,-30.78 236.88,-36.13 230.08,-33.73"/>
</a>
</g>
<text text-anchor="middle" x="160.5" y="-70" font-family="Helvetica,sans-Serif" font-size="10.00" fill="grey"> +status</text>
</g>
<!-- Node3 -->
<g id="Node000003" class="node">
<title>Node3</title>
<g id="a_Node000003"><a xlink:title=" ">
<polygon fill="white" stroke="transparent" points="243.5,-381 130.5,-381 130.5,-332 243.5,-332 243.5,-381"/>
<text text-anchor="start" x="136" y="-368.5" font-family="Helvetica,sans-Serif" font-size="10.00">PARENT_STRUCTURE</text>
<text text-anchor="start" x="185.5" y="-353.5" font-family="Helvetica,sans-Serif" font-size="10.00"> </text>
<text text-anchor="start" x="185.5" y="-338.5" font-family="Helvetica,sans-Serif" font-size="10.00"> </text>
<polygon fill="#666666" stroke="#666666" points="131,-363.5 131,-363.5 244,-363.5 244,-363.5 131,-363.5"/>
<polygon fill="#666666" stroke="#666666" points="131,-348.5 131,-348.5 244,-348.5 244,-348.5 131,-348.5"/>
<polygon fill="none" stroke="#666666" points="130.5,-332 130.5,-381 243.5,-381 243.5,-332 130.5,-332"/>
</a>
</g>
</g>
<!-- Node3&#45;&gt;Node2 -->
<g id="edge2_Node000002_Node000003" class="edge">
<title>Node3&#45;&gt;Node2</title>
<g id="a_edge2_Node000002_Node000003"><a xlink:title=" ">
<path fill="none" stroke="#63b8ff" d="M137.19,-326.11C124.45,-317.15 111.43,-306.57 101,-295 97.98,-291.65 95.07,-288.11 92.25,-284.44"/>
<polygon fill="none" stroke="#63b8ff" points="135.25,-329.02 145.49,-331.76 139.19,-323.24 135.25,-329.02"/>
</a>
</g>
</g>
<!-- Node4 -->
<g id="Node000004" class="node">
<title>Node4</title>
<g id="a_Node000004"><a xlink:href="a00575.html" target="_top" xlink:title="ADD_SHORT_DESCRIPTION.">
<polygon fill="white" stroke="transparent" points="195.5,-295 110.5,-295 110.5,-96 195.5,-96 195.5,-295"/>
<text text-anchor="start" x="116" y="-282.5" font-family="Helvetica,sans-Serif" font-size="10.00">VACM_FAULT_s</text>
<text text-anchor="start" x="117" y="-267.5" font-family="Helvetica,sans-Serif" font-size="10.00">+</text>
<text text-anchor="start" x="130" y="-267.5" font-family="Helvetica,sans-Serif" font-size="10.00">ov</text>
<text text-anchor="start" x="117" y="-252.5" font-family="Helvetica,sans-Serif" font-size="10.00">+</text>
<text text-anchor="start" x="130" y="-252.5" font-family="Helvetica,sans-Serif" font-size="10.00">uv</text>
<text text-anchor="start" x="117" y="-237.5" font-family="Helvetica,sans-Serif" font-size="10.00">+</text>
<text text-anchor="start" x="130" y="-237.5" font-family="Helvetica,sans-Serif" font-size="10.00">fmin</text>
<text text-anchor="start" x="117" y="-222.5" font-family="Helvetica,sans-Serif" font-size="10.00">+</text>
<text text-anchor="start" x="130" y="-222.5" font-family="Helvetica,sans-Serif" font-size="10.00">fmax</text>
<text text-anchor="start" x="117" y="-207.5" font-family="Helvetica,sans-Serif" font-size="10.00">+</text>
<text text-anchor="start" x="130" y="-207.5" font-family="Helvetica,sans-Serif" font-size="10.00">zc_timeout</text>
<text text-anchor="start" x="117" y="-192.5" font-family="Helvetica,sans-Serif" font-size="10.00">+</text>
<text text-anchor="start" x="130" y="-192.5" font-family="Helvetica,sans-Serif" font-size="10.00">__pad0__</text>
<text text-anchor="start" x="117" y="-177.5" font-family="Helvetica,sans-Serif" font-size="10.00">+</text>
<text text-anchor="start" x="130" y="-177.5" font-family="Helvetica,sans-Serif" font-size="10.00">__pad1__</text>
<text text-anchor="start" x="117" y="-162.5" font-family="Helvetica,sans-Serif" font-size="10.00">+</text>
<text text-anchor="start" x="130" y="-162.5" font-family="Helvetica,sans-Serif" font-size="10.00">__pad2__</text>
<text text-anchor="start" x="117" y="-147.5" font-family="Helvetica,sans-Serif" font-size="10.00">+</text>
<text text-anchor="start" x="130" y="-147.5" font-family="Helvetica,sans-Serif" font-size="10.00">__pad3__</text>
<text text-anchor="start" x="117" y="-132.5" font-family="Helvetica,sans-Serif" font-size="10.00">+</text>
<text text-anchor="start" x="130" y="-132.5" font-family="Helvetica,sans-Serif" font-size="10.00">__pad4__</text>
<text text-anchor="start" x="130" y="-117.5" font-family="Helvetica,sans-Serif" font-size="10.00">and 9 more...</text>
<text text-anchor="start" x="151.5" y="-102.5" font-family="Helvetica,sans-Serif" font-size="10.00"> </text>
<polygon fill="#666666" stroke="#666666" points="111,-277.5 111,-277.5 196,-277.5 196,-277.5 111,-277.5"/>
<polygon fill="#666666" stroke="#666666" points="111,-112.5 111,-112.5 128,-112.5 128,-112.5 111,-112.5"/>
<polygon fill="#666666" stroke="#666666" points="128,-112.5 128,-112.5 196,-112.5 196,-112.5 128,-112.5"/>
<polygon fill="none" stroke="#666666" points="110.5,-96 110.5,-295 195.5,-295 195.5,-96 110.5,-96"/>
</a>
</g>
</g>
<!-- Node3&#45;&gt;Node4 -->
<g id="edge4_Node000004_Node000003" class="edge">
<title>Node3&#45;&gt;Node4</title>
<g id="a_edge4_Node000004_Node000003"><a xlink:title=" ">
<path fill="none" stroke="#63b8ff" d="M179.77,-321.71C178.05,-313.67 176.13,-304.67 174.13,-295.3"/>
<polygon fill="none" stroke="#63b8ff" points="176.4,-322.65 181.91,-331.7 183.24,-321.19 176.4,-322.65"/>
</a>
</g>
</g>
<!-- Node5 -->
<g id="Node000005" class="node">
<title>Node5</title>
<g id="a_Node000005"><a xlink:href="a00595.html" target="_top" xlink:title="ADD_SHORT_DESCRIPTION.">
<polygon fill="white" stroke="transparent" points="320,-272.5 214,-272.5 214,-118.5 320,-118.5 320,-272.5"/>
<text text-anchor="start" x="220" y="-260.5" font-family="Helvetica,sans-Serif" font-size="10.00">VACM_TIMEBASE_s</text>
<text text-anchor="start" x="218" y="-245.5" font-family="Helvetica,sans-Serif" font-size="10.00">+</text>
<text text-anchor="start" x="229" y="-245.5" font-family="Helvetica,sans-Serif" font-size="10.00">half_cycle</text>
<text text-anchor="start" x="218" y="-230.5" font-family="Helvetica,sans-Serif" font-size="10.00">+</text>
<text text-anchor="start" x="229" y="-230.5" font-family="Helvetica,sans-Serif" font-size="10.00">half_cycle_timer</text>
<text text-anchor="start" x="218" y="-215.5" font-family="Helvetica,sans-Serif" font-size="10.00">+</text>
<text text-anchor="start" x="229" y="-215.5" font-family="Helvetica,sans-Serif" font-size="10.00">startup_counter</text>
<text text-anchor="start" x="218" y="-200.5" font-family="Helvetica,sans-Serif" font-size="10.00">+</text>
<text text-anchor="start" x="229" y="-200.5" font-family="Helvetica,sans-Serif" font-size="10.00">zero_cross_timer</text>
<text text-anchor="start" x="218" y="-185.5" font-family="Helvetica,sans-Serif" font-size="10.00">+</text>
<text text-anchor="start" x="229" y="-185.5" font-family="Helvetica,sans-Serif" font-size="10.00">ac_drop_timer</text>
<text text-anchor="start" x="218" y="-170.5" font-family="Helvetica,sans-Serif" font-size="10.00">+</text>
<text text-anchor="start" x="229" y="-170.5" font-family="Helvetica,sans-Serif" font-size="10.00">vin_present_counter</text>
<text text-anchor="start" x="218" y="-155.5" font-family="Helvetica,sans-Serif" font-size="10.00">+</text>
<text text-anchor="start" x="229" y="-155.5" font-family="Helvetica,sans-Serif" font-size="10.00">dc_present_counter</text>
<text text-anchor="start" x="218" y="-140.5" font-family="Helvetica,sans-Serif" font-size="10.00">+</text>
<text text-anchor="start" x="229" y="-140.5" font-family="Helvetica,sans-Serif" font-size="10.00">dc_loss_counter</text>
<text text-anchor="start" x="265" y="-125.5" font-family="Helvetica,sans-Serif" font-size="10.00"> </text>
<polygon fill="#666666" stroke="#666666" points="214,-255.5 214,-255.5 320,-255.5 320,-255.5 214,-255.5"/>
<polygon fill="#666666" stroke="#666666" points="214,-135.5 214,-135.5 227,-135.5 227,-135.5 214,-135.5"/>
<polygon fill="#666666" stroke="#666666" points="227,-135.5 227,-135.5 320,-135.5 320,-135.5 227,-135.5"/>
<polygon fill="none" stroke="#666666" points="214,-118.5 214,-272.5 320,-272.5 320,-118.5 214,-118.5"/>
</a>
</g>
</g>
<!-- Node3&#45;&gt;Node5 -->
<g id="edge6_Node000005_Node000003" class="edge">
<title>Node3&#45;&gt;Node5</title>
<g id="a_edge6_Node000005_Node000003"><a xlink:title=" ">
<path fill="none" stroke="#63b8ff" d="M203.55,-322.61C210.89,-308.02 219.86,-290.19 228.72,-272.59"/>
<polygon fill="none" stroke="#63b8ff" points="200.34,-321.19 198.98,-331.7 206.6,-324.34 200.34,-321.19"/>
</a>
</g>
</g>
<!-- Node6 -->
<g id="Node000006" class="node">
<title>Node6</title>
<g id="a_Node000006"><a xlink:href="a00587.html" target="_top" xlink:title="ADD_SHORT_DESCRIPTION.">
<polygon fill="white" stroke="transparent" points="409.5,-280 338.5,-280 338.5,-111 409.5,-111 409.5,-280"/>
<text text-anchor="start" x="344" y="-267.5" font-family="Helvetica,sans-Serif" font-size="10.00">VACM_VIN_s</text>
<text text-anchor="start" x="344.5" y="-252.5" font-family="Helvetica,sans-Serif" font-size="10.00">+</text>
<text text-anchor="start" x="357" y="-252.5" font-family="Helvetica,sans-Serif" font-size="10.00">ptr_adcbuf</text>
<text text-anchor="start" x="344.5" y="-237.5" font-family="Helvetica,sans-Serif" font-size="10.00">+</text>
<text text-anchor="start" x="357" y="-237.5" font-family="Helvetica,sans-Serif" font-size="10.00">raw</text>
<text text-anchor="start" x="344.5" y="-222.5" font-family="Helvetica,sans-Serif" font-size="10.00">+</text>
<text text-anchor="start" x="357" y="-222.5" font-family="Helvetica,sans-Serif" font-size="10.00">raw_prev</text>
<text text-anchor="start" x="344.5" y="-207.5" font-family="Helvetica,sans-Serif" font-size="10.00">+</text>
<text text-anchor="start" x="357" y="-207.5" font-family="Helvetica,sans-Serif" font-size="10.00">rectified</text>
<text text-anchor="start" x="344.5" y="-192.5" font-family="Helvetica,sans-Serif" font-size="10.00">+</text>
<text text-anchor="start" x="357" y="-192.5" font-family="Helvetica,sans-Serif" font-size="10.00">ptr_offset</text>
<text text-anchor="start" x="344.5" y="-177.5" font-family="Helvetica,sans-Serif" font-size="10.00">+</text>
<text text-anchor="start" x="357" y="-177.5" font-family="Helvetica,sans-Serif" font-size="10.00">avg</text>
<text text-anchor="start" x="344.5" y="-162.5" font-family="Helvetica,sans-Serif" font-size="10.00">+</text>
<text text-anchor="start" x="357" y="-162.5" font-family="Helvetica,sans-Serif" font-size="10.00">avg_prev</text>
<text text-anchor="start" x="344.5" y="-147.5" font-family="Helvetica,sans-Serif" font-size="10.00">+</text>
<text text-anchor="start" x="357" y="-147.5" font-family="Helvetica,sans-Serif" font-size="10.00">avg_sqrd</text>
<text text-anchor="start" x="344.5" y="-132.5" font-family="Helvetica,sans-Serif" font-size="10.00">+</text>
<text text-anchor="start" x="357" y="-132.5" font-family="Helvetica,sans-Serif" font-size="10.00">vloop_ff</text>
<text text-anchor="start" x="372.5" y="-117.5" font-family="Helvetica,sans-Serif" font-size="10.00"> </text>
<polygon fill="#666666" stroke="#666666" points="339,-262.5 339,-262.5 410,-262.5 410,-262.5 339,-262.5"/>
<polygon fill="#666666" stroke="#666666" points="339,-127.5 339,-127.5 355,-127.5 355,-127.5 339,-127.5"/>
<polygon fill="#666666" stroke="#666666" points="355,-127.5 355,-127.5 410,-127.5 410,-127.5 355,-127.5"/>
<polygon fill="none" stroke="#666666" points="338.5,-111 338.5,-280 409.5,-280 409.5,-111 338.5,-111"/>
</a>
</g>
</g>
<!-- Node3&#45;&gt;Node6 -->
<g id="edge8_Node000006_Node000003" class="edge">
<title>Node3&#45;&gt;Node6</title>
<g id="a_edge8_Node000006_Node000003"><a xlink:title=" ">
<path fill="none" stroke="#63b8ff" d="M253.25,-338.64C279.42,-329.29 308.15,-315.32 329,-295 333.58,-290.54 337.73,-285.52 341.5,-280.18"/>
<polygon fill="none" stroke="#63b8ff" points="252.08,-335.34 243.74,-341.88 254.34,-341.97 252.08,-335.34"/>
</a>
</g>
</g>
<!-- Node4&#45;&gt;Node1 -->
<g id="edge3_Node000001_Node000004" class="edge">
<title>Node4&#45;&gt;Node1</title>
<g id="a_edge3_Node000001_Node000004"><a xlink:title=" ">
<path fill="none" stroke="#63b8ff" d="M195.64,-110.4C198.69,-105.45 201.82,-100.62 205,-96 213.96,-83 225.02,-69.74 235.3,-58.29"/>
<polygon fill="none" stroke="#63b8ff" points="235.59,-57.97 236.69,-50.85 243.7,-49.13 242.59,-56.25 235.59,-57.97"/>
</a>
</g>
<text text-anchor="middle" x="242" y="-70" font-family="Helvetica,sans-Serif" font-size="10.00" fill="grey"> +fault</text>
</g>
<!-- Node5&#45;&gt;Node1 -->
<g id="edge5_Node000001_Node000005" class="edge">
<title>Node5&#45;&gt;Node1</title>
<g id="a_edge5_Node000001_Node000005"><a xlink:title=" ">
<path fill="none" stroke="#63b8ff" d="M267,-118.4C267,-98.63 267,-78.24 267,-61.62"/>
<polygon fill="none" stroke="#63b8ff" points="267,-61.18 263,-55.18 267,-49.18 271,-55.18 267,-61.18"/>
</a>
</g>
<text text-anchor="middle" x="291.5" y="-70" font-family="Helvetica,sans-Serif" font-size="10.00" fill="grey"> +timebase</text>
</g>
<!-- Node6&#45;&gt;Node1 -->
<g id="edge7_Node000001_Node000006" class="edge">
<title>Node6&#45;&gt;Node1</title>
<g id="a_edge7_Node000001_Node000006"><a xlink:title=" ">
<path fill="none" stroke="#63b8ff" d="M345.8,-110.87C338.66,-95.5 330.09,-80.17 320,-67 314.89,-60.33 308.47,-54.13 301.88,-48.67"/>
<polygon fill="none" stroke="#63b8ff" points="301.73,-48.56 294.54,-48.05 292.24,-41.22 299.43,-41.72 301.73,-48.56"/>
</a>
</g>
<text text-anchor="middle" x="336.5" y="-70" font-family="Helvetica,sans-Serif" font-size="10.00" fill="grey"> +vin</text>
</g>
<!-- Node7 -->
<g id="Node000007" class="node">
<title>Node7</title>
<g id="a_Node000007"><a xlink:href="a00591.html" target="_top" xlink:title=" ">
<polygon fill="white" stroke="transparent" points="574,-235 428,-235 428,-156 574,-156 574,-235"/>
<text text-anchor="start" x="433" y="-222.5" font-family="Helvetica,sans-Serif" font-size="10.00">VACM_AVGCALC_BUFFER_s</text>
<text text-anchor="start" x="448.5" y="-207.5" font-family="Helvetica,sans-Serif" font-size="10.00">+</text>
<text text-anchor="start" x="476" y="-207.5" font-family="Helvetica,sans-Serif" font-size="10.00">counter</text>
<text text-anchor="start" x="448.5" y="-192.5" font-family="Helvetica,sans-Serif" font-size="10.00">+</text>
<text text-anchor="start" x="476" y="-192.5" font-family="Helvetica,sans-Serif" font-size="10.00">counter_reset</text>
<text text-anchor="start" x="448.5" y="-177.5" font-family="Helvetica,sans-Serif" font-size="10.00">+</text>
<text text-anchor="start" x="476" y="-177.5" font-family="Helvetica,sans-Serif" font-size="10.00">acc</text>
<text text-anchor="start" x="499" y="-162.5" font-family="Helvetica,sans-Serif" font-size="10.00"> </text>
<polygon fill="#666666" stroke="#666666" points="428,-217.5 428,-217.5 574,-217.5 574,-217.5 428,-217.5"/>
<polygon fill="#666666" stroke="#666666" points="428,-172.5 428,-172.5 474,-172.5 474,-172.5 428,-172.5"/>
<polygon fill="#666666" stroke="#666666" points="474,-172.5 474,-172.5 574,-172.5 574,-172.5 474,-172.5"/>
<polygon fill="none" stroke="#666666" points="428,-156 428,-235 574,-235 574,-156 428,-156"/>
</a>
</g>
</g>
<!-- Node7&#45;&gt;Node1 -->
<g id="edge9_Node000001_Node000007" class="edge">
<title>Node7&#45;&gt;Node1</title>
<g id="a_edge9_Node000001_Node000007"><a xlink:title=" ">
<path fill="none" stroke="#63b8ff" d="M475.17,-155.87C460.47,-136.07 440.7,-112.68 419,-96 383.73,-68.88 336.34,-49 303.91,-37.39"/>
<polygon fill="none" stroke="#63b8ff" points="303.6,-37.28 296.62,-39.09 292.27,-33.35 299.25,-31.54 303.6,-37.28"/>
</a>
</g>
<text text-anchor="middle" x="423" y="-70" font-family="Helvetica,sans-Serif" font-size="10.00" fill="grey"> +avgcalc_buffer</text>
</g>
</g>
</svg>

<g id="navigator" transform="translate(0 0)" fill="#404254">
  <rect fill="#f2f5e9" fill-opacity="0.5" stroke="#606060" stroke-width=".5" x="0" y="0" width="60" height="60"/>
  <use id="zoomplus" xlink:href="#zoomPlus" x="17" y="9" onmousedown="handleZoom(evt,'in')"/>
  <use id="zoomminus" xlink:href="#zoomMin" x="42" y="9" onmousedown="handleZoom(evt,'out')"/>
  <use id="reset" xlink:href="#resetDef" x="30" y="36" onmousedown="handleReset()"/>
   <use id="arrowup" xlink:href="#arrowUp" x="0" y="0" onmousedown="handlePan(0,-1)"/>
  <use id="arrowright" xlink:href="#arrowRight" x="0" y="0" onmousedown="handlePan(1,0)"/>
  <use id="arrowdown" xlink:href="#arrowDown" x="0" y="0" onmousedown="handlePan(0,1)"/>
  <use id="arrowleft" xlink:href="#arrowLeft" x="0" y="0" onmousedown="handlePan(-1,0)"/>
</g>
<svg viewBox="0 0 15 15" width="100%" height="30px" preserveAspectRatio="xMaxYMin meet">
 <g id="arrow_out" transform="scale(0.3 0.3)">
  <a xlink:href="a00597_org.svg" target="_base">
   <rect id="button" ry="5" rx="5" y="6" x="6" height="38" width="38"
        fill="#f2f5e9" fill-opacity="0.5" stroke="#606060" stroke-width="1.0"/>
   <path id="arrow"
     d="M 11.500037,31.436501 C 11.940474,20.09759 22.043105,11.32322 32.158766,21.979434 L 37.068811,17.246167 C 37.068811,17.246167 37.088388,32 37.088388,32 L 22.160133,31.978069 C 22.160133,31.978069 26.997745,27.140456 26.997745,27.140456 C 18.528582,18.264221 13.291696,25.230495 11.500037,31.436501 z"
     style="fill:#404040;"/>
  </a>
 </g>
</svg>

<style type='text/css'>
<![CDATA[
[data-mouse-over-selected='false'] { opacity: 0.7; }
[data-mouse-over-selected='true']  { opacity: 1.0; }
]]>
</style>
<script type="application/ecmascript"><![CDATA[
document.addEventListener('DOMContentLoaded', (event) => {
  highlightEdges();
  highlightAdjacentNodes();
});
]]></script>
</svg>
