<?xml version="1.0" encoding="UTF-8" standalone="no"?>
<!DOCTYPE svg PUBLIC "-//W3C//DTD SVG 1.1//EN"
 "http://www.w3.org/Graphics/SVG/1.1/DTD/svg11.dtd">
<!-- Generated by graphviz version 2.44.1 (20200629.0846)
 -->
<!-- Title: I2C_s Pages: 1 -->
<!--zoomable 500 -->

<svg id="main" version="1.1" xmlns="http://www.w3.org/2000/svg" xmlns:xlink="http://www.w3.org/1999/xlink" xml:space="preserve" onload="init(evt)">

<style type="text/css"><![CDATA[
.node, .edge {opacity: 0.7;}
.node.selected, .edge.selected {opacity: 1;}
.edge:hover path { stroke: red; }
.edge:hover polygon { stroke: red; fill: red; }
]]></style>

<defs>
  <circle id="rim" cx="0" cy="0" r="7"/>
  <circle id="rim2" cx="0" cy="0" r="3.5"/>
  <g id="zoomPlus">
    <use xlink:href="#rim" fill="#404040"><set attributeName="fill" to="#808080" begin="zoomplus.mouseover" end="zoomplus.mouseout"/></use>
    <path d="M-4,0h8M0,-4v8" fill="none" stroke="white" stroke-width="1.5" pointer-events="none"/>
  </g>
  <g id="zoomMin">
    <use xlink:href="#rim" fill="#404040"><set attributeName="fill" to="#808080" begin="zoomminus.mouseover" end="zoomminus.mouseout"/></use>
    <path d="M-4,0h8" fill="none" stroke="white" stroke-width="1.5" pointer-events="none"/>
  </g>
  <g id="arrowUp" transform="translate(30 24)">
    <use xlink:href="#rim"/>
    <path pointer-events="none" fill="none" stroke="white" stroke-width="1.5" d="M0,-3.0v7 M-2.5,-0.5L0,-3.0L2.5,-0.5"/>
  </g>
  <g id="arrowRight" transform="rotate(90) translate(36 -43)">
    <use xlink:href="#rim"/>
    <path pointer-events="none" fill="none" stroke="white" stroke-width="1.5" d="M0,-3.0v7 M-2.5,-0.5L0,-3.0L2.5,-0.5"/>
  </g>
  <g id="arrowDown" transform="rotate(180) translate(-30 -48)">
    <use xlink:href="#rim"/>
    <path pointer-events="none" fill="none" stroke="white" stroke-width="1.5" d="M0,-3.0v7 M-2.5,-0.5L0,-3.0L2.5,-0.5"/>
  </g>
  <g id="arrowLeft" transform="rotate(270) translate(-36 17)">
    <use xlink:href="#rim"/>
    <path pointer-events="none" fill="none" stroke="white" stroke-width="1.5" d="M0,-3.0v7 M-2.5,-0.5L0,-3.0L2.5,-0.5"/>
  </g>
  <g id="resetDef">
    <use xlink:href="#rim2" fill="#404040"><set attributeName="fill" to="#808080" begin="reset.mouseover" end="reset.mouseout"/></use>
  </g>
</defs>
<script type="application/ecmascript">
var viewWidth = 267;
var viewHeight = 500;
var sectionId = 'dynsection-0';
</script>
<script type="application/ecmascript" xlink:href="svg.min.js"/>
<svg id="graph" class="graph">
<g id="viewport">
<title>I2C_s</title>
<!-- Node1 -->
<g id="Node000001" class="node">
<title>Node1</title>
<g id="a_Node000001"><a xlink:title=" ">
<polygon fill="#999999" stroke="transparent" points="113.5,-64 24.5,-64 24.5,0 113.5,0 113.5,-64"/>
<text text-anchor="start" x="57" y="-52" font-family="Helvetica,sans-Serif" font-size="10.00">I2C_s</text>
<text text-anchor="start" x="29" y="-37" font-family="Helvetica,sans-Serif" font-size="10.00">+</text>
<text text-anchor="start" x="40" y="-37" font-family="Helvetica,sans-Serif" font-size="10.00">crc</text>
<text text-anchor="start" x="29" y="-22" font-family="Helvetica,sans-Serif" font-size="10.00">+</text>
<text text-anchor="start" x="40" y="-22" font-family="Helvetica,sans-Serif" font-size="10.00">timeout_counter</text>
<text text-anchor="start" x="67.5" y="-7" font-family="Helvetica,sans-Serif" font-size="10.00"> </text>
<polygon fill="#666666" stroke="#666666" points="25,-47 25,-47 114,-47 114,-47 25,-47"/>
<polygon fill="#666666" stroke="#666666" points="25,-17 25,-17 38,-17 38,-17 25,-17"/>
<polygon fill="#666666" stroke="#666666" points="38,-17 38,-17 114,-17 114,-17 38,-17"/>
<polygon fill="none" stroke="#666666" points="24.5,0 24.5,-64 113.5,-64 113.5,0 24.5,0"/>
</a>
</g>
</g>
<!-- Node2 -->
<g id="Node000002" class="node">
<title>Node2</title>
<g id="a_Node000002"><a xlink:href="a00507.html" target="_top" xlink:title=" ">
<polygon fill="white" stroke="transparent" points="78,-285.5 0,-285.5 0,-131.5 78,-131.5 78,-285.5"/>
<text text-anchor="start" x="5" y="-273.5" font-family="Helvetica,sans-Serif" font-size="10.00">I2C_STATUS_s</text>
<text text-anchor="start" x="8.5" y="-258.5" font-family="Helvetica,sans-Serif" font-size="10.00">+</text>
<text text-anchor="start" x="24" y="-258.5" font-family="Helvetica,sans-Serif" font-size="10.00">cmd_ok</text>
<text text-anchor="start" x="8.5" y="-243.5" font-family="Helvetica,sans-Serif" font-size="10.00">+</text>
<text text-anchor="start" x="24" y="-243.5" font-family="Helvetica,sans-Serif" font-size="10.00">pec_ok</text>
<text text-anchor="start" x="8.5" y="-228.5" font-family="Helvetica,sans-Serif" font-size="10.00">+</text>
<text text-anchor="start" x="24" y="-228.5" font-family="Helvetica,sans-Serif" font-size="10.00">done</text>
<text text-anchor="start" x="8.5" y="-213.5" font-family="Helvetica,sans-Serif" font-size="10.00">+</text>
<text text-anchor="start" x="24" y="-213.5" font-family="Helvetica,sans-Serif" font-size="10.00">timeout</text>
<text text-anchor="start" x="8.5" y="-198.5" font-family="Helvetica,sans-Serif" font-size="10.00">+</text>
<text text-anchor="start" x="24" y="-198.5" font-family="Helvetica,sans-Serif" font-size="10.00">unsigned</text>
<text text-anchor="start" x="8.5" y="-183.5" font-family="Helvetica,sans-Serif" font-size="10.00">+</text>
<text text-anchor="start" x="24" y="-183.5" font-family="Helvetica,sans-Serif" font-size="10.00">bits</text>
<text text-anchor="start" x="8.5" y="-168.5" font-family="Helvetica,sans-Serif" font-size="10.00">+</text>
<text text-anchor="start" x="24" y="-168.5" font-family="Helvetica,sans-Serif" font-size="10.00">value</text>
<text text-anchor="start" x="8.5" y="-153.5" font-family="Helvetica,sans-Serif" font-size="10.00">+</text>
<text text-anchor="start" x="24" y="-153.5" font-family="Helvetica,sans-Serif" font-size="10.00">@4</text>
<text text-anchor="start" x="37" y="-138.5" font-family="Helvetica,sans-Serif" font-size="10.00"> </text>
<polygon fill="#666666" stroke="#666666" points="0,-268.5 0,-268.5 78,-268.5 78,-268.5 0,-268.5"/>
<polygon fill="#666666" stroke="#666666" points="0,-148.5 0,-148.5 22,-148.5 22,-148.5 0,-148.5"/>
<polygon fill="#666666" stroke="#666666" points="22,-148.5 22,-148.5 78,-148.5 78,-148.5 22,-148.5"/>
<polygon fill="none" stroke="#666666" points="0,-131.5 0,-285.5 78,-285.5 78,-131.5 0,-131.5"/>
</a>
</g>
</g>
<!-- Node2&#45;&gt;Node1 -->
<g id="edge1_Node000001_Node000002" class="edge">
<title>Node2&#45;&gt;Node1</title>
<g id="a_edge1_Node000001_Node000002"><a xlink:title=" ">
<path fill="none" stroke="#63b8ff" d="M52.07,-131.47C55.32,-112.59 58.69,-92.99 61.56,-76.3"/>
<polygon fill="none" stroke="#63b8ff" points="61.61,-75.99 58.68,-69.4 63.64,-64.16 66.57,-70.75 61.61,-75.99"/>
</a>
</g>
<text text-anchor="middle" x="79.5" y="-85" font-family="Helvetica,sans-Serif" font-size="10.00" fill="grey"> +status</text>
</g>
<!-- Node3 -->
<g id="Node000003" class="node">
<title>Node3</title>
<g id="a_Node000003"><a xlink:href="a00543.html" target="_top" xlink:title=" ">
<polygon fill="white" stroke="transparent" points="209.5,-306 96.5,-306 96.5,-111 209.5,-111 209.5,-306"/>
<text text-anchor="start" x="102" y="-293.5" font-family="Helvetica,sans-Serif" font-size="10.00">SIC_CLIENT_RECEIVE</text>
<text text-anchor="start" x="128" y="-282.5" font-family="Helvetica,sans-Serif" font-size="10.00">_FRAME_s</text>
<text text-anchor="start" x="110.5" y="-267.5" font-family="Helvetica,sans-Serif" font-size="10.00">+</text>
<text text-anchor="start" x="131" y="-267.5" font-family="Helvetica,sans-Serif" font-size="10.00">command_id</text>
<text text-anchor="start" x="110.5" y="-252.5" font-family="Helvetica,sans-Serif" font-size="10.00">+</text>
<text text-anchor="start" x="131" y="-252.5" font-family="Helvetica,sans-Serif" font-size="10.00">temp_sic1</text>
<text text-anchor="start" x="110.5" y="-237.5" font-family="Helvetica,sans-Serif" font-size="10.00">+</text>
<text text-anchor="start" x="131" y="-237.5" font-family="Helvetica,sans-Serif" font-size="10.00">temp_sic2</text>
<text text-anchor="start" x="110.5" y="-222.5" font-family="Helvetica,sans-Serif" font-size="10.00">+</text>
<text text-anchor="start" x="131" y="-222.5" font-family="Helvetica,sans-Serif" font-size="10.00">temp_sic3</text>
<text text-anchor="start" x="110.5" y="-207.5" font-family="Helvetica,sans-Serif" font-size="10.00">+</text>
<text text-anchor="start" x="131" y="-207.5" font-family="Helvetica,sans-Serif" font-size="10.00">temp_sic4</text>
<text text-anchor="start" x="110.5" y="-192.5" font-family="Helvetica,sans-Serif" font-size="10.00">+</text>
<text text-anchor="start" x="131" y="-192.5" font-family="Helvetica,sans-Serif" font-size="10.00">fan_duty</text>
<text text-anchor="start" x="110.5" y="-177.5" font-family="Helvetica,sans-Serif" font-size="10.00">+</text>
<text text-anchor="start" x="131" y="-177.5" font-family="Helvetica,sans-Serif" font-size="10.00">crc_rx</text>
<text text-anchor="start" x="110.5" y="-162.5" font-family="Helvetica,sans-Serif" font-size="10.00">+</text>
<text text-anchor="start" x="131" y="-162.5" font-family="Helvetica,sans-Serif" font-size="10.00">bytes</text>
<text text-anchor="start" x="110.5" y="-147.5" font-family="Helvetica,sans-Serif" font-size="10.00">+</text>
<text text-anchor="start" x="131" y="-147.5" font-family="Helvetica,sans-Serif" font-size="10.00">array</text>
<text text-anchor="start" x="110.5" y="-132.5" font-family="Helvetica,sans-Serif" font-size="10.00">+</text>
<text text-anchor="start" x="131" y="-132.5" font-family="Helvetica,sans-Serif" font-size="10.00">@13</text>
<text text-anchor="start" x="151.5" y="-117.5" font-family="Helvetica,sans-Serif" font-size="10.00"> </text>
<polygon fill="#666666" stroke="#666666" points="97,-277.5 97,-277.5 210,-277.5 210,-277.5 97,-277.5"/>
<polygon fill="#666666" stroke="#666666" points="97,-127.5 97,-127.5 129,-127.5 129,-127.5 97,-127.5"/>
<polygon fill="#666666" stroke="#666666" points="129,-127.5 129,-127.5 210,-127.5 210,-127.5 129,-127.5"/>
<polygon fill="none" stroke="#666666" points="96.5,-111 96.5,-306 209.5,-306 209.5,-111 96.5,-111"/>
</a>
</g>
</g>
<!-- Node3&#45;&gt;Node1 -->
<g id="edge2_Node000001_Node000003" class="edge">
<title>Node3&#45;&gt;Node1</title>
<g id="a_edge2_Node000001_Node000003"><a xlink:title=" ">
<path fill="none" stroke="#63b8ff" d="M116.16,-110.97C111.67,-101.06 106.92,-91.24 102,-82 100.66,-79.48 99.22,-76.93 97.72,-74.38"/>
<polygon fill="none" stroke="#63b8ff" points="97.62,-74.23 91.06,-71.24 91.29,-64.04 97.86,-67.02 97.62,-74.23"/>
</a>
</g>
<text text-anchor="middle" x="125" y="-85" font-family="Helvetica,sans-Serif" font-size="10.00" fill="grey"> +frame</text>
</g>
<!-- Node4 -->
<g id="Node000004" class="node">
<title>Node4</title>
<g id="a_Node000004"><a xlink:href="a00519.html" target="_top" xlink:title=" ">
<polygon fill="white" stroke="transparent" points="139,-492 65,-492 65,-353 139,-353 139,-492"/>
<text text-anchor="start" x="70" y="-479.5" font-family="Helvetica,sans-Serif" font-size="10.00">SIC_FLAGS_s</text>
<text text-anchor="start" x="77" y="-464.5" font-family="Helvetica,sans-Serif" font-size="10.00">+</text>
<text text-anchor="start" x="96" y="-464.5" font-family="Helvetica,sans-Serif" font-size="10.00">sic1</text>
<text text-anchor="start" x="77" y="-449.5" font-family="Helvetica,sans-Serif" font-size="10.00">+</text>
<text text-anchor="start" x="96" y="-449.5" font-family="Helvetica,sans-Serif" font-size="10.00">sic2</text>
<text text-anchor="start" x="77" y="-434.5" font-family="Helvetica,sans-Serif" font-size="10.00">+</text>
<text text-anchor="start" x="96" y="-434.5" font-family="Helvetica,sans-Serif" font-size="10.00">sic3</text>
<text text-anchor="start" x="77" y="-419.5" font-family="Helvetica,sans-Serif" font-size="10.00">+</text>
<text text-anchor="start" x="96" y="-419.5" font-family="Helvetica,sans-Serif" font-size="10.00">sic4</text>
<text text-anchor="start" x="77" y="-404.5" font-family="Helvetica,sans-Serif" font-size="10.00">+</text>
<text text-anchor="start" x="96" y="-404.5" font-family="Helvetica,sans-Serif" font-size="10.00">bits</text>
<text text-anchor="start" x="77" y="-389.5" font-family="Helvetica,sans-Serif" font-size="10.00">+</text>
<text text-anchor="start" x="96" y="-389.5" font-family="Helvetica,sans-Serif" font-size="10.00">value</text>
<text text-anchor="start" x="77" y="-374.5" font-family="Helvetica,sans-Serif" font-size="10.00">+</text>
<text text-anchor="start" x="96" y="-374.5" font-family="Helvetica,sans-Serif" font-size="10.00">@7</text>
<text text-anchor="start" x="100" y="-359.5" font-family="Helvetica,sans-Serif" font-size="10.00"> </text>
<polygon fill="#666666" stroke="#666666" points="65,-474.5 65,-474.5 139,-474.5 139,-474.5 65,-474.5"/>
<polygon fill="#666666" stroke="#666666" points="65,-369.5 65,-369.5 94,-369.5 94,-369.5 65,-369.5"/>
<polygon fill="#666666" stroke="#666666" points="94,-369.5 94,-369.5 139,-369.5 139,-369.5 94,-369.5"/>
<polygon fill="none" stroke="#666666" points="65,-353 65,-492 139,-492 139,-353 65,-353"/>
</a>
</g>
</g>
<!-- Node4&#45;&gt;Node3 -->
<g id="edge3_Node000003_Node000004" class="edge">
<title>Node4&#45;&gt;Node3</title>
<g id="a_edge3_Node000003_Node000004"><a xlink:title=" ">
<path fill="none" stroke="#63b8ff" d="M99.24,-352.93C99.85,-343.15 101.01,-333.27 103,-324 103.44,-321.96 103.91,-319.91 104.42,-317.85"/>
<polygon fill="none" stroke="#63b8ff" points="104.49,-317.62 102.23,-310.77 107.69,-306.06 109.94,-312.91 104.49,-317.62"/>
</a>
</g>
<text text-anchor="middle" x="143" y="-327" font-family="Helvetica,sans-Serif" font-size="10.00" fill="grey"> +sic_status_flags</text>
</g>
<!-- Node5 -->
<g id="Node000005" class="node">
<title>Node5</title>
<g id="a_Node000005"><a xlink:href="a00531.html" target="_top" xlink:title=" ">
<polygon fill="white" stroke="transparent" points="243.5,-492 166.5,-492 166.5,-353 243.5,-353 243.5,-492"/>
<text text-anchor="start" x="172" y="-479.5" font-family="Helvetica,sans-Serif" font-size="10.00">AUX_FLAGS_s</text>
<text text-anchor="start" x="178" y="-464.5" font-family="Helvetica,sans-Serif" font-size="10.00">+</text>
<text text-anchor="start" x="196" y="-464.5" font-family="Helvetica,sans-Serif" font-size="10.00">_5v</text>
<text text-anchor="start" x="178" y="-449.5" font-family="Helvetica,sans-Serif" font-size="10.00">+</text>
<text text-anchor="start" x="196" y="-449.5" font-family="Helvetica,sans-Serif" font-size="10.00">_12v</text>
<text text-anchor="start" x="178" y="-434.5" font-family="Helvetica,sans-Serif" font-size="10.00">+</text>
<text text-anchor="start" x="196" y="-434.5" font-family="Helvetica,sans-Serif" font-size="10.00">_24v</text>
<text text-anchor="start" x="178" y="-419.5" font-family="Helvetica,sans-Serif" font-size="10.00">+</text>
<text text-anchor="start" x="196" y="-419.5" font-family="Helvetica,sans-Serif" font-size="10.00">uint8_t</text>
<text text-anchor="start" x="178" y="-404.5" font-family="Helvetica,sans-Serif" font-size="10.00">+</text>
<text text-anchor="start" x="196" y="-404.5" font-family="Helvetica,sans-Serif" font-size="10.00">bits</text>
<text text-anchor="start" x="178" y="-389.5" font-family="Helvetica,sans-Serif" font-size="10.00">+</text>
<text text-anchor="start" x="196" y="-389.5" font-family="Helvetica,sans-Serif" font-size="10.00">value</text>
<text text-anchor="start" x="178" y="-374.5" font-family="Helvetica,sans-Serif" font-size="10.00">+</text>
<text text-anchor="start" x="196" y="-374.5" font-family="Helvetica,sans-Serif" font-size="10.00">@10</text>
<text text-anchor="start" x="203.5" y="-359.5" font-family="Helvetica,sans-Serif" font-size="10.00"> </text>
<polygon fill="#666666" stroke="#666666" points="167,-474.5 167,-474.5 244,-474.5 244,-474.5 167,-474.5"/>
<polygon fill="#666666" stroke="#666666" points="167,-369.5 167,-369.5 194,-369.5 194,-369.5 167,-369.5"/>
<polygon fill="#666666" stroke="#666666" points="194,-369.5 194,-369.5 244,-369.5 244,-369.5 194,-369.5"/>
<polygon fill="none" stroke="#666666" points="166.5,-353 166.5,-492 243.5,-492 243.5,-353 166.5,-353"/>
</a>
</g>
</g>
<!-- Node5&#45;&gt;Node3 -->
<g id="edge4_Node000003_Node000005" class="edge">
<title>Node5&#45;&gt;Node3</title>
<g id="a_edge4_Node000003_Node000005"><a xlink:title=" ">
<path fill="none" stroke="#63b8ff" d="M189.85,-352.98C187.61,-343.24 185.28,-333.36 183,-324 182.51,-322.01 182.02,-320 181.52,-317.98"/>
<polygon fill="none" stroke="#63b8ff" points="181.51,-317.91 176.17,-313.06 178.6,-306.27 183.94,-311.12 181.51,-317.91"/>
</a>
</g>
<text text-anchor="middle" x="222" y="-327" font-family="Helvetica,sans-Serif" font-size="10.00" fill="grey"> +aux_fault_flags</text>
</g>
</g>
</svg>

<g id="navigator" transform="translate(0 0)" fill="#404254">
  <rect fill="#f2f5e9" fill-opacity="0.5" stroke="#606060" stroke-width=".5" x="0" y="0" width="60" height="60"/>
  <use id="zoomplus" xlink:href="#zoomPlus" x="17" y="9" onmousedown="handleZoom(evt,'in')"/>
  <use id="zoomminus" xlink:href="#zoomMin" x="42" y="9" onmousedown="handleZoom(evt,'out')"/>
  <use id="reset" xlink:href="#resetDef" x="30" y="36" onmousedown="handleReset()"/>
   <use id="arrowup" xlink:href="#arrowUp" x="0" y="0" onmousedown="handlePan(0,-1)"/>
  <use id="arrowright" xlink:href="#arrowRight" x="0" y="0" onmousedown="handlePan(1,0)"/>
  <use id="arrowdown" xlink:href="#arrowDown" x="0" y="0" onmousedown="handlePan(0,1)"/>
  <use id="arrowleft" xlink:href="#arrowLeft" x="0" y="0" onmousedown="handlePan(-1,0)"/>
</g>
<svg viewBox="0 0 15 15" width="100%" height="30px" preserveAspectRatio="xMaxYMin meet">
 <g id="arrow_out" transform="scale(0.3 0.3)">
  <a xlink:href="a00553_org.svg" target="_base">
   <rect id="button" ry="5" rx="5" y="6" x="6" height="38" width="38"
        fill="#f2f5e9" fill-opacity="0.5" stroke="#606060" stroke-width="1.0"/>
   <path id="arrow"
     d="M 11.500037,31.436501 C 11.940474,20.09759 22.043105,11.32322 32.158766,21.979434 L 37.068811,17.246167 C 37.068811,17.246167 37.088388,32 37.088388,32 L 22.160133,31.978069 C 22.160133,31.978069 26.997745,27.140456 26.997745,27.140456 C 18.528582,18.264221 13.291696,25.230495 11.500037,31.436501 z"
     style="fill:#404040;"/>
  </a>
 </g>
</svg>

<style type='text/css'>
<![CDATA[
[data-mouse-over-selected='false'] { opacity: 0.7; }
[data-mouse-over-selected='true']  { opacity: 1.0; }
]]>
</style>
<script type="application/ecmascript"><![CDATA[
document.addEventListener('DOMContentLoaded', (event) => {
  highlightEdges();
  highlightAdjacentNodes();
});
]]></script>
</svg>
