<?xml version="1.0" encoding="UTF-8" standalone="no"?>
<!DOCTYPE svg PUBLIC "-//W3C//DTD SVG 1.1//EN"
 "http://www.w3.org/Graphics/SVG/1.1/DTD/svg11.dtd">
<!-- Generated by graphviz version 8.1.0 (20230707.0739)
 -->
<!-- Title: VACM_AVGCALC_BUFFER_s Pages: 1 -->
<svg width="153pt" height="92pt"
 viewBox="0.00 0.00 153.00 92.00" xmlns="http://www.w3.org/2000/svg" xmlns:xlink="http://www.w3.org/1999/xlink">
<g id="graph0" class="graph" transform="scale(1 1) rotate(0) translate(4 88)">
<title>VACM_AVGCALC_BUFFER_s</title>
<!-- Node1 -->
<g id="Node000001" class="node">
<title>Node1</title>
<g id="a_Node000001"><a xlink:title=" ">
<polygon fill="#999999" stroke="none" points="145,-84 0,-84 0,0 145,0 145,-84"/>
<text text-anchor="start" x="5" y="-70.5" font-family="Helvetica,sans-Serif" font-size="10.00">VACM_AVGCALC_BUFFER_s</text>
<text text-anchor="start" x="21" y="-54.5" font-family="Helvetica,sans-Serif" font-size="10.00">+</text>
<text text-anchor="start" x="48" y="-54.5" font-family="Helvetica,sans-Serif" font-size="10.00">counter</text>
<text text-anchor="start" x="21" y="-38.5" font-family="Helvetica,sans-Serif" font-size="10.00">+</text>
<text text-anchor="start" x="48" y="-38.5" font-family="Helvetica,sans-Serif" font-size="10.00">counter_reset</text>
<text text-anchor="start" x="21" y="-22.5" font-family="Helvetica,sans-Serif" font-size="10.00">+</text>
<text text-anchor="start" x="48" y="-22.5" font-family="Helvetica,sans-Serif" font-size="10.00">acc</text>
<text text-anchor="start" x="71" y="-6.5" font-family="Helvetica,sans-Serif" font-size="10.00"> </text>
<polygon fill="#666666" stroke="#666666" points="0,-66 0,-66 145,-66 145,-66 0,-66"/>
<polygon fill="#666666" stroke="#666666" points="0,-18 0,-18 46,-18 46,-18 0,-18"/>
<polygon fill="#666666" stroke="#666666" points="46,-18 46,-18 145,-18 145,-18 46,-18"/>
<polygon fill="none" stroke="#666666" points="0,0 0,-84 145,-84 145,0 0,0"/>
</a>
</g>
</g>
</g>
</svg>
