<?xml version="1.0" encoding="UTF-8" standalone="no"?>
<!DOCTYPE svg PUBLIC "-//W3C//DTD SVG 1.1//EN"
 "http://www.w3.org/Graphics/SVG/1.1/DTD/svg11.dtd">
<!-- Generated by graphviz version 2.44.1 (20200629.0846)
 -->
<!-- Title: SIC_CLIENT_RECEIVE_FRAME_s Pages: 1 -->
<svg width="202pt" height="389pt"
 viewBox="0.00 0.00 202.00 389.00" xmlns="http://www.w3.org/2000/svg" xmlns:xlink="http://www.w3.org/1999/xlink">

<svg id="main" version="1.1" xmlns="http://www.w3.org/2000/svg" xmlns:xlink="http://www.w3.org/1999/xlink" xml:space="preserve">

<style type="text/css"><![CDATA[
.node, .edge {opacity: 0.7;}
.node.selected, .edge.selected {opacity: 1;}
.edge:hover path { stroke: red; }
.edge:hover polygon { stroke: red; fill: red; }
]]></style>
<script type="application/ecmascript" xlink:href="svg.min.js"/>
<svg id="graph" class="graph">
<g id="graph0" class="graph" transform="scale(1 1) rotate(0) translate(4 385)">
<title>SIC_CLIENT_RECEIVE_FRAME_s</title>
<!-- Node1 -->
<g id="Node000001" class="node">
<title>Node1</title>
<g id="a_Node000001"><a xlink:title=" ">
<polygon fill="#999999" stroke="transparent" points="144.5,-195 31.5,-195 31.5,0 144.5,0 144.5,-195"/>
<text text-anchor="start" x="37" y="-182.5" font-family="Helvetica,sans-Serif" font-size="10.00">SIC_CLIENT_RECEIVE</text>
<text text-anchor="start" x="63" y="-171.5" font-family="Helvetica,sans-Serif" font-size="10.00">_FRAME_s</text>
<text text-anchor="start" x="45.5" y="-156.5" font-family="Helvetica,sans-Serif" font-size="10.00">+</text>
<text text-anchor="start" x="66" y="-156.5" font-family="Helvetica,sans-Serif" font-size="10.00">command_id</text>
<text text-anchor="start" x="45.5" y="-141.5" font-family="Helvetica,sans-Serif" font-size="10.00">+</text>
<text text-anchor="start" x="66" y="-141.5" font-family="Helvetica,sans-Serif" font-size="10.00">temp_sic1</text>
<text text-anchor="start" x="45.5" y="-126.5" font-family="Helvetica,sans-Serif" font-size="10.00">+</text>
<text text-anchor="start" x="66" y="-126.5" font-family="Helvetica,sans-Serif" font-size="10.00">temp_sic2</text>
<text text-anchor="start" x="45.5" y="-111.5" font-family="Helvetica,sans-Serif" font-size="10.00">+</text>
<text text-anchor="start" x="66" y="-111.5" font-family="Helvetica,sans-Serif" font-size="10.00">temp_sic3</text>
<text text-anchor="start" x="45.5" y="-96.5" font-family="Helvetica,sans-Serif" font-size="10.00">+</text>
<text text-anchor="start" x="66" y="-96.5" font-family="Helvetica,sans-Serif" font-size="10.00">temp_sic4</text>
<text text-anchor="start" x="45.5" y="-81.5" font-family="Helvetica,sans-Serif" font-size="10.00">+</text>
<text text-anchor="start" x="66" y="-81.5" font-family="Helvetica,sans-Serif" font-size="10.00">fan_duty</text>
<text text-anchor="start" x="45.5" y="-66.5" font-family="Helvetica,sans-Serif" font-size="10.00">+</text>
<text text-anchor="start" x="66" y="-66.5" font-family="Helvetica,sans-Serif" font-size="10.00">crc_rx</text>
<text text-anchor="start" x="45.5" y="-51.5" font-family="Helvetica,sans-Serif" font-size="10.00">+</text>
<text text-anchor="start" x="66" y="-51.5" font-family="Helvetica,sans-Serif" font-size="10.00">bytes</text>
<text text-anchor="start" x="45.5" y="-36.5" font-family="Helvetica,sans-Serif" font-size="10.00">+</text>
<text text-anchor="start" x="66" y="-36.5" font-family="Helvetica,sans-Serif" font-size="10.00">array</text>
<text text-anchor="start" x="45.5" y="-21.5" font-family="Helvetica,sans-Serif" font-size="10.00">+</text>
<text text-anchor="start" x="66" y="-21.5" font-family="Helvetica,sans-Serif" font-size="10.00">@13</text>
<text text-anchor="start" x="86.5" y="-6.5" font-family="Helvetica,sans-Serif" font-size="10.00"> </text>
<polygon fill="#666666" stroke="#666666" points="32,-166.5 32,-166.5 145,-166.5 145,-166.5 32,-166.5"/>
<polygon fill="#666666" stroke="#666666" points="32,-16.5 32,-16.5 64,-16.5 64,-16.5 32,-16.5"/>
<polygon fill="#666666" stroke="#666666" points="64,-16.5 64,-16.5 145,-16.5 145,-16.5 64,-16.5"/>
<polygon fill="none" stroke="#666666" points="31.5,0 31.5,-195 144.5,-195 144.5,0 31.5,0"/>
</a>
</g>
</g>
<!-- Node2 -->
<g id="Node000002" class="node">
<title>Node2</title>
<g id="a_Node000002"><a xlink:href="a00519.html" target="_top" xlink:title=" ">
<polygon fill="white" stroke="transparent" points="74,-381 0,-381 0,-242 74,-242 74,-381"/>
<text text-anchor="start" x="5" y="-368.5" font-family="Helvetica,sans-Serif" font-size="10.00">SIC_FLAGS_s</text>
<text text-anchor="start" x="12" y="-353.5" font-family="Helvetica,sans-Serif" font-size="10.00">+</text>
<text text-anchor="start" x="31" y="-353.5" font-family="Helvetica,sans-Serif" font-size="10.00">sic1</text>
<text text-anchor="start" x="12" y="-338.5" font-family="Helvetica,sans-Serif" font-size="10.00">+</text>
<text text-anchor="start" x="31" y="-338.5" font-family="Helvetica,sans-Serif" font-size="10.00">sic2</text>
<text text-anchor="start" x="12" y="-323.5" font-family="Helvetica,sans-Serif" font-size="10.00">+</text>
<text text-anchor="start" x="31" y="-323.5" font-family="Helvetica,sans-Serif" font-size="10.00">sic3</text>
<text text-anchor="start" x="12" y="-308.5" font-family="Helvetica,sans-Serif" font-size="10.00">+</text>
<text text-anchor="start" x="31" y="-308.5" font-family="Helvetica,sans-Serif" font-size="10.00">sic4</text>
<text text-anchor="start" x="12" y="-293.5" font-family="Helvetica,sans-Serif" font-size="10.00">+</text>
<text text-anchor="start" x="31" y="-293.5" font-family="Helvetica,sans-Serif" font-size="10.00">bits</text>
<text text-anchor="start" x="12" y="-278.5" font-family="Helvetica,sans-Serif" font-size="10.00">+</text>
<text text-anchor="start" x="31" y="-278.5" font-family="Helvetica,sans-Serif" font-size="10.00">value</text>
<text text-anchor="start" x="12" y="-263.5" font-family="Helvetica,sans-Serif" font-size="10.00">+</text>
<text text-anchor="start" x="31" y="-263.5" font-family="Helvetica,sans-Serif" font-size="10.00">@7</text>
<text text-anchor="start" x="35" y="-248.5" font-family="Helvetica,sans-Serif" font-size="10.00"> </text>
<polygon fill="#666666" stroke="#666666" points="0,-363.5 0,-363.5 74,-363.5 74,-363.5 0,-363.5"/>
<polygon fill="#666666" stroke="#666666" points="0,-258.5 0,-258.5 29,-258.5 29,-258.5 0,-258.5"/>
<polygon fill="#666666" stroke="#666666" points="29,-258.5 29,-258.5 74,-258.5 74,-258.5 29,-258.5"/>
<polygon fill="none" stroke="#666666" points="0,-242 0,-381 74,-381 74,-242 0,-242"/>
</a>
</g>
</g>
<!-- Node2&#45;&gt;Node1 -->
<g id="edge1_Node000001_Node000002" class="edge">
<title>Node2&#45;&gt;Node1</title>
<g id="a_edge1_Node000001_Node000002"><a xlink:title=" ">
<path fill="none" stroke="#63b8ff" d="M34.24,-241.93C34.85,-232.15 36.01,-222.27 38,-213 38.44,-210.96 38.91,-208.91 39.42,-206.85"/>
<polygon fill="none" stroke="#63b8ff" points="39.49,-206.62 37.23,-199.77 42.69,-195.06 44.94,-201.91 39.49,-206.62"/>
</a>
</g>
<text text-anchor="middle" x="78" y="-216" font-family="Helvetica,sans-Serif" font-size="10.00" fill="grey"> +sic_status_flags</text>
</g>
<!-- Node3 -->
<g id="Node000003" class="node">
<title>Node3</title>
<g id="a_Node000003"><a xlink:href="a00531.html" target="_top" xlink:title=" ">
<polygon fill="white" stroke="transparent" points="178.5,-381 101.5,-381 101.5,-242 178.5,-242 178.5,-381"/>
<text text-anchor="start" x="107" y="-368.5" font-family="Helvetica,sans-Serif" font-size="10.00">AUX_FLAGS_s</text>
<text text-anchor="start" x="113" y="-353.5" font-family="Helvetica,sans-Serif" font-size="10.00">+</text>
<text text-anchor="start" x="131" y="-353.5" font-family="Helvetica,sans-Serif" font-size="10.00">_5v</text>
<text text-anchor="start" x="113" y="-338.5" font-family="Helvetica,sans-Serif" font-size="10.00">+</text>
<text text-anchor="start" x="131" y="-338.5" font-family="Helvetica,sans-Serif" font-size="10.00">_12v</text>
<text text-anchor="start" x="113" y="-323.5" font-family="Helvetica,sans-Serif" font-size="10.00">+</text>
<text text-anchor="start" x="131" y="-323.5" font-family="Helvetica,sans-Serif" font-size="10.00">_24v</text>
<text text-anchor="start" x="113" y="-308.5" font-family="Helvetica,sans-Serif" font-size="10.00">+</text>
<text text-anchor="start" x="131" y="-308.5" font-family="Helvetica,sans-Serif" font-size="10.00">uint8_t</text>
<text text-anchor="start" x="113" y="-293.5" font-family="Helvetica,sans-Serif" font-size="10.00">+</text>
<text text-anchor="start" x="131" y="-293.5" font-family="Helvetica,sans-Serif" font-size="10.00">bits</text>
<text text-anchor="start" x="113" y="-278.5" font-family="Helvetica,sans-Serif" font-size="10.00">+</text>
<text text-anchor="start" x="131" y="-278.5" font-family="Helvetica,sans-Serif" font-size="10.00">value</text>
<text text-anchor="start" x="113" y="-263.5" font-family="Helvetica,sans-Serif" font-size="10.00">+</text>
<text text-anchor="start" x="131" y="-263.5" font-family="Helvetica,sans-Serif" font-size="10.00">@10</text>
<text text-anchor="start" x="138.5" y="-248.5" font-family="Helvetica,sans-Serif" font-size="10.00"> </text>
<polygon fill="#666666" stroke="#666666" points="102,-363.5 102,-363.5 179,-363.5 179,-363.5 102,-363.5"/>
<polygon fill="#666666" stroke="#666666" points="102,-258.5 102,-258.5 129,-258.5 129,-258.5 102,-258.5"/>
<polygon fill="#666666" stroke="#666666" points="129,-258.5 129,-258.5 179,-258.5 179,-258.5 129,-258.5"/>
<polygon fill="none" stroke="#666666" points="101.5,-242 101.5,-381 178.5,-381 178.5,-242 101.5,-242"/>
</a>
</g>
</g>
<!-- Node3&#45;&gt;Node1 -->
<g id="edge2_Node000001_Node000003" class="edge">
<title>Node3&#45;&gt;Node1</title>
<g id="a_edge2_Node000001_Node000003"><a xlink:title=" ">
<path fill="none" stroke="#63b8ff" d="M124.85,-241.98C122.61,-232.24 120.28,-222.36 118,-213 117.51,-211.01 117.02,-209 116.52,-206.98"/>
<polygon fill="none" stroke="#63b8ff" points="116.51,-206.91 111.17,-202.06 113.6,-195.27 118.94,-200.12 116.51,-206.91"/>
</a>
</g>
<text text-anchor="middle" x="157" y="-216" font-family="Helvetica,sans-Serif" font-size="10.00" fill="grey"> +aux_fault_flags</text>
</g>
</g>
</svg>
</svg>

<style type='text/css'>
<![CDATA[
[data-mouse-over-selected='false'] { opacity: 0.7; }
[data-mouse-over-selected='true']  { opacity: 1.0; }
]]>
</style>
<script type="application/ecmascript"><![CDATA[
document.addEventListener('DOMContentLoaded', (event) => {
  highlightEdges();
  highlightAdjacentNodes();
});
]]></script>
</svg>
