<?xml version="1.0" encoding="UTF-8" standalone="no"?>
<!DOCTYPE svg PUBLIC "-//W3C//DTD SVG 1.1//EN"
 "http://www.w3.org/Graphics/SVG/1.1/DTD/svg11.dtd">
<!-- Generated by graphviz version 8.1.0 (20230707.0739)
 -->
<!-- Title: VACM_s Pages: 1 -->
<svg width="575pt" height="409pt"
 viewBox="0.00 0.00 575.00 409.00" xmlns="http://www.w3.org/2000/svg" xmlns:xlink="http://www.w3.org/1999/xlink">
<g id="graph0" class="graph" transform="scale(1 1) rotate(0) translate(4 405)">
<title>VACM_s</title>
<!-- Node1 -->
<g id="Node000001" class="node">
<title>Node1</title>
<g id="a_Node000001"><a xlink:title="Main AC Monitor data object data type declaration.">
<polygon fill="#999999" stroke="none" points="288,-52 239,-52 239,0 288,0 288,-52"/>
<text text-anchor="start" x="244" y="-38.5" font-family="Helvetica,sans-Serif" font-size="10.00">VACM_s</text>
<text text-anchor="start" x="245.5" y="-22.5" font-family="Helvetica,sans-Serif" font-size="10.00">+</text>
<text text-anchor="start" x="258" y="-22.5" font-family="Helvetica,sans-Serif" font-size="10.00">state</text>
<text text-anchor="start" x="262" y="-6.5" font-family="Helvetica,sans-Serif" font-size="10.00"> </text>
<polygon fill="#666666" stroke="#666666" points="239,-34 239,-34 288,-34 288,-34 239,-34"/>
<polygon fill="#666666" stroke="#666666" points="239,-18 239,-18 256,-18 256,-18 239,-18"/>
<polygon fill="#666666" stroke="#666666" points="256,-18 256,-18 288,-18 288,-18 256,-18"/>
<polygon fill="none" stroke="#666666" points="239,0 239,-52 288,-52 288,0 239,0"/>
</a>
</g>
</g>
<!-- Node2 -->
<g id="Node000002" class="node">
<title>Node2</title>
<g id="a_Node000002"><a xlink:href="a00557.html" target="_top" xlink:title="ADD_SHORT_DESCRIPTION.">
<polygon fill="white" stroke="none" points="91,-312 0,-312 0,-100 91,-100 91,-312"/>
<text text-anchor="start" x="4.62" y="-298.5" font-family="Helvetica,sans-Serif" font-size="10.00">VACM_STATUS_s</text>
<text text-anchor="start" x="8" y="-282.5" font-family="Helvetica,sans-Serif" font-size="10.00">+</text>
<text text-anchor="start" x="22" y="-282.5" font-family="Helvetica,sans-Serif" font-size="10.00">ac_drop</text>
<text text-anchor="start" x="8" y="-266.5" font-family="Helvetica,sans-Serif" font-size="10.00">+</text>
<text text-anchor="start" x="22" y="-266.5" font-family="Helvetica,sans-Serif" font-size="10.00">dc_mode</text>
<text text-anchor="start" x="8" y="-250.5" font-family="Helvetica,sans-Serif" font-size="10.00">+</text>
<text text-anchor="start" x="22" y="-250.5" font-family="Helvetica,sans-Serif" font-size="10.00">ac_ok</text>
<text text-anchor="start" x="8" y="-234.5" font-family="Helvetica,sans-Serif" font-size="10.00">+</text>
<text text-anchor="start" x="22" y="-234.5" font-family="Helvetica,sans-Serif" font-size="10.00">zero_cross</text>
<text text-anchor="start" x="8" y="-218.5" font-family="Helvetica,sans-Serif" font-size="10.00">+</text>
<text text-anchor="start" x="22" y="-218.5" font-family="Helvetica,sans-Serif" font-size="10.00">polarity_pos</text>
<text text-anchor="start" x="8" y="-202.5" font-family="Helvetica,sans-Serif" font-size="10.00">+</text>
<text text-anchor="start" x="22" y="-202.5" font-family="Helvetica,sans-Serif" font-size="10.00">end_of_cycle</text>
<text text-anchor="start" x="8" y="-186.5" font-family="Helvetica,sans-Serif" font-size="10.00">+</text>
<text text-anchor="start" x="22" y="-186.5" font-family="Helvetica,sans-Serif" font-size="10.00">slope_pos</text>
<text text-anchor="start" x="8" y="-170.5" font-family="Helvetica,sans-Serif" font-size="10.00">+</text>
<text text-anchor="start" x="22" y="-170.5" font-family="Helvetica,sans-Serif" font-size="10.00">__pad0__</text>
<text text-anchor="start" x="8" y="-154.5" font-family="Helvetica,sans-Serif" font-size="10.00">+</text>
<text text-anchor="start" x="22" y="-154.5" font-family="Helvetica,sans-Serif" font-size="10.00">__pad1__</text>
<text text-anchor="start" x="8" y="-138.5" font-family="Helvetica,sans-Serif" font-size="10.00">+</text>
<text text-anchor="start" x="22" y="-138.5" font-family="Helvetica,sans-Serif" font-size="10.00">__pad2__</text>
<text text-anchor="start" x="22" y="-122.5" font-family="Helvetica,sans-Serif" font-size="10.00">and 9 more...</text>
<text text-anchor="start" x="44" y="-106.5" font-family="Helvetica,sans-Serif" font-size="10.00"> </text>
<polygon fill="#666666" stroke="#666666" points="0,-294 0,-294 91,-294 91,-294 0,-294"/>
<polygon fill="#666666" stroke="#666666" points="0,-118 0,-118 20,-118 20,-118 0,-118"/>
<polygon fill="#666666" stroke="#666666" points="20,-118 20,-118 91,-118 91,-118 20,-118"/>
<polygon fill="none" stroke="#666666" points="0,-100 0,-312 91,-312 91,-100 0,-100"/>
</a>
</g>
</g>
<!-- Node2&#45;&gt;Node1 -->
<g id="edge1_Node000001_Node000002" class="edge">
<title>Node2&#45;&gt;Node1</title>
<g id="a_edge1_Node000001_Node000002"><a xlink:title=" ">
<path fill="none" stroke="#63b8ff" d="M90.68,-110.45C93.78,-106.75 97.05,-103.24 100.5,-100 136.51,-66.14 190.88,-46.14 226.78,-35.87"/>
<polygon fill="none" stroke="#63b8ff" points="226.66,-35.91 231.4,-30.47 238.24,-32.76 233.5,-38.19 226.66,-35.91"/>
</a>
</g>
<text text-anchor="middle" x="158.5" y="-72.5" font-family="Helvetica,sans-Serif" font-size="10.00" fill="grey"> +status</text>
</g>
<!-- Node3 -->
<g id="Node000003" class="node">
<title>Node3</title>
<g id="a_Node000003"><a xlink:title=" ">
<polygon fill="white" stroke="none" points="241.5,-401 129.5,-401 129.5,-349 241.5,-349 241.5,-401"/>
<text text-anchor="start" x="134.5" y="-387.5" font-family="Helvetica,sans-Serif" font-size="10.00">PARENT_STRUCTURE</text>
<text text-anchor="start" x="184" y="-371.5" font-family="Helvetica,sans-Serif" font-size="10.00"> </text>
<text text-anchor="start" x="184" y="-355.5" font-family="Helvetica,sans-Serif" font-size="10.00"> </text>
<polygon fill="#666666" stroke="#666666" points="129.5,-383 129.5,-383 241.5,-383 241.5,-383 129.5,-383"/>
<polygon fill="#666666" stroke="#666666" points="129.5,-367 129.5,-367 241.5,-367 241.5,-367 129.5,-367"/>
<polygon fill="none" stroke="#666666" points="129.5,-349 129.5,-401 241.5,-401 241.5,-349 129.5,-349"/>
</a>
</g>
</g>
<!-- Node3&#45;&gt;Node2 -->
<g id="edge2_Node000002_Node000003" class="edge">
<title>Node3&#45;&gt;Node2</title>
<g id="a_edge2_Node000002_Node000003"><a xlink:title=" ">
<path fill="none" stroke="#63b8ff" d="M134.67,-342.76C122.54,-333.8 110.29,-323.35 100.5,-312 97.14,-308.1 93.91,-303.97 90.82,-299.67"/>
<polygon fill="none" stroke="#63b8ff" points="132.26,-346.05 142.44,-349 136.32,-340.35 132.26,-346.05"/>
</a>
</g>
</g>
<!-- Node4 -->
<g id="Node000004" class="node">
<title>Node4</title>
<g id="a_Node000004"><a xlink:href="a00569.html" target="_top" xlink:title="ADD_SHORT_DESCRIPTION.">
<polygon fill="white" stroke="none" points="193.5,-312 109.5,-312 109.5,-100 193.5,-100 193.5,-312"/>
<text text-anchor="start" x="114.38" y="-298.5" font-family="Helvetica,sans-Serif" font-size="10.00">VACM_FAULT_s</text>
<text text-anchor="start" x="115.5" y="-282.5" font-family="Helvetica,sans-Serif" font-size="10.00">+</text>
<text text-anchor="start" x="127.5" y="-282.5" font-family="Helvetica,sans-Serif" font-size="10.00">ov</text>
<text text-anchor="start" x="115.5" y="-266.5" font-family="Helvetica,sans-Serif" font-size="10.00">+</text>
<text text-anchor="start" x="127.5" y="-266.5" font-family="Helvetica,sans-Serif" font-size="10.00">uv</text>
<text text-anchor="start" x="115.5" y="-250.5" font-family="Helvetica,sans-Serif" font-size="10.00">+</text>
<text text-anchor="start" x="127.5" y="-250.5" font-family="Helvetica,sans-Serif" font-size="10.00">fmin</text>
<text text-anchor="start" x="115.5" y="-234.5" font-family="Helvetica,sans-Serif" font-size="10.00">+</text>
<text text-anchor="start" x="127.5" y="-234.5" font-family="Helvetica,sans-Serif" font-size="10.00">fmax</text>
<text text-anchor="start" x="115.5" y="-218.5" font-family="Helvetica,sans-Serif" font-size="10.00">+</text>
<text text-anchor="start" x="127.5" y="-218.5" font-family="Helvetica,sans-Serif" font-size="10.00">zc_timeout</text>
<text text-anchor="start" x="115.5" y="-202.5" font-family="Helvetica,sans-Serif" font-size="10.00">+</text>
<text text-anchor="start" x="127.5" y="-202.5" font-family="Helvetica,sans-Serif" font-size="10.00">__pad0__</text>
<text text-anchor="start" x="115.5" y="-186.5" font-family="Helvetica,sans-Serif" font-size="10.00">+</text>
<text text-anchor="start" x="127.5" y="-186.5" font-family="Helvetica,sans-Serif" font-size="10.00">__pad1__</text>
<text text-anchor="start" x="115.5" y="-170.5" font-family="Helvetica,sans-Serif" font-size="10.00">+</text>
<text text-anchor="start" x="127.5" y="-170.5" font-family="Helvetica,sans-Serif" font-size="10.00">__pad2__</text>
<text text-anchor="start" x="115.5" y="-154.5" font-family="Helvetica,sans-Serif" font-size="10.00">+</text>
<text text-anchor="start" x="127.5" y="-154.5" font-family="Helvetica,sans-Serif" font-size="10.00">__pad3__</text>
<text text-anchor="start" x="115.5" y="-138.5" font-family="Helvetica,sans-Serif" font-size="10.00">+</text>
<text text-anchor="start" x="127.5" y="-138.5" font-family="Helvetica,sans-Serif" font-size="10.00">__pad4__</text>
<text text-anchor="start" x="127.5" y="-122.5" font-family="Helvetica,sans-Serif" font-size="10.00">and 9 more...</text>
<text text-anchor="start" x="150" y="-106.5" font-family="Helvetica,sans-Serif" font-size="10.00"> </text>
<polygon fill="#666666" stroke="#666666" points="109.5,-294 109.5,-294 193.5,-294 193.5,-294 109.5,-294"/>
<polygon fill="#666666" stroke="#666666" points="109.5,-118 109.5,-118 125.5,-118 125.5,-118 109.5,-118"/>
<polygon fill="#666666" stroke="#666666" points="125.5,-118 125.5,-118 193.5,-118 193.5,-118 125.5,-118"/>
<polygon fill="none" stroke="#666666" points="109.5,-100 109.5,-312 193.5,-312 193.5,-100 109.5,-100"/>
</a>
</g>
</g>
<!-- Node3&#45;&gt;Node4 -->
<g id="edge4_Node000004_Node000003" class="edge">
<title>Node3&#45;&gt;Node4</title>
<g id="a_edge4_Node000004_Node000003"><a xlink:title=" ">
<path fill="none" stroke="#63b8ff" d="M178.33,-338.8C176.66,-330.59 174.8,-321.42 172.85,-311.86"/>
<polygon fill="none" stroke="#63b8ff" points="175.06,-339.26 180.48,-348.36 181.92,-337.86 175.06,-339.26"/>
</a>
</g>
</g>
<!-- Node5 -->
<g id="Node000005" class="node">
<title>Node5</title>
<g id="a_Node000005"><a xlink:href="a00589.html" target="_top" xlink:title="ADD_SHORT_DESCRIPTION.">
<polygon fill="white" stroke="none" points="315.5,-288 211.5,-288 211.5,-124 315.5,-124 315.5,-288"/>
<text text-anchor="start" x="216.62" y="-274.5" font-family="Helvetica,sans-Serif" font-size="10.00">VACM_TIMEBASE_s</text>
<text text-anchor="start" x="215.5" y="-258.5" font-family="Helvetica,sans-Serif" font-size="10.00">+</text>
<text text-anchor="start" x="225.5" y="-258.5" font-family="Helvetica,sans-Serif" font-size="10.00">half_cycle</text>
<text text-anchor="start" x="215.5" y="-242.5" font-family="Helvetica,sans-Serif" font-size="10.00">+</text>
<text text-anchor="start" x="225.5" y="-242.5" font-family="Helvetica,sans-Serif" font-size="10.00">half_cycle_timer</text>
<text text-anchor="start" x="215.5" y="-226.5" font-family="Helvetica,sans-Serif" font-size="10.00">+</text>
<text text-anchor="start" x="225.5" y="-226.5" font-family="Helvetica,sans-Serif" font-size="10.00">startup_counter</text>
<text text-anchor="start" x="215.5" y="-210.5" font-family="Helvetica,sans-Serif" font-size="10.00">+</text>
<text text-anchor="start" x="225.5" y="-210.5" font-family="Helvetica,sans-Serif" font-size="10.00">zero_cross_timer</text>
<text text-anchor="start" x="215.5" y="-194.5" font-family="Helvetica,sans-Serif" font-size="10.00">+</text>
<text text-anchor="start" x="225.5" y="-194.5" font-family="Helvetica,sans-Serif" font-size="10.00">ac_drop_timer</text>
<text text-anchor="start" x="215.5" y="-178.5" font-family="Helvetica,sans-Serif" font-size="10.00">+</text>
<text text-anchor="start" x="225.5" y="-178.5" font-family="Helvetica,sans-Serif" font-size="10.00">vin_present_counter</text>
<text text-anchor="start" x="215.5" y="-162.5" font-family="Helvetica,sans-Serif" font-size="10.00">+</text>
<text text-anchor="start" x="225.5" y="-162.5" font-family="Helvetica,sans-Serif" font-size="10.00">dc_present_counter</text>
<text text-anchor="start" x="215.5" y="-146.5" font-family="Helvetica,sans-Serif" font-size="10.00">+</text>
<text text-anchor="start" x="225.5" y="-146.5" font-family="Helvetica,sans-Serif" font-size="10.00">dc_loss_counter</text>
<text text-anchor="start" x="262" y="-130.5" font-family="Helvetica,sans-Serif" font-size="10.00"> </text>
<polygon fill="#666666" stroke="#666666" points="211.5,-270 211.5,-270 315.5,-270 315.5,-270 211.5,-270"/>
<polygon fill="#666666" stroke="#666666" points="211.5,-142 211.5,-142 223.5,-142 223.5,-142 211.5,-142"/>
<polygon fill="#666666" stroke="#666666" points="223.5,-142 223.5,-142 315.5,-142 315.5,-142 223.5,-142"/>
<polygon fill="none" stroke="#666666" points="211.5,-124 211.5,-288 315.5,-288 315.5,-124 211.5,-124"/>
</a>
</g>
</g>
<!-- Node3&#45;&gt;Node5 -->
<g id="edge6_Node000005_Node000003" class="edge">
<title>Node3&#45;&gt;Node5</title>
<g id="a_edge6_Node000005_Node000003"><a xlink:title=" ">
<path fill="none" stroke="#63b8ff" d="M201.61,-339.51C208.63,-324.47 217.19,-306.14 225.68,-287.97"/>
<polygon fill="none" stroke="#63b8ff" points="198.07,-337.82 197.01,-348.36 204.41,-340.78 198.07,-337.82"/>
</a>
</g>
</g>
<!-- Node6 -->
<g id="Node000006" class="node">
<title>Node6</title>
<g id="a_Node000006"><a xlink:href="a00581.html" target="_top" xlink:title="ADD_SHORT_DESCRIPTION.">
<polygon fill="white" stroke="none" points="403.5,-296 333.5,-296 333.5,-116 403.5,-116 403.5,-296"/>
<text text-anchor="start" x="338.5" y="-282.5" font-family="Helvetica,sans-Serif" font-size="10.00">VACM_VIN_s</text>
<text text-anchor="start" x="339" y="-266.5" font-family="Helvetica,sans-Serif" font-size="10.00">+</text>
<text text-anchor="start" x="350.5" y="-266.5" font-family="Helvetica,sans-Serif" font-size="10.00">ptr_adcbuf</text>
<text text-anchor="start" x="339" y="-250.5" font-family="Helvetica,sans-Serif" font-size="10.00">+</text>
<text text-anchor="start" x="350.5" y="-250.5" font-family="Helvetica,sans-Serif" font-size="10.00">raw</text>
<text text-anchor="start" x="339" y="-234.5" font-family="Helvetica,sans-Serif" font-size="10.00">+</text>
<text text-anchor="start" x="350.5" y="-234.5" font-family="Helvetica,sans-Serif" font-size="10.00">raw_prev</text>
<text text-anchor="start" x="339" y="-218.5" font-family="Helvetica,sans-Serif" font-size="10.00">+</text>
<text text-anchor="start" x="350.5" y="-218.5" font-family="Helvetica,sans-Serif" font-size="10.00">rectified</text>
<text text-anchor="start" x="339" y="-202.5" font-family="Helvetica,sans-Serif" font-size="10.00">+</text>
<text text-anchor="start" x="350.5" y="-202.5" font-family="Helvetica,sans-Serif" font-size="10.00">ptr_offset</text>
<text text-anchor="start" x="339" y="-186.5" font-family="Helvetica,sans-Serif" font-size="10.00">+</text>
<text text-anchor="start" x="350.5" y="-186.5" font-family="Helvetica,sans-Serif" font-size="10.00">avg</text>
<text text-anchor="start" x="339" y="-170.5" font-family="Helvetica,sans-Serif" font-size="10.00">+</text>
<text text-anchor="start" x="350.5" y="-170.5" font-family="Helvetica,sans-Serif" font-size="10.00">avg_prev</text>
<text text-anchor="start" x="339" y="-154.5" font-family="Helvetica,sans-Serif" font-size="10.00">+</text>
<text text-anchor="start" x="350.5" y="-154.5" font-family="Helvetica,sans-Serif" font-size="10.00">avg_sqrd</text>
<text text-anchor="start" x="339" y="-138.5" font-family="Helvetica,sans-Serif" font-size="10.00">+</text>
<text text-anchor="start" x="350.5" y="-138.5" font-family="Helvetica,sans-Serif" font-size="10.00">vloop_ff</text>
<text text-anchor="start" x="367" y="-122.5" font-family="Helvetica,sans-Serif" font-size="10.00"> </text>
<polygon fill="#666666" stroke="#666666" points="333.5,-278 333.5,-278 403.5,-278 403.5,-278 333.5,-278"/>
<polygon fill="#666666" stroke="#666666" points="333.5,-134 333.5,-134 348.5,-134 348.5,-134 333.5,-134"/>
<polygon fill="#666666" stroke="#666666" points="348.5,-134 348.5,-134 403.5,-134 403.5,-134 348.5,-134"/>
<polygon fill="none" stroke="#666666" points="333.5,-116 333.5,-296 403.5,-296 403.5,-116 333.5,-116"/>
</a>
</g>
</g>
<!-- Node3&#45;&gt;Node6 -->
<g id="edge8_Node000006_Node000003" class="edge">
<title>Node3&#45;&gt;Node6</title>
<g id="a_edge8_Node000006_Node000003"><a xlink:title=" ">
<path fill="none" stroke="#63b8ff" d="M251.7,-356.05C277.09,-346.43 304.69,-332.26 324.5,-312 329.27,-307.12 333.55,-301.65 337.39,-295.84"/>
<polygon fill="none" stroke="#63b8ff" points="250.58,-353.09 242.36,-359.77 252.96,-359.68 250.58,-353.09"/>
</a>
</g>
</g>
<!-- Node4&#45;&gt;Node1 -->
<g id="edge3_Node000001_Node000004" class="edge">
<title>Node4&#45;&gt;Node1</title>
<g id="a_edge3_Node000001_Node000004"><a xlink:title=" ">
<path fill="none" stroke="#63b8ff" d="M193.47,-114.83C196.4,-109.74 199.42,-104.76 202.5,-100 211.03,-86.81 221.65,-73.34 231.62,-61.62"/>
<polygon fill="none" stroke="#63b8ff" points="231.68,-61.56 232.6,-54.4 239.56,-52.51 238.63,-59.66 231.68,-61.56"/>
</a>
</g>
<text text-anchor="middle" x="238" y="-72.5" font-family="Helvetica,sans-Serif" font-size="10.00" fill="grey"> +fault</text>
</g>
<!-- Node5&#45;&gt;Node1 -->
<g id="edge5_Node000001_Node000005" class="edge">
<title>Node5&#45;&gt;Node1</title>
<g id="a_edge5_Node000001_Node000005"><a xlink:title=" ">
<path fill="none" stroke="#63b8ff" d="M263.5,-124.07C263.5,-103.35 263.5,-82.03 263.5,-64.68"/>
<polygon fill="none" stroke="#63b8ff" points="263.5,-64.59 259.5,-58.59 263.5,-52.59 267.5,-58.59 263.5,-64.59"/>
</a>
</g>
<text text-anchor="middle" x="287.88" y="-72.5" font-family="Helvetica,sans-Serif" font-size="10.00" fill="grey"> +timebase</text>
</g>
<!-- Node6&#45;&gt;Node1 -->
<g id="edge7_Node000001_Node000006" class="edge">
<title>Node6&#45;&gt;Node1</title>
<g id="a_edge7_Node000001_Node000006"><a xlink:title=" ">
<path fill="none" stroke="#63b8ff" d="M341.95,-116.22C335.04,-100.05 326.61,-83.92 316.5,-70 311.31,-62.85 304.64,-56.22 297.8,-50.41"/>
<polygon fill="none" stroke="#63b8ff" points="297.93,-50.51 290.74,-49.93 288.51,-43.08 295.7,-43.66 297.93,-50.51"/>
</a>
</g>
<text text-anchor="middle" x="332.62" y="-72.5" font-family="Helvetica,sans-Serif" font-size="10.00" fill="grey"> +vin</text>
</g>
<!-- Node7 -->
<g id="Node000007" class="node">
<title>Node7</title>
<g id="a_Node000007"><a xlink:href="a00585.html" target="_top" xlink:title=" ">
<polygon fill="white" stroke="none" points="567,-248 422,-248 422,-164 567,-164 567,-248"/>
<text text-anchor="start" x="427" y="-234.5" font-family="Helvetica,sans-Serif" font-size="10.00">VACM_AVGCALC_BUFFER_s</text>
<text text-anchor="start" x="443" y="-218.5" font-family="Helvetica,sans-Serif" font-size="10.00">+</text>
<text text-anchor="start" x="470" y="-218.5" font-family="Helvetica,sans-Serif" font-size="10.00">counter</text>
<text text-anchor="start" x="443" y="-202.5" font-family="Helvetica,sans-Serif" font-size="10.00">+</text>
<text text-anchor="start" x="470" y="-202.5" font-family="Helvetica,sans-Serif" font-size="10.00">counter_reset</text>
<text text-anchor="start" x="443" y="-186.5" font-family="Helvetica,sans-Serif" font-size="10.00">+</text>
<text text-anchor="start" x="470" y="-186.5" font-family="Helvetica,sans-Serif" font-size="10.00">acc</text>
<text text-anchor="start" x="493" y="-170.5" font-family="Helvetica,sans-Serif" font-size="10.00"> </text>
<polygon fill="#666666" stroke="#666666" points="422,-230 422,-230 567,-230 567,-230 422,-230"/>
<polygon fill="#666666" stroke="#666666" points="422,-182 422,-182 468,-182 468,-182 422,-182"/>
<polygon fill="#666666" stroke="#666666" points="468,-182 468,-182 567,-182 567,-182 468,-182"/>
<polygon fill="none" stroke="#666666" points="422,-164 422,-248 567,-248 567,-164 422,-164"/>
</a>
</g>
</g>
<!-- Node7&#45;&gt;Node1 -->
<g id="edge9_Node000001_Node000007" class="edge">
<title>Node7&#45;&gt;Node1</title>
<g id="a_edge9_Node000001_Node000007"><a xlink:title=" ">
<path fill="none" stroke="#63b8ff" d="M469.16,-164.2C454.54,-143.07 434.68,-118 412.5,-100 378.24,-72.2 331.64,-51.53 299.73,-39.42"/>
<polygon fill="none" stroke="#63b8ff" points="299.96,-39.5 292.95,-41.18 288.7,-35.36 295.72,-33.68 299.96,-39.5"/>
</a>
</g>
<text text-anchor="middle" x="421.38" y="-72.5" font-family="Helvetica,sans-Serif" font-size="10.00" fill="grey"> +avgcalc_buffer</text>
</g>
</g>
</svg>
