<?xml version="1.0" encoding="UTF-8" standalone="no"?>
<!DOCTYPE svg PUBLIC "-//W3C//DTD SVG 1.1//EN"
 "http://www.w3.org/Graphics/SVG/1.1/DTD/svg11.dtd">
<!-- Generated by graphviz version 8.1.0 (20230707.0739)
 -->
<!-- Title: SIC_CLIENT_RECEIVE_FRAME_s Pages: 1 -->
<svg width="201pt" height="412pt"
 viewBox="0.00 0.00 201.00 412.00" xmlns="http://www.w3.org/2000/svg" xmlns:xlink="http://www.w3.org/1999/xlink">
<g id="graph0" class="graph" transform="scale(1 1) rotate(0) translate(4 408)">
<title>SIC_CLIENT_RECEIVE_FRAME_s</title>
<!-- Node1 -->
<g id="Node000001" class="node">
<title>Node1</title>
<g id="a_Node000001"><a xlink:title=" ">
<polygon fill="#999999" stroke="none" points="143.5,-208 31.5,-208 31.5,0 143.5,0 143.5,-208"/>
<text text-anchor="start" x="36.5" y="-194.5" font-family="Helvetica,sans-Serif" font-size="10.00">SIC_CLIENT_RECEIVE</text>
<text text-anchor="start" x="62.38" y="-182.5" font-family="Helvetica,sans-Serif" font-size="10.00">_FRAME_s</text>
<text text-anchor="start" x="45" y="-166.5" font-family="Helvetica,sans-Serif" font-size="10.00">+</text>
<text text-anchor="start" x="64.5" y="-166.5" font-family="Helvetica,sans-Serif" font-size="10.00">command_id</text>
<text text-anchor="start" x="45" y="-150.5" font-family="Helvetica,sans-Serif" font-size="10.00">+</text>
<text text-anchor="start" x="64.5" y="-150.5" font-family="Helvetica,sans-Serif" font-size="10.00">temp_sic1</text>
<text text-anchor="start" x="45" y="-134.5" font-family="Helvetica,sans-Serif" font-size="10.00">+</text>
<text text-anchor="start" x="64.5" y="-134.5" font-family="Helvetica,sans-Serif" font-size="10.00">temp_sic2</text>
<text text-anchor="start" x="45" y="-118.5" font-family="Helvetica,sans-Serif" font-size="10.00">+</text>
<text text-anchor="start" x="64.5" y="-118.5" font-family="Helvetica,sans-Serif" font-size="10.00">temp_sic3</text>
<text text-anchor="start" x="45" y="-102.5" font-family="Helvetica,sans-Serif" font-size="10.00">+</text>
<text text-anchor="start" x="64.5" y="-102.5" font-family="Helvetica,sans-Serif" font-size="10.00">temp_sic4</text>
<text text-anchor="start" x="45" y="-86.5" font-family="Helvetica,sans-Serif" font-size="10.00">+</text>
<text text-anchor="start" x="64.5" y="-86.5" font-family="Helvetica,sans-Serif" font-size="10.00">fan_duty</text>
<text text-anchor="start" x="45" y="-70.5" font-family="Helvetica,sans-Serif" font-size="10.00">+</text>
<text text-anchor="start" x="64.5" y="-70.5" font-family="Helvetica,sans-Serif" font-size="10.00">crc_rx</text>
<text text-anchor="start" x="45" y="-54.5" font-family="Helvetica,sans-Serif" font-size="10.00">+</text>
<text text-anchor="start" x="64.5" y="-54.5" font-family="Helvetica,sans-Serif" font-size="10.00">bytes</text>
<text text-anchor="start" x="45" y="-38.5" font-family="Helvetica,sans-Serif" font-size="10.00">+</text>
<text text-anchor="start" x="64.5" y="-38.5" font-family="Helvetica,sans-Serif" font-size="10.00">array</text>
<text text-anchor="start" x="45" y="-22.5" font-family="Helvetica,sans-Serif" font-size="10.00">+</text>
<text text-anchor="start" x="64.5" y="-22.5" font-family="Helvetica,sans-Serif" font-size="10.00">@13</text>
<text text-anchor="start" x="86" y="-6.5" font-family="Helvetica,sans-Serif" font-size="10.00"> </text>
<polygon fill="#666666" stroke="#666666" points="31.5,-178 31.5,-178 143.5,-178 143.5,-178 31.5,-178"/>
<polygon fill="#666666" stroke="#666666" points="31.5,-18 31.5,-18 62.5,-18 62.5,-18 31.5,-18"/>
<polygon fill="#666666" stroke="#666666" points="62.5,-18 62.5,-18 143.5,-18 143.5,-18 62.5,-18"/>
<polygon fill="none" stroke="#666666" points="31.5,0 31.5,-208 143.5,-208 143.5,0 31.5,0"/>
</a>
</g>
</g>
<!-- Node2 -->
<g id="Node000002" class="node">
<title>Node2</title>
<g id="a_Node000002"><a xlink:href="a00513.html" target="_top" xlink:title=" ">
<polygon fill="white" stroke="none" points="73,-404 0,-404 0,-256 73,-256 73,-404"/>
<text text-anchor="start" x="4.62" y="-390.5" font-family="Helvetica,sans-Serif" font-size="10.00">SIC_FLAGS_s</text>
<text text-anchor="start" x="12.5" y="-374.5" font-family="Helvetica,sans-Serif" font-size="10.00">+</text>
<text text-anchor="start" x="31" y="-374.5" font-family="Helvetica,sans-Serif" font-size="10.00">sic1</text>
<text text-anchor="start" x="12.5" y="-358.5" font-family="Helvetica,sans-Serif" font-size="10.00">+</text>
<text text-anchor="start" x="31" y="-358.5" font-family="Helvetica,sans-Serif" font-size="10.00">sic2</text>
<text text-anchor="start" x="12.5" y="-342.5" font-family="Helvetica,sans-Serif" font-size="10.00">+</text>
<text text-anchor="start" x="31" y="-342.5" font-family="Helvetica,sans-Serif" font-size="10.00">sic3</text>
<text text-anchor="start" x="12.5" y="-326.5" font-family="Helvetica,sans-Serif" font-size="10.00">+</text>
<text text-anchor="start" x="31" y="-326.5" font-family="Helvetica,sans-Serif" font-size="10.00">sic4</text>
<text text-anchor="start" x="12.5" y="-310.5" font-family="Helvetica,sans-Serif" font-size="10.00">+</text>
<text text-anchor="start" x="31" y="-310.5" font-family="Helvetica,sans-Serif" font-size="10.00">bits</text>
<text text-anchor="start" x="12.5" y="-294.5" font-family="Helvetica,sans-Serif" font-size="10.00">+</text>
<text text-anchor="start" x="31" y="-294.5" font-family="Helvetica,sans-Serif" font-size="10.00">value</text>
<text text-anchor="start" x="12.5" y="-278.5" font-family="Helvetica,sans-Serif" font-size="10.00">+</text>
<text text-anchor="start" x="31" y="-278.5" font-family="Helvetica,sans-Serif" font-size="10.00">@7</text>
<text text-anchor="start" x="35" y="-262.5" font-family="Helvetica,sans-Serif" font-size="10.00"> </text>
<polygon fill="#666666" stroke="#666666" points="0,-386 0,-386 73,-386 73,-386 0,-386"/>
<polygon fill="#666666" stroke="#666666" points="0,-274 0,-274 29,-274 29,-274 0,-274"/>
<polygon fill="#666666" stroke="#666666" points="29,-274 29,-274 73,-274 73,-274 29,-274"/>
<polygon fill="none" stroke="#666666" points="0,-256 0,-404 73,-404 73,-256 0,-256"/>
</a>
</g>
</g>
<!-- Node2&#45;&gt;Node1 -->
<g id="edge1_Node000001_Node000002" class="edge">
<title>Node2&#45;&gt;Node1</title>
<g id="a_edge1_Node000001_Node000002"><a xlink:title=" ">
<path fill="none" stroke="#63b8ff" d="M34.18,-256.04C34.84,-245.89 36.03,-235.64 38,-226 38.38,-224.12 38.79,-222.24 39.23,-220.35"/>
<polygon fill="none" stroke="#63b8ff" points="39.24,-220.32 36.87,-213.51 42.25,-208.71 44.62,-215.52 39.24,-220.32"/>
</a>
</g>
<text text-anchor="middle" x="78.25" y="-228.5" font-family="Helvetica,sans-Serif" font-size="10.00" fill="grey"> +sic_status_flags</text>
</g>
<!-- Node3 -->
<g id="Node000003" class="node">
<title>Node3</title>
<g id="a_Node000003"><a xlink:href="a00525.html" target="_top" xlink:title=" ">
<polygon fill="white" stroke="none" points="177.5,-404 101.5,-404 101.5,-256 177.5,-256 177.5,-404"/>
<text text-anchor="start" x="106.12" y="-390.5" font-family="Helvetica,sans-Serif" font-size="10.00">AUX_FLAGS_s</text>
<text text-anchor="start" x="112.5" y="-374.5" font-family="Helvetica,sans-Serif" font-size="10.00">+</text>
<text text-anchor="start" x="129.5" y="-374.5" font-family="Helvetica,sans-Serif" font-size="10.00">_5v</text>
<text text-anchor="start" x="112.5" y="-358.5" font-family="Helvetica,sans-Serif" font-size="10.00">+</text>
<text text-anchor="start" x="129.5" y="-358.5" font-family="Helvetica,sans-Serif" font-size="10.00">_12v</text>
<text text-anchor="start" x="112.5" y="-342.5" font-family="Helvetica,sans-Serif" font-size="10.00">+</text>
<text text-anchor="start" x="129.5" y="-342.5" font-family="Helvetica,sans-Serif" font-size="10.00">_24v</text>
<text text-anchor="start" x="112.5" y="-326.5" font-family="Helvetica,sans-Serif" font-size="10.00">+</text>
<text text-anchor="start" x="129.5" y="-326.5" font-family="Helvetica,sans-Serif" font-size="10.00">uint8_t</text>
<text text-anchor="start" x="112.5" y="-310.5" font-family="Helvetica,sans-Serif" font-size="10.00">+</text>
<text text-anchor="start" x="129.5" y="-310.5" font-family="Helvetica,sans-Serif" font-size="10.00">bits</text>
<text text-anchor="start" x="112.5" y="-294.5" font-family="Helvetica,sans-Serif" font-size="10.00">+</text>
<text text-anchor="start" x="129.5" y="-294.5" font-family="Helvetica,sans-Serif" font-size="10.00">value</text>
<text text-anchor="start" x="112.5" y="-278.5" font-family="Helvetica,sans-Serif" font-size="10.00">+</text>
<text text-anchor="start" x="129.5" y="-278.5" font-family="Helvetica,sans-Serif" font-size="10.00">@10</text>
<text text-anchor="start" x="138" y="-262.5" font-family="Helvetica,sans-Serif" font-size="10.00"> </text>
<polygon fill="#666666" stroke="#666666" points="101.5,-386 101.5,-386 177.5,-386 177.5,-386 101.5,-386"/>
<polygon fill="#666666" stroke="#666666" points="101.5,-274 101.5,-274 127.5,-274 127.5,-274 101.5,-274"/>
<polygon fill="#666666" stroke="#666666" points="127.5,-274 127.5,-274 177.5,-274 177.5,-274 127.5,-274"/>
<polygon fill="none" stroke="#666666" points="101.5,-256 101.5,-404 177.5,-404 177.5,-256 101.5,-256"/>
</a>
</g>
</g>
<!-- Node3&#45;&gt;Node1 -->
<g id="edge2_Node000001_Node000003" class="edge">
<title>Node3&#45;&gt;Node1</title>
<g id="a_edge2_Node000001_Node000003"><a xlink:title=" ">
<path fill="none" stroke="#63b8ff" d="M124.23,-256.07C122.02,-245.95 119.74,-235.71 117.5,-226 117.07,-224.15 116.64,-222.29 116.21,-220.42"/>
<polygon fill="none" stroke="#63b8ff" points="116.22,-220.48 110.95,-215.56 113.47,-208.8 118.74,-213.72 116.22,-220.48"/>
</a>
</g>
<text text-anchor="middle" x="156.25" y="-228.5" font-family="Helvetica,sans-Serif" font-size="10.00" fill="grey"> +aux_fault_flags</text>
</g>
</g>
</svg>
