<?xml version="1.0" encoding="UTF-8" standalone="no"?>
<!DOCTYPE svg PUBLIC "-//W3C//DTD SVG 1.1//EN"
 "http://www.w3.org/Graphics/SVG/1.1/DTD/svg11.dtd">
<!-- Generated by graphviz version 8.1.0 (20230707.0739)
 -->
<!-- Title: XFT_SMPS_2P2Z_T Pages: 1 -->
<svg width="106pt" height="188pt"
 viewBox="0.00 0.00 106.00 188.00" xmlns="http://www.w3.org/2000/svg" xmlns:xlink="http://www.w3.org/1999/xlink">
<g id="graph0" class="graph" transform="scale(1 1) rotate(0) translate(4 184)">
<title>XFT_SMPS_2P2Z_T</title>
<!-- Node1 -->
<g id="Node000001" class="node">
<title>Node1</title>
<g id="a_Node000001"><a xlink:title=" ">
<polygon fill="#999999" stroke="none" points="98,-180 0,-180 0,0 98,0 98,-180"/>
<text text-anchor="start" x="4.75" y="-166.5" font-family="Helvetica,sans-Serif" font-size="10.00">XFT_SMPS_2P2Z_T</text>
<text text-anchor="start" x="9" y="-150.5" font-family="Helvetica,sans-Serif" font-size="10.00">+</text>
<text text-anchor="start" x="24" y="-150.5" font-family="Helvetica,sans-Serif" font-size="10.00">aCoefficients</text>
<text text-anchor="start" x="9" y="-134.5" font-family="Helvetica,sans-Serif" font-size="10.00">+</text>
<text text-anchor="start" x="24" y="-134.5" font-family="Helvetica,sans-Serif" font-size="10.00">bCoefficients</text>
<text text-anchor="start" x="9" y="-118.5" font-family="Helvetica,sans-Serif" font-size="10.00">+</text>
<text text-anchor="start" x="24" y="-118.5" font-family="Helvetica,sans-Serif" font-size="10.00">controlHistory</text>
<text text-anchor="start" x="9" y="-102.5" font-family="Helvetica,sans-Serif" font-size="10.00">+</text>
<text text-anchor="start" x="24" y="-102.5" font-family="Helvetica,sans-Serif" font-size="10.00">errorHistory</text>
<text text-anchor="start" x="9" y="-86.5" font-family="Helvetica,sans-Serif" font-size="10.00">+</text>
<text text-anchor="start" x="24" y="-86.5" font-family="Helvetica,sans-Serif" font-size="10.00">preShift</text>
<text text-anchor="start" x="9" y="-70.5" font-family="Helvetica,sans-Serif" font-size="10.00">+</text>
<text text-anchor="start" x="24" y="-70.5" font-family="Helvetica,sans-Serif" font-size="10.00">postShift</text>
<text text-anchor="start" x="9" y="-54.5" font-family="Helvetica,sans-Serif" font-size="10.00">+</text>
<text text-anchor="start" x="24" y="-54.5" font-family="Helvetica,sans-Serif" font-size="10.00">postScaler</text>
<text text-anchor="start" x="9" y="-38.5" font-family="Helvetica,sans-Serif" font-size="10.00">+</text>
<text text-anchor="start" x="24" y="-38.5" font-family="Helvetica,sans-Serif" font-size="10.00">minOutput</text>
<text text-anchor="start" x="9" y="-22.5" font-family="Helvetica,sans-Serif" font-size="10.00">+</text>
<text text-anchor="start" x="24" y="-22.5" font-family="Helvetica,sans-Serif" font-size="10.00">maxOutput</text>
<text text-anchor="start" x="47.5" y="-6.5" font-family="Helvetica,sans-Serif" font-size="10.00"> </text>
<polygon fill="#666666" stroke="#666666" points="0,-162 0,-162 98,-162 98,-162 0,-162"/>
<polygon fill="#666666" stroke="#666666" points="0,-18 0,-18 22,-18 22,-18 0,-18"/>
<polygon fill="#666666" stroke="#666666" points="22,-18 22,-18 98,-18 98,-18 22,-18"/>
<polygon fill="none" stroke="#666666" points="0,0 0,-180 98,-180 98,0 0,0"/>
</a>
</g>
</g>
</g>
</svg>
