<?xml version="1.0" encoding="UTF-8" standalone="no"?>
<!DOCTYPE svg PUBLIC "-//W3C//DTD SVG 1.1//EN"
 "http://www.w3.org/Graphics/SVG/1.1/DTD/svg11.dtd">
<!-- Generated by graphviz version 2.44.1 (20200629.0846)
 -->
<!-- Title: ADC_INTERFACE Pages: 1 -->
<svg width="182pt" height="497pt"
 viewBox="0.00 0.00 181.50 497.00" xmlns="http://www.w3.org/2000/svg" xmlns:xlink="http://www.w3.org/1999/xlink">
<g id="graph0" class="graph" transform="scale(1 1) rotate(0) translate(4 493)">
<title>ADC_INTERFACE</title>
<!-- Node1 -->
<g id="Node000001" class="node">
<title>Node1</title>
<g id="a_Node000001"><a xlink:title="Structure containing the function pointers of ADC driver.">
<polygon fill="#999999" stroke="transparent" points="131,-199 12,-199 12,0 131,0 131,-199"/>
<text text-anchor="start" x="32" y="-186.5" font-family="Helvetica,sans-Serif" font-size="10.00">ADC_INTERFACE</text>
<text text-anchor="start" x="16.5" y="-171.5" font-family="Helvetica,sans-Serif" font-size="10.00">+</text>
<text text-anchor="start" x="27.5" y="-171.5" font-family="Helvetica,sans-Serif" font-size="10.00">Initialize</text>
<text text-anchor="start" x="16.5" y="-156.5" font-family="Helvetica,sans-Serif" font-size="10.00">+</text>
<text text-anchor="start" x="27.5" y="-156.5" font-family="Helvetica,sans-Serif" font-size="10.00">Deinitialize</text>
<text text-anchor="start" x="16.5" y="-141.5" font-family="Helvetica,sans-Serif" font-size="10.00">+</text>
<text text-anchor="start" x="27.5" y="-141.5" font-family="Helvetica,sans-Serif" font-size="10.00">Enable</text>
<text text-anchor="start" x="16.5" y="-126.5" font-family="Helvetica,sans-Serif" font-size="10.00">+</text>
<text text-anchor="start" x="27.5" y="-126.5" font-family="Helvetica,sans-Serif" font-size="10.00">Disable</text>
<text text-anchor="start" x="16.5" y="-111.5" font-family="Helvetica,sans-Serif" font-size="10.00">+</text>
<text text-anchor="start" x="27.5" y="-111.5" font-family="Helvetica,sans-Serif" font-size="10.00">SoftwareTriggerEnable</text>
<text text-anchor="start" x="16.5" y="-96.5" font-family="Helvetica,sans-Serif" font-size="10.00">+</text>
<text text-anchor="start" x="27.5" y="-96.5" font-family="Helvetica,sans-Serif" font-size="10.00">SoftwareTriggerDisable</text>
<text text-anchor="start" x="16.5" y="-81.5" font-family="Helvetica,sans-Serif" font-size="10.00">+</text>
<text text-anchor="start" x="27.5" y="-81.5" font-family="Helvetica,sans-Serif" font-size="10.00">ChannelSelect</text>
<text text-anchor="start" x="16.5" y="-66.5" font-family="Helvetica,sans-Serif" font-size="10.00">+</text>
<text text-anchor="start" x="27.5" y="-66.5" font-family="Helvetica,sans-Serif" font-size="10.00">ConversionResultGet</text>
<text text-anchor="start" x="16.5" y="-51.5" font-family="Helvetica,sans-Serif" font-size="10.00">+</text>
<text text-anchor="start" x="27.5" y="-51.5" font-family="Helvetica,sans-Serif" font-size="10.00">IsConversionComplete</text>
<text text-anchor="start" x="16.5" y="-36.5" font-family="Helvetica,sans-Serif" font-size="10.00">+</text>
<text text-anchor="start" x="27.5" y="-36.5" font-family="Helvetica,sans-Serif" font-size="10.00">ResolutionSet</text>
<text text-anchor="start" x="27.5" y="-21.5" font-family="Helvetica,sans-Serif" font-size="10.00">and 6 more...</text>
<text text-anchor="start" x="70" y="-6.5" font-family="Helvetica,sans-Serif" font-size="10.00"> </text>
<polygon fill="#666666" stroke="#666666" points="12.5,-181.5 12.5,-181.5 131.5,-181.5 131.5,-181.5 12.5,-181.5"/>
<polygon fill="#666666" stroke="#666666" points="12.5,-16.5 12.5,-16.5 25.5,-16.5 25.5,-16.5 12.5,-16.5"/>
<polygon fill="#666666" stroke="#666666" points="25.5,-16.5 25.5,-16.5 131.5,-16.5 131.5,-16.5 25.5,-16.5"/>
<polygon fill="none" stroke="#666666" points="12,0 12,-199 131,-199 131,0 12,0"/>
</a>
</g>
</g>
<!-- Node2 -->
<g id="Node000002" class="node">
<title>Node2</title>
<g id="a_Node000002"><a xlink:href="a00607.html" target="_top" xlink:title="Structure containing the function pointers of ADC driver.">
<polygon fill="white" stroke="transparent" points="143,-489 0,-489 0,-246 143,-246 143,-489"/>
<text text-anchor="start" x="31" y="-476.5" font-family="Helvetica,sans-Serif" font-size="10.00">ADC_MULTICORE</text>
<text text-anchor="start" x="4.5" y="-461.5" font-family="Helvetica,sans-Serif" font-size="10.00">+</text>
<text text-anchor="start" x="15.5" y="-461.5" font-family="Helvetica,sans-Serif" font-size="10.00">ChannelCallbackRegister</text>
<text text-anchor="start" x="4.5" y="-446.5" font-family="Helvetica,sans-Serif" font-size="10.00">+</text>
<text text-anchor="start" x="15.5" y="-446.5" font-family="Helvetica,sans-Serif" font-size="10.00">ComparatorCallbackRegister</text>
<text text-anchor="start" x="4.5" y="-431.5" font-family="Helvetica,sans-Serif" font-size="10.00">+</text>
<text text-anchor="start" x="15.5" y="-431.5" font-family="Helvetica,sans-Serif" font-size="10.00">ChannelTasks</text>
<text text-anchor="start" x="4.5" y="-416.5" font-family="Helvetica,sans-Serif" font-size="10.00">+</text>
<text text-anchor="start" x="15.5" y="-416.5" font-family="Helvetica,sans-Serif" font-size="10.00">ComparatorTasks</text>
<text text-anchor="start" x="4.5" y="-401.5" font-family="Helvetica,sans-Serif" font-size="10.00">+</text>
<text text-anchor="start" x="15.5" y="-401.5" font-family="Helvetica,sans-Serif" font-size="10.00">IndividualChannelInterrupt</text>
<text text-anchor="start" x="15.5" y="-390.5" font-family="Helvetica,sans-Serif" font-size="10.00">Enable</text>
<text text-anchor="start" x="4.5" y="-375.5" font-family="Helvetica,sans-Serif" font-size="10.00">+</text>
<text text-anchor="start" x="15.5" y="-375.5" font-family="Helvetica,sans-Serif" font-size="10.00">IndividualChannelInterrupt</text>
<text text-anchor="start" x="15.5" y="-364.5" font-family="Helvetica,sans-Serif" font-size="10.00">Disable</text>
<text text-anchor="start" x="4.5" y="-349.5" font-family="Helvetica,sans-Serif" font-size="10.00">+</text>
<text text-anchor="start" x="15.5" y="-349.5" font-family="Helvetica,sans-Serif" font-size="10.00">IndividualChannelInterrupt</text>
<text text-anchor="start" x="15.5" y="-338.5" font-family="Helvetica,sans-Serif" font-size="10.00">FlagClear</text>
<text text-anchor="start" x="4.5" y="-323.5" font-family="Helvetica,sans-Serif" font-size="10.00">+</text>
<text text-anchor="start" x="15.5" y="-323.5" font-family="Helvetica,sans-Serif" font-size="10.00">IndividualChannelInterrupt</text>
<text text-anchor="start" x="15.5" y="-312.5" font-family="Helvetica,sans-Serif" font-size="10.00">PrioritySet</text>
<text text-anchor="start" x="4.5" y="-297.5" font-family="Helvetica,sans-Serif" font-size="10.00">+</text>
<text text-anchor="start" x="15.5" y="-297.5" font-family="Helvetica,sans-Serif" font-size="10.00">CorePowerEnable</text>
<text text-anchor="start" x="4.5" y="-282.5" font-family="Helvetica,sans-Serif" font-size="10.00">+</text>
<text text-anchor="start" x="15.5" y="-282.5" font-family="Helvetica,sans-Serif" font-size="10.00">SharedCorePowerEnable</text>
<text text-anchor="start" x="4.5" y="-267.5" font-family="Helvetica,sans-Serif" font-size="10.00">+</text>
<text text-anchor="start" x="15.5" y="-267.5" font-family="Helvetica,sans-Serif" font-size="10.00">PWMTriggerSourceSet</text>
<text text-anchor="start" x="70" y="-252.5" font-family="Helvetica,sans-Serif" font-size="10.00"> </text>
<polygon fill="#666666" stroke="#666666" points="0.5,-471.5 0.5,-471.5 143.5,-471.5 143.5,-471.5 0.5,-471.5"/>
<polygon fill="#666666" stroke="#666666" points="0.5,-262.5 0.5,-262.5 13.5,-262.5 13.5,-262.5 0.5,-262.5"/>
<polygon fill="#666666" stroke="#666666" points="13.5,-262.5 13.5,-262.5 143.5,-262.5 143.5,-262.5 13.5,-262.5"/>
<polygon fill="none" stroke="#666666" points="0,-246 0,-489 143,-489 143,-246 0,-246"/>
</a>
</g>
</g>
<!-- Node2&#45;&gt;Node1 -->
<g id="edge1_Node000001_Node000002" class="edge">
<title>Node2&#45;&gt;Node1</title>
<g id="a_edge1_Node000001_Node000002"><a xlink:title=" ">
<path fill="none" stroke="#63b8ff" d="M71.5,-245.95C71.5,-234.44 71.5,-222.81 71.5,-211.4"/>
<polygon fill="none" stroke="#63b8ff" points="71.5,-211.12 67.5,-205.12 71.5,-199.12 75.5,-205.12 71.5,-211.12"/>
</a>
</g>
<text text-anchor="middle" x="122.5" y="-220" font-family="Helvetica,sans-Serif" font-size="10.00" fill="grey"> +adcMulticoreInterface</text>
</g>
</g>
</svg>
