<?xml version="1.0" encoding="UTF-8" standalone="no"?>
<!DOCTYPE svg PUBLIC "-//W3C//DTD SVG 1.1//EN"
 "http://www.w3.org/Graphics/SVG/1.1/DTD/svg11.dtd">
<!-- Generated by graphviz version 2.44.1 (20200629.0846)
 -->
<!-- Title: PHASE_VALUES_s Pages: 1 -->
<svg width="598pt" height="374pt"
 viewBox="0.00 0.00 598.00 374.00" xmlns="http://www.w3.org/2000/svg" xmlns:xlink="http://www.w3.org/1999/xlink">
<g id="graph0" class="graph" transform="scale(1 1) rotate(0) translate(4 370)">
<title>PHASE_VALUES_s</title>
<!-- Node1 -->
<g id="Node000001" class="node">
<title>Node1</title>
<g id="a_Node000001"><a xlink:title=" ">
<polygon fill="#999999" stroke="transparent" points="325.5,-49 226.5,-49 226.5,0 325.5,0 325.5,-49"/>
<text text-anchor="start" x="232" y="-36.5" font-family="Helvetica,sans-Serif" font-size="10.00">PHASE_VALUES_s</text>
<text text-anchor="start" x="274.5" y="-21.5" font-family="Helvetica,sans-Serif" font-size="10.00"> </text>
<text text-anchor="start" x="274.5" y="-6.5" font-family="Helvetica,sans-Serif" font-size="10.00"> </text>
<polygon fill="#666666" stroke="#666666" points="227,-31.5 227,-31.5 326,-31.5 326,-31.5 227,-31.5"/>
<polygon fill="#666666" stroke="#666666" points="227,-16.5 227,-16.5 326,-16.5 326,-16.5 227,-16.5"/>
<polygon fill="none" stroke="#666666" points="226.5,0 226.5,-49 325.5,-49 325.5,0 226.5,0"/>
</a>
</g>
</g>
<!-- Node2 -->
<g id="Node000002" class="node">
<title>Node2</title>
<g id="a_Node000002"><a xlink:href="a00631.html" target="_top" xlink:title=" ">
<polygon fill="white" stroke="transparent" points="106,-341.5 0,-341.5 0,-131.5 106,-131.5 106,-341.5"/>
<text text-anchor="start" x="5" y="-329.5" font-family="Helvetica,sans-Serif" font-size="10.00">ANALOG_VALUES_s</text>
<text text-anchor="start" x="5" y="-314.5" font-family="Helvetica,sans-Serif" font-size="10.00">+</text>
<text text-anchor="start" x="17" y="-314.5" font-family="Helvetica,sans-Serif" font-size="10.00">Raw</text>
<text text-anchor="start" x="5" y="-299.5" font-family="Helvetica,sans-Serif" font-size="10.00">+</text>
<text text-anchor="start" x="17" y="-299.5" font-family="Helvetica,sans-Serif" font-size="10.00">Rectified</text>
<text text-anchor="start" x="5" y="-284.5" font-family="Helvetica,sans-Serif" font-size="10.00">+</text>
<text text-anchor="start" x="17" y="-284.5" font-family="Helvetica,sans-Serif" font-size="10.00">Rectified_Shift</text>
<text text-anchor="start" x="5" y="-269.5" font-family="Helvetica,sans-Serif" font-size="10.00">+</text>
<text text-anchor="start" x="17" y="-269.5" font-family="Helvetica,sans-Serif" font-size="10.00">RectifiedSum</text>
<text text-anchor="start" x="5" y="-254.5" font-family="Helvetica,sans-Serif" font-size="10.00">+</text>
<text text-anchor="start" x="17" y="-254.5" font-family="Helvetica,sans-Serif" font-size="10.00">Filtered</text>
<text text-anchor="start" x="5" y="-239.5" font-family="Helvetica,sans-Serif" font-size="10.00">+</text>
<text text-anchor="start" x="17" y="-239.5" font-family="Helvetica,sans-Serif" font-size="10.00">Vin_div_Averaged2</text>
<text text-anchor="start" x="5" y="-224.5" font-family="Helvetica,sans-Serif" font-size="10.00">+</text>
<text text-anchor="start" x="17" y="-224.5" font-family="Helvetica,sans-Serif" font-size="10.00">Vin_div_Averaged2</text>
<text text-anchor="start" x="17" y="-213.5" font-family="Helvetica,sans-Serif" font-size="10.00">_Freezed</text>
<text text-anchor="start" x="5" y="-198.5" font-family="Helvetica,sans-Serif" font-size="10.00">+</text>
<text text-anchor="start" x="17" y="-198.5" font-family="Helvetica,sans-Serif" font-size="10.00">FilterCounter</text>
<text text-anchor="start" x="5" y="-183.5" font-family="Helvetica,sans-Serif" font-size="10.00">+</text>
<text text-anchor="start" x="17" y="-183.5" font-family="Helvetica,sans-Serif" font-size="10.00">Offset</text>
<text text-anchor="start" x="5" y="-168.5" font-family="Helvetica,sans-Serif" font-size="10.00">+</text>
<text text-anchor="start" x="17" y="-168.5" font-family="Helvetica,sans-Serif" font-size="10.00">PreviousValue</text>
<text text-anchor="start" x="5" y="-153.5" font-family="Helvetica,sans-Serif" font-size="10.00">+</text>
<text text-anchor="start" x="17" y="-153.5" font-family="Helvetica,sans-Serif" font-size="10.00">Max_Peak</text>
<text text-anchor="start" x="51" y="-138.5" font-family="Helvetica,sans-Serif" font-size="10.00"> </text>
<polygon fill="#666666" stroke="#666666" points="0,-324.5 0,-324.5 106,-324.5 106,-324.5 0,-324.5"/>
<polygon fill="#666666" stroke="#666666" points="0,-148.5 0,-148.5 15,-148.5 15,-148.5 0,-148.5"/>
<polygon fill="#666666" stroke="#666666" points="15,-148.5 15,-148.5 106,-148.5 106,-148.5 15,-148.5"/>
<polygon fill="none" stroke="#666666" points="0,-131.5 0,-341.5 106,-341.5 106,-131.5 0,-131.5"/>
</a>
</g>
</g>
<!-- Node2&#45;&gt;Node1 -->
<g id="edge1_Node000001_Node000002" class="edge">
<title>Node2&#45;&gt;Node1</title>
<g id="a_edge1_Node000001_Node000002"><a xlink:title=" ">
<path fill="none" stroke="#63b8ff" d="M89.8,-131.08C102.85,-106.84 119.95,-83.37 142,-67 163.17,-51.28 190.41,-41.43 214.79,-35.3"/>
<polygon fill="none" stroke="#63b8ff" points="214.8,-35.3 219.74,-30.05 226.49,-32.58 221.55,-37.84 214.8,-35.3"/>
</a>
</g>
<text text-anchor="middle" x="179" y="-81" font-family="Helvetica,sans-Serif" font-size="10.00" fill="grey"> +Phase_Current</text>
<text text-anchor="middle" x="179" y="-70" font-family="Helvetica,sans-Serif" font-size="10.00" fill="grey">+Phase_Voltage</text>
</g>
<!-- Node3 -->
<g id="Node000003" class="node">
<title>Node3</title>
<g id="a_Node000003"><a xlink:href="a00643.html" target="_top" xlink:title=" ">
<polygon fill="white" stroke="transparent" points="271.5,-366 124.5,-366 124.5,-107 271.5,-107 271.5,-366"/>
<text text-anchor="start" x="130" y="-353.5" font-family="Helvetica,sans-Serif" font-size="10.00">CONTROL_STATUS_FLAGS_s</text>
<text text-anchor="start" x="130" y="-338.5" font-family="Helvetica,sans-Serif" font-size="10.00">+</text>
<text text-anchor="start" x="142" y="-338.5" font-family="Helvetica,sans-Serif" font-size="10.00">Soft_Start_Zero_Cross</text>
<text text-anchor="start" x="130" y="-323.5" font-family="Helvetica,sans-Serif" font-size="10.00">+</text>
<text text-anchor="start" x="142" y="-323.5" font-family="Helvetica,sans-Serif" font-size="10.00">VAC_Polarity_last</text>
<text text-anchor="start" x="130" y="-308.5" font-family="Helvetica,sans-Serif" font-size="10.00">+</text>
<text text-anchor="start" x="142" y="-308.5" font-family="Helvetica,sans-Serif" font-size="10.00">Relay</text>
<text text-anchor="start" x="130" y="-293.5" font-family="Helvetica,sans-Serif" font-size="10.00">+</text>
<text text-anchor="start" x="142" y="-293.5" font-family="Helvetica,sans-Serif" font-size="10.00">Stop</text>
<text text-anchor="start" x="130" y="-278.5" font-family="Helvetica,sans-Serif" font-size="10.00">+</text>
<text text-anchor="start" x="142" y="-278.5" font-family="Helvetica,sans-Serif" font-size="10.00">Fault</text>
<text text-anchor="start" x="130" y="-263.5" font-family="Helvetica,sans-Serif" font-size="10.00">+</text>
<text text-anchor="start" x="142" y="-263.5" font-family="Helvetica,sans-Serif" font-size="10.00">VAC_Polarity_Changed</text>
<text text-anchor="start" x="130" y="-248.5" font-family="Helvetica,sans-Serif" font-size="10.00">+</text>
<text text-anchor="start" x="142" y="-248.5" font-family="Helvetica,sans-Serif" font-size="10.00">VAC_Polarity_Changed_last</text>
<text text-anchor="start" x="130" y="-233.5" font-family="Helvetica,sans-Serif" font-size="10.00">+</text>
<text text-anchor="start" x="142" y="-233.5" font-family="Helvetica,sans-Serif" font-size="10.00">CCM</text>
<text text-anchor="start" x="130" y="-218.5" font-family="Helvetica,sans-Serif" font-size="10.00">+</text>
<text text-anchor="start" x="142" y="-218.5" font-family="Helvetica,sans-Serif" font-size="10.00">BurstModeDetected</text>
<text text-anchor="start" x="130" y="-203.5" font-family="Helvetica,sans-Serif" font-size="10.00">+</text>
<text text-anchor="start" x="142" y="-203.5" font-family="Helvetica,sans-Serif" font-size="10.00">BurstModeLatched</text>
<text text-anchor="start" x="130" y="-188.5" font-family="Helvetica,sans-Serif" font-size="10.00">+</text>
<text text-anchor="start" x="142" y="-188.5" font-family="Helvetica,sans-Serif" font-size="10.00">Reference_Changed</text>
<text text-anchor="start" x="130" y="-173.5" font-family="Helvetica,sans-Serif" font-size="10.00">+</text>
<text text-anchor="start" x="142" y="-173.5" font-family="Helvetica,sans-Serif" font-size="10.00">VariableGain</text>
<text text-anchor="start" x="130" y="-158.5" font-family="Helvetica,sans-Serif" font-size="10.00">+</text>
<text text-anchor="start" x="142" y="-158.5" font-family="Helvetica,sans-Serif" font-size="10.00">bits</text>
<text text-anchor="start" x="130" y="-143.5" font-family="Helvetica,sans-Serif" font-size="10.00">+</text>
<text text-anchor="start" x="142" y="-143.5" font-family="Helvetica,sans-Serif" font-size="10.00">value</text>
<text text-anchor="start" x="130" y="-128.5" font-family="Helvetica,sans-Serif" font-size="10.00">+</text>
<text text-anchor="start" x="142" y="-128.5" font-family="Helvetica,sans-Serif" font-size="10.00">@25</text>
<text text-anchor="start" x="196.5" y="-113.5" font-family="Helvetica,sans-Serif" font-size="10.00"> </text>
<polygon fill="#666666" stroke="#666666" points="125,-348.5 125,-348.5 272,-348.5 272,-348.5 125,-348.5"/>
<polygon fill="#666666" stroke="#666666" points="125,-123.5 125,-123.5 140,-123.5 140,-123.5 125,-123.5"/>
<polygon fill="#666666" stroke="#666666" points="140,-123.5 140,-123.5 272,-123.5 272,-123.5 140,-123.5"/>
<polygon fill="none" stroke="#666666" points="124.5,-107 124.5,-366 271.5,-366 271.5,-107 124.5,-107"/>
</a>
</g>
</g>
<!-- Node3&#45;&gt;Node1 -->
<g id="edge2_Node000001_Node000003" class="edge">
<title>Node3&#45;&gt;Node1</title>
<g id="a_edge2_Node000001_Node000003"><a xlink:title=" ">
<path fill="none" stroke="#63b8ff" d="M213.31,-106.78C217.61,-92.88 223.07,-79.33 230,-67 231.62,-64.11 233.52,-61.32 235.61,-58.64"/>
<polygon fill="none" stroke="#63b8ff" points="235.82,-58.4 236.83,-51.26 243.81,-49.46 242.8,-56.6 235.82,-58.4"/>
</a>
</g>
<text text-anchor="middle" x="281.5" y="-75.5" font-family="Helvetica,sans-Serif" font-size="10.00" fill="grey"> +Control_Status_Flags</text>
</g>
<!-- Node4 -->
<g id="Node000004" class="node">
<title>Node4</title>
<g id="a_Node000004"><a xlink:href="a00639.html" target="_top" xlink:title=" ">
<polygon fill="white" stroke="transparent" points="420,-343.5 290,-343.5 290,-129.5 420,-129.5 420,-343.5"/>
<text text-anchor="start" x="295" y="-331.5" font-family="Helvetica,sans-Serif" font-size="10.00">CONTROLLER_VALUES_s</text>
<text text-anchor="start" x="295" y="-316.5" font-family="Helvetica,sans-Serif" font-size="10.00">+</text>
<text text-anchor="start" x="307" y="-316.5" font-family="Helvetica,sans-Serif" font-size="10.00">PWM_Counter</text>
<text text-anchor="start" x="295" y="-301.5" font-family="Helvetica,sans-Serif" font-size="10.00">+</text>
<text text-anchor="start" x="307" y="-301.5" font-family="Helvetica,sans-Serif" font-size="10.00">Duty_Cycle_Set_Value</text>
<text text-anchor="start" x="295" y="-286.5" font-family="Helvetica,sans-Serif" font-size="10.00">+</text>
<text text-anchor="start" x="307" y="-286.5" font-family="Helvetica,sans-Serif" font-size="10.00">CCM_Counter</text>
<text text-anchor="start" x="295" y="-271.5" font-family="Helvetica,sans-Serif" font-size="10.00">+</text>
<text text-anchor="start" x="307" y="-271.5" font-family="Helvetica,sans-Serif" font-size="10.00">DFF_Value</text>
<text text-anchor="start" x="295" y="-256.5" font-family="Helvetica,sans-Serif" font-size="10.00">+</text>
<text text-anchor="start" x="307" y="-256.5" font-family="Helvetica,sans-Serif" font-size="10.00">IAC_Reference_l</text>
<text text-anchor="start" x="295" y="-241.5" font-family="Helvetica,sans-Serif" font-size="10.00">+</text>
<text text-anchor="start" x="307" y="-241.5" font-family="Helvetica,sans-Serif" font-size="10.00">IAC_Reference</text>
<text text-anchor="start" x="295" y="-226.5" font-family="Helvetica,sans-Serif" font-size="10.00">+</text>
<text text-anchor="start" x="307" y="-226.5" font-family="Helvetica,sans-Serif" font-size="10.00">BurstModeCycleCounter</text>
<text text-anchor="start" x="295" y="-211.5" font-family="Helvetica,sans-Serif" font-size="10.00">+</text>
<text text-anchor="start" x="307" y="-211.5" font-family="Helvetica,sans-Serif" font-size="10.00">BurstModeCyclesOff</text>
<text text-anchor="start" x="295" y="-196.5" font-family="Helvetica,sans-Serif" font-size="10.00">+</text>
<text text-anchor="start" x="307" y="-196.5" font-family="Helvetica,sans-Serif" font-size="10.00">BurstModeCyclesOn</text>
<text text-anchor="start" x="295" y="-181.5" font-family="Helvetica,sans-Serif" font-size="10.00">+</text>
<text text-anchor="start" x="307" y="-181.5" font-family="Helvetica,sans-Serif" font-size="10.00">ZeroCrossCounter</text>
<text text-anchor="start" x="295" y="-166.5" font-family="Helvetica,sans-Serif" font-size="10.00">+</text>
<text text-anchor="start" x="307" y="-166.5" font-family="Helvetica,sans-Serif" font-size="10.00">VariableGainCounter</text>
<text text-anchor="start" x="295" y="-151.5" font-family="Helvetica,sans-Serif" font-size="10.00">+</text>
<text text-anchor="start" x="307" y="-151.5" font-family="Helvetica,sans-Serif" font-size="10.00">Control_Freeze</text>
<text text-anchor="start" x="353" y="-136.5" font-family="Helvetica,sans-Serif" font-size="10.00"> </text>
<polygon fill="#666666" stroke="#666666" points="290,-326.5 290,-326.5 420,-326.5 420,-326.5 290,-326.5"/>
<polygon fill="#666666" stroke="#666666" points="290,-146.5 290,-146.5 305,-146.5 305,-146.5 290,-146.5"/>
<polygon fill="#666666" stroke="#666666" points="305,-146.5 305,-146.5 420,-146.5 420,-146.5 305,-146.5"/>
<polygon fill="none" stroke="#666666" points="290,-129.5 290,-343.5 420,-343.5 420,-129.5 290,-129.5"/>
</a>
</g>
</g>
<!-- Node4&#45;&gt;Node1 -->
<g id="edge3_Node000001_Node000004" class="edge">
<title>Node4&#45;&gt;Node1</title>
<g id="a_edge3_Node000001_Node000004"><a xlink:title=" ">
<path fill="none" stroke="#63b8ff" d="M354.27,-129.12C350.59,-107.48 344.07,-85.65 333,-67 331.06,-63.74 328.76,-60.66 326.21,-57.76"/>
<polygon fill="none" stroke="#63b8ff" points="325.95,-57.51 318.86,-56.2 317.35,-49.15 324.44,-50.46 325.95,-57.51"/>
</a>
</g>
<text text-anchor="middle" x="385" y="-75.5" font-family="Helvetica,sans-Serif" font-size="10.00" fill="grey"> +Controller_Values</text>
</g>
<!-- Node5 -->
<g id="Node000005" class="node">
<title>Node5</title>
<g id="a_Node000005"><a xlink:href="a00655.html" target="_top" xlink:title=" ">
<polygon fill="white" stroke="transparent" points="590,-341.5 438,-341.5 438,-131.5 590,-131.5 590,-341.5"/>
<text text-anchor="start" x="443" y="-329.5" font-family="Helvetica,sans-Serif" font-size="10.00">ACCONTROL_PHASE_STATUS</text>
<text text-anchor="start" x="489.5" y="-318.5" font-family="Helvetica,sans-Serif" font-size="10.00">_FLAGS_s</text>
<text text-anchor="start" x="454" y="-303.5" font-family="Helvetica,sans-Serif" font-size="10.00">+</text>
<text text-anchor="start" x="477" y="-303.5" font-family="Helvetica,sans-Serif" font-size="10.00">VACdrop</text>
<text text-anchor="start" x="454" y="-288.5" font-family="Helvetica,sans-Serif" font-size="10.00">+</text>
<text text-anchor="start" x="477" y="-288.5" font-family="Helvetica,sans-Serif" font-size="10.00">VDC_Input_Voltage</text>
<text text-anchor="start" x="454" y="-273.5" font-family="Helvetica,sans-Serif" font-size="10.00">+</text>
<text text-anchor="start" x="477" y="-273.5" font-family="Helvetica,sans-Serif" font-size="10.00">VAC_OK</text>
<text text-anchor="start" x="454" y="-258.5" font-family="Helvetica,sans-Serif" font-size="10.00">+</text>
<text text-anchor="start" x="477" y="-258.5" font-family="Helvetica,sans-Serif" font-size="10.00">Zero_Cross_Range</text>
<text text-anchor="start" x="454" y="-243.5" font-family="Helvetica,sans-Serif" font-size="10.00">+</text>
<text text-anchor="start" x="477" y="-243.5" font-family="Helvetica,sans-Serif" font-size="10.00">VAC_Polarity</text>
<text text-anchor="start" x="454" y="-228.5" font-family="Helvetica,sans-Serif" font-size="10.00">+</text>
<text text-anchor="start" x="477" y="-228.5" font-family="Helvetica,sans-Serif" font-size="10.00">nu5</text>
<text text-anchor="start" x="454" y="-213.5" font-family="Helvetica,sans-Serif" font-size="10.00">+</text>
<text text-anchor="start" x="477" y="-213.5" font-family="Helvetica,sans-Serif" font-size="10.00">nu6</text>
<text text-anchor="start" x="454" y="-198.5" font-family="Helvetica,sans-Serif" font-size="10.00">+</text>
<text text-anchor="start" x="477" y="-198.5" font-family="Helvetica,sans-Serif" font-size="10.00">nu7</text>
<text text-anchor="start" x="454" y="-183.5" font-family="Helvetica,sans-Serif" font-size="10.00">+</text>
<text text-anchor="start" x="477" y="-183.5" font-family="Helvetica,sans-Serif" font-size="10.00">bits</text>
<text text-anchor="start" x="454" y="-168.5" font-family="Helvetica,sans-Serif" font-size="10.00">+</text>
<text text-anchor="start" x="477" y="-168.5" font-family="Helvetica,sans-Serif" font-size="10.00">value</text>
<text text-anchor="start" x="454" y="-153.5" font-family="Helvetica,sans-Serif" font-size="10.00">+</text>
<text text-anchor="start" x="477" y="-153.5" font-family="Helvetica,sans-Serif" font-size="10.00">@28</text>
<text text-anchor="start" x="512" y="-138.5" font-family="Helvetica,sans-Serif" font-size="10.00"> </text>
<polygon fill="#666666" stroke="#666666" points="438,-313.5 438,-313.5 590,-313.5 590,-313.5 438,-313.5"/>
<polygon fill="#666666" stroke="#666666" points="438,-148.5 438,-148.5 475,-148.5 475,-148.5 438,-148.5"/>
<polygon fill="#666666" stroke="#666666" points="475,-148.5 475,-148.5 590,-148.5 590,-148.5 475,-148.5"/>
<polygon fill="none" stroke="#666666" points="438,-131.5 438,-341.5 590,-341.5 590,-131.5 438,-131.5"/>
</a>
</g>
</g>
<!-- Node5&#45;&gt;Node1 -->
<g id="edge4_Node000001_Node000005" class="edge">
<title>Node5&#45;&gt;Node1</title>
<g id="a_edge4_Node000001_Node000005"><a xlink:title=" ">
<path fill="none" stroke="#63b8ff" d="M480.39,-131.29C468.41,-107.34 452.59,-83.96 432,-67 405.64,-45.29 369.04,-34.85 337.92,-29.86"/>
<polygon fill="none" stroke="#63b8ff" points="337.73,-29.84 331.23,-32.95 325.85,-28.15 332.35,-25.03 337.73,-29.84"/>
</a>
</g>
<text text-anchor="start" x="453" y="-81" font-family="Helvetica,sans-Serif" font-size="10.00" fill="grey"> +ACcontrol_Status</text>
<text text-anchor="middle" x="496" y="-70" font-family="Helvetica,sans-Serif" font-size="10.00" fill="grey">_Flags_perPhase</text>
</g>
</g>
</svg>
