<?xml version="1.0" encoding="UTF-8" standalone="no"?>
<!DOCTYPE svg PUBLIC "-//W3C//DTD SVG 1.1//EN"
 "http://www.w3.org/Graphics/SVG/1.1/DTD/svg11.dtd">
<!-- Generated by graphviz version 2.44.1 (20200629.0846)
 -->
<!-- Title: Primary_Data_Handling Pages: 1 -->
<svg width="121pt" height="72pt"
 viewBox="0.00 0.00 121.00 72.00" xmlns="http://www.w3.org/2000/svg" xmlns:xlink="http://www.w3.org/1999/xlink">

<svg id="main" version="1.1" xmlns="http://www.w3.org/2000/svg" xmlns:xlink="http://www.w3.org/1999/xlink" xml:space="preserve">

<style type="text/css"><![CDATA[
.node, .edge {opacity: 0.7;}
.node.selected, .edge.selected {opacity: 1;}
.edge:hover path { stroke: red; }
.edge:hover polygon { stroke: red; fill: red; }
]]></style>
<script type="application/ecmascript" xlink:href="svg.min.js"/>
<svg id="graph" class="graph">
<g id="graph0" class="graph" transform="scale(1 1) rotate(0) translate(4 68)">
<title>Primary_Data_Handling</title>
<!-- Node1 -->
<g id="Node000001" class="node">
<title>Node1</title>
<g id="a_Node000001"><a xlink:title=" ">
<polygon fill="#999999" stroke="transparent" points="113,-64 0,-64 0,0 113,0 113,-64"/>
<text text-anchor="start" x="5.5" y="-52" font-family="Helvetica,sans-Serif" font-size="10.00">Primary_Data_Handling</text>
<text text-anchor="start" x="9.5" y="-37" font-family="Helvetica,sans-Serif" font-size="10.00">+</text>
<text text-anchor="start" x="25.5" y="-37" font-family="Helvetica,sans-Serif" font-size="10.00">Data</text>
<text text-anchor="start" x="9.5" y="-22" font-family="Helvetica,sans-Serif" font-size="10.00">+</text>
<text text-anchor="start" x="25.5" y="-22" font-family="Helvetica,sans-Serif" font-size="10.00">DataReceivedOK</text>
<text text-anchor="start" x="55" y="-7" font-family="Helvetica,sans-Serif" font-size="10.00"> </text>
<polygon fill="#666666" stroke="#666666" points="0.5,-47 0.5,-47 113.5,-47 113.5,-47 0.5,-47"/>
<polygon fill="#666666" stroke="#666666" points="0.5,-17 0.5,-17 23.5,-17 23.5,-17 0.5,-17"/>
<polygon fill="#666666" stroke="#666666" points="23.5,-17 23.5,-17 113.5,-17 113.5,-17 23.5,-17"/>
<polygon fill="none" stroke="#666666" points="0,0 0,-64 113,-64 113,0 0,0"/>
</a>
</g>
</g>
</g>
</svg>
</svg>

<style type='text/css'>
<![CDATA[
[data-mouse-over-selected='false'] { opacity: 0.7; }
[data-mouse-over-selected='true']  { opacity: 1.0; }
]]>
</style>
<script type="application/ecmascript"><![CDATA[
document.addEventListener('DOMContentLoaded', (event) => {
  highlightEdges();
  highlightAdjacentNodes();
});
]]></script>
</svg>
