<?xml version="1.0" encoding="UTF-8" standalone="no"?>
<!DOCTYPE svg PUBLIC "-//W3C//DTD SVG 1.1//EN"
 "http://www.w3.org/Graphics/SVG/1.1/DTD/svg11.dtd">
<!-- Generated by graphviz version 8.1.0 (20230707.0739)
 -->
<!-- Title: PHASE_VALUES_s Pages: 1 -->
<svg width="594pt" height="396pt"
 viewBox="0.00 0.00 594.00 396.00" xmlns="http://www.w3.org/2000/svg" xmlns:xlink="http://www.w3.org/1999/xlink">
<g id="graph0" class="graph" transform="scale(1 1) rotate(0) translate(4 392)">
<title>PHASE_VALUES_s</title>
<!-- Node1 -->
<g id="Node000001" class="node">
<title>Node1</title>
<g id="a_Node000001"><a xlink:title=" ">
<polygon fill="#999999" stroke="none" points="323.5,-52 225.5,-52 225.5,0 323.5,0 323.5,-52"/>
<text text-anchor="start" x="230.25" y="-38.5" font-family="Helvetica,sans-Serif" font-size="10.00">PHASE_VALUES_s</text>
<text text-anchor="start" x="273" y="-22.5" font-family="Helvetica,sans-Serif" font-size="10.00"> </text>
<text text-anchor="start" x="273" y="-6.5" font-family="Helvetica,sans-Serif" font-size="10.00"> </text>
<polygon fill="#666666" stroke="#666666" points="225.5,-34 225.5,-34 323.5,-34 323.5,-34 225.5,-34"/>
<polygon fill="#666666" stroke="#666666" points="225.5,-18 225.5,-18 323.5,-18 323.5,-18 225.5,-18"/>
<polygon fill="none" stroke="#666666" points="225.5,0 225.5,-52 323.5,-52 323.5,0 225.5,0"/>
</a>
</g>
</g>
<!-- Node2 -->
<g id="Node000002" class="node">
<title>Node2</title>
<g id="a_Node000002"><a xlink:href="a00625.html" target="_top" xlink:title=" ">
<polygon fill="white" stroke="none" points="105,-362 0,-362 0,-138 105,-138 105,-362"/>
<text text-anchor="start" x="4.88" y="-348.5" font-family="Helvetica,sans-Serif" font-size="10.00">ANALOG_VALUES_s</text>
<text text-anchor="start" x="5.5" y="-332.5" font-family="Helvetica,sans-Serif" font-size="10.00">+</text>
<text text-anchor="start" x="17" y="-332.5" font-family="Helvetica,sans-Serif" font-size="10.00">Raw</text>
<text text-anchor="start" x="5.5" y="-316.5" font-family="Helvetica,sans-Serif" font-size="10.00">+</text>
<text text-anchor="start" x="17" y="-316.5" font-family="Helvetica,sans-Serif" font-size="10.00">Rectified</text>
<text text-anchor="start" x="5.5" y="-300.5" font-family="Helvetica,sans-Serif" font-size="10.00">+</text>
<text text-anchor="start" x="17" y="-300.5" font-family="Helvetica,sans-Serif" font-size="10.00">Rectified_Shift</text>
<text text-anchor="start" x="5.5" y="-284.5" font-family="Helvetica,sans-Serif" font-size="10.00">+</text>
<text text-anchor="start" x="17" y="-284.5" font-family="Helvetica,sans-Serif" font-size="10.00">RectifiedSum</text>
<text text-anchor="start" x="5.5" y="-268.5" font-family="Helvetica,sans-Serif" font-size="10.00">+</text>
<text text-anchor="start" x="17" y="-268.5" font-family="Helvetica,sans-Serif" font-size="10.00">Filtered</text>
<text text-anchor="start" x="5.5" y="-252.5" font-family="Helvetica,sans-Serif" font-size="10.00">+</text>
<text text-anchor="start" x="17" y="-252.5" font-family="Helvetica,sans-Serif" font-size="10.00">Vin_div_Averaged2</text>
<text text-anchor="start" x="5.5" y="-236.5" font-family="Helvetica,sans-Serif" font-size="10.00">+</text>
<text text-anchor="start" x="17" y="-236.5" font-family="Helvetica,sans-Serif" font-size="10.00">Vin_div_Averaged2</text>
<text text-anchor="start" x="17" y="-224.5" font-family="Helvetica,sans-Serif" font-size="10.00">_Freezed</text>
<text text-anchor="start" x="5.5" y="-208.5" font-family="Helvetica,sans-Serif" font-size="10.00">+</text>
<text text-anchor="start" x="17" y="-208.5" font-family="Helvetica,sans-Serif" font-size="10.00">FilterCounter</text>
<text text-anchor="start" x="5.5" y="-192.5" font-family="Helvetica,sans-Serif" font-size="10.00">+</text>
<text text-anchor="start" x="17" y="-192.5" font-family="Helvetica,sans-Serif" font-size="10.00">Offset</text>
<text text-anchor="start" x="5.5" y="-176.5" font-family="Helvetica,sans-Serif" font-size="10.00">+</text>
<text text-anchor="start" x="17" y="-176.5" font-family="Helvetica,sans-Serif" font-size="10.00">PreviousValue</text>
<text text-anchor="start" x="5.5" y="-160.5" font-family="Helvetica,sans-Serif" font-size="10.00">+</text>
<text text-anchor="start" x="17" y="-160.5" font-family="Helvetica,sans-Serif" font-size="10.00">Max_Peak</text>
<text text-anchor="start" x="51" y="-144.5" font-family="Helvetica,sans-Serif" font-size="10.00"> </text>
<polygon fill="#666666" stroke="#666666" points="0,-344 0,-344 105,-344 105,-344 0,-344"/>
<polygon fill="#666666" stroke="#666666" points="0,-156 0,-156 15,-156 15,-156 0,-156"/>
<polygon fill="#666666" stroke="#666666" points="15,-156 15,-156 105,-156 105,-156 15,-156"/>
<polygon fill="none" stroke="#666666" points="0,-138 0,-362 105,-362 105,-138 0,-138"/>
</a>
</g>
</g>
<!-- Node2&#45;&gt;Node1 -->
<g id="edge1_Node000001_Node000002" class="edge">
<title>Node2&#45;&gt;Node1</title>
<g id="a_edge1_Node000001_Node000002"><a xlink:title=" ">
<path fill="none" stroke="#63b8ff" d="M87.21,-138.31C99.88,-112.71 116.77,-87.79 139,-70 160.18,-53.05 188.16,-42.72 213.19,-36.46"/>
<polygon fill="none" stroke="#63b8ff" points="213,-36.51 217.95,-31.27 224.69,-33.83 219.74,-39.07 213,-36.51"/>
</a>
</g>
<text text-anchor="middle" x="176.25" y="-84.5" font-family="Helvetica,sans-Serif" font-size="10.00" fill="grey"> +Phase_Current</text>
<text text-anchor="middle" x="176.25" y="-72.5" font-family="Helvetica,sans-Serif" font-size="10.00" fill="grey">+Phase_Voltage</text>
</g>
<!-- Node3 -->
<g id="Node000003" class="node">
<title>Node3</title>
<g id="a_Node000003"><a xlink:href="a00637.html" target="_top" xlink:title=" ">
<polygon fill="white" stroke="none" points="269.5,-388 123.5,-388 123.5,-112 269.5,-112 269.5,-388"/>
<text text-anchor="start" x="128.25" y="-374.5" font-family="Helvetica,sans-Serif" font-size="10.00">CONTROL_STATUS_FLAGS_s</text>
<text text-anchor="start" x="128.5" y="-358.5" font-family="Helvetica,sans-Serif" font-size="10.00">+</text>
<text text-anchor="start" x="139.5" y="-358.5" font-family="Helvetica,sans-Serif" font-size="10.00">Soft_Start_Zero_Cross</text>
<text text-anchor="start" x="128.5" y="-342.5" font-family="Helvetica,sans-Serif" font-size="10.00">+</text>
<text text-anchor="start" x="139.5" y="-342.5" font-family="Helvetica,sans-Serif" font-size="10.00">VAC_Polarity_last</text>
<text text-anchor="start" x="128.5" y="-326.5" font-family="Helvetica,sans-Serif" font-size="10.00">+</text>
<text text-anchor="start" x="139.5" y="-326.5" font-family="Helvetica,sans-Serif" font-size="10.00">Relay</text>
<text text-anchor="start" x="128.5" y="-310.5" font-family="Helvetica,sans-Serif" font-size="10.00">+</text>
<text text-anchor="start" x="139.5" y="-310.5" font-family="Helvetica,sans-Serif" font-size="10.00">Stop</text>
<text text-anchor="start" x="128.5" y="-294.5" font-family="Helvetica,sans-Serif" font-size="10.00">+</text>
<text text-anchor="start" x="139.5" y="-294.5" font-family="Helvetica,sans-Serif" font-size="10.00">Fault</text>
<text text-anchor="start" x="128.5" y="-278.5" font-family="Helvetica,sans-Serif" font-size="10.00">+</text>
<text text-anchor="start" x="139.5" y="-278.5" font-family="Helvetica,sans-Serif" font-size="10.00">VAC_Polarity_Changed</text>
<text text-anchor="start" x="128.5" y="-262.5" font-family="Helvetica,sans-Serif" font-size="10.00">+</text>
<text text-anchor="start" x="139.5" y="-262.5" font-family="Helvetica,sans-Serif" font-size="10.00">VAC_Polarity_Changed_last</text>
<text text-anchor="start" x="128.5" y="-246.5" font-family="Helvetica,sans-Serif" font-size="10.00">+</text>
<text text-anchor="start" x="139.5" y="-246.5" font-family="Helvetica,sans-Serif" font-size="10.00">CCM</text>
<text text-anchor="start" x="128.5" y="-230.5" font-family="Helvetica,sans-Serif" font-size="10.00">+</text>
<text text-anchor="start" x="139.5" y="-230.5" font-family="Helvetica,sans-Serif" font-size="10.00">BurstModeDetected</text>
<text text-anchor="start" x="128.5" y="-214.5" font-family="Helvetica,sans-Serif" font-size="10.00">+</text>
<text text-anchor="start" x="139.5" y="-214.5" font-family="Helvetica,sans-Serif" font-size="10.00">BurstModeLatched</text>
<text text-anchor="start" x="128.5" y="-198.5" font-family="Helvetica,sans-Serif" font-size="10.00">+</text>
<text text-anchor="start" x="139.5" y="-198.5" font-family="Helvetica,sans-Serif" font-size="10.00">Reference_Changed</text>
<text text-anchor="start" x="128.5" y="-182.5" font-family="Helvetica,sans-Serif" font-size="10.00">+</text>
<text text-anchor="start" x="139.5" y="-182.5" font-family="Helvetica,sans-Serif" font-size="10.00">VariableGain</text>
<text text-anchor="start" x="128.5" y="-166.5" font-family="Helvetica,sans-Serif" font-size="10.00">+</text>
<text text-anchor="start" x="139.5" y="-166.5" font-family="Helvetica,sans-Serif" font-size="10.00">bits</text>
<text text-anchor="start" x="128.5" y="-150.5" font-family="Helvetica,sans-Serif" font-size="10.00">+</text>
<text text-anchor="start" x="139.5" y="-150.5" font-family="Helvetica,sans-Serif" font-size="10.00">value</text>
<text text-anchor="start" x="128.5" y="-134.5" font-family="Helvetica,sans-Serif" font-size="10.00">+</text>
<text text-anchor="start" x="139.5" y="-134.5" font-family="Helvetica,sans-Serif" font-size="10.00">@25</text>
<text text-anchor="start" x="195" y="-118.5" font-family="Helvetica,sans-Serif" font-size="10.00"> </text>
<polygon fill="#666666" stroke="#666666" points="123.5,-370 123.5,-370 269.5,-370 269.5,-370 123.5,-370"/>
<polygon fill="#666666" stroke="#666666" points="123.5,-130 123.5,-130 137.5,-130 137.5,-130 123.5,-130"/>
<polygon fill="#666666" stroke="#666666" points="137.5,-130 137.5,-130 269.5,-130 269.5,-130 137.5,-130"/>
<polygon fill="none" stroke="#666666" points="123.5,-112 123.5,-388 269.5,-388 269.5,-112 123.5,-112"/>
</a>
</g>
</g>
<!-- Node3&#45;&gt;Node1 -->
<g id="edge2_Node000001_Node000003" class="edge">
<title>Node3&#45;&gt;Node1</title>
<g id="a_edge2_Node000001_Node000003"><a xlink:title=" ">
<path fill="none" stroke="#63b8ff" d="M210.63,-112.37C214.97,-97.58 220.57,-83.15 227.75,-70 229.32,-67.12 231.16,-64.33 233.18,-61.65"/>
<polygon fill="none" stroke="#63b8ff" points="233.23,-61.59 234.16,-54.44 241.12,-52.54 240.19,-59.69 233.23,-61.59"/>
</a>
</g>
<text text-anchor="middle" x="278.88" y="-78.5" font-family="Helvetica,sans-Serif" font-size="10.00" fill="grey"> +Control_Status_Flags</text>
</g>
<!-- Node4 -->
<g id="Node000004" class="node">
<title>Node4</title>
<g id="a_Node000004"><a xlink:href="a00633.html" target="_top" xlink:title=" ">
<polygon fill="white" stroke="none" points="417,-364 288,-364 288,-136 417,-136 417,-364"/>
<text text-anchor="start" x="292.88" y="-350.5" font-family="Helvetica,sans-Serif" font-size="10.00">CONTROLLER_VALUES_s</text>
<text text-anchor="start" x="293.5" y="-334.5" font-family="Helvetica,sans-Serif" font-size="10.00">+</text>
<text text-anchor="start" x="305" y="-334.5" font-family="Helvetica,sans-Serif" font-size="10.00">PWM_Counter</text>
<text text-anchor="start" x="293.5" y="-318.5" font-family="Helvetica,sans-Serif" font-size="10.00">+</text>
<text text-anchor="start" x="305" y="-318.5" font-family="Helvetica,sans-Serif" font-size="10.00">Duty_Cycle_Set_Value</text>
<text text-anchor="start" x="293.5" y="-302.5" font-family="Helvetica,sans-Serif" font-size="10.00">+</text>
<text text-anchor="start" x="305" y="-302.5" font-family="Helvetica,sans-Serif" font-size="10.00">CCM_Counter</text>
<text text-anchor="start" x="293.5" y="-286.5" font-family="Helvetica,sans-Serif" font-size="10.00">+</text>
<text text-anchor="start" x="305" y="-286.5" font-family="Helvetica,sans-Serif" font-size="10.00">DFF_Value</text>
<text text-anchor="start" x="293.5" y="-270.5" font-family="Helvetica,sans-Serif" font-size="10.00">+</text>
<text text-anchor="start" x="305" y="-270.5" font-family="Helvetica,sans-Serif" font-size="10.00">IAC_Reference_l</text>
<text text-anchor="start" x="293.5" y="-254.5" font-family="Helvetica,sans-Serif" font-size="10.00">+</text>
<text text-anchor="start" x="305" y="-254.5" font-family="Helvetica,sans-Serif" font-size="10.00">IAC_Reference</text>
<text text-anchor="start" x="293.5" y="-238.5" font-family="Helvetica,sans-Serif" font-size="10.00">+</text>
<text text-anchor="start" x="305" y="-238.5" font-family="Helvetica,sans-Serif" font-size="10.00">BurstModeCycleCounter</text>
<text text-anchor="start" x="293.5" y="-222.5" font-family="Helvetica,sans-Serif" font-size="10.00">+</text>
<text text-anchor="start" x="305" y="-222.5" font-family="Helvetica,sans-Serif" font-size="10.00">BurstModeCyclesOff</text>
<text text-anchor="start" x="293.5" y="-206.5" font-family="Helvetica,sans-Serif" font-size="10.00">+</text>
<text text-anchor="start" x="305" y="-206.5" font-family="Helvetica,sans-Serif" font-size="10.00">BurstModeCyclesOn</text>
<text text-anchor="start" x="293.5" y="-190.5" font-family="Helvetica,sans-Serif" font-size="10.00">+</text>
<text text-anchor="start" x="305" y="-190.5" font-family="Helvetica,sans-Serif" font-size="10.00">ZeroCrossCounter</text>
<text text-anchor="start" x="293.5" y="-174.5" font-family="Helvetica,sans-Serif" font-size="10.00">+</text>
<text text-anchor="start" x="305" y="-174.5" font-family="Helvetica,sans-Serif" font-size="10.00">VariableGainCounter</text>
<text text-anchor="start" x="293.5" y="-158.5" font-family="Helvetica,sans-Serif" font-size="10.00">+</text>
<text text-anchor="start" x="305" y="-158.5" font-family="Helvetica,sans-Serif" font-size="10.00">Control_Freeze</text>
<text text-anchor="start" x="351" y="-142.5" font-family="Helvetica,sans-Serif" font-size="10.00"> </text>
<polygon fill="#666666" stroke="#666666" points="288,-346 288,-346 417,-346 417,-346 288,-346"/>
<polygon fill="#666666" stroke="#666666" points="288,-154 288,-154 303,-154 303,-154 288,-154"/>
<polygon fill="#666666" stroke="#666666" points="303,-154 303,-154 417,-154 417,-154 303,-154"/>
<polygon fill="none" stroke="#666666" points="288,-136 288,-364 417,-364 417,-136 288,-136"/>
</a>
</g>
</g>
<!-- Node4&#45;&gt;Node1 -->
<g id="edge3_Node000001_Node000004" class="edge">
<title>Node4&#45;&gt;Node1</title>
<g id="a_edge3_Node000001_Node000004"><a xlink:title=" ">
<path fill="none" stroke="#63b8ff" d="M352.31,-136.26C348.59,-113.24 341.92,-89.98 330.5,-70 328.68,-66.81 326.51,-63.77 324.11,-60.9"/>
<polygon fill="none" stroke="#63b8ff" points="324.21,-61 317.15,-59.52 315.81,-52.43 322.87,-53.92 324.21,-61"/>
</a>
</g>
<text text-anchor="middle" x="383.25" y="-78.5" font-family="Helvetica,sans-Serif" font-size="10.00" fill="grey"> +Controller_Values</text>
</g>
<!-- Node5 -->
<g id="Node000005" class="node">
<title>Node5</title>
<g id="a_Node000005"><a xlink:href="a00649.html" target="_top" xlink:title=" ">
<polygon fill="white" stroke="none" points="586,-362 435,-362 435,-138 586,-138 586,-362"/>
<text text-anchor="start" x="440" y="-348.5" font-family="Helvetica,sans-Serif" font-size="10.00">ACCONTROL_PHASE_STATUS</text>
<text text-anchor="start" x="486.5" y="-336.5" font-family="Helvetica,sans-Serif" font-size="10.00">_FLAGS_s</text>
<text text-anchor="start" x="451" y="-320.5" font-family="Helvetica,sans-Serif" font-size="10.00">+</text>
<text text-anchor="start" x="473" y="-320.5" font-family="Helvetica,sans-Serif" font-size="10.00">VACdrop</text>
<text text-anchor="start" x="451" y="-304.5" font-family="Helvetica,sans-Serif" font-size="10.00">+</text>
<text text-anchor="start" x="473" y="-304.5" font-family="Helvetica,sans-Serif" font-size="10.00">VDC_Input_Voltage</text>
<text text-anchor="start" x="451" y="-288.5" font-family="Helvetica,sans-Serif" font-size="10.00">+</text>
<text text-anchor="start" x="473" y="-288.5" font-family="Helvetica,sans-Serif" font-size="10.00">VAC_OK</text>
<text text-anchor="start" x="451" y="-272.5" font-family="Helvetica,sans-Serif" font-size="10.00">+</text>
<text text-anchor="start" x="473" y="-272.5" font-family="Helvetica,sans-Serif" font-size="10.00">Zero_Cross_Range</text>
<text text-anchor="start" x="451" y="-256.5" font-family="Helvetica,sans-Serif" font-size="10.00">+</text>
<text text-anchor="start" x="473" y="-256.5" font-family="Helvetica,sans-Serif" font-size="10.00">VAC_Polarity</text>
<text text-anchor="start" x="451" y="-240.5" font-family="Helvetica,sans-Serif" font-size="10.00">+</text>
<text text-anchor="start" x="473" y="-240.5" font-family="Helvetica,sans-Serif" font-size="10.00">nu5</text>
<text text-anchor="start" x="451" y="-224.5" font-family="Helvetica,sans-Serif" font-size="10.00">+</text>
<text text-anchor="start" x="473" y="-224.5" font-family="Helvetica,sans-Serif" font-size="10.00">nu6</text>
<text text-anchor="start" x="451" y="-208.5" font-family="Helvetica,sans-Serif" font-size="10.00">+</text>
<text text-anchor="start" x="473" y="-208.5" font-family="Helvetica,sans-Serif" font-size="10.00">nu7</text>
<text text-anchor="start" x="451" y="-192.5" font-family="Helvetica,sans-Serif" font-size="10.00">+</text>
<text text-anchor="start" x="473" y="-192.5" font-family="Helvetica,sans-Serif" font-size="10.00">bits</text>
<text text-anchor="start" x="451" y="-176.5" font-family="Helvetica,sans-Serif" font-size="10.00">+</text>
<text text-anchor="start" x="473" y="-176.5" font-family="Helvetica,sans-Serif" font-size="10.00">value</text>
<text text-anchor="start" x="451" y="-160.5" font-family="Helvetica,sans-Serif" font-size="10.00">+</text>
<text text-anchor="start" x="473" y="-160.5" font-family="Helvetica,sans-Serif" font-size="10.00">@28</text>
<text text-anchor="start" x="509" y="-144.5" font-family="Helvetica,sans-Serif" font-size="10.00"> </text>
<polygon fill="#666666" stroke="#666666" points="435,-332 435,-332 586,-332 586,-332 435,-332"/>
<polygon fill="#666666" stroke="#666666" points="435,-156 435,-156 471,-156 471,-156 435,-156"/>
<polygon fill="#666666" stroke="#666666" points="471,-156 471,-156 586,-156 586,-156 471,-156"/>
<polygon fill="none" stroke="#666666" points="435,-138 435,-362 586,-362 586,-138 435,-138"/>
</a>
</g>
</g>
<!-- Node5&#45;&gt;Node1 -->
<g id="edge4_Node000001_Node000005" class="edge">
<title>Node5&#45;&gt;Node1</title>
<g id="a_edge4_Node000001_Node000005"><a xlink:title=" ">
<path fill="none" stroke="#63b8ff" d="M478.99,-138.07C467.3,-112.79 451.54,-88.08 430.5,-70 404.28,-47.47 367.22,-36.67 335.81,-31.52"/>
<polygon fill="none" stroke="#63b8ff" points="335.96,-31.54 329.45,-34.64 324.08,-29.83 330.59,-26.73 335.96,-31.54"/>
</a>
</g>
<text text-anchor="start" x="451.5" y="-84.5" font-family="Helvetica,sans-Serif" font-size="10.00" fill="grey"> +ACcontrol_Status</text>
<text text-anchor="middle" x="494.25" y="-72.5" font-family="Helvetica,sans-Serif" font-size="10.00" fill="grey">_Flags_perPhase</text>
</g>
</g>
</svg>
