<?xml version="1.0" encoding="UTF-8" standalone="no"?>
<!DOCTYPE svg PUBLIC "-//W3C//DTD SVG 1.1//EN"
 "http://www.w3.org/Graphics/SVG/1.1/DTD/svg11.dtd">
<!-- Generated by graphviz version 8.1.0 (20230707.0739)
 -->
<!-- Title: CONTROL_STATUS_FLAGS_s Pages: 1 -->
<svg width="154pt" height="284pt"
 viewBox="0.00 0.00 154.00 284.00" xmlns="http://www.w3.org/2000/svg" xmlns:xlink="http://www.w3.org/1999/xlink">
<g id="graph0" class="graph" transform="scale(1 1) rotate(0) translate(4 280)">
<title>CONTROL_STATUS_FLAGS_s</title>
<!-- Node1 -->
<g id="Node000001" class="node">
<title>Node1</title>
<g id="a_Node000001"><a xlink:title=" ">
<polygon fill="#999999" stroke="none" points="146,-276 0,-276 0,0 146,0 146,-276"/>
<text text-anchor="start" x="4.75" y="-262.5" font-family="Helvetica,sans-Serif" font-size="10.00">CONTROL_STATUS_FLAGS_s</text>
<text text-anchor="start" x="5" y="-246.5" font-family="Helvetica,sans-Serif" font-size="10.00">+</text>
<text text-anchor="start" x="16" y="-246.5" font-family="Helvetica,sans-Serif" font-size="10.00">Soft_Start_Zero_Cross</text>
<text text-anchor="start" x="5" y="-230.5" font-family="Helvetica,sans-Serif" font-size="10.00">+</text>
<text text-anchor="start" x="16" y="-230.5" font-family="Helvetica,sans-Serif" font-size="10.00">VAC_Polarity_last</text>
<text text-anchor="start" x="5" y="-214.5" font-family="Helvetica,sans-Serif" font-size="10.00">+</text>
<text text-anchor="start" x="16" y="-214.5" font-family="Helvetica,sans-Serif" font-size="10.00">Relay</text>
<text text-anchor="start" x="5" y="-198.5" font-family="Helvetica,sans-Serif" font-size="10.00">+</text>
<text text-anchor="start" x="16" y="-198.5" font-family="Helvetica,sans-Serif" font-size="10.00">Stop</text>
<text text-anchor="start" x="5" y="-182.5" font-family="Helvetica,sans-Serif" font-size="10.00">+</text>
<text text-anchor="start" x="16" y="-182.5" font-family="Helvetica,sans-Serif" font-size="10.00">Fault</text>
<text text-anchor="start" x="5" y="-166.5" font-family="Helvetica,sans-Serif" font-size="10.00">+</text>
<text text-anchor="start" x="16" y="-166.5" font-family="Helvetica,sans-Serif" font-size="10.00">VAC_Polarity_Changed</text>
<text text-anchor="start" x="5" y="-150.5" font-family="Helvetica,sans-Serif" font-size="10.00">+</text>
<text text-anchor="start" x="16" y="-150.5" font-family="Helvetica,sans-Serif" font-size="10.00">VAC_Polarity_Changed_last</text>
<text text-anchor="start" x="5" y="-134.5" font-family="Helvetica,sans-Serif" font-size="10.00">+</text>
<text text-anchor="start" x="16" y="-134.5" font-family="Helvetica,sans-Serif" font-size="10.00">CCM</text>
<text text-anchor="start" x="5" y="-118.5" font-family="Helvetica,sans-Serif" font-size="10.00">+</text>
<text text-anchor="start" x="16" y="-118.5" font-family="Helvetica,sans-Serif" font-size="10.00">BurstModeDetected</text>
<text text-anchor="start" x="5" y="-102.5" font-family="Helvetica,sans-Serif" font-size="10.00">+</text>
<text text-anchor="start" x="16" y="-102.5" font-family="Helvetica,sans-Serif" font-size="10.00">BurstModeLatched</text>
<text text-anchor="start" x="5" y="-86.5" font-family="Helvetica,sans-Serif" font-size="10.00">+</text>
<text text-anchor="start" x="16" y="-86.5" font-family="Helvetica,sans-Serif" font-size="10.00">Reference_Changed</text>
<text text-anchor="start" x="5" y="-70.5" font-family="Helvetica,sans-Serif" font-size="10.00">+</text>
<text text-anchor="start" x="16" y="-70.5" font-family="Helvetica,sans-Serif" font-size="10.00">VariableGain</text>
<text text-anchor="start" x="5" y="-54.5" font-family="Helvetica,sans-Serif" font-size="10.00">+</text>
<text text-anchor="start" x="16" y="-54.5" font-family="Helvetica,sans-Serif" font-size="10.00">bits</text>
<text text-anchor="start" x="5" y="-38.5" font-family="Helvetica,sans-Serif" font-size="10.00">+</text>
<text text-anchor="start" x="16" y="-38.5" font-family="Helvetica,sans-Serif" font-size="10.00">value</text>
<text text-anchor="start" x="5" y="-22.5" font-family="Helvetica,sans-Serif" font-size="10.00">+</text>
<text text-anchor="start" x="16" y="-22.5" font-family="Helvetica,sans-Serif" font-size="10.00">@25</text>
<text text-anchor="start" x="71.5" y="-6.5" font-family="Helvetica,sans-Serif" font-size="10.00"> </text>
<polygon fill="#666666" stroke="#666666" points="0,-258 0,-258 146,-258 146,-258 0,-258"/>
<polygon fill="#666666" stroke="#666666" points="0,-18 0,-18 14,-18 14,-18 0,-18"/>
<polygon fill="#666666" stroke="#666666" points="14,-18 14,-18 146,-18 146,-18 14,-18"/>
<polygon fill="none" stroke="#666666" points="0,0 0,-276 146,-276 146,0 0,0"/>
</a>
</g>
</g>
</g>
</svg>
