<?xml version="1.0" encoding="UTF-8" standalone="no"?>
<!DOCTYPE svg PUBLIC "-//W3C//DTD SVG 1.1//EN"
 "http://www.w3.org/Graphics/SVG/1.1/DTD/svg11.dtd">
<!-- Generated by graphviz version 8.1.0 (20230707.0739)
 -->
<!-- Title: VMC_VALUES_s Pages: 1 -->
<svg width="278pt" height="344pt"
 viewBox="0.00 0.00 277.50 344.00" xmlns="http://www.w3.org/2000/svg" xmlns:xlink="http://www.w3.org/1999/xlink">
<g id="graph0" class="graph" transform="scale(1 1) rotate(0) translate(4 340)">
<title>VMC_VALUES_s</title>
<!-- Node1 -->
<g id="Node000001" class="node">
<title>Node1</title>
<g id="a_Node000001"><a xlink:title=" ">
<polygon fill="#999999" stroke="none" points="167.5,-52 81.5,-52 81.5,0 167.5,0 167.5,-52"/>
<text text-anchor="start" x="86.25" y="-38.5" font-family="Helvetica,sans-Serif" font-size="10.00">VMC_VALUES_s</text>
<text text-anchor="start" x="95" y="-22.5" font-family="Helvetica,sans-Serif" font-size="10.00">+</text>
<text text-anchor="start" x="114.5" y="-22.5" font-family="Helvetica,sans-Serif" font-size="10.00">VBode</text>
<text text-anchor="start" x="123" y="-6.5" font-family="Helvetica,sans-Serif" font-size="10.00"> </text>
<polygon fill="#666666" stroke="#666666" points="81.5,-34 81.5,-34 167.5,-34 167.5,-34 81.5,-34"/>
<polygon fill="#666666" stroke="#666666" points="81.5,-18 81.5,-18 112.5,-18 112.5,-18 81.5,-18"/>
<polygon fill="#666666" stroke="#666666" points="112.5,-18 112.5,-18 167.5,-18 167.5,-18 112.5,-18"/>
<polygon fill="none" stroke="#666666" points="81.5,0 81.5,-52 167.5,-52 167.5,0 81.5,0"/>
</a>
</g>
</g>
<!-- Node2 -->
<g id="Node000002" class="node">
<title>Node2</title>
<g id="a_Node000002"><a xlink:href="a00625.html" target="_top" xlink:title=" ">
<polygon fill="white" stroke="none" points="105,-336 0,-336 0,-112 105,-112 105,-336"/>
<text text-anchor="start" x="4.88" y="-322.5" font-family="Helvetica,sans-Serif" font-size="10.00">ANALOG_VALUES_s</text>
<text text-anchor="start" x="5.5" y="-306.5" font-family="Helvetica,sans-Serif" font-size="10.00">+</text>
<text text-anchor="start" x="17" y="-306.5" font-family="Helvetica,sans-Serif" font-size="10.00">Raw</text>
<text text-anchor="start" x="5.5" y="-290.5" font-family="Helvetica,sans-Serif" font-size="10.00">+</text>
<text text-anchor="start" x="17" y="-290.5" font-family="Helvetica,sans-Serif" font-size="10.00">Rectified</text>
<text text-anchor="start" x="5.5" y="-274.5" font-family="Helvetica,sans-Serif" font-size="10.00">+</text>
<text text-anchor="start" x="17" y="-274.5" font-family="Helvetica,sans-Serif" font-size="10.00">Rectified_Shift</text>
<text text-anchor="start" x="5.5" y="-258.5" font-family="Helvetica,sans-Serif" font-size="10.00">+</text>
<text text-anchor="start" x="17" y="-258.5" font-family="Helvetica,sans-Serif" font-size="10.00">RectifiedSum</text>
<text text-anchor="start" x="5.5" y="-242.5" font-family="Helvetica,sans-Serif" font-size="10.00">+</text>
<text text-anchor="start" x="17" y="-242.5" font-family="Helvetica,sans-Serif" font-size="10.00">Filtered</text>
<text text-anchor="start" x="5.5" y="-226.5" font-family="Helvetica,sans-Serif" font-size="10.00">+</text>
<text text-anchor="start" x="17" y="-226.5" font-family="Helvetica,sans-Serif" font-size="10.00">Vin_div_Averaged2</text>
<text text-anchor="start" x="5.5" y="-210.5" font-family="Helvetica,sans-Serif" font-size="10.00">+</text>
<text text-anchor="start" x="17" y="-210.5" font-family="Helvetica,sans-Serif" font-size="10.00">Vin_div_Averaged2</text>
<text text-anchor="start" x="17" y="-198.5" font-family="Helvetica,sans-Serif" font-size="10.00">_Freezed</text>
<text text-anchor="start" x="5.5" y="-182.5" font-family="Helvetica,sans-Serif" font-size="10.00">+</text>
<text text-anchor="start" x="17" y="-182.5" font-family="Helvetica,sans-Serif" font-size="10.00">FilterCounter</text>
<text text-anchor="start" x="5.5" y="-166.5" font-family="Helvetica,sans-Serif" font-size="10.00">+</text>
<text text-anchor="start" x="17" y="-166.5" font-family="Helvetica,sans-Serif" font-size="10.00">Offset</text>
<text text-anchor="start" x="5.5" y="-150.5" font-family="Helvetica,sans-Serif" font-size="10.00">+</text>
<text text-anchor="start" x="17" y="-150.5" font-family="Helvetica,sans-Serif" font-size="10.00">PreviousValue</text>
<text text-anchor="start" x="5.5" y="-134.5" font-family="Helvetica,sans-Serif" font-size="10.00">+</text>
<text text-anchor="start" x="17" y="-134.5" font-family="Helvetica,sans-Serif" font-size="10.00">Max_Peak</text>
<text text-anchor="start" x="51" y="-118.5" font-family="Helvetica,sans-Serif" font-size="10.00"> </text>
<polygon fill="#666666" stroke="#666666" points="0,-318 0,-318 105,-318 105,-318 0,-318"/>
<polygon fill="#666666" stroke="#666666" points="0,-130 0,-130 15,-130 15,-130 0,-130"/>
<polygon fill="#666666" stroke="#666666" points="15,-130 15,-130 105,-130 105,-130 15,-130"/>
<polygon fill="none" stroke="#666666" points="0,-112 0,-336 105,-336 105,-112 0,-112"/>
</a>
</g>
</g>
<!-- Node2&#45;&gt;Node1 -->
<g id="edge1_Node000001_Node000002" class="edge">
<title>Node2&#45;&gt;Node1</title>
<g id="a_edge1_Node000001_Node000002"><a xlink:title=" ">
<path fill="none" stroke="#63b8ff" d="M88.85,-112.2C93.97,-97.92 99.34,-83.56 104.75,-70 105.57,-67.95 106.43,-65.87 107.32,-63.76"/>
<polygon fill="none" stroke="#63b8ff" points="107.38,-63.63 106.14,-56.53 112.22,-52.65 113.46,-59.75 107.38,-63.63"/>
</a>
</g>
<text text-anchor="middle" x="139.38" y="-84.5" font-family="Helvetica,sans-Serif" font-size="10.00" fill="grey"> +Vout</text>
<text text-anchor="middle" x="139.38" y="-72.5" font-family="Helvetica,sans-Serif" font-size="10.00" fill="grey">+Vout_MidPoint</text>
</g>
<!-- Node3 -->
<g id="Node000003" class="node">
<title>Node3</title>
<g id="a_Node000003"><a xlink:href="a00629.html" target="_top" xlink:title=" ">
<polygon fill="white" stroke="none" points="269.5,-320 123.5,-320 123.5,-128 269.5,-128 269.5,-320"/>
<text text-anchor="start" x="141" y="-306.5" font-family="Helvetica,sans-Serif" font-size="10.00">CONTROL_REFERENCE</text>
<text text-anchor="start" x="169.12" y="-294.5" font-family="Helvetica,sans-Serif" font-size="10.00">_VALUES_s</text>
<text text-anchor="start" x="127.5" y="-278.5" font-family="Helvetica,sans-Serif" font-size="10.00">+</text>
<text text-anchor="start" x="137.5" y="-278.5" font-family="Helvetica,sans-Serif" font-size="10.00">Reference_Internal</text>
<text text-anchor="start" x="127.5" y="-262.5" font-family="Helvetica,sans-Serif" font-size="10.00">+</text>
<text text-anchor="start" x="137.5" y="-262.5" font-family="Helvetica,sans-Serif" font-size="10.00">Reference_Set</text>
<text text-anchor="start" x="127.5" y="-246.5" font-family="Helvetica,sans-Serif" font-size="10.00">+</text>
<text text-anchor="start" x="137.5" y="-246.5" font-family="Helvetica,sans-Serif" font-size="10.00">Voltage_Loop_Output</text>
<text text-anchor="start" x="127.5" y="-230.5" font-family="Helvetica,sans-Serif" font-size="10.00">+</text>
<text text-anchor="start" x="137.5" y="-230.5" font-family="Helvetica,sans-Serif" font-size="10.00">VOUT_dV_dt_Hystresis_High</text>
<text text-anchor="start" x="127.5" y="-214.5" font-family="Helvetica,sans-Serif" font-size="10.00">+</text>
<text text-anchor="start" x="137.5" y="-214.5" font-family="Helvetica,sans-Serif" font-size="10.00">VOUT_dV_dt_Hystresis_Low</text>
<text text-anchor="start" x="127.5" y="-198.5" font-family="Helvetica,sans-Serif" font-size="10.00">+</text>
<text text-anchor="start" x="137.5" y="-198.5" font-family="Helvetica,sans-Serif" font-size="10.00">VOUT_Hystresis_High</text>
<text text-anchor="start" x="127.5" y="-182.5" font-family="Helvetica,sans-Serif" font-size="10.00">+</text>
<text text-anchor="start" x="137.5" y="-182.5" font-family="Helvetica,sans-Serif" font-size="10.00">VOUT_Hystresis_Low</text>
<text text-anchor="start" x="127.5" y="-166.5" font-family="Helvetica,sans-Serif" font-size="10.00">+</text>
<text text-anchor="start" x="137.5" y="-166.5" font-family="Helvetica,sans-Serif" font-size="10.00">VOUT_dV_dt_Up</text>
<text text-anchor="start" x="127.5" y="-150.5" font-family="Helvetica,sans-Serif" font-size="10.00">+</text>
<text text-anchor="start" x="137.5" y="-150.5" font-family="Helvetica,sans-Serif" font-size="10.00">VOUT_dV_dt_Active</text>
<text text-anchor="start" x="195" y="-134.5" font-family="Helvetica,sans-Serif" font-size="10.00"> </text>
<polygon fill="#666666" stroke="#666666" points="123.5,-290 123.5,-290 269.5,-290 269.5,-290 123.5,-290"/>
<polygon fill="#666666" stroke="#666666" points="123.5,-146 123.5,-146 135.5,-146 135.5,-146 123.5,-146"/>
<polygon fill="#666666" stroke="#666666" points="135.5,-146 135.5,-146 269.5,-146 269.5,-146 135.5,-146"/>
<polygon fill="none" stroke="#666666" points="123.5,-128 123.5,-320 269.5,-320 269.5,-128 123.5,-128"/>
</a>
</g>
</g>
<!-- Node3&#45;&gt;Node1 -->
<g id="edge2_Node000001_Node000003" class="edge">
<title>Node3&#45;&gt;Node1</title>
<g id="a_edge2_Node000001_Node000003"><a xlink:title=" ">
<path fill="none" stroke="#63b8ff" d="M193.57,-128.17C190.07,-108.09 184.18,-87.65 174.5,-70 172.91,-67.1 171.04,-64.31 168.98,-61.64"/>
<polygon fill="none" stroke="#63b8ff" points="168.88,-61.53 161.89,-59.75 160.84,-52.62 167.83,-54.39 168.88,-61.53"/>
</a>
</g>
<text text-anchor="middle" x="210.75" y="-78.5" font-family="Helvetica,sans-Serif" font-size="10.00" fill="grey"> +Reference</text>
</g>
</g>
</svg>
