<?xml version="1.0" encoding="UTF-8" standalone="no"?>
<!DOCTYPE svg PUBLIC "-//W3C//DTD SVG 1.1//EN"
 "http://www.w3.org/Graphics/SVG/1.1/DTD/svg11.dtd">
<!-- Generated by graphviz version 2.44.1 (20200629.0846)
 -->
<!-- Title: VMC_VALUES_s Pages: 1 -->
<svg width="280pt" height="325pt"
 viewBox="0.00 0.00 280.00 325.00" xmlns="http://www.w3.org/2000/svg" xmlns:xlink="http://www.w3.org/1999/xlink">
<g id="graph0" class="graph" transform="scale(1 1) rotate(0) translate(4 321)">
<title>VMC_VALUES_s</title>
<!-- Node1 -->
<g id="Node000001" class="node">
<title>Node1</title>
<g id="a_Node000001"><a xlink:title=" ">
<polygon fill="#999999" stroke="transparent" points="168.5,-49 81.5,-49 81.5,0 168.5,0 168.5,-49"/>
<text text-anchor="start" x="87" y="-36.5" font-family="Helvetica,sans-Serif" font-size="10.00">VMC_VALUES_s</text>
<text text-anchor="start" x="95.5" y="-21.5" font-family="Helvetica,sans-Serif" font-size="10.00">+</text>
<text text-anchor="start" x="116" y="-21.5" font-family="Helvetica,sans-Serif" font-size="10.00">VBode</text>
<text text-anchor="start" x="123.5" y="-6.5" font-family="Helvetica,sans-Serif" font-size="10.00"> </text>
<polygon fill="#666666" stroke="#666666" points="82,-31.5 82,-31.5 169,-31.5 169,-31.5 82,-31.5"/>
<polygon fill="#666666" stroke="#666666" points="82,-16.5 82,-16.5 114,-16.5 114,-16.5 82,-16.5"/>
<polygon fill="#666666" stroke="#666666" points="114,-16.5 114,-16.5 169,-16.5 169,-16.5 114,-16.5"/>
<polygon fill="none" stroke="#666666" points="81.5,0 81.5,-49 168.5,-49 168.5,0 81.5,0"/>
</a>
</g>
</g>
<!-- Node2 -->
<g id="Node000002" class="node">
<title>Node2</title>
<g id="a_Node000002"><a xlink:href="a00631.html" target="_top" xlink:title=" ">
<polygon fill="white" stroke="transparent" points="106,-317 0,-317 0,-107 106,-107 106,-317"/>
<text text-anchor="start" x="5" y="-305" font-family="Helvetica,sans-Serif" font-size="10.00">ANALOG_VALUES_s</text>
<text text-anchor="start" x="5" y="-290" font-family="Helvetica,sans-Serif" font-size="10.00">+</text>
<text text-anchor="start" x="17" y="-290" font-family="Helvetica,sans-Serif" font-size="10.00">Raw</text>
<text text-anchor="start" x="5" y="-275" font-family="Helvetica,sans-Serif" font-size="10.00">+</text>
<text text-anchor="start" x="17" y="-275" font-family="Helvetica,sans-Serif" font-size="10.00">Rectified</text>
<text text-anchor="start" x="5" y="-260" font-family="Helvetica,sans-Serif" font-size="10.00">+</text>
<text text-anchor="start" x="17" y="-260" font-family="Helvetica,sans-Serif" font-size="10.00">Rectified_Shift</text>
<text text-anchor="start" x="5" y="-245" font-family="Helvetica,sans-Serif" font-size="10.00">+</text>
<text text-anchor="start" x="17" y="-245" font-family="Helvetica,sans-Serif" font-size="10.00">RectifiedSum</text>
<text text-anchor="start" x="5" y="-230" font-family="Helvetica,sans-Serif" font-size="10.00">+</text>
<text text-anchor="start" x="17" y="-230" font-family="Helvetica,sans-Serif" font-size="10.00">Filtered</text>
<text text-anchor="start" x="5" y="-215" font-family="Helvetica,sans-Serif" font-size="10.00">+</text>
<text text-anchor="start" x="17" y="-215" font-family="Helvetica,sans-Serif" font-size="10.00">Vin_div_Averaged2</text>
<text text-anchor="start" x="5" y="-200" font-family="Helvetica,sans-Serif" font-size="10.00">+</text>
<text text-anchor="start" x="17" y="-200" font-family="Helvetica,sans-Serif" font-size="10.00">Vin_div_Averaged2</text>
<text text-anchor="start" x="17" y="-189" font-family="Helvetica,sans-Serif" font-size="10.00">_Freezed</text>
<text text-anchor="start" x="5" y="-174" font-family="Helvetica,sans-Serif" font-size="10.00">+</text>
<text text-anchor="start" x="17" y="-174" font-family="Helvetica,sans-Serif" font-size="10.00">FilterCounter</text>
<text text-anchor="start" x="5" y="-159" font-family="Helvetica,sans-Serif" font-size="10.00">+</text>
<text text-anchor="start" x="17" y="-159" font-family="Helvetica,sans-Serif" font-size="10.00">Offset</text>
<text text-anchor="start" x="5" y="-144" font-family="Helvetica,sans-Serif" font-size="10.00">+</text>
<text text-anchor="start" x="17" y="-144" font-family="Helvetica,sans-Serif" font-size="10.00">PreviousValue</text>
<text text-anchor="start" x="5" y="-129" font-family="Helvetica,sans-Serif" font-size="10.00">+</text>
<text text-anchor="start" x="17" y="-129" font-family="Helvetica,sans-Serif" font-size="10.00">Max_Peak</text>
<text text-anchor="start" x="51" y="-114" font-family="Helvetica,sans-Serif" font-size="10.00"> </text>
<polygon fill="#666666" stroke="#666666" points="0,-300 0,-300 106,-300 106,-300 0,-300"/>
<polygon fill="#666666" stroke="#666666" points="0,-124 0,-124 15,-124 15,-124 0,-124"/>
<polygon fill="#666666" stroke="#666666" points="15,-124 15,-124 106,-124 106,-124 15,-124"/>
<polygon fill="none" stroke="#666666" points="0,-107 0,-317 106,-317 106,-107 0,-107"/>
</a>
</g>
</g>
<!-- Node2&#45;&gt;Node1 -->
<g id="edge1_Node000001_Node000002" class="edge">
<title>Node2&#45;&gt;Node1</title>
<g id="a_edge1_Node000001_Node000002"><a xlink:title=" ">
<path fill="none" stroke="#63b8ff" d="M90.27,-106.81C95.4,-93.35 100.72,-79.81 106,-67 106.91,-64.8 107.86,-62.55 108.84,-60.29"/>
<polygon fill="none" stroke="#63b8ff" points="108.95,-60.03 107.74,-52.92 113.83,-49.06 115.05,-56.17 108.95,-60.03"/>
</a>
</g>
<text text-anchor="middle" x="141" y="-81" font-family="Helvetica,sans-Serif" font-size="10.00" fill="grey"> +Vout</text>
<text text-anchor="middle" x="141" y="-70" font-family="Helvetica,sans-Serif" font-size="10.00" fill="grey">+Vout_MidPoint</text>
</g>
<!-- Node3 -->
<g id="Node000003" class="node">
<title>Node3</title>
<g id="a_Node000003"><a xlink:href="a00635.html" target="_top" xlink:title=" ">
<polygon fill="white" stroke="transparent" points="272,-302 124,-302 124,-122 272,-122 272,-302"/>
<text text-anchor="start" x="142" y="-290" font-family="Helvetica,sans-Serif" font-size="10.00">CONTROL_REFERENCE</text>
<text text-anchor="start" x="170.5" y="-279" font-family="Helvetica,sans-Serif" font-size="10.00">_VALUES_s</text>
<text text-anchor="start" x="128" y="-264" font-family="Helvetica,sans-Serif" font-size="10.00">+</text>
<text text-anchor="start" x="139" y="-264" font-family="Helvetica,sans-Serif" font-size="10.00">Reference_Internal</text>
<text text-anchor="start" x="128" y="-249" font-family="Helvetica,sans-Serif" font-size="10.00">+</text>
<text text-anchor="start" x="139" y="-249" font-family="Helvetica,sans-Serif" font-size="10.00">Reference_Set</text>
<text text-anchor="start" x="128" y="-234" font-family="Helvetica,sans-Serif" font-size="10.00">+</text>
<text text-anchor="start" x="139" y="-234" font-family="Helvetica,sans-Serif" font-size="10.00">Voltage_Loop_Output</text>
<text text-anchor="start" x="128" y="-219" font-family="Helvetica,sans-Serif" font-size="10.00">+</text>
<text text-anchor="start" x="139" y="-219" font-family="Helvetica,sans-Serif" font-size="10.00">VOUT_dV_dt_Hystresis_High</text>
<text text-anchor="start" x="128" y="-204" font-family="Helvetica,sans-Serif" font-size="10.00">+</text>
<text text-anchor="start" x="139" y="-204" font-family="Helvetica,sans-Serif" font-size="10.00">VOUT_dV_dt_Hystresis_Low</text>
<text text-anchor="start" x="128" y="-189" font-family="Helvetica,sans-Serif" font-size="10.00">+</text>
<text text-anchor="start" x="139" y="-189" font-family="Helvetica,sans-Serif" font-size="10.00">VOUT_Hystresis_High</text>
<text text-anchor="start" x="128" y="-174" font-family="Helvetica,sans-Serif" font-size="10.00">+</text>
<text text-anchor="start" x="139" y="-174" font-family="Helvetica,sans-Serif" font-size="10.00">VOUT_Hystresis_Low</text>
<text text-anchor="start" x="128" y="-159" font-family="Helvetica,sans-Serif" font-size="10.00">+</text>
<text text-anchor="start" x="139" y="-159" font-family="Helvetica,sans-Serif" font-size="10.00">VOUT_dV_dt_Up</text>
<text text-anchor="start" x="128" y="-144" font-family="Helvetica,sans-Serif" font-size="10.00">+</text>
<text text-anchor="start" x="139" y="-144" font-family="Helvetica,sans-Serif" font-size="10.00">VOUT_dV_dt_Active</text>
<text text-anchor="start" x="196" y="-129" font-family="Helvetica,sans-Serif" font-size="10.00"> </text>
<polygon fill="#666666" stroke="#666666" points="124,-274 124,-274 272,-274 272,-274 124,-274"/>
<polygon fill="#666666" stroke="#666666" points="124,-139 124,-139 137,-139 137,-139 124,-139"/>
<polygon fill="#666666" stroke="#666666" points="137,-139 137,-139 272,-139 272,-139 137,-139"/>
<polygon fill="none" stroke="#666666" points="124,-122 124,-302 272,-302 272,-122 124,-122"/>
</a>
</g>
</g>
<!-- Node3&#45;&gt;Node1 -->
<g id="edge2_Node000001_Node000003" class="edge">
<title>Node3&#45;&gt;Node1</title>
<g id="a_edge2_Node000001_Node000003"><a xlink:title=" ">
<path fill="none" stroke="#63b8ff" d="M194.75,-121.9C191.28,-102.9 185.48,-83.57 176,-67 174.16,-63.78 171.97,-60.72 169.54,-57.81"/>
<polygon fill="none" stroke="#63b8ff" points="169.47,-57.74 162.43,-56.2 161.14,-49.11 168.18,-50.65 169.47,-57.74"/>
</a>
</g>
<text text-anchor="middle" x="211.5" y="-75.5" font-family="Helvetica,sans-Serif" font-size="10.00" fill="grey"> +Reference</text>
</g>
</g>
</svg>
