<?xml version="1.0" encoding="UTF-8" standalone="no"?>
<!DOCTYPE svg PUBLIC "-//W3C//DTD SVG 1.1//EN"
 "http://www.w3.org/Graphics/SVG/1.1/DTD/svg11.dtd">
<!-- Generated by graphviz version 2.44.1 (20200629.0846)
 -->
<!-- Title: SMPS_Controller_Options_T Pages: 1 -->
<svg width="143pt" height="102pt"
 viewBox="0.00 0.00 143.00 102.00" xmlns="http://www.w3.org/2000/svg" xmlns:xlink="http://www.w3.org/1999/xlink">
<g id="graph0" class="graph" transform="scale(1 1) rotate(0) translate(4 98)">
<title>SMPS_Controller_Options_T</title>
<!-- Node1 -->
<g id="Node000001" class="node">
<title>Node1</title>
<g id="a_Node000001"><a xlink:title=" ">
<polygon fill="#999999" stroke="transparent" points="135,-94 0,-94 0,0 135,0 135,-94"/>
<text text-anchor="start" x="5.5" y="-82" font-family="Helvetica,sans-Serif" font-size="10.00">SMPS_Controller_Options_T</text>
<text text-anchor="start" x="15" y="-67" font-family="Helvetica,sans-Serif" font-size="10.00">+</text>
<text text-anchor="start" x="36.5" y="-67" font-family="Helvetica,sans-Serif" font-size="10.00">triggerSelectFlag</text>
<text text-anchor="start" x="15" y="-52" font-family="Helvetica,sans-Serif" font-size="10.00">+</text>
<text text-anchor="start" x="36.5" y="-52" font-family="Helvetica,sans-Serif" font-size="10.00">delayValue</text>
<text text-anchor="start" x="15" y="-37" font-family="Helvetica,sans-Serif" font-size="10.00">+</text>
<text text-anchor="start" x="36.5" y="-37" font-family="Helvetica,sans-Serif" font-size="10.00">trigger</text>
<text text-anchor="start" x="15" y="-22" font-family="Helvetica,sans-Serif" font-size="10.00">+</text>
<text text-anchor="start" x="36.5" y="-22" font-family="Helvetica,sans-Serif" font-size="10.00">period</text>
<text text-anchor="start" x="66" y="-7" font-family="Helvetica,sans-Serif" font-size="10.00"> </text>
<polygon fill="#666666" stroke="#666666" points="0.5,-77 0.5,-77 135.5,-77 135.5,-77 0.5,-77"/>
<polygon fill="#666666" stroke="#666666" points="0.5,-17 0.5,-17 34.5,-17 34.5,-17 0.5,-17"/>
<polygon fill="#666666" stroke="#666666" points="34.5,-17 34.5,-17 135.5,-17 135.5,-17 34.5,-17"/>
<polygon fill="none" stroke="#666666" points="0,0 0,-94 135,-94 135,0 0,0"/>
</a>
</g>
</g>
</g>
</svg>
