<?xml version="1.0" encoding="UTF-8" standalone="no"?>
<!DOCTYPE svg PUBLIC "-//W3C//DTD SVG 1.1//EN"
 "http://www.w3.org/Graphics/SVG/1.1/DTD/svg11.dtd">
<!-- Generated by graphviz version 2.44.1 (20200629.0846)
 -->
<!-- Title: XFT_SMPS_2P2Z_T Pages: 1 -->
<svg width="107pt" height="177pt"
 viewBox="0.00 0.00 107.00 177.00" xmlns="http://www.w3.org/2000/svg" xmlns:xlink="http://www.w3.org/1999/xlink">
<g id="graph0" class="graph" transform="scale(1 1) rotate(0) translate(4 173)">
<title>XFT_SMPS_2P2Z_T</title>
<!-- Node1 -->
<g id="Node000001" class="node">
<title>Node1</title>
<g id="a_Node000001"><a xlink:title=" ">
<polygon fill="#999999" stroke="transparent" points="99,-169 0,-169 0,0 99,0 99,-169"/>
<text text-anchor="start" x="5.5" y="-156.5" font-family="Helvetica,sans-Serif" font-size="10.00">XFT_SMPS_2P2Z_T</text>
<text text-anchor="start" x="9" y="-141.5" font-family="Helvetica,sans-Serif" font-size="10.00">+</text>
<text text-anchor="start" x="24.5" y="-141.5" font-family="Helvetica,sans-Serif" font-size="10.00">aCoefficients</text>
<text text-anchor="start" x="9" y="-126.5" font-family="Helvetica,sans-Serif" font-size="10.00">+</text>
<text text-anchor="start" x="24.5" y="-126.5" font-family="Helvetica,sans-Serif" font-size="10.00">bCoefficients</text>
<text text-anchor="start" x="9" y="-111.5" font-family="Helvetica,sans-Serif" font-size="10.00">+</text>
<text text-anchor="start" x="24.5" y="-111.5" font-family="Helvetica,sans-Serif" font-size="10.00">controlHistory</text>
<text text-anchor="start" x="9" y="-96.5" font-family="Helvetica,sans-Serif" font-size="10.00">+</text>
<text text-anchor="start" x="24.5" y="-96.5" font-family="Helvetica,sans-Serif" font-size="10.00">errorHistory</text>
<text text-anchor="start" x="9" y="-81.5" font-family="Helvetica,sans-Serif" font-size="10.00">+</text>
<text text-anchor="start" x="24.5" y="-81.5" font-family="Helvetica,sans-Serif" font-size="10.00">preShift</text>
<text text-anchor="start" x="9" y="-66.5" font-family="Helvetica,sans-Serif" font-size="10.00">+</text>
<text text-anchor="start" x="24.5" y="-66.5" font-family="Helvetica,sans-Serif" font-size="10.00">postShift</text>
<text text-anchor="start" x="9" y="-51.5" font-family="Helvetica,sans-Serif" font-size="10.00">+</text>
<text text-anchor="start" x="24.5" y="-51.5" font-family="Helvetica,sans-Serif" font-size="10.00">postScaler</text>
<text text-anchor="start" x="9" y="-36.5" font-family="Helvetica,sans-Serif" font-size="10.00">+</text>
<text text-anchor="start" x="24.5" y="-36.5" font-family="Helvetica,sans-Serif" font-size="10.00">minOutput</text>
<text text-anchor="start" x="9" y="-21.5" font-family="Helvetica,sans-Serif" font-size="10.00">+</text>
<text text-anchor="start" x="24.5" y="-21.5" font-family="Helvetica,sans-Serif" font-size="10.00">maxOutput</text>
<text text-anchor="start" x="48" y="-6.5" font-family="Helvetica,sans-Serif" font-size="10.00"> </text>
<polygon fill="#666666" stroke="#666666" points="0.5,-151.5 0.5,-151.5 99.5,-151.5 99.5,-151.5 0.5,-151.5"/>
<polygon fill="#666666" stroke="#666666" points="0.5,-16.5 0.5,-16.5 22.5,-16.5 22.5,-16.5 0.5,-16.5"/>
<polygon fill="#666666" stroke="#666666" points="22.5,-16.5 22.5,-16.5 99.5,-16.5 99.5,-16.5 22.5,-16.5"/>
<polygon fill="none" stroke="#666666" points="0,0 0,-169 99,-169 99,0 0,0"/>
</a>
</g>
</g>
</g>
</svg>
