<?xml version="1.0" encoding="UTF-8" standalone="no"?>
<!DOCTYPE svg PUBLIC "-//W3C//DTD SVG 1.1//EN"
 "http://www.w3.org/Graphics/SVG/1.1/DTD/svg11.dtd">
<!-- Generated by graphviz version 8.1.0 (20230707.0739)
 -->
<!-- Title: D:/Firmware/MCU16ASMPS_TestEnvironment/_deployment/dspic33ch&#45;power&#45;totem&#45;pole&#45;demonstration&#45;application&#45;single&#45;phase/dspic33ch_totem_pole_single_phase_secondary_IL.X/mcc_generated_files/cmp/cmp1.h Pages: 1 -->
<svg width="197pt" height="212pt"
 viewBox="0.00 0.00 196.50 212.00" xmlns="http://www.w3.org/2000/svg" xmlns:xlink="http://www.w3.org/1999/xlink">
<g id="graph0" class="graph" transform="scale(1 1) rotate(0) translate(4 208)">
<title>D:/Firmware/MCU16ASMPS_TestEnvironment/_deployment/dspic33ch&#45;power&#45;totem&#45;pole&#45;demonstration&#45;application&#45;single&#45;phase/dspic33ch_totem_pole_single_phase_secondary_IL.X/mcc_generated_files/cmp/cmp1.h</title>
<!-- Node1 -->
<g id="Node000001" class="node">
<title>Node1</title>
<g id="a_Node000001"><a xlink:title="This is the generated driver header file for the CMP1 driver.">
<polygon fill="#999999" stroke="#666666" points="188.5,-204 0,-204 0,-112 188.5,-112 188.5,-204"/>
<text text-anchor="start" x="8" y="-190.5" font-family="Helvetica,sans-Serif" font-size="10.00">D:/Firmware/MCU16ASMPS</text>
<text text-anchor="start" x="8" y="-178.5" font-family="Helvetica,sans-Serif" font-size="10.00">_TestEnvironment/_deployment</text>
<text text-anchor="start" x="8" y="-166.5" font-family="Helvetica,sans-Serif" font-size="10.00">/dspic33ch&#45;power&#45;totem&#45;pole</text>
<text text-anchor="start" x="8" y="-154.5" font-family="Helvetica,sans-Serif" font-size="10.00">&#45;demonstration&#45;application&#45;single</text>
<text text-anchor="start" x="8" y="-142.5" font-family="Helvetica,sans-Serif" font-size="10.00">&#45;phase/dspic33ch_totem_pole_single</text>
<text text-anchor="start" x="8" y="-130.5" font-family="Helvetica,sans-Serif" font-size="10.00">_phase_secondary_IL.X/mcc_generated</text>
<text text-anchor="middle" x="94.25" y="-118.5" font-family="Helvetica,sans-Serif" font-size="10.00">_files/cmp/cmp1.h</text>
</a>
</g>
</g>
<!-- Node2 -->
<g id="Node000002" class="node">
<title>Node2</title>
<g id="a_Node000002"><a xlink:title=" ">
<polygon fill="#e0e0e0" stroke="#999999" points="83.5,-20 33,-20 33,0 83.5,0 83.5,-20"/>
<text text-anchor="middle" x="58.25" y="-6.5" font-family="Helvetica,sans-Serif" font-size="10.00">stddef.h</text>
</a>
</g>
</g>
<!-- Node1&#45;&gt;Node2 -->
<g id="edge1_Node000001_Node000002" class="edge">
<title>Node1&#45;&gt;Node2</title>
<g id="a_edge1_Node000001_Node000002"><a xlink:title=" ">
<path fill="none" stroke="#63b8ff" d="M58.85,-111.69C52.02,-100.59 45.87,-88.35 42.25,-76 37.75,-60.67 42.7,-43.05 48.25,-30.03"/>
<polygon fill="#63b8ff" stroke="#63b8ff" points="51.73,-31.86 52.85,-21.33 45.4,-28.86 51.73,-31.86"/>
</a>
</g>
</g>
<!-- Node3 -->
<g id="Node000003" class="node">
<title>Node3</title>
<g id="a_Node000003"><a xlink:title=" ">
<polygon fill="#e0e0e0" stroke="#999999" points="157.12,-20 101.38,-20 101.38,0 157.12,0 157.12,-20"/>
<text text-anchor="middle" x="129.25" y="-6.5" font-family="Helvetica,sans-Serif" font-size="10.00">stdbool.h</text>
</a>
</g>
</g>
<!-- Node1&#45;&gt;Node3 -->
<g id="edge2_Node000001_Node000003" class="edge">
<title>Node1&#45;&gt;Node3</title>
<g id="a_edge2_Node000001_Node000003"><a xlink:title=" ">
<path fill="none" stroke="#63b8ff" d="M129.65,-111.69C136.48,-100.59 142.63,-88.35 146.25,-76 150.76,-60.61 145.53,-43 139.71,-30"/>
<polygon fill="#63b8ff" stroke="#63b8ff" points="142.47,-28.7 134.89,-21.3 136.21,-31.82 142.47,-28.7"/>
</a>
</g>
</g>
<!-- Node4 -->
<g id="Node000004" class="node">
<title>Node4</title>
<g id="a_Node000004"><a xlink:href="a00748_source.html" target="_top" xlink:title=" ">
<polygon fill="white" stroke="#666666" points="136.75,-76 51.75,-76 51.75,-56 136.75,-56 136.75,-76"/>
<text text-anchor="middle" x="94.25" y="-62.5" font-family="Helvetica,sans-Serif" font-size="10.00">cmp_interface.h</text>
</a>
</g>
</g>
<!-- Node1&#45;&gt;Node4 -->
<g id="edge3_Node000001_Node000004" class="edge">
<title>Node1&#45;&gt;Node4</title>
<g id="a_edge3_Node000001_Node000004"><a xlink:title=" ">
<path fill="none" stroke="#63b8ff" d="M94.25,-111.74C94.25,-103.1 94.25,-94.48 94.25,-87.14"/>
<polygon fill="#63b8ff" stroke="#63b8ff" points="97.75,-87.23 94.25,-77.23 90.75,-87.23 97.75,-87.23"/>
</a>
</g>
</g>
<!-- Node4&#45;&gt;Node2 -->
<g id="edge5_Node000004_Node000002" class="edge">
<title>Node4&#45;&gt;Node2</title>
<g id="a_edge5_Node000004_Node000002"><a xlink:title=" ">
<path fill="none" stroke="#63b8ff" d="M87.98,-55.59C83.18,-48.39 76.41,-38.23 70.54,-29.43"/>
<polygon fill="#63b8ff" stroke="#63b8ff" points="72.91,-27.68 64.45,-21.3 67.08,-31.56 72.91,-27.68"/>
</a>
</g>
</g>
<!-- Node4&#45;&gt;Node3 -->
<g id="edge4_Node000004_Node000003" class="edge">
<title>Node4&#45;&gt;Node3</title>
<g id="a_edge4_Node000004_Node000003"><a xlink:title=" ">
<path fill="none" stroke="#63b8ff" d="M100.35,-55.59C105.01,-48.39 111.6,-38.23 117.3,-29.43"/>
<polygon fill="#63b8ff" stroke="#63b8ff" points="120.72,-31.59 123.22,-21.3 114.85,-27.79 120.72,-31.59"/>
</a>
</g>
</g>
</g>
</svg>
