<?xml version="1.0" encoding="UTF-8" standalone="no"?>
<!DOCTYPE svg PUBLIC "-//W3C//DTD SVG 1.1//EN"
 "http://www.w3.org/Graphics/SVG/1.1/DTD/svg11.dtd">
<!-- Generated by graphviz version 8.1.0 (20230707.0739)
 -->
<!-- Title: D:/Firmware/MCU16ASMPS_TestEnvironment/_deployment/dspic33ch&#45;power&#45;totem&#45;pole&#45;demonstration&#45;application&#45;single&#45;phase/dspic33ch_totem_pole_single_phase_primary_IL.X/mcc_generated_files/cmp/src/cmp1.c Pages: 1 -->
<svg width="191pt" height="268pt"
 viewBox="0.00 0.00 191.12 268.00" xmlns="http://www.w3.org/2000/svg" xmlns:xlink="http://www.w3.org/1999/xlink">
<g id="graph0" class="graph" transform="scale(1 1) rotate(0) translate(4 264)">
<title>D:/Firmware/MCU16ASMPS_TestEnvironment/_deployment/dspic33ch&#45;power&#45;totem&#45;pole&#45;demonstration&#45;application&#45;single&#45;phase/dspic33ch_totem_pole_single_phase_primary_IL.X/mcc_generated_files/cmp/src/cmp1.c</title>
<!-- Node1 -->
<g id="Node000001" class="node">
<title>Node1</title>
<g id="a_Node000001"><a xlink:title="This is the generated driver source file for CMP1 driver.">
<polygon fill="#999999" stroke="#666666" points="176.5,-260 0,-260 0,-168 176.5,-168 176.5,-260"/>
<text text-anchor="start" x="8" y="-246.5" font-family="Helvetica,sans-Serif" font-size="10.00">D:/Firmware/MCU16ASMPS</text>
<text text-anchor="start" x="8" y="-234.5" font-family="Helvetica,sans-Serif" font-size="10.00">_TestEnvironment/_deployment</text>
<text text-anchor="start" x="8" y="-222.5" font-family="Helvetica,sans-Serif" font-size="10.00">/dspic33ch&#45;power&#45;totem&#45;pole</text>
<text text-anchor="start" x="8" y="-210.5" font-family="Helvetica,sans-Serif" font-size="10.00">&#45;demonstration&#45;application&#45;single</text>
<text text-anchor="start" x="8" y="-198.5" font-family="Helvetica,sans-Serif" font-size="10.00">&#45;phase/dspic33ch_totem_pole_single</text>
<text text-anchor="start" x="8" y="-186.5" font-family="Helvetica,sans-Serif" font-size="10.00">_phase_primary_IL.X/mcc_generated</text>
<text text-anchor="middle" x="88.25" y="-174.5" font-family="Helvetica,sans-Serif" font-size="10.00">_files/cmp/src/cmp1.c</text>
</a>
</g>
</g>
<!-- Node2 -->
<g id="Node000002" class="node">
<title>Node2</title>
<g id="a_Node000002"><a xlink:title=" ">
<polygon fill="#e0e0e0" stroke="#999999" points="73.62,-132 38.88,-132 38.88,-112 73.62,-112 73.62,-132"/>
<text text-anchor="middle" x="56.25" y="-118.5" font-family="Helvetica,sans-Serif" font-size="10.00">xc.h</text>
</a>
</g>
</g>
<!-- Node1&#45;&gt;Node2 -->
<g id="edge1_Node000001_Node000002" class="edge">
<title>Node1&#45;&gt;Node2</title>
<g id="a_edge1_Node000001_Node000002"><a xlink:title=" ">
<path fill="none" stroke="#63b8ff" d="M72.16,-167.74C68.97,-158.78 65.79,-149.84 63.13,-142.34"/>
<polygon fill="#63b8ff" stroke="#63b8ff" points="66.18,-141.48 59.53,-133.23 59.58,-143.82 66.18,-141.48"/>
</a>
</g>
</g>
<!-- Node3 -->
<g id="Node000003" class="node">
<title>Node3</title>
<g id="a_Node000003"><a xlink:href="a00739.html" target="_top" xlink:title="This is the generated driver header file for the CMP1 driver.">
<polygon fill="white" stroke="#666666" points="148.88,-132 91.62,-132 91.62,-112 148.88,-112 148.88,-132"/>
<text text-anchor="middle" x="120.25" y="-118.5" font-family="Helvetica,sans-Serif" font-size="10.00">../cmp1.h</text>
</a>
</g>
</g>
<!-- Node1&#45;&gt;Node3 -->
<g id="edge2_Node000001_Node000003" class="edge">
<title>Node1&#45;&gt;Node3</title>
<g id="a_edge2_Node000001_Node000003"><a xlink:title=" ">
<path fill="none" stroke="#63b8ff" d="M104.34,-167.74C107.53,-158.78 110.71,-149.84 113.37,-142.34"/>
<polygon fill="#63b8ff" stroke="#63b8ff" points="116.92,-143.82 116.97,-133.23 110.32,-141.48 116.92,-143.82"/>
</a>
</g>
</g>
<!-- Node4 -->
<g id="Node000004" class="node">
<title>Node4</title>
<g id="a_Node000004"><a xlink:title=" ">
<polygon fill="#e0e0e0" stroke="#999999" points="109.5,-20 59,-20 59,0 109.5,0 109.5,-20"/>
<text text-anchor="middle" x="84.25" y="-6.5" font-family="Helvetica,sans-Serif" font-size="10.00">stddef.h</text>
</a>
</g>
</g>
<!-- Node3&#45;&gt;Node4 -->
<g id="edge3_Node000003_Node000004" class="edge">
<title>Node3&#45;&gt;Node4</title>
<g id="a_edge3_Node000003_Node000004"><a xlink:title=" ">
<path fill="none" stroke="#63b8ff" d="M102.95,-111.51C90.74,-103.75 75.35,-91.53 68.25,-76 61.46,-61.15 66.94,-43.03 73.27,-29.7"/>
<polygon fill="#63b8ff" stroke="#63b8ff" points="76.72,-31.66 78.3,-21.19 70.53,-28.39 76.72,-31.66"/>
</a>
</g>
</g>
<!-- Node5 -->
<g id="Node000005" class="node">
<title>Node5</title>
<g id="a_Node000005"><a xlink:title=" ">
<polygon fill="#e0e0e0" stroke="#999999" points="183.12,-20 127.38,-20 127.38,0 183.12,0 183.12,-20"/>
<text text-anchor="middle" x="155.25" y="-6.5" font-family="Helvetica,sans-Serif" font-size="10.00">stdbool.h</text>
</a>
</g>
</g>
<!-- Node3&#45;&gt;Node5 -->
<g id="edge4_Node000003_Node000005" class="edge">
<title>Node3&#45;&gt;Node5</title>
<g id="a_edge4_Node000003_Node000005"><a xlink:title=" ">
<path fill="none" stroke="#63b8ff" d="M137.55,-111.51C149.76,-103.75 165.15,-91.53 172.25,-76 179.06,-61.1 173.28,-42.98 166.68,-29.67"/>
<polygon fill="#63b8ff" stroke="#63b8ff" points="169.33,-28.23 161.43,-21.17 163.2,-31.61 169.33,-28.23"/>
</a>
</g>
</g>
<!-- Node6 -->
<g id="Node000006" class="node">
<title>Node6</title>
<g id="a_Node000006"><a xlink:href="a00745_source.html" target="_top" xlink:title=" ">
<polygon fill="white" stroke="#666666" points="162.75,-76 77.75,-76 77.75,-56 162.75,-56 162.75,-76"/>
<text text-anchor="middle" x="120.25" y="-62.5" font-family="Helvetica,sans-Serif" font-size="10.00">cmp_interface.h</text>
</a>
</g>
</g>
<!-- Node3&#45;&gt;Node6 -->
<g id="edge5_Node000003_Node000006" class="edge">
<title>Node3&#45;&gt;Node6</title>
<g id="a_edge5_Node000003_Node000006"><a xlink:title=" ">
<path fill="none" stroke="#63b8ff" d="M120.25,-111.59C120.25,-104.86 120.25,-95.53 120.25,-87.15"/>
<polygon fill="#63b8ff" stroke="#63b8ff" points="123.75,-87.3 120.25,-77.3 116.75,-87.3 123.75,-87.3"/>
</a>
</g>
</g>
<!-- Node6&#45;&gt;Node4 -->
<g id="edge7_Node000006_Node000004" class="edge">
<title>Node6&#45;&gt;Node4</title>
<g id="a_edge7_Node000006_Node000004"><a xlink:title=" ">
<path fill="none" stroke="#63b8ff" d="M113.98,-55.59C109.18,-48.39 102.41,-38.23 96.54,-29.43"/>
<polygon fill="#63b8ff" stroke="#63b8ff" points="98.91,-27.68 90.45,-21.3 93.08,-31.56 98.91,-27.68"/>
</a>
</g>
</g>
<!-- Node6&#45;&gt;Node5 -->
<g id="edge6_Node000006_Node000005" class="edge">
<title>Node6&#45;&gt;Node5</title>
<g id="a_edge6_Node000006_Node000005"><a xlink:title=" ">
<path fill="none" stroke="#63b8ff" d="M126.35,-55.59C131.01,-48.39 137.6,-38.23 143.3,-29.43"/>
<polygon fill="#63b8ff" stroke="#63b8ff" points="146.72,-31.59 149.22,-21.3 140.85,-27.79 146.72,-31.59"/>
</a>
</g>
</g>
</g>
</svg>
