<?xml version="1.0" encoding="UTF-8" standalone="no"?>
<!DOCTYPE svg PUBLIC "-//W3C//DTD SVG 1.1//EN"
 "http://www.w3.org/Graphics/SVG/1.1/DTD/svg11.dtd">
<!-- Generated by graphviz version 8.1.0 (20230707.0739)
 -->
<!-- Title: DMT_Calibrate Pages: 1 -->
<svg width="334pt" height="28pt"
 viewBox="0.00 0.00 333.50 28.00" xmlns="http://www.w3.org/2000/svg" xmlns:xlink="http://www.w3.org/1999/xlink">
<g id="graph0" class="graph" transform="scale(1 1) rotate(0) translate(4 24)">
<title>DMT_Calibrate</title>
<!-- Node1 -->
<g id="Node000001" class="node">
<title>Node1</title>
<g id="a_Node000001"><a xlink:title=" ">
<polygon fill="#999999" stroke="#666666" points="325.5,-20 245.75,-20 245.75,0 325.5,0 325.5,-20"/>
<text text-anchor="middle" x="285.62" y="-6.5" font-family="Helvetica,sans-Serif" font-size="10.00">DMT_Calibrate</text>
</a>
</g>
</g>
<!-- Node2 -->
<g id="Node000002" class="node">
<title>Node2</title>
<g id="a_Node000002"><a xlink:href="a00402.html#ga1bc5134c539119189fc912e50bb40f0c" target="_top" xlink:title="Initializes the DMT module.">
<polygon fill="white" stroke="#666666" points="209.75,-20 133,-20 133,0 209.75,0 209.75,-20"/>
<text text-anchor="middle" x="171.38" y="-6.5" font-family="Helvetica,sans-Serif" font-size="10.00">DMT_Initialize</text>
</a>
</g>
</g>
<!-- Node1&#45;&gt;Node2 -->
<g id="edge1_Node000001_Node000002" class="edge">
<title>Node1&#45;&gt;Node2</title>
<g id="a_edge1_Node000001_Node000002"><a xlink:title=" ">
<path fill="none" stroke="#63b8ff" d="M234.62,-10C226.32,-10 217.84,-10 209.91,-10"/>
<polygon fill="#63b8ff" stroke="#63b8ff" points="234.37,-13.5 244.37,-10 234.37,-6.5 234.37,-13.5"/>
</a>
</g>
</g>
<!-- Node3 -->
<g id="Node000003" class="node">
<title>Node3</title>
<g id="a_Node000003"><a xlink:href="a00406.html#ga5e8391114a0cf91ac20002be25e3d352" target="_top" xlink:title="Initializes the System module.">
<polygon fill="white" stroke="#666666" points="97,-20 0,-20 0,0 97,0 97,-20"/>
<text text-anchor="middle" x="48.5" y="-6.5" font-family="Helvetica,sans-Serif" font-size="10.00">SYSTEM_Initialize</text>
</a>
</g>
</g>
<!-- Node2&#45;&gt;Node3 -->
<g id="edge2_Node000002_Node000003" class="edge">
<title>Node2&#45;&gt;Node3</title>
<g id="a_edge2_Node000002_Node000003"><a xlink:title=" ">
<path fill="none" stroke="#63b8ff" d="M121.96,-10C113.84,-10 105.42,-10 97.31,-10"/>
<polygon fill="#63b8ff" stroke="#63b8ff" points="121.79,-13.5 131.79,-10 121.79,-6.5 121.79,-13.5"/>
</a>
</g>
</g>
</g>
</svg>
