<?xml version="1.0" encoding="UTF-8" standalone="no"?>
<!DOCTYPE svg PUBLIC "-//W3C//DTD SVG 1.1//EN"
 "http://www.w3.org/Graphics/SVG/1.1/DTD/svg11.dtd">
<!-- Generated by graphviz version 2.44.1 (20200629.0846)
 -->
<!-- Title: _StackError Pages: 1 -->
<svg width="222pt" height="64pt"
 viewBox="0.00 0.00 222.00 64.00" xmlns="http://www.w3.org/2000/svg" xmlns:xlink="http://www.w3.org/1999/xlink">
<g id="graph0" class="graph" transform="scale(1 1) rotate(0) translate(4 60)">
<title>_StackError</title>
<!-- Node1 -->
<g id="Node000001" class="node">
<title>Node1</title>
<g id="a_Node000001"><a xlink:title=" ">
<polygon fill="#999999" stroke="#666666" points="68,-37 0,-37 0,-18 68,-18 68,-37"/>
<text text-anchor="middle" x="34" y="-25" font-family="Helvetica,sans-Serif" font-size="10.00">_StackError</text>
</a>
</g>
</g>
<!-- Node2 -->
<g id="Node000002" class="node">
<title>Node2</title>
<g id="a_Node000002"><a xlink:href="a00415.html#ga0333bbed0a73350c26f5e7c151de564f" target="_top" xlink:title="Stores the trap error code and waits forever. This is a weak attribute function. The user can overrid...">
<polygon fill="white" stroke="#666666" points="214,-56 104,-56 104,-37 214,-37 214,-56"/>
<text text-anchor="middle" x="159" y="-44" font-family="Helvetica,sans-Serif" font-size="10.00">TRAPS_halt_on_error</text>
</a>
</g>
</g>
<!-- Node1&#45;&gt;Node2 -->
<g id="edge1_Node000001_Node000002" class="edge">
<title>Node1&#45;&gt;Node2</title>
<g id="a_edge1_Node000001_Node000002"><a xlink:title=" ">
<path fill="none" stroke="#63b8ff" d="M68.29,-32.64C76.25,-33.87 85.01,-35.23 93.85,-36.59"/>
<polygon fill="#63b8ff" stroke="#63b8ff" points="93.41,-40.06 103.82,-38.13 94.47,-33.15 93.41,-40.06"/>
</a>
</g>
</g>
<!-- Node3 -->
<g id="Node000003" class="node">
<title>Node3</title>
<g id="a_Node000003"><a xlink:href="a00847.html#a179592ff2045f0be286f62f3b2e1cb63" target="_top" xlink:title=" ">
<polygon fill="white" stroke="#666666" points="207.5,-19 110.5,-19 110.5,0 207.5,0 207.5,-19"/>
<text text-anchor="middle" x="159" y="-7" font-family="Helvetica,sans-Serif" font-size="10.00">use_failsafe_stack</text>
</a>
</g>
</g>
<!-- Node1&#45;&gt;Node3 -->
<g id="edge2_Node000001_Node000003" class="edge">
<title>Node1&#45;&gt;Node3</title>
<g id="a_edge2_Node000001_Node000003"><a xlink:title=" ">
<path fill="none" stroke="#63b8ff" d="M68.29,-22.63C78.2,-21.18 89.36,-19.54 100.36,-17.94"/>
<polygon fill="#63b8ff" stroke="#63b8ff" points="100.98,-21.38 110.37,-16.47 99.97,-14.45 100.98,-21.38"/>
</a>
</g>
</g>
</g>
</svg>
