<?xml version="1.0" encoding="UTF-8" standalone="no"?>
<!DOCTYPE svg PUBLIC "-//W3C//DTD SVG 1.1//EN"
 "http://www.w3.org/Graphics/SVG/1.1/DTD/svg11.dtd">
<!-- Generated by graphviz version 8.1.0 (20230707.0739)
 -->
<!-- Title: D:/Firmware/MCU16ASMPS_TestEnvironment/_deployment/dspic33ch&#45;power&#45;totem&#45;pole&#45;demonstration&#45;application&#45;single&#45;phase/dspic33ch_totem_pole_single_phase_secondary_IL.X/mcc_generated_files/system/src/reset.c Pages: 1 -->
<svg width="238pt" height="212pt"
 viewBox="0.00 0.00 237.50 212.00" xmlns="http://www.w3.org/2000/svg" xmlns:xlink="http://www.w3.org/1999/xlink">

<svg id="main" version="1.1" xmlns="http://www.w3.org/2000/svg" xmlns:xlink="http://www.w3.org/1999/xlink" xml:space="preserve" onload="init(evt)">
<style type="text/css"><![CDATA[
.node, .edge {opacity: 0.7;}
.node.selected, .edge.selected {opacity: 1;}
.edge:hover path { stroke: red; }
.edge:hover polygon { stroke: red; fill: red; }
]]></style>
<script type="application/ecmascript" xlink:href="svg.min.js"/>
<svg id="graph" class="graph">
<g id="graph0" class="graph" transform="scale(1 1) rotate(0) translate(4 208)">
<title>D:/Firmware/MCU16ASMPS_TestEnvironment/_deployment/dspic33ch&#45;power&#45;totem&#45;pole&#45;demonstration&#45;application&#45;single&#45;phase/dspic33ch_totem_pole_single_phase_secondary_IL.X/mcc_generated_files/system/src/reset.c</title>
<!-- Node1 -->
<g id="Node000001" class="node">
<title>Node1</title>
<g id="a_Node000001"><a xlink:title="This is the generated driver source file for RESET driver.">
<polygon fill="#999999" stroke="#666666" points="200.12,-204 11.62,-204 11.62,-112 200.12,-112 200.12,-204"/>
<text text-anchor="start" x="19.62" y="-190.5" font-family="Helvetica,sans-Serif" font-size="10.00">D:/Firmware/MCU16ASMPS</text>
<text text-anchor="start" x="19.62" y="-178.5" font-family="Helvetica,sans-Serif" font-size="10.00">_TestEnvironment/_deployment</text>
<text text-anchor="start" x="19.62" y="-166.5" font-family="Helvetica,sans-Serif" font-size="10.00">/dspic33ch&#45;power&#45;totem&#45;pole</text>
<text text-anchor="start" x="19.62" y="-154.5" font-family="Helvetica,sans-Serif" font-size="10.00">&#45;demonstration&#45;application&#45;single</text>
<text text-anchor="start" x="19.62" y="-142.5" font-family="Helvetica,sans-Serif" font-size="10.00">&#45;phase/dspic33ch_totem_pole_single</text>
<text text-anchor="start" x="19.62" y="-130.5" font-family="Helvetica,sans-Serif" font-size="10.00">_phase_secondary_IL.X/mcc_generated</text>
<text text-anchor="middle" x="105.88" y="-118.5" font-family="Helvetica,sans-Serif" font-size="10.00">_files/system/src/reset.c</text>
</a>
</g>
</g>
<!-- Node2 -->
<g id="Node000002" class="node">
<title>Node2</title>
<g id="a_Node000002"><a xlink:title=" ">
<polygon fill="#e0e0e0" stroke="#999999" points="55.75,-76 0,-76 0,-56 55.75,-56 55.75,-76"/>
<text text-anchor="middle" x="27.88" y="-62.5" font-family="Helvetica,sans-Serif" font-size="10.00">stdbool.h</text>
</a>
</g>
</g>
<!-- Node1&#45;&gt;Node2 -->
<g id="edge1_Node000001_Node000002" class="edge">
<title>Node1&#45;&gt;Node2</title>
<g id="a_edge1_Node000001_Node000002"><a xlink:title=" ">
<path fill="none" stroke="#63b8ff" d="M66.65,-111.74C58.25,-102.05 49.86,-92.37 43.05,-84.51"/>
<polygon fill="#63b8ff" stroke="#63b8ff" points="45.06,-82.49 35.87,-77.23 39.77,-87.07 45.06,-82.49"/>
</a>
</g>
</g>
<!-- Node3 -->
<g id="Node000003" class="node">
<title>Node3</title>
<g id="a_Node000003"><a xlink:title=" ">
<polygon fill="#e0e0e0" stroke="#999999" points="122,-20 73.75,-20 73.75,0 122,0 122,-20"/>
<text text-anchor="middle" x="97.88" y="-6.5" font-family="Helvetica,sans-Serif" font-size="10.00">stdint.h</text>
</a>
</g>
</g>
<!-- Node1&#45;&gt;Node3 -->
<g id="edge2_Node000001_Node000003" class="edge">
<title>Node1&#45;&gt;Node3</title>
<g id="a_edge2_Node000001_Node000003"><a xlink:title=" ">
<path fill="none" stroke="#63b8ff" d="M103.39,-111.61C101.91,-84.72 100.12,-51.98 98.99,-31.31"/>
<polygon fill="#63b8ff" stroke="#63b8ff" points="102.43,-31.2 98.39,-21.41 95.44,-31.59 102.43,-31.2"/>
</a>
</g>
</g>
<!-- Node4 -->
<g id="Node000004" class="node">
<title>Node4</title>
<g id="a_Node000004"><a xlink:title=" ">
<polygon fill="#e0e0e0" stroke="#999999" points="146.25,-76 111.5,-76 111.5,-56 146.25,-56 146.25,-76"/>
<text text-anchor="middle" x="128.88" y="-62.5" font-family="Helvetica,sans-Serif" font-size="10.00">xc.h</text>
</a>
</g>
</g>
<!-- Node1&#45;&gt;Node4 -->
<g id="edge3_Node000001_Node000004" class="edge">
<title>Node1&#45;&gt;Node4</title>
<g id="a_edge3_Node000001_Node000004"><a xlink:title=" ">
<path fill="none" stroke="#63b8ff" d="M117.44,-111.74C119.68,-102.99 121.91,-94.27 123.8,-86.87"/>
<polygon fill="#63b8ff" stroke="#63b8ff" points="127.43,-87.78 126.52,-77.23 120.65,-86.05 127.43,-87.78"/>
</a>
</g>
</g>
<!-- Node5 -->
<g id="Node000005" class="node">
<title>Node5</title>
<g id="a_Node000005"><a xlink:href="a00790_source.html" target="_top" xlink:title=" ">
<polygon fill="white" stroke="#666666" points="219.38,-76 164.38,-76 164.38,-56 219.38,-56 219.38,-76"/>
<text text-anchor="middle" x="191.88" y="-62.5" font-family="Helvetica,sans-Serif" font-size="10.00">../reset.h</text>
</a>
</g>
</g>
<!-- Node1&#45;&gt;Node5 -->
<g id="edge4_Node000001_Node000005" class="edge">
<title>Node1&#45;&gt;Node5</title>
<g id="a_edge4_Node000001_Node000005"><a xlink:title=" ">
<path fill="none" stroke="#63b8ff" d="M149.13,-111.74C158.59,-101.84 168.03,-91.95 175.63,-84"/>
<polygon fill="#63b8ff" stroke="#63b8ff" points="177.68,-86.87 182.06,-77.23 172.62,-82.04 177.68,-86.87"/>
</a>
</g>
</g>
<!-- Node5&#45;&gt;Node3 -->
<g id="edge5_Node000005_Node000003" class="edge">
<title>Node5&#45;&gt;Node3</title>
<g id="a_edge5_Node000005_Node000003"><a xlink:title=" ">
<path fill="none" stroke="#63b8ff" d="M175.5,-55.59C161.17,-47.36 140.1,-35.26 123.53,-25.74"/>
<polygon fill="#63b8ff" stroke="#63b8ff" points="125.79,-22.43 115.38,-20.48 122.3,-28.5 125.79,-22.43"/>
</a>
</g>
</g>
<!-- Node6 -->
<g id="Node000006" class="node">
<title>Node6</title>
<g id="a_Node000006"><a xlink:href="a00796.html" target="_top" xlink:title="This is the generated driver types header file for the RESET driver.">
<polygon fill="white" stroke="#666666" points="229.5,-20 154.25,-20 154.25,0 229.5,0 229.5,-20"/>
<text text-anchor="middle" x="191.88" y="-6.5" font-family="Helvetica,sans-Serif" font-size="10.00">reset_types.h</text>
</a>
</g>
</g>
<!-- Node5&#45;&gt;Node6 -->
<g id="edge6_Node000005_Node000006" class="edge">
<title>Node5&#45;&gt;Node6</title>
<g id="a_edge6_Node000005_Node000006"><a xlink:title=" ">
<path fill="none" stroke="#63b8ff" d="M191.88,-55.59C191.88,-48.86 191.88,-39.53 191.88,-31.15"/>
<polygon fill="#63b8ff" stroke="#63b8ff" points="195.38,-31.3 191.88,-21.3 188.38,-31.3 195.38,-31.3"/>
</a>
</g>
</g>
</g>
</svg>
</svg>

<style type='text/css'>
<![CDATA[
[data-mouse-over-selected='false'] { opacity: 0.7; }
[data-mouse-over-selected='true']  { opacity: 1.0; }
]]>
</style>
<script type="application/ecmascript"><![CDATA[
document.addEventListener('DOMContentLoaded', (event) => {
  highlightEdges();
  highlightAdjacentNodes();
});
]]></script>
</svg>
