<?xml version="1.0" encoding="UTF-8" standalone="no"?>
<!DOCTYPE svg PUBLIC "-//W3C//DTD SVG 1.1//EN"
 "http://www.w3.org/Graphics/SVG/1.1/DTD/svg11.dtd">
<!-- Generated by graphviz version 2.44.1 (20200629.0846)
 -->
<!-- Title: C:/Users/M70027/Documents/Projects/tp&#45;deployment/dspic33ch&#45;power&#45;totem&#45;pole&#45;demonstration&#45;application&#45;single&#45;phase_v2/dspic33ch_totem_pole_single_phase_secondary_IL.X/mcc_generated_files/system/src/system.c Pages: 1 -->
<svg width="1418pt" height="280pt"
 viewBox="0.00 0.00 1418.00 280.00" xmlns="http://www.w3.org/2000/svg" xmlns:xlink="http://www.w3.org/1999/xlink">
<g id="graph0" class="graph" transform="scale(1 1) rotate(0) translate(4 276)">
<title>C:/Users/M70027/Documents/Projects/tp&#45;deployment/dspic33ch&#45;power&#45;totem&#45;pole&#45;demonstration&#45;application&#45;single&#45;phase_v2/dspic33ch_totem_pole_single_phase_secondary_IL.X/mcc_generated_files/system/src/system.c</title>
<!-- Node1 -->
<g id="Node000001" class="node">
<title>Node1</title>
<g id="a_Node000001"><a xlink:title="This is the generated driver header file for the System driver.">
<polygon fill="#999999" stroke="#666666" points="792,-272 588,-272 588,-187 792,-187 792,-272"/>
<text text-anchor="start" x="596" y="-260" font-family="Helvetica,sans-Serif" font-size="10.00">C:/Users/M70027/Documents</text>
<text text-anchor="start" x="596" y="-249" font-family="Helvetica,sans-Serif" font-size="10.00">/Projects/tp&#45;deployment</text>
<text text-anchor="start" x="596" y="-238" font-family="Helvetica,sans-Serif" font-size="10.00">/dspic33ch&#45;power&#45;totem&#45;pole</text>
<text text-anchor="start" x="596" y="-227" font-family="Helvetica,sans-Serif" font-size="10.00">&#45;demonstration&#45;application</text>
<text text-anchor="start" x="596" y="-216" font-family="Helvetica,sans-Serif" font-size="10.00">&#45;single&#45;phase_v2/dspic33ch_totem</text>
<text text-anchor="start" x="596" y="-205" font-family="Helvetica,sans-Serif" font-size="10.00">_pole_single_phase_secondary_IL.X</text>
<text text-anchor="middle" x="690" y="-194" font-family="Helvetica,sans-Serif" font-size="10.00">/mcc_generated_files/system/src/system.c</text>
</a>
</g>
</g>
<!-- Node2 -->
<g id="Node000002" class="node">
<title>Node2</title>
<g id="a_Node000002"><a xlink:href="a00856_source.html" target="_top" xlink:title=" ">
<polygon fill="white" stroke="#666666" points="278,-145.5 212,-145.5 212,-126.5 278,-126.5 278,-145.5"/>
<text text-anchor="middle" x="245" y="-133.5" font-family="Helvetica,sans-Serif" font-size="10.00">../system.h</text>
</a>
</g>
</g>
<!-- Node1&#45;&gt;Node2 -->
<g id="edge1_Node000001_Node000002" class="edge">
<title>Node1&#45;&gt;Node2</title>
<g id="a_edge1_Node000001_Node000002"><a xlink:title=" ">
<path fill="none" stroke="#63b8ff" d="M587.61,-212.38C505.9,-198.64 388.82,-177.02 288,-151 285.05,-150.24 282.02,-149.39 278.98,-148.49"/>
<polygon fill="#63b8ff" stroke="#63b8ff" points="279.99,-145.14 269.4,-145.53 277.92,-151.83 279.99,-145.14"/>
</a>
</g>
</g>
<!-- Node5 -->
<g id="Node000005" class="node">
<title>Node5</title>
<g id="a_Node000005"><a xlink:href="a00862.html" target="_top" xlink:title="This is the generated driver types header file for the System driver.">
<polygon fill="white" stroke="#666666" points="86,-85 0,-85 0,-66 86,-66 86,-85"/>
<text text-anchor="middle" x="43" y="-73" font-family="Helvetica,sans-Serif" font-size="10.00">system_types.h</text>
</a>
</g>
</g>
<!-- Node1&#45;&gt;Node5 -->
<g id="edge5_Node000001_Node000005" class="edge">
<title>Node1&#45;&gt;Node5</title>
<g id="a_edge5_Node000001_Node000005"><a xlink:title=" ">
<path fill="none" stroke="#63b8ff" d="M587.88,-220.56C488.04,-210.87 332.56,-190.62 203,-151 152.5,-135.56 97.48,-107.14 66.91,-90.22"/>
<polygon fill="#63b8ff" stroke="#63b8ff" points="68.32,-86.99 57.88,-85.16 64.9,-93.1 68.32,-86.99"/>
</a>
</g>
</g>
<!-- Node6 -->
<g id="Node000006" class="node">
<title>Node6</title>
<g id="a_Node000006"><a xlink:href="a00766_source.html" target="_top" xlink:title=" ">
<polygon fill="white" stroke="#666666" points="1093.5,-145.5 1036.5,-145.5 1036.5,-126.5 1093.5,-126.5 1093.5,-145.5"/>
<text text-anchor="middle" x="1065" y="-133.5" font-family="Helvetica,sans-Serif" font-size="10.00">../clock.h</text>
</a>
</g>
</g>
<!-- Node1&#45;&gt;Node6 -->
<g id="edge6_Node000001_Node000006" class="edge">
<title>Node1&#45;&gt;Node6</title>
<g id="a_edge6_Node000001_Node000006"><a xlink:title=" ">
<path fill="none" stroke="#63b8ff" d="M792.36,-204.93C856.22,-190 940.05,-169.99 1014,-151 1018.1,-149.95 1022.38,-148.82 1026.64,-147.68"/>
<polygon fill="#63b8ff" stroke="#63b8ff" points="1027.72,-151.01 1036.45,-145.02 1025.88,-144.26 1027.72,-151.01"/>
</a>
</g>
</g>
<!-- Node8 -->
<g id="Node000008" class="node">
<title>Node8</title>
<g id="a_Node000008"><a xlink:href="a00790_source.html" target="_top" xlink:title=" ">
<polygon fill="white" stroke="#666666" points="450,-145.5 398,-145.5 398,-126.5 450,-126.5 450,-145.5"/>
<text text-anchor="middle" x="424" y="-133.5" font-family="Helvetica,sans-Serif" font-size="10.00">../pins.h</text>
</a>
</g>
</g>
<!-- Node1&#45;&gt;Node8 -->
<g id="edge8_Node000001_Node000008" class="edge">
<title>Node1&#45;&gt;Node8</title>
<g id="a_edge8_Node000001_Node000008"><a xlink:title=" ">
<path fill="none" stroke="#63b8ff" d="M587.75,-195.16C547.76,-181.83 501.59,-166.09 460,-151 458.4,-150.42 456.76,-149.81 455.1,-149.2"/>
<polygon fill="#63b8ff" stroke="#63b8ff" points="456.23,-145.88 445.64,-145.6 453.75,-152.43 456.23,-145.88"/>
</a>
</g>
</g>
<!-- Node9 -->
<g id="Node000009" class="node">
<title>Node9</title>
<g id="a_Node000009"><a xlink:href="a00281.html" target="_top" xlink:title="This is the generated driver header file for the ADC1 driver.">
<polygon fill="white" stroke="#666666" points="379.5,-145.5 296.5,-145.5 296.5,-126.5 379.5,-126.5 379.5,-145.5"/>
<text text-anchor="middle" x="338" y="-133.5" font-family="Helvetica,sans-Serif" font-size="10.00">../../adc/adc1.h</text>
</a>
</g>
</g>
<!-- Node1&#45;&gt;Node9 -->
<g id="edge10_Node000001_Node000009" class="edge">
<title>Node1&#45;&gt;Node9</title>
<g id="a_edge10_Node000001_Node000009"><a xlink:title=" ">
<path fill="none" stroke="#63b8ff" d="M587.84,-202.63C529.53,-187.75 455.1,-168.58 389,-151 385.61,-150.1 382.1,-149.16 378.58,-148.2"/>
<polygon fill="#63b8ff" stroke="#63b8ff" points="379.29,-144.77 368.72,-145.52 377.45,-151.52 379.29,-144.77"/>
</a>
</g>
</g>
<!-- Node13 -->
<g id="Node000013" class="node">
<title>Node13</title>
<g id="a_Node000013"><a xlink:href="a00748.html" target="_top" xlink:title="This is the generated driver header file for the CMP1 driver.">
<polygon fill="white" stroke="#666666" points="1004.5,-145.5 915.5,-145.5 915.5,-126.5 1004.5,-126.5 1004.5,-145.5"/>
<text text-anchor="middle" x="960" y="-133.5" font-family="Helvetica,sans-Serif" font-size="10.00">../../cmp/cmp1.h</text>
</a>
</g>
</g>
<!-- Node1&#45;&gt;Node13 -->
<g id="edge20_Node000001_Node000013" class="edge">
<title>Node1&#45;&gt;Node13</title>
<g id="a_edge20_Node000001_Node000013"><a xlink:title=" ">
<path fill="none" stroke="#63b8ff" d="M792.08,-193.91C838.9,-178.04 891.36,-160.26 924.98,-148.87"/>
<polygon fill="#63b8ff" stroke="#63b8ff" points="926.44,-152.07 934.78,-145.55 924.19,-145.44 926.44,-152.07"/>
</a>
</g>
</g>
<!-- Node16 -->
<g id="Node000016" class="node">
<title>Node16</title>
<g id="a_Node000016"><a xlink:href="a00772_source.html" target="_top" xlink:title=" ">
<polygon fill="white" stroke="#666666" points="928,-85 878,-85 878,-66 928,-66 928,-85"/>
<text text-anchor="middle" x="903" y="-73" font-family="Helvetica,sans-Serif" font-size="10.00">../dmt.h</text>
</a>
</g>
</g>
<!-- Node1&#45;&gt;Node16 -->
<g id="edge26_Node000001_Node000016" class="edge">
<title>Node1&#45;&gt;Node16</title>
<g id="a_edge26_Node000001_Node000016"><a xlink:title=" ">
<path fill="none" stroke="#63b8ff" d="M748.2,-186.97C792.82,-155.12 851.79,-113.04 882.47,-91.15"/>
<polygon fill="#63b8ff" stroke="#63b8ff" points="884.58,-93.95 890.69,-85.29 880.51,-88.25 884.58,-93.95"/>
</a>
</g>
</g>
<!-- Node17 -->
<g id="Node000017" class="node">
<title>Node17</title>
<g id="a_Node000017"><a xlink:href="a00296.html" target="_top" xlink:title="This is the generated driver header file for the MAIN_CORE driver.">
<polygon fill="white" stroke="#666666" points="742,-151 638,-151 638,-121 742,-121 742,-151"/>
<text text-anchor="start" x="646" y="-139" font-family="Helvetica,sans-Serif" font-size="10.00">../../main_core/main</text>
<text text-anchor="middle" x="690" y="-128" font-family="Helvetica,sans-Serif" font-size="10.00">_core.h</text>
</a>
</g>
</g>
<!-- Node1&#45;&gt;Node17 -->
<g id="edge29_Node000001_Node000017" class="edge">
<title>Node1&#45;&gt;Node17</title>
<g id="a_edge29_Node000001_Node000017"><a xlink:title=" ">
<path fill="none" stroke="#63b8ff" d="M690,-186.77C690,-178.05 690,-169.14 690,-161.32"/>
<polygon fill="#63b8ff" stroke="#63b8ff" points="693.5,-161.1 690,-151.1 686.5,-161.1 693.5,-161.1"/>
</a>
</g>
</g>
<!-- Node20 -->
<g id="Node000020" class="node">
<title>Node20</title>
<g id="a_Node000020"><a xlink:href="a00308.html" target="_top" xlink:title="This is the generated driver header file for the PWM driver.">
<polygon fill="white" stroke="#666666" points="1221,-145.5 1119,-145.5 1119,-126.5 1221,-126.5 1221,-145.5"/>
<text text-anchor="middle" x="1170" y="-133.5" font-family="Helvetica,sans-Serif" font-size="10.00">../../pwm_hs/pwm.h</text>
</a>
</g>
</g>
<!-- Node1&#45;&gt;Node20 -->
<g id="edge39_Node000001_Node000020" class="edge">
<title>Node1&#45;&gt;Node20</title>
<g id="a_edge39_Node000001_Node000020"><a xlink:title=" ">
<path fill="none" stroke="#63b8ff" d="M792.37,-209.89C876.01,-194.54 997.27,-171.96 1103,-151 1108.39,-149.93 1114.02,-148.79 1119.63,-147.64"/>
<polygon fill="#63b8ff" stroke="#63b8ff" points="1120.55,-151.02 1129.64,-145.57 1119.14,-144.17 1120.55,-151.02"/>
</a>
</g>
</g>
<!-- Node24 -->
<g id="Node000024" class="node">
<title>Node24</title>
<g id="a_Node000024"><a xlink:href="a00892.html" target="_top" xlink:title="This is the generated driver header file for the TMR1 driver.">
<polygon fill="white" stroke="#666666" points="555.5,-145.5 468.5,-145.5 468.5,-126.5 555.5,-126.5 555.5,-145.5"/>
<text text-anchor="middle" x="512" y="-133.5" font-family="Helvetica,sans-Serif" font-size="10.00">../../timer/tmr1.h</text>
</a>
</g>
</g>
<!-- Node1&#45;&gt;Node24 -->
<g id="edge49_Node000001_Node000024" class="edge">
<title>Node1&#45;&gt;Node24</title>
<g id="a_edge49_Node000001_Node000024"><a xlink:title=" ">
<path fill="none" stroke="#63b8ff" d="M609.07,-186.9C583.27,-173.63 556.54,-159.9 537.69,-150.2"/>
<polygon fill="#63b8ff" stroke="#63b8ff" points="539.08,-146.99 528.59,-145.53 535.88,-153.21 539.08,-146.99"/>
</a>
</g>
</g>
<!-- Node26 -->
<g id="Node000026" class="node">
<title>Node26</title>
<g id="a_Node000026"><a xlink:href="a00778_source.html" target="_top" xlink:title=" ">
<polygon fill="white" stroke="#666666" points="1308.5,-145.5 1239.5,-145.5 1239.5,-126.5 1308.5,-126.5 1308.5,-145.5"/>
<text text-anchor="middle" x="1274" y="-133.5" font-family="Helvetica,sans-Serif" font-size="10.00">../interrupt.h</text>
</a>
</g>
</g>
<!-- Node1&#45;&gt;Node26 -->
<g id="edge58_Node000001_Node000026" class="edge">
<title>Node1&#45;&gt;Node26</title>
<g id="a_edge58_Node000001_Node000026"><a xlink:title=" ">
<path fill="none" stroke="#63b8ff" d="M792.19,-218.93C901.47,-207.51 1079.41,-185.51 1230,-151 1233.2,-150.27 1236.51,-149.41 1239.8,-148.48"/>
<polygon fill="#63b8ff" stroke="#63b8ff" points="1240.95,-151.79 1249.53,-145.58 1238.95,-145.09 1240.95,-151.79"/>
</a>
</g>
</g>
<!-- Node3 -->
<g id="Node000003" class="node">
<title>Node3</title>
<g id="a_Node000003"><a xlink:title=" ">
<polygon fill="#e0e0e0" stroke="#999999" points="355.5,-85 320.5,-85 320.5,-66 355.5,-66 355.5,-85"/>
<text text-anchor="middle" x="338" y="-73" font-family="Helvetica,sans-Serif" font-size="10.00">xc.h</text>
</a>
</g>
</g>
<!-- Node2&#45;&gt;Node3 -->
<g id="edge2_Node000002_Node000003" class="edge">
<title>Node2&#45;&gt;Node3</title>
<g id="a_edge2_Node000002_Node000003"><a xlink:title=" ">
<path fill="none" stroke="#63b8ff" d="M258.72,-126.37C273.7,-116.95 297.89,-101.73 315.62,-90.58"/>
<polygon fill="#63b8ff" stroke="#63b8ff" points="317.62,-93.45 324.22,-85.17 313.89,-87.53 317.62,-93.45"/>
</a>
</g>
</g>
<!-- Node4 -->
<g id="Node000004" class="node">
<title>Node4</title>
<g id="a_Node000004"><a xlink:title=" ">
<polygon fill="#e0e0e0" stroke="#999999" points="517.5,-24.5 468.5,-24.5 468.5,-5.5 517.5,-5.5 517.5,-24.5"/>
<text text-anchor="middle" x="493" y="-12.5" font-family="Helvetica,sans-Serif" font-size="10.00">stdint.h</text>
</a>
</g>
</g>
<!-- Node2&#45;&gt;Node4 -->
<g id="edge3_Node000002_Node000004" class="edge">
<title>Node2&#45;&gt;Node4</title>
<g id="a_edge3_Node000002_Node000004"><a xlink:title=" ">
<path fill="none" stroke="#63b8ff" d="M249.84,-126.31C258.52,-111.57 278.15,-81.74 303,-66 328.77,-49.68 411.29,-31.75 458.67,-22.44"/>
<polygon fill="#63b8ff" stroke="#63b8ff" points="459.35,-25.87 468.5,-20.53 458.02,-19 459.35,-25.87"/>
</a>
</g>
</g>
<!-- Node2&#45;&gt;Node5 -->
<g id="edge4_Node000002_Node000005" class="edge">
<title>Node2&#45;&gt;Node5</title>
<g id="a_edge4_Node000002_Node000005"><a xlink:title=" ">
<path fill="none" stroke="#63b8ff" d="M215.63,-126.49C180.4,-116.29 121.21,-99.15 82.13,-87.83"/>
<polygon fill="#63b8ff" stroke="#63b8ff" points="82.99,-84.44 72.41,-85.02 81.04,-91.16 82.99,-84.44"/>
</a>
</g>
</g>
<!-- Node7 -->
<g id="Node000007" class="node">
<title>Node7</title>
<g id="a_Node000007"><a xlink:title=" ">
<polygon fill="#e0e0e0" stroke="#999999" points="931,-24.5 875,-24.5 875,-5.5 931,-5.5 931,-24.5"/>
<text text-anchor="middle" x="903" y="-12.5" font-family="Helvetica,sans-Serif" font-size="10.00">stdbool.h</text>
</a>
</g>
</g>
<!-- Node6&#45;&gt;Node7 -->
<g id="edge7_Node000006_Node000007" class="edge">
<title>Node6&#45;&gt;Node7</title>
<g id="a_edge7_Node000006_Node000007"><a xlink:title=" ">
<path fill="none" stroke="#63b8ff" d="M1074.27,-126.21C1087.77,-112.34 1109.7,-85.02 1095,-66 1076.37,-41.89 991.79,-27.23 941.31,-20.46"/>
<polygon fill="#63b8ff" stroke="#63b8ff" points="941.46,-16.95 931.1,-19.14 940.56,-23.9 941.46,-16.95"/>
</a>
</g>
</g>
<!-- Node8&#45;&gt;Node3 -->
<g id="edge9_Node000008_Node000003" class="edge">
<title>Node8&#45;&gt;Node3</title>
<g id="a_edge9_Node000008_Node000003"><a xlink:title=" ">
<path fill="none" stroke="#63b8ff" d="M411.31,-126.37C397.59,-117.04 375.5,-102.01 359.15,-90.88"/>
<polygon fill="#63b8ff" stroke="#63b8ff" points="360.98,-87.9 350.74,-85.17 357.04,-93.69 360.98,-87.9"/>
</a>
</g>
</g>
<!-- Node9&#45;&gt;Node3 -->
<g id="edge11_Node000009_Node000003" class="edge">
<title>Node9&#45;&gt;Node3</title>
<g id="a_edge11_Node000009_Node000003"><a xlink:title=" ">
<path fill="none" stroke="#63b8ff" d="M338,-126.37C338,-118.25 338,-105.81 338,-95.39"/>
<polygon fill="#63b8ff" stroke="#63b8ff" points="341.5,-95.17 338,-85.17 334.5,-95.17 341.5,-95.17"/>
</a>
</g>
</g>
<!-- Node9&#45;&gt;Node4 -->
<g id="edge13_Node000009_Node000004" class="edge">
<title>Node9&#45;&gt;Node4</title>
<g id="a_edge13_Node000009_Node000004"><a xlink:title=" ">
<path fill="none" stroke="#63b8ff" d="M329.6,-126.14C317.41,-112.19 297.73,-84.74 312,-66 329.62,-42.85 410.67,-27.67 458.12,-20.61"/>
<polygon fill="#63b8ff" stroke="#63b8ff" points="458.88,-24.04 468.27,-19.14 457.88,-17.11 458.88,-24.04"/>
</a>
</g>
</g>
<!-- Node9&#45;&gt;Node7 -->
<g id="edge12_Node000009_Node000007" class="edge">
<title>Node9&#45;&gt;Node7</title>
<g id="a_edge12_Node000009_Node000007"><a xlink:title=" ">
<path fill="none" stroke="#63b8ff" d="M365.86,-126.43C373.32,-124.39 381.42,-122.4 389,-121 549.72,-91.26 597.35,-128.15 755,-85 801.68,-72.22 851.91,-45.81 880.2,-29.62"/>
<polygon fill="#63b8ff" stroke="#63b8ff" points="882.03,-32.61 888.92,-24.56 878.52,-26.55 882.03,-32.61"/>
</a>
</g>
</g>
<!-- Node10 -->
<g id="Node000010" class="node">
<title>Node10</title>
<g id="a_Node000010"><a xlink:href="a00290.html" target="_top" xlink:title="This is the generated driver types header file for the ADC driver.">
<polygon fill="white" stroke="#666666" points="184,-24.5 114,-24.5 114,-5.5 184,-5.5 184,-24.5"/>
<text text-anchor="middle" x="149" y="-12.5" font-family="Helvetica,sans-Serif" font-size="10.00">adc_types.h</text>
</a>
</g>
</g>
<!-- Node9&#45;&gt;Node10 -->
<g id="edge14_Node000009_Node000010" class="edge">
<title>Node9&#45;&gt;Node10</title>
<g id="a_edge14_Node000009_Node000010"><a xlink:title=" ">
<path fill="none" stroke="#63b8ff" d="M307.57,-126.45C300.81,-124.61 293.67,-122.7 287,-121 219.31,-103.75 177.37,-139.76 134,-85 122.39,-70.34 129.95,-48.64 137.95,-33.51"/>
<polygon fill="#63b8ff" stroke="#63b8ff" points="141.1,-35.05 143.07,-24.65 135.04,-31.55 141.1,-35.05"/>
</a>
</g>
</g>
<!-- Node11 -->
<g id="Node000011" class="node">
<title>Node11</title>
<g id="a_Node000011"><a xlink:href="a00287_source.html" target="_top" xlink:title=" ">
<polygon fill="white" stroke="#666666" points="225.5,-85 142.5,-85 142.5,-66 225.5,-66 225.5,-85"/>
<text text-anchor="middle" x="184" y="-73" font-family="Helvetica,sans-Serif" font-size="10.00">adc_interface.h</text>
</a>
</g>
</g>
<!-- Node9&#45;&gt;Node11 -->
<g id="edge15_Node000009_Node000011" class="edge">
<title>Node9&#45;&gt;Node11</title>
<g id="a_edge15_Node000009_Node000011"><a xlink:title=" ">
<path fill="none" stroke="#63b8ff" d="M315.61,-126.49C289.38,-116.53 245.72,-99.95 215.94,-88.63"/>
<polygon fill="#63b8ff" stroke="#63b8ff" points="217.01,-85.3 206.42,-85.02 214.53,-91.84 217.01,-85.3"/>
</a>
</g>
</g>
<!-- Node11&#45;&gt;Node4 -->
<g id="edge16_Node000011_Node000004" class="edge">
<title>Node11&#45;&gt;Node4</title>
<g id="a_edge16_Node000011_Node000004"><a xlink:title=" ">
<path fill="none" stroke="#63b8ff" d="M225.67,-66.61C287.24,-54.95 401.37,-33.35 458.51,-22.53"/>
<polygon fill="#63b8ff" stroke="#63b8ff" points="459.32,-25.94 468.5,-20.64 458.02,-19.06 459.32,-25.94"/>
</a>
</g>
</g>
<!-- Node11&#45;&gt;Node7 -->
<g id="edge17_Node000011_Node000007" class="edge">
<title>Node11&#45;&gt;Node7</title>
<g id="a_edge17_Node000011_Node000007"><a xlink:title=" ">
<path fill="none" stroke="#63b8ff" d="M225.97,-71.7C367.29,-62.24 817.91,-32.02 833,-30 843.41,-28.61 854.6,-26.6 864.91,-24.54"/>
<polygon fill="#63b8ff" stroke="#63b8ff" points="865.78,-27.94 874.87,-22.49 864.37,-21.08 865.78,-27.94"/>
</a>
</g>
</g>
<!-- Node11&#45;&gt;Node10 -->
<g id="edge18_Node000011_Node000010" class="edge">
<title>Node11&#45;&gt;Node10</title>
<g id="a_edge18_Node000011_Node000010"><a xlink:title=" ">
<path fill="none" stroke="#63b8ff" d="M178.84,-65.87C173.77,-57.4 165.9,-44.24 159.51,-33.57"/>
<polygon fill="#63b8ff" stroke="#63b8ff" points="162.32,-31.45 154.19,-24.67 156.32,-35.05 162.32,-31.45"/>
</a>
</g>
</g>
<!-- Node12 -->
<g id="Node000012" class="node">
<title>Node12</title>
<g id="a_Node000012"><a xlink:href="a00784_source.html" target="_top" xlink:title=" ">
<polygon fill="white" stroke="#666666" points="392,-30 296,-30 296,0 392,0 392,-30"/>
<text text-anchor="start" x="304" y="-18" font-family="Helvetica,sans-Serif" font-size="10.00">../system/interrupt</text>
<text text-anchor="middle" x="344" y="-7" font-family="Helvetica,sans-Serif" font-size="10.00">_types.h</text>
</a>
</g>
</g>
<!-- Node11&#45;&gt;Node12 -->
<g id="edge19_Node000011_Node000012" class="edge">
<title>Node11&#45;&gt;Node12</title>
<g id="a_edge19_Node000011_Node000012"><a xlink:title=" ">
<path fill="none" stroke="#63b8ff" d="M207.27,-65.99C230.39,-57.54 266.55,-44.32 295.88,-33.59"/>
<polygon fill="#63b8ff" stroke="#63b8ff" points="297.34,-36.79 305.53,-30.06 294.94,-30.21 297.34,-36.79"/>
</a>
</g>
</g>
<!-- Node13&#45;&gt;Node7 -->
<g id="edge22_Node000013_Node000007" class="edge">
<title>Node13&#45;&gt;Node7</title>
<g id="a_edge22_Node000013_Node000007"><a xlink:title=" ">
<path fill="none" stroke="#63b8ff" d="M1004.6,-126.69C1047.47,-116.66 1102.54,-97.15 1079,-66 1062.44,-44.09 987.95,-28.96 941.35,-21.46"/>
<polygon fill="#63b8ff" stroke="#63b8ff" points="941.71,-17.97 931.29,-19.88 940.63,-24.89 941.71,-17.97"/>
</a>
</g>
</g>
<!-- Node14 -->
<g id="Node000014" class="node">
<title>Node14</title>
<g id="a_Node000014"><a xlink:title=" ">
<polygon fill="#e0e0e0" stroke="#999999" points="706.5,-24.5 655.5,-24.5 655.5,-5.5 706.5,-5.5 706.5,-24.5"/>
<text text-anchor="middle" x="681" y="-12.5" font-family="Helvetica,sans-Serif" font-size="10.00">stddef.h</text>
</a>
</g>
</g>
<!-- Node13&#45;&gt;Node14 -->
<g id="edge21_Node000013_Node000014" class="edge">
<title>Node13&#45;&gt;Node14</title>
<g id="a_edge21_Node000013_Node000014"><a xlink:title=" ">
<path fill="none" stroke="#63b8ff" d="M959.82,-126.24C959.01,-111.39 955.08,-81.39 937,-66 861.22,-1.49 811.89,-56.64 716,-30 714.06,-29.46 712.08,-28.85 710.1,-28.19"/>
<polygon fill="#63b8ff" stroke="#63b8ff" points="710.96,-24.78 700.36,-24.62 708.55,-31.35 710.96,-24.78"/>
</a>
</g>
</g>
<!-- Node15 -->
<g id="Node000015" class="node">
<title>Node15</title>
<g id="a_Node000015"><a xlink:href="a00754_source.html" target="_top" xlink:title=" ">
<polygon fill="white" stroke="#666666" points="1070,-85 984,-85 984,-66 1070,-66 1070,-85"/>
<text text-anchor="middle" x="1027" y="-73" font-family="Helvetica,sans-Serif" font-size="10.00">cmp_interface.h</text>
</a>
</g>
</g>
<!-- Node13&#45;&gt;Node15 -->
<g id="edge23_Node000013_Node000015" class="edge">
<title>Node13&#45;&gt;Node15</title>
<g id="a_edge23_Node000013_Node000015"><a xlink:title=" ">
<path fill="none" stroke="#63b8ff" d="M969.89,-126.37C980.28,-117.3 996.84,-102.84 1009.45,-91.82"/>
<polygon fill="#63b8ff" stroke="#63b8ff" points="1011.84,-94.38 1017.07,-85.17 1007.24,-89.11 1011.84,-94.38"/>
</a>
</g>
</g>
<!-- Node15&#45;&gt;Node7 -->
<g id="edge24_Node000015_Node000007" class="edge">
<title>Node15&#45;&gt;Node7</title>
<g id="a_edge24_Node000015_Node000007"><a xlink:title=" ">
<path fill="none" stroke="#63b8ff" d="M1008.97,-65.99C988.31,-56.25 954.22,-40.16 930.3,-28.88"/>
<polygon fill="#63b8ff" stroke="#63b8ff" points="931.59,-25.62 921.05,-24.52 928.6,-31.95 931.59,-25.62"/>
</a>
</g>
</g>
<!-- Node15&#45;&gt;Node14 -->
<g id="edge25_Node000015_Node000014" class="edge">
<title>Node15&#45;&gt;Node14</title>
<g id="a_edge25_Node000015_Node000014"><a xlink:title=" ">
<path fill="none" stroke="#63b8ff" d="M983.74,-68.02C979.11,-67.33 974.46,-66.65 970,-66 857.17,-49.59 826.17,-59.38 716,-30 713.84,-29.42 711.64,-28.75 709.44,-28.02"/>
<polygon fill="#63b8ff" stroke="#63b8ff" points="710.57,-24.71 699.97,-24.55 708.16,-31.28 710.57,-24.71"/>
</a>
</g>
</g>
<!-- Node16&#45;&gt;Node4 -->
<g id="edge28_Node000016_Node000004" class="edge">
<title>Node16&#45;&gt;Node4</title>
<g id="a_edge28_Node000016_Node000004"><a xlink:title=" ">
<path fill="none" stroke="#63b8ff" d="M877.97,-70.93C807.75,-60.91 608.78,-32.52 527.86,-20.97"/>
<polygon fill="#63b8ff" stroke="#63b8ff" points="528.1,-17.47 517.7,-19.52 527.11,-24.4 528.1,-17.47"/>
</a>
</g>
</g>
<!-- Node16&#45;&gt;Node7 -->
<g id="edge27_Node000016_Node000007" class="edge">
<title>Node16&#45;&gt;Node7</title>
<g id="a_edge27_Node000016_Node000007"><a xlink:title=" ">
<path fill="none" stroke="#63b8ff" d="M903,-65.87C903,-57.75 903,-45.31 903,-34.89"/>
<polygon fill="#63b8ff" stroke="#63b8ff" points="906.5,-34.67 903,-24.67 899.5,-34.67 906.5,-34.67"/>
</a>
</g>
</g>
<!-- Node17&#45;&gt;Node3 -->
<g id="edge30_Node000017_Node000003" class="edge">
<title>Node17&#45;&gt;Node3</title>
<g id="a_edge30_Node000017_Node000003"><a xlink:title=" ">
<path fill="none" stroke="#63b8ff" d="M637.68,-126.31C561.96,-113.72 424.47,-90.87 365.77,-81.12"/>
<polygon fill="#63b8ff" stroke="#63b8ff" points="366.2,-77.64 355.76,-79.45 365.05,-84.54 366.2,-77.64"/>
</a>
</g>
</g>
<!-- Node17&#45;&gt;Node4 -->
<g id="edge31_Node000017_Node000004" class="edge">
<title>Node17&#45;&gt;Node4</title>
<g id="a_edge31_Node000017_Node000004"><a xlink:title=" ">
<path fill="none" stroke="#63b8ff" d="M637.72,-122.38C611.15,-114.39 579.23,-102.25 554,-85 533.67,-71.1 515.72,-48.95 504.65,-33.51"/>
<polygon fill="#63b8ff" stroke="#63b8ff" points="507.25,-31.12 498.68,-24.89 501.5,-35.11 507.25,-31.12"/>
</a>
</g>
</g>
<!-- Node17&#45;&gt;Node7 -->
<g id="edge32_Node000017_Node000007" class="edge">
<title>Node17&#45;&gt;Node7</title>
<g id="a_edge32_Node000017_Node000007"><a xlink:title=" ">
<path fill="none" stroke="#63b8ff" d="M742.14,-120.94C768.37,-112.62 800.02,-100.62 826,-85 850.14,-70.48 873.62,-47.83 888.18,-32.48"/>
<polygon fill="#63b8ff" stroke="#63b8ff" points="891.07,-34.51 895.29,-24.8 885.93,-29.75 891.07,-34.51"/>
</a>
</g>
</g>
<!-- Node18 -->
<g id="Node000018" class="node">
<title>Node18</title>
<g id="a_Node000018"><a xlink:href="a00302.html" target="_top" xlink:title="This is the generated driver types header file for the MAIN_CORE driver.">
<polygon fill="white" stroke="#666666" points="823.5,-24.5 724.5,-24.5 724.5,-5.5 823.5,-5.5 823.5,-24.5"/>
<text text-anchor="middle" x="774" y="-12.5" font-family="Helvetica,sans-Serif" font-size="10.00">main_core_types.h</text>
</a>
</g>
</g>
<!-- Node17&#45;&gt;Node18 -->
<g id="edge33_Node000017_Node000018" class="edge">
<title>Node17&#45;&gt;Node18</title>
<g id="a_edge33_Node000017_Node000018"><a xlink:title=" ">
<path fill="none" stroke="#63b8ff" d="M715.52,-120.93C729.09,-112.23 744.99,-99.89 755,-85 765.16,-69.88 769.92,-49.45 772.13,-34.74"/>
<polygon fill="#63b8ff" stroke="#63b8ff" points="775.6,-35.16 773.36,-24.8 768.65,-34.29 775.6,-35.16"/>
</a>
</g>
</g>
<!-- Node19 -->
<g id="Node000019" class="node">
<title>Node19</title>
<g id="a_Node000019"><a xlink:href="a00299_source.html" target="_top" xlink:title=" ">
<polygon fill="white" stroke="#666666" points="746,-85 634,-85 634,-66 746,-66 746,-85"/>
<text text-anchor="middle" x="690" y="-73" font-family="Helvetica,sans-Serif" font-size="10.00">main_core_interface.h</text>
</a>
</g>
</g>
<!-- Node17&#45;&gt;Node19 -->
<g id="edge34_Node000017_Node000019" class="edge">
<title>Node17&#45;&gt;Node19</title>
<g id="a_edge34_Node000017_Node000019"><a xlink:title=" ">
<path fill="none" stroke="#63b8ff" d="M690,-120.84C690,-113.21 690,-103.7 690,-95.45"/>
<polygon fill="#63b8ff" stroke="#63b8ff" points="693.5,-95.27 690,-85.27 686.5,-95.27 693.5,-95.27"/>
</a>
</g>
</g>
<!-- Node19&#45;&gt;Node4 -->
<g id="edge36_Node000019_Node000004" class="edge">
<title>Node19&#45;&gt;Node4</title>
<g id="a_edge36_Node000019_Node000004"><a xlink:title=" ">
<path fill="none" stroke="#63b8ff" d="M661.35,-65.99C625.8,-55.43 565.21,-37.44 527.24,-26.17"/>
<polygon fill="#63b8ff" stroke="#63b8ff" points="528.22,-22.81 517.63,-23.31 526.22,-29.52 528.22,-22.81"/>
</a>
</g>
</g>
<!-- Node19&#45;&gt;Node7 -->
<g id="edge37_Node000019_Node000007" class="edge">
<title>Node19&#45;&gt;Node7</title>
<g id="a_edge37_Node000019_Node000007"><a xlink:title=" ">
<path fill="none" stroke="#63b8ff" d="M720.97,-65.99C759.13,-55.51 823.95,-37.71 865.06,-26.42"/>
<polygon fill="#63b8ff" stroke="#63b8ff" points="866,-29.79 874.71,-23.77 864.14,-23.04 866,-29.79"/>
</a>
</g>
</g>
<!-- Node19&#45;&gt;Node14 -->
<g id="edge35_Node000019_Node000014" class="edge">
<title>Node19&#45;&gt;Node14</title>
<g id="a_edge35_Node000019_Node000014"><a xlink:title=" ">
<path fill="none" stroke="#63b8ff" d="M688.67,-65.87C687.41,-57.66 685.47,-45.04 683.85,-34.55"/>
<polygon fill="#63b8ff" stroke="#63b8ff" points="687.31,-34.02 682.33,-24.67 680.39,-35.08 687.31,-34.02"/>
</a>
</g>
</g>
<!-- Node19&#45;&gt;Node18 -->
<g id="edge38_Node000019_Node000018" class="edge">
<title>Node19&#45;&gt;Node18</title>
<g id="a_edge38_Node000019_Node000018"><a xlink:title=" ">
<path fill="none" stroke="#63b8ff" d="M702.39,-65.87C715.79,-56.54 737.38,-41.51 753.35,-30.38"/>
<polygon fill="#63b8ff" stroke="#63b8ff" points="755.35,-33.25 761.55,-24.67 751.35,-27.51 755.35,-33.25"/>
</a>
</g>
</g>
<!-- Node20&#45;&gt;Node3 -->
<g id="edge40_Node000020_Node000003" class="edge">
<title>Node20&#45;&gt;Node3</title>
<g id="a_edge40_Node000020_Node000003"><a xlink:title=" ">
<path fill="none" stroke="#63b8ff" d="M1134.36,-126.49C1124.28,-124.37 1113.25,-122.33 1103,-121 794.5,-81.07 713.83,-112.89 404,-85 391.4,-83.87 377.51,-82.15 365.73,-80.55"/>
<polygon fill="#63b8ff" stroke="#63b8ff" points="366,-77.05 355.61,-79.14 365.03,-83.99 366,-77.05"/>
</a>
</g>
</g>
<!-- Node20&#45;&gt;Node4 -->
<g id="edge41_Node000020_Node000004" class="edge">
<title>Node20&#45;&gt;Node4</title>
<g id="a_edge41_Node000020_Node000004"><a xlink:title=" ">
<path fill="none" stroke="#63b8ff" d="M1133.64,-126.5C1123.75,-124.43 1113,-122.42 1103,-121 892.06,-91.15 829.84,-143.55 625,-85 582.93,-72.97 538.8,-46.7 513.72,-30.27"/>
<polygon fill="#63b8ff" stroke="#63b8ff" points="515.64,-27.34 505.38,-24.7 511.75,-33.16 515.64,-27.34"/>
</a>
</g>
</g>
<!-- Node20&#45;&gt;Node7 -->
<g id="edge42_Node000020_Node000007" class="edge">
<title>Node20&#45;&gt;Node7</title>
<g id="a_edge42_Node000020_Node000007"><a xlink:title=" ">
<path fill="none" stroke="#63b8ff" d="M1165.07,-126.26C1156.24,-111.44 1136.27,-81.48 1111,-66 1057.93,-33.49 985.22,-22.12 941.32,-18.14"/>
<polygon fill="#63b8ff" stroke="#63b8ff" points="941.59,-14.65 931.34,-17.32 941.02,-21.63 941.59,-14.65"/>
</a>
</g>
</g>
<!-- Node21 -->
<g id="Node000021" class="node">
<title>Node21</title>
<g id="a_Node000021"><a xlink:title=" ">
<polygon fill="#e0e0e0" stroke="#999999" points="1410,-85 1362,-85 1362,-66 1410,-66 1410,-85"/>
<text text-anchor="middle" x="1386" y="-73" font-family="Helvetica,sans-Serif" font-size="10.00">stdlib.h</text>
</a>
</g>
</g>
<!-- Node20&#45;&gt;Node21 -->
<g id="edge43_Node000020_Node000021" class="edge">
<title>Node20&#45;&gt;Node21</title>
<g id="a_edge43_Node000020_Node000021"><a xlink:title=" ">
<path fill="none" stroke="#63b8ff" d="M1201.41,-126.49C1241.53,-115.63 1310.72,-96.89 1352.04,-85.7"/>
<polygon fill="#63b8ff" stroke="#63b8ff" points="1353.17,-89.02 1361.91,-83.03 1351.34,-82.26 1353.17,-89.02"/>
</a>
</g>
</g>
<!-- Node22 -->
<g id="Node000022" class="node">
<title>Node22</title>
<g id="a_Node000022"><a xlink:href="a00317.html" target="_top" xlink:title="This is the generated driver types header file for the PWM driver.">
<polygon fill="white" stroke="#666666" points="1339,-24.5 1249,-24.5 1249,-5.5 1339,-5.5 1339,-24.5"/>
<text text-anchor="middle" x="1294" y="-12.5" font-family="Helvetica,sans-Serif" font-size="10.00">pwm_hs_types.h</text>
</a>
</g>
</g>
<!-- Node20&#45;&gt;Node22 -->
<g id="edge44_Node000020_Node000022" class="edge">
<title>Node20&#45;&gt;Node22</title>
<g id="a_edge44_Node000020_Node000022"><a xlink:title=" ">
<path fill="none" stroke="#63b8ff" d="M1200.61,-126.49C1241.08,-114.94 1308.14,-94.62 1315,-85 1326.08,-69.46 1316.53,-47.98 1306.98,-33.13"/>
<polygon fill="#63b8ff" stroke="#63b8ff" points="1309.81,-31.06 1301.22,-24.85 1304.06,-35.06 1309.81,-31.06"/>
</a>
</g>
</g>
<!-- Node23 -->
<g id="Node000023" class="node">
<title>Node23</title>
<g id="a_Node000023"><a xlink:href="a00314_source.html" target="_top" xlink:title=" ">
<polygon fill="white" stroke="#666666" points="1305.5,-85 1202.5,-85 1202.5,-66 1305.5,-66 1305.5,-85"/>
<text text-anchor="middle" x="1254" y="-73" font-family="Helvetica,sans-Serif" font-size="10.00">pwm_hs_interface.h</text>
</a>
</g>
</g>
<!-- Node20&#45;&gt;Node23 -->
<g id="edge45_Node000020_Node000023" class="edge">
<title>Node20&#45;&gt;Node23</title>
<g id="a_edge45_Node000020_Node000023"><a xlink:title=" ">
<path fill="none" stroke="#63b8ff" d="M1182.39,-126.37C1195.79,-117.04 1217.38,-102.01 1233.35,-90.88"/>
<polygon fill="#63b8ff" stroke="#63b8ff" points="1235.35,-93.75 1241.55,-85.17 1231.35,-88.01 1235.35,-93.75"/>
</a>
</g>
</g>
<!-- Node23&#45;&gt;Node4 -->
<g id="edge47_Node000023_Node000004" class="edge">
<title>Node23&#45;&gt;Node4</title>
<g id="a_edge47_Node000023_Node000004"><a xlink:title=" ">
<path fill="none" stroke="#63b8ff" d="M1202.41,-71.02C1097.68,-63.9 852.62,-46.88 647,-30 606.07,-26.64 559.07,-22.3 527.87,-19.35"/>
<polygon fill="#63b8ff" stroke="#63b8ff" points="527.81,-15.82 517.53,-18.36 527.15,-22.79 527.81,-15.82"/>
</a>
</g>
</g>
<!-- Node23&#45;&gt;Node7 -->
<g id="edge46_Node000023_Node000007" class="edge">
<title>Node23&#45;&gt;Node7</title>
<g id="a_edge46_Node000023_Node000007"><a xlink:title=" ">
<path fill="none" stroke="#63b8ff" d="M1202.96,-65.99C1131.82,-54.14 1004.46,-32.91 941.04,-22.34"/>
<polygon fill="#63b8ff" stroke="#63b8ff" points="941.51,-18.87 931.07,-20.68 940.36,-25.77 941.51,-18.87"/>
</a>
</g>
</g>
<!-- Node23&#45;&gt;Node22 -->
<g id="edge48_Node000023_Node000022" class="edge">
<title>Node23&#45;&gt;Node22</title>
<g id="a_edge48_Node000023_Node000022"><a xlink:title=" ">
<path fill="none" stroke="#63b8ff" d="M1259.9,-65.87C1265.75,-57.31 1274.87,-43.97 1282.21,-33.24"/>
<polygon fill="#63b8ff" stroke="#63b8ff" points="1285.32,-34.9 1288.07,-24.67 1279.54,-30.95 1285.32,-34.9"/>
</a>
</g>
</g>
<!-- Node24&#45;&gt;Node3 -->
<g id="edge52_Node000024_Node000003" class="edge">
<title>Node24&#45;&gt;Node3</title>
<g id="a_edge52_Node000024_Node000003"><a xlink:title=" ">
<path fill="none" stroke="#63b8ff" d="M486.7,-126.49C454.41,-115.64 398.76,-96.93 365.47,-85.73"/>
<polygon fill="#63b8ff" stroke="#63b8ff" points="366.5,-82.39 355.9,-82.52 364.27,-89.02 366.5,-82.39"/>
</a>
</g>
</g>
<!-- Node24&#45;&gt;Node4 -->
<g id="edge51_Node000024_Node000004" class="edge">
<title>Node24&#45;&gt;Node4</title>
<g id="a_edge51_Node000024_Node000004"><a xlink:title=" ">
<path fill="none" stroke="#63b8ff" d="M485.54,-126.43C456.68,-116.49 413.32,-99.58 404,-85 386.97,-58.35 427,-37.83 458.78,-26.33"/>
<polygon fill="#63b8ff" stroke="#63b8ff" points="459.98,-29.62 468.3,-23.06 457.71,-23 459.98,-29.62"/>
</a>
</g>
</g>
<!-- Node24&#45;&gt;Node14 -->
<g id="edge50_Node000024_Node000014" class="edge">
<title>Node24&#45;&gt;Node14</title>
<g id="a_edge50_Node000024_Node000014"><a xlink:title=" ">
<path fill="none" stroke="#63b8ff" d="M524.15,-126.44C552.76,-106.3 624.61,-55.71 660.26,-30.6"/>
<polygon fill="#63b8ff" stroke="#63b8ff" points="662.34,-33.42 668.5,-24.8 658.31,-27.7 662.34,-33.42"/>
</a>
</g>
</g>
<!-- Node25 -->
<g id="Node000025" class="node">
<title>Node25</title>
<g id="a_Node000025"><a xlink:href="a00886_source.html" target="_top" xlink:title=" ">
<polygon fill="white" stroke="#666666" points="501.5,-85 412.5,-85 412.5,-66 501.5,-66 501.5,-85"/>
<text text-anchor="middle" x="457" y="-73" font-family="Helvetica,sans-Serif" font-size="10.00">timer_interface.h</text>
</a>
</g>
</g>
<!-- Node24&#45;&gt;Node25 -->
<g id="edge53_Node000024_Node000025" class="edge">
<title>Node24&#45;&gt;Node25</title>
<g id="a_edge53_Node000024_Node000025"><a xlink:title=" ">
<path fill="none" stroke="#63b8ff" d="M503.88,-126.37C495.6,-117.55 482.53,-103.66 472.3,-92.77"/>
<polygon fill="#63b8ff" stroke="#63b8ff" points="474.55,-90.06 465.15,-85.17 469.45,-94.85 474.55,-90.06"/>
</a>
</g>
</g>
<!-- Node25&#45;&gt;Node4 -->
<g id="edge55_Node000025_Node000004" class="edge">
<title>Node25&#45;&gt;Node4</title>
<g id="a_edge55_Node000025_Node000004"><a xlink:title=" ">
<path fill="none" stroke="#63b8ff" d="M462.31,-65.87C467.58,-57.31 475.79,-43.97 482.39,-33.24"/>
<polygon fill="#63b8ff" stroke="#63b8ff" points="485.41,-35.02 487.67,-24.67 479.44,-31.35 485.41,-35.02"/>
</a>
</g>
</g>
<!-- Node25&#45;&gt;Node7 -->
<g id="edge56_Node000025_Node000007" class="edge">
<title>Node25&#45;&gt;Node7</title>
<g id="a_edge56_Node000025_Node000007"><a xlink:title=" ">
<path fill="none" stroke="#63b8ff" d="M501.73,-70.37C572.34,-63.59 713.87,-48.93 833,-30 843.37,-28.35 854.55,-26.26 864.86,-24.2"/>
<polygon fill="#63b8ff" stroke="#63b8ff" points="865.72,-27.6 874.82,-22.17 864.32,-20.74 865.72,-27.6"/>
</a>
</g>
</g>
<!-- Node25&#45;&gt;Node12 -->
<g id="edge57_Node000025_Node000012" class="edge">
<title>Node25&#45;&gt;Node12</title>
<g id="a_edge57_Node000025_Node000012"><a xlink:title=" ">
<path fill="none" stroke="#63b8ff" d="M440.33,-65.87C424.57,-57.71 400.4,-45.2 380.21,-34.75"/>
<polygon fill="#63b8ff" stroke="#63b8ff" points="381.75,-31.6 371.26,-30.11 378.54,-37.82 381.75,-31.6"/>
</a>
</g>
</g>
<!-- Node25&#45;&gt;Node14 -->
<g id="edge54_Node000025_Node000014" class="edge">
<title>Node25&#45;&gt;Node14</title>
<g id="a_edge54_Node000025_Node000014"><a xlink:title=" ">
<path fill="none" stroke="#63b8ff" d="M489.57,-65.99C531.14,-55.14 602.77,-36.43 645.63,-25.24"/>
<polygon fill="#63b8ff" stroke="#63b8ff" points="646.56,-28.61 655.35,-22.7 644.79,-21.84 646.56,-28.61"/>
</a>
</g>
</g>
</g>
</svg>
