<?xml version="1.0" encoding="UTF-8" standalone="no"?>
<!DOCTYPE svg PUBLIC "-//W3C//DTD SVG 1.1//EN"
 "http://www.w3.org/Graphics/SVG/1.1/DTD/svg11.dtd">
<!-- Generated by graphviz version 8.1.0 (20230707.0739)
 -->
<!-- Title: D:/Firmware/MCU16ASMPS_TestEnvironment/_deployment/dspic33ch&#45;power&#45;totem&#45;pole&#45;demonstration&#45;application&#45;single&#45;phase/dspic33ch_totem_pole_single_phase_primary_IL.X/mcc_generated_files/system/src/system.c Pages: 1 -->
<svg width="1738pt" height="348pt"
 viewBox="0.00 0.00 1737.50 348.00" xmlns="http://www.w3.org/2000/svg" xmlns:xlink="http://www.w3.org/1999/xlink">
<g id="graph0" class="graph" transform="scale(1 1) rotate(0) translate(4 344)">
<title>D:/Firmware/MCU16ASMPS_TestEnvironment/_deployment/dspic33ch&#45;power&#45;totem&#45;pole&#45;demonstration&#45;application&#45;single&#45;phase/dspic33ch_totem_pole_single_phase_primary_IL.X/mcc_generated_files/system/src/system.c</title>
<!-- Node1 -->
<g id="Node000001" class="node">
<title>Node1</title>
<g id="a_Node000001"><a xlink:title="This is the generated driver header file for the System driver.">
<polygon fill="#999999" stroke="#666666" points="936.12,-340 759.62,-340 759.62,-248 936.12,-248 936.12,-340"/>
<text text-anchor="start" x="767.62" y="-326.5" font-family="Helvetica,sans-Serif" font-size="10.00">D:/Firmware/MCU16ASMPS</text>
<text text-anchor="start" x="767.62" y="-314.5" font-family="Helvetica,sans-Serif" font-size="10.00">_TestEnvironment/_deployment</text>
<text text-anchor="start" x="767.62" y="-302.5" font-family="Helvetica,sans-Serif" font-size="10.00">/dspic33ch&#45;power&#45;totem&#45;pole</text>
<text text-anchor="start" x="767.62" y="-290.5" font-family="Helvetica,sans-Serif" font-size="10.00">&#45;demonstration&#45;application&#45;single</text>
<text text-anchor="start" x="767.62" y="-278.5" font-family="Helvetica,sans-Serif" font-size="10.00">&#45;phase/dspic33ch_totem_pole_single</text>
<text text-anchor="start" x="767.62" y="-266.5" font-family="Helvetica,sans-Serif" font-size="10.00">_phase_primary_IL.X/mcc_generated</text>
<text text-anchor="middle" x="847.88" y="-254.5" font-family="Helvetica,sans-Serif" font-size="10.00">_files/system/src/system.c</text>
</a>
</g>
</g>
<!-- Node2 -->
<g id="Node000002" class="node">
<title>Node2</title>
<g id="a_Node000002"><a xlink:href="a00847_source.html" target="_top" xlink:title=" ">
<polygon fill="white" stroke="#666666" points="741.62,-206 676.12,-206 676.12,-186 741.62,-186 741.62,-206"/>
<text text-anchor="middle" x="708.88" y="-192.5" font-family="Helvetica,sans-Serif" font-size="10.00">../system.h</text>
</a>
</g>
</g>
<!-- Node1&#45;&gt;Node2 -->
<g id="edge1_Node000001_Node000002" class="edge">
<title>Node1&#45;&gt;Node2</title>
<g id="a_edge1_Node000001_Node000002"><a xlink:title=" ">
<path fill="none" stroke="#63b8ff" d="M782.04,-247.53C763.79,-234.93 745.21,-222.1 731.34,-212.52"/>
<polygon fill="#63b8ff" stroke="#63b8ff" points="733.77,-209.25 723.55,-206.45 729.79,-215.01 733.77,-209.25"/>
</a>
</g>
</g>
<!-- Node5 -->
<g id="Node000005" class="node">
<title>Node5</title>
<g id="a_Node000005"><a xlink:href="a00853.html" target="_top" xlink:title="This is the generated driver types header file for the System driver.">
<polygon fill="white" stroke="#666666" points="683.75,-144 598,-144 598,-124 683.75,-124 683.75,-144"/>
<text text-anchor="middle" x="640.88" y="-130.5" font-family="Helvetica,sans-Serif" font-size="10.00">system_types.h</text>
</a>
</g>
</g>
<!-- Node1&#45;&gt;Node5 -->
<g id="edge5_Node000001_Node000005" class="edge">
<title>Node1&#45;&gt;Node5</title>
<g id="a_edge5_Node000001_Node000005"><a xlink:title=" ">
<path fill="none" stroke="#63b8ff" d="M759.56,-269.97C726.67,-257.53 691.42,-239 666.88,-212 652.38,-196.05 645.92,-171.72 643.08,-154.69"/>
<polygon fill="#63b8ff" stroke="#63b8ff" points="646.47,-154.68 641.63,-145.26 639.54,-155.64 646.47,-154.68"/>
</a>
</g>
</g>
<!-- Node6 -->
<g id="Node000006" class="node">
<title>Node6</title>
<g id="a_Node000006"><a xlink:href="a00757_source.html" target="_top" xlink:title=" ">
<polygon fill="white" stroke="#666666" points="580.12,-144 523.62,-144 523.62,-124 580.12,-124 580.12,-144"/>
<text text-anchor="middle" x="551.88" y="-130.5" font-family="Helvetica,sans-Serif" font-size="10.00">../clock.h</text>
</a>
</g>
</g>
<!-- Node1&#45;&gt;Node6 -->
<g id="edge6_Node000001_Node000006" class="edge">
<title>Node1&#45;&gt;Node6</title>
<g id="a_edge6_Node000001_Node000006"><a xlink:title=" ">
<path fill="none" stroke="#63b8ff" d="M759.38,-264.52C722.72,-251.01 680.52,-233.16 644.88,-212 615.91,-194.81 586.66,-168.86 568.9,-151.92"/>
<polygon fill="#63b8ff" stroke="#63b8ff" points="571.77,-149.86 562.15,-145.41 566.9,-154.88 571.77,-149.86"/>
</a>
</g>
</g>
<!-- Node8 -->
<g id="Node000008" class="node">
<title>Node8</title>
<g id="a_Node000008"><a xlink:href="a00781_source.html" target="_top" xlink:title=" ">
<polygon fill="white" stroke="#666666" points="917.5,-206 866.25,-206 866.25,-186 917.5,-186 917.5,-206"/>
<text text-anchor="middle" x="891.88" y="-192.5" font-family="Helvetica,sans-Serif" font-size="10.00">../pins.h</text>
</a>
</g>
</g>
<!-- Node1&#45;&gt;Node8 -->
<g id="edge8_Node000001_Node000008" class="edge">
<title>Node1&#45;&gt;Node8</title>
<g id="a_edge8_Node000001_Node000008"><a xlink:title=" ">
<path fill="none" stroke="#63b8ff" d="M868.72,-247.53C873.77,-236.5 878.9,-225.3 883.05,-216.25"/>
<polygon fill="#63b8ff" stroke="#63b8ff" points="886.56,-217.99 887.55,-207.45 880.2,-215.08 886.56,-217.99"/>
</a>
</g>
</g>
<!-- Node9 -->
<g id="Node000009" class="node">
<title>Node9</title>
<g id="a_Node000009"><a xlink:href="a00083.html" target="_top" xlink:title="This is the generated driver header file for the CAN1 driver using CCL.">
<polygon fill="white" stroke="#666666" points="1466.88,-206 1384.88,-206 1384.88,-186 1466.88,-186 1466.88,-206"/>
<text text-anchor="middle" x="1425.88" y="-192.5" font-family="Helvetica,sans-Serif" font-size="10.00">../../can/can1.h</text>
</a>
</g>
</g>
<!-- Node1&#45;&gt;Node9 -->
<g id="edge10_Node000001_Node000009" class="edge">
<title>Node1&#45;&gt;Node9</title>
<g id="a_edge10_Node000001_Node000009"><a xlink:title=" ">
<path fill="none" stroke="#63b8ff" d="M936.4,-283.24C1041.85,-270.74 1222.99,-246.48 1375.88,-212 1379.28,-211.23 1382.79,-210.36 1386.3,-209.42"/>
<polygon fill="#63b8ff" stroke="#63b8ff" points="1387.03,-212.57 1395.71,-206.49 1385.13,-205.83 1387.03,-212.57"/>
</a>
</g>
</g>
<!-- Node12 -->
<g id="Node000012" class="node">
<title>Node12</title>
<g id="a_Node000012"><a xlink:href="a00739.html" target="_top" xlink:title="This is the generated driver header file for the CMP1 driver.">
<polygon fill="white" stroke="#666666" points="847.88,-206 759.88,-206 759.88,-186 847.88,-186 847.88,-206"/>
<text text-anchor="middle" x="803.88" y="-192.5" font-family="Helvetica,sans-Serif" font-size="10.00">../../cmp/cmp1.h</text>
</a>
</g>
</g>
<!-- Node1&#45;&gt;Node12 -->
<g id="edge20_Node000001_Node000012" class="edge">
<title>Node1&#45;&gt;Node12</title>
<g id="a_edge20_Node000001_Node000012"><a xlink:title=" ">
<path fill="none" stroke="#63b8ff" d="M827.03,-247.53C821.98,-236.5 816.85,-225.3 812.7,-216.25"/>
<polygon fill="#63b8ff" stroke="#63b8ff" points="815.55,-215.08 808.2,-207.45 809.19,-217.99 815.55,-215.08"/>
</a>
</g>
</g>
<!-- Node15 -->
<g id="Node000015" class="node">
<title>Node15</title>
<g id="a_Node000015"><a xlink:href="a00107.html" target="_top" xlink:title="This is the generated driver header file for the DMA driver.">
<polygon fill="white" stroke="#666666" points="287.25,-206 204.5,-206 204.5,-186 287.25,-186 287.25,-206"/>
<text text-anchor="middle" x="245.88" y="-192.5" font-family="Helvetica,sans-Serif" font-size="10.00">../../dma/dma.h</text>
</a>
</g>
</g>
<!-- Node1&#45;&gt;Node15 -->
<g id="edge26_Node000001_Node000015" class="edge">
<title>Node1&#45;&gt;Node15</title>
<g id="a_edge26_Node000001_Node000015"><a xlink:title=" ">
<path fill="none" stroke="#63b8ff" d="M759.37,-278.89C632.13,-258.6 401.5,-221.82 298.28,-205.36"/>
<polygon fill="#63b8ff" stroke="#63b8ff" points="298.94,-201.76 288.51,-203.64 297.84,-208.67 298.94,-201.76"/>
</a>
</g>
</g>
<!-- Node18 -->
<g id="Node000018" class="node">
<title>Node18</title>
<g id="a_Node000018"><a xlink:href="a00763_source.html" target="_top" xlink:title=" ">
<polygon fill="white" stroke="#666666" points="49.75,-144 0,-144 0,-124 49.75,-124 49.75,-144"/>
<text text-anchor="middle" x="24.88" y="-130.5" font-family="Helvetica,sans-Serif" font-size="10.00">../dmt.h</text>
</a>
</g>
</g>
<!-- Node1&#45;&gt;Node18 -->
<g id="edge35_Node000001_Node000018" class="edge">
<title>Node1&#45;&gt;Node18</title>
<g id="a_edge35_Node000001_Node000018"><a xlink:title=" ">
<path fill="none" stroke="#63b8ff" d="M759.23,-290.36C632.23,-284.71 392.2,-267.04 195.88,-212 141.89,-196.87 83.17,-167.26 50.5,-149.49"/>
<polygon fill="#63b8ff" stroke="#63b8ff" points="52.68,-146.14 42.23,-144.39 49.31,-152.28 52.68,-146.14"/>
</a>
</g>
</g>
<!-- Node19 -->
<g id="Node000019" class="node">
<title>Node19</title>
<g id="a_Node000019"><a xlink:href="a00203.html" target="_top" xlink:title="This is the generated driver header file for the SCCP1&#45;TIMER driver.">
<polygon fill="white" stroke="#666666" points="1028.5,-206 935.25,-206 935.25,-186 1028.5,-186 1028.5,-206"/>
<text text-anchor="middle" x="981.88" y="-192.5" font-family="Helvetica,sans-Serif" font-size="10.00">../../timer/sccp1.h</text>
</a>
</g>
</g>
<!-- Node1&#45;&gt;Node19 -->
<g id="edge38_Node000001_Node000019" class="edge">
<title>Node1&#45;&gt;Node19</title>
<g id="a_edge38_Node000001_Node000019"><a xlink:title=" ">
<path fill="none" stroke="#63b8ff" d="M911.34,-247.53C928.76,-235.05 946.5,-222.34 959.83,-212.79"/>
<polygon fill="#63b8ff" stroke="#63b8ff" points="961.6,-215.11 967.69,-206.45 957.52,-209.42 961.6,-215.11"/>
</a>
</g>
</g>
<!-- Node22 -->
<g id="Node000022" class="node">
<title>Node22</title>
<g id="a_Node000022"><a xlink:href="a00206.html" target="_top" xlink:title="This is the generated driver header file for the SCCP2&#45;TIMER driver.">
<polygon fill="white" stroke="#666666" points="1139.5,-206 1046.25,-206 1046.25,-186 1139.5,-186 1139.5,-206"/>
<text text-anchor="middle" x="1092.88" y="-192.5" font-family="Helvetica,sans-Serif" font-size="10.00">../../timer/sccp2.h</text>
</a>
</g>
</g>
<!-- Node1&#45;&gt;Node22 -->
<g id="edge47_Node000001_Node000022" class="edge">
<title>Node1&#45;&gt;Node22</title>
<g id="a_edge47_Node000001_Node000022"><a xlink:title=" ">
<path fill="none" stroke="#63b8ff" d="M936.33,-258.34C978.81,-241.69 1027.23,-222.72 1058.83,-210.34"/>
<polygon fill="#63b8ff" stroke="#63b8ff" points="1059.83,-213.31 1067.87,-206.41 1057.28,-206.8 1059.83,-213.31"/>
</a>
</g>
</g>
<!-- Node23 -->
<g id="Node000023" class="node">
<title>Node23</title>
<g id="a_Node000023"><a xlink:href="a00122.html" target="_top" xlink:title="This is the generated driver header file for the SEC_CORE1 driver.">
<polygon fill="white" stroke="#666666" points="506.38,-212 403.38,-212 403.38,-180 506.38,-180 506.38,-212"/>
<text text-anchor="start" x="411.38" y="-198.5" font-family="Helvetica,sans-Serif" font-size="10.00">../../secondary_core</text>
<text text-anchor="middle" x="454.88" y="-186.5" font-family="Helvetica,sans-Serif" font-size="10.00">/sec_core1.h</text>
</a>
</g>
</g>
<!-- Node1&#45;&gt;Node23 -->
<g id="edge52_Node000001_Node000023" class="edge">
<title>Node1&#45;&gt;Node23</title>
<g id="a_edge52_Node000001_Node000023"><a xlink:title=" ">
<path fill="none" stroke="#63b8ff" d="M759.19,-271.34C685.52,-253.34 582.58,-228.2 517.33,-212.26"/>
<polygon fill="#63b8ff" stroke="#63b8ff" points="518.34,-208.65 507.79,-209.68 516.68,-215.46 518.34,-208.65"/>
</a>
</g>
</g>
<!-- Node26 -->
<g id="Node000026" class="node">
<title>Node26</title>
<g id="a_Node000026"><a xlink:href="a00134.html" target="_top" xlink:title="This is the generated driver header file for the SPI1 driver.">
<polygon fill="white" stroke="#666666" points="1367.12,-206 1262.62,-206 1262.62,-186 1367.12,-186 1367.12,-206"/>
<text text-anchor="middle" x="1314.88" y="-192.5" font-family="Helvetica,sans-Serif" font-size="10.00">../../spi_client/spi1.h</text>
</a>
</g>
</g>
<!-- Node1&#45;&gt;Node26 -->
<g id="edge62_Node000001_Node000026" class="edge">
<title>Node1&#45;&gt;Node26</title>
<g id="a_edge62_Node000001_Node000026"><a xlink:title=" ">
<path fill="none" stroke="#63b8ff" d="M936.57,-276.32C1018.77,-260.61 1144.35,-235.97 1252.88,-212 1257.25,-211.03 1261.8,-210 1266.35,-208.94"/>
<polygon fill="#63b8ff" stroke="#63b8ff" points="1266.97,-212.15 1275.9,-206.44 1265.36,-205.34 1266.97,-212.15"/>
</a>
</g>
</g>
<!-- Node28 -->
<g id="Node000028" class="node">
<title>Node28</title>
<g id="a_Node000028"><a xlink:href="a00883.html" target="_top" xlink:title="This is the generated driver header file for the TMR1 driver.">
<polygon fill="white" stroke="#666666" points="1244.12,-206 1157.62,-206 1157.62,-186 1244.12,-186 1244.12,-206"/>
<text text-anchor="middle" x="1200.88" y="-192.5" font-family="Helvetica,sans-Serif" font-size="10.00">../../timer/tmr1.h</text>
</a>
</g>
</g>
<!-- Node1&#45;&gt;Node28 -->
<g id="edge70_Node000001_Node000028" class="edge">
<title>Node1&#45;&gt;Node28</title>
<g id="a_edge70_Node000001_Node000028"><a xlink:title=" ">
<path fill="none" stroke="#63b8ff" d="M936.56,-269.58C996.57,-253.63 1077.59,-231.87 1148.88,-212 1151.84,-211.17 1154.91,-210.31 1157.99,-209.44"/>
<polygon fill="#63b8ff" stroke="#63b8ff" points="1158.79,-212.56 1167.45,-206.45 1156.87,-205.83 1158.79,-212.56"/>
</a>
</g>
</g>
<!-- Node29 -->
<g id="Node000029" class="node">
<title>Node29</title>
<g id="a_Node000029"><a xlink:href="a00769_source.html" target="_top" xlink:title=" ">
<polygon fill="white" stroke="#666666" points="1553.12,-206 1484.62,-206 1484.62,-186 1553.12,-186 1553.12,-206"/>
<text text-anchor="middle" x="1518.88" y="-192.5" font-family="Helvetica,sans-Serif" font-size="10.00">../interrupt.h</text>
</a>
</g>
</g>
<!-- Node1&#45;&gt;Node29 -->
<g id="edge75_Node000001_Node000029" class="edge">
<title>Node1&#45;&gt;Node29</title>
<g id="a_edge75_Node000001_Node000029"><a xlink:title=" ">
<path fill="none" stroke="#63b8ff" d="M936.54,-287.38C1059.11,-278.3 1286.64,-256.7 1475.88,-212 1478.66,-211.34 1481.53,-210.57 1484.38,-209.73"/>
<polygon fill="#63b8ff" stroke="#63b8ff" points="1485.12,-212.84 1493.58,-206.46 1482.99,-206.18 1485.12,-212.84"/>
</a>
</g>
</g>
<!-- Node3 -->
<g id="Node000003" class="node">
<title>Node3</title>
<g id="a_Node000003"><a xlink:title=" ">
<polygon fill="#e0e0e0" stroke="#999999" points="954.25,-144 919.5,-144 919.5,-124 954.25,-124 954.25,-144"/>
<text text-anchor="middle" x="936.88" y="-130.5" font-family="Helvetica,sans-Serif" font-size="10.00">xc.h</text>
</a>
</g>
</g>
<!-- Node2&#45;&gt;Node3 -->
<g id="edge2_Node000002_Node000003" class="edge">
<title>Node2&#45;&gt;Node3</title>
<g id="a_edge2_Node000002_Node000003"><a xlink:title=" ">
<path fill="none" stroke="#63b8ff" d="M734.05,-185.52C739.56,-183.58 745.38,-181.64 750.88,-180 806.12,-163.5 871.94,-148.69 908.61,-140.86"/>
<polygon fill="#63b8ff" stroke="#63b8ff" points="908.95,-144.16 918.01,-138.66 907.5,-137.31 908.95,-144.16"/>
</a>
</g>
</g>
<!-- Node4 -->
<g id="Node000004" class="node">
<title>Node4</title>
<g id="a_Node000004"><a xlink:title=" ">
<polygon fill="#e0e0e0" stroke="#999999" points="1044,-20 995.75,-20 995.75,0 1044,0 1044,-20"/>
<text text-anchor="middle" x="1019.88" y="-6.5" font-family="Helvetica,sans-Serif" font-size="10.00">stdint.h</text>
</a>
</g>
</g>
<!-- Node2&#45;&gt;Node4 -->
<g id="edge3_Node000002_Node000004" class="edge">
<title>Node2&#45;&gt;Node4</title>
<g id="a_edge3_Node000002_Node000004"><a xlink:title=" ">
<path fill="none" stroke="#63b8ff" d="M707.05,-185.6C702.78,-160.55 695.07,-91.72 730.88,-56 765.95,-21.01 915.47,-13.22 984.58,-11.49"/>
<polygon fill="#63b8ff" stroke="#63b8ff" points="984.42,-14.97 994.35,-11.25 984.27,-7.97 984.42,-14.97"/>
</a>
</g>
</g>
<!-- Node2&#45;&gt;Node5 -->
<g id="edge4_Node000002_Node000005" class="edge">
<title>Node2&#45;&gt;Node5</title>
<g id="a_edge4_Node000002_Node000005"><a xlink:title=" ">
<path fill="none" stroke="#63b8ff" d="M698.25,-185.62C687.81,-176.41 671.67,-162.17 659.16,-151.14"/>
<polygon fill="#63b8ff" stroke="#63b8ff" points="662.02,-149.1 652.2,-145.11 657.39,-154.35 662.02,-149.1"/>
</a>
</g>
</g>
<!-- Node7 -->
<g id="Node000007" class="node">
<title>Node7</title>
<g id="a_Node000007"><a xlink:title=" ">
<polygon fill="#e0e0e0" stroke="#999999" points="795.75,-82 740,-82 740,-62 795.75,-62 795.75,-82"/>
<text text-anchor="middle" x="767.88" y="-68.5" font-family="Helvetica,sans-Serif" font-size="10.00">stdbool.h</text>
</a>
</g>
</g>
<!-- Node6&#45;&gt;Node7 -->
<g id="edge7_Node000006_Node000007" class="edge">
<title>Node6&#45;&gt;Node7</title>
<g id="a_edge7_Node000006_Node000007"><a xlink:title=" ">
<path fill="none" stroke="#63b8ff" d="M580.56,-125.03C618.77,-114.42 686.52,-95.6 729.22,-83.74"/>
<polygon fill="#63b8ff" stroke="#63b8ff" points="730.06,-86.86 738.76,-80.81 728.19,-80.11 730.06,-86.86"/>
</a>
</g>
</g>
<!-- Node8&#45;&gt;Node3 -->
<g id="edge9_Node000008_Node000003" class="edge">
<title>Node8&#45;&gt;Node3</title>
<g id="a_edge9_Node000008_Node000003"><a xlink:title=" ">
<path fill="none" stroke="#63b8ff" d="M898.91,-185.62C905.48,-176.86 915.48,-163.53 923.56,-152.75"/>
<polygon fill="#63b8ff" stroke="#63b8ff" points="926.84,-155.21 930.04,-145.11 921.24,-151.01 926.84,-155.21"/>
</a>
</g>
</g>
<!-- Node9&#45;&gt;Node3 -->
<g id="edge11_Node000009_Node000003" class="edge">
<title>Node9&#45;&gt;Node3</title>
<g id="a_edge11_Node000009_Node000003"><a xlink:title=" ">
<path fill="none" stroke="#63b8ff" d="M1397.82,-185.57C1390.72,-183.46 1383.07,-181.44 1375.88,-180 1335.7,-171.99 1056.24,-145.95 965.36,-137.6"/>
<polygon fill="#63b8ff" stroke="#63b8ff" points="965.81,-134.04 955.53,-136.61 965.17,-141.01 965.81,-134.04"/>
</a>
</g>
</g>
<!-- Node9&#45;&gt;Node4 -->
<g id="edge13_Node000009_Node000004" class="edge">
<title>Node9&#45;&gt;Node4</title>
<g id="a_edge13_Node000009_Node000004"><a xlink:title=" ">
<path fill="none" stroke="#63b8ff" d="M1453.39,-185.56C1481.72,-175.22 1522.94,-158.22 1531.88,-144 1559.79,-99.59 1503.97,-74.42 1465.88,-56 1393.56,-21.03 1147.89,-13.2 1055.44,-11.47"/>
<polygon fill="#63b8ff" stroke="#63b8ff" points="1055.51,-7.96 1045.45,-11.29 1055.39,-14.96 1055.51,-7.96"/>
</a>
</g>
</g>
<!-- Node9&#45;&gt;Node7 -->
<g id="edge12_Node000009_Node000007" class="edge">
<title>Node9&#45;&gt;Node7</title>
<g id="a_edge12_Node000009_Node000007"><a xlink:title=" ">
<path fill="none" stroke="#63b8ff" d="M1399.37,-185.52C1355.67,-170.26 1265.49,-140.31 1186.88,-124 1048.67,-95.32 881.24,-80.93 806.8,-75.56"/>
<polygon fill="#63b8ff" stroke="#63b8ff" points="807.31,-72.01 797.09,-74.8 806.82,-79 807.31,-72.01"/>
</a>
</g>
</g>
<!-- Node10 -->
<g id="Node000010" class="node">
<title>Node10</title>
<g id="a_Node000010"><a xlink:href="a00092.html" target="_top" xlink:title="This is the generated driver types header file for the CAN driver using CCL.">
<polygon fill="white" stroke="#666666" points="1729.5,-82 1660.25,-82 1660.25,-62 1729.5,-62 1729.5,-82"/>
<text text-anchor="middle" x="1694.88" y="-68.5" font-family="Helvetica,sans-Serif" font-size="10.00">can_types.h</text>
</a>
</g>
</g>
<!-- Node9&#45;&gt;Node10 -->
<g id="edge14_Node000009_Node000010" class="edge">
<title>Node9&#45;&gt;Node10</title>
<g id="a_edge14_Node000009_Node000010"><a xlink:title=" ">
<path fill="none" stroke="#63b8ff" d="M1454.78,-185.58C1461.64,-183.55 1468.98,-181.55 1475.88,-180 1527.85,-168.32 1678.15,-184.4 1712.88,-144 1725.39,-129.44 1716.89,-107.37 1707.8,-91.71"/>
<polygon fill="#63b8ff" stroke="#63b8ff" points="1710.27,-90.06 1701.96,-83.48 1704.35,-93.8 1710.27,-90.06"/>
</a>
</g>
</g>
<!-- Node11 -->
<g id="Node000011" class="node">
<title>Node11</title>
<g id="a_Node000011"><a xlink:href="a00089_source.html" target="_top" xlink:title=" ">
<polygon fill="white" stroke="#666666" points="1703.88,-144 1621.88,-144 1621.88,-124 1703.88,-124 1703.88,-144"/>
<text text-anchor="middle" x="1662.88" y="-130.5" font-family="Helvetica,sans-Serif" font-size="10.00">can_interface.h</text>
</a>
</g>
</g>
<!-- Node9&#45;&gt;Node11 -->
<g id="edge16_Node000009_Node000011" class="edge">
<title>Node9&#45;&gt;Node11</title>
<g id="a_edge16_Node000009_Node000011"><a xlink:title=" ">
<path fill="none" stroke="#63b8ff" d="M1456.47,-185.53C1462.86,-183.63 1469.58,-181.7 1475.88,-180 1521.21,-167.76 1573.16,-155.39 1610.78,-146.72"/>
<polygon fill="#63b8ff" stroke="#63b8ff" points="1611.52,-149.91 1620.48,-144.27 1609.96,-143.09 1611.52,-149.91"/>
</a>
</g>
</g>
<!-- Node10&#45;&gt;Node4 -->
<g id="edge15_Node000010_Node000004" class="edge">
<title>Node10&#45;&gt;Node4</title>
<g id="a_edge15_Node000010_Node000004"><a xlink:title=" ">
<path fill="none" stroke="#63b8ff" d="M1667.93,-61.56C1660.84,-59.41 1653.13,-57.35 1645.88,-56 1423.8,-14.58 1150.85,-10.73 1055.08,-10.77"/>
<polygon fill="#63b8ff" stroke="#63b8ff" points="1055.29,-7.27 1045.3,-10.79 1055.3,-14.27 1055.29,-7.27"/>
</a>
</g>
</g>
<!-- Node11&#45;&gt;Node4 -->
<g id="edge18_Node000011_Node000004" class="edge">
<title>Node11&#45;&gt;Node4</title>
<g id="a_edge18_Node000011_Node000004"><a xlink:title=" ">
<path fill="none" stroke="#63b8ff" d="M1659.32,-123.61C1652.37,-106.69 1635.21,-71.41 1607.88,-56 1559.71,-28.84 1174.11,-15.47 1054.88,-11.96"/>
<polygon fill="#63b8ff" stroke="#63b8ff" points="1055.29,-8.44 1045.19,-11.65 1055.08,-15.44 1055.29,-8.44"/>
</a>
</g>
</g>
<!-- Node11&#45;&gt;Node7 -->
<g id="edge17_Node000011_Node000007" class="edge">
<title>Node11&#45;&gt;Node7</title>
<g id="a_edge17_Node000011_Node000007"><a xlink:title=" ">
<path fill="none" stroke="#63b8ff" d="M1621.5,-130.23C1470.89,-120.13 953.06,-85.41 806.69,-75.6"/>
<polygon fill="#63b8ff" stroke="#63b8ff" points="807.23,-72.06 797.02,-74.89 806.76,-79.05 807.23,-72.06"/>
</a>
</g>
</g>
<!-- Node11&#45;&gt;Node10 -->
<g id="edge19_Node000011_Node000010" class="edge">
<title>Node11&#45;&gt;Node10</title>
<g id="a_edge19_Node000011_Node000010"><a xlink:title=" ">
<path fill="none" stroke="#63b8ff" d="M1667.88,-123.62C1672.41,-115.12 1679.23,-102.33 1684.88,-91.74"/>
<polygon fill="#63b8ff" stroke="#63b8ff" points="1688.4,-93.58 1690.01,-83.11 1682.22,-90.29 1688.4,-93.58"/>
</a>
</g>
</g>
<!-- Node12&#45;&gt;Node7 -->
<g id="edge22_Node000012_Node000007" class="edge">
<title>Node12&#45;&gt;Node7</title>
<g id="a_edge22_Node000012_Node000007"><a xlink:title=" ">
<path fill="none" stroke="#63b8ff" d="M795.3,-185.71C787.03,-176.09 775.04,-160.22 769.88,-144 764.62,-127.48 764.53,-107.68 765.52,-93.2"/>
<polygon fill="#63b8ff" stroke="#63b8ff" points="769.08,-93.75 766.52,-83.46 762.11,-93.1 769.08,-93.75"/>
</a>
</g>
</g>
<!-- Node13 -->
<g id="Node000013" class="node">
<title>Node13</title>
<g id="a_Node000013"><a xlink:title=" ">
<polygon fill="#e0e0e0" stroke="#999999" points="1250.12,-82 1199.62,-82 1199.62,-62 1250.12,-62 1250.12,-82"/>
<text text-anchor="middle" x="1224.88" y="-68.5" font-family="Helvetica,sans-Serif" font-size="10.00">stddef.h</text>
</a>
</g>
</g>
<!-- Node12&#45;&gt;Node13 -->
<g id="edge21_Node000012_Node000013" class="edge">
<title>Node12&#45;&gt;Node13</title>
<g id="a_edge21_Node000012_Node000013"><a xlink:title=" ">
<path fill="none" stroke="#63b8ff" d="M816.46,-185.58C840.14,-168.05 890.72,-131.52 910.88,-124 1028.44,-80.17 1070.01,-121.67 1190.88,-88 1192.63,-87.51 1194.41,-86.95 1196.18,-86.34"/>
<polygon fill="#63b8ff" stroke="#63b8ff" points="1197.15,-89.32 1205.17,-82.4 1194.58,-82.81 1197.15,-89.32"/>
</a>
</g>
</g>
<!-- Node14 -->
<g id="Node000014" class="node">
<title>Node14</title>
<g id="a_Node000014"><a xlink:href="a00745_source.html" target="_top" xlink:title=" ">
<polygon fill="white" stroke="#666666" points="863.38,-144 778.38,-144 778.38,-124 863.38,-124 863.38,-144"/>
<text text-anchor="middle" x="820.88" y="-130.5" font-family="Helvetica,sans-Serif" font-size="10.00">cmp_interface.h</text>
</a>
</g>
</g>
<!-- Node12&#45;&gt;Node14 -->
<g id="edge23_Node000012_Node000014" class="edge">
<title>Node12&#45;&gt;Node14</title>
<g id="a_edge23_Node000012_Node000014"><a xlink:title=" ">
<path fill="none" stroke="#63b8ff" d="M806.53,-185.62C808.89,-177.3 812.41,-164.86 815.38,-154.4"/>
<polygon fill="#63b8ff" stroke="#63b8ff" points="818.93,-155.69 818.29,-145.11 812.2,-153.78 818.93,-155.69"/>
</a>
</g>
</g>
<!-- Node14&#45;&gt;Node7 -->
<g id="edge24_Node000014_Node000007" class="edge">
<title>Node14&#45;&gt;Node7</title>
<g id="a_edge24_Node000014_Node000007"><a xlink:title=" ">
<path fill="none" stroke="#63b8ff" d="M812.59,-123.62C804.69,-114.68 792.6,-100.99 782.98,-90.1"/>
<polygon fill="#63b8ff" stroke="#63b8ff" points="786.17,-88.29 776.92,-83.11 780.92,-92.92 786.17,-88.29"/>
</a>
</g>
</g>
<!-- Node14&#45;&gt;Node13 -->
<g id="edge25_Node000014_Node000013" class="edge">
<title>Node14&#45;&gt;Node13</title>
<g id="a_edge25_Node000014_Node000013"><a xlink:title=" ">
<path fill="none" stroke="#63b8ff" d="M863.8,-126.02C868.54,-125.31 873.31,-124.62 877.88,-124 1016.62,-105.08 1055.73,-124.68 1190.88,-88 1192.63,-87.52 1194.41,-86.97 1196.19,-86.36"/>
<polygon fill="#63b8ff" stroke="#63b8ff" points="1197.15,-89.36 1205.18,-82.45 1194.59,-82.84 1197.15,-89.36"/>
</a>
</g>
</g>
<!-- Node15&#45;&gt;Node3 -->
<g id="edge27_Node000015_Node000003" class="edge">
<title>Node15&#45;&gt;Node3</title>
<g id="a_edge27_Node000015_Node000003"><a xlink:title=" ">
<path fill="none" stroke="#63b8ff" d="M287.6,-190.52C317.45,-187.38 358.62,-183.19 394.88,-180 607.1,-161.33 661.06,-166.85 872.88,-144 884.55,-142.74 897.37,-141.01 908.46,-139.4"/>
<polygon fill="#63b8ff" stroke="#63b8ff" points="908.88,-142.72 918.26,-137.79 907.85,-135.8 908.88,-142.72"/>
</a>
</g>
</g>
<!-- Node15&#45;&gt;Node4 -->
<g id="edge29_Node000015_Node000004" class="edge">
<title>Node15&#45;&gt;Node4</title>
<g id="a_edge29_Node000015_Node000004"><a xlink:title=" ">
<path fill="none" stroke="#63b8ff" d="M204.26,-185.6C178.91,-178.04 147.35,-165.1 125.88,-144 96.87,-115.51 72.84,-85.44 100.88,-56 131.87,-23.45 818.88,-13.35 984.29,-11.39"/>
<polygon fill="#63b8ff" stroke="#63b8ff" points="984.32,-14.87 994.28,-11.26 984.24,-7.87 984.32,-14.87"/>
</a>
</g>
</g>
<!-- Node15&#45;&gt;Node7 -->
<g id="edge28_Node000015_Node000007" class="edge">
<title>Node15&#45;&gt;Node7</title>
<g id="a_edge28_Node000015_Node000007"><a xlink:title=" ">
<path fill="none" stroke="#63b8ff" d="M256.19,-185.71C274.28,-170.01 313.56,-138.53 352.88,-124 421.52,-98.63 639.47,-81.59 728.95,-75.49"/>
<polygon fill="#63b8ff" stroke="#63b8ff" points="728.96,-78.93 738.71,-74.77 728.5,-71.95 728.96,-78.93"/>
</a>
</g>
</g>
<!-- Node16 -->
<g id="Node000016" class="node">
<title>Node16</title>
<g id="a_Node000016"><a xlink:href="a00113.html" target="_top" xlink:title="This is the generated driver types header file for the DMA driver.">
<polygon fill="white" stroke="#666666" points="182,-82 109.75,-82 109.75,-62 182,-62 182,-82"/>
<text text-anchor="middle" x="145.88" y="-68.5" font-family="Helvetica,sans-Serif" font-size="10.00">dma_types.h</text>
</a>
</g>
</g>
<!-- Node15&#45;&gt;Node16 -->
<g id="edge30_Node000015_Node000016" class="edge">
<title>Node15&#45;&gt;Node16</title>
<g id="a_edge30_Node000015_Node000016"><a xlink:title=" ">
<path fill="none" stroke="#63b8ff" d="M204.17,-187.44C179.46,-180.58 150.1,-167.75 134.88,-144 124.91,-128.45 130.15,-107.14 136.34,-91.93"/>
<polygon fill="#63b8ff" stroke="#63b8ff" points="139.86,-93.66 140.81,-83.1 133.49,-90.76 139.86,-93.66"/>
</a>
</g>
</g>
<!-- Node17 -->
<g id="Node000017" class="node">
<title>Node17</title>
<g id="a_Node000017"><a xlink:href="a00110_source.html" target="_top" xlink:title=" ">
<polygon fill="white" stroke="#666666" points="229.38,-144 144.38,-144 144.38,-124 229.38,-124 229.38,-144"/>
<text text-anchor="middle" x="186.88" y="-130.5" font-family="Helvetica,sans-Serif" font-size="10.00">dma_interface.h</text>
</a>
</g>
</g>
<!-- Node15&#45;&gt;Node17 -->
<g id="edge31_Node000015_Node000017" class="edge">
<title>Node15&#45;&gt;Node17</title>
<g id="a_edge31_Node000015_Node000017"><a xlink:title=" ">
<path fill="none" stroke="#63b8ff" d="M236.66,-185.62C227.77,-176.59 214.13,-162.72 203.37,-151.78"/>
<polygon fill="#63b8ff" stroke="#63b8ff" points="206.34,-149.79 196.84,-145.11 201.35,-154.7 206.34,-149.79"/>
</a>
</g>
</g>
<!-- Node17&#45;&gt;Node4 -->
<g id="edge32_Node000017_Node000004" class="edge">
<title>Node17&#45;&gt;Node4</title>
<g id="a_edge32_Node000017_Node000004"><a xlink:title=" ">
<path fill="none" stroke="#63b8ff" d="M190.63,-123.55C197.96,-106.54 215.93,-71.11 243.88,-56 309.53,-20.49 841.37,-12.75 984.51,-11.3"/>
<polygon fill="#63b8ff" stroke="#63b8ff" points="984.3,-14.79 994.26,-11.2 984.23,-7.79 984.3,-14.79"/>
</a>
</g>
</g>
<!-- Node17&#45;&gt;Node7 -->
<g id="edge33_Node000017_Node000007" class="edge">
<title>Node17&#45;&gt;Node7</title>
<g id="a_edge33_Node000017_Node000007"><a xlink:title=" ">
<path fill="none" stroke="#63b8ff" d="M229.6,-128.59C338.32,-117.36 624.28,-87.83 728.86,-77.03"/>
<polygon fill="#63b8ff" stroke="#63b8ff" points="728.96,-80.43 738.55,-75.93 728.24,-73.47 728.96,-80.43"/>
</a>
</g>
</g>
<!-- Node17&#45;&gt;Node16 -->
<g id="edge34_Node000017_Node000016" class="edge">
<title>Node17&#45;&gt;Node16</title>
<g id="a_edge34_Node000017_Node000016"><a xlink:title=" ">
<path fill="none" stroke="#63b8ff" d="M180.47,-123.62C174.54,-114.94 165.55,-101.8 158.23,-91.08"/>
<polygon fill="#63b8ff" stroke="#63b8ff" points="160.63,-89.39 152.1,-83.11 154.85,-93.34 160.63,-89.39"/>
</a>
</g>
</g>
<!-- Node18&#45;&gt;Node4 -->
<g id="edge37_Node000018_Node000004" class="edge">
<title>Node18&#45;&gt;Node4</title>
<g id="a_edge37_Node000018_Node000004"><a xlink:title=" ">
<path fill="none" stroke="#63b8ff" d="M26.49,-123.64C29.96,-106.76 39.85,-71.55 63.88,-56 103.23,-30.53 816.27,-14.99 984.52,-11.67"/>
<polygon fill="#63b8ff" stroke="#63b8ff" points="984.53,-15.15 994.46,-11.46 984.39,-8.15 984.53,-15.15"/>
</a>
</g>
</g>
<!-- Node18&#45;&gt;Node7 -->
<g id="edge36_Node000018_Node000007" class="edge">
<title>Node18&#45;&gt;Node7</title>
<g id="a_edge36_Node000018_Node000007"><a xlink:title=" ">
<path fill="none" stroke="#63b8ff" d="M50.21,-130.92C72.51,-129.09 105.85,-126.36 134.88,-124 359.99,-105.72 630.16,-84.04 729.13,-76.1"/>
<polygon fill="#63b8ff" stroke="#63b8ff" points="729.11,-79.54 738.8,-75.25 728.55,-72.56 729.11,-79.54"/>
</a>
</g>
</g>
<!-- Node19&#45;&gt;Node3 -->
<g id="edge41_Node000019_Node000003" class="edge">
<title>Node19&#45;&gt;Node3</title>
<g id="a_edge41_Node000019_Node000003"><a xlink:title=" ">
<path fill="none" stroke="#63b8ff" d="M974.84,-185.62C968.27,-176.86 958.27,-163.53 950.19,-152.75"/>
<polygon fill="#63b8ff" stroke="#63b8ff" points="952.51,-151.01 943.71,-145.11 946.91,-155.21 952.51,-151.01"/>
</a>
</g>
</g>
<!-- Node19&#45;&gt;Node4 -->
<g id="edge40_Node000019_Node000004" class="edge">
<title>Node19&#45;&gt;Node4</title>
<g id="a_edge40_Node000019_Node000004"><a xlink:title=" ">
<path fill="none" stroke="#63b8ff" d="M983.04,-185.81C985.96,-163.42 994.24,-104.33 1005.88,-56 1007.91,-47.56 1010.66,-38.38 1013.19,-30.52"/>
<polygon fill="#63b8ff" stroke="#63b8ff" points="1016.79,-31.8 1016.62,-21.21 1010.14,-29.59 1016.79,-31.8"/>
</a>
</g>
</g>
<!-- Node19&#45;&gt;Node13 -->
<g id="edge39_Node000019_Node000013" class="edge">
<title>Node19&#45;&gt;Node13</title>
<g id="a_edge39_Node000019_Node000013"><a xlink:title=" ">
<path fill="none" stroke="#63b8ff" d="M1014.48,-185.6C1058.65,-172.74 1133.36,-150.51 1144.88,-144 1170.24,-129.66 1194.57,-106.22 1209.6,-90.22"/>
<polygon fill="#63b8ff" stroke="#63b8ff" points="1211.77,-92.95 1215.95,-83.21 1206.61,-88.22 1211.77,-92.95"/>
</a>
</g>
</g>
<!-- Node20 -->
<g id="Node000020" class="node">
<title>Node20</title>
<g id="a_Node000020"><a xlink:href="a00877_source.html" target="_top" xlink:title=" ">
<polygon fill="white" stroke="#666666" points="1135.88,-144 1047.88,-144 1047.88,-124 1135.88,-124 1135.88,-144"/>
<text text-anchor="middle" x="1091.88" y="-130.5" font-family="Helvetica,sans-Serif" font-size="10.00">timer_interface.h</text>
</a>
</g>
</g>
<!-- Node19&#45;&gt;Node20 -->
<g id="edge42_Node000019_Node000020" class="edge">
<title>Node19&#45;&gt;Node20</title>
<g id="a_edge42_Node000019_Node000020"><a xlink:title=" ">
<path fill="none" stroke="#63b8ff" d="M999.06,-185.62C1016.82,-175.94 1044.78,-160.69 1065.37,-149.46"/>
<polygon fill="#63b8ff" stroke="#63b8ff" points="1066.71,-152.17 1073.81,-144.31 1063.35,-146.03 1066.71,-152.17"/>
</a>
</g>
</g>
<!-- Node20&#45;&gt;Node4 -->
<g id="edge44_Node000020_Node000004" class="edge">
<title>Node20&#45;&gt;Node4</title>
<g id="a_edge44_Node000020_Node000004"><a xlink:title=" ">
<path fill="none" stroke="#63b8ff" d="M1086.46,-123.83C1074.68,-103.87 1046.52,-56.15 1030.86,-29.61"/>
<polygon fill="#63b8ff" stroke="#63b8ff" points="1033.45,-28.11 1025.35,-21.28 1027.42,-31.67 1033.45,-28.11"/>
</a>
</g>
</g>
<!-- Node20&#45;&gt;Node7 -->
<g id="edge45_Node000020_Node000007" class="edge">
<title>Node20&#45;&gt;Node7</title>
<g id="a_edge45_Node000020_Node000007"><a xlink:title=" ">
<path fill="none" stroke="#63b8ff" d="M1047.5,-124.78C983.71,-112.97 867.11,-91.38 806.61,-80.17"/>
<polygon fill="#63b8ff" stroke="#63b8ff" points="807.46,-76.59 796.99,-78.21 806.19,-83.47 807.46,-76.59"/>
</a>
</g>
</g>
<!-- Node20&#45;&gt;Node13 -->
<g id="edge43_Node000020_Node000013" class="edge">
<title>Node20&#45;&gt;Node13</title>
<g id="a_edge43_Node000020_Node000013"><a xlink:title=" ">
<path fill="none" stroke="#63b8ff" d="M1112.66,-123.62C1134.62,-113.72 1169.47,-97.99 1194.51,-86.7"/>
<polygon fill="#63b8ff" stroke="#63b8ff" points="1195.56,-89.61 1203.24,-82.31 1192.69,-83.23 1195.56,-89.61"/>
</a>
</g>
</g>
<!-- Node21 -->
<g id="Node000021" class="node">
<title>Node21</title>
<g id="a_Node000021"><a xlink:href="a00775_source.html" target="_top" xlink:title=" ">
<polygon fill="white" stroke="#666666" points="1181.62,-88 1086.12,-88 1086.12,-56 1181.62,-56 1181.62,-88"/>
<text text-anchor="start" x="1094.12" y="-74.5" font-family="Helvetica,sans-Serif" font-size="10.00">../system/interrupt</text>
<text text-anchor="middle" x="1133.88" y="-62.5" font-family="Helvetica,sans-Serif" font-size="10.00">_types.h</text>
</a>
</g>
</g>
<!-- Node20&#45;&gt;Node21 -->
<g id="edge46_Node000020_Node000021" class="edge">
<title>Node20&#45;&gt;Node21</title>
<g id="a_edge46_Node000020_Node000021"><a xlink:title=" ">
<path fill="none" stroke="#63b8ff" d="M1098.44,-123.62C1103.42,-116.51 1110.51,-106.38 1117.03,-97.06"/>
<polygon fill="#63b8ff" stroke="#63b8ff" points="1120.41,-99.34 1123.28,-89.14 1114.67,-95.33 1120.41,-99.34"/>
</a>
</g>
</g>
<!-- Node22&#45;&gt;Node3 -->
<g id="edge50_Node000022_Node000003" class="edge">
<title>Node22&#45;&gt;Node3</title>
<g id="a_edge50_Node000022_Node000003"><a xlink:title=" ">
<path fill="none" stroke="#63b8ff" d="M1068.5,-185.62C1040.26,-174.76 993.85,-156.91 964.35,-145.57"/>
<polygon fill="#63b8ff" stroke="#63b8ff" points="965.91,-142.03 955.32,-141.71 963.39,-148.56 965.91,-142.03"/>
</a>
</g>
</g>
<!-- Node22&#45;&gt;Node4 -->
<g id="edge49_Node000022_Node000004" class="edge">
<title>Node22&#45;&gt;Node4</title>
<g id="a_edge49_Node000022_Node000004"><a xlink:title=" ">
<path fill="none" stroke="#63b8ff" d="M1078.34,-185.56C1065.69,-176.51 1048.01,-161.63 1038.88,-144 1019.99,-107.54 1018.09,-58.33 1018.75,-31.15"/>
<polygon fill="#63b8ff" stroke="#63b8ff" points="1022.28,-31.47 1019.18,-21.34 1015.29,-31.19 1022.28,-31.47"/>
</a>
</g>
</g>
<!-- Node22&#45;&gt;Node13 -->
<g id="edge48_Node000022_Node000013" class="edge">
<title>Node22&#45;&gt;Node13</title>
<g id="a_edge48_Node000022_Node000013"><a xlink:title=" ">
<path fill="none" stroke="#63b8ff" d="M1114.2,-185.54C1132.55,-176.67 1158.97,-162.08 1177.88,-144 1193.84,-128.72 1207.19,-107.08 1215.53,-91.71"/>
<polygon fill="#63b8ff" stroke="#63b8ff" points="1218.96,-93.71 1220.48,-83.23 1212.75,-90.48 1218.96,-93.71"/>
</a>
</g>
</g>
<!-- Node22&#45;&gt;Node20 -->
<g id="edge51_Node000022_Node000020" class="edge">
<title>Node22&#45;&gt;Node20</title>
<g id="a_edge51_Node000022_Node000020"><a xlink:title=" ">
<path fill="none" stroke="#63b8ff" d="M1092.72,-185.62C1092.58,-177.48 1092.38,-165.39 1092.21,-155.07"/>
<polygon fill="#63b8ff" stroke="#63b8ff" points="1095.69,-155.05 1092.03,-145.11 1088.69,-155.17 1095.69,-155.05"/>
</a>
</g>
</g>
<!-- Node23&#45;&gt;Node3 -->
<g id="edge53_Node000023_Node000003" class="edge">
<title>Node23&#45;&gt;Node3</title>
<g id="a_edge53_Node000023_Node000003"><a xlink:title=" ">
<path fill="none" stroke="#63b8ff" d="M506.72,-188.98C585.76,-179.74 741.13,-161.3 872.88,-144 884.52,-142.47 897.34,-140.69 908.42,-139.11"/>
<polygon fill="#63b8ff" stroke="#63b8ff" points="908.83,-142.45 918.23,-137.57 907.83,-135.52 908.83,-142.45"/>
</a>
</g>
</g>
<!-- Node23&#45;&gt;Node4 -->
<g id="edge54_Node000023_Node000004" class="edge">
<title>Node23&#45;&gt;Node4</title>
<g id="a_edge54_Node000023_Node000004"><a xlink:title=" ">
<path fill="none" stroke="#63b8ff" d="M403.03,-179.89C382.6,-171.87 360.18,-160.24 343.88,-144 314.98,-115.22 289.98,-85.75 317.88,-56 340.91,-31.44 845.29,-15.8 984.54,-11.94"/>
<polygon fill="#63b8ff" stroke="#63b8ff" points="984.5,-15.41 994.4,-11.64 984.31,-8.41 984.5,-15.41"/>
</a>
</g>
</g>
<!-- Node23&#45;&gt;Node7 -->
<g id="edge55_Node000023_Node000007" class="edge">
<title>Node23&#45;&gt;Node7</title>
<g id="a_edge55_Node000023_Node000007"><a xlink:title=" ">
<path fill="none" stroke="#63b8ff" d="M463.54,-179.6C473.65,-163.13 491.95,-137.55 514.88,-124 582.61,-83.95 676.47,-74.85 728.74,-73.08"/>
<polygon fill="#63b8ff" stroke="#63b8ff" points="728.64,-76.56 738.55,-72.8 728.46,-69.56 728.64,-76.56"/>
</a>
</g>
</g>
<!-- Node24 -->
<g id="Node000024" class="node">
<title>Node24</title>
<g id="a_Node000024"><a xlink:href="a00128.html" target="_top" xlink:title="This is the generated driver types header file for the SEC_CORE driver.">
<polygon fill="white" stroke="#666666" points="420.5,-82 327.25,-82 327.25,-62 420.5,-62 420.5,-82"/>
<text text-anchor="middle" x="373.88" y="-68.5" font-family="Helvetica,sans-Serif" font-size="10.00">sec_core_types.h</text>
</a>
</g>
</g>
<!-- Node23&#45;&gt;Node24 -->
<g id="edge56_Node000023_Node000024" class="edge">
<title>Node23&#45;&gt;Node24</title>
<g id="a_edge56_Node000023_Node000024"><a xlink:title=" ">
<path fill="none" stroke="#63b8ff" d="M403.02,-181.7C383.84,-174 364.06,-162.1 352.88,-144 342.79,-127.68 351.61,-106.24 360.71,-91.21"/>
<polygon fill="#63b8ff" stroke="#63b8ff" points="363.96,-93.65 366.54,-83.38 358.11,-89.8 363.96,-93.65"/>
</a>
</g>
</g>
<!-- Node25 -->
<g id="Node000025" class="node">
<title>Node25</title>
<g id="a_Node000025"><a xlink:href="a00125_source.html" target="_top" xlink:title=" ">
<polygon fill="white" stroke="#666666" points="467.88,-144 361.88,-144 361.88,-124 467.88,-124 467.88,-144"/>
<text text-anchor="middle" x="414.88" y="-130.5" font-family="Helvetica,sans-Serif" font-size="10.00">sec_core_interface.h</text>
</a>
</g>
</g>
<!-- Node23&#45;&gt;Node25 -->
<g id="edge57_Node000023_Node000025" class="edge">
<title>Node23&#45;&gt;Node25</title>
<g id="a_edge57_Node000023_Node000025"><a xlink:title=" ">
<path fill="none" stroke="#63b8ff" d="M444.57,-179.55C439.25,-171.56 432.72,-161.76 427.13,-153.39"/>
<polygon fill="#63b8ff" stroke="#63b8ff" points="429.61,-151.79 421.15,-145.41 423.78,-155.67 429.61,-151.79"/>
</a>
</g>
</g>
<!-- Node25&#45;&gt;Node4 -->
<g id="edge59_Node000025_Node000004" class="edge">
<title>Node25&#45;&gt;Node4</title>
<g id="a_edge59_Node000025_Node000004"><a xlink:title=" ">
<path fill="none" stroke="#63b8ff" d="M444.73,-123.53C496.01,-107.57 604.35,-75.18 697.88,-56 801.25,-34.8 925.36,-20.57 984.8,-14.43"/>
<polygon fill="#63b8ff" stroke="#63b8ff" points="984.87,-17.84 994.46,-13.34 984.16,-10.87 984.87,-17.84"/>
</a>
</g>
</g>
<!-- Node25&#45;&gt;Node7 -->
<g id="edge60_Node000025_Node000007" class="edge">
<title>Node25&#45;&gt;Node7</title>
<g id="a_edge60_Node000025_Node000007"><a xlink:title=" ">
<path fill="none" stroke="#63b8ff" d="M468.1,-123.95C539.69,-111.78 665.32,-90.43 728.8,-79.64"/>
<polygon fill="#63b8ff" stroke="#63b8ff" points="729.27,-82.94 738.54,-77.82 728.09,-76.04 729.27,-82.94"/>
</a>
</g>
</g>
<!-- Node25&#45;&gt;Node13 -->
<g id="edge58_Node000025_Node000013" class="edge">
<title>Node25&#45;&gt;Node13</title>
<g id="a_edge58_Node000025_Node000013"><a xlink:title=" ">
<path fill="none" stroke="#63b8ff" d="M468.3,-127.83C483.35,-126.47 499.75,-125.08 514.88,-124 664.93,-113.26 1044.55,-122.93 1190.88,-88 1192.81,-87.54 1194.78,-86.97 1196.74,-86.32"/>
<polygon fill="#63b8ff" stroke="#63b8ff" points="1197.9,-89.24 1205.95,-82.35 1195.36,-82.72 1197.9,-89.24"/>
</a>
</g>
</g>
<!-- Node25&#45;&gt;Node24 -->
<g id="edge61_Node000025_Node000024" class="edge">
<title>Node25&#45;&gt;Node24</title>
<g id="a_edge61_Node000025_Node000024"><a xlink:title=" ">
<path fill="none" stroke="#63b8ff" d="M408.47,-123.62C402.54,-114.94 393.55,-101.8 386.23,-91.08"/>
<polygon fill="#63b8ff" stroke="#63b8ff" points="388.63,-89.39 380.1,-83.11 382.85,-93.34 388.63,-89.39"/>
</a>
</g>
</g>
<!-- Node26&#45;&gt;Node4 -->
<g id="edge63_Node000026_Node000004" class="edge">
<title>Node26&#45;&gt;Node4</title>
<g id="a_edge63_Node000026_Node000004"><a xlink:title=" ">
<path fill="none" stroke="#63b8ff" d="M1352.72,-185.6C1411.03,-171.09 1516.23,-144.82 1516.88,-144 1522.34,-136.99 1521.05,-131.85 1516.88,-124 1491.45,-76.23 1466.66,-74.7 1415.88,-56 1349.92,-31.71 1139.25,-17.63 1055.09,-12.86"/>
<polygon fill="#63b8ff" stroke="#63b8ff" points="1055.49,-9.32 1045.32,-12.26 1055.11,-16.31 1055.49,-9.32"/>
</a>
</g>
</g>
<!-- Node26&#45;&gt;Node7 -->
<g id="edge64_Node000026_Node000007" class="edge">
<title>Node26&#45;&gt;Node7</title>
<g id="a_edge64_Node000026_Node000007"><a xlink:title=" ">
<path fill="none" stroke="#63b8ff" d="M1297.06,-185.72C1266.7,-170.33 1202.6,-139.67 1144.88,-124 1024.12,-91.22 875.62,-79.03 806.58,-74.9"/>
<polygon fill="#63b8ff" stroke="#63b8ff" points="806.99,-71.36 796.8,-74.29 806.59,-78.35 806.99,-71.36"/>
</a>
</g>
</g>
<!-- Node26&#45;&gt;Node13 -->
<g id="edge65_Node000026_Node000013" class="edge">
<title>Node26&#45;&gt;Node13</title>
<g id="a_edge65_Node000026_Node000013"><a xlink:title=" ">
<path fill="none" stroke="#63b8ff" d="M1308.11,-185.83C1293.26,-165.69 1257.56,-117.31 1238.09,-90.91"/>
<polygon fill="#63b8ff" stroke="#63b8ff" points="1240.47,-89.25 1231.72,-83.28 1234.84,-93.4 1240.47,-89.25"/>
</a>
</g>
</g>
<!-- Node27 -->
<g id="Node000027" class="node">
<title>Node27</title>
<g id="a_Node000027"><a xlink:href="a00137_source.html" target="_top" xlink:title=" ">
<polygon fill="white" stroke="#666666" points="1489.62,-144 1382.12,-144 1382.12,-124 1489.62,-124 1489.62,-144"/>
<text text-anchor="middle" x="1435.88" y="-130.5" font-family="Helvetica,sans-Serif" font-size="10.00">spi_client_interface.h</text>
</a>
</g>
</g>
<!-- Node26&#45;&gt;Node27 -->
<g id="edge66_Node000026_Node000027" class="edge">
<title>Node26&#45;&gt;Node27</title>
<g id="a_edge66_Node000026_Node000027"><a xlink:title=" ">
<path fill="none" stroke="#63b8ff" d="M1333.78,-185.62C1353.49,-175.85 1384.63,-160.41 1407.33,-149.15"/>
<polygon fill="#63b8ff" stroke="#63b8ff" points="1408.7,-151.89 1416.1,-144.31 1405.59,-145.62 1408.7,-151.89"/>
</a>
</g>
</g>
<!-- Node27&#45;&gt;Node4 -->
<g id="edge67_Node000027_Node000004" class="edge">
<title>Node27&#45;&gt;Node4</title>
<g id="a_edge67_Node000027_Node000004"><a xlink:title=" ">
<path fill="none" stroke="#63b8ff" d="M1417.79,-123.51C1386.32,-107.36 1319.09,-74.51 1258.88,-56 1188.22,-34.28 1102.43,-21.22 1055.25,-15.14"/>
<polygon fill="#63b8ff" stroke="#63b8ff" points="1055.75,-11.55 1045.4,-13.77 1054.88,-18.49 1055.75,-11.55"/>
</a>
</g>
</g>
<!-- Node27&#45;&gt;Node7 -->
<g id="edge68_Node000027_Node000007" class="edge">
<title>Node27&#45;&gt;Node7</title>
<g id="a_edge68_Node000027_Node000007"><a xlink:title=" ">
<path fill="none" stroke="#63b8ff" d="M1381.71,-125.6C1377.04,-125.03 1372.37,-124.49 1367.88,-124 1156.65,-101.06 902.64,-82.4 806.91,-75.68"/>
<polygon fill="#63b8ff" stroke="#63b8ff" points="807.25,-72.13 797.04,-74.92 806.77,-79.11 807.25,-72.13"/>
</a>
</g>
</g>
<!-- Node27&#45;&gt;Node13 -->
<g id="edge69_Node000027_Node000013" class="edge">
<title>Node27&#45;&gt;Node13</title>
<g id="a_edge69_Node000027_Node000013"><a xlink:title=" ">
<path fill="none" stroke="#63b8ff" d="M1402.91,-123.62C1364.34,-112.66 1300.72,-94.57 1260.89,-83.24"/>
<polygon fill="#63b8ff" stroke="#63b8ff" points="1261.9,-79.61 1251.33,-80.24 1259.99,-86.34 1261.9,-79.61"/>
</a>
</g>
</g>
<!-- Node28&#45;&gt;Node3 -->
<g id="edge73_Node000028_Node000003" class="edge">
<title>Node28&#45;&gt;Node3</title>
<g id="a_edge73_Node000028_Node000003"><a xlink:title=" ">
<path fill="none" stroke="#63b8ff" d="M1169.35,-185.51C1162.62,-183.6 1155.53,-181.66 1148.88,-180 1083.62,-163.68 1006.12,-148.21 965.3,-140.36"/>
<polygon fill="#63b8ff" stroke="#63b8ff" points="966.04,-136.75 955.56,-138.31 964.73,-143.62 966.04,-136.75"/>
</a>
</g>
</g>
<!-- Node28&#45;&gt;Node4 -->
<g id="edge72_Node000028_Node000004" class="edge">
<title>Node28&#45;&gt;Node4</title>
<g id="a_edge72_Node000028_Node000004"><a xlink:title=" ">
<path fill="none" stroke="#63b8ff" d="M1231.81,-185.52C1239.01,-183.51 1246.67,-181.54 1253.88,-180 1363.1,-156.62 1562.8,-215.6 1498.88,-124 1447.44,-50.29 1157.02,-21.41 1055.17,-13.46"/>
<polygon fill="#63b8ff" stroke="#63b8ff" points="1055.5,-9.9 1045.26,-12.64 1054.97,-16.88 1055.5,-9.9"/>
</a>
</g>
</g>
<!-- Node28&#45;&gt;Node13 -->
<g id="edge71_Node000028_Node000013" class="edge">
<title>Node28&#45;&gt;Node13</title>
<g id="a_edge71_Node000028_Node000013"><a xlink:title=" ">
<path fill="none" stroke="#63b8ff" d="M1204.09,-185.71C1207.49,-175.58 1212.78,-158.82 1215.88,-144 1219.45,-126.9 1221.81,-107.16 1223.22,-92.84"/>
<polygon fill="#63b8ff" stroke="#63b8ff" points="1226.76,-93.54 1224.18,-83.27 1219.79,-92.91 1226.76,-93.54"/>
</a>
</g>
</g>
<!-- Node28&#45;&gt;Node20 -->
<g id="edge74_Node000028_Node000020" class="edge">
<title>Node28&#45;&gt;Node20</title>
<g id="a_edge74_Node000028_Node000020"><a xlink:title=" ">
<path fill="none" stroke="#63b8ff" d="M1183.84,-185.62C1166.33,-175.98 1138.8,-160.83 1118.42,-149.61"/>
<polygon fill="#63b8ff" stroke="#63b8ff" points="1120.23,-146.07 1109.79,-144.31 1116.86,-152.2 1120.23,-146.07"/>
</a>
</g>
</g>
</g>
</svg>
