<?xml version="1.0" encoding="UTF-8" standalone="no"?>
<!DOCTYPE svg PUBLIC "-//W3C//DTD SVG 1.1//EN"
 "http://www.w3.org/Graphics/SVG/1.1/DTD/svg11.dtd">
<!-- Generated by graphviz version 2.44.1 (20200629.0846)
 -->
<!-- Title: C:/Users/M70027/Documents/Projects/tp&#45;deployment/dspic33ch&#45;power&#45;totem&#45;pole&#45;demonstration&#45;application&#45;single&#45;phase_v2/dspic33ch_totem_pole_single_phase_primary_IL.X/mcc_generated_files/system/src/system.c Pages: 1 -->
<svg width="1746pt" height="335pt"
 viewBox="0.00 0.00 1746.00 335.00" xmlns="http://www.w3.org/2000/svg" xmlns:xlink="http://www.w3.org/1999/xlink">
<g id="graph0" class="graph" transform="scale(1 1) rotate(0) translate(4 331)">
<title>C:/Users/M70027/Documents/Projects/tp&#45;deployment/dspic33ch&#45;power&#45;totem&#45;pole&#45;demonstration&#45;application&#45;single&#45;phase_v2/dspic33ch_totem_pole_single_phase_primary_IL.X/mcc_generated_files/system/src/system.c</title>
<!-- Node1 -->
<g id="Node000001" class="node">
<title>Node1</title>
<g id="a_Node000001"><a xlink:title="This is the generated driver header file for the System driver.">
<polygon fill="#999999" stroke="#666666" points="954,-327 750,-327 750,-242 954,-242 954,-327"/>
<text text-anchor="start" x="758" y="-315" font-family="Helvetica,sans-Serif" font-size="10.00">C:/Users/M70027/Documents</text>
<text text-anchor="start" x="758" y="-304" font-family="Helvetica,sans-Serif" font-size="10.00">/Projects/tp&#45;deployment</text>
<text text-anchor="start" x="758" y="-293" font-family="Helvetica,sans-Serif" font-size="10.00">/dspic33ch&#45;power&#45;totem&#45;pole</text>
<text text-anchor="start" x="758" y="-282" font-family="Helvetica,sans-Serif" font-size="10.00">&#45;demonstration&#45;application</text>
<text text-anchor="start" x="758" y="-271" font-family="Helvetica,sans-Serif" font-size="10.00">&#45;single&#45;phase_v2/dspic33ch_totem</text>
<text text-anchor="start" x="758" y="-260" font-family="Helvetica,sans-Serif" font-size="10.00">_pole_single_phase_primary_IL.X</text>
<text text-anchor="middle" x="852" y="-249" font-family="Helvetica,sans-Serif" font-size="10.00">/mcc_generated_files/system/src/system.c</text>
</a>
</g>
</g>
<!-- Node2 -->
<g id="Node000002" class="node">
<title>Node2</title>
<g id="a_Node000002"><a xlink:href="a00853_source.html" target="_top" xlink:title=" ">
<polygon fill="white" stroke="#666666" points="745,-200.5 679,-200.5 679,-181.5 745,-181.5 745,-200.5"/>
<text text-anchor="middle" x="712" y="-188.5" font-family="Helvetica,sans-Serif" font-size="10.00">../system.h</text>
</a>
</g>
</g>
<!-- Node1&#45;&gt;Node2 -->
<g id="edge1_Node000001_Node000002" class="edge">
<title>Node1&#45;&gt;Node2</title>
<g id="a_edge1_Node000001_Node000002"><a xlink:title=" ">
<path fill="none" stroke="#63b8ff" d="M788.15,-241.77C768.74,-229.08 748.7,-215.99 734.06,-206.41"/>
<polygon fill="#63b8ff" stroke="#63b8ff" points="735.56,-203.21 725.27,-200.67 731.73,-209.07 735.56,-203.21"/>
</a>
</g>
</g>
<!-- Node5 -->
<g id="Node000005" class="node">
<title>Node5</title>
<g id="a_Node000005"><a xlink:href="a00859.html" target="_top" xlink:title="This is the generated driver types header file for the System driver.">
<polygon fill="white" stroke="#666666" points="688,-140 602,-140 602,-121 688,-121 688,-140"/>
<text text-anchor="middle" x="645" y="-128" font-family="Helvetica,sans-Serif" font-size="10.00">system_types.h</text>
</a>
</g>
</g>
<!-- Node1&#45;&gt;Node5 -->
<g id="edge5_Node000001_Node000005" class="edge">
<title>Node1&#45;&gt;Node5</title>
<g id="a_edge5_Node000001_Node000005"><a xlink:title=" ">
<path fill="none" stroke="#63b8ff" d="M749.55,-257.21C720.66,-245.56 691.33,-229.08 670,-206 655.71,-190.53 649.56,-166.63 646.93,-150.09"/>
<polygon fill="#63b8ff" stroke="#63b8ff" points="650.38,-149.47 645.62,-140.01 643.44,-150.37 650.38,-149.47"/>
</a>
</g>
</g>
<!-- Node6 -->
<g id="Node000006" class="node">
<title>Node6</title>
<g id="a_Node000006"><a xlink:href="a00763_source.html" target="_top" xlink:title=" ">
<polygon fill="white" stroke="#666666" points="583.5,-140 526.5,-140 526.5,-121 583.5,-121 583.5,-140"/>
<text text-anchor="middle" x="555" y="-128" font-family="Helvetica,sans-Serif" font-size="10.00">../clock.h</text>
</a>
</g>
</g>
<!-- Node1&#45;&gt;Node6 -->
<g id="edge6_Node000001_Node000006" class="edge">
<title>Node1&#45;&gt;Node6</title>
<g id="a_edge6_Node000001_Node000006"><a xlink:title=" ">
<path fill="none" stroke="#63b8ff" d="M749.85,-251.42C716.7,-239.21 680.39,-223.87 649,-206 619.61,-189.27 589.67,-163.78 571.72,-147.38"/>
<polygon fill="#63b8ff" stroke="#63b8ff" points="573.63,-144.38 563.92,-140.14 568.86,-149.51 573.63,-144.38"/>
</a>
</g>
</g>
<!-- Node8 -->
<g id="Node000008" class="node">
<title>Node8</title>
<g id="a_Node000008"><a xlink:href="a00787_source.html" target="_top" xlink:title=" ">
<polygon fill="white" stroke="#666666" points="923,-200.5 871,-200.5 871,-181.5 923,-181.5 923,-200.5"/>
<text text-anchor="middle" x="897" y="-188.5" font-family="Helvetica,sans-Serif" font-size="10.00">../pins.h</text>
</a>
</g>
</g>
<!-- Node1&#45;&gt;Node8 -->
<g id="edge8_Node000001_Node000008" class="edge">
<title>Node1&#45;&gt;Node8</title>
<g id="a_edge8_Node000001_Node000008"><a xlink:title=" ">
<path fill="none" stroke="#63b8ff" d="M872.52,-241.77C878.05,-230.53 883.73,-218.98 888.23,-209.83"/>
<polygon fill="#63b8ff" stroke="#63b8ff" points="891.46,-211.19 892.73,-200.67 885.18,-208.1 891.46,-211.19"/>
</a>
</g>
</g>
<!-- Node9 -->
<g id="Node000009" class="node">
<title>Node9</title>
<g id="a_Node000009"><a xlink:href="a00083.html" target="_top" xlink:title="This is the generated driver header file for the CAN1 driver using CCL.">
<polygon fill="white" stroke="#666666" points="1476.5,-200.5 1393.5,-200.5 1393.5,-181.5 1476.5,-181.5 1476.5,-200.5"/>
<text text-anchor="middle" x="1435" y="-188.5" font-family="Helvetica,sans-Serif" font-size="10.00">../../can/can1.h</text>
</a>
</g>
</g>
<!-- Node1&#45;&gt;Node9 -->
<g id="edge10_Node000001_Node000009" class="edge">
<title>Node1&#45;&gt;Node9</title>
<g id="a_edge10_Node000001_Node000009"><a xlink:title=" ">
<path fill="none" stroke="#63b8ff" d="M954.37,-272.58C1062.19,-260.15 1236.58,-237.43 1385,-206 1388.91,-205.17 1392.96,-204.21 1396.99,-203.19"/>
<polygon fill="#63b8ff" stroke="#63b8ff" points="1398.1,-206.52 1406.86,-200.56 1396.3,-199.75 1398.1,-206.52"/>
</a>
</g>
</g>
<!-- Node12 -->
<g id="Node000012" class="node">
<title>Node12</title>
<g id="a_Node000012"><a xlink:href="a00745.html" target="_top" xlink:title="This is the generated driver header file for the CMP1 driver.">
<polygon fill="white" stroke="#666666" points="852.5,-200.5 763.5,-200.5 763.5,-181.5 852.5,-181.5 852.5,-200.5"/>
<text text-anchor="middle" x="808" y="-188.5" font-family="Helvetica,sans-Serif" font-size="10.00">../../cmp/cmp1.h</text>
</a>
</g>
</g>
<!-- Node1&#45;&gt;Node12 -->
<g id="edge20_Node000001_Node000012" class="edge">
<title>Node1&#45;&gt;Node12</title>
<g id="a_edge20_Node000001_Node000012"><a xlink:title=" ">
<path fill="none" stroke="#63b8ff" d="M831.93,-241.77C826.53,-230.53 820.97,-218.98 816.57,-209.83"/>
<polygon fill="#63b8ff" stroke="#63b8ff" points="819.66,-208.17 812.17,-200.67 813.35,-211.2 819.66,-208.17"/>
</a>
</g>
</g>
<!-- Node15 -->
<g id="Node000015" class="node">
<title>Node15</title>
<g id="a_Node000015"><a xlink:href="a00107.html" target="_top" xlink:title="This is the generated driver header file for the DMA driver.">
<polygon fill="white" stroke="#666666" points="287.5,-200.5 204.5,-200.5 204.5,-181.5 287.5,-181.5 287.5,-200.5"/>
<text text-anchor="middle" x="246" y="-188.5" font-family="Helvetica,sans-Serif" font-size="10.00">../../dma/dma.h</text>
</a>
</g>
</g>
<!-- Node1&#45;&gt;Node15 -->
<g id="edge26_Node000001_Node000015" class="edge">
<title>Node1&#45;&gt;Node15</title>
<g id="a_edge26_Node000001_Node000015"><a xlink:title=" ">
<path fill="none" stroke="#63b8ff" d="M749.89,-268.08C619.25,-248.36 397.93,-214.94 297.87,-199.83"/>
<polygon fill="#63b8ff" stroke="#63b8ff" points="298.12,-196.33 287.71,-198.3 297.07,-203.25 298.12,-196.33"/>
</a>
</g>
</g>
<!-- Node18 -->
<g id="Node000018" class="node">
<title>Node18</title>
<g id="a_Node000018"><a xlink:href="a00769_source.html" target="_top" xlink:title=" ">
<polygon fill="white" stroke="#666666" points="50,-140 0,-140 0,-121 50,-121 50,-140"/>
<text text-anchor="middle" x="25" y="-128" font-family="Helvetica,sans-Serif" font-size="10.00">../dmt.h</text>
</a>
</g>
</g>
<!-- Node1&#45;&gt;Node18 -->
<g id="edge35_Node000001_Node000018" class="edge">
<title>Node1&#45;&gt;Node18</title>
<g id="a_edge35_Node000001_Node000018"><a xlink:title=" ">
<path fill="none" stroke="#63b8ff" d="M749.78,-280.76C619.04,-275.14 386.61,-258.05 195,-206 140.89,-191.3 81.8,-162.17 49.5,-145.01"/>
<polygon fill="#63b8ff" stroke="#63b8ff" points="50.83,-141.75 40.37,-140.1 47.52,-147.92 50.83,-141.75"/>
</a>
</g>
</g>
<!-- Node19 -->
<g id="Node000019" class="node">
<title>Node19</title>
<g id="a_Node000019"><a xlink:href="a00203.html" target="_top" xlink:title="This is the generated driver header file for the SCCP1&#45;TIMER driver.">
<polygon fill="white" stroke="#666666" points="1035,-200.5 941,-200.5 941,-181.5 1035,-181.5 1035,-200.5"/>
<text text-anchor="middle" x="988" y="-188.5" font-family="Helvetica,sans-Serif" font-size="10.00">../../timer/sccp1.h</text>
</a>
</g>
</g>
<!-- Node1&#45;&gt;Node19 -->
<g id="edge38_Node000001_Node000019" class="edge">
<title>Node1&#45;&gt;Node19</title>
<g id="a_edge38_Node000001_Node000019"><a xlink:title=" ">
<path fill="none" stroke="#63b8ff" d="M914.03,-241.77C932.88,-229.08 952.35,-215.99 966.57,-206.41"/>
<polygon fill="#63b8ff" stroke="#63b8ff" points="968.77,-209.16 975.11,-200.67 964.86,-203.35 968.77,-209.16"/>
</a>
</g>
</g>
<!-- Node22 -->
<g id="Node000022" class="node">
<title>Node22</title>
<g id="a_Node000022"><a xlink:href="a00206.html" target="_top" xlink:title="This is the generated driver header file for the SCCP2&#45;TIMER driver.">
<polygon fill="white" stroke="#666666" points="1147,-200.5 1053,-200.5 1053,-181.5 1147,-181.5 1147,-200.5"/>
<text text-anchor="middle" x="1100" y="-188.5" font-family="Helvetica,sans-Serif" font-size="10.00">../../timer/sccp2.h</text>
</a>
</g>
</g>
<!-- Node1&#45;&gt;Node22 -->
<g id="edge47_Node000001_Node000022" class="edge">
<title>Node1&#45;&gt;Node22</title>
<g id="a_edge47_Node000001_Node000022"><a xlink:title=" ">
<path fill="none" stroke="#63b8ff" d="M954.3,-245.76C994.64,-230.87 1038.15,-214.82 1067.01,-204.17"/>
<polygon fill="#63b8ff" stroke="#63b8ff" points="1068.41,-207.39 1076.58,-200.64 1065.99,-200.82 1068.41,-207.39"/>
</a>
</g>
</g>
<!-- Node23 -->
<g id="Node000023" class="node">
<title>Node23</title>
<g id="a_Node000023"><a xlink:href="a00122.html" target="_top" xlink:title="This is the generated driver header file for the SEC_CORE1 driver.">
<polygon fill="white" stroke="#666666" points="509,-206 405,-206 405,-176 509,-176 509,-206"/>
<text text-anchor="start" x="413" y="-194" font-family="Helvetica,sans-Serif" font-size="10.00">../../secondary_core</text>
<text text-anchor="middle" x="457" y="-183" font-family="Helvetica,sans-Serif" font-size="10.00">/sec_core1.h</text>
</a>
</g>
</g>
<!-- Node1&#45;&gt;Node23 -->
<g id="edge52_Node000001_Node000023" class="edge">
<title>Node1&#45;&gt;Node23</title>
<g id="a_edge52_Node000001_Node000023"><a xlink:title=" ">
<path fill="none" stroke="#63b8ff" d="M749.76,-259.82C676.79,-242.91 581.01,-220.73 519.22,-206.41"/>
<polygon fill="#63b8ff" stroke="#63b8ff" points="519.76,-202.95 509.23,-204.1 518.18,-209.76 519.76,-202.95"/>
</a>
</g>
</g>
<!-- Node26 -->
<g id="Node000026" class="node">
<title>Node26</title>
<g id="a_Node000026"><a xlink:href="a00134.html" target="_top" xlink:title="This is the generated driver header file for the SPI1 driver.">
<polygon fill="white" stroke="#666666" points="1375.5,-200.5 1270.5,-200.5 1270.5,-181.5 1375.5,-181.5 1375.5,-200.5"/>
<text text-anchor="middle" x="1323" y="-188.5" font-family="Helvetica,sans-Serif" font-size="10.00">../../spi_client/spi1.h</text>
</a>
</g>
</g>
<!-- Node1&#45;&gt;Node26 -->
<g id="edge62_Node000001_Node000026" class="edge">
<title>Node1&#45;&gt;Node26</title>
<g id="a_edge62_Node000001_Node000026"><a xlink:title=" ">
<path fill="none" stroke="#63b8ff" d="M954.16,-265.33C1037.24,-250.27 1157.41,-227.88 1262,-206 1266.8,-205 1271.8,-203.91 1276.79,-202.8"/>
<polygon fill="#63b8ff" stroke="#63b8ff" points="1277.94,-206.13 1286.92,-200.52 1276.4,-199.3 1277.94,-206.13"/>
</a>
</g>
</g>
<!-- Node28 -->
<g id="Node000028" class="node">
<title>Node28</title>
<g id="a_Node000028"><a xlink:href="a00889.html" target="_top" xlink:title="This is the generated driver header file for the TMR1 driver.">
<polygon fill="white" stroke="#666666" points="1252.5,-200.5 1165.5,-200.5 1165.5,-181.5 1252.5,-181.5 1252.5,-200.5"/>
<text text-anchor="middle" x="1209" y="-188.5" font-family="Helvetica,sans-Serif" font-size="10.00">../../timer/tmr1.h</text>
</a>
</g>
</g>
<!-- Node1&#45;&gt;Node28 -->
<g id="edge70_Node000001_Node000028" class="edge">
<title>Node1&#45;&gt;Node28</title>
<g id="a_edge70_Node000001_Node000028"><a xlink:title=" ">
<path fill="none" stroke="#63b8ff" d="M954.08,-257.71C1013.11,-242.74 1088.78,-223.45 1156,-206 1159.57,-205.07 1163.28,-204.11 1167,-203.13"/>
<polygon fill="#63b8ff" stroke="#63b8ff" points="1168,-206.49 1176.78,-200.56 1166.22,-199.72 1168,-206.49"/>
</a>
</g>
</g>
<!-- Node29 -->
<g id="Node000029" class="node">
<title>Node29</title>
<g id="a_Node000029"><a xlink:href="a00775_source.html" target="_top" xlink:title=" ">
<polygon fill="white" stroke="#666666" points="1563.5,-200.5 1494.5,-200.5 1494.5,-181.5 1563.5,-181.5 1563.5,-200.5"/>
<text text-anchor="middle" x="1529" y="-188.5" font-family="Helvetica,sans-Serif" font-size="10.00">../interrupt.h</text>
</a>
</g>
</g>
<!-- Node1&#45;&gt;Node29 -->
<g id="edge75_Node000001_Node000029" class="edge">
<title>Node1&#45;&gt;Node29</title>
<g id="a_edge75_Node000001_Node000029"><a xlink:title=" ">
<path fill="none" stroke="#63b8ff" d="M954.04,-277.12C1080.19,-267.84 1300.88,-247.05 1486,-206 1489.22,-205.29 1492.54,-204.43 1495.84,-203.5"/>
<polygon fill="#63b8ff" stroke="#63b8ff" points="1497.02,-206.8 1505.57,-200.53 1494.98,-200.1 1497.02,-206.8"/>
</a>
</g>
</g>
<!-- Node3 -->
<g id="Node000003" class="node">
<title>Node3</title>
<g id="a_Node000003"><a xlink:title=" ">
<polygon fill="#e0e0e0" stroke="#999999" points="959.5,-140 924.5,-140 924.5,-121 959.5,-121 959.5,-140"/>
<text text-anchor="middle" x="942" y="-128" font-family="Helvetica,sans-Serif" font-size="10.00">xc.h</text>
</a>
</g>
</g>
<!-- Node2&#45;&gt;Node3 -->
<g id="edge2_Node000002_Node000003" class="edge">
<title>Node2&#45;&gt;Node3</title>
<g id="a_edge2_Node000002_Node000003"><a xlink:title=" ">
<path fill="none" stroke="#63b8ff" d="M737.36,-181.37C743.13,-179.51 749.26,-177.62 755,-176 811.14,-160.21 877.77,-145.24 914.41,-137.33"/>
<polygon fill="#63b8ff" stroke="#63b8ff" points="915.3,-140.72 924.35,-135.2 913.83,-133.87 915.3,-140.72"/>
</a>
</g>
</g>
<!-- Node4 -->
<g id="Node000004" class="node">
<title>Node4</title>
<g id="a_Node000004"><a xlink:title=" ">
<polygon fill="#e0e0e0" stroke="#999999" points="1050.5,-19 1001.5,-19 1001.5,0 1050.5,0 1050.5,-19"/>
<text text-anchor="middle" x="1026" y="-7" font-family="Helvetica,sans-Serif" font-size="10.00">stdint.h</text>
</a>
</g>
</g>
<!-- Node2&#45;&gt;Node4 -->
<g id="edge3_Node000002_Node000004" class="edge">
<title>Node2&#45;&gt;Node4</title>
<g id="a_edge3_Node000002_Node000004"><a xlink:title=" ">
<path fill="none" stroke="#63b8ff" d="M710.4,-181.2C706.59,-157.12 699.74,-89.67 735,-55 770.63,-19.97 921.61,-12.49 990.93,-10.91"/>
<polygon fill="#63b8ff" stroke="#63b8ff" points="991.4,-14.4 1001.33,-10.71 991.26,-7.4 991.4,-14.4"/>
</a>
</g>
</g>
<!-- Node2&#45;&gt;Node5 -->
<g id="edge4_Node000002_Node000005" class="edge">
<title>Node2&#45;&gt;Node5</title>
<g id="a_edge4_Node000002_Node000005"><a xlink:title=" ">
<path fill="none" stroke="#63b8ff" d="M702.11,-181.37C691.72,-172.3 675.16,-157.84 662.55,-146.82"/>
<polygon fill="#63b8ff" stroke="#63b8ff" points="664.76,-144.11 654.93,-140.17 660.16,-149.38 664.76,-144.11"/>
</a>
</g>
</g>
<!-- Node7 -->
<g id="Node000007" class="node">
<title>Node7</title>
<g id="a_Node000007"><a xlink:title=" ">
<polygon fill="#e0e0e0" stroke="#999999" points="800,-79.5 744,-79.5 744,-60.5 800,-60.5 800,-79.5"/>
<text text-anchor="middle" x="772" y="-67.5" font-family="Helvetica,sans-Serif" font-size="10.00">stdbool.h</text>
</a>
</g>
</g>
<!-- Node6&#45;&gt;Node7 -->
<g id="edge7_Node000006_Node000007" class="edge">
<title>Node6&#45;&gt;Node7</title>
<g id="a_edge7_Node000006_Node000007"><a xlink:title=" ">
<path fill="none" stroke="#63b8ff" d="M583.82,-121.73C622.45,-111.32 691.14,-92.8 733.98,-81.25"/>
<polygon fill="#63b8ff" stroke="#63b8ff" points="735.01,-84.6 743.75,-78.61 733.19,-77.84 735.01,-84.6"/>
</a>
</g>
</g>
<!-- Node8&#45;&gt;Node3 -->
<g id="edge9_Node000008_Node000003" class="edge">
<title>Node8&#45;&gt;Node3</title>
<g id="a_edge9_Node000008_Node000003"><a xlink:title=" ">
<path fill="none" stroke="#63b8ff" d="M903.64,-181.37C910.29,-172.73 920.69,-159.2 928.99,-148.42"/>
<polygon fill="#63b8ff" stroke="#63b8ff" points="932.01,-150.23 935.33,-140.17 926.46,-145.96 932.01,-150.23"/>
</a>
</g>
</g>
<!-- Node9&#45;&gt;Node3 -->
<g id="edge11_Node000009_Node000003" class="edge">
<title>Node9&#45;&gt;Node3</title>
<g id="a_edge11_Node000009_Node000003"><a xlink:title=" ">
<path fill="none" stroke="#63b8ff" d="M1407.69,-181.43C1400.38,-179.39 1392.44,-177.4 1385,-176 1344.22,-168.3 1060.07,-142.2 969.6,-133.99"/>
<polygon fill="#63b8ff" stroke="#63b8ff" points="969.83,-130.5 959.55,-133.08 969.2,-137.47 969.83,-130.5"/>
</a>
</g>
</g>
<!-- Node9&#45;&gt;Node4 -->
<g id="edge13_Node000009_Node000004" class="edge">
<title>Node9&#45;&gt;Node4</title>
<g id="a_edge13_Node000009_Node000004"><a xlink:title=" ">
<path fill="none" stroke="#63b8ff" d="M1460.48,-181.42C1488.56,-171.39 1530.95,-154.34 1540,-140 1567.86,-95.88 1515.56,-74.96 1473,-55 1399.9,-20.72 1152.64,-12.78 1060.76,-11"/>
<polygon fill="#63b8ff" stroke="#63b8ff" points="1060.66,-7.5 1050.6,-10.81 1060.53,-14.49 1060.66,-7.5"/>
</a>
</g>
</g>
<!-- Node9&#45;&gt;Node7 -->
<g id="edge12_Node000009_Node000007" class="edge">
<title>Node9&#45;&gt;Node7</title>
<g id="a_edge12_Node000009_Node000007"><a xlink:title=" ">
<path fill="none" stroke="#63b8ff" d="M1410.11,-181.39C1366.88,-166.76 1274.9,-137.1 1195,-121 1054.91,-92.78 885.28,-78.67 810.54,-73.45"/>
<polygon fill="#63b8ff" stroke="#63b8ff" points="810.43,-69.94 800.21,-72.75 809.95,-76.92 810.43,-69.94"/>
</a>
</g>
</g>
<!-- Node10 -->
<g id="Node000010" class="node">
<title>Node10</title>
<g id="a_Node000010"><a xlink:href="a00092.html" target="_top" xlink:title="This is the generated driver types header file for the CAN driver using CCL.">
<polygon fill="white" stroke="#666666" points="1738,-79.5 1668,-79.5 1668,-60.5 1738,-60.5 1738,-79.5"/>
<text text-anchor="middle" x="1703" y="-67.5" font-family="Helvetica,sans-Serif" font-size="10.00">can_types.h</text>
</a>
</g>
</g>
<!-- Node9&#45;&gt;Node10 -->
<g id="edge14_Node000009_Node000010" class="edge">
<title>Node9&#45;&gt;Node10</title>
<g id="a_edge14_Node000009_Node000010"><a xlink:title=" ">
<path fill="none" stroke="#63b8ff" d="M1463.72,-181.48C1470.95,-179.51 1478.73,-177.55 1486,-176 1538.11,-164.93 1688.28,-180.4 1723,-140 1735.52,-125.43 1725.74,-103.41 1715.95,-88.19"/>
<polygon fill="#63b8ff" stroke="#63b8ff" points="1718.64,-85.92 1710.06,-79.71 1712.89,-89.92 1718.64,-85.92"/>
</a>
</g>
</g>
<!-- Node11 -->
<g id="Node000011" class="node">
<title>Node11</title>
<g id="a_Node000011"><a xlink:href="a00089_source.html" target="_top" xlink:title=" ">
<polygon fill="white" stroke="#666666" points="1713.5,-140 1630.5,-140 1630.5,-121 1713.5,-121 1713.5,-140"/>
<text text-anchor="middle" x="1672" y="-128" font-family="Helvetica,sans-Serif" font-size="10.00">can_interface.h</text>
</a>
</g>
</g>
<!-- Node9&#45;&gt;Node11 -->
<g id="edge16_Node000009_Node000011" class="edge">
<title>Node9&#45;&gt;Node11</title>
<g id="a_edge16_Node000009_Node000011"><a xlink:title=" ">
<path fill="none" stroke="#63b8ff" d="M1465.43,-181.47C1472.19,-179.62 1479.33,-177.71 1486,-176 1533.03,-163.92 1587.03,-151.12 1624.69,-142.36"/>
<polygon fill="#63b8ff" stroke="#63b8ff" points="1625.91,-145.67 1634.86,-140.01 1624.32,-138.86 1625.91,-145.67"/>
</a>
</g>
</g>
<!-- Node10&#45;&gt;Node4 -->
<g id="edge15_Node000010_Node000004" class="edge">
<title>Node10&#45;&gt;Node4</title>
<g id="a_edge15_Node000010_Node000004"><a xlink:title=" ">
<path fill="none" stroke="#63b8ff" d="M1677.04,-60.5C1669.67,-58.38 1661.58,-56.34 1654,-55 1430.64,-15.62 1156.77,-10.84 1061.03,-10.45"/>
<polygon fill="#63b8ff" stroke="#63b8ff" points="1060.77,-6.95 1050.76,-10.42 1060.75,-13.95 1060.77,-6.95"/>
</a>
</g>
</g>
<!-- Node11&#45;&gt;Node4 -->
<g id="edge18_Node000011_Node000004" class="edge">
<title>Node11&#45;&gt;Node4</title>
<g id="a_edge18_Node000011_Node000004"><a xlink:title=" ">
<path fill="none" stroke="#63b8ff" d="M1668.36,-120.66C1661.13,-104.36 1643.25,-69.91 1616,-55 1567.29,-28.34 1179.96,-14.97 1060.78,-11.46"/>
<polygon fill="#63b8ff" stroke="#63b8ff" points="1060.83,-7.96 1050.73,-11.17 1060.63,-14.96 1060.83,-7.96"/>
</a>
</g>
</g>
<!-- Node11&#45;&gt;Node7 -->
<g id="edge17_Node000011_Node000007" class="edge">
<title>Node11&#45;&gt;Node7</title>
<g id="a_edge17_Node000011_Node000007"><a xlink:title=" ">
<path fill="none" stroke="#63b8ff" d="M1630.4,-126.8C1478.79,-116.94 957.18,-83.04 810.59,-73.51"/>
<polygon fill="#63b8ff" stroke="#63b8ff" points="810.51,-70 800.3,-72.84 810.06,-76.98 810.51,-70"/>
</a>
</g>
</g>
<!-- Node11&#45;&gt;Node10 -->
<g id="edge19_Node000011_Node000010" class="edge">
<title>Node11&#45;&gt;Node10</title>
<g id="a_edge19_Node000011_Node000010"><a xlink:title=" ">
<path fill="none" stroke="#63b8ff" d="M1676.57,-120.87C1681.06,-112.4 1688.03,-99.24 1693.69,-88.57"/>
<polygon fill="#63b8ff" stroke="#63b8ff" points="1696.82,-90.14 1698.41,-79.67 1690.63,-86.86 1696.82,-90.14"/>
</a>
</g>
</g>
<!-- Node12&#45;&gt;Node7 -->
<g id="edge22_Node000012_Node000007" class="edge">
<title>Node12&#45;&gt;Node7</title>
<g id="a_edge22_Node000012_Node000007"><a xlink:title=" ">
<path fill="none" stroke="#63b8ff" d="M799.44,-181.33C790.89,-172.02 778.28,-156.33 773,-140 767.71,-123.63 768.04,-103.91 769.35,-89.75"/>
<polygon fill="#63b8ff" stroke="#63b8ff" points="772.83,-90.1 770.52,-79.76 765.88,-89.29 772.83,-90.1"/>
</a>
</g>
</g>
<!-- Node13 -->
<g id="Node000013" class="node">
<title>Node13</title>
<g id="a_Node000013"><a xlink:title=" ">
<polygon fill="#e0e0e0" stroke="#999999" points="1257.5,-79.5 1206.5,-79.5 1206.5,-60.5 1257.5,-60.5 1257.5,-79.5"/>
<text text-anchor="middle" x="1232" y="-67.5" font-family="Helvetica,sans-Serif" font-size="10.00">stddef.h</text>
</a>
</g>
</g>
<!-- Node12&#45;&gt;Node13 -->
<g id="edge21_Node000012_Node000013" class="edge">
<title>Node12&#45;&gt;Node13</title>
<g id="a_edge21_Node000012_Node000013"><a xlink:title=" ">
<path fill="none" stroke="#63b8ff" d="M820,-181.37C843.62,-164.56 895.61,-128.4 916,-121 1034.36,-78.07 1075.13,-116.63 1197,-85 1199.16,-84.44 1201.37,-83.78 1203.57,-83.06"/>
<polygon fill="#63b8ff" stroke="#63b8ff" points="1204.85,-86.32 1213.04,-79.6 1202.44,-79.74 1204.85,-86.32"/>
</a>
</g>
</g>
<!-- Node14 -->
<g id="Node000014" class="node">
<title>Node14</title>
<g id="a_Node000014"><a xlink:href="a00751_source.html" target="_top" xlink:title=" ">
<polygon fill="white" stroke="#666666" points="868,-140 782,-140 782,-121 868,-121 868,-140"/>
<text text-anchor="middle" x="825" y="-128" font-family="Helvetica,sans-Serif" font-size="10.00">cmp_interface.h</text>
</a>
</g>
</g>
<!-- Node12&#45;&gt;Node14 -->
<g id="edge23_Node000012_Node000014" class="edge">
<title>Node12&#45;&gt;Node14</title>
<g id="a_edge23_Node000012_Node000014"><a xlink:title=" ">
<path fill="none" stroke="#63b8ff" d="M810.51,-181.37C812.89,-173.16 816.56,-160.54 819.61,-150.05"/>
<polygon fill="#63b8ff" stroke="#63b8ff" points="823.05,-150.75 822.48,-140.17 816.33,-148.79 823.05,-150.75"/>
</a>
</g>
</g>
<!-- Node14&#45;&gt;Node7 -->
<g id="edge24_Node000014_Node000007" class="edge">
<title>Node14&#45;&gt;Node7</title>
<g id="a_edge24_Node000014_Node000007"><a xlink:title=" ">
<path fill="none" stroke="#63b8ff" d="M817.18,-120.87C809.19,-112.05 796.61,-98.16 786.74,-87.27"/>
<polygon fill="#63b8ff" stroke="#63b8ff" points="789.16,-84.73 779.85,-79.67 783.97,-89.43 789.16,-84.73"/>
</a>
</g>
</g>
<!-- Node14&#45;&gt;Node13 -->
<g id="edge25_Node000014_Node000013" class="edge">
<title>Node14&#45;&gt;Node13</title>
<g id="a_edge25_Node000014_Node000013"><a xlink:title=" ">
<path fill="none" stroke="#63b8ff" d="M868.24,-122.89C872.88,-122.23 877.54,-121.59 882,-121 1021.71,-102.61 1060.37,-119.47 1197,-85 1199.3,-84.42 1201.65,-83.72 1204,-82.95"/>
<polygon fill="#63b8ff" stroke="#63b8ff" points="1205.23,-86.23 1213.42,-79.5 1202.82,-79.66 1205.23,-86.23"/>
</a>
</g>
</g>
<!-- Node15&#45;&gt;Node3 -->
<g id="edge27_Node000015_Node000003" class="edge">
<title>Node15&#45;&gt;Node3</title>
<g id="a_edge27_Node000015_Node000003"><a xlink:title=" ">
<path fill="none" stroke="#63b8ff" d="M287.69,-185.9C317.78,-183 359.38,-179.08 396,-176 609.62,-158.04 663.75,-161.91 877,-140 889.31,-138.74 902.89,-137.01 914.43,-135.45"/>
<polygon fill="#63b8ff" stroke="#63b8ff" points="914.95,-138.91 924.37,-134.07 913.99,-131.98 914.95,-138.91"/>
</a>
</g>
</g>
<!-- Node15&#45;&gt;Node4 -->
<g id="edge29_Node000015_Node000004" class="edge">
<title>Node15&#45;&gt;Node4</title>
<g id="a_edge29_Node000015_Node000004"><a xlink:title=" ">
<path fill="none" stroke="#63b8ff" d="M206.82,-181.47C181.16,-174.16 148.37,-161.35 126,-140 97.42,-112.73 72.74,-83.6 100,-55 131.31,-22.15 826.25,-12.64 991.14,-10.84"/>
<polygon fill="#63b8ff" stroke="#63b8ff" points="991.26,-14.34 1001.22,-10.74 991.18,-7.34 991.26,-14.34"/>
</a>
</g>
</g>
<!-- Node15&#45;&gt;Node7 -->
<g id="edge28_Node000015_Node000007" class="edge">
<title>Node15&#45;&gt;Node7</title>
<g id="a_edge28_Node000015_Node000007"><a xlink:title=" ">
<path fill="none" stroke="#63b8ff" d="M255.9,-181.45C273.99,-166.36 314.2,-135.25 354,-121 423.59,-96.09 644.18,-79.33 733.7,-73.39"/>
<polygon fill="#63b8ff" stroke="#63b8ff" points="734.19,-76.87 743.94,-72.72 733.74,-69.88 734.19,-76.87"/>
</a>
</g>
</g>
<!-- Node16 -->
<g id="Node000016" class="node">
<title>Node16</title>
<g id="a_Node000016"><a xlink:href="a00113.html" target="_top" xlink:title="This is the generated driver types header file for the DMA driver.">
<polygon fill="white" stroke="#666666" points="182.5,-79.5 109.5,-79.5 109.5,-60.5 182.5,-60.5 182.5,-79.5"/>
<text text-anchor="middle" x="146" y="-67.5" font-family="Helvetica,sans-Serif" font-size="10.00">dma_types.h</text>
</a>
</g>
</g>
<!-- Node15&#45;&gt;Node16 -->
<g id="edge30_Node000015_Node000016" class="edge">
<title>Node15&#45;&gt;Node16</title>
<g id="a_edge30_Node000015_Node000016"><a xlink:title=" ">
<path fill="none" stroke="#63b8ff" d="M204.32,-182.81C179.62,-176.18 150.26,-163.61 135,-140 125.16,-124.77 130.56,-103.8 136.76,-88.98"/>
<polygon fill="#63b8ff" stroke="#63b8ff" points="139.96,-90.4 141,-79.86 133.61,-87.45 139.96,-90.4"/>
</a>
</g>
</g>
<!-- Node17 -->
<g id="Node000017" class="node">
<title>Node17</title>
<g id="a_Node000017"><a xlink:href="a00110_source.html" target="_top" xlink:title=" ">
<polygon fill="white" stroke="#666666" points="230,-140 144,-140 144,-121 230,-121 230,-140"/>
<text text-anchor="middle" x="187" y="-128" font-family="Helvetica,sans-Serif" font-size="10.00">dma_interface.h</text>
</a>
</g>
</g>
<!-- Node15&#45;&gt;Node17 -->
<g id="edge31_Node000015_Node000017" class="edge">
<title>Node15&#45;&gt;Node17</title>
<g id="a_edge31_Node000015_Node000017"><a xlink:title=" ">
<path fill="none" stroke="#63b8ff" d="M237.29,-181.37C228.32,-172.47 214.12,-158.39 203.09,-147.45"/>
<polygon fill="#63b8ff" stroke="#63b8ff" points="205.31,-144.72 195.74,-140.17 200.38,-149.69 205.31,-144.72"/>
</a>
</g>
</g>
<!-- Node17&#45;&gt;Node4 -->
<g id="edge32_Node000017_Node000004" class="edge">
<title>Node17&#45;&gt;Node4</title>
<g id="a_edge32_Node000017_Node000004"><a xlink:title=" ">
<path fill="none" stroke="#63b8ff" d="M190.73,-120.6C198.12,-104.23 216.37,-69.64 244,-55 310.53,-19.75 847.27,-12.18 990.81,-10.79"/>
<polygon fill="#63b8ff" stroke="#63b8ff" points="991.24,-14.28 1001.21,-10.69 991.18,-7.28 991.24,-14.28"/>
</a>
</g>
</g>
<!-- Node17&#45;&gt;Node7 -->
<g id="edge33_Node000017_Node000007" class="edge">
<title>Node17&#45;&gt;Node7</title>
<g id="a_edge33_Node000017_Node000007"><a xlink:title=" ">
<path fill="none" stroke="#63b8ff" d="M230.02,-125.2C339.84,-114.22 629.26,-85.27 733.72,-74.83"/>
<polygon fill="#63b8ff" stroke="#63b8ff" points="734.21,-78.3 743.81,-73.82 733.51,-71.33 734.21,-78.3"/>
</a>
</g>
</g>
<!-- Node17&#45;&gt;Node16 -->
<g id="edge34_Node000017_Node000016" class="edge">
<title>Node17&#45;&gt;Node16</title>
<g id="a_edge34_Node000017_Node000016"><a xlink:title=" ">
<path fill="none" stroke="#63b8ff" d="M180.95,-120.87C174.89,-112.23 165.41,-98.7 157.86,-87.92"/>
<polygon fill="#63b8ff" stroke="#63b8ff" points="160.68,-85.85 152.07,-79.67 154.95,-89.87 160.68,-85.85"/>
</a>
</g>
</g>
<!-- Node18&#45;&gt;Node4 -->
<g id="edge37_Node000018_Node000004" class="edge">
<title>Node18&#45;&gt;Node4</title>
<g id="a_edge37_Node000018_Node000004"><a xlink:title=" ">
<path fill="none" stroke="#63b8ff" d="M26.66,-120.68C30.24,-104.44 40.36,-70.06 64,-55 103.84,-29.61 823.31,-14.36 991.19,-11.14"/>
<polygon fill="#63b8ff" stroke="#63b8ff" points="991.5,-14.64 1001.43,-10.95 991.37,-7.64 991.5,-14.64"/>
</a>
</g>
</g>
<!-- Node18&#45;&gt;Node7 -->
<g id="edge36_Node000018_Node000007" class="edge">
<title>Node18&#45;&gt;Node7</title>
<g id="a_edge36_Node000018_Node000007"><a xlink:title=" ">
<path fill="none" stroke="#63b8ff" d="M50.28,-127.52C160.7,-118.87 601.06,-84.39 733.88,-73.99"/>
<polygon fill="#63b8ff" stroke="#63b8ff" points="734.29,-77.46 743.98,-73.19 733.74,-70.49 734.29,-77.46"/>
</a>
</g>
</g>
<!-- Node19&#45;&gt;Node3 -->
<g id="edge41_Node000019_Node000003" class="edge">
<title>Node19&#45;&gt;Node3</title>
<g id="a_edge41_Node000019_Node000003"><a xlink:title=" ">
<path fill="none" stroke="#63b8ff" d="M981.21,-181.37C974.35,-172.64 963.57,-158.93 955.05,-148.09"/>
<polygon fill="#63b8ff" stroke="#63b8ff" points="957.75,-145.86 948.82,-140.17 952.25,-150.19 957.75,-145.86"/>
</a>
</g>
</g>
<!-- Node19&#45;&gt;Node4 -->
<g id="edge40_Node000019_Node000004" class="edge">
<title>Node19&#45;&gt;Node4</title>
<g id="a_edge40_Node000019_Node000004"><a xlink:title=" ">
<path fill="none" stroke="#63b8ff" d="M989.14,-181.39C992.06,-159.89 1000.44,-102.17 1012,-55 1014.12,-46.35 1017,-36.91 1019.6,-28.97"/>
<polygon fill="#63b8ff" stroke="#63b8ff" points="1022.99,-29.86 1022.87,-19.27 1016.36,-27.63 1022.99,-29.86"/>
</a>
</g>
</g>
<!-- Node19&#45;&gt;Node13 -->
<g id="edge39_Node000019_Node000013" class="edge">
<title>Node19&#45;&gt;Node13</title>
<g id="a_edge39_Node000019_Node000013"><a xlink:title=" ">
<path fill="none" stroke="#63b8ff" d="M1022.36,-181.41C1063.74,-170.76 1130.49,-152.48 1153,-140 1178.5,-125.87 1203,-102.43 1217.78,-86.85"/>
<polygon fill="#63b8ff" stroke="#63b8ff" points="1220.35,-89.22 1224.58,-79.51 1215.22,-84.47 1220.35,-89.22"/>
</a>
</g>
</g>
<!-- Node20 -->
<g id="Node000020" class="node">
<title>Node20</title>
<g id="a_Node000020"><a xlink:href="a00883_source.html" target="_top" xlink:title=" ">
<polygon fill="white" stroke="#666666" points="1143.5,-140 1054.5,-140 1054.5,-121 1143.5,-121 1143.5,-140"/>
<text text-anchor="middle" x="1099" y="-128" font-family="Helvetica,sans-Serif" font-size="10.00">timer_interface.h</text>
</a>
</g>
</g>
<!-- Node19&#45;&gt;Node20 -->
<g id="edge42_Node000019_Node000020" class="edge">
<title>Node19&#45;&gt;Node20</title>
<g id="a_edge42_Node000019_Node000020"><a xlink:title=" ">
<path fill="none" stroke="#63b8ff" d="M1004.38,-181.37C1022.58,-171.78 1052.2,-156.17 1073.45,-144.97"/>
<polygon fill="#63b8ff" stroke="#63b8ff" points="1075.34,-147.93 1082.55,-140.17 1072.08,-141.73 1075.34,-147.93"/>
</a>
</g>
</g>
<!-- Node20&#45;&gt;Node4 -->
<g id="edge44_Node000020_Node000004" class="edge">
<title>Node20&#45;&gt;Node4</title>
<g id="a_edge44_Node000020_Node000004"><a xlink:title=" ">
<path fill="none" stroke="#63b8ff" d="M1093.75,-120.94C1081.86,-101.57 1052.7,-54.02 1036.79,-28.08"/>
<polygon fill="#63b8ff" stroke="#63b8ff" points="1039.61,-26 1031.4,-19.3 1033.65,-29.66 1039.61,-26"/>
</a>
</g>
</g>
<!-- Node20&#45;&gt;Node7 -->
<g id="edge45_Node000020_Node000007" class="edge">
<title>Node20&#45;&gt;Node7</title>
<g id="a_edge45_Node000020_Node000007"><a xlink:title=" ">
<path fill="none" stroke="#63b8ff" d="M1054.22,-121.49C989.57,-109.92 871.18,-88.74 810.34,-77.86"/>
<polygon fill="#63b8ff" stroke="#63b8ff" points="810.84,-74.39 800.38,-76.08 809.6,-81.28 810.84,-74.39"/>
</a>
</g>
</g>
<!-- Node20&#45;&gt;Node13 -->
<g id="edge43_Node000020_Node000013" class="edge">
<title>Node20&#45;&gt;Node13</title>
<g id="a_edge43_Node000020_Node000013"><a xlink:title=" ">
<path fill="none" stroke="#63b8ff" d="M1118.34,-120.99C1140.7,-111.16 1177.71,-94.88 1203.4,-83.58"/>
<polygon fill="#63b8ff" stroke="#63b8ff" points="1204.89,-86.75 1212.64,-79.52 1202.07,-80.34 1204.89,-86.75"/>
</a>
</g>
</g>
<!-- Node21 -->
<g id="Node000021" class="node">
<title>Node21</title>
<g id="a_Node000021"><a xlink:href="a00781_source.html" target="_top" xlink:title=" ">
<polygon fill="white" stroke="#666666" points="1188,-85 1092,-85 1092,-55 1188,-55 1188,-85"/>
<text text-anchor="start" x="1100" y="-73" font-family="Helvetica,sans-Serif" font-size="10.00">../system/interrupt</text>
<text text-anchor="middle" x="1140" y="-62" font-family="Helvetica,sans-Serif" font-size="10.00">_types.h</text>
</a>
</g>
</g>
<!-- Node20&#45;&gt;Node21 -->
<g id="edge46_Node000020_Node000021" class="edge">
<title>Node20&#45;&gt;Node21</title>
<g id="a_edge46_Node000020_Node000021"><a xlink:title=" ">
<path fill="none" stroke="#63b8ff" d="M1105.05,-120.87C1110.1,-113.67 1117.52,-103.07 1124.24,-93.49"/>
<polygon fill="#63b8ff" stroke="#63b8ff" points="1127.23,-95.31 1130.11,-85.11 1121.5,-91.29 1127.23,-95.31"/>
</a>
</g>
</g>
<!-- Node22&#45;&gt;Node3 -->
<g id="edge50_Node000022_Node000003" class="edge">
<title>Node22&#45;&gt;Node3</title>
<g id="a_edge50_Node000022_Node000003"><a xlink:title=" ">
<path fill="none" stroke="#63b8ff" d="M1077.03,-181.49C1048.42,-170.9 999.62,-152.84 969.19,-141.57"/>
<polygon fill="#63b8ff" stroke="#63b8ff" points="970.22,-138.22 959.62,-138.03 967.79,-144.78 970.22,-138.22"/>
</a>
</g>
</g>
<!-- Node22&#45;&gt;Node4 -->
<g id="edge49_Node000022_Node000004" class="edge">
<title>Node22&#45;&gt;Node4</title>
<g id="a_edge49_Node000022_Node000004"><a xlink:title=" ">
<path fill="none" stroke="#63b8ff" d="M1086.48,-181.46C1073.82,-172.69 1055.47,-157.83 1046,-140 1027.03,-104.3 1024.76,-55.76 1025.14,-29.41"/>
<polygon fill="#63b8ff" stroke="#63b8ff" points="1028.65,-29.39 1025.44,-19.29 1021.65,-29.18 1028.65,-29.39"/>
</a>
</g>
</g>
<!-- Node22&#45;&gt;Node13 -->
<g id="edge48_Node000022_Node000013" class="edge">
<title>Node22&#45;&gt;Node13</title>
<g id="a_edge48_Node000022_Node000013"><a xlink:title=" ">
<path fill="none" stroke="#63b8ff" d="M1120.49,-181.36C1139.09,-172.8 1166.5,-158.34 1186,-140 1201.85,-125.09 1215.02,-103.74 1223.15,-88.75"/>
<polygon fill="#63b8ff" stroke="#63b8ff" points="1226.43,-90.03 1227.94,-79.54 1220.22,-86.79 1226.43,-90.03"/>
</a>
</g>
</g>
<!-- Node22&#45;&gt;Node20 -->
<g id="edge51_Node000022_Node000020" class="edge">
<title>Node22&#45;&gt;Node20</title>
<g id="a_edge51_Node000022_Node000020"><a xlink:title=" ">
<path fill="none" stroke="#63b8ff" d="M1099.85,-181.37C1099.71,-173.25 1099.5,-160.81 1099.32,-150.39"/>
<polygon fill="#63b8ff" stroke="#63b8ff" points="1102.82,-150.11 1099.15,-140.17 1095.82,-150.23 1102.82,-150.11"/>
</a>
</g>
</g>
<!-- Node23&#45;&gt;Node3 -->
<g id="edge53_Node000023_Node000003" class="edge">
<title>Node23&#45;&gt;Node3</title>
<g id="a_edge53_Node000023_Node000003"><a xlink:title=" ">
<path fill="none" stroke="#63b8ff" d="M509.08,-184C588.48,-174.8 744.57,-156.54 877,-140 889.28,-138.47 902.85,-136.7 914.4,-135.18"/>
<polygon fill="#63b8ff" stroke="#63b8ff" points="914.9,-138.65 924.35,-133.86 913.98,-131.71 914.9,-138.65"/>
</a>
</g>
</g>
<!-- Node23&#45;&gt;Node4 -->
<g id="edge54_Node000023_Node000004" class="edge">
<title>Node23&#45;&gt;Node4</title>
<g id="a_edge54_Node000023_Node000004"><a xlink:title=" ">
<path fill="none" stroke="#63b8ff" d="M406.17,-175.96C385.19,-168.13 361.89,-156.53 345,-140 316.76,-112.37 291.96,-83.8 319,-55 342.26,-30.23 852.22,-15.06 991.26,-11.38"/>
<polygon fill="#63b8ff" stroke="#63b8ff" points="991.45,-14.88 1001.35,-11.11 991.27,-7.88 991.45,-14.88"/>
</a>
</g>
</g>
<!-- Node23&#45;&gt;Node7 -->
<g id="edge55_Node000023_Node000007" class="edge">
<title>Node23&#45;&gt;Node7</title>
<g id="a_edge55_Node000023_Node000007"><a xlink:title=" ">
<path fill="none" stroke="#63b8ff" d="M465.41,-175.88C475.71,-159.9 494.7,-134.36 518,-121 586.76,-81.58 681.32,-72.74 733.5,-71.06"/>
<polygon fill="#63b8ff" stroke="#63b8ff" points="733.75,-74.55 743.66,-70.81 733.58,-67.56 733.75,-74.55"/>
</a>
</g>
</g>
<!-- Node24 -->
<g id="Node000024" class="node">
<title>Node24</title>
<g id="a_Node000024"><a xlink:href="a00128.html" target="_top" xlink:title="This is the generated driver types header file for the SEC_CORE driver.">
<polygon fill="white" stroke="#666666" points="422,-79.5 328,-79.5 328,-60.5 422,-60.5 422,-79.5"/>
<text text-anchor="middle" x="375" y="-67.5" font-family="Helvetica,sans-Serif" font-size="10.00">sec_core_types.h</text>
</a>
</g>
</g>
<!-- Node23&#45;&gt;Node24 -->
<g id="edge56_Node000023_Node000024" class="edge">
<title>Node23&#45;&gt;Node24</title>
<g id="a_edge56_Node000023_Node000024"><a xlink:title=" ">
<path fill="none" stroke="#63b8ff" d="M404.95,-177.43C385.51,-169.94 365.39,-158.2 354,-140 343.97,-123.98 353.07,-102.87 362.22,-88.23"/>
<polygon fill="#63b8ff" stroke="#63b8ff" points="365.32,-89.91 368.05,-79.67 359.53,-85.97 365.32,-89.91"/>
</a>
</g>
</g>
<!-- Node25 -->
<g id="Node000025" class="node">
<title>Node25</title>
<g id="a_Node000025"><a xlink:href="a00125_source.html" target="_top" xlink:title=" ">
<polygon fill="white" stroke="#666666" points="469.5,-140 362.5,-140 362.5,-121 469.5,-121 469.5,-140"/>
<text text-anchor="middle" x="416" y="-128" font-family="Helvetica,sans-Serif" font-size="10.00">sec_core_interface.h</text>
</a>
</g>
</g>
<!-- Node23&#45;&gt;Node25 -->
<g id="edge57_Node000023_Node000025" class="edge">
<title>Node23&#45;&gt;Node25</title>
<g id="a_edge57_Node000023_Node000025"><a xlink:title=" ">
<path fill="none" stroke="#63b8ff" d="M447.08,-175.84C441.31,-167.61 434,-157.18 427.92,-148.51"/>
<polygon fill="#63b8ff" stroke="#63b8ff" points="430.75,-146.45 422.14,-140.27 425.02,-150.46 430.75,-146.45"/>
</a>
</g>
</g>
<!-- Node25&#45;&gt;Node4 -->
<g id="edge59_Node000025_Node000004" class="edge">
<title>Node25&#45;&gt;Node4</title>
<g id="a_edge59_Node000025_Node000004"><a xlink:title=" ">
<path fill="none" stroke="#63b8ff" d="M444.16,-120.98C495.15,-105.81 606.37,-73.95 702,-55 806.55,-34.28 932,-20.02 991.47,-13.89"/>
<polygon fill="#63b8ff" stroke="#63b8ff" points="991.86,-17.36 1001.45,-12.87 991.15,-10.4 991.86,-17.36"/>
</a>
</g>
</g>
<!-- Node25&#45;&gt;Node7 -->
<g id="edge60_Node000025_Node000007" class="edge">
<title>Node25&#45;&gt;Node7</title>
<g id="a_edge60_Node000025_Node000007"><a xlink:title=" ">
<path fill="none" stroke="#63b8ff" d="M467.77,-120.99C540.1,-109.11 669.75,-87.8 733.9,-77.26"/>
<polygon fill="#63b8ff" stroke="#63b8ff" points="734.69,-80.68 743.99,-75.6 733.55,-73.77 734.69,-80.68"/>
</a>
</g>
</g>
<!-- Node25&#45;&gt;Node13 -->
<g id="edge58_Node000025_Node000013" class="edge">
<title>Node25&#45;&gt;Node13</title>
<g id="a_edge58_Node000025_Node000013"><a xlink:title=" ">
<path fill="none" stroke="#63b8ff" d="M469.71,-124.72C485.28,-123.42 502.31,-122.07 518,-121 819.5,-100.45 901.87,-149.99 1197,-85 1199.37,-84.48 1201.79,-83.81 1204.2,-83.06"/>
<polygon fill="#63b8ff" stroke="#63b8ff" points="1205.62,-86.27 1213.83,-79.57 1203.24,-79.68 1205.62,-86.27"/>
</a>
</g>
</g>
<!-- Node25&#45;&gt;Node24 -->
<g id="edge61_Node000025_Node000024" class="edge">
<title>Node25&#45;&gt;Node24</title>
<g id="a_edge61_Node000025_Node000024"><a xlink:title=" ">
<path fill="none" stroke="#63b8ff" d="M409.95,-120.87C403.89,-112.23 394.41,-98.7 386.86,-87.92"/>
<polygon fill="#63b8ff" stroke="#63b8ff" points="389.68,-85.85 381.07,-79.67 383.95,-89.87 389.68,-85.85"/>
</a>
</g>
</g>
<!-- Node26&#45;&gt;Node4 -->
<g id="edge63_Node000026_Node000004" class="edge">
<title>Node26&#45;&gt;Node4</title>
<g id="a_edge63_Node000026_Node000004"><a xlink:title=" ">
<path fill="none" stroke="#63b8ff" d="M1359.93,-181.46C1417.52,-168.07 1522.42,-143.3 1525,-140 1530.2,-133.35 1529.02,-128.43 1525,-121 1499.48,-73.84 1474.46,-73.14 1424,-55 1357.33,-31.04 1144.6,-17.03 1060.6,-12.31"/>
<polygon fill="#63b8ff" stroke="#63b8ff" points="1060.73,-8.81 1050.55,-11.75 1060.34,-15.8 1060.73,-8.81"/>
</a>
</g>
</g>
<!-- Node26&#45;&gt;Node7 -->
<g id="edge64_Node000026_Node000007" class="edge">
<title>Node26&#45;&gt;Node7</title>
<g id="a_edge64_Node000026_Node000007"><a xlink:title=" ">
<path fill="none" stroke="#63b8ff" d="M1306.12,-181.45C1276.13,-166.65 1211.21,-136.36 1153,-121 1030.29,-88.62 879.56,-76.75 810.22,-72.79"/>
<polygon fill="#63b8ff" stroke="#63b8ff" points="810.37,-69.3 800.2,-72.24 809.99,-76.29 810.37,-69.3"/>
</a>
</g>
</g>
<!-- Node26&#45;&gt;Node13 -->
<g id="edge65_Node000026_Node000013" class="edge">
<title>Node26&#45;&gt;Node13</title>
<g id="a_edge65_Node000026_Node000013"><a xlink:title=" ">
<path fill="none" stroke="#63b8ff" d="M1316.46,-181.44C1301.51,-161.9 1264.64,-113.68 1244.92,-87.9"/>
<polygon fill="#63b8ff" stroke="#63b8ff" points="1247.59,-85.62 1238.73,-79.8 1242.02,-89.87 1247.59,-85.62"/>
</a>
</g>
</g>
<!-- Node27 -->
<g id="Node000027" class="node">
<title>Node27</title>
<g id="a_Node000027"><a xlink:href="a00137_source.html" target="_top" xlink:title=" ">
<polygon fill="white" stroke="#666666" points="1498,-140 1390,-140 1390,-121 1498,-121 1498,-140"/>
<text text-anchor="middle" x="1444" y="-128" font-family="Helvetica,sans-Serif" font-size="10.00">spi_client_interface.h</text>
</a>
</g>
</g>
<!-- Node26&#45;&gt;Node27 -->
<g id="edge66_Node000026_Node000027" class="edge">
<title>Node26&#45;&gt;Node27</title>
<g id="a_edge66_Node000026_Node000027"><a xlink:title=" ">
<path fill="none" stroke="#63b8ff" d="M1340.59,-181.49C1360.76,-171.75 1394.02,-155.66 1417.36,-144.38"/>
<polygon fill="#63b8ff" stroke="#63b8ff" points="1418.9,-147.52 1426.38,-140.02 1415.86,-141.22 1418.9,-147.52"/>
</a>
</g>
</g>
<!-- Node27&#45;&gt;Node4 -->
<g id="edge67_Node000027_Node000004" class="edge">
<title>Node27&#45;&gt;Node4</title>
<g id="a_edge67_Node000027_Node000004"><a xlink:title=" ">
<path fill="none" stroke="#63b8ff" d="M1426.87,-120.82C1395.79,-105.39 1327.69,-73.14 1267,-55 1195.18,-33.53 1108.07,-20.54 1060.73,-14.52"/>
<polygon fill="#63b8ff" stroke="#63b8ff" points="1061.06,-11.03 1050.7,-13.27 1060.19,-17.98 1061.06,-11.03"/>
</a>
</g>
</g>
<!-- Node27&#45;&gt;Node7 -->
<g id="edge68_Node000027_Node000007" class="edge">
<title>Node27&#45;&gt;Node7</title>
<g id="a_edge68_Node000027_Node000007"><a xlink:title=" ">
<path fill="none" stroke="#63b8ff" d="M1389.83,-122.52C1385.16,-121.98 1380.5,-121.47 1376,-121 1162.4,-98.82 905.47,-80.22 810.07,-73.6"/>
<polygon fill="#63b8ff" stroke="#63b8ff" points="810.25,-70.1 800.04,-72.9 809.77,-77.08 810.25,-70.1"/>
</a>
</g>
</g>
<!-- Node27&#45;&gt;Node13 -->
<g id="edge69_Node000027_Node000013" class="edge">
<title>Node27&#45;&gt;Node13</title>
<g id="a_edge69_Node000027_Node000013"><a xlink:title=" ">
<path fill="none" stroke="#63b8ff" d="M1413.17,-120.99C1374.43,-110.3 1308.07,-91.99 1267.32,-80.75"/>
<polygon fill="#63b8ff" stroke="#63b8ff" points="1268.11,-77.33 1257.54,-78.05 1266.25,-84.08 1268.11,-77.33"/>
</a>
</g>
</g>
<!-- Node28&#45;&gt;Node3 -->
<g id="edge73_Node000028_Node000003" class="edge">
<title>Node28&#45;&gt;Node3</title>
<g id="a_edge73_Node000028_Node000003"><a xlink:title=" ">
<path fill="none" stroke="#63b8ff" d="M1177.68,-181.43C1170.57,-179.57 1163.04,-177.66 1156,-176 1089.38,-160.29 1010.39,-144.62 969.55,-136.74"/>
<polygon fill="#63b8ff" stroke="#63b8ff" points="970.03,-133.27 959.55,-134.82 968.71,-140.14 970.03,-133.27"/>
</a>
</g>
</g>
<!-- Node28&#45;&gt;Node4 -->
<g id="edge72_Node000028_Node000004" class="edge">
<title>Node28&#45;&gt;Node4</title>
<g id="a_edge72_Node000028_Node000004"><a xlink:title=" ">
<path fill="none" stroke="#63b8ff" d="M1238.85,-181.49C1246.37,-179.52 1254.45,-177.55 1262,-176 1371.33,-153.6 1571.46,-212.1 1507,-121 1454.84,-47.28 1162.47,-20.04 1060.83,-12.72"/>
<polygon fill="#63b8ff" stroke="#63b8ff" points="1060.99,-9.23 1050.77,-12.02 1060.5,-16.21 1060.99,-9.23"/>
</a>
</g>
</g>
<!-- Node28&#45;&gt;Node13 -->
<g id="edge71_Node000028_Node000013" class="edge">
<title>Node28&#45;&gt;Node13</title>
<g id="a_edge71_Node000028_Node000013"><a xlink:title=" ">
<path fill="none" stroke="#63b8ff" d="M1212.13,-181.27C1215.56,-171.38 1220.96,-154.73 1224,-140 1227.46,-123.21 1229.55,-103.78 1230.72,-89.83"/>
<polygon fill="#63b8ff" stroke="#63b8ff" points="1234.23,-89.81 1231.49,-79.57 1227.25,-89.28 1234.23,-89.81"/>
</a>
</g>
</g>
<!-- Node28&#45;&gt;Node20 -->
<g id="edge74_Node000028_Node000020" class="edge">
<title>Node28&#45;&gt;Node20</title>
<g id="a_edge74_Node000028_Node000020"><a xlink:title=" ">
<path fill="none" stroke="#63b8ff" d="M1192.77,-181.37C1174.73,-171.78 1145.38,-156.17 1124.32,-144.97"/>
<polygon fill="#63b8ff" stroke="#63b8ff" points="1125.77,-141.77 1115.3,-140.17 1122.48,-147.95 1125.77,-141.77"/>
</a>
</g>
</g>
</g>
</svg>
