<?xml version="1.0" encoding="UTF-8" standalone="no"?>
<!DOCTYPE svg PUBLIC "-//W3C//DTD SVG 1.1//EN"
 "http://www.w3.org/Graphics/SVG/1.1/DTD/svg11.dtd">
<!-- Generated by graphviz version 2.44.1 (20200629.0846)
 -->
<!-- Title: C:/Users/M70027/Documents/Projects/tp&#45;deployment/dspic33ch&#45;power&#45;totem&#45;pole&#45;demonstration&#45;application&#45;single&#45;phase_v2/dspic33ch_totem_pole_single_phase_secondary_IL.X/mcc_generated_files/timer/src/tmr1.c Pages: 1 -->
<svg width="339pt" height="269pt"
 viewBox="0.00 0.00 338.50 269.00" xmlns="http://www.w3.org/2000/svg" xmlns:xlink="http://www.w3.org/1999/xlink">

<svg id="main" version="1.1" xmlns="http://www.w3.org/2000/svg" xmlns:xlink="http://www.w3.org/1999/xlink" xml:space="preserve">

<style type="text/css"><![CDATA[
.node, .edge {opacity: 0.7;}
.node.selected, .edge.selected {opacity: 1;}
.edge:hover path { stroke: red; }
.edge:hover polygon { stroke: red; fill: red; }
]]></style>
<script type="application/ecmascript" xlink:href="svg.min.js"/>
<svg id="graph" class="graph">
<g id="graph0" class="graph" transform="scale(1 1) rotate(0) translate(4 265)">
<title>C:/Users/M70027/Documents/Projects/tp&#45;deployment/dspic33ch&#45;power&#45;totem&#45;pole&#45;demonstration&#45;application&#45;single&#45;phase_v2/dspic33ch_totem_pole_single_phase_secondary_IL.X/mcc_generated_files/timer/src/tmr1.c</title>
<!-- Node1 -->
<g id="Node000001" class="node">
<title>Node1</title>
<g id="a_Node000001"><a xlink:title="This is the generated driver source file for TMR1 driver.">
<polygon fill="#999999" stroke="#666666" points="282.5,-261 101.5,-261 101.5,-176 282.5,-176 282.5,-261"/>
<text text-anchor="start" x="109.5" y="-249" font-family="Helvetica,sans-Serif" font-size="10.00">C:/Users/M70027/Documents</text>
<text text-anchor="start" x="109.5" y="-238" font-family="Helvetica,sans-Serif" font-size="10.00">/Projects/tp&#45;deployment</text>
<text text-anchor="start" x="109.5" y="-227" font-family="Helvetica,sans-Serif" font-size="10.00">/dspic33ch&#45;power&#45;totem&#45;pole</text>
<text text-anchor="start" x="109.5" y="-216" font-family="Helvetica,sans-Serif" font-size="10.00">&#45;demonstration&#45;application</text>
<text text-anchor="start" x="109.5" y="-205" font-family="Helvetica,sans-Serif" font-size="10.00">&#45;single&#45;phase_v2/dspic33ch_totem</text>
<text text-anchor="start" x="109.5" y="-194" font-family="Helvetica,sans-Serif" font-size="10.00">_pole_single_phase_secondary_IL.X</text>
<text text-anchor="middle" x="192" y="-183" font-family="Helvetica,sans-Serif" font-size="10.00">/mcc_generated_files/timer/src/tmr1.c</text>
</a>
</g>
</g>
<!-- Node2 -->
<g id="Node000002" class="node">
<title>Node2</title>
<g id="a_Node000002"><a xlink:href="a00892.html" target="_top" xlink:title="This is the generated driver header file for the TMR1 driver.">
<polygon fill="white" stroke="#666666" points="255.5,-140 202.5,-140 202.5,-121 255.5,-121 255.5,-140"/>
<text text-anchor="middle" x="229" y="-128" font-family="Helvetica,sans-Serif" font-size="10.00">../tmr1.h</text>
</a>
</g>
</g>
<!-- Node1&#45;&gt;Node2 -->
<g id="edge1_Node000001_Node000002" class="edge">
<title>Node1&#45;&gt;Node2</title>
<g id="a_edge1_Node000001_Node000002"><a xlink:title=" ">
<path fill="none" stroke="#63b8ff" d="M209.96,-175.76C213.96,-166.46 217.99,-157.09 221.31,-149.37"/>
<polygon fill="#63b8ff" stroke="#63b8ff" points="224.59,-150.62 225.32,-140.05 218.16,-147.85 224.59,-150.62"/>
</a>
</g>
</g>
<!-- Node6 -->
<g id="Node000006" class="node">
<title>Node6</title>
<g id="a_Node000006"><a xlink:href="a00886_source.html" target="_top" xlink:title=" ">
<polygon fill="white" stroke="#666666" points="200.5,-85 111.5,-85 111.5,-66 200.5,-66 200.5,-85"/>
<text text-anchor="middle" x="156" y="-73" font-family="Helvetica,sans-Serif" font-size="10.00">timer_interface.h</text>
</a>
</g>
</g>
<!-- Node1&#45;&gt;Node6 -->
<g id="edge10_Node000001_Node000006" class="edge">
<title>Node1&#45;&gt;Node6</title>
<g id="a_edge10_Node000001_Node000006"><a xlink:title=" ">
<path fill="none" stroke="#63b8ff" d="M181.39,-175.96C174.53,-149.09 165.94,-115.43 160.71,-94.97"/>
<polygon fill="#63b8ff" stroke="#63b8ff" points="164.06,-93.9 158.19,-85.08 157.27,-95.64 164.06,-93.9"/>
</a>
</g>
</g>
<!-- Node3 -->
<g id="Node000003" class="node">
<title>Node3</title>
<g id="a_Node000003"><a xlink:title=" ">
<polygon fill="#e0e0e0" stroke="#999999" points="239.5,-24.5 188.5,-24.5 188.5,-5.5 239.5,-5.5 239.5,-24.5"/>
<text text-anchor="middle" x="214" y="-12.5" font-family="Helvetica,sans-Serif" font-size="10.00">stddef.h</text>
</a>
</g>
</g>
<!-- Node2&#45;&gt;Node3 -->
<g id="edge2_Node000002_Node000003" class="edge">
<title>Node2&#45;&gt;Node3</title>
<g id="a_edge2_Node000002_Node000003"><a xlink:title=" ">
<path fill="none" stroke="#63b8ff" d="M227.87,-120.97C225.46,-102.73 219.76,-59.57 216.46,-34.64"/>
<polygon fill="#63b8ff" stroke="#63b8ff" points="219.92,-34.09 215.14,-24.63 212.98,-35 219.92,-34.09"/>
</a>
</g>
</g>
<!-- Node4 -->
<g id="Node000004" class="node">
<title>Node4</title>
<g id="a_Node000004"><a xlink:title=" ">
<polygon fill="#e0e0e0" stroke="#999999" points="306.5,-24.5 257.5,-24.5 257.5,-5.5 306.5,-5.5 306.5,-24.5"/>
<text text-anchor="middle" x="282" y="-12.5" font-family="Helvetica,sans-Serif" font-size="10.00">stdint.h</text>
</a>
</g>
</g>
<!-- Node2&#45;&gt;Node4 -->
<g id="edge3_Node000002_Node000004" class="edge">
<title>Node2&#45;&gt;Node4</title>
<g id="a_edge3_Node000002_Node000004"><a xlink:title=" ">
<path fill="none" stroke="#63b8ff" d="M232.98,-120.97C241.58,-102.56 262.02,-58.79 273.61,-33.98"/>
<polygon fill="#63b8ff" stroke="#63b8ff" points="276.91,-35.17 277.97,-24.63 270.57,-32.21 276.91,-35.17"/>
</a>
</g>
</g>
<!-- Node5 -->
<g id="Node000005" class="node">
<title>Node5</title>
<g id="a_Node000005"><a xlink:title=" ">
<polygon fill="#e0e0e0" stroke="#999999" points="330.5,-85 295.5,-85 295.5,-66 330.5,-66 330.5,-85"/>
<text text-anchor="middle" x="313" y="-73" font-family="Helvetica,sans-Serif" font-size="10.00">xc.h</text>
</a>
</g>
</g>
<!-- Node2&#45;&gt;Node5 -->
<g id="edge4_Node000002_Node000005" class="edge">
<title>Node2&#45;&gt;Node5</title>
<g id="a_edge4_Node000002_Node000005"><a xlink:title=" ">
<path fill="none" stroke="#63b8ff" d="M242.5,-120.98C255.4,-112.84 275.1,-100.41 290.4,-90.76"/>
<polygon fill="#63b8ff" stroke="#63b8ff" points="292.67,-93.47 299.26,-85.17 288.93,-87.55 292.67,-93.47"/>
</a>
</g>
</g>
<!-- Node2&#45;&gt;Node6 -->
<g id="edge5_Node000002_Node000006" class="edge">
<title>Node2&#45;&gt;Node6</title>
<g id="a_edge5_Node000002_Node000006"><a xlink:title=" ">
<path fill="none" stroke="#63b8ff" d="M217.27,-120.98C206.27,-113 189.58,-100.88 176.4,-91.31"/>
<polygon fill="#63b8ff" stroke="#63b8ff" points="178.09,-88.21 167.94,-85.17 173.98,-93.88 178.09,-88.21"/>
</a>
</g>
</g>
<!-- Node6&#45;&gt;Node3 -->
<g id="edge6_Node000006_Node000003" class="edge">
<title>Node6&#45;&gt;Node3</title>
<g id="a_edge6_Node000006_Node000003"><a xlink:title=" ">
<path fill="none" stroke="#63b8ff" d="M164.56,-65.87C173.38,-56.97 187.34,-42.89 198.18,-31.95"/>
<polygon fill="#63b8ff" stroke="#63b8ff" points="200.85,-34.23 205.41,-24.67 195.88,-29.3 200.85,-34.23"/>
</a>
</g>
</g>
<!-- Node6&#45;&gt;Node4 -->
<g id="edge7_Node000006_Node000004" class="edge">
<title>Node6&#45;&gt;Node4</title>
<g id="a_edge7_Node000006_Node000004"><a xlink:title=" ">
<path fill="none" stroke="#63b8ff" d="M174.32,-65.99C195.41,-56.2 230.26,-40.02 254.58,-28.73"/>
<polygon fill="#63b8ff" stroke="#63b8ff" points="256.06,-31.9 263.66,-24.52 253.11,-25.55 256.06,-31.9"/>
</a>
</g>
</g>
<!-- Node7 -->
<g id="Node000007" class="node">
<title>Node7</title>
<g id="a_Node000007"><a xlink:title=" ">
<polygon fill="#e0e0e0" stroke="#999999" points="170,-24.5 114,-24.5 114,-5.5 170,-5.5 170,-24.5"/>
<text text-anchor="middle" x="142" y="-12.5" font-family="Helvetica,sans-Serif" font-size="10.00">stdbool.h</text>
</a>
</g>
</g>
<!-- Node6&#45;&gt;Node7 -->
<g id="edge8_Node000006_Node000007" class="edge">
<title>Node6&#45;&gt;Node7</title>
<g id="a_edge8_Node000006_Node000007"><a xlink:title=" ">
<path fill="none" stroke="#63b8ff" d="M153.93,-65.87C151.97,-57.66 148.95,-45.04 146.44,-34.55"/>
<polygon fill="#63b8ff" stroke="#63b8ff" points="149.81,-33.58 144.07,-24.67 143,-35.21 149.81,-33.58"/>
</a>
</g>
</g>
<!-- Node8 -->
<g id="Node000008" class="node">
<title>Node8</title>
<g id="a_Node000008"><a xlink:href="a00784_source.html" target="_top" xlink:title=" ">
<polygon fill="white" stroke="#666666" points="96,-30 0,-30 0,0 96,0 96,-30"/>
<text text-anchor="start" x="8" y="-18" font-family="Helvetica,sans-Serif" font-size="10.00">../system/interrupt</text>
<text text-anchor="middle" x="48" y="-7" font-family="Helvetica,sans-Serif" font-size="10.00">_types.h</text>
</a>
</g>
</g>
<!-- Node6&#45;&gt;Node8 -->
<g id="edge9_Node000006_Node000008" class="edge">
<title>Node6&#45;&gt;Node8</title>
<g id="a_edge9_Node000006_Node000008"><a xlink:title=" ">
<path fill="none" stroke="#63b8ff" d="M140.06,-65.87C125.07,-57.75 102.11,-45.31 82.87,-34.89"/>
<polygon fill="#63b8ff" stroke="#63b8ff" points="84.52,-31.8 74.06,-30.11 81.18,-37.96 84.52,-31.8"/>
</a>
</g>
</g>
</g>
</svg>
</svg>

<style type='text/css'>
<![CDATA[
[data-mouse-over-selected='false'] { opacity: 0.7; }
[data-mouse-over-selected='true']  { opacity: 1.0; }
]]>
</style>
<script type="application/ecmascript"><![CDATA[
document.addEventListener('DOMContentLoaded', (event) => {
  highlightEdges();
  highlightAdjacentNodes();
});
]]></script>
</svg>
