<?xml version="1.0" encoding="UTF-8" standalone="no"?>
<!DOCTYPE svg PUBLIC "-//W3C//DTD SVG 1.1//EN"
 "http://www.w3.org/Graphics/SVG/1.1/DTD/svg11.dtd">
<!-- Generated by graphviz version 8.1.0 (20230707.0739)
 -->
<!-- Title: D:/Firmware/MCU16ASMPS_TestEnvironment/_deployment/dspic33ch&#45;power&#45;totem&#45;pole&#45;demonstration&#45;application&#45;single&#45;phase/dspic33ch_totem_pole_single_phase_secondary_IL.X/mcc_generated_files/system/src/system.c Pages: 1 -->
<svg width="1410pt" height="292pt"
 viewBox="0.00 0.00 1409.62 292.00" xmlns="http://www.w3.org/2000/svg" xmlns:xlink="http://www.w3.org/1999/xlink">
<g id="graph0" class="graph" transform="scale(1 1) rotate(0) translate(4 288)">
<title>D:/Firmware/MCU16ASMPS_TestEnvironment/_deployment/dspic33ch&#45;power&#45;totem&#45;pole&#45;demonstration&#45;application&#45;single&#45;phase/dspic33ch_totem_pole_single_phase_secondary_IL.X/mcc_generated_files/system/src/system.c</title>
<!-- Node1 -->
<g id="Node000001" class="node">
<title>Node1</title>
<g id="a_Node000001"><a xlink:title="This is the generated driver header file for the System driver.">
<polygon fill="#999999" stroke="#666666" points="778.12,-284 589.62,-284 589.62,-192 778.12,-192 778.12,-284"/>
<text text-anchor="start" x="597.62" y="-270.5" font-family="Helvetica,sans-Serif" font-size="10.00">D:/Firmware/MCU16ASMPS</text>
<text text-anchor="start" x="597.62" y="-258.5" font-family="Helvetica,sans-Serif" font-size="10.00">_TestEnvironment/_deployment</text>
<text text-anchor="start" x="597.62" y="-246.5" font-family="Helvetica,sans-Serif" font-size="10.00">/dspic33ch&#45;power&#45;totem&#45;pole</text>
<text text-anchor="start" x="597.62" y="-234.5" font-family="Helvetica,sans-Serif" font-size="10.00">&#45;demonstration&#45;application&#45;single</text>
<text text-anchor="start" x="597.62" y="-222.5" font-family="Helvetica,sans-Serif" font-size="10.00">&#45;phase/dspic33ch_totem_pole_single</text>
<text text-anchor="start" x="597.62" y="-210.5" font-family="Helvetica,sans-Serif" font-size="10.00">_phase_secondary_IL.X/mcc_generated</text>
<text text-anchor="middle" x="683.88" y="-198.5" font-family="Helvetica,sans-Serif" font-size="10.00">_files/system/src/system.c</text>
</a>
</g>
</g>
<!-- Node2 -->
<g id="Node000002" class="node">
<title>Node2</title>
<g id="a_Node000002"><a xlink:href="a00850_source.html" target="_top" xlink:title=" ">
<polygon fill="white" stroke="#666666" points="275.62,-150 210.12,-150 210.12,-130 275.62,-130 275.62,-150"/>
<text text-anchor="middle" x="242.88" y="-136.5" font-family="Helvetica,sans-Serif" font-size="10.00">../system.h</text>
</a>
</g>
</g>
<!-- Node1&#45;&gt;Node2 -->
<g id="edge1_Node000001_Node000002" class="edge">
<title>Node1&#45;&gt;Node2</title>
<g id="a_edge1_Node000001_Node000002"><a xlink:title=" ">
<path fill="none" stroke="#63b8ff" d="M589.46,-221.75C508.04,-207.67 387.69,-184.64 284.88,-156 282.57,-155.36 280.21,-154.65 277.85,-153.91"/>
<polygon fill="#63b8ff" stroke="#63b8ff" points="279.15,-150.32 268.56,-150.48 276.94,-156.96 279.15,-150.32"/>
</a>
</g>
</g>
<!-- Node5 -->
<g id="Node000005" class="node">
<title>Node5</title>
<g id="a_Node000005"><a xlink:href="a00856.html" target="_top" xlink:title="This is the generated driver types header file for the System driver.">
<polygon fill="white" stroke="#666666" points="85.75,-88 0,-88 0,-68 85.75,-68 85.75,-88"/>
<text text-anchor="middle" x="42.88" y="-74.5" font-family="Helvetica,sans-Serif" font-size="10.00">system_types.h</text>
</a>
</g>
</g>
<!-- Node1&#45;&gt;Node5 -->
<g id="edge5_Node000001_Node000005" class="edge">
<title>Node1&#45;&gt;Node5</title>
<g id="a_edge5_Node000001_Node000005"><a xlink:title=" ">
<path fill="none" stroke="#63b8ff" d="M589.4,-229.24C490.63,-219.28 332.06,-197.99 200.88,-156 151.53,-140.2 98.13,-111.48 67.77,-93.94"/>
<polygon fill="#63b8ff" stroke="#63b8ff" points="69.79,-90.48 59.39,-88.45 66.25,-96.52 69.79,-90.48"/>
</a>
</g>
</g>
<!-- Node6 -->
<g id="Node000006" class="node">
<title>Node6</title>
<g id="a_Node000006"><a xlink:href="a00760_source.html" target="_top" xlink:title=" ">
<polygon fill="white" stroke="#666666" points="1087.12,-150 1030.62,-150 1030.62,-130 1087.12,-130 1087.12,-150"/>
<text text-anchor="middle" x="1058.88" y="-136.5" font-family="Helvetica,sans-Serif" font-size="10.00">../clock.h</text>
</a>
</g>
</g>
<!-- Node1&#45;&gt;Node6 -->
<g id="edge6_Node000001_Node000006" class="edge">
<title>Node1&#45;&gt;Node6</title>
<g id="a_edge6_Node000001_Node000006"><a xlink:title=" ">
<path fill="none" stroke="#63b8ff" d="M778.44,-214.21C842.95,-198.44 930.26,-176.65 1006.88,-156 1011.16,-154.84 1015.64,-153.6 1020.09,-152.35"/>
<polygon fill="#63b8ff" stroke="#63b8ff" points="1020.66,-155.54 1029.32,-149.43 1018.74,-148.81 1020.66,-155.54"/>
</a>
</g>
</g>
<!-- Node8 -->
<g id="Node000008" class="node">
<title>Node8</title>
<g id="a_Node000008"><a xlink:href="a00784_source.html" target="_top" xlink:title=" ">
<polygon fill="white" stroke="#666666" points="445.5,-150 394.25,-150 394.25,-130 445.5,-130 445.5,-150"/>
<text text-anchor="middle" x="419.88" y="-136.5" font-family="Helvetica,sans-Serif" font-size="10.00">../pins.h</text>
</a>
</g>
</g>
<!-- Node1&#45;&gt;Node8 -->
<g id="edge8_Node000001_Node000008" class="edge">
<title>Node1&#45;&gt;Node8</title>
<g id="a_edge8_Node000001_Node000008"><a xlink:title=" ">
<path fill="none" stroke="#63b8ff" d="M589.22,-205.07C547.76,-190.68 498.67,-173.11 454.88,-156 453.63,-155.51 452.36,-155.01 451.08,-154.49"/>
<polygon fill="#63b8ff" stroke="#63b8ff" points="452.83,-151.02 442.26,-150.42 450.15,-157.48 452.83,-151.02"/>
</a>
</g>
</g>
<!-- Node9 -->
<g id="Node000009" class="node">
<title>Node9</title>
<g id="a_Node000009"><a xlink:href="a00275.html" target="_top" xlink:title="This is the generated driver header file for the ADC1 driver.">
<polygon fill="white" stroke="#666666" points="375.88,-150 293.88,-150 293.88,-130 375.88,-130 375.88,-150"/>
<text text-anchor="middle" x="334.88" y="-136.5" font-family="Helvetica,sans-Serif" font-size="10.00">../../adc/adc1.h</text>
</a>
</g>
</g>
<!-- Node1&#45;&gt;Node9 -->
<g id="edge10_Node000001_Node000009" class="edge">
<title>Node1&#45;&gt;Node9</title>
<g id="a_edge10_Node000001_Node000009"><a xlink:title=" ">
<path fill="none" stroke="#63b8ff" d="M589.43,-212.11C530.5,-196.41 453.14,-175.48 384.88,-156 382.11,-155.21 379.26,-154.39 376.4,-153.55"/>
<polygon fill="#63b8ff" stroke="#63b8ff" points="377.63,-149.97 367.04,-150.49 375.64,-156.68 377.63,-149.97"/>
</a>
</g>
</g>
<!-- Node13 -->
<g id="Node000013" class="node">
<title>Node13</title>
<g id="a_Node000013"><a xlink:href="a00742.html" target="_top" xlink:title="This is the generated driver header file for the CMP1 driver.">
<polygon fill="white" stroke="#666666" points="997.88,-150 909.88,-150 909.88,-130 997.88,-130 997.88,-150"/>
<text text-anchor="middle" x="953.88" y="-136.5" font-family="Helvetica,sans-Serif" font-size="10.00">../../cmp/cmp1.h</text>
</a>
</g>
</g>
<!-- Node1&#45;&gt;Node13 -->
<g id="edge20_Node000001_Node000013" class="edge">
<title>Node1&#45;&gt;Node13</title>
<g id="a_edge20_Node000001_Node000013"><a xlink:title=" ">
<path fill="none" stroke="#63b8ff" d="M778.31,-203.42C826.34,-186.35 881.91,-166.59 917.45,-153.95"/>
<polygon fill="#63b8ff" stroke="#63b8ff" points="918.12,-157.07 926.37,-150.42 915.77,-150.48 918.12,-157.07"/>
</a>
</g>
</g>
<!-- Node16 -->
<g id="Node000016" class="node">
<title>Node16</title>
<g id="a_Node000016"><a xlink:href="a00766_source.html" target="_top" xlink:title=" ">
<polygon fill="white" stroke="#666666" points="921.75,-88 872,-88 872,-68 921.75,-68 921.75,-88"/>
<text text-anchor="middle" x="896.88" y="-74.5" font-family="Helvetica,sans-Serif" font-size="10.00">../dmt.h</text>
</a>
</g>
</g>
<!-- Node1&#45;&gt;Node16 -->
<g id="edge26_Node000001_Node000016" class="edge">
<title>Node1&#45;&gt;Node16</title>
<g id="a_edge26_Node000001_Node000016"><a xlink:title=" ">
<path fill="none" stroke="#63b8ff" d="M745.2,-191.51C789.08,-158.96 845.52,-117.09 875.67,-94.73"/>
<polygon fill="#63b8ff" stroke="#63b8ff" points="877.19,-97.22 883.14,-88.45 873.02,-91.6 877.19,-97.22"/>
</a>
</g>
</g>
<!-- Node17 -->
<g id="Node000017" class="node">
<title>Node17</title>
<g id="a_Node000017"><a xlink:href="a00290.html" target="_top" xlink:title="This is the generated driver header file for the MAIN_CORE driver.">
<polygon fill="white" stroke="#666666" points="735.38,-156 632.38,-156 632.38,-124 735.38,-124 735.38,-156"/>
<text text-anchor="start" x="640.38" y="-142.5" font-family="Helvetica,sans-Serif" font-size="10.00">../../main_core/main</text>
<text text-anchor="middle" x="683.88" y="-130.5" font-family="Helvetica,sans-Serif" font-size="10.00">_core.h</text>
</a>
</g>
</g>
<!-- Node1&#45;&gt;Node17 -->
<g id="edge29_Node000001_Node000017" class="edge">
<title>Node1&#45;&gt;Node17</title>
<g id="a_edge29_Node000001_Node000017"><a xlink:title=" ">
<path fill="none" stroke="#63b8ff" d="M683.88,-191.53C683.88,-183.13 683.88,-174.63 683.88,-167.06"/>
<polygon fill="#63b8ff" stroke="#63b8ff" points="687.38,-167.08 683.88,-157.08 680.38,-167.08 687.38,-167.08"/>
</a>
</g>
</g>
<!-- Node20 -->
<g id="Node000020" class="node">
<title>Node20</title>
<g id="a_Node000020"><a xlink:href="a00302.html" target="_top" xlink:title="This is the generated driver header file for the PWM driver.">
<polygon fill="white" stroke="#666666" points="1214.62,-150 1113.12,-150 1113.12,-130 1214.62,-130 1214.62,-150"/>
<text text-anchor="middle" x="1163.88" y="-136.5" font-family="Helvetica,sans-Serif" font-size="10.00">../../pwm_hs/pwm.h</text>
</a>
</g>
</g>
<!-- Node1&#45;&gt;Node20 -->
<g id="edge39_Node000001_Node000020" class="edge">
<title>Node1&#45;&gt;Node20</title>
<g id="a_edge39_Node000001_Node000020"><a xlink:title=" ">
<path fill="none" stroke="#63b8ff" d="M778.5,-219.04C862.09,-203.02 987.23,-178.66 1095.88,-156 1100.86,-154.96 1106.05,-153.85 1111.24,-152.74"/>
<polygon fill="#63b8ff" stroke="#63b8ff" points="1111.8,-155.98 1120.83,-150.43 1110.31,-149.14 1111.8,-155.98"/>
</a>
</g>
</g>
<!-- Node24 -->
<g id="Node000024" class="node">
<title>Node24</title>
<g id="a_Node000024"><a xlink:href="a00886.html" target="_top" xlink:title="This is the generated driver header file for the TMR1 driver.">
<polygon fill="white" stroke="#666666" points="550.12,-150 463.62,-150 463.62,-130 550.12,-130 550.12,-150"/>
<text text-anchor="middle" x="506.88" y="-136.5" font-family="Helvetica,sans-Serif" font-size="10.00">../../timer/tmr1.h</text>
</a>
</g>
</g>
<!-- Node1&#45;&gt;Node24 -->
<g id="edge49_Node000001_Node000024" class="edge">
<title>Node1&#45;&gt;Node24</title>
<g id="a_edge49_Node000001_Node000024"><a xlink:title=" ">
<path fill="none" stroke="#63b8ff" d="M600.04,-191.53C576.03,-178.51 551.55,-165.23 533.72,-155.56"/>
<polygon fill="#63b8ff" stroke="#63b8ff" points="535.75,-152.14 525.29,-150.45 532.41,-158.29 535.75,-152.14"/>
</a>
</g>
</g>
<!-- Node26 -->
<g id="Node000026" class="node">
<title>Node26</title>
<g id="a_Node000026"><a xlink:href="a00772_source.html" target="_top" xlink:title=" ">
<polygon fill="white" stroke="#666666" points="1301.12,-150 1232.62,-150 1232.62,-130 1301.12,-130 1301.12,-150"/>
<text text-anchor="middle" x="1266.88" y="-136.5" font-family="Helvetica,sans-Serif" font-size="10.00">../interrupt.h</text>
</a>
</g>
</g>
<!-- Node1&#45;&gt;Node26 -->
<g id="edge58_Node000001_Node000026" class="edge">
<title>Node1&#45;&gt;Node26</title>
<g id="a_edge58_Node000001_Node000026"><a xlink:title=" ">
<path fill="none" stroke="#63b8ff" d="M778.57,-228.21C887.21,-216.88 1070.18,-193.98 1223.88,-156 1226.66,-155.31 1229.51,-154.52 1232.37,-153.66"/>
<polygon fill="#63b8ff" stroke="#63b8ff" points="1233.12,-156.78 1241.56,-150.37 1230.96,-150.12 1233.12,-156.78"/>
</a>
</g>
</g>
<!-- Node3 -->
<g id="Node000003" class="node">
<title>Node3</title>
<g id="a_Node000003"><a xlink:title=" ">
<polygon fill="#e0e0e0" stroke="#999999" points="352.25,-88 317.5,-88 317.5,-68 352.25,-68 352.25,-88"/>
<text text-anchor="middle" x="334.88" y="-74.5" font-family="Helvetica,sans-Serif" font-size="10.00">xc.h</text>
</a>
</g>
</g>
<!-- Node2&#45;&gt;Node3 -->
<g id="edge2_Node000002_Node000003" class="edge">
<title>Node2&#45;&gt;Node3</title>
<g id="a_edge2_Node000002_Node000003"><a xlink:title=" ">
<path fill="none" stroke="#63b8ff" d="M257.25,-129.62C271.83,-120.11 294.64,-105.24 311.76,-94.08"/>
<polygon fill="#63b8ff" stroke="#63b8ff" points="313.14,-96.7 319.6,-88.31 309.31,-90.84 313.14,-96.7"/>
</a>
</g>
</g>
<!-- Node4 -->
<g id="Node000004" class="node">
<title>Node4</title>
<g id="a_Node000004"><a xlink:title=" ">
<polygon fill="#e0e0e0" stroke="#999999" points="512,-26 463.75,-26 463.75,-6 512,-6 512,-26"/>
<text text-anchor="middle" x="487.88" y="-12.5" font-family="Helvetica,sans-Serif" font-size="10.00">stdint.h</text>
</a>
</g>
</g>
<!-- Node2&#45;&gt;Node4 -->
<g id="edge3_Node000002_Node000004" class="edge">
<title>Node2&#45;&gt;Node4</title>
<g id="a_edge3_Node000002_Node000004"><a xlink:title=" ">
<path fill="none" stroke="#63b8ff" d="M247.68,-129.58C255.98,-114.28 274.5,-84.08 298.88,-68 324.09,-51.36 405.4,-33.24 452.76,-23.72"/>
<polygon fill="#63b8ff" stroke="#63b8ff" points="453.32,-26.98 462.45,-21.6 451.96,-20.11 453.32,-26.98"/>
</a>
</g>
</g>
<!-- Node2&#45;&gt;Node5 -->
<g id="edge4_Node000002_Node000005" class="edge">
<title>Node2&#45;&gt;Node5</title>
<g id="a_edge4_Node000002_Node000005"><a xlink:title=" ">
<path fill="none" stroke="#63b8ff" d="M211.62,-129.62C177.38,-119.35 122.29,-102.82 84.43,-91.47"/>
<polygon fill="#63b8ff" stroke="#63b8ff" points="85.82,-87.93 75.23,-88.41 83.81,-94.63 85.82,-87.93"/>
</a>
</g>
</g>
<!-- Node7 -->
<g id="Node000007" class="node">
<title>Node7</title>
<g id="a_Node000007"><a xlink:title=" ">
<polygon fill="#e0e0e0" stroke="#999999" points="924.75,-26 869,-26 869,-6 924.75,-6 924.75,-26"/>
<text text-anchor="middle" x="896.88" y="-12.5" font-family="Helvetica,sans-Serif" font-size="10.00">stdbool.h</text>
</a>
</g>
</g>
<!-- Node6&#45;&gt;Node7 -->
<g id="edge7_Node000006_Node000007" class="edge">
<title>Node6&#45;&gt;Node7</title>
<g id="a_edge7_Node000006_Node000007"><a xlink:title=" ">
<path fill="none" stroke="#63b8ff" d="M1068.22,-129.94C1081.82,-115.66 1103.89,-87.52 1088.88,-68 1070.35,-43.92 986.39,-28.83 935.83,-21.76"/>
<polygon fill="#63b8ff" stroke="#63b8ff" points="936.36,-18.16 925.98,-20.29 935.42,-25.1 936.36,-18.16"/>
</a>
</g>
</g>
<!-- Node8&#45;&gt;Node3 -->
<g id="edge9_Node000008_Node000003" class="edge">
<title>Node8&#45;&gt;Node3</title>
<g id="a_edge9_Node000008_Node000003"><a xlink:title=" ">
<path fill="none" stroke="#63b8ff" d="M406.59,-129.62C393.24,-120.2 372.44,-105.52 356.67,-94.39"/>
<polygon fill="#63b8ff" stroke="#63b8ff" points="359.25,-91.22 349.06,-88.31 355.21,-96.94 359.25,-91.22"/>
</a>
</g>
</g>
<!-- Node9&#45;&gt;Node3 -->
<g id="edge11_Node000009_Node000003" class="edge">
<title>Node9&#45;&gt;Node3</title>
<g id="a_edge11_Node000009_Node000003"><a xlink:title=" ">
<path fill="none" stroke="#63b8ff" d="M334.88,-129.62C334.88,-121.48 334.88,-109.39 334.88,-99.07"/>
<polygon fill="#63b8ff" stroke="#63b8ff" points="338.38,-99.11 334.88,-89.11 331.38,-99.11 338.38,-99.11"/>
</a>
</g>
</g>
<!-- Node9&#45;&gt;Node4 -->
<g id="edge13_Node000009_Node000004" class="edge">
<title>Node9&#45;&gt;Node4</title>
<g id="a_edge13_Node000009_Node000004"><a xlink:title=" ">
<path fill="none" stroke="#63b8ff" d="M326.41,-129.89C314.12,-115.52 294.32,-87.28 308.88,-68 326.18,-45.08 405.75,-29.4 452.78,-21.96"/>
<polygon fill="#63b8ff" stroke="#63b8ff" points="453.06,-25.3 462.41,-20.33 452,-18.38 453.06,-25.3"/>
</a>
</g>
</g>
<!-- Node9&#45;&gt;Node7 -->
<g id="edge12_Node000009_Node000007" class="edge">
<title>Node9&#45;&gt;Node7</title>
<g id="a_edge12_Node000009_Node000007"><a xlink:title=" ">
<path fill="none" stroke="#63b8ff" d="M362.93,-129.55C370.02,-127.45 377.67,-125.42 384.88,-124 544.36,-92.5 592.33,-131.82 748.88,-88 795.03,-75.08 844.41,-48.5 872.86,-31.77"/>
<polygon fill="#63b8ff" stroke="#63b8ff" points="874.22,-34.44 881.02,-26.31 870.64,-28.43 874.22,-34.44"/>
</a>
</g>
</g>
<!-- Node10 -->
<g id="Node000010" class="node">
<title>Node10</title>
<g id="a_Node000010"><a xlink:href="a00284.html" target="_top" xlink:title="This is the generated driver types header file for the ADC driver.">
<polygon fill="white" stroke="#666666" points="183.5,-26 114.25,-26 114.25,-6 183.5,-6 183.5,-26"/>
<text text-anchor="middle" x="148.88" y="-12.5" font-family="Helvetica,sans-Serif" font-size="10.00">adc_types.h</text>
</a>
</g>
</g>
<!-- Node9&#45;&gt;Node10 -->
<g id="edge14_Node000009_Node000010" class="edge">
<title>Node9&#45;&gt;Node10</title>
<g id="a_edge14_Node000009_Node000010"><a xlink:title=" ">
<path fill="none" stroke="#63b8ff" d="M304.28,-129.51C297.89,-127.62 291.18,-125.69 284.88,-124 217.82,-106.02 175.94,-142.45 132.88,-88 121.04,-73.04 128.73,-51.04 137.02,-35.5"/>
<polygon fill="#63b8ff" stroke="#63b8ff" points="140.34,-37.76 142.37,-27.36 134.3,-34.23 140.34,-37.76"/>
</a>
</g>
</g>
<!-- Node11 -->
<g id="Node000011" class="node">
<title>Node11</title>
<g id="a_Node000011"><a xlink:href="a00281_source.html" target="_top" xlink:title=" ">
<polygon fill="white" stroke="#666666" points="223.88,-88 141.88,-88 141.88,-68 223.88,-68 223.88,-88"/>
<text text-anchor="middle" x="182.88" y="-74.5" font-family="Helvetica,sans-Serif" font-size="10.00">adc_interface.h</text>
</a>
</g>
</g>
<!-- Node9&#45;&gt;Node11 -->
<g id="edge15_Node000009_Node000011" class="edge">
<title>Node9&#45;&gt;Node11</title>
<g id="a_edge15_Node000009_Node000011"><a xlink:title=" ">
<path fill="none" stroke="#63b8ff" d="M311.12,-129.62C285.77,-119.62 245.37,-103.67 216.69,-92.35"/>
<polygon fill="#63b8ff" stroke="#63b8ff" points="218.3,-88.82 207.71,-88.41 215.73,-95.34 218.3,-88.82"/>
</a>
</g>
</g>
<!-- Node11&#45;&gt;Node4 -->
<g id="edge16_Node000011_Node000004" class="edge">
<title>Node11&#45;&gt;Node4</title>
<g id="a_edge16_Node000011_Node000004"><a xlink:title=" ">
<path fill="none" stroke="#63b8ff" d="M224.33,-68.85C284.79,-56.95 396.14,-35.05 452.78,-23.9"/>
<polygon fill="#63b8ff" stroke="#63b8ff" points="453.22,-27.19 462.35,-21.82 451.87,-20.32 453.22,-27.19"/>
</a>
</g>
</g>
<!-- Node11&#45;&gt;Node7 -->
<g id="edge17_Node000011_Node000007" class="edge">
<title>Node11&#45;&gt;Node7</title>
<g id="a_edge17_Node000011_Node000007"><a xlink:title=" ">
<path fill="none" stroke="#63b8ff" d="M224.3,-74.02C248.88,-72.26 280.65,-69.99 308.88,-68 538.64,-51.79 597.76,-63.88 825.88,-32 836.43,-30.52 847.77,-28.39 858.21,-26.18"/>
<polygon fill="#63b8ff" stroke="#63b8ff" points="858.68,-29.44 867.7,-23.89 857.19,-22.61 858.68,-29.44"/>
</a>
</g>
</g>
<!-- Node11&#45;&gt;Node10 -->
<g id="edge18_Node000011_Node000010" class="edge">
<title>Node11&#45;&gt;Node10</title>
<g id="a_edge18_Node000011_Node000010"><a xlink:title=" ">
<path fill="none" stroke="#63b8ff" d="M177.56,-67.62C172.69,-59.03 165.35,-46.07 159.31,-35.41"/>
<polygon fill="#63b8ff" stroke="#63b8ff" points="162.01,-34.09 154.04,-27.11 155.92,-37.54 162.01,-34.09"/>
</a>
</g>
</g>
<!-- Node12 -->
<g id="Node000012" class="node">
<title>Node12</title>
<g id="a_Node000012"><a xlink:href="a00778_source.html" target="_top" xlink:title=" ">
<polygon fill="white" stroke="#666666" points="389.62,-32 294.12,-32 294.12,0 389.62,0 389.62,-32"/>
<text text-anchor="start" x="302.12" y="-18.5" font-family="Helvetica,sans-Serif" font-size="10.00">../system/interrupt</text>
<text text-anchor="middle" x="341.88" y="-6.5" font-family="Helvetica,sans-Serif" font-size="10.00">_types.h</text>
</a>
</g>
</g>
<!-- Node11&#45;&gt;Node12 -->
<g id="edge19_Node000011_Node000012" class="edge">
<title>Node11&#45;&gt;Node12</title>
<g id="a_edge19_Node000011_Node000012"><a xlink:title=" ">
<path fill="none" stroke="#63b8ff" d="M207.72,-67.62C229.89,-59.26 263.05,-46.75 290.85,-36.25"/>
<polygon fill="#63b8ff" stroke="#63b8ff" points="291.7,-39.3 299.83,-32.49 289.23,-32.75 291.7,-39.3"/>
</a>
</g>
</g>
<!-- Node13&#45;&gt;Node7 -->
<g id="edge22_Node000013_Node000007" class="edge">
<title>Node13&#45;&gt;Node7</title>
<g id="a_edge22_Node000013_Node000007"><a xlink:title=" ">
<path fill="none" stroke="#63b8ff" d="M998.12,-130.3C1041.07,-119.81 1096.58,-99.54 1072.88,-68 1056.42,-46.1 982.47,-30.59 935.82,-22.78"/>
<polygon fill="#63b8ff" stroke="#63b8ff" points="936.6,-19.2 926.17,-21.05 935.48,-26.11 936.6,-19.2"/>
</a>
</g>
</g>
<!-- Node14 -->
<g id="Node000014" class="node">
<title>Node14</title>
<g id="a_Node000014"><a xlink:title=" ">
<polygon fill="#e0e0e0" stroke="#999999" points="700.12,-26 649.62,-26 649.62,-6 700.12,-6 700.12,-26"/>
<text text-anchor="middle" x="674.88" y="-12.5" font-family="Helvetica,sans-Serif" font-size="10.00">stddef.h</text>
</a>
</g>
</g>
<!-- Node13&#45;&gt;Node14 -->
<g id="edge21_Node000013_Node000014" class="edge">
<title>Node13&#45;&gt;Node14</title>
<g id="a_edge21_Node000013_Node000014"><a xlink:title=" ">
<path fill="none" stroke="#63b8ff" d="M953.78,-129.99C953.1,-114.72 949.36,-83.87 930.88,-68 855.37,-3.17 805.43,-59.81 709.88,-32 708.13,-31.49 706.35,-30.92 704.58,-30.3"/>
<polygon fill="#63b8ff" stroke="#63b8ff" points="706.15,-26.77 695.56,-26.43 703.62,-33.3 706.15,-26.77"/>
</a>
</g>
</g>
<!-- Node15 -->
<g id="Node000015" class="node">
<title>Node15</title>
<g id="a_Node000015"><a xlink:href="a00748_source.html" target="_top" xlink:title=" ">
<polygon fill="white" stroke="#666666" points="1063.38,-88 978.38,-88 978.38,-68 1063.38,-68 1063.38,-88"/>
<text text-anchor="middle" x="1020.88" y="-74.5" font-family="Helvetica,sans-Serif" font-size="10.00">cmp_interface.h</text>
</a>
</g>
</g>
<!-- Node13&#45;&gt;Node15 -->
<g id="edge23_Node000013_Node000015" class="edge">
<title>Node13&#45;&gt;Node15</title>
<g id="a_edge23_Node000013_Node000015"><a xlink:title=" ">
<path fill="none" stroke="#63b8ff" d="M964.34,-129.62C974.63,-120.41 990.53,-106.17 1002.85,-95.14"/>
<polygon fill="#63b8ff" stroke="#63b8ff" points="1004.58,-98.39 1009.7,-89.11 999.91,-93.18 1004.58,-98.39"/>
</a>
</g>
</g>
<!-- Node15&#45;&gt;Node7 -->
<g id="edge24_Node000015_Node000007" class="edge">
<title>Node15&#45;&gt;Node7</title>
<g id="a_edge24_Node000015_Node000007"><a xlink:title=" ">
<path fill="none" stroke="#63b8ff" d="M1001.5,-67.62C981.21,-57.81 949.11,-42.27 925.81,-31"/>
<polygon fill="#63b8ff" stroke="#63b8ff" points="927.64,-27.51 917.11,-26.31 924.59,-33.82 927.64,-27.51"/>
</a>
</g>
</g>
<!-- Node15&#45;&gt;Node14 -->
<g id="edge25_Node000015_Node000014" class="edge">
<title>Node15&#45;&gt;Node14</title>
<g id="a_edge25_Node000015_Node000014"><a xlink:title=" ">
<path fill="none" stroke="#63b8ff" d="M977.94,-70.15C973.19,-69.41 968.43,-68.68 963.88,-68 851.12,-51.11 819.67,-62.72 709.88,-32 707.92,-31.45 705.92,-30.82 703.93,-30.13"/>
<polygon fill="#63b8ff" stroke="#63b8ff" points="705.76,-26.7 695.17,-26.34 703.23,-33.22 705.76,-26.7"/>
</a>
</g>
</g>
<!-- Node16&#45;&gt;Node4 -->
<g id="edge28_Node000016_Node000004" class="edge">
<title>Node16&#45;&gt;Node4</title>
<g id="a_edge28_Node000016_Node000004"><a xlink:title=" ">
<path fill="none" stroke="#63b8ff" d="M871.6,-73.29C801.4,-62.99 603.94,-34.03 523.07,-22.16"/>
<polygon fill="#63b8ff" stroke="#63b8ff" points="523.87,-18.6 513.46,-20.61 522.85,-25.52 523.87,-18.6"/>
</a>
</g>
</g>
<!-- Node16&#45;&gt;Node7 -->
<g id="edge27_Node000016_Node000007" class="edge">
<title>Node16&#45;&gt;Node7</title>
<g id="a_edge27_Node000016_Node000007"><a xlink:title=" ">
<path fill="none" stroke="#63b8ff" d="M896.88,-67.62C896.88,-59.48 896.88,-47.39 896.88,-37.07"/>
<polygon fill="#63b8ff" stroke="#63b8ff" points="900.38,-37.11 896.88,-27.11 893.38,-37.11 900.38,-37.11"/>
</a>
</g>
</g>
<!-- Node17&#45;&gt;Node3 -->
<g id="edge30_Node000017_Node000003" class="edge">
<title>Node17&#45;&gt;Node3</title>
<g id="a_edge30_Node000017_Node000003"><a xlink:title=" ">
<path fill="none" stroke="#63b8ff" d="M632,-130.08C557.24,-117.23 421.74,-93.93 363.14,-83.86"/>
<polygon fill="#63b8ff" stroke="#63b8ff" points="363.93,-80.27 353.48,-82.03 362.75,-87.17 363.93,-80.27"/>
</a>
</g>
</g>
<!-- Node17&#45;&gt;Node4 -->
<g id="edge31_Node000017_Node000004" class="edge">
<title>Node17&#45;&gt;Node4</title>
<g id="a_edge31_Node000017_Node000004"><a xlink:title=" ">
<path fill="none" stroke="#63b8ff" d="M632.09,-126.38C605.35,-118.24 573.12,-105.8 547.88,-88 527.56,-73.68 509.97,-50.89 499.18,-35"/>
<polygon fill="#63b8ff" stroke="#63b8ff" points="501.78,-33.59 493.38,-27.14 495.93,-37.43 501.78,-33.59"/>
</a>
</g>
</g>
<!-- Node17&#45;&gt;Node7 -->
<g id="edge32_Node000017_Node000007" class="edge">
<title>Node17&#45;&gt;Node7</title>
<g id="a_edge32_Node000017_Node000007"><a xlink:title=" ">
<path fill="none" stroke="#63b8ff" d="M735.77,-124.76C762.09,-116.26 793.89,-104 819.88,-88 844.18,-73.04 867.62,-49.74 882.12,-33.95"/>
<polygon fill="#63b8ff" stroke="#63b8ff" points="884.14,-36.83 888.21,-27.05 878.93,-32.15 884.14,-36.83"/>
</a>
</g>
</g>
<!-- Node18 -->
<g id="Node000018" class="node">
<title>Node18</title>
<g id="a_Node000018"><a xlink:href="a00296.html" target="_top" xlink:title="This is the generated driver types header file for the MAIN_CORE driver.">
<polygon fill="white" stroke="#666666" points="817.12,-26 718.62,-26 718.62,-6 817.12,-6 817.12,-26"/>
<text text-anchor="middle" x="767.88" y="-12.5" font-family="Helvetica,sans-Serif" font-size="10.00">main_core_types.h</text>
</a>
</g>
</g>
<!-- Node17&#45;&gt;Node18 -->
<g id="edge33_Node000017_Node000018" class="edge">
<title>Node17&#45;&gt;Node18</title>
<g id="a_edge33_Node000017_Node000018"><a xlink:title=" ">
<path fill="none" stroke="#63b8ff" d="M710.73,-123.71C724.02,-114.87 739.23,-102.6 748.88,-88 759.08,-72.54 763.82,-51.78 766.01,-36.7"/>
<polygon fill="#63b8ff" stroke="#63b8ff" points="769.58,-37.38 767.28,-27.04 762.63,-36.56 769.58,-37.38"/>
</a>
</g>
</g>
<!-- Node19 -->
<g id="Node000019" class="node">
<title>Node19</title>
<g id="a_Node000019"><a xlink:href="a00293_source.html" target="_top" xlink:title=" ">
<polygon fill="white" stroke="#666666" points="739.5,-88 628.25,-88 628.25,-68 739.5,-68 739.5,-88"/>
<text text-anchor="middle" x="683.88" y="-74.5" font-family="Helvetica,sans-Serif" font-size="10.00">main_core_interface.h</text>
</a>
</g>
</g>
<!-- Node17&#45;&gt;Node19 -->
<g id="edge34_Node000017_Node000019" class="edge">
<title>Node17&#45;&gt;Node19</title>
<g id="a_edge34_Node000017_Node000019"><a xlink:title=" ">
<path fill="none" stroke="#63b8ff" d="M683.88,-123.55C683.88,-116.17 683.88,-107.24 683.88,-99.32"/>
<polygon fill="#63b8ff" stroke="#63b8ff" points="687.38,-99.41 683.88,-89.41 680.38,-99.41 687.38,-99.41"/>
</a>
</g>
</g>
<!-- Node19&#45;&gt;Node4 -->
<g id="edge36_Node000019_Node000004" class="edge">
<title>Node19&#45;&gt;Node4</title>
<g id="a_edge36_Node000019_Node000004"><a xlink:title=" ">
<path fill="none" stroke="#63b8ff" d="M653.25,-67.62C617.87,-56.8 559.8,-39.02 522.72,-27.67"/>
<polygon fill="#63b8ff" stroke="#63b8ff" points="523.99,-24.09 513.4,-24.51 521.94,-30.78 523.99,-24.09"/>
</a>
</g>
</g>
<!-- Node19&#45;&gt;Node7 -->
<g id="edge37_Node000019_Node000007" class="edge">
<title>Node19&#45;&gt;Node7</title>
<g id="a_edge37_Node000019_Node000007"><a xlink:title=" ">
<path fill="none" stroke="#63b8ff" d="M717.16,-67.62C755.31,-56.88 817.77,-39.28 858.09,-27.92"/>
<polygon fill="#63b8ff" stroke="#63b8ff" points="858.91,-31.05 867.59,-24.97 857.02,-24.31 858.91,-31.05"/>
</a>
</g>
</g>
<!-- Node19&#45;&gt;Node14 -->
<g id="edge35_Node000019_Node000014" class="edge">
<title>Node19&#45;&gt;Node14</title>
<g id="a_edge35_Node000019_Node000014"><a xlink:title=" ">
<path fill="none" stroke="#63b8ff" d="M682.47,-67.62C681.23,-59.39 679.39,-47.13 677.84,-36.74"/>
<polygon fill="#63b8ff" stroke="#63b8ff" points="681.19,-36.48 676.24,-27.11 674.26,-37.52 681.19,-36.48"/>
</a>
</g>
</g>
<!-- Node19&#45;&gt;Node18 -->
<g id="edge38_Node000019_Node000018" class="edge">
<title>Node19&#45;&gt;Node18</title>
<g id="a_edge38_Node000019_Node000018"><a xlink:title=" ">
<path fill="none" stroke="#63b8ff" d="M697,-67.62C710.07,-58.29 730.37,-43.79 745.9,-32.7"/>
<polygon fill="#63b8ff" stroke="#63b8ff" points="747.74,-34.97 753.84,-26.31 743.67,-29.27 747.74,-34.97"/>
</a>
</g>
</g>
<!-- Node20&#45;&gt;Node3 -->
<g id="edge40_Node000020_Node000003" class="edge">
<title>Node20&#45;&gt;Node3</title>
<g id="a_edge40_Node000020_Node000003"><a xlink:title=" ">
<path fill="none" stroke="#63b8ff" d="M1126.31,-129.55C1116.46,-127.39 1105.82,-125.34 1095.88,-124 788.48,-82.45 707.65,-117.63 398.88,-88 387.19,-86.88 374.36,-85.17 363.28,-83.54"/>
<polygon fill="#63b8ff" stroke="#63b8ff" points="363.89,-79.94 353.48,-81.9 362.84,-86.86 363.89,-79.94"/>
</a>
</g>
</g>
<!-- Node20&#45;&gt;Node4 -->
<g id="edge41_Node000020_Node000004" class="edge">
<title>Node20&#45;&gt;Node4</title>
<g id="a_edge41_Node000020_Node000004"><a xlink:title=" ">
<path fill="none" stroke="#63b8ff" d="M1125.57,-129.55C1115.93,-127.45 1105.56,-125.43 1095.88,-124 885.54,-93.02 822.84,-147.98 618.88,-88 577.69,-75.89 534.84,-49.64 509.8,-32.67"/>
<polygon fill="#63b8ff" stroke="#63b8ff" points="512.03,-29.27 501.82,-26.46 508.05,-35.03 512.03,-29.27"/>
</a>
</g>
</g>
<!-- Node20&#45;&gt;Node7 -->
<g id="edge42_Node000020_Node000007" class="edge">
<title>Node20&#45;&gt;Node7</title>
<g id="a_edge42_Node000020_Node000007"><a xlink:title=" ">
<path fill="none" stroke="#63b8ff" d="M1158.72,-129.52C1149.84,-114.13 1130.15,-83.81 1104.88,-68 1052.24,-35.08 979.79,-23.41 935.75,-19.27"/>
<polygon fill="#63b8ff" stroke="#63b8ff" points="936.19,-15.71 925.93,-18.35 935.6,-22.68 936.19,-15.71"/>
</a>
</g>
</g>
<!-- Node21 -->
<g id="Node000021" class="node">
<title>Node21</title>
<g id="a_Node000021"><a xlink:title=" ">
<polygon fill="#e0e0e0" stroke="#999999" points="1401.62,-88 1354.12,-88 1354.12,-68 1401.62,-68 1401.62,-88"/>
<text text-anchor="middle" x="1377.88" y="-74.5" font-family="Helvetica,sans-Serif" font-size="10.00">stdlib.h</text>
</a>
</g>
</g>
<!-- Node20&#45;&gt;Node21 -->
<g id="edge43_Node000020_Node000021" class="edge">
<title>Node20&#45;&gt;Node21</title>
<g id="a_edge43_Node000020_Node000021"><a xlink:title=" ">
<path fill="none" stroke="#63b8ff" d="M1197.31,-129.62C1237.05,-118.48 1303.01,-99.99 1343.26,-88.71"/>
<polygon fill="#63b8ff" stroke="#63b8ff" points="1343.95,-91.86 1352.64,-85.8 1342.07,-85.12 1343.95,-91.86"/>
</a>
</g>
</g>
<!-- Node22 -->
<g id="Node000022" class="node">
<title>Node22</title>
<g id="a_Node000022"><a xlink:href="a00311.html" target="_top" xlink:title="This is the generated driver types header file for the PWM driver.">
<polygon fill="white" stroke="#666666" points="1330.62,-26 1241.12,-26 1241.12,-6 1330.62,-6 1330.62,-26"/>
<text text-anchor="middle" x="1285.88" y="-12.5" font-family="Helvetica,sans-Serif" font-size="10.00">pwm_hs_types.h</text>
</a>
</g>
</g>
<!-- Node20&#45;&gt;Node22 -->
<g id="edge44_Node000020_Node000022" class="edge">
<title>Node20&#45;&gt;Node22</title>
<g id="a_edge44_Node000020_Node000022"><a xlink:title=" ">
<path fill="none" stroke="#63b8ff" d="M1196.46,-129.54C1236.58,-117.56 1300.27,-97.37 1306.88,-88 1318.05,-72.14 1308.75,-50.3 1299.23,-35.05"/>
<polygon fill="#63b8ff" stroke="#63b8ff" points="1301.67,-33.41 1293.16,-27.1 1295.88,-37.34 1301.67,-33.41"/>
</a>
</g>
</g>
<!-- Node23 -->
<g id="Node000023" class="node">
<title>Node23</title>
<g id="a_Node000023"><a xlink:href="a00308_source.html" target="_top" xlink:title=" ">
<polygon fill="white" stroke="#666666" points="1298,-88 1195.75,-88 1195.75,-68 1298,-68 1298,-88"/>
<text text-anchor="middle" x="1246.88" y="-74.5" font-family="Helvetica,sans-Serif" font-size="10.00">pwm_hs_interface.h</text>
</a>
</g>
</g>
<!-- Node20&#45;&gt;Node23 -->
<g id="edge45_Node000020_Node000023" class="edge">
<title>Node20&#45;&gt;Node23</title>
<g id="a_edge45_Node000020_Node000023"><a xlink:title=" ">
<path fill="none" stroke="#63b8ff" d="M1176.84,-129.62C1189.76,-120.29 1209.81,-105.79 1225.16,-94.7"/>
<polygon fill="#63b8ff" stroke="#63b8ff" points="1226.94,-97 1233,-88.31 1222.84,-91.33 1226.94,-97"/>
</a>
</g>
</g>
<!-- Node23&#45;&gt;Node4 -->
<g id="edge47_Node000023_Node000004" class="edge">
<title>Node23&#45;&gt;Node4</title>
<g id="a_edge47_Node000023_Node000004"><a xlink:title=" ">
<path fill="none" stroke="#63b8ff" d="M1195.36,-73.59C1090.79,-66.57 846.1,-49.68 640.88,-32 600.38,-28.51 553.92,-23.87 522.92,-20.67"/>
<polygon fill="#63b8ff" stroke="#63b8ff" points="523.54,-17.12 513.24,-19.57 522.82,-24.08 523.54,-17.12"/>
</a>
</g>
</g>
<!-- Node23&#45;&gt;Node7 -->
<g id="edge46_Node000023_Node000007" class="edge">
<title>Node23&#45;&gt;Node7</title>
<g id="a_edge46_Node000023_Node000007"><a xlink:title=" ">
<path fill="none" stroke="#63b8ff" d="M1195.61,-68.21C1125.03,-56.11 999.49,-34.59 935.99,-23.7"/>
<polygon fill="#63b8ff" stroke="#63b8ff" points="936.69,-20.1 926.24,-21.86 935.51,-27 936.69,-20.1"/>
</a>
</g>
</g>
<!-- Node23&#45;&gt;Node22 -->
<g id="edge48_Node000023_Node000022" class="edge">
<title>Node23&#45;&gt;Node22</title>
<g id="a_edge48_Node000023_Node000022"><a xlink:title=" ">
<path fill="none" stroke="#63b8ff" d="M1252.97,-67.62C1258.61,-58.94 1267.16,-45.8 1274.12,-35.08"/>
<polygon fill="#63b8ff" stroke="#63b8ff" points="1277.44,-37.4 1279.95,-27.11 1271.57,-33.59 1277.44,-37.4"/>
</a>
</g>
</g>
<!-- Node24&#45;&gt;Node3 -->
<g id="edge52_Node000024_Node000003" class="edge">
<title>Node24&#45;&gt;Node3</title>
<g id="a_edge52_Node000024_Node000003"><a xlink:title=" ">
<path fill="none" stroke="#63b8ff" d="M480,-129.62C448.08,-118.49 395.11,-100.01 362.75,-88.73"/>
<polygon fill="#63b8ff" stroke="#63b8ff" points="364.23,-85.18 353.63,-85.2 361.92,-91.79 364.23,-85.18"/>
</a>
</g>
</g>
<!-- Node24&#45;&gt;Node4 -->
<g id="edge51_Node000024_Node000004" class="edge">
<title>Node24&#45;&gt;Node4</title>
<g id="a_edge51_Node000024_Node000004"><a xlink:title=" ">
<path fill="none" stroke="#63b8ff" d="M478.58,-129.54C449.74,-119.25 407.98,-102.36 398.88,-88 381.79,-61.03 421.69,-39.83 453.47,-27.85"/>
<polygon fill="#63b8ff" stroke="#63b8ff" points="454.19,-30.96 462.42,-24.29 451.83,-24.37 454.19,-30.96"/>
</a>
</g>
</g>
<!-- Node24&#45;&gt;Node14 -->
<g id="edge50_Node000024_Node000014" class="edge">
<title>Node24&#45;&gt;Node14</title>
<g id="a_edge50_Node000024_Node000014"><a xlink:title=" ">
<path fill="none" stroke="#63b8ff" d="M519.78,-129.63C548.56,-108.73 618.22,-58.14 653.56,-32.48"/>
<polygon fill="#63b8ff" stroke="#63b8ff" points="655.12,-34.94 661.16,-26.24 651.01,-29.28 655.12,-34.94"/>
</a>
</g>
</g>
<!-- Node25 -->
<g id="Node000025" class="node">
<title>Node25</title>
<g id="a_Node000025"><a xlink:href="a00880_source.html" target="_top" xlink:title=" ">
<polygon fill="white" stroke="#666666" points="495.88,-88 407.88,-88 407.88,-68 495.88,-68 495.88,-88"/>
<text text-anchor="middle" x="451.88" y="-74.5" font-family="Helvetica,sans-Serif" font-size="10.00">timer_interface.h</text>
</a>
</g>
</g>
<!-- Node24&#45;&gt;Node25 -->
<g id="edge53_Node000024_Node000025" class="edge">
<title>Node24&#45;&gt;Node25</title>
<g id="a_edge53_Node000024_Node000025"><a xlink:title=" ">
<path fill="none" stroke="#63b8ff" d="M498.28,-129.62C490.08,-120.68 477.53,-106.99 467.55,-96.1"/>
<polygon fill="#63b8ff" stroke="#63b8ff" points="470.57,-94.12 461.23,-89.11 465.41,-98.85 470.57,-94.12"/>
</a>
</g>
</g>
<!-- Node25&#45;&gt;Node4 -->
<g id="edge55_Node000025_Node000004" class="edge">
<title>Node25&#45;&gt;Node4</title>
<g id="a_edge55_Node000025_Node000004"><a xlink:title=" ">
<path fill="none" stroke="#63b8ff" d="M457.5,-67.62C462.66,-59.03 470.44,-46.07 476.83,-35.41"/>
<polygon fill="#63b8ff" stroke="#63b8ff" points="480.26,-37.49 482.41,-27.11 474.26,-33.89 480.26,-37.49"/>
</a>
</g>
</g>
<!-- Node25&#45;&gt;Node7 -->
<g id="edge56_Node000025_Node000007" class="edge">
<title>Node25&#45;&gt;Node7</title>
<g id="a_edge56_Node000025_Node000007"><a xlink:title=" ">
<path fill="none" stroke="#63b8ff" d="M496.1,-72.96C566.27,-66.26 707.32,-51.62 825.88,-32 836.39,-30.26 847.71,-28.03 858.16,-25.83"/>
<polygon fill="#63b8ff" stroke="#63b8ff" points="858.62,-29.09 867.65,-23.56 857.14,-22.25 858.62,-29.09"/>
</a>
</g>
</g>
<!-- Node25&#45;&gt;Node12 -->
<g id="edge57_Node000025_Node000012" class="edge">
<title>Node25&#45;&gt;Node12</title>
<g id="a_edge57_Node000025_Node000012"><a xlink:title=" ">
<path fill="none" stroke="#63b8ff" d="M434.69,-67.62C419.97,-59.6 398.25,-47.75 379.53,-37.54"/>
<polygon fill="#63b8ff" stroke="#63b8ff" points="381.51,-34.09 371.06,-32.37 378.16,-40.23 381.51,-34.09"/>
</a>
</g>
</g>
<!-- Node25&#45;&gt;Node14 -->
<g id="edge54_Node000025_Node000014" class="edge">
<title>Node25&#45;&gt;Node14</title>
<g id="a_edge54_Node000025_Node000014"><a xlink:title=" ">
<path fill="none" stroke="#63b8ff" d="M486.72,-67.62C528.1,-56.49 596.78,-38.01 638.73,-26.73"/>
<polygon fill="#63b8ff" stroke="#63b8ff" points="639.55,-29.86 648.29,-23.88 637.73,-23.1 639.55,-29.86"/>
</a>
</g>
</g>
</g>
</svg>
