<?xml version="1.0" encoding="UTF-8" standalone="no"?>
<!DOCTYPE svg PUBLIC "-//W3C//DTD SVG 1.1//EN"
 "http://www.w3.org/Graphics/SVG/1.1/DTD/svg11.dtd">
<!-- Generated by graphviz version 8.1.0 (20230707.0739)
 -->
<!-- Title: D:/Firmware/MCU16ASMPS_TestEnvironment/_deployment/dspic33ch&#45;power&#45;totem&#45;pole&#45;demonstration&#45;application&#45;single&#45;phase/dspic33ch_totem_pole_single_phase_secondary_IL.X/mcc_generated_files/timer/src/tmr1.c Pages: 1 -->
<svg width="336pt" height="280pt"
 viewBox="0.00 0.00 336.12 280.00" xmlns="http://www.w3.org/2000/svg" xmlns:xlink="http://www.w3.org/1999/xlink">
<g id="graph0" class="graph" transform="scale(1 1) rotate(0) translate(4 276)">
<title>D:/Firmware/MCU16ASMPS_TestEnvironment/_deployment/dspic33ch&#45;power&#45;totem&#45;pole&#45;demonstration&#45;application&#45;single&#45;phase/dspic33ch_totem_pole_single_phase_secondary_IL.X/mcc_generated_files/timer/src/tmr1.c</title>
<!-- Node1 -->
<g id="Node000001" class="node">
<title>Node1</title>
<g id="a_Node000001"><a xlink:title="This is the generated driver source file for TMR1 driver.">
<polygon fill="#999999" stroke="#666666" points="286,-272 97.5,-272 97.5,-180 286,-180 286,-272"/>
<text text-anchor="start" x="105.5" y="-258.5" font-family="Helvetica,sans-Serif" font-size="10.00">D:/Firmware/MCU16ASMPS</text>
<text text-anchor="start" x="105.5" y="-246.5" font-family="Helvetica,sans-Serif" font-size="10.00">_TestEnvironment/_deployment</text>
<text text-anchor="start" x="105.5" y="-234.5" font-family="Helvetica,sans-Serif" font-size="10.00">/dspic33ch&#45;power&#45;totem&#45;pole</text>
<text text-anchor="start" x="105.5" y="-222.5" font-family="Helvetica,sans-Serif" font-size="10.00">&#45;demonstration&#45;application&#45;single</text>
<text text-anchor="start" x="105.5" y="-210.5" font-family="Helvetica,sans-Serif" font-size="10.00">&#45;phase/dspic33ch_totem_pole_single</text>
<text text-anchor="start" x="105.5" y="-198.5" font-family="Helvetica,sans-Serif" font-size="10.00">_phase_secondary_IL.X/mcc_generated</text>
<text text-anchor="middle" x="191.75" y="-186.5" font-family="Helvetica,sans-Serif" font-size="10.00">_files/timer/src/tmr1.c</text>
</a>
</g>
</g>
<!-- Node2 -->
<g id="Node000002" class="node">
<title>Node2</title>
<g id="a_Node000002"><a xlink:href="a00886.html" target="_top" xlink:title="This is the generated driver header file for the TMR1 driver.">
<polygon fill="white" stroke="#666666" points="254.12,-144 201.38,-144 201.38,-124 254.12,-124 254.12,-144"/>
<text text-anchor="middle" x="227.75" y="-130.5" font-family="Helvetica,sans-Serif" font-size="10.00">../tmr1.h</text>
</a>
</g>
</g>
<!-- Node1&#45;&gt;Node2 -->
<g id="edge1_Node000001_Node000002" class="edge">
<title>Node1&#45;&gt;Node2</title>
<g id="a_edge1_Node000001_Node000002"><a xlink:title=" ">
<path fill="none" stroke="#63b8ff" d="M209.86,-179.74C213.44,-170.78 217.01,-161.84 220.02,-154.34"/>
<polygon fill="#63b8ff" stroke="#63b8ff" points="223.6,-155.81 224.06,-145.23 217.1,-153.21 223.6,-155.81"/>
</a>
</g>
</g>
<!-- Node6 -->
<g id="Node000006" class="node">
<title>Node6</title>
<g id="a_Node000006"><a xlink:href="a00880_source.html" target="_top" xlink:title=" ">
<polygon fill="white" stroke="#666666" points="199.75,-88 111.75,-88 111.75,-68 199.75,-68 199.75,-88"/>
<text text-anchor="middle" x="155.75" y="-74.5" font-family="Helvetica,sans-Serif" font-size="10.00">timer_interface.h</text>
</a>
</g>
</g>
<!-- Node1&#45;&gt;Node6 -->
<g id="edge10_Node000001_Node000006" class="edge">
<title>Node1&#45;&gt;Node6</title>
<g id="a_edge10_Node000001_Node000006"><a xlink:title=" ">
<path fill="none" stroke="#63b8ff" d="M180.56,-179.61C173.9,-152.59 165.78,-119.67 160.69,-99.02"/>
<polygon fill="#63b8ff" stroke="#63b8ff" points="163.86,-98.28 158.07,-89.41 157.07,-99.96 163.86,-98.28"/>
</a>
</g>
</g>
<!-- Node3 -->
<g id="Node000003" class="node">
<title>Node3</title>
<g id="a_Node000003"><a xlink:title=" ">
<polygon fill="#e0e0e0" stroke="#999999" points="238,-26 187.5,-26 187.5,-6 238,-6 238,-26"/>
<text text-anchor="middle" x="212.75" y="-12.5" font-family="Helvetica,sans-Serif" font-size="10.00">stddef.h</text>
</a>
</g>
</g>
<!-- Node2&#45;&gt;Node3 -->
<g id="edge2_Node000002_Node000003" class="edge">
<title>Node2&#45;&gt;Node3</title>
<g id="a_edge2_Node000002_Node000003"><a xlink:title=" ">
<path fill="none" stroke="#63b8ff" d="M226.52,-123.51C224.09,-104.72 218.63,-62.44 215.36,-37.16"/>
<polygon fill="#63b8ff" stroke="#63b8ff" points="218.71,-36.77 213.95,-27.3 211.76,-37.67 218.71,-36.77"/>
</a>
</g>
</g>
<!-- Node4 -->
<g id="Node000004" class="node">
<title>Node4</title>
<g id="a_Node000004"><a xlink:title=" ">
<polygon fill="#e0e0e0" stroke="#999999" points="303.88,-26 255.62,-26 255.62,-6 303.88,-6 303.88,-26"/>
<text text-anchor="middle" x="279.75" y="-12.5" font-family="Helvetica,sans-Serif" font-size="10.00">stdint.h</text>
</a>
</g>
</g>
<!-- Node2&#45;&gt;Node4 -->
<g id="edge3_Node000002_Node000004" class="edge">
<title>Node2&#45;&gt;Node4</title>
<g id="a_edge3_Node000002_Node000004"><a xlink:title=" ">
<path fill="none" stroke="#63b8ff" d="M232.01,-123.51C240.54,-104.46 259.9,-61.28 271.17,-36.14"/>
<polygon fill="#63b8ff" stroke="#63b8ff" points="274.68,-37.86 275.58,-27.3 268.3,-34.99 274.68,-37.86"/>
</a>
</g>
</g>
<!-- Node5 -->
<g id="Node000005" class="node">
<title>Node5</title>
<g id="a_Node000005"><a xlink:title=" ">
<polygon fill="#e0e0e0" stroke="#999999" points="328.12,-88 293.38,-88 293.38,-68 328.12,-68 328.12,-88"/>
<text text-anchor="middle" x="310.75" y="-74.5" font-family="Helvetica,sans-Serif" font-size="10.00">xc.h</text>
</a>
</g>
</g>
<!-- Node2&#45;&gt;Node5 -->
<g id="edge4_Node000002_Node000005" class="edge">
<title>Node2&#45;&gt;Node5</title>
<g id="a_edge4_Node000002_Node000005"><a xlink:title=" ">
<path fill="none" stroke="#63b8ff" d="M242.21,-123.59C254.63,-115.51 272.77,-103.71 287.27,-94.27"/>
<polygon fill="#63b8ff" stroke="#63b8ff" points="288.71,-96.87 295.18,-88.48 284.89,-91 288.71,-96.87"/>
</a>
</g>
</g>
<!-- Node2&#45;&gt;Node6 -->
<g id="edge5_Node000002_Node000006" class="edge">
<title>Node2&#45;&gt;Node6</title>
<g id="a_edge5_Node000002_Node000006"><a xlink:title=" ">
<path fill="none" stroke="#63b8ff" d="M215.21,-123.59C204.57,-115.62 189.1,-104.02 176.61,-94.64"/>
<polygon fill="#63b8ff" stroke="#63b8ff" points="179.25,-91.5 169.15,-88.3 175.05,-97.1 179.25,-91.5"/>
</a>
</g>
</g>
<!-- Node6&#45;&gt;Node3 -->
<g id="edge6_Node000006_Node000003" class="edge">
<title>Node6&#45;&gt;Node3</title>
<g id="a_edge6_Node000006_Node000003"><a xlink:title=" ">
<path fill="none" stroke="#63b8ff" d="M164.66,-67.62C173.24,-58.59 186.42,-44.72 196.81,-33.78"/>
<polygon fill="#63b8ff" stroke="#63b8ff" points="198.74,-36.77 203.09,-27.11 193.67,-31.95 198.74,-36.77"/>
</a>
</g>
</g>
<!-- Node6&#45;&gt;Node4 -->
<g id="edge7_Node000006_Node000004" class="edge">
<title>Node6&#45;&gt;Node4</title>
<g id="a_edge7_Node000006_Node000004"><a xlink:title=" ">
<path fill="none" stroke="#63b8ff" d="M175.12,-67.62C195.42,-57.81 227.52,-42.27 250.81,-31"/>
<polygon fill="#63b8ff" stroke="#63b8ff" points="252.03,-33.82 259.51,-26.31 248.98,-27.51 252.03,-33.82"/>
</a>
</g>
</g>
<!-- Node7 -->
<g id="Node000007" class="node">
<title>Node7</title>
<g id="a_Node000007"><a xlink:title=" ">
<polygon fill="#e0e0e0" stroke="#999999" points="169.62,-26 113.88,-26 113.88,-6 169.62,-6 169.62,-26"/>
<text text-anchor="middle" x="141.75" y="-12.5" font-family="Helvetica,sans-Serif" font-size="10.00">stdbool.h</text>
</a>
</g>
</g>
<!-- Node6&#45;&gt;Node7 -->
<g id="edge8_Node000006_Node000007" class="edge">
<title>Node6&#45;&gt;Node7</title>
<g id="a_edge8_Node000006_Node000007"><a xlink:title=" ">
<path fill="none" stroke="#63b8ff" d="M153.56,-67.62C151.64,-59.39 148.78,-47.13 146.36,-36.74"/>
<polygon fill="#63b8ff" stroke="#63b8ff" points="149.56,-36.06 143.88,-27.11 142.74,-37.65 149.56,-36.06"/>
</a>
</g>
</g>
<!-- Node8 -->
<g id="Node000008" class="node">
<title>Node8</title>
<g id="a_Node000008"><a xlink:href="a00778_source.html" target="_top" xlink:title=" ">
<polygon fill="white" stroke="#666666" points="95.5,-32 0,-32 0,0 95.5,0 95.5,-32"/>
<text text-anchor="start" x="8" y="-18.5" font-family="Helvetica,sans-Serif" font-size="10.00">../system/interrupt</text>
<text text-anchor="middle" x="47.75" y="-6.5" font-family="Helvetica,sans-Serif" font-size="10.00">_types.h</text>
</a>
</g>
</g>
<!-- Node6&#45;&gt;Node8 -->
<g id="edge9_Node000006_Node000008" class="edge">
<title>Node6&#45;&gt;Node8</title>
<g id="a_edge9_Node000006_Node000008"><a xlink:title=" ">
<path fill="none" stroke="#63b8ff" d="M138.88,-67.62C124.49,-59.63 103.3,-47.86 84.97,-37.68"/>
<polygon fill="#63b8ff" stroke="#63b8ff" points="86.86,-34.17 76.42,-32.37 83.46,-40.29 86.86,-34.17"/>
</a>
</g>
</g>
</g>
</svg>
