<?xml version="1.0" encoding="UTF-8" standalone="no"?>
<!DOCTYPE svg PUBLIC "-//W3C//DTD SVG 1.1//EN"
 "http://www.w3.org/Graphics/SVG/1.1/DTD/svg11.dtd">
<!-- Generated by graphviz version 2.44.1 (20200629.0846)
 -->
<!-- Title: C:/Users/M70027/Documents/Projects/tp&#45;deployment/dspic33ch&#45;power&#45;totem&#45;pole&#45;demonstration&#45;application&#45;single&#45;phase_v2/dspic33ch_totem_pole_single_phase_secondary_IL.X/sources/driver Pages: 1 -->
<svg width="414pt" height="196pt"
 viewBox="0.00 0.00 414.00 196.00" xmlns="http://www.w3.org/2000/svg" xmlns:xlink="http://www.w3.org/1999/xlink">
<g id="graph0" class="graph" transform="scale(1 1) rotate(0) translate(4 192)">
<title>C:/Users/M70027/Documents/Projects/tp&#45;deployment/dspic33ch&#45;power&#45;totem&#45;pole&#45;demonstration&#45;application&#45;single&#45;phase_v2/dspic33ch_totem_pole_single_phase_secondary_IL.X/sources/driver</title>
<g id="clust1" class="cluster">
<title>clusterdir_b2dcbd7cbc3863197e9343ceb8c5b5b7</title>
<g id="a_clust1"><a xlink:href="dir_b2dcbd7cbc3863197e9343ceb8c5b5b7.html" target="_top" xlink:title="sources">
<polygon fill="#edf0f7" stroke="#7f7f7f" stroke-dasharray="5,2" points="8,-8 8,-180 180,-180 180,-8 8,-8"/>
<text text-anchor="middle" x="94" y="-168" font-family="Helvetica,sans-Serif" font-size="10.00">sources</text>
</a>
</g>
</g>
<g id="clust2" class="cluster">
<title>clusterdir_8acb28649923e47299fc506f1c57dc8a</title>
<g id="a_clust2"><a xlink:href="dir_8acb28649923e47299fc506f1c57dc8a.html" target="_top">
<polygon fill="#edf0f7" stroke="#404040" stroke-width="2" points="16,-63 16,-153 172,-153 172,-63 16,-63"/>
</a>
</g>
</g>
<!-- dir_75ba71c53cd00069258be97a69d6b296 -->
<g id="node1" class="node">
<title>dir_75ba71c53cd00069258be97a69d6b296</title>
<g id="a_node1"><a xlink:href="dir_75ba71c53cd00069258be97a69d6b296.html" target="_top" xlink:title="devices">
<polygon fill="#a2b4d6" stroke="#404040" points="81.5,-35 32.5,-35 32.5,-16 81.5,-16 81.5,-35"/>
<text text-anchor="middle" x="57" y="-23" font-family="Helvetica,sans-Serif" font-size="10.00">devices</text>
</a>
</g>
</g>
<!-- dir_8acb28649923e47299fc506f1c57dc8a -->
<g id="node2" class="node">
<title>dir_8acb28649923e47299fc506f1c57dc8a</title>
<text text-anchor="middle" x="144" y="-133" font-family="Helvetica,sans-Serif" font-size="10.00">driver</text>
</g>
<!-- dir_ef56792fec4cf70a53cdd0e592e0eea9 -->
<g id="node3" class="node">
<title>dir_ef56792fec4cf70a53cdd0e592e0eea9</title>
<g id="a_node3"><a xlink:href="dir_ef56792fec4cf70a53cdd0e592e0eea9.html" target="_top" xlink:title="adc">
<polygon fill="#a2b4d6" stroke="#404040" points="56,-145 24,-145 24,-126 56,-126 56,-145"/>
<text text-anchor="middle" x="40" y="-133" font-family="Helvetica,sans-Serif" font-size="10.00">adc</text>
</a>
</g>
</g>
<!-- dir_ef56792fec4cf70a53cdd0e592e0eea9&#45;&gt;dir_75ba71c53cd00069258be97a69d6b296 -->
<g id="edge2" class="edge">
<title>dir_ef56792fec4cf70a53cdd0e592e0eea9&#45;&gt;dir_75ba71c53cd00069258be97a69d6b296</title>
<g id="a_edge2"><a xlink:href="dir_000001_000012.html" target="_top">
<path fill="none" stroke="#63b8ff" d="M41.39,-125.66C44.14,-108.17 50.34,-68.8 54.04,-45.27"/>
<polygon fill="#63b8ff" stroke="#63b8ff" points="57.54,-45.58 55.64,-35.16 50.62,-44.49 57.54,-45.58"/>
</a>
</g>
<g id="a_edge2&#45;headlabel"><a xlink:href="dir_000001_000012.html" target="_top" xlink:title="2">
<text text-anchor="middle" x="59.79" y="-47.07" font-family="Helvetica,sans-Serif" font-size="10.00" fill="#63b8ff">2</text>
</a>
</g>
</g>
<!-- dir_875b99cbdca8d2b6905ce62c17d98a88 -->
<g id="node5" class="node">
<title>dir_875b99cbdca8d2b6905ce62c17d98a88</title>
<g id="a_node5"><a xlink:href="dir_875b99cbdca8d2b6905ce62c17d98a88.html" target="_top" xlink:title="power_controller">
<polygon fill="#a2b4d6" stroke="#404040" points="163.5,-90 76.5,-90 76.5,-71 163.5,-71 163.5,-90"/>
<text text-anchor="middle" x="120" y="-78" font-family="Helvetica,sans-Serif" font-size="10.00">power_controller</text>
</a>
</g>
</g>
<!-- dir_ef56792fec4cf70a53cdd0e592e0eea9&#45;&gt;dir_875b99cbdca8d2b6905ce62c17d98a88 -->
<g id="edge3" class="edge">
<title>dir_ef56792fec4cf70a53cdd0e592e0eea9&#45;&gt;dir_875b99cbdca8d2b6905ce62c17d98a88</title>
<g id="a_edge3"><a xlink:href="dir_000001_000031.html" target="_top">
<path fill="none" stroke="#63b8ff" d="M52.85,-125.98C65.14,-117.84 83.91,-105.41 98.48,-95.76"/>
<polygon fill="#63b8ff" stroke="#63b8ff" points="100.51,-98.61 106.91,-90.17 96.64,-92.78 100.51,-98.61"/>
</a>
</g>
<g id="a_edge3&#45;headlabel"><a xlink:href="dir_000001_000031.html" target="_top" xlink:title="2">
<text text-anchor="middle" x="99.08" y="-100.46" font-family="Helvetica,sans-Serif" font-size="10.00" fill="#63b8ff">2</text>
</a>
</g>
</g>
<!-- dir_69b14e16e0eee9a46da4d54c5f132aa1 -->
<g id="node6" class="node">
<title>dir_69b14e16e0eee9a46da4d54c5f132aa1</title>
<g id="a_node6"><a xlink:href="dir_69b14e16e0eee9a46da4d54c5f132aa1.html" target="_top" xlink:title="mcc_generated_files">
<polygon fill="#edf0f7" stroke="red" stroke-dasharray="5,2" points="406,-35 300,-35 300,-16 406,-16 406,-35"/>
<text text-anchor="middle" x="353" y="-23" font-family="Helvetica,sans-Serif" font-size="10.00">mcc_generated_files</text>
</a>
</g>
</g>
<!-- dir_ef56792fec4cf70a53cdd0e592e0eea9&#45;&gt;dir_69b14e16e0eee9a46da4d54c5f132aa1 -->
<g id="edge1" class="edge">
<title>dir_ef56792fec4cf70a53cdd0e592e0eea9&#45;&gt;dir_69b14e16e0eee9a46da4d54c5f132aa1</title>
<g id="a_edge1"><a xlink:href="dir_000001_000028.html" target="_top">
<path fill="none" stroke="#63b8ff" d="M56.14,-129.01C59.08,-128 62.13,-126.97 65,-126 112.53,-109.92 124.55,-106.31 172,-90 223.53,-72.29 283.13,-51.28 319.43,-38.42"/>
<polygon fill="#63b8ff" stroke="#63b8ff" points="320.77,-41.66 329.03,-35.02 318.43,-35.06 320.77,-41.66"/>
</a>
</g>
<g id="a_edge1&#45;headlabel"><a xlink:href="dir_000001_000028.html" target="_top" xlink:title="1">
<text text-anchor="middle" x="318.33" y="-43.04" font-family="Helvetica,sans-Serif" font-size="10.00" fill="#63b8ff">1</text>
</a>
</g>
</g>
<!-- dir_9e6f81209bdb4471c0cef1d8b6cf0f09 -->
<g id="node4" class="node">
<title>dir_9e6f81209bdb4471c0cef1d8b6cf0f09</title>
<g id="a_node4"><a xlink:href="dir_9e6f81209bdb4471c0cef1d8b6cf0f09.html" target="_top" xlink:title="msi">
<polygon fill="#a2b4d6" stroke="#404040" points="106,-145 74,-145 74,-126 106,-126 106,-145"/>
<text text-anchor="middle" x="90" y="-133" font-family="Helvetica,sans-Serif" font-size="10.00">msi</text>
</a>
</g>
</g>
<!-- dir_9e6f81209bdb4471c0cef1d8b6cf0f09&#45;&gt;dir_75ba71c53cd00069258be97a69d6b296 -->
<g id="edge5" class="edge">
<title>dir_9e6f81209bdb4471c0cef1d8b6cf0f09&#45;&gt;dir_75ba71c53cd00069258be97a69d6b296</title>
<g id="a_edge5"><a xlink:href="dir_000030_000012.html" target="_top">
<path fill="none" stroke="#63b8ff" d="M84.55,-126C79.23,-117.3 71.33,-103.22 67,-90 62.22,-75.4 59.69,-58.14 58.37,-45.3"/>
<polygon fill="#63b8ff" stroke="#63b8ff" points="61.85,-44.99 57.5,-35.34 54.88,-45.6 61.85,-44.99"/>
</a>
</g>
<g id="a_edge5&#45;headlabel"><a xlink:href="dir_000030_000012.html" target="_top" xlink:title="1">
<text text-anchor="middle" x="65" y="-45.83" font-family="Helvetica,sans-Serif" font-size="10.00" fill="#63b8ff">1</text>
</a>
</g>
</g>
<!-- dir_9e6f81209bdb4471c0cef1d8b6cf0f09&#45;&gt;dir_69b14e16e0eee9a46da4d54c5f132aa1 -->
<g id="edge4" class="edge">
<title>dir_9e6f81209bdb4471c0cef1d8b6cf0f09&#45;&gt;dir_69b14e16e0eee9a46da4d54c5f132aa1</title>
<g id="a_edge4"><a xlink:href="dir_000030_000028.html" target="_top">
<path fill="none" stroke="#63b8ff" d="M106.07,-128.79C109.02,-127.81 112.09,-126.84 115,-126 181.72,-106.8 204.02,-119.21 267,-90 293.38,-77.76 319.69,-56.72 336.12,-42.23"/>
<polygon fill="#63b8ff" stroke="#63b8ff" points="338.69,-44.63 343.77,-35.33 334,-39.43 338.69,-44.63"/>
</a>
</g>
<g id="a_edge4&#45;headlabel"><a xlink:href="dir_000030_000028.html" target="_top" xlink:title="1">
<text text-anchor="middle" x="337.92" y="-46.65" font-family="Helvetica,sans-Serif" font-size="10.00" fill="#63b8ff">1</text>
</a>
</g>
</g>
<!-- dir_875b99cbdca8d2b6905ce62c17d98a88&#45;&gt;dir_75ba71c53cd00069258be97a69d6b296 -->
<g id="edge8" class="edge">
<title>dir_875b99cbdca8d2b6905ce62c17d98a88&#45;&gt;dir_75ba71c53cd00069258be97a69d6b296</title>
<g id="a_edge8"><a xlink:href="dir_000031_000012.html" target="_top">
<path fill="none" stroke="#63b8ff" d="M109.88,-70.98C100.56,-63.15 86.53,-51.34 75.26,-41.86"/>
<polygon fill="#63b8ff" stroke="#63b8ff" points="77.21,-38.93 67.31,-35.17 72.71,-44.29 77.21,-38.93"/>
</a>
</g>
<g id="a_edge8&#45;headlabel"><a xlink:href="dir_000031_000012.html" target="_top" xlink:title="3">
<text text-anchor="middle" x="81.79" y="-36.57" font-family="Helvetica,sans-Serif" font-size="10.00" fill="#63b8ff">3</text>
</a>
</g>
</g>
<!-- dir_875b99cbdca8d2b6905ce62c17d98a88&#45;&gt;dir_69b14e16e0eee9a46da4d54c5f132aa1 -->
<g id="edge7" class="edge">
<title>dir_875b99cbdca8d2b6905ce62c17d98a88&#45;&gt;dir_69b14e16e0eee9a46da4d54c5f132aa1</title>
<g id="a_edge7"><a xlink:href="dir_000031_000028.html" target="_top">
<path fill="none" stroke="#63b8ff" d="M157.44,-70.98C197.65,-61.84 261.68,-47.27 305.44,-37.32"/>
<polygon fill="#63b8ff" stroke="#63b8ff" points="306.3,-40.71 315.27,-35.08 304.74,-33.89 306.3,-40.71"/>
</a>
</g>
<g id="a_edge7&#45;headlabel"><a xlink:href="dir_000031_000028.html" target="_top" xlink:title="1">
<text text-anchor="middle" x="303.42" y="-41.78" font-family="Helvetica,sans-Serif" font-size="10.00" fill="#63b8ff">1</text>
</a>
</g>
</g>
<!-- dir_4e0f77985c40f3144c6141084002b934 -->
<g id="node7" class="node">
<title>dir_4e0f77985c40f3144c6141084002b934</title>
<g id="a_node7"><a xlink:href="dir_4e0f77985c40f3144c6141084002b934.html" target="_top" xlink:title="sources_common">
<polygon fill="#edf0f7" stroke="#404040" points="282,-35 188,-35 188,-16 282,-16 282,-35"/>
<text text-anchor="middle" x="235" y="-23" font-family="Helvetica,sans-Serif" font-size="10.00">sources_common</text>
</a>
</g>
</g>
<!-- dir_875b99cbdca8d2b6905ce62c17d98a88&#45;&gt;dir_4e0f77985c40f3144c6141084002b934 -->
<g id="edge6" class="edge">
<title>dir_875b99cbdca8d2b6905ce62c17d98a88&#45;&gt;dir_4e0f77985c40f3144c6141084002b934</title>
<g id="a_edge6"><a xlink:href="dir_000031_000037.html" target="_top">
<path fill="none" stroke="#63b8ff" d="M138.48,-70.98C156.98,-62.46 185.68,-49.23 206.98,-39.41"/>
<polygon fill="#63b8ff" stroke="#63b8ff" points="208.57,-42.53 216.19,-35.17 205.64,-36.18 208.57,-42.53"/>
</a>
</g>
<g id="a_edge6&#45;headlabel"><a xlink:href="dir_000031_000037.html" target="_top" xlink:title="3">
<text text-anchor="middle" x="206.49" y="-44.12" font-family="Helvetica,sans-Serif" font-size="10.00" fill="#63b8ff">3</text>
</a>
</g>
</g>
</g>
</svg>
