<?xml version="1.0" encoding="UTF-8" standalone="no"?>
<!DOCTYPE svg PUBLIC "-//W3C//DTD SVG 1.1//EN"
 "http://www.w3.org/Graphics/SVG/1.1/DTD/svg11.dtd">
<!-- Generated by graphviz version 2.44.1 (20200629.0846)
 -->
<!-- Title: C:/Users/M70027/Documents/Projects/tp&#45;deployment/dspic33ch&#45;power&#45;totem&#45;pole&#45;demonstration&#45;application&#45;single&#45;phase_v2/dspic33ch_totem_pole_single_phase_primary_IL.X/sources/driver Pages: 1 -->
<svg width="229pt" height="235pt"
 viewBox="0.00 0.00 229.00 235.00" xmlns="http://www.w3.org/2000/svg" xmlns:xlink="http://www.w3.org/1999/xlink">

<svg id="main" version="1.1" xmlns="http://www.w3.org/2000/svg" xmlns:xlink="http://www.w3.org/1999/xlink" xml:space="preserve">

<style type="text/css"><![CDATA[
.node, .edge {opacity: 0.7;}
.node.selected, .edge.selected {opacity: 1;}
.edge:hover path { stroke: red; }
.edge:hover polygon { stroke: red; fill: red; }
]]></style>
<script type="application/ecmascript" xlink:href="svg.min.js"/>
<svg id="graph" class="graph">
<g id="graph0" class="graph" transform="scale(1 1) rotate(0) translate(4 231)">
<title>C:/Users/M70027/Documents/Projects/tp&#45;deployment/dspic33ch&#45;power&#45;totem&#45;pole&#45;demonstration&#45;application&#45;single&#45;phase_v2/dspic33ch_totem_pole_single_phase_primary_IL.X/sources/driver</title>
<g id="clust1" class="cluster">
<title>clusterdir_b63bf80cfa71ba12093fc44884f3435d</title>
<g id="a_clust1"><a xlink:href="dir_b63bf80cfa71ba12093fc44884f3435d.html" target="_top" xlink:title="sources">
<polygon fill="#edf0f7" stroke="#7f7f7f" stroke-dasharray="5,2" points="8,-39 8,-219 163,-219 163,-39 8,-39"/>
<text text-anchor="middle" x="85.5" y="-207" font-family="Helvetica,sans-Serif" font-size="10.00">sources</text>
</a>
</g>
</g>
<g id="clust2" class="cluster">
<title>clusterdir_c837f06f5404dcd805cc88e74a1709fa</title>
<g id="a_clust2"><a xlink:href="dir_c837f06f5404dcd805cc88e74a1709fa.html" target="_top">
<polygon fill="#edf0f7" stroke="#404040" stroke-width="2" points="16,-47 16,-192 155,-192 155,-47 16,-47"/>
</a>
</g>
</g>
<!-- dir_c837f06f5404dcd805cc88e74a1709fa -->
<g id="node1" class="node">
<title>dir_c837f06f5404dcd805cc88e74a1709fa</title>
<text text-anchor="middle" x="123" y="-172" font-family="Helvetica,sans-Serif" font-size="10.00">driver</text>
</g>
<!-- dir_210b6473754239258301118585da1fed -->
<g id="node2" class="node">
<title>dir_210b6473754239258301118585da1fed</title>
<g id="a_node2"><a xlink:href="dir_210b6473754239258301118585da1fed.html" target="_top" xlink:title="can">
<polygon fill="#a2b4d6" stroke="#404040" points="78,-184 46,-184 46,-165 78,-165 78,-184"/>
<text text-anchor="middle" x="62" y="-172" font-family="Helvetica,sans-Serif" font-size="10.00">can</text>
</a>
</g>
</g>
<!-- dir_0ae552972f0a2c9a71a9660e2f793add -->
<g id="node3" class="node">
<title>dir_0ae552972f0a2c9a71a9660e2f793add</title>
<g id="a_node3"><a xlink:href="dir_0ae552972f0a2c9a71a9660e2f793add.html" target="_top" xlink:title="dma">
<polygon fill="#a2b4d6" stroke="#404040" points="126.5,-129 91.5,-129 91.5,-110 126.5,-110 126.5,-129"/>
<text text-anchor="middle" x="109" y="-117" font-family="Helvetica,sans-Serif" font-size="10.00">dma</text>
</a>
</g>
</g>
<!-- dir_210b6473754239258301118585da1fed&#45;&gt;dir_0ae552972f0a2c9a71a9660e2f793add -->
<g id="edge1" class="edge">
<title>dir_210b6473754239258301118585da1fed&#45;&gt;dir_0ae552972f0a2c9a71a9660e2f793add</title>
<g id="a_edge1"><a xlink:href="dir_000003_000015.html" target="_top">
<path fill="none" stroke="#63b8ff" d="M64.59,-164.75C69.78,-157.03 79.56,-145.6 88.77,-136.28"/>
<polygon fill="#63b8ff" stroke="#63b8ff" points="91.47,-138.54 96.25,-129.09 86.62,-133.5 91.47,-138.54"/>
</a>
</g>
<g id="a_edge1&#45;headlabel"><a xlink:href="dir_000003_000015.html" target="_top" xlink:title="1">
<text text-anchor="middle" x="90.85" y="-140.58" font-family="Helvetica,sans-Serif" font-size="10.00" fill="#63b8ff">1</text>
</a>
</g>
</g>
<!-- dir_4211056daf4aff14454ce70cbd91aa59 -->
<g id="node4" class="node">
<title>dir_4211056daf4aff14454ce70cbd91aa59</title>
<g id="a_node4"><a xlink:href="dir_4211056daf4aff14454ce70cbd91aa59.html" target="_top" xlink:title="i2c">
<polygon fill="#a2b4d6" stroke="#404040" points="73.5,-129 44.5,-129 44.5,-110 73.5,-110 73.5,-129"/>
<text text-anchor="middle" x="59" y="-117" font-family="Helvetica,sans-Serif" font-size="10.00">i2c</text>
</a>
</g>
</g>
<!-- dir_210b6473754239258301118585da1fed&#45;&gt;dir_4211056daf4aff14454ce70cbd91aa59 -->
<g id="edge2" class="edge">
<title>dir_210b6473754239258301118585da1fed&#45;&gt;dir_4211056daf4aff14454ce70cbd91aa59</title>
<g id="a_edge2"><a xlink:href="dir_000003_000021.html" target="_top">
<path fill="none" stroke="#63b8ff" d="M56.34,-164.75C54.45,-157.8 53.45,-147.85 53.58,-139.13"/>
<polygon fill="#63b8ff" stroke="#63b8ff" points="57.07,-139.33 54.36,-129.09 50.09,-138.79 57.07,-139.33"/>
</a>
</g>
<g id="a_edge2&#45;headlabel"><a xlink:href="dir_000003_000021.html" target="_top" xlink:title="1">
<text text-anchor="middle" x="59.62" y="-140.63" font-family="Helvetica,sans-Serif" font-size="10.00" fill="#63b8ff">1</text>
</a>
</g>
</g>
<!-- dir_9f99f8b974f08086dff8c228d650ed09 -->
<g id="node5" class="node">
<title>dir_9f99f8b974f08086dff8c228d650ed09</title>
<g id="a_node5"><a xlink:href="dir_9f99f8b974f08086dff8c228d650ed09.html" target="_top" xlink:title="spi">
<polygon fill="#a2b4d6" stroke="#404040" points="53.5,-74 24.5,-74 24.5,-55 53.5,-55 53.5,-74"/>
<text text-anchor="middle" x="39" y="-62" font-family="Helvetica,sans-Serif" font-size="10.00">spi</text>
</a>
</g>
</g>
<!-- dir_210b6473754239258301118585da1fed&#45;&gt;dir_9f99f8b974f08086dff8c228d650ed09 -->
<g id="edge4" class="edge">
<title>dir_210b6473754239258301118585da1fed&#45;&gt;dir_9f99f8b974f08086dff8c228d650ed09</title>
<g id="a_edge4"><a xlink:href="dir_000003_000038.html" target="_top">
<path fill="none" stroke="#63b8ff" d="M47.97,-164.97C39.23,-156.48 29.85,-142.75 26,-129 21.86,-114.21 23.4,-96.75 27.11,-83.88"/>
<polygon fill="#63b8ff" stroke="#63b8ff" points="30.46,-84.91 30.66,-74.32 23.9,-82.48 30.46,-84.91"/>
</a>
</g>
<g id="a_edge4&#45;headlabel"><a xlink:href="dir_000003_000038.html" target="_top" xlink:title="1">
<text text-anchor="middle" x="31.87" y="-86.77" font-family="Helvetica,sans-Serif" font-size="10.00" fill="#63b8ff">1</text>
</a>
</g>
</g>
<!-- dir_ee26b5d358eea313ee790017f7a04c28 -->
<g id="node6" class="node">
<title>dir_ee26b5d358eea313ee790017f7a04c28</title>
<g id="a_node6"><a xlink:href="dir_ee26b5d358eea313ee790017f7a04c28.html" target="_top" xlink:title="vac_monitor">
<polygon fill="#a2b4d6" stroke="#404040" points="140,-74 72,-74 72,-55 140,-55 140,-74"/>
<text text-anchor="middle" x="106" y="-62" font-family="Helvetica,sans-Serif" font-size="10.00">vac_monitor</text>
</a>
</g>
</g>
<!-- dir_210b6473754239258301118585da1fed&#45;&gt;dir_ee26b5d358eea313ee790017f7a04c28 -->
<g id="edge5" class="edge">
<title>dir_210b6473754239258301118585da1fed&#45;&gt;dir_ee26b5d358eea313ee790017f7a04c28</title>
<g id="a_edge5"><a xlink:href="dir_000003_000059.html" target="_top">
<path fill="none" stroke="#63b8ff" d="M78.14,-169.01C95.94,-163.09 123.68,-150.79 136,-129 144.76,-113.5 133.77,-95.03 122.71,-82.01"/>
<polygon fill="#63b8ff" stroke="#63b8ff" points="124.98,-79.31 115.63,-74.33 119.83,-84.06 124.98,-79.31"/>
</a>
</g>
<g id="a_edge5&#45;headlabel"><a xlink:href="dir_000003_000059.html" target="_top" xlink:title="1">
<text text-anchor="middle" x="129.51" y="-77.54" font-family="Helvetica,sans-Serif" font-size="10.00" fill="#63b8ff">1</text>
</a>
</g>
</g>
<!-- dir_8b8092b65979f07985080485b64ccbfd -->
<g id="node7" class="node">
<title>dir_8b8092b65979f07985080485b64ccbfd</title>
<g id="a_node7"><a xlink:href="dir_8b8092b65979f07985080485b64ccbfd.html" target="_top" xlink:title="mcc_generated_files">
<polygon fill="#edf0f7" stroke="red" stroke-dasharray="5,2" points="221,-19 115,-19 115,0 221,0 221,-19"/>
<text text-anchor="middle" x="168" y="-7" font-family="Helvetica,sans-Serif" font-size="10.00">mcc_generated_files</text>
</a>
</g>
</g>
<!-- dir_210b6473754239258301118585da1fed&#45;&gt;dir_8b8092b65979f07985080485b64ccbfd -->
<g id="edge3" class="edge">
<title>dir_210b6473754239258301118585da1fed&#45;&gt;dir_8b8092b65979f07985080485b64ccbfd</title>
<g id="a_edge3"><a xlink:href="dir_000003_000027.html" target="_top">
<path fill="none" stroke="#63b8ff" d="M78.29,-167.84C95.93,-161 123.94,-148.01 142,-129 160.76,-109.26 162.84,-100.53 169,-74 172.52,-58.85 169.27,-54.55 169,-39 168.95,-35.89 168.86,-32.59 168.76,-29.38"/>
<polygon fill="#63b8ff" stroke="#63b8ff" points="172.25,-29.1 168.39,-19.23 165.25,-29.35 172.25,-29.1"/>
</a>
</g>
<g id="a_edge3&#45;headlabel"><a xlink:href="dir_000003_000027.html" target="_top" xlink:title="2">
<text text-anchor="middle" x="175.22" y="-30.08" font-family="Helvetica,sans-Serif" font-size="10.00" fill="#63b8ff">2</text>
</a>
</g>
</g>
<!-- dir_0ae552972f0a2c9a71a9660e2f793add&#45;&gt;dir_210b6473754239258301118585da1fed -->
<g id="edge6" class="edge">
<title>dir_0ae552972f0a2c9a71a9660e2f793add&#45;&gt;dir_210b6473754239258301118585da1fed</title>
<g id="a_edge6"><a xlink:href="dir_000015_000003.html" target="_top">
<path fill="none" stroke="#63b8ff" d="M106.46,-129.17C101.23,-136.98 91.24,-148.64 81.9,-158.04"/>
<polygon fill="#63b8ff" stroke="#63b8ff" points="79.46,-155.54 74.67,-164.98 84.31,-160.59 79.46,-155.54"/>
</a>
</g>
<g id="a_edge6&#45;headlabel"><a xlink:href="dir_000015_000003.html" target="_top" xlink:title="1">
<text text-anchor="middle" x="80.09" y="-148.5" font-family="Helvetica,sans-Serif" font-size="10.00" fill="#63b8ff">1</text>
</a>
</g>
</g>
<!-- dir_0ae552972f0a2c9a71a9660e2f793add&#45;&gt;dir_9f99f8b974f08086dff8c228d650ed09 -->
<g id="edge8" class="edge">
<title>dir_0ae552972f0a2c9a71a9660e2f793add&#45;&gt;dir_9f99f8b974f08086dff8c228d650ed09</title>
<g id="a_edge8"><a xlink:href="dir_000015_000038.html" target="_top">
<path fill="none" stroke="#63b8ff" d="M97.75,-109.98C87.2,-102 71.2,-89.88 58.56,-80.31"/>
<polygon fill="#63b8ff" stroke="#63b8ff" points="60.54,-77.42 50.45,-74.17 56.31,-83 60.54,-77.42"/>
</a>
</g>
<g id="a_edge8&#45;headlabel"><a xlink:href="dir_000015_000038.html" target="_top" xlink:title="1">
<text text-anchor="middle" x="65.12" y="-74.82" font-family="Helvetica,sans-Serif" font-size="10.00" fill="#63b8ff">1</text>
</a>
</g>
</g>
<!-- dir_0ae552972f0a2c9a71a9660e2f793add&#45;&gt;dir_ee26b5d358eea313ee790017f7a04c28 -->
<g id="edge9" class="edge">
<title>dir_0ae552972f0a2c9a71a9660e2f793add&#45;&gt;dir_ee26b5d358eea313ee790017f7a04c28</title>
<g id="a_edge9"><a xlink:href="dir_000015_000059.html" target="_top">
<path fill="none" stroke="#63b8ff" d="M108.5,-109.75C108.11,-102.8 107.55,-92.85 107.05,-84.13"/>
<polygon fill="#63b8ff" stroke="#63b8ff" points="110.55,-83.88 106.49,-74.09 103.56,-84.27 110.55,-83.88"/>
</a>
</g>
<g id="a_edge9&#45;headlabel"><a xlink:href="dir_000015_000059.html" target="_top" xlink:title="1">
<text text-anchor="middle" x="113.58" y="-84.8" font-family="Helvetica,sans-Serif" font-size="10.00" fill="#63b8ff">1</text>
</a>
</g>
</g>
<!-- dir_0ae552972f0a2c9a71a9660e2f793add&#45;&gt;dir_8b8092b65979f07985080485b64ccbfd -->
<g id="edge7" class="edge">
<title>dir_0ae552972f0a2c9a71a9660e2f793add&#45;&gt;dir_8b8092b65979f07985080485b64ccbfd</title>
<g id="a_edge7"><a xlink:href="dir_000015_000027.html" target="_top">
<path fill="none" stroke="#63b8ff" d="M118.91,-109.9C127.95,-101.56 141.07,-88.13 149,-74 156.84,-60.03 161.77,-42.47 164.64,-29.37"/>
<polygon fill="#63b8ff" stroke="#63b8ff" points="168.15,-29.68 166.65,-19.19 161.28,-28.32 168.15,-29.68"/>
</a>
</g>
<g id="a_edge7&#45;headlabel"><a xlink:href="dir_000015_000027.html" target="_top" xlink:title="4">
<text text-anchor="middle" x="170.24" y="-31.26" font-family="Helvetica,sans-Serif" font-size="10.00" fill="#63b8ff">4</text>
</a>
</g>
</g>
<!-- dir_4211056daf4aff14454ce70cbd91aa59&#45;&gt;dir_210b6473754239258301118585da1fed -->
<g id="edge10" class="edge">
<title>dir_4211056daf4aff14454ce70cbd91aa59&#45;&gt;dir_210b6473754239258301118585da1fed</title>
<g id="a_edge10"><a xlink:href="dir_000021_000003.html" target="_top">
<path fill="none" stroke="#63b8ff" d="M64.62,-129.09C66.52,-135.99 67.53,-145.93 67.43,-154.66"/>
<polygon fill="#63b8ff" stroke="#63b8ff" points="63.93,-154.51 66.67,-164.75 70.91,-155.04 63.93,-154.51"/>
</a>
</g>
<g id="a_edge10&#45;headlabel"><a xlink:href="dir_000021_000003.html" target="_top" xlink:title="1">
<text text-anchor="middle" x="61.36" y="-148.22" font-family="Helvetica,sans-Serif" font-size="10.00" fill="#63b8ff">1</text>
</a>
</g>
</g>
<!-- dir_9f99f8b974f08086dff8c228d650ed09&#45;&gt;dir_210b6473754239258301118585da1fed -->
<g id="edge11" class="edge">
<title>dir_9f99f8b974f08086dff8c228d650ed09&#45;&gt;dir_210b6473754239258301118585da1fed</title>
<g id="a_edge11"><a xlink:href="dir_000038_000003.html" target="_top">
<path fill="none" stroke="#63b8ff" d="M42.61,-74.32C42.71,-86.76 38.7,-110.06 44,-129 46.7,-138.67 52.15,-148.33 56.7,-156.16"/>
<polygon fill="#63b8ff" stroke="#63b8ff" points="53.74,-158.02 61.73,-164.97 59.82,-154.55 53.74,-158.02"/>
</a>
</g>
<g id="a_edge11&#45;headlabel"><a xlink:href="dir_000038_000003.html" target="_top" xlink:title="1">
<text text-anchor="middle" x="49.49" y="-153.81" font-family="Helvetica,sans-Serif" font-size="10.00" fill="#63b8ff">1</text>
</a>
</g>
</g>
<!-- dir_9f99f8b974f08086dff8c228d650ed09&#45;&gt;dir_8b8092b65979f07985080485b64ccbfd -->
<g id="edge12" class="edge">
<title>dir_9f99f8b974f08086dff8c228d650ed09&#45;&gt;dir_8b8092b65979f07985080485b64ccbfd</title>
<g id="a_edge12"><a xlink:href="dir_000038_000027.html" target="_top">
<path fill="none" stroke="#63b8ff" d="M45.67,-54.62C50.05,-49.37 56.22,-42.98 63,-39 75.91,-31.43 90.88,-25.82 105.41,-21.67"/>
<polygon fill="#63b8ff" stroke="#63b8ff" points="106.59,-24.98 115.36,-19.03 104.8,-18.21 106.59,-24.98"/>
</a>
</g>
<g id="a_edge12&#45;headlabel"><a xlink:href="dir_000038_000027.html" target="_top" xlink:title="4">
<text text-anchor="middle" x="103.84" y="-26.15" font-family="Helvetica,sans-Serif" font-size="10.00" fill="#63b8ff">4</text>
</a>
</g>
</g>
</g>
</svg>
</svg>

<style type='text/css'>
<![CDATA[
[data-mouse-over-selected='false'] { opacity: 0.7; }
[data-mouse-over-selected='true']  { opacity: 1.0; }
]]>
</style>
<script type="application/ecmascript"><![CDATA[
document.addEventListener('DOMContentLoaded', (event) => {
  highlightEdges();
  highlightAdjacentNodes();
});
]]></script>
</svg>
