<?xml version="1.0" encoding="UTF-8" standalone="no"?>
<!DOCTYPE svg PUBLIC "-//W3C//DTD SVG 1.1//EN"
 "http://www.w3.org/Graphics/SVG/1.1/DTD/svg11.dtd">
<!-- Generated by graphviz version 2.44.1 (20200629.0846)
 -->
<!-- Title: Graphical Class Hierarchy Pages: 1 -->
<svg width="311pt" height="175pt"
 viewBox="0.00 0.00 311.00 175.00" xmlns="http://www.w3.org/2000/svg" xmlns:xlink="http://www.w3.org/1999/xlink">
<g id="graph0" class="graph" transform="scale(1 1) rotate(0) translate(4 171)">
<title>Graphical Class Hierarchy</title>
<!-- Node0 -->
<g id="Node000000" class="node">
<title>Node0</title>
<g id="a_Node000000"><a xlink:title=" ">
<polygon fill="#e0e0e0" stroke="#999999" points="119,-93 0,-93 0,-74 119,-74 119,-93"/>
<text text-anchor="middle" x="59.5" y="-81" font-family="Helvetica,sans-Serif" font-size="10.00">PARENT_STRUCTURE</text>
</a>
</g>
</g>
<!-- Node1 -->
<g id="Node000001" class="node">
<title>Node1</title>
<g id="a_Node000001"><a xlink:href="a00575.html" target="_top" xlink:title="ADD_SHORT_DESCRIPTION.">
<polygon fill="white" stroke="#666666" points="274.5,-167 183.5,-167 183.5,-148 274.5,-148 274.5,-167"/>
<text text-anchor="middle" x="229" y="-155" font-family="Helvetica,sans-Serif" font-size="10.00">VACM_FAULT_s</text>
</a>
</g>
</g>
<!-- Node0&#45;&gt;Node1 -->
<g id="edge1_Node000000_Node000001" class="edge">
<title>Node0&#45;&gt;Node1</title>
<g id="a_edge1_Node000000_Node000001"><a xlink:title=" ">
<path fill="none" stroke="#63b8ff" d="M82.24,-98.9C100.81,-111.41 128.61,-128.7 155,-139.5 163.94,-143.16 173.81,-146.2 183.33,-148.69"/>
<polygon fill="#63b8ff" stroke="#63b8ff" points="84.15,-95.96 73.92,-93.19 80.19,-101.73 84.15,-95.96"/>
</a>
</g>
</g>
<!-- Node2 -->
<g id="Node000002" class="node">
<title>Node2</title>
<g id="a_Node000002"><a xlink:href="a00719.html" target="_top" xlink:title="ADD_SHORT_DESCRIPTION.">
<polygon fill="white" stroke="#666666" points="303,-130 155,-130 155,-111 303,-111 303,-130"/>
<text text-anchor="middle" x="229" y="-118" font-family="Helvetica,sans-Serif" font-size="10.00">VACM_RUNTIME_BUFFER_s</text>
</a>
</g>
</g>
<!-- Node0&#45;&gt;Node2 -->
<g id="edge2_Node000000_Node000002" class="edge">
<title>Node0&#45;&gt;Node2</title>
<g id="a_edge2_Node000000_Node000002"><a xlink:title=" ">
<path fill="none" stroke="#63b8ff" d="M113.56,-95.22C136.5,-100.29 163,-106.14 184.72,-110.94"/>
<polygon fill="#63b8ff" stroke="#63b8ff" points="114.15,-91.77 103.64,-93.03 112.65,-98.6 114.15,-91.77"/>
</a>
</g>
</g>
<!-- Node3 -->
<g id="Node000003" class="node">
<title>Node3</title>
<g id="a_Node000003"><a xlink:href="a00563.html" target="_top" xlink:title="ADD_SHORT_DESCRIPTION.">
<polygon fill="white" stroke="#666666" points="278,-93 180,-93 180,-74 278,-74 278,-93"/>
<text text-anchor="middle" x="229" y="-81" font-family="Helvetica,sans-Serif" font-size="10.00">VACM_STATUS_s</text>
</a>
</g>
</g>
<!-- Node0&#45;&gt;Node3 -->
<g id="edge3_Node000000_Node000003" class="edge">
<title>Node0&#45;&gt;Node3</title>
<g id="a_edge3_Node000000_Node000003"><a xlink:title=" ">
<path fill="none" stroke="#63b8ff" d="M129.51,-83.5C146.46,-83.5 164.25,-83.5 179.97,-83.5"/>
<polygon fill="#63b8ff" stroke="#63b8ff" points="129.08,-80 119.08,-83.5 129.08,-87 129.08,-80"/>
</a>
</g>
</g>
<!-- Node4 -->
<g id="Node000004" class="node">
<title>Node4</title>
<g id="a_Node000004"><a xlink:href="a00595.html" target="_top" xlink:title="ADD_SHORT_DESCRIPTION.">
<polygon fill="white" stroke="#666666" points="284,-56 174,-56 174,-37 284,-37 284,-56"/>
<text text-anchor="middle" x="229" y="-44" font-family="Helvetica,sans-Serif" font-size="10.00">VACM_TIMEBASE_s</text>
</a>
</g>
</g>
<!-- Node0&#45;&gt;Node4 -->
<g id="edge4_Node000000_Node000004" class="edge">
<title>Node0&#45;&gt;Node4</title>
<g id="a_edge4_Node000000_Node000004"><a xlink:title=" ">
<path fill="none" stroke="#63b8ff" d="M113.56,-71.78C136.5,-66.71 163,-60.86 184.72,-56.06"/>
<polygon fill="#63b8ff" stroke="#63b8ff" points="112.65,-68.4 103.64,-73.97 114.15,-75.23 112.65,-68.4"/>
</a>
</g>
</g>
<!-- Node5 -->
<g id="Node000005" class="node">
<title>Node5</title>
<g id="a_Node000005"><a xlink:href="a00587.html" target="_top" xlink:title="ADD_SHORT_DESCRIPTION.">
<polygon fill="white" stroke="#666666" points="267.5,-19 190.5,-19 190.5,0 267.5,0 267.5,-19"/>
<text text-anchor="middle" x="229" y="-7" font-family="Helvetica,sans-Serif" font-size="10.00">VACM_VIN_s</text>
</a>
</g>
</g>
<!-- Node0&#45;&gt;Node5 -->
<g id="edge5_Node000000_Node000005" class="edge">
<title>Node0&#45;&gt;Node5</title>
<g id="a_edge5_Node000000_Node000005"><a xlink:title=" ">
<path fill="none" stroke="#63b8ff" d="M82.64,-68.27C101.25,-56.07 128.91,-39.25 155,-28.5 166.14,-23.91 178.7,-20.17 190.22,-17.25"/>
<polygon fill="#63b8ff" stroke="#63b8ff" points="80.66,-65.39 74.28,-73.85 84.55,-71.21 80.66,-65.39"/>
</a>
</g>
</g>
</g>
</svg>
