<?xml version="1.0" encoding="UTF-8" standalone="no"?>
<!DOCTYPE svg PUBLIC "-//W3C//DTD SVG 1.1//EN"
 "http://www.w3.org/Graphics/SVG/1.1/DTD/svg11.dtd">
<!-- Generated by graphviz version 8.1.0 (20230707.0739)
 -->
<!-- Title: Graphical Class Hierarchy Pages: 1 -->
<svg width="309pt" height="180pt"
 viewBox="0.00 0.00 309.25 180.00" xmlns="http://www.w3.org/2000/svg" xmlns:xlink="http://www.w3.org/1999/xlink">
<g id="graph0" class="graph" transform="scale(1 1) rotate(0) translate(4 176)">
<title>Graphical Class Hierarchy</title>
<!-- Node0 -->
<g id="Node000000" class="node">
<title>Node0</title>
<g id="a_Node000000"><a xlink:title=" ">
<polygon fill="#e0e0e0" stroke="#999999" points="118,-96 0,-96 0,-76 118,-76 118,-96"/>
<text text-anchor="middle" x="59" y="-82.5" font-family="Helvetica,sans-Serif" font-size="10.00">PARENT_STRUCTURE</text>
</a>
</g>
</g>
<!-- Node1 -->
<g id="Node000001" class="node">
<title>Node1</title>
<g id="a_Node000001"><a xlink:href="a00569.html" target="_top" xlink:title="ADD_SHORT_DESCRIPTION.">
<polygon fill="white" stroke="#666666" points="272.75,-172 182.5,-172 182.5,-152 272.75,-152 272.75,-172"/>
<text text-anchor="middle" x="227.62" y="-158.5" font-family="Helvetica,sans-Serif" font-size="10.00">VACM_FAULT_s</text>
</a>
</g>
</g>
<!-- Node0&#45;&gt;Node1 -->
<g id="edge1_Node000000_Node000001" class="edge">
<title>Node0&#45;&gt;Node1</title>
<g id="a_edge1_Node000000_Node000001"><a xlink:title=" ">
<path fill="none" stroke="#63b8ff" d="M83.08,-102.61C101.52,-115.21 128.41,-132.16 154,-143 162.88,-146.76 172.7,-149.93 182.16,-152.55"/>
<polygon fill="#63b8ff" stroke="#63b8ff" points="85.47,-99.31 75.27,-96.47 81.47,-105.06 85.47,-99.31"/>
</a>
</g>
</g>
<!-- Node2 -->
<g id="Node000002" class="node">
<title>Node2</title>
<g id="a_Node000002"><a xlink:href="a00713.html" target="_top" xlink:title="ADD_SHORT_DESCRIPTION.">
<polygon fill="white" stroke="#666666" points="301.25,-134 154,-134 154,-114 301.25,-114 301.25,-134"/>
<text text-anchor="middle" x="227.62" y="-120.5" font-family="Helvetica,sans-Serif" font-size="10.00">VACM_RUNTIME_BUFFER_s</text>
</a>
</g>
</g>
<!-- Node0&#45;&gt;Node2 -->
<g id="edge2_Node000000_Node000002" class="edge">
<title>Node0&#45;&gt;Node2</title>
<g id="a_edge2_Node000000_Node000002"><a xlink:title=" ">
<path fill="none" stroke="#63b8ff" d="M116.65,-98.92C137.56,-103.69 160.97,-109.03 180.8,-113.55"/>
<polygon fill="#63b8ff" stroke="#63b8ff" points="117.5,-95.3 106.97,-96.48 115.94,-102.12 117.5,-95.3"/>
</a>
</g>
</g>
<!-- Node3 -->
<g id="Node000003" class="node">
<title>Node3</title>
<g id="a_Node000003"><a xlink:href="a00557.html" target="_top" xlink:title="ADD_SHORT_DESCRIPTION.">
<polygon fill="white" stroke="#666666" points="276.5,-96 178.75,-96 178.75,-76 276.5,-76 276.5,-96"/>
<text text-anchor="middle" x="227.62" y="-82.5" font-family="Helvetica,sans-Serif" font-size="10.00">VACM_STATUS_s</text>
</a>
</g>
</g>
<!-- Node0&#45;&gt;Node3 -->
<g id="edge3_Node000000_Node000003" class="edge">
<title>Node0&#45;&gt;Node3</title>
<g id="a_edge3_Node000000_Node000003"><a xlink:title=" ">
<path fill="none" stroke="#63b8ff" d="M129.02,-86C145.58,-86 162.92,-86 178.31,-86"/>
<polygon fill="#63b8ff" stroke="#63b8ff" points="129.28,-82.5 119.28,-86 129.28,-89.5 129.28,-82.5"/>
</a>
</g>
</g>
<!-- Node4 -->
<g id="Node000004" class="node">
<title>Node4</title>
<g id="a_Node000004"><a xlink:href="a00589.html" target="_top" xlink:title="ADD_SHORT_DESCRIPTION.">
<polygon fill="white" stroke="#666666" points="282.5,-58 172.75,-58 172.75,-38 282.5,-38 282.5,-58"/>
<text text-anchor="middle" x="227.62" y="-44.5" font-family="Helvetica,sans-Serif" font-size="10.00">VACM_TIMEBASE_s</text>
</a>
</g>
</g>
<!-- Node0&#45;&gt;Node4 -->
<g id="edge4_Node000000_Node000004" class="edge">
<title>Node0&#45;&gt;Node4</title>
<g id="a_edge4_Node000000_Node000004"><a xlink:title=" ">
<path fill="none" stroke="#63b8ff" d="M116.65,-73.08C137.56,-68.31 160.97,-62.97 180.8,-58.45"/>
<polygon fill="#63b8ff" stroke="#63b8ff" points="115.94,-69.88 106.97,-75.52 117.5,-76.7 115.94,-69.88"/>
</a>
</g>
</g>
<!-- Node5 -->
<g id="Node000005" class="node">
<title>Node5</title>
<g id="a_Node000005"><a xlink:href="a00581.html" target="_top" xlink:title="ADD_SHORT_DESCRIPTION.">
<polygon fill="white" stroke="#666666" points="265.62,-20 189.62,-20 189.62,0 265.62,0 265.62,-20"/>
<text text-anchor="middle" x="227.62" y="-6.5" font-family="Helvetica,sans-Serif" font-size="10.00">VACM_VIN_s</text>
</a>
</g>
</g>
<!-- Node0&#45;&gt;Node5 -->
<g id="edge5_Node000000_Node000005" class="edge">
<title>Node0&#45;&gt;Node5</title>
<g id="a_edge5_Node000000_Node000005"><a xlink:title=" ">
<path fill="none" stroke="#63b8ff" d="M83.08,-69.39C101.52,-56.79 128.41,-39.84 154,-29 165.16,-24.27 177.8,-20.47 189.36,-17.55"/>
<polygon fill="#63b8ff" stroke="#63b8ff" points="81.47,-66.94 75.27,-75.53 85.47,-72.69 81.47,-66.94"/>
</a>
</g>
</g>
</g>
</svg>
